<?xml version="1.0" encoding="utf-8"?>
<!-- Generator: Adobe Illustrator 19.1.0, SVG Export Plug-In . SVG Version: 6.00 Build 0)  -->
<svg version="1.1" id="Layer_1" xmlns="http://www.w3.org/2000/svg" xmlns:xlink="http://www.w3.org/1999/xlink" x="0px" y="0px"
	 viewBox="0 0 16 16" style="enable-background:new 0 0 16 16;" xml:space="preserve">
<style type="text/css">
	.st0{fill:#0078D7;}
</style>
<path class="st0" d="M8.4,14c-1.9,0-3.6-1.5-3.6-3.3V4.8c0-1.5,1.2-2.7,2.7-2.7s2.7,1.2,2.7,2.7v5c0,1-0.8,1.8-1.8,1.8
	s-1.8-0.8-1.8-1.8V5.7h1.2v4.1c0,0.3,0.3,0.6,0.6,0.6S9,10.2,9,9.9v-5C9,4,8.4,3.4,7.5,3.4S6.1,4,6.1,4.8v5.9c0,1.2,1.3,2.1,2.4,2.1
	s2.4-0.9,2.4-2.1v-5H12v5C12,12.5,10.3,14,8.4,14z"/>
</svg>
