<?xml version="1.0" encoding="utf-8"?>
<!-- Generator: Adobe Illustrator 18.1.0, SVG Export Plug-In . SVG Version: 6.00 Build 0)  -->
<!DOCTYPE svg PUBLIC "-//W3C//DTD SVG 1.1//EN" "http://www.w3.org/Graphics/SVG/1.1/DTD/svg11.dtd">
<svg version="1.1" id="Layer_1" xmlns="http://www.w3.org/2000/svg" xmlns:xlink="http://www.w3.org/1999/xlink" x="0px" y="0px"
	 viewBox="0 0 283.2 218.8" enable-background="new 0 0 283.2 218.8" xml:space="preserve">
<g>
	<g id="speaker_1_">
		<g>
			<path fill="#00188F" d="M129.4,117.7c0,0.5-0.4,1-1,1h-6c-0.6,0-1-0.5-1-1v-16c0-0.6,0.4-1,1-1h6c0.6,0,1,0.4,1,1V117.7z"/>
		</g>
		<g>
			<path fill="#00188F" d="M133.1,101.1c-0.4,0.4-0.7,1.2-0.7,1.7v13.7c0,0.6,0.3,1.3,0.7,1.7l12.6,12.7c0.4,0.4,0.7,0.3,0.7-0.3
				v-42c0-0.6-0.3-0.7-0.7-0.3L133.1,101.1z"/>
		</g>
	</g>
	<path fill="#00188F" d="M151.7,102.3l-1.3,2.7c1.5,1.2,2.5,3.3,2.5,4.8c0,2.1-1,3.9-2.5,5.1l1.3,2.5c2.4-1.7,4-4.5,4-7.6
		C155.6,106.7,154.1,104,151.7,102.3z"/>
	<path fill="#00188F" d="M155.2,95.3l-1.4,3c3.9,2.5,6.5,6.9,6.5,11.5c0,5-2.6,9.4-6.5,11.8l1.4,2.8c4.9-3,8.3-8.4,8.3-14.6
		C163.4,103.5,160.1,98.3,155.2,95.3z"/>
</g>
</svg>
