<?xml version="1.0" encoding="utf-8"?>
<!-- Generator: Adobe Illustrator 18.1.0, SVG Export Plug-In . SVG Version: 6.00 Build 0)  -->
<!DOCTYPE svg PUBLIC "-//W3C//DTD SVG 1.1//EN" "http://www.w3.org/Graphics/SVG/1.1/DTD/svg11.dtd">
<svg version="1.1" id="Layer_1" xmlns="http://www.w3.org/2000/svg" xmlns:xlink="http://www.w3.org/1999/xlink" x="0px" y="0px"
	 viewBox="0 0 216 216" enable-background="new 0 0 216 216" xml:space="preserve">
<path fill="#00188F" d="M92.4,116c0-0.7,0-1.4,0.1-2.1h-5.8c-1.2,0-2.1,0.9-2.1,2.1c0,1.1,0.9,2.1,2.1,2.1h5.8
	C92.5,117.4,92.4,116.7,92.4,116 M131,103.9c0.8-0.8,0.8-2.1,0-2.9c-0.8-0.8-2.2-0.8-3,0l-3.7,3.7c0.7,1.3,1.3,2.6,1.8,4.1
	L131,103.9z M88.2,128.6c-0.8,0.8-0.8,2.1,0,2.9c0.8,0.8,2.2,0.8,3,0l4.2-4.1c-0.7-1.3-1.3-2.6-1.8-4.1L88.2,128.6z M93.5,109.1
	c0.4-1.5,1-2.9,1.7-4.1l-4-4c-0.8-0.8-2.2-0.8-3,0c-0.8,0.8-0.8,2.1,0,2.9L93.5,109.1z M126,123.6c-0.5,1.4-1.1,2.8-1.8,4l3.9,3.8
	c0.8,0.8,2.2,0.8,3,0c0.8-0.8,0.8-2.1,0-2.9L126,123.6z M132.5,113.9h-5.4c0.1,0.7,0.1,1.4,0.1,2.1c0,0.7,0,1.3-0.1,2h5.4
	c1.2,0,2.1-0.9,2.1-2.1C134.6,114.8,133.7,113.9,132.5,113.9"/>
<path fill="#00188F" d="M108.4,119.6L108.4,119.6v-19.3h-4.8c-4.7,2.8-7.9,8.7-7.9,15.5c0,0.6,0,1.1,0.1,1.6c0,0.3,0.1,0.5,0.1,0.8
	c0,0.3,0.1,0.5,0.1,0.8c0.1,0.4,0.1,0.8,0.2,1.1c0,0.1,0,0.3,0.1,0.4c0.1,0.4,0.2,0.9,0.4,1.3c0,0.1,0,0.1,0,0.2
	c0.1,0.5,0.3,0.9,0.5,1.4c0,0,0,0,0,0c0.5,1.4,1.2,2.6,2.1,3.8c0,0,0,0,0,0l0,0c1.1,1.6,2.5,2.9,4,3.9c0,0,0,0,0,0
	c0.4,0.2,0.7,0.4,1.1,0.6c0,0,0.1,0,0.1,0.1c0.3,0.2,0.7,0.3,1.1,0.5c0.1,0,0.1,0.1,0.2,0.1c0.4,0.1,0.7,0.2,1.1,0.3
	c0.1,0,0.1,0,0.2,0.1c0.4,0.1,0.9,0.2,1.3,0.3l0,0h0L108.4,119.6z"/>
<path fill="#00188F" d="M124.2,115.9c0-0.4,0-0.8,0-1.2c0-0.2,0-0.4,0-0.6c0-0.2,0-0.3,0-0.5c-0.5-4.9-2.7-9.1-5.8-11.9
	c0,0-0.1,0-0.1-0.1c-0.3-0.2-0.5-0.4-0.8-0.6c-0.1,0-0.1-0.1-0.2-0.1c-0.3-0.2-0.6-0.4-0.9-0.6h-4.8V117l0,0v16.2l0,0
	c4-0.5,7.4-3.1,9.7-6.7C123.1,123.5,124.2,119.9,124.2,115.9z"/>
<path fill="#00188F" d="M98,85c3.4,0,5,1.3,5.9,2.7c0.8,1.2,1,2.6,1,3.4c-1.9,1.3-3.3,3.3-3.7,5.7h17.5c-0.4-2.4-1.8-4.4-3.7-5.7
	c0-0.8,0.3-2.2,1-3.4c0.9-1.4,2.5-2.7,5.9-2.7c0.5,0,0.9-0.4,0.9-0.9c0-0.5-0.4-0.9-0.9-0.9c-3.9,0-6.3,1.6-7.5,3.5
	c-0.7,1.2-1.1,2.4-1.2,3.4c-1-0.4-2.1-0.6-3.3-0.6c-1.2,0-2.3,0.2-3.3,0.6c-0.1-1-0.5-2.2-1.2-3.4c-1.2-1.9-3.5-3.6-7.5-3.5
	c-0.5,0-0.9,0.4-0.9,0.9C97.1,84.6,97.5,85,98,85"/>
</svg>
