<?xml version="1.0" encoding="utf-8"?>
<!-- Generator: Adobe Illustrator 18.1.0, SVG Export Plug-In . SVG Version: 6.00 Build 0)  -->
<!DOCTYPE svg PUBLIC "-//W3C//DTD SVG 1.1//EN" "http://www.w3.org/Graphics/SVG/1.1/DTD/svg11.dtd">
<svg version="1.1" id="Layer_1" xmlns="http://www.w3.org/2000/svg" xmlns:xlink="http://www.w3.org/1999/xlink" x="0px" y="0px"
	 viewBox="0 0 216 216" enable-background="new 0 0 216 216" xml:space="preserve">
<g>
	<path fill="#00188F" d="M84.7,88.3v39h48v-39H84.7z M130.7,125.3h-44v-30h44V125.3z"/>
	<rect x="88.7" y="118.3" fill="#00188F" width="5" height="5"/>
	<rect x="88.7" y="111.3" fill="#00188F" width="5" height="5"/>
	<rect x="88.7" y="104.3" fill="#00188F" width="5" height="5"/>
	<rect x="95.7" y="118.3" fill="#00188F" width="5" height="5"/>
	<rect x="95.7" y="111.3" fill="#00188F" width="5" height="5"/>
	<rect x="95.7" y="104.3" fill="#00188F" width="5" height="5"/>
	<rect x="95.7" y="97.3" fill="#00188F" width="5" height="5"/>
	<rect x="102.7" y="118.3" fill="#00188F" width="5" height="5"/>
	<rect x="102.7" y="111.3" fill="#00188F" width="5" height="5"/>
	<rect x="102.7" y="104.3" fill="#00188F" width="5" height="5"/>
	<rect x="102.7" y="97.3" fill="#00188F" width="5" height="5"/>
	<rect x="109.7" y="118.3" fill="#00188F" width="5" height="5"/>
	<rect x="109.7" y="111.3" fill="#00188F" width="5" height="5"/>
	<rect x="109.7" y="104.3" fill="#00188F" width="5" height="5"/>
	<rect x="109.7" y="97.3" fill="#00188F" width="5" height="5"/>
	<rect x="116.7" y="118.3" fill="#00188F" width="5" height="5"/>
	<rect x="116.7" y="111.3" fill="#00188F" width="5" height="5"/>
	<rect x="116.7" y="104.3" fill="#00188F" width="5" height="5"/>
	<rect x="116.7" y="97.3" fill="#00188F" width="5" height="5"/>
	<rect x="123.7" y="111.3" fill="#00188F" width="5" height="5"/>
	<rect x="123.7" y="104.3" fill="#00188F" width="5" height="5"/>
	<rect x="123.7" y="97.3" fill="#00188F" width="5" height="5"/>
	<path fill="none" d="M84.7,88.3v39h48v-39H84.7z M130.7,125.3h-44v-30h44V125.3z"/>
	<rect x="86.7" y="95.3" fill="none" width="44" height="30"/>
</g>
</svg>
