<?xml version="1.0" encoding="utf-8"?>
<!-- Generator: Adobe Illustrator 18.1.0, SVG Export Plug-In . SVG Version: 6.00 Build 0)  -->
<!DOCTYPE svg PUBLIC "-//W3C//DTD SVG 1.1//EN" "http://www.w3.org/Graphics/SVG/1.1/DTD/svg11.dtd">
<svg version="1.1" id="Layer_1" xmlns="http://www.w3.org/2000/svg" xmlns:xlink="http://www.w3.org/1999/xlink" x="0px" y="0px"
	 viewBox="0 0 216 216" enable-background="new 0 0 216 216" xml:space="preserve">
<g>
	<title>Page-1</title>
	
		<v:pageProperties  v:shadowOffsetX="2.83465" v:shadowOffsetY="-2.83465" v:drawingScale="1" v:pageScale="1" v:drawingUnits="19" v:shadowType="1">
		</v:pageProperties>
	<g id="group28-1" transform="translate(0.177083,-0.177083)">
		<title>Continous Cycle Circle</title>
		<g id="shape29-2" transform="translate(4.38826,29.6587) scale(1,-1)">
			<title>Sheet.29</title>
			<path fill="#7F7F7F" d="M129.9-64.2l-1.7-7.1l-1.7-7.1l-5.3,5l-5.3,5l3.2,0.9c-3.1,4.8-8.5,8-14.5,8c-3.8,0-7.2-1.1-10.1-3.2v0.1
				l1.6,7.1l-7-2.2l-1.7-0.6c4.6,4.2,10.5,6.7,17.1,6.7c9.7,0,18.3-5.6,22.4-13.7L129.9-64.2z"/>
		</g>
		<g id="shape30-4" transform="translate(7.13093,40.5074) scale(1,-1)">
			<title>Sheet.30</title>
			<path fill="#7F7F7F" d="M127.2-65.8c0-13.9-11.3-25.3-25.3-25.3c-0.3,0-0.6,0-0.9,0l-1-3.8l-4.3,4.5l-0.7,0.8l-5,5.3l7.1,1.7
				l0.3,0.1l6.8,1.7l-0.7-2.3c8.8,0.8,15.8,8.2,15.8,17.3c0,0.2,0,0.5,0,0.7l5.3-5l1.7,7.1l0.6,2.2C127.1-62.5,127.2-64,127.2-65.8z
				"/>
		</g>
		<g id="shape31-6" transform="translate(1.35891E-013,32.7061) scale(1,-1)">
			<title>Sheet.31</title>
			<path fill="#7F7F7F" d="M101.8-89.7l-7.1-1.7l5-5.3l0.6-0.6c-9.7,3.5-16.7,12.9-16.7,23.8c0,4.7,1.3,9.2,3.5,12.9l-2.4,2.2
				l5.1,1.6l1.8,0.6l7,2.2l-1.5-6.7l-0.1-0.3l-1.6-7.1L93.3-66c-1-2.3-1.7-4.8-1.7-7.4c0-7.2,4.4-13.4,10.7-16L101.8-89.7z"/>
		</g>
	</g>
</g>
</svg>
