<?xml version="1.0" encoding="utf-8"?>
<!-- Generator: Adobe Illustrator 18.1.0, SVG Export Plug-In . SVG Version: 6.00 Build 0)  -->
<!DOCTYPE svg PUBLIC "-//W3C//DTD SVG 1.1//EN" "http://www.w3.org/Graphics/SVG/1.1/DTD/svg11.dtd">
<svg version="1.1" id="Layer_1" xmlns="http://www.w3.org/2000/svg" xmlns:xlink="http://www.w3.org/1999/xlink" x="0px" y="0px"
	 viewBox="0 0 216 216" enable-background="new 0 0 216 216" xml:space="preserve">
<g>
	<path fill="#00188F" d="M122.7,121.3c-1.3-4.8-6.5-7.9-8.6-10.5c-0.6-0.7-2.5-3-2.5-3l-9.7-21h-1.8l6,21c1.5,2.6,3.6,6.4,4,9.7
		c0.5,4.3,1.5,9,4.2,10.6C118.5,130.4,124.2,126.7,122.7,121.3z M118.7,125.1c-2,1-3.7-1.5-4.4-3c-0.6-1.2-1.4-5.8-1.1-7.3
		c2.3,0.6,4,2.2,5.2,4.1C119.8,120.9,120.4,124.2,118.7,125.1z"/>
	<path fill="#00188F" d="M103.6,128.1c2.7-1.5,3.2-6.2,3.8-10.6c0.4-3.3,2.6-7.2,4.1-9.7l6.2-21h-1.8l-9.9,21c0,0-1.5,2.2-2.1,3
		c-2.1,2.7-7.4,5.7-8.7,10.5C93.7,126.7,99.4,130.4,103.6,128.1z M99.7,118.8c1.3-1.9,3-3.5,5.2-4.1c0.4,1.5-0.5,6.2-1.1,7.3
		c-0.7,1.5-2.4,4-4.4,3C97.8,124.2,98.3,120.9,99.7,118.8z"/>
</g>
</svg>
