<?xml version="1.0" encoding="utf-8"?>
<!-- Generator: Adobe Illustrator 18.1.0, SVG Export Plug-In . SVG Version: 6.00 Build 0)  -->
<!DOCTYPE svg PUBLIC "-//W3C//DTD SVG 1.1//EN" "http://www.w3.org/Graphics/SVG/1.1/DTD/svg11.dtd">
<svg version="1.1" id="Layer_1" xmlns="http://www.w3.org/2000/svg" xmlns:xlink="http://www.w3.org/1999/xlink" x="0px" y="0px"
	 viewBox="0 0 216 216" enable-background="new 0 0 216 216" xml:space="preserve">
<path fill="#00188F" d="M103.7,90.3h-8.3c-1.3,0-2.8,0.6-3.7,1.5L89.6,94c-0.9,0.9-1.5,2.4-1.5,3.7V123c0,1.8,1.5,3.3,3.3,3.3h35.3
	c1.8,0,3.3-1.5,3.3-3.3V99.7c0-1.8-1.5-3.3-3.3-3.3h-14.8c-0.2,0-0.7-0.3-0.9-0.5l-3.4-3.9l0,0l0,0C106.5,91,105,90.3,103.7,90.3
	L103.7,90.3z"/>
</svg>
