<?xml version="1.0" encoding="utf-8"?>
<!-- Generator: Adobe Illustrator 18.1.0, SVG Export Plug-In . SVG Version: 6.00 Build 0)  -->
<!DOCTYPE svg PUBLIC "-//W3C//DTD SVG 1.1//EN" "http://www.w3.org/Graphics/SVG/1.1/DTD/svg11.dtd">
<svg version="1.1" id="Layer_1" xmlns="http://www.w3.org/2000/svg" xmlns:xlink="http://www.w3.org/1999/xlink" x="0px" y="0px"
	 viewBox="0 0 216 216" enable-background="new 0 0 216 216" xml:space="preserve">
<g>
	<title>Page-1</title>
	
		<v:pageProperties  v:shadowOffsetX="2.83465" v:shadowOffsetY="-2.83465" v:drawingScale="1" v:pageScale="1" v:drawingUnits="19" v:shadowType="1">
		</v:pageProperties>
	<g id="shape32-1" transform="translate(13.1143,-33.3)">
		<title>Game Controller</title>
		<path fill="#7F7F7F" d="M107.4,122c0,0-0.5,0-0.9,0.4c-0.4,0.4-2.2,1.8-3.6,2.7c-0.7,0.4-1.3,0.7-1.6,0.7
			c-0.7,0.2-2.5,0.4-5.8,0.4s-5.1-0.2-5.8-0.4c-0.4-0.2-0.9-0.4-1.6-0.7c-1.3-0.7-3.3-2.3-3.6-2.7c-0.4-0.4-0.9-0.4-0.9-0.4
			c-1.4,0-2.7,0.4-4,0.9c-2.2,0.7-3.6,1.8-3.6,1.8s-4.3,9.9-5.4,14.4c-1.4,6.5-2.9,12.8-1.6,17.3c0.4,1.4,1.1,3.4,4.1,3.4
			c2.5,0,8.3-5.6,11.2-8.1c2.5-2.2,5.1-2.5,11.4-2.5s8.7,0.4,11.4,2.5c2.7,2.5,8.7,7.9,11.2,8.1c3.1,0,3.8-2,4.1-3.4
			c1.1-4.5-0.2-10.8-1.6-17.3c-1.1-4.5-5.4-14.4-5.4-14.4s-1.6-1.1-3.6-1.8C110,122.2,108.7,122,107.4,122z M104.6,134.8
			c0.9,0.9,0.9,2.2,0,3.1c-0.9,0.9-2.2,0.9-3.1,0c-0.9-0.9-0.9-2.3,0-3.1C102.4,133.9,103.8,133.9,104.6,134.8z M109.4,130.1
			c0.9,0.9,0.9,2.4,0,3.1c-0.9,0.9-2.2,0.9-3.1,0c-0.9-0.9-0.9-2.2,0-3.1C107.1,129.2,108.5,129.2,109.4,130.1z M109.4,139.7
			c0.9,0.9,0.9,2.2,0,3.1c-0.9,0.9-2.2,0.9-3.1,0c-0.9-0.9-0.9-2.3,0-3.1C107.1,138.8,108.5,138.8,109.4,139.7z M114.1,134.8
			c0.9,0.9,0.9,2.2,0,3.1s-2.2,0.9-3.1,0c-0.9-0.9-0.9-2.3,0-3.1C111.9,133.9,113.2,133.9,114.1,134.8z M83.6,143.8
			c-3.8,0-6.8-3.1-6.8-6.9c0-3.8,3.1-6.9,6.8-6.9s6.9,3.1,6.9,6.9C90.5,140.7,87.4,143.8,83.6,143.8z M83.6,132.8c-2.2,0-4,1.8-4,4
			c0,2.2,1.8,4,4,4s4-1.8,4-4C87.6,134.6,85.8,132.8,83.6,132.8z"/>
	</g>
</g>
</svg>
