<?xml version="1.0" encoding="utf-8"?>
<!-- Generator: Adobe Illustrator 18.1.0, SVG Export Plug-In . SVG Version: 6.00 Build 0)  -->
<!DOCTYPE svg PUBLIC "-//W3C//DTD SVG 1.1//EN" "http://www.w3.org/Graphics/SVG/1.1/DTD/svg11.dtd">
<svg version="1.1" id="Layer_1" xmlns="http://www.w3.org/2000/svg" xmlns:xlink="http://www.w3.org/1999/xlink" x="0px" y="0px"
	 viewBox="0 0 216 216" enable-background="new 0 0 216 216" xml:space="preserve">
<g>
	<title>Page-1</title>
	
		<v:pageProperties  v:shadowOffsetX="2.83465" v:shadowOffsetY="-2.83465" v:drawingScale="1" v:pageScale="1" v:drawingUnits="19" v:shadowType="1">
		</v:pageProperties>
	<g id="group33-1" transform="translate(0.75,-0.75)">
		<title>gears</title>
		<g id="group34-2" transform="translate(-7.31415E-013,-11.0229)">
			<title>Sheet.34</title>
			<g id="shape35-3">
				<title>Sheet.35</title>
				<path fill="#7F7F7F" d="M94.1,113.3c-2.2,0-4-1.8-4-4c0-2.2,1.8-3.9,4-3.9c2.1,0,3.9,1.8,3.9,3.9
					C98,111.5,96.2,113.3,94.1,113.3z M101.7,99.6l-3.2,1.6l-1.9-0.8L95.4,97h-2.8l-1.1,3.4l-1.9,0.8l-3.3-1.5l-2,2l1.6,3.2
					l-0.8,1.9l-3.4,1.2v2.8l3.4,1.1l0.8,1.9l-1.6,3.3l2,2l3.2-1.6l1.9,0.8l1.2,3.4h2.8l1.1-3.4l1.9-0.8l3.3,1.5l2-2l-1.6-3.2l0.8-2
					l3.4-1.2v-2.8l-3.4-1.1l-0.8-1.9l1.6-3.3L101.7,99.6z"/>
			</g>
		</g>
		<g id="group36-5" transform="translate(10.08,1.20792E-013)">
			<title>Sheet.36</title>
			<g id="shape37-6">
				<title>Sheet.37</title>
				<path fill="#7F7F7F" d="M107.4,118.9c-3.1,0-5.6-2.5-5.6-5.6c0-3.1,2.5-5.6,5.6-5.6c3.1,0,5.5,2.5,5.5,5.6
					C113,116.4,110.5,118.9,107.4,118.9z M118.3,99.5l-4.5,2.3l-2.7-1.1l-1.7-4.8h-4l-1.5,4.8l-2.8,1.1l-4.6-2.2l-2.8,2.8l2.3,4.5
					l-1.1,2.7l-4.8,1.7v4l4.8,1.6l1.2,2.7l-2.2,4.6l2.8,2.8l4.5-2.3l2.7,1.1l1.7,4.8h4l1.6-4.8l2.7-1.1l4.6,2.2l2.8-2.8l-2.3-4.5
					l1.1-2.8l4.8-1.7v-4l-4.8-1.6l-1.1-2.7l2.2-4.6L118.3,99.5z"/>
			</g>
		</g>
	</g>
</g>
</svg>
