<?xml version="1.0" encoding="utf-8"?>
<!-- Generator: Adobe Illustrator 18.1.0, SVG Export Plug-In . SVG Version: 6.00 Build 0)  -->
<!DOCTYPE svg PUBLIC "-//W3C//DTD SVG 1.1//EN" "http://www.w3.org/Graphics/SVG/1.1/DTD/svg11.dtd">
<svg version="1.1" id="Layer_1" xmlns="http://www.w3.org/2000/svg" xmlns:xlink="http://www.w3.org/1999/xlink" x="0px" y="0px"
	 viewBox="0 0 216 216" enable-background="new 0 0 216 216" xml:space="preserve">
<path fill-rule="evenodd" clip-rule="evenodd" fill="#00188F" d="M88.7,125.9c0-21.4,0-21,0-21c3.9,0,8,0,8,0c0,10,0,21,0,21
	C92.8,125.9,88.7,125.9,88.7,125.9z M128.1,104.8l-9.3-1c0,0,1.8-4.3,2.3-5.9c0.9-3.2,1.3-9.5-2.6-9.6c-1.5,0-2.7,1.1-2.7,2.6
	c0,5.7-3.6,10.4-10.1,11.8c-3.1,0.7-6,2.2-7,3.8c0,3.8,0,18,0,18s7,2.7,9.4,3.1c2.8,0.5,9.6,0.2,12.5,0c1.5-0.1,2.5-0.8,2.5-2
	c0.1-1.1-0.3-1.3-1.1-1.9c-0.3-0.2-0.1-0.6,0.1-0.8c0.3-0.2,1-0.4,1.3-0.5c1.3-0.2,2.2-1.1,2.3-2.6c0-1.1-0.5-1.7-1.3-2.3
	c-0.3-0.2-0.1-0.7,0.2-0.8c0.3-0.2,1.1-0.3,1.5-0.3c1.4-0.1,2.2-1.3,2.3-2.8c0-1.1-0.8-1.8-1.4-2.1c-0.3-0.1-0.4-0.8,0-1
	c0.3-0.2,0.8-0.3,1.1-0.4c1.4-0.2,2.5-1,2.6-2.5C130.7,106.2,129.8,104.9,128.1,104.8L128.1,104.8z"/>
</svg>
