<?xml version="1.0" encoding="utf-8"?>
<!-- Generator: Adobe Illustrator 18.1.0, SVG Export Plug-In . SVG Version: 6.00 Build 0)  -->
<!DOCTYPE svg PUBLIC "-//W3C//DTD SVG 1.1//EN" "http://www.w3.org/Graphics/SVG/1.1/DTD/svg11.dtd">
<svg version="1.1" id="Layer_1" xmlns="http://www.w3.org/2000/svg" xmlns:xlink="http://www.w3.org/1999/xlink" x="0px" y="0px"
	 viewBox="0 0 216 216" enable-background="new 0 0 216 216" xml:space="preserve">
<g>
	<title>Page-1</title>
	
		<v:pageProperties  v:shadowOffsetX="2.83465" v:shadowOffsetY="-2.83465" v:drawingScale="1" v:pageScale="1" v:drawingUnits="19" v:shadowType="1">
		</v:pageProperties>
	<g id="group38-1" transform="translate(32.7375,-48.0202)">
		<title>Slider bar, vert</title>
		<g id="shape39-2" transform="translate(5.00625,-0.0834375)">
			<title>Sheet.39</title>
			
				<rect x="64.7" y="126.3" fill="#7F7F7F" stroke="#7F7F7F" stroke-width="0.75" stroke-miterlimit="3" width="1.6" height="59.3"/>
		</g>
		<g id="shape40-4" transform="translate(112.154,48.9919) rotate(90)">
			<title>Sheet.40</title>
			<path fill="none" stroke="#7F7F7F" stroke-width="0.75" stroke-miterlimit="3" d="M77.5,25.9h59"/>
		</g>
		<g id="shape41-7" transform="translate(20.025,143.457) rotate(180)">
			<title>Sheet.41</title>
			<path fill="none" stroke="#7F7F7F" stroke-width="0.75" stroke-miterlimit="3" d="M-69.3,17h6.2"/>
		</g>
		<g id="shape42-10" transform="translate(20.025,146.294) rotate(180)">
			<title>Sheet.42</title>
			<path fill="none" stroke="#7F7F7F" stroke-width="0.75" stroke-miterlimit="3" d="M-69.3,16.1h6.2"/>
		</g>
		<g id="shape43-13" transform="translate(20.025,149.131) rotate(180)">
			<title>Sheet.43</title>
			<path fill="none" stroke="#7F7F7F" stroke-width="0.75" stroke-miterlimit="3" d="M-69.3,15.3h6.2"/>
		</g>
		<g id="shape44-16" transform="translate(20.025,151.968) rotate(180)">
			<title>Sheet.44</title>
			<path fill="none" stroke="#7F7F7F" stroke-width="0.75" stroke-miterlimit="3" d="M-69.3,14.4h6.2"/>
		</g>
		<g id="shape45-19" transform="translate(20.025,154.805) rotate(180)">
			<title>Sheet.45</title>
			<path fill="none" stroke="#7F7F7F" stroke-width="0.75" stroke-miterlimit="3" d="M-69.3,13.6h6.2"/>
		</g>
		<g id="shape46-22" transform="translate(20.025,157.642) rotate(180)">
			<title>Sheet.46</title>
			<path fill="none" stroke="#7F7F7F" stroke-width="0.75" stroke-miterlimit="3" d="M-69.3,12.7h6.2"/>
		</g>
		<g id="shape47-25" transform="translate(20.025,160.478) rotate(180)">
			<title>Sheet.47</title>
			<path fill="none" stroke="#7F7F7F" stroke-width="0.75" stroke-miterlimit="3" d="M-69.3,11.8h6.2"/>
		</g>
		<g id="shape48-28" transform="translate(20.025,163.399) rotate(180)">
			<title>Sheet.48</title>
			<path fill="none" stroke="#7F7F7F" stroke-width="0.75" stroke-miterlimit="3" d="M-69.3,11h6.2"/>
		</g>
		<g id="shape49-31" transform="translate(20.025,166.236) rotate(180)">
			<title>Sheet.49</title>
			<path fill="none" stroke="#7F7F7F" stroke-width="0.75" stroke-miterlimit="3" d="M-69.3,10.1h6.2"/>
		</g>
		<g id="shape50-34" transform="translate(20.025,169.072) rotate(180)">
			<title>Sheet.50</title>
			<path fill="none" stroke="#7F7F7F" stroke-width="0.75" stroke-miterlimit="3" d="M-69.3,9.2h6.2"/>
		</g>
		<g id="shape51-37" transform="translate(20.025,171.909) rotate(180)">
			<title>Sheet.51</title>
			<path fill="none" stroke="#7F7F7F" stroke-width="0.75" stroke-miterlimit="3" d="M-69.3,8.4h6.2"/>
		</g>
		<g id="shape52-40" transform="translate(20.025,174.746) rotate(180)">
			<title>Sheet.52</title>
			<path fill="none" stroke="#7F7F7F" stroke-width="0.75" stroke-miterlimit="3" d="M-69.3,7.5h6.2"/>
		</g>
		<g id="shape53-43" transform="translate(20.025,177.583) rotate(180)">
			<title>Sheet.53</title>
			<path fill="none" stroke="#7F7F7F" stroke-width="0.75" stroke-miterlimit="3" d="M-69.3,6.7h6.2"/>
		</g>
		<g id="shape54-46" transform="translate(20.025,180.42) rotate(180)">
			<title>Sheet.54</title>
			<path fill="none" stroke="#7F7F7F" stroke-width="0.75" stroke-miterlimit="3" d="M-69.3,5.8h6.2"/>
		</g>
		<g id="shape55-49" transform="translate(20.025,183.257) rotate(180)">
			<title>Sheet.55</title>
			<path fill="none" stroke="#7F7F7F" stroke-width="0.75" stroke-miterlimit="3" d="M-69.3,5h6.2"/>
		</g>
		<g id="shape56-52" transform="translate(20.025,186.094) rotate(180)">
			<title>Sheet.56</title>
			<path fill="none" stroke="#7F7F7F" stroke-width="0.75" stroke-miterlimit="3" d="M-69.3,4.1h6.2"/>
		</g>
		<g id="shape57-55" transform="translate(20.025,188.931) rotate(180)">
			<title>Sheet.57</title>
			<path fill="none" stroke="#7F7F7F" stroke-width="0.75" stroke-miterlimit="3" d="M-69.3,3.2h6.2"/>
		</g>
		<g id="shape58-58" transform="translate(-9.99201E-014,-31.8731)">
			<title>Sheet.58</title>
			<path fill="#7F7F7F" stroke="#7F7F7F" stroke-width="0.75" stroke-miterlimit="3" d="M63.2,170.6h10.9v-1.1l3.3,3.3l-3.3,3.3V175
				H63.2V170.6z"/>
		</g>
	</g>
</g>
</svg>
