<?xml version="1.0" encoding="utf-8"?>
<!-- Generator: Adobe Illustrator 18.1.0, SVG Export Plug-In . SVG Version: 6.00 Build 0)  -->
<!DOCTYPE svg PUBLIC "-//W3C//DTD SVG 1.1//EN" "http://www.w3.org/Graphics/SVG/1.1/DTD/svg11.dtd">
<svg version="1.1" id="Layer_1" xmlns="http://www.w3.org/2000/svg" xmlns:xlink="http://www.w3.org/1999/xlink" x="0px" y="0px"
	 viewBox="0 0 216 216" enable-background="new 0 0 216 216" xml:space="preserve">
<g>
	<title>Page-1</title>
	
		<v:pageProperties  v:shadowOffsetX="2.83465" v:shadowOffsetY="-2.83465" v:drawingScale="1" v:pageScale="1" v:drawingUnits="19" v:shadowType="1">
		</v:pageProperties>
	<g id="group60-1" transform="translate(23.0306,-35.4211)">
		<title>Task list or Backlog</title>
		<g id="group61-2">
			<title>Document (stackable)</title>
			<g id="shape62-3">
				<title>Sheet.62</title>
				<path fill="#FFFFFF" stroke="#FFFFFF" stroke-width="1.5" stroke-miterlimit="3" d="M92.4,122.2H68.9v42.8h34.2v-32.1
					L92.4,122.2z"/>
			</g>
			<g id="shape63-5">
				<title>Sheet.63</title>
				<path fill="#FFFFFF" d="M92.4,122.2H68.9v42.8h34.2v-32.1L92.4,122.2z"/>
			</g>
			<g id="shape64-7">
				<title>Sheet.64</title>
				<path fill="#A5A5A5" d="M92.4,122.2H68.9v42.8h34.2v-32.1L92.4,122.2z M101,162.8H71.1v-38.5h20.3v9.6h9.6V162.8z"/>
			</g>
			<g id="shape65-9" transform="translate(8.24392,-15.8336)">
				<title>Sheet.65</title>
				<rect x="72.9" y="155.1" fill="#A5A5A5" width="14.5" height="2.1"/>
			</g>
			<g id="shape66-11" transform="translate(8.24392,-12.235)">
				<title>Sheet.66</title>
				<rect x="72.9" y="156.8" fill="#A5A5A5" width="14.5" height="2.1"/>
			</g>
			<g id="shape67-13" transform="translate(8.24392,-8.63649)">
				<title>Sheet.67</title>
				<rect x="72.9" y="158.6" fill="#A5A5A5" width="14.5" height="2.1"/>
			</g>
			<g id="shape68-15" transform="translate(8.24392,-5.03795)">
				<title>Sheet.68</title>
				<rect x="72.9" y="160.3" fill="#A5A5A5" width="14.5" height="2.1"/>
			</g>
			<g id="shape69-17">
				<title>_x3C_Slice_x3E__179_</title>
				<rect x="68.9" y="122.2" fill="none" width="34.2" height="42.7"/>
			</g>
		</g>
		<g id="shape70-19" transform="translate(4.04789,-15.4184)">
			<title>Sheet.70</title>
			
				<rect x="70.9" y="154.1" fill="#FFFFFF" stroke="#A5A5A5" stroke-width="0.5" stroke-linecap="round" stroke-linejoin="round" stroke-miterlimit="3" width="3.3" height="3.4"/>
		</g>
		<g id="shape71-21" transform="translate(4.04789,-11.8198)">
			<title>Sheet.71</title>
			
				<rect x="70.9" y="155.8" fill="#FFFFFF" stroke="#A5A5A5" stroke-width="0.5" stroke-linecap="round" stroke-linejoin="round" stroke-miterlimit="3" width="3.3" height="3.4"/>
		</g>
		<g id="shape72-23" transform="translate(4.04789,-8.22129)">
			<title>Sheet.72</title>
			
				<rect x="70.9" y="157.6" fill="#FFFFFF" stroke="#A5A5A5" stroke-width="0.5" stroke-linecap="round" stroke-linejoin="round" stroke-miterlimit="3" width="3.3" height="3.4"/>
		</g>
		<g id="shape73-25" transform="translate(4.04789,-4.62276)">
			<title>Sheet.73</title>
			
				<rect x="70.9" y="159.3" fill="#FFFFFF" stroke="#A5A5A5" stroke-width="0.5" stroke-linecap="round" stroke-linejoin="round" stroke-miterlimit="3" width="3.3" height="3.4"/>
		</g>
		<g id="group74-27" transform="translate(4.04789,-15.8336)">
			<title>Checkmark / success.11017</title>
			<g id="shape75-28" transform="translate(32.8547,7.89926) rotate(30)">
				<title>Sheet.75</title>
				<rect x="106.9" y="108.3" fill="#92D050" width="2.7" height="0.9"/>
			</g>
			<g id="shape76-30" transform="translate(-55.3002,32.8547) rotate(-60)">
				<title>Sheet.76</title>
				<rect x="-43.4" y="172.7" fill="#92D050" width="6.7" height="0.9"/>
			</g>
		</g>
		<g id="group77-32" transform="translate(4.04789,-12.3001)">
			<title>Checkmark / success.11024</title>
			<g id="shape78-33" transform="translate(32.8547,7.89926) rotate(30)">
				<title>Sheet.78</title>
				<rect x="107.8" y="109.8" fill="#92D050" width="2.7" height="0.9"/>
			</g>
			<g id="shape79-35" transform="translate(-55.3002,32.8547) rotate(-60)">
				<title>Sheet.79</title>
				<rect x="-44.9" y="173.5" fill="#92D050" width="6.7" height="0.9"/>
			</g>
		</g>
	</g>
</g>
</svg>
