<?xml version="1.0" encoding="utf-8"?>
<!-- Generator: Adobe Illustrator 18.1.0, SVG Export Plug-In . SVG Version: 6.00 Build 0)  -->
<!DOCTYPE svg PUBLIC "-//W3C//DTD SVG 1.1//EN" "http://www.w3.org/Graphics/SVG/1.1/DTD/svg11.dtd">
<svg version="1.1" id="Layer_1" xmlns="http://www.w3.org/2000/svg" xmlns:xlink="http://www.w3.org/1999/xlink" x="0px" y="0px"
	 viewBox="0 0 216 216" enable-background="new 0 0 216 216" xml:space="preserve">
<g>
	<path fill-rule="evenodd" clip-rule="evenodd" fill="#00188F" d="M123.4,91.3h-2v34h-25v-34h-2c-1.7,0-3,1.4-3,3v33.9
		c0,1.7,1.4,3,3,3h29c1.7,0,3-1.4,3-3V94.3C126.5,92.7,125.1,91.3,123.4,91.3z"/>
	<path fill-rule="evenodd" clip-rule="evenodd" fill="#00188F" d="M116.5,89.4H113v-1.2c0-1.6-1.3-2.9-2.9-2.9h-2.3
		c-1.6,0-2.9,1.3-2.9,2.9v1.2h-3.5c-1.2,0-2.3,0.8-2.7,1.9h8.8v-2h3v2h8.8C118.8,90.2,117.8,89.4,116.5,89.4z"/>
	<path fill-rule="evenodd" clip-rule="evenodd" fill="#00188F" d="M119.3,91.3h-8.8v1h-3v-1h-8.8c-0.1,0.3-0.2,0.7-0.2,1.1v2.9h21
		v-2.9C119.5,92,119.4,91.6,119.3,91.3z"/>
	<path fill-rule="evenodd" clip-rule="evenodd" fill="#00188F" d="M117.1,102.8c-0.3-0.2-0.7-0.2-0.9,0.1l-9.9,13.1l-5.1-5.5
		c-0.2-0.3-0.6-0.3-0.8-0.1l-2.2,1.9c-0.2,0.2-0.2,0.6,0,0.8l8.1,9.1l13.1-16.8c0.2-0.3,0.2-0.6-0.1-0.9L117.1,102.8z"/>
	<path fill-rule="evenodd" clip-rule="evenodd" fill="none" d="M91.5,85.3v46h35v-46H91.5z M121.5,125.3h-25v-34h11v-2h3v2h11V125.3
		z"/>
	<rect x="107.5" y="89.3" fill-rule="evenodd" clip-rule="evenodd" fill="none" width="3" height="2"/>
</g>
</svg>
