<?xml version="1.0" encoding="utf-8"?>
<!-- Generator: Adobe Illustrator 18.1.0, SVG Export Plug-In . SVG Version: 6.00 Build 0)  -->
<!DOCTYPE svg PUBLIC "-//W3C//DTD SVG 1.1//EN" "http://www.w3.org/Graphics/SVG/1.1/DTD/svg11.dtd">
<svg version="1.1" id="Layer_1" xmlns="http://www.w3.org/2000/svg" xmlns:xlink="http://www.w3.org/1999/xlink" x="0px" y="0px"
	 viewBox="0 0 216 216" enable-background="new 0 0 216 216" xml:space="preserve">
<g id="group100-187_1_" transform="translate(43.2593,-3764.95)">
	<title>Sheet.100</title>
	<g id="shape101-188_1_" transform="translate(7.20825,-11.5207)">
		<title>Sheet.101</title>
		<path fill="#00188F" d="M58.6,3867.9c-5,1.2-7.9,6.7-6.5,12.3c1.4,5.6,6.5,9,11.5,7.8c5-1.2,7.9-6.7,6.5-12.3
			C68.7,3870.2,63.6,3866.7,58.6,3867.9z"/>
	</g>
	<g id="shape102-190_1_">
		<title>Sheet.102</title>
		<path fill="#00188F" d="M76.5,3878c-0.9-0.1-2,1.7-3.4,2.4c-1.4,0.6-2.9,1.9-6.9,0c-4-1.9-4.6-3.5-8-3.5c-3.4,0-8.8,6-8.9,14.7h34
			c-0.1,0-0.4-6-2.3-9.2C78.7,3878.1,77.5,3878,76.5,3878z"/>
	</g>
</g>
</svg>
