<?xml version="1.0" encoding="utf-8"?>
<!-- Generator: Adobe Illustrator 18.1.0, SVG Export Plug-In . SVG Version: 6.00 Build 0)  -->
<!DOCTYPE svg PUBLIC "-//W3C//DTD SVG 1.1//EN" "http://www.w3.org/Graphics/SVG/1.1/DTD/svg11.dtd">
<svg version="1.1" id="Layer_1" xmlns="http://www.w3.org/2000/svg" xmlns:xlink="http://www.w3.org/1999/xlink" x="0px" y="0px"
	 viewBox="0 0 216 216" enable-background="new 0 0 216 216" xml:space="preserve">
<path fill="#00188F" d="M128.3,87.1v2h-4v-2h-30v2h-4v-2h-2v43h2v-2h4v2h30v-2h4v2h2v-43H128.3z M94.3,125.1h-4v-3h4V125.1z
	 M94.3,119.1h-4v-3h4V119.1z M94.3,113.1h-4v-3h4V113.1z M94.3,107.1h-4v-3h4V107.1z M94.3,101.1h-4v-3h4V101.1z M94.3,95.1h-4v-3h4
	V95.1z M122.3,127.1h-26v-17h26V127.1z M122.3,107.1h-26v-17h26V107.1z M128.3,125.1h-4v-3h4V125.1z M128.3,119.1h-4v-3h4V119.1z
	 M128.3,113.1h-4v-3h4V113.1z M128.3,107.1h-4v-3h4V107.1z M128.3,101.1h-4v-3h4V101.1z M128.3,95.1h-4v-3h4V95.1z"/>
</svg>
