<?xml version="1.0" encoding="utf-8"?>
<!-- Generator: Adobe Illustrator 17.0.1, SVG Export Plug-In . SVG Version: 6.00 Build 0)  -->
<!DOCTYPE svg PUBLIC "-//W3C//DTD SVG 1.1//EN" "http://www.w3.org/Graphics/SVG/1.1/DTD/svg11.dtd">
<svg version="1.1" id="Layer_1" xmlns="http://www.w3.org/2000/svg" xmlns:xlink="http://www.w3.org/1999/xlink" x="0px" y="0px"
	 width="16px" height="16px" viewBox="-0.5 0.5 16 16" enable-background="new -0.5 0.5 16 16" xml:space="preserve">
<path fill="#59B4D9" d="M13.367,0.5H1.633C0.46,0.5-0.5,1.46-0.5,2.633V5.5v8.533c0,1.507,0.96,2.467,2.133,2.467h11.733
	c1.173,0,2.133-0.96,2.133-2.133V5.5H15.5V2.633C15.5,1.46,14.54,0.5,13.367,0.5z"/>
<path fill="#FFFFFF" d="M2.201,6.719V11.3H1.477V7.605c-0.132,0.094-0.273,0.174-0.424,0.24C0.903,7.91,0.73,7.969,0.536,8.019
	v-0.62c0.12-0.039,0.237-0.081,0.35-0.125S1.11,7.182,1.219,7.128c0.109-0.055,0.22-0.115,0.331-0.181
	C1.661,6.88,1.777,6.804,1.896,6.719H2.201z"/>
<path fill="#FFFFFF" d="M6.443,11.3H3.63v-0.347c0-0.143,0.02-0.275,0.06-0.398c0.039-0.124,0.093-0.241,0.159-0.351
	s0.145-0.212,0.234-0.31c0.09-0.097,0.186-0.19,0.287-0.281c0.103-0.09,0.206-0.178,0.313-0.262c0.106-0.085,0.211-0.17,0.313-0.255
	C5.092,9.015,5.18,8.935,5.259,8.857s0.146-0.159,0.203-0.242s0.1-0.172,0.131-0.264c0.03-0.092,0.046-0.193,0.046-0.301
	c0-0.119-0.018-0.223-0.055-0.312C5.548,7.65,5.497,7.576,5.432,7.517c-0.066-0.06-0.144-0.104-0.233-0.134
	C5.11,7.353,5.011,7.337,4.905,7.337c-0.183,0-0.369,0.043-0.559,0.128C4.156,7.551,3.974,7.679,3.799,7.85V7.152
	c0.092-0.068,0.184-0.128,0.277-0.179C4.17,6.922,4.268,6.879,4.367,6.845c0.1-0.035,0.205-0.06,0.315-0.077
	s0.229-0.025,0.354-0.025c0.202,0,0.386,0.026,0.55,0.08c0.165,0.053,0.306,0.131,0.422,0.234C6.125,7.16,6.215,7.289,6.279,7.443
	s0.095,0.331,0.095,0.531c0,0.182-0.021,0.344-0.066,0.489S6.2,8.742,6.117,8.867C6.035,8.992,5.935,9.111,5.819,9.223
	C5.702,9.335,5.572,9.452,5.428,9.57C5.307,9.668,5.187,9.763,5.067,9.856c-0.119,0.093-0.228,0.184-0.323,0.271
	c-0.096,0.089-0.174,0.178-0.232,0.266c-0.06,0.089-0.09,0.178-0.09,0.268v0.016h2.022V11.3H6.443z"/>
<path fill="#FFFFFF" d="M7.39,9.231L7.148,8.969C7.085,8.9,7.085,8.79,7.158,8.724L7.856,8.08c0.033-0.03,0.073-0.046,0.116-0.046
	c0.049,0,0.093,0.02,0.125,0.056l1.918,2.057l3.301-4.228c0.033-0.043,0.083-0.066,0.135-0.066c0.04,0,0.076,0.013,0.106,0.037
	l0.754,0.582c0.037,0.027,0.059,0.066,0.066,0.113C14.38,6.631,14.37,6.678,14.34,6.71l-4.24,5.428L7.39,9.231z"/>
<path opacity="0.2" fill="#FFFFFF" d="M14.789,1.057C14.41,0.715,13.914,0.5,13.367,0.5H1.633C0.46,0.5-0.5,1.46-0.5,2.633V5.5
	v8.533c0,0.719,0.223,1.308,0.579,1.734L14.789,1.057z"/>
</svg>
