<?xml version="1.0" encoding="utf-8"?>
<!-- Generator: Adobe Illustrator 17.0.1, SVG Export Plug-In . SVG Version: 6.00 Build 0)  -->
<!DOCTYPE svg PUBLIC "-//W3C//DTD SVG 1.1//EN" "http://www.w3.org/Graphics/SVG/1.1/DTD/svg11.dtd">
<svg version="1.1" id="Layer_1" xmlns="http://www.w3.org/2000/svg" xmlns:xlink="http://www.w3.org/1999/xlink" x="0px" y="0px"
	 width="16px" height="16px" viewBox="-0.5 0.5 16 16" enable-background="new -0.5 0.5 16 16" xml:space="preserve">
<circle fill="#59B4D9" cx="7.499" cy="8.5" r="8"/>
<path opacity="0.2" fill="#FFFFFF" d="M1.843,14.157c-3.124-3.124-3.124-8.19,0-11.314s8.19-3.124,11.314,0L1.843,14.157z"/>
<path fill="#FFFFFF" d="M2.323,6.719V11.3H1.599V7.605c-0.132,0.094-0.273,0.174-0.424,0.24C1.025,7.91,0.852,7.969,0.658,8.019
	v-0.62c0.12-0.039,0.237-0.081,0.35-0.125s0.224-0.092,0.333-0.146c0.109-0.055,0.22-0.115,0.331-0.181
	C1.783,6.88,1.899,6.804,2.018,6.719H2.323z"/>
<path fill="#FFFFFF" d="M6.565,11.3H3.752v-0.347c0-0.143,0.02-0.275,0.06-0.398c0.039-0.124,0.093-0.241,0.159-0.351
	c0.066-0.11,0.145-0.212,0.234-0.31c0.09-0.097,0.186-0.19,0.287-0.281c0.103-0.09,0.206-0.178,0.313-0.262
	c0.106-0.085,0.211-0.17,0.313-0.255c0.096-0.081,0.184-0.161,0.263-0.239C5.46,8.779,5.527,8.698,5.584,8.615
	s0.1-0.172,0.131-0.264c0.03-0.092,0.046-0.193,0.046-0.301c0-0.119-0.018-0.223-0.055-0.312C5.67,7.65,5.619,7.576,5.554,7.517
	C5.488,7.457,5.41,7.413,5.321,7.383c-0.089-0.03-0.188-0.046-0.294-0.046c-0.183,0-0.369,0.043-0.559,0.128
	C4.278,7.551,4.096,7.679,3.921,7.85V7.152c0.092-0.068,0.184-0.128,0.277-0.179C4.292,6.922,4.39,6.879,4.489,6.845
	c0.1-0.035,0.205-0.06,0.315-0.077c0.11-0.017,0.229-0.025,0.354-0.025c0.202,0,0.386,0.026,0.55,0.08
	C5.873,6.876,6.014,6.954,6.13,7.057C6.247,7.16,6.337,7.289,6.401,7.443c0.064,0.154,0.095,0.331,0.095,0.531
	c0,0.182-0.021,0.344-0.066,0.489S6.322,8.742,6.239,8.867C6.157,8.992,6.057,9.111,5.941,9.223C5.824,9.335,5.694,9.452,5.55,9.57
	C5.429,9.668,5.309,9.763,5.189,9.856C5.07,9.949,4.961,10.04,4.866,10.127c-0.096,0.089-0.174,0.178-0.232,0.266
	c-0.06,0.089-0.09,0.178-0.09,0.268v0.016h2.022V11.3H6.565z"/>
<path fill="#FFFFFF" d="M7.512,9.231L7.27,8.969C7.207,8.9,7.207,8.79,7.28,8.724L7.978,8.08c0.033-0.03,0.073-0.046,0.116-0.046
	c0.049,0,0.093,0.02,0.125,0.056l1.918,2.057l3.301-4.228c0.033-0.043,0.083-0.066,0.135-0.066c0.04,0,0.076,0.013,0.106,0.037
	l0.754,0.582c0.037,0.027,0.059,0.066,0.066,0.113c0.003,0.046-0.007,0.093-0.037,0.125l-4.24,5.428L7.512,9.231z"/>
</svg>
