<?xml version="1.0" encoding="utf-8"?>
<!-- Generator: Adobe Illustrator 17.0.1, SVG Export Plug-In . SVG Version: 6.00 Build 0)  -->
<!DOCTYPE svg PUBLIC "-//W3C//DTD SVG 1.1//EN" "http://www.w3.org/Graphics/SVG/1.1/DTD/svg11.dtd">
<svg version="1.1" id="Layer_1" xmlns="http://www.w3.org/2000/svg" xmlns:xlink="http://www.w3.org/1999/xlink" x="0px" y="0px"
	 width="16px" height="16px" viewBox="-0.5 0.5 16 16" enable-background="new -0.5 0.5 16 16" xml:space="preserve">
<g>
	<circle fill="#59B4D9" cx="7.5" cy="8.5" r="8"/>
	<path opacity="0.2" fill="#FFFFFF" d="M1.843,14.157c-3.124-3.124-3.124-8.19,0-11.314s8.19-3.124,11.314,0L1.843,14.157z"/>
</g>
<path fill="#FFFFFF" d="M4.509,9.859c0,0.225-0.037,0.43-0.111,0.615C4.324,10.66,4.221,10.82,4.09,10.953
	c-0.131,0.135-0.287,0.238-0.467,0.313s-0.375,0.111-0.586,0.111c-0.225,0-0.432-0.044-0.621-0.132
	c-0.188-0.087-0.351-0.218-0.487-0.391c-0.137-0.173-0.242-0.388-0.317-0.645C1.537,9.951,1.5,9.652,1.5,9.313
	c0-0.415,0.049-0.782,0.148-1.104c0.099-0.32,0.235-0.59,0.408-0.806c0.173-0.214,0.376-0.379,0.609-0.491S3.15,6.744,3.421,6.744
	c0.168,0,0.322,0.011,0.461,0.034c0.139,0.023,0.25,0.054,0.333,0.094v0.653c-0.106-0.054-0.22-0.1-0.34-0.138
	C3.754,7.35,3.616,7.331,3.459,7.331c-0.175,0-0.336,0.035-0.484,0.106c-0.148,0.07-0.276,0.174-0.383,0.311
	C2.485,7.885,2.4,8.053,2.339,8.254S2.246,8.688,2.244,8.949h0.019c0.096-0.147,0.226-0.265,0.389-0.35
	c0.163-0.085,0.355-0.127,0.576-0.127c0.196,0,0.373,0.031,0.53,0.095S4.05,8.722,4.161,8.842c0.112,0.12,0.198,0.266,0.258,0.438
	C4.479,9.451,4.509,9.645,4.509,9.859z M3.778,9.918c0-0.129-0.015-0.246-0.045-0.353c-0.03-0.106-0.076-0.197-0.138-0.273
	S3.456,9.157,3.364,9.115S3.163,9.052,3.038,9.052s-0.235,0.022-0.33,0.067S2.534,9.223,2.469,9.296
	c-0.064,0.072-0.113,0.156-0.146,0.25s-0.048,0.19-0.048,0.288c0,0.106,0.015,0.215,0.045,0.326s0.077,0.213,0.139,0.305
	s0.142,0.168,0.239,0.227c0.097,0.06,0.212,0.09,0.345,0.09c0.119,0,0.224-0.022,0.316-0.066c0.092-0.043,0.168-0.104,0.229-0.181
	s0.108-0.169,0.141-0.273C3.762,10.155,3.778,10.041,3.778,9.918z"/>
<rect x="10.515" y="6.5" fill="#FFFFFF" width="1" height="1"/>
<rect x="10.515" y="10.5" fill="#FFFFFF" width="1" height="1"/>
<rect x="10.515" y="8.5" fill="#FFFFFF" width="1" height="1"/>
<rect x="12.515" y="6.5" fill="#FFFFFF" width="1" height="1"/>
<rect x="12.515" y="8.5" fill="#FFFFFF" width="1" height="1"/>
<rect x="8.515" y="6.5" fill="#FFFFFF" width="1" height="1"/>
<rect x="8.515" y="10.5" fill="#FFFFFF" width="1" height="1"/>
<rect x="8.515" y="8.5" fill="#FFFFFF" width="1" height="1"/>
<rect x="6.515" y="10.5" fill="#FFFFFF" width="1" height="1"/>
<rect x="6.515" y="8.5" fill="#FFFFFF" width="1" height="1"/>
</svg>
