<?xml version="1.0" encoding="utf-8"?>
<!-- Generator: Adobe Illustrator 17.0.1, SVG Export Plug-In . SVG Version: 6.00 Build 0)  -->
<!DOCTYPE svg PUBLIC "-//W3C//DTD SVG 1.1//EN" "http://www.w3.org/Graphics/SVG/1.1/DTD/svg11.dtd">
<svg version="1.1" id="Layer_1" xmlns="http://www.w3.org/2000/svg" xmlns:xlink="http://www.w3.org/1999/xlink" x="0px" y="0px"
	 width="16px" height="16px" viewBox="-0.5 0.5 16 16" enable-background="new -0.5 0.5 16 16" xml:space="preserve">
<path fill="#59B4D9" d="M13.367,0.5H1.633C0.46,0.5-0.5,1.46-0.5,2.633V5.5v8.533c0,1.507,0.96,2.467,2.133,2.467h11.733
	c1.173,0,2.133-0.96,2.133-2.133V5.5H15.5V2.633C15.5,1.46,14.54,0.5,13.367,0.5z"/>
<path opacity="0.2" fill="#FFFFFF" enable-background="new    " d="M14.789,1.057C14.41,0.715,13.914,0.5,13.367,0.5H1.633
	C0.46,0.5-0.5,1.46-0.5,2.633V5.5v8.533c0,0.719,0.223,1.308,0.579,1.734L14.789,1.057z"/>
<circle fill="#FFFFFF" cx="7.5" cy="8.5" r="1.385"/>
<circle fill="#FFFFFF" cx="2.885" cy="8.5" r="1.385"/>
<circle fill="#FFFFFF" cx="12.115" cy="8.5" r="1.385"/>
</svg>
