<?xml version="1.0" encoding="utf-8"?>
<!-- Generator: Adobe Illustrator 17.0.1, SVG Export Plug-In . SVG Version: 6.00 Build 0)  -->
<!DOCTYPE svg PUBLIC "-//W3C//DTD SVG 1.1//EN" "http://www.w3.org/Graphics/SVG/1.1/DTD/svg11.dtd">
<svg version="1.1" id="Layer_1" xmlns="http://www.w3.org/2000/svg" xmlns:xlink="http://www.w3.org/1999/xlink" x="0px" y="0px"
	 width="16px" height="16px" viewBox="0 0 16 16" enable-background="new 0 0 16 16" xml:space="preserve">
<path fill="#59B4D9" d="M13.867,0H2.133C0.96,0,0,0.96,0,2.133V5v8.867C0,15.04,0.96,16,2.133,16h11.733
	C15.04,16,16,15.04,16,13.867V5V2.133C16,0.96,15.04,0,13.867,0z"/>
<rect x="11" y="7" fill="#FFFFFF" width="1" height="1"/>
<rect x="11" y="11" fill="#FFFFFF" width="1" height="1"/>
<rect x="11" y="9" fill="#FFFFFF" width="1" height="1"/>
<rect x="13" y="7" fill="#FFFFFF" width="1" height="1"/>
<rect x="13" y="9" fill="#FFFFFF" width="1" height="1"/>
<rect x="9" y="7" fill="#FFFFFF" width="1" height="1"/>
<rect x="9" y="11" fill="#FFFFFF" width="1" height="1"/>
<rect x="9" y="9" fill="#FFFFFF" width="1" height="1"/>
<rect x="7" y="11" fill="#FFFFFF" width="1" height="1"/>
<rect x="7" y="9" fill="#FFFFFF" width="1" height="1"/>
<path fill="#FFFFFF" d="M1.288,7.093L1.046,6.831c-0.063-0.069-0.063-0.179,0.01-0.245l0.698-0.644
	c0.033-0.03,0.073-0.046,0.116-0.046c0.049,0,0.093,0.02,0.125,0.056l1.918,2.057l3.301-4.228c0.033-0.043,0.083-0.066,0.135-0.066
	c0.04,0,0.076,0.013,0.106,0.037l0.754,0.582C8.246,4.361,8.268,4.4,8.275,4.447C8.278,4.493,8.268,4.54,8.238,4.572L3.998,10
	L1.288,7.093z"/>
<path opacity="0.2" fill="#FFFFFF" d="M15.289,0.557C14.91,0.215,14.414,0,13.867,0H2.133C0.96,0,0,0.96,0,2.133V5v8.533
	c0,0.719,0.223,1.308,0.579,1.734L15.289,0.557z"/>
</svg>
