<?xml version="1.0" encoding="utf-8"?>
<!-- Generator: Adobe Illustrator 17.0.1, SVG Export Plug-In . SVG Version: 6.00 Build 0)  -->
<!DOCTYPE svg PUBLIC "-//W3C//DTD SVG 1.1//EN" "http://www.w3.org/Graphics/SVG/1.1/DTD/svg11.dtd">
<svg version="1.1" id="Layer_1" xmlns="http://www.w3.org/2000/svg" xmlns:xlink="http://www.w3.org/1999/xlink" x="0px" y="0px"
	 width="16px" height="16px" viewBox="0 0 16 16" enable-background="new 0 0 16 16" xml:space="preserve">
<path fill="#59B4D9" d="M13.867,0H2.133C0.96,0,0,0.96,0,2.133V5v8.867C0,15.04,0.96,16,2.133,16h11.733
	C15.04,16,16,15.04,16,13.867V5V2.133C16,0.96,15.04,0,13.867,0z"/>
<polygon fill="#FFFFFF" points="10.416,4.342 11.472,5.4 11.478,5.406 8.653,8.232 6.524,6.103 2,10.628 3.127,11.754 3.127,11.754 
	6.524,8.356 8.653,10.485 12.605,6.533 13.657,7.584 14,4 "/>
<path opacity="0.2" fill="#FFFFFF" d="M15.289,0.557C14.91,0.215,14.414,0,13.867,0H2.133C0.96,0,0,0.96,0,2.133V5v8.533
	c0,0.719,0.223,1.308,0.579,1.734L15.289,0.557z"/>
</svg>
