<?xml version="1.0" encoding="utf-8"?>
<!-- Generator: Adobe Illustrator 17.0.1, SVG Export Plug-In . SVG Version: 6.00 Build 0)  -->
<!DOCTYPE svg PUBLIC "-//W3C//DTD SVG 1.1//EN" "http://www.w3.org/Graphics/SVG/1.1/DTD/svg11.dtd">
<svg version="1.1" id="Layer_1" xmlns="http://www.w3.org/2000/svg" xmlns:xlink="http://www.w3.org/1999/xlink" x="0px" y="0px"
	 width="16px" height="16px" viewBox="-0.5 0.5 16 16" enable-background="new -0.5 0.5 16 16" xml:space="preserve">
<path fill="#59B4D9" d="M13.367,0.5H1.633C0.46,0.5-0.5,1.46-0.5,2.633V5.5v8.533c0,1.507,0.96,2.467,2.133,2.467h11.733
	c1.173,0,2.133-0.96,2.133-2.133V5.5H15.5V2.633C15.5,1.46,14.54,0.5,13.367,0.5z"/>
<path fill="#FFFFFF" d="M6.353,11.5H3.5V6.416h2.74v0.716H4.343v1.441h1.748v0.712H4.343v1.503h2.01
	C6.353,10.788,6.353,11.5,6.353,11.5z"/>
<path fill="#FFFFFF" d="M11.5,11.5h-0.924l-0.457-1.294h-2L7.679,11.5H6.758l1.904-5.083h0.949L11.5,11.5z M9.894,9.518L9.188,7.491
	c-0.02-0.067-0.043-0.174-0.066-0.32H9.108c-0.022,0.135-0.045,0.24-0.071,0.32L8.338,9.518C8.338,9.518,9.894,9.518,9.894,9.518z"
	/>
<path opacity="0.2" fill="#FFFFFF" d="M14.789,1.057C14.41,0.715,13.914,0.5,13.367,0.5H1.633C0.46,0.5-0.5,1.46-0.5,2.633V5.5
	v8.533c0,0.719,0.223,1.308,0.579,1.734L14.789,1.057z"/>
</svg>
