<?xml version="1.0" encoding="utf-8"?>
<!-- Generator: Adobe Illustrator 17.0.1, SVG Export Plug-In . SVG Version: 6.00 Build 0)  -->
<!DOCTYPE svg PUBLIC "-//W3C//DTD SVG 1.1//EN" "http://www.w3.org/Graphics/SVG/1.1/DTD/svg11.dtd">
<svg version="1.1" id="Layer_1" xmlns="http://www.w3.org/2000/svg" xmlns:xlink="http://www.w3.org/1999/xlink" x="0px" y="0px"
	 width="16px" height="16px" viewBox="-0.5 0.5 16 16" enable-background="new -0.5 0.5 16 16" xml:space="preserve">
<path fill="#59B4D9" d="M13.367,0.5H1.633C0.46,0.5-0.5,1.46-0.5,2.633V5.5v8.867c0,1.173,0.96,2.133,2.133,2.133h11.733
	c1.174,0,2.134-0.96,2.134-2.133V5.5V2.633C15.5,1.46,14.54,0.5,13.367,0.5z"/>
<path fill="#FFFFFF" d="M4.494,9.859c0,0.225-0.037,0.43-0.111,0.615c-0.074,0.186-0.177,0.346-0.308,0.479
	c-0.131,0.135-0.287,0.238-0.467,0.313s-0.375,0.111-0.586,0.111c-0.225,0-0.432-0.044-0.621-0.132
	c-0.188-0.087-0.351-0.218-0.487-0.391c-0.137-0.173-0.242-0.388-0.317-0.645C1.522,9.951,1.485,9.652,1.485,9.313
	c0-0.415,0.049-0.782,0.148-1.104c0.099-0.32,0.235-0.59,0.408-0.806C2.214,7.189,2.417,7.024,2.65,6.912s0.485-0.168,0.756-0.168
	c0.168,0,0.322,0.011,0.461,0.034S4.117,6.832,4.2,6.872v0.653c-0.106-0.054-0.22-0.1-0.34-0.138
	C3.739,7.35,3.601,7.331,3.444,7.331c-0.175,0-0.336,0.035-0.484,0.106c-0.148,0.07-0.276,0.174-0.383,0.311
	C2.47,7.885,2.385,8.053,2.324,8.254S2.231,8.688,2.229,8.949h0.019c0.096-0.147,0.226-0.265,0.389-0.35
	C2.8,8.514,2.992,8.472,3.213,8.472c0.196,0,0.373,0.031,0.53,0.095s0.292,0.155,0.403,0.275c0.112,0.12,0.198,0.266,0.258,0.438
	C4.464,9.451,4.494,9.645,4.494,9.859z M3.763,9.918c0-0.129-0.015-0.246-0.045-0.353C3.688,9.459,3.642,9.368,3.58,9.292
	S3.441,9.157,3.349,9.115S3.148,9.052,3.023,9.052s-0.235,0.022-0.33,0.067S2.519,9.223,2.454,9.296
	C2.39,9.368,2.341,9.452,2.308,9.546S2.26,9.736,2.26,9.834c0,0.106,0.015,0.215,0.045,0.326s0.077,0.213,0.139,0.305
	s0.142,0.168,0.239,0.227c0.097,0.06,0.212,0.09,0.345,0.09c0.119,0,0.224-0.022,0.316-0.066c0.092-0.043,0.168-0.104,0.229-0.181
	s0.108-0.169,0.141-0.273C3.747,10.155,3.763,10.041,3.763,9.918z"/>
<rect x="10.5" y="6.5" fill="#FFFFFF" width="1" height="1"/>
<rect x="10.5" y="10.5" fill="#FFFFFF" width="1" height="1"/>
<rect x="10.5" y="8.5" fill="#FFFFFF" width="1" height="1"/>
<rect x="12.5" y="6.5" fill="#FFFFFF" width="1" height="1"/>
<rect x="12.5" y="8.5" fill="#FFFFFF" width="1" height="1"/>
<rect x="8.5" y="6.5" fill="#FFFFFF" width="1" height="1"/>
<rect x="8.5" y="10.5" fill="#FFFFFF" width="1" height="1"/>
<rect x="8.5" y="8.5" fill="#FFFFFF" width="1" height="1"/>
<rect x="6.5" y="10.5" fill="#FFFFFF" width="1" height="1"/>
<rect x="6.5" y="8.5" fill="#FFFFFF" width="1" height="1"/>
<path opacity="0.2" fill="#FFFFFF" d="M14.789,1.057C14.41,0.715,13.914,0.5,13.367,0.5H1.633C0.46,0.5-0.5,1.46-0.5,2.633V5.5
	v8.533c0,0.719,0.223,1.308,0.579,1.734L14.789,1.057z"/>
</svg>
