<?xml version="1.0" encoding="utf-8"?>
<!-- Generator: Adobe Illustrator 17.1.0, SVG Export Plug-In . SVG Version: 6.00 Build 0)  -->
<!DOCTYPE svg PUBLIC "-//W3C//DTD SVG 1.1//EN" "http://www.w3.org/Graphics/SVG/1.1/DTD/svg11.dtd">
<svg version="1.1" id="Layer_1" xmlns="http://www.w3.org/2000/svg" xmlns:xlink="http://www.w3.org/1999/xlink" x="0px" y="0px"
	 width="16px" height="16px" viewBox="0 0 16 16" enable-background="new 0 0 16 16" xml:space="preserve">
<path fill="#59B4D9" d="M13.9,0H2.1C1,0,0,1,0,2.1V5v8.5C0,15,1,16,2.1,16h11.7c1.2,0,2.1-1,2.1-2.1V5h0V2.1C16,1,15,0,13.9,0z"/>
<path fill="#FFFFFF" d="M6.9,11H4V5.9h2.7v0.7H4.8v1.4h1.7v0.7H4.8v1.5h2C6.9,10.3,6.9,11,6.9,11z"/>
<path fill="#FFFFFF" d="M12,11h-0.9l-0.5-1.3h-2L8.2,11H7.3l1.9-5.1h0.9L12,11z M10.4,9L9.7,7c0-0.1,0-0.2-0.1-0.3h0
	c0,0.1,0,0.2-0.1,0.3L8.8,9H10.4z"/>
<path opacity="0.2" fill="#FFFFFF" enable-background="new    " d="M15.3,0.6C14.9,0.2,14.4,0,13.9,0H2.1C1,0,0,1,0,2.1V5v8.5
	c0,0.7,0.2,1.3,0.6,1.7L15.3,0.6z"/>
</svg>
