<?xml version="1.0" encoding="utf-8"?>
<!-- Generator: Adobe Illustrator 17.0.1, SVG Export Plug-In . SVG Version: 6.00 Build 0)  -->
<!DOCTYPE svg PUBLIC "-//W3C//DTD SVG 1.1//EN" "http://www.w3.org/Graphics/SVG/1.1/DTD/svg11.dtd">
<svg version="1.1" id="Layer_1" xmlns="http://www.w3.org/2000/svg" xmlns:xlink="http://www.w3.org/1999/xlink" x="0px" y="0px"
	 width="16px" height="16px" viewBox="-0.5 0.5 16 16" enable-background="new -0.5 0.5 16 16" xml:space="preserve">
<path fill="#59B4D9" d="M13.367,0.5H1.633C0.46,0.5-0.5,1.46-0.5,2.633V5.5v8.533c0,1.507,0.96,2.467,2.133,2.467h11.733
	c1.174,0,2.134-0.96,2.134-2.133V5.5V2.633C15.5,1.46,14.54,0.5,13.367,0.5z"/>
<path fill="#FFFFFF" d="M4.509,9.859c0,0.225-0.037,0.43-0.111,0.615C4.324,10.66,4.221,10.82,4.09,10.953
	c-0.131,0.135-0.287,0.238-0.467,0.313c-0.18,0.074-0.375,0.111-0.586,0.111c-0.225,0-0.432-0.044-0.621-0.132
	c-0.188-0.087-0.351-0.218-0.487-0.391c-0.137-0.173-0.242-0.388-0.317-0.645C1.537,9.951,1.5,9.652,1.5,9.313
	c0-0.415,0.049-0.782,0.148-1.104c0.099-0.32,0.235-0.59,0.408-0.806c0.173-0.214,0.376-0.379,0.609-0.491S3.15,6.744,3.421,6.744
	c0.168,0,0.322,0.011,0.461,0.034c0.139,0.023,0.25,0.054,0.333,0.094v0.653c-0.106-0.054-0.22-0.1-0.34-0.138
	C3.754,7.35,3.616,7.331,3.459,7.331c-0.175,0-0.336,0.035-0.484,0.106c-0.148,0.07-0.276,0.174-0.383,0.311
	C2.485,7.885,2.4,8.053,2.339,8.254S2.246,8.688,2.244,8.949h0.019c0.096-0.147,0.226-0.265,0.389-0.35
	c0.163-0.085,0.355-0.127,0.576-0.127c0.196,0,0.373,0.031,0.53,0.095S4.05,8.722,4.161,8.842c0.112,0.12,0.198,0.266,0.258,0.438
	C4.479,9.451,4.509,9.645,4.509,9.859z M3.778,9.918c0-0.129-0.015-0.246-0.045-0.353c-0.03-0.106-0.076-0.197-0.138-0.273
	S3.456,9.157,3.364,9.115S3.163,9.052,3.038,9.052s-0.235,0.022-0.33,0.067S2.534,9.223,2.469,9.296
	c-0.064,0.072-0.113,0.156-0.146,0.25s-0.048,0.19-0.048,0.288c0,0.106,0.015,0.215,0.045,0.326s0.077,0.213,0.139,0.305
	s0.142,0.168,0.239,0.227c0.097,0.06,0.212,0.09,0.345,0.09c0.119,0,0.224-0.022,0.316-0.066c0.092-0.043,0.168-0.104,0.229-0.181
	s0.108-0.169,0.141-0.273C3.762,10.155,3.778,10.041,3.778,9.918z"/>
<path fill="#FFFFFF" d="M6.807,8.593L6.565,8.331c-0.063-0.069-0.063-0.179,0.01-0.245l0.698-0.644
	c0.033-0.03,0.073-0.046,0.116-0.046c0.049,0,0.093,0.02,0.125,0.056l1.918,2.057l3.301-4.228c0.033-0.043,0.083-0.066,0.135-0.066
	c0.04,0,0.076,0.013,0.106,0.037l0.754,0.582c0.037,0.027,0.059,0.066,0.066,0.113c0.003,0.046-0.007,0.093-0.037,0.125L9.517,11.5
	L6.807,8.593z"/>
<path opacity="0.2" fill="#FFFFFF" d="M14.789,1.057C14.41,0.715,13.914,0.5,13.367,0.5H1.633C0.46,0.5-0.5,1.46-0.5,2.633V5.5
	v8.533c0,0.719,0.223,1.308,0.579,1.734L14.789,1.057z"/>
</svg>
