<?xml version="1.0" encoding="utf-8"?>
<!-- Generator: Adobe Illustrator 17.1.0, SVG Export Plug-In . SVG Version: 6.00 Build 0)  -->
<!DOCTYPE svg PUBLIC "-//W3C//DTD SVG 1.1//EN" "http://www.w3.org/Graphics/SVG/1.1/DTD/svg11.dtd">
<svg version="1.1" id="Layer_1" xmlns="http://www.w3.org/2000/svg" xmlns:xlink="http://www.w3.org/1999/xlink" x="0px" y="0px"
	 width="16px" height="16px" viewBox="0 0 16 16" enable-background="new 0 0 16 16" xml:space="preserve">
<g>
	<circle fill="#59B4D9" cx="8" cy="8" r="8"/>
	<path opacity="0.2" fill="#FFFFFF" enable-background="new    " d="M2.3,13.7c-3.1-3.1-3.1-8.2,0-11.3s8.2-3.1,11.3,0L2.3,13.7z"/>
</g>
<path fill="#FFFFFF" d="M5.8,10.3c-0.4,0.2-0.9,0.3-1.4,0.3c-0.7,0-1.3-0.2-1.8-0.7C2.1,9.5,1.9,8.9,1.9,8.1c0-0.8,0.3-1.5,0.7-2
	c0.5-0.5,1.1-0.8,1.9-0.8c0.5,0,0.9,0.1,1.2,0.2v0.8C5.4,6.2,5.1,6.1,4.7,6.1c-0.5,0-1,0.2-1.3,0.5C3,7,2.8,7.5,2.8,8.1
	c0,0.6,0.2,1,0.5,1.3C3.6,9.7,4,9.9,4.5,9.9c0.5,0,0.9-0.1,1.2-0.3V10.3z"/>
<path fill="#FFFFFF" d="M6.5,10.3V9.5c0.1,0.1,0.2,0.1,0.3,0.2S7,9.8,7.1,9.8s0.2,0.1,0.4,0.1c0.1,0,0.2,0,0.3,0
	c0.4,0,0.6-0.1,0.8-0.2c0.2-0.1,0.3-0.3,0.3-0.5c0-0.1,0-0.2-0.1-0.3C8.7,8.8,8.7,8.8,8.6,8.7C8.4,8.6,8.3,8.5,8.2,8.5
	C8,8.4,7.9,8.3,7.7,8.3C7.6,8.2,7.4,8.1,7.3,8C7.1,7.9,7,7.8,6.9,7.7C6.8,7.6,6.7,7.4,6.6,7.3S6.5,7,6.5,6.8c0-0.2,0.1-0.4,0.2-0.6
	s0.2-0.3,0.4-0.4c0.2-0.1,0.4-0.2,0.6-0.3c0.2-0.1,0.5-0.1,0.7-0.1c0.5,0,0.9,0.1,1.2,0.2v0.8C9.3,6.2,8.9,6.1,8.4,6.1
	c-0.1,0-0.2,0-0.4,0c-0.1,0-0.2,0.1-0.3,0.1S7.6,6.4,7.5,6.4S7.4,6.6,7.4,6.8c0,0.1,0,0.2,0.1,0.3c0,0.1,0.1,0.2,0.2,0.2
	S7.9,7.4,8,7.5s0.3,0.1,0.5,0.2C8.6,7.8,8.8,7.9,9,8c0.2,0.1,0.3,0.2,0.4,0.3c0.1,0.1,0.2,0.3,0.3,0.4S9.8,9,9.8,9.2
	c0,0.3-0.1,0.5-0.2,0.7c-0.1,0.2-0.2,0.3-0.4,0.4c-0.2,0.1-0.4,0.2-0.6,0.2c-0.2,0-0.5,0.1-0.7,0.1c-0.1,0-0.2,0-0.3,0
	c-0.1,0-0.3,0-0.4-0.1c-0.1,0-0.3-0.1-0.4-0.1C6.7,10.4,6.6,10.4,6.5,10.3z"/>
<path fill="#FFFFFF" d="M11.5,8.7v1.8h-0.8V5.5h1.5c0.6,0,1,0.1,1.4,0.4s0.5,0.7,0.5,1.1s-0.2,0.9-0.5,1.2s-0.8,0.5-1.4,0.5H11.5z
	 M11.5,6.2V8h0.5c0.4,0,0.6-0.1,0.8-0.3c0.2-0.2,0.3-0.4,0.3-0.7c0-0.6-0.3-0.9-1-0.9H11.5z"/>
</svg>
