<?xml version="1.0" encoding="utf-8"?>
<!-- Generator: Adobe Illustrator 17.0.1, SVG Export Plug-In . SVG Version: 6.00 Build 0)  -->
<!DOCTYPE svg PUBLIC "-//W3C//DTD SVG 1.1//EN" "http://www.w3.org/Graphics/SVG/1.1/DTD/svg11.dtd">
<svg version="1.1" id="Layer_1" xmlns="http://www.w3.org/2000/svg" xmlns:xlink="http://www.w3.org/1999/xlink" x="0px" y="0px"
	 width="16px" height="16px" viewBox="0 0 16 16" enable-background="new 0 0 16 16" xml:space="preserve">
<path fill="#59B4D9" d="M13.867,0H2.133C0.96,0,0,0.96,0,2.133V5v8.533C0,15.04,0.96,16,2.133,16h11.733
	c1.173,0,2.133-0.96,2.133-2.133V5H16V2.133C16,0.96,15.04,0,13.867,0z"/>
<path opacity="0.2" fill="#FFFFFF" enable-background="new    " d="M15.289,0.557C14.91,0.215,14.414,0,13.867,0H2.133
	C0.96,0,0,0.96,0,2.133V5v8.533c0,0.719,0.223,1.308,0.579,1.734L15.289,0.557z"/>
<path fill="#FFFFFF" d="M11.307,4.472H4.631C3.971,4.468,3.5,4.866,3.5,5.524v4.533c0,0.668,0.48,1.259,1.14,1.267l2.412,0.005
	l1.98,2.136l0.015-2.13h2.242c0.66,0.005,1.201-0.529,1.201-1.188l0.01-4.552C12.504,4.938,11.968,4.472,11.307,4.472"/>
</svg>
