<?xml version="1.0" encoding="utf-8"?>
<!-- Generator: Adobe Illustrator 17.0.1, SVG Export Plug-In . SVG Version: 6.00 Build 0)  -->
<!DOCTYPE svg PUBLIC "-//W3C//DTD SVG 1.1//EN" "http://www.w3.org/Graphics/SVG/1.1/DTD/svg11.dtd">
<svg version="1.1" id="Layer_1" xmlns="http://www.w3.org/2000/svg" xmlns:xlink="http://www.w3.org/1999/xlink" x="0px" y="0px"
	 width="16px" height="16px" viewBox="-0.5 0.5 16 16" enable-background="new -0.5 0.5 16 16" xml:space="preserve">
<path fill="#59B4D9" d="M13.367,0.5H1.633C0.46,0.5-0.5,1.46-0.5,2.633V5.5v8.867c0,1.173,0.96,2.133,2.133,2.133h11.733
	c1.174,0,2.134-0.96,2.134-2.133V5.5V2.633C15.5,1.46,14.54,0.5,13.367,0.5z"/>
<rect x="11.482" y="6.5" fill="#FFFFFF" width="1" height="1"/>
<rect x="11.482" y="10.5" fill="#FFFFFF" width="1" height="1"/>
<rect x="11.482" y="8.5" fill="#FFFFFF" width="1" height="1"/>
<rect x="13.482" y="6.5" fill="#FFFFFF" width="1" height="1"/>
<rect x="13.482" y="8.5" fill="#FFFFFF" width="1" height="1"/>
<rect x="9.482" y="6.5" fill="#FFFFFF" width="1" height="1"/>
<rect x="9.482" y="10.5" fill="#FFFFFF" width="1" height="1"/>
<rect x="9.482" y="8.5" fill="#FFFFFF" width="1" height="1"/>
<rect x="7.482" y="10.5" fill="#FFFFFF" width="1" height="1"/>
<rect x="7.482" y="8.5" fill="#FFFFFF" width="1" height="1"/>
<path fill="#FFFFFF" d="M2.183,6.719V11.3H1.459V7.605c-0.132,0.094-0.273,0.174-0.424,0.24C0.885,7.91,0.712,7.969,0.518,8.019
	v-0.62c0.12-0.039,0.237-0.081,0.35-0.125s0.224-0.092,0.333-0.146c0.109-0.055,0.22-0.115,0.331-0.181
	C1.643,6.88,1.759,6.804,1.878,6.719H2.183z"/>
<path fill="#FFFFFF" d="M6.425,11.3H3.612v-0.347c0-0.143,0.02-0.275,0.06-0.398c0.039-0.124,0.093-0.241,0.159-0.351
	s0.145-0.212,0.234-0.31c0.09-0.097,0.186-0.19,0.287-0.281c0.103-0.09,0.206-0.178,0.313-0.262c0.106-0.085,0.211-0.17,0.313-0.255
	c0.096-0.081,0.184-0.161,0.263-0.239s0.146-0.159,0.203-0.242s0.1-0.172,0.131-0.264c0.03-0.092,0.046-0.193,0.046-0.301
	c0-0.119-0.018-0.223-0.055-0.312C5.53,7.65,5.479,7.576,5.414,7.517C5.348,7.457,5.27,7.413,5.181,7.383
	c-0.089-0.03-0.188-0.046-0.294-0.046c-0.183,0-0.369,0.043-0.559,0.128C4.138,7.551,3.956,7.679,3.781,7.85V7.152
	c0.092-0.068,0.184-0.128,0.277-0.179C4.152,6.922,4.25,6.879,4.349,6.845c0.1-0.035,0.205-0.06,0.315-0.077
	s0.229-0.025,0.354-0.025c0.202,0,0.386,0.026,0.55,0.08C5.733,6.876,5.874,6.954,5.99,7.057C6.107,7.16,6.197,7.289,6.261,7.443
	s0.095,0.331,0.095,0.531c0,0.182-0.021,0.344-0.066,0.489S6.182,8.742,6.099,8.867C6.017,8.992,5.917,9.111,5.801,9.223
	C5.684,9.335,5.554,9.452,5.41,9.57C5.289,9.668,5.169,9.763,5.049,9.856C4.93,9.949,4.821,10.04,4.726,10.127
	c-0.096,0.089-0.174,0.178-0.232,0.266c-0.06,0.089-0.09,0.178-0.09,0.268v0.016h2.022V11.3H6.425z"/>
<path opacity="0.2" fill="#FFFFFF" d="M14.789,1.057C14.41,0.715,13.914,0.5,13.367,0.5H1.633C0.46,0.5-0.5,1.46-0.5,2.633V5.5
	v8.533c0,0.719,0.223,1.308,0.579,1.734L14.789,1.057z"/>
</svg>
