<?xml version="1.0" encoding="utf-8"?>
<!-- Generator: Adobe Illustrator 17.0.1, SVG Export Plug-In . SVG Version: 6.00 Build 0)  -->
<!DOCTYPE svg PUBLIC "-//W3C//DTD SVG 1.1//EN" "http://www.w3.org/Graphics/SVG/1.1/DTD/svg11.dtd">
<svg version="1.1" id="Layer_1" xmlns="http://www.w3.org/2000/svg" xmlns:xlink="http://www.w3.org/1999/xlink" x="0px" y="0px"
	 width="16px" height="16px" viewBox="-0.5 0.5 16 16" enable-background="new -0.5 0.5 16 16" xml:space="preserve">
<g>
	<circle fill="#59B4D9" cx="7.5" cy="8.5" r="8"/>
	<path opacity="0.2" fill="#FFFFFF" d="M1.843,14.157c-3.124-3.124-3.124-8.19,0-11.314s8.19-3.124,11.314,0L1.843,14.157z"/>
</g>
<path fill-rule="evenodd" clip-rule="evenodd" fill="#FFFFFF" d="M13.5,7.25V6.9c-0.751,0-1.366-0.63-1.366-1.4H2.866
	c0,0.77-0.615,1.4-1.366,1.4v0.21c0.273,0,0.478,0.21,0.478,0.49S1.773,8.09,1.5,8.09v0.35c0.273,0,0.478,0.21,0.478,0.49
	c0,0.28-0.205,0.56-0.478,0.56v0.35c0.273,0,0.478,0.21,0.478,0.49c0,0.28-0.205,0.56-0.478,0.56v0.21c0.751,0,1.366,0.63,1.366,1.4
	h9.268c0-0.77,0.615-1.4,1.366-1.4v-0.21c-0.273,0-0.478-0.21-0.478-0.49s0.205-0.49,0.478-0.49V9.56
	c-0.273,0-0.478-0.21-0.478-0.49c0-0.28,0.205-0.49,0.478-0.49V8.23c-0.273,0-0.478-0.21-0.478-0.49
	C13.022,7.46,13.227,7.25,13.5,7.25z M4.5,11.1h-1V6.9h1V11.1z M9.161,11.307l-1.56-0.82l-1.56,0.82L6.338,9.57l-1.262-1.23
	L6.82,8.086l0.78-1.581l0.78,1.581l1.744,0.253L8.863,9.57L9.161,11.307z M11.5,11.1h-1V6.9h1V11.1z"/>
</svg>
