<?xml version="1.0" encoding="utf-8"?>
<!-- Generator: Adobe Illustrator 17.0.1, SVG Export Plug-In . SVG Version: 6.00 Build 0)  -->
<!DOCTYPE svg PUBLIC "-//W3C//DTD SVG 1.1//EN" "http://www.w3.org/Graphics/SVG/1.1/DTD/svg11.dtd">
<svg version="1.1" id="Layer_1" xmlns="http://www.w3.org/2000/svg" xmlns:xlink="http://www.w3.org/1999/xlink" x="0px" y="0px"
	 width="30px" height="30px" viewBox="0.5 0.5 30 30" enable-background="new 0.5 0.5 30 30" xml:space="preserve">
<path fill="#FEE087" d="M26.5,28.5c0,1.1-0.9,2-2,2h-18c-1.1,0-2-0.9-2-2v-26c0-1.1,0.9-2,2-2h18c1.1,0,2,0.9,2,2V28.5z"/>
<rect x="7.5" y="14.5" fill="#7A7A7A" width="11" height="2"/>
<rect x="20.5" y="14.5" fill="#7A7A7A" width="3" height="2"/>
<rect x="7.5" y="18.5" fill="#7A7A7A" width="11" height="2"/>
<rect x="20.5" y="18.5" fill="#7A7A7A" width="3" height="2"/>
<rect x="7.5" y="22.5" fill="#7A7A7A" width="11" height="2"/>
<rect x="20.5" y="22.5" fill="#7A7A7A" width="3" height="2"/>
<rect x="20.5" y="26.5" fill="#7A7A7A" width="3" height="2"/>
<polygon fill="#7A7A7A" points="17.8,8.5 14.6,11.5 17.2,11.5 21.5,7.5 17.2,3.5 14.6,3.5 17.8,6.5 11.5,6.5 11.5,8.5 "/>
</svg>
