<?xml version="1.0" encoding="utf-8"?>
<!-- Generator: Adobe Illustrator 18.1.0, SVG Export Plug-In . SVG Version: 6.00 Build 0)  -->
<!DOCTYPE svg PUBLIC "-//W3C//DTD SVG 1.1//EN" "http://www.w3.org/Graphics/SVG/1.1/DTD/svg11.dtd">
<svg version="1.1" id="Layer_1" xmlns="http://www.w3.org/2000/svg" xmlns:xlink="http://www.w3.org/1999/xlink" x="0px" y="0px"
	 viewBox="0 0 261.4 202" enable-background="new 0 0 261.4 202" xml:space="preserve">
<g id="Microsoft_organization_account_2">
	<path fill="#0078D7" d="M137,72.7l-7.7,5.5l-7,1.4l0,0l7-1.4l0.7,3.6l11.7-2.4c1.7-0.4,3.4,0.8,3.8,2.5l9,44.2
		c0.2,0.8,0,1.8-0.4,2.3h-37.4l-7.9-39c-0.4-1.7,0.8-3.4,2.5-3.8l11.8-2.4l-0.7-3.5l0,0l-5.1-7H103v55.7h55.7V72.7H137z"/>
	<circle fill="#0078D7" cx="126.3" cy="81.4" r="1"/>
	<polygon fill="#0078D7" points="128.4,72.7 123,72.7 125.7,75.8 	"/>
	<path fill="#0078D7" d="M143.2,86.1l-30.7,6.2l6,29.7l5.7-1.2l-2.8-13.7l5.8-1.2l5.2,4.8l2.9-6.4l5.8-1.2l2.7,13.6l5.3-1.1
		L143.2,86.1z M131,103.3c-3,0.6-6-1.3-6.6-4.4c-0.6-3,1.4-6,4.4-6.6c3-0.6,6,1.3,6.6,4.4C136,99.8,134,102.7,131,103.3z"/>
	<path fill="#0078D7" d="M119.8,87.7L119.8,87.7c0.1,0.5,0.5,0.7,0.9,0.6l13.5-2.7c0.4-0.1,0.6-0.5,0.6-0.8l0-0.1
		c-0.1-0.4-0.5-0.6-0.8-0.6l-3.2,0.7l0.2,1l-7,1.4l-0.2-1l-3.2,0.7C120,86.9,119.8,87.3,119.8,87.7z"/>
</g>
</svg>
