<?xml version="1.0" encoding="utf-8"?>
<!-- Generator: Adobe Illustrator 19.1.0, SVG Export Plug-In . SVG Version: 6.00 Build 0)  -->
<svg version="1.1" id="Layer_1" xmlns="http://www.w3.org/2000/svg" xmlns:xlink="http://www.w3.org/1999/xlink" x="0px" y="0px"
	 viewBox="-280 372 50 50" style="enable-background:new -280 372 50 50;" xml:space="preserve">
<style type="text/css">
	.st0{fill:#0078D7;}
	.st1{fill:#FFFFFF;}
</style>
<path class="st0" d="M-255,422c-1.2,0-2.4-0.5-3.3-1.4l-20.4-20.4c-0.9-0.9-1.4-2-1.4-3.3c0-1.2,0.5-2.4,1.4-3.3l20.4-20.4
	c0.9-0.9,2-1.4,3.3-1.4c1.2,0,2.4,0.5,3.3,1.4l20.4,20.4c0.9,0.9,1.4,2,1.4,3.3s-0.5,2.4-1.4,3.3l-20.4,20.4
	C-252.6,421.5-253.8,422-255,422"/>
<path class="st1" d="M-234.4,396.7l-6.6-6.6v4.7l-7,0c-0.7-2.4-2.6-4.3-5-5V383h4.6l-6.6-6.6l-6.6,6.6h4.6v6.7c-2.4,0.7-4.3,2.6-5,5
	l-7,0v-4.6l-6.6,6.6l6.6,6.6v-4.7l7,0c0.7,2.4,2.6,4.3,5,5v4.6c-1,0.7-2.5,2.3-2.5,4c0,2.5,2,4.5,4.5,4.5c2.5,0,4.5-2,4.5-4.5
	c0-1.8-1.5-3.3-2.5-4v-4.7c2.4-0.7,4.3-2.6,5-5l7,0v4.6L-234.4,396.7z"/>
<path class="st0" d="M-255,391.4c-2.9,0-5.3,2.4-5.3,5.3c0,2.9,2.4,5.3,5.3,5.3c2.9,0,5.3-2.4,5.3-5.3S-252.1,391.4-255,391.4z"/>
<g id="paths">
	<g id="Access_control">
	</g>
	<g id="Azure_active_directory">
	</g>
	<g id="API_Management">
	</g>
	<g id="Azure_automation">
	</g>
	<g id="Azure_SQL_database">
	</g>
	<g id="Azure_subscription">
	</g>
	<g id="Backup_service">
	</g>
	<g id="Bitbucket_code_source">
	</g>
	<g id="Azure_cache">
	</g>
	<g id="Content_delivery_network__x28_CDN_x29_">
	</g>
	<g id="Cloud_service">
	</g>
	<g id="CodePlex">
	</g>
	<g id="Dropbox_code_source">
	</g>
	<g id="Express_route">
	</g>
	<g id="Git_repository">
	</g>
	<g id="GitHub_code">
	</g>
	<g id="HD_Insight">
	</g>
	<g id="Health_monitoring">
	</g>
	<g id="Healthy">
	</g>
	<g id="BizTalk_hybrid_connection">
	</g>
	<g id="Hybrid_connection_manager_for_BizTalk_hybrid_connection">
	</g>
	<g id="Hyper-V_recovery_manager">
	</g>
</g>
</svg>
