<?xml version="1.0" encoding="utf-8"?>
<!-- Generator: Adobe Illustrator 18.1.0, SVG Export Plug-In . SVG Version: 6.00 Build 0)  -->
<!DOCTYPE svg PUBLIC "-//W3C//DTD SVG 1.0//EN" "http://www.w3.org/TR/2001/REC-SVG-20010904/DTD/svg10.dtd">
<svg version="1.0" xmlns="http://www.w3.org/2000/svg" xmlns:xlink="http://www.w3.org/1999/xlink" x="0px" y="0px"
	 viewBox="0 0 152 117.5" enable-background="new 0 0 152 117.5" xml:space="preserve">
<g id="Layer_1">
	<g>
		<path fill="#0078D7" d="M76,56.3c-1.3,0-2.4,1.1-2.4,2.4c0,1.3,1.1,2.4,2.4,2.4c1.3,0,2.4-1.1,2.4-2.4
			C78.4,57.4,77.4,56.3,76,56.3z"/>
		<path fill="#0078D7" d="M76,48.8c-8.4,0-16-1.4-21.3-3.6v27.1C60,70,67.6,68.7,76,68.7c8.4,0,16,1.4,21.3,3.6V45.2
			C92,47.4,84.4,48.8,76,48.8z M83.6,59.6l-2.1,0.8L81,61.5l0.9,1.7l0.1,0.2l-1.2,1.2l-2-1l-1.2,0.5L77,66.1l-0.1,0.2h-1.7l-0.8-2.1
			l-1.2-0.5l-1.7,0.9l-0.2,0.1L70,63.5l1-2l-0.5-1.2l-1.8-0.6l-0.3-0.1v-1.7l2.1-0.8L71,56l-0.9-1.7L70,54l1.2-1.2l2,1l1.2-0.5
			l0.6-1.9l0.1-0.3h1.7l0.8,2.1l1.2,0.5l1.7-0.9l0.2-0.1l0.7,0.7c0.2,0.3,0.3,0.5,0.5,0.8L81,56l0.5,1.2l1.8,0.6l0.3,0.1V59.6z"/>
	</g>
</g>
<g id="paths">
	<g id="Access_control">
	</g>
	<g id="Azure_active_directory">
	</g>
</g>
</svg>
