<?xml version="1.0" encoding="UTF-8" standalone="no"?>
<!DOCTYPE svg PUBLIC "-//W3C//DTD SVG 1.1//EN" "http://www.w3.org/Graphics/SVG/1.1/DTD/svg11.dtd">
<!-- Generated by Microsoft Visio, SVG Export Datawarehouse.svg Page-1 -->
<svg xmlns="http://www.w3.org/2000/svg" xmlns:xlink="http://www.w3.org/1999/xlink" xmlns:ev="http://www.w3.org/2001/xml-events"
		xmlns:v="http://schemas.microsoft.com/visio/2003/SVGExtensions/" width="1.02083in" height="0.993212in"
		viewBox="0 0 73.5 71.5113" xml:space="preserve" color-interpolation-filters="sRGB" class="st2">
	<v:documentProperties v:langID="1033" v:viewMarkup="false">
		<v:userDefs>
			<v:ud v:nameU="visTLShowProps" v:prompt="" v:val="VT0(0):26"/>
		</v:userDefs>
	</v:documentProperties>

	<style type="text/css">
	<![CDATA[
		.st1 {fill:#0078d7;stroke:none;stroke-linecap:butt;stroke-width:0.75}
		.st2 {fill:none;fill-rule:evenodd;font-size:12px;overflow:visible;stroke-linecap:square;stroke-miterlimit:3}
	]]>
	</style>

	<g v:mID="0" v:index="1" v:groupContext="foregroundPage">
		<title>Page-1</title>
		<v:pageProperties v:drawingScale="1" v:pageScale="1" v:drawingUnits="19" v:shadowOffsetX="2.83465"
				v:shadowOffsetY="-2.83465" v:shadowType="1"/>
		<g id="shape1319-1" v:mID="1319" v:groupContext="shape" transform="translate(0.75,-0.75)">
			<title>SQL Data Warehouse (nc)</title>
			<path d="M56.79 49.96 C56.05 49.96 55.45 50.23 54.99 50.79 C54.53 51.35 54.33 52.09 54.33 53.01 C54.33 53.94 54.56 54.67
						 54.99 55.23 C55.45 55.79 56.01 56.06 56.71 56.06 C57.44 56.06 58 55.79 58.47 55.27 C58.89 54.71 59.12 53.98
						 59.12 53.05 C59.12 52.09 58.89 51.3 58.47 50.74 C58.08 50.23 57.52 49.96 56.79 49.96 ZM68.76 35.85 L68.7
						 36.02 C68.68 36.08 68.64 36.14 68.62 36.18 L68.62 36.2 C68.58 36.25 68.54 36.29 68.51 36.35 C68.51 36.35
						 68.51 36.37 68.49 36.37 C68.45 36.43 68.41 36.47 68.35 36.52 L68.33 36.54 C68.29 36.6 68.23 36.64 68.18
						 36.7 L68.16 36.72 C68.1 36.76 68.04 36.81 67.98 36.85 L67.96 36.87 C67.91 36.91 67.85 36.97 67.77 37.01
						 L67.75 37.03 C67.67 37.07 67.62 37.12 67.54 37.16 L67.52 37.18 C67.44 37.22 67.37 37.28 67.29 37.32 C67.29
						 37.32 67.27 37.32 67.27 37.34 C67.17 37.37 67.1 37.43 67 37.47 C66.42 37.76 65.71 38.01 64.89 38.24 C64.88
						 38.24 64.86 38.24 64.86 38.26 C64.76 38.3 64.64 38.32 64.53 38.34 C64.49 38.36 64.45 38.36 64.41 38.38 C64.32
						 38.4 64.22 38.44 64.12 38.46 C64.06 38.48 64.03 38.48 63.97 38.49 L63.68 38.55 C63.62 38.57 63.56 38.57
						 63.49 38.59 C63.39 38.61 63.29 38.63 63.21 38.65 C63.14 38.67 63.08 38.67 63 38.69 C62.91 38.71 62.83 38.73
						 62.73 38.75 C62.65 38.76 62.58 38.76 62.5 38.78 C62.4 38.8 62.33 38.82 62.23 38.82 C62.15 38.84 62.08 38.84
						 61.98 38.86 C61.88 38.88 61.81 38.88 61.71 38.9 C61.63 38.92 61.53 38.92 61.44 38.94 C61.34 38.96 61.26
						 38.96 61.17 38.98 C61.07 39 60.98 39 60.9 39.02 C60.8 39.03 60.72 39.03 60.63 39.05 C60.53 39.07 60.43 39.07
						 60.34 39.09 C60.24 39.09 60.16 39.11 60.07 39.11 C59.97 39.11 59.86 39.13 59.76 39.13 C59.66 39.13 59.58
						 39.15 59.49 39.15 C59.39 39.15 59.28 39.17 59.16 39.17 C59.06 39.17 58.99 39.19 58.89 39.19 C58.77 39.19
						 58.66 39.21 58.56 39.21 C58.48 39.21 58.39 39.21 58.31 39.23 C58.19 39.23 58.08 39.25 57.94 39.25 L57.69
						 39.25 C57.56 39.25 57.42 39.25 57.29 39.27 L55.01 39.27 C54.89 39.27 54.76 39.27 54.64 39.25 C54.55 39.25
						 54.47 39.25 54.39 39.23 C54.28 39.23 54.16 39.21 54.06 39.21 C53.97 39.21 53.89 39.19 53.79 39.19 C53.7
						 39.19 53.58 39.17 53.48 39.17 C53.39 39.17 53.31 39.15 53.21 39.15 C53.12 39.15 53.02 39.13 52.9 39.13 C52.81
						 39.13 52.73 39.11 52.63 39.11 C52.54 39.11 52.44 39.09 52.34 39.07 C52.25 39.05 52.15 39.05 52.07 39.03
						 C51.98 39.02 51.9 39.02 51.8 39 C51.71 38.98 51.61 38.98 51.53 38.96 C51.46 38.94 51.36 38.94 51.28 38.92
						 C51.19 38.9 51.09 38.9 51.01 38.88 C50.93 38.86 50.86 38.86 50.78 38.84 C50.68 38.82 50.59 38.8 50.49 38.8
						 C50.41 38.78 50.34 38.78 50.28 38.76 L49.99 38.71 C49.91 38.69 49.85 38.69 49.8 38.67 L49.51 38.61 C49.45
						 38.59 49.39 38.59 49.33 38.57 L49.04 38.51 C48.98 38.49 48.95 38.49 48.89 38.48 C48.79 38.46 48.68 38.42
						 48.58 38.4 C48.54 38.4 48.5 38.38 48.46 38.38 C48.35 38.36 48.23 38.32 48.14 38.28 C48.12 38.28 48.1 38.28
						 48.1 38.26 C47.02 37.95 46.11 37.59 45.43 37.18 C45.35 37.12 45.28 37.08 45.2 37.03 L45.18 37.03 C45.1 36.97
						 45.05 36.93 44.97 36.87 L44.95 36.85 C44.89 36.8 44.83 36.76 44.78 36.7 L44.76 36.68 C44.7 36.62 44.64 36.58
						 44.6 36.52 L44.58 36.51 C44.52 36.45 44.49 36.41 44.45 36.35 L44.45 36.33 C44.41 36.27 44.37 36.22 44.33
						 36.18 L44.33 36.16 C44.29 36.1 44.27 36.04 44.23 35.98 L44.18 35.81 C44.14 35.69 44.12 35.6 44.12 35.48
						 C44.12 33.45 49.66 31.74 56.51 31.74 C63.37 31.74 68.91 33.42 68.91 35.48 C68.81 35.64 68.79 35.73 68.76
						 35.85 ZM68.58 57.73 L62.94 57.73 L62.94 48.24 L65.07 48.24 L65.07 55.97 L68.58 55.97 L68.58 57.73 ZM59.24
						 59.08 L57.98 57.78 C57.67 57.86 57.21 57.92 56.69 57.92 C55.36 57.92 54.24 57.45 53.37 56.59 C52.54 55.7
						 52.07 54.56 52.07 53.11 C52.07 51.62 52.5 50.43 53.37 49.5 C54.26 48.57 55.36 48.11 56.79 48.11 C58.12 48.11
						 59.24 48.57 60.07 49.44 C60.9 50.31 61.32 51.47 61.32 52.96 C61.32 54.44 60.9 55.64 60.03 56.57 L59.84 56.76
						 L62.25 59.08 L59.24 59.08 ZM50.88 56.34 C50.68 56.7 50.41 56.99 50.05 57.22 C49.72 57.45 49.31 57.59 48.85
						 57.69 C48.39 57.78 47.92 57.82 47.42 57.82 C46.92 57.82 46.4 57.78 45.93 57.69 C45.45 57.69 45.05 57.53
						 44.72 57.36 L44.72 55.23 C45.08 55.56 45.51 55.79 45.97 55.97 C46.44 56.1 46.9 56.2 47.3 56.2 C47.58 56.2
						 47.81 56.16 48 56.1 C48.19 56.06 48.37 56.01 48.5 55.91 C48.64 55.81 48.73 55.72 48.77 55.58 C48.81 55.45
						 48.87 55.35 48.87 55.22 C48.87 55.02 48.83 54.85 48.73 54.71 C48.64 54.58 48.5 54.44 48.31 54.29 C48.12
						 54.15 47.88 54.06 47.65 53.92 C47.42 53.83 47.15 53.69 46.82 53.55 C46.09 53.23 45.53 52.86 45.16 52.45
						 C44.79 51.99 44.6 51.49 44.6 50.83 C44.6 50.33 44.7 49.91 44.87 49.58 C45.07 49.21 45.34 48.92 45.66 48.69
						 C45.99 48.46 46.4 48.26 46.86 48.19 C47.32 48.09 47.79 48.05 48.29 48.05 C48.79 48.05 49.22 48.09 49.58
						 48.15 C49.95 48.19 50.32 48.28 50.65 48.42 L50.65 50.41 C50.51 50.31 50.32 50.21 50.14 50.14 C49.97 50.06
						 49.78 50 49.58 49.94 C49.39 49.91 49.16 49.85 48.98 49.81 C48.79 49.77 48.62 49.77 48.42 49.77 C48.19 49.77
						 47.96 49.77 47.77 49.81 C47.58 49.85 47.4 49.91 47.27 50 C47.13 50.1 47.03 50.2 46.94 50.27 C46.84 50.41
						 46.84 50.5 46.84 50.64 C46.84 50.77 46.88 50.91 46.98 51.06 C47.07 51.2 47.17 51.3 47.34 51.43 C47.48 51.53
						 47.67 51.66 47.9 51.76 C48.14 51.86 48.37 51.99 48.64 52.09 C49 52.22 49.37 52.42 49.66 52.59 C49.99 52.78
						 50.22 52.96 50.45 53.19 C50.68 53.42 50.82 53.65 50.95 53.98 C51.05 54.25 51.15 54.58 51.15 55 C51.15 55.5
						 51.05 55.97 50.88 56.34 ZM56.42 30.21 C47.83 30.21 40.84 32.74 40.84 35.85 L40.84 65.85 C40.84 68.92 47.71
						 71.45 56.19 71.49 L56.19 71.51 L56.42 71.51 C65.03 71.51 72 68.96 72 65.87 L72 35.85 C72 32.7 65.01 30.21
						 56.42 30.21 ZM31.4 49.04 L38.29 49.04 L38.29 42.14 L31.4 42.14 L31.4 49.04 ZM21.68 39.69 L28.58 39.69 L28.58
						 32.8 L21.68 32.8 L21.68 39.69 ZM21.68 49.04 L28.58 49.04 L28.58 42.14 L21.68 42.14 L21.68 49.04 ZM17.34
						 30.35 L24.23 30.35 L24.23 23.45 L17.34 23.45 L17.34 30.35 ZM11.87 39.69 L18.77 39.69 L18.77 32.8 L11.87
						 32.8 L11.87 39.69 ZM11.87 49.04 L18.77 49.04 L18.77 42.14 L11.87 42.14 L11.87 49.04 ZM43.93 30.79 C45.39
						 30.15 47.13 29.67 49.02 29.32 L49.02 20.13 L54.1 20.13 L54.1 15.92 L27.15 1.5 L0 15.92 L0 20.13 L5.54 20.13
						 L5.54 49.27 L10.18 49.27 L10.18 20.13 L43.93 20.13 L43.93 30.79 Z" class="st1"/>
		</g>
	</g>
</svg>
