<?xml version="1.0" encoding="utf-8"?>
<!-- Generator: Adobe Illustrator 19.1.0, SVG Export Plug-In . SVG Version: 6.00 Build 0)  -->
<svg version="1.1" id="Layer_1" xmlns="http://www.w3.org/2000/svg" xmlns:xlink="http://www.w3.org/1999/xlink" x="0px" y="0px"
	 viewBox="-280 372 50 50" style="enable-background:new -280 372 50 50;" xml:space="preserve">
<style type="text/css">
	.st0{fill:#0078D7;}
</style>
<path class="st0" d="M-237.9,390.5L-237.9,390.5v-2.2c0-4.4-1.6-8.5-4.4-11.4c-2.6-3-8.4-4.9-12.7-4.9s-10.1,1.9-12.7,4.9
	c-2.7,2.9-4.4,7-4.4,11.4v2.2l0,0c-3.9,0-5.3,2.3-5.3,5.3v20.9c0,2.6,1.6,5.3,4.6,5.3h35.6c3.4,0,4.6-2.7,4.6-5.3v-20.9
	C-232.6,393.1-233.7,390.5-237.9,390.5z M-264.2,389.4c0-2.6,0.9-5.9,2.4-7.6s4.7-2.5,6.8-2.6c2.1,0,5.3,0.9,6.8,2.6
	s2.4,3.9,2.4,6.4v2.2h-18.4V389.4z M-261,399.1l5.8-5.8l5.8,5.8h-4.1v4.2h-3.5v-4.2H-261z M-271.7,407.9v-3.4h6v-4l5.6,5.6l-5.6,5.6
	v-3.9L-271.7,407.9L-271.7,407.9z M-255.2,419.2l-5.9-5.9h4.1v-4.1h3.5v4.1h4.2L-255.2,419.2z M-238.7,407.9h-6v4l-5.7-5.7l5.7-5.7
	v4h6V407.9z"/>
<g id="paths">
	<g id="Access_control">
	</g>
	<g id="Azure_active_directory">
	</g>
</g>
</svg>
