<?xml version="1.0" encoding="UTF-8" standalone="no"?>
<!DOCTYPE svg PUBLIC "-//W3C//DTD SVG 1.1//EN" "http://www.w3.org/Graphics/SVG/1.1/DTD/svg11.dtd">
<!-- Generated by Microsoft Visio, SVG Export Service Bus Topics.svg Page-1 -->
<svg xmlns="http://www.w3.org/2000/svg" xmlns:xlink="http://www.w3.org/1999/xlink" xmlns:ev="http://www.w3.org/2001/xml-events"
		xmlns:v="http://schemas.microsoft.com/visio/2003/SVGExtensions/" width="0.541667in" height="0.541667in" viewBox="0 0 39 39"
		xml:space="preserve" color-interpolation-filters="sRGB" class="st2">
	<v:documentProperties v:langID="1033" v:viewMarkup="false">
		<v:userDefs>
			<v:ud v:nameU="visTLShowProps" v:prompt="" v:val="VT0(0):26"/>
		</v:userDefs>
	</v:documentProperties>

	<style type="text/css">
	<![CDATA[
		.st1 {fill:#0072c6;stroke:none;stroke-linecap:butt;stroke-width:0.75}
		.st2 {fill:none;fill-rule:evenodd;font-size:12px;overflow:visible;stroke-linecap:square;stroke-miterlimit:3}
	]]>
	</style>

	<g v:mID="0" v:index="1" v:groupContext="foregroundPage">
		<title>Page-1</title>
		<v:pageProperties v:drawingScale="1" v:pageScale="1" v:drawingUnits="19" v:shadowOffsetX="9" v:shadowOffsetY="-9"/>
		<g id="shape29-1" v:mID="29" v:groupContext="shape" transform="translate(0.75,-0.75)">
			<title>Sheet.29</title>
			<path d="M27.1 12.94 C26.7 13.33 26.18 13.55 25.62 13.55 C25.06 13.55 24.53 13.33 24.14 12.94 L21.3 10.1 L21.3 13.44
						 L20.14 12.29 L18.53 13.89 L19.73 15.08 L21.3 13.52 L21.3 15.87 L29.94 15.87 L29.94 10.1 L27.1 12.94 ZM27.1
						 27.73 C26.7 28.12 26.18 28.34 25.62 28.34 C25.06 28.34 24.53 28.12 24.14 27.73 L21.3 24.89 L21.3 26.48 L19.73
						 24.91 L18.53 26.11 L20.14 27.71 L21.3 26.55 L21.3 30.66 L29.94 30.66 L29.94 24.89 L27.1 27.73 ZM25.62 13.13
						 C26.06 13.13 26.48 12.95 26.8 12.64 L29.94 9.5 L29.94 9.34 L21.3 9.34 L21.3 9.5 L24.44 12.64 C24.75 12.95
						 25.17 13.13 25.62 13.13 ZM25.62 27.92 C26.06 27.92 26.48 27.75 26.8 27.43 L29.94 24.29 L29.94 24.13 L21.3
						 24.13 L21.3 24.29 L24.44 27.43 C24.75 27.75 25.17 27.92 25.62 27.92 ZM17.81 25.37 L19.01 24.18 L17.39 22.56
						 L16.19 23.75 L17.81 25.37 ZM17.38 17.44 L19 15.82 L17.8 14.62 L16.18 16.24 L17.38 17.44 ZM15.46 23.03 L16.65
						 21.83 L15.04 20.21 L13.84 21.41 L15.46 23.03 ZM15.04 19.78 L16.65 18.16 L15.46 16.97 L13.84 18.58 L15.04
						 19.78 ZM0.62 1.5 C0.25 1.5 0 1.75 0 2.12 L0 9.62 C0 10 0.25 10.25 0.62 10.25 L4.37 10.25 C4.75 10.25 5 10
						 5 9.62 L5 6.5 L32.5 6.5 L32.5 9.63 C32.5 10 32.75 10.25 33.25 10.25 L36.87 10.25 C37.25 10.25 37.5 10 37.5
						 9.63 L37.5 2.13 C37.5 1.75 37.25 1.5 36.88 1.5 L0.62 1.5 ZM6.88 20.84 C7.6 20.84 8.26 20.56 8.77 20.06 L13.77
						 15.06 L13.77 14.79 L0 14.79 L0 15.06 L5 20.06 C5.5 20.56 6.17 20.84 6.88 20.84 ZM9.24 20.53 C8.61 21.16
						 7.77 21.51 6.88 21.51 C5.99 21.51 5.15 21.16 4.52 20.53 L0 16.01 L0 25.2 L13.77 25.2 L13.77 16.01 L9.24
						 20.53 ZM36.88 39 C37.25 39 37.5 38.75 37.5 38.38 L37.5 31 C37.5 30.63 37.25 30.38 36.88 30.38 L33.25 30.38
						 C32.88 30.38 32.63 30.63 32.63 31 L32.63 34 L5 34 L5 30.88 C5 30.5 4.75 30.25 4.25 30.25 L0.62 30.25 C0.25
						 30.25 0 30.5 0 31 L0 38.38 C0 38.75 0.25 39 0.62 39 L36.88 39 Z" class="st1"/>
		</g>
	</g>
</svg>
