<?xml version="1.0" encoding="utf-8"?>
<!-- Generator: Adobe Illustrator 19.1.0, SVG Export Plug-In . SVG Version: 6.00 Build 0)  -->
<svg version="1.1" id="Layer_1" focusable="false" xmlns:svg="http://www.w3.org/2000/svg"
	 xmlns="http://www.w3.org/2000/svg" xmlns:xlink="http://www.w3.org/1999/xlink" x="0px" y="0px" viewBox="-280 372 50 50"
	 style="enable-background:new -280 372 50 50;" xml:space="preserve">
<style type="text/css">
	.st0{fill:#0078D7;}
	.st1{fill:#FFFFFF;}
</style>
<path class="st0" d="M-241.8,378L-241.8,378c-11-1.2-12.9-6-12.9-6s-2.5,6.2-18.3,6.2v25.6c0,3.1,1.7,6,4.1,8.5l0,0
	c5.4,5.7,14.2,9.6,14.2,9.6s18.3-8,18.3-18.1v-25.6C-238.4,378.2-240.2,378.1-241.8,378z"/>
<path class="st1" d="M-247.4,396.5h-1.1v-3.6c0-1.7-0.6-3.3-1.7-4.4l0,0c0,0-0.1-0.1-0.1-0.1c-1.1-1.2-2.7-1.9-4.4-1.9
	c-1.7,0-3.3,0.8-4.4,1.9c-1.1,1.2-1.8,2.8-1.8,4.6v3.6h-1.1c-0.4,0-0.8,0.4-0.8,0.8v7.2v0v2.2c0,0.4,0.4,0.8,0.8,0.8h14.5
	c0.4,0,0.8-0.4,0.8-0.8v-9.4C-246.6,396.8-247,396.5-247.4,396.5z M-251.4,396.5h-5l0,0h-1.5v-3.6c0-1,0.4-1.9,1-2.6
	c0.6-0.6,1.4-1,2.3-1c0.9,0,1.7,0.4,2.3,1c0.1,0.2,0.3,0.3,0.4,0.5l0,0c0.4,0.6,0.6,1.3,0.6,2.1
	C-251.4,392.9-251.4,396.5-251.4,396.5z"/>
</svg>
