<?xml version="1.0" encoding="utf-8"?>
<!-- Generator: Adobe Illustrator 18.1.0, SVG Export Plug-In . SVG Version: 6.00 Build 0)  -->
<!DOCTYPE svg PUBLIC "-//W3C//DTD SVG 1.0//EN" "http://www.w3.org/TR/2001/REC-SVG-20010904/DTD/svg10.dtd">
<svg version="1.0" xmlns="http://www.w3.org/2000/svg" xmlns:xlink="http://www.w3.org/1999/xlink" x="0px" y="0px"
	 viewBox="0 0 152 117.5" enable-background="new 0 0 152 117.5" xml:space="preserve">
<g id="Layer_1">
	<g id="Azure">
	</g>
	<g id="BizTalk_Services" transform="translate(37.3575,-2500.2)">
	</g>
	<g id="Key_Vault">
	</g>
	<g id="Mobile_Engagement">
	</g>
	<g id="Office_subscription">
		<g id="Office_subscription_1_">
		</g>
	</g>
</g>
<g id="paths">
	<g id="Access_control">
	</g>
	<g id="Azure_active_directory">
	</g>
	<g id="API_Management">
	</g>
	<g id="Azure_automation">
	</g>
	<g id="Azure_SQL_database">
	</g>
	<g id="Azure_subscription">
	</g>
	<g id="Backup_service">
	</g>
	<g id="Bitbucket_code_source">
	</g>
	<g id="Azure_cache">
	</g>
	<g id="Content_delivery_network__x28_CDN_x29_">
	</g>
	<g id="Cloud_service">
	</g>
	<g id="CodePlex">
	</g>
	<g id="Dropbox_code_source">
	</g>
	<g id="Express_route">
	</g>
	<g id="Git_repository">
	</g>
	<g id="GitHub_code">
	</g>
	<g id="HD_Insight">
	</g>
	<g id="Health_monitoring">
	</g>
	<g id="Healthy">
	</g>
	<g id="BizTalk_hybrid_connection">
	</g>
	<g id="Hybrid_connection_manager_for_BizTalk_hybrid_connection">
	</g>
	<g id="Hyper-V_recovery_manager">
	</g>
	<g id="Machine_learning">
	</g>
	<g id="Media_services">
	</g>
	<g id="Microsoft_account">
	</g>
	<g id="Mobile_services">
	</g>
	<g id="Multi-factor_authentication">
	</g>
	<g id="MySQL_database">
	</g>
	<g id="Notification_hub">
	</g>
	<g id="Notification_topic">
	</g>
	<g id="Cloud_Office_365">
	</g>
	<g id="Office_365">
	</g>
	<g id="OS_image">
	</g>
	<g id="Remote_app">
	</g>
	<g id="Task_scheduler">
	</g>
	<g id="Azure_SDK">
	</g>
	<g id="Service_bus">
	</g>
	<g id="Service_bus_queue">
	</g>
	<g id="Service_bus_relay">
	</g>
	<g id="Service_bus_topic">
	</g>
	<g id="Service_endpoint">
	</g>
	<g id="Custom_create">
	</g>
	<g id="SQL_data_sync">
	</g>
	<g id="SQL_reporting">
	</g>
	<g id="Startup_task">
	</g>
	<g id="Windows_Azure_storage">
	</g>
	<g id="Storage_blob">
	</g>
	<g id="Storage_table">
	</g>
	<g id="Storage_queue">
	</g>
	<g id="StorSimple">
	</g>
	<g id="Traffic_manager">
	</g>
	<g id="VHD">
	</g>
	<g id="VHD_data_disk">
	</g>
	<g id="Virtual_machine">
	</g>
	<g id="Team_foundation">
	</g>
	<g id="Azure_web_site">
	</g>
	<g id="Web_role">
		<g>
			<path fill="#0078D7" d="M66.2,61.3c1.1,2,2.8,3.3,4.6,3.5v-4.5C69.2,60.4,67.6,60.8,66.2,61.3z"/>
			<path fill="#0078D7" d="M78.7,47.1c-0.8-0.7-1.6-1.3-2.5-1.8c0.7,0.6,1.2,1.4,1.8,2.3C78.2,47.4,78.4,47.3,78.7,47.1z"/>
			<path fill="#0078D7" d="M66.2,48.2c1.4,0.6,2.9,0.9,4.6,1v-4.5C69,44.9,67.4,46.2,66.2,48.2z"/>
			<path fill="#0078D7" d="M65.8,49c-0.7,1.5-1.1,3.2-1.2,5.1h6.2v-4C69,50.1,67.2,49.7,65.8,49z"/>
			<path fill="#0078D7" d="M64.6,55.3c0.1,1.9,0.5,3.7,1.2,5.2c1.5-0.6,3.2-1,5.1-1.1v-4.1H64.6z"/>
			<path fill="#0078D7" d="M64.3,62.5c0.8,0.7,1.6,1.3,2.5,1.8c-0.7-0.6-1.3-1.4-1.8-2.3C64.8,62.1,64.5,62.3,64.3,62.5z"/>
			<path fill="#0078D7" d="M66.8,45.3c-0.9,0.4-1.8,1-2.5,1.8c0.2,0.2,0.5,0.4,0.8,0.5C65.6,46.7,66.1,45.9,66.8,45.3z"/>
			<path fill="#0078D7" d="M64.6,48.5c-0.4-0.2-0.7-0.4-1-0.7c-1.6,1.8-2.5,4.1-2.6,6.4h2.3C63.4,52.1,63.8,50.1,64.6,48.5z"/>
			<path fill="#0078D7" d="M63.3,55.3H61c0.1,2.3,1,4.6,2.6,6.4c0.3-0.2,0.7-0.5,1-0.7C63.8,59.4,63.4,57.4,63.3,55.3z"/>
			<path fill="#0078D7" d="M77.2,60.5c0.7-1.5,1.1-3.3,1.2-5.2h-6.3v4.1C73.9,59.4,75.7,59.8,77.2,60.5z"/>
			<path fill="#0078D7" d="M78.4,61c0.4,0.2,0.7,0.4,1,0.7c1.6-1.8,2.5-4.1,2.6-6.4h-2.3C79.6,57.4,79.1,59.4,78.4,61z"/>
			<path fill="#0078D7" d="M78.4,48.5c0.8,1.7,1.2,3.6,1.3,5.7H82c-0.1-2.3-1-4.5-2.6-6.4C79.1,48,78.7,48.3,78.4,48.5z"/>
			<path fill="#0078D7" d="M76.7,48.2c-1.1-2-2.8-3.3-4.6-3.5v4.5C73.8,49.1,75.4,48.8,76.7,48.2z"/>
			<path fill="#0078D7" d="M91.2,37.9H52.2c-1,0-1.9,1-1.9,2.2v30.2c0,1.2,0.8,2.2,1.9,2.2h38.9c1,0,1.9-1,1.9-2.2V40
				C93.1,38.8,92.2,37.9,91.2,37.9z M80.1,63.4c-2.4,2.4-5.5,3.6-8.6,3.6s-6.2-1.2-8.6-3.6c-2.4-2.4-3.6-5.5-3.6-8.6
				c0-3.1,1.2-6.2,3.6-8.6s5.5-3.6,8.6-3.6s6.2,1.2,8.6,3.6c2.4,2.3,3.6,5.4,3.6,8.5C83.6,57.8,82.5,61,80.1,63.4z"/>
			<path fill="#0078D7" d="M78.3,54.2c-0.1-1.9-0.5-3.6-1.2-5.1c-1.5,0.7-3.3,1-5.1,1.1v4H78.3z"/>
			<path fill="#0078D7" d="M76.7,61.3c-1.4-0.6-3-0.9-4.6-1v4.5C73.9,64.6,75.6,63.3,76.7,61.3z"/>
			<path fill="#0078D7" d="M76.1,64.2c0.9-0.4,1.8-1,2.5-1.8c-0.3-0.2-0.5-0.4-0.8-0.5C77.4,62.8,76.8,63.6,76.1,64.2z"/>
		</g>
	</g>
</g>
<g id="Layer_57">
</g>
<g id="Ibiza_Symbols">
	<g id="SQL_Database_Premium">
	</g>
</g>
</svg>
