<?xml version="1.0" encoding="utf-8"?>
<!-- Generator: Adobe Illustrator 19.1.0, SVG Export Plug-In . SVG Version: 6.00 Build 0)  -->
<svg version="1.1" id="Layer_1" xmlns="http://www.w3.org/2000/svg" xmlns:xlink="http://www.w3.org/1999/xlink" x="0px" y="0px"
	 viewBox="-267 358.6 76.4 76.4" style="enable-background:new -267 358.6 76.4 76.4;" xml:space="preserve">
<style type="text/css">
	.st0{opacity:0.4;}
	.st1{fill:#0079D6;}
</style>
<g>
	<g class="st0">
		<g>
			<path class="st1" d="M-228.8,358.6c3.5,0,6.9,0.5,10.1,1.4c3.3,0.9,6.3,2.2,9.1,3.9c2.8,1.7,5.4,3.7,7.7,6s4.3,4.9,6,7.7
				s3,5.9,3.9,9.1c0.9,3.3,1.4,6.6,1.4,10.1s-0.5,6.9-1.4,10.1c-0.9,3.3-2.2,6.3-3.9,9.1c-1.7,2.8-3.7,5.4-6,7.7
				c-2.3,2.3-4.9,4.3-7.7,6c-2.8,1.7-5.9,3-9.1,3.9c-3.3,0.9-6.6,1.4-10.1,1.4s-6.9-0.5-10.1-1.4c-3.3-0.9-6.3-2.2-9.1-3.9
				c-2.8-1.7-5.4-3.7-7.7-6s-4.3-4.9-6-7.7c-1.7-2.8-3-5.9-3.9-9.1c-0.9-3.2-1.4-6.6-1.4-10.1s0.5-6.9,1.4-10.1
				c0.9-3.3,2.2-6.3,3.9-9.1c1.7-2.8,3.7-5.4,6-7.7c2.3-2.3,4.9-4.3,7.7-6s5.9-3,9.1-3.9C-235.7,359.1-232.3,358.6-228.8,358.6
				 M-228.8,429.8c3,0,6-0.4,8.8-1.2c2.8-0.8,5.4-1.9,7.9-3.3c2.4-1.4,4.7-3.2,6.7-5.2s3.7-4.2,5.2-6.7c1.4-2.4,2.5-5.1,3.3-7.9
				c0.8-2.8,1.2-5.7,1.2-8.8c0-3.1-0.4-6-1.2-8.8c-0.8-2.8-1.9-5.4-3.3-7.9c-1.4-2.4-3.2-4.7-5.2-6.7s-4.2-3.7-6.7-5.2
				c-2.4-1.4-5.1-2.5-7.9-3.3s-5.7-1.2-8.8-1.2c-3,0-6,0.4-8.8,1.2c-2.8,0.8-5.4,1.9-7.9,3.3c-2.4,1.4-4.7,3.2-6.7,5.2
				s-3.7,4.2-5.2,6.7c-1.4,2.4-2.5,5.1-3.3,7.9c-0.8,2.8-1.2,5.7-1.2,8.8c0,3.1,0.4,6,1.2,8.8c0.8,2.8,1.9,5.4,3.3,7.9
				c1.4,2.4,3.2,4.7,5.2,6.7s4.2,3.7,6.7,5.2c2.4,1.4,5.1,2.5,7.9,3.3C-234.7,429.4-231.8,429.8-228.8,429.8"/>
		</g>
	</g>
	<path class="st1" d="M-228.8,363.4c3.1,0,6.1,0.4,8.9,1.2c2.8,0.8,5.5,1.9,8,3.4s4.7,3.2,6.8,5.2c2,2,3.8,4.3,5.2,6.8
		c1.5,2.5,2.6,5.1,3.4,8c0.8,2.8,1.2,5.8,1.2,8.9s-0.4,6.1-1.2,8.9c-0.8,2.8-1.9,5.5-3.4,8s-3.2,4.7-5.2,6.8c-2,2-4.3,3.8-6.8,5.2
		c-2.5,1.5-5.1,2.6-8,3.4c-2.8,0.8-5.8,1.2-8.9,1.2s-6.1-0.4-8.9-1.2c-2.8-0.8-5.5-1.9-8-3.4s-4.7-3.2-6.8-5.2c-2-2-3.8-4.3-5.2-6.8
		c-1.5-2.5-2.6-5.1-3.4-8c-0.8-2.8-1.2-5.8-1.2-8.9s0.4-6.1,1.2-8.9s1.9-5.5,3.4-8s3.2-4.7,5.2-6.8c2-2,4.3-3.8,6.8-5.2
		c2.5-1.5,5.1-2.6,8-3.4S-231.9,363.4-228.8,363.4 M-228.8,423.7c2.5,0,4.8-0.3,7.1-1c2.3-0.6,4.4-1.5,6.4-2.7s3.8-2.6,5.4-4.2
		c1.6-1.6,3-3.5,4.2-5.4c1.2-2,2.1-4.1,2.7-6.4c0.6-2.3,1-4.7,1-7.2s-0.3-4.8-1-7.1c-0.6-2.3-1.5-4.4-2.7-6.4
		c-1.2-2-2.6-3.8-4.2-5.4c-1.6-1.6-3.5-3-5.4-4.2c-2-1.2-4.1-2.1-6.4-2.7c-2.3-0.6-4.7-1-7.1-1c-2.5,0-4.8,0.3-7.1,1
		c-2.3,0.6-4.4,1.5-6.4,2.7s-3.8,2.6-5.4,4.2c-1.6,1.6-3,3.5-4.2,5.4c-1.2,2-2.1,4.1-2.7,6.4c-0.6,2.3-1,4.7-1,7.1
		c0,2.5,0.3,4.8,1,7.1c0.6,2.3,1.5,4.4,2.7,6.4s2.6,3.8,4.2,5.4c1.6,1.6,3.5,3,5.4,4.2c2,1.2,4.1,2.1,6.4,2.7
		C-233.7,423.4-231.3,423.7-228.8,423.7"/>
</g>
</svg>
