<?xml version="1.0" encoding="UTF-8" standalone="no"?>
<!DOCTYPE svg PUBLIC "-//W3C//DTD SVG 1.1//EN" "http://www.w3.org/Graphics/SVG/1.1/DTD/svg11.dtd">
<!-- Generated by Microsoft Visio, SVG Export Azure Automation - Runbook.svg Page-1 -->
<svg xmlns="http://www.w3.org/2000/svg" xmlns:xlink="http://www.w3.org/1999/xlink" xmlns:ev="http://www.w3.org/2001/xml-events"
		xmlns:v="http://schemas.microsoft.com/visio/2003/SVGExtensions/" width="0.502149in" height="0.540625in"
		viewBox="0 0 36.1547 38.925" xml:space="preserve" color-interpolation-filters="sRGB" class="st2">
	<v:documentProperties v:langID="1033" v:viewMarkup="false">
		<v:userDefs>
			<v:ud v:nameU="visTLShowProps" v:prompt="" v:val="VT0(0):26"/>
		</v:userDefs>
	</v:documentProperties>

	<style type="text/css">
	<![CDATA[
		.st1 {fill:#0078d7;stroke:none;stroke-linecap:butt;stroke-width:0.75}
		.st2 {fill:none;fill-rule:evenodd;font-size:12px;overflow:visible;stroke-linecap:square;stroke-miterlimit:3}
	]]>
	</style>

	<g v:mID="0" v:index="1" v:groupContext="foregroundPage">
		<title>Page-1</title>
		<v:pageProperties v:drawingScale="1" v:pageScale="1" v:drawingUnits="19" v:shadowOffsetX="2.83465"
				v:shadowOffsetY="-2.83465" v:shadowType="1"/>
		<g id="group1360-1" transform="translate(0.75,-0.75)" v:mID="1360" v:groupContext="group">
			<title>Sheet.1360</title>
			<g id="shape1361-2" v:mID="1361" v:groupContext="shape" transform="translate(5.025,-9.3)">
				<title>Sheet.1361</title>
				<path d="M22.88 28.2 L1.73 28.2 C0.83 28.2 0 28.95 0 30.07 L0 38.1 L2.93 38.92 L2.93 31.12 L21.6 31.12 L21.6 38.85
							 L24.53 38.02 L24.53 30.07 C24.53 28.95 23.7 28.2 22.88 28.2 Z" class="st1"/>
			</g>
			<g id="shape1362-4" v:mID="1362" v:groupContext="shape" transform="translate(15.825,-17.325)">
				<title>Sheet.1362</title>
				<rect x="0" y="31.125" width="2.925" height="7.8" class="st1"/>
			</g>
			<g id="shape1363-6" v:mID="1363" v:groupContext="shape" transform="translate(10.8,-25.05)">
				<title>Sheet.1363</title>
				<path d="M11.25 26.55 L1.8 26.55 C0.82 26.55 0 27.37 0 28.35 L0 37.12 C0 38.1 0.82 38.92 1.8 38.92 L11.17 38.92 C12.15
							 38.92 12.97 38.1 12.97 37.12 L12.97 28.35 C13.05 27.37 12.22 26.55 11.25 26.55 Z" class="st1"/>
			</g>
			<g id="shape1364-8" v:mID="1364" v:groupContext="shape">
				<title>Sheet.1364</title>
				<path d="M11.17 26.55 L1.8 26.55 C0.82 26.55 0 27.37 0 28.35 L0 37.12 C0 38.1 0.82 38.92 1.8 38.92 L11.17 38.92 C12.15
							 38.92 12.97 38.1 12.97 37.12 L12.97 28.35 C12.97 27.37 12.15 26.55 11.17 26.55 Z" class="st1"/>
			</g>
			<g id="shape1365-10" v:mID="1365" v:groupContext="shape" transform="translate(21.675,-1.77636E-13)">
				<title>Sheet.1365</title>
				<path d="M11.17 26.55 L1.8 26.55 C0.82 26.55 0 27.37 0 28.35 L0 37.12 C0 38.1 0.82 38.92 1.8 38.92 L11.17 38.92 C12.15
							 38.92 12.97 38.1 12.97 37.12 L12.97 28.35 C13.05 27.37 12.22 26.55 11.17 26.55 Z" class="st1"/>
			</g>
		</g>
	</g>
</svg>
