<?xml version="1.0" encoding="utf-8"?>
<!-- Generator: Adobe Illustrator 18.1.0, SVG Export Plug-In . SVG Version: 6.00 Build 0)  -->
<!DOCTYPE svg PUBLIC "-//W3C//DTD SVG 1.1//EN" "http://www.w3.org/Graphics/SVG/1.1/DTD/svg11.dtd">
<svg version="1.1"
	 id="Layer_1" xmlns:v="http://schemas.microsoft.com/visio/2003/SVGExtensions/" xmlns:ev="http://www.w3.org/2001/xml-events"
	 xmlns="http://www.w3.org/2000/svg" xmlns:xlink="http://www.w3.org/1999/xlink" x="0px" y="0px"
	 viewBox="125.3 187.4 183.3 237.3" enable-background="new 125.3 187.4 183.3 237.3" xml:space="preserve">
<v:documentProperties  v:viewMarkup="false" v:langID="1033">
	<v:userDefs>
		<v:ud  v:nameU="msvNoAutoConnect" v:val="VT0(1):26"></v:ud>
	</v:userDefs>
</v:documentProperties>
<title>Page-1</title>
<v:pageProperties  v:shadowOffsetX="2.83465" v:shadowOffsetY="-2.83465" v:drawingScale="1" v:pageScale="1" v:drawingUnits="19" v:shadowType="1">
	</v:pageProperties>
<title>Virtual machine container</title>
<g id="shape2-2">
	<title>Sheet.2</title>
	<desc>VM</desc>
	<v:textBlock  v:verticalAlign="2" v:margins="rect(0,0,0,0)"></v:textBlock>
	<v:textRect  width="54.33" height="47.908" cx="27.1641" cy="768.046"></v:textRect>
	
		<rect x="195" y="277.5" fill="#0078D7" stroke="#0078D7" stroke-width="3" stroke-linecap="round" stroke-linejoin="round" stroke-miterlimit="3" width="54.3" height="47.9"/>
	
		<text transform="matrix(1 0 0 1 240.507 323.586)" fill="#FFFFFF" enable-background="new    " font-family="'SegoeUI-Semilight'" font-size="5.9999">VM<v:paragraph  v:horizAlign="2"></v:paragraph><v:tabList></v:tabList></text>
</g>
<g id="group3-5" transform="translate(-4.59632E-014,-0.336856)">
	<title>Virtual Machines (feature)</title>
	<g id="shape4-6">
		<title>Sheet.4</title>
		<path fill="#FFFFFF" d="M203.4,317.2h-7.8c-0.3,0-0.5,0.2-0.5,0.5v5.5c0,0.3,0.2,0.5,0.5,0.5h2.7c0.3,1-0.1,1.2-1.8,1.2v0.5h2.2
			h1.6h2.1v-0.5c-1.7,0-1.9-0.1-1.6-1.2h2.8c0.3,0,0.5-0.2,0.5-0.5v-5.5C203.9,317.4,203.6,317.2,203.4,317.2z M203.2,317.9v5.1
			h-7.5v-5.1H203.2L203.2,317.9z"/>
	</g>
	<g id="group5-8" transform="translate(2.82841,-3.27976)">
		<title>Sheet.5</title>
		<g id="group6-9" transform="translate(0.140544,-1.80351)">
			<title>Sheet.6</title>
			<g id="shape7-10">
				<title>Sheet.7</title>
				<path fill="#FFFFFF" d="M197.8,324.6l-1.4-0.8l-1.4,0.8v0l1.4,0.8L197.8,324.6L197.8,324.6z"/>
			</g>
		</g>
		<g id="group8-12" transform="translate(1.65515,0)">
			<title>Sheet.8</title>
			<g id="shape9-13">
				<title>Sheet.9</title>
				<path fill="#FFFFFF" d="M195,323.8v1.6l1.4-0.8V323L195,323.8z"/>
			</g>
		</g>
		<g id="group10-15">
			<title>Sheet.10</title>
			<g id="shape11-16">
				<title>Sheet.11</title>
				<path fill="#FFFFFF" d="M196.4,323.8L195,323v1.6l1.4,0.8V323.8z"/>
			</g>
		</g>
	</g>
</g>
</svg>
