<?xml version="1.0" encoding="utf-8"?>
<!-- Generator: Adobe Illustrator 19.1.0, SVG Export Plug-In . SVG Version: 6.00 Build 0)  -->
<svg version="1.1" id="Layer_1" xmlns="http://www.w3.org/2000/svg" xmlns:xlink="http://www.w3.org/1999/xlink" x="0px" y="0px"
	 viewBox="-280 372 50 50" style="enable-background:new -280 372 50 50;" xml:space="preserve">
<style type="text/css">
	.st0{fill:#0078D7;}
</style>
<path class="st0" d="M-230,397c0-5.6-1.9-11-5.4-15.4l0,0l-0.2-0.2c-0.1-0.1-0.1-0.2-0.2-0.3l-1.6-1.7l0,0
	c-4.7-4.8-10.9-7.4-17.6-7.4c0,0,0,0-0.1,0l0,0h-0.1c-6.6,0.1-12.7,2.6-17.4,7.3l0,0l-1.7,1.8c-0.1,0.1-0.1,0.2-0.2,0.3l-0.2,0.1
	l0,0c-3.4,4.4-5.3,9.9-5.3,15.5s1.9,11,5.4,15.4l0,0l0.2,0.2c0.1,0.1,0.1,0.2,0.2,0.3l1.6,1.7l0,0c4.7,4.7,10.8,7.3,17.4,7.3h0.1
	l0,0c0,0,0,0,0.1,0c6.6,0,12.9-2.6,17.6-7.3l0,0l1.6-1.8c0.1-0.1,0.1-0.2,0.2-0.3l0.2-0.2l0,0C-231.9,408.1-230,402.6-230,397z
	 M-240.1,380.7c-0.1,0-0.2,0.1-0.3,0.1c-0.2,0.1-0.4,0.2-0.5,0.2c-0.4,0.2-0.9,0.3-1.4,0.5c-0.1,0-0.2,0.1-0.3,0.1
	c-0.6,0.2-1.1,0.3-1.7,0.5l0,0c-0.1,0-0.3,0.1-0.4,0.1c-0.9-2.4-2-4.5-3.3-6.1C-245.1,377-242.4,378.6-240.1,380.7z M-255.2,374.9
	L-255.2,374.9c2.8,0,5.6,2.9,7.6,7.9c-2.3,0.4-4.8,0.6-7.4,0.6s-5.2-0.2-7.6-0.6C-260.7,377.9-257.9,375-255.2,374.9z M-262.3,376.2
	c-1.2,1.6-2.3,3.6-3.2,6c-0.1,0-0.1,0-0.2,0l0,0c-0.6-0.2-1.2-0.3-1.7-0.5c-0.1,0-0.2-0.1-0.3-0.1c-0.4-0.2-0.9-0.4-1.3-0.6
	c-0.2-0.1-0.3-0.1-0.5-0.2c-0.1-0.1-0.2-0.1-0.4-0.2C-267.6,378.7-265.1,377.1-262.3,376.2z M-269.9,413.3c0.1,0,0.2-0.1,0.3-0.1
	c0.2-0.1,0.3-0.1,0.5-0.2c0.4-0.2,0.9-0.3,1.4-0.5c0.1,0,0.2-0.1,0.3-0.1c0.6-0.2,1.1-0.3,1.7-0.5l0,0c0.1,0,0.1,0,0.2,0
	c0.9,2.3,2,4.4,3.2,6C-265.1,416.9-267.7,415.3-269.9,413.3z M-255.1,419.1L-255.1,419.1c-2.8-0.1-5.6-2.9-7.5-7.8
	c2.4-0.4,5-0.6,7.6-0.6s5,0.2,7.4,0.6C-249.5,416.2-252.4,419.1-255.1,419.1z M-248,417.9c1.3-1.6,2.4-3.7,3.3-6.1
	c0.1,0,0.3,0.1,0.4,0.1l0,0c0.6,0.2,1.2,0.3,1.7,0.5c0.1,0,0.2,0.1,0.3,0.1c0.5,0.2,0.9,0.3,1.4,0.5c0.2,0.1,0.3,0.1,0.5,0.2
	c0.1,0,0.2,0.1,0.4,0.2C-242.4,415.4-245.1,417-248,417.9z M-237.9,411L-237.9,411c-0.3,0-0.5-0.1-0.8-0.2c-0.3-0.1-0.7-0.3-1-0.4
	c-0.1,0-0.2-0.1-0.3-0.1c-1.2-0.5-2.5-0.8-3.8-1.2c0.3-1.2,0.6-2.4,0.8-3.6h-3c-0.2,1.1-0.4,2.1-0.7,3c-2.6-0.5-5.4-0.7-8.3-0.7
	c-3,0-5.8,0.3-8.5,0.8c-0.3-1-0.5-2-0.7-3.1h-3c0.2,1.3,0.5,2.5,0.8,3.7c-1.2,0.3-2.4,0.7-3.5,1.1c-0.1,0.1-0.3,0.1-0.4,0.2
	c-0.3,0.1-0.7,0.3-1,0.4c-0.2,0-0.5,0.1-0.7,0.2l0,0c-3-3.6-4.7-8.1-5-12.7h2.5v-2.9h-2.5c0.3-4.6,2-9,4.9-12.5l0.1-0.1
	c0.2,0.1,0.5,0.2,0.7,0.3c0.4,0.2,0.7,0.3,1.1,0.5c0.1,0,0.2,0.1,0.3,0.1c1.1,0.4,2.3,0.8,3.6,1.1c-0.3,1.1-0.5,2.2-0.7,3.3h3
	c0.2-0.9,0.4-1.9,0.6-2.7c2.7,0.5,5.6,0.8,8.5,0.8s5.7-0.3,8.3-0.7c0.2,0.8,0.4,1.7,0.6,2.7h3c-0.2-1.1-0.4-2.2-0.7-3.3
	c1.3-0.3,2.5-0.7,3.7-1.2c0.1,0,0.3-0.1,0.4-0.1c0.4-0.1,0.7-0.3,1.1-0.4c0.2-0.1,0.5-0.2,0.7-0.3l0,0c2.9,3.6,4.7,8,5,12.6h-3v2.9
	h3C-233.3,403-235,407.5-237.9,411z"/>
<path class="st0" d="M-261.3,396.8c0,1.2-0.2,2.2-0.5,3c-0.3,0.8-0.8,1.5-1.3,2.1c-0.6,0.5-1.3,0.9-2.1,1.2c-0.8,0.2-1.8,0.4-3,0.4
	h-3.1c-0.2,0-0.4-0.1-0.6-0.2c-0.2-0.1-0.1-0.4-0.1-0.7v-11.3c0-0.3,0.1-0.5,0.2-0.6c0.1-0.1,0.3-0.2,0.6-0.2h3.3
	c1.2,0,2.1,0.1,2.9,0.4c0.8,0.3,1.5,0.7,2,1.2s1,1.2,1.3,2C-261.5,394.9-261.3,395.8-261.3,396.8z M-264,396.9
	c0-0.6-0.1-1.2-0.2-1.7c-0.1-0.5-0.4-1-0.7-1.4c-0.3-0.4-0.7-0.7-1.2-0.9c-0.5-0.2-1.1-0.3-2-0.3h-1.3v8.8h1.4
	c0.7,0,1.3-0.1,1.8-0.3c0.5-0.2,0.9-0.5,1.2-0.8c0.3-0.4,0.6-0.8,0.7-1.4C-264.1,398.3-264,397.6-264,396.9z"/>
<path class="st0" d="M-248.5,402.5c0,0.2,0,0.3-0.1,0.4c-0.1,0.1-0.1,0.2-0.2,0.3c-0.1,0.1-0.2,0.1-0.3,0.2c-0.1,0-0.2,0.1-0.4,0.1
	h-1.1c-0.2,0-0.4,0-0.6-0.1c-0.2,0-0.3-0.1-0.5-0.3c-0.1-0.1-0.3-0.3-0.4-0.5c-0.1-0.2-0.3-0.5-0.4-0.8l-3.2-6
	c-0.2-0.4-0.4-0.7-0.6-1.2c-0.2-0.4-0.4-0.8-0.5-1.2l0,0c0,0.5,0,1,0.1,1.4c0,0.5,0,1,0,1.5v6.8c0,0.1,0,0.1-0.1,0.2
	c0,0.1-0.1,0.1-0.2,0.1s-0.2,0.1-0.4,0.1c-0.2,0-0.3,0-0.6,0c-0.2,0-0.4,0-0.6,0c-0.2,0-0.3,0-0.4-0.1c-0.1,0-0.1-0.1-0.2-0.1
	c0-0.1,0-0.1,0-0.2v-11.6c0-0.3,0.1-0.5,0.3-0.7c0.2-0.2,0.4-0.2,0.7-0.2h1.4c0.3,0,0.5,0,0.6,0.1c0.2,0,0.3,0.1,0.5,0.2
	c0.1,0.1,0.3,0.2,0.4,0.4c0.1,0.2,0.2,0.4,0.4,0.7l2.5,4.7c0.1,0.3,0.3,0.6,0.4,0.8c0.1,0.3,0.3,0.6,0.4,0.8
	c0.1,0.3,0.3,0.5,0.4,0.8c0.1,0.3,0.2,0.5,0.4,0.8l0,0c0-0.5,0-1,0-1.5s0-1,0-1.4v-6.1c0-0.1,0-0.1,0.1-0.2c0-0.1,0.1-0.1,0.2-0.1
	c0.1,0,0.2-0.1,0.4-0.1s0.3,0,0.6,0c0.2,0,0.4,0,0.6,0c0.2,0,0.3,0,0.4,0.1c0.1,0,0.1,0.1,0.2,0.1c0,0.1,0,0.1,0,0.2v11.6H-248.5z"
	/>
<path class="st0" d="M-238,399.6c0,0.7-0.1,1.3-0.4,1.8c-0.3,0.5-0.6,0.9-1,1.3c-0.4,0.3-0.9,0.6-1.5,0.8c-0.6,0.2-1.2,0.3-1.9,0.3
	c-0.4,0-0.9,0-1.2-0.1c-0.3-0.1-0.7-0.2-1-0.3c-0.3-0.1-0.5-0.2-0.7-0.3c-0.2-0.1-0.3-0.2-0.4-0.3c-0.1-0.1-0.1-0.2-0.2-0.4
	c0-0.2-0.1-0.4-0.1-0.7c0-0.2,0-0.4,0-0.5c0-0.1,0-0.3,0.1-0.3c0-0.1,0.1-0.1,0.1-0.2c0,0,0.1-0.1,0.2-0.1c0.1,0,0.2,0.1,0.4,0.2
	c0.2,0.1,0.4,0.2,0.7,0.4c0.3,0.1,0.6,0.3,1,0.4c0.4,0.1,0.8,0.2,1.3,0.2c0.3,0,0.6,0,0.9-0.1c0.3-0.1,0.5-0.2,0.6-0.3
	c0.2-0.1,0.3-0.3,0.4-0.5c0.1-0.2,0.1-0.4,0.1-0.7c0-0.3-0.1-0.5-0.2-0.8c-0.2-0.2-0.4-0.4-0.6-0.6c-0.3-0.2-0.5-0.3-0.9-0.5
	c-0.3-0.1-0.7-0.3-1-0.5c-0.3-0.2-0.7-0.3-1-0.5c-0.3-0.2-0.6-0.4-0.9-0.7c-0.3-0.3-0.5-0.6-0.6-1c-0.2-0.4-0.2-0.8-0.2-1.4
	c0-0.6,0.1-1.2,0.3-1.6c0.2-0.5,0.5-0.9,0.9-1.2c0.4-0.3,0.8-0.5,1.4-0.7c0.5-0.2,1.1-0.2,1.7-0.2c0.3,0,0.6,0,0.9,0.1
	c0.3,0,0.6,0.1,0.9,0.2c0.3,0.1,0.5,0.2,0.7,0.3s0.3,0.2,0.4,0.2c0.1,0.1,0.1,0.1,0.1,0.2c0,0,0,0.1,0.1,0.2c0,0.1,0,0.2,0,0.3
	s0,0.3,0,0.4c0,0.2,0,0.4,0,0.5s0,0.2,0,0.3c0,0.1-0.1,0.1-0.1,0.2c0,0-0.1,0.1-0.2,0.1c-0.1,0-0.2,0-0.3-0.1
	c-0.2-0.1-0.4-0.2-0.6-0.3s-0.5-0.2-0.8-0.3c-0.3-0.1-0.6-0.1-1-0.1c-0.3,0-0.5,0-0.7,0.1c-0.2,0.1-0.4,0.2-0.5,0.3
	c-0.1,0.1-0.2,0.3-0.3,0.4c-0.1,0.2-0.1,0.4-0.1,0.5c0,0.3,0.1,0.5,0.2,0.7c0.2,0.2,0.4,0.4,0.6,0.6c0.3,0.2,0.6,0.3,0.9,0.5
	c0.3,0.1,0.7,0.3,1,0.5c0.3,0.2,0.7,0.3,1,0.5c0.3,0.2,0.6,0.4,0.9,0.7s0.5,0.6,0.6,1C-238.1,398.6-238,399-238,399.6z"/>
</svg>
