<?xml version="1.0" encoding="utf-8"?>
<!-- Generator: Adobe Illustrator 18.1.0, SVG Export Plug-In . SVG Version: 6.00 Build 0)  -->
<!DOCTYPE svg PUBLIC "-//W3C//DTD SVG 1.0//EN" "http://www.w3.org/TR/2001/REC-SVG-20010904/DTD/svg10.dtd">
<svg version="1.0" id="Layer_1" xmlns="http://www.w3.org/2000/svg" xmlns:xlink="http://www.w3.org/1999/xlink" x="0px" y="0px"
	 viewBox="0 0 176.1 136.1" enable-background="new 0 0 176.1 136.1" xml:space="preserve">
<path fill="#3276BC" d="M105.3,47.7H71.5c-1,0-1.8,0.8-1.8,1.8v27.3c0,1,0.8,1.8,1.8,1.8h8.7c0.7,2.2,2.8,3.7,5.3,3.7
	c3,0,5.5-2.5,5.5-5.5s-2.5-5.5-5.5-5.5c-2.5,0-4.6,1.5-5.3,3.7h-6.9V55.5h30.2V75h-5.7c-0.8-6-6.1-10.7-12.3-10.7
	c-2.1,0-4.2,0.6-6,1.5l1.7,3.2c1.2-0.7,2.8-1.1,4.2-1.1c4.8,0,8.9,4,8.9,8.9s-4,8.9-8.9,8.9c-1.5,0-2.9-0.4-4.2-1.1l-1.7,3.2
	c1.8,1,3.9,1.5,6,1.5c6.2,0,11.5-4.7,12.3-10.7h7.5c1,0,1.8-0.8,1.8-1.8V49.5C107.1,48.6,106.3,47.7,105.3,47.7z"/>
</svg>
