<?xml version="1.0" encoding="UTF-8" standalone="no"?>
<!DOCTYPE svg PUBLIC "-//W3C//DTD SVG 1.1//EN" "http://www.w3.org/Graphics/SVG/1.1/DTD/svg11.dtd">
<!-- Generated by Microsoft Visio, SVG Export Data Lake Analytics.svg Page-1 -->
<svg xmlns="http://www.w3.org/2000/svg" xmlns:xlink="http://www.w3.org/1999/xlink" xmlns:ev="http://www.w3.org/2001/xml-events"
		xmlns:v="http://schemas.microsoft.com/visio/2003/SVGExtensions/" width="0.918352in" height="0.918252in"
		viewBox="0 0 66.1213 66.1142" xml:space="preserve" color-interpolation-filters="sRGB" class="st2">
	<v:documentProperties v:langID="1033" v:viewMarkup="false">
		<v:userDefs>
			<v:ud v:nameU="visTLShowProps" v:prompt="" v:val="VT0(0):26"/>
		</v:userDefs>
	</v:documentProperties>

	<style type="text/css">
	<![CDATA[
		.st1 {fill:#0078d7;stroke:none;stroke-linecap:butt;stroke-width:0.75}
		.st2 {fill:none;fill-rule:evenodd;font-size:12px;overflow:visible;stroke-linecap:square;stroke-miterlimit:3}
	]]>
	</style>

	<g v:mID="0" v:index="1" v:groupContext="foregroundPage">
		<title>Page-1</title>
		<v:pageProperties v:drawingScale="1" v:pageScale="1" v:drawingUnits="19" v:shadowOffsetX="2.83465"
				v:shadowOffsetY="-2.83465" v:shadowType="1"/>
		<g id="shape1437-1" v:mID="1437" v:groupContext="shape" transform="translate(0.75,-0.75)">
			<title>Data Lake Analytics (nc)</title>
			<path d="M26.55 2.06 C25.13 1.42 23.45 1.29 21.96 1.87 C20.47 2.39 19.24 3.49 18.6 4.97 L17.76 6.72 L11.1 6.72 C7.87
						 6.72 5.22 9.37 5.22 12.6 L5.22 34.01 L0.57 43.95 C-0.08 45.37 -0.21 47.05 0.37 48.53 C0.89 50.02 1.99 51.25
						 3.47 51.89 L5.22 52.74 L5.22 54.93 C5.22 58.16 7.87 60.81 11.1 60.81 L32.37 60.81 L42.45 65.53 C43.22 65.92
						 44.13 66.11 44.97 66.11 C45.68 66.11 46.33 65.98 47.04 65.73 C48.52 65.21 49.75 64.11 50.4 62.62 L51.27
						 60.81 L53.43 60.81 C56.67 60.81 59.32 58.16 59.32 54.93 L59.32 38.18 L64.03 28.11 C64.75 26.62 64.81 25.01
						 64.23 23.46 C63.71 21.97 62.61 20.74 61.13 20.1 L59.32 19.22 L59.32 12.6 C59.32 9.37 56.67 6.72 53.43 6.72
						 L36.48 6.72 L26.55 2.06 ZM41.61 29.73 L33.4 29.73 L36.82 18.29 C36.89 17.96 36.76 17.64 36.5 17.51 C36.44
						 17.45 36.31 17.45 36.24 17.45 C36.05 17.45 35.85 17.57 35.73 17.7 L22.48 37.03 C22.35 37.22 22.35 37.48
						 22.41 37.68 C22.54 37.87 22.73 38 22.99 38 L30.94 38 L27.39 49.63 C27.32 49.96 27.45 50.28 27.71 50.41 C27.78
						 50.47 27.91 50.47 27.97 50.47 C28.16 50.47 28.36 50.34 28.49 50.21 L42.12 30.7 C42.19 30.57 42.25 30.44
						 42.25 30.31 C42.25 29.98 41.93 29.73 41.61 29.73 ZM11.1 10.59 L53.43 10.59 C54.47 10.59 55.37 11.43 55.37
						 12.53 L55.37 54.87 C55.37 55.9 54.53 56.81 53.43 56.81 L11.1 56.81 C10.07 56.81 9.16 55.97 9.16 54.87 L9.16
						 12.53 C9.16 11.5 10 10.59 11.1 10.59 Z" class="st1"/>
		</g>
	</g>
</svg>
