<?xml version="1.0" encoding="utf-8"?>
<!-- Generator: Adobe Illustrator 18.1.0, SVG Export Plug-In . SVG Version: 6.00 Build 0)  -->
<!DOCTYPE svg PUBLIC "-//W3C//DTD SVG 1.0//EN" "http://www.w3.org/TR/2001/REC-SVG-20010904/DTD/svg10.dtd">
<svg version="1.0" xmlns="http://www.w3.org/2000/svg" xmlns:xlink="http://www.w3.org/1999/xlink" x="0px" y="0px"
	 viewBox="0 0 152 117.5" enable-background="new 0 0 152 117.5" xml:space="preserve">
<g id="Layer_1">
	<g id="Azure">
	</g>
	<g id="BizTalk_Services" transform="translate(37.3575,-2500.2)">
	</g>
</g>
<g id="paths">
	<g id="Access_control">
	</g>
	<g id="Azure_active_directory">
	</g>
	<g id="API_Management">
	</g>
	<g id="Azure_automation">
	</g>
	<g id="Azure_SQL_database">
	</g>
	<g id="Azure_subscription">
	</g>
	<g id="Backup_service">
	</g>
	<g id="Bitbucket_code_source">
	</g>
	<g id="Azure_cache">
	</g>
	<g id="Content_delivery_network__x28_CDN_x29_">
	</g>
	<g id="Cloud_service">
	</g>
	<g id="CodePlex">
	</g>
	<g id="Dropbox_code_source">
	</g>
	<g id="Express_route">
		<path fill="#0078D7" d="M95.8,62.9c-0.9,0-1.7,0.2-2.4,0.5L81.2,51.2c0.3-0.7,0.5-1.5,0.5-2.4c0-3.2-2.6-5.7-5.7-5.7
			s-5.7,2.6-5.7,5.7c0,0.9,0.2,1.7,0.5,2.4L58.7,63.5c-0.7-0.3-1.5-0.5-2.4-0.5c-3.2,0-5.7,2.6-5.7,5.7s2.6,5.7,5.7,5.7
			c2.5,0,4.5-1.6,5.3-3.7h28.8c0.8,2.1,2.9,3.7,5.3,3.7c3.2,0,5.7-2.6,5.7-5.7S98.9,62.9,95.8,62.9z M56.2,70.5
			c-1,0-1.9-0.8-1.9-1.9c0-1,0.8-1.9,1.9-1.9c1,0,1.9,0.8,1.9,1.9C58.1,69.7,57.3,70.5,56.2,70.5z M76,47c1,0,1.9,0.8,1.9,1.9
			c0,1-0.8,1.9-1.9,1.9c-1,0-1.9-0.8-1.9-1.9C74.2,47.8,75,47,76,47z M90.4,66.7H61.6c-0.1-0.2-0.1-0.3-0.2-0.4L73.6,54
			c0.7,0.3,1.5,0.5,2.4,0.5c0.9,0,1.7-0.2,2.4-0.5l12.2,12.2C90.5,66.3,90.4,66.5,90.4,66.7z M95.8,70.4c-1,0-1.9-0.8-1.9-1.9
			c0-1,0.8-1.9,1.9-1.9c1,0,1.9,0.8,1.9,1.9C97.6,69.6,96.8,70.4,95.8,70.4z"/>
	</g>
</g>
</svg>
