<?xml version="1.0" encoding="utf-8"?>
<!-- Generator: Adobe Illustrator 18.1.0, SVG Export Plug-In . SVG Version: 6.00 Build 0)  -->
<!DOCTYPE svg PUBLIC "-//W3C//DTD SVG 1.0//EN" "http://www.w3.org/TR/2001/REC-SVG-20010904/DTD/svg10.dtd">
<svg version="1.0" xmlns="http://www.w3.org/2000/svg" xmlns:xlink="http://www.w3.org/1999/xlink" x="0px" y="0px"
	 viewBox="0 0 152 117.5" enable-background="new 0 0 152 117.5" xml:space="preserve">
<g id="Layer_1">
	<g id="Azure">
	</g>
	<g id="BizTalk_Services" transform="translate(37.3575,-2500.2)">
	</g>
	<g id="Key_Vault">
	</g>
	<g id="Mobile_Engagement">
	</g>
	<g id="Office_subscription">
		<g id="Office_subscription_1_">
		</g>
	</g>
</g>
<g id="paths">
	<g id="Access_control">
	</g>
	<g id="Azure_active_directory">
	</g>
	<g id="API_Management">
	</g>
	<g id="Azure_automation">
	</g>
	<g id="Azure_SQL_database">
	</g>
	<g id="Azure_subscription">
	</g>
	<g id="Backup_service">
	</g>
	<g id="Bitbucket_code_source">
	</g>
	<g id="Azure_cache">
	</g>
	<g id="Content_delivery_network__x28_CDN_x29_">
	</g>
	<g id="Cloud_service">
	</g>
	<g id="CodePlex">
	</g>
	<g id="Dropbox_code_source">
	</g>
	<g id="Express_route">
	</g>
	<g id="Git_repository">
	</g>
	<g id="GitHub_code">
	</g>
	<g id="HD_Insight">
	</g>
	<g id="Health_monitoring">
	</g>
	<g id="Healthy">
	</g>
	<g id="BizTalk_hybrid_connection">
	</g>
	<g id="Hybrid_connection_manager_for_BizTalk_hybrid_connection">
	</g>
	<g id="Hyper-V_recovery_manager">
	</g>
	<g id="Machine_learning">
	</g>
	<g id="Media_services">
	</g>
	<g id="Microsoft_account">
	</g>
	<g id="Mobile_services">
	</g>
	<g id="Multi-factor_authentication">
	</g>
	<g id="MySQL_database">
	</g>
	<g id="Notification_hub">
	</g>
	<g id="Notification_topic">
	</g>
	<g id="Cloud_Office_365">
	</g>
	<g id="Office_365">
	</g>
	<g id="OS_image">
	</g>
	<g id="Remote_app">
	</g>
	<g id="Task_scheduler">
	</g>
	<g id="Azure_SDK">
	</g>
	<g id="Service_bus">
	</g>
	<g id="Service_bus_queue">
	</g>
	<g id="Service_bus_relay">
	</g>
	<g id="Service_bus_topic">
	</g>
	<g id="Service_endpoint">
	</g>
	<g id="Custom_create">
	</g>
	<g id="SQL_data_sync">
	</g>
	<g id="SQL_reporting">
	</g>
	<g id="Startup_task">
	</g>
	<g id="Windows_Azure_storage">
	</g>
	<g id="Storage_blob">
	</g>
	<g id="Storage_table">
	</g>
	<g id="Storage_queue">
	</g>
	<g id="StorSimple">
	</g>
	<g id="Traffic_manager">
	</g>
	<g id="VHD">
	</g>
	<g id="VHD_data_disk">
	</g>
	<g id="Virtual_machine">
	</g>
	<g id="Team_foundation">
	</g>
	<g id="Azure_web_site">
	</g>
	<g id="Web_role">
	</g>
	<g id="Web_roles">
	</g>
	<g id="Worker_role">
		<g id="group373-780_1_" transform="translate(1233.38,-2921.64)">
			<g id="shape374-781_1_" transform="translate(13.3087,-9.843)">
				<title>Sheet.374</title>
				<path fill="#0078D7" d="M-1172.9,2986c-2.3,1.2-3.3,4.1-2.1,6.4c1.2,2.3,4.1,3.2,6.4,2.1c2.3-1.2,3.3-4.1,2.1-6.4
					C-1167.7,2985.7-1170.6,2984.8-1172.9,2986z M-1169.9,2991.8c-0.9,0.4-1.9,0.1-2.3-0.8c-0.4-0.9-0.1-1.9,0.7-2.3
					c0.9-0.4,1.9-0.1,2.4,0.8C-1168.7,2990.3-1169.1,2991.3-1169.9,2991.8z"/>
			</g>
			<g id="shape375-783_1_">
				<title>Sheet.375</title>
				<path fill="#0078D7" d="M-1139.6,2964.6h-35.6c-0.9,0-1.7,0.9-1.7,2v27.6c0,1.1,0.8,2,1.7,2h35.6c0.9,0,1.7-0.9,1.7-2v-27.6
					C-1137.9,2965.5-1138.7,2964.6-1139.6,2964.6z M-1147.8,2984l-1.8,2.9l-2.5-1c-0.4,0.4-0.9,0.8-1.4,1.1l0.3,2.8l-3.3,0.8l-1-2.5
					c-0.6,0-1.2-0.1-1.8-0.2l-1.7,2.2l-2.9-1.8l1-2.4c-0.4-0.4-0.8-0.9-1.1-1.5l-2.7,0.3l-0.8-3.3l2.4-1c0-0.6,0.1-1.2,0.3-1.8
					l-2.2-1.7l1.8-2.9l2.5,1c0.4-0.4,0.8-0.7,1.2-1l-0.4-2.8l3.3-0.9l1.1,2.5c0.7,0,1.3,0.1,1.9,0.3l1.8-2.2l2.9,1.8l-1.1,2.6
					c0.4,0.4,0.7,0.9,1,1.4l2.9-0.3l0.8,3.3l-2.6,1.1c0,0.6-0.1,1.1-0.2,1.7L-1147.8,2984z"/>
			</g>
		</g>
	</g>
</g>
<g id="Layer_57">
</g>
<g id="Ibiza_Symbols">
	<g id="SQL_Database_Premium">
	</g>
</g>
</svg>
