<?xml version="1.0" encoding="utf-8"?>
<!-- Generator: Adobe Illustrator 18.1.0, SVG Export Plug-In . SVG Version: 6.00 Build 0)  -->
<!DOCTYPE svg PUBLIC "-//W3C//DTD SVG 1.0//EN" "http://www.w3.org/TR/2001/REC-SVG-20010904/DTD/svg10.dtd">
<svg version="1.0" xmlns="http://www.w3.org/2000/svg" xmlns:xlink="http://www.w3.org/1999/xlink" x="0px" y="0px"
	 viewBox="0 0 152 117.5" enable-background="new 0 0 152 117.5" xml:space="preserve">
<g id="Layer_1">
	<g>
		<rect x="70.7" y="73.6" fill="#0078D7" width="11" height="3.5"/>
		<polygon fill="#0078D7" points="74.1,84.6 78.2,84.6 81.6,80.9 70.7,80.9 		"/>
		<path fill="#0078D7" d="M71.2,50.6c-0.9,0-1.8,0.8-1.8,1.8c0,0.9,0.8,1.8,1.8,1.8H73v-1.8C72.8,51.4,72.1,50.6,71.2,50.6z"/>
		<path fill="#0078D7" d="M80.6,50.6c-0.9,0-1.8,0.8-1.8,1.8v1.8h1.8c0.9,0,1.8-0.8,1.8-1.8C82.4,51.5,81.7,50.6,80.6,50.6z"/>
		<path fill="#0078D7" d="M92.9,48v-0.3c0-8-6.8-14.5-15.2-14.7c-0.2-0.3-5,0.1-5,0.1c-7.6,0.9-13.5,7.2-13.5,14.5
			c0,0.2-0.8,6,5.1,10.9c2.7,2.4,5.5,8.8,5.9,10.6l0.3,0.6h11l0.3-0.6c0.4-1.9,3.3-8.3,5.9-10.6C93.6,53.7,92.9,48.2,92.9,48z
			 M80.7,56.2h-1.8v13.1h-2V56.2H75v13h-2v-13h-1.8c-2,0-3.8-1.8-3.8-3.8c0-2,1.7-3.8,3.8-3.8c2.1,0,3.8,1.8,3.8,3.8v1.8h1.8v-1.8
			c0-2,1.8-3.8,3.8-3.8s3.8,1.8,3.8,3.8C84.5,54.5,82.7,56.2,80.7,56.2z"/>
	</g>
</g>
<g id="paths">
	<g id="Access_control">
	</g>
	<g id="Azure_active_directory">
	</g>
</g>
</svg>
