<?xml version="1.0" encoding="UTF-8" standalone="no"?>
<!DOCTYPE svg PUBLIC "-//W3C//DTD SVG 1.1//EN" "http://www.w3.org/Graphics/SVG/1.1/DTD/svg11.dtd">
<!-- Generated by Microsoft Visio, SVG Export App Service WorkerPools.svg Page-1 -->
<svg xmlns="http://www.w3.org/2000/svg" xmlns:xlink="http://www.w3.org/1999/xlink" xmlns:ev="http://www.w3.org/2001/xml-events"
		xmlns:v="http://schemas.microsoft.com/visio/2003/SVGExtensions/" width="0.542708in" height="0.541667in"
		viewBox="0 0 39.075 39" xml:space="preserve" color-interpolation-filters="sRGB" class="st2">
	<v:documentProperties v:langID="1033" v:viewMarkup="false">
		<v:userDefs>
			<v:ud v:nameU="visTLShowProps" v:prompt="" v:val="VT0(0):26"/>
		</v:userDefs>
	</v:documentProperties>

	<style type="text/css">
	<![CDATA[
		.st1 {fill:#0078d7;stroke:none;stroke-linecap:butt;stroke-width:0.75}
		.st2 {fill:none;fill-rule:evenodd;font-size:12px;overflow:visible;stroke-linecap:square;stroke-miterlimit:3}
	]]>
	</style>

	<g v:mID="0" v:index="1" v:groupContext="foregroundPage">
		<title>Page-1</title>
		<v:pageProperties v:drawingScale="1" v:pageScale="1" v:drawingUnits="19" v:shadowOffsetX="2.83465"
				v:shadowOffsetY="-2.83465" v:shadowType="1"/>
		<g id="shape1091-1" v:mID="1091" v:groupContext="shape" transform="translate(0.75,-0.75)">
			<title>App Service WorkerPools.2694</title>
			<path d="M30.9 20.25 A1.5 1.5 -180 1 0 27.9 20.25 A1.5 1.5 -180 1 0 30.9 20.25 ZM20.25 10.5 A1.5 1.5 -180 1 0 17.25 10.5
						 A1.5 1.5 -180 1 0 20.25 10.5 ZM20.25 30.6 A1.5 1.5 -180 1 0 17.25 30.6 A1.5 1.5 -180 1 0 20.25 30.6 ZM9.98
						 20.25 A1.5 1.5 -180 1 0 6.97 20.25 A1.5 1.5 -180 1 0 9.98 20.25 ZM18.75 39 C19.65 39 20.55 38.63 21.23 37.95
						 L36.53 22.8 C37.2 22.13 37.58 21.3 37.58 20.32 C37.58 19.35 37.2 18.53 36.53 17.85 L21.23 2.55 C20.55 1.88
						 19.65 1.5 18.75 1.5 C17.85 1.5 16.95 1.88 16.28 2.55 L1.05 17.78 C0.38 18.45 0 19.35 0 20.25 C0 21.15 0.38
						 22.05 1.05 22.73 L16.28 37.95 C16.95 38.63 17.85 39 18.75 39 ZM22.95 31.05 L21.83 31.5 L21.53 32.18 L22.05
						 33.07 L22.05 33.23 L21.37 33.9 L20.32 33.38 L19.65 33.68 L19.28 34.65 L19.28 34.8 L18.3 34.8 L17.85 33.68
						 L17.18 33.38 L16.28 33.9 L16.13 33.97 L15.45 33.23 L15.98 32.18 L15.68 31.5 L14.7 31.13 L14.55 31.13 L14.55
						 30.15 L15.68 29.7 L15.98 29.1 L15.45 28.12 L15.45 27.98 L16.13 27.3 L17.18 27.83 L17.85 27.53 L18.23 26.55
						 L18.23 26.4 L19.2 26.4 L19.65 27.53 L20.32 27.83 L21.23 27.3 L21.37 27.3 L22.05 27.98 L21.53 29.03 L21.83
						 29.7 L22.8 30.08 L22.95 30.08 L22.95 31.05 ZM33.67 20.7 L32.47 21.15 L32.17 21.83 L32.7 22.73 L32.77 22.88
						 L32.1 23.55 L30.97 23.03 L30.3 23.33 L30 24.3 L29.92 24.45 L28.95 24.45 L28.57 23.33 L27.9 23.03 L26.92
						 23.55 L26.77 23.55 L26.1 22.88 L26.62 21.83 L26.4 21.15 L25.35 20.78 L25.2 20.78 L25.2 19.8 L26.4 19.35
						 L26.62 18.68 L26.1 17.63 L26.77 16.95 L27.9 17.48 L28.57 17.18 L28.87 16.2 L28.95 16.05 L29.85 16.05 L30.3
						 17.18 L30.97 17.48 L31.95 16.95 L32.02 16.95 L32.7 17.63 L32.17 18.68 L32.47 19.35 L33.52 19.73 L33.67 19.73
						 L33.67 20.7 ZM22.95 10.95 L21.83 11.4 L21.53 12.08 L22.05 13.05 L22.05 13.13 L21.37 13.8 L20.32 13.28 L19.65
						 13.57 L19.28 14.62 L19.28 14.7 L18.3 14.7 L17.85 13.57 L17.18 13.28 L16.28 13.8 L16.13 13.87 L15.45 13.2
						 L15.98 12.08 L15.68 11.4 L14.7 11.1 L14.55 11.03 L14.55 10.05 L15.68 9.68 L15.98 9 L15.45 8.02 L15.45 7.87
						 L16.13 7.2 L17.18 7.73 L17.85 7.5 L18.23 6.45 L18.23 6.3 L19.2 6.3 L19.65 7.43 L20.32 7.73 L21.37 7.2 L22.05
						 7.87 L21.53 9 L21.83 9.68 L22.8 9.98 L22.95 10.05 L22.95 10.95 ZM12.67 20.7 L11.47 21.15 L11.25 21.83 L11.77
						 22.88 L11.1 23.55 L9.97 23.03 L9.3 23.33 L9 24.3 L8.92 24.45 L7.95 24.45 L7.57 23.33 L6.9 23.03 L5.92 23.55
						 L5.77 23.55 L5.1 22.88 L5.62 21.83 L5.4 21.15 L4.35 20.78 L4.2 20.78 L4.2 19.8 L5.4 19.35 L5.62 18.68 L5.1
						 17.63 L5.77 16.95 L6.9 17.48 L7.57 17.18 L7.87 16.2 L7.95 16.05 L8.92 16.05 L9.3 17.18 L9.97 17.48 L10.95
						 16.95 L11.1 16.95 L11.77 17.63 L11.25 18.68 L11.47 19.35 L12.52 19.73 L12.67 19.73 L12.67 20.7 Z"
					class="st1"/>
		</g>
	</g>
</svg>
