<?xml version="1.0" encoding="UTF-8" standalone="no"?>
<!DOCTYPE svg PUBLIC "-//W3C//DTD SVG 1.1//EN" "http://www.w3.org/Graphics/SVG/1.1/DTD/svg11.dtd">
<!-- Generated by Microsoft Visio, SVG Export Availability Set NEW mono.svg Page-1 -->
<svg xmlns="http://www.w3.org/2000/svg" xmlns:xlink="http://www.w3.org/1999/xlink" xmlns:ev="http://www.w3.org/2001/xml-events"
		xmlns:v="http://schemas.microsoft.com/visio/2003/SVGExtensions/" width="0.541667in" height="0.541667in" viewBox="0 0 39 39"
		xml:space="preserve" color-interpolation-filters="sRGB" class="st2">
	<v:documentProperties v:langID="1033" v:viewMarkup="false">
		<v:userDefs>
			<v:ud v:nameU="visTLShowProps" v:prompt="" v:val="VT0(0):26"/>
		</v:userDefs>
	</v:documentProperties>

	<style type="text/css">
	<![CDATA[
		.st1 {fill:#0078d7;stroke:none;stroke-linecap:butt;stroke-width:0.75}
		.st2 {fill:none;fill-rule:evenodd;font-size:12px;overflow:visible;stroke-linecap:square;stroke-miterlimit:3}
	]]>
	</style>

	<g v:mID="0" v:index="1" v:groupContext="foregroundPage">
		<title>Page-1</title>
		<v:pageProperties v:drawingScale="1" v:pageScale="1" v:drawingUnits="19" v:shadowOffsetX="2.83465"
				v:shadowOffsetY="-2.83465" v:shadowType="1"/>
		<g id="shape1036-1" v:mID="1036" v:groupContext="shape" transform="translate(0.749908,-0.75)">
			<title>Sheet.1036</title>
			<path d="M27.63 31.07 C23.49 31.07 23.08 30.72 23.78 28.23 L30.48 28.23 C31.12 28.23 31.78 27.66 31.78 27.01 L31.78 13.71
						 C31.78 13.06 31.12 12.48 30.48 12.48 L27.93 12.48 L27.93 9.47 C27.93 8.83 27.27 8.25 26.63 8.25 L7.55 8.25
						 C6.89 8.25 6.38 8.83 6.38 9.47 L6.38 22.78 C6.38 23.42 6.89 24 7.55 24 L10.22 24 L10.22 27.01 C10.22 27.66
						 10.74 28.23 11.39 28.23 L17.93 28.23 C18.63 30.72 17.68 31.07 13.54 31.07 L13.54 32.37 L27.63 32.37 L27.63
						 31.07 ZM18.01 12.48 L16.94 11.87 L15.87 12.48 L11.39 12.48 C10.74 12.48 10.22 13.06 10.22 13.71 L10.22 22.34
						 L8.03 22.34 L8.03 9.91 L26.33 9.88 L26.27 9.91 L26.27 12.48 L18.01 12.48 ZM20.45 20.58 L17.1 18.65 L17.1
						 22.46 L20.45 24.39 L20.45 20.58 ZM21.13 20.58 L21.13 24.39 L24.48 22.46 L24.48 18.65 L21.13 20.58 ZM24.13
						 18.03 L20.79 16.1 L17.45 18.03 L17.45 18.08 L20.79 20.01 L24.13 18.08 L24.13 18.03 ZM30.12 14.14 L30.12
						 26.57 L11.88 26.57 L11.88 14.14 L30.17 14.11 L30.12 14.14 ZM3.75 5.25 L6.25 5.25 L6.25 1.5 L2.5 1.5 C1.12
						 1.5 0 2.62 0 4 L0 7.75 L3.75 7.75 L3.75 5.25 ZM8.75 5.25 L13.75 5.25 L13.75 1.5 L8.75 1.5 L8.75 5.25 ZM16.25
						 5.25 L21.25 5.25 L21.25 1.5 L16.25 1.5 L16.25 5.25 ZM23.75 5.25 L28.75 5.25 L28.75 1.5 L23.75 1.5 L23.75
						 5.25 ZM33.75 5.25 L33.75 7.75 L37.5 7.75 L37.5 4 C37.5 2.62 36.38 1.5 35 1.5 L31.25 1.5 L31.25 5.25 L33.75
						 5.25 ZM0 30.25 L3.75 30.25 L3.75 25.25 L0 25.25 L0 30.25 ZM0 22.75 L3.75 22.75 L3.75 17.75 L0 17.75 L0 22.75
						 ZM0 15.25 L3.75 15.25 L3.75 10.25 L0 10.25 L0 15.25 ZM8.75 39 L13.75 39 L13.75 35.25 L8.75 35.25 L8.75 39
						 ZM16.25 39 L21.25 39 L21.25 35.25 L16.25 35.25 L16.25 39 ZM23.75 39 L28.75 39 L28.75 35.25 L23.75 35.25
						 L23.75 39 ZM33.75 30.25 L37.5 30.25 L37.5 25.25 L33.75 25.25 L33.75 30.25 ZM33.75 22.75 L37.5 22.75 L37.5
						 17.75 L33.75 17.75 L33.75 22.75 ZM33.75 15.25 L37.5 15.25 L37.5 10.25 L33.75 10.25 L33.75 15.25 ZM33.75
						 35.25 L31.25 35.25 L31.25 39 L35 39 C36.38 39 37.5 37.88 37.5 36.5 L37.5 32.75 L33.75 32.75 L33.75 35.25
						 ZM3.75 35.25 L3.75 32.75 L0 32.75 L0 36.5 C0 37.88 1.12 39 2.5 39 L6.25 39 L6.25 35.25 L3.75 35.25 Z"
					class="st1"/>
		</g>
	</g>
</svg>
