<?xml version="1.0" encoding="utf-8"?>
<!-- Generator: Adobe Illustrator 18.1.0, SVG Export Plug-In . SVG Version: 6.00 Build 0)  -->
<!DOCTYPE svg PUBLIC "-//W3C//DTD SVG 1.0//EN" "http://www.w3.org/TR/2001/REC-SVG-20010904/DTD/svg10.dtd">
<svg version="1.0" xmlns="http://www.w3.org/2000/svg" xmlns:xlink="http://www.w3.org/1999/xlink" x="0px" y="0px"
	 viewBox="0 0 152 117.5" enable-background="new 0 0 152 117.5" xml:space="preserve">
<g id="Layer_1">
	<g id="Azure">
	</g>
	<g id="BizTalk_Services" transform="translate(37.3575,-2500.2)">
	</g>
	<g id="Key_Vault">
	</g>
	<g id="Mobile_Engagement">
	</g>
	<g id="Office_subscription">
		<g id="Office_subscription_1_">
		</g>
	</g>
	<g>
		<path fill-rule="evenodd" clip-rule="evenodd" fill="#0078D7" d="M91.9,57c0.3-0.9,0.4-1.8,0.4-2.7c0-5.9-4.7-10.7-10.4-10.7
			c-4.3,0-8,2.7-9.6,6.6c-1.3-1.7-3.3-2.6-5.6-2.6c-4,0-7.3,3.4-7.3,7.6c0,0.7,0.1,1.4,0.3,2.1c-3.3,1.2-5.6,4.1-5.6,7.9
			c0,4.9,3.9,8.5,8.7,8.5h26.7c4.8,0,8.6-3.6,8.6-8.5C98,61.2,95.5,58.2,91.9,57L91.9,57z M86.1,60.7c-0.8,3.1-3.5,5.3-6.7,5.3
			c-0.5,0-1.1-0.1-1.7-0.2c-0.5-0.2-1.1-0.4-1.7-0.6l-4.8,4.8c-0.4,0.4-0.9,0.6-1.4,0.6c-0.5,0-1.1-0.2-1.4-0.6
			c-0.4-0.4-0.6-0.9-0.6-1.4s0.2-1.1,0.6-1.4l4.8-4.8c-0.8-1.5-1.1-3.3-0.6-4.9c0.8-3.1,3.5-5.3,6.7-5.3c0.5,0,1.1,0.1,1.7,0.2
			c1.8,0.4,3.3,1.6,4.2,3.2C86.3,57.1,86.6,59,86.1,60.7L86.1,60.7z"/>
		<path fill-rule="evenodd" clip-rule="evenodd" fill="#0078D7" d="M80.5,54.9c-0.4-0.1-0.7-0.1-1.1-0.1c-1.9,0-3.7,1.3-4.1,3.3
			c-0.3,1.1-0.1,2.5,0.6,3.4c0.3,0.4,0.7,0.8,1.1,1.1c0.4,0.3,0.9,0.5,1.4,0.6c0.4,0.1,0.7,0.1,1.1,0.1c1.9,0,3.7-1.3,4.1-3.3
			c0.3-1.1,0.1-2.3-0.5-3.3C82.5,55.9,81.5,55.2,80.5,54.9L80.5,54.9z"/>
	</g>
</g>
<g id="paths">
	<g id="Access_control">
	</g>
	<g id="Azure_active_directory">
	</g>
	<g id="API_Management">
	</g>
	<g id="Azure_automation">
	</g>
	<g id="Azure_SQL_database">
	</g>
	<g id="Azure_subscription">
	</g>
	<g id="Backup_service">
	</g>
	<g id="Bitbucket_code_source">
	</g>
	<g id="Azure_cache">
	</g>
	<g id="Content_delivery_network__x28_CDN_x29_">
	</g>
	<g id="Cloud_service">
	</g>
	<g id="CodePlex">
	</g>
	<g id="Dropbox_code_source">
	</g>
	<g id="Express_route">
	</g>
	<g id="Git_repository">
	</g>
	<g id="GitHub_code">
	</g>
	<g id="HD_Insight">
	</g>
	<g id="Health_monitoring">
	</g>
	<g id="Healthy">
	</g>
	<g id="BizTalk_hybrid_connection">
	</g>
	<g id="Hybrid_connection_manager_for_BizTalk_hybrid_connection">
	</g>
	<g id="Hyper-V_recovery_manager">
	</g>
	<g id="Machine_learning">
	</g>
	<g id="Media_services">
	</g>
	<g id="Microsoft_account">
	</g>
	<g id="Mobile_services">
	</g>
	<g id="Multi-factor_authentication">
	</g>
	<g id="MySQL_database">
	</g>
	<g id="Notification_hub">
	</g>
	<g id="Notification_topic">
	</g>
	<g id="Cloud_Office_365">
	</g>
	<g id="Office_365">
	</g>
	<g id="OS_image">
	</g>
	<g id="Remote_app">
	</g>
	<g id="Task_scheduler">
	</g>
	<g id="Azure_SDK">
	</g>
</g>
<g id="Layer_57">
</g>
</svg>
