<?xml version="1.0" encoding="utf-8"?>
<!-- Generator: Adobe Illustrator 18.1.0, SVG Export Plug-In . SVG Version: 6.00 Build 0)  -->
<!DOCTYPE svg PUBLIC "-//W3C//DTD SVG 1.0//EN" "http://www.w3.org/TR/2001/REC-SVG-20010904/DTD/svg10.dtd">
<svg version="1.0" xmlns="http://www.w3.org/2000/svg" xmlns:xlink="http://www.w3.org/1999/xlink" x="0px" y="0px"
	 viewBox="0 0 152 117.5" enable-background="new 0 0 152 117.5" xml:space="preserve">
<g id="Layer_1">
	<g id="Azure">
	</g>
	<g id="BizTalk_Services" transform="translate(37.3575,-2500.2)">
	</g>
	<g id="Key_Vault">
	</g>
	<g id="Mobile_Engagement">
	</g>
	<g id="Office_subscription">
		<g id="Office_subscription_1_">
		</g>
	</g>
</g>
<g id="paths">
	<g id="Access_control">
	</g>
	<g id="Azure_active_directory">
	</g>
	<g id="API_Management">
	</g>
	<g id="Azure_automation">
	</g>
	<g id="Azure_SQL_database">
	</g>
	<g id="Azure_subscription">
	</g>
	<g id="Backup_service">
	</g>
	<g id="Bitbucket_code_source">
	</g>
	<g id="Azure_cache">
	</g>
	<g id="Content_delivery_network__x28_CDN_x29_">
	</g>
	<g id="Cloud_service">
	</g>
	<g id="CodePlex">
	</g>
	<g id="Dropbox_code_source">
	</g>
	<g id="Express_route">
	</g>
	<g id="Git_repository">
	</g>
	<g id="GitHub_code">
	</g>
	<g id="HD_Insight">
	</g>
	<g id="Health_monitoring">
	</g>
	<g id="Healthy">
	</g>
	<g id="BizTalk_hybrid_connection">
	</g>
	<g id="Hybrid_connection_manager_for_BizTalk_hybrid_connection">
	</g>
	<g id="Hyper-V_recovery_manager">
	</g>
	<g id="Machine_learning">
	</g>
	<g id="Media_services">
	</g>
	<g id="Microsoft_account">
	</g>
	<g id="Mobile_services">
	</g>
	<g id="Multi-factor_authentication">
	</g>
	<g id="MySQL_database">
	</g>
	<g id="Notification_hub">
	</g>
	<g id="Notification_topic">
	</g>
	<g id="Cloud_Office_365">
	</g>
	<g id="Office_365">
	</g>
	<g id="OS_image">
	</g>
	<g id="Remote_app">
	</g>
	<g id="Task_scheduler">
	</g>
	<g id="Azure_SDK">
	</g>
	<g id="Service_bus">
	</g>
	<g id="Service_bus_queue">
	</g>
	<g id="Service_bus_relay">
	</g>
	<g id="Service_bus_topic">
	</g>
	<g id="Service_endpoint">
	</g>
	<g id="Custom_create">
	</g>
	<g id="SQL_data_sync">
	</g>
	<g id="SQL_reporting">
	</g>
	<g id="Startup_task">
	</g>
	<g id="Windows_Azure_storage">
	</g>
	<g id="Storage_blob">
	</g>
	<g id="Storage_table">
	</g>
	<g id="Storage_queue">
		<g>
			<polygon fill="#0078D7" points="86.5,56.5 78.3,56.5 82.4,59.7 			"/>
			<path fill="#0078D7" d="M69.9,60.8c-0.1,0-0.2,0-0.3-0.1l-3.8-3v4.9h8.7v-5l-4.1,3.1C70.2,60.8,70,60.8,69.9,60.8z"/>
			<path fill="#0078D7" d="M82.4,60.8c-0.1,0-0.3,0-0.3-0.1l-3.9-3v4.9h8.7v-5l-4.1,3.1C82.6,60.8,82.5,60.8,82.4,60.8z"/>
			<path fill="#0078D7" d="M85.5,42.3H66.5l-9.5,16.4l9.5,16.4h18.9l9.5-16.4L85.5,42.3z M88.8,65.7H62.9c-0.8,0-1.4-0.7-1.4-1.5
				v-9.9c0-0.8,0.6-1.5,1.4-1.5h25.9c0.3,0,0.8,0,4.2,6.4l0.1,0.3L93,59.8C89.6,65.7,89.1,65.7,88.8,65.7z"/>
			<polygon fill="#0078D7" points="74,56.5 65.7,56.5 69.8,59.7 			"/>
			<path fill="#0078D7" d="M62.9,53.9c-0.2,0-0.4,0.2-0.4,0.4v9.9c0,0.2,0.2,0.5,0.4,0.5h25.7c0.5-0.5,2-2.9,3.3-5.2
				c-1.3-2.5-2.9-5.1-3.3-5.6H62.9z M75.5,63.1c0,0.3-0.3,0.6-0.7,0.6H65c-0.3,0-0.4-0.3-0.4-0.6v-7.3c0-0.3,0.1-0.4,0.4-0.4h9.8
				c0.3,0,0.7,0.1,0.7,0.4V63.1z M87.8,63.1c0,0.3-0.2,0.6-0.5,0.6h-9.7c-0.3,0-0.5-0.3-0.5-0.6v-7.3c0-0.3,0.2-0.4,0.5-0.4h9.7
				c0.3,0,0.5,0.1,0.5,0.4V63.1z"/>
		</g>
	</g>
</g>
<g id="Layer_57">
</g>
<g id="Ibiza_Symbols">
	<g id="SQL_Database_Premium">
	</g>
</g>
</svg>
