<?xml version="1.0" encoding="utf-8"?>
<!-- Generator: Adobe Illustrator 18.1.0, SVG Export Plug-In . SVG Version: 6.00 Build 0)  -->
<!DOCTYPE svg PUBLIC "-//W3C//DTD SVG 1.0//EN" "http://www.w3.org/TR/2001/REC-SVG-20010904/DTD/svg10.dtd">
<svg version="1.0" xmlns="http://www.w3.org/2000/svg" xmlns:xlink="http://www.w3.org/1999/xlink" x="0px" y="0px"
	 viewBox="0 0 152 117.5" enable-background="new 0 0 152 117.5" xml:space="preserve">
<g id="Layer_1">
	<g id="Azure">
	</g>
	<g id="BizTalk_Services" transform="translate(37.3575,-2500.2)">
	</g>
	<g id="Key_Vault">
	</g>
	<g id="Mobile_Engagement">
	</g>
	<g id="Office_subscription">
		<g id="Office_subscription_1_">
		</g>
	</g>
</g>
<g id="paths">
	<g id="Access_control">
	</g>
	<g id="Azure_active_directory">
	</g>
	<g id="API_Management">
	</g>
	<g id="Azure_automation">
	</g>
	<g id="Azure_SQL_database">
	</g>
	<g id="Azure_subscription">
	</g>
	<g id="Backup_service">
	</g>
	<g id="Bitbucket_code_source">
	</g>
	<g id="Azure_cache">
	</g>
	<g id="Content_delivery_network__x28_CDN_x29_">
	</g>
	<g id="Cloud_service">
	</g>
	<g id="CodePlex">
	</g>
	<g id="Dropbox_code_source">
	</g>
	<g id="Express_route">
	</g>
	<g id="Git_repository">
	</g>
	<g id="GitHub_code">
	</g>
	<g id="HD_Insight">
	</g>
	<g id="Health_monitoring">
	</g>
	<g id="Healthy">
	</g>
	<g id="BizTalk_hybrid_connection">
	</g>
	<g id="Hybrid_connection_manager_for_BizTalk_hybrid_connection">
	</g>
	<g id="Hyper-V_recovery_manager">
	</g>
	<g id="Machine_learning">
	</g>
	<g id="Media_services">
	</g>
	<g id="Microsoft_account">
	</g>
	<g id="Mobile_services">
	</g>
	<g id="Multi-factor_authentication">
	</g>
	<g id="MySQL_database">
	</g>
	<g id="Notification_hub">
	</g>
	<g id="Notification_topic">
	</g>
	<g id="Cloud_Office_365">
	</g>
	<g id="Office_365">
	</g>
	<g id="OS_image">
	</g>
	<g id="Remote_app">
	</g>
	<g id="Task_scheduler">
	</g>
	<g id="Azure_SDK">
	</g>
	<g id="Service_bus">
	</g>
	<g id="Service_bus_queue">
	</g>
	<g id="Service_bus_relay">
	</g>
	<g id="Service_bus_topic">
	</g>
	<g id="Service_endpoint">
	</g>
	<g id="Custom_create">
	</g>
	<g id="SQL_data_sync">
	</g>
	<g id="SQL_reporting">
	</g>
	<g id="Startup_task">
	</g>
	<g id="Windows_Azure_storage">
	</g>
	<g id="Storage_blob">
	</g>
	<g id="Storage_table">
	</g>
	<g id="Storage_queue">
	</g>
	<g id="StorSimple">
	</g>
	<g id="Traffic_manager">
	</g>
	<g id="VHD">
	</g>
	<g id="VHD_data_disk">
	</g>
	<g id="Virtual_machine">
	</g>
	<g id="Team_foundation">
	</g>
	<g id="Azure_web_site">
	</g>
	<g id="Web_role">
	</g>
	<g id="Web_roles">
		<g>
			<path fill="#0078D7" d="M79.6,55.4c-0.1-1.7-0.4-3.3-1.1-4.7c-1.4,0.6-3,0.9-4.6,1v3.7H79.6z"/>
			<path fill="#0078D7" d="M78.1,49.9c-1-1.8-2.5-3-4.2-3.2v4.1C75.5,50.8,76.9,50.5,78.1,49.9z"/>
			<path fill="#0078D7" d="M79.9,48.9c-0.7-0.7-1.5-1.2-2.3-1.6c0.6,0.6,1.1,1.3,1.6,2.1C79.5,49.2,79.7,49.1,79.9,48.9z"/>
			<path fill="#0078D7" d="M78.1,62c-1.2-0.5-2.7-0.8-4.2-0.9v4.1C75.6,65,77.1,63.8,78.1,62z"/>
			<path fill="#0078D7" d="M73.9,60.1c1.7,0.1,3.3,0.4,4.6,1c0.6-1.3,1-2.9,1.1-4.6h-5.7V60.1z"/>
			<path fill="#0078D7" d="M80.6,49.6c-0.3,0.2-0.6,0.4-0.9,0.6c0.7,1.5,1.1,3.3,1.2,5.2H83C82.9,53.3,82.1,51.2,80.6,49.6z"/>
			<path fill="#0078D7" d="M77.6,64.6c0.8-0.4,1.6-0.9,2.3-1.6c-0.2-0.2-0.5-0.3-0.7-0.5C78.8,63.3,78.2,64,77.6,64.6z"/>
			<path fill="#0078D7" d="M79.6,61.7c0.3,0.2,0.6,0.4,0.9,0.6c1.5-1.7,2.2-3.7,2.4-5.8h-2.1C80.7,58.4,80.3,60.2,79.6,61.7z"/>
			<path fill="#0078D7" d="M66.1,62.3c0.3-0.2,0.6-0.4,0.9-0.6c-0.7-1.5-1.1-3.3-1.2-5.2h-2.1C63.9,58.6,64.7,60.6,66.1,62.3z"/>
			<path fill="#0078D7" d="M67.1,50.2c-0.3-0.2-0.7-0.4-0.9-0.6c-1.5,1.7-2.3,3.7-2.4,5.9h2.1C65.9,53.5,66.4,51.7,67.1,50.2z"/>
			<path fill="#0078D7" d="M68.5,49.9c1.2,0.5,2.7,0.8,4.2,0.9v-4.1C71.1,46.9,69.6,48.1,68.5,49.9z"/>
			<path fill="#0078D7" d="M69.1,47.3c-0.8,0.4-1.6,0.9-2.3,1.6c0.2,0.2,0.5,0.3,0.7,0.5C67.9,48.6,68.5,47.9,69.1,47.3z"/>
			<path fill="#0078D7" d="M95.9,44.8h-0.3c0-1.3-0.9-2.3-2-2.3h-0.3h-0.3c0-0.7-0.3-1.3-0.8-1.6c0,0,0,0-0.1,0
				c-0.1-0.1-0.1-0.1-0.2-0.1c0,0-0.1,0-0.1-0.1c-0.1,0-0.1,0-0.2-0.1c-0.1,0-0.2,0-0.3,0H55.8c-0.9,0-1.7,0.9-1.7,2v27.6
				c0,1.1,0.8,2,1.7,2H56v0.3c0,0,0,0,0,0c0,1.3,0.9,2.3,2,2.3h0.3c0,1.3,0.9,2.3,2,2.3h35.6c1.1,0,2-1,2-2.3V47.1
				C97.9,45.8,97,44.8,95.9,44.8z M65.5,48.1c2.2-2.2,5-3.3,7.9-3.3c2.8,0,5.7,1.1,7.9,3.3c2.1,2.1,3.3,5,3.3,7.8
				c0,2.9-1.1,5.8-3.3,7.9C79,66,76.2,67,73.3,67c-2.8,0-5.7-1.1-7.9-3.3c-2.2-2.2-3.3-5-3.3-7.9C62.2,53.1,63.3,50.2,65.5,48.1z
				 M58.6,74.1h-0.3h-0.3c-0.8,0-1.4-0.7-1.4-1.7c0,0,0,0,0,0v-0.3h1.7h0.3h0.3h32.4c0.9,0,1.7-0.9,1.7-2V45.4v-0.3v-0.3v-1.7h0.3
				h0.3c0.8,0,1.4,0.7,1.4,1.7v0v0.3v0.3v27c0,0.9-0.6,1.7-1.4,1.7H58.9H58.6z M97.3,74.7c0,0.9-0.6,1.7-1.4,1.7H60.4
				c-0.8,0-1.4-0.7-1.4-1.7h34.7c1.1,0,2-1,2-2.3v-27h0.3c0.8,0,1.4,0.8,1.4,1.7V74.7z"/>
			<path fill="#0078D7" d="M67.1,56.5c0.1,1.7,0.4,3.3,1.1,4.6c1.4-0.6,3-0.9,4.7-1v-3.6H67.1z"/>
			<path fill="#0078D7" d="M68.5,61.9c1,1.8,2.5,3,4.2,3.2V61C71.2,61.1,69.8,61.4,68.5,61.9z"/>
			<path fill="#0078D7" d="M72.8,51.7c-1.7-0.1-3.3-0.4-4.7-1c-0.6,1.4-1,3-1.1,4.7h5.7V51.7z"/>
			<path fill="#0078D7" d="M66.8,63c0.7,0.7,1.5,1.2,2.3,1.6c-0.6-0.6-1.1-1.3-1.6-2.1C67.2,62.6,67,62.8,66.8,63z"/>
		</g>
	</g>
</g>
<g id="Layer_57">
</g>
<g id="Ibiza_Symbols">
	<g id="SQL_Database_Premium">
	</g>
</g>
</svg>
