<?xml version="1.0" encoding="utf-8"?>
<!-- Generator: Adobe Illustrator 18.1.0, SVG Export Plug-In . SVG Version: 6.00 Build 0)  -->
<!DOCTYPE svg PUBLIC "-//W3C//DTD SVG 1.0//EN" "http://www.w3.org/TR/2001/REC-SVG-20010904/DTD/svg10.dtd">
<svg version="1.0" xmlns="http://www.w3.org/2000/svg" xmlns:xlink="http://www.w3.org/1999/xlink" x="0px" y="0px"
	 viewBox="0 0 152 117.5" enable-background="new 0 0 152 117.5" xml:space="preserve">
<g id="Layer_1">
	<g id="Azure">
	</g>
	<g id="BizTalk_Services" transform="translate(37.3575,-2500.2)">
	</g>
</g>
<g id="paths">
	<g id="Access_control">
	</g>
	<g id="Azure_active_directory">
	</g>
	<g id="API_Management">
	</g>
	<g id="Azure_automation">
	</g>
	<g id="Azure_SQL_database">
	</g>
	<g id="Azure_subscription">
	</g>
	<g id="Backup_service">
	</g>
	<g id="Bitbucket_code_source">
	</g>
	<g id="Azure_cache">
	</g>
	<g id="Content_delivery_network__x28_CDN_x29_">
	</g>
	<g id="Cloud_service">
	</g>
	<g id="CodePlex">
	</g>
	<g id="Dropbox_code_source">
	</g>
	<g id="Express_route">
	</g>
	<g id="Git_repository">
	</g>
	<g id="GitHub_code">
	</g>
	<g id="HD_Insight">
	</g>
	<g id="Health_monitoring">
	</g>
	<g id="Healthy">
	</g>
	<g id="BizTalk_hybrid_connection">
	</g>
	<g id="Hybrid_connection_manager_for_BizTalk_hybrid_connection">
		<g>
			<path fill="#0078D7" d="M85.8,61.3L85.8,61.3C85.9,61.3,85.9,61.3,85.8,61.3c0.1,0,0.1,0,0.1,0H85.8z"/>
			<path fill="#0078D7" d="M85.8,56.6L85.8,56.6l0.1,0C85.9,56.6,85.9,56.6,85.8,56.6z"/>
			<path fill="#0078D7" d="M83.6,58.9c0-1.3,1-2.3,2.2-2.4c0,0,0,0,0.1,0c0,0,0.1,0,0.1,0h5.7c1.3,0,2.4,1.1,2.4,2.4
				c0,1.3-1.1,2.4-2.4,2.4H86c0,0-0.1,0-0.1,0c0,0,0,0-0.1,0C84.6,61.2,83.6,60.2,83.6,58.9z"/>
			<path fill="#0078D7" d="M85.8,61.3L85.8,61.3C85.9,61.3,85.9,61.3,85.8,61.3C85.9,61.3,85.9,61.3,85.8,61.3z"/>
			<path fill="#0078D7" d="M85.9,56.6C85.9,56.6,85.9,56.6,85.9,56.6L85.9,56.6C85.9,56.6,85.9,56.6,85.9,56.6z"/>
			<path fill="#0078D7" d="M71.8,58.7c0-2.7,2.2-4.8,4.8-4.8c2.7,0,4.8,2.2,4.8,4.8s-2.2,4.8-4.8,4.8C74,63.6,71.8,61.4,71.8,58.7z
				 M57.9,61.3C57.9,61.3,57.9,61.3,57.9,61.3c0.1,0,0.1,0,0.1,0h5.7c0.2,0,0.4,0,0.5-0.1c1.2,5.8,6.3,10.1,12.4,10.1
				c3.4,0,6.4-1.3,8.7-3.5c0.4-0.4,0.7-1,0.7-1.7c0-1.3-1.1-2.4-2.4-2.4c-0.4,0-0.8,0.1-1.1,0.3l0,0c-0.3,0.3-0.6,0.6-0.9,0.8
				c-1.4,1.1-3.1,1.8-5,1.8c-4.4,0-8-3.6-8-8c0-4.4,3.6-8,8-8c2.2,0,4.2,0.9,5.6,2.3c0,0,0,0,0,0c0.2,0.2,0.3,0.3,0.5,0.5
				c0,0,0,0,0,0c0.4,0.3,0.9,0.5,1.5,0.5c1.3,0,2.4-1.1,2.4-2.4c0-0.4-0.1-0.8-0.3-1.1c-0.3-0.3-0.5-0.6-0.8-0.9
				c-2.3-2.2-5.4-3.6-8.9-3.6c-6.3,0-11.5,4.6-12.5,10.6c-0.1,0-0.3,0-0.5,0H58c0,0-0.1,0-0.1,0c0,0,0,0-0.1,0
				c-1.2,0.1-2.2,1.1-2.2,2.4C55.7,60.2,56.7,61.2,57.9,61.3z"/>
		</g>
	</g>
</g>
</svg>
