<?xml version="1.0" encoding="UTF-8" standalone="no"?>
<!DOCTYPE svg PUBLIC "-//W3C//DTD SVG 1.1//EN" "http://www.w3.org/Graphics/SVG/1.1/DTD/svg11.dtd">
<!-- Generated by Microsoft Visio, SVG Export Data Lake Store.svg Page-1 -->
<svg xmlns="http://www.w3.org/2000/svg" xmlns:xlink="http://www.w3.org/1999/xlink" xmlns:ev="http://www.w3.org/2001/xml-events"
		xmlns:v="http://schemas.microsoft.com/visio/2003/SVGExtensions/" width="1.81542in" height="1.42958in"
		viewBox="0 0 130.71 102.93" xml:space="preserve" color-interpolation-filters="sRGB" class="st2">
	<v:documentProperties v:langID="1033" v:viewMarkup="false">
		<v:userDefs>
			<v:ud v:nameU="visTLShowProps" v:prompt="" v:val="VT0(0):26"/>
		</v:userDefs>
	</v:documentProperties>

	<style type="text/css">
	<![CDATA[
		.st1 {fill:#0078d7;stroke:none;stroke-linecap:butt;stroke-width:0.75}
		.st2 {fill:none;fill-rule:evenodd;font-size:12px;overflow:visible;stroke-linecap:square;stroke-miterlimit:3}
	]]>
	</style>

	<g v:mID="0" v:index="1" v:groupContext="foregroundPage">
		<title>Page-1</title>
		<v:pageProperties v:drawingScale="1" v:pageScale="1" v:drawingUnits="19" v:shadowOffsetX="2.83465"
				v:shadowOffsetY="-2.83465" v:shadowType="1"/>
		<g id="shape1434-1" v:mID="1434" v:groupContext="shape" transform="translate(0.75,-0.75)">
			<title>Sheet.1434</title>
			<path d="M76.36 11.97 L72.62 5.51 C71.19 3.05 68.48 1.5 65.64 1.5 L8.01 1.5 C3.62 1.5 0 5.12 0 9.51 L0 13.65 L77.78 13.65
						 C77.14 13.26 76.75 12.61 76.36 11.97 ZM81.01 56.54 L58.14 89.23 C57.89 89.49 57.63 89.75 57.24 89.75 C57.11
						 89.75 56.85 89.75 56.72 89.62 C56.21 89.36 55.95 88.85 56.21 88.33 L62.15 68.82 L48.84 68.82 C48.45 68.82
						 48.07 68.56 47.81 68.17 C47.68 67.78 47.68 67.4 47.94 67.01 L70.16 34.71 C70.42 34.45 70.68 34.19 71.07
						 34.19 C71.19 34.19 71.32 34.19 71.58 34.32 C72.1 34.58 72.36 35.09 72.1 35.61 L66.41 54.73 L80.11 54.73
						 C80.76 54.73 81.27 55.25 81.27 55.9 C81.27 56.16 81.14 56.29 81.01 56.54 ZM124.17 17.78 L0 17.78 L0 94.92
						 C0 99.31 3.62 102.93 8.01 102.93 L121.2 102.93 C125.59 102.93 129.21 99.31 129.21 94.92 L129.21 25.15 C129.21
						 21.92 127.14 19.07 124.17 17.78 Z" class="st1"/>
		</g>
	</g>
</svg>
