<?xml version="1.0" encoding="UTF-8" standalone="no"?>
<!DOCTYPE svg PUBLIC "-//W3C//DTD SVG 1.1//EN" "http://www.w3.org/Graphics/SVG/1.1/DTD/svg11.dtd">
<!-- Generated by Microsoft Visio, SVG Export Service Bus Relay.svg Page-1 -->
<svg xmlns="http://www.w3.org/2000/svg" xmlns:xlink="http://www.w3.org/1999/xlink" xmlns:ev="http://www.w3.org/2001/xml-events"
		xmlns:v="http://schemas.microsoft.com/visio/2003/SVGExtensions/" width="0.541667in" height="0.541667in" viewBox="0 0 39 39"
		xml:space="preserve" color-interpolation-filters="sRGB" class="st2">
	<v:documentProperties v:langID="1033" v:viewMarkup="false">
		<v:userDefs>
			<v:ud v:nameU="visTLShowProps" v:prompt="" v:val="VT0(0):26"/>
		</v:userDefs>
	</v:documentProperties>

	<style type="text/css">
	<![CDATA[
		.st1 {fill:#0072c6;stroke:none;stroke-linecap:butt;stroke-width:0.75}
		.st2 {fill:none;fill-rule:evenodd;font-size:12px;overflow:visible;stroke-linecap:square;stroke-miterlimit:3}
	]]>
	</style>

	<g v:mID="0" v:index="1" v:groupContext="foregroundPage">
		<title>Page-1</title>
		<v:pageProperties v:drawingScale="1" v:pageScale="1" v:drawingUnits="19" v:shadowOffsetX="9" v:shadowOffsetY="-9"/>
		<g id="shape51-1" v:mID="51" v:groupContext="shape" transform="translate(0.75,-0.75)">
			<title>Sheet.51</title>
			<path d="M20.09 17.85 L23.69 23.61 A4.05 4.05 -180 1 0 25.28 22.63 L21.67 16.84 A4.05 4.05 -180 1 0 15.99 16.99 L12.42
						 22.7 A4.05 4.05 -180 1 0 13.97 23.77 L17.63 17.92 A4.05 4.05 -180 0 0 20.09 17.85 ZM36.9 39 C37.27 39 37.5
						 38.77 37.5 38.4 L37.5 31.05 C37.5 30.67 37.27 30.45 36.9 30.45 L33.3 30.45 C32.92 30.45 32.7 30.67 32.7
						 31.05 L32.7 34.05 L5.02 34.05 L5.02 30.9 C5.02 30.52 4.8 30.3 4.27 30.3 L0.6 30.3 C0.22 30.3 0 30.52 0 31.05
						 L0 38.4 C0 38.77 0.22 39 0.6 39 L36.9 39 ZM0.6 1.5 C0.22 1.5 0 1.72 0 2.1 L0 9.6 C0 9.97 0.22 10.2 0.6 10.2
						 L4.35 10.2 C4.72 10.2 4.95 9.97 4.95 9.6 L4.95 6.52 L32.48 6.52 L32.48 9.67 C32.48 10.05 32.7 10.27 33.23
						 10.27 L36.83 10.27 C37.2 10.27 37.42 10.05 37.42 9.67 L37.42 2.17 C37.5 1.72 37.27 1.5 36.9 1.5 L0.6 1.5
						 Z" class="st1"/>
		</g>
	</g>
</svg>
