<?xml version="1.0" encoding="utf-8"?>
<!-- Generator: Adobe Illustrator 18.1.0, SVG Export Plug-In . SVG Version: 6.00 Build 0)  -->
<!DOCTYPE svg PUBLIC "-//W3C//DTD SVG 1.0//EN" "http://www.w3.org/TR/2001/REC-SVG-20010904/DTD/svg10.dtd">
<svg version="1.0" id="Layer_1" xmlns="http://www.w3.org/2000/svg" xmlns:xlink="http://www.w3.org/1999/xlink" x="0px" y="0px"
	 viewBox="0 0 168.9 130.6" enable-background="new 0 0 168.9 130.6" xml:space="preserve">
<g>
	<path fill="#3276BC" d="M80.2,83.4H66.5V69.8h2.7c-0.3-0.8-0.5-1.7-0.5-2.7c0,0,0-0.1,0-0.2h-5.1v19.3H83V74.8h-2.8V83.4z"/>
	<path fill="#3276BC" d="M99.3,69.8h2.5v13.6H88.1v-8.6h-2.8v11.4h19.4V66.9h-6.1c0.5,0.8,0.7,1.7,0.7,2.7
		C99.3,69.7,99.3,69.7,99.3,69.8z"/>
	<path fill="#3276BC" d="M66.5,61.7V48.1h13.7v7.9c0.9-0.6,1.8-1.1,2.8-1.4v-9.3H63.7v19.3h5.6c0.4-1.1,1-2,1.8-2.8L66.5,61.7
		L66.5,61.7z"/>
	<path fill="#3276BC" d="M88.1,54.4v-6.3h13.7v13.6h-5.9c0.2,0.9,0.4,1.8,0.4,2.7c0,0,0,0.1,0,0.1h8.4V45.2H85.3v8.9
		c0.2,0,0.5,0,0.7,0C86.7,54.1,87.4,54.2,88.1,54.4z"/>
</g>
<g>
	<path fill="#3276BC" d="M97.2,69.6c0-1.7-1.4-3.1-3-3.1c-0.1,0-0.2,0-0.4,0c0.2-0.7,0.3-1.4,0.3-2.2c0-4.5-3.6-8.2-8.1-8.2
		c-3.6,0-6.6,2.3-7.7,5.6c-0.6-0.2-1.2-0.3-1.8-0.3c-3.1,0-5.5,2.5-5.5,5.6c0,3.1,2.5,5.6,5.5,5.6l0,0l0,0h18l0,0
		C96,72.5,97.2,71.2,97.2,69.6"/>
</g>
</svg>
