<?xml version="1.0" encoding="utf-8"?>
<!-- Generator: Adobe Illustrator 18.1.0, SVG Export Plug-In . SVG Version: 6.00 Build 0)  -->
<!DOCTYPE svg PUBLIC "-//W3C//DTD SVG 1.0//EN" "http://www.w3.org/TR/2001/REC-SVG-20010904/DTD/svg10.dtd">
<svg version="1.0" xmlns="http://www.w3.org/2000/svg" xmlns:xlink="http://www.w3.org/1999/xlink" x="0px" y="0px"
	 viewBox="0 0 152 117.5" enable-background="new 0 0 152 117.5" xml:space="preserve">
<g id="Layer_1">
	<g id="Azure">
	</g>
	<g id="BizTalk_Services" transform="translate(37.3575,-2500.2)">
	</g>
	<g id="Key_Vault">
	</g>
	<g id="Mobile_Engagement">
	</g>
	<g id="Office_subscription">
		<g id="Office_subscription_1_">
		</g>
	</g>
</g>
<g id="paths">
	<g id="Access_control">
	</g>
	<g id="Azure_active_directory">
	</g>
	<g id="API_Management">
	</g>
	<g id="Azure_automation">
	</g>
	<g id="Azure_SQL_database">
	</g>
	<g id="Azure_subscription">
	</g>
	<g id="Backup_service">
	</g>
	<g id="Bitbucket_code_source">
	</g>
	<g id="Azure_cache">
	</g>
	<g id="Content_delivery_network__x28_CDN_x29_">
	</g>
	<g id="Cloud_service">
	</g>
	<g id="CodePlex">
	</g>
	<g id="Dropbox_code_source">
	</g>
	<g id="Express_route">
	</g>
	<g id="Git_repository">
	</g>
	<g id="GitHub_code">
	</g>
	<g id="HD_Insight">
	</g>
	<g id="Health_monitoring">
	</g>
	<g id="Healthy">
	</g>
	<g id="BizTalk_hybrid_connection">
	</g>
	<g id="Hybrid_connection_manager_for_BizTalk_hybrid_connection">
	</g>
	<g id="Hyper-V_recovery_manager">
	</g>
	<g id="Machine_learning">
	</g>
	<g id="Media_services">
	</g>
	<g id="Microsoft_account">
	</g>
	<g id="Mobile_services">
	</g>
	<g id="Multi-factor_authentication">
	</g>
	<g id="MySQL_database">
	</g>
	<g id="Notification_hub">
	</g>
	<g id="Notification_topic">
	</g>
	<g id="Cloud_Office_365">
	</g>
	<g id="Office_365">
	</g>
	<g id="OS_image">
	</g>
	<g id="Remote_app">
	</g>
	<g id="Task_scheduler">
	</g>
	<g id="Azure_SDK">
	</g>
	<g id="Service_bus">
	</g>
	<g id="Service_bus_queue">
	</g>
	<g id="Service_bus_relay">
	</g>
	<g id="Service_bus_topic">
	</g>
	<g id="Service_endpoint">
	</g>
	<g id="Custom_create">
	</g>
	<g id="SQL_data_sync">
		<path fill="#0078D7" d="M76,39.6c-8.1,0-14.6,2.7-14.6,5.7v12v8.8v5.7c0,2.7,5.3,5.6,12.3,6.1h4.7c7-0.5,12.3-2.9,12.3-5.6V45.4
			C90.7,42.4,84.1,39.6,76,39.6z M76,41.6c5.8,0,10.4,1.4,10.4,3.1c0,1.7-4.7,3.1-10.4,3.1c-5.8,0-10.4-1.4-10.4-3.1
			C65.6,43,70.2,41.6,76,41.6z M76.3,69.9c-4.5,0-8.3-3.7-8.3-8.3c0-0.3,0-0.5,0-0.8h-3.8l5.3-5.4l4.4,5.4h-3.6c0,0.3,0,0.5,0,0.8
			c0,3.2,2.6,5.9,5.9,5.9c1.1,0,2.1-0.3,3-0.8l1.5,1.9C79.4,69.5,77.9,69.9,76.3,69.9z M82.4,67.8L78,62.4h4.1
			c0-0.2,0.1-0.5,0.1-0.7c0-3.2-2.6-5.9-5.9-5.9c-1,0-2,0.3-2.8,0.7l-1.5-1.9c1.3-0.8,2.7-1.2,4.3-1.2c4.5,0,8.3,3.7,8.3,8.3
			c0,0.2,0,0.5,0,0.7h3.3L82.4,67.8z"/>
	</g>
</g>
<g id="Layer_57">
</g>
</svg>
