<?xml version="1.0" encoding="utf-8"?>
<!-- Generator: Adobe Illustrator 18.1.0, SVG Export Plug-In . SVG Version: 6.00 Build 0)  -->
<!DOCTYPE svg PUBLIC "-//W3C//DTD SVG 1.0//EN" "http://www.w3.org/TR/2001/REC-SVG-20010904/DTD/svg10.dtd">
<svg version="1.0" xmlns="http://www.w3.org/2000/svg" xmlns:xlink="http://www.w3.org/1999/xlink" x="0px" y="0px"
	 viewBox="0 0 152 117.5" enable-background="new 0 0 152 117.5" xml:space="preserve">
<g id="Layer_1">
	<g id="Azure">
	</g>
	<g id="BizTalk_Services" transform="translate(37.3575,-2500.2)">
	</g>
	<g id="Key_Vault">
	</g>
	<g id="Mobile_Engagement">
		<g>
			<rect x="67.3" y="67.5" fill="#0078D7" width="5" height="5"/>
			<rect x="73.6" y="63.7" fill="#0078D7" width="5" height="8.7"/>
			<rect x="79.8" y="60" fill="#0078D7" width="5" height="12.5"/>
			<g>
				<g>
					<path fill="#0078D7" d="M81.3,38.5c0-0.1,0-0.4,0-0.5c0-0.1,0-0.6,0-0.6h6.1c0.5,0,0.9,0.5,1,1L81.3,38.5z M63.7,38.5
						c0-0.5,0.4-1,0.9-1h3.6c0,0,0,0.5,0,0.6c0,0.1,0,0.2,0,0.5L63.7,38.5z M64.6,80c-0.5,0-1-0.7-1-1.4v-2.2h8.5
						c-0.7,0.4-1,1.2-1,2c0,0.6,0.2,1.6,0.5,1.6H64.6z M79.1,80c0.2,0,0.5-0.9,0.5-1.6c0-1-0.2-1.6-0.7-2l9.7-0.1v2.4
						c0,0.6-0.6,1.4-1.1,1.4H79.1z"/>
					<path fill="#0078D7" d="M73.6,78.8c-0.9-0.1-1.1,0.1-1.1-0.6c0-0.6,0.5-0.9,1.1-1h3.9c0.6,0.1,0.9,0.4,0.9,1
						c0,0.6-0.1,0.6-0.5,0.6h-0.5H73.6z M64.7,75V40h22.6v35H64.7z M71.8,38.7c-0.5,0-1,0-1-0.6s0.4-0.6,1-0.6h7.2c0.5,0,1,0,1,0.6
						s-0.5,0.6-1,0.6H71.8z M87.4,36.3H64.6c-1.2,0-2.2,1.1-2.2,2.4v40c0,1.4,1,2.6,2.2,2.6h22.7c1.2,0,2.4-1.2,2.4-2.6v-40
						C89.8,37.4,88.7,36.3,87.4,36.3z"/>
				</g>
			</g>
			<path fill="#0078D7" d="M82.1,42.5h-12c-1.5,0-4,1.2-4,2.7v9.5c0,1.5,2.5,2.7,4,2.7h2.2v3.7l3.7-3.7h6c1.5,0,4-1.2,4-2.7v-9.5
				C86,43.7,83.6,42.5,82.1,42.5z"/>
		</g>
	</g>
</g>
<g id="paths">
	<g id="Access_control">
	</g>
	<g id="Azure_active_directory">
	</g>
	<g id="API_Management">
	</g>
	<g id="Azure_automation">
	</g>
	<g id="Azure_SQL_database">
	</g>
	<g id="Azure_subscription">
	</g>
	<g id="Backup_service">
	</g>
	<g id="Bitbucket_code_source">
	</g>
	<g id="Azure_cache">
	</g>
	<g id="Content_delivery_network__x28_CDN_x29_">
	</g>
	<g id="Cloud_service">
	</g>
	<g id="CodePlex">
	</g>
	<g id="Dropbox_code_source">
	</g>
	<g id="Express_route">
	</g>
	<g id="Git_repository">
	</g>
	<g id="GitHub_code">
	</g>
	<g id="HD_Insight">
	</g>
	<g id="Health_monitoring">
	</g>
	<g id="Healthy">
	</g>
	<g id="BizTalk_hybrid_connection">
	</g>
	<g id="Hybrid_connection_manager_for_BizTalk_hybrid_connection">
	</g>
	<g id="Hyper-V_recovery_manager">
	</g>
	<g id="Machine_learning">
	</g>
	<g id="Media_services">
	</g>
	<g id="Microsoft_account">
	</g>
</g>
</svg>
