<?xml version="1.0" encoding="UTF-8" standalone="no"?>
<!DOCTYPE svg PUBLIC "-//W3C//DTD SVG 1.1//EN" "http://www.w3.org/Graphics/SVG/1.1/DTD/svg11.dtd">
<!-- Generated by Microsoft Visio, SVG Export HockeyApp.svg Page-1 -->
<svg xmlns="http://www.w3.org/2000/svg" xmlns:xlink="http://www.w3.org/1999/xlink" xmlns:ev="http://www.w3.org/2001/xml-events"
		xmlns:v="http://schemas.microsoft.com/visio/2003/SVGExtensions/" width="0.541667in" height="0.319229in"
		viewBox="0 0 39 22.9845" xml:space="preserve" color-interpolation-filters="sRGB" class="st2">
	<v:documentProperties v:langID="1033" v:viewMarkup="false">
		<v:userDefs>
			<v:ud v:nameU="visTLShowProps" v:prompt="" v:val="VT0(0):26"/>
		</v:userDefs>
	</v:documentProperties>

	<style type="text/css">
	<![CDATA[
		.st1 {fill:#0078d7;stroke:none;stroke-linecap:butt;stroke-width:0.75}
		.st2 {fill:none;fill-rule:evenodd;font-size:12px;overflow:visible;stroke-linecap:square;stroke-miterlimit:3}
	]]>
	</style>

	<g v:mID="0" v:index="1" v:groupContext="foregroundPage">
		<title>Page-1</title>
		<v:pageProperties v:drawingScale="1" v:pageScale="1" v:drawingUnits="19" v:shadowOffsetX="2.83465"
				v:shadowOffsetY="-2.83465" v:shadowType="1"/>
		<g id="shape1588-1" v:mID="1588" v:groupContext="shape" transform="translate(0.75,-0.75)">
			<title>HockeyApp (nc)</title>
			<path d="M34.05 16.85 C31.47 18.68 26.37 20.25 18.75 20.25 C11.13 20.25 6.03 18.69 3.45 16.85 C3.33 16.76 3.17 16.84
						 3.15 16.98 C3.13 17.06 3.13 17.15 3.13 17.24 C3.13 19.67 8.33 22.98 18.75 22.98 C29.17 22.98 34.38 19.67
						 34.38 17.24 C34.38 17.15 34.37 17.06 34.36 16.98 C34.34 16.83 34.17 16.76 34.05 16.85 ZM18.75 15.56 C10.3
						 15.56 4.71 13.68 1.97 11.5 C1.87 11.42 1.73 11.45 1.68 11.56 C1.54 11.83 1.46 12.12 1.46 12.42 C1.46 15.11
						 7.23 18.69 18.75 18.69 C30.27 18.69 36.04 15.11 36.04 12.42 C36.04 12.12 35.96 11.83 35.82 11.56 C35.77
						 11.45 35.63 11.42 35.53 11.5 C32.79 13.68 27.2 15.56 18.75 15.56 ZM18.75 10.09 C9.9 10.09 5.47 7.83 5.47
						 6.29 C5.47 4.74 9.9 3.84 18.75 3.84 C27.6 3.84 32.03 4.74 32.03 6.29 C32.03 7.83 27.6 10.09 18.75 10.09
						 ZM18.75 1.5 C6.25 1.5 0 3.67 0 6.77 C0 9.87 6.25 14 18.75 14 C31.25 14 37.5 9.87 37.5 6.77 C37.5 3.67 31.25
						 1.5 18.75 1.5 Z" class="st1"/>
		</g>
	</g>
</svg>
