<?xml version="1.0" encoding="utf-8"?>
<!-- Generator: Adobe Illustrator 19.1.0, SVG Export Plug-In . SVG Version: 6.00 Build 0)  -->
<svg version="1.1" id="Layer_1" xmlns="http://www.w3.org/2000/svg" xmlns:xlink="http://www.w3.org/1999/xlink" x="0px" y="0px"
	 width="50px" height="50px" viewBox="-454 256 50 50" enable-background="new -454 256 50 50" xml:space="preserve">
<path fill="#3999C6" d="M-448,262.788v36.111c0,3.749,8.392,6.789,18.743,6.789v-42.9C-429.257,262.788-448,262.788-448,262.788z"/>
<path fill="#59B4D9" d="M-429.514,305.687h0.257c10.351,0,18.743-3.038,18.743-6.788v-36.111h-19V305.687z"/>
<path fill="#FFFFFF" d="M-410.514,262.788c0,3.749-8.392,6.788-18.743,6.788c-10.351,0-18.743-3.039-18.743-6.788
	s8.392-6.788,18.743-6.788C-418.906,256-410.514,259.039-410.514,262.788"/>
<path fill="#7FBA00" d="M-414.346,262.397c0,2.475-6.676,4.479-14.911,4.479c-8.235,0-14.912-2.004-14.912-4.479
	c0-2.474,6.677-4.479,14.912-4.479C-421.022,257.918-414.346,259.923-414.346,262.397"/>
<path fill="#B8D432" d="M-417.47,265.134c1.952-0.757,3.125-1.705,3.125-2.735c0-2.475-6.676-4.48-14.912-4.48
	c-8.235,0-14.911,2.005-14.911,4.48c0,1.03,1.173,1.978,3.125,2.735c2.726-1.058,6.986-1.741,11.786-1.741
	C-424.456,263.393-420.198,264.076-417.47,265.134"/>
<path fill="#3999C6" d="M-437.729,280.765h-1.704v9.754h1.724c1.515,0,2.689-0.474,3.558-1.383c0.832-0.909,1.253-2.121,1.253-3.654
	c0-1.439-0.421-2.573-1.234-3.413C-434.985,281.201-436.178,280.765-437.729,280.765"/>
<path fill="#59B4D9" d="M-420.515,283.628c0.416-0.362,0.624-0.836,0.624-1.424c0-1.139-0.832-1.706-2.52-1.706h-1.302v3.64h1.533
	C-421.479,284.138-420.911,283.963-420.515,283.628"/>
<path fill="#59B4D9" d="M-419.946,287.241c-0.456-0.339-1.076-0.53-1.877-0.53h-1.893v4.052h1.875c0.797,0,1.439-0.189,1.913-0.568
	c0.435-0.38,0.661-0.869,0.661-1.515C-419.263,288.073-419.49,287.581-419.946,287.241"/>
<path fill="#FFFFFF" d="M-430.917,276.561c0.687,0.729,1.206,1.458,1.556,2.187c0.252,0.504,0.666,1.829,1.241,3.974l1.85-2.775
	c0.49-0.673,1.086-1.314,1.787-1.924c0.701-0.61,1.318-1.027,1.85-1.251c0.336-0.14,0.708-0.21,1.115-0.21
	c0.603,0,1.083,0.161,1.44,0.484c0.358,0.323,0.536,0.715,0.536,1.178c0,0.533-0.105,0.897-0.315,1.093
	c-0.393,0.35-0.841,0.526-1.346,0.526c-0.294,0-0.61-0.063-0.946-0.189c-0.659-0.224-1.101-0.336-1.324-0.336
	c-0.336,0-0.736,0.197-1.198,0.589c-0.869,0.729-1.906,2.138-3.112,4.226l1.724,7.233c0.267,1.107,0.49,1.77,0.673,1.987
	c0.182,0.218,0.364,0.326,0.547,0.326c0.294,0,0.638-0.161,1.03-0.484c0.771-0.645,1.43-1.486,1.977-2.523l0.736,0.378
	c-0.883,1.654-2.004,3.028-3.364,4.121c-0.771,0.617-1.423,0.925-1.955,0.925c-0.785,0-1.409-0.441-1.872-1.324
	c-0.294-0.547-0.904-2.902-1.829-7.065c-2.187,3.799-3.939,6.245-5.257,7.338c-0.855,0.701-1.682,1.051-2.481,1.051
	c-0.561,0-1.072-0.203-1.535-0.61c-0.336-0.308-0.504-0.722-0.504-1.241c0-0.463,0.154-0.848,0.463-1.156
	c0.308-0.308,0.687-0.463,1.135-0.463c0.449,0,0.925,0.224,1.43,0.673c0.364,0.323,0.645,0.484,0.841,0.484
	c0.168,0,0.385-0.112,0.652-0.336c0.659-0.533,1.556-1.682,2.691-3.448c1.135-1.766,1.878-3.041,2.229-3.827
	c-0.869-3.406-1.339-5.207-1.409-5.404c-0.322-0.911-0.743-1.556-1.261-1.935s-1.283-0.567-2.292-0.567
	c-0.322,0-0.694,0.014-1.115,0.042v-0.757L-430.917,276.561z"/>
</svg>
