<?xml version="1.0" encoding="utf-8"?>
<!-- Generator: Adobe Illustrator 18.1.0, SVG Export Plug-In . SVG Version: 6.00 Build 0)  -->
<!DOCTYPE svg PUBLIC "-//W3C//DTD SVG 1.0//EN" "http://www.w3.org/TR/2001/REC-SVG-20010904/DTD/svg10.dtd">
<svg version="1.0" xmlns="http://www.w3.org/2000/svg" xmlns:xlink="http://www.w3.org/1999/xlink" x="0px" y="0px"
	 viewBox="0 0 152 117.5" enable-background="new 0 0 152 117.5" xml:space="preserve">
<g id="Layer_1">
	<path fill="#0078D7" d="M94.8,71l-8.1-13.2l-8.2-13.9c-1.3-2.2-3.8-2.2-5.1-0.1L65.3,57L57.2,71c-1.3,2.2,0.1,4.3,2.7,4.3H76h16.1
		C94.8,75.2,96.1,73.1,94.8,71z M78.2,51.6l-0.6,11.7h-3.1l-0.6-11.7H78.2z M76,70.5c-1.5,0-2.5-1.1-2.5-2.5c0-1.5,1-2.5,2.5-2.5
		s2.4,1,2.5,2.5C78.5,69.4,77.5,70.5,76,70.5z"/>
</g>
<g id="paths">
	<g id="Access_control">
	</g>
	<g id="Azure_active_directory">
	</g>
</g>
</svg>
