<?xml version="1.0" encoding="utf-8"?>
<!-- Generator: Adobe Illustrator 18.1.0, SVG Export Plug-In . SVG Version: 6.00 Build 0)  -->
<!DOCTYPE svg PUBLIC "-//W3C//DTD SVG 1.0//EN" "http://www.w3.org/TR/2001/REC-SVG-20010904/DTD/svg10.dtd">
<svg version="1.0" xmlns="http://www.w3.org/2000/svg" xmlns:xlink="http://www.w3.org/1999/xlink" x="0px" y="0px"
	 viewBox="0 0 152 117.5" enable-background="new 0 0 152 117.5" xml:space="preserve">
<g id="Layer_1">
	<g id="Azure">
	</g>
	<g id="BizTalk_Services" transform="translate(37.3575,-2500.2)">
	</g>
	<g id="Key_Vault">
	</g>
	<g id="Mobile_Engagement">
	</g>
	<g id="Office_subscription">
		<g id="Office_subscription_1_">
		</g>
	</g>
	<g>
		<g>
			<path fill="#006FD4" d="M90.6,58.4l1.4-3.2l5.7-2v-4.6l-0.6-0.2l-5-1.7l-1.4-3.2l2.6-5.4l0,0l-3.2-3.2l-0.7,0.4l-4.7,2.4
				l-3.2-1.4l-2.1-5.5h-4.7l-0.2,0.6l-1.7,4.9l-3.2,1.4l-5.5-2.4l-3.2,3.2l0.3,0.6l1.5,2.8c2.6-1.5,5.4-2.1,8.4-2.1
				c4.1,0.2,7.9,1.7,10.8,4.4c0.6,0.5,1.4,0.9,2,1.7c0.3,0.3,0.6,0.8,0.8,1.2c2,3.5,1.2,7.9-2.1,10.5c-2.4,2-5.8,2.3-8.4,1.2
				c-0.3-0.2-0.5-0.2-0.6-0.3l0,0l0,0c-0.6-0.3-1.3-0.8-1.8-1.3c-0.2,0-0.3-0.2-0.6-0.2c-0.6,0-1.4,0.3-1.8,0.8l-0.2,0.2l0,0
				c-2,2-4.3,3.5-6.7,4.3L60.9,64l3.1,3.1l0.2,0.2l0.6-0.3l4.7-2.4l3.2,1.3l1.8,5.5h4.7l0.2-0.6l1.7-4.9l3.2-1.4l5.5,2.4l3.2-3.2
				L93,63L90.6,58.4z"/>
			<path fill="#006FD4" d="M62.4,50.3L62.4,50.3L62.4,50.3c-3.6,3.8-9.3,3.8-12.8-0.2c-0.3-0.5-1.2-0.5-1.5,0
				c-0.2,0.2-0.3,0.5-0.3,0.8c0,0.3,0.2,0.6,0.3,0.8c4.3,4.7,11.3,4.9,15.7,0.3v-0.2l0,0c3.6-3.6,9.2-3.6,12.6,0.3
				c0.5,0.5,1.2,0.5,1.5,0c0.2-0.2,0.3-0.5,0.3-0.8c0-0.3-0.2-0.6-0.3-0.8C73.8,45.8,66.8,45.7,62.4,50.3z"/>
			<path fill="#006FD4" d="M70.2,52.2c-2,0-3.6,0.6-5,2.1L65,54.5l-0.2,0.2c-2.4,2.6-5.8,4-9.2,3.8c-3.5,0-6.6-1.7-9-4.3
				c-0.5-0.5-1.2-0.5-1.5,0c0,0.2,0,0.5,0,0.8s0.2,0.6,0.3,0.8c2.8,3.1,6.5,4.9,10.5,4.9c4,0.2,7.6-1.5,10.7-4.6l0.2-0.2l0.2-0.2
				c0.9-0.9,2.1-1.5,3.5-1.5c1.4,0,2.4,0.6,3.5,1.7c0.5,0.5,1.2,0.5,1.5,0c0.2-0.2,0.3-0.5,0.3-0.8c0-0.3-0.2-0.6-0.3-0.8
				C74,53,72.2,52.2,70.2,52.2z"/>
			<path fill="#006FD4" d="M80.9,46.6c-2.8-3.1-6.6-4.9-10.5-4.9c-3.9,0-7.6,1.5-10.7,4.6l-0.2,0.2l-0.2,0.2
				c-0.9,0.9-2.1,1.5-3.5,1.5s-2.3-0.7-3.4-1.7c-0.5-0.5-1.2-0.5-1.5,0c-0.2,0.2-0.3,0.5-0.3,0.8c0,0.3,0.2,0.6,0.3,0.8
				c1.4,1.5,3.1,2.3,4.9,2.3c2,0,3.6-0.6,5-2.1l0.2-0.2c0,0,0.2,0,0.2-0.2c2.4-2.6,5.8-4,9.2-4c3.5,0,6.6,1.7,8.8,4.3
				c0.5,0.5,1.2,0.5,1.5,0c0.2-0.2,0.3-0.5,0.3-0.8C81.2,47.1,81,46.8,80.9,46.6z"/>
		</g>
	</g>
</g>
<g id="paths">
	<g id="Access_control">
	</g>
	<g id="Azure_active_directory">
	</g>
	<g id="API_Management">
	</g>
	<g id="Azure_automation">
	</g>
	<g id="Azure_SQL_database">
	</g>
	<g id="Azure_subscription">
	</g>
	<g id="Backup_service">
	</g>
	<g id="Bitbucket_code_source">
	</g>
	<g id="Azure_cache">
	</g>
	<g id="Content_delivery_network__x28_CDN_x29_">
	</g>
	<g id="Cloud_service">
	</g>
	<g id="CodePlex">
	</g>
	<g id="Dropbox_code_source">
	</g>
	<g id="Express_route">
	</g>
	<g id="Git_repository">
	</g>
	<g id="GitHub_code">
	</g>
	<g id="HD_Insight">
	</g>
	<g id="Health_monitoring">
	</g>
	<g id="Healthy">
	</g>
	<g id="BizTalk_hybrid_connection">
	</g>
	<g id="Hybrid_connection_manager_for_BizTalk_hybrid_connection">
	</g>
	<g id="Hyper-V_recovery_manager">
	</g>
	<g id="Machine_learning">
	</g>
	<g id="Media_services">
	</g>
	<g id="Microsoft_account">
	</g>
	<g id="Mobile_services">
	</g>
	<g id="Multi-factor_authentication">
	</g>
	<g id="MySQL_database">
	</g>
	<g id="Notification_hub">
	</g>
	<g id="Notification_topic">
	</g>
	<g id="Cloud_Office_365">
	</g>
	<g id="Office_365">
	</g>
	<g id="OS_image">
	</g>
	<g id="Remote_app">
	</g>
	<g id="Task_scheduler">
	</g>
	<g id="Azure_SDK">
	</g>
	<g id="Service_bus">
	</g>
	<g id="Service_bus_queue">
	</g>
	<g id="Service_bus_relay">
	</g>
	<g id="Service_bus_topic">
	</g>
	<g id="Service_endpoint">
	</g>
	<g id="Custom_create">
	</g>
	<g id="SQL_data_sync">
	</g>
	<g id="SQL_reporting">
	</g>
	<g id="Startup_task">
	</g>
	<g id="Windows_Azure_storage">
	</g>
	<g id="Storage_blob">
	</g>
	<g id="Storage_table">
	</g>
	<g id="Storage_queue">
	</g>
	<g id="StorSimple">
	</g>
</g>
<g id="Layer_57">
</g>
<g id="Ibiza_Symbols">
	<g id="SQL_Database_Premium">
	</g>
</g>
</svg>
