<?xml version="1.0" encoding="utf-8"?>
<!-- Generator: Adobe Illustrator 18.1.0, SVG Export Plug-In . SVG Version: 6.00 Build 0)  -->
<!DOCTYPE svg PUBLIC "-//W3C//DTD SVG 1.0//EN" "http://www.w3.org/TR/2001/REC-SVG-20010904/DTD/svg10.dtd">
<svg version="1.0" xmlns="http://www.w3.org/2000/svg" xmlns:xlink="http://www.w3.org/1999/xlink" x="0px" y="0px"
	 viewBox="0 0 152 117.5" enable-background="new 0 0 152 117.5" xml:space="preserve">
<g id="Layer_1">
	<g id="Azure">
	</g>
</g>
<g id="paths">
	<g id="Access_control">
	</g>
	<g id="Azure_active_directory">
	</g>
	<g id="API_Management">
	</g>
	<g id="Azure_automation">
	</g>
	<g id="Azure_SQL_database">
	</g>
	<g id="Azure_subscription">
		<g>
			<path fill="#0078D7" d="M75.6,61.5L75,63.9c-0.1,0.4,0.2,0.7,0.5,0.6l2.4-0.6c0.4-0.1,0.5-0.4,0.2-0.7l-1.8-1.8
				C76,61.1,75.6,61.1,75.6,61.5z"/>
			<path fill="#0078D7" d="M77.4,58.5l3.5,3.5c0.3,0.3,0.8,0.3,1.1,0l16.2-16.3c0.3-0.3,0.3-0.8,0-1.1l-3.5-3.5
				c-0.3-0.3-0.8-0.3-1.1,0L77.4,57.4C77.2,57.7,77.2,58.2,77.4,58.5z"/>
			<path fill="#0078D7" d="M101,38.4c-2-2-4-0.5-4-0.5c-0.3,0.2-0.8,0.7-1.1,1c-0.3,0.3-0.3,0.7,0,1.1l3.5,3.5c0.3,0.3,0.8,0.3,1,0
				c0.3-0.3,0.7-0.8,1-1.1C101.5,42.4,103,40.4,101,38.4z"/>
			<path fill="#0078D7" d="M65.7,68.4L65.7,68.4c-0.1,0.2-0.1,0.4-0.2,0.6l-0.8,2.4h1.8L65.8,69C65.8,68.8,65.7,68.6,65.7,68.4z"/>
			<path fill="#0078D7" d="M86.9,70.1c-0.3,0-0.5,0.1-0.7,0.3c-0.2,0.2-0.3,0.4-0.3,0.7h1.8C87.7,70.4,87.4,70.1,86.9,70.1z"/>
			<path fill="#0078D7" d="M94.1,64.3c-0.2,0-0.5,0-0.7,0c0.4-1.3,0.5-2.7,0.5-4.1c0-2.2-0.5-4.3-1.3-6.2l-9.3,9.3
				c-0.5,0.5-4.1,2.1-5,2.4l0,0l0,0L76,66.4c-0.2,0-0.4,0.1-0.6,0.1c-0.7,0-1.4-0.3-1.9-0.9C73,65,72.8,64.2,73,63.4l0,0l0,0
				l0.6-2.3c0.2-1,1.9-4.6,2.4-5.1l9.5-9.5c-2.1-1.1-4.5-1.7-7-1.7c-6.8,0-12.6,4.4-14.6,10.5c-1.1-0.4-2.2-0.6-3.4-0.6
				c-5.8,0-10.5,4.7-10.5,10.5c0,5.8,4.7,10.5,10.5,10.5c0,0,0,0,0,0l0,0h34.1l0,0c3-0.2,5.3-2.7,5.3-5.8
				C99.9,66.9,97.3,64.3,94.1,64.3z M67.4,74.2L67,72.6h-2.5L64,74.2h-1.7l2.5-7h1.9l2.5,7H67.4z M73.8,74.2h-4.5v-0.6l2.5-3.2h-2.3
				v-1.1h4.2v0.8L71.5,73h2.4V74.2z M79.4,74.2h-1.5v-0.8h0c-0.4,0.6-0.9,0.9-1.5,0.9c-1.2,0-1.7-0.7-1.7-2.1v-3h1.5V72
				c0,0.7,0.3,1.1,0.8,1.1c0.3,0,0.5-0.1,0.7-0.3s0.3-0.5,0.3-0.8v-2.9h1.5V74.2z M84,70.5c-0.2-0.1-0.4-0.2-0.6-0.2
				c-0.3,0-0.6,0.1-0.8,0.4c-0.2,0.2-0.3,0.6-0.3,1v2.4h-1.5v-5h1.5v0.9h0c0.2-0.7,0.7-1,1.3-1c0.2,0,0.3,0,0.4,0.1V70.5z
				 M89.2,72.1h-3.3c0.1,0.7,0.5,1.1,1.4,1.1c0.5,0,1-0.1,1.5-0.4v1.1c-0.5,0.2-1.1,0.4-1.8,0.4c-0.8,0-1.4-0.2-1.9-0.7
				c-0.4-0.4-0.7-1.1-0.7-1.9c0-0.9,0.3-1.6,0.8-2.1c0.5-0.4,1-0.6,1.7-0.6c0.8,0,1.3,0.2,1.7,0.7c0.4,0.4,0.5,1,0.5,1.7V72.1z"/>
		</g>
	</g>
</g>
</svg>
