<?xml version="1.0" encoding="utf-8"?>
<!-- Generator: Adobe Illustrator 19.1.0, SVG Export Plug-In . SVG Version: 6.00 Build 0)  -->
<svg version="1.1" id="Layer_1" xmlns="http://www.w3.org/2000/svg" xmlns:xlink="http://www.w3.org/1999/xlink" x="0px" y="0px"
	 viewBox="0 0 16 16" style="enable-background:new 0 0 16 16;" xml:space="preserve">
<style type="text/css">
	.st0{fill:#0078D7;}
	.st1{fill:#FFFFFF;}
</style>
<g>
	<g id="iconBg_7_">
		<g>
			<rect x="6.9" y="7.8" class="st0" width="1.1" height="3.2"/>
			<path class="st0" d="M6.7,0.4c-3.3,0-6.1,1.3-6.1,2.4v10.1c0,1.3,3.5,2.4,6.7,2.4s5.9-1.1,5.9-2.3V2.9C13.2,1.7,10,0.4,6.7,0.4z
				 M6.9,1.4c2.3,0,4.2,0.5,4.2,1.2S9.2,3.7,6.9,3.7S2.7,3.3,2.7,2.5S4.6,1.4,6.9,1.4z"/>
		</g>
	</g>
	<path class="st1" d="M11.3,9.6c-0.4,0-0.6,0.2-0.6,0.8v0.9c0,0.6-0.1,0.9-0.4,1.3c-0.2,0.2-0.7,0.3-1.4,0.3v-0.8
		c0.2,0,0.4-0.1,0.5-0.2s0.2-0.3,0.2-0.5v-0.9c0-0.6,0.2-1.2,0.6-1.3l0,0C9.9,9,9.7,8.5,9.7,7.8V6.8C9.7,6.2,9.4,6,9,6V5.2
		c0.1,0,0.2,0,0.3,0c0.4,0,0.8,0.2,1.1,0.4c0.2,0.2,0.4,0.6,0.4,1.3v0.9c0,0.5,0.2,0.8,0.6,0.8L11.3,9.6L11.3,9.6z M4.8,12.8
		c-0.6,0-1.1-0.1-1.4-0.3C3.2,12.3,3,11.9,3,11.3v-1.1c0-0.5-0.2-0.8-0.6-0.8V8.6C2.8,8.6,3,8.3,3,7.8V6.9c0-0.6,0.1-0.9,0.4-1.3
		c0.3-0.2,0.7-0.3,1.4-0.3v0.8c-0.4,0-0.6,0.2-0.6,0.7v0.9C4.2,8.4,4,9,3.6,9.2l0,0C4,9.4,4.2,9.8,4.2,10.5v0.9
		c0,0.3,0.1,0.5,0.2,0.6c0.1,0.1,0.3,0.2,0.5,0.2L4.8,12.8L4.8,12.8z"/>
</g>
<path class="st1" d="M14.7,12.4c-0.1-0.9-0.8-1.6-1.7-1.6c-0.2,0-0.4,0.1-0.5,0.1c-0.4-0.5-0.9-0.7-1.5-0.7C9.9,10.2,9,11,8.9,12
	c-0.7,0.3-1.2,1-1.2,1.8c0,1.1,0.8,1.9,1.8,1.9H14c0.1,0,0.1,0,0.1,0c0.9-0.1,1.5-0.9,1.5-1.7C15.6,13.4,15.3,12.8,14.7,12.4z"/>
<path class="st0" d="M14.1,12.6c-0.1-0.7-0.7-1.3-1.4-1.3c-0.1,0-0.3,0-0.5,0.1c-0.3-0.4-0.8-0.6-1.3-0.6c-0.9,0-1.6,0.7-1.7,1.5
	c-0.6,0.2-1,0.8-1,1.5c0,0.9,0.7,1.6,1.5,1.6h3.8c0.1,0,0.1,0,0.1,0c0.7-0.1,1.3-0.7,1.3-1.5C14.9,13.4,14.6,12.9,14.1,12.6z"/>
<path class="st1" d="M13.5,13.2c-0.1,0-0.1,0-0.2,0c0.1-0.1,0.1-0.3,0.1-0.5c0-0.5-0.3-0.8-0.7-0.8c-0.3,0-0.5,0.2-0.7,0.5
	c-0.1-0.6-0.5-1-1.1-1c-0.6,0-1.1,0.5-1.1,1.2c0,0.1,0,0.2,0.1,0.3c-0.1,0-0.1,0-0.2,0c-0.5,0-0.9,0.4-0.9,0.9
	c0,0.5,0.4,0.9,0.8,0.9l0,0h3.8l0,0c0.4,0,0.7-0.4,0.7-0.8C14.3,13.5,13.9,13.2,13.5,13.2z"/>
</svg>
