<?xml version="1.0" encoding="utf-8"?>
<!-- Generator: Adobe Illustrator 19.1.0, SVG Export Plug-In . SVG Version: 6.00 Build 0)  -->
<svg version="1.1" id="Layer_1" xmlns="http://www.w3.org/2000/svg" xmlns:xlink="http://www.w3.org/1999/xlink" x="0px" y="0px"
	 width="50px" height="50px" viewBox="0 0 50 50" enable-background="new 0 0 50 50" xml:space="preserve">
<g>
	<path fill="#BA141A" d="M0.01,35.63c-0.085,0.532,0.369,1.076,1.362,1.483l20.316,8.324c1.829,0.75,4.795,0.75,6.625,0
		l20.316-8.324c0.993-0.407,1.447-0.951,1.362-1.483l0.005-4.768c0.062,0.522-0.394,1.052-1.367,1.451l-20.316,8.324
		c-1.829,0.75-4.795,0.75-6.625,0L1.372,32.313c-1.068-0.438-1.513-1.034-1.333-1.604L0.01,35.63z"/>
	<path fill="#BA141A" d="M48.628,29.599c1.829,0.75,1.829,1.965,0,2.714l-20.316,8.324c-1.829,0.75-4.795,0.75-6.625,0L1.372,32.313
		c-1.829-0.75-1.829-1.965,0-2.714l20.316-8.324c1.829-0.75,4.795-0.75,6.625,0L48.628,29.599z"/>
</g>
<g>
	<path fill="#BA141A" d="M0.01,27.204c-0.085,0.532,0.369,1.076,1.362,1.483l20.316,8.324c1.829,0.75,4.795,0.75,6.625,0
		l20.316-8.324c0.993-0.407,1.447-0.951,1.362-1.483l0.005-4.768c0.062,0.522-0.394,1.052-1.367,1.451l-20.316,8.324
		c-1.829,0.75-4.795,0.75-6.625,0L1.372,23.887c-1.068-0.438-1.513-1.034-1.333-1.604L0.01,27.204z"/>
	<path fill="#BA141A" d="M48.628,21.173c1.829,0.75,1.829,1.965,0,2.714l-20.316,8.324c-1.829,0.75-4.795,0.75-6.625,0L1.372,23.887
		c-1.829-0.75-1.829-1.965,0-2.714l20.316-8.324c1.829-0.75,4.795-0.75,6.625,0L48.628,21.173z"/>
</g>
<g>
	<path fill="#BA141A" d="M0.01,18.778c-0.085,0.532,0.369,1.076,1.362,1.483l20.316,8.324c1.829,0.75,4.795,0.75,6.625,0
		l20.316-8.324c0.993-0.407,1.447-0.951,1.362-1.483l0.005-4.768c0.062,0.522-0.394,1.052-1.367,1.451l-20.316,8.324
		c-1.829,0.75-4.795,0.75-6.625,0L1.372,15.461c-1.068-0.438-1.513-1.034-1.333-1.604L0.01,18.778z"/>
	<path opacity="0.25" fill="#1E1E1E" d="M0.01,35.63c-0.085,0.532,0.369,1.076,1.362,1.483l20.316,8.324
		c1.829,0.75,4.795,0.75,6.625,0l20.316-8.324c0.993-0.407,1.447-0.951,1.362-1.483l0.005-4.768
		c0.062,0.522-0.394,1.052-1.367,1.451l-20.316,8.324c-1.829,0.75-4.795,0.75-6.625,0L1.372,32.313
		c-1.068-0.438-1.513-1.034-1.333-1.604L0.01,35.63z"/>
	<path opacity="0.25" fill="#1E1E1E" d="M0.01,27.204c-0.085,0.532,0.369,1.076,1.362,1.483l20.316,8.324
		c1.829,0.75,4.795,0.75,6.625,0l20.316-8.324c0.993-0.407,1.447-0.951,1.362-1.483l0.005-4.768
		c0.062,0.522-0.394,1.052-1.367,1.451l-20.316,8.324c-1.829,0.75-4.795,0.75-6.625,0L1.372,23.887
		c-1.068-0.438-1.513-1.034-1.333-1.604L0.01,27.204z"/>
	<path opacity="0.25" fill="#1E1E1E" d="M0.01,18.778c-0.085,0.532,0.369,1.076,1.362,1.483l20.316,8.324
		c1.829,0.75,4.795,0.75,6.625,0l20.316-8.324c0.993-0.407,1.447-0.951,1.362-1.483l0.005-4.768
		c0.062,0.522-0.394,1.052-1.367,1.451l-20.316,8.324c-1.829,0.75-4.795,0.75-6.625,0L1.372,15.461
		c-1.068-0.438-1.513-1.034-1.333-1.604L0.01,18.778z"/>
	<path fill="#BA141A" d="M48.628,12.747c1.829,0.75,1.829,1.965,0,2.714l-20.316,8.324c-1.829,0.75-4.795,0.75-6.625,0L1.372,15.461
		c-1.829-0.75-1.829-1.965,0-2.714l20.316-8.324c1.829-0.75,4.795-0.75,6.625,0L48.628,12.747z"/>
</g>
<path fill="#FFFFFF" d="M18.74,15.673c-2.319,1.031-6.078,1.031-8.396,0s-2.319-2.703,0-3.735s6.078-1.031,8.396,0
	S21.059,14.642,18.74,15.673z"/>
<polygon fill="#FFFFFF" points="17.167,18.329 29.065,16.911 25.877,22.203 "/>
<polygon opacity="0.25" fill="#1E1E1E" points="35.81,16.999 28.695,13.834 35.81,10.669 42.926,13.834 "/>
<polygon opacity="0.25" fill="#1E1E1E" points="35.81,16.999 28.695,13.834 35.81,10.669 "/>
<polygon fill="#FFFFFF" points="22.717,9.966 18.072,9.546 22.198,8.508 21.661,6.412 25.156,7.837 29.47,6.963 27.504,8.881 
	30.707,10.436 25.997,10.197 23.662,12.033 "/>
</svg>
