<?xml version="1.0" encoding="UTF-8" standalone="no"?>
<!DOCTYPE svg PUBLIC "-//W3C//DTD SVG 1.1//EN" "http://www.w3.org/Graphics/SVG/1.1/DTD/svg11.dtd">
<!-- Generated by Microsoft Visio, SVG Export Service Bus.svg Page-1 -->
<svg xmlns="http://www.w3.org/2000/svg" xmlns:xlink="http://www.w3.org/1999/xlink" xmlns:ev="http://www.w3.org/2001/xml-events"
		xmlns:v="http://schemas.microsoft.com/visio/2003/SVGExtensions/" width="0.541667in" height="0.541667in" viewBox="0 0 39 39"
		xml:space="preserve" color-interpolation-filters="sRGB" class="st2">
	<v:documentProperties v:langID="1033" v:viewMarkup="false">
		<v:userDefs>
			<v:ud v:nameU="visTLShowProps" v:prompt="" v:val="VT0(0):26"/>
		</v:userDefs>
	</v:documentProperties>

	<style type="text/css">
	<![CDATA[
		.st1 {fill:#0072c6;stroke:none;stroke-linecap:butt;stroke-width:0.75}
		.st2 {fill:none;fill-rule:evenodd;font-size:12px;overflow:visible;stroke-linecap:square;stroke-miterlimit:3}
	]]>
	</style>

	<g v:mID="0" v:index="1" v:groupContext="foregroundPage">
		<title>Page-1</title>
		<v:pageProperties v:drawingScale="1" v:pageScale="1" v:drawingUnits="19" v:shadowOffsetX="9" v:shadowOffsetY="-9"/>
		<g id="shape27-1" v:mID="27" v:groupContext="shape" transform="translate(0.75,-0.75)">
			<title>Sheet.27</title>
			<path d="M18.75 21.55 C19.85 21.55 20.88 21.12 21.66 20.34 L29.37 12.63 L29.37 12.22 L8.12 12.22 L8.12 12.63 L15.84 20.34
						 C16.62 21.12 17.65 21.55 18.75 21.55 ZM22.39 21.07 C21.42 22.05 20.13 22.58 18.75 22.58 C17.37 22.58 16.08
						 22.05 15.11 21.07 L8.12 14.09 L8.12 28.28 L29.37 28.28 L29.37 14.09 L22.39 21.07 ZM0.62 1.5 C0.25 1.5 0
						 1.75 0 2.12 L0 9.62 C0 10 0.25 10.25 0.62 10.25 L4.37 10.25 C4.75 10.25 5 10 5 9.62 L5 6.5 L32.5 6.5 L32.5
						 9.63 C32.5 10 32.75 10.25 33.25 10.25 L36.87 10.25 C37.25 10.25 37.5 10 37.5 9.63 L37.5 2.13 C37.5 1.75
						 37.25 1.5 36.88 1.5 L0.62 1.5 ZM36.88 39 C37.25 39 37.5 38.75 37.5 38.38 L37.5 31 C37.5 30.63 37.25 30.38
						 36.88 30.38 L33.25 30.38 C32.88 30.38 32.63 30.63 32.63 31 L32.63 34 L5 34 L5 30.88 C5 30.5 4.75 30.25 4.25
						 30.25 L0.62 30.25 C0.25 30.25 0 30.5 0 31 L0 38.38 C0 38.75 0.25 39 0.62 39 L36.88 39 Z" class="st1"/>
		</g>
	</g>
</svg>
