<?xml version="1.0" encoding="utf-8"?>
<!-- Generator: Adobe Illustrator 18.1.0, SVG Export Plug-In . SVG Version: 6.00 Build 0)  -->
<!DOCTYPE svg PUBLIC "-//W3C//DTD SVG 1.0//EN" "http://www.w3.org/TR/2001/REC-SVG-20010904/DTD/svg10.dtd">
<svg version="1.0" xmlns="http://www.w3.org/2000/svg" xmlns:xlink="http://www.w3.org/1999/xlink" x="0px" y="0px"
	 viewBox="0 0 152 117.5" enable-background="new 0 0 152 117.5" xml:space="preserve">
<g id="Layer_1">
	<g id="Azure">
	</g>
	<g id="BizTalk_Services" transform="translate(37.3575,-2500.2)">
	</g>
	<g id="Key_Vault">
	</g>
	<g id="Mobile_Engagement">
	</g>
	<g id="Office_subscription">
		<g id="Office_subscription_1_">
		</g>
	</g>
</g>
<g id="paths">
	<g id="Access_control">
	</g>
	<g id="Azure_active_directory">
	</g>
	<g id="API_Management">
	</g>
	<g id="Azure_automation">
	</g>
	<g id="Azure_SQL_database">
	</g>
	<g id="Azure_subscription">
	</g>
	<g id="Backup_service">
	</g>
	<g id="Bitbucket_code_source">
	</g>
	<g id="Azure_cache">
	</g>
	<g id="Content_delivery_network__x28_CDN_x29_">
	</g>
	<g id="Cloud_service">
	</g>
	<g id="CodePlex">
	</g>
	<g id="Dropbox_code_source">
	</g>
	<g id="Express_route">
	</g>
	<g id="Git_repository">
	</g>
	<g id="GitHub_code">
	</g>
	<g id="HD_Insight">
	</g>
	<g id="Health_monitoring">
	</g>
	<g id="Healthy">
	</g>
	<g id="BizTalk_hybrid_connection">
	</g>
	<g id="Hybrid_connection_manager_for_BizTalk_hybrid_connection">
	</g>
	<g id="Hyper-V_recovery_manager">
	</g>
	<g id="Machine_learning">
	</g>
	<g id="Media_services">
	</g>
	<g id="Microsoft_account">
	</g>
	<g id="Mobile_services">
	</g>
	<g id="Multi-factor_authentication">
	</g>
	<g id="MySQL_database">
	</g>
	<g id="Notification_hub">
	</g>
	<g id="Notification_topic">
	</g>
	<g id="Cloud_Office_365">
	</g>
	<g id="Office_365">
	</g>
	<g id="OS_image">
	</g>
	<g id="Remote_app">
	</g>
	<g id="Task_scheduler">
	</g>
	<g id="Azure_SDK">
		<g>
			<path fill="#0078D7" d="M67.6,75.9c-0.4-0.2-0.7-0.4-0.9-0.6s-0.3-0.3-0.4-0.4c-0.1-0.1-0.1-0.3-0.1-0.6c0-0.3,0.1-0.6,0.4-0.8
				c0.3-0.2,0.6-0.3,1-0.3c0.6,0,1.1,0.1,1.5,0.4v-0.9c-0.3-0.2-0.8-0.3-1.4-0.3c-0.7,0-1.2,0.2-1.7,0.5c-0.4,0.4-0.6,0.8-0.6,1.4
				c0,0.4,0.1,0.8,0.4,1.1c0.2,0.3,0.7,0.6,1.2,1c0.6,0.4,1,0.6,1.2,0.9c0.2,0.2,0.3,0.5,0.3,0.8c0,0.7-0.5,1.1-1.4,1.1
				c-0.3,0-0.6-0.1-0.9-0.2c-0.3-0.1-0.6-0.3-0.8-0.5v1c0.1,0.1,0.4,0.2,0.7,0.3c0.3,0.1,0.6,0.1,0.9,0.1c0.7,0,1.3-0.2,1.8-0.5
				c0.4-0.3,0.6-0.8,0.6-1.4c0-0.4-0.1-0.8-0.4-1.1S68.2,76.2,67.6,75.9z"/>
			<path fill="#0078D7" d="M72.7,72.6h-2v7.2h1.9c0.8,0,1.4-0.2,2-0.5c0.6-0.3,1.1-0.7,1.4-1.3c0.3-0.6,0.5-1.2,0.5-1.9
				C76.6,73.7,75.3,72.6,72.7,72.6z M74.9,78.2c-0.5,0.5-1.3,0.8-2.2,0.8h-1.1v-5.7h1.1c2,0,2.9,0.9,2.9,2.8
				C75.7,77,75.4,77.7,74.9,78.2z"/>
			<path fill="#0078D7" d="M93.5,42.3c-0.3-0.3-0.6-0.3-0.8-0.1c-0.1,0.1-0.2,0.2-0.1,0.4c0,0.2,0.1,0.3,0.2,0.4L93.5,42.3z"/>
			<path fill="#0078D7" d="M66.1,56.6L66.1,56.6l4.1,4l1.3-1.3l-1.7-1.7l-0.8-0.7l4.2-4.1l0.5,0.1c0.1,0,0.3,0,0.4,0
				c0.3,0,0.5,0,0.8-0.1l-2.5-2.4l-0.2-0.2c0.9-3.1,0.1-6.6-2.4-9c-2.5-2.4-6.1-3.2-9.3-2.4l5.4,5.2l-1.4,5.2l-5.3,1.4l-5.4-5.3
				c-0.9,3.1,0,6.5,2.5,9C59,56.9,62.8,57.7,66.1,56.6z"/>
			<path fill="#0078D7" d="M83.1,50.5c-0.1-0.1-0.2-0.1-0.3-0.2l0,0c0.1,0.1,0.1,0.2,0.2,0.3l0.7,1.3l0.8-0.7L83.1,50.5z"/>
			<path fill="#0078D7" d="M82.7,60.3c-0.1,0.4-0.1,0.8-0.1,1.2l0.1,0.5l-0.4,0.4L79.5,65l-1,1l-2.5-2.4l-1.3,1.3l7.9,7.7h-0.9
				L79,75.7l-0.2,0.2h0v-3.4H78v7.2h0.8v-3.6h0c0.1,0.1,0.1,0.2,0.2,0.3l2.8,3.3H83L79.7,76l3-3.4l5.7,5.6c0.9,0.9,2,1.3,3.2,1.3
				c1.2,0,2.3-0.4,3.2-1.3c1.8-1.7,1.8-4.5,0-6.2L82.7,60.3z"/>
			<path fill="#0078D7" d="M75.7,61.4l2.5,2.4l2.8-2.7c-0.2-1.3,0.3-2.7,1.3-3.7c1-1,2.5-1.5,3.8-1.3l12.3-11.9l-6.9-6.6L79.3,49.4
				c0.1,1.3-0.3,2.7-1.3,3.7c-1.1,1-2.5,1.4-3.8,1.3l-2.8,2.7l2.5,2.4L61.7,71.2l-0.4-0.4l-2.3,1.8l-3.9,6l1,1l6.2-3.8l1.9-2.3
				l-0.4-0.4L75.7,61.4z M92.2,41.7c0.3-0.3,0.7-0.5,1-0.4c0.3,0,0.7,0.2,0.9,0.5l0.3,0.3l-1.4,1.4c0.3,0.3,0.7,0.3,1-0.1
				c0.2-0.2,0.4-0.5,0.5-0.8l0.5,0.5c-0.1,0.3-0.3,0.6-0.6,0.9c-0.4,0.3-0.7,0.5-1.1,0.5c-0.4,0-0.7-0.2-1.1-0.5
				c-0.4-0.4-0.5-0.8-0.5-1.2C91.8,42.3,91.9,42,92.2,41.7z M90.3,43.7l0.4,0.4l0,0c-0.2-0.4-0.1-0.7,0.1-1C90.9,43,90.9,43,91,43
				l0.6,0.6c-0.1,0-0.2,0.1-0.3,0.2c-0.1,0.1-0.2,0.3-0.2,0.5s0.1,0.4,0.3,0.5l1,1l-0.7,0.6l-2.1-2.2L90.3,43.7z M87.6,46.3l1.2,1.2
				c0.3,0.3,0.6,0.3,0.8,0.1c0.1-0.1,0.2-0.2,0.2-0.4c0-0.2-0.1-0.3-0.2-0.4l-1.2-1.2l0.7-0.6l2.1,2.2l-0.7,0.6l-0.3-0.3l0,0
				c0.1,0.4,0,0.8-0.3,1c-0.5,0.5-1,0.4-1.6-0.2L87,46.9L87.6,46.3z M86.6,47.2l0.3,0.3l0.3,2.3l1-1l0.5,0.5l-1.9,1.9L86.5,51
				l-0.3-2.4l-1,0.9L84.8,49L86.6,47.2z M82.7,49.3l4,2L86,52l-0.9-0.5l-1.1,1l0.4,0.9l-0.7,0.7l-1.8-4.1L82.7,49.3z"/>
		</g>
	</g>
</g>
<g id="Layer_57">
</g>
</svg>
