<?xml version="1.0" encoding="UTF-8" standalone="no"?>
<!DOCTYPE svg PUBLIC "-//W3C//DTD SVG 1.1//EN" "http://www.w3.org/Graphics/SVG/1.1/DTD/svg11.dtd">
<!-- Generated by Microsoft Visio, SVG Export Recovery Vault.svg Page-1 -->
<svg xmlns="http://www.w3.org/2000/svg" xmlns:xlink="http://www.w3.org/1999/xlink" xmlns:ev="http://www.w3.org/2001/xml-events"
		xmlns:v="http://schemas.microsoft.com/visio/2003/SVGExtensions/" width="0.497576in" height="0.497576in"
		viewBox="0 0 35.8255 35.8255" xml:space="preserve" color-interpolation-filters="sRGB" class="st2">
	<v:documentProperties v:langID="1033" v:viewMarkup="false"/>

	<style type="text/css">
	<![CDATA[
		.st1 {fill:#0070c0;stroke:none;stroke-linecap:round;stroke-linejoin:round;stroke-width:0.75}
		.st2 {fill:none;fill-rule:evenodd;font-size:12px;overflow:visible;stroke-linecap:square;stroke-miterlimit:3}
	]]>
	</style>

	<g v:mID="0" v:index="1" v:groupContext="foregroundPage">
		<title>Page-1</title>
		<v:pageProperties v:drawingScale="1" v:pageScale="1" v:drawingUnits="19" v:shadowOffsetX="2.83465"
				v:shadowOffsetY="-2.83465" v:shadowType="1"/>
		<g id="shape19743-1" v:mID="19743" v:groupContext="shape" transform="translate(0.374936,-0.375258)">
			<title>Sheet.19743</title>
			<path d="M15.56 14.76 L10.41 9.6 A1.09759 1.09759 -180 0 0 8.85 9.6 A1.09759 1.09759 -180 0 0 8.85 11.16 L14.01 16.31
						 A4.04165 4.04165 -180 0 0 14.01 20.26 L8.85 25.42 A1.09759 1.09759 -180 0 0 8.85 26.97 A1.09759 1.09759
						 -180 0 0 10.41 26.97 L15.56 21.81 A4.04165 4.04165 -180 0 0 19.51 21.81 L24.67 26.97 A1.09759 1.09759 -180
						 0 0 26.22 26.97 A1.09759 1.09759 -180 0 0 26.22 25.42 L21.06 20.26 A4.04165 4.04165 -180 0 0 21.06 16.31
						 L26.22 11.16 A1.09759 1.09759 -180 0 0 26.22 9.6 A1.09759 1.09759 -180 0 0 24.67 9.6 L19.51 14.76 A4.04165
						 4.04165 -180 0 0 15.56 14.76 ZM32.37 18.29 A14.8315 14.7973 -180 1 0 2.71 18.29 A14.8315 14.7973 -180 1
						 0 32.37 18.29 ZM3.18 35.83 L31.9 35.83 A3.18018 3.18018 -180 0 0 35.08 32.65 L35.08 3.93 A3.18018 3.18018
						 -180 0 0 31.9 0.75 L3.18 0.75 A3.18018 3.18018 -180 0 0 0 3.93 L0 32.65 A3.18018 3.18018 -180 0 0 3.18 35.83
						 ZM33.01 18.29 A15.4755 15.4397 0 1 1 2.06 18.29 A15.4755 15.4397 0 1 1 33.01 18.29 ZM24.14 21.82 A7.48488
						 7.48488 -180 0 0 24.14 14.76 L22.07 16.83 A4.75843 4.75843 0 0 1 22.07 19.75 L24.14 21.82 ZM14.01 24.89
						 A7.48488 7.48488 -180 0 0 21.07 24.89 L19 22.82 A4.75843 4.75843 0 0 1 16.08 22.82 L14.01 24.89 ZM10.94
						 14.76 A7.48488 7.48488 -180 0 0 10.94 21.82 L13.01 19.75 A4.75843 4.75843 0 0 1 13.01 16.83 L10.94 14.76
						 ZM13.74 11.42 A7.8814 7.84219 0 0 1 21.34 11.41 L23.72 9.04 A2.17124 2.17124 0 0 1 26.79 9.04 A2.17124 2.17124
						 0 0 1 26.79 12.11 L24.44 14.46 A7.8814 7.84219 0 0 1 24.44 22.11 L26.79 24.46 A2.17124 2.17124 0 0 1 26.79
						 27.54 A2.17124 2.17124 0 0 1 23.72 27.54 L21.34 25.16 A7.8814 7.84219 0 0 1 13.74 25.15 L11.36 27.54 A2.17124
						 2.17124 0 0 1 8.29 27.54 A2.17124 2.17124 0 0 1 8.29 24.46 L10.66 22.09 A7.8814 7.84219 0 0 1 10.66 14.48
						 L8.29 12.11 A2.17124 2.17124 0 0 1 8.29 9.04 A2.17124 2.17124 0 0 1 11.36 9.04 L13.74 11.42 ZM16.08 13.76
						 A4.75843 4.75843 0 0 1 19 13.76 L21.07 11.69 A7.48488 7.48488 -180 0 0 14.01 11.69 L16.08 13.76 Z"
					class="st1"/>
		</g>
	</g>
</svg>
