<?xml version="1.0" encoding="utf-8"?>
<!-- Generator: Adobe Illustrator 18.1.0, SVG Export Plug-In . SVG Version: 6.00 Build 0)  -->
<!DOCTYPE svg PUBLIC "-//W3C//DTD SVG 1.0//EN" "http://www.w3.org/TR/2001/REC-SVG-20010904/DTD/svg10.dtd">
<svg version="1.0" xmlns="http://www.w3.org/2000/svg" xmlns:xlink="http://www.w3.org/1999/xlink" x="0px" y="0px"
	 viewBox="0 0 152 117.5" enable-background="new 0 0 152 117.5" xml:space="preserve">
<g id="Layer_1">
</g>
<g id="paths">
	<g id="Access_control">
	</g>
	<g id="Azure_active_directory">
	</g>
	<g id="API_Management">
	</g>
	<g id="Azure_automation">
		<g id="group1274-2438_1_" transform="translate(33.8347,-3335.5)">
			<title>Automation.1274</title>
			<g id="shape1275-2439_1_" transform="translate(9.39675,-3.5805)">
				<title>Sheet.1275</title>
				<path fill="#0078D7" d="M50.9,3397c0-0.3,0-0.6,0-0.9l3.2-1.8c-0.2-1.1-0.4-2.1-0.8-3.1l-3.7,0.1c-0.3-0.6-0.6-1.1-0.9-1.6
					l1.9-3.2c-0.7-0.8-1.4-1.6-2.2-2.2l-1.9,1.1l-0.8,1.2l-1.7,2.5c2.4,1.9,3.9,4.8,3.9,8c0,5.6-4.5,10.1-10.1,10.1
					s-10.1-4.5-10.1-10.1c0-5,3.6-9.2,8.4-10l0.8-3.1l-1.8-3.2c-1.1,0.2-2.1,0.5-3.1,0.8l0.1,3.7c-0.6,0.3-1.1,0.6-1.6,0.9l-3.2-1.9
					c-0.8,0.7-1.6,1.4-2.2,2.2l1.9,3.1c-0.4,0.5-0.6,1.1-0.9,1.7l-3.7-0.1c-0.4,1-0.6,2-0.8,3.1l3.2,1.8c0,0.3,0,0.6,0,0.9
					c0,0.3,0,0.6,0,0.9l-3.2,1.8c0.2,1.1,0.5,2.1,0.8,3.1l3.7-0.1c0.3,0.6,0.6,1.1,0.9,1.7l-1.9,3.2c0.7,0.8,1.4,1.6,2.2,2.3
					l3.2-1.9c0.5,0.4,1.1,0.7,1.6,0.9l-0.1,3.7c1,0.4,2,0.6,3.1,0.8l1.8-3.2c0.3,0,0.6,0.1,0.9,0.1c0.3,0,0.6,0,0.9-0.1l1.8,3.2
					c1.1-0.2,2.1-0.5,3.1-0.8l-0.1-3.7c0.6-0.3,1.1-0.6,1.6-0.9l3.2,1.9c0.8-0.7,1.6-1.4,2.2-2.3l-1.9-3.2c0.3-0.5,0.7-1.1,0.9-1.7
					l3.7,0.1c0.4-1,0.6-2,0.8-3.1l-3.2-1.8C50.9,3397.6,50.9,3397.3,50.9,3397z"/>
			</g>
			<g id="shape1276-2441_1_">
				<title>Sheet.1276</title>
				<path fill="#0078D7" d="M27.9,3408.8c-1.2,0-2.2-1-2.2-2.2s1-2.2,2.2-2.2c1.2,0,2.2,1,2.2,2.2
					C30.1,3407.8,29.1,3408.8,27.9,3408.8z M32.2,3401l-1.8,0.9l-1.1-0.5l-0.7-1.9H27l-0.6,1.9l-1.1,0.5l-1.8-0.9l-1.1,1.1l0.9,1.8
					l-0.5,1.1l-1.9,0.7v1.6l1.9,0.6l0.5,1.1l-0.9,1.8l1.1,1.1l1.8-0.9l1.1,0.5l0.7,1.9h1.6l0.6-1.9l1.1-0.5l1.8,0.9l1.1-1.1
					l-0.9-1.8l0.5-1.1l1.9-0.7v-1.6l-1.9-0.6l-0.5-1.1l0.9-1.8L32.2,3401z"/>
			</g>
			<g id="shape1278-2445_1_" transform="translate(21.4387,-11.916)">
				<title>Sheet.1278</title>
				<path fill="#0078D7" d="M27.8,3386.9l-0.6,1.9l-2,6.4l-3.1,9.7c-0.1,0.2,0,0.3,0.2,0.3h2.8c0.1,0,0.2,0,0.2,0.1
					c0.1,0.1,0.1,0.2,0.1,0.3l-2.9,7.1c-0.1,0.2,0,0.2,0.1,0.1l9.2-10.4c0.1-0.2,0.1-0.3-0.1-0.3l-3,0l-0.6,0
					c-0.2,0-0.3-0.1-0.2-0.3l2.9-5.1l3.1-5.6l1-1.7C32.8,3388,30.4,3387.2,27.8,3386.9z"/>
			</g>
		</g>
	</g>
</g>
</svg>
