<?xml version="1.0" encoding="utf-8"?>
<!-- Generator: Adobe Illustrator 19.1.0, SVG Export Plug-In . SVG Version: 6.00 Build 0)  -->
<!DOCTYPE svg PUBLIC "-//W3C//DTD SVG 1.1//EN" "http://www.w3.org/Graphics/SVG/1.1/DTD/svg11.dtd">
<svg version="1.1" id="Layer_1" xmlns="http://www.w3.org/2000/svg" xmlns:xlink="http://www.w3.org/1999/xlink" x="0px" y="0px"
	 viewBox="-382 215 500 500" enable-background="new -382 215 500 500" xml:space="preserve">
<path fill="#DDDDDD" d="M-232.9,593H56.3c0,0,51.1-0.7,56.4-33.3c6.7-41.3-29.5-44.9-29.5-44.9s39.7-47.7,9.4-97.3
	C56,357.6-6.8,390.6-6.8,390.6s-13.3-125.2-158-95c-119.5,25-98.7,155.9-98.7,155.9s-70.1-17.7-76.6,58.2
	C-346.5,585.5-232.9,593-232.9,593z"/>
<path fill="#EDB51D" d="M-255,386L-255,386h-100v192.7c0,19.8,44,36,99,36.2v0.2h0.2c0.2,0,0.8-0.2,0.8-0.2v0.2h0.2
	c55.1,0,99.8-16.4,99.8-36.3V386H-255z"/>
<g>
	<polygon fill="#EDB51D" points="-206,464 -76,464 -76,426.2 0.4,485.4 -76,546.8 -76,507 -206,507 	"/>
	<g>
		<path opacity="0.3" fill="#FFFFFF" enable-background="new    " d="M-354.7,386.3v192.3c0,20,44.7,36.2,99.8,36.2V386.3H-354.7z"
			/>
		<path fill="#FFFFFF" d="M-155,386.3c0,20-44.7,36.2-99.8,36.2s-99.8-16.2-99.8-36.2s44.7-36.2,99.8-36.2
			C-199.7,350.2-155,366.4-155,386.3"/>
		<path fill="#7FBA00" d="M-175.4,384.2c0,13.2-35.6,23.9-79.4,23.9c-43.9,0-79.4-10.7-79.4-23.9c0-13.2,35.6-23.9,79.4-23.9
			C-211,360.4-175.4,371.1-175.4,384.2"/>
		<path fill="#B8D432" d="M-192,398.8c10.4-4,16.6-9.1,16.6-14.6c0-13.2-35.6-23.9-79.4-23.9c-43.9,0-79.4,10.7-79.4,23.9
			c0,5.5,6.2,10.5,16.7,14.6c14.5-5.6,37.2-9.3,62.8-9.3C-229.3,389.5-206.6,393.2-192,398.8"/>
	</g>
</g>
</svg>
