<?xml version="1.0" encoding="utf-8"?>
<!-- Generator: Adobe Illustrator 18.1.0, SVG Export Plug-In . SVG Version: 6.00 Build 0)  -->
<!DOCTYPE svg PUBLIC "-//W3C//DTD SVG 1.0//EN" "http://www.w3.org/TR/2001/REC-SVG-20010904/DTD/svg10.dtd">
<svg version="1.0" xmlns="http://www.w3.org/2000/svg" xmlns:xlink="http://www.w3.org/1999/xlink" x="0px" y="0px"
	 viewBox="0 0 152 117.5" enable-background="new 0 0 152 117.5" xml:space="preserve">
<g id="Layer_1">
	<g id="Azure">
	</g>
	<g id="BizTalk_Services" transform="translate(37.3575,-2500.2)">
	</g>
	<g id="Key_Vault">
	</g>
	<g id="Mobile_Engagement">
	</g>
	<g id="Office_subscription">
		<g id="Office_subscription_1_">
		</g>
	</g>
</g>
<g id="paths">
	<g id="Access_control">
	</g>
	<g id="Azure_active_directory">
	</g>
	<g id="API_Management">
	</g>
	<g id="Azure_automation">
	</g>
	<g id="Azure_SQL_database">
	</g>
	<g id="Azure_subscription">
	</g>
	<g id="Backup_service">
	</g>
	<g id="Bitbucket_code_source">
	</g>
	<g id="Azure_cache">
	</g>
	<g id="Content_delivery_network__x28_CDN_x29_">
	</g>
	<g id="Cloud_service">
	</g>
	<g id="CodePlex">
	</g>
	<g id="Dropbox_code_source">
	</g>
	<g id="Express_route">
	</g>
	<g id="Git_repository">
	</g>
	<g id="GitHub_code">
	</g>
	<g id="HD_Insight">
	</g>
	<g id="Health_monitoring">
	</g>
	<g id="Healthy">
	</g>
	<g id="BizTalk_hybrid_connection">
	</g>
	<g id="Hybrid_connection_manager_for_BizTalk_hybrid_connection">
	</g>
	<g id="Hyper-V_recovery_manager">
	</g>
	<g id="Machine_learning">
	</g>
	<g id="Media_services">
	</g>
	<g id="Microsoft_account">
	</g>
	<g id="Mobile_services">
	</g>
	<g id="Multi-factor_authentication">
	</g>
	<g id="MySQL_database">
	</g>
	<g id="Notification_hub">
	</g>
	<g id="Notification_topic">
	</g>
	<g id="Cloud_Office_365">
	</g>
	<g id="Office_365">
	</g>
	<g id="OS_image">
	</g>
	<g id="Remote_app">
	</g>
	<g id="Task_scheduler">
		<g>
			<path fill="#0078D7" d="M77.4,67.5v1.5v2.4c-0.3,0-1.5-0.2-1.7-0.3c-0.8-0.2-1.6-0.4-2.4-0.7c-0.3-0.1-0.5-0.2-0.7-0.3L72.2,70
				l-0.4-0.2l-0.3-0.2l-0.4-0.2c-0.2-0.1-0.5-0.3-0.7-0.4c-0.9-0.6-1.8-1.3-2.6-2.1c-0.8-0.8-1.5-1.7-2.1-2.7c-0.6-1-1.1-2-1.6-3.1
				c-0.8-2.2-1.2-4.5-1-6.8c0.2-2.3,0.8-4.6,1.9-6.5c1.1-2,2.5-3.7,4.2-5c0.8-0.7,1.7-1.2,2.6-1.7c0.9-0.5,1.8-0.8,2.6-1.1
				c1.8-0.6,3.5-0.9,5-0.9c1.5-0.1,2.9,0.1,4,0.3c1.1,0.2,1.9,0.5,2.5,0.7c0.3,0.1,0.5,0.2,0.7,0.2l0.2,0.1l0,0c0.1,0,0.2,0,0.3-0.1
				c0.1-0.1,0-0.2-0.1-0.3l-0.2-0.1c-0.1-0.1-0.4-0.2-0.6-0.3c-0.6-0.3-1.4-0.7-2.5-1c-1.1-0.4-2.5-0.7-4.2-0.8
				c-1.6-0.1-3.5,0-5.6,0.5c-2,0.5-4.1,1.4-6.1,2.7c-2,1.3-3.8,3.2-5.2,5.4c-1.4,2.2-2.4,4.8-2.9,7.6c-0.2,1.4-0.3,2.8-0.1,4.3
				c0.1,1.4,0.4,2.9,0.8,4.2c0.4,1.4,1,2.7,1.8,4c0.7,1.2,1.6,2.4,2.6,3.5c1,1,2.1,2,3.3,2.7c0.3,0.2,0.6,0.4,0.9,0.6l0.5,0.3
				l0.5,0.3l0.4,0.2l0.5,0.2c0.3,0.1,0.6,0.3,0.9,0.4c1.3,0.5,2.7,0.9,4,1.1c0.5,0.1,1.2,0.1,1.7,0.2v4.2l5.9-6.2L77.4,67.5z"/>
			<path fill="#0078D7" d="M79.2,41.8c-7.3,0-12.9,5.9-12.9,13.2c0,6.1,4,11.2,9.6,12.7v-1.1c0-0.5,0.4-1,0.9-1.2c0.2-0.1-0.2,0,0,0
				c0.3,0,0.7,0,0.9,0.3l2.5,2.5C87.1,67.7,92.5,62,92.5,55C92.5,47.7,86.5,41.8,79.2,41.8z M69.4,56.1c-0.6,0-1.2-0.5-1.2-1.2
				c0-0.6,0.5-1.2,1.2-1.2c0.6,0,1.2,0.5,1.2,1.2C70.5,55.6,70,56.1,69.4,56.1z M79.2,43.3c0.6,0,1.2,0.5,1.2,1.2
				c0,0.6-0.5,1.2-1.2,1.2c-0.6,0-1.2-0.5-1.2-1.2C78.1,43.9,78.6,43.3,79.2,43.3z M86.1,61.7L86,61.8c-0.8,0.8-2.2,0.8-3,0
				l-5.4-5.4c-0.5-0.5-0.2-1.1-0.2-1.7l0-0.1v-4.9c0-1.2,1-2.1,2.1-2.1h0.4c1.2,0,2.1,1,2.1,2.1V54l4.7,4.7
				C87.6,59.5,87,60.9,86.1,61.7z M89.7,56.1c-0.6,0-1.2-0.5-1.2-1.2c0-0.6,0.5-1.2,1.2-1.2c0.6,0,1.2,0.5,1.2,1.2
				C90.9,55.6,90.4,56.1,89.7,56.1z"/>
		</g>
	</g>
</g>
<g id="Layer_57">
</g>
</svg>
