<?xml version="1.0" encoding="UTF-8" standalone="no"?>
<!DOCTYPE svg PUBLIC "-//W3C//DTD SVG 1.1//EN" "http://www.w3.org/Graphics/SVG/1.1/DTD/svg11.dtd">
<!-- Generated by Microsoft Visio, SVG Export Management Portal mono.svg Page-1 -->
<svg xmlns="http://www.w3.org/2000/svg" xmlns:xlink="http://www.w3.org/1999/xlink" xmlns:ev="http://www.w3.org/2001/xml-events"
		xmlns:v="http://schemas.microsoft.com/visio/2003/SVGExtensions/" width="0.364583in" height="0.313743in"
		viewBox="0 0 26.25 22.5895" xml:space="preserve" color-interpolation-filters="sRGB" class="st2">
	<v:documentProperties v:langID="1033" v:viewMarkup="false"/>

	<style type="text/css">
	<![CDATA[
		.st1 {fill:#0078d7;stroke:#ffffff;stroke-linecap:butt;stroke-width:0.749999}
		.st2 {fill:none;fill-rule:evenodd;font-size:12px;overflow:visible;stroke-linecap:square;stroke-miterlimit:3}
	]]>
	</style>

	<g v:mID="0" v:index="1" v:groupContext="foregroundPage">
		<title>Page-1</title>
		<v:pageProperties v:drawingScale="1" v:pageScale="1" v:drawingUnits="19" v:shadowOffsetX="2.83465"
				v:shadowOffsetY="-2.83465" v:shadowType="1"/>
		<g id="group1-1" transform="translate(0.749999,-0.749999)" v:mID="1" v:groupContext="group">
			<title>Sheet.1</title>
			<g id="shape2-2" v:mID="2" v:groupContext="shape">
				<title>Sheet.2</title>
				<path d="M0 21.6 C0 22.14 0.45 22.59 0.99 22.59 L23.76 22.59 C24.3 22.59 24.75 22.14 24.75 21.6 L24.75 4.62 L0 4.62
							 L0 21.6 Z" class="st1"/>
			</g>
			<g id="shape4-4" v:mID="4" v:groupContext="shape" transform="translate(0,-17.5995)">
				<title>Sheet.4</title>
				<path d="M23.76 19.1 L0.99 19.1 C0.45 19.1 0 19.49 0 19.97 L0 22.59 L24.75 22.59 L24.75 19.97 C24.75 19.49 24.3 19.1
							 23.76 19.1 Z" class="st1"/>
			</g>
			<g id="shape5-6" v:mID="5" v:groupContext="shape" transform="translate(5.93999,-2.28)">
				<title>Sheet.5</title>
				<rect x="0" y="9.71949" width="18.81" height="12.87" class="st1"/>
			</g>
			<g id="shape6-8" v:mID="6" v:groupContext="shape" transform="translate(-4.996E-16,-2.28)">
				<title>Sheet.6</title>
				<rect x="0" y="9.71949" width="5.93999" height="12.87" class="st1"/>
			</g>
		</g>
	</g>
</svg>
