<?xml version="1.0" encoding="utf-8"?>
<!-- Generator: Adobe Illustrator 18.1.0, SVG Export Plug-In . SVG Version: 6.00 Build 0)  -->
<!DOCTYPE svg PUBLIC "-//W3C//DTD SVG 1.0//EN" "http://www.w3.org/TR/2001/REC-SVG-20010904/DTD/svg10.dtd">
<svg version="1.0" xmlns="http://www.w3.org/2000/svg" xmlns:xlink="http://www.w3.org/1999/xlink" x="0px" y="0px"
	 viewBox="0 0 152 117.5" enable-background="new 0 0 152 117.5" xml:space="preserve">
<g id="Layer_1">
	<g id="Azure">
	</g>
	<g id="BizTalk_Services" transform="translate(37.3575,-2500.2)">
	</g>
</g>
<g id="paths">
	<g id="Access_control">
	</g>
	<g id="Azure_active_directory">
	</g>
	<g id="API_Management">
	</g>
	<g id="Azure_automation">
	</g>
	<g id="Azure_SQL_database">
	</g>
	<g id="Azure_subscription">
	</g>
	<g id="Backup_service">
	</g>
	<g id="Bitbucket_code_source">
	</g>
	<g id="Azure_cache">
		<g>
			<g id="shape947-1933_1_" transform="translate(-5.97522E-013,-0.38175)">
				<title>Sheet.947</title>
				<path fill="#0078D7" d="M62.5,43.4c0-1.4,4.5-2.5,10.1-2.5c5.6,0,10.1,1.1,10.1,2.5c0,1.4-4.5,2.5-10.1,2.5
					C67,45.9,62.5,44.8,62.5,43.4z M71.5,77.1V52.9c0-3,4.7-4.4,11.6-4.4c1.6,0,3.1,0.1,4.5,0.3v-5.4c0-2.6-6.7-4.7-15-4.7
					c-8.3,0-15,2.1-15,4.7v31.2c0,2.6,6.7,4.7,15,4.7l1,0C72.3,78.6,71.5,77.9,71.5,77.1z"/>
			</g>
			<g id="shape948-1935_1_" transform="translate(16.8442,4.54747E-013)">
				<title>Sheet.948</title>
				<path fill="#0078D7" d="M66.7,55.8c-4,0-7.3-0.8-7.3-1.8c0-1,3.3-1.8,7.3-1.8c4,0,7.3,0.8,7.3,1.8C74,55,70.8,55.8,66.7,55.8z
					 M73.1,65.9l-13.3,11l5.1-8.5h-4.5l13.3-11l-5.1,8.5H73.1z M66.7,50c-5.9,0-10.4,1.5-10.4,3.3v22.4c0,1.9,4.4,3.5,10.4,3.5
					c5.9,0,10.8-1.5,10.8-3.4V53.4C77.5,51.5,72.7,50,66.7,50z"/>
			</g>
		</g>
	</g>
</g>
</svg>
