<?xml version="1.0" encoding="utf-8"?>
<!-- Generator: Adobe Illustrator 19.1.0, SVG Export Plug-In . SVG Version: 6.00 Build 0)  -->
<svg version="1.1" id="Layer_1" xmlns="http://www.w3.org/2000/svg" xmlns:xlink="http://www.w3.org/1999/xlink" x="0px" y="0px"
	 viewBox="0 0 16 16" style="enable-background:new 0 0 16 16;" xml:space="preserve">
<style type="text/css">
	.st0{fill:#0078D7;}
	.st1{fill:#F6F6F6;}
	.st2{fill:#FFFFFF;enable-background:new    ;}
</style>
<polygon class="st0" points="14.1,2.1 12.8,0.8 12.2,0.3 12.2,0.3 2.5,0.3 2.5,14 14.7,14 14.7,2.7 14.7,2.7 "/>
<polygon class="st1" points="12.2,0.8 3.1,0.8 3.1,13.5 14.1,13.5 14.1,2.7 13.4,2.7 12.2,2.7 "/>
<polygon class="st0" points="12.4,3.8 11.1,2.5 10.5,2 10.5,2 0.9,2 0.9,15.7 13,15.7 13,4.5 13,4.4 "/>
<polygon class="st2" points="10.5,2.5 1.4,2.5 1.4,15.2 12.4,15.2 12.4,4.5 11.7,4.5 10.5,4.5 "/>
<path class="st0" d="M10.6,9.5c-0.5,0-0.7,0.3-0.7,0.7v0.9c0,0.5-0.1,0.9-0.3,1.1s-0.7,0.3-1.3,0.3v-0.7c0.3,0,0.4-0.1,0.5-0.1
	c0.1-0.1,0.1-0.3,0.1-0.5v-0.9c0-0.7,0.3-1.1,0.7-1.2l0,0C9.2,9,8.9,8.6,8.9,7.9V7c0-0.5-0.3-0.7-0.7-0.7V5.5c0.1,0,0.3,0,0.3,0
	c0.4,0,0.7,0.1,0.9,0.3c0.3,0.3,0.3,0.7,0.3,1.2v0.9c0,0.5,0.3,0.7,0.7,0.7L10.6,9.5L10.6,9.5z M5.4,12.5c-0.5,0-1.1-0.1-1.3-0.3
	c-0.3-0.3-0.3-0.5-0.3-1.1v-0.9C3.8,9.7,3.6,9.4,3.2,9.4V8.7c0.4,0,0.5-0.3,0.5-0.8V7.1c0-0.5,0.1-0.9,0.4-1.1
	c0.3-0.3,0.7-0.4,1.3-0.4v0.8C5,6.3,4.7,6.6,4.7,7.1v0.8c0,0.7-0.3,1.1-0.7,1.2l0,0c0.4,0.1,0.7,0.5,0.7,1.2v0.8
	c0,0.3,0.1,0.5,0.1,0.5c0.1,0.3,0.3,0.3,0.5,0.3v0.7H5.4z"/>
</svg>
