<?xml version="1.0" encoding="utf-8"?>
<!-- Generator: Adobe Illustrator 18.1.0, SVG Export Plug-In . SVG Version: 6.00 Build 0)  -->
<!DOCTYPE svg PUBLIC "-//W3C//DTD SVG 1.0//EN" "http://www.w3.org/TR/2001/REC-SVG-20010904/DTD/svg10.dtd">
<svg version="1.0" xmlns="http://www.w3.org/2000/svg" xmlns:xlink="http://www.w3.org/1999/xlink" x="0px" y="0px"
	 viewBox="0 0 152 117.5" enable-background="new 0 0 152 117.5" xml:space="preserve">
<g id="Layer_1">
	<g id="Azure">
	</g>
	<g>
		<g>
			<rect x="59" y="43.5" fill="#006FD4" width="14.2" height="2.8"/>
			<rect x="59" y="47.8" fill="#006FD4" width="14.2" height="2.8"/>
			<rect x="59" y="52" fill="#006FD4" width="14.2" height="2.8"/>
		</g>
		<g>
			<path fill="#006FD4" d="M77.5,38.2c0-0.7-1-1.7-1.7-1.7H55.9c-0.7,0-1.1,1-1.1,1.7V58c0,0.6,0.4,1.1,1.1,1.1h20
				c0.7,0,1.6-0.6,1.6-1.1V38.2z M74.6,56.3h-17V42.1h17V56.3z"/>
			<path fill="#006FD4" d="M91.6,61.1c0-0.3-0.3-0.6-0.6-0.6H81c-0.3,0-0.6,0.3-0.6,0.6v10.1c0,0.3,0.3,0.6,0.6,0.6h10.1
				c0.3,0,0.6-0.3,0.6-0.6L91.6,61.1L91.6,61.1z M90.2,70.5h-8.5v-7.1h8.5V70.5z"/>
			<g>
				<rect x="83.1" y="64.8" fill="#006FD4" width="5.7" height="1.4"/>
			</g>
			<path fill="#006FD4" d="M87.8,53.5c0,0,1-7.7-6.1-9.2c0,0-0.7,0-1.6,0s-1.3,0.3-1.3,0.3v3.1c0,0,0.3-0.3,1.4-0.3
				c0.7,0,1.3,0,1.4,0.1c1.7,0.6,3.3,1.7,3,6h-3l4.8,6l4.7-6H87.8L87.8,53.5z"/>
			<path fill="#006FD4" d="M93.9,63.4h-0.9v2.8v7.1h-8.5h-1.4v0.9c0,0.3,0.3,0.6,0.6,0.6h10.1c0.3,0,0.6-0.3,0.6-0.6V64.1
				C94.5,63.7,94.2,63.4,93.9,63.4z"/>
			<path fill="#006FD4" d="M96.7,66.2h-0.9v2.8v7.1h-8.5H86V77c0,0.3,0.3,0.6,0.6,0.6h10.1c0.3,0,0.6-0.3,0.6-0.6V66.9
				C97.3,66.5,97,66.2,96.7,66.2z"/>
		</g>
	</g>
</g>
<g id="paths">
	<g id="Access_control">
	</g>
	<g id="Azure_active_directory">
	</g>
	<g id="API_Management">
	</g>
	<g id="Azure_automation">
	</g>
	<g id="Azure_SQL_database">
	</g>
	<g id="Azure_subscription">
	</g>
	<g id="Backup_service">
	</g>
</g>
</svg>
