<?xml version="1.0" encoding="utf-8"?>
<!-- Generator: Adobe Illustrator 19.1.0, SVG Export Plug-In . SVG Version: 6.00 Build 0)  -->
<svg version="1.1" id="Layer_1" xmlns="http://www.w3.org/2000/svg" xmlns:xlink="http://www.w3.org/1999/xlink" x="0px" y="0px"
	 viewBox="-259 348 91.8 98" style="enable-background:new -259 348 91.8 98;" xml:space="preserve">
<style type="text/css">
	.st0{fill:#0079D6;}
</style>
<g>
	<g>
		<path class="st0" d="M-216.6,382.1c-0.4,0.2-0.7,0.2-1.3,0.4V405c0.7,0.2,1.5,0.7,2.2,1.3l10.1-8.1c-0.2-0.4-0.2-1.3-0.2-2
			c0-0.7,0.2-1.8,0.4-2.4L-216.6,382.1z"/>
		<path class="st0" d="M-233.3,393.9c0.4,0.7,0.7,1.8,0.7,2.6c0,0.7-0.2,1.5-0.4,2.2l10.1,8.1c0.4-0.4,1.3-0.9,2-1.3v-23
			c-0.4-0.2-0.7-0.2-0.9-0.4L-233.3,393.9z"/>
	</g>
	<g>
		<path class="st0" d="M-214.3,413.5c-0.9,1.7-2.8,2.9-5,2.9c-3.3,0-5.7-2.4-5.7-5.7c0-0.4,0-0.9,0.2-1.3l-10.7-8.3
			c-0.9,0.7-2,0.9-3.1,0.9c-3.1,0-5.7-2.4-5.7-5.7c0-3.1,2.4-5.7,5.7-5.7c0.9,0,1.8,0.2,2.6,0.7l11.3-12.3c-0.2-0.7-0.4-1.5-0.4-2.4
			c0-3.1,2.4-5.7,5.7-5.7c3.3,0,5.7,2.4,5.7,5.7c0,0.9-0.2,2-0.7,2.6l10.9,12.3c0.9-0.4,2-0.7,2.8-0.7c3.1,0,5.7,2.4,5.7,5.7
			c0.1,2.1-0.9,3.8-2.3,4.8c1.8,0.7,3.6,1.7,5.2,3.1l7.8-6.3l-35-41.6l-35,41.6l35,28.5l7-5.7C-213.6,418.3-214.2,415.9-214.3,413.5
			z"/>
		<path class="st0" d="M-213.7,409.4c0-0.1,0.1-0.2,0.1-0.3l-0.1,0.1C-213.8,409.3-213.8,409.3-213.7,409.4z"/>
	</g>
	<path class="st0" d="M-174.8,406.8c-3.9-4.2-11.7-2.4-16.4,4.1c-5.8-7-12.8-8.3-16.6-4.1c-4,4.3-3,9.4-0.5,13.6l4.1-0.1l3.9-0.1
		l3-7.8c0.1-0.5,1-1.4,1.5-1.3c0.5,0,1.6,1,1.7,1.5v13.1l2.1-4.4c0.1-0.4,0.5-0.6,1-0.6h12.5c0.6,0,1.1,0.6,1.1,1.1
		c0,0.6-0.5,1.3-1,1.3h-11.4l-4.1,8c-0.1,0.4-1,0.6-1.4,0.6h-0.1c-0.5-0.1-0.9-0.4-0.9-0.9l-0.1-12.1l-1.2,3.3
		c-0.1,0.4-0.5,1-0.9,1.1h-3.7h-5c4.9,7.2,13.3,13.2,15.8,14.2v0.1l0,0l0,0v-0.1C-186.6,435.4-163.9,418.5-174.8,406.8z"/>
</g>
</svg>
