<?xml version="1.0" encoding="utf-8"?>
<!-- Generator: Adobe Illustrator 18.1.0, SVG Export Plug-In . SVG Version: 6.00 Build 0)  -->
<!DOCTYPE svg PUBLIC "-//W3C//DTD SVG 1.0//EN" "http://www.w3.org/TR/2001/REC-SVG-20010904/DTD/svg10.dtd">
<svg version="1.0" xmlns="http://www.w3.org/2000/svg" xmlns:xlink="http://www.w3.org/1999/xlink" x="0px" y="0px"
	 viewBox="0 0 152 117.5" enable-background="new 0 0 152 117.5" xml:space="preserve">
<g id="Layer_1">
	<g id="Azure">
	</g>
	<g id="BizTalk_Services" transform="translate(37.3575,-2500.2)">
	</g>
	<g id="Key_Vault">
	</g>
	<g id="Mobile_Engagement">
	</g>
	<g id="Office_subscription">
		<g id="Office_subscription_1_">
		</g>
	</g>
</g>
<g id="paths">
	<g id="Access_control">
	</g>
	<g id="Azure_active_directory">
	</g>
	<g id="API_Management">
	</g>
	<g id="Azure_automation">
	</g>
	<g id="Azure_SQL_database">
	</g>
	<g id="Azure_subscription">
	</g>
	<g id="Backup_service">
	</g>
	<g id="Bitbucket_code_source">
	</g>
	<g id="Azure_cache">
	</g>
	<g id="Content_delivery_network__x28_CDN_x29_">
	</g>
	<g id="Cloud_service">
	</g>
	<g id="CodePlex">
	</g>
	<g id="Dropbox_code_source">
	</g>
	<g id="Express_route">
	</g>
	<g id="Git_repository">
	</g>
	<g id="GitHub_code">
	</g>
	<g id="HD_Insight">
	</g>
	<g id="Health_monitoring">
	</g>
	<g id="Healthy">
	</g>
	<g id="BizTalk_hybrid_connection">
	</g>
	<g id="Hybrid_connection_manager_for_BizTalk_hybrid_connection">
	</g>
	<g id="Hyper-V_recovery_manager">
	</g>
	<g id="Machine_learning">
	</g>
	<g id="Media_services">
	</g>
	<g id="Microsoft_account">
	</g>
	<g id="Mobile_services">
	</g>
	<g id="Multi-factor_authentication">
	</g>
	<g id="MySQL_database">
	</g>
	<g id="Notification_hub">
	</g>
	<g id="Notification_topic">
	</g>
	<g id="Cloud_Office_365">
	</g>
	<g id="Office_365">
	</g>
	<g id="OS_image">
	</g>
	<g id="Remote_app">
	</g>
	<g id="Task_scheduler">
	</g>
	<g id="Azure_SDK">
	</g>
	<g id="Service_bus">
	</g>
	<g id="Service_bus_queue">
	</g>
	<g id="Service_bus_relay">
	</g>
	<g id="Service_bus_topic">
	</g>
	<g id="Service_endpoint">
	</g>
	<g id="Custom_create">
	</g>
	<g id="SQL_data_sync">
	</g>
	<g id="SQL_reporting">
	</g>
	<g id="Startup_task">
	</g>
	<g id="Windows_Azure_storage">
	</g>
	<g id="Storage_blob">
	</g>
	<g id="Storage_table">
	</g>
	<g id="Storage_queue">
	</g>
	<g id="StorSimple">
	</g>
	<g id="Traffic_manager">
	</g>
	<g id="VHD">
	</g>
	<g id="VHD_data_disk">
	</g>
	<g id="Virtual_machine">
	</g>
	<g id="Team_foundation">
	</g>
	<g id="Azure_web_site">
	</g>
	<g id="Web_role">
	</g>
	<g id="Web_roles">
	</g>
</g>
<g id="Layer_57">
	<g>
		<path fill="#006FD4" d="M73.8,70.8c-0.1-0.1-0.2-0.1-0.3-0.1V70v-0.6c0-0.2-0.2-0.4-0.5-0.5c-0.3,0-0.5,0.2-0.5,0.5v1.9
			c0,0.1,0,0.1,0.1,0.1c0,0.1,0.1,0.2,0.2,0.3l1.9,1.7c0.2,0.2,0.6,0.2,0.8,0l0.1-0.1c0.2-0.2,0.2-0.6,0-0.8L73.8,70.8z"/>
		<path fill="#006FD4" d="M69.2,71.1c-0.1,0-0.2,0.1-0.2,0.2c0,0.1,0.1,0.2,0.2,0.2c0.1,0,0.2-0.1,0.2-0.2
			C69.5,71.2,69.4,71,69.2,71.1z"/>
		<path fill="#006FD4" d="M73.1,67.7c0.1,0,0.2-0.1,0.2-0.2c0-0.1-0.1-0.2-0.2-0.2c-0.1,0-0.2,0.1-0.2,0.2
			C72.9,67.6,73,67.7,73.1,67.7z"/>
		<path fill="#006FD4" d="M77,71.1c0,0.1,0.1,0.2,0.2,0.2c0.1,0,0.2-0.1,0.2-0.2c0-0.1-0.1-0.2-0.2-0.2C77.1,70.8,77,71,77,71.1z"/>
		<path fill="#006FD4" d="M72.9,75.2c-0.1,0-0.2,0.1-0.2,0.2c0,0.1,0.1,0.2,0.2,0.2c0.1,0,0.2-0.1,0.2-0.2
			C73.1,75.3,73,75.2,72.9,75.2z"/>
		<path fill="#006FD4" d="M79.5,71.2c0-0.2,0-0.3,0-0.5l1.5-0.9c-0.1-0.5-0.2-1-0.4-1.5h0l0,0l-1.7,0.1c-0.1-0.2-0.2-0.4-0.4-0.6
			c0,0-0.1-0.1-0.1-0.1c0,0,0,0,0,0l0.9-1.5c-0.1-0.1-0.3-0.3-0.4-0.4c-0.2-0.2-0.5-0.4-0.7-0.6L76.7,66c-0.3-0.2-0.5-0.3-0.8-0.4
			l0-0.8l0-0.9c0,0,0,0,0,0v0c-0.5-0.2-1-0.3-1.5-0.4L73.6,65c-0.1,0-0.3,0-0.4,0c-0.2,0-0.3,0-0.5,0l-0.9-1.5
			c-0.5,0.1-1,0.2-1.5,0.4l0,0c0,0,0,0,0,0l0.1,1.7c-0.3,0.1-0.5,0.3-0.8,0.5l-1.5-0.9c-0.2,0.2-0.5,0.4-0.7,0.7
			c-0.1,0.1-0.3,0.3-0.4,0.4l0.5,0.9l0,0l0.4,0.6c-0.2,0.3-0.3,0.5-0.4,0.8l-1.8,0c-0.2,0.5-0.3,1-0.4,1.5l1.6,0.8
			c0,0.2,0,0.3,0,0.5c0,0.2,0,0.3,0,0.5l0,0l0,0l-1.5,0.9c0.1,0.5,0.2,1,0.4,1.5l0,0l0,0l0.9,0l0.8,0c0.1,0.3,0.3,0.5,0.5,0.8
			l-0.9,1.5c0.3,0.3,0.5,0.6,0.8,0.8c0.1,0.1,0.2,0.1,0.3,0.2l0.9-0.5l0,0l0.6-0.4c0.3,0.2,0.5,0.3,0.8,0.4l0,1.8
			c0.5,0.2,1,0.3,1.5,0.4l0.8-1.5c0.2,0,0.3,0,0.5,0c0.2,0,0.3,0,0.5,0l0.4,0.6l0.5,0.9c0.5-0.1,1-0.2,1.5-0.4l0,0c0,0,0,0,0,0
			l0-0.9l0-0.8c0.2-0.1,0.5-0.2,0.7-0.4c0,0,0,0,0,0c0,0,0,0,0.1,0l1.5,0.9c0.2-0.1,0.3-0.3,0.5-0.5c0.2-0.2,0.4-0.4,0.6-0.6
			l-0.9-1.5c0,0,0,0,0-0.1c0,0,0,0,0,0c0.1-0.2,0.3-0.5,0.4-0.7l0.8,0l0.9,0l0,0l0,0c0.2-0.5,0.3-1,0.4-1.5l-1.6-0.8
			C79.5,71.5,79.5,71.3,79.5,71.2z M74.1,76L74.1,76c-0.3,0.1-0.5,0.1-0.8,0.1c-1.1,0-2.2-0.3-3-1l0,0c-1.2-0.9-1.9-2.3-1.9-3.8
			c0-1.1,0.4-2.2,1-3c0.9-1.2,2.2-1.9,3.8-1.9c1.8,0,3.3,0.9,4.2,2.3c0.5,0.7,0.7,1.6,0.7,2.5C78.1,73.6,76.4,75.6,74.1,76z"/>
		<path fill="#006FD4" d="M90.4,69.2l-1.1-0.7l-0.1-0.9l1-1.2l-0.6-1.1l-0.2,0L88,65.7l-0.7-0.5l-0.1-1.5L86,63.3l-0.1,0.2l-0.7,1.1
			l-0.9,0.1l-1.2-1l-1,0.6l0,0.2l0.3,1.3l-0.5,0.7l-1.5,0.1L80,67.8l0.2,0.1l1.1,0.7l0.1,0.9l-0.9,1.1c0.1,0.2,0.1,0.4,0.2,0.6
			l0.3,0.6l0.2,0l1.3-0.3l0.7,0.5l0.1,1.5l1.2,0.3l0.1-0.2l0.7-1.1l0.9-0.1l1.2,1l1-0.6l0-0.2l-0.3-1.3l0.5-0.7l1.6-0.1l0.3-1.2
			L90.4,69.2z M86.9,69c-0.2,0.9-1.2,1.4-2.1,1.2c-0.9-0.2-1.4-1.2-1.2-2.1c0.2-0.9,1.2-1.5,2.1-1.2C86.6,67.2,87.1,68.1,86.9,69z"
			/>
		<path fill="#006FD4" d="M89.8,65l0.6,1c1.3-2.7,1.3-4.1,1.5-4.8c1.1-5.2,0-10.9-3.5-15.4c-3.7-4.9-9.4-7.4-15-7.4
			c-4,0-8.1,1.3-11.5,3.9c-8.3,6.4-9.9,18.2-3.5,26.5c1.9,2.5,4.4,4.4,7.2,5.7l-0.6-2l1-0.5c-1-0.5-2-1.2-3-1.9
			c-0.1-1.8,0-4.5,1.1-7.5c0.8,0.1,1.5-0.1,2.3-0.4c0.4,0.4,0.9,0.8,1.3,1.1c0.4,0.3,1.6,1.1,2.4,1.6l0-1.3l2.3-0.7
			C71,62,69.7,61.1,69.5,61c-0.3-0.2-0.6-0.5-0.9-0.7c0.9-1.5,1-3.4,0.2-5c0.2-0.2,0.4-0.4,0.6-0.6c1.5-1.4,2.9-2.6,4.3-3.5l6.3,5.3
			c-0.5,1.2-0.5,2.6,0.4,3.6c1.2,1.6,3.4,1.8,5,0.7c0.1-0.1,0.1-0.1,0.2-0.2c1.3,0.9,2.6,1.8,3.3,2.3l-0.8,2.3l0.3,0.2 M59.9,66.7
			c-4-5.7-3.9-13.2-0.1-18.7c-0.4,1.6-0.5,3.9,0.7,6.6c-1.3,1.7-1.4,4.2,0,6c0.1,0.1,0.2,0.3,0.4,0.4C60.3,63,60,65,59.9,66.7z
			 M70.6,48.1c-1.5,1-3,2.3-4.6,4c-0.2,0.2-0.4,0.4-0.6,0.6c-0.9-0.2-1.8-0.1-2.7,0.2c-1.5-3.2-1.4-5.7-1.2-7.1
			c0.6-0.6,1.1-1.1,1.8-1.6c0.9-0.7,1.8-1.2,2.8-1.7C67.3,44.4,68.9,46.3,70.6,48.1L70.6,48.1z M72.9,46.7L72.9,46.7
			C72.9,46.7,72.9,46.7,72.9,46.7L72.9,46.7c-1.5-1.6-3-3.2-4.6-5c1.6-0.5,3.3-0.8,5-0.8c3.8,0,7.5,1.3,10.5,3.8
			C81.4,44.2,77.4,44.3,72.9,46.7z M89.3,61.5c-0.7-0.5-1.6-1.2-2.8-2.2c0.4-1.1,0.3-2.4-0.5-3.4c-1.1-1.4-3-1.8-4.6-0.9
			c-1.7-1.5-3.5-3.2-5.5-5.2v0c0,0,0,0,0,0c5.8-3.1,9.9-2.8,10.3-2.8c0.1,0.1,0.1,0.2,0.2,0.2C89.7,51.5,90.6,56.7,89.3,61.5z"/>
	</g>
</g>
<g id="Ibiza_Symbols">
	<g id="SQL_Database_Premium">
	</g>
</g>
</svg>
