<?xml version="1.0" encoding="UTF-8" standalone="no"?>
<!DOCTYPE svg PUBLIC "-//W3C//DTD SVG 1.1//EN" "http://www.w3.org/Graphics/SVG/1.1/DTD/svg11.dtd">
<!-- Generated by Microsoft Visio, SVG Export Azure Data Lake.svg Page-1 -->
<svg xmlns="http://www.w3.org/2000/svg" xmlns:xlink="http://www.w3.org/1999/xlink" xmlns:ev="http://www.w3.org/2001/xml-events"
		xmlns:v="http://schemas.microsoft.com/visio/2003/SVGExtensions/" width="0.584175in" height="0.956511in"
		viewBox="0 0 42.0606 68.8688" xml:space="preserve" color-interpolation-filters="sRGB" class="st2">
	<v:documentProperties v:langID="1033" v:viewMarkup="false">
		<v:userDefs>
			<v:ud v:nameU="visTLShowProps" v:prompt="" v:val="VT0(0):26"/>
		</v:userDefs>
	</v:documentProperties>

	<style type="text/css">
	<![CDATA[
		.st1 {fill:#0078d7;stroke:none;stroke-linecap:butt;stroke-width:0.75}
		.st2 {fill:none;fill-rule:evenodd;font-size:12px;overflow:visible;stroke-linecap:square;stroke-miterlimit:3}
	]]>
	</style>

	<g v:mID="0" v:index="1" v:groupContext="foregroundPage">
		<title>Page-1</title>
		<v:pageProperties v:drawingScale="1" v:pageScale="1" v:drawingUnits="19" v:shadowOffsetX="2.83465"
				v:shadowOffsetY="-2.83465" v:shadowType="1"/>
		<g id="shape1436-1" v:mID="1436" v:groupContext="shape" transform="translate(0.704761,-0.75)">
			<title>Data Lake (nc)</title>
			<path d="M39.29 26.55 L22.54 26.55 L29.53 3.21 C29.66 2.55 29.4 1.9 28.87 1.63 C28.74 1.5 28.48 1.5 28.34 1.5 C27.95
						 1.5 27.55 1.76 27.29 2.03 L0.26 41.45 C-0 41.84 -0 42.37 0.13 42.77 C0.4 43.16 0.79 43.42 1.32 43.42 L17.53
						 43.42 L10.28 67.15 C10.15 67.81 10.42 68.47 10.94 68.74 C11.07 68.87 11.34 68.87 11.47 68.87 C11.87 68.87
						 12.26 68.61 12.52 68.34 L40.34 28.53 C40.47 28.26 40.61 28 40.61 27.74 C40.61 27.08 39.95 26.55 39.29 26.55
						 Z" class="st1"/>
		</g>
	</g>
</svg>
