<?xml version="1.0" encoding="utf-8"?>
<!-- Generator: Adobe Illustrator 18.1.0, SVG Export Plug-In . SVG Version: 6.00 Build 0)  -->
<!DOCTYPE svg PUBLIC "-//W3C//DTD SVG 1.0//EN" "http://www.w3.org/TR/2001/REC-SVG-20010904/DTD/svg10.dtd">
<svg version="1.0" xmlns="http://www.w3.org/2000/svg" xmlns:xlink="http://www.w3.org/1999/xlink" x="0px" y="0px"
	 viewBox="0 0 152 117.5" enable-background="new 0 0 152 117.5" xml:space="preserve">
<g id="Layer_1">
	<g id="Azure">
	</g>
	<g id="BizTalk_Services" transform="translate(37.3575,-2500.2)">
	</g>
</g>
<g id="paths">
	<g id="Access_control">
	</g>
	<g id="Azure_active_directory">
	</g>
	<g id="API_Management">
	</g>
	<g id="Azure_automation">
	</g>
	<g id="Azure_SQL_database">
	</g>
	<g id="Azure_subscription">
	</g>
	<g id="Backup_service">
	</g>
	<g id="Bitbucket_code_source">
	</g>
	<g id="Azure_cache">
	</g>
	<g id="Content_delivery_network__x28_CDN_x29_">
	</g>
	<g id="Cloud_service">
	</g>
	<g id="CodePlex">
	</g>
	<g id="Dropbox_code_source">
	</g>
	<g id="Express_route">
	</g>
	<g id="Git_repository">
	</g>
	<g id="GitHub_code">
	</g>
	<g id="HD_Insight">
		<g>
			<path fill="#0078D7" d="M83.6,72.6c-0.3-0.9-1.3-2.6-1.3-2.6s-0.2,2.5-1.9,5c-1.7,2.5-2.8,2.9-2.8,2.9s-0.1,0.8,0.8,0.9
				c0.3,0,4.1,0,4.7,0c0.7,0,1.2-0.6,1.2-1.3c0-0.7-0.6-1.5-0.6-1.5S83.9,73.5,83.6,72.6z"/>
			<path fill="#0078D7" d="M50.1,66.8C50.1,66.8,50.1,66.8,50.1,66.8c0,0-1.4,1.6-2.3,2.8c-0.9,1.2-0.3,2-0.3,2s2.5,4.1,4.6,3.5
				c0.7-0.2,1.3-1.3,1.3-1.3s-0.9-1.2-1.6-2.7C50.9,69.5,50.2,67.2,50.1,66.8z"/>
			<path fill="#0078D7" d="M105.6,48.9c-0.3-7.9-2.5-10-3.1-10c-0.8,0.1-1.1,1.4-2,2c-1.2,0.9-2,0.7-2.7,1.4
				c-0.7,0.7,0.7,2.5,0.5,7.2c-0.2,4.3-3,5.9-3,5.9s1.3-1.9,1.5-3.2c0.2-1-0.4-1.2-0.8-1.5c-0.8-0.7-2.4,1.1-2.8,1.5
				c0.7-0.8,1.8-1.7,1.4-2.5c-0.8-1.3-2.5-0.4-2.9-0.3c0.4-0.2,1.2-0.5,1-1.3c-0.3-1.4-1.7-1.1-1.9-1c0.6-0.3,0.9-0.6,2.5-0.5
				c0.9,0,0.7-0.9,0.1-1.6c-0.9-1.1-1.5-1.5-2.2-1.7c-0.8-0.3-2.4-0.1-2.4-0.1s1.1-0.7,1.7-0.6c-0.8-1.1-3.4-5.1-7.9-5.3
				c-8.2-0.4-10.6,4.9-10.6,4.9l4-0.2c0,0-1.2,0.5-3.6,0.9c-1.9,0.3-1.8,0.3-2.4,0.4c-0.9,0.2-3.2,3-5.3,5.4
				c-2.2,2.3-4.3,5.4-4.3,6.6s1.2,2,1.9,3S63,60,63,60l2.9-3.4l-3.4,7c0,0,1.6,2.1,3.3,1.9c1.3-0.2,4.2-2.5,6-2.8
				c1.9-0.4,2.7-0.1,2.7-0.1s1.3-3.4,0.7-5.8c-1.1-4.3-0.3-6.6,0.6-8c-0.7,5.7,1.2,6.1,1.1,9.8c-0.1,2.8-1,5.8-1,5.8
				s-2.7-0.9-4.8,0.2c-2.1,1.1-3.9,2.6-5.9,2.6c-2.1,0-4.9-3.6-4.9-3.6l1.5-2.2c0,0-0.2-0.7-0.8-1.4c-0.9-1.1-2.4-2.7-2.5-4
				c-0.1-2.2,2.1-4.6,2.9-5.5c0.8-1,3.2-3.6,3.2-3.6s-7,1-9.9,4.4c-3.5,4.2-4,5.4-5.3,5.6s-1.8-1.2-1.8-1.2s1-0.1,0.9-1.3
				c-0.2-1.9,0.3-3,0.3-3s-2.1,1.3-2.5,2.6c-0.4,1.4,0.5,1.7,0.5,1.7s0,2.4,1.4,2.9c1.4,0.6,2.5,0.1,2.5,0.1s-0.9,4.4,0.3,7.6
				c1.2,3.2,3.6,6.7,3.6,6.7s-0.2,2.4-0.5,3c-0.2,0.6-1.1,2,0.3,3c1.4,1,4.9,1.4,5.7,0.9c0.8-0.5,0.6-1.9,0.7-2.4s1.2-2.5,1.4-3
				c0.1-0.6,0.1-3.6-0.1-4.6c0.2,0.5,1.1,2.8,4.4,2.9c3,0.1,4-1.5,4-2.6c0,0.5,0.2,2.7-0.1,3.1c-0.3,0.4-1.2,0.7-2.1,1.2
				c-0.9,0.6-2.1,1.2-0.1,3.6c2.2,2.8,2.6,3,4.5,1.5c1.9-1.5,3.9-2.9,5.3-4.7s3.9-8.4,3.9-8.4s-1.5-1-2.5-2.3
				c-0.7-1-0.9-1.6-0.9-1.6s2,2,4.1,2.5c0.8,0.9,2.1,2.2,3.2,2.6c4.1,1.7,5.4-3.4,5.4-3.4L91,64.1c0,0-1.1,2.6-2.9,2.4
				c-3.6-0.4-2.5-7.8-2.5-7.8s3.6,5.2,10.9,5C100.9,63.7,106,58.4,105.6,48.9z M80.2,48.5c0,0,0.3-3.4,1-3.9
				c0.9-0.6,3.3,0.2,3.3,0.2s-1.5,0-2.4,0.8C81.3,46.3,80.2,48.5,80.2,48.5z M86.1,51.5c-1.1,0.9-2.1,2-2.1,2s0.2-0.5,0.4-0.8
				s0.5-0.8,0.5-0.8s-0.4-0.1-0.9-0.6c-0.3-0.3-0.4-0.6-0.5-0.8c0,0-0.2,0.1-0.5,0.4c-0.3,0.2-0.7,0.7-0.7,0.7s1-1.9,2.4-2.9
				c1.5-1,3-1,3-1s-0.2,0-0.7,0.3c-0.5,0.2-0.5,0.3-0.5,0.3s0.5,0.2,0.9,0.6c0.4,0.5,0.5,1.1,0.5,1.1s0.1,0,0.6-0.2
				c0.5-0.2,1-0.2,1-0.2S87.6,50.3,86.1,51.5z M101.2,42.6c-1.2,0.9-2.5,1-2.6,0.6c-0.2-0.4,0.1-0.4,0.1-0.4s1.3-0.5,2-1
				c0.9-0.7,1.7-2.3,2-1.9C102.9,40.3,102.1,41.9,101.2,42.6z"/>
		</g>
	</g>
</g>
</svg>
