<?xml version="1.0" encoding="utf-8"?>
<!-- Generator: Adobe Illustrator 18.1.0, SVG Export Plug-In . SVG Version: 6.00 Build 0)  -->
<!DOCTYPE svg PUBLIC "-//W3C//DTD SVG 1.0//EN" "http://www.w3.org/TR/2001/REC-SVG-20010904/DTD/svg10.dtd">
<svg version="1.0" xmlns="http://www.w3.org/2000/svg" xmlns:xlink="http://www.w3.org/1999/xlink" x="0px" y="0px"
	 viewBox="0 0 152 117.5" enable-background="new 0 0 152 117.5" xml:space="preserve">
<g id="Layer_1">
	<g id="Azure">
	</g>
	<g id="BizTalk_Services" transform="translate(37.3575,-2500.2)">
	</g>
	<g id="Key_Vault">
	</g>
	<g id="Mobile_Engagement">
	</g>
</g>
<g id="paths">
	<g id="Access_control">
	</g>
	<g id="Azure_active_directory">
	</g>
	<g id="API_Management">
	</g>
	<g id="Azure_automation">
	</g>
	<g id="Azure_SQL_database">
	</g>
	<g id="Azure_subscription">
	</g>
	<g id="Backup_service">
	</g>
	<g id="Bitbucket_code_source">
	</g>
	<g id="Azure_cache">
	</g>
	<g id="Content_delivery_network__x28_CDN_x29_">
	</g>
	<g id="Cloud_service">
	</g>
	<g id="CodePlex">
	</g>
	<g id="Dropbox_code_source">
	</g>
	<g id="Express_route">
	</g>
	<g id="Git_repository">
	</g>
	<g id="GitHub_code">
	</g>
	<g id="HD_Insight">
	</g>
	<g id="Health_monitoring">
	</g>
	<g id="Healthy">
	</g>
	<g id="BizTalk_hybrid_connection">
	</g>
	<g id="Hybrid_connection_manager_for_BizTalk_hybrid_connection">
	</g>
	<g id="Hyper-V_recovery_manager">
	</g>
	<g id="Machine_learning">
	</g>
	<g id="Media_services">
	</g>
	<g id="Microsoft_account">
	</g>
	<g id="Mobile_services">
	</g>
	<g id="Multi-factor_authentication">
	</g>
	<g id="MySQL_database">
		<g id="shape128-232_1_" transform="translate(41.9835,-1350.98)">
			<title>Sheet.128</title>
			<path fill="#0078D7" d="M44.9,1414.8c0,1.5-1.5,2.2-3,2.3h-5.3v-1.9h5.3c0.3,0,0.4-0.7,0.4-0.7l-0.9,0.3l-2,0c-1.8,0-2.9-0.9-3-2
				v-0.2c0-2,0-2.8,0-3.1l-1-0.6v6h-2.7v-4.4l-1.5,3.2c-0.4,0.9-1,1.2-1.9,1.2c-1,0-1.6-0.4-2-1.2l-1.5-3.3v4.4h-2.4v-6.8
				c0-0.8,0.2-1.3,0.9-1.6c0.4-0.1,0.8-0.2,1.1-0.2c0.9,0,1.6,0.5,2,1.3l1.9,4.3l2-4.3c0.4-0.8,1.1-1.3,2-1.3c0.3,0,0.7,0.1,1.1,0.2
				c0.7,0.2,1.1,0.8,1.1,1.6v1h3.9v3.6c0,0.1,0.1,0.1,0.4,0.1l0.7,0h1.9v-3.7h2.7L44.9,1414.8z M34,1393.8c5.2,0,9.4,1.3,9.4,2.9
				c0,1.6-4.2,2.9-9.4,2.9c-5.2,0-9.4-1.3-9.4-2.9C24.6,1395.1,28.8,1393.8,34,1393.8z M34,1391.9c-7.3,0-13.2,2.5-13.2,5.2v24.6
				c0,2.7,5.9,5.8,13.2,5.8c7.3,0,13.1-3,13.1-5.7v-24.6C47.2,1394.5,41.3,1391.9,34,1391.9z"/>
		</g>
	</g>
</g>
</svg>
