<?xml version="1.0" encoding="utf-8"?>
<!-- Generator: Adobe Illustrator 18.1.0, SVG Export Plug-In . SVG Version: 6.00 Build 0)  -->
<!DOCTYPE svg PUBLIC "-//W3C//DTD SVG 1.1//EN" "http://www.w3.org/Graphics/SVG/1.1/DTD/svg11.dtd">
<svg version="1.1" xmlns="http://www.w3.org/2000/svg" xmlns:xlink="http://www.w3.org/1999/xlink" x="0px" y="0px"
	 viewBox="0 0 230 177.7" enable-background="new 0 0 230 177.7" xml:space="preserve">
<g id="Layer_1">
</g>
<g id="Ibiza_Symbols">
	<g>
		<path fill="#0078D7" d="M131,71.7H97.9c-1.1,0-2,1-2,2.1v23.1c0,1.1,0.9,2.1,2,2.1h11.3c1.2,4.3-0.4,4.9-7.6,4.9v2.3h9.1h6.7h8.6
			v-2.3c-7.2,0-7.9-0.6-6.7-4.9H131c1.1,0,2.3-1,2.3-2.1V73.8C133.3,72.7,132.1,71.7,131,71.7z M130.4,74.5v21.6H98.7V74.5H130.4
			L130.4,74.5z"/>
		<g id="group975-1984_1_" transform="translate(1176.51,-2762.63)">
			<title>Sheet.975</title>
			<g id="shape976-1985_2_" transform="translate(0.8685,-17.652)">
				<title>Sheet.976</title>
				<path fill="#0078D7" d="M-1057.4,2861.6l-5.8-3.3l-5.8,3.3v0.1l5.8,3.3L-1057.4,2861.6L-1057.4,2861.6z"/>
			</g>
			<g id="shape977-1987_1_" transform="translate(15.8925,0)">
				<title>Sheet.977</title>
				<path fill="#0078D7" d="M-1077.6,2848.3v6.6l5.8-3.3v-6.6L-1077.6,2848.3z"/>
			</g>
			<g id="shape978-1989_1_">
				<title>Sheet.978</title>
				<path fill="#0078D7" d="M-1062.9,2848.3l-5.8-3.3v6.6l5.8,3.3V2848.3z"/>
			</g>
		</g>
	</g>
</g>
</svg>
