<?xml version="1.0" encoding="UTF-8" standalone="no"?>
<!DOCTYPE svg PUBLIC "-//W3C//DTD SVG 1.1//EN" "http://www.w3.org/Graphics/SVG/1.1/DTD/svg11.dtd">
<!-- Generated by Microsoft Visio, SVG Export Recovery.svg Layer_1 -->
<svg xmlns="http://www.w3.org/2000/svg" xmlns:xlink="http://www.w3.org/1999/xlink" xmlns:ev="http://www.w3.org/2001/xml-events"
		xmlns:v="http://schemas.microsoft.com/visio/2003/SVGExtensions/" width="0.520833in" height="0.520833in"
		viewBox="0 0 37.5 37.5" xml:space="preserve" color-interpolation-filters="sRGB" class="st2">
	<v:documentProperties v:langID="1033" v:viewMarkup="false"/>

	<style type="text/css">
	<![CDATA[
		.st1 {fill:#0072c6;stroke:none;stroke-linecap:butt;stroke-width:0.75}
		.st2 {fill:none;fill-rule:evenodd;font-size:12px;overflow:visible;stroke-linecap:square;stroke-miterlimit:3}
	]]>
	</style>

	<g v:mID="0" v:index="1" v:groupContext="foregroundPage">
		<title>Layer_1</title>
		<v:pageProperties v:drawingScale="1" v:pageScale="1" v:drawingUnits="19" v:shadowOffsetX="9" v:shadowOffsetY="-9"/>
		<g id="shape4-1" v:mID="4" v:groupContext="shape" transform="translate(0,-3.75)">
			<title>Sheet.4</title>
			<path d="M21.3 16.35 C25.8 16.35 29.47 19.72 30 24 C31.05 24.82 31.88 25.8 32.47 26.85 C35.4 26.1 37.42 23.55 37.42 20.47
						 C37.42 18 36.08 16.05 33.75 14.92 L33.75 14.1 C33.75 9.75 30.15 6.15 25.8 6.15 C23.17 6.15 20.77 7.42 19.28
						 9.45 C18.3 8.85 17.25 8.55 16.05 8.55 C12.9 8.55 10.35 10.95 10.05 13.95 C10.5 13.87 11.03 13.87 11.55 13.87
						 C13.88 13.87 16.5 14.25 18.67 16.57 L21.3 16.35 ZM18.45 19.8 L18.45 19.87 L18.45 19.8 ZM18.45 19.8 C16.35
						 21.15 15.6 23.1 15.52 25.2 L18.15 25.2 L14.18 29.92 L10.13 25.2 L12.82 25.2 C12.9 22.35 14.02 19.65 15.97
						 17.92 C14.7 17.1 13.2 16.65 11.62 16.65 C7.2 16.65 3.6 20.17 3.6 24.52 L3.6 25.35 C1.35 26.47 0 28.42 0
						 30.9 C0 34.65 3 37.5 6.9 37.5 L23.92 37.5 C27.82 37.5 30.82 34.58 30.82 30.9 C30.82 28.5 29.62 26.62 27.37
						 25.5 L27.37 25.05 C27.37 21.75 24.67 19.05 21.37 19.05 C20.32 19.05 19.35 19.35 18.45 19.8 Z" class="st1"/>
		</g>
	</g>
</svg>
