<?xml version="1.0" encoding="utf-8"?>
<!-- Generator: Adobe Illustrator 18.1.0, SVG Export Plug-In . SVG Version: 6.00 Build 0)  -->
<!DOCTYPE svg PUBLIC "-//W3C//DTD SVG 1.0//EN" "http://www.w3.org/TR/2001/REC-SVG-20010904/DTD/svg10.dtd">
<svg version="1.0" xmlns="http://www.w3.org/2000/svg" xmlns:xlink="http://www.w3.org/1999/xlink" x="0px" y="0px"
	 viewBox="0 0 152 117.5" enable-background="new 0 0 152 117.5" xml:space="preserve">
<g id="Layer_1">
	<g id="Azure">
	</g>
	<g id="BizTalk_Services" transform="translate(37.3575,-2500.2)">
	</g>
	<g>
		<path fill="#006FD4" d="M82.6,56.7c0,0.4-0.3,0.7-0.7,0.7h-5.3c-0.4,0-0.7-0.3-0.7-0.7v-3.9c0-0.4,0.3-0.7,0.7-0.7h5.3
			c0.4,0,0.7,0.3,0.7,0.7V56.7z"/>
		<path fill="#006FD4" d="M92.1,60.8c0,0.4-0.3,0.7-0.7,0.7h-5.3c-0.4,0-0.7-0.3-0.7-0.7v-3.9c0-0.4,0.3-0.7,0.7-0.7h5.3
			c0.4,0,0.7,0.3,0.7,0.7V60.8z"/>
		<path fill="#006FD4" d="M82.6,64.8c0,0.4-0.3,0.7-0.7,0.7h-5.3c-0.4,0-0.7-0.3-0.7-0.7v-3.9c0-0.4,0.3-0.7,0.7-0.7h5.3
			c0.4,0,0.7,0.3,0.7,0.7V64.8z"/>
		<path fill="#006FD4" d="M73.1,52.6c0,0.4-0.3,0.7-0.7,0.7H67c-0.4,0-0.7-0.3-0.7-0.7v-4.1c0-0.4,0.3-0.7,0.7-0.7h5.3
			c0.5,0,0.8,0.3,0.8,0.7V52.6z"/>
		<path fill="#006FD4" d="M96.8,38.4h-0.1h-3.9h-30h-2.6h-1.4c-0.4,0-0.7,0.3-0.7,0.7v8.1c0,0.4,0.3,0.7,0.7,0.7h4.1
			c0.4,0,0.7-0.3,0.7-0.7v-3.4h28.5v3.4c0,0.4,0.3,0.7,0.8,0.7h3.9c0.4,0,0.7-0.3,0.7-0.7v-4.1v-4.1C97.5,38.6,97.2,38.4,96.8,38.4z
			"/>
		<path fill="#006FD4" d="M96.8,69.7h-3.9c-0.4,0-0.7,0.3-0.7,0.7v3.3H63.6v-3.4c0-0.4-0.3-0.7-0.8-0.7h-3.9c-0.4,0-0.7,0.3-0.7,0.8
			v8c0,0.4,0.3,0.7,0.7,0.7h1.4h2.7h30h3.8h0.1c0.4,0,0.7-0.3,0.7-0.7v-8C97.5,70,97.2,69.7,96.8,69.7z"/>
		<path fill="#006FD4" d="M73,60.7c0,0.4-0.3,0.7-0.7,0.7H67c-0.4,0-0.7-0.3-0.7-0.7v-3.9c0-0.4,0.3-0.7,0.7-0.7h5.3
			c0.4,0,0.7,0.3,0.7,0.7V60.7z"/>
		<path fill="#006FD4" d="M73,68.8c0,0.4-0.3,0.7-0.7,0.7H67c-0.4,0-0.7-0.3-0.7-0.7v-3.9c0-0.4,0.3-0.7,0.7-0.7h5.3
			c0.4,0,0.7,0.3,0.7,0.7V68.8z"/>
	</g>
</g>
<g id="paths">
	<g id="Access_control">
	</g>
	<g id="Azure_active_directory">
	</g>
	<g id="API_Management">
	</g>
	<g id="Azure_automation">
	</g>
	<g id="Azure_SQL_database">
	</g>
	<g id="Azure_subscription">
	</g>
	<g id="Backup_service">
	</g>
	<g id="Bitbucket_code_source">
	</g>
	<g id="Azure_cache">
	</g>
	<g id="Content_delivery_network__x28_CDN_x29_">
	</g>
	<g id="Cloud_service">
	</g>
	<g id="CodePlex">
	</g>
	<g id="Dropbox_code_source">
	</g>
</g>
</svg>
