<?xml version="1.0" encoding="utf-8"?>
<!-- Generator: Adobe Illustrator 19.1.0, SVG Export Plug-In . SVG Version: 6.00 Build 0)  -->
<svg version="1.1" id="Layer_1" xmlns="http://www.w3.org/2000/svg" xmlns:xlink="http://www.w3.org/1999/xlink" x="0px" y="0px"
	 viewBox="-273 365 64 64" style="enable-background:new -273 365 64 64;" xml:space="preserve">
<style type="text/css">
	.st0{fill:#0078D7;}
</style>
<g>
	<path class="st0" d="M-208.4,395.1l-3.1-3.1l-13.8-13.4c-0.6-0.6-1.5-0.6-2.2,0c-0.6,0.6-0.8,1.7,0,2.3l14.5,14.2
		c0.6,0.6,0.6,1.7,0,2.3l-14.8,14.7c-0.6,0.6-0.6,1.7,0,2.3c0.6,0.6,1.7,0.5,2.2,0l13.7-13.6c0,0,0,0,0.1-0.1l3.4-3.3
		C-207.8,396.8-207.9,395.7-208.4,395.1z"/>
	<path class="st0" d="M-266.7,397.4c-0.6-0.6-0.6-1.7,0-2.3l14.2-14.2c0.8-0.6,0.6-1.7,0-2.3c-0.7-0.6-1.6-0.6-2.2,0l-13.8,13.4
		l-3.1,3.1c-0.5,0.6-0.6,1.7,0,2.3l3.1,3.5c0.1,0.1,0.1,0.1,0.1,0.1l14,13.4c0.5,0.5,1.6,0.6,2.2,0c0.6-0.6,0.6-1.7,0-2.3
		L-266.7,397.4z"/>
	<polygon class="st0" points="-224,387.4 -237.4,387.4 -224.4,367.5 -243.9,367.5 -254.4,397.1 -241.6,397.2 -251.6,426.5 	"/>
</g>
</svg>
