<?xml version="1.0" encoding="utf-8"?>
<!-- Generator: Adobe Illustrator 18.1.0, SVG Export Plug-In . SVG Version: 6.00 Build 0)  -->
<!DOCTYPE svg PUBLIC "-//W3C//DTD SVG 1.0//EN" "http://www.w3.org/TR/2001/REC-SVG-20010904/DTD/svg10.dtd">
<svg version="1.0" xmlns="http://www.w3.org/2000/svg" xmlns:xlink="http://www.w3.org/1999/xlink" x="0px" y="0px"
	 viewBox="0 0 152 117.5" enable-background="new 0 0 152 117.5" xml:space="preserve">
<g id="Layer_1">
</g>
<g id="paths">
	<g id="Access_control">
	</g>
	<g id="Azure_active_directory">
		<g>
			<g id="shape195-329_1_" transform="translate(10.0395,-10.272)">
				<title>Sheet.195</title>
				<path fill="#0078D7" d="M64.5,64.2l-6.7,6.2c0.3,0.5,0.5,1.1,0.5,1.6c0,0.3,0,0.6-0.1,0.9l6.9,4.2V65C65,65,64.6,64.3,64.5,64.2
					z"/>
			</g>
			<g id="shape196-331_1_" transform="translate(17.3865,-10.2682)">
				<title>Sheet.196</title>
				<path fill="#0078D7" d="M60.6,64.1c-0.1,0.1-1.2,0.9-1.3,1v12l6.9-4.4C66.1,72.4,66,72.2,66,72c0-0.4,0.1-0.8,0.2-1.2L60.6,64.1
					z"/>
			</g>
			<path fill="#0078D7" d="M76,38.5l-20.2,24l20.1,16.4l20.2-16.3L76,38.5z M86.7,65c-0.9,0-1.7-0.4-2.3-1l-5.5,3.9
				c0.4,0.5,0.5,1.1,0.5,1.8c0,1.8-1.5,3.2-3.2,3.2c-1.8,0-3.2-1.4-3.2-3.2c0-0.8,0.3-1.5,0.8-2.1l-6.4-3.4
				c-0.6,0.6-1.4,0.9-2.2,0.9c-1.8,0-3.2-1.4-3.2-3.2c0-1.8,1.5-3.2,3.2-3.2c0.5,0,1,0.1,1.5,0.4l6.7-6.2c-0.5-0.6-0.7-1.4-0.7-2.1
				c0-2,1.6-3.5,3.6-3.5c2,0,3.6,1.6,3.6,3.5c0,0.7-0.2,1.3-0.6,1.9l5.7,6.7c0.5-0.4,1.2-0.6,1.9-0.6c1.8,0,3.2,1.4,3.2,3.2
				C89.9,63.5,88.4,65,86.7,65z"/>
		</g>
	</g>
</g>
</svg>
