<?xml version="1.0" encoding="utf-8"?>
<!-- Generator: Adobe Illustrator 17.0.1, SVG Export Plug-In . SVG Version: 6.00 Build 0)  -->
<!DOCTYPE svg PUBLIC "-//W3C//DTD SVG 1.1//EN" "http://www.w3.org/Graphics/SVG/1.1/DTD/svg11.dtd">
<svg version="1.1" id="Layer_1" xmlns="http://www.w3.org/2000/svg" xmlns:xlink="http://www.w3.org/1999/xlink" x="0px" y="0px"
	 width="50px" height="50px" viewBox="0 0 50 50" enable-background="new 0 0 50 50" xml:space="preserve">
<path fill="#3999C6" d="M6,6.788v36.111c0,3.749,8.392,6.789,18.743,6.789v-42.9C24.743,6.788,6,6.788,6,6.788z"/>
<path fill="#59B4D9" d="M24.486,49.687h0.257c10.351,0,18.743-3.038,18.743-6.788V6.788h-19V49.687z"/>
<path fill="#FFFFFF" d="M43.486,6.788c0,3.749-8.392,6.788-18.743,6.788S6,10.537,6,6.788S14.392,0,24.743,0
	S43.486,3.039,43.486,6.788"/>
<path fill="#7FBA00" d="M39.654,6.397c0,2.475-6.676,4.479-14.911,4.479S9.831,8.872,9.831,6.397c0-2.474,6.677-4.479,14.912-4.479
	S39.654,3.923,39.654,6.397"/>
<path fill="#B8D432" d="M36.53,9.134c1.952-0.757,3.125-1.705,3.125-2.735c0-2.475-6.676-4.48-14.912-4.48
	c-8.235,0-14.911,2.005-14.911,4.48c0,1.03,1.173,1.978,3.125,2.735c2.726-1.058,6.986-1.741,11.786-1.741
	C29.544,7.393,33.802,8.076,36.53,9.134"/>
<path fill="#FFFFFF" d="M36.857,36.068c-1.003,0.836-2.362,1.256-4.128,1.256h-5.89V21.961h5.587c1.759,0,3.107,0.321,4.034,0.986
	c0.868,0.624,1.303,1.497,1.303,2.612c0,0.889-0.317,1.645-0.964,2.31c-0.551,0.55-1.213,0.93-2.029,1.153v0.036
	c1.095,0.135,1.989,0.552,2.655,1.253c0.623,0.665,0.944,1.481,0.944,2.424C38.373,34.14,37.861,35.24,36.857,36.068 M22.502,35.163
	c-1.474,1.442-3.464,2.161-5.947,2.161h-5.438V21.961h5.438c5.455,0,8.183,2.483,8.183,7.48C24.738,31.83,24,33.742,22.502,35.163"
	/>
<path fill="#3999C6" d="M16.271,24.765h-1.704v9.754h1.724c1.515,0,2.689-0.474,3.558-1.383c0.832-0.909,1.253-2.121,1.253-3.654
	c0-1.439-0.421-2.573-1.234-3.413C19.015,25.201,17.822,24.765,16.271,24.765"/>
<path fill="#59B4D9" d="M33.485,27.628c0.416-0.362,0.624-0.836,0.624-1.424c0-1.139-0.832-1.706-2.52-1.706h-1.302v3.64h1.533
	C32.521,28.138,33.089,27.963,33.485,27.628"/>
<path fill="#59B4D9" d="M34.054,31.241c-0.456-0.339-1.076-0.53-1.877-0.53h-1.893v4.052h1.875c0.797,0,1.439-0.189,1.913-0.568
	c0.435-0.38,0.661-0.869,0.661-1.515C34.737,32.073,34.51,31.581,34.054,31.241"/>
</svg>
