<?xml version="1.0" encoding="UTF-8" standalone="no"?>
<!DOCTYPE svg PUBLIC "-//W3C//DTD SVG 1.1//EN" "http://www.w3.org/Graphics/SVG/1.1/DTD/svg11.dtd">
<!-- Generated by Microsoft Visio, SVG Export Stretch Database.svg Page-1 -->
<svg xmlns="http://www.w3.org/2000/svg" xmlns:xlink="http://www.w3.org/1999/xlink" xmlns:ev="http://www.w3.org/2001/xml-events"
		xmlns:v="http://schemas.microsoft.com/visio/2003/SVGExtensions/" width="1.08333in" height="0.755796in"
		viewBox="0 0 78 54.4173" xml:space="preserve" color-interpolation-filters="sRGB" class="st2">
	<v:documentProperties v:langID="1033" v:viewMarkup="false">
		<v:userDefs>
			<v:ud v:nameU="visTLShowProps" v:prompt="" v:val="VT0(0):26"/>
		</v:userDefs>
	</v:documentProperties>

	<style type="text/css">
	<![CDATA[
		.st1 {fill:#0078d7;stroke:none;stroke-linecap:butt;stroke-width:0.75}
		.st2 {fill:none;fill-rule:evenodd;font-size:12px;overflow:visible;stroke-linecap:square;stroke-miterlimit:3}
	]]>
	</style>

	<g v:mID="0" v:index="1" v:groupContext="foregroundPage">
		<title>Page-1</title>
		<v:pageProperties v:drawingScale="1" v:pageScale="1" v:drawingUnits="19" v:shadowOffsetX="2.83465"
				v:shadowOffsetY="-2.83465" v:shadowType="1"/>
		<g id="shape1474-1" v:mID="1474" v:groupContext="shape" transform="translate(0.75,-0.75)">
			<title>SQL Stretch Database (nc).2655</title>
			<path d="M71.55 38.04 C71.55 38.04 78.03 30.25 73.08 22.15 C67.11 12.37 56.85 17.76 56.85 17.76 C56.85 17.76 54.68 -2.68
						 31.06 2.25 C25 3.52 21.14 6.46 18.71 9.91 C22.3 10.1 25.63 10.69 28.28 11.65 C31.72 12.9 33.44 14.4 33.96
						 15.72 L33.96 28.46 L44.25 28.46 L44.25 20.93 L46.35 22.56 L58.83 32.23 L60.14 33.24 L58.85 34.29 L46.37
						 44.28 L44.25 45.99 L44.25 38.07 L33.96 38.07 L33.96 48.49 C33.96 49.18 33.77 49.98 33.15 50.81 L67.16 50.81
						 C67.16 50.81 75.5 50.69 76.36 45.37 C77.46 38.63 71.55 38.04 71.55 38.04 ZM27.28 12.68 C27.03 12.6 26.77
						 12.52 26.5 12.44 C26.38 12.41 26.27 12.37 26.16 12.34 L26.34 12.4 C23.58 11.62 20.12 11.16 16.36 11.15 C7.41
						 11.15 0.07 13.76 0 17.01 L0 48.47 C0 51.71 7.18 54.35 16.16 54.38 L16.16 54.42 L16.2 54.42 C16.23 54.42
						 16.33 54.38 16.33 54.38 L16.33 54.42 L16.36 54.42 C25.36 54.42 32.66 51.74 32.66 48.49 L32.66 36.77 L45.55
						 36.77 L45.55 43.27 L58.03 33.24 L45.55 23.57 L45.55 29.75 L32.66 29.75 L32.66 17.01 C32.63 15.72 31.46 14.53
						 29.49 13.56 C28.84 13.24 28.1 12.95 27.28 12.68 ZM3.4 16.72 C3.4 14.56 9.21 12.81 16.36 12.81 C23.51 12.83
						 29.32 14.58 29.32 16.72 C29.32 16.81 29.31 16.91 29.29 17.01 C29.06 17.96 27.72 18.79 25.67 19.44 C25.65
						 19.44 25.63 19.46 25.62 19.46 C25.5 19.49 25.39 19.52 25.26 19.56 C25.23 19.57 25.19 19.57 25.18 19.59 L24.83
						 19.69 C24.79 19.7 24.75 19.7 24.7 19.72 C24.59 19.75 24.49 19.77 24.38 19.8 C24.33 19.82 24.28 19.82 24.23
						 19.84 C24.13 19.85 24.02 19.88 23.9 19.9 C23.84 19.92 23.79 19.93 23.72 19.93 C23.63 19.95 23.51 19.98 23.41
						 20 C23.35 20.01 23.28 20.03 23.22 20.03 C23.12 20.05 23.01 20.06 22.91 20.08 C22.83 20.1 22.76 20.11 22.68
						 20.11 C22.58 20.13 22.48 20.15 22.37 20.16 C22.29 20.18 22.21 20.19 22.12 20.19 L21.83 20.24 C21.75 20.26
						 21.65 20.26 21.57 20.28 C21.47 20.29 21.37 20.31 21.28 20.31 C21.18 20.32 21.1 20.32 21 20.34 C20.9 20.36
						 20.8 20.36 20.7 20.37 C20.61 20.39 20.51 20.39 20.41 20.41 C20.31 20.42 20.21 20.42 20.12 20.44 C20.02 20.46
						 19.9 20.46 19.81 20.47 C19.71 20.47 19.61 20.49 19.51 20.49 C19.4 20.49 19.3 20.5 19.19 20.5 C19.09 20.5
						 18.99 20.52 18.89 20.52 C18.78 20.52 18.66 20.54 18.55 20.54 C18.45 20.54 18.37 20.55 18.27 20.55 C18.14
						 20.55 18.03 20.57 17.9 20.57 C17.81 20.57 17.73 20.57 17.63 20.59 C17.49 20.59 17.36 20.59 17.21 20.6 L15.05
						 20.6 C14.94 20.6 14.84 20.6 14.73 20.59 C14.63 20.59 14.52 20.59 14.42 20.57 C14.3 20.57 14.21 20.55 14.09
						 20.55 C13.99 20.55 13.89 20.54 13.8 20.54 C13.68 20.54 13.58 20.52 13.47 20.52 C13.37 20.52 13.27 20.5 13.18
						 20.5 C13.06 20.5 12.96 20.49 12.85 20.47 C12.75 20.47 12.67 20.46 12.57 20.46 C12.46 20.44 12.36 20.44 12.26
						 20.42 C12.16 20.41 12.08 20.41 11.98 20.39 C11.89 20.37 11.79 20.37 11.69 20.36 L11.67 20.36 C11.59 20.34
						 11.51 20.34 11.41 20.32 C11.33 20.31 11.23 20.31 11.15 20.29 L11.09 20.29 C11 20.28 10.92 20.28 10.84 20.26
						 C10.76 20.24 10.69 20.24 10.61 20.23 C10.58 20.23 10.55 20.21 10.52 20.21 C10.45 20.19 10.37 20.19 10.3
						 20.18 C10.24 20.16 10.17 20.16 10.11 20.15 C10.06 20.15 10.01 20.13 9.98 20.13 C9.91 20.11 9.85 20.11 9.78
						 20.1 C9.73 20.08 9.67 20.08 9.62 20.06 C9.57 20.05 9.5 20.05 9.45 20.03 C9.39 20.01 9.34 20.01 9.27 20 C9.23
						 19.98 9.18 19.98 9.13 19.97 C9.06 19.95 9 19.93 8.93 19.93 C8.88 19.92 8.83 19.92 8.78 19.9 C8.74 19.88
						 8.7 19.88 8.65 19.87 C8.59 19.85 8.51 19.84 8.44 19.82 C8.41 19.8 8.36 19.8 8.33 19.79 C8.28 19.77 8.25
						 19.77 8.2 19.75 C8.11 19.74 8.03 19.72 7.97 19.7 C7.95 19.7 7.92 19.69 7.9 19.69 C7.85 19.67 7.8 19.66 7.76
						 19.66 C7.67 19.64 7.59 19.61 7.51 19.59 C7.45 19.57 7.4 19.56 7.33 19.54 C7.25 19.52 7.17 19.49 7.09 19.48
						 C7.04 19.46 6.97 19.44 6.92 19.43 C6.84 19.39 6.76 19.38 6.68 19.35 L6.53 19.3 C6.45 19.26 6.37 19.25 6.3
						 19.21 L6.16 19.17 C6.07 19.13 6.01 19.1 5.93 19.08 C5.88 19.07 5.85 19.05 5.8 19.04 C5.73 19 5.65 18.97
						 5.58 18.94 C5.55 18.92 5.5 18.9 5.47 18.89 L5.27 18.79 C5.24 18.77 5.21 18.76 5.16 18.74 L4.87 18.59 C4.8
						 18.56 4.75 18.53 4.69 18.5 C4.65 18.48 4.62 18.46 4.6 18.45 C4.56 18.41 4.49 18.38 4.44 18.33 C4.41 18.32
						 4.39 18.3 4.36 18.27 C4.31 18.24 4.26 18.2 4.21 18.15 C4.18 18.14 4.16 18.12 4.15 18.09 C4.1 18.06 4.07
						 18.01 4.02 17.97 L3.84 17.79 C3.82 17.78 3.8 17.76 3.79 17.73 C3.76 17.7 3.72 17.65 3.69 17.61 C3.67 17.6
						 3.66 17.57 3.64 17.55 C3.61 17.52 3.59 17.47 3.56 17.43 C3.54 17.42 3.54 17.39 3.53 17.37 C3.51 17.34 3.48
						 17.29 3.46 17.26 C3.45 17.24 3.45 17.21 3.45 17.19 L3.4 17.04 C3.41 16.91 3.4 16.81 3.4 16.72 Z"
					class="st1"/>
		</g>
	</g>
</svg>
