<?xml version="1.0" encoding="utf-8"?>
<!-- Generator: Adobe Illustrator 18.1.0, SVG Export Plug-In . SVG Version: 6.00 Build 0)  -->
<!DOCTYPE svg PUBLIC "-//W3C//DTD SVG 1.0//EN" "http://www.w3.org/TR/2001/REC-SVG-20010904/DTD/svg10.dtd">
<svg version="1.0" xmlns="http://www.w3.org/2000/svg" xmlns:xlink="http://www.w3.org/1999/xlink" x="0px" y="0px"
	 viewBox="0 0 152 117.5" enable-background="new 0 0 152 117.5" xml:space="preserve">
<g id="Layer_1">
</g>
<g id="paths">
	<g id="Access_control">
		<g id="group1068-2156_1_" transform="translate(1251.91,-970.932)">
			<g id="shape1069-2157_1_">
				<title>Sheet.1069</title>
				<path fill="#0078D7" d="M-1155.9,1034.6l-20.1-24.1l-20.2,24l20.1,16.4L-1155.9,1034.6z M-1178.6,1042.9l0-10.2
					c-1.9-1-3.1-3-3.1-5.4c0-3.3,2.5-6,5.6-6c3.1,0,5.6,2.7,5.6,6c0,2.3-1.3,4.4-3.1,5.3l0,2l-0.1,0.1l-1.9,2l2,2.1l0,0.1l-1.8,2
					l1.7,1.9l-2.5,2.6L-1178.6,1042.9z"/>
			</g>
			<g id="shape1070-2159_1_" transform="translate(15.2107,-19.5135)">
				<title>Sheet.1070</title>
				<path fill="#0078D7" d="M-1189.2,1045.2c0-1-1.2-1.8-2.1-1.8c-1,0-2,0.7-2,1.7c0,1,1,2.1,2,2.1
					C-1190.4,1047.3-1189.2,1046.3-1189.2,1045.2z"/>
			</g>
		</g>
	</g>
</g>
</svg>
