<?xml version="1.0" encoding="utf-8"?>
<!-- Generator: Adobe Illustrator 18.1.0, SVG Export Plug-In . SVG Version: 6.00 Build 0)  -->
<!DOCTYPE svg PUBLIC "-//W3C//DTD SVG 1.0//EN" "http://www.w3.org/TR/2001/REC-SVG-20010904/DTD/svg10.dtd">
<svg version="1.0" xmlns="http://www.w3.org/2000/svg" xmlns:xlink="http://www.w3.org/1999/xlink" x="0px" y="0px"
	 viewBox="0 0 152 117.5" enable-background="new 0 0 152 117.5" xml:space="preserve">
<g id="Layer_1">
</g>
<g id="paths">
	<g id="Access_control">
	</g>
	<g id="Azure_active_directory">
	</g>
	<g id="API_Management">
		<path fill="#0078D7" d="M93.6,55.9c0.1-0.7,0.1-1.7,0.1-2.4c0-8.5-7-15.8-15.5-15.8h-0.1c-6.1,0-11.6,3.9-14.1,9.4
			c-0.7-0.1-1.4,0-2.1,0c-6.2,0-11.1,5.1-11.1,11.2c0,6.1,5,11.1,11.2,11.1l5.7,0c0.2,0.8,0.7,1.5,1.3,2.1c2,2,5.3,2,7.3,0
			c2-2,2-5.2,0-7.2c-2-2-5.2-2-7.3,0c-0.5,0.5-0.9,0.9-1.1,1.6c0,0-5.8-0.2-5.8-0.2h0c-4.3,0-7.7-3.2-7.8-7.5c0-4.3,3.5-7.7,7.8-7.7
			c0.8,0,1.7,0.2,2.5,0.5l1.6,0.6l0.5-1.6c1.6-5,6.3-8.3,11.5-8.3c6.7,0,12.1,5.4,12.1,12.1c0,1.1-0.1,2.2-0.4,3.2l-0.7,2.4l2.5-0.3
			c0.2,0,0.3,0,0.4,0c1.9,0,3.5,1.6,3.5,3.5c0,1.8-1.3,3.3-3.1,3.5c0,0-8.3,0.1-8.8,0.1c-0.4-2.3-1.5-4.5-3.2-6.2
			c-2.1-2.2-5-3.4-8.1-3.4c-2.1,0-4.1,0.6-5.9,1.6l1.8,2.9c1.2-0.8,2.7-1.2,4.2-1.2c2.1,0,4.2,0.8,5.7,2.4c1.5,1.5,2.4,3.5,2.4,5.7
			c0,2.1-0.8,4.2-2.4,5.7c-1.5,1.5-3.5,2.4-5.7,2.4c-1.5,0-3-0.4-4.2-1.2l-1.8,2.9c1.8,1.1,3.9,1.7,6,1.7c3.1,0,5.9-1.2,8.1-3.4
			c1.8-1.8,2.9-4.1,3.2-6.5c0.4,0,8.8-0.1,8.8-0.1l0.1,0c3.6-0.3,6.3-3.3,6.3-6.9C99.1,59.3,96.8,56.5,93.6,55.9z"/>
	</g>
</g>
</svg>
