<?xml version="1.0" encoding="utf-8"?>
<!-- Generator: Adobe Illustrator 18.1.0, SVG Export Plug-In . SVG Version: 6.00 Build 0)  -->
<!DOCTYPE svg PUBLIC "-//W3C//DTD SVG 1.0//EN" "http://www.w3.org/TR/2001/REC-SVG-20010904/DTD/svg10.dtd">
<svg version="1.0" id="Layer_1" xmlns="http://www.w3.org/2000/svg" xmlns:xlink="http://www.w3.org/1999/xlink" x="0px" y="0px"
	 viewBox="315 192 228.5 191" enable-background="new 315 192 228.5 191" xml:space="preserve">
<g>
	<path fill="#0078D7" d="M429.8,305.6l7.4-2.9l2.6,2.6h12.3v-17.2l0.9-0.7c6.9-5.9,10.7-13.5,10.7-21.6v-1.5h-1.5
		c-8.2,0-15.8,3.8-21.6,10.7l-0.9,1h-17v12.3l2.6,2.6l-3,7.4L429.8,305.6z M426,297.7l1.7-4.4l7.2,7.2l-4.4,1.7L426,297.7z
		 M449.1,302.4h-8.2l-1.5-1.5l9.7-9.8V302.4z M456.3,279.7l-7.8-7.8c3.6-2.8,7.9-4.4,12.3-4.7C460.5,271.7,458.9,275.9,456.3,279.7z
		 M442.9,276.9c1-1.2,2.1-2.3,3.2-3.4l8.2,8.2c-1,1.2-2.2,2.3-3.4,3.4l-13.6,13.8l-8.2-8.2L442.9,276.9z M425.6,279H437l-9.8,9.7
		l-1.5-1.5C425.6,287.1,425.6,279,425.6,279z"/>
	<circle fill="#0078D7" cx="444.7" cy="283.3" r="2.9"/>
</g>
</svg>
