<?xml version="1.0" encoding="UTF-8" standalone="no"?>
<!DOCTYPE svg PUBLIC "-//W3C//DTD SVG 1.1//EN" "http://www.w3.org/Graphics/SVG/1.1/DTD/svg11.dtd">
<!-- Generated by Microsoft Visio, SVG Export Backup.svg Layer_1 -->
<svg xmlns="http://www.w3.org/2000/svg" xmlns:xlink="http://www.w3.org/1999/xlink" xmlns:ev="http://www.w3.org/2001/xml-events"
		xmlns:v="http://schemas.microsoft.com/visio/2003/SVGExtensions/" width="0.520833in" height="0.520833in"
		viewBox="0 0 37.5 37.5" xml:space="preserve" color-interpolation-filters="sRGB" class="st2">
	<v:documentProperties v:langID="1033" v:viewMarkup="false"/>

	<style type="text/css">
	<![CDATA[
		.st1 {fill:#0072c6;stroke:none;stroke-linecap:butt;stroke-width:0.75}
		.st2 {fill:none;fill-rule:evenodd;font-size:12px;overflow:visible;stroke-linecap:square;stroke-miterlimit:3}
	]]>
	</style>

	<g v:mID="0" v:index="1" v:groupContext="foregroundPage">
		<title>Layer_1</title>
		<v:pageProperties v:drawingScale="1" v:pageScale="1" v:drawingUnits="19" v:shadowOffsetX="9" v:shadowOffsetY="-9"/>
		<g id="shape1-1" v:mID="1" v:groupContext="shape" transform="translate(10.1625,-14.412)">
			<title>Sheet.1</title>
			<path d="M23.65 25.64 C23.67 25.37 23.69 25.1 23.69 24.82 C23.69 20.46 20.1 16.91 15.7 16.91 C13.09 16.91 10.69 18.16
						 9.21 20.21 C8.26 19.62 7.16 19.3 6.01 19.3 C2.88 19.3 0.29 21.69 0 24.72 C0.49 24.66 0.98 24.61 1.48 24.61
						 C3.79 24.61 6.01 25.36 7.83 26.69 C9.19 23.55 12.65 21.54 16.49 21.42 L16.49 18.74 L21.17 22.75 L16.49 26.74
						 L16.49 24.11 C14.29 24.2 12.15 25.02 10.91 27.02 L11.16 27 C15.64 27 19.34 30.35 19.86 34.64 C20.92 35.44
						 21.76 36.4 22.36 37.5 C25.26 36.72 27.34 34.22 27.34 31.16 C27.34 28.7 26.01 26.74 23.65 25.64 Z"
					class="st1"/>
		</g>
		<g id="shape2-3" v:mID="2" v:groupContext="shape" transform="translate(5.9952E-15,-3.75)">
			<title>Sheet.2</title>
			<path d="M3.69 25.37 C3.66 25.1 3.65 24.82 3.65 24.55 C3.65 20.19 7.24 16.65 11.64 16.65 C14.25 16.65 16.65 17.9 18.13
						 19.94 C19.08 19.35 20.17 19.04 21.33 19.04 C24.65 19.04 27.36 21.72 27.36 25.02 L27.35 25.5 C29.6 26.64
						 30.81 28.52 30.81 30.89 C30.81 34.6 27.79 37.5 23.93 37.5 L6.89 37.5 C3.02 37.5 0 34.6 0 30.89 C0 28.44
						 1.33 26.47 3.69 25.37 Z" class="st1"/>
		</g>
	</g>
</svg>
