<?xml version="1.0" encoding="utf-8"?>
<!-- Generator: Adobe Illustrator 17.1.0, SVG Export Plug-In . SVG Version: 6.00 Build 0)  -->
<!DOCTYPE svg PUBLIC "-//W3C//DTD SVG 1.1//EN" "http://www.w3.org/Graphics/SVG/1.1/DTD/svg11.dtd">
<svg version="1.1" id="Layer_1" xmlns="http://www.w3.org/2000/svg" xmlns:xlink="http://www.w3.org/1999/xlink" x="0px" y="0px"
	 width="50px" height="50px" viewBox="0 0 50 50" enable-background="new 0 0 50 50" xml:space="preserve">
<path fill="#59B4D9" d="M47,2H2.7C1.2,2,0,3.3,0,4.8v30.9c0,1.5,1.2,2.8,2.7,2.8h16.1c1.6,5.8-0.6,6.6-10.2,6.6v3h12.2h8.9h11.5v-3
	c-9.6,0-10.6-0.8-8.9-6.6H47c1.5,0,3-1.3,3-2.8V4.8C50,3.3,48.5,2,47,2z"/>
<polygon fill="#FFFFFF" points="46.1,5.8 46.1,34.7 3.8,34.7 3.8,5.8 "/>
<path fill="#0072C6" d="M25.5,19.4c0,0-0.1,0-0.1,0l-8.8-5.1c-0.1,0-0.1-0.1-0.1-0.2c0-0.1,0.1-0.2,0.1-0.2l8.8-5c0.1,0,0.2,0,0.3,0
	l8.8,5.1c0.1,0,0.1,0.1,0.1,0.2c0,0.1,0,0.2-0.1,0.2l-8.7,5C25.6,19.4,25.6,19.4,25.5,19.4"/>
<path fill="#0072C6" d="M24.3,31.7c0,0-0.1,0-0.1,0l-8.8-5.1c-0.1,0-0.1-0.1-0.1-0.2V16.2c0-0.1,0.1-0.2,0.1-0.2c0.1,0,0.2,0,0.3,0
	l8.8,5.1c0.1,0,0.1,0.1,0.1,0.2v10.2c0,0.1-0.1,0.2-0.1,0.2C24.4,31.7,24.3,31.7,24.3,31.7"/>
<path fill="#0072C6" d="M26.8,31.7c0,0-0.1,0-0.1,0c-0.1,0-0.1-0.1-0.1-0.2V21.4c0-0.1,0.1-0.2,0.1-0.2l8.8-5.1c0.1,0,0.2,0,0.3,0
	c0.1,0,0.1,0.1,0.1,0.2v10.1c0,0.1-0.1,0.2-0.1,0.2l-8.8,5.1C26.9,31.7,26.8,31.7,26.8,31.7"/>
</svg>
