<?xml version="1.0" encoding="utf-8"?>
<!-- Generator: Adobe Illustrator 18.1.0, SVG Export Plug-In . SVG Version: 6.00 Build 0)  -->
<!DOCTYPE svg PUBLIC "-//W3C//DTD SVG 1.0//EN" "http://www.w3.org/TR/2001/REC-SVG-20010904/DTD/svg10.dtd">
<svg version="1.0" xmlns="http://www.w3.org/2000/svg" xmlns:xlink="http://www.w3.org/1999/xlink" x="0px" y="0px"
	 viewBox="0 0 152 117.5" enable-background="new 0 0 152 117.5" xml:space="preserve">
<g id="Layer_1">
	<g id="Azure">
	</g>
	<g id="BizTalk_Services" transform="translate(37.3575,-2500.2)">
		<g>
			<title>Sheet.1079</title>
			<g id="group1080-2176_1_" transform="translate(2.51799E-013,-11.3858)">
				<title>Sheet.1080</title>
				<g id="shape1081-2177_1_" transform="translate(16.683,-5.499)">
					<title>Sheet.1081</title>
					<path fill="#0078D7" d="M25.9,2574.8c0-2.1-1.7-3.8-3.8-3.8c-2.1,0-3.8,1.7-3.8,3.8c0,2.1,1.7,3.8,3.8,3.8
						C24.2,2578.6,25.9,2576.9,25.9,2574.8z"/>
				</g>
				<g id="shape1082-2179_1_">
					<title>Sheet.1082</title>
					<path fill="#0078D7" d="M54,2562.6c0.2-0.8,0.3-1.7,0.3-2.6c0-5.7-4.5-10.3-10-10.3c-4.2,0-7.7,2.6-9.3,6.3
						c-1.3-1.6-3.3-2.6-5.4-2.6c-3.9,0-7.1,3.3-7.1,7.3c0,0.7,0.1,1.4,0.3,2c-3.2,1.2-5.5,4-5.5,7.7c0,4.7,3.8,8.4,8.4,8.4h2.5h9.6
						v-3.6c-1.5-0.2-2.9-1-3.8-2.2l-3.2,1.9l1.3,2.2l-5.1-1l1.7-5.1l1.3,2.3l3.2-1.8c-0.3-0.7-0.5-1.5-0.5-2.3
						c0-0.8,0.2-1.5,0.4-2.2c0,0-3.3-1.9-3.3-1.9l-1.3,2.3l-1.7-5.1l5.1-0.8l-1.2,2.1l3.3,1.9c0.9-1.2,2.3-2.1,3.9-2.3v-3.7h-2.3
						l3.2-3.9l3.4,3.9h-2.5v3.7c1.6,0.2,3,1.1,3.9,2.3l3.3-1.9l-1.3-2.2l5.1,1l-2.2,5l-0.7-2.3l-3.3,1.9c0.3,0.7,0.4,1.4,0.4,2.2
						c0,0.8-0.2,1.5-0.4,2.2l3.3,1.9l1.4-2.5l1.5,5.3l-5.2,1.2l1.4-2.4l-3.3-1.9c-0.9,1.2-2.4,2.1-4,2.3v3.6H50h1.6
						c4.6,0,8.4-3.7,8.4-8.4C59.9,2566.7,57.4,2563.7,54,2562.6z"/>
				</g>
			</g>
			<g id="shape1083-2181_1_" transform="translate(17.0798,-4.54747E-013)">
				<title>Sheet.1083</title>
				<path fill="#0078D7" d="M22.5,2572.9v-5.4h-1.8v5.5c-1.4,0.4-2.5,1.7-2.5,3.2c0,1.9,1.5,3.4,3.4,3.4c1.8,0,3.4-1.5,3.4-3.4
					C25,2574.6,24,2573.3,22.5,2572.9z"/>
			</g>
		</g>
	</g>
</g>
<g id="paths">
	<g id="Access_control">
	</g>
	<g id="Azure_active_directory">
	</g>
	<g id="API_Management">
	</g>
	<g id="Azure_automation">
	</g>
	<g id="Azure_SQL_database">
	</g>
	<g id="Azure_subscription">
	</g>
	<g id="Backup_service">
	</g>
	<g id="Bitbucket_code_source">
	</g>
</g>
</svg>
