<?xml version="1.0" encoding="utf-8"?>
<!-- Generator: Adobe Illustrator 18.1.0, SVG Export Plug-In . SVG Version: 6.00 Build 0)  -->
<!DOCTYPE svg PUBLIC "-//W3C//DTD SVG 1.0//EN" "http://www.w3.org/TR/2001/REC-SVG-20010904/DTD/svg10.dtd">
<svg version="1.0" xmlns="http://www.w3.org/2000/svg" xmlns:xlink="http://www.w3.org/1999/xlink" x="0px" y="0px"
	 viewBox="0 0 152 117.5" enable-background="new 0 0 152 117.5" xml:space="preserve">
<g id="Layer_1">
	<g id="Azure">
	</g>
</g>
<g id="paths">
	<g id="Access_control">
	</g>
	<g id="Azure_active_directory">
	</g>
	<g id="API_Management">
	</g>
	<g id="Azure_automation">
	</g>
	<g id="Azure_SQL_database">
		<g>
			<path fill="#0078D7" d="M68.8,59.1c0.1,0.2,0.3,0.3,0.5,0.3c0.2,0.1,0.4,0.1,0.6,0.1c0.2,0,0.4,0,0.5-0.1
				c0.2-0.1,0.3-0.2,0.5-0.4c0.1-0.2,0.2-0.4,0.3-0.6c0.1-0.2,0.1-0.5,0.1-0.9c0-0.3,0-0.5-0.1-0.8c-0.1-0.3-0.1-0.5-0.3-0.7
				c-0.1-0.2-0.3-0.3-0.4-0.5c-0.2-0.1-0.4-0.2-0.6-0.2c-0.3,0-0.5,0.1-0.7,0.2c-0.2,0.1-0.3,0.3-0.5,0.4c-0.1,0.2-0.2,0.4-0.3,0.6
				c-0.1,0.2-0.1,0.5-0.1,0.8c0,0.4,0,0.7,0.1,0.9C68.6,58.7,68.7,58.9,68.8,59.1z"/>
			<path fill="#0078D7" d="M74.6,66.9c0.3,0,0.7,0,1,0.1c1.6-3.2,4.8-5.3,8.5-5.5V42.8c0-3-6.5-5.9-14.4-5.9c-8,0-14.4,2.7-14.4,5.7
				v27c0,2.7,5.3,5.3,12.2,5.7c-0.1-0.4-0.1-0.8-0.1-1.2C67.4,70.2,70.6,66.9,74.6,66.9z M79.8,61.4h-5v-7.7h2.3v5.9h2.7V61.4z
				 M69.7,39c5.7,0,10.3,1.4,10.3,3.1c0,1.7-4.6,3.1-10.3,3.1c-5.7,0-10.3-1.4-10.3-3.1C59.4,40.4,64,39,69.7,39z M65.4,59.6
				c0,0.2-0.1,0.4-0.2,0.6c-0.1,0.2-0.2,0.4-0.4,0.5c-0.2,0.2-0.4,0.3-0.6,0.4c-0.2,0.1-0.5,0.2-0.9,0.3c-0.3,0.1-0.7,0.1-1.2,0.1
				c-0.2,0-0.5,0-0.7,0c-0.2,0-0.4,0-0.6-0.1c-0.2,0-0.4-0.1-0.5-0.1c-0.2,0-0.3-0.1-0.4-0.2V59c0.1,0.1,0.3,0.2,0.5,0.3
				c0.2,0.1,0.3,0.2,0.5,0.3c0.2,0.1,0.4,0.1,0.6,0.2c0.2,0.1,0.4,0.1,0.6,0.1c0.2,0,0.3,0,0.4-0.1c0.1,0,0.2-0.1,0.2-0.1
				c0.1,0,0.1-0.1,0.1-0.2c0-0.1,0-0.1,0-0.2c0-0.1,0-0.2-0.1-0.3c-0.1-0.1-0.1-0.2-0.2-0.2c-0.1-0.1-0.2-0.1-0.4-0.2
				c-0.2-0.1-0.3-0.1-0.5-0.2c-0.3-0.1-0.6-0.3-0.9-0.5c-0.2-0.2-0.4-0.3-0.6-0.5c-0.2-0.2-0.3-0.4-0.3-0.6
				c-0.1-0.2-0.1-0.5-0.1-0.7c0-0.4,0.1-0.7,0.2-1c0.2-0.3,0.4-0.6,0.6-0.8c0.3-0.2,0.6-0.4,1-0.5c0.4-0.1,0.8-0.2,1.3-0.2
				c0.3,0,0.5,0,0.7,0c0.2,0,0.4,0,0.6,0.1c0.2,0,0.3,0.1,0.5,0.1c0.1,0,0.3,0.1,0.4,0.1v2c-0.1-0.1-0.2-0.1-0.4-0.2
				c-0.1-0.1-0.3-0.1-0.5-0.2c-0.2-0.1-0.3-0.1-0.5-0.1c-0.2,0-0.4,0-0.6,0c-0.3,0-0.5,0-0.6,0.1c-0.2,0.1-0.2,0.2-0.2,0.4
				c0,0.1,0,0.2,0.1,0.2c0,0.1,0.1,0.1,0.2,0.2c0.1,0.1,0.2,0.1,0.3,0.2c0.1,0.1,0.3,0.1,0.5,0.2c0.3,0.1,0.6,0.3,0.9,0.4
				c0.3,0.2,0.5,0.3,0.7,0.5c0.2,0.2,0.3,0.4,0.5,0.6c0.1,0.2,0.2,0.5,0.2,0.9C65.4,59.2,65.4,59.4,65.4,59.6z M66.2,59.2
				c-0.2-0.5-0.3-1-0.3-1.6c0-0.6,0.1-1.2,0.3-1.7c0.2-0.5,0.5-0.9,0.8-1.3c0.3-0.4,0.8-0.6,1.2-0.8c0.5-0.2,1-0.3,1.6-0.3
				c0.6,0,1.1,0.1,1.5,0.3c0.5,0.2,0.9,0.5,1.2,0.8c0.3,0.3,0.6,0.8,0.8,1.2c0.2,0.5,0.3,1,0.3,1.7c0,0.4,0,0.9-0.2,1.2
				c-0.1,0.4-0.3,0.7-0.5,1c-0.2,0.3-0.4,0.6-0.7,0.8c-0.3,0.2-0.5,0.4-0.9,0.6l2.6,2.2h-3l-1.7-1.8c-0.5,0-1-0.2-1.4-0.3
				c-0.4-0.2-0.8-0.5-1.1-0.8C66.7,60.1,66.4,59.7,66.2,59.2z"/>
			<path fill="#0078D7" d="M96.7,76.8c0-1.9-1.5-3.5-3.4-3.7c0.1-0.6,0.2-1.1,0.2-1.7c0-4.9-4-8.9-8.9-8.9c-3.7,0-7,2.2-8.3,5.6
				c-0.5-0.1-1-0.2-1.6-0.2c-3.5,0-6.3,2.8-6.3,6.3c0,3.4,2.7,6.2,6.2,6.3l18.8,0l0.7,0l0-0.1C95.6,80,96.7,78.5,96.7,76.8z
				 M93.3,79.5l-18.6,0c-2.9,0-5.3-2.4-5.3-5.3c0-2.9,2.4-5.3,5.3-5.3c0.6,0,1.2,0.1,1.7,0.3l0.5,0.2l0.2-0.5
				c1.1-3.2,4.1-5.4,7.5-5.4c4.4,0,7.9,3.6,7.9,7.9c0,0.7-0.1,1.4-0.3,2.1L92,74.3l0.7-0.1c0.1,0,0.2,0,0.3,0c1.5,0,2.7,1.2,2.7,2.7
				C95.7,78.2,94.7,79.4,93.3,79.5z"/>
		</g>
	</g>
</g>
</svg>
