<?xml version="1.0" encoding="utf-8"?>
<!-- Generator: Adobe Illustrator 18.1.0, SVG Export Plug-In . SVG Version: 6.00 Build 0)  -->
<!DOCTYPE svg PUBLIC "-//W3C//DTD SVG 1.0//EN" "http://www.w3.org/TR/2001/REC-SVG-20010904/DTD/svg10.dtd">
<svg version="1.0" xmlns="http://www.w3.org/2000/svg" xmlns:xlink="http://www.w3.org/1999/xlink" x="0px" y="0px"
	 viewBox="0 0 152 117.5" enable-background="new 0 0 152 117.5" xml:space="preserve">
<g id="Layer_1">
	<g id="Azure">
	</g>
	<g id="BizTalk_Services" transform="translate(37.3575,-2500.2)">
	</g>
</g>
<g id="paths">
	<g id="Access_control">
	</g>
	<g id="Azure_active_directory">
	</g>
	<g id="API_Management">
	</g>
	<g id="Azure_automation">
	</g>
	<g id="Azure_SQL_database">
	</g>
	<g id="Azure_subscription">
	</g>
	<g id="Backup_service">
	</g>
	<g id="Bitbucket_code_source">
	</g>
	<g id="Azure_cache">
	</g>
	<g id="Content_delivery_network__x28_CDN_x29_">
	</g>
	<g id="Cloud_service">
		<g>
			<title>Sheet.36</title>
			<g id="shape37-71_1_" transform="translate(22.6815,-17.5267)">
				<title>Sheet.37</title>
				<ellipse fill="#0078D7" cx="60" cy="72.2" rx="2.1" ry="2.1"/>
			</g>
			<g id="shape38-73_1_" transform="translate(13.062,-11.2635)">
				<title>Sheet.38</title>
				<path fill="#0078D7" d="M58.9,70.9c-1.1,0-2.1,0.9-2.1,2.1c0,1.1,0.9,2.1,2.1,2.1c1.1,0,2.1-0.9,2.1-2.1
					C60.9,71.8,60,70.9,58.9,70.9z"/>
			</g>
			<g id="shape39-75_1_">
				<title>Sheet.39</title>
				<path fill="#0078D7" d="M89.4,55.4L87.5,56l-0.5,1l0.7,1.5l0.1,0.2l-1,1L85.1,59l-1,0.4l-0.5,1.6l-0.1,0.2H82l-0.6-1.8l-1-0.4
					l-1.5,0.7l-0.2,0.1l-1-1l0.8-1.7l-0.4-1l-1.3-0.5l0-0.1V54l1.5-0.6l0.3-1l-0.8-1.5l-0.1-0.2l1-1l1.7,0.8l1-0.4l0.5-1.5l0.1-0.1
					h1.5l0.6,1.7l1,0.3l1.5-0.8l0.2-0.1l1,1L87,52.3l0.4,1l1.7,0.5l0.3,0.1V55.4z M65.5,61l1.8-0.6l0.4-1l-0.7-1.5l-0.1-0.2l1-1
					l1.7,0.8l1-0.4l0.5-1.4l0.1-0.1h1.5l0.6,1.6l1,0.4l1.5-0.8l0.2-0.1l1,1l-0.8,1.7l0.4,1l1.4,0.5l0.1,0.1v1.5L76.5,63l-0.4,1
					l0.8,1.5l0.1,0.2l-1,1L74.3,66l-1,0.4L72.8,68l-0.1,0.2h-1.5l-0.7-1.8l-1-0.4l-1.5,0.7l-0.2,0.1l-1-1l0.8-1.7l-0.4-1l-1.6-0.5
					l-0.2-0.1V61L65.5,61z M92.6,53.5l-0.8-0.3l0.2-0.8c0.2-0.8,0.3-1.6,0.3-2.4c0-5.3-4.3-9.6-9.6-9.6c-3.9,0-7.4,2.3-8.9,5.9
					l-0.6,1.3l-0.9-1.1c-1.3-1.5-3.1-2.3-5-2.3c-3.6,0-6.6,2.9-6.6,6.6c0,0.6,0.1,1.2,0.2,1.8l0.2,0.8l-0.8,0.3
					c-3.2,1.2-5.2,3.8-5.2,7c0,4.2,3.5,7.5,7.9,7.5h2c-0.1,0-0.1,0.7-0.1,1.1c0,3.9,3.2,7,7,7c2.8,0,5.4-1.7,6.5-4.3l0.4-1l0.7,0.8
					c0.9,1.1,2.3,1.7,3.6,1.7c2.6,0,4.8-2.2,4.8-4.8c0-0.2,0-0.5,0-0.5h2.2c4.4,0,7.9-3.3,7.9-7.5C98.1,57.3,96,54.6,92.6,53.5z"/>
			</g>
		</g>
	</g>
</g>
</svg>
