<?xml version="1.0" encoding="utf-8"?>
<!-- Generator: Adobe Illustrator 18.1.0, SVG Export Plug-In . SVG Version: 6.00 Build 0)  -->
<!DOCTYPE svg PUBLIC "-//W3C//DTD SVG 1.0//EN" "http://www.w3.org/TR/2001/REC-SVG-20010904/DTD/svg10.dtd">
<svg version="1.0" xmlns="http://www.w3.org/2000/svg" xmlns:xlink="http://www.w3.org/1999/xlink" x="0px" y="0px"
	 viewBox="0 0 152 117.5" enable-background="new 0 0 152 117.5" xml:space="preserve">
<g id="Layer_1">
	<g id="Azure">
	</g>
	<g id="BizTalk_Services" transform="translate(37.3575,-2500.2)">
	</g>
	<g id="Key_Vault">
	</g>
	<g id="Mobile_Engagement">
	</g>
	<g id="Office_subscription">
		<g id="Office_subscription_1_">
		</g>
	</g>
</g>
<g id="paths">
	<g id="Access_control">
	</g>
	<g id="Azure_active_directory">
	</g>
	<g id="API_Management">
	</g>
	<g id="Azure_automation">
	</g>
	<g id="Azure_SQL_database">
	</g>
	<g id="Azure_subscription">
	</g>
	<g id="Backup_service">
	</g>
	<g id="Bitbucket_code_source">
	</g>
	<g id="Azure_cache">
	</g>
	<g id="Content_delivery_network__x28_CDN_x29_">
	</g>
	<g id="Cloud_service">
	</g>
	<g id="CodePlex">
	</g>
	<g id="Dropbox_code_source">
	</g>
	<g id="Express_route">
	</g>
	<g id="Git_repository">
	</g>
	<g id="GitHub_code">
	</g>
	<g id="HD_Insight">
	</g>
	<g id="Health_monitoring">
	</g>
	<g id="Healthy">
	</g>
	<g id="BizTalk_hybrid_connection">
	</g>
	<g id="Hybrid_connection_manager_for_BizTalk_hybrid_connection">
	</g>
	<g id="Hyper-V_recovery_manager">
	</g>
	<g id="Machine_learning">
	</g>
	<g id="Media_services">
	</g>
	<g id="Microsoft_account">
	</g>
	<g id="Mobile_services">
	</g>
	<g id="Multi-factor_authentication">
	</g>
	<g id="MySQL_database">
	</g>
	<g id="Notification_hub">
	</g>
	<g id="Notification_topic">
	</g>
	<g id="Cloud_Office_365">
	</g>
	<g id="Office_365">
	</g>
	<g id="OS_image">
	</g>
	<g id="Remote_app">
	</g>
	<g id="Task_scheduler">
	</g>
	<g id="Azure_SDK">
	</g>
	<g id="Service_bus">
	</g>
	<g id="Service_bus_queue">
	</g>
	<g id="Service_bus_relay">
	</g>
	<g id="Service_bus_topic">
	</g>
	<g id="Service_endpoint">
	</g>
	<g id="Custom_create">
	</g>
	<g id="SQL_data_sync">
	</g>
	<g id="SQL_reporting">
	</g>
	<g id="Startup_task">
	</g>
	<g id="Windows_Azure_storage">
	</g>
	<g id="Storage_blob">
	</g>
	<g id="Storage_table">
	</g>
	<g id="Storage_queue">
	</g>
	<g id="StorSimple">
	</g>
	<g id="Traffic_manager">
	</g>
	<g id="VHD">
	</g>
	<g id="VHD_data_disk">
	</g>
	<g id="Virtual_machine">
	</g>
	<g id="Team_foundation">
	</g>
	<g id="Azure_web_site">
	</g>
	<g id="Web_role">
	</g>
	<g id="Web_roles">
	</g>
	<g id="Worker_role">
	</g>
	<g id="Worker_roles">
		<g id="group376-785_3_" transform="translate(1232.63,-2875.15)">
			<g id="shape377-786_3_" transform="translate(13.3508,-15.1792)">
				<title>Sheet.377</title>
				<path fill="#0078D7" d="M-1167.4,2953.8c2.3-1.2,3.3-4.1,2.1-6.4c-1.2-2.3-4.1-3.2-6.4-2.1c-2.3,1.2-3.3,4.1-2.1,6.4
					C-1172.6,2954.1-1169.7,2955-1167.4,2953.8z M-1170.4,2948.1c0.9-0.4,1.9-0.1,2.4,0.8c0.4,0.9,0.1,1.9-0.8,2.3
					c-0.9,0.4-1.9,0.1-2.3-0.8C-1171.6,2949.6-1171.2,2948.5-1170.4,2948.1z"/>
			</g>
			<g id="shape378-788_3_">
				<title>Sheet.378</title>
				<path fill="#0078D7" d="M-1133.9,2923.7h-0.3c0-1.3-0.9-2.3-2-2.3h-0.3h-0.3c0-1.1-0.8-2-1.7-2h-35.6c-0.9,0-1.7,0.9-1.7,2v27.6
					c0,1.1,0.8,2,1.7,2h0.3v0.3v0c0,1.3,0.9,2.3,2,2.3h0.3c0,1.3,0.9,2.3,2,2.3h35.6c1.1,0,2-1,2-2.3V2926
					C-1131.8,2924.7-1132.8,2923.7-1133.9,2923.7z M-1165.9,2930.8l1.8-2.9l2.5,1c0.4-0.3,0.8-0.7,1.2-0.9l-0.4-2.8l3.3-0.9l1.1,2.5
					c0.6,0,1.3,0.1,1.9,0.2l1.8-2.2l2.9,1.8l-1.1,2.6c0.4,0.4,0.7,0.8,1,1.3l2.9-0.3l0.8,3.3l-2.6,1.1c0,0.6-0.1,1.1-0.2,1.7
					l2.2,1.8l-1.8,2.9l-2.5-1c-0.4,0.4-0.9,0.8-1.4,1.1l0.3,2.8l-3.3,0.8l-1-2.5c-0.6,0-1.2-0.1-1.8-0.2l-1.7,2.2l-2.9-1.8l1-2.4
					c-0.4-0.4-0.8-0.9-1.1-1.5l-2.7,0.3l-0.8-3.3l2.4-1c0-0.6,0.1-1.2,0.3-1.8L-1165.9,2930.8z M-1171.2,2953h-0.3h-0.3
					c-0.8,0-1.4-0.7-1.4-1.7l0,0v-0.3h1.7h0.3h0.3h32.4c0.9,0,1.7-0.9,1.7-2v-24.7v-0.3v-0.3v-1.7h0.3h0.3c0.8,0,1.4,0.7,1.4,1.7v0
					v0.3v0.3v27c0,0.9-0.6,1.7-1.4,1.7h-34.7H-1171.2L-1171.2,2953z M-1132.5,2953.6c0,0.9-0.6,1.7-1.4,1.7h-35.6
					c-0.8,0-1.4-0.7-1.4-1.7h34.7c1.1,0,2-1,2-2.3v-27h0.3c0.8,0,1.4,0.8,1.4,1.7V2953.6z"/>
			</g>
		</g>
	</g>
</g>
<g id="Layer_57">
</g>
<g id="Ibiza_Symbols">
	<g id="SQL_Database_Premium">
	</g>
</g>
</svg>
