<?xml version="1.0" encoding="UTF-8" standalone="no"?>
<!DOCTYPE svg PUBLIC "-//W3C//DTD SVG 1.1//EN" "http://www.w3.org/Graphics/SVG/1.1/DTD/svg11.dtd">
<!-- Generated by Microsoft Visio, SVG Export Azure Data Catalog.svg Layer_1 -->
<svg xmlns="http://www.w3.org/2000/svg" xmlns:xlink="http://www.w3.org/1999/xlink" xmlns:ev="http://www.w3.org/2001/xml-events"
		xmlns:v="http://schemas.microsoft.com/visio/2003/SVGExtensions/" width="0.520833in" height="0.520833in"
		viewBox="0 0 37.5 37.5" xml:space="preserve" color-interpolation-filters="sRGB" class="st2">
	<v:documentProperties v:langID="1033" v:viewMarkup="false"/>

	<style type="text/css">
	<![CDATA[
		.st1 {fill:#0078d7;stroke:none;stroke-linecap:butt;stroke-width:0.75}
		.st2 {fill:none;fill-rule:evenodd;font-size:12px;overflow:visible;stroke-linecap:square;stroke-miterlimit:3}
	]]>
	</style>

	<g v:mID="0" v:index="1" v:groupContext="foregroundPage">
		<title>Layer_1</title>
		<v:pageProperties v:drawingScale="1" v:pageScale="1" v:drawingUnits="19" v:shadowOffsetX="9" v:shadowOffsetY="-9"/>
		<g id="shape1-1" v:mID="1" v:groupContext="shape" transform="translate(4.8,-7.95)">
			<title>Sheet.1</title>
			<path d="M23.85 8.4 C23.55 8.03 23.03 7.95 23.03 7.95 L3 7.95 C0 7.95 0 10.42 0 10.42 L0 13.95 L2.33 13.95 C3.53 13.95
						 4.58 14.92 4.58 16.2 C4.58 17.4 3.6 18.45 2.33 18.45 L0 18.45 L0 21.68 L2.33 21.68 C3.53 21.68 4.58 22.65
						 4.58 23.92 C4.58 25.12 3.6 26.18 2.33 26.18 L0 26.18 L0 29.4 L2.33 29.4 C3.53 29.4 4.58 30.37 4.58 31.65
						 C4.58 32.85 3.6 33.9 2.33 33.9 L0 33.9 L0 36.45 C0 37.05 0.45 37.5 1.05 37.5 L10.28 37.5 L10.28 24.9 C10.28
						 21.68 14.7 19.42 21 19.42 L21 11.55 C21 10.95 21 10.87 20.4 10.87 L2.1 10.87 C2.03 9.67 3.23 9.37 3.23 9.37
						 L21.53 9.37 C22.65 9.37 22.65 10.35 22.65 10.35 L22.65 19.42 C23.1 19.42 23.48 19.5 23.85 19.5 C23.93 19.5
						 24 19.5 24 19.5 L24 8.92 C24 8.77 23.93 8.55 23.85 8.4 Z" class="st1"/>
		</g>
		<g id="shape2-3" v:mID="2" v:groupContext="shape" transform="translate(17.025,1.42109E-14)">
			<title>Sheet.2</title>
			<path d="M9 13.35 C3.67 13.35 0 15.07 0 16.95 L0 33.37 C0 33.37 0 33.45 0 33.52 L0 33.75 C0 33.82 0 33.9 0 33.97 C0.3
						 35.77 4.05 37.5 9.15 37.5 C14.4 37.5 17.78 35.85 17.85 33.97 L17.85 33.9 L17.85 33.52 L17.85 17.1 C17.85
						 15.22 14.32 13.35 9 13.35 ZM9.15 18.6 C5.32 18.6 2.25 17.7 2.25 16.65 C2.25 15.52 5.32 14.7 9.15 14.7 C12.98
						 14.7 15.52 15.6 15.52 16.72 C15.52 17.77 12.9 18.6 9.15 18.6 Z" class="st1"/>
		</g>
		<g id="shape3-5" v:mID="3" v:groupContext="shape" transform="translate(2.625,-20.55)">
			<title>Sheet.3</title>
			<path d="M5.55 36.45 C5.55 37.05 5.1 37.5 4.5 37.5 L1.05 37.5 C0.45 37.5 0 37.05 0 36.45 C0 35.85 0.45 35.4 1.05 35.4
						 L4.5 35.4 C5.1 35.33 5.55 35.85 5.55 36.45 Z" class="st1"/>
		</g>
		<g id="shape4-7" v:mID="4" v:groupContext="shape" transform="translate(2.625,-28.275)">
			<title>Sheet.4</title>
			<path d="M5.55 36.45 C5.55 37.05 5.1 37.5 4.5 37.5 L1.05 37.5 C0.45 37.5 0 37.05 0 36.45 C0 35.85 0.45 35.4 1.05 35.4
						 L4.5 35.4 C5.1 35.4 5.55 35.92 5.55 36.45 Z" class="st1"/>
		</g>
		<g id="shape5-9" v:mID="5" v:groupContext="shape" transform="translate(2.625,-12.9)">
			<title>Sheet.5</title>
			<path d="M5.55 36.45 C5.55 37.05 5.1 37.5 4.5 37.5 L1.05 37.5 C0.45 37.5 0 37.05 0 36.45 C0 35.85 0.45 35.4 1.05 35.4
						 L4.5 35.4 C5.1 35.4 5.55 35.85 5.55 36.45 Z" class="st1"/>
		</g>
	</g>
</svg>
