<?xml version="1.0" encoding="utf-8"?>
<!-- Generator: Adobe Illustrator 18.1.0, SVG Export Plug-In . SVG Version: 6.00 Build 0)  -->
<!DOCTYPE svg PUBLIC "-//W3C//DTD SVG 1.0//EN" "http://www.w3.org/TR/2001/REC-SVG-20010904/DTD/svg10.dtd">
<svg version="1.0" id="Layer_1" xmlns="http://www.w3.org/2000/svg" xmlns:xlink="http://www.w3.org/1999/xlink" x="0px" y="0px"
	 viewBox="0 0 792 612" enable-background="new 0 0 792 612" xml:space="preserve">
<g id="Layer_1_1_">
	<g id="Azure">
	</g>
	<g id="BizTalk_Services" transform="translate(37.3575,-2500.2)">
	</g>
	<g id="Key_Vault">
	</g>
	<g id="Mobile_Engagement">
	</g>
	<g id="Office_subscription">
		<g id="Office_subscription_1_">
		</g>
	</g>
</g>
<g id="paths">
	<g id="Access_control">
	</g>
	<g id="Azure_active_directory">
	</g>
	<g id="API_Management">
	</g>
	<g id="Azure_automation">
	</g>
	<g id="Azure_SQL_database">
	</g>
	<g id="Azure_subscription">
	</g>
	<g id="Backup_service">
	</g>
	<g id="Bitbucket_code_source">
	</g>
	<g id="Azure_cache">
	</g>
	<g id="Content_delivery_network__x28_CDN_x29_">
	</g>
	<g id="Cloud_service">
	</g>
	<g id="CodePlex">
	</g>
	<g id="Dropbox_code_source">
	</g>
	<g id="Express_route">
	</g>
	<g id="Git_repository">
	</g>
	<g id="GitHub_code">
	</g>
	<g id="HD_Insight">
	</g>
	<g id="Health_monitoring">
	</g>
	<g id="Healthy">
	</g>
	<g id="BizTalk_hybrid_connection">
	</g>
	<g id="Hybrid_connection_manager_for_BizTalk_hybrid_connection">
	</g>
	<g id="Hyper-V_recovery_manager">
	</g>
	<g id="Machine_learning">
	</g>
	<g id="Media_services">
	</g>
	<g id="Microsoft_account">
	</g>
	<g id="Mobile_services">
	</g>
	<g id="Multi-factor_authentication">
	</g>
	<g id="MySQL_database">
	</g>
	<g id="Notification_hub">
	</g>
	<g id="Notification_topic">
	</g>
	<g id="Cloud_Office_365">
	</g>
	<g id="Office_365">
	</g>
	<g id="OS_image">
	</g>
	<g id="Remote_app">
	</g>
	<g id="Task_scheduler">
	</g>
	<g id="Azure_SDK">
	</g>
	<g id="Service_bus">
	</g>
	<g id="Service_bus_queue">
	</g>
	<g id="Service_bus_relay">
	</g>
	<g id="Service_bus_topic">
	</g>
	<g id="Service_endpoint">
	</g>
	<g id="Custom_create">
	</g>
	<g id="SQL_data_sync">
	</g>
	<g id="SQL_reporting">
	</g>
	<g id="Startup_task">
	</g>
	<g id="Windows_Azure_storage">
	</g>
	<g id="Storage_blob">
	</g>
	<g id="Storage_table">
	</g>
	<g id="Storage_queue">
	</g>
	<g id="StorSimple">
	</g>
	<g id="Traffic_manager">
	</g>
	<g id="VHD">
	</g>
	<g id="VHD_data_disk">
	</g>
	<g id="Virtual_machine">
	</g>
	<g id="Team_foundation">
	</g>
	<g id="Azure_web_site">
		<g>
			<title>Sheet.40</title>
			<g id="shape41-78_1_">
				<title>Sheet.41</title>
				<path fill="#0078D7" d="M516.8,365.1c-15.6,12-33.9,17.7-52.1,17.7c-26,0-51-11.5-68.2-33.9c-28.6-37.5-21.4-91.1,16.1-119.8
					c15.6-12,33.9-17.7,52.1-17.7c26,0,51,11.5,68.2,33.9C561.6,282.8,554.3,336.5,516.8,365.1z M542.9,237
					c-19.3-25.5-49-38.5-78.1-38.5c-20.8,0-42.2,6.8-59.9,20.3c-43.2,33.3-51.6,94.8-18.2,138c19.3,25.5,48.4,38.5,78.1,38.5
					c20.8,0,42.2-6.8,59.9-20.3C567.9,342.2,576.2,280.2,542.9,237z"/>
			</g>
			<g id="group42-80_1_" transform="translate(6.08175,-5.25525)">
				<title>Sheet.42</title>
				<g id="group43-81_1_" transform="translate(0.41925,-0.2115)">
					<title>Sheet.43</title>
					<g id="shape44-82_1_" transform="translate(0.537,0)">
						<title>Sheet.44</title>
						<path fill="#0078D7" d="M413.1,320.8c-5.7-5.7-10.4-10.9-14.1-16.1c-8.3,16.7-10.9,33.9-12,47.9c1,1,1,2.1,1.6,3.1
							c4.2,5.2,9.4,10.4,14.1,14.1C402.7,358.3,403.7,339.5,413.1,320.8z"/>
					</g>
					<g id="shape45-84_1_" transform="translate(4.041,-10.7332)">
						<title>Sheet.45</title>
						<path fill="#0078D7" d="M439.9,265.4c-7.8,5.2-15.6,12-24,20.8c-4.2,4.7-8.3,9.4-11.5,14.1c3.6,5.7,7.8,11.5,13.5,17.2
							c4.2-5.7,9.4-12,15.6-17.7c7.8-7.3,15.1-13.5,22.4-18.2C450.8,276.4,445.1,270.6,439.9,265.4z"/>
					</g>
					<g id="shape46-86_1_" transform="translate(12.1935,-18.1665)">
						<title>Sheet.46</title>
						<path fill="#0078D7" d="M513.4,267.8c-3.6-4.7-7.3-8.8-12-12.5c-13-2.1-34.5-1.7-57.9,10.8c5.2,5.7,10.9,11.5,16.1,16.1
							C490.8,265.1,513.4,267.8,513.4,267.8z"/>
					</g>
					<g id="shape47-88_1_" transform="translate(5.04596E-014,-11.214)">
						<title>Sheet.47</title>
						<path fill="#0078D7" d="M399.9,315.2c2.6-4.7,5.2-9.4,8.3-14.6c-13.5-21.4-13-39.1-11.5-47.4c-3.1,3.6-6.8,7.3-9.4,10.9
							C384.8,276.2,384.8,293.9,399.9,315.2z"/>
					</g>
					<g id="shape48-90_1_" transform="translate(4.97325,-0.88575)">
						<title>Sheet.48</title>
						<path fill="#0078D7" d="M433.4,322.8c-6.3-5.2-11.5-9.9-16.1-14.6c-3.1,4.7-5.7,8.9-8.3,13.5c4.2,4.2,9.4,8.9,15.1,13
							c34.9,27.6,69.8,30.2,89.6,30.2c1,0,7.3-8.3,10.9-13.5C515.6,353.5,478.1,358.2,433.4,322.8z"/>
					</g>
					<g id="shape49-92_1_" transform="translate(2.5815,-8.4045)">
						<title>Sheet.49</title>
						<path fill="#0078D7" d="M397.2,312.5c3.6,5.2,8.3,10.9,14.1,16.1c2.1-4.7,4.7-8.9,8.3-13.5c-5.7-5.7-9.9-11.5-13.5-17.2
							C402.5,303.1,399.8,307.8,397.2,312.5z"/>
					</g>
					<g id="shape50-94_1_" transform="translate(12.912,-6.3645)">
						<title>Sheet.50</title>
						<path fill="#0078D7" d="M447,277.3c32.3,29.7,69.8,54.7,79.7,61.5c1-2.6,1.6-4.7,2.1-7.3c-10.4-7.8-37.5-28.6-70.3-61.5
							C455.3,272.1,451.1,273.5,447,277.3z"/>
					</g>
					<g id="shape51-96_1_" transform="translate(6.12225,-19.6927)">
						<title>Sheet.51</title>
						<path fill="#0078D7" d="M450.1,267.4c-7.8-8.3-16.1-17.6-24.5-27c-3.6,1-7.8,2.6-11.5,4.7c5.7,9.9,14.6,20.1,23.4,29.5
							C442.3,272,446,269.5,450.1,267.4z"/>
					</g>
					<g id="shape52-98_1_" transform="translate(10.1055,-16.92)">
						<title>Sheet.52</title>
						<path fill="#0078D7" d="M446.1,264.6c-4.2,2.1-9,4.1-12.6,7.2c5.2,5.2,10.6,10.8,16.3,16c4.2-2.6,7.7-4.7,11.9-6.8
							C456.5,275.9,451.8,270.4,446.1,264.6z"/>
					</g>
				</g>
				<g id="shape53-100_1_" transform="translate(18.2415,-7.45725)">
					<title>Sheet.53</title>
					<path fill="#0078D7" d="M480.1,299.1c-7.8,6.3-9.4,17.7-3.6,25.5c6.3,8.3,17.7,9.4,26,3.6c7.8-6.3,9.4-17.7,3.6-26
						C499.9,294.4,488.5,292.9,480.1,299.1z"/>
				</g>
				<g id="shape54-102_1_" transform="translate(11.8462,0)">
					<title>Sheet.54</title>
					<path fill="#0078D7" d="M448.5,337.8c-7.3,5.7-8.9,16.7-3.1,24c5.7,7.3,16.7,8.9,24,3.1c7.3-5.7,8.9-16.1,3.1-24
						C466.8,333.1,456.3,332.1,448.5,337.8z"/>
				</g>
				<g id="shape55-104_1_" transform="translate(5.9952E-015,-6.41325)">
					<title>Sheet.55</title>
					<path fill="#0078D7" d="M396.6,290c-11.5,8.9-13.5,25-4.7,36.5c8.9,11.5,25,13.5,36.5,4.7s13.5-25,4.7-36.5
						C424.2,283.2,407.5,281.1,396.6,290z"/>
				</g>
			</g>
		</g>
	</g>
</g>
<g id="Layer_57">
</g>
<g id="Ibiza_Symbols">
	<g id="SQL_Database_Premium">
	</g>
</g>
</svg>
