<?xml version="1.0" encoding="utf-8"?>
<!-- Generator: Adobe Illustrator 18.1.0, SVG Export Plug-In . SVG Version: 6.00 Build 0)  -->
<!DOCTYPE svg PUBLIC "-//W3C//DTD SVG 1.1//EN" "http://www.w3.org/Graphics/SVG/1.1/DTD/svg11.dtd">
<svg version="1.1" id="Layer_1" xmlns="http://www.w3.org/2000/svg" xmlns:xlink="http://www.w3.org/1999/xlink" x="0px" y="0px"
	 viewBox="0 0 792 612" enable-background="new 0 0 792 612" xml:space="preserve">
<g id="Layer_1_1_">
</g>
<g>
	<path fill="#0078D7" d="M432.6,279.9h-62.8c-3.2,0-5.3,2.7-5.3,5.3v78.2c0,3.2,2.7,5.9,5.3,5.9h74c3.2,0,5.3-2.7,5.3-5.9v-66h-17
		v-17.6L432.6,279.9L432.6,279.9z M430.5,347.5h-47.4v-9h47.4V347.5z M430.5,331h-47.4v-9h47.4V331z M430.5,314h-47.4v-9h47.4V314z"
		/>
	<path fill="#0078D7" d="M457.6,237.3H357l-50.6,87.3l50.6,87.3h100.6l50.6-87.3L457.6,237.3z M444.3,377.8h-74
		c-8,0-14.4-6.4-14.4-14.4v-78.2c0-8,6.4-14.4,14.4-14.4h67.1l21.3,21.3v71.3C458.7,371.4,452.3,377.8,444.3,377.8z"/>
</g>
<g id="Ibiza_Symbols">
	<g id="SQL_Database_Premium">
	</g>
</g>
</svg>
