<?xml version="1.0" encoding="UTF-8" standalone="no"?>
<!DOCTYPE svg PUBLIC "-//W3C//DTD SVG 1.1//EN" "http://www.w3.org/Graphics/SVG/1.1/DTD/svg11.dtd">
<!-- Generated by Microsoft Visio, SVG Export CND (New).svg Page-1 -->
<svg xmlns="http://www.w3.org/2000/svg" xmlns:xlink="http://www.w3.org/1999/xlink" xmlns:ev="http://www.w3.org/2001/xml-events"
		xmlns:v="http://schemas.microsoft.com/visio/2003/SVGExtensions/" width="0.354167in" height="0.173958in"
		viewBox="0 0 25.5 12.525" xml:space="preserve" color-interpolation-filters="sRGB" class="st2">
	<v:documentProperties v:langID="1033" v:viewMarkup="false"/>

	<style type="text/css">
	<![CDATA[
		.st1 {fill:#0078d7;stroke:none;stroke-linecap:butt;stroke-width:0.75}
		.st2 {fill:none;fill-rule:evenodd;font-size:12px;overflow:visible;stroke-linecap:square;stroke-miterlimit:3}
	]]>
	</style>

	<g v:mID="0" v:index="1" v:groupContext="foregroundPage">
		<title>Page-1</title>
		<v:pageProperties v:drawingScale="1" v:pageScale="1" v:drawingUnits="19" v:shadowOffsetX="9" v:shadowOffsetY="-9"/>
		<g id="shape5-1" v:mID="5" v:groupContext="shape" transform="translate(0.75,-0.75)">
			<title>Sheet.5</title>
			<path d="M24 10.43 C24 9.3 23.1 8.33 21.97 8.33 L21.67 8.33 C21.75 7.88 21.9 7.42 21.9 6.9 C21.9 3.9 19.42 1.5 16.5 1.5
						 C14.17 1.5 12.15 3.08 11.4 5.17 C11.02 5.1 10.65 4.95 10.2 4.95 C8.1 4.95 6.52 6.6 6.52 8.7 C6.52 10.8 8.17
						 12.45 10.2 12.45 L22.05 12.45 C23.18 12.37 24 11.55 24 10.43 ZM0.98 6.75 C0.45 6.75 0 7.2 0 7.72 C0 8.25
						 0.45 8.7 0.98 8.7 L5.62 8.7 C5.62 8.02 5.78 7.35 6.08 6.75 L0.98 6.75 ZM6 10.57 L2.33 10.57 C1.8 10.57 1.35
						 11.03 1.35 11.55 C1.35 12.07 1.8 12.52 2.33 12.52 L7.43 12.52 C6.83 12 6.3 11.4 6 10.57 ZM10.88 4.12 C11.18
						 3.52 11.55 3 12 2.55 L3.97 2.55 C3.45 2.55 3 3 3 3.52 C3 4.05 3.45 4.5 3.97 4.5 L8.32 4.5 C8.92 4.2 9.53
						 4.05 10.69 4.06 C10.42 4.12 10.65 4.12 10.88 4.12 Z" class="st1"/>
		</g>
	</g>
</svg>
