<?xml version="1.0" encoding="utf-8"?>
<!-- Generator: Adobe Illustrator 19.1.0, SVG Export Plug-In . SVG Version: 6.00 Build 0)  -->
<svg version="1.1" id="Layer_1" xmlns="http://www.w3.org/2000/svg" xmlns:xlink="http://www.w3.org/1999/xlink" x="0px" y="0px"
	 viewBox="272.5 360.2 67.3 70.3" style="enable-background:new 272.5 360.2 67.3 70.3;" xml:space="preserve">
<style type="text/css">
	.st0{fill:#2072B8;}
</style>
<g>
	<path class="st0" d="M287.4,404.5h11.4l3.8-6.5v-6.8c-2-1.1-3.4-3.2-3.4-5.6c0-3.5,2.9-6.4,6.4-6.4h15.9c3.5,0,6.4,2.9,6.4,6.4
		c0,2.4-1.4,4.6-3.4,5.6v6.8l3.8,6.5h4.4l0,0c3.9-0.3,7.1-3.6,7.1-7.7c0-4.3-3.4-7.7-7.7-7.7c-0.3,0-0.6,0-0.9,0.1
		c0.5-1.7,0.7-3.6,0.7-5.5c0-11.4-9.2-20.6-20.4-20.6c-9,0-16.7,5.9-19.4,14.1c-1.4-0.5-3-0.8-4.6-0.8c-7.7,0-14,6.3-14,14.1
		C273.4,398.2,279.6,404.5,287.4,404.5L287.4,404.5L287.4,404.5z"/>
	<g>
		<circle class="st0" cx="317.9" cy="419.6" r="1.4"/>
		<path class="st0" d="M335.7,424l-14.5-25.2v-10.2h0.3c1.7,0,3.1-1.4,3.1-3.1s-1.4-3.1-3.1-3.1h-15.9c-1.7,0-3.1,1.4-3.1,3.1
			s1.4,3.1,3.1,3.1h0.3v10.2L291.3,424c-1.6,2.8-0.3,5,2.9,5h38.6C336,429,337.3,426.7,335.7,424z M297.2,423.5l6-10.4h8.4
			c-0.2,0.4-0.3,0.8-0.3,1.3c0,1.6,1.3,2.9,2.9,2.9s2.9-1.3,2.9-2.9c0-0.5-0.1-0.9-0.3-1.3h6.8l6,10.4H297.2z"/>
	</g>
</g>
</svg>
