<?xml version="1.0" encoding="utf-8"?>
<!-- Generator: Adobe Illustrator 18.1.0, SVG Export Plug-In . SVG Version: 6.00 Build 0)  -->
<!DOCTYPE svg PUBLIC "-//W3C//DTD SVG 1.0//EN" "http://www.w3.org/TR/2001/REC-SVG-20010904/DTD/svg10.dtd">
<svg version="1.0" xmlns="http://www.w3.org/2000/svg" xmlns:xlink="http://www.w3.org/1999/xlink" x="0px" y="0px"
	 viewBox="0 0 152 117.5" enable-background="new 0 0 152 117.5" xml:space="preserve">
<g id="Layer_1">
	<g id="Azure">
	</g>
	<g id="BizTalk_Services" transform="translate(37.3575,-2500.2)">
	</g>
	<g id="Key_Vault">
	</g>
	<g id="Mobile_Engagement">
	</g>
	<g id="Office_subscription">
		<g id="Office_subscription_1_">
		</g>
	</g>
</g>
<g id="paths">
	<g id="Access_control">
	</g>
	<g id="Azure_active_directory">
	</g>
	<g id="API_Management">
	</g>
	<g id="Azure_automation">
	</g>
	<g id="Azure_SQL_database">
	</g>
	<g id="Azure_subscription">
	</g>
	<g id="Backup_service">
	</g>
	<g id="Bitbucket_code_source">
	</g>
	<g id="Azure_cache">
	</g>
	<g id="Content_delivery_network__x28_CDN_x29_">
	</g>
	<g id="Cloud_service">
	</g>
	<g id="CodePlex">
	</g>
	<g id="Dropbox_code_source">
	</g>
	<g id="Express_route">
	</g>
	<g id="Git_repository">
	</g>
	<g id="GitHub_code">
	</g>
	<g id="HD_Insight">
	</g>
	<g id="Health_monitoring">
	</g>
	<g id="Healthy">
	</g>
	<g id="BizTalk_hybrid_connection">
	</g>
	<g id="Hybrid_connection_manager_for_BizTalk_hybrid_connection">
	</g>
	<g id="Hyper-V_recovery_manager">
	</g>
	<g id="Machine_learning">
	</g>
	<g id="Media_services">
	</g>
	<g id="Microsoft_account">
	</g>
	<g id="Mobile_services">
	</g>
	<g id="Multi-factor_authentication">
	</g>
	<g id="MySQL_database">
	</g>
	<g id="Notification_hub">
	</g>
	<g id="Notification_topic">
	</g>
	<g id="Cloud_Office_365">
	</g>
	<g id="Office_365">
	</g>
	<g id="OS_image">
	</g>
	<g id="Remote_app">
	</g>
	<g id="Task_scheduler">
	</g>
	<g id="Azure_SDK">
	</g>
	<g id="Service_bus">
	</g>
	<g id="Service_bus_queue">
	</g>
	<g id="Service_bus_relay">
	</g>
	<g id="Service_bus_topic">
	</g>
	<g id="Service_endpoint">
	</g>
	<g id="Custom_create">
	</g>
	<g id="SQL_data_sync">
	</g>
	<g id="SQL_reporting">
	</g>
	<g id="Startup_task">
	</g>
	<g id="Windows_Azure_storage">
	</g>
	<g id="Storage_blob">
		<g>
			<path fill="#0078D7" d="M85.7,39.7H66.4l-9.6,16.7l9.6,16.7h19.3l9.6-16.7L85.7,39.7z M85.8,63.9c0,1.4-1.2,2.6-2.6,2.6H69
				c-1.4,0-2.6-1.2-2.6-2.6V49c0-1.4,1.2-2.6,2.6-2.6h10.5c1,0,2,0,2,0h0.3l4,4v2.1V63.9z"/>
			<path fill="#0078D7" d="M74.6,59.1c0-0.2-0.1-0.3-0.1-0.4c0-0.1-0.1-0.2-0.2-0.3c-0.1-0.1-0.1-0.1-0.2-0.1c-0.1,0-0.2,0-0.3,0
				c-0.2,0-0.3,0-0.4,0.1s-0.2,0.2-0.3,0.4C73,59,73,59.2,73,59.4c0,0.2,0,0.5,0,0.9c0,0.4,0,0.7,0,1c0,0.3,0.1,0.5,0.2,0.6
				c0.1,0.2,0.2,0.3,0.3,0.3c0.1,0.1,0.2,0.1,0.4,0.1c0.1,0,0.2,0,0.3-0.1c0.1,0,0.2-0.1,0.2-0.2c0.1-0.1,0.1-0.2,0.2-0.3
				c0-0.1,0.1-0.2,0.1-0.4c0-0.1,0-0.3,0.1-0.5c0-0.2,0-0.4,0-0.6c0-0.3,0-0.5,0-0.7C74.6,59.4,74.6,59.3,74.6,59.1z"/>
			<path fill="#0078D7" d="M79.1,51.3c0-0.2-0.1-0.3-0.1-0.4c0-0.1-0.1-0.2-0.2-0.3c-0.1-0.1-0.1-0.1-0.2-0.1c-0.1,0-0.2,0-0.3,0
				c-0.2,0-0.3,0-0.4,0.1c-0.1,0.1-0.2,0.2-0.3,0.4c-0.1,0.2-0.1,0.4-0.1,0.6c0,0.2,0,0.5,0,0.9c0,0.4,0,0.7,0,1
				c0,0.3,0.1,0.5,0.2,0.6c0.1,0.2,0.2,0.3,0.3,0.3c0.1,0.1,0.2,0.1,0.4,0.1c0.1,0,0.2,0,0.3-0.1c0.1,0,0.2-0.1,0.2-0.2
				c0.1-0.1,0.1-0.2,0.2-0.3c0-0.1,0.1-0.2,0.1-0.4c0-0.1,0-0.3,0.1-0.5c0-0.2,0-0.4,0-0.6c0-0.3,0-0.5,0-0.7
				C79.2,51.7,79.2,51.5,79.1,51.3z"/>
			<path fill="#0078D7" d="M81.1,47.8c-0.4,0-1,0-1.6,0H69c-0.7,0-1.2,0.5-1.2,1.2v14.9c0,0.7,0.5,1.2,1.2,1.2h14.2
				c0.6,0,1.2-0.5,1.2-1.2V51.1h-3.2V47.8z M72.2,50.8c0,0,0-0.1,0-0.1c0,0,0-0.1,0-0.1c0,0,0,0,0.1-0.1l1.2-0.8c0,0,0,0,0.1,0
				c0,0,0.1,0,0.1,0c0,0,0.1,0,0.1,0c0.1,0,0.1,0,0.2,0c0.1,0,0.2,0,0.3,0c0.1,0,0.1,0,0.2,0c0,0,0.1,0,0.1,0c0,0,0,0,0,0.1v4.7h0.9
				c0,0,0.1,0,0.1,0c0,0,0,0,0.1,0.1s0,0.1,0,0.1c0,0.1,0,0.1,0,0.2c0,0.1,0,0.2,0,0.2c0,0.1,0,0.1,0,0.1c0,0,0,0.1-0.1,0.1
				c0,0,0,0-0.1,0h-3.1c0,0,0,0-0.1,0c0,0,0,0-0.1-0.1c0,0,0-0.1,0-0.1c0-0.1,0-0.1,0-0.2c0-0.1,0-0.2,0-0.2c0-0.1,0-0.1,0-0.1
				c0,0,0-0.1,0.1-0.1c0,0,0,0,0.1,0h1.1v-3.7l-0.9,0.5c-0.1,0-0.1,0.1-0.2,0.1c0,0-0.1,0-0.1,0c0,0,0-0.1-0.1-0.1
				c0-0.1,0-0.1,0-0.3C72.2,50.9,72.2,50.8,72.2,50.8z M75.7,61.5c-0.1,0.4-0.2,0.7-0.4,0.9c-0.2,0.3-0.4,0.5-0.6,0.6
				c-0.3,0.1-0.6,0.2-1,0.2c-0.4,0-0.7-0.1-1-0.2c-0.3-0.1-0.5-0.3-0.6-0.6s-0.3-0.6-0.3-0.9c-0.1-0.4-0.1-0.8-0.1-1.2
				c0-0.5,0-0.9,0.1-1.2c0.1-0.4,0.2-0.7,0.4-0.9s0.4-0.5,0.6-0.6c0.3-0.1,0.6-0.2,1-0.2c0.4,0,0.7,0.1,1,0.2
				c0.3,0.1,0.5,0.3,0.6,0.6c0.1,0.3,0.3,0.6,0.3,0.9c0.1,0.4,0.1,0.8,0.1,1.2C75.8,60.8,75.8,61.2,75.7,61.5z M80.2,62.9
				c0,0.1,0,0.1,0,0.1c0,0,0,0.1-0.1,0.1c0,0,0,0-0.1,0h-3.1c0,0,0,0-0.1,0c0,0,0,0-0.1-0.1c0,0,0-0.1,0-0.1c0-0.1,0-0.1,0-0.2
				c0-0.1,0-0.2,0-0.2c0-0.1,0-0.1,0-0.1c0,0,0-0.1,0.1-0.1c0,0,0,0,0.1,0H78v-3.7l-0.9,0.5c-0.1,0-0.1,0.1-0.2,0.1c0,0-0.1,0-0.1,0
				c0,0,0-0.1-0.1-0.1c0-0.1,0-0.1,0-0.3c0-0.1,0-0.1,0-0.2c0,0,0-0.1,0-0.1c0,0,0-0.1,0-0.1s0,0,0.1-0.1l1.2-0.8c0,0,0,0,0.1,0
				c0,0,0.1,0,0.1,0c0,0,0.1,0,0.1,0c0.1,0,0.1,0,0.2,0c0.1,0,0.2,0,0.3,0c0.1,0,0.1,0,0.2,0c0,0,0.1,0,0.1,0c0,0,0,0,0,0.1v4.7H80
				c0,0,0.1,0,0.1,0c0,0,0,0,0.1,0.1c0,0,0,0.1,0,0.1c0,0.1,0,0.1,0,0.2C80.2,62.8,80.2,62.9,80.2,62.9z M80.3,53.7
				c-0.1,0.4-0.2,0.7-0.4,0.9c-0.2,0.3-0.4,0.5-0.6,0.6c-0.3,0.1-0.6,0.2-1,0.2c-0.4,0-0.7-0.1-1-0.2c-0.3-0.1-0.5-0.3-0.6-0.6
				c-0.1-0.2-0.3-0.6-0.3-0.9s-0.1-0.8-0.1-1.2c0-0.5,0-0.9,0.1-1.2c0.1-0.4,0.2-0.7,0.4-0.9c0.2-0.3,0.4-0.5,0.6-0.6
				c0.3-0.1,0.6-0.2,1-0.2c0.4,0,0.7,0.1,1,0.2c0.3,0.1,0.5,0.3,0.6,0.6c0.1,0.3,0.3,0.6,0.3,0.9c0.1,0.4,0.1,0.8,0.1,1.2
				C80.4,53,80.3,53.4,80.3,53.7z"/>
		</g>
	</g>
</g>
<g id="Layer_57">
</g>
<g id="Ibiza_Symbols">
	<g id="SQL_Database_Premium">
	</g>
</g>
</svg>
