<?xml version="1.0" encoding="utf-8"?>
<!-- Generator: Adobe Illustrator 18.1.0, SVG Export Plug-In . SVG Version: 6.00 Build 0)  -->
<!DOCTYPE svg PUBLIC "-//W3C//DTD SVG 1.0//EN" "http://www.w3.org/TR/2001/REC-SVG-20010904/DTD/svg10.dtd">
<svg version="1.0" xmlns="http://www.w3.org/2000/svg" xmlns:xlink="http://www.w3.org/1999/xlink" x="0px" y="0px"
	 viewBox="0 0 152 117.5" enable-background="new 0 0 152 117.5" xml:space="preserve">
<g id="Layer_1">
	<g id="Azure">
	</g>
	<g id="BizTalk_Services" transform="translate(37.3575,-2500.2)">
	</g>
	<g id="Key_Vault">
	</g>
	<g id="Mobile_Engagement">
	</g>
</g>
<g id="paths">
	<g id="Access_control">
	</g>
	<g id="Azure_active_directory">
	</g>
	<g id="API_Management">
	</g>
	<g id="Azure_automation">
	</g>
	<g id="Azure_SQL_database">
	</g>
	<g id="Azure_subscription">
	</g>
	<g id="Backup_service">
	</g>
	<g id="Bitbucket_code_source">
	</g>
	<g id="Azure_cache">
	</g>
	<g id="Content_delivery_network__x28_CDN_x29_">
	</g>
	<g id="Cloud_service">
	</g>
	<g id="CodePlex">
	</g>
	<g id="Dropbox_code_source">
	</g>
	<g id="Express_route">
	</g>
	<g id="Git_repository">
	</g>
	<g id="GitHub_code">
	</g>
	<g id="HD_Insight">
	</g>
	<g id="Health_monitoring">
	</g>
	<g id="Healthy">
	</g>
	<g id="BizTalk_hybrid_connection">
	</g>
	<g id="Hybrid_connection_manager_for_BizTalk_hybrid_connection">
	</g>
	<g id="Hyper-V_recovery_manager">
	</g>
	<g id="Machine_learning">
	</g>
	<g id="Media_services">
	</g>
	<g id="Microsoft_account">
	</g>
	<g id="Mobile_services">
	</g>
	<g id="Multi-factor_authentication">
	</g>
	<g id="MySQL_database">
	</g>
	<g id="Notification_hub">
	</g>
	<g id="Notification_topic">
	</g>
	<g id="Cloud_Office_365">
		<path fill-rule="evenodd" clip-rule="evenodd" fill="#DE3C00" d="M102.4,58.8c0.1-0.5,0.1-0.9,0.1-1.3c0-6.7-5.1-12.2-11.4-12.2
			c-1.6,0-3.3,0.4-4.8,1.1c-2.1-4-6-6.5-10.2-6.5c-6.3,0-11.4,5.2-11.8,11.8c-0.5-0.1-1-0.1-1.5-0.1c-3,0-5.8,1.5-7.5,4.1
			c-5.9-0.4-10.8,4.6-10.8,10.8c0,6,4.6,10.9,10.2,10.9H99l1.4-0.3c4.2-1.1,7.1-5.1,7.1-9.6C107.5,63.8,105.5,60.5,102.4,58.8z
			 M86.5,71.8L86.5,71.8l-6.4,1.8l-11.6-4.3L80.1,71V55.5l-7.6,1.8v10.5l-3.9,1.5l0-13l0,0l11.5-4.3l6.4,1.9V71.8L86.5,71.8
			L86.5,71.8z"/>
	</g>
</g>
</svg>
