<?xml version="1.0" encoding="utf-8"?>
<!-- Generator: Adobe Illustrator 18.1.0, SVG Export Plug-In . SVG Version: 6.00 Build 0)  -->
<!DOCTYPE svg PUBLIC "-//W3C//DTD SVG 1.0//EN" "http://www.w3.org/TR/2001/REC-SVG-20010904/DTD/svg10.dtd">
<svg version="1.0" xmlns="http://www.w3.org/2000/svg" xmlns:xlink="http://www.w3.org/1999/xlink" x="0px" y="0px"
	 viewBox="0 0 152 117.5" enable-background="new 0 0 152 117.5" xml:space="preserve">
<g id="Layer_1">
	<g id="Azure">
		<g>
			<path fill="#0078D7" d="M93.3,59c-2,0-3.7,1.2-4.5,2.9H60.2l0,0c-4.8,0-8.8-3.9-8.8-8.8s3.9-8.8,8.8-8.8l0,0h0.1l0,0h3.9
				c0.2-1,0.5-2,0.9-2.9c0.2-0.3,0.3-0.7,0.5-1c2-3.5,5.8-5.8,10.1-5.8c3.9,0,7.3,1.9,9.4,4.7c1.2-0.6,2.5-1,3.8-1.3
				c-2.8-4.4-7.6-7.3-13.2-7.3c-6.5,0-12.1,4-14.4,9.7c0,0,0,0,0,0.1l0,0c0,0,0,0,0-0.1h-1.1c-7,0.1-12.7,5.8-12.7,12.8
				s5.7,12.7,12.7,12.7h28.7c0.8,1.7,2.5,2.9,4.5,2.9c2.7,0,4.9-2.2,4.9-4.9C98.2,61.2,96,59,93.3,59z"/>
			<path fill="#0078D7" d="M108.5,80.8c8.6,0,16-7.3,16-15.9s-6.9-15.5-15.5-15.6c-2.9-5.8-8.8-9.7-15.7-9.7
				c-8.4,0-15.4,5.9-17.1,13.7c-4.1,0.4-7.6,2.6-9.8,5.7h20.9c1.4-1.8,3.6-2.9,6.1-2.9c4.3,0,7.8,3.5,7.8,7.8s-3.5,7.8-7.8,7.8
				c-2.5,0-4.6-1.1-6.1-2.9H64c0.9,6.6,6.2,12,13.1,12H108.5z"/>
		</g>
	</g>
</g>
<g id="paths">
	<g id="Access_control">
	</g>
	<g id="Azure_active_directory">
	</g>
	<g id="API_Management">
	</g>
	<g id="Azure_automation">
	</g>
</g>
</svg>
