<?xml version="1.0" encoding="utf-8"?>
<!-- Generator: Adobe Illustrator 18.1.0, SVG Export Plug-In . SVG Version: 6.00 Build 0)  -->
<!DOCTYPE svg PUBLIC "-//W3C//DTD SVG 1.0//EN" "http://www.w3.org/TR/2001/REC-SVG-20010904/DTD/svg10.dtd">
<svg version="1.0" xmlns="http://www.w3.org/2000/svg" xmlns:xlink="http://www.w3.org/1999/xlink" x="0px" y="0px"
	 viewBox="0 0 152 117.5" enable-background="new 0 0 152 117.5" xml:space="preserve">
<g id="Layer_1">
	<g id="Azure">
	</g>
	<g id="BizTalk_Services" transform="translate(37.3575,-2500.2)">
	</g>
	<g id="Key_Vault">
	</g>
	<g id="Mobile_Engagement">
	</g>
	<g id="Office_subscription">
		<g id="Office_subscription_1_">
			<g>
				<g id="group18-2_1_">
					<title>subscription.788</title>
					<g id="group19-3_1_" transform="translate(2.10961,-3.20491)">
						<title>Sheet.19</title>
						<g id="shape20-4_1_">
							<title>Sheet.20</title>
						</g>
						<g id="shape21-6_1_" transform="translate(18.9973,-6.6208)">
							<title>Sheet.21</title>
							<path fill="#DC3C00" d="M51,76.9l-0.7,2.8c-0.1,0.5,0.2,0.8,0.7,0.7l2.8-0.7c0.5-0.1,0.6-0.5,0.2-0.9l-2.2-2.2
								C51.5,76.3,51.1,76.4,51,76.9z"/>
						</g>
						<g id="shape22-8_1_" transform="translate(37.7953,-25.398)">
							<title>Sheet.22</title>
							<path fill="#DC3C00" d="M61,73.9c0.3,0.3,0.9,0.3,1.3,0c0.3-0.3,0.9-1,1.2-1.3c0,0,1.8-2.4-0.6-4.8c-2.4-2.4-4.8-0.5-4.8-0.5
								c-0.4,0.3-1,0.8-1.3,1.2c-0.4,0.3-0.3,0.9,0,1.3L61,73.9z"/>
						</g>
						<g id="shape23-10_1_" transform="translate(21.0672,-8.65079)">
							<title>Sheet.23</title>
							<path fill="#DC3C00" d="M51.2,75.2l4.2,4.2c0.4,0.3,0.9,0.3,1.3,0l19.6-19.6c0.3-0.3,0.3-0.9,0-1.3l-4.2-4.2
								c-0.4-0.4-0.9-0.4-1.3,0L51.2,74C50.9,74.3,50.9,74.9,51.2,75.2z"/>
						</g>
					</g>
				</g>
				<path fill="#DC3C00" d="M106.2,72.5c0-3.9-3.1-7-6.9-7c-0.3,0-0.6,0-0.9,0.1c0.4-1.6,0.7-3.2,0.7-4.9c0-2.6-0.5-5-1.4-7.2
					L81.7,69.4c-0.6,0.6-1.1,0.9-1.9,0.9c-1.3,0.8-3.4,1.7-4.2,1.9l0,0l0,0L72.6,73c-0.3,0.1-0.5,0.1-0.8,0.1
					c-0.9,0-1.8-0.4-2.4-1.1c-0.6-0.7-0.8-1.7-0.6-2.7l0,0l0,0l0.7-2.8c0.2-0.9,1.2-3.6,2.2-4.9c0.2-0.5,0.4-0.9,0.8-1.2l16.3-16.2
					c-2.5-1.3-5.3-2-8.3-2c-7.5,0-14.7,4.9-17.1,11l0,8.6l-7.1,1.9l-8.5-3.3c-0.5,0.8-0.8,1.4-0.8,1.4c-0.1-0.3-1,2.2-1,5
					c0,7,5.7,12.7,12.7,12.7l0,0l41,0.1l0,0C103.3,79.2,106.2,76.2,106.2,72.5z"/>
				<g id="shape24-12_1_" transform="translate(2.53953,-17.472)">
					<title>Cloud, Office 365.795</title>
					<path fill="#DC3C00" d="M59.4,77.7L59.4,77.7l0-15.8l-5.7-1.6l-10.2,3.8h0v11.4l3.5-1.4v-9.3l6.7-1.6v13.7l-10.2-1.4l10.2,3.8
						L59.4,77.7L59.4,77.7L59.4,77.7z"/>
				</g>
			</g>
		</g>
	</g>
</g>
<g id="paths">
	<g id="Access_control">
	</g>
	<g id="Azure_active_directory">
	</g>
	<g id="API_Management">
	</g>
	<g id="Azure_automation">
	</g>
	<g id="Azure_SQL_database">
	</g>
	<g id="Azure_subscription">
	</g>
	<g id="Backup_service">
	</g>
	<g id="Bitbucket_code_source">
	</g>
	<g id="Azure_cache">
	</g>
	<g id="Content_delivery_network__x28_CDN_x29_">
	</g>
	<g id="Cloud_service">
	</g>
	<g id="CodePlex">
	</g>
	<g id="Dropbox_code_source">
	</g>
	<g id="Express_route">
	</g>
	<g id="Git_repository">
	</g>
	<g id="GitHub_code">
	</g>
	<g id="HD_Insight">
	</g>
	<g id="Health_monitoring">
	</g>
	<g id="Healthy">
	</g>
	<g id="BizTalk_hybrid_connection">
	</g>
	<g id="Hybrid_connection_manager_for_BizTalk_hybrid_connection">
	</g>
	<g id="Hyper-V_recovery_manager">
	</g>
	<g id="Machine_learning">
	</g>
	<g id="Media_services">
	</g>
	<g id="Microsoft_account">
	</g>
	<g id="Mobile_services">
	</g>
	<g id="Multi-factor_authentication">
	</g>
	<g id="MySQL_database">
	</g>
	<g id="Notification_hub">
	</g>
	<g id="Notification_topic">
	</g>
	<g id="Cloud_Office_365">
	</g>
	<g id="Office_365">
	</g>
</g>
</svg>
