<?xml version="1.0" encoding="utf-8"?>
<!-- Generator: Adobe Illustrator 18.1.0, SVG Export Plug-In . SVG Version: 6.00 Build 0)  -->
<!DOCTYPE svg PUBLIC "-//W3C//DTD SVG 1.0//EN" "http://www.w3.org/TR/2001/REC-SVG-20010904/DTD/svg10.dtd">
<svg version="1.0" xmlns="http://www.w3.org/2000/svg" xmlns:xlink="http://www.w3.org/1999/xlink" x="0px" y="0px"
	 viewBox="0 0 152 117.5" enable-background="new 0 0 152 117.5" xml:space="preserve">
<g id="Layer_1">
	<g id="Azure">
	</g>
	<g id="BizTalk_Services" transform="translate(37.3575,-2500.2)">
	</g>
	<g id="Key_Vault">
	</g>
	<g id="Mobile_Engagement">
	</g>
	<g id="Office_subscription">
		<g id="Office_subscription_1_">
		</g>
	</g>
	<path fill="#0078D7" d="M59.2,62.9H62v-2.8h-2.8V62.9z M59.2,54.5H62V52c-1,0.5-2,1.1-2.8,1.8V54.5z M63.4,71.3h2.8v-2.8h-2.8V71.3
		z M63.4,79.7h2.8v-2.8h-2.8V79.7z M63.4,67.1h2.8v-2.8h-2.8V67.1z M63.4,75.5h2.8v-2.8h-2.8V75.5z M59.2,71.3H62v-2.8h-2.8V71.3z
		 M59.2,75.5H62v-2.8h-2.8V75.5z M55,67.1h2.8v-2.8H55V67.1z M55,71.3h2.8v-2.8H55V71.3z M55,62.9h2.8v-2.8H55V62.9z M55.3,58.7h2.5
		v-2.8h-0.7C56.4,56.8,55.8,57.8,55.3,58.7z M59.2,77.6c0.8,0.7,1.8,1.3,2.8,1.8v-2.5h-2.8V77.6z M59.2,58.7H62v-2.8h-2.8V58.7z
		 M80.2,75.5h0.7c0.7-0.8,1.3-1.8,1.8-2.8h-2.5V75.5z M76,71.3h2.8v-2.8H76V71.3z M76,79.4c1-0.6,2-1.1,2.8-1.8v-0.7H76V79.4z
		 M76,75.5h2.8v-2.8H76V75.5z M63.4,62.9h2.8v-2.8h-2.8V62.9z M82.3,37.7c-8.1,0-14.7,6.6-14.7,14.7c0,4.3,0,14.7,0,14.7
		s10.9,0,14.7,0c8.1,0,14.7-6.6,14.7-14.7C97,44.3,90.4,37.7,82.3,37.7z M77.4,58.7h-2.8v-8.4h2.8V58.7z M83,58.7h-2.8v-5.6H83V58.7
		z M88.6,58.7h-2.8V47.5h2.8V58.7z M80.2,71.3H83v-2.8h-2.8V71.3z M63.4,54.5h2.8v-2.8h-2.8V54.5z M71.8,75.5h2.8v-2.8h-2.8V75.5z
		 M67.6,75.5h2.8v-2.8h-2.8V75.5z M67.6,71.3h2.8v-2.8h-2.8V71.3z M71.8,79.7h2.8v-2.8h-2.8V79.7z	">
<v:paragraph  v:horizAlign="1"></v:paragraph>
		<v:tabList></v:tabList>
	</path>
</g>
<g id="paths">
	<g id="Access_control">
	</g>
	<g id="Azure_active_directory">
	</g>
	<g id="API_Management">
	</g>
	<g id="Azure_automation">
	</g>
	<g id="Azure_SQL_database">
	</g>
	<g id="Azure_subscription">
	</g>
	<g id="Backup_service">
	</g>
	<g id="Bitbucket_code_source">
	</g>
	<g id="Azure_cache">
	</g>
	<g id="Content_delivery_network__x28_CDN_x29_">
	</g>
	<g id="Cloud_service">
	</g>
	<g id="CodePlex">
	</g>
	<g id="Dropbox_code_source">
	</g>
	<g id="Express_route">
	</g>
	<g id="Git_repository">
	</g>
	<g id="GitHub_code">
	</g>
	<g id="HD_Insight">
	</g>
	<g id="Health_monitoring">
	</g>
	<g id="Healthy">
	</g>
	<g id="BizTalk_hybrid_connection">
	</g>
	<g id="Hybrid_connection_manager_for_BizTalk_hybrid_connection">
	</g>
	<g id="Hyper-V_recovery_manager">
	</g>
	<g id="Machine_learning">
	</g>
	<g id="Media_services">
	</g>
	<g id="Microsoft_account">
	</g>
	<g id="Mobile_services">
	</g>
	<g id="Multi-factor_authentication">
	</g>
	<g id="MySQL_database">
	</g>
	<g id="Notification_hub">
	</g>
	<g id="Notification_topic">
	</g>
	<g id="Cloud_Office_365">
	</g>
	<g id="Office_365">
	</g>
</g>
</svg>
