<?xml version="1.0" encoding="utf-8"?>
<!-- Generator: Adobe Illustrator 18.1.0, SVG Export Plug-In . SVG Version: 6.00 Build 0)  -->
<!DOCTYPE svg PUBLIC "-//W3C//DTD SVG 1.0//EN" "http://www.w3.org/TR/2001/REC-SVG-20010904/DTD/svg10.dtd">
<svg version="1.0" xmlns="http://www.w3.org/2000/svg" xmlns:xlink="http://www.w3.org/1999/xlink" x="0px" y="0px"
	 viewBox="0 0 152 117.5" enable-background="new 0 0 152 117.5" xml:space="preserve">
<g id="Layer_1">
	<g id="Azure">
	</g>
	<g id="BizTalk_Services" transform="translate(37.3575,-2500.2)">
	</g>
	<g id="Key_Vault">
	</g>
	<g id="Mobile_Engagement">
	</g>
	<g id="Office_subscription">
		<g id="Office_subscription_1_">
		</g>
	</g>
</g>
<g id="paths">
	<g id="Access_control">
	</g>
	<g id="Azure_active_directory">
	</g>
	<g id="API_Management">
	</g>
	<g id="Azure_automation">
	</g>
	<g id="Azure_SQL_database">
	</g>
	<g id="Azure_subscription">
	</g>
	<g id="Backup_service">
	</g>
	<g id="Bitbucket_code_source">
	</g>
	<g id="Azure_cache">
	</g>
	<g id="Content_delivery_network__x28_CDN_x29_">
	</g>
	<g id="Cloud_service">
	</g>
	<g id="CodePlex">
	</g>
	<g id="Dropbox_code_source">
	</g>
	<g id="Express_route">
	</g>
	<g id="Git_repository">
	</g>
	<g id="GitHub_code">
	</g>
	<g id="HD_Insight">
	</g>
	<g id="Health_monitoring">
	</g>
	<g id="Healthy">
	</g>
	<g id="BizTalk_hybrid_connection">
	</g>
	<g id="Hybrid_connection_manager_for_BizTalk_hybrid_connection">
	</g>
	<g id="Hyper-V_recovery_manager">
	</g>
	<g id="Machine_learning">
	</g>
	<g id="Media_services">
	</g>
	<g id="Microsoft_account">
	</g>
	<g id="Mobile_services">
	</g>
	<g id="Multi-factor_authentication">
	</g>
	<g id="MySQL_database">
	</g>
	<g id="Notification_hub">
	</g>
	<g id="Notification_topic">
	</g>
	<g id="Cloud_Office_365">
	</g>
	<g id="Office_365">
	</g>
	<g id="OS_image">
		<g id="group1186-2309_1_" transform="translate(1241.26,-2257.15)">
			<title>Sheet.1186</title>
			<g id="shape1187-2310_1_" transform="translate(22.7775,-10.3778)">
				<title>Sheet.1187</title>
				<path fill="#0078D7" d="M-1178.5,2331.8c0.2,0,0.3-0.1,0.4-0.2c0.1-0.1,0.2-0.3,0.2-0.5c0-0.2-0.1-0.3-0.2-0.4
					c-0.2-0.2-0.6-0.2-0.9,0c-0.2,0.2-0.2,0.6,0,0.9C-1178.9,2331.7-1178.7,2331.8-1178.5,2331.8z"/>
			</g>
			<g id="shape1188-2312_1_" transform="translate(19.056,-6.65625)">
				<title>Sheet.1188</title>
				<path fill="#0078D7" d="M-1179.6,2331.3c-0.2,0.2-0.2,0.6,0,0.9c0.1,0.1,0.3,0.2,0.4,0.2c0.2,0,0.3-0.1,0.4-0.2
					c0.1-0.1,0.2-0.3,0.2-0.4c0-0.2-0.1-0.3-0.2-0.4C-1178.9,2331.1-1179.3,2331.1-1179.6,2331.3z"/>
			</g>
			<g id="shape1189-2314_1_">
				<title>Sheet.1189</title>
				<path fill="#0078D7" d="M-1150.1,2328.5c-0.2-0.4-0.6-0.7-1.1-0.7c-0.3,0-0.6,0.1-0.9,0.2c-0.4,0.1-13.1,4.8-14.4,5.3l-0.1,0
					c-3-2.5-4.9-6.2-4.9-10.4c0-7.5,6.1-13.5,13.5-13.5c4.1,0,7.7,1.8,10.2,4.7v-15.8h-35.1v35.1h18.5c3.8-1.4,12.2-4.5,12.5-4.6
					c0.3-0.1,0.5-0.1,0.6-0.1c0.1,0,0.2,0,0.3,0.2c0.1,0.3-0.1,0.5-0.4,0.8c-0.7,0.7-2.3,2.1-4.1,3.8h1.3c1.7-1.5,3-2.8,3.4-3.2
					C-1150.4,2330.1-1149.7,2329.4-1150.1,2328.5z"/>
			</g>
			<g id="shape1190-2316_1_" transform="translate(18.3383,-8.51775)">
				<title>Sheet.1190</title>
				<ellipse fill="#0078D7" cx="-1179.3" cy="2331.5" rx="0.6" ry="0.6"/>
			</g>
			<g id="shape1191-2318_1_" transform="translate(19.056,-10.3778)">
				<title>Sheet.1191</title>
				<path fill="#0078D7" d="M-1179.1,2331.8c0.2,0,0.3-0.1,0.4-0.2c0.1-0.1,0.2-0.3,0.2-0.5c0-0.2-0.1-0.3-0.2-0.4
					c-0.2-0.2-0.6-0.2-0.9,0c-0.2,0.2-0.2,0.6,0,0.9C-1179.5,2331.7-1179.3,2331.8-1179.1,2331.8z"/>
			</g>
			<g id="shape1192-2320_1_" transform="translate(20.9685,-11.148)">
				<title>Sheet.1192</title>
				<ellipse fill="#0078D7" cx="-1178.9" cy="2331.1" rx="0.6" ry="0.6"/>
			</g>
			<g id="shape1193-2322_1_" transform="translate(20.9685,-5.88675)">
				<title>Sheet.1193</title>
				<ellipse fill="#0078D7" cx="-1178.9" cy="2331.9" rx="0.6" ry="0.6"/>
			</g>
			<g id="shape1194-2324_1_" transform="translate(16.8233,-4.37775)">
				<title>Sheet.1194</title>
				<path fill="#0078D7" d="M-1174.7,2321.9c-3,0-5.4,2.4-5.4,5.4c0,3,2.4,5.4,5.4,5.4c3,0,5.4-2.4,5.4-5.4
					C-1169.3,2324.3-1171.7,2321.9-1174.7,2321.9z M-1174.7,2331.8c-2.5,0-4.5-2-4.5-4.5c0-2.5,2-4.5,4.5-4.5c2.5,0,4.5,2,4.5,4.5
					C-1170.2,2329.8-1172.3,2331.8-1174.7,2331.8z"/>
			</g>
			<g id="shape1195-2326_1_" transform="translate(19.983,-7.5375)">
				<title>Sheet.1195</title>
				<ellipse fill="#0078D7" cx="-1177.9" cy="2330.5" rx="1.8" ry="1.8"/>
			</g>
			<g id="shape1196-2328_1_" transform="translate(23.5995,-8.51775)">
				<title>Sheet.1196</title>
				<ellipse fill="#0078D7" cx="-1178.5" cy="2331.5" rx="0.6" ry="0.6"/>
			</g>
			<g id="shape1197-2330_1_" transform="translate(22.7768,-6.65625)">
				<title>Sheet.1197</title>
				<path fill="#0078D7" d="M-1179,2331.3c-0.2,0.2-0.2,0.6,0,0.9c0.1,0.1,0.3,0.2,0.4,0.2c0.2,0,0.3-0.1,0.4-0.2
					c0.1-0.1,0.2-0.3,0.2-0.4c0-0.2-0.1-0.3-0.2-0.4C-1178.3,2331.1-1178.7,2331.1-1179,2331.3z"/>
			</g>
		</g>
	</g>
</g>
</svg>
