<?xml version="1.0" encoding="utf-8"?>
<!-- Generator: Adobe Illustrator 19.1.0, SVG Export Plug-In . SVG Version: 6.00 Build 0)  -->
<svg version="1.1" id="Layer_1" xmlns="http://www.w3.org/2000/svg" xmlns:xlink="http://www.w3.org/1999/xlink" x="0px" y="0px"
	 viewBox="-280 372 50 50" style="enable-background:new -280 372 50 50;" xml:space="preserve">
<style type="text/css">
	.st0{fill:#0078D7;}
</style>
<path class="st0" d="M-255,394.6c-0.1,0-0.1,0-0.2-0.1l-14.7-8.5c-0.1-0.1-0.2-0.2-0.2-0.4c0-0.2,0.1-0.3,0.2-0.4l14.6-8.4
	c0.1-0.1,0.3-0.1,0.4,0l14.7,8.5c0.1,0.1,0.2,0.2,0.2,0.4c0,0.2-0.1,0.3-0.2,0.4l-14.6,8.4C-254.8,394.6-254.9,394.6-255,394.6"/>
<path class="st0" d="M-257.1,415.3c-0.1,0-0.2,0-0.2-0.1l-14.7-8.5c-0.1-0.1-0.2-0.2-0.2-0.4v-17c0-0.2,0.1-0.3,0.2-0.4
	c0.1-0.1,0.3-0.1,0.4,0l14.7,8.5c0.1,0.1,0.2,0.2,0.2,0.4v17c0,0.2-0.1,0.3-0.2,0.4C-256.9,415.3-257,415.3-257.1,415.3"/>
<path class="st0" d="M-252.9,415.3c-0.1,0-0.2,0-0.2-0.1c-0.1-0.1-0.2-0.2-0.2-0.4V398c0-0.2,0.1-0.3,0.2-0.4l14.7-8.5
	c0.1-0.1,0.3-0.1,0.4,0c0.1,0.1,0.2,0.2,0.2,0.4v16.9c0,0.2-0.1,0.3-0.2,0.4l-14.7,8.5C-252.8,415.3-252.8,415.3-252.9,415.3"/>
<path class="st0" d="M-252.9,415.3c-0.1,0-0.2,0-0.2-0.1c-0.1-0.1-0.2-0.2-0.2-0.4V398c0-0.2,0.1-0.3,0.2-0.4l14.7-8.5
	c0.1-0.1,0.3-0.1,0.4,0c0.1,0.1,0.2,0.2,0.2,0.4v16.9c0,0.2-0.1,0.3-0.2,0.4l-14.7,8.5C-252.8,415.3-252.8,415.3-252.9,415.3"/>
<path class="st0" d="M-270.4,417.2c-0.2,0-0.5-0.1-0.7-0.2l-6.8-4c-1.2-0.7-2-2.1-2-3.4v-25.2c0-1.3,0.8-2.8,2-3.4l6.8-4
	c0.7-0.4,1.6-0.2,2,0.5c0.4,0.7,0.2,1.6-0.5,2l-6.8,4c-0.2,0.1-0.5,0.6-0.5,0.9v25.2c0,0.3,0.3,0.8,0.5,0.9l6.8,4
	c0.7,0.4,0.9,1.3,0.5,2C-269.5,416.9-269.9,417.2-270.4,417.2z"/>
<path class="st0" d="M-239.6,376.8c0.2,0,0.5,0.1,0.7,0.2l6.8,4c1.2,0.7,2,2.1,2,3.4v25.2c0,1.3-0.8,2.8-2,3.4l-6.8,4
	c-0.7,0.4-1.6,0.2-2-0.5c-0.4-0.7-0.2-1.6,0.5-2l6.8-4c0.2-0.1,0.5-0.6,0.5-0.9v-25.2c0-0.3-0.3-0.8-0.5-0.9l-6.8-4
	c-0.7-0.4-0.9-1.3-0.5-2C-240.6,377.1-240.1,376.8-239.6,376.8z"/>
<g id="paths">
	<g id="Access_control">
	</g>
	<g id="Azure_active_directory">
	</g>
</g>
</svg>
