<?xml version="1.0" encoding="utf-8"?>
<!-- Generator: Adobe Illustrator 18.1.0, SVG Export Plug-In . SVG Version: 6.00 Build 0)  -->
<!DOCTYPE svg PUBLIC "-//W3C//DTD SVG 1.0//EN" "http://www.w3.org/TR/2001/REC-SVG-20010904/DTD/svg10.dtd">
<svg version="1.0" xmlns="http://www.w3.org/2000/svg" xmlns:xlink="http://www.w3.org/1999/xlink" x="0px" y="0px"
	 viewBox="0 0 152 117.5" enable-background="new 0 0 152 117.5" xml:space="preserve">
<g id="Layer_1">
	<g id="Azure">
	</g>
	<g id="BizTalk_Services" transform="translate(37.3575,-2500.2)">
	</g>
	<g id="Key_Vault">
	</g>
	<g id="Mobile_Engagement">
	</g>
	<g id="Office_subscription">
		<g id="Office_subscription_1_">
		</g>
	</g>
</g>
<g id="paths">
	<g id="Access_control">
	</g>
	<g id="Azure_active_directory">
	</g>
	<g id="API_Management">
	</g>
	<g id="Azure_automation">
	</g>
	<g id="Azure_SQL_database">
	</g>
	<g id="Azure_subscription">
	</g>
	<g id="Backup_service">
	</g>
	<g id="Bitbucket_code_source">
	</g>
	<g id="Azure_cache">
	</g>
	<g id="Content_delivery_network__x28_CDN_x29_">
	</g>
	<g id="Cloud_service">
	</g>
	<g id="CodePlex">
	</g>
	<g id="Dropbox_code_source">
	</g>
	<g id="Express_route">
	</g>
	<g id="Git_repository">
	</g>
	<g id="GitHub_code">
	</g>
	<g id="HD_Insight">
	</g>
	<g id="Health_monitoring">
	</g>
	<g id="Healthy">
	</g>
	<g id="BizTalk_hybrid_connection">
	</g>
	<g id="Hybrid_connection_manager_for_BizTalk_hybrid_connection">
	</g>
	<g id="Hyper-V_recovery_manager">
	</g>
	<g id="Machine_learning">
	</g>
	<g id="Media_services">
	</g>
	<g id="Microsoft_account">
	</g>
	<g id="Mobile_services">
	</g>
	<g id="Multi-factor_authentication">
	</g>
	<g id="MySQL_database">
	</g>
	<g id="Notification_hub">
	</g>
	<g id="Notification_topic">
	</g>
	<g id="Cloud_Office_365">
	</g>
	<g id="Office_365">
	</g>
	<g id="OS_image">
	</g>
	<g id="Remote_app">
	</g>
	<g id="Task_scheduler">
	</g>
	<g id="Azure_SDK">
	</g>
	<g id="Service_bus">
	</g>
	<g id="Service_bus_queue">
	</g>
	<g id="Service_bus_relay">
	</g>
	<g id="Service_bus_topic">
	</g>
	<g id="Service_endpoint">
	</g>
	<g id="Custom_create">
	</g>
	<g id="SQL_data_sync">
	</g>
	<g id="SQL_reporting">
	</g>
	<g id="Startup_task">
	</g>
	<g id="Windows_Azure_storage">
	</g>
	<g id="Storage_blob">
	</g>
	<g id="Storage_table">
	</g>
	<g id="Storage_queue">
	</g>
	<g id="StorSimple">
	</g>
	<g id="Traffic_manager">
	</g>
	<g id="VHD">
	</g>
	<g id="VHD_data_disk">
	</g>
	<g id="Virtual_machine">
	</g>
	<g id="Team_foundation">
	</g>
	<g id="Azure_web_site">
	</g>
	<g id="Web_role">
	</g>
	<g id="Web_roles">
	</g>
	<g id="Worker_role">
	</g>
	<g id="Worker_roles">
	</g>
	<g id="Unidentified_feature_object">
		<g>
			<path fill="#0078D7" d="M88.6,63.5V52.6c0-6.6-5.8-12.2-12.6-12.2S63.4,46,63.4,52.6v10.9c-6.6,2.6-8.3,6.5-8.3,6.5l0.1,0.1h41.6
				l0.1-0.1C96.9,70.1,95.2,66.2,88.6,63.5z M64.9,63V52.6c0-5.8,5.1-10.7,11.1-10.7c6,0,11.1,4.9,11.1,10.7V63H87
				c-0.2-0.1-0.4-0.1-0.6-0.2H79c1.7-0.7,4.2-2.2,4.9-5.1c0-0.2,0-0.4-0.2-0.5c-0.2-0.1-0.4-0.1-0.5,0.1c0,0-2.8,2.7-5.1,2.7
				c0,0,0,0-0.1,0c0.9-1.6,2-3.1,3.1-5.4c2.3-4.5-0.9-9.1-5.3-9.2c-4.4-0.1-7.8,4.4-5.7,9c1.1,2.3,2.1,4,2.9,5.6
				c-2.3-0.1-5-2.7-5-2.7c-0.1-0.2-0.4-0.2-0.5-0.1c-0.2,0.1-0.3,0.3-0.2,0.5c0.8,2.9,3.2,4.4,4.9,5.1h-6.7
				c-0.2,0.1-0.4,0.1-0.6,0.2H64.9z M80.4,53.7c0,0.4-2.4,3.3-4.5,3.3c-2.2-0.1-4.1-2.9-4.1-3.3C71.7,53.4,80.4,53.4,80.4,53.7z
				 M76.6,51.6c0-0.8,1-2,1.4-2c0.5,0,1.2,1.3,1.2,2.2c0,0.8-0.7,1-1.2,1C77.6,52.7,76.6,52.5,76.6,51.6z M74,52.7
				c-0.5,0-1.1-0.2-1.2-1c0-0.8,0.7-2.2,1.2-2.2c0.5,0,1.4,1.2,1.4,2C75.4,52.5,74.5,52.7,74,52.7z"/>
			<path fill="#0078D7" d="M76,77c11.5,0,18-4.2,18.7-5.7H57.3C58,72.8,64.4,77,76,77z"/>
		</g>
	</g>
</g>
<g id="Layer_57">
</g>
<g id="Ibiza_Symbols">
	<g id="SQL_Database_Premium">
	</g>
</g>
</svg>
