<?xml version="1.0" encoding="utf-8"?>
<!-- Generator: Adobe Illustrator 18.1.0, SVG Export Plug-In . SVG Version: 6.00 Build 0)  -->
<!DOCTYPE svg PUBLIC "-//W3C//DTD SVG 1.0//EN" "http://www.w3.org/TR/2001/REC-SVG-20010904/DTD/svg10.dtd">
<svg version="1.0" xmlns="http://www.w3.org/2000/svg" xmlns:xlink="http://www.w3.org/1999/xlink" x="0px" y="0px"
	 viewBox="0 0 152 117.5" enable-background="new 0 0 152 117.5" xml:space="preserve">
<g id="Layer_1">
	<g id="Azure">
	</g>
	<g id="BizTalk_Services" transform="translate(37.3575,-2500.2)">
	</g>
	<g id="Key_Vault">
	</g>
	<g id="Mobile_Engagement">
	</g>
	<g id="Office_subscription">
		<g id="Office_subscription_1_">
		</g>
	</g>
</g>
<g id="paths">
	<g id="Access_control">
	</g>
	<g id="Azure_active_directory">
	</g>
	<g id="API_Management">
	</g>
	<g id="Azure_automation">
	</g>
	<g id="Azure_SQL_database">
	</g>
	<g id="Azure_subscription">
	</g>
	<g id="Backup_service">
	</g>
	<g id="Bitbucket_code_source">
	</g>
	<g id="Azure_cache">
	</g>
	<g id="Content_delivery_network__x28_CDN_x29_">
	</g>
	<g id="Cloud_service">
	</g>
	<g id="CodePlex">
	</g>
	<g id="Dropbox_code_source">
	</g>
	<g id="Express_route">
	</g>
	<g id="Git_repository">
	</g>
	<g id="GitHub_code">
	</g>
	<g id="HD_Insight">
	</g>
	<g id="Health_monitoring">
	</g>
	<g id="Healthy">
	</g>
	<g id="BizTalk_hybrid_connection">
	</g>
	<g id="Hybrid_connection_manager_for_BizTalk_hybrid_connection">
	</g>
	<g id="Hyper-V_recovery_manager">
	</g>
	<g id="Machine_learning">
	</g>
	<g id="Media_services">
	</g>
	<g id="Microsoft_account">
	</g>
	<g id="Mobile_services">
	</g>
	<g id="Multi-factor_authentication">
	</g>
	<g id="MySQL_database">
	</g>
	<g id="Notification_hub">
	</g>
	<g id="Notification_topic">
	</g>
	<g id="Cloud_Office_365">
	</g>
	<g id="Office_365">
	</g>
	<g id="OS_image">
	</g>
	<g id="Remote_app">
	</g>
	<g id="Task_scheduler">
	</g>
	<g id="Azure_SDK">
	</g>
	<g id="Service_bus">
	</g>
	<g id="Service_bus_queue">
	</g>
	<g id="Service_bus_relay">
	</g>
	<g id="Service_bus_topic">
	</g>
	<g id="Service_endpoint">
	</g>
	<g id="Custom_create">
	</g>
	<g id="SQL_data_sync">
	</g>
	<g id="SQL_reporting">
	</g>
	<g id="Startup_task">
	</g>
	<g id="Windows_Azure_storage">
	</g>
	<g id="Storage_blob">
	</g>
	<g id="Storage_table">
	</g>
	<g id="Storage_queue">
	</g>
	<g id="StorSimple">
	</g>
	<g id="Traffic_manager">
	</g>
	<g id="VHD">
	</g>
	<g id="VHD_data_disk">
		<g>
			<g>
				<ellipse fill="#0078D7" cx="75.2" cy="54.7" rx="1.7" ry="1.7"/>
				<ellipse fill="#0078D7" cx="75.2" cy="57.7" rx="0.6" ry="0.6"/>
				<circle fill="#0078D7" cx="72.2" cy="54.7" r="0.6"/>
				<path fill="#0078D7" d="M72.7,56.4c-0.2,0.2-0.2,0.6,0,0.9c0.1,0.1,0.3,0.2,0.4,0.2c0.2,0,0.3-0.1,0.4-0.2
					c0.1-0.1,0.2-0.3,0.2-0.4c0-0.2-0.1-0.3-0.2-0.4C73.3,56.2,72.9,56.2,72.7,56.4z"/>
				<path fill="#0078D7" d="M73.1,53.2c0.2,0,0.3-0.1,0.4-0.2c0.1-0.1,0.2-0.3,0.2-0.4c0-0.2-0.1-0.3-0.2-0.4
					c-0.2-0.2-0.6-0.2-0.9,0c-0.2,0.2-0.2,0.6,0,0.9C72.8,53.2,72.9,53.2,73.1,53.2z"/>
				<ellipse fill="#0078D7" cx="65.7" cy="71.2" rx="1.5" ry="1.5"/>
				<path fill="#0078D7" d="M77.3,53.2c0.2,0,0.3-0.1,0.4-0.2c0.1-0.1,0.2-0.3,0.2-0.4c0-0.2-0.1-0.3-0.2-0.4
					c-0.2-0.2-0.6-0.2-0.9,0c-0.2,0.2-0.2,0.6,0,0.9C77,53.2,77.1,53.2,77.3,53.2z"/>
				<ellipse fill="#0078D7" cx="75.2" cy="51.7" rx="0.6" ry="0.6"/>
				<path fill="#0078D7" d="M76.4,66.3c-0.4,0-0.9,0.1-1.3,0.1c-0.7,0-1.4-0.1-2.1-0.2l1.1-2.1c0-0.1,0-0.1,0.1-0.2
					c0.2-0.3,0.2-0.7,0.2-1.1c0-1.5-1.2-2.8-2.7-2.8c-0.7,0-1.4,0.3-2,0.8l-2.4,2.4c-2.3-2.1-3.8-5.2-3.8-8.6
					c0-6.5,5.2-11.7,11.6-11.7c6.4,0,11.6,5.2,11.6,11.7c0,3-1.1,5.7-3,7.8c0,0,0.1,0,0.1,0c2.2,0,4.5,0.5,5.9,1.5V40.3
					c0-0.5-0.4-1-1-1H61.5c-0.5,0-0.9,0.4-0.9,1v35.1c0,0.5,0.4,1,0.9,1h14.9v-9.9C76.4,66.5,76.4,66.4,76.4,66.3z M87.7,40.3
					c0.5,0,0.8,0.4,0.8,0.8c0,0.5-0.4,0.8-0.8,0.8c-0.5,0-0.8-0.4-0.8-0.8C86.9,40.6,87.3,40.3,87.7,40.3z M61.7,41.1
					c0-0.5,0.4-0.8,0.8-0.8c0.4,0,0.8,0.4,0.8,0.8c0,0.5-0.4,0.8-0.8,0.8C62.1,41.9,61.7,41.6,61.7,41.1z M68.6,72.9L68.6,72.9
					c-0.6,1-1.7,1.8-2.9,1.8c-1.8,0-3.3-1.5-3.3-3.4c0-0.9,0.4-1.8,1-2.4l7.1-7.2c0.3-0.3,0.7-0.5,1.2-0.5c0.9,0,1.7,0.8,1.7,1.7
					c0,0.3-0.1,0.5-0.2,0.8h0L68.6,72.9C68.6,72.8,68.6,72.8,68.6,72.9z"/>
				<path fill="#0078D7" d="M76.8,56.4c-0.2,0.2-0.2,0.6,0,0.9c0.1,0.1,0.3,0.2,0.4,0.2c0.2,0,0.3-0.1,0.4-0.2
					c0.1-0.1,0.2-0.3,0.2-0.4c0-0.2-0.1-0.3-0.2-0.4C77.5,56.2,77.1,56.2,76.8,56.4z"/>
				<path fill="#0078D7" d="M75.1,49.2c-3,0-5.4,2.5-5.4,5.5c0,3,2.4,5.5,5.4,5.5c3,0,5.5-2.5,5.5-5.5
					C80.6,51.7,78.1,49.2,75.1,49.2z M75.2,59.1c-2.4,0-4.4-2-4.4-4.4c0-2.4,1.9-4.4,4.4-4.4c2.4,0,4.4,2,4.4,4.4
					C79.6,57.2,77.6,59.1,75.2,59.1z"/>
				<ellipse fill="#0078D7" cx="78.1" cy="54.7" rx="0.6" ry="0.6"/>
			</g>
			<g id="group989-2010_5_" transform="translate(1238.42,-2152.07)">
				<title>Sheet.989</title>
				<g id="shape1003-2037_5_" transform="translate(20.9017,-0.69975)">
					<title>Sheet.1003</title>
					<path fill="#0078D7" d="M-1175.4,2217c-3.2,0-5.8,1.1-5.8,2.3v10.8c0,1.2,2.6,2.3,5.8,2.3c3.2,0,5.8-1.1,5.8-2.3v-10.8
						C-1169.6,2218.2-1172.2,2217-1175.4,2217z M-1175.4,2220.4c-2.3,0-4.1-0.6-4.1-1.3c0-0.7,1.8-1.3,4.1-1.3
						c2.3,0,4.1,0.6,4.1,1.3C-1171.3,2219.8-1173.1,2220.4-1175.4,2220.4z"/>
				</g>
			</g>
		</g>
	</g>
</g>
<g id="Layer_57">
</g>
<g id="Ibiza_Symbols">
	<g id="SQL_Database_Premium">
	</g>
</g>
</svg>
