<?xml version="1.0" encoding="utf-8"?>
<!-- Generator: Adobe Illustrator 18.1.0, SVG Export Plug-In . SVG Version: 6.00 Build 0)  -->
<!DOCTYPE svg PUBLIC "-//W3C//DTD SVG 1.0//EN" "http://www.w3.org/TR/2001/REC-SVG-20010904/DTD/svg10.dtd">
<svg version="1.0" xmlns="http://www.w3.org/2000/svg" xmlns:xlink="http://www.w3.org/1999/xlink" x="0px" y="0px"
	 viewBox="0 0 152 117.5" enable-background="new 0 0 152 117.5" xml:space="preserve">
<g id="Layer_1">
	<g id="Azure">
	</g>
</g>
<g id="paths">
	<g id="Access_control">
	</g>
	<g id="Azure_active_directory">
	</g>
	<g id="API_Management">
	</g>
	<g id="Azure_automation">
	</g>
	<g id="Azure_SQL_database">
	</g>
	<g id="Azure_subscription">
	</g>
	<g id="Backup_service">
	</g>
	<g id="Bitbucket_code_source">
		<g>
			<title>Sheet.964</title>
			<g id="group965-1966_1_" transform="translate(-2.3781E-013,-7.2855)">
				<title>Sheet.965</title>
				<g id="shape966-1967_1_" transform="translate(9.4425,-4.27425)">
					<title>Sheet.966</title>
					<ellipse fill="#0078D7" cx="66.6" cy="69.7" rx="2.5" ry="2.5"/>
				</g>
				<g id="shape967-1969_1_">
					<title>Sheet.967</title>
					<path fill="#0078D7" d="M76,48c-8.6,0-15.6,2.3-15.6,5.1l2.6,15.3c0,3,5.8,5.5,13.1,5.5c7.2,0,13.1-2.4,13.1-5.5l2.6-15.3
						C91.6,50.3,84.6,48,76,48z M76,70.4c-2.8,0-5-2.2-5-5c0-2.8,2.2-5,5-5c2.8,0,5,2.2,5,5C81,68.2,78.8,70.4,76,70.4z M76,54.8
						c-5.5,0-10-1-10-2.1c0-1.2,4.5-2.2,10-2.2c5.5,0,10,1,10,2.2C86,53.9,81.5,54.8,76,54.8z"/>
				</g>
			</g>
			<g id="shape968-1971_1_" transform="translate(2.694,-4.54747E-013)">
				<title>Sheet.968</title>
				<path fill="#0078D7" d="M62.8,66.5c-0.2-0.2-0.4-0.3-0.5-0.5c0,0-0.1,0-0.2,0c-0.3,0-0.6,0.2-0.7,0.5l0.1,0.6l1.1,5.2
					c0,2.1,4.8,4.3,10.7,4.3c5.9,0,10.7-2.1,10.7-4.3l1.1-5.2l0.1-0.6c-0.1-0.3-0.4-0.5-0.7-0.5c0,0-0.1,0-0.2,0
					c-0.2,0.2-0.3,0.3-0.5,0.5c-2,1.5-5.9,2.6-10.5,2.6C68.7,69.1,64.8,68.1,62.8,66.5z"/>
			</g>
		</g>
	</g>
</g>
</svg>
