<?xml version="1.0" encoding="utf-8"?>
<!-- Generator: Adobe Illustrator 18.1.0, SVG Export Plug-In . SVG Version: 6.00 Build 0)  -->
<!DOCTYPE svg PUBLIC "-//W3C//DTD SVG 1.0//EN" "http://www.w3.org/TR/2001/REC-SVG-20010904/DTD/svg10.dtd">
<svg version="1.0" xmlns="http://www.w3.org/2000/svg" xmlns:xlink="http://www.w3.org/1999/xlink" x="0px" y="0px"
	 viewBox="0 0 152 117.5" enable-background="new 0 0 152 117.5" xml:space="preserve">
<g id="Layer_1">
	<g id="Azure">
	</g>
	<g id="BizTalk_Services" transform="translate(37.3575,-2500.2)">
	</g>
</g>
<g id="paths">
	<g id="Access_control">
	</g>
	<g id="Azure_active_directory">
	</g>
	<g id="API_Management">
	</g>
	<g id="Azure_automation">
	</g>
	<g id="Azure_SQL_database">
	</g>
	<g id="Azure_subscription">
	</g>
	<g id="Backup_service">
	</g>
	<g id="Bitbucket_code_source">
	</g>
	<g id="Azure_cache">
	</g>
	<g id="Content_delivery_network__x28_CDN_x29_">
	</g>
	<g id="Cloud_service">
	</g>
	<g id="CodePlex">
	</g>
	<g id="Dropbox_code_source">
	</g>
	<g id="Express_route">
	</g>
	<g id="Git_repository">
	</g>
	<g id="GitHub_code">
		<title>Sheet.961</title>
		<path fill="#0078D7" d="M76,39.7c-10.5,0-19,8.5-19,19c0,10.5,8.5,19,19,19s19-8.5,19-19C95,48.2,86.5,39.7,76,39.7z M81,75.2V72
			c0-1.3-0.7-2.4-1.7-3.1c0.1,0,0.2,0,0.2,0c1.8-0.2,3.4-0.8,3.4-0.8s2.3-0.7,3.6-2.2c1.3-1.6,1.7-3.9,1.7-3.9s0.4-2.5,0-4.5
			c-0.4-1.9-1.9-3.3-1.9-3.3s0.5-1.3,0.4-2.6c0-1.3-0.6-2.6-0.6-2.6s-1.1-0.1-2.3,0.4c-1.4,0.6-3,1.7-3,1.7s-1.1-0.4-2.4-0.5
			c-1.2-0.2-2.6-0.2-2.6-0.2s-1.4,0-2.6,0.2c-1.3,0.2-2.4,0.5-2.4,0.5s-1.6-1.1-3-1.7c-1.2-0.5-2.3-0.4-2.3-0.4s-0.6,1.3-0.6,2.6
			c0,1.3,0.4,2.6,0.4,2.6s-1.4,1.3-1.9,3.3c-0.5,2,0,4.5,0,4.5s0.3,2.3,1.7,3.9c1.3,1.5,3.6,2.2,3.6,2.2s1.6,0.6,3.4,0.8
			c0.1,0,0.2,0,0.3,0C71.7,69.6,71,70.7,71,72v3.2c-7.1-2.1-12.2-8.7-12.2-16.5c0-9.5,7.7-17.2,17.2-17.2s17.3,7.7,17.3,17.2
			C93.3,66.5,88.1,73.1,81,75.2z"/>
	</g>
</g>
</svg>
