<?xml version="1.0" encoding="utf-8"?>
<!-- Generator: Adobe Illustrator 18.1.0, SVG Export Plug-In . SVG Version: 6.00 Build 0)  -->
<!DOCTYPE svg PUBLIC "-//W3C//DTD SVG 1.0//EN" "http://www.w3.org/TR/2001/REC-SVG-20010904/DTD/svg10.dtd">
<svg version="1.0" xmlns="http://www.w3.org/2000/svg" xmlns:xlink="http://www.w3.org/1999/xlink" x="0px" y="0px"
	 viewBox="0 0 152 117.5" enable-background="new 0 0 152 117.5" xml:space="preserve">
<g id="Layer_1">
	<g id="Azure">
	</g>
	<g id="BizTalk_Services" transform="translate(37.3575,-2500.2)">
	</g>
</g>
<g id="paths">
	<g id="Access_control">
	</g>
	<g id="Azure_active_directory">
	</g>
	<g id="API_Management">
	</g>
	<g id="Azure_automation">
	</g>
	<g id="Azure_SQL_database">
	</g>
	<g id="Azure_subscription">
	</g>
	<g id="Backup_service">
	</g>
	<g id="Bitbucket_code_source">
	</g>
	<g id="Azure_cache">
	</g>
	<g id="Content_delivery_network__x28_CDN_x29_">
	</g>
	<g id="Cloud_service">
	</g>
	<g id="CodePlex">
	</g>
	<g id="Dropbox_code_source">
	</g>
	<g id="Express_route">
	</g>
	<g id="Git_repository">
		<title>Sheet.959</title>
		<path fill="#0078D7" d="M95.5,57L77.8,39.2c-1-1-2.6-1-3.5,0L70.4,43l4.6,4.6c0.3-0.1,0.7-0.2,1.1-0.2c1.7,0,3.1,1.4,3.1,3.1
			c0,0.4-0.1,0.8-0.2,1.1l4.5,4.5c0.3-0.1,0.7-0.2,1.1-0.2c1.7,0,3.1,1.4,3.1,3.1c0,1.7-1.4,3.1-3.1,3.1c-1.7,0-3.1-1.4-3.1-3.1
			c0-0.4,0.1-0.8,0.2-1.1l-4.2-4.2v11c1,0.5,1.7,1.6,1.7,2.7c0,1.7-1.4,3.1-3.1,3.1c-1.7,0-3.1-1.4-3.1-3.1c0-1.3,0.8-2.4,2-2.9
			V53.3c-1.2-0.4-2-1.6-2-2.9c0-0.4,0.1-0.8,0.2-1.1l-4.6-4.6L56.5,57c-1,1-1,2.6,0,3.5l17.7,17.7c1,1,2.6,1,3.5,0l17.7-17.7
			C96.5,59.5,96.5,57.9,95.5,57z"/>
	</g>
</g>
</svg>
