<?xml version="1.0" encoding="utf-8"?>
<!-- Generator: Adobe Illustrator 17.1.0, SVG Export Plug-In . SVG Version: 6.00 Build 0)  -->
<!DOCTYPE svg PUBLIC "-//W3C//DTD SVG 1.1//EN" "http://www.w3.org/Graphics/SVG/1.1/DTD/svg11.dtd">
<svg version="1.1" id="Layer_1" xmlns="http://www.w3.org/2000/svg" xmlns:xlink="http://www.w3.org/1999/xlink" x="0px" y="0px"
	 height="30px" width="30px" viewBox="0 0 30 30" enable-background="new 0 0 30 30" xml:space="preserve">
<path fill="#DD5900" d="M29.5,13.7L16.3,0.5c-0.7-0.7-1.9-0.7-2.6,0l-2.8,2.8l3.4,3.4c0.3-0.1,0.5-0.2,0.8-0.2c1.3,0,2.3,1,2.3,2.3
	c0,0.3,0,0.6-0.1,0.8l3.3,3.3c0.3-0.1,0.5-0.2,0.8-0.2c1.3,0,2.3,1,2.3,2.3c0,1.3-1,2.3-2.3,2.3c-1.3,0-2.3-1-2.3-2.3
	c0-0.3,0.1-0.6,0.2-0.8l-3.1-3.1v8.2c0.8,0.4,1.3,1.2,1.3,2c0,1.3-1,2.3-2.3,2.3c-1.3,0-2.3-1-2.3-2.3c0-1,0.6-1.8,1.5-2.1V11
	c-0.9-0.3-1.5-1.2-1.5-2.1c0-0.3,0.1-0.6,0.2-0.8L9.6,4.7l-9,9c-0.7,0.7-0.7,1.9,0,2.6l13.1,13.1c0.7,0.7,1.9,0.7,2.6,0l13.1-13.1
	C30.2,15.6,30.2,14.4,29.5,13.7z"/>
</svg>
