<?xml version="1.0" encoding="utf-8"?>
<!-- Generator: Adobe Illustrator 18.1.0, SVG Export Plug-In . SVG Version: 6.00 Build 0)  -->
<!DOCTYPE svg PUBLIC "-//W3C//DTD SVG 1.0//EN" "http://www.w3.org/TR/2001/REC-SVG-20010904/DTD/svg10.dtd">
<svg version="1.0" xmlns="http://www.w3.org/2000/svg" xmlns:xlink="http://www.w3.org/1999/xlink" x="0px" y="0px"
	 viewBox="0 0 152 117.5" enable-background="new 0 0 152 117.5" xml:space="preserve">
<g id="Layer_1">
	<g id="Azure">
	</g>
	<g id="BizTalk_Services" transform="translate(37.3575,-2500.2)">
	</g>
</g>
<g id="paths">
	<g id="Access_control">
	</g>
	<g id="Azure_active_directory">
	</g>
	<g id="API_Management">
	</g>
	<g id="Azure_automation">
	</g>
	<g id="Azure_SQL_database">
	</g>
	<g id="Azure_subscription">
	</g>
	<g id="Backup_service">
	</g>
	<g id="Bitbucket_code_source">
	</g>
	<g id="Azure_cache">
	</g>
	<g id="Content_delivery_network__x28_CDN_x29_">
	</g>
	<g id="Cloud_service">
	</g>
	<g id="CodePlex">
	</g>
	<g id="Dropbox_code_source">
		<g>
			<title>Sheet.969</title>
			<g id="shape970-1974_1_" transform="translate(1.13909E-013,-16.461)">
				<title>Sheet.970</title>
				<path fill="#0078D7" d="M76,63.3l-12.1,7.4l-8.2-6.6l12-7.8L76,63.3z"/>
			</g>
			<g id="shape971-1976_1_" transform="translate(1.13909E-013,-6.32025)">
				<title>Sheet.971</title>
				<path fill="#0078D7" d="M76,68l-12.1-7.4l-8.2,6.6l12,7.8L76,68z"/>
			</g>
			<g id="shape972-1978_1_" transform="translate(14.2837,-16.461)">
				<title>Sheet.972</title>
				<path fill="#0078D7" d="M62.1,63.2L74,70.4l8-6.4l-11.7-7.6L62.1,63.2z"/>
			</g>
			<g id="shape973-1980_1_" transform="translate(14.2837,-6.32025)">
				<title>Sheet.973</title>
				<path fill="#0078D7" d="M62.1,67.5L74,60.3l8,6.4l-11.7,7.6L62.1,67.5z"/>
			</g>
			<g id="shape974-1982_1_" transform="translate(5.89275,0)">
				<title>Sheet.974</title>
				<path fill="#0078D7" d="M78.4,70l-8.4-6.9L61.7,70l-3.5-2.3v2.7l11.9,7.1L82,70.5v-2.7L78.4,70z"/>
			</g>
		</g>
	</g>
</g>
</svg>
