<?xml version="1.0" encoding="utf-8"?>
<!-- Generator: Adobe Illustrator 17.0.1, SVG Export Plug-In . SVG Version: 6.00 Build 0)  -->
<!DOCTYPE svg PUBLIC "-//W3C//DTD SVG 1.1//EN" "http://www.w3.org/Graphics/SVG/1.1/DTD/svg11.dtd">
<svg version="1.1" id="Layer_1" xmlns="http://www.w3.org/2000/svg" xmlns:xlink="http://www.w3.org/1999/xlink" x="0px" y="0px"
	 width="30px" height="30px" viewBox="-0.5 0.5 30 30" enable-background="new -0.5 0.5 30 30" xml:space="preserve">
<path fill="#804998" d="M29.5,26.5H16.441l7.491-7.444v-7.574l-7.491-7.527H29.5V26.5z"/>
<path opacity="0.4" fill="#FFFFFF" d="M29.5,26.5H16.441l7.491-7.444v-7.574l-7.491-7.527H29.5V26.5z"/>
<path fill="#3E3E3E" d="M10.754,19.021c-2.078,0-3.763-1.686-3.763-3.764v-0.107c0-2.078,1.686-3.763,3.763-3.763h3.763V3.908h-3.87
	C4.486,3.908-0.5,8.894-0.5,15.044v0.321c0,6.149,4.986,11.136,11.148,11.136h3.87v-7.479H10.754L10.754,19.021z"/>
</svg>
