<?xml version="1.0" encoding="UTF-8" standalone="no"?>
<!DOCTYPE svg PUBLIC "-//W3C//DTD SVG 1.1//EN" "http://www.w3.org/Graphics/SVG/1.1/DTD/svg11.dtd">
<!-- Generated by Microsoft Visio, SVG Export webhooks.svg Page-1 -->
<svg xmlns="http://www.w3.org/2000/svg" xmlns:xlink="http://www.w3.org/1999/xlink" xmlns:ev="http://www.w3.org/2001/xml-events"
		xmlns:v="http://schemas.microsoft.com/visio/2003/SVGExtensions/" width="0.395833in" height="0.369946in"
		viewBox="0 0 28.5 26.6361" xml:space="preserve" color-interpolation-filters="sRGB" class="st2">
	<v:documentProperties v:langID="1033" v:viewMarkup="false">
		<v:userDefs>
			<v:ud v:nameU="visTLShowProps" v:prompt="" v:val="VT0(0):26"/>
		</v:userDefs>
	</v:documentProperties>

	<style type="text/css">
	<![CDATA[
		.st1 {fill:#0078d7;stroke:none;stroke-linecap:butt;stroke-width:0.75}
		.st2 {fill:none;fill-rule:evenodd;font-size:12px;overflow:visible;stroke-linecap:square;stroke-miterlimit:3}
	]]>
	</style>

	<g v:mID="0" v:index="1" v:groupContext="foregroundPage">
		<title>Page-1</title>
		<v:pageProperties v:drawingScale="1" v:pageScale="1" v:drawingUnits="19" v:shadowOffsetX="2.83465"
				v:shadowOffsetY="-2.83465" v:shadowType="1"/>
		<g id="shape3346-1" v:mID="3346" v:groupContext="shape" transform="translate(0.75,-0.75)">
			<title>Sheet.3346</title>
			<path d="M17.75 21.21 C17.96 21.49 18.13 21.76 18.34 21.99 C19.36 23.08 21.1 23.14 22.19 22.12 C23.33 21.06 23.38 19.29
						 22.31 18.19 C21.26 17.11 19.46 17.01 18.48 18.15 C17.89 18.84 17.28 18.93 16.5 18.91 C14.48 18.88 12.46
						 18.9 10.45 18.9 C10.58 21.74 9.51 23.5 7.38 23.92 C5.3 24.33 3.39 23.27 2.71 21.33 C1.94 19.13 2.89 17.37
						 5.63 15.97 C5.42 15.23 5.22 14.47 5.01 13.72 C2.02 14.37 -0.21 17.27 0.02 20.53 C0.22 23.41 2.54 25.96 5.38
						 26.42 C6.92 26.67 8.37 26.41 9.71 25.65 C11.44 24.67 12.44 23.12 12.91 21.21 L17.75 21.21 ZM15.86 9.8 C15.98
						 9.49 16.1 9.24 16.19 8.98 C16.5 8.04 16.31 7.19 15.71 6.43 C14.98 5.5 13.69 5.16 12.6 5.58 C11.5 6 10.79
						 7.09 10.84 8.28 C10.89 9.5 11.7 10.58 12.96 10.8 C13.71 10.93 14.08 11.28 14.42 11.9 C15.41 13.73 16.45
						 15.53 17.48 17.35 C19.95 15.71 21.99 15.76 23.51 17.47 C24.84 18.96 24.86 21.22 23.58 22.74 C22.07 24.52
						 20.04 24.59 17.72 23.09 C17.08 23.62 16.48 24.13 15.88 24.63 C18.23 26.97 21.58 27.28 24.23 25.46 C26.82
						 23.68 27.71 20.27 26.4 17.39 C25.31 15 22.28 12.77 18.25 14.02 C17.46 12.62 16.65 11.2 15.86 9.8 ZM12.65
						 12.04 C10.04 10.72 9.08 8.98 9.71 6.85 C10.27 4.97 12.15 3.75 14.06 4.03 C15.02 4.18 15.85 4.57 16.51 5.31
						 C17.5 6.44 17.72 7.76 17.42 9.23 C18.22 9.45 18.95 9.65 19.68 9.84 C20.64 7.2 19.51 4.12 17.05 2.54 C14.48
						 0.89 11.16 1.23 8.98 3.38 C7.84 4.5 7.22 5.87 7.07 7.46 C6.87 9.69 7.79 11.5 9.35 13.05 C8.49 14.49 7.67
						 15.86 6.87 17.19 C6.65 17.21 6.51 17.21 6.37 17.23 C4.75 17.46 3.6 18.91 3.87 20.38 C4.18 22.05 5.7 23.07
						 7.25 22.66 C8.9 22.23 9.78 20.64 9.16 19 C8.93 18.41 9.07 18.03 9.36 17.57 C10.45 15.75 11.53 13.92 12.65
						 12.04 Z" class="st1"/>
		</g>
	</g>
</svg>
