<?xml version="1.0" encoding="utf-8"?>
<!-- Generator: Adobe Illustrator 18.1.0, SVG Export Plug-In . SVG Version: 6.00 Build 0)  -->
<!DOCTYPE svg PUBLIC "-//W3C//DTD SVG 1.1//EN" "http://www.w3.org/Graphics/SVG/1.1/DTD/svg11.dtd">
<svg version="1.1" id="Layer_1" xmlns="http://www.w3.org/2000/svg" xmlns:xlink="http://www.w3.org/1999/xlink" x="0px" y="0px"
	 viewBox="0 0 216 216" enable-background="new 0 0 216 216" xml:space="preserve">
<path fill="#00188F" d="M106.8,125.8H95V124h11.9v-3.6H95v-1.8h11.7l-4-4.2l6.2-6.5h3.3v-1.8h-4.3c-1,0-1.9-0.5-2.3-1.2
	c-0.5-0.8-0.4-1.8,0.1-2.7l6.4-11.7c-0.3-0.9-1.2-1.6-2.2-1.6H93.2c-1.3,0-2.4,1.1-2.4,2.4v39.1h21.3v-4.7H108H106.8z M95,94.3h13
	v1.8H95V94.3z"/>
<g>
	<polygon fill="#00188F" points="109.1,113.3 112.6,109.8 109.7,109.8 105.1,114.5 109.7,119.2 112.6,119.2 109.1,115.7 112,115.7 
		119.9,115.7 119.9,113.3 112,113.3 	"/>
</g>
<g>
	<polygon fill="#00188F" points="118.6,118.1 115.6,118.1 119.1,121.6 116.2,121.6 108.6,121.6 108.6,124 116.2,124 119.1,124 
		115.6,127.5 118.6,127.5 123.1,122.8 	"/>
</g>
<path fill="#00188F" d="M117.1,87.6c-0.4-0.7-1-0.7-1.4,0l-8.5,15.6c-0.4,0.7-0.1,1.2,0.7,1.2h17c0.8,0,1.1-0.5,0.7-1.2L117.1,87.6z
	 M116.4,91.7c0.9,0,1.7,0.8,1.7,1.7c0,0.9-0.8,1.7-1.7,1.7c-0.9,0-1.7-0.8-1.7-1.7C114.7,92.4,115.5,91.7,116.4,91.7z M119.9,98.9
	c-0.4,0.1-0.7,0.2-0.9,0.4l-2.1-3.9c0.3-0.1,0.6-0.2,0.8-0.5L119.9,98.9z M114.9,95c0.2,0.2,0.5,0.4,0.8,0.5l-2.1,3.9
	c-0.2-0.2-0.5-0.4-0.9-0.4L114.9,95z M112.4,102.7c-0.9,0-1.7-0.8-1.7-1.7c0-0.9,0.8-1.7,1.7-1.7c0.9,0,1.7,0.8,1.7,1.7
	C114,102,113.3,102.7,112.4,102.7z M118.2,101.5h-3.7c0.1-0.2,0.1-0.3,0.1-0.5c0-0.2,0-0.3-0.1-0.5h3.7c-0.1,0.2-0.1,0.3-0.1,0.5
	C118.1,101.2,118.1,101.4,118.2,101.5z M120.3,102.7c-0.9,0-1.7-0.8-1.7-1.7c0-0.9,0.8-1.7,1.7-1.7c0.9,0,1.7,0.8,1.7,1.7
	C121.9,102,121.2,102.7,120.3,102.7z"/>
</svg>
