<?xml version="1.0" encoding="utf-8"?>
<!-- Generator: Adobe Illustrator 18.1.0, SVG Export Plug-In . SVG Version: 6.00 Build 0)  -->
<!DOCTYPE svg PUBLIC "-//W3C//DTD SVG 1.0//EN" "http://www.w3.org/TR/2001/REC-SVG-20010904/DTD/svg10.dtd">
<svg version="1.0" id="Layer_1" xmlns="http://www.w3.org/2000/svg" xmlns:xlink="http://www.w3.org/1999/xlink" x="0px" y="0px"
	 viewBox="0 0 792 612" enable-background="new 0 0 792 612" xml:space="preserve">
<g id="AD_FS">
</g>
<g>
	<g>
		<path fill="#2A3282" d="M574.1,445.4l-97.8-162.2c-4.3-6.9-11.2-6.9-15.4,0l-97.8,162.2c-4.3,6.9-0.9,12,7.7,12h195.6
			C575,458.3,578.4,452.3,574.1,445.4z M526.1,442h-42.9v-25.7h17.2v-17.2h-25.7H466h-25.7v17.2h17.2V442h-42.9v-25.7h17.2v-25.7
			h8.6H466v-17.2h-17.2v-25.7h42.9v25.7h-17.2v17.2h25.7h8.6v25.7h17.2V442z"/>
		<g>
			<path fill="#2A3282" d="M448.9,107.4H311.6c-9.4,0-17.2,7.7-17.2,17.2v334.6h48c0-3.4,0.9-7.7,3.4-11.2l13.7-23.2h-39.5v-17.2
				h49.8l10.3-17.2h-60.1v-17.2h70.4l60.9-101.2c3.4-6,8.6-9.4,14.6-10.3V123.7C466,115.1,458.3,107.4,448.9,107.4z M440.3,176
				H320.2v-17.2h120.1C440.3,158.9,440.3,176,440.3,176z"/>
		</g>
	</g>
	<g id="paths">
		<g id="Access_control">
		</g>
		<g id="Azure_active_directory">
		</g>
	</g>
</g>
</svg>
