<?xml version="1.0" encoding="utf-8"?>
<!-- Generator: Adobe Illustrator 18.1.0, SVG Export Plug-In . SVG Version: 6.00 Build 0)  -->
<!DOCTYPE svg PUBLIC "-//W3C//DTD SVG 1.1//EN" "http://www.w3.org/Graphics/SVG/1.1/DTD/svg11.dtd">
<svg version="1.1" id="Layer_1" xmlns="http://www.w3.org/2000/svg" xmlns:xlink="http://www.w3.org/1999/xlink" x="0px" y="0px"
	 viewBox="0 0 218.9 169.1" enable-background="new 0 0 218.9 169.1" xml:space="preserve">
<g>
	<g>
		<g id="shape4-6_1_" transform="translate(4.5,-13.962)">
			<title>Sheet.4</title>
			<path fill="#00188F" d="M99.9,101.2c0,0.5-0.4,1-1,1s-1-0.5-1-1v-5.1c0-0.5,0.4-1,1-1s1,0.5,1,1V101.2z"/>
		</g>
		<g id="shape5-8" transform="translate(15,-13.962)">
			<title>Sheet.5</title>
			<path fill="#00188F" d="M103.1,101.2c0,0.5-0.4,1-1,1s-1-0.5-1-1v-5.1c0-0.5,0.4-1,1-1s1,0.5,1,1V101.2z"/>
		</g>
		<g id="shape6-10" transform="translate(6.75,-9.7515)">
			<title>Sheet.6</title>
			<path fill="#00188F" d="M98.6,90.9v7.5c0,0.9,0.6,1.5,1.4,1.5h0.6v2.6c0,0.5,0.4,1,0.9,1c0.5,0,0.9-0.5,0.9-1v-2.6h2v2.6
				c0,0.5,0.4,1,0.9,1c0.5,0,0.9-0.5,0.9-1v-2.6h0.9c0.8,0,1.1-0.7,1.1-1.5v-7.5H98.6z"/>
		</g>
		<path fill="#00188F" d="M113.2,75.9l0.8-1.4c0.1-0.1,0-0.3-0.1-0.4c-0.1-0.1-0.3,0-0.3,0.1l-0.8,1.5c-0.7-0.4-1.6-0.6-2.5-0.6
			c-0.9,0-1.8,0.2-2.5,0.6l-0.8-1.5c-0.1-0.1-0.2-0.2-0.3-0.1c-0.1,0.1-0.2,0.2-0.1,0.4l0.8,1.4c-1.4,0.9-2.4,2.3-2.4,4
			c0,0.1,0,0.2,0,0.2h10.6c0,0,0-0.1,0-0.2C115.6,78.2,114.7,76.7,113.2,75.9z M107.8,78.1c-0.3,0-0.5-0.2-0.5-0.5
			c0-0.3,0.2-0.5,0.5-0.5c0.3,0,0.5,0.2,0.5,0.5C108.3,77.9,108.1,78.1,107.8,78.1z M112.7,78.1c-0.3,0-0.5-0.2-0.5-0.5
			c0-0.3,0.2-0.5,0.5-0.5c0.3,0,0.5,0.2,0.5,0.5C113.2,77.9,113,78.1,112.7,78.1z"/>
	</g>
	<path fill="#00188F" d="M122.7,61.6H97.8c-0.7,0-1.3,0.5-1.3,1.2v42.5c0,0.7,0.6,1.4,1.3,1.4h24.9c0.7,0,1.3-0.7,1.3-1.4V62.9
		C123.9,62.2,123.3,61.6,122.7,61.6z M107.5,63.4h5.9v1h-5.9V63.4z M110.3,105.8c-1.1,0-2-0.9-2-2s0.9-2,2-2s2,0.9,2,2
		S111.4,105.8,110.3,105.8z M121,100.9H99.4v-0.1V66.6H121V100.9z"/>
</g>
</svg>
