<?xml version="1.0" encoding="utf-8"?>
<!-- Generator: Adobe Illustrator 18.1.0, SVG Export Plug-In . SVG Version: 6.00 Build 0)  -->
<!DOCTYPE svg PUBLIC "-//W3C//DTD SVG 1.0//EN" "http://www.w3.org/TR/2001/REC-SVG-20010904/DTD/svg10.dtd">
<svg version="1.0" id="Layer_1" xmlns="http://www.w3.org/2000/svg" xmlns:xlink="http://www.w3.org/1999/xlink" x="0px" y="0px"
	 viewBox="0 0 792 612" enable-background="new 0 0 792 612" xml:space="preserve">
<g id="Layer_1_1_">
	<g id="File_x2C__general">
		<title>Sheet.1071</title>
	</g>
</g>
<g id="Access_control">
</g>
<g id="Azure_active_directory">
</g>
<g id="Generic_code">
</g>
<g>
	<g>
		<path fill="#2A3282" d="M198.6,172.5v266.1h394.8V172.5L198.6,172.5L198.6,172.5z M573.7,417.2H213.2V228.3h360.5V417.2z"/>
	</g>
	<g enable-background="new    ">
		<path fill="#2A3282" d="M344.5,316.8h-8.9v-8.7h-0.2c-3.9,6.7-9.6,10.1-17.2,10.1c-5.4,0-9.7-1.5-12.9-4.4
			c-3.2-2.9-4.8-6.9-4.8-11.8c0-10.4,6.1-16.5,18.4-18.2l16.7-2.3c0-9.4-3.8-14.2-11.5-14.2c-6.7,0-12.8,2.3-18.2,6.8v-9.2
			c1.6-1.2,4.4-2.4,8.4-3.6c4-1.1,7.5-1.7,10.6-1.7c13.1,0,19.7,7,19.7,20.9V316.8z M335.6,288.6l-13.5,1.9
			c-4.6,0.7-7.8,1.8-9.7,3.3c-1.9,1.5-2.8,4-2.8,7.5c0,2.8,1,5,3,6.7c2,1.7,4.6,2.5,7.7,2.5c4.4,0,8.1-1.6,11-4.7
			c2.9-3.1,4.3-7,4.3-11.7V288.6z"/>
		<path fill="#2A3282" d="M412.7,287.2c0,9.4-2.3,17-6.9,22.6c-4.6,5.6-10.8,8.4-18.5,8.4c-7.3,0-12.9-3.1-16.7-9.4h-0.2v33.7h-8.9
			V261h8.9v9.8h0.2c4.4-7.4,10.8-11.2,19.3-11.2c7,0,12.5,2.5,16.7,7.4C410.6,272,412.7,278.7,412.7,287.2z M403.5,287.1
			c0-6-1.4-10.8-4.3-14.4c-2.8-3.6-6.7-5.4-11.7-5.4c-5.1,0-9.3,1.8-12.5,5.3c-3.2,3.6-4.8,8.1-4.8,13.6v7.8c0,4.7,1.5,8.6,4.6,11.8
			c3.1,3.2,6.9,4.7,11.4,4.7c5.4,0,9.6-2.1,12.7-6.2C402,300.2,403.5,294.4,403.5,287.1z"/>
		<path fill="#2A3282" d="M477.8,287.2c0,9.4-2.3,17-6.9,22.6c-4.6,5.6-10.8,8.4-18.5,8.4c-7.3,0-12.9-3.1-16.7-9.4h-0.2v33.7h-8.9
			V261h8.9v9.8h0.2c4.4-7.4,10.8-11.2,19.3-11.2c7,0,12.5,2.5,16.7,7.4C475.8,272,477.8,278.7,477.8,287.2z M468.7,287.1
			c0-6-1.4-10.8-4.3-14.4c-2.8-3.6-6.7-5.4-11.7-5.4c-5.1,0-9.3,1.8-12.5,5.3c-3.2,3.6-4.8,8.1-4.8,13.6v7.8c0,4.7,1.5,8.6,4.6,11.8
			c3.1,3.2,6.9,4.7,11.4,4.7c5.4,0,9.6-2.1,12.7-6.2S468.7,294.4,468.7,287.1z"/>
	</g>
</g>
<g id="symbols">
</g>
<g id="slices">
</g>
</svg>
