<?xml version="1.0" encoding="UTF-8" standalone="no"?>
<!DOCTYPE svg PUBLIC "-//W3C//DTD SVG 1.1//EN" "http://www.w3.org/Graphics/SVG/1.1/DTD/svg11.dtd">
<!-- Generated by Microsoft Visio, SVG Export Azure Pack mono.svg Page-1 -->
<svg xmlns="http://www.w3.org/2000/svg" xmlns:xlink="http://www.w3.org/1999/xlink" xmlns:ev="http://www.w3.org/2001/xml-events"
		xmlns:v="http://schemas.microsoft.com/visio/2003/SVGExtensions/" width="0.909828in" height="0.818056in"
		viewBox="0 0 65.5076 58.9" xml:space="preserve" color-interpolation-filters="sRGB" class="st2">
	<v:documentProperties v:langID="1033" v:viewMarkup="false">
		<v:userDefs>
			<v:ud v:nameU="visTLShowProps" v:prompt="" v:val="VT0(0):26"/>
		</v:userDefs>
	</v:documentProperties>

	<style type="text/css">
	<![CDATA[
		.st1 {fill:#00188f;stroke:none;stroke-linecap:butt;stroke-width:0.75}
		.st2 {fill:none;fill-rule:evenodd;font-size:12px;overflow:visible;stroke-linecap:square;stroke-miterlimit:3}
	]]>
	</style>

	<g v:mID="0" v:index="1" v:groupContext="foregroundPage">
		<title>Page-1</title>
		<v:pageProperties v:drawingScale="1" v:pageScale="1" v:drawingUnits="19" v:shadowOffsetX="2.83465"
				v:shadowOffsetY="-2.83465" v:shadowType="1"/>
		<g id="shape894-1" v:mID="894" v:groupContext="shape" transform="translate(0.75,-0.75)">
			<title>Azure Pack.2687</title>
			<path d="M39.9 42.2 C37.7 43.9 35.1 44.7 32.5 44.7 C29.7 44.7 27 43.7 24.7 41.9 C24.6 40.6 24.7 38.5 25.5 36.4 C26.1
						 36.4 26.6 36.4 27.3 36.1 C27.6 36.4 27.9 36.7 28.4 36.9 C29.6 37.8 30.9 38.6 31.9 39.2 C31.8 39.8 32 40.4
						 32.4 40.9 C33.2 42 34.8 42.2 35.8 41.3 C36 41.1 36.2 40.9 36.3 40.7 C38.2 41.1 39.8 41.2 41 41.2 C40.6 41.6
						 40.4 41.9 39.9 42.2 ZM22.5 25.6 C22.2 26.8 22.1 28.5 23 30.5 C21.9 31.8 21.9 33.6 23 34.9 L23.3 35.2 C22.9
						 36.7 22.7 38.2 22.6 39.4 C19.5 35.2 19.7 29.7 22.5 25.6 ZM25.1 22.9 C25.7 22.4 26.4 22 27.1 21.6 C28 23
						 29.1 24.4 30.4 25.7 C29.3 26.5 28.2 27.4 27 28.6 C26.9 28.8 26.7 28.9 26.6 29.1 C25.9 29 25.3 29 24.6 29.2
						 C23.5 26.9 23.5 25 23.7 23.9 C24.2 23.6 24.5 23.3 25.1 22.9 ZM40.4 23.2 C38.5 22.8 35.6 22.9 32.3 24.7 C31.2
						 23.5 30.1 22.2 28.9 21 C30.1 20.6 31.4 20.4 32.7 20.4 C35.3 20.4 38 21.4 40.4 23.2 ZM36.6 39 C36.5 38.7
						 36.4 38.3 36.2 38 C35.4 37 34 36.8 33 37.4 C31.9 36.8 30.8 36.1 29.7 35.2 C29.5 35 29.3 34.8 29 34.6 C29.7
						 33.5 29.8 32.1 29.1 30.9 L29.5 30.5 C30.6 29.4 31.7 28.6 32.7 27.9 C34.2 29.3 35.9 30.6 37.4 31.8 C37 32.7
						 37.1 33.7 37.7 34.5 C38.6 35.7 40.2 35.9 41.5 35 C41.6 35 41.6 34.9 41.7 34.9 C42.8 35.7 43.7 36.3 44.2
						 36.6 C43.9 37.5 43.4 38.4 42.8 39.3 C41.8 39.6 39.7 39.9 36.6 39 ZM44.3 35.7 C43.8 35.3 43.1 34.8 42.2 34.1
						 C42.5 33.3 42.4 32.3 41.8 31.6 C41 30.5 39.4 30.3 38.4 30.9 C37.2 29.8 35.8 28.4 34.4 27 C38.6 24.7 41.8
						 24.9 42.1 24.9 C42.1 25 42.2 25 42.3 25.1 C44.6 28.2 45.2 32.2 44.3 35.7 ZM43.6 24.1 C40.9 20.5 36.6 18.6
						 32.5 18.6 C29.4 18.6 26.5 19.5 24 21.5 C17.9 26.2 16.6 35 21.4 41.1 C24.2 44.7 28.4 46.6 32.5 46.6 C35.6
						 46.6 38.5 45.7 41 43.7 C47.1 39 48.3 30.1 43.6 24.1 ZM8.6 46.2 L12.9 48.8 L12.9 43.5 L8.6 41 L8.6 46.2 ZM50.1
						 43.5 L50.1 48.8 L54.4 46.2 L54.4 41 L50.1 43.5 ZM31.5 6 L27 8.3 L31.5 11.1 L36 8.3 L31.5 6 ZM47.27 41.01
						 L49.5 42.4 L54 39.6 L49.5 37.4 L48.69 37.8 A17 17 0 0 1 47.27 41.01 ZM44.6 44.54 L44.6 46.2 L48.9 48.8 L48.9
						 43.5 L46.57 42.14 A17 17 0 0 1 44.6 44.54 ZM36 49.24 L36 51.8 C36 52.7 36.7 53.4 37.5 53.4 L46 53.4 C47
						 56.7 45.7 57.2 40.2 57.2 L40.2 58.9 L58.8 58.9 L58.8 57.1 C53.4 57.1 52.8 56.6 53.7 53.4 L62.3 53.4 C63.2
						 53.4 64 52.6 64 51.8 L64 34.4 C64.1 33.6 63.2 32.8 62.4 32.8 L49.5 32.8 A17 17 0 0 1 49.32 35.1 L61.9 35.1
						 L61.9 51.3 L38.2 51.3 L38.2 48.62 A17 17 0 0 1 36 49.24 ZM17.87 41.25 L14 43.5 L14 48.8 L18.3 46.2 L18.3
						 41.95 A17 17 0 0 1 17.87 41.25 ZM16.75 38.99 L13.5 37.4 L8.9 39.6 L13.5 42.4 L17.23 40.08 A17 17 0 0 1 16.75
						 38.99 ZM15.5 32.8 L1.5 32.8 C0.7 32.8 0 33.5 0 34.4 L0 51.8 C0 52.7 0.7 53.4 1.5 53.4 L10 53.4 C11 56.7
						 9.7 57.2 4.2 57.2 L4.2 58.9 L22.8 58.9 L22.8 57.1 C17.4 57.1 16.8 56.6 17.7 53.4 L26.3 53.4 C27.2 53.4 28
						 52.6 28 51.8 L28 48.99 A17 17 0 0 1 25.9 48.27 L25.9 51.3 L2.2 51.3 L2.2 35.1 L15.68 35.1 A17 17 0 0 1 15.5
						 32.8 ZM30.9 15.68 L30.9 12.1 L26.6 9.6 L26.6 14.9 L28.59 16.06 A17 17 0 0 1 30.9 15.68 ZM34.82 15.76 L36.3
						 14.9 L36.3 9.7 L32 12.1 L32 15.61 A17 17 0 0 1 34.82 15.76 ZM45.38 21.5 C45.75 21.19 46 20.75 46 20.3 L46
						 2.9 C46.1 2.2 45.2 1.5 44.4 1.5 L19.5 1.5 C18.7 1.5 18 2.2 18 3.1 L18 20.5 C18 21.27 18.51 21.89 19.16 22.06
						 A17 17 0 0 1 21.2 19.9 L20.2 19.9 L20.2 3.7 L43.9 3.7 L43.9 19.9 L43.8 19.9 A17 17 0 0 1 45.38 21.5 Z"
					class="st1"/>
		</g>
	</g>
</svg>
