<?xml version="1.0" encoding="utf-8"?>
<!-- Generator: Adobe Illustrator 18.1.0, SVG Export Plug-In . SVG Version: 6.00 Build 0)  -->
<!DOCTYPE svg PUBLIC "-//W3C//DTD SVG 1.0//EN" "http://www.w3.org/TR/2001/REC-SVG-20010904/DTD/svg10.dtd">
<svg version="1.0" id="Layer_1" xmlns="http://www.w3.org/2000/svg" xmlns:xlink="http://www.w3.org/1999/xlink" x="0px" y="0px"
	 viewBox="0 0 792 612" enable-background="new 0 0 792 612" xml:space="preserve">
<g id="Layer_1_1_">
</g>
<g id="Access_control">
</g>
<g id="Azure_active_directory">
</g>
<g id="Backup_x2C__online">
	<g>
		<polygon fill="#2A3282" points="404.8,404.3 456.3,455.9 456.3,412.9 387.6,344.2 318.8,412.9 318.8,455.9 370.4,404.3 
			370.4,524.7 404.8,524.7 		"/>
		<path fill="#2A3282" d="M609.4,246.1c0.9-5.2,1.7-10.3,1.7-16.3c0-54.2-41.3-97.1-92-97.1c-15.5,0-31,4.3-44.7,12.9
			c-15.5-35.2-49-58.5-85.1-58.5c-52.4,0-95.4,45.6-95.4,101.4c0,0.9,0,1.7,0,3.4c-6.9-2.6-13.8-3.4-20.6-3.4
			c-24.9,0-48.1,13.8-61,36.1c-3.4-0.9-6-0.9-9.5-0.9c-44.7,0-80.8,38.7-80.8,86s36.1,86,80.8,86h107.5l64.5-64.5l12-12l12,12
			l64.5,64.5H587l11.2-2.6c32.7-8.6,55.9-39.5,55.9-75.7C654.1,285.7,636,258.2,609.4,246.1z"/>
	</g>
</g>
</svg>
