<?xml version="1.0" encoding="utf-8"?>
<!-- Generator: Adobe Illustrator 18.1.0, SVG Export Plug-In . SVG Version: 6.00 Build 0)  -->
<!DOCTYPE svg PUBLIC "-//W3C//DTD SVG 1.0//EN" "http://www.w3.org/TR/2001/REC-SVG-20010904/DTD/svg10.dtd">
<svg version="1.0" id="Layer_1" xmlns="http://www.w3.org/2000/svg" xmlns:xlink="http://www.w3.org/1999/xlink" x="0px" y="0px"
	 viewBox="0 0 792 612" enable-background="new 0 0 792 612" xml:space="preserve">
<g>
	<g>
		<path fill="#2A3282" d="M229.6,392.2c-13.7,0-26.6,12.9-26.6,25.8v85h403.4v-85c0-12.9-13.7-25.8-26.6-25.8H229.6z M572.1,439.4
			c-7.7,0-13.7-6-13.7-12.9s6-12.9,13.7-12.9c7.7,0,13.7,6,13.7,12.9S579.8,439.4,572.1,439.4z"/>
		<g>
			<polygon fill="#2A3282" points="383.3,236 323.2,175.9 323.2,225.7 404.7,306.4 486.3,225.7 486.3,175.9 426.2,236 426.2,90.9 
				383.3,90.9 			"/>
			<polygon fill="#2A3282" points="529.2,296.9 439.1,296.9 416.7,318.4 404.7,330.4 392.7,318.4 370.4,296.9 280.3,296.9 
				223.6,374.2 586.7,374.2 			"/>
		</g>
	</g>
	<g id="Layer_1_1_">
	</g>
	<g id="paths">
		<g id="Access_control">
		</g>
		<g id="Azure_active_directory">
		</g>
	</g>
</g>
<g id="Backup_x2C__local">
</g>
</svg>
