<?xml version="1.0" encoding="utf-8"?>
<!-- Generator: Adobe Illustrator 18.1.0, SVG Export Plug-In . SVG Version: 6.00 Build 0)  -->
<!DOCTYPE svg PUBLIC "-//W3C//DTD SVG 1.0//EN" "http://www.w3.org/TR/2001/REC-SVG-20010904/DTD/svg10.dtd">
<svg version="1.0" id="Layer_1" xmlns="http://www.w3.org/2000/svg" xmlns:xlink="http://www.w3.org/1999/xlink" x="0px" y="0px"
	 viewBox="0 0 792 612" enable-background="new 0 0 792 612" xml:space="preserve">
<g id="paths">
	<g id="Access_control">
	</g>
	<g id="Azure_active_directory">
	</g>
</g>
<g>
	<path fill="#2A3282" d="M194.3,135.6v334.8h412V135.6C606.3,135.6,194.3,135.6,194.3,135.6z M589.1,453.2H211.5V195.7h377.7V453.2z
		"/>
	<rect x="228.6" y="393.1" fill="#2A3282" width="42.9" height="42.9"/>
	<rect x="228.6" y="333" fill="#2A3282" width="42.9" height="42.9"/>
	<rect x="228.6" y="273" fill="#2A3282" width="42.9" height="42.9"/>
	<rect x="288.7" y="393.1" fill="#2A3282" width="42.9" height="42.9"/>
	<rect x="288.7" y="333" fill="#2A3282" width="42.9" height="42.9"/>
	<rect x="288.7" y="273" fill="#2A3282" width="42.9" height="42.9"/>
	<rect x="288.7" y="212.9" fill="#2A3282" width="42.9" height="42.9"/>
	<rect x="348.8" y="393.1" fill="#2A3282" width="42.9" height="42.9"/>
	<rect x="348.8" y="333" fill="#2A3282" width="42.9" height="42.9"/>
	<rect x="348.8" y="273" fill="#2A3282" width="42.9" height="42.9"/>
	<rect x="348.8" y="212.9" fill="#2A3282" width="42.9" height="42.9"/>
	<rect x="408.9" y="393.1" fill="#2A3282" width="42.9" height="42.9"/>
	<rect x="408.9" y="333" fill="#2A3282" width="42.9" height="42.9"/>
	<rect x="408.9" y="273" fill="#2A3282" width="42.9" height="42.9"/>
	<rect x="408.9" y="212.9" fill="#2A3282" width="42.9" height="42.9"/>
	<rect x="469" y="393.1" fill="#2A3282" width="42.9" height="42.9"/>
	<rect x="469" y="333" fill="#2A3282" width="42.9" height="42.9"/>
	<rect x="469" y="273" fill="#2A3282" width="42.9" height="42.9"/>
	<rect x="469" y="212.9" fill="#2A3282" width="42.9" height="42.9"/>
	<rect x="529" y="333" fill="#2A3282" width="42.9" height="42.9"/>
	<rect x="529" y="273" fill="#2A3282" width="42.9" height="42.9"/>
	<rect x="529" y="212.9" fill="#2A3282" width="42.9" height="42.9"/>
	<path fill="none" d="M194.3,135.6v334.8h412V135.6C606.3,135.6,194.3,135.6,194.3,135.6z M589.1,453.2H211.5V195.7h377.7V453.2z"/>
	<g id="symbols">
	</g>
</g>
</svg>
