<?xml version="1.0" encoding="utf-8"?>
<!-- Generator: Adobe Illustrator 18.1.0, SVG Export Plug-In . SVG Version: 6.00 Build 0)  -->
<!DOCTYPE svg PUBLIC "-//W3C//DTD SVG 1.0//EN" "http://www.w3.org/TR/2001/REC-SVG-20010904/DTD/svg10.dtd">
<svg version="1.0" id="Layer_1" xmlns="http://www.w3.org/2000/svg" xmlns:xlink="http://www.w3.org/1999/xlink" x="0px" y="0px"
	 viewBox="0 0 792 612" enable-background="new 0 0 792 612" xml:space="preserve">
<g id="Certificate">
</g>
<g>
	<g>
		<g>
			<path fill="#2A3282" d="M382.9,379.5H234.6c-7.7,0-13.7-6-13.7-13.7V212.4h42.8v-42h275.1c7.7,0,13.7,6,13.7,13.7v1.7
				c6.9,1.7,14.6,5.1,21.4,7.7v-10.3c0-18.9-15.4-35.1-35.1-35.1H251.8l-51.4,52.3v165.4c0,18.9,15.4,35.1,35.1,35.1h161.1
				C390.6,394.1,386.3,387.3,382.9,379.5z"/>
		</g>
		<g id="group954-1946_2_" transform="translate(59.286,-2749.37)">
			<title>Sheet.954</title>
			<g id="shape955-1947_2_" transform="translate(1.9875,4.54747E-013)">
				<title>Sheet.955</title>
				<path fill="#2A3282" d="M507.4,3166.4l51.4,77.1l-48-12.9l-13.7,38.6l-51.4-68.6l-38.6,68.6l-18-41.1l-48,12.9l47.1-81.4
					c0,0,12.9,22.3,59.1,22.3C494.5,3181.8,507.4,3166.4,507.4,3166.4z"/>
			</g>
			<g id="shape956-1949_2_" transform="translate(5.3475,-13.3447)">
				<title>Sheet.956</title>
				<path fill="#2A3282" d="M447.9,3165.5c-45.4,0-82.3-36.8-82.3-81.4c0-44.6,36.8-81.4,82.3-81.4s82.3,36.8,82.3,81.4
					C529.4,3128.7,493.4,3165.5,447.9,3165.5z M447.9,3020.7c-35.1,0-64.3,28.3-64.3,63.4s29.1,63.4,64.3,63.4s64.3-28.3,64.3-63.4
					S483.1,3020.7,447.9,3020.7z"/>
			</g>
			<g id="shape957-1951_2_" transform="translate(-5.79536E-014,-8.08875)">
				<title>Sheet.957</title>
				<path fill="#2A3282" d="M452.9,3203.5c-69.4,0-126-55.7-126-124.3s56.6-124.3,126-124.3s126,55.7,126,124.3
					C578.9,3146.9,522.3,3203.5,452.9,3203.5z M452.9,2973c-59.1,0-108,48-108,106.3c0,58.3,48,106.3,108,106.3s108-48,108-106.3
					C560.9,3020.1,512.9,2973,452.9,2973z"/>
			</g>
		</g>
	</g>
	<g id="paths">
		<g id="Access_control">
		</g>
		<g id="Azure_active_directory">
		</g>
	</g>
	<g id="symbols">
	</g>
</g>
</svg>
