<?xml version="1.0" encoding="utf-8"?>
<!-- Generator: Adobe Illustrator 18.1.0, SVG Export Plug-In . SVG Version: 6.00 Build 0)  -->
<!DOCTYPE svg PUBLIC "-//W3C//DTD SVG 1.0//EN" "http://www.w3.org/TR/2001/REC-SVG-20010904/DTD/svg10.dtd">
<svg version="1.0" id="Layer_1" xmlns="http://www.w3.org/2000/svg" xmlns:xlink="http://www.w3.org/1999/xlink" x="0px" y="0px"
	 viewBox="0 0 792 612" enable-background="new 0 0 792 612" xml:space="preserve">
<g id="Client_application">
</g>
<g>
	<g>
		<path fill="#2A3282" d="M246,169.7v206h309v-206H246z M331.8,358.5h-68.7V229.8h68.7V358.5z M537.8,358.5H349V229.8h188.8V358.5z"
			/>
		<polygon fill="#2A3282" points="400.5,264.1 494.9,264.1 494.9,246.9 400.5,246.9 		"/>
		<polygon fill="#2A3282" points="400.5,289.9 494.9,289.9 494.9,272.7 400.5,272.7 		"/>
		<polygon fill="#2A3282" points="400.5,315.6 494.9,315.6 494.9,298.4 400.5,298.4 		"/>
		<polygon fill="#2A3282" points="400.5,341.4 494.9,341.4 494.9,324.2 400.5,324.2 		"/>
		<g>
			<path fill="#2A3282" d="M623.6,395.4c0-237.8,0-237.8,0-237.8c0-11.2-5.1-30.9-18-30.9c-29.2,0-410.3,0-410.3,0
				c-12.9,0-25.7,19.7-25.7,30.9c0,237.8,0,237.8,0,237.8c-46.3,49.8-43.8,49.8-43.8,49.8c0,13.7,6.9,24.9,26.6,24.9
				c137.3,0,489.2,0,489.2,0c15.4,0,25.7-11.2,25.7-24.9L623.6,395.4z M439.1,449.5c-85,0-85,0-85,0c-4.3,0-8.6-1.7-8.6-4.3
				c9.4-15.4,9.4-15.4,9.4-15.4c0-1.7,3.4-2.6,6.9-2.6c68.7,0,68.7,0,68.7,0c3.4,0,6.9,0.9,6.9,2.6c10.3,16.3,10.3,16.3,10.3,16.3
				C447.7,447.8,443.4,449.5,439.1,449.5z M606.4,392L606.4,392c-60.1,0.9-420.6,0.9-420.6,0.9c0-226.6,0-231.7,0-231.7l0,0l0,0
				c0-6,5.1-17.2,12-17.2c394,0,398.3,0,398.3,0c6.9,0,11.2,7.7,11.2,12.9V392H606.4z"/>
		</g>
	</g>
	<g id="paths">
		<g id="Access_control">
		</g>
		<g id="Azure_active_directory">
		</g>
	</g>
	<g id="symbols">
	</g>
</g>
</svg>
