<?xml version="1.0" encoding="utf-8"?>
<!-- Generator: Adobe Illustrator 18.1.0, SVG Export Plug-In . SVG Version: 6.00 Build 0)  -->
<!DOCTYPE svg PUBLIC "-//W3C//DTD SVG 1.0//EN" "http://www.w3.org/TR/2001/REC-SVG-20010904/DTD/svg10.dtd">
<svg version="1.0" id="Layer_1" xmlns="http://www.w3.org/2000/svg" xmlns:xlink="http://www.w3.org/1999/xlink" x="0px" y="0px"
	 viewBox="0 0 792 612" enable-background="new 0 0 792 612" xml:space="preserve">
<g id="Cluster_server">
</g>
<g>
	<g>
		<path fill="#2A3282" d="M464.8,181.4H327.5c-9.4,0-17.2,7.7-17.2,17.2v334.8H482V198.6C482,189.1,474.3,181.4,464.8,181.4z
			 M456.2,499H336.1v-17.2h120.2V499z M456.2,464.6H336.1v-17.2h120.2V464.6z M456.2,250.1H336.1v-17.2h120.2V250.1z"/>
		<g>
			<path fill="#2A3282" d="M559.2,87H421.9c-9.4,0-17.2,7.7-17.2,17.2v60.1h60.1c18.9,0,34.3,15.5,34.3,34.3v154.5h51.5v17.2h-51.5
				v17.2h51.5v17.2h-51.5v34.3h77.3V104.1C576.4,94.7,568.7,87,559.2,87z M550.6,155.6H430.5v-17.2h120.2V155.6z"/>
		</g>
		<g>
			<path fill="#2A3282" d="M293.1,404.6h-51.5v-17.2h51.5v-17.2h-51.5v-17.2h51.5V198.6c0-18.9,15.5-34.3,34.3-34.3h60.1v-60.1
				c0-9.4-7.7-17.2-17.2-17.2H233.1c-9.4,0-17.2,7.7-17.2,17.2v334.8h77.3V404.6z M241.6,138.5h120.2v17.2H241.6V138.5z"/>
		</g>
	</g>
	<g id="Layer_1_1_">
	</g>
	<g id="Access_control">
	</g>
	<g id="Azure_active_directory">
	</g>
	<g id="symbols">
	</g>
</g>
</svg>
