<?xml version="1.0" encoding="utf-8"?>
<!-- Generator: Adobe Illustrator 19.1.0, SVG Export Plug-In . SVG Version: 6.00 Build 0)  -->
<svg version="1.1" id="Layer_1" xmlns="http://www.w3.org/2000/svg" xmlns:xlink="http://www.w3.org/1999/xlink" x="0px" y="0px"
	 viewBox="90 91 792 612" style="enable-background:new 90 91 792 612;" xml:space="preserve">
<style type="text/css">
	.st0{fill:#2A3282;}
</style>
<g id="Layer_1_1_">
</g>
<g id="Access_control">
</g>
<g id="Azure_active_directory">
</g>
<g id="Generic_code">
	<g>
		<path class="st0" d="M561,262.6H392.5c-19.7,0-35.9,16.3-35.9,35.9v195.9c0,19.7,16.3,35.9,35.9,35.9H579
			c19.7,0,35.9-16.3,35.9-35.9V315.6L561,262.6z M592.7,494.4c0,7.7-6,13.7-13.7,13.7H392.5c-7.7,0-13.7-6-13.7-13.7V298.5
			c0-7.7,6-13.7,13.7-13.7h157.4v42.8h42.8L592.7,494.4L592.7,494.4z"/>
	</g>
</g>
<g id="symbols">
</g>
<g>
	<path class="st0" d="M414,379.6c-1.3-0.5-2.5-0.8-3.7-0.8c-3.2,0-4.8,1.7-4.8,5.2v3.4h7.3v7.3h-7.3v24.7h-9.8v-24.7h-5.4v-7.3h5.4
		v-4c0-3.6,1.2-6.6,3.6-8.8c2.4-2.2,5.6-3.3,9.7-3.3c2,0,3.7,0.2,5,0.6V379.6z"/>
	<path class="st0" d="M448.1,419.4h-9.8v-4.9h-0.2c-2.4,3.8-5.7,5.7-9.8,5.7c-7.4,0-11.1-4.5-11.1-13.5v-19.3h9.8v18.4
		c0,4.5,1.8,6.8,5.4,6.8c1.8,0,3.2-0.6,4.3-1.9c1.1-1.2,1.6-2.9,1.6-5v-18.3h9.8V419.4z"/>
	<path class="st0" d="M487.3,419.4h-9.8v-17.8c0-5-1.8-7.4-5.3-7.4c-1.7,0-3.1,0.7-4.2,2c-1.1,1.3-1.7,3-1.7,5v18.3h-9.9v-32h9.9
		v5.1h0.1c2.4-3.9,5.8-5.8,10.3-5.8c7.1,0,10.6,4.4,10.6,13.2V419.4z"/>
	<path class="st0" d="M519.4,418.2c-2.2,1.3-5.4,1.9-9.7,1.9c-4.9,0-8.9-1.5-11.9-4.5c-3-3-4.6-6.8-4.6-11.5c0-5.4,1.6-9.7,4.9-12.9
		c3.3-3.1,7.6-4.7,13.1-4.7c3.8,0,6.5,0.5,8.2,1.5v8.4c-2.1-1.5-4.4-2.3-6.9-2.3c-2.8,0-5.1,0.8-6.7,2.5s-2.5,3.9-2.5,6.9
		c0,2.8,0.8,5.1,2.4,6.7c1.6,1.6,3.8,2.4,6.5,2.4c2.5,0,4.9-0.8,7.2-2.3V418.2z"/>
	<path class="st0" d="M544.8,429.6h-8.1c-6.7-7.4-10.1-16.5-10.1-27.3c0-10.4,3.4-19.7,10.1-27.7h8c-6.3,8.4-9.5,17.6-9.5,27.7
		S538.4,421.4,544.8,429.6z"/>
	<path class="st0" d="M571.5,429.6h-8c6.4-8.1,9.6-17.2,9.6-27.3c0-10-3.2-19.2-9.6-27.7h8.1c6.8,8,10.1,17.2,10.1,27.7
		C581.7,412.9,578.3,422.1,571.5,429.6z"/>
</g>
</svg>
