<?xml version="1.0" encoding="utf-8"?>
<!-- Generator: Adobe Illustrator 18.1.0, SVG Export Plug-In . SVG Version: 6.00 Build 0)  -->
<!DOCTYPE svg PUBLIC "-//W3C//DTD SVG 1.0//EN" "http://www.w3.org/TR/2001/REC-SVG-20010904/DTD/svg10.dtd">
<svg version="1.0" id="Layer_1" xmlns="http://www.w3.org/2000/svg" xmlns:xlink="http://www.w3.org/1999/xlink" x="0px" y="0px"
	 viewBox="0 0 792 612" enable-background="new 0 0 792 612" xml:space="preserve">
<g id="Layer_1_1_">
</g>
<g id="Access_control">
</g>
<g id="Azure_active_directory">
</g>
<g id="Connectors">
	<g>
		<path fill="#2A3282" d="M411.6,412.4c-54.1,0-97.9-43.8-97.9-97.9s43.8-97.9,97.9-97.9c24,0,45.5,8.6,62.7,22.3l27.5-27.5
			c-24-21.5-55.8-34.3-90.1-34.3c-67,0-122.7,48.1-134.8,111.6h-58.4c-19.7,0-29.2,12-29.2,25.8s13.7,25.8,29.2,25.8h58.4
			c12,63.5,67.8,111.6,134.8,111.6c36.1,0,68.7-13.7,92.7-36.9l-27.5-27.5C459.6,402.9,436.5,412.4,411.6,412.4z"/>
		<path fill="#2A3282" d="M621,316.2L531.7,257v31.8h-85.8c-1.7-1.7-3.4-4.3-5.2-6c-18-18.9-48.1-18.9-66.1,0c-18,18-18,48.1,0,66.1
			c18,18,48.1,18,66.1,0c2.6-2.6,5.2-5.2,6.9-8.6h84.1v35.2L621,316.2z"/>
	</g>
</g>
<g id="symbols">
</g>
</svg>
