<?xml version="1.0" encoding="utf-8"?>
<!-- Generator: Adobe Illustrator 18.1.0, SVG Export Plug-In . SVG Version: 6.00 Build 0)  -->
<!DOCTYPE svg PUBLIC "-//W3C//DTD SVG 1.0//EN" "http://www.w3.org/TR/2001/REC-SVG-20010904/DTD/svg10.dtd">
<svg version="1.0" id="Layer_1" xmlns="http://www.w3.org/2000/svg" xmlns:xlink="http://www.w3.org/1999/xlink" x="0px" y="0px"
	 viewBox="0 0 792 612" enable-background="new 0 0 792 612" xml:space="preserve">
<g id="paths">
	<g id="Access_control">
	</g>
	<g id="Azure_active_directory">
	</g>
</g>
<g>
	<g>
		<path fill="#2A3282" d="M386.6,447.2h-80.7V430h73.8c-1.7-5.2-3.4-11.2-3.4-17.2h-69.5v-17.2h68.7c1.7-45.5,34.3-82.4,77.3-92.7
			V146.8c0-9.4-7.7-17.2-17.2-17.2H298.1c-9.4,0-17.2,7.7-17.2,17.2v334.8h138.2C404.6,472.9,394.3,460.9,386.6,447.2z M305.9,181.1
			H426v17.2H305.9L305.9,181.1L305.9,181.1z"/>
	</g>
	<path fill="#2A3282" d="M472.4,448.9c-16.3,0-29.2-6.9-37.8-18.9v24l-13.7-13.7v-36.1h36.1l13.7,13.7h-26.6
		c6,9.4,16.3,13.7,29.2,13.7c16.3,0,30-12,33.5-27.5h17.2C519.6,430,498.1,448.9,472.4,448.9L472.4,448.9z M523,393.1h-34.3
		l-14.6-13.7h25.8c-6-9.4-16.3-12.9-28.3-12.9c-16.3,0-30,12-33.5,26.6h-17.2c3.4-24.9,24.9-43.8,50.6-43.8c16.3,0,28.3,6,37.8,18
		v-23.2l13.7,14.6V393.1L523,393.1L523,393.1L523,393.1z M473.3,318.4c-44.6,0-81.5,36.9-81.5,81.5s36.9,81.5,81.5,81.5
		s81.5-36.9,81.5-81.5S517.9,318.4,473.3,318.4L473.3,318.4z"/>
	<g id="symbols">
	</g>
</g>
</svg>
