<?xml version="1.0" encoding="utf-8"?>
<!-- Generator: Adobe Illustrator 18.1.0, SVG Export Plug-In . SVG Version: 6.00 Build 0)  -->
<!DOCTYPE svg PUBLIC "-//W3C//DTD SVG 1.0//EN" "http://www.w3.org/TR/2001/REC-SVG-20010904/DTD/svg10.dtd">
<svg version="1.0" id="Layer_1" xmlns="http://www.w3.org/2000/svg" xmlns:xlink="http://www.w3.org/1999/xlink" x="0px" y="0px"
	 viewBox="0 0 792 612" enable-background="new 0 0 792 612" xml:space="preserve">
<g id="Database_x2C__generic_2">
</g>
<g>
	<g id="shape1033-2094_2_" transform="translate(1972.87,-1602.08)">
		<title>Sheet.1033</title>
		<path fill="#2A3282" d="M-1576.7,1828.1c-49.7,0-90.8-12-90.8-27.4c0-15.4,40.2-27.4,90.8-27.4c49.7,0,89.9,12,89.9,27.4
			C-1486.8,1816.1-1526.2,1828.1-1576.7,1828.1z M-1703.4,1985.6v49.7c0,23.1,46.2,48.8,107,53.1h40.2c60.8-4.3,107-24.8,107-48.8
			v-233.7c0-25.7-57.4-50.5-127.6-50.5c-70.2,0-126.7,23.1-126.7,49.7v104.4L-1703.4,1985.6L-1703.4,1985.6z"/>
	</g>
	<g id="paths">
		<g id="Access_control">
		</g>
		<g id="Azure_active_directory">
		</g>
	</g>
	<g id="symbols">
	</g>
</g>
</svg>
