<?xml version="1.0" encoding="utf-8"?>
<!-- Generator: Adobe Illustrator 18.1.0, SVG Export Plug-In . SVG Version: 6.00 Build 0)  -->
<!DOCTYPE svg PUBLIC "-//W3C//DTD SVG 1.0//EN" "http://www.w3.org/TR/2001/REC-SVG-20010904/DTD/svg10.dtd">
<svg version="1.0" id="Layer_1" xmlns="http://www.w3.org/2000/svg" xmlns:xlink="http://www.w3.org/1999/xlink" x="0px" y="0px"
	 viewBox="0 0 792 612" enable-background="new 0 0 792 612" xml:space="preserve">
<g id="Database_server">
</g>
<g>
	<g>
		<path fill="#2A3282" d="M460.4,329.4c-26.5,0-53.9-5.1-68.5-16.3V451c0,17.1,30.8,30.8,68.5,30.8s68.5-13.7,68.5-30.8V313.2
			C514.3,323.4,486.9,329.4,460.4,329.4L460.4,329.4z"/>
		<path fill="#2A3282" d="M528.9,294.3c0-13.7-30.8-24.8-68.5-24.8s-68.5,11.1-68.5,24.8s30.8,24.8,68.5,24.8S528.9,308,528.9,294.3
			L528.9,294.3z"/>
		<g>
			<path fill="#2A3282" d="M374.7,396.2v-83.9v-15.4v-2.6c0-23.1,27.4-36,59.9-40.2v-107c0-9.4-7.7-17.1-17.1-17.1h-137
				c-9.4,0-17.1,7.7-17.1,17.1V481h130.2c-12-8.6-18.8-18.8-18.8-30.8v-3.4h-85.6v-17.1h85.6v-17.1h-85.6v-17.1h85.6V396.2z
				 M289.1,182.2H409v17.1H289.1V182.2z"/>
		</g>
	</g>
	<g id="Layer_1_1_">
	</g>
	<g id="Access_control">
	</g>
	<g id="Azure_active_directory">
	</g>
	<g id="symbols">
	</g>
</g>
</svg>
