<?xml version="1.0" encoding="utf-8"?>
<!-- Generator: Adobe Illustrator 18.1.0, SVG Export Plug-In . SVG Version: 6.00 Build 0)  -->
<!DOCTYPE svg PUBLIC "-//W3C//DTD SVG 1.0//EN" "http://www.w3.org/TR/2001/REC-SVG-20010904/DTD/svg10.dtd">
<svg version="1.0" id="Layer_1" xmlns="http://www.w3.org/2000/svg" xmlns:xlink="http://www.w3.org/1999/xlink" x="0px" y="0px"
	 viewBox="0 0 792 612" enable-background="new 0 0 792 612" xml:space="preserve">
<g id="Layer_1_1_">
</g>
<g id="Access_control">
</g>
<g id="Azure_active_directory">
</g>
<g id="Device">
	<g>
		<path fill="#2A3282" d="M547.2,299.4H245.1c-8.6,0-16.3,5.2-16.3,12v60.9c0,6.9,6.9,12,16.3,12h302.1c8.6,0,16.3-5.2,16.3-12
			v-60.9C563.5,304.6,556.7,299.4,547.2,299.4z M280.3,359.5c-9.4,0-17.2-7.7-17.2-17.2s7.7-17.2,17.2-17.2s17.2,7.7,17.2,17.2
			S289.7,359.5,280.3,359.5z M357.5,359.5c-9.4,0-17.2-7.7-17.2-17.2s7.7-17.2,17.2-17.2c9.4,0,17.2,7.7,17.2,17.2
			S367,359.5,357.5,359.5z M434.8,359.5c-9.4,0-17.2-7.7-17.2-17.2s7.7-17.2,17.2-17.2s17.2,7.7,17.2,17.2S444.2,359.5,434.8,359.5z
			 M512,359.5c-9.4,0-17.2-7.7-17.2-17.2s7.7-17.2,17.2-17.2c9.4,0,17.2,7.7,17.2,17.2S521.5,359.5,512,359.5z"/>
		<polygon fill="#2A3282" points="501.7,213.6 290.6,213.6 228.8,273.7 563.5,273.7 		"/>
	</g>
</g>
<g id="symbols">
</g>
</svg>
