<?xml version="1.0" encoding="utf-8"?>
<!-- Generator: Adobe Illustrator 18.1.0, SVG Export Plug-In . SVG Version: 6.00 Build 0)  -->
<!DOCTYPE svg PUBLIC "-//W3C//DTD SVG 1.0//EN" "http://www.w3.org/TR/2001/REC-SVG-20010904/DTD/svg10.dtd">
<svg version="1.0" id="Layer_1" xmlns="http://www.w3.org/2000/svg" xmlns:xlink="http://www.w3.org/1999/xlink" x="0px" y="0px"
	 viewBox="0 0 792 612" enable-background="new 0 0 792 612" xml:space="preserve">
<g id="Direct_access">
</g>
<g>
	<g>
		<path fill="#2A3282" d="M463.3,485.3l-29.2-49.8c-1.7-2.6-5.2-5.2-8.6-5.2H210.9c-3.4,0-7.7,2.6-8.6,5.2l-29.2,49.8
			c-1.7,2.6,0,5.2,3.4,5.2h283.3C463.3,490.4,464.1,487.9,463.3,485.3z M242.7,474.1l11.2-18h124.5l11.2,18H242.7z"/>
		<path fill="#2A3282" d="M405.8,267.3H232.4c-13.7,0-24.9,11.2-24.9,24v97.9c0,13.7,11.2,24,24.9,24h173.4
			c13.7,0,24.9-11.2,24.9-24v-97.9C430.7,278.4,419.5,267.3,405.8,267.3z M404.9,387.4H233.2V293h171.7
			C404.9,293,404.9,387.4,404.9,387.4z"/>
		<path fill="#2A3282" d="M585.2,138.5c0-9.4-7.7-17.2-17.2-17.2H430.7c-9.4,0-17.2,7.7-17.2,17.2V251c19.7,3.4,34.3,20.6,34.3,40.3
			v96.1h103v17.2h-103v17.2h103v17.2h-95.3l19.7,34.3h109V138.5H585.2z M550.8,190h-103v-17.2h103V190z"/>
		<polygon fill="#2A3282" points="365.4,322.2 337.1,322.2 349.1,310.2 387.7,310.2 387.7,348.8 375.7,360.8 375.7,331.6 
			341.4,365.1 332,355.7 		"/>
	</g>
	<g id="Layer_1_1_">
	</g>
	<g id="Access_control">
	</g>
	<g id="Azure_active_directory">
	</g>
	<g id="symbols">
	</g>
</g>
</svg>
