<?xml version="1.0" encoding="utf-8"?>
<!-- Generator: Adobe Illustrator 18.1.0, SVG Export Plug-In . SVG Version: 6.00 Build 0)  -->
<!DOCTYPE svg PUBLIC "-//W3C//DTD SVG 1.0//EN" "http://www.w3.org/TR/2001/REC-SVG-20010904/DTD/svg10.dtd">
<svg version="1.0" id="Layer_1" xmlns="http://www.w3.org/2000/svg" xmlns:xlink="http://www.w3.org/1999/xlink" x="0px" y="0px"
	 viewBox="0 0 792 612" enable-background="new 0 0 792 612" xml:space="preserve">
<g id="Layer_1_1_">
</g>
<g id="Access_control">
</g>
<g id="Azure_active_directory">
</g>
<g id="Generic_code">
	<g>
		<path fill="#2A3282" d="M471,171.6H302.5c-19.7,0-35.9,16.3-35.9,35.9v195.9c0,19.7,16.3,35.9,35.9,35.9H489
			c19.7,0,35.9-16.3,35.9-35.9V224.6L471,171.6z M502.7,403.4c0,7.7-6,13.7-13.7,13.7H302.5c-7.7,0-13.7-6-13.7-13.7V207.5
			c0-7.7,6-13.7,13.7-13.7h157.4v42.8h42.8V403.4z"/>
		<path fill="#2A3282" d="M344.4,264v18c0,10.3-4.3,15.4-12,15.4v14.5c8.6,0,12,5.1,12,14.5v19.7c0,10.3,2.6,17.1,6.8,21.4
			c5.1,6,13.7,8.6,26.5,8.6v-15.4c-4.3,0-7.7-0.9-10.3-3.4c-1.7-2.6-3.4-6-3.4-11.1v-16.3c0.9-12.8-3.4-21.4-11.1-24.8l0,0
			c8.6-3.4,12-11.1,12-24V264c0-9.4,4.3-13.7,12.8-13.7v-15.4c-12.8,0-21.4,2.6-26.5,7.7C347,246,344.4,253.7,344.4,264z"/>
		<path fill="#2A3282" d="M438.5,281.9v-18.8c0-10.3-2.6-17.1-6.8-22.2c-5.1-4.3-13.7-6.8-26.5-6.8v15.4c8.6,0,12.8,4.3,12.8,13.7
			v16.3c0,13.7,4.3,22.2,12,25.7l0,0c-8.6,3.4-12,11.1-12,24v17.1c0,5.1-0.9,8.6-2.6,11.1c-2.6,2.6-5.1,3.4-10.3,3.4v15.4
			c12.8,0,21.4-2.6,26.5-7.7c4.3-4.3,6.8-12,6.8-22.2v-18.8c0-10.3,4.3-15.4,12-15.4v-14.5C442.8,297.3,438.5,292.2,438.5,281.9z"/>
	</g>
</g>
<g id="symbols">
</g>
</svg>
