<?xml version="1.0" encoding="utf-8"?>
<!-- Generator: Adobe Illustrator 18.1.0, SVG Export Plug-In . SVG Version: 6.00 Build 0)  -->
<!DOCTYPE svg PUBLIC "-//W3C//DTD SVG 1.0//EN" "http://www.w3.org/TR/2001/REC-SVG-20010904/DTD/svg10.dtd">
<svg version="1.0" id="Layer_1" xmlns="http://www.w3.org/2000/svg" xmlns:xlink="http://www.w3.org/1999/xlink" x="0px" y="0px"
	 viewBox="0 0 792 612" enable-background="new 0 0 792 612" xml:space="preserve">
<g id="Layer_1_1_">
</g>
<g id="Access_control">
</g>
<g id="Azure_active_directory">
</g>
<g id="Domain_controller">
	<g>
		<path fill="#2A3282" d="M368.4,481.4c-6,0-8.6-4.3-6-9.4l74.5-123.3c3.4-5.1,8.6-5.1,12,0L523.4,472c3.4,5.1,0.9,9.4-6,9.4H368.4
			L368.4,481.4L368.4,481.4z"/>
		<g>
			<path fill="#2A3282" d="M421.5,130.4h-137c-9.4,0-17.1,7.7-17.1,17.1v333.9h77.9c-1.7-6,0-12,2.6-18l9.4-16.3h-64.2V430h74.5
				l10.3-17.1h-84.8v-17.1h94.2l30.8-53.9c3.4-5.1,7.7-9.4,12-12c2.6-1.7,5.1-2.6,8.6-2.6V146.7
				C438.6,138.1,430.9,130.4,421.5,130.4z M412.9,198.9H293.1v-17.1h119.9V198.9z"/>
		</g>
	</g>
</g>
<g id="symbols">
</g>
</svg>
