<?xml version="1.0" encoding="utf-8"?>
<!-- Generator: Adobe Illustrator 18.1.0, SVG Export Plug-In . SVG Version: 6.00 Build 0)  -->
<!DOCTYPE svg PUBLIC "-//W3C//DTD SVG 1.0//EN" "http://www.w3.org/TR/2001/REC-SVG-20010904/DTD/svg10.dtd">
<svg version="1.0" id="Layer_1" xmlns="http://www.w3.org/2000/svg" xmlns:xlink="http://www.w3.org/1999/xlink" x="0px" y="0px"
	 viewBox="0 0 792 612" enable-background="new 0 0 792 612" xml:space="preserve">
<title>Sheet.1071</title>
<g>
	<g id="group1072-2162_3_" transform="translate(5.45175,-6.04875)">
		<g id="shape1073-2163_3_" transform="translate(-7.49401E-014,-6.7755)">
			<title>Sheet.1073</title>
			<rect x="322.3" y="264.1" fill="#2A3282" width="134.8" height="24.9"/>
		</g>
		<g id="shape1074-2165_3_" transform="translate(-7.49401E-014,-3.3885)">
			<title>Sheet.1074</title>
			<rect x="322.3" y="308.7" fill="#2A3282" width="134.8" height="24.9"/>
		</g>
		<g id="shape1075-2167_3_">
			<title>Sheet.1075</title>
			<rect x="322.3" y="352.4" fill="#2A3282" width="134.8" height="24.9"/>
		</g>
	</g>
	<g id="shape1076-2169_2_">
		<path fill="#2A3282" d="M481,154.5H291.3c-22.3,0-40.3,18-40.3,40.3v221.5c0,22.3,18,40.3,40.3,40.3h210.3
			c22.3,0,40.3-18,40.3-40.3V214.6L481,154.5z M501.6,432.6H291.3c-8.6,0-15.5-6.9-15.5-16.3V194.8c0-8.6,6.9-15.5,15.5-15.5h176.8
			v49.8H517v188C517,425.7,510.2,432.6,501.6,432.6z"/>
	</g>
</g>
<title>Sheet.1071</title>
<g id="paths">
	<g id="Access_control">
	</g>
	<g id="Azure_active_directory">
	</g>
</g>
<g id="symbols">
</g>
</svg>
