<?xml version="1.0" encoding="utf-8"?>
<!-- Generator: Adobe Illustrator 18.1.0, SVG Export Plug-In . SVG Version: 6.00 Build 0)  -->
<!DOCTYPE svg PUBLIC "-//W3C//DTD SVG 1.0//EN" "http://www.w3.org/TR/2001/REC-SVG-20010904/DTD/svg10.dtd">
<svg version="1.0" id="Layer_1" xmlns="http://www.w3.org/2000/svg" xmlns:xlink="http://www.w3.org/1999/xlink" x="0px" y="0px"
	 viewBox="0 0 792 612" enable-background="new 0 0 792 612" xml:space="preserve">
<g id="Layer_1_1_">
	<g id="File_x2C__general">
		<title>Sheet.1071</title>
	</g>
</g>
<g id="Access_control">
</g>
<g id="Azure_active_directory">
</g>
<g id="Firewall">
	<g>
		<polygon fill="#2A3282" points="310.3,224.4 224.5,224.4 224.5,155.7 310.3,155.7 		"/>
		<polygon fill="#2A3282" points="472.5,224.4 319.8,224.4 319.8,155.7 472.5,155.7 		"/>
		<polygon fill="#2A3282" points="567.8,224.4 482,224.4 482,155.7 567.8,155.7 		"/>
		<polygon fill="#2A3282" points="386.7,301.6 224.5,301.6 224.5,232.9 386.7,232.9 		"/>
		<polygon fill="#2A3282" points="567.8,301.6 396.1,301.6 396.1,232.9 567.8,232.9 		"/>
		<polygon fill="#2A3282" points="310.3,378.9 224.5,378.9 224.5,310.2 310.3,310.2 		"/>
		<polygon fill="#2A3282" points="472.5,378.9 319.8,378.9 319.8,310.2 472.5,310.2 		"/>
		<polygon fill="#2A3282" points="567.8,378.9 482,378.9 482,310.2 567.8,310.2 		"/>
		<polygon fill="#2A3282" points="386.7,456.1 224.5,456.1 224.5,387.4 386.7,387.4 		"/>
		<polygon fill="#2A3282" points="567.8,456.1 396.1,456.1 396.1,387.4 567.8,387.4 		"/>
	</g>
</g>
<g id="symbols">
</g>
</svg>
