<?xml version="1.0" encoding="utf-8"?>
<!-- Generator: Adobe Illustrator 18.1.0, SVG Export Plug-In . SVG Version: 6.00 Build 0)  -->
<!DOCTYPE svg PUBLIC "-//W3C//DTD SVG 1.0//EN" "http://www.w3.org/TR/2001/REC-SVG-20010904/DTD/svg10.dtd">
<svg version="1.0" id="Layer_1" xmlns="http://www.w3.org/2000/svg" xmlns:xlink="http://www.w3.org/1999/xlink" x="0px" y="0px"
	 viewBox="0 0 792 612" enable-background="new 0 0 792 612" xml:space="preserve">
<g id="Layer_1_1_">
	<g id="File_x2C__general">
		<title>Sheet.1071</title>
	</g>
</g>
<g id="Access_control">
</g>
<g id="Azure_active_directory">
</g>
<g id="Folder">
	<path fill="#2A3282" d="M350.1,151.5h-71.4c-11.2,0-24.1,5.2-31.8,12.9l-18.1,18.1c-7.7,7.7-12.9,20.6-12.9,31.8v217.7
		c0,15.5,12.9,28.4,28.4,28.4H548c15.5,0,28.4-12.9,28.4-28.4V231.5c0-15.5-12.9-28.4-28.4-28.4H419.8c-1.7,0-6-2.6-7.7-4.3
		l-29.3-33.6l0,0l0,0C374.2,156.6,361.3,151.5,350.1,151.5L350.1,151.5z"/>
</g>
<g id="symbols">
</g>
</svg>
