<?xml version="1.0" encoding="utf-8"?>
<!-- Generator: Adobe Illustrator 18.1.0, SVG Export Plug-In . SVG Version: 6.00 Build 0)  -->
<!DOCTYPE svg PUBLIC "-//W3C//DTD SVG 1.0//EN" "http://www.w3.org/TR/2001/REC-SVG-20010904/DTD/svg10.dtd">
<svg version="1.0" id="Layer_1" xmlns="http://www.w3.org/2000/svg" xmlns:xlink="http://www.w3.org/1999/xlink" x="0px" y="0px"
	 viewBox="0 0 792 612" enable-background="new 0 0 792 612" xml:space="preserve">
<g id="Layer_1_1_">
	<g id="File_x2C__general">
		<title>Sheet.1071</title>
	</g>
</g>
<g id="Access_control">
</g>
<g id="Azure_active_directory">
</g>
<g>
	<path fill="#2A3282" d="M471.5,158.8H302.4c-19.7,0-36.1,16.3-36.1,36.1v196.6c0,19.7,16.3,36.1,36.1,36.1h187.1
		c19.7,0,36.1-16.3,36.1-36.1V212L471.5,158.8z M503.3,391.4c0,7.7-6,13.7-13.7,13.7H302.4c-7.7,0-13.7-6-13.7-13.7V194
		c0-7.7,6-13.7,13.7-13.7h157.9V224h42.9V391.4z"/>
	<path fill="#2A3282" d="M344.5,251.5v18c0,10.3-4.3,15.5-12,15.5v15.5c8.6,0,12,5.2,12,14.6v19.7c0,10.3,2.6,17.2,6.9,21.5
		c5.2,5.2,13.7,7.7,26.6,7.7v-15.5c-4.3,0-7.7-0.9-10.3-3.4c-1.7-1.7-2.6-6-2.6-11.2v-16.3c0-12.9-4.3-21.5-12-24.9l0,0
		c8.6-3.4,12-11.2,12-24v-17.2c0-9.4,4.3-13.7,12.9-13.7v-15.5c-12.9,0-21.5,2.6-26.6,7.7C347.1,233.5,344.5,241.2,344.5,251.5z"/>
	<path fill="#2A3282" d="M438.9,269.5v-18.9c0-10.3-2.6-17.2-6.9-22.3c-5.2-5.2-13.7-7.7-26.6-7.7V236c8.6,0,12.9,4.3,12.9,13.7
		v16.3c0,13.7,4.3,21.5,12,24.9l0,0c-8.6,3.4-12,11.2-12,24v17.2c0,5.2-0.9,8.6-2.6,11.2c-1.7,2.6-5.2,3.4-10.3,3.4v15.5
		c12.9,0,21.5-2.6,26.6-7.7c4.3-4.3,6.9-12,6.9-22.3v-18.9c0-10.3,4.3-15.5,12-15.5v-14.6C443.2,285,438.9,279.8,438.9,269.5z"/>
</g>
<g id="symbols">
</g>
</svg>
