<?xml version="1.0" encoding="utf-8"?>
<!-- Generator: Adobe Illustrator 18.1.0, SVG Export Plug-In . SVG Version: 6.00 Build 0)  -->
<!DOCTYPE svg PUBLIC "-//W3C//DTD SVG 1.0//EN" "http://www.w3.org/TR/2001/REC-SVG-20010904/DTD/svg10.dtd">
<svg version="1.0" id="Layer_1" xmlns="http://www.w3.org/2000/svg" xmlns:xlink="http://www.w3.org/1999/xlink" x="0px" y="0px"
	 viewBox="0 0 792 612" enable-background="new 0 0 792 612" xml:space="preserve">
<g id="Layer_1_1_">
	<g id="File_x2C__general">
		<title>Sheet.1071</title>
	</g>
</g>
<g id="Access_control">
</g>
<g id="Azure_active_directory">
</g>
<g id="Generic_code">
</g>
<g id="Graph">
	<g>
		<polygon fill="#2A3282" points="506,290.7 387.6,440.1 289.7,354.3 222.8,411.8 220.2,409.2 220.2,474.4 606.4,474.4 606.4,348.2 
					"/>
		<polygon fill="#2A3282" points="498.3,113.9 359.2,276.1 251.1,246.1 220.2,290.7 220.2,374 289.7,314.8 377.3,391.2 493.1,247 
			606.4,312.2 606.4,137.9 		"/>
		<polygon fill="#2A3282" points="203,491.6 203,96.7 185.9,96.7 185.9,491.6 185.9,494.2 185.9,508.8 606.4,508.8 606.4,491.6 		
			"/>
	</g>
	<polygon id="_x3C_Slice_x3E__2_" fill="none" points="185.9,508.8 185.9,96.7 606.4,96.7 606.4,508.8 	"/>
</g>
<g id="symbols">
</g>
</svg>
