<?xml version="1.0" encoding="utf-8"?>
<!-- Generator: Adobe Illustrator 18.1.0, SVG Export Plug-In . SVG Version: 6.00 Build 0)  -->
<!DOCTYPE svg PUBLIC "-//W3C//DTD SVG 1.0//EN" "http://www.w3.org/TR/2001/REC-SVG-20010904/DTD/svg10.dtd">
<svg version="1.0" xmlns="http://www.w3.org/2000/svg" xmlns:xlink="http://www.w3.org/1999/xlink" x="0px" y="0px"
	 viewBox="0 0 152 117.5" enable-background="new 0 0 152 117.5" xml:space="preserve">
<g id="Layer_1">
	<g id="Azure">
	</g>
	<g id="BizTalk_Services" transform="translate(37.3575,-2500.2)">
	</g>
</g>
<g id="paths">
	<g id="Access_control">
	</g>
	<g id="Azure_active_directory">
	</g>
	<g id="API_Management">
	</g>
	<g id="Azure_automation">
	</g>
	<g id="Azure_SQL_database">
	</g>
	<g id="Azure_subscription">
	</g>
	<g id="Backup_service">
	</g>
	<g id="Bitbucket_code_source">
	</g>
	<g id="Azure_cache">
	</g>
	<g id="Content_delivery_network__x28_CDN_x29_">
	</g>
	<g id="Cloud_service">
	</g>
	<g id="CodePlex">
	</g>
	<g id="Dropbox_code_source">
	</g>
	<g id="Express_route">
	</g>
	<g id="Git_repository">
	</g>
	<g id="GitHub_code">
	</g>
	<g id="HD_Insight">
	</g>
	<g id="Health_monitoring">
	</g>
	<g id="Healthy">
		<path fill="#0078D7" d="M93.2,44.1c-4-4.4-12.3-2.5-17.1,4.3c-6.1-7.3-13.3-8.7-17.3-4.3C47.5,56.3,71.6,73.9,76,75.9l0,0
			c0,0,0,0,0,0c0,0,0,0,0,0l0,0C80.4,73.9,104.5,56.3,93.2,44.1z M84.8,52.3l-9.6,12.3L69.1,58l-0.5-0.6c-0.1-0.2-0.1-0.4,0-0.5
			l1.6-1.5c0.1-0.1,0.2-0.1,0.3-0.1s0.2,0,0.3,0.1l4.3,4.7l7.5-9.6c0.1-0.1,0.2-0.1,0.3-0.1c0.1,0,0.2,0,0.2,0.1l1.7,1.3
			c0.1,0.1,0.1,0.2,0.1,0.3C84.9,52.1,84.9,52.2,84.8,52.3z"/>
	</g>
</g>
</svg>
