<?xml version="1.0" encoding="utf-8"?>
<!-- Generator: Adobe Illustrator 18.1.0, SVG Export Plug-In . SVG Version: 6.00 Build 0)  -->
<!DOCTYPE svg PUBLIC "-//W3C//DTD SVG 1.1//EN" "http://www.w3.org/Graphics/SVG/1.1/DTD/svg11.dtd">
<svg version="1.1" xmlns="http://www.w3.org/2000/svg" xmlns:xlink="http://www.w3.org/1999/xlink" x="0px" y="0px"
	 viewBox="0 0 254 196.3" enable-background="new 0 0 254 196.3" xml:space="preserve">
<g id="Layer_1">
</g>
<g id="paths">
	<g id="Healthy">
		<path fill="#00188F" d="M144.5,83.9c-4-4.4-12.3-2.5-17.1,4.3c-6.1-7.3-13.3-8.7-17.3-4.3c-11.2,12.2,12.9,29.8,17.2,31.8l0,0
			c0,0,0,0,0,0c0,0,0,0,0,0l0,0C131.6,113.7,155.7,96.1,144.5,83.9z M136.1,92.1l-9.6,12.3l-6.1-6.6l-0.5-0.6
			c-0.1-0.2-0.1-0.4,0-0.5l1.6-1.5c0.1-0.1,0.2-0.1,0.3-0.1c0.1,0,0.2,0,0.3,0.1l4.3,4.7l7.5-9.6c0.1-0.1,0.2-0.1,0.3-0.1
			c0.1,0,0.2,0,0.2,0.1l1.7,1.3c0.1,0.1,0.1,0.2,0.1,0.3C136.2,91.9,136.1,92,136.1,92.1z"/>
	</g>
</g>
</svg>
