<?xml version="1.0" encoding="utf-8"?>
<!-- Generator: Adobe Illustrator 18.1.0, SVG Export Plug-In . SVG Version: 6.00 Build 0)  -->
<!DOCTYPE svg PUBLIC "-//W3C//DTD SVG 1.0//EN" "http://www.w3.org/TR/2001/REC-SVG-20010904/DTD/svg10.dtd">
<svg version="1.0" id="Layer_1" xmlns="http://www.w3.org/2000/svg" xmlns:xlink="http://www.w3.org/1999/xlink" x="0px" y="0px"
	 viewBox="0 0 792 612" enable-background="new 0 0 792 612" xml:space="preserve">
<g id="Layer_1_1_">
	<g id="File_x2C__general">
		<title>Sheet.1071</title>
	</g>
</g>
<g id="paths">
	<g id="Access_control">
	</g>
	<g id="Azure_active_directory">
	</g>
	<g id="Generic_code">
	</g>
</g>
<g id="symbols">
</g>
<g id="Health_monitoring">
	<path fill="#3276BC" d="M518.9,201.3c-29.2-30.9-88.5-18-122.9,30.9c-43.8-52.4-95.4-61.9-124.6-30.9
		c-29.2,32.7-21.5,70.5-3.4,101.4l30.1-0.9h15.5l29.2-61c0.9-3.4,13.7-9.5,17.2-8.6c11.2,0,11.2,14.6,12,18.9l0.9,90.2l10.3-30.1
		c0.9-3.4,3.4-8.6,6.9-8.6l91.9-0.9c4.3,0,5.2,0.9,5.2,5.2c0,4.3,6,19.8,1.7,19.8h-82.5l-25.8,52.4c-2.6,4.3-13.7,5.2-16.3,5.2l0,0
		c-13.7-1.7-14.6-18.9-15.5-23.2l-0.9-73L335,322.4c-0.9,2.6-4.3,3.4-6.9,4.3h-21.5h-24.1c39.5,52.4,88.5,93.7,111.7,101.4l0,0l0,0
		l0,0l0,0C428.7,414.4,599.7,288.9,518.9,201.3z"/>
</g>
</svg>
