<?xml version="1.0" encoding="utf-8"?>
<!-- Generator: Adobe Illustrator 18.1.0, SVG Export Plug-In . SVG Version: 6.00 Build 0)  -->
<!DOCTYPE svg PUBLIC "-//W3C//DTD SVG 1.1//EN" "http://www.w3.org/Graphics/SVG/1.1/DTD/svg11.dtd">
<svg version="1.1" id="Layer_1" xmlns="http://www.w3.org/2000/svg" xmlns:xlink="http://www.w3.org/1999/xlink" x="0px" y="0px"
	 viewBox="0 0 250.3 193.4" enable-background="new 0 0 250.3 193.4" xml:space="preserve">
<path fill="#00188F" d="M133.9,78.5h-19c-2.2,0-4,1.8-4,4v28.3c0,2.2,1.8,4,4,4h21c2.2,0,4-1.8,4-4V84.4L133.9,78.5z M137.5,110.8
	c0,0.9-0.7,1.6-1.6,1.6h-21c-0.9,0-1.6-0.7-1.6-1.6v-9.6h10.2v3.5l9.4-7l-9.4-7v4.1h-10.2V82.5c0-0.9,0.7-1.6,1.6-1.6h17.7v5h4.9
	V110.8L137.5,110.8z">
<v:paragraph  v:horizAlign="1"></v:paragraph>
	<v:tabList></v:tabList>
</path>
</svg>
