<?xml version="1.0" encoding="utf-8"?>
<!-- Generator: Adobe Illustrator 18.1.0, SVG Export Plug-In . SVG Version: 6.00 Build 0)  -->
<!DOCTYPE svg PUBLIC "-//W3C//DTD SVG 1.1//EN" "http://www.w3.org/Graphics/SVG/1.1/DTD/svg11.dtd">
<svg version="1.1" xmlns="http://www.w3.org/2000/svg" xmlns:xlink="http://www.w3.org/1999/xlink" x="0px" y="0px"
	 viewBox="0 0 257.7 199.1" enable-background="new 0 0 257.7 199.1" xml:space="preserve">
<g id="Layer_1">
</g>
<g id="paths">
	<g id="Internet">
		<g id="XMLID_1_">
			<g>
			</g>
			<g>
				<path fill="none" stroke="#00188F" stroke-miterlimit="10" d="M153,118.4h-45.5c-5.3,0-9.6-4.8-9.6-10.6
					c0-5.8,4.3-10.6,9.6-10.6c0.4,0,0.7,0,1.1,0.1c1.6-2.8,4.3-4.5,7.3-4.5c0.8,0,1.6,0.1,2.4,0.4c0-0.1,0-0.3,0-0.4
					c0-6.9,5-12.4,11.2-12.4c4.3,0,8.3,2.8,10.1,7.2c1.6-1,3.4-1.6,5.3-1.6c6,0,10.8,5.4,10.8,12c0,0.7-0.1,1.3-0.2,2
					c3.2,1.5,5.3,4.9,5.3,8.8c0,4.5-2.8,8.3-6.6,9.3L153,118.4z"/>
			</g>
		</g>
	</g>
</g>
</svg>
