<?xml version="1.0" encoding="utf-8"?>
<!-- Generator: Adobe Illustrator 18.1.0, SVG Export Plug-In . SVG Version: 6.00 Build 0)  -->
<!DOCTYPE svg PUBLIC "-//W3C//DTD SVG 1.0//EN" "http://www.w3.org/TR/2001/REC-SVG-20010904/DTD/svg10.dtd">
<svg version="1.0" id="Layer_1" xmlns="http://www.w3.org/2000/svg" xmlns:xlink="http://www.w3.org/1999/xlink" x="0px" y="0px"
	 viewBox="0 0 792 612" enable-background="new 0 0 792 612" xml:space="preserve">
<g id="Layer_1_1_">
	<g id="File_x2C__general">
		<title>Sheet.1071</title>
	</g>
</g>
<g id="Access_control">
</g>
<g id="Azure_active_directory">
</g>
<g id="Generic_code">
</g>
<g id="Internet_2">
	<g id="XMLID_1_">
		<g>
			<path fill="#00188F" d="M621,310.6c27.5,12.9,45.5,42.1,45.5,75.5c0,38.6-24,71.2-56.7,79.8l-11.2,2.6H208.2
				c-45.5,0-82.4-41.2-82.4-91s36.9-91,82.4-91c3.4,0,6,0,9.4,0.9c13.7-24,36.9-37.8,62.7-37.8c6.9,0,13.7,0.9,20.6,3.4
				c0-0.9,0-2.6,0-3.4c0-59.2,42.9-106.4,96.1-106.4c36.9,0,71.2,24.9,86.7,61.8c13.7-8.6,29.2-13.7,45.5-13.7
				c51.5,0,92.7,46.4,92.7,103C622.7,299.5,621.9,304.6,621,310.6z"/>
		</g>
		<g>
		</g>
	</g>
</g>
<g id="symbols">
</g>
<g id="slices">
</g>
</svg>
