<?xml version="1.0" encoding="utf-8"?>
<!-- Generator: Adobe Illustrator 18.1.0, SVG Export Plug-In . SVG Version: 6.00 Build 0)  -->
<!DOCTYPE svg PUBLIC "-//W3C//DTD SVG 1.1//EN" "http://www.w3.org/Graphics/SVG/1.1/DTD/svg11.dtd">
<svg version="1.1"
	 id="Layer_1" xmlns:v="http://schemas.microsoft.com/visio/2003/SVGExtensions/" xmlns:ev="http://www.w3.org/2001/xml-events"
	 xmlns="http://www.w3.org/2000/svg" xmlns:xlink="http://www.w3.org/1999/xlink" x="0px" y="0px" viewBox="-417 223.6 128.5 167.4"
	 enable-background="new -417 223.6 128.5 167.4" xml:space="preserve">
<v:documentProperties  v:viewMarkup="false" v:langID="1033"></v:documentProperties>
<g>
	<path fill="#00188F" d="M-344.7,310.7c-1.5-0.8-2.3-2-2.3-3.7c0-1.4,0.6-2.6,1.7-3.4l0.1,0c-0.7-0.9-1.7-1.8-3.2-1.8
		c-1.1,0-1.9,1.1-3.4,1.1c-1.2,0-1.6-1-2.9-1c-2.6,0-5.2,2.3-5.2,5.4c0,1.6,0.5,4.1,1.7,6.3c0.9,1.6,1.9,2.6,3.1,2.6
		c0.9,0,1.9-0.9,3.1-0.9c1.1,0,2,0.8,3,0.8c2.3,0,4.4-3,4.4-5c0-0.1,0-0.2,0-0.3V310.7z"/>
	<g>
		<path fill="#00188F" d="M-341.2,285.4h-22.2c-1.5,0-2.7,1.3-2.7,2.8v39.4c0,1.5,1.6,2.8,3.1,2.8h21.5c1.5,0,3.1-1,3.1-2.8v-39.4
			C-338.5,286.7-339.7,285.4-341.2,285.4z M-354.9,288.5h5.1v1h-5.1V288.5z M-352.3,328.4c-1,0-1.8-0.8-1.8-1.8c0-1,0.8-1.8,1.8-1.8
			c1,0,1.8,0.8,1.8,1.8C-350.5,327.6-351.3,328.4-352.3,328.4z M-341.6,323.2h-21.5v-32.7h21.5V323.2z"/>
	</g>
	<g id="shape8-14" transform="translate(10.4258,-21.0293)">
		<title>Sheet.8</title>
		<path fill="#00188F" d="M-359,317.9c-1.7,0.5-3.3,1.8-3.3,4c0,0.2,0.1,0.4,0.1,0.7v0.1c1.7-0.5,3.2-1.8,3.2-4.1c0-0.2,0-0.4,0-0.7
			L-359,317.9z"/>
	</g>
</g>
</svg>
