<?xml version="1.0" encoding="utf-8"?>
<!-- Generator: Adobe Illustrator 18.1.0, SVG Export Plug-In . SVG Version: 6.00 Build 0)  -->
<!DOCTYPE svg PUBLIC "-//W3C//DTD SVG 1.0//EN" "http://www.w3.org/TR/2001/REC-SVG-20010904/DTD/svg10.dtd">
<svg version="1.0" id="Layer_1" xmlns="http://www.w3.org/2000/svg" xmlns:xlink="http://www.w3.org/1999/xlink" x="0px" y="0px"
	 viewBox="0 0 792 612" enable-background="new 0 0 792 612" xml:space="preserve">
<g id="Layer_1_1_">
	<g id="File_x2C__general">
		<title>Sheet.1071</title>
	</g>
</g>
<g id="Access_control">
</g>
<g id="Azure_active_directory">
</g>
<g id="Generic_code">
</g>
<g id="Key_x2C__permissions">
	<g id="shape2242-4_2_" transform="translate(1.50075,-1.50075)">
		<title>Sheet.2242</title>
		<path fill="#2A3282" d="M455.7,152.9H334.5c-11.1,0-20.5,9.4-20.5,20.5v84.5c0,11.1,9.4,19.6,21.3,19.6h23.9v151.1
			c0,19.6,12,33.3,29,33.3c15.4,0,27.3-12,29-28.2c4.3-0.9,7.7-0.9,7.7-0.9s0.9-15.4,0-20.5c-0.9-5.1,9.4-11.1,9.4-11.1
			s0.9-8.5,0-9.4c-9.4-4.3-14.5-8.5-17.1-12v-10.2c2.6-3.4,6-6,7.7-7.7c3.4-4.3,11.1-16.2,11.1-16.2s-8.5-12-11.1-14.5
			c-4.3-5.1-6.8-10.2-7.7-14.5v-7.7c2.6-17.1,22.2-31.6,22.2-31.6h-22.2l0,0h39.3c10.2,0,19.6-8.5,19.6-19.6v-84.5
			C475.3,162.2,466.8,152.9,455.7,152.9z M385.7,432.9c0,5.1-0.9,11.1-6.8,11.1c-6,0-6.8-6-6.8-11.1v-140c0-5.1,1.7-11.1,6.8-11.1
			s6.8,6,6.8,11.1V432.9z M395.1,204.1c-10.2,0-18.8-8.5-18.8-18.8c0-10.2,8.5-18.8,18.8-18.8c10.2,0,18.8,8.5,18.8,18.8
			C413.9,195.5,405.3,204.1,395.1,204.1z"/>
	</g>
</g>
<g id="symbols">
</g>
<g id="slices">
</g>
</svg>
