<?xml version="1.0" encoding="utf-8"?>
<!-- Generator: Adobe Illustrator 18.1.0, SVG Export Plug-In . SVG Version: 6.00 Build 0)  -->
<!DOCTYPE svg PUBLIC "-//W3C//DTD SVG 1.0//EN" "http://www.w3.org/TR/2001/REC-SVG-20010904/DTD/svg10.dtd">
<svg version="1.0" id="Layer_1" xmlns="http://www.w3.org/2000/svg" xmlns:xlink="http://www.w3.org/1999/xlink" x="0px" y="0px"
	 viewBox="0 0 792 612" enable-background="new 0 0 792 612" xml:space="preserve">
<g id="Layer_1_1_">
	<g id="File_x2C__general">
		<title>Sheet.1071</title>
	</g>
</g>
<g id="Access_control">
</g>
<g id="Azure_active_directory">
</g>
<g id="Generic_code">
</g>
<g id="Laptop">
	<path fill="#2A3282" d="M579.7,383.7c0-189.7,0-189.7,0-189.7c0-9.4-8.6-24.9-18.9-24.9c-23.2,0-328.7,0-328.7,0
		c-10.3,0-20.6,15.5-20.6,24.9c0,189.7,0,189.7,0,189.7c-36.9,39.5-35.2,39.5-35.2,39.5c0,11.2,10.3,19.7,23.2,19.7
		c394,0,394,0,394,0c12.9,0,23.2-9.4,23.2-19.7L579.7,383.7L579.7,383.7L579.7,383.7z M426.9,426.6c-68.7,0-68.7,0-68.7,0
		c-3.4,0-6.9-1.7-6.9-3.4c7.7-12.9,7.7-12.9,7.7-12.9c0-1.7,2.6-2.6,6-2.6c54.9,0,54.9,0,54.9,0c2.6,0,5.2,0.9,5.2,2.6
		c8.6,12.9,8.6,12.9,8.6,12.9C433.8,425.7,430.3,426.6,426.9,426.6L426.9,426.6z M563.4,382.8c-338.2,0-335.6,0-335.6,0
		c0-187.1,0-187.1,0-187.1c0-4.3,4.3-10.3,9.4-10.3c319.3,0,317.6,0,317.6,0c5.2,0,8.6,6,8.6,10.3V382.8L563.4,382.8L563.4,382.8
		L563.4,382.8z"/>
</g>
<g id="symbols">
</g>
<g id="slices">
</g>
</svg>
