<?xml version="1.0" encoding="utf-8"?>
<!-- Generator: Adobe Illustrator 18.1.0, SVG Export Plug-In . SVG Version: 6.00 Build 0)  -->
<!DOCTYPE svg PUBLIC "-//W3C//DTD SVG 1.0//EN" "http://www.w3.org/TR/2001/REC-SVG-20010904/DTD/svg10.dtd">
<svg version="1.0" id="Layer_1" xmlns="http://www.w3.org/2000/svg" xmlns:xlink="http://www.w3.org/1999/xlink" x="0px" y="0px"
	 viewBox="0 0 792 612" enable-background="new 0 0 792 612" xml:space="preserve">
<g id="Layer_1_1_">
	<g id="File_x2C__general">
		<title>Sheet.1071</title>
	</g>
</g>
<g id="Access_control">
</g>
<g id="Azure_active_directory">
</g>
<g id="Generic_code">
</g>
<g id="Laptop">
</g>
<path fill="#2A3282" d="M541.9,294.4c-6.9,0-12.9,6-12.9,12.9v48.1L408,233.5v-62.7c16.3-5.2,28.3-20.6,28.3-38.6
	c0-22.3-18-41.2-41.2-41.2c-22.3,0-41.2,18-41.2,41.2c0,18,12,33.5,28.3,38.6v62.7L263,351.9v-44.6c0-6.9-6-12.9-12.9-12.9
	s-12.9,6-12.9,12.9v89.3h89.3c6.9,0,12.9-6,12.9-12.9s-6-12.9-12.9-12.9H281l101.3-101.3v201.7l-32.6-32.6c-5.2-5.2-12.9-5.2-18,0
	c-2.6,2.6-3.4,6-3.4,9.4s0.9,6.9,3.4,9.4l62.7,62.7l62.7-62.7c5.2-5.2,5.2-12.9,0-18s-12.9-5.2-18,0L408,470.4V269.5l100.4,100.4
	h-42.1c-6.9,0-12.9,6-12.9,12.9s6,12.9,12.9,12.9h89.3v-88.4C554.8,299.6,548.8,294.4,541.9,294.4z"/>
<g id="symbols">
</g>
<g id="slices">
</g>
</svg>
