<?xml version="1.0" encoding="utf-8"?>
<!-- Generator: Adobe Illustrator 18.1.0, SVG Export Plug-In . SVG Version: 6.00 Build 0)  -->
<!DOCTYPE svg PUBLIC "-//W3C//DTD SVG 1.0//EN" "http://www.w3.org/TR/2001/REC-SVG-20010904/DTD/svg10.dtd">
<svg version="1.0" id="Layer_1" xmlns="http://www.w3.org/2000/svg" xmlns:xlink="http://www.w3.org/1999/xlink" x="0px" y="0px"
	 viewBox="0 0 792 612" enable-background="new 0 0 792 612" xml:space="preserve">
<g id="Layer_1_1_">
	<g id="File_x2C__general">
		<title>Sheet.1071</title>
	</g>
</g>
<g id="Access_control">
</g>
<g id="Azure_active_directory">
</g>
<g id="Generic_code">
</g>
<g id="Laptop">
</g>
<g id="Load_balancer">
</g>
<path fill="#2A3282" d="M504.2,272.1h-16.3v-30c0-63.5-40.3-96.1-87.6-96.1h-7.7c-48.1,0-87.6,31.8-87.6,96.1v30h-16.3
	c-6.9,0-16.3,9.4-16.3,16.3v161.4c0,6.9,9.4,16.3,16.3,16.3h215.4c6.9,0,16.3-9.4,16.3-16.3V288.4
	C519.6,281.5,510.2,272.1,504.2,272.1z M408,367.4v67h-24v-67c-9.4-4.3-16.3-13.7-16.3-24.9c0-15.5,12.9-28.3,28.3-28.3
	c15.5,0,28.3,12.9,28.3,28.3C424.3,352.8,417.5,362.2,408,367.4z M457.8,272.1H335.1v-30c0-40.3,21.5-67.8,57.5-67.8h7.7
	c36.9,0,57.5,27.5,57.5,67.8L457.8,272.1L457.8,272.1z"/>
<g id="symbols">
</g>
<g id="slices">
</g>
</svg>
