<?xml version="1.0" encoding="utf-8"?>
<!-- Generator: Adobe Illustrator 18.1.0, SVG Export Plug-In . SVG Version: 6.00 Build 0)  -->
<!DOCTYPE svg PUBLIC "-//W3C//DTD SVG 1.0//EN" "http://www.w3.org/TR/2001/REC-SVG-20010904/DTD/svg10.dtd">
<svg version="1.0" id="Layer_1" xmlns="http://www.w3.org/2000/svg" xmlns:xlink="http://www.w3.org/1999/xlink" x="0px" y="0px"
	 viewBox="0 0 792 612" enable-background="new 0 0 792 612" xml:space="preserve">
<g id="File_x2C__general">
	<title>Sheet.1071</title>
</g>
<g id="Maintenance">
	<g>
		<path fill="#2A3282" d="M530.9,90.5c-6.9-6.9-13.7-12-22.3-16.3l-9.4,4.3v77.3v0.9c-4.3,13.7-18.9,24-34.3,24.9l0,0l0,0
			c-15.5,0-29.2-10.3-34.3-24v-1.7V77.6l-9.4-3.4c-7.7,4.3-15.5,9.4-22.3,16.3c-37.8,37.8-37.8,97.9,0,135.6c6,6,11.2,11.2,18,15.5
			c0,0,3.4,1.7,5.2,3.4v5.2V499c0,23.2,20.6,42.9,43.8,42.9s42.1-19.7,42.1-42.9V244.1c9.4-4.3,16.3-10.3,23.2-18
			C568.7,188.3,568.7,128.2,530.9,90.5z M464.8,516.2c-9.4,0-17.2-7.7-17.2-17.2s7.7-17.2,17.2-17.2c9.4,0,17.2,7.7,17.2,17.2
			S474.3,516.2,464.8,516.2z"/>
		<g>
			<path fill="#2A3282" d="M233.1,529.1c0,6.9,6,12.9,12.9,12.9h30h8.6h12.9c6.9,0,12.9-6,12.9-12.9V413.2h-77.3V529.1z"/>
			<path fill="#2A3282" d="M297.4,344.5h-12.9V172.9l8.6-42.9V69.9h-42.9v60.1l8.6,42.9v171.7h-12.9c-6.9,0-12.9,6.9-12.9,13.7V396
				h77.3v-37.8C310.3,351.4,304.3,344.5,297.4,344.5z"/>
		</g>
	</g>
</g>
<g id="paths">
	<g id="Access_control">
	</g>
	<g id="Azure_active_directory">
	</g>
	<g id="Generic_code">
	</g>
	<g id="Laptop">
	</g>
	<g id="Load_balancer">
	</g>
	<g id="Lock_x2C__protected">
	</g>
</g>
<g id="symbols">
</g>
<g id="slices">
</g>
</svg>
