<?xml version="1.0" encoding="utf-8"?>
<!-- Generator: Adobe Illustrator 18.1.0, SVG Export Plug-In . SVG Version: 6.00 Build 0)  -->
<!DOCTYPE svg PUBLIC "-//W3C//DTD SVG 1.0//EN" "http://www.w3.org/TR/2001/REC-SVG-20010904/DTD/svg10.dtd">
<svg version="1.0" xmlns="http://www.w3.org/2000/svg" xmlns:xlink="http://www.w3.org/1999/xlink" x="0px" y="0px"
	 viewBox="0 0 71.2 71.3" enable-background="new 0 0 71.2 71.3" xml:space="preserve">
<g id="Layer_1">
	<g id="File_x2C__general">
		<title>Sheet.1071</title>
	</g>
	<g id="Message">
		<title>Sheet.1154</title>
		<path fill="#2A3282" d="M50.6,22.8h-30c-0.9,0-1.7,0.8-1.7,1.7v22.3c0,0.9,0.8,1.7,1.7,1.7h30c0.9,0,1.7-0.8,1.7-1.7V24.5
			C52.3,23.5,51.5,22.8,50.6,22.8z M48.1,26.2L35.4,36l-12.6-9.9H48.1z M22.4,45.1V30.2l12,9.3c0.3,0.3,0.7,0.4,1.1,0.4
			c0.4,0,0.7-0.1,1.1-0.4l12.5-9.7v15.2H22.4L22.4,45.1z"/>
	</g>
</g>
<g id="paths">
	<g id="Access_control">
	</g>
	<g id="Azure_active_directory">
	</g>
	<g id="Generic_code">
	</g>
	<g id="Laptop">
	</g>
	<g id="Load_balancer">
	</g>
	<g id="Lock_x2C__protected">
	</g>
</g>
<g id="symbols">
</g>
<g id="slices">
</g>
</svg>
