<?xml version="1.0" encoding="utf-8"?>
<!-- Generator: Adobe Illustrator 18.1.0, SVG Export Plug-In . SVG Version: 6.00 Build 0)  -->
<!DOCTYPE svg PUBLIC "-//W3C//DTD SVG 1.0//EN" "http://www.w3.org/TR/2001/REC-SVG-20010904/DTD/svg10.dtd">
<svg version="1.0" xmlns="http://www.w3.org/2000/svg" xmlns:xlink="http://www.w3.org/1999/xlink" x="0px" y="0px"
	 viewBox="0 0 71.2 71.3" enable-background="new 0 0 71.2 71.3" xml:space="preserve">
<g id="Layer_1">
	<g id="File_x2C__general">
		<title>Sheet.1071</title>
	</g>
	<g id="Message">
	</g>
	<g id="Monitor">
	</g>
	<g id="Monitor_running_apps">
		<g>
			<path fill-rule="evenodd" clip-rule="evenodd" fill="#2A3282" d="M28.7,18.6c-8.8,0-15.9,7.1-15.9,15.9c0,8.8,7.1,15.9,15.9,15.9
				c8.8,0,15.9-7.1,15.9-15.9C44.6,25.7,37.5,18.6,28.7,18.6z M28.7,47.4c-7.1,0-12.8-5.8-12.8-13c0-7.1,5.8-12.9,12.9-12.9
				c7.1,0,12.9,5.8,12.9,12.9C41.6,41.6,35.8,47.4,28.7,47.4z"/>
			<path fill-rule="evenodd" clip-rule="evenodd" fill="#2A3282" d="M64.8,9.6H22.4c-0.1,0-0.1,0-0.2,0c-0.9,0.1-1.6,0.8-1.6,1.8
				v7.2c1.3-0.6,2.6-1.1,4-1.5v-3.5h38v25H46.1c-0.3,1.4-0.8,2.7-1.5,4h20.2c1,0,1.8-0.8,1.8-1.8V11.4C66.6,10.4,65.8,9.6,64.8,9.6z
				"/>
			<g>
				<g>
					<path fill-rule="evenodd" clip-rule="evenodd" fill="#2A3282" d="M18.1,45.1c-0.6-0.6-1.5-0.6-2.1,0l-1.1,1.1
						c-0.8-0.1-1.5,0.1-2.1,0.7l-7.3,7.3c-1,1-1,2.6,0,3.6c1,1,2.6,1,3.6,0l7.3-7.3c0.6-0.6,0.8-1.4,0.7-2.1l1.1-1.1
						C18.7,46.7,18.7,45.7,18.1,45.1z"/>
				</g>
			</g>
			<path fill="#2A3282" d="M57.9,27.7l-2.6-5.3l-4.7,4.7l-4.8-9.6l-3.9,5.9c0.4,0.4,0.7,0.9,1.1,1.3l2.6-3.9l4.6,9.1l4.7-4.7
				l2.1,4.1h2.9v-1.6H57.9z"/>
			<path fill="#2A3282" d="M37.8,27.4l-5.9,9.4L25.5,28l-4.8,7.3h-3.5c0,1,0.4,1.9,0.7,2.8h4.2l3.5-5.3l6.3,9l7.4-11.7
				C39,29.2,38.5,28.2,37.8,27.4z"/>
		</g>
	</g>
</g>
<g id="paths">
	<g id="Access_control">
	</g>
	<g id="Azure_active_directory">
	</g>
	<g id="Generic_code">
	</g>
	<g id="Laptop">
	</g>
	<g id="Load_balancer">
	</g>
	<g id="Lock_x2C__protected">
	</g>
</g>
<g id="symbols">
</g>
<g id="slices">
</g>
</svg>
