<?xml version="1.0" encoding="utf-8"?>
<!-- Generator: Adobe Illustrator 18.1.0, SVG Export Plug-In . SVG Version: 6.00 Build 0)  -->
<!DOCTYPE svg PUBLIC "-//W3C//DTD SVG 1.0//EN" "http://www.w3.org/TR/2001/REC-SVG-20010904/DTD/svg10.dtd">
<svg version="1.0" xmlns="http://www.w3.org/2000/svg" xmlns:xlink="http://www.w3.org/1999/xlink" x="0px" y="0px"
	 viewBox="0 0 71.2 71.3" enable-background="new 0 0 71.2 71.3" xml:space="preserve">
<g id="Layer_1">
	<g id="File_x2C__general">
		<title>Sheet.1071</title>
	</g>
	<g id="Message">
	</g>
	<g id="Monitor">
		<g id="shape952-1942_1_" transform="translate(43.917,-3621.38)">
			<path fill="#2A3282" d="M9.3,3638.5h-35.4c-1.2,0-2.2,1.1-2.2,2.3v24.8c0,1.2,1,2,2.2,2H-14c1.3,4.6-0.5,5.6-8.1,5.6v2.4h9.8h7.1
				H5.7v-2.4c-7.7,0-10.1-1-8.8-5.6H9.3c1.2,0,2.4-0.8,2.4-2v-24.8C11.7,3639.6,10.5,3638.5,9.3,3638.5z M8.7,3641.5v23h-34v-23H8.7
				L8.7,3641.5z"/>
		</g>
	</g>
</g>
<g id="paths">
	<g id="Access_control">
	</g>
	<g id="Azure_active_directory">
	</g>
	<g id="Generic_code">
	</g>
	<g id="Laptop">
	</g>
	<g id="Load_balancer">
	</g>
	<g id="Lock_x2C__protected">
	</g>
</g>
<g id="symbols">
</g>
<g id="slices">
</g>
</svg>
