<?xml version="1.0" encoding="utf-8"?>
<!-- Generator: Adobe Illustrator 18.1.0, SVG Export Plug-In . SVG Version: 6.00 Build 0)  -->
<!DOCTYPE svg PUBLIC "-//W3C//DTD SVG 1.0//EN" "http://www.w3.org/TR/2001/REC-SVG-20010904/DTD/svg10.dtd">
<svg version="1.0" xmlns="http://www.w3.org/2000/svg" xmlns:xlink="http://www.w3.org/1999/xlink" x="0px" y="0px"
	 viewBox="0 0 71.2 71.3" enable-background="new 0 0 71.2 71.3" xml:space="preserve">
<g id="Layer_1">
	<g id="File_x2C__general">
		<title>Sheet.1071</title>
	</g>
	<g id="Message">
	</g>
	<g id="Monitor">
	</g>
	<g id="Monitor_running_apps">
	</g>
	<g id="Mouse">
		<g>
			<path fill="#2A3282" d="M36.4,19c1.6,0,2.9,1.3,2.9,2.9v5.8c0,1.6-1.3,2.9-2.9,2.9v4.1h11.8v-7c0-6.4-2.9-13-11.8-13V19z"/>
			<path fill="#2A3282" d="M33.4,21.9v5.8c0,0.8,0.7,1.4,1.5,1.4h1.5l0,0v0c0.8,0,1.5-0.7,1.5-1.4v-5.8c0-0.8-0.7-1.4-1.5-1.4h-1.5
				C34.1,20.4,33.4,21.1,33.4,21.9z"/>
			<path fill="#2A3282" d="M23.1,36.6v8.4c0,6.5,4.4,11.6,11.8,11.6h1.5c7.4,0,11.8-5.1,11.8-11.6v-8.4H23.1z"/>
			<path fill="#2A3282" d="M34.9,34.6v-4.1c-1.6,0-2.9-1.3-2.9-2.9v-5.8c0-1.6,1.3-2.9,2.9-2.9v-4.3c-8.8,0-11.8,6.5-11.8,13v7H34.9
				z"/>
		</g>
	</g>
</g>
<g id="paths">
	<g id="Access_control">
	</g>
	<g id="Azure_active_directory">
	</g>
	<g id="Generic_code">
	</g>
	<g id="Laptop">
	</g>
	<g id="Load_balancer">
	</g>
	<g id="Lock_x2C__protected">
	</g>
</g>
<g id="symbols">
</g>
<g id="slices">
</g>
</svg>
