<?xml version="1.0" encoding="utf-8"?>
<!-- Generator: Adobe Illustrator 18.1.0, SVG Export Plug-In . SVG Version: 6.00 Build 0)  -->
<!DOCTYPE svg PUBLIC "-//W3C//DTD SVG 1.0//EN" "http://www.w3.org/TR/2001/REC-SVG-20010904/DTD/svg10.dtd">
<svg version="1.0" xmlns="http://www.w3.org/2000/svg" xmlns:xlink="http://www.w3.org/1999/xlink" x="0px" y="0px"
	 viewBox="0 0 71.2 71.3" enable-background="new 0 0 71.2 71.3" xml:space="preserve">
<g id="Layer_1">
	<g id="File_x2C__general">
		<title>Sheet.1071</title>
	</g>
	<g id="Message">
	</g>
	<g id="Monitor">
	</g>
	<g id="Monitor_running_apps">
	</g>
	<g id="Mouse">
	</g>
	<g id="Network_card">
	</g>
	<g id="Not_allowed">
		<path fill="#E91C24" d="M34,18.1c-9.7,0-17.5,7.9-17.5,17.5c0,9.7,7.8,17.5,17.5,17.5c9.6,0,17.5-7.8,17.5-17.5
			C51.5,26,43.7,18.1,34,18.1z M20.6,35.6c0-2.9,1-5.7,2.6-7.9l18.7,18.7C39.7,48.1,37,49,34,49C26.6,49,20.6,43,20.6,35.6z
			 M44.8,43.5L26.1,24.8c2.2-1.6,4.9-2.6,7.9-2.6c7.4,0,13.4,6,13.4,13.4C47.4,38.6,46.4,41.3,44.8,43.5z"/>
	</g>
</g>
<g id="paths">
	<g id="Access_control">
	</g>
	<g id="Azure_active_directory">
	</g>
	<g id="Generic_code">
	</g>
	<g id="Laptop">
	</g>
	<g id="Load_balancer">
	</g>
	<g id="Lock_x2C__protected">
	</g>
</g>
<g id="symbols">
</g>
<g id="slices">
</g>
</svg>
