<?xml version="1.0" encoding="utf-8"?>
<!-- Generator: Adobe Illustrator 18.1.0, SVG Export Plug-In . SVG Version: 6.00 Build 0)  -->
<!DOCTYPE svg PUBLIC "-//W3C//DTD SVG 1.0//EN" "http://www.w3.org/TR/2001/REC-SVG-20010904/DTD/svg10.dtd">
<svg version="1.0" xmlns="http://www.w3.org/2000/svg" xmlns:xlink="http://www.w3.org/1999/xlink" x="0px" y="0px"
	 viewBox="0 0 71.2 71.3" enable-background="new 0 0 71.2 71.3" xml:space="preserve">
<g id="Layer_1">
	<g id="File_x2C__general">
		<title>Sheet.1071</title>
	</g>
	<g id="Message">
	</g>
	<g id="Monitor">
	</g>
	<g id="Monitor_running_apps">
	</g>
	<g id="Mouse">
	</g>
	<g id="Network_card">
	</g>
	<g id="Not_allowed">
	</g>
	<g id="Performance">
		<g>
			<path fill="#2A3282" d="M35.6,21.4c-7.8,0-14.2,6.4-14.2,14.2c0,7.8,6.4,14.2,14.2,14.2c7.8,0,14.2-6.4,14.2-14.2
				C49.8,27.8,43.5,21.4,35.6,21.4z M40.2,35.2c0,2.5-2,4.6-4.6,4.6s-4.6-2-4.6-4.6c0-2.5,2-4.6,4.6-4.6c1.4,0,2.6,0.6,3.4,1.6
				c0,0,0,0,0,0l8.7-3.4l0.6,1.4l-8.3,4.6C40.2,35,40.2,35.1,40.2,35.2z"/>
			<path fill="#2A3282" d="M35.6,14.6c-11.6,0-21,9.4-21,21c0,11.6,9.4,21,21,21c11.6,0,21-9.4,21-21C56.6,24,47.2,14.6,35.6,14.6z
				 M35.6,53c-9.6,0-17.3-7.8-17.3-17.3c0-9.6,7.8-17.3,17.3-17.3c9.6,0,17.3,7.8,17.3,17.3C53,45.2,45.2,53,35.6,53z"/>
		</g>
	</g>
</g>
<g id="paths">
	<g id="Access_control">
	</g>
	<g id="Azure_active_directory">
	</g>
	<g id="Generic_code">
	</g>
	<g id="Laptop">
	</g>
	<g id="Load_balancer">
	</g>
	<g id="Lock_x2C__protected">
	</g>
</g>
<g id="symbols">
</g>
<g id="slices">
</g>
</svg>
