<?xml version="1.0" encoding="utf-8"?>
<!-- Generator: Adobe Illustrator 18.1.0, SVG Export Plug-In . SVG Version: 6.00 Build 0)  -->
<!DOCTYPE svg PUBLIC "-//W3C//DTD SVG 1.0//EN" "http://www.w3.org/TR/2001/REC-SVG-20010904/DTD/svg10.dtd">
<svg version="1.0" xmlns="http://www.w3.org/2000/svg" xmlns:xlink="http://www.w3.org/1999/xlink" x="0px" y="0px"
	 viewBox="0 0 71.2 71.3" enable-background="new 0 0 71.2 71.3" xml:space="preserve">
<symbol  id="Monitor_running_apps_1_" viewBox="-31 -24.5 62 49">
	<g>
		<path fill-rule="evenodd" clip-rule="evenodd" fill="#2A3282" d="M-6.9,15.5c-8.8,0-15.9-7.1-15.9-15.9c0-8.8,7.1-15.9,15.9-15.9
			C1.9-16.3,9-9.2,9-0.4C9,8.4,1.9,15.5-6.9,15.5z M-7-13.3c-7.1,0-12.8,5.8-12.8,13c0,7.1,5.8,12.9,12.9,12.9C0.2,12.5,6,6.8,6-0.4
			C6-7.5,0.2-13.3-7-13.3z"/>
		<path fill-rule="evenodd" clip-rule="evenodd" fill="#2A3282" d="M29.2,24.5h-42.5c-0.1,0-0.1,0-0.2,0c-0.9-0.1-1.6-0.8-1.6-1.8
			v-7.2c1.3,0.6,2.6,1.1,4,1.5v3.5h38v-25H10.5c-0.3-1.4-0.8-2.7-1.5-4h20.2c1,0,1.8,0.8,1.8,1.8v29.4C31,23.7,30.2,24.5,29.2,24.5z
			"/>
		<g>
			<g>
				<path fill-rule="evenodd" clip-rule="evenodd" fill="#2A3282" d="M-17.6-11c-0.6,0.6-1.5,0.6-2.1,0l-1.1-1.1
					c-0.8,0.1-1.5-0.1-2.1-0.7l-7.3-7.3c-1-1-1-2.6,0-3.6c1-1,2.6-1,3.6,0l7.3,7.3c0.6,0.6,0.8,1.4,0.7,2.1l1.1,1.1
					C-17-12.6-17-11.6-17.6-11z"/>
			</g>
		</g>
		<path fill="#2A3282" d="M22.2,6.4l-2.6,5.3L14.9,7l-4.8,9.6l-3.9-5.9C6.6,10.3,7,9.9,7.3,9.4l2.6,3.9l4.6-9.1l4.7,4.7l2.1-4.1h2.9
			v1.6H22.2z"/>
		<path fill="#2A3282" d="M2.2,6.7l-5.9-9.4l-6.3,8.8l-4.8-7.3h-3.5c0-1,0.4-1.9,0.7-2.8h4.2l3.5,5.3l6.3-9L3.8,3.9
			C3.4,4.9,2.8,5.9,2.2,6.7z"/>
	</g>
</symbol>
<g id="Layer_1">
	<g id="File_x2C__general">
		<title>Sheet.1071</title>
	</g>
	<g id="Message">
	</g>
	<g id="Monitor">
	</g>
	<g id="Monitor_running_apps">
	</g>
	<g id="Mouse">
	</g>
	<g id="Network_card">
	</g>
	<g id="Not_allowed">
	</g>
	<g id="Performance">
	</g>
	
		<use xlink:href="#Monitor_running_apps_1_"  width="62" height="49" x="-31" y="-24.5" transform="matrix(1 0 0 -1 35.617 35.6381)" overflow="visible"/>
</g>
<g id="paths">
	<g id="Access_control">
	</g>
	<g id="Azure_active_directory">
	</g>
	<g id="Generic_code">
	</g>
	<g id="Laptop">
	</g>
	<g id="Load_balancer">
	</g>
	<g id="Lock_x2C__protected">
	</g>
</g>
<g id="symbols">
</g>
<g id="slices">
</g>
</svg>
