<?xml version="1.0" encoding="utf-8"?>
<!-- Generator: Adobe Illustrator 18.1.0, SVG Export Plug-In . SVG Version: 6.00 Build 0)  -->
<!DOCTYPE svg PUBLIC "-//W3C//DTD SVG 1.0//EN" "http://www.w3.org/TR/2001/REC-SVG-20010904/DTD/svg10.dtd">
<svg version="1.0" xmlns="http://www.w3.org/2000/svg" xmlns:xlink="http://www.w3.org/1999/xlink" x="0px" y="0px"
	 viewBox="0 0 71.2 71.3" enable-background="new 0 0 71.2 71.3" xml:space="preserve">
<g id="Layer_1">
	<g id="File_x2C__general">
		<title>Sheet.1071</title>
	</g>
	<g id="Message">
	</g>
	<g id="Monitor">
	</g>
	<g id="Monitor_running_apps">
	</g>
	<g id="Mouse">
	</g>
	<g id="Network_card">
	</g>
	<g id="Not_allowed">
	</g>
	<g id="Performance">
	</g>
	<g id="Phone">
		<g id="shape1152-2254_1_" transform="translate(47.226,-3690.94)">
			<path fill="#2A3282" d="M-0.3,3706.8h-22.6c-1.5,0-2.7,1.3-2.7,2.9v36.3c0,1.6,1.2,2.9,2.7,2.9h22.6c1.5,0,2.7-1.3,2.7-2.9v-36.3
				C2.4,3708.1,1.2,3706.8-0.3,3706.8z M-15.8,3708.7h8.5c0.7,0,1.2,0.1,1.2,0.6c0,0.6-0.5,0.6-1.2,0.6h-8.5c-0.7,0-1.2,0-1.2-0.6
				C-17,3708.8-16.4,3708.7-15.8,3708.7z M-9.1,3745.8h-4.8c-0.5,0-0.9-0.4-0.9-1c0-0.5,0.4-1,0.9-1h4.8c0.5,0,0.9,0.5,0.9,1
				C-8.2,3745.3-8.6,3745.8-9.1,3745.8z M-0.6,3741.8h-22v-30h22V3741.8z"/>
		</g>
	</g>
</g>
<g id="paths">
	<g id="Access_control">
	</g>
	<g id="Azure_active_directory">
	</g>
	<g id="Generic_code">
	</g>
	<g id="Laptop">
	</g>
	<g id="Load_balancer">
	</g>
	<g id="Lock_x2C__protected">
	</g>
</g>
<g id="symbols">
</g>
<g id="slices">
</g>
</svg>
