<?xml version="1.0" encoding="utf-8"?>
<!-- Generator: Adobe Illustrator 18.1.0, SVG Export Plug-In . SVG Version: 6.00 Build 0)  -->
<!DOCTYPE svg PUBLIC "-//W3C//DTD SVG 1.0//EN" "http://www.w3.org/TR/2001/REC-SVG-20010904/DTD/svg10.dtd">
<svg version="1.0" id="Layer_1" xmlns="http://www.w3.org/2000/svg" xmlns:xlink="http://www.w3.org/1999/xlink" x="0px" y="0px"
	 viewBox="0 0 156.5 120.9" enable-background="new 0 0 156.5 120.9" xml:space="preserve">
<g>
	<path fill="#DC5B26" d="M82.7,50v5.6h5.6C88.3,52.5,85.8,50,82.7,50z"/>
	<path fill="#DC5B26" d="M68.9,55.7c-0.6-0.3-1.1-0.2-1.7-0.1c-0.3,0.1-0.2,0.3-0.2,0.5c0,0.5,0,1,0,1.4c0,0.7,0,1.5,0,2.2
		c0.6,0.1,1,0.2,1.6,0.1c0.9-0.3,1.2-1.1,1.3-2C69.9,57,69.8,56.1,68.9,55.7z"/>
	<path fill="#DC5B26" d="M93.9,45.9H79.2v-4.6l-22.4,3.9v30.4l22.4,3.9v-5.1h14.8c0.6,0,1-0.5,1-1V47C94.9,46.4,94.5,45.9,93.9,45.9
		z M72.6,58.7c-0.3,1.5-1.2,2.8-2.6,3.4c-1,0.4-1.9,0.3-2.9,0.2c0,1.7,0,3.4,0,5.1c-0.7-0.1-1.3-0.1-1.9-0.2c-0.2-0.1-0.7,0-0.7-0.2
		c0-1,0-2,0-3c0-3.1,0-6.2,0-9.2c0-0.4,0-0.8,0-1.2c0-0.3-0.1-0.3,0.2-0.3c1.3-0.1,2.5-0.2,3.7-0.2c1.4,0,2.7,0.2,3.6,1.4
		C72.7,55.6,72.8,57.3,72.6,58.7z M93.7,73.2H79.2v-3.1h10.7v-1.8H79.2V66h10.7v-1.7H79.2v-2.6c0.8,0.4,1.6,0.6,2.5,0.6
		c3.1,0,5.6-2.5,5.6-5.6h-5.6V51c-0.9,0-1.8,0.2-2.5,0.6v-4.4h14.5V73.2z"/>
</g>
</svg>
