<?xml version="1.0" encoding="utf-8"?>
<!-- Generator: Adobe Illustrator 18.1.0, SVG Export Plug-In . SVG Version: 6.00 Build 0)  -->
<!DOCTYPE svg PUBLIC "-//W3C//DTD SVG 1.0//EN" "http://www.w3.org/TR/2001/REC-SVG-20010904/DTD/svg10.dtd">
<svg version="1.0" xmlns="http://www.w3.org/2000/svg" xmlns:xlink="http://www.w3.org/1999/xlink" x="0px" y="0px"
	 viewBox="0 0 71.2 71.3" enable-background="new 0 0 71.2 71.3" xml:space="preserve">
<g id="Layer_1">
	<g id="File_x2C__general">
		<title>Sheet.1071</title>
	</g>
	<g id="Message">
	</g>
	<g id="Monitor">
	</g>
	<g id="Monitor_running_apps">
	</g>
	<g id="Mouse">
	</g>
	<g id="Network_card">
	</g>
	<g id="Not_allowed">
	</g>
	<g id="Performance">
	</g>
	<g id="Phone">
	</g>
	<g id="Plug_and_play">
	</g>
	<g id="Powershell_script_file">
		<g>
			<g>
				<path fill="#2A3282" d="M44.4,20H24.7c-2.3,0-4.2,1.9-4.2,4.2v22.9c0,2.3,1.9,4.2,4.2,4.2h21.8c2.3,0,4.2-1.9,4.2-4.2V26.2
					L44.4,20z M48.1,47.1c0,0.9-0.7,1.6-1.6,1.6H24.7c-0.9,0-1.6-0.7-1.6-1.6V24.2c0-0.9,0.7-1.6,1.6-1.6h18.4v5.1h5V47.1z"/>
			</g>
			<path fill-rule="evenodd" clip-rule="evenodd" fill="#2A3282" d="M42.4,42.7l0,0.1C42.3,43.4,41.6,44,41,44h-5.2
				c-0.6,0-1-0.6-0.9-1.2l0-0.1c0.2-0.6,0.8-1.1,1.4-1.1h5.2C42.2,41.5,42.6,42,42.4,42.7z M28.5,43.5L28.5,43.5
				c-0.4-0.5-0.2-1.2,0.4-1.6l9.2-6.4L32.2,29c-0.4-0.4-0.2-1.1,0.4-1.6l0.1,0c0.3-0.2,0.9-0.3,1.3,0.2l5.7,6.4l0.7,0.7l0.1,0.1
				c0.4,0.4,0.5,1.3,0.1,1.7l-1,0.7l-9.2,6.4C29.7,44,28.9,44,28.5,43.5z"/>
		</g>
	</g>
</g>
<g id="paths">
	<g id="Access_control">
	</g>
	<g id="Azure_active_directory">
	</g>
	<g id="Generic_code">
	</g>
	<g id="Laptop">
	</g>
	<g id="Load_balancer">
	</g>
	<g id="Lock_x2C__protected">
	</g>
</g>
<g id="symbols">
</g>
<g id="slices">
</g>
</svg>
