<?xml version="1.0" encoding="utf-8"?>
<!-- Generator: Adobe Illustrator 18.1.0, SVG Export Plug-In . SVG Version: 6.00 Build 0)  -->
<!DOCTYPE svg PUBLIC "-//W3C//DTD SVG 1.0//EN" "http://www.w3.org/TR/2001/REC-SVG-20010904/DTD/svg10.dtd">
<svg version="1.0" xmlns="http://www.w3.org/2000/svg" xmlns:xlink="http://www.w3.org/1999/xlink" x="0px" y="0px"
	 viewBox="0 0 71.2 71.3" enable-background="new 0 0 71.2 71.3" xml:space="preserve">
<g id="Layer_1">
	<g id="File_x2C__general">
		<title>Sheet.1071</title>
	</g>
	<g id="Message">
	</g>
	<g id="Monitor">
	</g>
	<g id="Monitor_running_apps">
	</g>
	<g id="Mouse">
	</g>
	<g id="Network_card">
	</g>
	<g id="Not_allowed">
	</g>
	<g id="Performance">
	</g>
	<g id="Phone">
	</g>
	<g id="Plug_and_play">
	</g>
	<g id="Powershell_script_file">
	</g>
	<g id="Protocol_stack">
		<g>
			<g>
				<path fill="#2A3282" d="M60.2,18.1H12.8c-1,0-1.8,0.7-1.8,1.5v6c0,0.8,0.8,1.5,1.8,1.5h18.3l3.9-4.3l1.5-1.7l1.5,1.7l3.9,4.3
					h18.3c1,0,1.8-0.7,1.8-1.5v-6C62,18.8,61.2,18.1,60.2,18.1z"/>
			</g>
			<g>
				<path fill="#2A3282" d="M60.2,31.1H38v-2h3l-4.5-5l-4.5,5h3v2H12.8c-1,0-1.8,0.7-1.8,1.5v6c0,0.8,0.8,1.5,1.8,1.5h18.3l3.9-4.3
					l1.5-1.7l1.5,1.7l3.9,4.3h18.3c1,0,1.8-0.7,1.8-1.5v-6C62,31.8,61.2,31.1,60.2,31.1z"/>
			</g>
			<g>
				<path fill="#2A3282" d="M60.2,44.1H38v-2h3l-4.5-5l-4.5,5h3v2H12.8c-1,0-1.8,0.7-1.8,1.5v6c0,0.8,0.8,1.5,1.8,1.5h47.4
					c1,0,1.8-0.7,1.8-1.5v-6C62,44.8,61.2,44.1,60.2,44.1z"/>
			</g>
		</g>
	</g>
</g>
<g id="paths">
	<g id="Access_control">
	</g>
	<g id="Azure_active_directory">
	</g>
	<g id="Generic_code">
	</g>
	<g id="Laptop">
	</g>
	<g id="Load_balancer">
	</g>
	<g id="Lock_x2C__protected">
	</g>
</g>
<g id="symbols">
</g>
<g id="slices">
</g>
</svg>
