<?xml version="1.0" encoding="utf-8"?>
<!-- Generator: Adobe Illustrator 18.1.0, SVG Export Plug-In . SVG Version: 6.00 Build 0)  -->
<!DOCTYPE svg PUBLIC "-//W3C//DTD SVG 1.0//EN" "http://www.w3.org/TR/2001/REC-SVG-20010904/DTD/svg10.dtd">
<svg version="1.0" xmlns="http://www.w3.org/2000/svg" xmlns:xlink="http://www.w3.org/1999/xlink" x="0px" y="0px"
	 viewBox="0 0 83.4 83.4" enable-background="new 0 0 83.4 83.4" xml:space="preserve">
<g id="Layer_1">
	<g id="File_x2C__general">
		<title>Sheet.1071</title>
	</g>
	<g id="Message">
	</g>
	<g id="Monitor">
	</g>
	<g id="Monitor_running_apps">
	</g>
	<g id="Mouse">
	</g>
	<g id="Network_card">
	</g>
	<g id="Not_allowed">
	</g>
	<g id="Performance">
	</g>
	<g id="Phone">
	</g>
	<g id="Plug_and_play">
	</g>
	<g id="Powershell_script_file">
	</g>
	<g id="Protocol_stack">
	</g>
	<g id="Queue_x2C__general">
		<g id="group1146-2243_1_" transform="translate(23.0452,-3158.56)">
			<title>Sheet.1146</title>
			<g id="shape1147-2244_1_">
				<title>Sheet.1147</title>
				<path fill="#2A3282" d="M48.6,3211.7h-65c-1.4,0-2.5-1.6-2.5-2.9v-17.6c0-1.3,1.1-2.4,2.5-2.4h65c0.5,0,1.4,0,7.5,11.5l0.2,0.4
					l-0.2,0.4C50,3211.7,49.1,3211.7,48.6,3211.7z M-16.5,3190.4c-0.5,0-0.9,0.4-0.9,0.8v17.6c0,0.6,0.5,1.3,0.9,1.3h64.8
					c0.8-0.7,3.6-5.3,6-9.5c-2.4-4.6-5.2-9.5-6.1-10.3H-16.5z"/>
			</g>
			<g id="shape1148-2246_1_" transform="translate(3.68175,-3.72675)">
				<title>Sheet.1148</title>
				<path fill="#2A3282" d="M-0.3,3196.6h-17.4c-0.5,0-1,0.4-1,1v13c0,0.5,0.4,1,1,1h17.4c0.5,0,1-0.4,1-1v-13
					C0.6,3197,0.2,3196.6-0.3,3196.6z M-1.8,3198.6l-7.4,5.7l-7.3-5.7H-1.8z M-16.8,3209.6v-8.6l7,5.4c0.2,0.1,0.4,0.2,0.6,0.2
					c0.2,0,0.4-0.1,0.6-0.2l7.2-5.6v8.8H-16.8L-16.8,3209.6z"/>
			</g>
			<g id="shape1149-2248_1_" transform="translate(23.9377,-3.72675)">
				<title>Sheet.1149</title>
				<path fill="#2A3282" d="M0.8,3196.6h-17.4c-0.5,0-1,0.4-1,1v13c0,0.5,0.4,1,1,1H0.8c0.5,0,1-0.4,1-1v-13
					C1.8,3197,1.3,3196.6,0.8,3196.6z M-0.7,3198.6l-7.4,5.7l-7.3-5.7H-0.7z M-15.7,3209.6v-8.6l7,5.4c0.2,0.1,0.4,0.2,0.6,0.2
					c0.2,0,0.4-0.1,0.6-0.2l7.2-5.6v8.8H-15.7L-15.7,3209.6z"/>
			</g>
			<g id="shape1150-2250_1_" transform="translate(44.1945,-3.72675)">
				<title>Sheet.1150</title>
				<path fill="#2A3282" d="M1.9,3196.6h-17.4c-0.5,0-1,0.4-1,1v13c0,0.5,0.4,1,1,1H1.9c0.5,0,1-0.4,1-1v-13
					C2.9,3197,2.4,3196.6,1.9,3196.6z M0.4,3198.6l-7.4,5.7l-7.3-5.7H0.4z M-14.5,3209.6v-8.6l7,5.4c0.2,0.1,0.4,0.2,0.6,0.2
					c0.2,0,0.4-0.1,0.6-0.2l7.2-5.6v8.8H-14.5L-14.5,3209.6z"/>
			</g>
		</g>
	</g>
</g>
<g id="paths">
	<g id="Access_control">
	</g>
	<g id="Azure_active_directory">
	</g>
	<g id="Generic_code">
	</g>
	<g id="Laptop">
	</g>
	<g id="Load_balancer">
	</g>
	<g id="Lock_x2C__protected">
	</g>
</g>
<g id="symbols">
</g>
<g id="slices">
</g>
</svg>
