<?xml version="1.0" encoding="utf-8"?>
<!-- Generator: Adobe Illustrator 18.1.0, SVG Export Plug-In . SVG Version: 6.00 Build 0)  -->
<!DOCTYPE svg PUBLIC "-//W3C//DTD SVG 1.0//EN" "http://www.w3.org/TR/2001/REC-SVG-20010904/DTD/svg10.dtd">
<svg version="1.0" xmlns="http://www.w3.org/2000/svg" xmlns:xlink="http://www.w3.org/1999/xlink" x="0px" y="0px"
	 viewBox="0 0 83.4 83.4" enable-background="new 0 0 83.4 83.4" xml:space="preserve">
<g id="Layer_1">
	<g id="File_x2C__general">
		<title>Sheet.1071</title>
	</g>
	<g id="Message">
	</g>
	<g id="Monitor">
	</g>
	<g id="Monitor_running_apps">
	</g>
	<g id="Mouse">
	</g>
	<g id="Network_card">
	</g>
	<g id="Not_allowed">
	</g>
	<g id="Performance">
	</g>
	<g id="Phone">
	</g>
	<g id="Plug_and_play">
	</g>
	<g id="Powershell_script_file">
	</g>
	<g id="Protocol_stack">
	</g>
	<g id="Queue_x2C__general">
	</g>
	<g id="RMS_connector">
		<g>
			<g>
				<path fill="#2A3282" d="M34.7,57.7h-6v-2h10c0,0,0-0.4,0-0.7v-1.3h-10v-2h10v-7.2c0-0.8,0.8-1.6,1.5-1.6h0.4v-1.4
					c0-4.3,2.4-6.4,5.1-6.8V22.7c0-1.1-0.9-2-2-2h-16c-1.1,0-2,0.9-2,2v39h9V57.7z M28.7,26.7h14v2h-14V26.7z"/>
			</g>
			<path fill-rule="evenodd" clip-rule="evenodd" fill="#2A3282" d="M52.8,43.8H52v-1.7c0-3.6-2.1-5.4-4.6-5.4H47
				c-2.5,0-4.6,1.8-4.6,5.4v1.7h-0.8c-0.3,0-0.8,0.5-0.8,0.9v9.1c0,0.4,0.7,0.9,1,0.9h11c0.3,0,1-0.5,1-0.9v-9.1
				C53.7,44.3,53.2,43.8,52.8,43.8L52.8,43.8z M47.8,49.2v3.8h-1.3v-3.8c-0.5-0.3-0.9-0.8-0.9-1.4c0-0.9,0.7-1.6,1.5-1.6
				c0.8,0,1.5,0.7,1.5,1.6C48.7,48.4,48.3,48.9,47.8,49.2L47.8,49.2z M50.4,43.8H44v-1.7c0-2.3,1.1-3.8,3-3.8h0.4c1.9,0,3,1.6,3,3.8
				V43.8L50.4,43.8L50.4,43.8z"/>
			<path fill-rule="evenodd" clip-rule="evenodd" fill="#2A3282" d="M50.5,58.7c0-0.5-0.3-1-0.8-1h-1.1l-0.1-4h-0.9v4h-1v-4h-1v4
				h-1.2c-0.4,0-0.8,0.5-0.8,1v1v1v1c0,0.5,0.3,1,0.8,1h5.3c0.4,0,0.8-0.5,0.8-1V58.7z M49.7,61.7h-5v-3h5V61.7L49.7,61.7L49.7,61.7
				z"/>
			<rect x="36.7" y="58.7" fill-rule="evenodd" clip-rule="evenodd" fill="#2A3282" width="8" height="3"/>
			<rect x="49.7" y="58.7" fill-rule="evenodd" clip-rule="evenodd" fill="#2A3282" width="8" height="3"/>
		</g>
	</g>
</g>
<g id="paths">
	<g id="Access_control">
	</g>
	<g id="Azure_active_directory">
	</g>
	<g id="Generic_code">
	</g>
	<g id="Laptop">
	</g>
	<g id="Load_balancer">
	</g>
	<g id="Lock_x2C__protected">
	</g>
</g>
<g id="symbols">
</g>
<g id="slices">
</g>
</svg>
