<?xml version="1.0" encoding="utf-8"?>
<!-- Generator: Adobe Illustrator 18.1.0, SVG Export Plug-In . SVG Version: 6.00 Build 0)  -->
<!DOCTYPE svg PUBLIC "-//W3C//DTD SVG 1.0//EN" "http://www.w3.org/TR/2001/REC-SVG-20010904/DTD/svg10.dtd">
<svg version="1.0" xmlns="http://www.w3.org/2000/svg" xmlns:xlink="http://www.w3.org/1999/xlink" x="0px" y="0px"
	 viewBox="0 0 83.4 83.4" enable-background="new 0 0 83.4 83.4" xml:space="preserve">
<g id="Layer_1">
	<g id="File_x2C__general">
		<title>Sheet.1071</title>
	</g>
	<g id="Message">
	</g>
	<g id="Monitor">
	</g>
	<g id="Monitor_running_apps">
	</g>
	<g id="Mouse">
	</g>
	<g id="Network_card">
	</g>
	<g id="Not_allowed">
	</g>
	<g id="Performance">
	</g>
	<g id="Phone">
	</g>
	<g id="Plug_and_play">
	</g>
	<g id="Powershell_script_file">
	</g>
	<g id="Protocol_stack">
	</g>
	<g id="Queue_x2C__general">
	</g>
	<g id="RMS_connector">
	</g>
	<g id="Router">
		<g>
			<path fill-rule="evenodd" clip-rule="evenodd" fill="#2A3282" d="M59.3,40.2H24.1c-1,0-1.9,0.6-1.9,1.4v7.1
				c0,0.8,0.8,1.4,1.9,1.4h35.2c1,0,1.9-0.6,1.9-1.4v-7.1C61.2,40.9,60.3,40.2,59.3,40.2z M28.2,47.2c-1.1,0-2-0.9-2-2s0.9-2,2-2
				c1.1,0,2,0.9,2,2S29.3,47.2,28.2,47.2z M37.2,47.2c-1.1,0-2-0.9-2-2s0.9-2,2-2c1.1,0,2,0.9,2,2S38.3,47.2,37.2,47.2z M46.2,47.2
				c-1.1,0-2-0.9-2-2s0.9-2,2-2c1.1,0,2,0.9,2,2S47.3,47.2,46.2,47.2z M55.2,47.2c-1.1,0-2-0.9-2-2s0.9-2,2-2c1.1,0,2,0.9,2,2
				S56.3,47.2,55.2,47.2z"/>
			<polygon fill-rule="evenodd" clip-rule="evenodd" fill="#2A3282" points="54,30.2 29.4,30.2 22.2,37.2 61.2,37.2 			"/>
			<g id="lowPriority40x40_4_">
				<polygon fill="#2A3282" points="66.4,24.4 66.4,30 68.2,28.3 68.2,21.2 61.1,21.2 59.3,23 65,23 59,29 60.4,30.4 				"/>
			</g>
			<g id="lowPriority40x40_3_">
				<polygon fill="#2A3282" points="66.4,59 66.4,53.4 68.2,55.1 68.2,62.2 61.1,62.2 59.3,60.4 65,60.4 59,54.4 60.4,53 				"/>
			</g>
			<g id="lowPriority40x40_2_">
				<polygon fill="#2A3282" points="18,24.4 18,30 16.2,28.3 16.2,21.2 23.3,21.2 25,23 19.4,23 25.4,29 24,30.4 				"/>
			</g>
			<g id="lowPriority40x40_1_">
				<polygon fill="#2A3282" points="17,59 17,53.4 15.2,55.1 15.2,62.2 22.3,62.2 24,60.4 18.4,60.4 24.4,54.4 23,53 				"/>
			</g>
		</g>
	</g>
</g>
<g id="paths">
	<g id="Access_control">
	</g>
	<g id="Azure_active_directory">
	</g>
	<g id="Generic_code">
	</g>
	<g id="Laptop">
	</g>
	<g id="Load_balancer">
	</g>
	<g id="Lock_x2C__protected">
	</g>
</g>
<g id="symbols">
</g>
<g id="slices">
</g>
</svg>
