<?xml version="1.0" encoding="utf-8"?>
<!-- Generator: Adobe Illustrator 18.1.0, SVG Export Plug-In . SVG Version: 6.00 Build 0)  -->
<!DOCTYPE svg PUBLIC "-//W3C//DTD SVG 1.0//EN" "http://www.w3.org/TR/2001/REC-SVG-20010904/DTD/svg10.dtd">
<svg version="1.0" xmlns="http://www.w3.org/2000/svg" xmlns:xlink="http://www.w3.org/1999/xlink" x="0px" y="0px"
	 viewBox="0 0 152 117.5" enable-background="new 0 0 152 117.5" xml:space="preserve">
<g id="Layer_1">
	<g id="Azure">
	</g>
	<g id="BizTalk_Services" transform="translate(37.3575,-2500.2)">
	</g>
	<g id="Key_Vault">
	</g>
	<g id="Mobile_Engagement">
	</g>
	<g id="Office_subscription">
		<g id="Office_subscription_1_">
		</g>
	</g>
	<g>
		<g id="shape988-2007" transform="translate(1243.68,-2682.4)">
			<title>Sheet.988</title>
			<desc>rdp</desc>
			<v:textBlock  v:margins="rect(0,0,0,0)"></v:textBlock>
			<v:textRect  width="23.94" height="9.57294" cy="3866.57" cx="11.9662"></v:textRect>
			<g>
				<path fill="#0078D7" d="M-1175.5,2759.8c0,0.2,0,0.4-0.1,0.5s-0.2,0.1-0.4,0.1c-0.2,0-0.3,0-0.4-0.1c-0.1-0.1-0.1-0.2-0.1-0.5
					c0-0.2,0-0.4,0.1-0.5s0.2-0.1,0.4-0.1c0.2,0,0.3,0,0.4,0.1C-1175.6,2759.4-1175.5,2759.5-1175.5,2759.8z"/>
				<path fill="#0078D7" d="M-1171.3,2755.9c0,0.1,0,0.1,0,0.2s0,0.1,0,0.1c0,0,0,0.1,0,0.1c0,0,0,0-0.1,0c0,0-0.1,0-0.1,0
					c0,0-0.1,0-0.1,0c0,0-0.1,0-0.2,0c-0.1,0-0.1,0-0.2,0c-0.1,0-0.2,0-0.2,0.1c-0.1,0-0.2,0.1-0.3,0.2c-0.1,0.1-0.2,0.2-0.3,0.3
					s-0.2,0.3-0.3,0.5v3c0,0,0,0,0,0.1c0,0,0,0-0.1,0c0,0-0.1,0-0.1,0c-0.1,0-0.1,0-0.2,0c-0.1,0-0.1,0-0.2,0c-0.1,0-0.1,0-0.1,0
					c0,0-0.1,0-0.1,0s0,0,0-0.1v-4.5c0,0,0,0,0-0.1c0,0,0,0,0.1-0.1c0,0,0.1,0,0.1,0s0.1,0,0.2,0c0.1,0,0.1,0,0.2,0s0.1,0,0.1,0
					c0,0,0,0,0.1,0.1s0,0,0,0.1v0.7c0.1-0.2,0.2-0.3,0.4-0.4c0.1-0.1,0.2-0.2,0.3-0.3s0.2-0.1,0.3-0.1c0.1,0,0.2,0,0.3,0
					c0,0,0.1,0,0.1,0s0.1,0,0.2,0s0.1,0,0.2,0c0,0,0.1,0,0.1,0.1c0,0,0,0,0,0c0,0,0,0,0,0.1c0,0,0,0.1,0,0.1
					C-1171.3,2755.8-1171.3,2755.9-1171.3,2755.9z"/>
				<path fill="#0078D7" d="M-1166.6,2760.2C-1166.6,2760.2-1166.6,2760.2-1166.6,2760.2c0,0.1,0,0.1-0.1,0.1s-0.1,0-0.1,0
					s-0.1,0-0.2,0c-0.1,0-0.1,0-0.2,0c0,0-0.1,0-0.1,0s-0.1,0-0.1,0c0,0,0,0,0-0.1v-0.6c-0.2,0.3-0.5,0.5-0.7,0.6
					c-0.3,0.1-0.5,0.2-0.8,0.2c-0.3,0-0.6-0.1-0.9-0.2s-0.4-0.3-0.6-0.5s-0.3-0.5-0.3-0.8c-0.1-0.3-0.1-0.6-0.1-0.9
					c0-0.4,0-0.7,0.1-1.1c0.1-0.3,0.2-0.6,0.4-0.8c0.2-0.2,0.4-0.4,0.6-0.5c0.2-0.1,0.5-0.2,0.8-0.2c0.3,0,0.5,0.1,0.7,0.2
					s0.4,0.3,0.7,0.5v-2.6c0,0,0,0,0-0.1c0,0,0,0,0.1-0.1s0.1,0,0.1,0s0.1,0,0.2,0c0.1,0,0.2,0,0.2,0c0.1,0,0.1,0,0.1,0
					c0,0,0.1,0,0.1,0.1c0,0,0,0,0,0.1V2760.2z M-1167.5,2757c-0.2-0.3-0.4-0.5-0.7-0.6c-0.2-0.1-0.4-0.2-0.7-0.2
					c-0.2,0-0.4,0.1-0.5,0.2c-0.1,0.1-0.3,0.2-0.4,0.4s-0.2,0.4-0.2,0.6s-0.1,0.4-0.1,0.6c0,0.2,0,0.5,0.1,0.7
					c0,0.2,0.1,0.4,0.2,0.6c0.1,0.2,0.2,0.3,0.3,0.4c0.1,0.1,0.3,0.2,0.5,0.2c0.1,0,0.2,0,0.3,0c0.1,0,0.2-0.1,0.3-0.2
					c0.1-0.1,0.2-0.2,0.3-0.3c0.1-0.1,0.2-0.3,0.4-0.4V2757z"/>
				<path fill="#0078D7" d="M-1160.9,2757.8c0,0.4,0,0.8-0.1,1.1s-0.2,0.6-0.4,0.8c-0.2,0.2-0.4,0.4-0.6,0.5
					c-0.2,0.1-0.5,0.2-0.8,0.2c-0.1,0-0.3,0-0.4,0c-0.1,0-0.2-0.1-0.3-0.1c-0.1-0.1-0.2-0.1-0.3-0.2s-0.2-0.2-0.3-0.3v2.3
					c0,0,0,0.1,0,0.1c0,0,0,0-0.1,0.1c0,0-0.1,0-0.1,0s-0.1,0-0.2,0c-0.1,0-0.1,0-0.2,0c-0.1,0-0.1,0-0.1,0c0,0-0.1,0-0.1-0.1
					c0,0,0,0,0-0.1v-6.4c0,0,0-0.1,0-0.1s0,0,0.1,0s0.1,0,0.1,0s0.1,0,0.2,0c0.1,0,0.1,0,0.2,0c0,0,0.1,0,0.1,0s0.1,0,0.1,0
					s0,0,0,0.1v0.6c0.1-0.1,0.3-0.3,0.4-0.4c0.1-0.1,0.3-0.2,0.4-0.3c0.1-0.1,0.3-0.1,0.4-0.2s0.3-0.1,0.4-0.1
					c0.3,0,0.6,0.1,0.8,0.2c0.2,0.1,0.4,0.3,0.6,0.5c0.1,0.2,0.3,0.5,0.3,0.8S-1160.9,2757.5-1160.9,2757.8z M-1161.8,2757.9
					c0-0.2,0-0.5-0.1-0.7c0-0.2-0.1-0.4-0.2-0.6c-0.1-0.2-0.2-0.3-0.3-0.4c-0.1-0.1-0.3-0.2-0.5-0.2c-0.1,0-0.2,0-0.3,0
					c-0.1,0-0.2,0.1-0.3,0.2c-0.1,0.1-0.2,0.2-0.3,0.3c-0.1,0.1-0.2,0.3-0.4,0.4v1.8c0.2,0.3,0.4,0.5,0.7,0.6
					c0.2,0.1,0.4,0.2,0.7,0.2c0.2,0,0.4-0.1,0.5-0.2c0.2-0.1,0.3-0.2,0.4-0.4c0.1-0.2,0.2-0.4,0.2-0.6S-1161.8,2758.1-1161.8,2757.9
					z"/>
				<v:paragraph></v:paragraph>
				<v:tabList></v:tabList>
			</g>
		</g>
		<g id="group1178-2295" transform="translate(1239.91,-2691.81)">
			<title>Sheet.1178</title>
			<g id="shape1179-2296" transform="translate(10.1257,-7.29225)">
				<title>Sheet.1179</title>
				<path fill="#0078D7" d="M-1170.8,2749l-4.7,4.7l4.7,4.7l1.6-1.5l-3.2-3.2l3.2-3.2L-1170.8,2749z"/>
			</g>
			<g id="shape1180-2298" transform="translate(5.2905,-4.9515)">
				<title>Sheet.1180</title>
				<path fill="#0078D7" d="M-1176.9,2751.3l3.2,3.2l-3.2,3.2l1.6,1.5l4.7-4.7l-4.7-4.7L-1176.9,2751.3z"/>
			</g>
			<g id="shape1181-2300">
				<title>Sheet.1181</title>
				<path fill="#0078D7" d="M-1157.5,2733.1h-0.4c0,0-1.3,0-2.7,0h-14.4c-2,0-3.6,1.6-3.6,3.6v20.4c0,2,1.6,3.6,3.6,3.6h19.4
					c2,0,3.6-1.6,3.6-3.6v-15.6l0-2.9L-1157.5,2733.1z M-1153.9,2757.1c0,0.9-0.7,1.6-1.6,1.6h-19.4c-0.9,0-1.6-0.7-1.6-1.6v-20.4
					c0-0.9,0.7-1.6,1.6-1.6h14.4c0.9,0,1.7,0,2.2,0v4.5h4.4V2757.1z"/>
			</g>
		</g>
	</g>
</g>
<g id="paths">
	<g id="Access_control">
	</g>
	<g id="Azure_active_directory">
	</g>
	<g id="API_Management">
	</g>
	<g id="Azure_automation">
	</g>
	<g id="Azure_SQL_database">
	</g>
	<g id="Azure_subscription">
	</g>
	<g id="Backup_service">
	</g>
	<g id="Bitbucket_code_source">
	</g>
	<g id="Azure_cache">
	</g>
	<g id="Content_delivery_network__x28_CDN_x29_">
	</g>
	<g id="Cloud_service">
	</g>
	<g id="CodePlex">
	</g>
	<g id="Dropbox_code_source">
	</g>
	<g id="Express_route">
	</g>
	<g id="Git_repository">
	</g>
	<g id="GitHub_code">
	</g>
	<g id="HD_Insight">
	</g>
	<g id="Health_monitoring">
	</g>
	<g id="Healthy">
	</g>
	<g id="BizTalk_hybrid_connection">
	</g>
	<g id="Hybrid_connection_manager_for_BizTalk_hybrid_connection">
	</g>
	<g id="Hyper-V_recovery_manager">
	</g>
	<g id="Machine_learning">
	</g>
	<g id="Media_services">
	</g>
	<g id="Microsoft_account">
	</g>
	<g id="Mobile_services">
	</g>
	<g id="Multi-factor_authentication">
	</g>
	<g id="MySQL_database">
	</g>
	<g id="Notification_hub">
	</g>
	<g id="Notification_topic">
	</g>
	<g id="Cloud_Office_365">
	</g>
	<g id="Office_365">
	</g>
	<g id="OS_image">
	</g>
	<g id="Remote_app">
	</g>
</g>
<g id="Layer_57">
</g>
</svg>
