<?xml version="1.0" encoding="utf-8"?>
<!-- Generator: Adobe Illustrator 18.1.0, SVG Export Plug-In . SVG Version: 6.00 Build 0)  -->
<!DOCTYPE svg PUBLIC "-//W3C//DTD SVG 1.0//EN" "http://www.w3.org/TR/2001/REC-SVG-20010904/DTD/svg10.dtd">
<svg version="1.0" xmlns="http://www.w3.org/2000/svg" xmlns:xlink="http://www.w3.org/1999/xlink" x="0px" y="0px"
	 viewBox="0 0 83.4 83.4" enable-background="new 0 0 83.4 83.4" xml:space="preserve">
<g id="Layer_1">
	<g id="File_x2C__general">
		<title>Sheet.1071</title>
	</g>
	<g id="Message">
	</g>
	<g id="Monitor">
	</g>
	<g id="Monitor_running_apps">
	</g>
	<g id="Mouse">
	</g>
	<g id="Network_card">
	</g>
	<g id="Not_allowed">
	</g>
	<g id="Performance">
	</g>
	<g id="Phone">
	</g>
	<g id="Plug_and_play">
	</g>
	<g id="Powershell_script_file">
	</g>
	<g id="Protocol_stack">
	</g>
	<g id="Queue_x2C__general">
	</g>
	<g id="RMS_connector">
	</g>
	<g id="Router">
	</g>
	<g id="Script_file">
		<g>
			<path fill="#2A3282" d="M50.5,26.1H30.8c-2.3,0-4.2,1.9-4.2,4.2v22.9c0,2.3,1.9,4.2,4.2,4.2h21.8c2.3,0,4.2-1.9,4.2-4.2V32.3
				L50.5,26.1z M54.2,53.2c0,0.9-0.7,1.6-1.6,1.6H30.8c-0.9,0-1.6-0.7-1.6-1.6V30.2c0-0.9,0.7-1.6,1.6-1.6h18.4v5.1h5V53.2z"/>
			<polygon fill="#2A3282" points="31.2,43.3 36.9,47 36.9,44.9 32.9,42.6 32.9,42.6 36.9,40.1 36.9,38 31.2,41.9 			"/>
			<polygon fill="#2A3282" points="38.2,49.6 39.9,49.6 44.2,35.1 42.4,35.1 			"/>
			<polygon fill="#2A3282" points="45.6,40 49.7,42.5 49.7,42.5 45.6,44.8 45.6,46.9 51.3,43.2 51.3,41.8 45.6,37.9 			"/>
		</g>
	</g>
</g>
<g id="paths">
	<g id="Access_control">
	</g>
	<g id="Azure_active_directory">
	</g>
	<g id="Generic_code">
	</g>
	<g id="Laptop">
	</g>
	<g id="Load_balancer">
	</g>
	<g id="Lock_x2C__protected">
	</g>
</g>
<g id="symbols">
</g>
<g id="slices">
</g>
</svg>
