<?xml version="1.0" encoding="utf-8"?>
<!-- Generator: Adobe Illustrator 18.1.0, SVG Export Plug-In . SVG Version: 6.00 Build 0)  -->
<!DOCTYPE svg PUBLIC "-//W3C//DTD SVG 1.0//EN" "http://www.w3.org/TR/2001/REC-SVG-20010904/DTD/svg10.dtd">
<svg version="1.0" xmlns="http://www.w3.org/2000/svg" xmlns:xlink="http://www.w3.org/1999/xlink" x="0px" y="0px"
	 viewBox="0 0 83.4 83.4" enable-background="new 0 0 83.4 83.4" xml:space="preserve">
<g id="Layer_1">
	<g id="File_x2C__general">
		<title>Sheet.1071</title>
	</g>
	<g id="Message">
	</g>
	<g id="Monitor">
	</g>
	<g id="Monitor_running_apps">
	</g>
	<g id="Mouse">
	</g>
	<g id="Network_card">
	</g>
	<g id="Not_allowed">
	</g>
	<g id="Performance">
	</g>
	<g id="Phone">
	</g>
	<g id="Plug_and_play">
	</g>
	<g id="Powershell_script_file">
	</g>
	<g id="Protocol_stack">
	</g>
	<g id="Queue_x2C__general">
	</g>
	<g id="RMS_connector">
	</g>
	<g id="Router">
	</g>
	<g id="Script_file">
	</g>
	<g id="Secure_virtual_machine">
		<g>
			<polygon fill-rule="evenodd" clip-rule="evenodd" fill="#2A3282" points="43.4,33.7 37.5,30.3 31.7,33.7 31.7,33.8 37.5,37.2 
				43.4,33.8 43.4,33.7 43.4,33.7 			"/>
			<polygon fill-rule="evenodd" clip-rule="evenodd" fill="#2A3282" points="38.1,38.5 38.1,45.2 44,41.8 44,35.1 38.1,38.5 
				38.1,38.5 			"/>
			<polygon fill-rule="evenodd" clip-rule="evenodd" fill="#2A3282" points="37,38.5 31.1,35.1 31.1,41.8 37,45.2 37,38.5 37,38.5 
							"/>
			<path fill="#2A3282" d="M62.7,43c-4.6,2.1-5.5-2.1-7.5-2.1c-2,0-2.9,4.2-7.5,2.1c-1-0.5-1.7,0.4-1.7,1.3c0,12.5,9.2,15,9.2,15
				s9.2-2.5,9.2-15C64.4,43.4,63.8,42.4,62.7,43z"/>
			<path fill-rule="evenodd" clip-rule="evenodd" fill="#2A3282" d="M48.4,57c-5.8-0.1-6.6-0.7-5.5-4.8h2.6c-0.4-0.9-0.7-1.9-0.9-3
				H21.9L22,27.1l32,0.1v11.9c0.4-0.1,0.7-0.2,1.2-0.2c0.7,0,1.3,0.2,1.8,0.5V26.2c0-1.1-1.2-2-2.3-2H21.1c-1.1,0-2.1,0.9-2.1,2.1
				v23.8c0,1.1,0.9,2.2,2.1,2.2h11.5c1.2,4.4,0.7,4.8-6.6,4.8v2.2h24v-0.7C49.5,58.1,48.9,57.6,48.4,57z"/>
		</g>
	</g>
</g>
<g id="paths">
	<g id="Access_control">
	</g>
	<g id="Azure_active_directory">
	</g>
	<g id="Generic_code">
	</g>
	<g id="Laptop">
	</g>
	<g id="Load_balancer">
	</g>
	<g id="Lock_x2C__protected">
	</g>
</g>
<g id="symbols">
</g>
<g id="slices">
</g>
</svg>
