<?xml version="1.0" encoding="utf-8"?>
<!-- Generator: Adobe Illustrator 18.1.0, SVG Export Plug-In . SVG Version: 6.00 Build 0)  -->
<!DOCTYPE svg PUBLIC "-//W3C//DTD SVG 1.0//EN" "http://www.w3.org/TR/2001/REC-SVG-20010904/DTD/svg10.dtd">
<svg version="1.0" xmlns="http://www.w3.org/2000/svg" xmlns:xlink="http://www.w3.org/1999/xlink" x="0px" y="0px"
	 viewBox="0 0 83.4 83.4" enable-background="new 0 0 83.4 83.4" xml:space="preserve">
<g id="Layer_1">
	<g id="File_x2C__general">
		<title>Sheet.1071</title>
	</g>
	<g id="Message">
	</g>
	<g id="Monitor">
	</g>
	<g id="Monitor_running_apps">
	</g>
	<g id="Mouse">
	</g>
	<g id="Network_card">
	</g>
	<g id="Not_allowed">
	</g>
	<g id="Performance">
	</g>
	<g id="Phone">
	</g>
	<g id="Plug_and_play">
	</g>
	<g id="Powershell_script_file">
	</g>
	<g id="Protocol_stack">
	</g>
	<g id="Queue_x2C__general">
	</g>
	<g id="RMS_connector">
	</g>
	<g id="Router">
	</g>
	<g id="Script_file">
	</g>
	<g id="Secure_virtual_machine">
	</g>
	<g>
		<g>
			<path fill="#2A3282" d="M43.7,21.2h-16c-1.1,0-2,0.9-2,2v39h11v-4h-8v-2h8v-2h-8v-2h8v-6h1v-1h6c0.6,0,1,0,2,0v-22
				C45.7,22.1,44.8,21.2,43.7,21.2z M42.7,29.2h-14v-2h14V29.2z"/>
		</g>
		<g>
			<path fill-rule="evenodd" clip-rule="evenodd" fill="#2A3282" d="M44.2,50.1c0.7,0,1.3,0.6,1.3,1.2c0,0.7-0.6,1.2-1.3,1.2
				c-0.7,0-1.3-0.6-1.3-1.2C43,50.6,43.5,50.1,44.2,50.1L44.2,50.1z"/>
			<path fill-rule="evenodd" clip-rule="evenodd" fill="#2A3282" d="M46.5,54.4c-0.2-1-0.3-1.1-1.3-1.3c0,0,0,0-0.1,0
				c-0.1,0-0.2,0-0.2,0c-0.1,0.3-0.6,1-0.7,1.2c0,0,0,0,0,0h0h0c0,0,0,0,0,0C44,54,43.5,53.3,43.4,53c0,0-0.1,0-0.2,0
				c0,0-0.1,0-0.1,0c-1,0.2-1.1,0.3-1.3,1.3c0,0.2,0,0.3,0,0.4c0,0.4,1.1,0.6,2.3,0.6h0h0c1.3,0,2.3-0.3,2.3-0.6
				C46.6,54.7,46.6,54.6,46.5,54.4L46.5,54.4z"/>
			<path fill-rule="evenodd" clip-rule="evenodd" fill="#2A3282" d="M52.1,50c0.7,0,1.3,0.5,1.3,1.2c0,0.7-0.6,1.2-1.3,1.2
				c-0.7,0-1.3-0.5-1.3-1.2C50.9,50.6,51.4,50,52.1,50L52.1,50z"/>
			<path fill-rule="evenodd" clip-rule="evenodd" fill="#2A3282" d="M54.5,54.4c-0.2-1-0.3-1.1-1.3-1.3c0,0,0,0-0.1,0
				c-0.1,0-0.2,0-0.2,0c-0.1,0.3-0.6,1-0.8,1.2c0,0,0,0,0,0h0h0c0,0,0,0,0,0C52,54,51.4,53.3,51.3,53c0,0-0.1,0-0.2,0
				c0,0-0.1,0-0.1,0c-1,0.2-1.1,0.3-1.3,1.3c0,0.2,0,0.3,0,0.3c0,0.4,1.1,0.6,2.4,0.6h0h0c1.3,0,2.3-0.3,2.4-0.6
				C54.5,54.7,54.5,54.6,54.5,54.4L54.5,54.4z"/>
			<rect x="49.7" y="57" fill-rule="evenodd" clip-rule="evenodd" fill="#2A3282" width="5" height="1"/>
			<rect x="49.7" y="59" fill-rule="evenodd" clip-rule="evenodd" fill="#2A3282" width="5" height="1"/>
			<rect x="41.7" y="57" fill-rule="evenodd" clip-rule="evenodd" fill="#2A3282" width="5" height="1"/>
			<rect x="41.7" y="59" fill-rule="evenodd" clip-rule="evenodd" fill="#2A3282" width="5" height="1"/>
			<path fill-rule="evenodd" clip-rule="evenodd" fill="#2A3282" d="M57.7,51.2v-3h-1v-1h-4.8c-1.2,0-2.5,0.4-3.5,0.9H48
				c-1.1-0.5-2.3-0.9-3.5-0.9h-4.8v1h-1v14h18.4V60h-0.5v-0.8h1v-3h-1v-1h1v-2.9h-1v-1.1H57.7z M44.7,61.1h-4.3V47.9h4.3
				c1.1,0,2.3,0.4,3.3,0.9v13.1C46.9,61.4,45.8,61.1,44.7,61.1z M55.9,61.1h-4.3c-1.1,0-2.3,0.2-3.3,0.7V48.8c1-0.5,2.1-0.9,3.3-0.9
				h4.3V61.1z"/>
		</g>
	</g>
</g>
<g id="paths">
	<g id="Access_control">
	</g>
	<g id="Azure_active_directory">
	</g>
	<g id="Generic_code">
	</g>
	<g id="Laptop">
	</g>
	<g id="Load_balancer">
	</g>
	<g id="Lock_x2C__protected">
	</g>
</g>
<g id="symbols">
</g>
<g id="slices">
</g>
</svg>
