<?xml version="1.0" encoding="utf-8"?>
<!-- Generator: Adobe Illustrator 18.1.0, SVG Export Plug-In . SVG Version: 6.00 Build 0)  -->
<!DOCTYPE svg PUBLIC "-//W3C//DTD SVG 1.0//EN" "http://www.w3.org/TR/2001/REC-SVG-20010904/DTD/svg10.dtd">
<svg version="1.0" xmlns="http://www.w3.org/2000/svg" xmlns:xlink="http://www.w3.org/1999/xlink" x="0px" y="0px"
	 viewBox="0 0 83.4 83.4" enable-background="new 0 0 83.4 83.4" xml:space="preserve">
<g id="Layer_1">
	<g id="File_x2C__general">
		<title>Sheet.1071</title>
	</g>
	<g id="Message">
	</g>
	<g id="Monitor">
	</g>
	<g id="Monitor_running_apps">
	</g>
	<g id="Mouse">
	</g>
	<g id="Network_card">
	</g>
	<g id="Not_allowed">
	</g>
	<g id="Performance">
	</g>
	<g id="Phone">
	</g>
	<g id="Plug_and_play">
	</g>
	<g id="Powershell_script_file">
	</g>
	<g id="Protocol_stack">
	</g>
	<g id="Queue_x2C__general">
	</g>
	<g id="RMS_connector">
	</g>
	<g id="Router">
	</g>
	<g id="Script_file">
	</g>
	<g id="Secure_virtual_machine">
	</g>
	<g id="Server_farm">
	</g>
	<g id="Server_rack">
	</g>
	<g id="Server_x2F_blade">
		<g>
			<path fill="#2A3282" d="M60.9,35.2H22.5c-0.9,0-1.6,0.7-1.6,1.6v9.7c0,0.9,0.7,1.6,1.6,1.6h38.4c0.9,0,1.6-0.7,1.6-1.6v-9.7
				C62.5,35.9,61.8,35.2,60.9,35.2z M24.4,46.5c-0.8,0-1.5-0.7-1.5-1.5c0-0.8,0.7-1.5,1.5-1.5c0.8,0,1.5,0.7,1.5,1.5
				C25.9,45.9,25.2,46.5,24.4,46.5z M59.4,46H51c-0.3,0-0.5-0.2-0.5-0.5c0-0.3,0.2-0.5,0.5-0.5h8.4c0.3,0,0.5,0.2,0.5,0.5
				C59.9,45.7,59.7,46,59.4,46z M59.4,44.3H51c-0.3,0-0.5-0.2-0.5-0.5c0-0.3,0.2-0.5,0.5-0.5h8.4c0.3,0,0.5,0.2,0.5,0.5
				C59.9,44.1,59.7,44.3,59.4,44.3z M59.4,42.7H51c-0.3,0-0.5-0.2-0.5-0.5c0-0.3,0.2-0.5,0.5-0.5h8.4c0.3,0,0.5,0.2,0.5,0.5
				C59.9,42.5,59.7,42.7,59.4,42.7z"/>
		</g>
	</g>
</g>
<g id="paths">
	<g id="Access_control">
	</g>
	<g id="Azure_active_directory">
	</g>
	<g id="Generic_code">
	</g>
	<g id="Laptop">
	</g>
	<g id="Load_balancer">
	</g>
	<g id="Lock_x2C__protected">
	</g>
</g>
<g id="symbols">
</g>
<g id="slices">
</g>
</svg>
