<?xml version="1.0" encoding="utf-8"?>
<!-- Generator: Adobe Illustrator 18.1.0, SVG Export Plug-In . SVG Version: 6.00 Build 0)  -->
<!DOCTYPE svg PUBLIC "-//W3C//DTD SVG 1.0//EN" "http://www.w3.org/TR/2001/REC-SVG-20010904/DTD/svg10.dtd">
<svg version="1.0" xmlns="http://www.w3.org/2000/svg" xmlns:xlink="http://www.w3.org/1999/xlink" x="0px" y="0px"
	 viewBox="0 0 83.4 83.4" enable-background="new 0 0 83.4 83.4" xml:space="preserve">
<g id="Layer_1">
	<g id="File_x2C__general">
		<title>Sheet.1071</title>
	</g>
	<g id="Message">
	</g>
	<g id="Monitor">
	</g>
	<g id="Monitor_running_apps">
	</g>
	<g id="Mouse">
	</g>
	<g id="Network_card">
	</g>
	<g id="Not_allowed">
	</g>
	<g id="Performance">
	</g>
	<g id="Phone">
	</g>
	<g id="Plug_and_play">
	</g>
	<g id="Powershell_script_file">
	</g>
	<g id="Protocol_stack">
	</g>
	<g id="Queue_x2C__general">
	</g>
	<g id="RMS_connector">
	</g>
	<g id="Router">
	</g>
	<g id="Script_file">
	</g>
	<g id="Secure_virtual_machine">
	</g>
	<g id="Server_farm">
		<g>
			<g>
				<path fill="#2A3282" d="M29.5,26H15.9c-0.9,0-1.7,0.7-1.7,1.7V61h17V27.7C31.2,26.8,30.4,26,29.5,26z M28.2,58h-11v-2h11V58z
					 M28.2,54h-11v-2h11V54z M28.2,33h-11v-2h11V33z"/>
			</g>
			<g>
				<path fill="#2A3282" d="M48.5,25.9H34.9c-0.9,0-1.7,0.7-1.7,1.7v33.3h17V27.6C50.2,26.7,49.4,25.9,48.5,25.9z M47.2,57.9h-11v-2
					h11V57.9z M47.2,53.9h-11v-2h11V53.9z M47.2,32.9h-11v-2h11V32.9z"/>
			</g>
			<g>
				<path fill="#2A3282" d="M67.5,26H53.9c-0.9,0-1.7,0.7-1.7,1.7V61h17V27.7C69.2,26.8,68.4,26,67.5,26z M66.2,58h-11v-2h11V58z
					 M66.2,54h-11v-2h11V54z M66.2,33h-11v-2h11V33z"/>
			</g>
		</g>
	</g>
</g>
<g id="paths">
	<g id="Access_control">
	</g>
	<g id="Azure_active_directory">
	</g>
	<g id="Generic_code">
	</g>
	<g id="Laptop">
	</g>
	<g id="Load_balancer">
	</g>
	<g id="Lock_x2C__protected">
	</g>
</g>
<g id="symbols">
</g>
<g id="slices">
</g>
</svg>
