<?xml version="1.0" encoding="utf-8"?>
<!-- Generator: Adobe Illustrator 18.1.0, SVG Export Plug-In . SVG Version: 6.00 Build 0)  -->
<!DOCTYPE svg PUBLIC "-//W3C//DTD SVG 1.0//EN" "http://www.w3.org/TR/2001/REC-SVG-20010904/DTD/svg10.dtd">
<svg version="1.0" xmlns="http://www.w3.org/2000/svg" xmlns:xlink="http://www.w3.org/1999/xlink" x="0px" y="0px"
	 viewBox="0 0 83.4 83.4" enable-background="new 0 0 83.4 83.4" xml:space="preserve">
<g id="Layer_1">
	<g id="File_x2C__general">
		<title>Sheet.1071</title>
	</g>
	<g id="Message">
	</g>
	<g id="Monitor">
	</g>
	<g id="Monitor_running_apps">
	</g>
	<g id="Mouse">
	</g>
	<g id="Network_card">
	</g>
	<g id="Not_allowed">
	</g>
	<g id="Performance">
	</g>
	<g id="Phone">
	</g>
	<g id="Plug_and_play">
	</g>
	<g id="Powershell_script_file">
	</g>
	<g id="Protocol_stack">
	</g>
	<g id="Queue_x2C__general">
	</g>
	<g id="RMS_connector">
	</g>
	<g id="Router">
	</g>
	<g id="Script_file">
	</g>
	<g id="Secure_virtual_machine">
	</g>
	<g id="Server_farm">
	</g>
	<g id="Server_rack">
	</g>
	<g id="Server_x2F_blade">
	</g>
	<g id="Settings">
	</g>
	<g id="Shared_folder">
		<g>
			<rect x="23.7" y="57.7" fill-rule="evenodd" clip-rule="evenodd" fill="#2A3282" width="12" height="2"/>
			<rect x="47.7" y="57.7" fill-rule="evenodd" clip-rule="evenodd" fill="#2A3282" width="12" height="2"/>
			<rect x="40.7" y="51.1" fill-rule="evenodd" clip-rule="evenodd" fill="#2A3282" width="2" height="2.6"/>
			<path fill="#2A3282" d="M44.8,54.7h-6.3c-1,0-1.9,1-1.9,2v4c0,1,0.8,2,1.9,2h6.3c1,0,1.9-1,1.9-2v-4
				C46.7,55.7,45.8,54.7,44.8,54.7z M44.7,60.7h-6l0,0c0,0,0,0,0,0l0-4c0,0,0,0,0,0h6l0,0l0,0L44.7,60.7
				C44.7,60.7,44.7,60.7,44.7,60.7z"/>
			<path fill="#2A3282" d="M46.2,20.7c-1.5,0-2.4,0.5-3.2,1.3l0,0l0,0L40,25.4c-0.2,0.2-0.6,0.4-0.8,0.4H26.6
				c-1.6,0-2.9,1.3-2.9,2.9v20.1c0,1.6,1.3,2.9,2.9,2.9h30.3c1.6,0,2.9-1.3,2.9-2.9V27.1c0-1.1-0.6-2.4-1.3-3.2L56.5,22
				c-0.8-0.8-1.8-1.3-3.2-1.3H46.2L46.2,20.7z"/>
		</g>
	</g>
</g>
<g id="paths">
	<g id="Access_control">
	</g>
	<g id="Azure_active_directory">
	</g>
	<g id="Generic_code">
	</g>
	<g id="Laptop">
	</g>
	<g id="Load_balancer">
	</g>
	<g id="Lock_x2C__protected">
	</g>
</g>
<g id="symbols">
</g>
<g id="slices">
</g>
</svg>
