<?xml version="1.0" encoding="utf-8"?>
<!-- Generator: Adobe Illustrator 19.1.0, SVG Export Plug-In . SVG Version: 6.00 Build 0)  -->
<svg version="1.1" id="Layer_1" xmlns="http://www.w3.org/2000/svg" xmlns:xlink="http://www.w3.org/1999/xlink" x="0px" y="0px"
	 viewBox="0 0 16 16" style="enable-background:new 0 0 16 16;" xml:space="preserve">
<style type="text/css">
	.st0{fill:#0078D7;}
	.st1{fill:#FFFFFF;}
</style>
<g>
	<path class="st0" d="M3.5,2.2C3.3,2,3.1,1.8,2.9,1.6c-0.5-0.3-1-0.5-1-0.5L1.2,0.9C1.1,1.1,1,1.2,1,1.5c0,0.9,0.3,1.1,0.3,1.1h2.4
		C3.6,2.5,3.5,2.4,3.5,2.2z"/>
	<path class="st0" d="M3.9,14.6c0.2-0.2,0.3-0.5,0.3-0.9v-0.5h0.5H12c0-0.2,0-0.4,0-0.5c0-2.6,2.3-6.4,2.3-9.4
		c0-2.4-2.3-2.7-2.3-2.7H3.8H2c0,0,1.8,0.4,2.2,2C4.3,2.8,4.3,3,4.3,3.3c0,3-2.3,6.8-2.3,9.4c0,0.3,0,0.7,0.1,1
		c0.1,0.3,0.2,0.5,0.4,0.7c0.1,0.1,0.2,0.2,0.4,0.3c0.1,0.1,0.3,0.2,0.4,0.2C3.5,14.9,3.7,14.8,3.9,14.6z"/>
	<path class="st0" d="M3.4,15.4"/>
	<path class="st0" d="M4.7,13.8c0,0.5-0.2,1-0.4,1.2c-0.3,0.3-0.9,0.4-0.9,0.4l9.8,0h0.3c0,0,0,0,0,0c0.3,0,0.6-0.2,0.8-0.5
		c0.2-0.3,0.3-0.7,0.3-1.2h-2.5L4.7,13.8L4.7,13.8z"/>
</g>
<g>
	<path class="st1" d="M9,7.2c0,0-0.1-0.1-0.2-0.1L8.6,7.2c-0.1,0-0.1,0-0.2,0L8.3,7c0,0-0.1-0.1,0-0.2l0.1-0.2c0-0.1,0-0.1-0.1-0.1
		L7.8,6.3c-0.1,0-0.1,0-0.1,0.1L7.5,6.6c0,0.1-0.1,0.1-0.1,0.1l-0.2,0C7.1,6.7,7,6.6,7,6.6L6.8,6.4c0-0.1-0.1-0.1-0.1-0.1
		c0,0-0.1,0-0.2,0.1C6.3,6.4,6.2,6.5,6.2,6.5c0,0-0.1,0.1-0.1,0.2l0.1,0.2c0,0.1,0,0.1,0,0.2L6.1,7.3c0,0-0.1,0.1-0.2,0L5.6,7.2
		c-0.1,0-0.1,0-0.1,0.1L5.3,7.8c0,0.1,0,0.1,0.1,0.1L5.6,8c0.1,0,0.1,0.1,0.1,0.1l0,0.2c0,0.1,0,0.1-0.1,0.2L5.4,8.7
		c-0.1,0-0.1,0.1-0.1,0.1c0,0,0,0.1,0.1,0.2c0.1,0.1,0.1,0.2,0.1,0.2c0,0,0.1,0.1,0.2,0.1l0.2-0.1c0.1,0,0.1,0,0.2,0l0.2,0.2
		c0,0,0.1,0.1,0,0.2L6.3,9.9c0,0.1,0,0.1,0.1,0.1l0.5,0.2c0.1,0,0.1,0,0.1-0.1l0.1-0.2c0-0.1,0.1-0.1,0.1-0.1l0.2,0
		c0.1,0,0.1,0,0.2,0.1l0.1,0.2c0,0.1,0.1,0.1,0.1,0.1c0,0,0.1,0,0.2-0.1C8.2,10.1,8.3,10,8.3,10c0,0,0.1-0.1,0.1-0.2L8.3,9.6
		c0-0.1,0-0.1,0-0.2l0.2-0.2c0,0,0.1-0.1,0.2,0l0.2,0.1c0.1,0,0.1,0,0.1-0.1l0.2-0.5c0-0.1,0-0.1-0.1-0.1L9,8.5
		c-0.1,0-0.1-0.1-0.1-0.1l0-0.2c0-0.1,0-0.1,0.1-0.2l0.2-0.1c0.1,0,0.1-0.1,0.1-0.1c0,0,0-0.1-0.1-0.2C9.1,7.3,9,7.2,9,7.2z
		 M7.5,8.7c-0.3,0.1-0.6,0-0.7-0.3c-0.1-0.3,0-0.6,0.3-0.7c0.3-0.1,0.6,0,0.7,0.3C7.9,8.3,7.8,8.6,7.5,8.7z"/>
	<path class="st1" d="M11.6,5.4c0,0-0.1-0.1-0.1-0.1l-0.2,0c-0.1,0-0.1,0-0.1-0.1L11,5c0,0,0-0.1,0-0.1l0.1-0.2c0,0,0-0.1,0-0.1
		l-0.3-0.3c0,0-0.1,0-0.1,0l-0.2,0.1c0,0-0.1,0-0.1,0l-0.2-0.1c0,0-0.1-0.1-0.1-0.1l0-0.2c0-0.1,0-0.1-0.1-0.1c0,0-0.1,0-0.2,0
		c-0.1,0-0.2,0-0.2,0c0,0-0.1,0.1-0.1,0.1l0,0.2c0,0.1,0,0.1-0.1,0.1L9.2,4.4c0,0-0.1,0-0.1,0L8.9,4.2c0,0-0.1,0-0.1,0L8.4,4.6
		c0,0,0,0.1,0,0.1l0.1,0.2c0,0,0,0.1,0,0.1L8.5,5.2c0,0-0.1,0.1-0.1,0.1l-0.2,0c-0.1,0-0.1,0-0.1,0.1c0,0,0,0.1,0,0.2
		c0,0.1,0,0.2,0,0.2c0,0,0.1,0.1,0.1,0.1l0.2,0c0.1,0,0.1,0,0.1,0.1l0.1,0.2c0,0,0,0.1,0,0.1L8.4,6.6c0,0,0,0.1,0,0.1L8.7,7
		c0,0,0.1,0,0.1,0L9,6.9c0,0,0.1,0,0.1,0l0.2,0.1c0,0,0.1,0.1,0.1,0.1l0,0.2c0,0.1,0,0.1,0.1,0.1c0,0,0.1,0,0.2,0c0.1,0,0.2,0,0.2,0
		c0,0,0.1-0.1,0.1-0.1l0-0.2c0-0.1,0-0.1,0.1-0.1l0.2-0.1c0,0,0.1,0,0.1,0L10.8,7c0,0,0.1,0,0.1,0l0.3-0.3c0,0,0-0.1,0-0.1l-0.1-0.2
		c0,0,0-0.1,0-0.1L11.1,6c0,0,0.1-0.1,0.1-0.1l0.2,0c0.1,0,0.1,0,0.1-0.1c0,0,0-0.1,0-0.2C11.6,5.5,11.6,5.4,11.6,5.4z M9.8,6.1
		c-0.3,0-0.5-0.2-0.5-0.5c0-0.3,0.2-0.5,0.5-0.5c0.3,0,0.5,0.2,0.5,0.5C10.3,5.9,10.1,6.1,9.8,6.1z"/>
</g>
</svg>
