<?xml version="1.0" encoding="utf-8"?>
<!-- Generator: Adobe Illustrator 18.1.0, SVG Export Plug-In . SVG Version: 6.00 Build 0)  -->
<!DOCTYPE svg PUBLIC "-//W3C//DTD SVG 1.0//EN" "http://www.w3.org/TR/2001/REC-SVG-20010904/DTD/svg10.dtd">
<svg version="1.0" xmlns="http://www.w3.org/2000/svg" xmlns:xlink="http://www.w3.org/1999/xlink" x="0px" y="0px"
	 viewBox="0 0 83.4 83.4" enable-background="new 0 0 83.4 83.4" xml:space="preserve">
<g id="Layer_1">
	<g id="File_x2C__general">
		<title>Sheet.1071</title>
	</g>
	<g id="Message">
	</g>
	<g id="Monitor">
	</g>
	<g id="Monitor_running_apps">
	</g>
	<g id="Mouse">
	</g>
	<g id="Network_card">
	</g>
	<g id="Not_allowed">
	</g>
	<g id="Performance">
	</g>
	<g id="Phone">
	</g>
	<g id="Plug_and_play">
	</g>
	<g id="Powershell_script_file">
	</g>
	<g id="Protocol_stack">
	</g>
	<g id="Queue_x2C__general">
	</g>
	<g id="RMS_connector">
	</g>
	<g id="Router">
	</g>
	<g id="Script_file">
	</g>
	<g id="Secure_virtual_machine">
	</g>
	<g id="Server_farm">
	</g>
	<g id="Server_rack">
	</g>
	<g id="Server_x2F_blade">
	</g>
	<g id="Settings">
	</g>
	<g id="Shared_folder">
	</g>
	<g id="Smart_card">
	</g>
	<g id="Storage">
	</g>
	<g id="Table_2">
	</g>
	<g id="Tablet">
	</g>
	<g id="Tool">
		<path fill-rule="evenodd" clip-rule="evenodd" fill="#2A3282" d="M41.4,44.5l2.5,2.4l2.8-2.7c-0.2-1.3,0.3-2.7,1.3-3.7
			c1-1,2.5-1.5,3.8-1.3l12.3-11.9l-6.9-6.6L45,32.6c0.1,1.3-0.3,2.7-1.3,3.7c-1,1-2.5,1.4-3.8,1.3L37,40.3l2.5,2.4L27.4,54.4
			L26.9,54l-2.3,1.8l-3.9,6l1,1l6.2-3.8l1.9-2.3l-0.4-0.4L41.4,44.5z M48.4,43.4c-0.1,0.4-0.1,0.8-0.1,1.2l0.1,0.5L48,45.4l-2.8,2.7
			l-1,1l-2.5-2.4L40.4,48l13.7,13.3c0.9,0.9,2,1.3,3.2,1.3c1.2,0,2.3-0.4,3.2-1.3c1.8-1.7,1.8-4.5,0-6.2L48.4,43.4z M31.8,39.8
			L31.8,39.8l4.1,4l1.3-1.3l-1.7-1.7l-0.8-0.7L39,36l0.5,0.1c0.1,0,0.3,0,0.4,0c0.3,0,0.5,0,0.8-0.1l-2.5-2.4L38,33.5
			c0.9-3.1,0.1-6.6-2.4-9c-2.5-2.4-6.1-3.2-9.3-2.4l5.4,5.2l-1.4,5.2L25,33.8l-5.4-5.3c-0.9,3.1,0,6.5,2.5,9
			C24.7,40.1,28.5,40.8,31.8,39.8z"/>
	</g>
</g>
<g id="paths">
	<g id="Access_control">
	</g>
	<g id="Azure_active_directory">
	</g>
	<g id="Generic_code">
	</g>
	<g id="Laptop">
	</g>
	<g id="Load_balancer">
	</g>
	<g id="Lock_x2C__protected">
	</g>
</g>
<g id="symbols">
</g>
<g id="slices">
</g>
</svg>
