<?xml version="1.0" encoding="utf-8"?>
<!-- Generator: Adobe Illustrator 19.1.0, SVG Export Plug-In . SVG Version: 6.00 Build 0)  -->
<svg version="1.1" id="Layer_1" xmlns="http://www.w3.org/2000/svg" xmlns:xlink="http://www.w3.org/1999/xlink" x="0px" y="0px"
	 viewBox="0 0 16 16" style="enable-background:new 0 0 16 16;" xml:space="preserve">
<style type="text/css">
	.st0{fill:#0078D7;}
	.st1{fill:#FFFFFF;}
</style>
<g>
	<path class="st0" d="M3.8,2.3C3.6,2.1,3.4,1.9,3.2,1.7c-0.5-0.3-1-0.5-1-0.5L1.5,1C1.4,1.2,1.3,1.3,1.3,1.6c0,0.9,0.3,1.1,0.3,1.1
		H4C3.9,2.6,3.9,2.5,3.8,2.3z"/>
	<path class="st0" d="M4.2,14.7c0.2-0.2,0.3-0.5,0.3-0.9v-0.5H5h7.3c0-0.2,0-0.4,0-0.5c0-2.6,2.3-6.4,2.3-9.4c0-2.4-2.3-2.7-2.3-2.7
		H4.1H2.3c0,0,1.8,0.4,2.2,2c0.1,0.2,0.1,0.4,0.1,0.7c0,3-2.3,6.8-2.3,9.4c0,0.3,0,0.7,0.1,1c0.1,0.3,0.2,0.5,0.4,0.7
		c0.1,0.1,0.2,0.2,0.4,0.3C3.3,14.9,3.4,15,3.6,15C3.8,15,4,14.9,4.2,14.7z"/>
	<path class="st0" d="M3.7,15.5"/>
	<path class="st0" d="M5,13.9c0,0.5-0.2,1-0.4,1.2c-0.3,0.3-0.9,0.4-0.9,0.4l9.8,0h0.3c0,0,0,0,0,0c0.3,0,0.6-0.2,0.8-0.5
		c0.2-0.3,0.3-0.7,0.3-1.2h-2.5L5,13.9L5,13.9z"/>
</g>
<path class="st1" d="M11.1,4.4L8.8,6.5h2l-3.9,3.6l1.6-3H6.7l2-3h2.4V4.4z"/>
</svg>
