<?xml version="1.0" encoding="utf-8"?>
<!-- Generator: Adobe Illustrator 18.1.0, SVG Export Plug-In . SVG Version: 6.00 Build 0)  -->
<!DOCTYPE svg PUBLIC "-//W3C//DTD SVG 1.1//EN" "http://www.w3.org/Graphics/SVG/1.1/DTD/svg11.dtd">
<svg version="1.1" id="Layer_1" xmlns="http://www.w3.org/2000/svg" xmlns:xlink="http://www.w3.org/1999/xlink" x="0px" y="0px"
	 viewBox="0 0 792 612" enable-background="new 0 0 792 612" xml:space="preserve">
<g id="Layer_1_1_">
</g>
<g id="Ibiza_Symbols">
	<g>
		<path fill="#2A3282" d="M445.6,268c-11.3-12.5-34.9-7.1-48.4,12.2c-17.3-20.7-37.7-24.7-49-12.2c-31.7,34.6,36.3,84.4,48.7,90.1
			l0,0l0,0l0,0l0,0C409.3,352.5,477.3,302.6,445.6,268z M421.2,328.1c1.7,1.7,1.7,4.3,0,5.9c-0.9,0.9-2,1.1-3.1,1.1
			s-2.3-0.3-3.1-1.1l-18.4-18.4L378.1,334c-0.9,0.9-2,1.1-3.1,1.1c-1.1,0-2.3-0.3-3.1-1.1c-1.7-1.7-1.7-4.3,0-5.9l18.4-18.4
			l-18.4-18.4c-1.7-1.7-1.7-4.3,0-5.9c1.7-1.7,4.3-1.7,5.9,0l18.4,18.4l18.4-18.4c1.7-1.7,4.3-1.7,5.9,0c1.7,1.7,1.7,4.3,0,5.9
			l-18.4,18.4L421.2,328.1z"/>
	</g>
</g>
</svg>
