<?xml version="1.0" encoding="utf-8"?>
<!-- Generator: Adobe Illustrator 18.1.0, SVG Export Plug-In . SVG Version: 6.00 Build 0)  -->
<!DOCTYPE svg PUBLIC "-//W3C//DTD SVG 1.0//EN" "http://www.w3.org/TR/2001/REC-SVG-20010904/DTD/svg10.dtd">
<svg version="1.0" id="Layer_1" xmlns="http://www.w3.org/2000/svg" xmlns:xlink="http://www.w3.org/1999/xlink" x="0px" y="0px"
	 viewBox="0 0 792 612" enable-background="new 0 0 792 612" xml:space="preserve">
<g id="paths">
	<g id="Access_control">
	</g>
	<g id="Azure_active_directory">
	</g>
	<g id="Generic_code">
	</g>
	<g id="Laptop">
	</g>
	<g id="Load_balancer">
	</g>
	<g id="Lock_x2C__protected">
	</g>
</g>
<g id="symbols">
</g>
<g id="slices">
</g>
<g id="USB">
	<path fill="#00188F" d="M457.1,241.9h-38.5v38.5H432c0.4,8.8,0.5,19.9-3.5,23.9c-2.1,2.1-7.7,4.3-12.4,6c-4.6,1.7-9.9,3.7-14.5,6.4
		v-96.2h21.4l-26.1-47l-29.5,47h21.4v125.9c-3-1.9-6.2-3.5-9-5c-4.3-1.7-7.7-3.4-9.8-5.6c-5.2-4.8-7.1-12.7-7.2-30.4
		c8.7-2.7,14.9-10.7,14.9-20.4c0-12-9.4-21.4-21.4-21.4s-21.4,9.4-21.4,21.4c0,9.7,6.2,17.8,15,20.4c0.2,18.6,2.2,30.9,11.1,39.4
		c3.8,3.4,8.5,6,13.2,8.1c9,4.3,14.5,7.7,14.5,13.7v25.7c-9.8,2.8-17.1,12-17.1,22.6c0,12.8,10.7,23.5,23.5,23.5
		s23.5-10.7,23.5-23.5c0-10.6-7.3-19.7-17.1-22.6v-56.1c0-6.4,7.7-9.8,19.2-14.5c6.8-2.6,13.2-4.7,17.1-9c7.5-7.9,7.3-21.1,6.9-32.5
		h12.3V241.9z"/>
</g>
</svg>
