<?xml version="1.0" encoding="utf-8"?>
<!-- Generator: Adobe Illustrator 19.1.0, SVG Export Plug-In . SVG Version: 6.00 Build 0)  -->
<svg version="1.1" id="Layer_1" xmlns="http://www.w3.org/2000/svg" xmlns:xlink="http://www.w3.org/1999/xlink" x="0px" y="0px"
	 viewBox="0 0 16 16" style="enable-background:new 0 0 16 16;" xml:space="preserve">
<style type="text/css">
	.st0{fill:#FFFFFF;}
	.st1{fill:#0078D7;}
	.st2{fill:#0078D7;stroke:#FFFFFF;stroke-width:0.2;stroke-miterlimit:10;}
</style>
<path class="st0" d="M11.7,14.7L11.7,14.7c-0.1,0-0.2-0.1-0.2-0.2V10c0-0.1,0.1-0.2,0.2-0.2h0c0.1,0,0.2,0.1,0.2,0.2v4.6
	C11.9,14.7,11.8,14.7,11.7,14.7z"/>
<circle class="st0" cx="12.4" cy="6.8" r="0.6"/>
<g id="group100-187_4_" transform="translate(43.2593,-3764.95)">
	<title>Sheet.100</title>
	<g id="shape101-188_4_" transform="translate(7.20825,-11.5207)">
		<title>Sheet.101</title>
		<path class="st1" d="M-42.7,3777.2c-2.1,0.5-3.3,2.8-2.7,5.1c0.6,2.3,2.7,3.8,4.8,3.3c2.1-0.5,3.3-2.8,2.7-5.1
			C-38.4,3778.1-40.6,3776.6-42.7,3777.2z"/>
	</g>
	<g id="shape102-190_4_">
		<title>Sheet.102</title>
		<path class="st1" d="M-31,3774.7c-0.4,0-0.8,0.7-1.4,1c-0.6,0.3-1.2,0.8-2.9,0c-1.7-0.8-1.9-1.5-3.3-1.5s-3.7,2.5-3.7,6.2h14.2
			c0,0-0.2-2.5-1-3.8C-30.1,3774.7-30.6,3774.7-31,3774.7z"/>
	</g>
</g>
<g id="Key_x2C__permissions_1_">
	<g id="shape2242-4_1_" transform="translate(1.50075,-1.50075)">
		<title>Sheet.2242</title>
		<path class="st2" d="M12.1,6.8H8.3C8,6.8,7.7,7.1,7.7,7.4v2.6c0,0.3,0.3,0.6,0.7,0.6h0.7v4.7c0,0.6,0.4,1,0.9,1
			c0.5,0,0.9-0.4,0.9-0.9c0.1,0,0.2,0,0.2,0s0-0.5,0-0.6c0-0.2,0.3-0.3,0.3-0.3s0-0.3,0-0.3c-0.3-0.1-0.5-0.3-0.5-0.4v-0.3
			c0.1-0.1,0.2-0.2,0.2-0.2c0.1-0.1,0.3-0.5,0.3-0.5s-0.3-0.4-0.3-0.5C11,12.2,11,12,10.9,11.9v-0.2c0.1-0.5,0.7-1,0.7-1l0,0l0,0
			h0.5c0.3,0,0.6-0.3,0.6-0.6V7.4C12.7,7.1,12.5,6.8,12.1,6.8z M9.9,15.5c0,0.2,0,0.3-0.2,0.3c-0.2,0-0.2-0.2-0.2-0.3v-4.4
			c0-0.2,0.1-0.3,0.2-0.3c0.2,0,0.2,0.2,0.2,0.3V15.5z M10.2,8.4c-0.3,0-0.6-0.3-0.6-0.6c0-0.3,0.3-0.6,0.6-0.6
			c0.3,0,0.6,0.3,0.6,0.6C10.8,8.1,10.6,8.4,10.2,8.4z"/>
	</g>
</g>
</svg>
