<?xml version="1.0" encoding="utf-8"?>
<!-- Generator: Adobe Illustrator 18.1.0, SVG Export Plug-In . SVG Version: 6.00 Build 0)  -->
<!DOCTYPE svg PUBLIC "-//W3C//DTD SVG 1.0//EN" "http://www.w3.org/TR/2001/REC-SVG-20010904/DTD/svg10.dtd">
<svg version="1.0" id="Layer_1" xmlns="http://www.w3.org/2000/svg" xmlns:xlink="http://www.w3.org/1999/xlink" x="0px" y="0px"
	 viewBox="0 0 792 612" enable-background="new 0 0 792 612" xml:space="preserve">
<g id="paths">
	<g id="Access_control">
	</g>
	<g id="Azure_active_directory">
	</g>
	<g id="Generic_code">
	</g>
	<g id="Laptop">
	</g>
	<g id="Load_balancer">
	</g>
	<g id="Lock_x2C__protected">
	</g>
</g>
<g id="symbols">
</g>
<g id="slices">
</g>
<g id="User">
	<title>Sheet.100</title>
	<g>
		<g id="shape101-188_1_" transform="translate(7.20825,-11.5207)">
			<title>Sheet.101</title>
			<path fill="#00188F" d="M380.4,242.5c-21.4,5.1-33.9,28.7-27.9,52.8c6,24,27.9,38.6,49.3,33.5c21.4-5.1,33.9-28.7,27.9-52.8
				C423.7,252.4,401.4,237.4,380.4,242.5z"/>
		</g>
		<g id="shape102-190_1_">
			<title>Sheet.102</title>
			<path fill="#00188F" d="M433.4,323.7c-3.9-0.4-8.6,7.3-14.6,10.3c-6,2.6-12.4,8.1-29.6,0c-17.2-8.1-19.7-15-34.3-15
				s-37.7,25.7-38.2,63h145.8c-0.4,0-1.7-25.7-9.9-39.5C442.9,324.1,437.3,323.7,433.4,323.7z"/>
		</g>
	</g>
</g>
</svg>
