<?xml version="1.0" encoding="utf-8"?>
<!-- Generator: Adobe Illustrator 18.1.0, SVG Export Plug-In . SVG Version: 6.00 Build 0)  -->
<!DOCTYPE svg PUBLIC "-//W3C//DTD SVG 1.0//EN" "http://www.w3.org/TR/2001/REC-SVG-20010904/DTD/svg10.dtd">
<svg version="1.0" id="Layer_1" xmlns="http://www.w3.org/2000/svg" xmlns:xlink="http://www.w3.org/1999/xlink" x="0px" y="0px"
	 viewBox="0 0 792 612" enable-background="new 0 0 792 612" xml:space="preserve">
<g id="paths">
	<g id="Access_control">
	</g>
	<g id="Azure_active_directory">
	</g>
	<g id="Generic_code">
	</g>
	<g id="Laptop">
	</g>
	<g id="Load_balancer">
	</g>
	<g id="Lock_x2C__protected">
	</g>
</g>
<g id="symbols">
</g>
<g id="slices">
</g>
<g id="User">
</g>
<g id="Video">
	<path fill="#00188F" d="M477.5,218.7v8.6h-17.2v-8.6H331.7v8.6h-17.2v-8.6h-8.6v184.4h8.6v-8.6h17.2v8.6h128.7v-8.6h17.2v8.6h8.6
		V218.7H477.5z M331.7,381.7h-17.2v-12.9h17.2V381.7z M331.7,355.9h-17.2v-12.9h17.2V355.9z M331.7,330.2h-17.2v-12.9h17.2V330.2z
		 M331.7,304.5h-17.2v-12.9h17.2V304.5z M331.7,278.7h-17.2v-12.9h17.2V278.7z M331.7,253h-17.2v-12.9h17.2V253z M451.8,390.3H340.2
		v-72.9h111.5V390.3z M451.8,304.5H340.2v-72.9h111.5V304.5z M477.5,381.7h-17.2v-12.9h17.2V381.7z M477.5,355.9h-17.2v-12.9h17.2
		V355.9z M477.5,330.2h-17.2v-12.9h17.2V330.2z M477.5,304.5h-17.2v-12.9h17.2V304.5z M477.5,278.7h-17.2v-12.9h17.2V278.7z
		 M477.5,253h-17.2v-12.9h17.2V253z"/>
</g>
</svg>
