<?xml version="1.0" encoding="utf-8"?>
<!-- Generator: Adobe Illustrator 18.1.0, SVG Export Plug-In . SVG Version: 6.00 Build 0)  -->
<!DOCTYPE svg PUBLIC "-//W3C//DTD SVG 1.0//EN" "http://www.w3.org/TR/2001/REC-SVG-20010904/DTD/svg10.dtd">
<svg version="1.0" id="Layer_1" xmlns="http://www.w3.org/2000/svg" xmlns:xlink="http://www.w3.org/1999/xlink" x="0px" y="0px"
	 viewBox="0 0 792 612" enable-background="new 0 0 792 612" xml:space="preserve">
<g id="paths">
	<g id="Access_control">
	</g>
	<g id="Azure_active_directory">
	</g>
	<g id="Generic_code">
	</g>
	<g id="Laptop">
	</g>
	<g id="Load_balancer">
	</g>
	<g id="Lock_x2C__protected">
	</g>
</g>
<g id="symbols">
</g>
<g id="slices">
</g>
<g id="User">
</g>
<g id="Video">
</g>
<g id="Virtual_machine_2">
	<g>
		<path fill="#00188F" d="M537.6,183.9H273c-8.7,0-16.5,7.1-16.5,16.5v187.5c0,8.7,7.1,17.3,16.5,17.3h90.6
			c9.5,34.7,5.5,37.8-52,37.8v17.3h189v-17.3c-57.5,0-65.4-3.2-55.9-37.8h92.9c8.7,0,18.1-7.9,18.1-15.8v-189
			C555.8,191,546.3,183.9,537.6,183.9L537.6,183.9z M532.1,380.8H278.5l1.6-174.1l252,0.8V380.8z"/>
		<polygon fill="#00188F" points="448.6,259.6 402.2,232.8 356.5,259.6 356.5,260.3 402.2,287.1 448.6,260.3 448.6,259.6 		"/>
		<polygon fill="#00188F" points="406.1,297.4 406.1,350.1 453.4,323.4 453.4,270.6 406.1,297.4 		"/>
		<polygon fill="#00188F" points="398.2,297.4 351,270.6 351,323.4 398.2,350.1 398.2,297.4 		"/>
	</g>
</g>
</svg>
