<?xml version="1.0" encoding="utf-8"?>
<!-- Generator: Adobe Illustrator 18.1.0, SVG Export Plug-In . SVG Version: 6.00 Build 0)  -->
<!DOCTYPE svg PUBLIC "-//W3C//DTD SVG 1.0//EN" "http://www.w3.org/TR/2001/REC-SVG-20010904/DTD/svg10.dtd">
<svg version="1.0" id="Layer_1" xmlns="http://www.w3.org/2000/svg" xmlns:xlink="http://www.w3.org/1999/xlink" x="0px" y="0px"
	 viewBox="0 0 792 612" enable-background="new 0 0 792 612" xml:space="preserve">
<g id="paths">
	<g id="Access_control">
	</g>
	<g id="Azure_active_directory">
	</g>
	<g id="Generic_code">
	</g>
	<g id="Laptop">
	</g>
	<g id="Load_balancer">
	</g>
	<g id="Lock_x2C__protected">
	</g>
</g>
<g id="symbols">
</g>
<g id="slices">
</g>
<g id="User">
</g>
<g id="Video">
</g>
<g id="Virtual_machine_2">
</g>
<g id="Web">
</g>
<g id="Web_server">
	<g>
		<path fill="#00188F" d="M441.7,498.8c-42.5,0-77.2-34.7-77.2-77.2s34.7-77.2,77.2-77.2s77.2,34.7,77.2,77.2
			C518.9,464.2,484.2,498.8,441.7,498.8z M422.8,458.7c5.5,18.9,13.4,28.4,18.9,28.4c5.5,0,14.2-8.7,18.9-28.4
			c-6.3-0.8-12.6-1.6-18.9-1.6S429.1,457.9,422.8,458.7z M394.4,465.8c7.1,7.9,15.8,13.4,25.2,16.5c-3.9-6.3-6.3-13.4-8.7-22.1
			C404.7,461.8,399.2,463.4,394.4,465.8z M473.2,460.3c-2.4,8.7-5.5,15.8-8.7,22.1c9.5-3.2,18.1-9.5,25.2-17.3
			C485,463.4,479.5,461.8,473.2,460.3z M377.1,427.2c0.8,10.2,3.9,18.9,9.5,28.4c6.3-3.2,13.4-5.5,21.3-7.1
			c-1.6-7.1-1.6-14.2-2.4-21.3H377.1z M475.6,449.2c7.9,1.6,15.8,3.9,21.3,7.1c5.5-9.5,8.7-18.1,9.5-28.4h-29.1
			C477.9,435,477.1,441.4,475.6,449.2z M418.1,427.2c0,6.3,0.8,12.6,1.6,18.9c7.1-0.8,15-1.6,22.1-1.6s14.2,0.8,22.1,1.6
			c0.8-6.3,1.6-12.6,1.6-18.9H418.1z M507.1,414.6c-0.8-11-4.7-21.3-11-30.7c-6.3,3.2-13.4,5.5-20.5,7.1c1.6,7.1,2.4,15,2.4,23.6
			H507.1z M466.1,414.6c0-7.1-0.8-15-2.4-21.3c-7.1,0.8-14.2,1.6-21.3,1.6c-7.1,0-14.2-0.8-21.3-1.6c-1.6,6.3-2.4,14.2-2.4,21.3
			H466.1z M406.2,414.6c0-7.9,0.8-15.8,2.4-23.6c-7.9-1.6-14.2-3.9-20.5-7.1c-6.3,9.5-10.2,19.7-11.8,30.7H406.2z M423.6,382.3
			c6.3,0.8,12.6,1.6,18.9,1.6s12.6-0.8,18.9-1.6c-5.5-18.1-13.4-26-18.9-26C436.2,356.3,428.3,364.2,423.6,382.3z M396,375.2
			c4.7,1.6,10.2,3.9,15.8,4.7c2.4-7.9,4.7-14.2,8.7-19.7C411,363.4,403.1,368.1,396,375.2z M464.5,360.2c3.2,5.5,6.3,12.6,8.7,19.7
			c5.5-1.6,11-3.2,15.8-4.7C481.1,368.1,473.2,363.4,464.5,360.2z"/>
		<path fill="#00188F" d="M441.7,346c-41,0-74.8,33.9-74.8,74.8s33.9,74.8,74.8,74.8s74.8-33.9,74.8-74.8
			C516.5,379.9,483.4,346,441.7,346L441.7,346z M441.7,488.6c-8.7,0-17.3-12.6-22.1-32.3c7.1-0.8,15-1.6,22.1-1.6s15,0.8,22.1,1.6
			C459,476.8,450.3,488.6,441.7,488.6L441.7,488.6z M441.7,447.7c-7.9,0-15.8,0.8-23.6,1.6c-1.6-7.9-2.4-15-2.4-24.4h52.8
			c0,9.5-0.8,16.5-2.4,24.4C458.2,448.4,450.3,447.7,441.7,447.7L441.7,447.7z M441.7,353.9c7.9,0,16.5,11.8,22.1,30.7
			c-7.1,0.8-14.2,1.6-22.1,1.6c-7.1,0-15-0.8-22.1-1.6C425.1,364.9,433.8,353.9,441.7,353.9L441.7,353.9z M441.7,392.5
			c7.9,0,15.8-0.8,23.6-1.6c1.6,7.9,2.4,16.5,3.2,26h-52.8c0-9.5,1.6-18.9,3.2-26C425.9,392.5,433.8,392.5,441.7,392.5L441.7,392.5z
			 M408.6,416.9h-34.7c0.8-13.4,6.3-26,13.4-35.4c7.1,3.2,15,6.3,24.4,7.9c-1.6,7.9-2.4,16.5-3.2,26L408.6,416.9L408.6,416.9z
			 M408.6,424.8c0,9.5,0.8,17.3,2.4,25.2c-9.5,1.6-18.1,4.7-25.2,7.9c-7.1-10.2-11-21.3-11-33.9h33.9V424.8L408.6,424.8z
			 M475.6,424.8h33.9c-0.8,12.6-4.7,23.6-11,33.9c-7.1-3.2-15.8-6.3-25.2-7.9C474.8,442.1,475.6,435,475.6,424.8L475.6,424.8z
			 M475.6,416.9c0-9.5-1.6-19.7-3.2-27.6c8.7-1.6,17.3-4.7,24.4-7.9c7.1,10.2,11.8,22.8,12.6,35.4H475.6v-1.6V416.9z M492.1,376
			c-6.3,3.2-13.4,5.5-21.3,7.1c-3.2-11-7.1-20.5-12.6-26.8C471.6,359.4,483.4,366.5,492.1,376L492.1,376z M425.9,355.5
			c-5.5,6.3-9.5,15.8-12.6,26.8c-7.9-1.6-15-3.9-21.3-7.1C400.7,366.5,412.5,359.4,425.9,355.5L425.9,355.5z M390.5,465
			c6.3-3.2,14.2-5.5,22.1-7.1c3.2,12.6,7.9,22.1,12.6,29.1C411.8,483.1,399.2,475.2,390.5,465L390.5,465z M458.2,487
			c5.5-7.1,10.2-16.5,13.4-29.1c8.7,1.6,15.8,3.9,22.1,7.1C485,475.2,472.4,483.1,458.2,487L458.2,487z"/>
		<g>
			<path fill="#00188F" d="M351.9,416.9c1.6-44.1,35.4-80.3,78.8-85.9V187.7c0-8.7-7.1-15.8-15.8-15.8h-126
				c-8.7,0-15.8,7.1-15.8,15.8v307.2h118.1c-11.8-7.9-21.3-18.9-28.4-31.5h-66.2v-15.8h59.1c-1.6-4.7-2.4-10.2-3.2-15.8h-55.9v-15.8
				h55.1V416.9z M296.8,220H407v15.8H296.8V220z"/>
		</g>
	</g>
</g>
</svg>
