<?xml version="1.0" encoding="UTF-8" standalone="no"?>
<!DOCTYPE svg PUBLIC "-//W3C//DTD SVG 1.1//EN" "http://www.w3.org/Graphics/SVG/1.1/DTD/svg11.dtd">
<!-- Generated by Microsoft Visio, SVG Export Web site Generic.svg Page-1 -->
<svg xmlns="http://www.w3.org/2000/svg" xmlns:xlink="http://www.w3.org/1999/xlink" xmlns:ev="http://www.w3.org/2001/xml-events"
		xmlns:v="http://schemas.microsoft.com/visio/2003/SVGExtensions/" width="0.689535in" height="1.0625in"
		viewBox="0 0 49.6465 76.5" xml:space="preserve" color-interpolation-filters="sRGB" class="st5">
	<v:documentProperties v:langID="1033" v:viewMarkup="false">
		<v:userDefs>
			<v:ud v:nameU="visTLShowProps" v:prompt="" v:val="VT0(0):26"/>
		</v:userDefs>
	</v:documentProperties>

	<style type="text/css">
	<![CDATA[
		.st1 {fill:#ffffff;stroke:none;stroke-linecap:butt;stroke-width:0.75}
		.st2 {fill:#7f7f7f;stroke:none;stroke-linecap:butt;stroke-width:0.75}
		.st3 {fill:#7f7f7f;font-family:Segoe UI;font-size:0.75em}
		.st4 {font-size:1em}
		.st5 {fill:none;fill-rule:evenodd;font-size:12px;overflow:visible;stroke-linecap:square;stroke-miterlimit:3}
	]]>
	</style>

	<g v:mID="0" v:index="1" v:groupContext="foregroundPage">
		<title>Page-1</title>
		<v:pageProperties v:drawingScale="1" v:pageScale="1" v:drawingUnits="19" v:shadowOffsetX="2.83465"
				v:shadowOffsetY="-2.83465" v:shadowType="1"/>
		<g id="group1376-1" transform="translate(7.53861,-36)" v:mID="1376" v:groupContext="group">
			<title>WebSite (generic)</title>
			<desc>website (generic)</desc>
			<g id="group1377-2" transform="translate(-2.07834E-13,-6.55674)" v:mID="1377" v:groupContext="group">
				<title>base_copy_4</title>
				<g id="shape1378-3" v:mID="1378" v:groupContext="shape">
					<title>Sheet.1378</title>
					<rect x="0" y="46.7425" width="34.8012" height="29.7575" class="st1"/>
				</g>
				<g id="shape1379-5" v:mID="1379" v:groupContext="shape" transform="translate(1.00873,-1.00873)">
					<title>Sheet.1379</title>
					<rect x="0" y="48.7599" width="32.7837" height="27.7401" class="st2"/>
				</g>
				<g id="shape1380-7" v:mID="1380" v:groupContext="shape" transform="translate(2.01746,-2.01746)">
					<title>Sheet.1380</title>
					<rect x="0" y="56.3254" width="30.7662" height="20.1746" class="st1"/>
				</g>
			</g>
			<g id="group1381-9" transform="translate(5.54801,-10.5917)" v:mID="1381" v:groupContext="group">
				<title>Layer_10</title>
				<g id="shape1382-10" v:mID="1382" v:groupContext="shape" transform="translate(8.06983,-10.5917)">
					<title>Sheet.1382</title>
					<rect x="0" y="70.952" width="8.06983" height="5.54801" class="st2"/>
				</g>
				<g id="shape1383-12" v:mID="1383" v:groupContext="shape">
					<title>Sheet.1383</title>
					<rect x="0" y="71.9607" width="6.05238" height="4.53928" class="st2"/>
				</g>
				<g id="shape1384-14" v:mID="1384" v:groupContext="shape" transform="translate(9.07856,0)">
					<title>Sheet.1384</title>
					<rect x="0" y="71.9607" width="6.05238" height="4.53928" class="st2"/>
				</g>
				<g id="shape1385-16" v:mID="1385" v:groupContext="shape" transform="translate(18.1571,0)">
					<title>Sheet.1385</title>
					<rect x="0" y="71.9607" width="6.05238" height="4.53928" class="st2"/>
				</g>
				<g id="shape1386-18" v:mID="1386" v:groupContext="shape" transform="translate(11.6004,-4.03492)">
					<title>Sheet.1386</title>
					<rect x="0" y="68.9345" width="1.00873" height="7.56547" class="st2"/>
				</g>
				<g id="shape1387-20" v:mID="1387" v:groupContext="shape" transform="translate(2.52182,-4.53928)">
					<title>Sheet.1387</title>
					<rect x="0" y="73.4738" width="1.00873" height="3.02619" class="st2"/>
				</g>
				<g id="shape1388-22" v:mID="1388" v:groupContext="shape" transform="translate(2.52182,-7.0611)">
					<title>Sheet.1388</title>
					<rect x="0" y="75.4913" width="19.1659" height="1.00873" class="st2"/>
				</g>
				<g id="shape1389-24" v:mID="1389" v:groupContext="shape" transform="translate(20.6789,-4.53928)">
					<title>Sheet.1389</title>
					<rect x="0" y="73.4738" width="1.00873" height="3.02619" class="st2"/>
				</g>
			</g>
			<g id="group1390-26" transform="translate(18.6615,0)" v:mID="1390" v:groupContext="group">
				<title>Layer_5</title>
				<g id="shape1391-27" v:mID="1391" v:groupContext="shape">
					<title>Sheet.1391</title>
					<ellipse cx="11.3482" cy="65.1518" rx="11.3482" ry="11.3482" class="st1"/>
				</g>
				<g id="shape1392-29" v:mID="1392" v:groupContext="shape" transform="translate(1.07177,-1.00873)">
					<title>Sheet.1392</title>
					<path d="M10.31 55.88 C4.62 55.88 0 60.51 0 66.19 C0 71.88 4.62 76.5 10.31 76.5 C15.99 76.5 20.62 71.88 20.62
								 66.19 C20.62 60.51 15.99 55.88 10.31 55.88 ZM10.31 75.51 C9.16 75.51 7.94 73.8 7.24 71.04 C8.24
								 70.89 9.28 70.81 10.31 70.81 C11.34 70.81 12.38 70.89 13.37 71.04 C12.68 73.8 11.45 75.51 10.31
								 75.51 ZM10.31 69.82 C9.21 69.82 8.09 69.91 7.03 70.07 C6.83 69.02 6.71 67.69 6.69 66.41 L13.93 66.41
								 C13.91 67.68 13.79 69.01 13.59 70.07 C12.52 69.91 11.41 69.82 10.31 69.82 ZM10.31 56.88 C11.41 56.88
								 12.59 58.47 13.3 61.06 C12.33 61.21 11.32 61.29 10.31 61.29 C9.3 61.29 8.29 61.21 7.32 61.06 C8.02
								 58.47 9.2 56.88 10.31 56.88 ZM10.31 62.28 C11.41 62.28 12.49 62.19 13.53 62.03 C13.75 63.09 13.89
								 64.11 13.92 65.4 L6.69 65.4 C6.73 64.11 6.87 63.09 7.09 62.03 C8.12 62.19 9.21 62.28 10.31 62.28
								 ZM5.7 65.4 L0.95 65.4 C1.07 63.6 1.78 62.11 2.78 60.73 C3.74 61.21 4.87 61.59 6.11 61.85 C5.88 62.99
								 5.74 64.07 5.7 65.4 ZM5.7 66.41 C5.72 67.72 5.83 69.12 6.05 70.25 C4.73 70.52 3.53 70.9 2.57 71.38
								 C1.64 69.99 1.08 68.19 1.01 66.41 L5.7 66.41 ZM14.92 66.41 L19.6 66.41 C19.53 68.18 18.98 69.98
								 18.05 71.37 C17.09 70.89 15.89 70.51 14.57 70.24 C14.78 69.11 14.9 67.72 14.92 66.41 ZM14.91 65.4
								 C14.88 64.07 14.74 62.99 14.51 61.85 C15.74 61.59 16.87 61.21 17.83 60.73 C18.84 62.11 19.47 63.6
								 19.59 65.4 L14.91 65.4 ZM17.19 59.93 C16.34 60.33 15.36 60.65 14.28 60.88 C13.87 59.32 13.28 58.04
								 12.57 57.17 C14.38 57.62 15.97 58.6 17.19 59.93 ZM8.05 57.17 C7.33 58.04 6.75 59.32 6.33 60.88 C5.26
								 60.65 4.27 60.33 3.43 59.93 C4.64 58.6 6.24 57.62 8.05 57.17 ZM3.19 72.18 C4.05 71.78 5.1 71.45
								 6.26 71.21 C6.67 72.9 7.29 74.29 8.05 75.22 C6.12 74.73 4.43 73.66 3.19 72.18 ZM12.57 75.22 C13.33
								 74.29 13.95 72.9 14.36 71.21 C15.52 71.45 16.57 71.78 17.44 72.18 C16.19 73.65 14.5 74.73 12.57
								 75.22 Z" class="st2"/>
				</g>
			</g>
			<g id="shape1376-31" v:mID="1376" v:groupContext="groupContent">
				<v:textBlock v:margins="rect(0,0,0,0)" v:verticalAlign="0"/>
				<v:textRect cx="17.2114" cy="94.3429" width="49.5" height="36.3143"/>
				<text x="2.08" y="84.29" class="st3" v:langID="1033"><v:paragraph v:horizAlign="1"/><v:tabList/>website<v:newlineChar/><tspan
							x="-0.14" dy="1.2em" class="st4">(generic)</tspan></text>			</g>
		</g>
	</g>
</svg>
