<?xml version="1.0" encoding="utf-8"?>
<!-- Generator: Adobe Illustrator 18.1.0, SVG Export Plug-In . SVG Version: 6.00 Build 0)  -->
<!DOCTYPE svg PUBLIC "-//W3C//DTD SVG 1.0//EN" "http://www.w3.org/TR/2001/REC-SVG-20010904/DTD/svg10.dtd">
<svg version="1.0" id="Layer_1" xmlns="http://www.w3.org/2000/svg" xmlns:xlink="http://www.w3.org/1999/xlink" x="0px" y="0px"
	 viewBox="0 0 792 612" enable-background="new 0 0 792 612" xml:space="preserve">
<g id="paths">
	<g id="Access_control">
	</g>
	<g id="Azure_active_directory">
	</g>
	<g id="Generic_code">
	</g>
	<g id="Laptop">
	</g>
	<g id="Load_balancer">
	</g>
	<g id="Lock_x2C__protected">
	</g>
</g>
<g id="symbols">
</g>
<g id="slices">
</g>
<g id="User">
</g>
<g id="Video">
</g>
<g id="Virtual_machine_2">
</g>
<g id="Web">
	<path fill="#00188F" d="M407.4,144.5c-93.7,0-169.3,75.6-169.3,169.3s75.6,169.3,169.3,169.3s169.3-75.6,169.3-169.3
		S501.1,144.5,407.4,144.5z M552.3,302h-33.1c-1.6-26-7.1-50.4-16.5-71.7c5.5-3.2,11-6.3,15.8-10.2C537.4,242.1,550,270.5,552.3,302
		z M505.1,205.9c-3.2,2.4-7.1,4.7-11,7.1c-6.3-11-14.2-21.3-22.1-29.9C483.8,189.4,494.8,196.4,505.1,205.9z M419.2,175.2
		c22.8,4.7,43.3,21.3,57.5,45.7c-17.3,7.1-37,11.8-57.5,13.4V175.2z M419.2,253.9c23.6-1.6,46.5-6.3,66.2-15.8
		c7.9,18.9,12.6,40.2,14.2,63h-80.3L419.2,253.9L419.2,253.9z M499.6,325.6c-1.6,23.6-6.3,45.7-15,63.8c-19.7-8.7-41.7-15-65.4-16.5
		v-48h80.3V325.6z M315.3,325.6h80.3v48c-23.6,1.6-46.5,6.3-66.2,15.8C321.6,370.5,316.8,348.5,315.3,325.6z M315.3,302
		c1.6-23.6,6.3-45.7,15-63.8c19.7,8.7,41.7,15,65.4,16.5v48h-80.3V302z M395.6,175.2v59.1c-20.5-1.6-39.4-6.3-56.7-14.2
		C353.1,196.4,373.5,179.9,395.6,175.2z M342.8,183.1c-7.9,7.9-15,17.3-21.3,28.4c-3.9-2.4-7.1-4.7-10.2-7.1
		C320.8,196.4,331.8,188.6,342.8,183.1z M297.1,218.5c4.7,3.9,10.2,7.1,15,10.2c-9.5,21.3-15.8,46.5-17.3,73.3h-33.1
		C264.8,270.5,277.4,241.3,297.1,218.5z M295.6,325.6c1.6,26,7.1,50.4,16.5,71.7c-5.5,3.2-11,6.3-15.8,10.2
		c-18.9-22.8-31.5-51.2-33.9-81.9H295.6z M309.7,421.7c3.2-2.4,7.1-4.7,11-7.1c6.3,11,14.2,21.3,22.1,29.9
		C331,438.3,320,430.4,309.7,421.7z M338.1,406c17.3-7.1,37-11.8,57.5-13.4v59.1C372.7,447.7,353.1,431.2,338.1,406z M419.2,452.4
		v-59.1c20.5,1.6,39.4,6.3,56.7,14.2C461.8,431.2,441.3,447.7,419.2,452.4z M493.3,416.2c3.9,2.4,7.1,4.7,10.2,7.1
		C494,432,483,439,472,444.6C479.9,436.7,487,426.4,493.3,416.2z M517.7,409.1c-4.7-3.9-10.2-7.1-15-10.2
		c9.5-21.3,15.8-46.5,17.3-73.3h33.9C550,357.1,537.4,386.3,517.7,409.1z"/>
</g>
</svg>
