<?xml version="1.0" encoding="utf-8"?>
<!-- Generator: Adobe Illustrator 18.1.0, SVG Export Plug-In . SVG Version: 6.00 Build 0)  -->
<!DOCTYPE svg PUBLIC "-//W3C//DTD SVG 1.0//EN" "http://www.w3.org/TR/2001/REC-SVG-20010904/DTD/svg10.dtd">
<svg version="1.0" id="Layer_1" xmlns="http://www.w3.org/2000/svg" xmlns:xlink="http://www.w3.org/1999/xlink" x="0px" y="0px"
	 viewBox="0 0 792 612" enable-background="new 0 0 792 612" xml:space="preserve">
<g id="paths">
	<g id="Access_control">
	</g>
	<g id="Azure_active_directory">
	</g>
	<g id="Generic_code">
	</g>
	<g id="Laptop">
	</g>
	<g id="Load_balancer">
	</g>
	<g id="Lock_x2C__protected">
	</g>
</g>
<g id="symbols">
</g>
<g id="slices">
</g>
<g id="User">
</g>
<g id="Video">
</g>
<g id="Virtual_machine_2">
</g>
<g id="Web">
</g>
<g id="Web_server">
</g>
<g id="Windows_server">
</g>
<g>
	<path fill="#00188F" d="M356.7,305.6c0,20.5-8.7,39.4-22.1,53.6l23.6,23.6c19.7-19.7,31.5-46.5,31.5-76.4
		c0-29.9-11.8-56.7-31.5-75.6l-23.6,23.6C348,266.2,356.7,285.1,356.7,305.6z"/>
	<path fill="#00188F" d="M422.9,305.6c0,38.6-15.8,74-41.7,100l23.6,23.6c31.5-31.5,51.2-74.8,51.2-122.9S437,215,405.5,183.5
		l-23.6,23.6C407.1,231.6,422.9,267,422.9,305.6z"/>
	<path fill="#00188F" d="M489.8,305.6c0,57.5-23.6,109.5-60.6,146.5l23.6,23.6c43.3-43.3,70.1-104,70.1-170.1s-26.8-126-70.1-169.3
		l-23.6,23.6C467,196.9,489.8,248.9,489.8,305.6z"/>
	<path fill="#00188F" d="M324.4,306.4c0,17.3-14.2,31.5-31.5,31.5s-31.5-14.2-31.5-31.5s14.2-31.5,31.5-31.5
		C310.2,274.9,324.4,289.1,324.4,306.4z"/>
</g>
</svg>
