<?xml version="1.0" encoding="utf-8"?>
<!-- Generator: Adobe Illustrator 18.1.0, SVG Export Plug-In . SVG Version: 6.00 Build 0)  -->
<!DOCTYPE svg PUBLIC "-//W3C//DTD SVG 1.0//EN" "http://www.w3.org/TR/2001/REC-SVG-20010904/DTD/svg10.dtd">
<svg version="1.0" id="Layer_1" xmlns="http://www.w3.org/2000/svg" xmlns:xlink="http://www.w3.org/1999/xlink" x="0px" y="0px"
	 viewBox="0 0 792 612" enable-background="new 0 0 792 612" xml:space="preserve">
<g id="paths">
	<g id="Access_control">
	</g>
	<g id="Azure_active_directory">
	</g>
	<g id="Generic_code">
	</g>
	<g id="Laptop">
	</g>
	<g id="Load_balancer">
	</g>
	<g id="Lock_x2C__protected">
	</g>
</g>
<g id="symbols">
</g>
<g id="slices">
</g>
<g id="User">
</g>
<g id="Video">
</g>
<g id="Virtual_machine_2">
</g>
<g id="Web">
</g>
<g id="Web_server">
</g>
<g id="Windows_server">
</g>
<g id="Workstation_client">
	<g>
		<path fill="#00188F" d="M567.7,274.8H346.4c-3.9,0-7.9,3.2-7.9,7.9v140.2c0,3.9,3.2,10.2,7.9,10.2h94.5c0,8.7,0,14.2,0,15
			c0,4.7-7.1,13.4-12.6,13.4c-1.6,0-15.8,0-15.8,0c-17.3,0-29.9,4.7-29.9,14.2c0,4.7-0.8,4.7,16.5,4.7c0,0,4.7,0,8.7,0
			c13.4,0,15.8-7.9,29.1-7.9c4.7,0,29.1,0,33.9,0c13.4,0,23.6,7.9,32.3,7.9c4.7,0,8.7,0,8.7,0c17.3,0,17.3-0.8,17.3-4.7
			c0-8.7-13.4-14.2-30.7-14.2c0,0-14.2,0-15.8,0c-4.7,0-11-8.7-11-13.4c0-0.8,0-6.3,0-15h94.5c3.9,0,7.9-5.5,7.9-10.2V282.6
			C575.6,278.7,572.4,274.8,567.7,274.8z M552,408.7h-189V298.4h189V408.7z"/>
		<g>
			<path fill="#00188F" d="M323.5,400.8V282.6c0-12.6,10.2-23.6,23.6-23.6h63v-86.6c0-8.7-7.1-15.8-15.8-15.8h-126
				c-8.7,0-15.8,7.1-15.8,15.8v307.2h115.8c0-1.6,0-3.9,0-4.7V474c0-5.5,1.6-19.7,22.1-26.8h-3.2H348h-70.9v-15.8h49.6
				c-1.6-3.2-2.4-7.1-2.4-10.2v-5.5h-47.3V400h46.5V400.8z M276.3,196h110.3v23.6H276.3V196z"/>
		</g>
	</g>
</g>
</svg>
