<?xml version="1.0" encoding="UTF-8" standalone="no"?>
<svg width="16px" height="16px" viewBox="0 0 16 16" version="1.1" xmlns="http://www.w3.org/2000/svg" xmlns:xlink="http://www.w3.org/1999/xlink">
    <defs></defs>
    <g stroke="none" stroke-width="1" fill="none" fill-rule="evenodd">
        <g fill="#323232">
            <path d="M16,13 L16,14 L14,14 L14,16 L13,16 L13,14 L11,14 L11,13 L13,13 L13,11 L14,11 L14,13 L16,13 Z M8.125,7.390625 C8.61979414,7.57812594 9.07942496,7.8255193 9.50390625,8.1328125 C9.92838754,8.4401057 10.3046859,8.79296676 10.6328125,9.19140625 C10.9609391,9.58984574 11.2343739,10.0273414 11.453125,10.5039062 C11.6718761,10.9804711 11.8255204,11.4791641 11.9140625,12 L10.8984375,12 C10.7786452,11.4166638 10.5677098,10.8802108 10.265625,10.390625 C9.96354016,9.90103922 9.59505426,9.47916844 9.16015625,9.125 C8.72525824,8.77083156 8.23828395,8.49479266 7.69921875,8.296875 C7.16015355,8.09895734 6.59375297,8 6,8 C5.54166438,8 5.09896047,8.05989523 4.671875,8.1796875 C4.24478953,8.29947977 3.84635602,8.46744684 3.4765625,8.68359375 C3.10676898,8.89974066 2.76953277,9.16015473 2.46484375,9.46484375 C2.16015473,9.76953277 1.89974066,10.106769 1.68359375,10.4765625 C1.46744684,10.846356 1.29947977,11.2447895 1.1796875,11.671875 C1.05989523,12.0989605 1,12.5416644 1,13 L0,13 C0,12.3749969 0.0924469922,11.7734404 0.27734375,11.1953125 C0.462240508,10.6171846 0.723956641,10.0833358 1.0625,9.59375 C1.40104336,9.10416422 1.80859137,8.66927273 2.28515625,8.2890625 C2.76172113,7.90885227 3.29166375,7.60937609 3.875,7.390625 C3.28645539,7.00520641 2.82682457,6.52083625 2.49609375,5.9375 C2.16536293,5.35416375 2,4.70833688 2,4 C2,3.44791391 2.10416563,2.92838785 2.3125,2.44140625 C2.52083437,1.95442465 2.80598777,1.52994973 3.16796875,1.16796875 C3.52994973,0.805987773 3.95442465,0.520834375 4.44140625,0.3125 C4.92838785,0.104165625 5.44791391,0 6,0 C6.55208609,0 7.07161215,0.104165625 7.55859375,0.3125 C8.04557535,0.520834375 8.47005027,0.805987773 8.83203125,1.16796875 C9.19401223,1.52994973 9.47916563,1.95442465 9.6875,2.44140625 C9.89583437,2.92838785 10,3.44791391 10,4 C10,4.34375172 9.95703168,4.67968586 9.87109375,5.0078125 C9.78515582,5.33593914 9.66145914,5.64583188 9.5,5.9375 C9.33854086,6.22916813 9.14192824,6.49869668 8.91015625,6.74609375 C8.67838426,6.99349082 8.41666813,7.20833242 8.125,7.390625 L8.125,7.390625 Z M3,4 C3,4.41666875 3.07812422,4.80598777 3.234375,5.16796875 C3.39062578,5.52994973 3.60546738,5.84765488 3.87890625,6.12109375 C4.15234512,6.39453262 4.47005027,6.60937422 4.83203125,6.765625 C5.19401223,6.92187578 5.58333125,7 6,7 C6.41146039,7 6.79947734,6.92187578 7.1640625,6.765625 C7.52864766,6.60937422 7.84765488,6.39453262 8.12109375,6.12109375 C8.39453262,5.84765488 8.60937422,5.52994973 8.765625,5.16796875 C8.92187578,4.80598777 9,4.41666875 9,4 C9,3.58853961 8.92187578,3.20052266 8.765625,2.8359375 C8.60937422,2.47135234 8.39453262,2.15234512 8.12109375,1.87890625 C7.84765488,1.60546738 7.52864766,1.39062578 7.1640625,1.234375 C6.79947734,1.07812422 6.41146039,1 6,1 C5.58333125,1 5.19401223,1.07812422 4.83203125,1.234375 C4.47005027,1.39062578 4.15234512,1.60546738 3.87890625,1.87890625 C3.60546738,2.15234512 3.39062578,2.47135234 3.234375,2.8359375 C3.07812422,3.20052266 3,3.58853961 3,4 L3,4 Z"></path>
        </g>
    </g>
</svg>