<?xml version="1.0" encoding="UTF-8" standalone="no"?>
<svg width="16px" height="16px" viewBox="0 0 16 16" version="1.1" xmlns="http://www.w3.org/2000/svg" xmlns:xlink="http://www.w3.org/1999/xlink">
    <defs></defs>
    <g stroke="none" stroke-width="1" fill="none" fill-rule="evenodd">
        <g fill="#323232">
            <path d="M11,3 L11,12.5 C11,12.9843774 10.907553,13.4388 10.7226562,13.8632812 C10.5377595,14.2877625 10.287762,14.6575505 9.97265625,14.9726562 C9.65755051,15.287762 9.28776254,15.5377595 8.86328125,15.7226562 C8.43879996,15.907553 7.98437742,16 7.5,16 C7.01562258,16 6.56120004,15.907553 6.13671875,15.7226562 C5.71223746,15.5377595 5.34244949,15.287762 5.02734375,14.9726562 C4.71223801,14.6575505 4.46224051,14.2877625 4.27734375,13.8632812 C4.09244699,13.4388 4,12.9843774 4,12.5 L4,2.5 C4,2.15624828 4.06640559,1.83333484 4.19921875,1.53125 C4.33203191,1.22916516 4.51171762,0.964844883 4.73828125,0.73828125 C4.96484488,0.511717617 5.22916516,0.332031914 5.53125,0.19921875 C5.83333484,0.0664055859 6.15624828,0 6.5,0 C6.84375172,0 7.16666516,0.0664055859 7.46875,0.19921875 C7.77083484,0.332031914 8.03515512,0.511717617 8.26171875,0.73828125 C8.48828238,0.964844883 8.66796809,1.22916516 8.80078125,1.53125 C8.93359441,1.83333484 9,2.15624828 9,2.5 L9,12.5 C9,12.7083344 8.96093789,12.9036449 8.8828125,13.0859375 C8.80468711,13.2682301 8.69791734,13.4270827 8.5625,13.5625 C8.42708266,13.6979173 8.26823008,13.8046871 8.0859375,13.8828125 C7.90364492,13.9609379 7.70833437,14 7.5,14 C7.29166563,14 7.09635508,13.9609379 6.9140625,13.8828125 C6.73176992,13.8046871 6.57291734,13.6979173 6.4375,13.5625 C6.30208266,13.4270827 6.19531289,13.2682301 6.1171875,13.0859375 C6.03906211,12.9036449 6,12.7083344 6,12.5 L6,4 L7,4 L7,12.5 C7,12.6354173 7.04947867,12.7526037 7.1484375,12.8515625 C7.24739633,12.9505213 7.36458266,13 7.5,13 C7.63541734,13 7.75260367,12.9505213 7.8515625,12.8515625 C7.95052133,12.7526037 8,12.6354173 8,12.5 L8,2.5 C8,2.29166563 7.96093789,2.09635508 7.8828125,1.9140625 C7.80468711,1.73176992 7.69791734,1.57291734 7.5625,1.4375 C7.42708266,1.30208266 7.26823008,1.19531289 7.0859375,1.1171875 C6.90364492,1.03906211 6.70833437,1 6.5,1 C6.29166563,1 6.09635508,1.03906211 5.9140625,1.1171875 C5.73176992,1.19531289 5.57291734,1.30208266 5.4375,1.4375 C5.30208266,1.57291734 5.19531289,1.73176992 5.1171875,1.9140625 C5.03906211,2.09635508 5,2.29166563 5,2.5 L5,12.5 C5,12.8437517 5.06640559,13.1666652 5.19921875,13.46875 C5.33203191,13.7708348 5.51171762,14.0351551 5.73828125,14.2617188 C5.96484488,14.4882824 6.22916516,14.6679681 6.53125,14.8007812 C6.83333484,14.9335944 7.15624828,15 7.5,15 C7.84375172,15 8.16666516,14.9335944 8.46875,14.8007812 C8.77083484,14.6679681 9.03515512,14.4882824 9.26171875,14.2617188 C9.48828238,14.0351551 9.66796809,13.7708348 9.80078125,13.46875 C9.93359441,13.1666652 10,12.8437517 10,12.5 L10,3 L11,3 Z"></path>
        </g>
    </g>
</svg>