<?xml version="1.0" encoding="UTF-8" standalone="no"?>
<svg width="16px" height="16px" viewBox="0 0 16 16" version="1.1" xmlns="http://www.w3.org/2000/svg" xmlns:xlink="http://www.w3.org/1999/xlink">
    <defs></defs>
    <g stroke="none" stroke-width="1" fill="none" fill-rule="evenodd">
        <g fill="#FFFFFF">
            <path d="M10.0429688,9.04882812 C10.5742214,9.23242279 11.0537088,9.48925616 11.4814453,9.81933594 C11.9091818,10.1494157 12.2724594,10.5312478 12.5712891,10.9648438 C12.8701187,11.3984397 13.0996086,11.8730443 13.2597656,12.3886719 C13.4199227,12.9042995 13.5,13.4414035 13.5,14 L12.75,14 C12.75,13.3593718 12.6357433,12.7646512 12.4072266,12.2158203 C12.1787098,11.6669894 11.8632833,11.1914083 11.4609375,10.7890625 C11.0585917,10.3867167 10.5830106,10.0712902 10.0341797,9.84277344 C9.48534882,9.61425667 8.8906282,9.5 8.25,9.5 C7.83202916,9.5 7.42968943,9.55273385 7.04296875,9.65820312 C6.65624807,9.7636724 6.29590011,9.91308497 5.96191406,10.1064453 C5.62792802,10.2998057 5.32519667,10.5322252 5.05371094,10.8037109 C4.78222521,11.0751967 4.54980565,11.377928 4.35644531,11.7119141 C4.16308497,12.0459001 4.0136724,12.4062481 3.90820312,12.7929688 C3.80273385,13.1796894 3.75,13.5820292 3.75,14 L3,14 C3,13.4374972 3.08203043,12.8994166 3.24609375,12.3857422 C3.41015707,11.8720677 3.64257662,11.4003928 3.94335938,10.9707031 C4.24414213,10.5410135 4.6083963,10.162111 5.03613281,9.83398438 C5.46386933,9.50585773 5.94140361,9.24609471 6.46875,9.0546875 C6.16406098,8.89062418 5.89062621,8.69140742 5.6484375,8.45703125 C5.40624879,8.22265508 5.20019616,7.9619155 5.03027344,7.67480469 C4.86035071,7.38769388 4.72949265,7.08105632 4.63769531,6.75488281 C4.54589798,6.42870931 4.5,6.09375172 4.5,5.75 C4.5,5.23046615 4.59765527,4.74316634 4.79296875,4.28808594 C4.98828223,3.83300554 5.25585768,3.43554857 5.59570312,3.09570312 C5.93554857,2.75585768 6.33300554,2.48828223 6.78808594,2.29296875 C7.24316634,2.09765527 7.73046615,2 8.25,2 C8.76953385,2 9.25683366,2.09765527 9.71191406,2.29296875 C10.1669945,2.48828223 10.5644514,2.75585768 10.9042969,3.09570312 C11.2441423,3.43554857 11.5117178,3.83300554 11.7070312,4.28808594 C11.9023447,4.74316634 12,5.23046615 12,5.75 C12,6.09375172 11.954102,6.42773275 11.8623047,6.75195312 C11.7705074,7.0761735 11.6396493,7.38085795 11.4697266,7.66601562 C11.2998038,7.9511733 11.0947278,8.21191288 10.8544922,8.44824219 C10.6142566,8.68457149 10.3437515,8.8847648 10.0429688,9.04882812 L10.0429688,9.04882812 Z M5.25,5.75 C5.25,6.16406457 5.32910077,6.55273256 5.48730469,6.91601562 C5.6455086,7.27929869 5.86035021,7.59667833 6.13183594,7.86816406 C6.40332167,8.13964979 6.72070131,8.3544914 7.08398438,8.51269531 C7.44726744,8.67089923 7.83593543,8.75 8.25,8.75 C8.66406457,8.75 9.05273256,8.67089923 9.41601562,8.51269531 C9.77929869,8.3544914 10.0966783,8.13964979 10.3681641,7.86816406 C10.6396498,7.59667833 10.8544914,7.27929869 11.0126953,6.91601562 C11.1708992,6.55273256 11.25,6.16406457 11.25,5.75 C11.25,5.33593543 11.1708992,4.94726744 11.0126953,4.58398438 C10.8544914,4.22070131 10.6396498,3.90332167 10.3681641,3.63183594 C10.0966783,3.36035021 9.77929869,3.1455086 9.41601562,2.98730469 C9.05273256,2.82910077 8.66406457,2.75 8.25,2.75 C7.83593543,2.75 7.44726744,2.82910077 7.08398438,2.98730469 C6.72070131,3.1455086 6.40332167,3.36035021 6.13183594,3.63183594 C5.86035021,3.90332167 5.6455086,4.22070131 5.48730469,4.58398438 C5.32910077,4.94726744 5.25,5.33593543 5.25,5.75 L5.25,5.75 Z"></path>
        </g>
    </g>
</svg>