<?xml version="1.0" encoding="UTF-8" standalone="no"?>
<svg width="16px" height="16px" viewBox="0 0 16 16" version="1.1" xmlns="http://www.w3.org/2000/svg" xmlns:xlink="http://www.w3.org/1999/xlink">
    <defs></defs>
    <g stroke="none" stroke-width="1" fill="none" fill-rule="evenodd">
        <g fill="#FFFFFF">
            <path d="M8,13.25 L8.75,13.25 L8.75,14 L8,14 L8,13.25 Z M8.375,2 C8.68359529,2 8.98144388,2.04003866 9.26855469,2.12011719 C9.5556655,2.20019571 9.8242175,2.31347583 10.0742188,2.45996094 C10.32422,2.60644604 10.5527333,2.78320209 10.7597656,2.99023438 C10.9667979,3.19726666 11.143554,3.42578 11.2900391,3.67578125 C11.4365242,3.9257825 11.5498043,4.1943345 11.6298828,4.48144531 C11.7099613,4.76855612 11.75,5.06640471 11.75,5.375 C11.75,5.70312664 11.7070317,5.99999867 11.6210938,6.265625 C11.5351558,6.53125133 11.4218757,6.77441296 11.28125,6.99511719 C11.1406243,7.21582142 10.9804696,7.41992094 10.8007812,7.60742188 C10.6210929,7.79492281 10.4375009,7.97656162 10.25,8.15234375 C10.0624991,8.32812588 9.87890715,8.50292882 9.69921875,8.67675781 C9.51953035,8.85058681 9.3593757,9.03515527 9.21875,9.23046875 C9.0781243,9.42578223 8.96484418,9.63671762 8.87890625,9.86328125 C8.79296832,10.0898449 8.75,10.3437486 8.75,10.625 L8.75,11.75 L8,11.75 L8,10.625 C8,10.2968734 8.04296832,10.0000013 8.12890625,9.734375 C8.21484418,9.46874867 8.3281243,9.22558704 8.46875,9.00488281 C8.6093757,8.78417858 8.76953035,8.58105562 8.94921875,8.39550781 C9.12890715,8.20996001 9.31249906,8.02929775 9.5,7.85351562 C9.68750094,7.6777335 9.87109285,7.501954 10.0507812,7.32617188 C10.2304696,7.15038975 10.3906243,6.96484473 10.53125,6.76953125 C10.6718757,6.57421777 10.7851558,6.36328238 10.8710938,6.13671875 C10.9570317,5.91015512 11,5.65625141 11,5.375 C11,5.01171693 10.9306648,4.67090003 10.7919922,4.35253906 C10.6533196,4.0341781 10.4658215,3.75683712 10.2294922,3.52050781 C9.99316288,3.28417851 9.7158219,3.09668038 9.39746094,2.95800781 C9.07909997,2.81933524 8.73828307,2.75 8.375,2.75 C8.01171693,2.75 7.67090003,2.81933524 7.35253906,2.95800781 C7.0341781,3.09668038 6.75683712,3.28417851 6.52050781,3.52050781 C6.28417851,3.75683712 6.09668038,4.0341781 5.95800781,4.35253906 C5.81933524,4.67090003 5.75,5.01171693 5.75,5.375 L5,5.375 C5,5.06640471 5.04003866,4.76855612 5.12011719,4.48144531 C5.20019571,4.1943345 5.31347583,3.9257825 5.45996094,3.67578125 C5.60644604,3.42578 5.78320209,3.19726666 5.99023438,2.99023438 C6.19726666,2.78320209 6.42578,2.60644604 6.67578125,2.45996094 C6.9257825,2.31347583 7.1943345,2.20019571 7.48144531,2.12011719 C7.76855612,2.04003866 8.06640471,2 8.375,2 L8.375,2 Z"></path>
        </g>
    </g>
</svg>