<?xml version="1.0" encoding="UTF-8" standalone="no"?>
<svg width="16px" height="16px" viewBox="0 0 16 16" version="1.1" xmlns="http://www.w3.org/2000/svg" xmlns:xlink="http://www.w3.org/1999/xlink">
    <defs></defs>
    <g stroke="none" stroke-width="1" fill="none" fill-rule="evenodd">
        <g fill="#323232">
            <path d="M15.2958435,10.2400978 L14.0205379,8.96479218 L14.0205379,13.5261614 L13.0112469,13.5261614 L13.0112469,8.96479218 L11.7437653,10.2400978 L11.0396088,9.53594132 L13.5198044,7.05574572 L16,9.53594132 L15.2958435,10.2400978 Z M14.0205379,3.01075795 L4.999511,3.01075795 L4.999511,2.00146699 L14.0205379,2.00146699 L14.0205379,3.01075795 Z M12.0176039,13.0254279 L4.999511,13.0254279 L4.999511,12.0161369 L12.0176039,12.0161369 L12.0176039,13.0254279 Z M3.00440098,4.00440098 L0,4.00440098 L0,1 L3.00440098,1 L3.00440098,4.00440098 Z M1.00146699,3.00293399 L2.00293399,3.00293399 L2.00293399,2.00146699 L1.00146699,2.00146699 L1.00146699,3.00293399 Z M3.00440098,9.01173594 L0,9.01173594 L0,6.00733496 L3.00440098,6.00733496 L3.00440098,9.01173594 Z M1.00146699,8.01026895 L2.00293399,8.01026895 L2.00293399,7.00880196 L1.00146699,7.00880196 L1.00146699,8.01026895 Z M3.00440098,14.0190709 L0,14.0190709 L0,11.0146699 L3.00440098,11.0146699 L3.00440098,14.0190709 Z M1.00146699,13.0176039 L2.00293399,13.0176039 L2.00293399,12.0161369 L1.00146699,12.0161369 L1.00146699,13.0176039 Z M11.0161369,8.01026895 L5.00733496,8.01026895 L5.00733496,7.00880196 L12.0176039,7.00880196 L11.0161369,8.01026895 Z"></path>
        </g>
    </g>
</svg>