<?xml version="1.0" encoding="UTF-8" standalone="no"?>
<svg width="16px" height="16px" viewBox="0 0 16 16" version="1.1" xmlns="http://www.w3.org/2000/svg" xmlns:xlink="http://www.w3.org/1999/xlink">
    <defs></defs>
    <g stroke="none" stroke-width="1" fill="none" fill-rule="evenodd">
        <g fill="#4A4A4A">
            <path d="M15,2 L15,15 L0,15 L0,2 L2,2 L2,1 L5,1 C5.45833563,1 5.89973746,1.0703118 6.32421875,1.2109375 C6.74870004,1.3515632 7.1406232,1.56249859 7.5,1.84375 C7.8593768,1.56249859 8.25129996,1.3515632 8.67578125,1.2109375 C9.10026254,1.0703118 9.54166437,1 10,1 L13,1 L13,2 L15,2 Z M10,2 C9.63541484,2 9.28125172,2.0611973 8.9375,2.18359375 C8.59374828,2.3059902 8.28125141,2.48437383 8,2.71875 L8,12.515625 C8.3072932,12.3437491 8.63020664,12.2148442 8.96875,12.1289062 C9.30729336,12.0429683 9.65103992,12 10,12 L12,12 L12,2 L10,2 Z M3,12 L5,12 C5.34896008,12 5.69270664,12.0429683 6.03125,12.1289062 C6.36979336,12.2148442 6.6927068,12.3437491 7,12.515625 L7,2.71875 C6.71874859,2.48437383 6.40625172,2.3059902 6.0625,2.18359375 C5.71874828,2.0611973 5.36458516,2 5,2 L3,2 L3,12 Z M1,14 L7.296875,14 C7.1302075,13.8385409 6.96093836,13.6966152 6.7890625,13.5742188 C6.61718664,13.4518223 6.43880301,13.3476567 6.25390625,13.2617188 C6.06900949,13.1757808 5.87369895,13.1106773 5.66796875,13.0664062 C5.46223855,13.0221352 5.23958453,13 5,13 L2,13 L2,3 L1,3 L1,14 Z M14,3 L13,3 L13,13 L10,13 C9.76041547,13 9.53776145,13.0221352 9.33203125,13.0664062 C9.12630105,13.1106773 8.93099051,13.1757808 8.74609375,13.2617188 C8.56119699,13.3476567 8.38281336,13.4518223 8.2109375,13.5742188 C8.03906164,13.6966152 7.8697925,13.8385409 7.703125,14 L14,14 L14,3 Z"></path>
        </g>
    </g>
</svg>