<?xml version="1.0" encoding="UTF-8" standalone="no"?>
<svg width="16px" height="16px" viewBox="0 0 16 16" version="1.1" xmlns="http://www.w3.org/2000/svg" xmlns:xlink="http://www.w3.org/1999/xlink">
    <defs></defs>
    <g stroke="none" stroke-width="1" fill="none" fill-rule="evenodd">
        <g fill="#4A4A4A">
            <path d="M8,0 C8.73437867,0 9.44140285,0.0950511328 10.1210938,0.28515625 C10.8007846,0.475261367 11.437497,0.744789922 12.03125,1.09375 C12.625003,1.44271008 13.1653621,1.86067465 13.6523438,2.34765625 C14.1393254,2.83463785 14.5572899,3.37499703 14.90625,3.96875 C15.2552101,4.56250297 15.5247386,5.19921535 15.7148438,5.87890625 C15.9049489,6.55859715 16,7.26562133 16,8 C16,8.73437867 15.9049489,9.44140285 15.7148438,10.1210938 C15.5247386,10.8007846 15.2552101,11.437497 14.90625,12.03125 C14.5572899,12.625003 14.1393254,13.1653621 13.6523438,13.6523438 C13.1653621,14.1393254 12.625003,14.5572899 12.03125,14.90625 C11.437497,15.2552101 10.8007846,15.5247386 10.1210938,15.7148438 C9.44140285,15.9049489 8.73437867,16 8,16 C7.26562133,16 6.55859715,15.9049489 5.87890625,15.7148438 C5.19921535,15.5247386 4.56250297,15.2552101 3.96875,14.90625 C3.37499703,14.5572899 2.83463785,14.1393254 2.34765625,13.6523438 C1.86067465,13.1653621 1.44271008,12.625003 1.09375,12.03125 C0.744789922,11.437497 0.475261367,10.8007846 0.28515625,10.1210938 C0.0950511328,9.44140285 0,8.73437867 0,8 C0,7.26562133 0.0950511328,6.55859715 0.28515625,5.87890625 C0.475261367,5.19921535 0.744789922,4.56250297 1.09375,3.96875 C1.44271008,3.37499703 1.86067465,2.83463785 2.34765625,2.34765625 C2.83463785,1.86067465 3.37499703,1.44271008 3.96875,1.09375 C4.56250297,0.744789922 5.19921535,0.475261367 5.87890625,0.28515625 C6.55859715,0.0950511328 7.26562133,0 8,0 L8,0 Z M8,15 C8.85417094,15 9.67056902,14.8541681 10.4492188,14.5625 C11.2278685,14.2708319 11.9401009,13.846357 12.5859375,13.2890625 L2.7109375,3.4140625 C2.15364305,4.05989906 1.72916812,4.77213152 1.4375,5.55078125 C1.14583188,6.32943098 1,7.14582906 1,8 C1,8.64583656 1.0833325,9.2669241 1.25,9.86328125 C1.4166675,10.4596384 1.65234223,11.0169245 1.95703125,11.5351562 C2.26172027,12.053388 2.62629996,12.5247375 3.05078125,12.9492188 C3.47526254,13.3737 3.94661199,13.7382797 4.46484375,14.0429688 C4.98307551,14.3476578 5.5403616,14.5833325 6.13671875,14.75 C6.7330759,14.9166675 7.35416344,15 8,15 L8,15 Z M13.2890625,12.5859375 C13.846357,11.9401009 14.2708319,11.2278685 14.5625,10.4492188 C14.8541681,9.67056902 15,8.85417094 15,8 C15,7.35416344 14.9166675,6.7330759 14.75,6.13671875 C14.5833325,5.5403616 14.3476578,4.98307551 14.0429688,4.46484375 C13.7382797,3.94661199 13.3737,3.47526254 12.9492188,3.05078125 C12.5247375,2.62629996 12.053388,2.26172027 11.5351562,1.95703125 C11.0169245,1.65234223 10.4596384,1.4166675 9.86328125,1.25 C9.2669241,1.0833325 8.64583656,1 8,1 C7.14582906,1 6.32943098,1.14583187 5.55078125,1.4375 C4.77213152,1.72916813 4.05989906,2.15364305 3.4140625,2.7109375 L13.2890625,12.5859375 Z"></path>
        </g>
    </g>
</svg>