<?xml version="1.0" encoding="UTF-8" standalone="no"?>
<svg width="16px" height="16px" viewBox="0 0 16 16" version="1.1" xmlns="http://www.w3.org/2000/svg" xmlns:xlink="http://www.w3.org/1999/xlink">
    <defs></defs>
    <g stroke="none" stroke-width="1" fill="none" fill-rule="evenodd">
        <g fill="#323232">
            <path d="M8,16 C7.26041297,16 6.55078465,15.9049489 5.87109375,15.7148438 C5.19140285,15.5247386 4.55469047,15.2565121 3.9609375,14.9101562 C3.36718453,14.5638004 2.82682535,14.1471379 2.33984375,13.6601562 C1.85286215,13.1731746 1.43619965,12.6328155 1.08984375,12.0390625 C0.743487852,11.4453095 0.475261367,10.8072951 0.28515625,10.125 C0.0950511328,9.44270492 0,8.73437867 0,8 C0,7.26562133 0.0950511328,6.55729508 0.28515625,5.875 C0.475261367,5.19270492 0.743487852,4.55469047 1.08984375,3.9609375 C1.43619965,3.36718453 1.85286215,2.82682535 2.33984375,2.33984375 C2.82682535,1.85286215 3.36718453,1.43619965 3.9609375,1.08984375 C4.55469047,0.743487852 5.19270492,0.475261367 5.875,0.28515625 C6.55729508,0.0950511328 7.26562133,0 8,0 C8.73437867,0 9.44270492,0.0950511328 10.125,0.28515625 C10.8072951,0.475261367 11.4453095,0.743487852 12.0390625,1.08984375 C12.6328155,1.43619965 13.1731746,1.85286215 13.6601562,2.33984375 C14.1471379,2.82682535 14.5638004,3.36718453 14.9101562,3.9609375 C15.2565121,4.55469047 15.5247386,5.19270492 15.7148438,5.875 C15.9049489,6.55729508 16,7.26562133 16,8 C16,8.73958703 15.9049489,9.44921535 15.7148438,10.1289062 C15.5247386,10.8085971 15.2565121,11.4453095 14.9101562,12.0390625 C14.5638004,12.6328155 14.1471379,13.1731746 13.6601562,13.6601562 C13.1731746,14.1471379 12.6328155,14.5638004 12.0390625,14.9101562 C11.4453095,15.2565121 10.8072951,15.5247386 10.125,15.7148438 C9.44270492,15.9049489 8.73437867,16 8,16 L8,16 Z M8,1 C7.3593718,1 6.7408884,1.0833325 6.14453125,1.25 C5.5481741,1.4166675 4.99088801,1.65234223 4.47265625,1.95703125 C3.95442449,2.26172027 3.48177297,2.62760203 3.0546875,3.0546875 C2.62760203,3.48177297 2.26172027,3.95442449 1.95703125,4.47265625 C1.65234223,4.99088801 1.4166675,5.5481741 1.25,6.14453125 C1.0833325,6.7408884 1,7.3593718 1,8 C1,8.6406282 1.0833325,9.2591116 1.25,9.85546875 C1.4166675,10.4518259 1.65234223,11.009112 1.95703125,11.5273438 C2.26172027,12.0455755 2.62760203,12.518227 3.0546875,12.9453125 C3.48177297,13.372398 3.95442449,13.7382797 4.47265625,14.0429688 C4.99088801,14.3476578 5.5481741,14.5833325 6.14453125,14.75 C6.7408884,14.9166675 7.3593718,15 8,15 C8.6406282,15 9.2591116,14.9166675 9.85546875,14.75 C10.4518259,14.5833325 11.009112,14.3476578 11.5273438,14.0429688 C12.0455755,13.7382797 12.518227,13.372398 12.9453125,12.9453125 C13.372398,12.518227 13.7382797,12.0455755 14.0429688,11.5273438 C14.3476578,11.009112 14.5833325,10.4518259 14.75,9.85546875 C14.9166675,9.2591116 15,8.6406282 15,8 C15,7.3593718 14.9166675,6.7408884 14.75,6.14453125 C14.5833325,5.5481741 14.3476578,4.99088801 14.0429688,4.47265625 C13.7382797,3.95442449 13.372398,3.48177297 12.9453125,3.0546875 C12.518227,2.62760203 12.0455755,2.26172027 11.5273438,1.95703125 C11.009112,1.65234223 10.4518259,1.4166675 9.85546875,1.25 C9.2591116,1.0833325 8.6406282,1 8,1 L8,1 Z M11,8 L11,9 L7,9 L7,3 L8,3 L8,8 L11,8 Z"></path>
        </g>
    </g>
</svg>