<?xml version="1.0" encoding="UTF-8" standalone="no"?>
<svg width="16px" height="16px" viewBox="0 0 16 16" version="1.1" xmlns="http://www.w3.org/2000/svg" xmlns:xlink="http://www.w3.org/1999/xlink">
    <defs></defs>
    <g stroke="none" stroke-width="1" fill="none" fill-rule="evenodd">
        <g fill="#323232">
            <path d="M7,4 L0,4 L0,3 L7,3 L7,4 Z M7,12 L0,12 L0,11 L7,11 L7,12 Z M7,7.9921875 L0,7.9921875 L0,7 L7,7 L7,7.9921875 Z"></path>
            <path d="M16,4 L9,4 L9,3 L16,3 L16,4 Z M16,12 L9,12 L9,11 L16,11 L16,12 Z M16,7.9921875 L9,7.9921875 L9,7 L16,7 L16,7.9921875 Z"></path>
        </g>
    </g>
</svg>