<?xml version="1.0" encoding="UTF-8" standalone="no"?>
<svg width="16px" height="16px" viewBox="0 0 16 16" version="1.1" xmlns="http://www.w3.org/2000/svg" xmlns:xlink="http://www.w3.org/1999/xlink">
    <defs></defs>
    <g stroke="none" stroke-width="1" fill="none" fill-rule="evenodd">
        <g fill="#323232">
            <path d="M16,2.6171875 C16,2.96093922 15.9348965,3.29426922 15.8046875,3.6171875 C15.6744785,3.94010578 15.4843763,4.22656125 15.234375,4.4765625 L4.9453125,14.765625 L0,16 L1.234375,11.0546875 L11.5234375,0.765625 C11.7734388,0.51562375 12.0598942,0.325521484 12.3828125,0.1953125 C12.7057308,0.0651035156 13.0390608,0 13.3828125,0 C13.7421893,0 14.0807276,0.0690097266 14.3984375,0.20703125 C14.7161474,0.345052773 14.9934884,0.532550898 15.2304688,0.76953125 C15.4674491,1.0065116 15.6549472,1.28385258 15.7929688,1.6015625 C15.9309903,1.91927242 16,2.2578107 16,2.6171875 L16,2.6171875 Z M2.546875,11.15625 C3.09896109,11.3385426 3.57421676,11.6289043 3.97265625,12.0273438 C4.37109574,12.4257832 4.66145742,12.9010389 4.84375,13.453125 L13.2890625,5 L11,2.7109375 L2.546875,11.15625 Z M1.375,14.625 L3.9453125,13.984375 C3.89322891,13.7447905 3.80859434,13.5182302 3.69140625,13.3046875 C3.57421816,13.0911448 3.4322925,12.9010425 3.265625,12.734375 C3.0989575,12.5677075 2.90885523,12.4257818 2.6953125,12.3085938 C2.48176977,12.1914057 2.25520953,12.1067711 2.015625,12.0546875 L1.375,14.625 Z M14,4.2890625 C14.130209,4.15885352 14.2552077,4.03645891 14.375,3.921875 C14.4947923,3.80729109 14.601562,3.68619855 14.6953125,3.55859375 C14.789063,3.43098895 14.863281,3.29296949 14.9179688,3.14453125 C14.9726565,2.99609301 15,2.82291766 15,2.625 C15,2.40104055 14.9570317,2.19140723 14.8710938,1.99609375 C14.7851558,1.80078027 14.6679695,1.62890699 14.5195312,1.48046875 C14.371093,1.33203051 14.1992197,1.21484418 14.0039062,1.12890625 C13.8085928,1.04296832 13.5989595,1 13.375,1 C13.1770823,1 13.003907,1.02734348 12.8554688,1.08203125 C12.7070305,1.13671902 12.5690111,1.21093703 12.4414062,1.3046875 C12.3138014,1.39843797 12.1927089,1.50520773 12.078125,1.625 C11.9635411,1.74479227 11.8411465,1.86979102 11.7109375,2 L14,4.2890625 Z"></path>
        </g>
    </g>
</svg>