<?xml version="1.0" encoding="UTF-8" standalone="no"?>
<svg width="16px" height="16px" viewBox="0 0 16 16" version="1.1" xmlns="http://www.w3.org/2000/svg" xmlns:xlink="http://www.w3.org/1999/xlink">
    <defs></defs>
    <g stroke="none" stroke-width="1" fill="none" fill-rule="evenodd">
        <g fill="#323232">
            <path d="M14,3 L13,3 L13,14.5 C13,14.7083344 12.9609379,14.9036449 12.8828125,15.0859375 C12.8046871,15.2682301 12.6979173,15.4270827 12.5625,15.5625 C12.4270827,15.6979173 12.2682301,15.8046871 12.0859375,15.8828125 C11.9036449,15.9609379 11.7083344,16 11.5,16 L3.5,16 C3.29166562,16 3.09635508,15.9609379 2.9140625,15.8828125 C2.73176992,15.8046871 2.57291734,15.6979173 2.4375,15.5625 C2.30208266,15.4270827 2.19531289,15.2682301 2.1171875,15.0859375 C2.03906211,14.9036449 2,14.7083344 2,14.5 L2,3 L1,3 L1,2 L5,2 L5,1 C5,0.859374297 5.02604141,0.729167266 5.078125,0.609375 C5.13020859,0.489582734 5.20182246,0.384115039 5.29296875,0.29296875 C5.38411504,0.201822461 5.48958273,0.130208594 5.609375,0.078125 C5.72916727,0.0260414063 5.8593743,0 6,0 L9,0 C9.1406257,0 9.27083273,0.0260414063 9.390625,0.078125 C9.51041727,0.130208594 9.61588496,0.201822461 9.70703125,0.29296875 C9.79817754,0.384115039 9.86979141,0.489582734 9.921875,0.609375 C9.97395859,0.729167266 10,0.859374297 10,1 L10,2 L14,2 L14,3 Z M6,2 L9,2 L9,1 L6,1 L6,2 Z M12,3 L3,3 L3,14.5 C3,14.6354173 3.04947867,14.7526037 3.1484375,14.8515625 C3.24739633,14.9505213 3.36458266,15 3.5,15 L11.5,15 C11.6354173,15 11.7526037,14.9505213 11.8515625,14.8515625 C11.9505213,14.7526037 12,14.6354173 12,14.5 L12,3 Z M6,13 L5,13 L5,5 L6,5 L6,13 Z M8,13 L7,13 L7,5 L8,5 L8,13 Z M10,13 L9,13 L9,5 L10,5 L10,13 Z"></path>
        </g>
    </g>
</svg>