<?xml version="1.0" encoding="UTF-8" standalone="no"?>
<svg width="16px" height="16px" viewBox="0 0 16 16" version="1.1" xmlns="http://www.w3.org/2000/svg" xmlns:xlink="http://www.w3.org/1999/xlink">
    <defs></defs>
    <g stroke="none" stroke-width="1" fill="none" fill-rule="evenodd">
        <g fill="#000000">
            <g transform="translate(0.000000, 1.000000)">
                <path d="M7.5,3 C7.843,3 8.166,3.066 8.468,3.199 C8.77,3.332 9.035,3.512 9.261,3.738 C9.488,3.965 9.667,4.229 9.8,4.531 C9.933,4.834 9.999,5.156 9.999,5.5 C9.999,5.953 9.917,6.337 9.753,6.652 C9.751,6.657 9.748,6.66 9.745,6.664 L10.447,7.366 C10.548,7.206 10.644,7.042 10.722,6.863 C10.907,6.439 10.999,5.984 10.999,5.5 C10.999,5.016 10.907,4.562 10.722,4.137 C10.537,3.712 10.288,3.343 9.972,3.027 C9.657,2.712 9.288,2.462 8.863,2.277 C8.438,2.093 7.984,2 7.5,2 L5.082,2 L6.082,3 L7.5,3"></path>
                <path d="M7,9 L7.5,9 C7.624,9 7.741,8.977 7.861,8.965 L7,8.103 L7,9"></path>
                <path d="M14.973,10.973 C15.287,10.658 15.537,10.289 15.723,9.864 C15.906,9.439 16,8.985 16,8.5 C16,8.016 15.906,7.562 15.723,7.137 C15.537,6.712 15.287,6.343 14.973,6.027 C14.656,5.712 14.287,5.462 13.862,5.277 C13.438,5.093 12.984,5 12.499,5 L12,5 L12,6 C12.396,6 12.774,6.046 13.136,6.137 C13.498,6.228 13.816,6.374 14.094,6.574 C14.369,6.775 14.59,7.033 14.754,7.348 C14.918,7.663 15,8.047 15,8.5 C15,8.844 14.934,9.167 14.801,9.469 C14.668,9.771 14.488,10.036 14.262,10.262 C14.107,10.418 13.927,10.543 13.735,10.654 L14.469,11.388 C14.65,11.265 14.818,11.127 14.973,10.973"></path>
                <path d="M1.027,3.027 C0.712,3.343 0.462,3.712 0.277,4.137 C0.092,4.562 0,5.016 0,5.5 C0,5.984 0.092,6.439 0.277,6.863 C0.462,7.288 0.712,7.658 1.027,7.973 C1.342,8.289 1.712,8.539 2.137,8.723 C2.561,8.908 3.015,9 3.5,9 L4,9 L4,8 C3.604,8 3.225,7.955 2.863,7.863 C2.501,7.772 2.182,7.626 1.906,7.426 C1.63,7.226 1.41,6.968 1.246,6.652 C1.082,6.337 1,5.953 1,5.5 C1,5.156 1.066,4.834 1.199,4.531 C1.332,4.229 1.512,3.965 1.738,3.738 C1.89,3.587 2.065,3.464 2.25,3.354 L1.518,2.622 C1.343,2.743 1.178,2.877 1.027,3.027"></path>
                <path d="M8.999,5 L8.5,5 C8.369,5 8.246,5.024 8.119,5.038 L8.999,5.918 L8.999,5"></path>
                <path d="M8.5,11.001 C8.156,11.001 7.833,10.934 7.531,10.801 C7.229,10.669 6.964,10.489 6.738,10.262 C6.511,10.036 6.332,9.771 6.199,9.469 C6.066,9.167 6,8.844 6,8.5 C6,8.047 6.082,7.664 6.245,7.349 L5.544,6.648 C5.447,6.804 5.353,6.963 5.277,7.137 C5.092,7.562 5,8.016 5,8.5 C5,8.985 5.092,9.439 5.277,9.864 C5.462,10.289 5.712,10.658 6.027,10.973 C6.342,11.289 6.711,11.539 7.136,11.723 C7.561,11.908 8.015,12.001 8.5,12.001 L10.897,12.001 L9.897,11.001 L8.5,11.001"></path>
                <path d="M15,13.293 L14.293,14 L1,0.707 L1.707,0 L15,13.293"></path>
            </g>
        </g>
    </g>
</svg>