<?xml version="1.0" encoding="UTF-8" standalone="no"?>
<svg width="16px" height="16px" viewBox="0 0 16 16" version="1.1" xmlns="http://www.w3.org/2000/svg" xmlns:xlink="http://www.w3.org/1999/xlink">
    <defs></defs>
    <g stroke="none" stroke-width="1" fill="none" fill-rule="evenodd">
        <g fill="#000000">
            <g transform="translate(0.000000, 1.000000)">
                <path d="M5.792,3.31266667 L5.774,3.30866667 L5.792,3.31266667"></path>
                <path d="M12.3793333,9.38533333 L3.62066667,9.38533333 C3.494,9.38533333 3.392,9.28666667 3.392,9.16466667 L3.392,5.054 C3.392,2.6 5.45933333,0.604 8,0.604 C10.5413333,0.604 12.608,2.60066667 12.608,5.05466667 L12.608,9.16466667 C12.608,9.286 12.506,9.38533333 12.3793333,9.38533333 L12.3793333,9.38533333 Z M3.84933333,8.94333333 L12.1513333,8.94333333 L12.1513333,5.054 C12.1513333,2.844 10.2893333,1.04533333 8.00066667,1.04533333 C5.712,1.04533333 3.84933333,2.844 3.84933333,5.054 L3.84933333,8.94333333 L3.84933333,8.94333333 Z"></path>
                <path d="M16,11.5153333 C16,11.5153333 15.2366667,9.77 11.9953333,8.81533333 L4.00466667,8.81533333 C0.763333333,9.76933333 0,11.5153333 0,11.5153333 L0.032,11.542 L15.968,11.542 L16,11.5153333"></path>
                <path d="M15.182,11.9793333 L0.818,11.9793333 C1.11066667,12.4213333 3.57466667,14.096 8,14.096 C12.4253333,14.096 14.8893333,12.4213333 15.182,11.9793333"></path>
                <path d="M7.30066667,9.036 C7.214,9.018 5.14733333,8.62533333 4.69466667,6.928 C4.67666667,6.85733333 4.704,6.778 4.77266667,6.74666667 C4.84133333,6.70266667 4.92333333,6.71133333 4.97866667,6.76466667 C4.99266667,6.77333333 6.05266667,7.75933333 6.93066667,7.768 C7.004,7.768 7.06333333,7.808 7.09066667,7.86933333 L7.49266667,8.81066667 C7.52,8.864 7.50666667,8.92533333 7.46533333,8.97866667 C7.42866667,9.02266667 7.36466667,9.04933333 7.30066667,9.036"></path>
                <path d="M8.21924988,9.036 C8.31761819,9.018 10.5434704,8.62533333 11.0302858,6.928 C11.0496722,6.85733333 11.0152074,6.778 10.9419697,6.74666667 C10.8730401,6.70266667 10.7796979,6.71133333 10.7201025,6.76466667 C10.7100503,6.77333333 9.5633774,7.75933333 8.61774923,7.768 C8.54379349,7.768 8.47486388,7.808 8.44542519,7.86933333 L8.01676914,8.81066667 C7.98733045,8.864 7.99738268,8.92533333 8.04118171,8.97866667 C8.08139065,9.02266667 8.15534639,9.04933333 8.21924988,9.036"></path>
                <path d="M7.936,6.676 C7.104,6.65866667 6.39533333,5.854 6.4,5.72133333 C6.40466667,5.59333333 9.40333333,5.65533333 9.40333333,5.78733333 C9.39866667,5.916 8.76333333,6.68933333 7.936,6.676 L7.936,6.676 Z M7.2,4.086 C7.378,4.09066667 7.51533333,4.338 7.51066667,4.634 C7.50133333,4.94333333 7.35533333,5.182 7.17666667,5.17733333 C6.99866667,5.17266667 6.866,4.92533333 6.87066667,4.62066667 C6.87533333,4.32066667 7.026,4.082 7.2,4.086 L7.2,4.086 Z M8.79533333,4.166 C8.96933333,4.166 9.106,4.418 9.10133333,4.71866667 C9.092,5.01933333 8.946,5.262 8.76733333,5.258 C8.58933333,5.25333333 8.45666667,5.01066667 8.46533333,4.70533333 C8.47066667,4.40466667 8.61733333,4.16133333 8.79533333,4.166 L8.79533333,4.166 Z M7.954,2.36733333 C6.27666667,2.332 4.96466667,3.998 5.78266667,5.704 C6.624,7.45866667 7.30933333,8.11266667 7.78066667,9.91533333 C8.32933333,8.13466667 9.04666667,7.51133333 9.966,5.792 C10.862,4.126 9.632,2.40266667 7.954,2.36733333 L7.954,2.36733333 Z"></path>
            </g>
        </g>
    </g>
</svg>