<?xml version="1.0" encoding="UTF-8" standalone="no"?>
<svg width="16px" height="16px" viewBox="0 0 16 16" version="1.1" xmlns="http://www.w3.org/2000/svg" xmlns:xlink="http://www.w3.org/1999/xlink">
    <defs></defs>
    <g stroke="none" stroke-width="1" fill="none" fill-rule="evenodd">
        <g fill="#000000">
            <path d="M14,14 L10,14 L6,14 L2,14 L0,14 L0,2 C0,1.859 0.026,1.729 0.078,1.609 C0.13,1.489 0.202,1.384 0.293,1.293 C0.384,1.202 0.489,1.13 0.609,1.078 C0.729,1.026 0.86,1 1,1 L5.25,1 C5.474,1 5.67,1.024 5.836,1.074 C6.002,1.123 6.15,1.185 6.278,1.257 C6.405,1.331 6.521,1.411 6.625,1.5 C6.729,1.588 6.833,1.669 6.938,1.742 C7.042,1.815 7.151,1.876 7.266,1.925 C7.38,1.975 7.513,2 7.664,2 L15,2 C15.141,2 15.271,2.026 15.391,2.078 C15.51,2.13 15.616,2.202 15.707,2.293 C15.798,2.384 15.87,2.489 15.922,2.609 C15.974,2.729 16,2.859 16,3 L16,14 L14,14 Z M1,2 L1,3 L5.25,3 C5.37,3 5.475,2.987 5.566,2.961 C5.658,2.934 5.741,2.899 5.817,2.855 C5.892,2.811 5.965,2.759 6.035,2.699 C6.105,2.639 6.182,2.573 6.266,2.5 C6.182,2.427 6.105,2.36 6.035,2.3 C5.965,2.241 5.892,2.188 5.817,2.144 C5.741,2.1 5.658,2.065 5.566,2.039 C5.475,2.013 5.37,2 5.25,2 L1,2 L1,2 Z M7.664,3 C7.513,3 7.38,3.024 7.266,3.074 C7.151,3.124 7.042,3.184 6.938,3.257 C6.833,3.331 6.729,3.411 6.625,3.5 C6.521,3.588 6.405,3.669 6.278,3.742 C6.15,3.815 6.002,3.876 5.836,3.925 C5.67,3.975 5.474,4 5.25,4 L1,4 L1,13 L2,13 L14,13 L15,13 L15,3 L7.664,3 Z"></path>
        </g>
    </g>
</svg>