<?xml version="1.0" encoding="UTF-8" standalone="no"?>
<svg width="16px" height="16px" viewBox="0 0 16 16" version="1.1" xmlns="http://www.w3.org/2000/svg" xmlns:xlink="http://www.w3.org/1999/xlink">
    <defs></defs>
    <g stroke="none" stroke-width="1" fill="none" fill-rule="evenodd">
        <g>
            <circle fill="#4A4A4A" cx="8" cy="8" r="8"></circle>
            <path d="M5.26757812,6.66210938 L3.69726562,6.66210938 L3.69726562,7.92480469 L5.14453125,7.92480469 L5.14453125,8.51367188 L3.69726562,8.51367188 L3.69726562,10.2714844 L3,10.2714844 L3,6.0703125 L5.26757812,6.0703125 L5.26757812,6.66210938 Z M6.70898438,8.74804688 L6.70898438,10.2714844 L6.01464844,10.2714844 L6.01464844,6.0703125 L7.2890625,6.0703125 C7.77148679,6.0703125 8.14550648,6.18261606 8.41113281,6.40722656 C8.67675914,6.63183706 8.80957031,6.94824015 8.80957031,7.35644531 C8.80957031,7.76465048 8.67089982,8.09863151 8.39355469,8.35839844 C8.11620955,8.61816536 7.7412133,8.74804688 7.26855469,8.74804688 L6.70898438,8.74804688 Z M6.70898438,6.64453125 L6.70898438,8.1796875 L7.16015625,8.1796875 C7.45898587,8.1796875 7.68652266,8.11035226 7.84277344,7.97167969 C7.99902422,7.83300712 8.07714844,7.63769657 8.07714844,7.38574219 C8.07714844,6.89159909 7.79004193,6.64453125 7.21582031,6.64453125 L6.70898438,6.64453125 Z M11.2529297,10.3417969 C10.6474579,10.3417969 10.1625995,10.1455098 9.79833984,9.75292969 C9.43408021,9.3603496 9.25195312,8.84961252 9.25195312,8.22070312 C9.25195312,7.5449185 9.43749814,7.00586139 9.80859375,6.60351562 C10.1796894,6.20116986 10.6835906,6 11.3203125,6 C11.9101592,6 12.3852521,6.19531055 12.7456055,6.5859375 C13.1059588,6.97656445 13.2861328,7.48730153 13.2861328,8.11816406 C13.2861328,8.80371437 13.1015643,9.34570113 12.7324219,9.74414062 C12.3632794,10.1425801 11.8701203,10.3417969 11.2529297,10.3417969 L11.2529297,10.3417969 Z M11.2851562,6.61230469 C10.9003887,6.61230469 10.5874035,6.75585794 10.3461914,7.04296875 C10.1049793,7.33007956 9.984375,7.70800547 9.984375,8.17675781 C9.984375,8.64355702 10.1015613,9.01952982 10.3359375,9.3046875 C10.5703137,9.58984518 10.8769512,9.73242188 11.2558594,9.73242188 C11.6582051,9.73242188 11.9755848,9.59668104 12.2080078,9.32519531 C12.4404308,9.05370958 12.5566406,8.67383057 12.5566406,8.18554688 C12.5566406,7.68359124 12.4438488,7.2958998 12.2182617,7.02246094 C11.9926747,6.74902207 11.6816426,6.61230469 11.2851562,6.61230469 L11.2851562,6.61230469 Z" fill="#FFFFFF"></path>
        </g>
    </g>
</svg>