<?xml version="1.0" encoding="UTF-8" standalone="no"?>
<svg width="16px" height="16px" viewBox="0 0 16 16" version="1.1" xmlns="http://www.w3.org/2000/svg" xmlns:xlink="http://www.w3.org/1999/xlink">
    <defs></defs>
    <g stroke="none" stroke-width="1" fill="none" fill-rule="evenodd">
        <g fill="#000000">
            <path d="M13.9989167,7.5 C13.9989167,8.09691667 13.922,8.67216667 13.7681667,9.22683333 C13.61325,9.7815 13.3955,10.2993333 13.1138333,10.7814167 C12.8321667,11.2645833 12.4941667,11.7033333 12.09875,12.09875 C11.70225,12.4941667 11.2635,12.83325 10.7814167,13.1149167 C10.2993333,13.3955 9.78041667,13.6143333 9.22575,13.7681667 C8.67108333,13.9230833 8.09583333,14 7.49891667,14 C6.90308333,14 6.32783333,13.9230833 5.77316667,13.7681667 C5.2185,13.6143333 4.70066667,13.3955 4.2175,13.1149167 C3.73541667,12.83325 3.29666667,12.4941667 2.90016667,12.09875 C2.50475,11.7033333 2.16675,11.2645833 1.88508333,10.7814167 C1.60341667,10.2993333 1.38566667,9.7815 1.23075,9.22683333 C1.07691667,8.67216667 1,8.09691667 1,7.5 C1,6.90308333 1.07691667,6.32783333 1.23075,5.77316667 C1.38566667,5.21958333 1.60341667,4.70066667 1.88508333,4.21858333 C2.16675,3.73541667 2.50475,3.29666667 2.90016667,2.90125 C3.29666667,2.50583333 3.73541667,2.16675 4.2175,1.88508333 C4.70066667,1.6045 5.21741667,1.38566667 5.76991667,1.23183333 C6.32241667,1.07691667 6.89875,1 7.49891667,1 C8.09583333,1 8.67108333,1.07691667 9.22575,1.23183333 C9.78041667,1.38566667 10.2993333,1.6045 10.7814167,1.88508333 C11.2635,2.16675 11.70225,2.50583333 12.09875,2.90125 C12.4941667,3.29666667 12.8321667,3.73541667 13.1138333,4.21858333 C13.3955,4.70066667 13.61325,5.2185 13.7681667,5.76991667 C13.922,6.32241667 13.9989167,6.89875 13.9989167,7.5 L13.9989167,7.5 Z M1.81141667,7.5 C1.81141667,8.02108333 1.87966667,8.52266667 2.01508333,9.008 C2.1505,9.49225 2.34225,9.94508333 2.58925,10.3654167 C2.83733333,10.7868333 3.13416667,11.1714167 3.48191667,11.5180833 C3.82858333,11.86475 4.21208333,12.1626667 4.6335,12.4096667 C5.05491667,12.65775 5.50666667,12.8495 5.98875,12.9849167 C6.47083333,13.1203333 6.97458333,13.1875 7.49891667,13.1875 C8.02,13.1875 8.52266667,13.1203333 9.00691667,12.9849167 C9.49116667,12.8495 9.944,12.65775 10.3654167,12.4096667 C10.7868333,12.1626667 11.1703333,11.86475 11.5180833,11.5180833 C11.86475,11.1714167 12.1615833,10.7868333 12.4096667,10.3654167 C12.6566667,9.94508333 12.8484167,9.49225 12.9838333,9.008 C13.11925,8.52266667 13.1864167,8.02108333 13.1864167,7.5 C13.1864167,6.98 13.11925,6.47733333 12.9838333,5.992 C12.8484167,5.50775 12.6566667,5.05491667 12.4096667,4.63458333 C12.1615833,4.21316667 11.86475,3.82858333 11.5180833,3.48191667 C11.1703333,3.13525 10.7868333,2.83733333 10.3654167,2.59033333 C9.944,2.34225 9.49116667,2.1505 9.00691667,2.01616667 C8.52266667,1.88075 8.02,1.8125 7.49891667,1.8125 C6.97891667,1.8125 6.47625,1.88075 5.992,2.01616667 C5.50775,2.1505 5.05491667,2.34225 4.6335,2.59033333 C4.21208333,2.83733333 3.82858333,3.13525 3.48191667,3.48191667 C3.13416667,3.82858333 2.83733333,4.21316667 2.58925,4.63458333 C2.34225,5.05491667 2.1505,5.50666667 2.01508333,5.98983333 C1.87966667,6.47191667 1.81141667,6.97566667 1.81141667,7.5 L1.81141667,7.5 Z M11.5809167,7.5 L7.78491667,11.2895 L7.214,10.7120833 L10.0068333,7.91925 L3.43641667,7.91925 L3.43641667,7.10675 L10.03825,7.10675 L7.2075,4.27491667 L7.77841667,3.704 L11.5809167,7.5 L11.5809167,7.5 Z"></path>
        </g>
    </g>
</svg>