<?xml version="1.0" encoding="UTF-8" standalone="no"?>
<svg width="16px" height="16px" viewBox="0 0 16 16" version="1.1" xmlns="http://www.w3.org/2000/svg" xmlns:xlink="http://www.w3.org/1999/xlink">
    <defs></defs>
    <g stroke="none" stroke-width="1" fill="none" fill-rule="evenodd">
        <g fill="#000000">
            <path d="M9.286,3.143 C9.286,3.304 9.256,3.452 9.197,3.589 C9.137,3.726 9.055,3.847 8.951,3.951 C8.847,4.055 8.726,4.137 8.589,4.196 C8.452,4.256 8.304,4.286 8.143,4.286 C7.982,4.286 7.833,4.256 7.697,4.196 C7.56,4.137 7.439,4.055 7.335,3.951 C7.231,3.847 7.149,3.726 7.089,3.589 C7.03,3.452 7,3.304 7,3.143 C7,2.982 7.03,2.833 7.089,2.696 C7.149,2.56 7.231,2.439 7.335,2.335 C7.439,2.231 7.56,2.149 7.697,2.089 C7.833,2.03 7.982,2 8.143,2 C8.304,2 8.452,2.03 8.589,2.089 C8.726,2.149 8.847,2.231 8.951,2.335 C9.055,2.439 9.137,2.56 9.197,2.696 C9.256,2.833 9.286,2.982 9.286,3.143 L9.286,3.143 Z M9.286,8 C9.286,8.161 9.256,8.31 9.197,8.447 C9.137,8.583 9.055,8.704 8.951,8.808 C8.847,8.912 8.726,8.994 8.589,9.054 C8.452,9.113 8.304,9.143 8.143,9.143 C7.982,9.143 7.833,9.113 7.697,9.054 C7.56,8.994 7.439,8.912 7.335,8.808 C7.231,8.704 7.149,8.583 7.089,8.447 C7.03,8.31 7,8.161 7,8 C7,7.839 7.03,7.691 7.089,7.554 C7.149,7.417 7.231,7.296 7.335,7.192 C7.439,7.088 7.56,7.006 7.697,6.946 C7.833,6.887 7.982,6.857 8.143,6.857 C8.304,6.857 8.452,6.887 8.589,6.946 C8.726,7.006 8.847,7.088 8.951,7.192 C9.055,7.296 9.137,7.417 9.197,7.554 C9.256,7.691 9.286,7.839 9.286,8 L9.286,8 Z M9.286,12.857 C9.286,13.018 9.256,13.167 9.197,13.304 C9.137,13.441 9.055,13.561 8.951,13.665 C8.847,13.769 8.726,13.851 8.589,13.911 C8.452,13.97 8.304,14 8.143,14 C7.982,14 7.833,13.97 7.697,13.911 C7.56,13.851 7.439,13.769 7.335,13.665 C7.231,13.561 7.149,13.441 7.089,13.304 C7.03,13.167 7,13.018 7,12.857 C7,12.696 7.03,12.548 7.089,12.411 C7.149,12.274 7.231,12.153 7.335,12.049 C7.439,11.945 7.56,11.863 7.697,11.804 C7.833,11.744 7.982,11.714 8.143,11.714 C8.304,11.714 8.452,11.744 8.589,11.804 C8.726,11.863 8.847,11.945 8.951,12.049 C9.055,12.153 9.137,12.274 9.197,12.411 C9.256,12.548 9.286,12.696 9.286,12.857 L9.286,12.857 Z"></path>
        </g>
    </g>
</svg>