<?xml version="1.0" encoding="UTF-8" standalone="no"?>
<svg width="16px" height="16px" viewBox="0 0 16 16" version="1.1" xmlns="http://www.w3.org/2000/svg" xmlns:xlink="http://www.w3.org/1999/xlink">
    <defs></defs>
    <g stroke="none" stroke-width="1" fill="none" fill-rule="evenodd">
        <g fill="#4A4A4A">
            <path d="M7.5,0 C8.1927118,0 8.85806973,0.0885407812 9.49609375,0.265625 C10.1341178,0.442709219 10.731768,0.694008789 11.2890625,1.01953125 C11.846357,1.34505371 12.3528623,1.7356748 12.8085938,2.19140625 C13.2643252,2.6471377 13.6549463,3.15364305 13.9804688,3.7109375 C14.3059912,4.26823195 14.5572908,4.86588223 14.734375,5.50390625 C14.9114592,6.14193027 15,6.8072882 15,7.5 C15,8.1927118 14.9114592,8.85806973 14.734375,9.49609375 C14.5572908,10.1341178 14.3059912,10.731768 13.9804688,11.2890625 C13.6549463,11.846357 13.2643252,12.3528623 12.8085938,12.8085938 C12.3528623,13.2643252 11.846357,13.6549463 11.2890625,13.9804688 C10.731768,14.3059912 10.1341178,14.5572908 9.49609375,14.734375 C8.85806973,14.9114592 8.1927118,15 7.5,15 C6.8072882,15 6.14193027,14.9114592 5.50390625,14.734375 C4.86588223,14.5572908 4.26823195,14.3059912 3.7109375,13.9804688 C3.15364305,13.6549463 2.6471377,13.2643252 2.19140625,12.8085938 C1.7356748,12.3528623 1.34505371,11.846357 1.01953125,11.2890625 C0.694008789,10.731768 0.442709219,10.1341178 0.265625,9.49609375 C0.0885407812,8.85806973 0,8.1927118 0,7.5 C0,6.8072882 0.0885407812,6.14193027 0.265625,5.50390625 C0.442709219,4.86588223 0.694008789,4.26823195 1.01953125,3.7109375 C1.34505371,3.15364305 1.7356748,2.6471377 2.19140625,2.19140625 C2.6471377,1.7356748 3.15364305,1.34505371 3.7109375,1.01953125 C4.26823195,0.694008789 4.86588223,0.442709219 5.50390625,0.265625 C6.14193027,0.0885407812 6.8072882,0 7.5,0 L7.5,0 Z M8,13.984375 C8.53125266,13.9427081 9.04166422,13.8398446 9.53125,13.6757812 C10.0208358,13.5117179 10.4804666,13.2968763 10.9101562,13.03125 C11.3398459,12.7656237 11.7343732,12.4531268 12.09375,12.09375 C12.4531268,11.7343732 12.7656237,11.3398459 13.03125,10.9101562 C13.2968763,10.4804666 13.5117179,10.0208358 13.6757812,9.53125 C13.8398446,9.04166422 13.9427081,8.53125266 13.984375,8 L13,8 L13,7 L13.984375,7 C13.9427081,6.46874734 13.8398446,5.95833578 13.6757812,5.46875 C13.5117179,4.97916422 13.2968763,4.5195334 13.03125,4.08984375 C12.7656237,3.6601541 12.4531268,3.2656268 12.09375,2.90625 C11.7343732,2.5468732 11.3398459,2.23437633 10.9101562,1.96875 C10.4804666,1.70312367 10.0208358,1.48828207 9.53125,1.32421875 C9.04166422,1.16015543 8.53125266,1.05729188 8,1.015625 L8,2 L7,2 L7,1.015625 C6.46874734,1.05729188 5.95833578,1.16015543 5.46875,1.32421875 C4.97916422,1.48828207 4.5195334,1.70312367 4.08984375,1.96875 C3.6601541,2.23437633 3.2656268,2.5468732 2.90625,2.90625 C2.5468732,3.2656268 2.23437633,3.6601541 1.96875,4.08984375 C1.70312367,4.5195334 1.48828207,4.97916422 1.32421875,5.46875 C1.16015543,5.95833578 1.05729187,6.46874734 1.015625,7 L2,7 L2,8 L1.015625,8 C1.05729187,8.53125266 1.16015543,9.04166422 1.32421875,9.53125 C1.48828207,10.0208358 1.70312367,10.4804666 1.96875,10.9101562 C2.23437633,11.3398459 2.5468732,11.7343732 2.90625,12.09375 C3.2656268,12.4531268 3.6601541,12.7656237 4.08984375,13.03125 C4.5195334,13.2968763 4.97916422,13.5117179 5.46875,13.6757812 C5.95833578,13.8398446 6.46874734,13.9427081 7,13.984375 L7,13 L8,13 L8,13.984375 Z M8.6640625,6.3359375 L11,11 L6.3359375,8.6640625 L4,4 L8.6640625,6.3359375 Z M9.15625,9.15625 L8.0546875,6.9453125 L5.84375,5.84375 L6.9453125,8.0546875 L9.15625,9.15625 Z"></path>
        </g>
    </g>
</svg>