<?xml version="1.0" encoding="UTF-8" standalone="no"?>
<svg width="16px" height="16px" viewBox="0 0 16 16" version="1.1" xmlns="http://www.w3.org/2000/svg" xmlns:xlink="http://www.w3.org/1999/xlink">
    <defs></defs>
    <g stroke="none" stroke-width="1" fill="none" fill-rule="evenodd">
        <g fill="#4A4A4A">
            <path d="M2.7109375,8 L2.40625,8 L8,13.59375 L12.59375,9 L14.0078125,9 L8,15.0078125 L1.2421875,8.2578125 C1.05989492,8.07551992 0.898438203,7.8789073 0.7578125,7.66796875 C0.617186797,7.4570302 0.494792187,7.23437617 0.390625,7 L2.2890625,7 L4.5,4.796875 L8,8.2890625 L10.5,5.796875 L11.7109375,7 L14.484375,7 C14.6510425,6.73437367 14.7786454,6.45312648 14.8671875,6.15625 C14.9557296,5.85937352 15,5.55468906 15,5.2421875 C15,4.78906023 14.9153654,4.36718945 14.7460938,3.9765625 C14.5768221,3.58593555 14.3450536,3.2460952 14.0507812,2.95703125 C13.7565089,2.6679673 13.4127624,2.44140707 13.0195312,2.27734375 C12.6263001,2.11328043 12.2031273,2.03125 11.75,2.03125 C11.3124978,2.03125 10.9244809,2.10025973 10.5859375,2.23828125 C10.2473941,2.37630277 9.93489727,2.55729055 9.6484375,2.78125 C9.36197773,3.00520945 9.0872409,3.25911316 8.82421875,3.54296875 C8.5611966,3.82682434 8.28645977,4.11458187 8,4.40625 C7.71874859,4.12499859 7.44531383,3.84114727 7.1796875,3.5546875 C6.91406117,3.26822773 6.6367202,3.01041781 6.34765625,2.78125 C6.0585923,2.55208219 5.74349129,2.36458406 5.40234375,2.21875 C5.06119621,2.07291594 4.67708547,2 4.25,2 C3.80208109,2 3.38151238,2.08463457 2.98828125,2.25390625 C2.59505012,2.42317793 2.25130355,2.65494645 1.95703125,2.94921875 C1.66275895,3.24349105 1.43099043,3.58723762 1.26171875,3.98046875 C1.09244707,4.37369988 1.0078125,4.79426859 1.0078125,5.2421875 C1.0078125,5.48698039 1.03645805,5.73958203 1.09375,6 L0.0703125,6 C0.0442707031,5.87499937 0.0273437891,5.75000063 0.01953125,5.625 C0.0117187109,5.49999937 0.0078125,5.37500063 0.0078125,5.25 C0.0078125,4.66145539 0.118488477,4.10937758 0.33984375,3.59375 C0.561199023,3.07812242 0.863279336,2.62760609 1.24609375,2.2421875 C1.62890816,1.85676891 2.07812242,1.55338652 2.59375,1.33203125 C3.10937758,1.11067598 3.66145539,1 4.25,1 C4.68229383,1 5.06770664,1.04947867 5.40625,1.1484375 C5.74479336,1.24739633 6.0585923,1.38411371 6.34765625,1.55859375 C6.6367202,1.73307379 6.9127591,1.94270711 7.17578125,2.1875 C7.4388034,2.43229289 7.71354023,2.70051937 8,2.9921875 C8.28645977,2.70051937 8.5611966,2.43229289 8.82421875,2.1875 C9.0872409,1.94270711 9.3632798,1.73307379 9.65234375,1.55859375 C9.9414077,1.38411371 10.2552066,1.24739633 10.59375,1.1484375 C10.9322934,1.04947867 11.3177062,1 11.75,1 C12.3333363,1 12.8828099,1.11067598 13.3984375,1.33203125 C13.9140651,1.55338652 14.3632793,1.85416477 14.7460938,2.234375 C15.1289082,2.61458523 15.4309885,3.06249742 15.6523438,3.578125 C15.873699,4.09375258 15.984375,4.64322625 15.984375,5.2265625 C15.984375,5.73177336 15.8958342,6.22265387 15.71875,6.69921875 C15.5416658,7.17578363 15.2890641,7.60937305 14.9609375,8 L11.2890625,8 L10.5,7.203125 L8,9.7109375 L4.5,6.203125 L2.7109375,8 Z"></path>
        </g>
    </g>
</svg>