<?xml version="1.0" encoding="UTF-8" standalone="no"?>
<svg width="16px" height="16px" viewBox="0 0 16 16" version="1.1" xmlns="http://www.w3.org/2000/svg" xmlns:xlink="http://www.w3.org/1999/xlink">
    <defs></defs>
    <g stroke="none" stroke-width="1" fill="none" fill-rule="evenodd">
        <g fill="#4A4A4A">
            <path d="M8,4 L8,8.2890625 L10.8515625,11.1484375 L10.1484375,11.8515625 L7,8.7109375 L7,4 L8,4 Z M15.375,4.8828125 C15.7916687,5.8828175 16,6.92186961 16,8 C16,9.07813039 15.7916687,10.1171825 15.375,11.1171875 C14.968748,12.0703173 14.395837,12.916663 13.65625,13.65625 C12.916663,14.395837 12.0703173,14.968748 11.1171875,15.375 C10.1171825,15.7916687 9.07813039,16 8,16 C7.09374547,16 6.21875422,15.851564 5.375,15.5546875 C4.55207922,15.2682277 3.79948258,14.8619818 3.1171875,14.3359375 C2.44010078,13.8098932 1.85937742,13.1901077 1.375,12.4765625 C1.13020711,12.1171857 0.917969648,11.7421895 0.73828125,11.3515625 C0.558592852,10.9609355 0.411458906,10.5546896 0.296875,10.1328125 L1.2578125,9.8671875 C1.46614687,10.6223996 1.78775824,11.315101 2.22265625,11.9453125 C2.65755426,12.575524 3.17187203,13.1171852 3.765625,13.5703125 C4.35937797,14.0234398 5.01822555,14.3749987 5.7421875,14.625 C6.46614945,14.8750013 7.21874609,15 8,15 C8.6406282,15 9.2591116,14.9166675 9.85546875,14.75 C10.4518259,14.5833325 11.009112,14.3476578 11.5273438,14.0429688 C12.0455755,13.7382797 12.518227,13.372398 12.9453125,12.9453125 C13.372398,12.518227 13.7382797,12.0455755 14.0429688,11.5273438 C14.3476578,11.009112 14.5833325,10.453128 14.75,9.859375 C14.9166675,9.26562203 15,8.64583656 15,8 C15,7.3593718 14.9166675,6.7408884 14.75,6.14453125 C14.5833325,5.5481741 14.3476578,4.99088801 14.0429688,4.47265625 C13.7382797,3.95442449 13.372398,3.48177297 12.9453125,3.0546875 C12.518227,2.62760203 12.0455755,2.26172027 11.5273438,1.95703125 C11.009112,1.65234223 10.4518259,1.4166675 9.85546875,1.25 C9.2591116,1.0833325 8.6406282,1 8,1 C7.32291328,1 6.66666984,1.09505113 6.03125,1.28515625 C5.39583016,1.47526137 4.80338816,1.74478992 4.25390625,2.09375 C3.70442434,2.44271008 3.20963762,2.86327879 2.76953125,3.35546875 C2.32942488,3.84765871 1.96614727,4.39583031 1.6796875,5 L4,5 L4,6 L0,6 L0,2 L1,2 L1,4.140625 C1.08854211,3.9739575 1.18489531,3.81119871 1.2890625,3.65234375 C1.39322969,3.49348879 1.50260359,3.33854242 1.6171875,3.1875 C2.10677328,2.53645508 2.67968422,1.9739607 3.3359375,1.5 C4.02344094,1.01041422 4.76041273,0.638022109 5.546875,0.3828125 C6.33333727,0.127602891 7.15103742,0 8,0 C9.07813039,0 10.1171825,0.20833125 11.1171875,0.625 C12.0703173,1.03125203 12.916663,1.60416297 13.65625,2.34375 C14.395837,3.08333703 14.968748,3.92968273 15.375,4.8828125 L15.375,4.8828125 Z"></path>
        </g>
    </g>
</svg>