<?xml version="1.0" encoding="utf-8"?>
<!-- Generator: Adobe Illustrator 19.1.0, SVG Export Plug-In . SVG Version: 6.00 Build 0)  -->
<svg version="1.1" id="Layer_1" xmlns="http://www.w3.org/2000/svg" xmlns:xlink="http://www.w3.org/1999/xlink" x="0px" y="0px"
	 width="16px" height="16px" viewBox="0 0 16 16" style="enable-background:new 0 0 16 16;" xml:space="preserve">
<style type="text/css">
	.st0{fill:#4A4A4A;}
</style>
<g>
	<g>
		<path class="st0" d="M8,15c-0.646,0-1.267-0.083-1.863-0.25s-1.154-0.402-1.672-0.707s-0.99-0.669-1.414-1.094
			s-0.789-0.896-1.094-1.414S1.417,10.46,1.25,9.863S1,8.646,1,8s0.083-1.267,0.25-1.863s0.402-1.154,0.707-1.672
			s0.669-0.99,1.094-1.414s0.896-0.789,1.414-1.094S5.54,1.417,6.137,1.25S7.354,1,8,1s1.267,0.083,1.863,0.25
			s1.154,0.402,1.672,0.707s0.99,0.669,1.414,1.094s0.789,0.896,1.094,1.414s0.54,1.076,0.707,1.672S15,7.354,15,8
			s-0.083,1.267-0.25,1.863s-0.402,1.154-0.707,1.672s-0.669,0.99-1.094,1.414s-0.896,0.789-1.414,1.094s-1.076,0.54-1.672,0.707
			S8.646,15,8,15L8,15z M8,2C7.448,2,6.917,2.072,6.406,2.215S5.418,2.56,4.973,2.82s-0.85,0.573-1.215,0.938
			S3.081,4.527,2.82,4.973S2.358,5.896,2.215,6.406S2,7.448,2,8s0.072,1.083,0.215,1.594s0.345,0.988,0.605,1.434
			s0.573,0.85,0.938,1.215s0.77,0.677,1.215,0.938s0.923,0.462,1.434,0.605S7.448,14,8,14s1.083-0.072,1.594-0.215
			s0.988-0.345,1.434-0.605s0.85-0.573,1.215-0.938s0.677-0.77,0.938-1.215s0.462-0.923,0.605-1.434S14,8.552,14,8
			s-0.072-1.083-0.215-1.594S13.44,5.418,13.18,4.973s-0.573-0.85-0.938-1.215s-0.77-0.677-1.215-0.938s-0.923-0.462-1.434-0.605
			S8.552,2,8,2L8,2z M11,8.5H5v-1h6V8.5z"/>
	</g>
</g>
</svg>
