<?xml version="1.0" encoding="UTF-8" standalone="no"?>
<svg width="16px" height="16px" viewBox="0 0 16 16" version="1.1" xmlns="http://www.w3.org/2000/svg" xmlns:xlink="http://www.w3.org/1999/xlink">
    <defs></defs>
    <g stroke="none" stroke-width="1" fill="none" fill-rule="evenodd">
        <g fill="#4A4A4A">
            <path d="M8,15 C7.35416344,15 6.7330759,14.9166675 6.13671875,14.75 C5.5403616,14.5833325 4.98307551,14.3476578 4.46484375,14.0429688 C3.94661199,13.7382797 3.47526254,13.3737 3.05078125,12.9492188 C2.62629996,12.5247375 2.26172027,12.053388 1.95703125,11.5351562 C1.65234223,11.0169245 1.4166675,10.4596384 1.25,9.86328125 C1.0833325,9.2669241 1,8.64583656 1,8 C1,7.35416344 1.0833325,6.7330759 1.25,6.13671875 C1.4166675,5.5403616 1.65234223,4.98307551 1.95703125,4.46484375 C2.26172027,3.94661199 2.62629996,3.47526254 3.05078125,3.05078125 C3.47526254,2.62629996 3.94661199,2.26172027 4.46484375,1.95703125 C4.98307551,1.65234223 5.5403616,1.4166675 6.13671875,1.25 C6.7330759,1.0833325 7.35416344,1 8,1 C8.64583656,1 9.2669241,1.0833325 9.86328125,1.25 C10.4596384,1.4166675 11.0169245,1.65234223 11.5351562,1.95703125 C12.053388,2.26172027 12.5247375,2.62629996 12.9492188,3.05078125 C13.3737,3.47526254 13.7382797,3.94661199 14.0429688,4.46484375 C14.3476578,4.98307551 14.5833325,5.5403616 14.75,6.13671875 C14.9166675,6.7330759 15,7.35416344 15,8 C15,8.64583656 14.9166675,9.2669241 14.75,9.86328125 C14.5833325,10.4596384 14.3476578,11.0169245 14.0429688,11.5351562 C13.7382797,12.053388 13.3737,12.5247375 12.9492188,12.9492188 C12.5247375,13.3737 12.053388,13.7382797 11.5351562,14.0429688 C11.0169245,14.3476578 10.4596384,14.5833325 9.86328125,14.75 C9.2669241,14.9166675 8.64583656,15 8,15 L8,15 Z M8,2 C7.44791391,2 6.91666922,2.07161387 6.40625,2.21484375 C5.89583078,2.35807363 5.41797098,2.55989453 4.97265625,2.8203125 C4.52734152,3.08073047 4.12239766,3.39322734 3.7578125,3.7578125 C3.39322734,4.12239766 3.08073047,4.52734152 2.8203125,4.97265625 C2.55989453,5.41797098 2.35807363,5.89583078 2.21484375,6.40625 C2.07161387,6.91666922 2,7.44791391 2,8 C2,8.55208609 2.07161387,9.08333078 2.21484375,9.59375 C2.35807363,10.1041692 2.55989453,10.582029 2.8203125,11.0273438 C3.08073047,11.4726585 3.39322734,11.8776023 3.7578125,12.2421875 C4.12239766,12.6067727 4.52734152,12.9192695 4.97265625,13.1796875 C5.41797098,13.4401055 5.89583078,13.6419264 6.40625,13.7851562 C6.91666922,13.9283861 7.44791391,14 8,14 C8.55208609,14 9.08333078,13.9283861 9.59375,13.7851562 C10.1041692,13.6419264 10.582029,13.4401055 11.0273438,13.1796875 C11.4726585,12.9192695 11.8776023,12.6067727 12.2421875,12.2421875 C12.6067727,11.8776023 12.9192695,11.4726585 13.1796875,11.0273438 C13.4401055,10.582029 13.6419264,10.1041692 13.7851562,9.59375 C13.9283861,9.08333078 14,8.55208609 14,8 C14,7.44791391 13.9283861,6.91666922 13.7851562,6.40625 C13.6419264,5.89583078 13.4401055,5.41797098 13.1796875,4.97265625 C12.9192695,4.52734152 12.6067727,4.12239766 12.2421875,3.7578125 C11.8776023,3.39322734 11.4726585,3.08073047 11.0273438,2.8203125 C10.582029,2.55989453 10.1041692,2.35807363 9.59375,2.21484375 C9.08333078,2.07161387 8.55208609,2 8,2 L8,2 Z M11,8.5 L5,8.5 L5,7.5 L11,7.5 L11,8.5 Z"></path>
        </g>
    </g>
</svg>