<?xml version="1.0" encoding="UTF-8" standalone="no"?>
<svg width="16px" height="16px" viewBox="0 0 16 16" version="1.1" xmlns="http://www.w3.org/2000/svg" xmlns:xlink="http://www.w3.org/1999/xlink">
    <defs></defs>
    <g stroke="none" stroke-width="1" fill="none" fill-rule="evenodd">
        <g fill="#0078D7">
            <path d="M7.5,15 C6.8072882,15 6.14193027,14.9114592 5.50390625,14.734375 C4.86588223,14.5572908 4.26823195,14.3059912 3.7109375,13.9804688 C3.15364305,13.6549463 2.6471377,13.2643252 2.19140625,12.8085938 C1.7356748,12.3528623 1.34505371,11.846357 1.01953125,11.2890625 C0.694008789,10.731768 0.442709219,10.1341178 0.265625,9.49609375 C0.0885407813,8.85806973 0,8.1927118 0,7.5 C0,6.8072882 0.0885407813,6.14193027 0.265625,5.50390625 C0.442709219,4.86588223 0.694008789,4.26823195 1.01953125,3.7109375 C1.34505371,3.15364305 1.7356748,2.6471377 2.19140625,2.19140625 C2.6471377,1.7356748 3.15364305,1.34505371 3.7109375,1.01953125 C4.26823195,0.694008789 4.86588223,0.442709219 5.50390625,0.265625 C6.14193027,0.0885407812 6.8072882,0 7.5,0 C8.1927118,0 8.85806973,0.0885407812 9.49609375,0.265625 C10.1341178,0.442709219 10.731768,0.694008789 11.2890625,1.01953125 C11.846357,1.34505371 12.3528623,1.7356748 12.8085938,2.19140625 C13.2643252,2.6471377 13.6549463,3.15364305 13.9804688,3.7109375 C14.3059912,4.26823195 14.5572908,4.86588223 14.734375,5.50390625 C14.9114592,6.14193027 15,6.8072882 15,7.5 C15,8.1927118 14.9114592,8.85806973 14.734375,9.49609375 C14.5572908,10.1341178 14.3059912,10.731768 13.9804688,11.2890625 C13.6549463,11.846357 13.2643252,12.3528623 12.8085938,12.8085938 C12.3528623,13.2643252 11.846357,13.6549463 11.2890625,13.9804688 C10.731768,14.3059912 10.1341178,14.5572908 9.49609375,14.734375 C8.85806973,14.9114592 8.1927118,15 7.5,15 L7.5,15 Z M7,6 L8,6 L8,11 L7,11 L7,6 Z M7,4 L8,4 L8,5 L7,5 L7,4 Z"></path>
        </g>
    </g>
</svg>