<?xml version="1.0" encoding="UTF-8" standalone="no"?>
<svg width="16px" height="16px" viewBox="0 0 16 16" version="1.1" xmlns="http://www.w3.org/2000/svg" xmlns:xlink="http://www.w3.org/1999/xlink">
    <defs></defs>
    <g stroke="none" stroke-width="1" fill="none" fill-rule="evenodd">
        <g fill="#4A4A4A">
            <path d="M16,12.2890625 L16,16 L12,16 L12,14 L10,14 L10,12 L8,12 L8,10.3828125 C7.61458141,10.5859385 7.21093961,10.7395828 6.7890625,10.84375 C6.36718539,10.9479172 5.93750219,11 5.5,11 C4.99478914,11 4.50781484,10.9348965 4.0390625,10.8046875 C3.57031016,10.6744785 3.13281453,10.4895845 2.7265625,10.25 C2.32031047,10.0104155 1.94922043,9.72265793 1.61328125,9.38671875 C1.27734207,9.05077957 0.989584531,8.67968953 0.75,8.2734375 C0.510415469,7.86718547 0.325521484,7.42968984 0.1953125,6.9609375 C0.0651035156,6.49218516 0,6.00521086 0,5.5 C0,4.99478914 0.0651035156,4.50781484 0.1953125,4.0390625 C0.325521484,3.57031016 0.510415469,3.13281453 0.75,2.7265625 C0.989584531,2.32031047 1.27734207,1.94922043 1.61328125,1.61328125 C1.94922043,1.27734207 2.32031047,0.989584531 2.7265625,0.75 C3.13281453,0.510415469 3.57031016,0.325521484 4.0390625,0.1953125 C4.50781484,0.0651035156 4.99478914,0 5.5,0 C6.00521086,0 6.49218516,0.0651035156 6.9609375,0.1953125 C7.42968984,0.325521484 7.86718547,0.510415469 8.2734375,0.75 C8.67968953,0.989584531 9.05077957,1.27734207 9.38671875,1.61328125 C9.72265793,1.94922043 10.0104155,2.32031047 10.25,2.7265625 C10.4895845,3.13281453 10.6744785,3.57031016 10.8046875,4.0390625 C10.9348965,4.50781484 11,4.99478914 11,5.5 C11,5.76562633 10.9791669,6.02864453 10.9375,6.2890625 C10.8958331,6.54948047 10.8359379,6.80468625 10.7578125,7.0546875 L16,12.2890625 Z M15,12.7109375 L9.609375,7.3203125 C9.72395891,7.02343602 9.81770797,6.72526191 9.890625,6.42578125 C9.96354203,6.12630059 10,5.81770992 10,5.5 C10,4.88020523 9.8815116,4.29687773 9.64453125,3.75 C9.4075509,3.20312227 9.08593953,2.72656453 8.6796875,2.3203125 C8.27343547,1.91406047 7.79687773,1.5924491 7.25,1.35546875 C6.70312227,1.1184884 6.11979477,1 5.5,1 C4.88020523,1 4.29687773,1.1184884 3.75,1.35546875 C3.20312227,1.5924491 2.72656453,1.91406047 2.3203125,2.3203125 C1.91406047,2.72656453 1.5924491,3.20312227 1.35546875,3.75 C1.1184884,4.29687773 1,4.88020523 1,5.5 C1,6.11979477 1.1184884,6.70312227 1.35546875,7.25 C1.5924491,7.79687773 1.91406047,8.27343547 2.3203125,8.6796875 C2.72656453,9.08593953 3.20312227,9.4075509 3.75,9.64453125 C4.29687773,9.8815116 4.88020523,10 5.5,10 C6.00521086,10 6.50129965,9.91406336 6.98828125,9.7421875 C7.47526285,9.57031164 7.91406055,9.32291828 8.3046875,9 L9,9 L9,11 L11,11 L11,13 L13,13 L13,15 L15,15 L15,12.7109375 Z M4,3 C4.1406257,3 4.27083273,3.02604141 4.390625,3.078125 C4.51041727,3.13020859 4.61588496,3.20182246 4.70703125,3.29296875 C4.79817754,3.38411504 4.86979141,3.48958273 4.921875,3.609375 C4.97395859,3.72916727 5,3.8593743 5,4 C5,4.1406257 4.97395859,4.27083273 4.921875,4.390625 C4.86979141,4.51041727 4.79817754,4.61588496 4.70703125,4.70703125 C4.61588496,4.79817754 4.51041727,4.86979141 4.390625,4.921875 C4.27083273,4.97395859 4.1406257,5 4,5 C3.8593743,5 3.72916727,4.97395859 3.609375,4.921875 C3.48958273,4.86979141 3.38411504,4.79817754 3.29296875,4.70703125 C3.20182246,4.61588496 3.13020859,4.51041727 3.078125,4.390625 C3.02604141,4.27083273 3,4.1406257 3,4 C3,3.8593743 3.02604141,3.72916727 3.078125,3.609375 C3.13020859,3.48958273 3.20182246,3.38411504 3.29296875,3.29296875 C3.38411504,3.20182246 3.48958273,3.13020859 3.609375,3.078125 C3.72916727,3.02604141 3.8593743,3 4,3 L4,3 Z"></path>
        </g>
    </g>
</svg>