<?xml version="1.0" encoding="UTF-8" standalone="no"?>
<svg width="16px" height="16px" viewBox="0 0 16 16" version="1.1" xmlns="http://www.w3.org/2000/svg" xmlns:xlink="http://www.w3.org/1999/xlink">
    <defs></defs>
    <g stroke="none" stroke-width="1" fill="none" fill-rule="evenodd">
        <g fill="#4A4A4A">
            <path d="M13.5,6 C13.8437517,6 14.1666652,6.06640559 14.46875,6.19921875 C14.7708348,6.33203191 15.0351551,6.51171762 15.2617188,6.73828125 C15.4882824,6.96484488 15.6679681,7.22916516 15.8007812,7.53125 C15.9335944,7.83333484 16,8.15624828 16,8.5 C16,8.84375172 15.9335944,9.16796723 15.8007812,9.47265625 C15.6679681,9.77734527 15.4882824,10.0429676 15.2617188,10.2695312 C15.0351551,10.4960949 14.7708348,10.6744785 14.46875,10.8046875 C14.1666652,10.9348965 13.8437517,11 13.5,11 L11.5,11 C11.2031235,11 10.9192722,10.9505213 10.6484375,10.8515625 C10.3776028,10.7526037 10.1341157,10.6145842 9.91796875,10.4375 C9.70182184,10.2604158 9.51822992,10.0494804 9.3671875,9.8046875 C9.21614508,9.55989461 9.10937531,9.29166812 9.046875,9 L6.953125,9 C6.89062469,9.29166812 6.78385492,9.55989461 6.6328125,9.8046875 C6.48177008,10.0494804 6.29817816,10.2604158 6.08203125,10.4375 C5.86588434,10.6145842 5.62239719,10.7526037 5.3515625,10.8515625 C5.08072781,10.9505213 4.79687648,11 4.5,11 L2.5,11 C2.15624828,11 1.83203277,10.9348965 1.52734375,10.8046875 C1.22265473,10.6744785 0.957032383,10.4960949 0.73046875,10.2695312 C0.503905117,10.0429676 0.325521484,9.77734527 0.1953125,9.47265625 C0.0651035156,9.16796723 0,8.84375172 0,8.5 C0,8.15624828 0.0651035156,7.83333484 0.1953125,7.53125 C0.325521484,7.22916516 0.503905117,6.96484488 0.73046875,6.73828125 C0.957032383,6.51171762 1.22265473,6.33203191 1.52734375,6.19921875 C1.83203277,6.06640559 2.15624828,6 2.5,6 L4.5,6 C4.79687648,6 5.08072781,6.04947867 5.3515625,6.1484375 C5.62239719,6.24739633 5.86588434,6.38541578 6.08203125,6.5625 C6.29817816,6.73958422 6.48177008,6.95051961 6.6328125,7.1953125 C6.78385492,7.44010539 6.89062469,7.70833188 6.953125,8 L9.046875,8 C9.10937531,7.70833188 9.21614508,7.44010539 9.3671875,7.1953125 C9.51822992,6.95051961 9.70182184,6.73958422 9.91796875,6.5625 C10.1341157,6.38541578 10.3776028,6.24739633 10.6484375,6.1484375 C10.9192722,6.04947867 11.2031235,6 11.5,6 L13.5,6 Z M4.5,10 C4.65625078,10 4.80859301,9.97656273 4.95703125,9.9296875 C5.10546949,9.88281227 5.24218687,9.81510461 5.3671875,9.7265625 C5.49218813,9.63802039 5.60156203,9.5325527 5.6953125,9.41015625 C5.78906297,9.2877598 5.86197891,9.15104242 5.9140625,9 L4.5,9 C4.36458266,9 4.24739633,8.95052133 4.1484375,8.8515625 C4.04947867,8.75260367 4,8.63541734 4,8.5 C4,8.36458266 4.04947867,8.24739633 4.1484375,8.1484375 C4.24739633,8.04947867 4.36458266,8 4.5,8 L5.9140625,8 C5.86197891,7.84895758 5.78906297,7.7122402 5.6953125,7.58984375 C5.60156203,7.4674473 5.49218813,7.36197961 5.3671875,7.2734375 C5.24218687,7.18489539 5.10546949,7.11718773 4.95703125,7.0703125 C4.80859301,7.02343727 4.65625078,7 4.5,7 L2.5,7 C2.29166563,7 2.09635508,7.03906211 1.9140625,7.1171875 C1.73176992,7.19531289 1.57291734,7.30208266 1.4375,7.4375 C1.30208266,7.57291734 1.19531289,7.73176992 1.1171875,7.9140625 C1.03906211,8.09635508 1,8.29166563 1,8.5 C1,8.70833437 1.03906211,8.90364492 1.1171875,9.0859375 C1.19531289,9.26823008 1.30208266,9.42708266 1.4375,9.5625 C1.57291734,9.69791734 1.73176992,9.80468711 1.9140625,9.8828125 C2.09635508,9.96093789 2.29166563,10 2.5,10 L4.5,10 Z M13.5,10 C13.7083344,10 13.9036449,9.96093789 14.0859375,9.8828125 C14.2682301,9.80468711 14.4270827,9.69791734 14.5625,9.5625 C14.6979173,9.42708266 14.8046871,9.26823008 14.8828125,9.0859375 C14.9609379,8.90364492 15,8.70833437 15,8.5 C15,8.29166563 14.9609379,8.09635508 14.8828125,7.9140625 C14.8046871,7.73176992 14.6979173,7.57291734 14.5625,7.4375 C14.4270827,7.30208266 14.2682301,7.19531289 14.0859375,7.1171875 C13.9036449,7.03906211 13.7083344,7 13.5,7 L11.5,7 C11.3437492,7 11.191407,7.02343727 11.0429688,7.0703125 C10.8945305,7.11718773 10.7578131,7.18489539 10.6328125,7.2734375 C10.5078119,7.36197961 10.398438,7.4674473 10.3046875,7.58984375 C10.210937,7.7122402 10.1380211,7.84895758 10.0859375,8 L11.5,8 C11.6354173,8 11.7526037,8.04947867 11.8515625,8.1484375 C11.9505213,8.24739633 12,8.36458266 12,8.5 C12,8.63541734 11.9505213,8.75260367 11.8515625,8.8515625 C11.7526037,8.95052133 11.6354173,9 11.5,9 L10.0859375,9 C10.1380211,9.15104242 10.210937,9.2877598 10.3046875,9.41015625 C10.398438,9.5325527 10.5078119,9.63802039 10.6328125,9.7265625 C10.7578131,9.81510461 10.8945305,9.88281227 11.0429688,9.9296875 C11.191407,9.97656273 11.3437492,10 11.5,10 L13.5,10 Z"></path>
        </g>
    </g>
</svg>