<?xml version="1.0" encoding="UTF-8" standalone="no"?>
<svg width="16px" height="16px" viewBox="0 0 16 16" version="1.1" xmlns="http://www.w3.org/2000/svg" xmlns:xlink="http://www.w3.org/1999/xlink">
    <defs></defs>
    <g stroke="none" stroke-width="1" fill="none" fill-rule="evenodd">
        <g fill="#4A4A4A">
            <path d="M14,7 L14,16 L2,16 L2,7 L4,7 L4,4.078125 C4,3.51562219 4.10156148,2.98698164 4.3046875,2.4921875 C4.50781352,1.99739336 4.7890607,1.56510602 5.1484375,1.1953125 C5.5078143,0.825518984 5.93098715,0.533855234 6.41796875,0.3203125 C6.90495035,0.106769766 7.43228883,0 8,0 C8.56771117,0 9.09504965,0.106769766 9.58203125,0.3203125 C10.0690129,0.533855234 10.4921857,0.825518984 10.8515625,1.1953125 C11.2109393,1.56510602 11.4921865,1.99739336 11.6953125,2.4921875 C11.8984385,2.98698164 12,3.51562219 12,4.078125 L12,7 L14,7 Z M5,7 L11,7 L11,4.078125 C11,3.65624789 10.9244799,3.25911645 10.7734375,2.88671875 C10.6223951,2.51432105 10.4127618,2.18750141 10.1445312,1.90625 C9.87630074,1.62499859 9.55859559,1.40364664 9.19140625,1.2421875 C8.82421691,1.08072836 8.42708547,1 8,1 C7.57291453,1 7.17578309,1.08072836 6.80859375,1.2421875 C6.44140441,1.40364664 6.12369926,1.62499859 5.85546875,1.90625 C5.58723824,2.18750141 5.37760492,2.51432105 5.2265625,2.88671875 C5.07552008,3.25911645 5,3.65624789 5,4.078125 L5,7 Z M13,8 L3,8 L3,15 L13,15 L13,8 Z"></path>
        </g>
    </g>
</svg>