<?xml version="1.0" encoding="UTF-8" standalone="no"?>
<svg width="16px" height="16px" viewBox="0 0 16 16" version="1.1" xmlns="http://www.w3.org/2000/svg" xmlns:xlink="http://www.w3.org/1999/xlink">
    <defs></defs>
    <g stroke="none" stroke-width="1" fill="none" fill-rule="evenodd">
        <g fill="#323232">
            <path d="M14,0 L14,16 L3,16 C2.72395695,16 2.46484496,15.9479172 2.22265625,15.84375 C1.98046754,15.7395828 1.76823008,15.5963551 1.5859375,15.4140625 C1.40364492,15.2317699 1.26041719,15.0195325 1.15625,14.7773438 C1.05208281,14.535155 1,14.276043 1,14 L1,2 C1,1.74479039 1.05598902,1.49609496 1.16796875,1.25390625 C1.27994848,1.01171754 1.42838449,0.798178008 1.61328125,0.61328125 C1.79817801,0.428384492 2.01041547,0.279948477 2.25,0.16796875 C2.48958453,0.0559890234 2.73958203,0 3,0 L14,0 Z M13,13 L3,13 C2.8593743,13 2.72916727,13.0260414 2.609375,13.078125 C2.48958273,13.1302086 2.38411504,13.2018225 2.29296875,13.2929688 C2.20182246,13.384115 2.13020859,13.4895827 2.078125,13.609375 C2.02604141,13.7291673 2,13.8593743 2,14 C2,14.1406257 2.02604141,14.2708327 2.078125,14.390625 C2.13020859,14.5104173 2.20182246,14.615885 2.29296875,14.7070312 C2.38411504,14.7981775 2.48958273,14.8697914 2.609375,14.921875 C2.72916727,14.9739586 2.8593743,15 3,15 L13,15 L13,13 Z M2,12.265625 C2.31250156,12.0885408 2.64583156,12 3,12 L13,12 L13,1 L3,1 C2.88020773,1 2.76041727,1.02994762 2.640625,1.08984375 C2.52083273,1.14973988 2.41406297,1.22656203 2.3203125,1.3203125 C2.22656203,1.41406297 2.14973988,1.52083273 2.08984375,1.640625 C2.02994762,1.76041727 2,1.88020773 2,2 L2,12.265625 Z M4,3 L11,3 L11,6 L4,6 L4,3 Z M5,5 L10,5 L10,4 L5,4 L5,5 Z"></path>
        </g>
    </g>
</svg>