<?xml version="1.0" encoding="UTF-8" standalone="no"?>
<svg width="16px" height="16px" viewBox="0 0 16 16" version="1.1" xmlns="http://www.w3.org/2000/svg" xmlns:xlink="http://www.w3.org/1999/xlink">
    <defs></defs>
    <g stroke="none" stroke-width="1" fill="none" fill-rule="evenodd">
        <g fill="#4A4A4A">
            <path d="M7.5,0 C8.18750344,0 8.85025723,0.0898428516 9.48828125,0.26953125 C10.1263053,0.449219648 10.7239555,0.701821289 11.28125,1.02734375 C11.8385445,1.35286621 12.3450498,1.7434873 12.8007812,2.19921875 C13.2565127,2.6549502 13.6471338,3.16145555 13.9726562,3.71875 C14.2981787,4.27604445 14.5507804,4.87369473 14.7304688,5.51171875 C14.9101571,6.14974277 15,6.81249656 15,7.5 C15,8.18750344 14.9101571,8.85025723 14.7304688,9.48828125 C14.5507804,10.1263053 14.2981787,10.7239555 13.9726562,11.28125 C13.6471338,11.8385445 13.2565127,12.3450498 12.8007812,12.8007812 C12.3450498,13.2565127 11.8385445,13.6471338 11.28125,13.9726562 C10.7239555,14.2981787 10.1263053,14.5507804 9.48828125,14.7304688 C8.85025723,14.9101571 8.18750344,15 7.5,15 C6.81249656,15 6.14974277,14.9101571 5.51171875,14.7304688 C4.87369473,14.5507804 4.27604445,14.2981787 3.71875,13.9726562 C3.16145555,13.6471338 2.6549502,13.2565127 2.19921875,12.8007812 C1.7434873,12.3450498 1.35286621,11.8385445 1.02734375,11.28125 C0.701821289,10.7239555 0.449219648,10.1263053 0.26953125,9.48828125 C0.0898428516,8.85025723 0,8.18750344 0,7.5 C0,6.81249656 0.0898428516,6.14974277 0.26953125,5.51171875 C0.449219648,4.87369473 0.701821289,4.27604445 1.02734375,3.71875 C1.35286621,3.16145555 1.7434873,2.6549502 2.19921875,2.19921875 C2.6549502,1.7434873 3.16145555,1.35286621 3.71875,1.02734375 C4.27604445,0.701821289 4.87369473,0.449219648 5.51171875,0.26953125 C6.14974277,0.0898428516 6.81249656,0 7.5,0 L7.5,0 Z M7.5,14 C8.09896133,14 8.67447641,13.9218758 9.2265625,13.765625 C9.77864859,13.6093742 10.2955705,13.3906264 10.7773438,13.109375 C11.259117,12.8281236 11.6979147,12.4895853 12.09375,12.09375 C12.4895853,11.6979147 12.8281236,11.259117 13.109375,10.7773438 C13.3906264,10.2955705 13.6093742,9.77864859 13.765625,9.2265625 C13.9218758,8.67447641 14,8.09896133 14,7.5 C14,6.90103867 13.9218758,6.32552359 13.765625,5.7734375 C13.6093742,5.22135141 13.3906264,4.70442949 13.109375,4.22265625 C12.8281236,3.74088301 12.4895853,3.30208531 12.09375,2.90625 C11.6979147,2.51041469 11.259117,2.17187641 10.7773438,1.890625 C10.2955705,1.60937359 9.77864859,1.39062578 9.2265625,1.234375 C8.67447641,1.07812422 8.09896133,1 7.5,1 C6.90103867,1 6.32552359,1.07812422 5.7734375,1.234375 C5.22135141,1.39062578 4.70442949,1.60937359 4.22265625,1.890625 C3.74088301,2.17187641 3.30208531,2.51041469 2.90625,2.90625 C2.51041469,3.30208531 2.17187641,3.74088301 1.890625,4.22265625 C1.60937359,4.70442949 1.39062578,5.22135141 1.234375,5.7734375 C1.07812422,6.32552359 1,6.90103867 1,7.5 C1,8.09896133 1.07812422,8.67447641 1.234375,9.2265625 C1.39062578,9.77864859 1.60937359,10.2955705 1.890625,10.7773438 C2.17187641,11.259117 2.51041469,11.6979147 2.90625,12.09375 C3.30208531,12.4895853 3.74088301,12.8281236 4.22265625,13.109375 C4.70442949,13.3906264 5.22135141,13.6093742 5.7734375,13.765625 C6.32552359,13.9218758 6.90103867,14 7.5,14 L7.5,14 Z M8.84375,6.84375 C8.94791719,7.05208437 9,7.27083219 9,7.5 C9,7.70833437 8.96093789,7.90364492 8.8828125,8.0859375 C8.80468711,8.26823008 8.69791734,8.42708266 8.5625,8.5625 C8.42708266,8.69791734 8.26823008,8.80468711 8.0859375,8.8828125 C7.90364492,8.96093789 7.70833437,9 7.5,9 C7.29166563,9 7.09635508,8.96093789 6.9140625,8.8828125 C6.73176992,8.80468711 6.57291734,8.69791734 6.4375,8.5625 C6.30208266,8.42708266 6.19531289,8.26823008 6.1171875,8.0859375 C6.03906211,7.90364492 6,7.70833437 6,7.5 C6,7.29166563 6.03906211,7.09635508 6.1171875,6.9140625 C6.19531289,6.73176992 6.30208266,6.57291734 6.4375,6.4375 C6.57291734,6.30208266 6.73176992,6.19531289 6.9140625,6.1171875 C7.09635508,6.03906211 7.29166563,6 7.5,6 C7.72916781,6 7.94791563,6.05208281 8.15625,6.15625 L8.1484375,6.1484375 L11.0234375,3.2734375 L11.7265625,3.9765625 L8.8515625,6.8515625 L8.84375,6.84375 Z M7.5,8 C7.63541734,8 7.75260367,7.95052133 7.8515625,7.8515625 C7.95052133,7.75260367 8,7.63541734 8,7.5 C8,7.36458266 7.95052133,7.24739633 7.8515625,7.1484375 C7.75260367,7.04947867 7.63541734,7 7.5,7 C7.36458266,7 7.24739633,7.04947867 7.1484375,7.1484375 C7.04947867,7.24739633 7,7.36458266 7,7.5 C7,7.63541734 7.04947867,7.75260367 7.1484375,7.8515625 C7.24739633,7.95052133 7.36458266,8 7.5,8 L7.5,8 Z M12.5,5.25 C12.6614591,5.60416844 12.7825517,5.9700502 12.8632812,6.34765625 C12.9440108,6.7252623 12.984375,7.10937305 12.984375,7.5 C12.984375,8.22917031 12.8476576,8.93098621 12.5742188,9.60546875 C12.3007799,10.2799513 11.9062526,10.8749974 11.390625,11.390625 L10.6796875,10.6796875 C11.1015646,10.2578104 11.4270822,9.77604437 11.65625,9.234375 C11.8854178,8.69270563 12,8.12239883 12,7.5234375 C12,6.87760094 11.8645847,6.25521133 11.59375,5.65625 L12.5,5.25 Z M9.34375,3.40625 C8.74478867,3.13541531 8.12239906,3 7.4765625,3 C7.06510211,3 6.66927273,3.05338488 6.2890625,3.16015625 C5.90885227,3.26692762 5.552085,3.41926984 5.21875,3.6171875 C4.885415,3.81510516 4.58333469,4.05077988 4.3125,4.32421875 C4.04166531,4.59765762 3.80859473,4.90104 3.61328125,5.234375 C3.41796777,5.56771 3.26692762,5.92577934 3.16015625,6.30859375 C3.05338488,6.69140816 3,7.08853961 3,7.5 C3,8.09896133 3.11458219,8.67317434 3.34375,9.22265625 C3.57291781,9.77213816 3.89843539,10.2578104 4.3203125,10.6796875 L3.609375,11.390625 C3.08853906,10.8697891 2.69010555,10.2747429 2.4140625,9.60546875 C2.13801945,8.93619457 2,8.23437867 2,7.5 C2,6.99478914 2.06510352,6.50781484 2.1953125,6.0390625 C2.32552148,5.57031016 2.51041547,5.13281453 2.75,4.7265625 C2.98958453,4.32031047 3.27604,3.9505225 3.609375,3.6171875 C3.94271,3.2838525 4.31249797,2.9986991 4.71875,2.76171875 C5.12500203,2.5247384 5.56249766,2.34114648 6.03125,2.2109375 C6.50000234,2.08072852 6.98958078,2.015625 7.5,2.015625 C7.89062695,2.015625 8.2747377,2.05598918 8.65234375,2.13671875 C9.0299498,2.21744832 9.39583156,2.33854086 9.75,2.5 L9.34375,3.40625 Z"></path>
        </g>
    </g>
</svg>