<?xml version="1.0" encoding="UTF-8" standalone="no"?>
<svg width="16px" height="16px" viewBox="0 0 16 16" version="1.1" xmlns="http://www.w3.org/2000/svg" xmlns:xlink="http://www.w3.org/1999/xlink">
    <defs></defs>
    <g stroke="none" stroke-width="1" fill="none" fill-rule="evenodd">
        <g fill="#4A4A4A">
            <path d="M8,15 C8.80208734,15 9.5716109,14.8763033 10.3085938,14.6289062 C11.0455766,14.3815092 11.7174449,14.0325543 12.3242188,13.5820312 C12.9309926,13.1315082 13.4596332,12.5898469 13.9101562,11.9570312 C14.3606793,11.3242156 14.7031238,10.6223997 14.9375,9.8515625 L15.890625,10.1484375 C15.630207,11.0182335 15.2421901,11.8111943 14.7265625,12.5273438 C14.2109349,13.2434932 13.6054722,13.8593724 12.9101562,14.375 C12.2148403,14.8906276 11.4492229,15.2903632 10.6132812,15.5742188 C9.77733957,15.8580743 8.90625453,16 8,16 C7.28645477,16 6.59114922,15.9114592 5.9140625,15.734375 C5.23697578,15.5572908 4.59765926,15.3007829 3.99609375,14.9648438 C3.39452824,14.6289046 2.83854422,14.2200545 2.328125,13.7382812 C1.81770578,13.256508 1.37500188,12.7109405 1,12.1015625 L1,14 L0,14 L0,10 L4,10 L4,11 L1.53125,11 C1.8385432,11.609378 2.2200498,12.1601538 2.67578125,12.6523438 C3.1315127,13.1445337 3.64062219,13.5638004 4.203125,13.9101562 C4.76562781,14.2565121 5.36848637,14.5247386 6.01171875,14.7148438 C6.65495113,14.9049489 7.31770492,15 8,15 L8,15 Z M16,2 L16,6 L12,6 L12,5 L14.46875,5 C14.1614568,4.39062195 13.7799502,3.83984621 13.3242188,3.34765625 C12.8684873,2.85546629 12.3593778,2.43619965 11.796875,2.08984375 C11.2343722,1.74348785 10.6315136,1.47526137 9.98828125,1.28515625 C9.34504887,1.09505113 8.68229508,1 8,1 C7.19791266,1 6.4283891,1.12369668 5.69140625,1.37109375 C4.9544234,1.61849082 4.28255512,1.96744566 3.67578125,2.41796875 C3.06900738,2.86849184 2.54036684,3.41015309 2.08984375,4.04296875 C1.63932066,4.67578441 1.29687617,5.37760031 1.0625,6.1484375 L0.109375,5.8515625 C0.369792969,4.98697484 0.757809922,4.19531609 1.2734375,3.4765625 C1.78906508,2.75780891 2.39452777,2.14062758 3.08984375,1.625 C3.78515973,1.10937242 4.55077707,0.709636836 5.38671875,0.42578125 C6.22266043,0.141925664 7.09374547,0 8,0 C8.71354523,0 9.40885078,0.0885407812 10.0859375,0.265625 C10.7630242,0.442709219 11.4023407,0.69921707 12.0039062,1.03515625 C12.6054718,1.37109543 13.1614558,1.77994551 13.671875,2.26171875 C14.1822942,2.74349199 14.6249981,3.28905945 15,3.8984375 L15,2 L16,2 Z"></path>
        </g>
    </g>
</svg>