<?xml version="1.0" encoding="UTF-8" standalone="no"?>
<svg width="16px" height="16px" viewBox="0 0 16 16" version="1.1" xmlns="http://www.w3.org/2000/svg" xmlns:xlink="http://www.w3.org/1999/xlink">
    <defs></defs>
    <g stroke="none" stroke-width="1" fill="none" fill-rule="evenodd">
        <g fill="#4A4A4A">
            <path d="M10.390625,9.3984375 C11.0989619,9.64323039 11.7382784,9.98567488 12.3085938,10.4257812 C12.8789091,10.8658876 13.3632793,11.3749971 13.7617188,11.953125 C14.1601582,12.5312529 14.4661448,13.1640591 14.6796875,13.8515625 C14.8932302,14.5390659 15,15.2552046 15,16 L14,16 C14,15.1458291 13.8476578,14.3528682 13.5429688,13.6210938 C13.2382797,12.8893193 12.817711,12.255211 12.28125,11.71875 C11.744789,11.182289 11.1106807,10.7617203 10.3789062,10.4570312 C9.64713176,10.1523422 8.85417094,10 8,10 C7.44270555,10 6.90625258,10.0703118 6.390625,10.2109375 C5.87499742,10.3515632 5.39453348,10.55078 4.94921875,10.8085938 C4.50390402,11.0664075 4.10026223,11.3763003 3.73828125,11.7382812 C3.37630027,12.1002622 3.06640754,12.503904 2.80859375,12.9492188 C2.55077996,13.3945335 2.3515632,13.8749974 2.2109375,14.390625 C2.0703118,14.9062526 2,15.4427055 2,16 L1,16 C1,15.2499963 1.10937391,14.5325555 1.328125,13.8476562 C1.54687609,13.162757 1.85676883,12.533857 2.2578125,11.9609375 C2.65885617,11.388018 3.1445284,10.8828147 3.71484375,10.4453125 C4.2851591,10.0078103 4.92187148,9.66145961 5.625,9.40625 C5.21874797,9.18749891 4.85416828,8.92187656 4.53125,8.609375 C4.20833172,8.29687344 3.93359488,7.94922066 3.70703125,7.56640625 C3.48046762,7.18359184 3.3059902,6.77474176 3.18359375,6.33984375 C3.0611973,5.90494574 3,5.45833563 3,5 C3,4.3072882 3.13020703,3.65755512 3.390625,3.05078125 C3.65104297,2.44400738 4.00781023,1.91406477 4.4609375,1.4609375 C4.91406477,1.00781023 5.44400738,0.651042969 6.05078125,0.390625 C6.65755512,0.130207031 7.3072882,0 8,0 C8.6927118,0 9.34244488,0.130207031 9.94921875,0.390625 C10.5559926,0.651042969 11.0859352,1.00781023 11.5390625,1.4609375 C11.9921898,1.91406477 12.348957,2.44400738 12.609375,3.05078125 C12.869793,3.65755512 13,4.3072882 13,5 C13,5.45833563 12.9388027,5.90364367 12.8164062,6.3359375 C12.6940098,6.76823133 12.5195324,7.17447727 12.2929688,7.5546875 C12.0664051,7.93489773 11.7929704,8.28255051 11.4726562,8.59765625 C11.1523421,8.91276199 10.7916687,9.17968641 10.390625,9.3984375 L10.390625,9.3984375 Z M4,5 C4,5.55208609 4.1054677,6.07031008 4.31640625,6.5546875 C4.5273448,7.03906492 4.81380027,7.46223777 5.17578125,7.82421875 C5.53776223,8.18619973 5.96093508,8.4726552 6.4453125,8.68359375 C6.92968992,8.8945323 7.44791391,9 8,9 C8.55208609,9 9.07031008,8.8945323 9.5546875,8.68359375 C10.0390649,8.4726552 10.4622378,8.18619973 10.8242188,7.82421875 C11.1861997,7.46223777 11.4726552,7.03906492 11.6835938,6.5546875 C11.8945323,6.07031008 12,5.55208609 12,5 C12,4.44791391 11.8945323,3.92968992 11.6835938,3.4453125 C11.4726552,2.96093508 11.1861997,2.53776223 10.8242188,2.17578125 C10.4622378,1.81380027 10.0390649,1.5273448 9.5546875,1.31640625 C9.07031008,1.1054677 8.55208609,1 8,1 C7.44791391,1 6.92968992,1.1054677 6.4453125,1.31640625 C5.96093508,1.5273448 5.53776223,1.81380027 5.17578125,2.17578125 C4.81380027,2.53776223 4.5273448,2.96093508 4.31640625,3.4453125 C4.1054677,3.92968992 4,4.44791391 4,5 L4,5 Z"></path>
        </g>
    </g>
</svg>