<?xml version="1.0" encoding="UTF-8" standalone="no"?>
<svg width="16px" height="16px" viewBox="0 0 16 16" version="1.1" xmlns="http://www.w3.org/2000/svg" xmlns:xlink="http://www.w3.org/1999/xlink">
    <defs></defs>
    <g stroke="none" stroke-width="1" fill="none" fill-rule="evenodd">
        <g fill="#4A4A4A">
            <path d="M0,10 L0,9 L1,9 L1,10 L0,10 Z M0,7 L0,6 L1,6 L1,7 L0,7 Z M3,7 L3,6 L16,6 L16,7 L3,7 Z M0,4 L0,3 L1,3 L1,4 L0,4 Z M3,3 L16,3 L16,4 L3,4 L3,3 Z M3,10 L3,9 L16,9 L16,10 L3,10 Z M0,13 L0,12 L1,12 L1,13 L0,13 Z M3,13 L3,12 L16,12 L16,13 L3,13 Z"></path>
        </g>
    </g>
</svg>