<?xml version="1.0" encoding="UTF-8" standalone="no"?>
<svg width="16px" height="16px" viewBox="0 0 16 16" version="1.1" xmlns="http://www.w3.org/2000/svg" xmlns:xlink="http://www.w3.org/1999/xlink">
    <defs></defs>
    <g stroke="none" stroke-width="1" fill="none" fill-rule="evenodd">
        <g fill="#4A4A4A">
            <path d="M15,1 L15,15 L1,15 L1,1 L15,1 Z M2,2 L2,10 L3.171875,10 L4.0234375,9.1484375 C4.12239633,9.04947867 4.23958266,9 4.375,9 C4.51041734,9 4.62760367,9.04947867 4.7265625,9.1484375 L6.109375,10.5234375 L8.015625,3.125 C8.0416668,3.01562445 8.10025996,2.9257816 8.19140625,2.85546875 C8.28255254,2.7851559 8.38541609,2.75 8.5,2.75 C8.61979227,2.75 8.72395789,2.7851559 8.8125,2.85546875 C8.90104211,2.9257816 8.9583332,3.01822859 8.984375,3.1328125 L9.78125,6.390625 L11,6.390625 C11.1145839,6.390625 11.2174475,6.4257809 11.3085938,6.49609375 C11.39974,6.5664066 11.4583332,6.65624945 11.484375,6.765625 L12.046875,9 L14,9 L14,2 L2,2 Z M14,14 L14,10 L11.65625,10 C11.5364577,10 11.4322921,9.9648441 11.34375,9.89453125 C11.2552079,9.8242184 11.1979168,9.73177141 11.171875,9.6171875 L10.609375,7.390625 L9.390625,7.390625 C9.27083273,7.390625 9.16666711,7.3554691 9.078125,7.28515625 C8.98958289,7.2148434 8.9322918,7.12239641 8.90625,7.0078125 L8.484375,5.3046875 L6.859375,11.625 C6.8333332,11.7343755 6.77474004,11.8242184 6.68359375,11.8945312 C6.59244746,11.9648441 6.48958391,12 6.375,12 C6.23958266,12 6.12239633,11.9505213 6.0234375,11.8515625 L4.375,10.203125 L3.7265625,10.8515625 C3.62760367,10.9505213 3.51041734,11 3.375,11 L2,11 L2,14 L14,14 Z"></path>
        </g>
    </g>
</svg>