<?xml version="1.0" encoding="UTF-8" standalone="no"?>
<svg width="16px" height="16px" viewBox="0 0 16 16" version="1.1" xmlns="http://www.w3.org/2000/svg" xmlns:xlink="http://www.w3.org/1999/xlink">
    <defs></defs>
    <g stroke="none" stroke-width="1" fill="none" fill-rule="evenodd">
        <g fill="#4A4A4A">
            <path d="M7,15 L8,15 L8,16 L7,16 L7,15 Z M7.5,0 C7.91146039,0 8.30859184,0.0533848828 8.69140625,0.16015625 C9.07422066,0.266927617 9.43229,0.417967773 9.765625,0.61328125 C10.09896,0.808594727 10.4036445,1.04426945 10.6796875,1.3203125 C10.9557305,1.59635555 11.1914053,1.90104 11.3867188,2.234375 C11.5820322,2.56771 11.7330724,2.92577934 11.8398438,3.30859375 C11.9466151,3.69140816 12,4.08853961 12,4.5 C12,4.93750219 11.9427089,5.33333156 11.828125,5.6875 C11.7135411,6.04166844 11.5625009,6.36588395 11.375,6.66015625 C11.1874991,6.95442855 10.9739595,7.22656125 10.734375,7.4765625 C10.4947905,7.72656375 10.2500013,7.96874883 10,8.203125 C9.74999875,8.43750117 9.50520953,8.67057176 9.265625,8.90234375 C9.02604047,9.13411574 8.81250094,9.38020703 8.625,9.640625 C8.43749906,9.90104297 8.28645891,10.1822902 8.171875,10.484375 C8.05729109,10.7864598 8,11.1249981 8,11.5 L8,13 L7,13 L7,11.5 C7,11.0624978 7.05729109,10.6666684 7.171875,10.3125 C7.28645891,9.95833156 7.43749906,9.63411605 7.625,9.33984375 C7.81250094,9.04557145 8.02604047,8.77474082 8.265625,8.52734375 C8.50520953,8.27994668 8.74999875,8.03906367 9,7.8046875 C9.25000125,7.57031133 9.49479047,7.33593867 9.734375,7.1015625 C9.97395953,6.86718633 10.1874991,6.61979297 10.375,6.359375 C10.5625009,6.09895703 10.7135411,5.81770984 10.828125,5.515625 C10.9427089,5.21354016 11,4.87500188 11,4.5 C11,4.01562258 10.907553,3.56120004 10.7226562,3.13671875 C10.5377595,2.71223746 10.287762,2.34244949 9.97265625,2.02734375 C9.65755051,1.71223801 9.28776254,1.46224051 8.86328125,1.27734375 C8.43879996,1.09244699 7.98437742,1 7.5,1 C7.01562258,1 6.56120004,1.09244699 6.13671875,1.27734375 C5.71223746,1.46224051 5.34244949,1.71223801 5.02734375,2.02734375 C4.71223801,2.34244949 4.46224051,2.71223746 4.27734375,3.13671875 C4.09244699,3.56120004 4,4.01562258 4,4.5 L3,4.5 C3,4.08853961 3.05338488,3.69140816 3.16015625,3.30859375 C3.26692762,2.92577934 3.41796777,2.56771 3.61328125,2.234375 C3.80859473,1.90104 4.04426945,1.59635555 4.3203125,1.3203125 C4.59635555,1.04426945 4.90104,0.808594727 5.234375,0.61328125 C5.56771,0.417967773 5.92577934,0.266927617 6.30859375,0.16015625 C6.69140816,0.0533848828 7.08853961,0 7.5,0 L7.5,0 Z"></path>
        </g>
    </g>
</svg>