<?xml version="1.0" encoding="UTF-8" standalone="no"?>
<svg width="16px" height="16px" viewBox="0 0 16 16" version="1.1" xmlns="http://www.w3.org/2000/svg" xmlns:xlink="http://www.w3.org/1999/xlink">
    <defs></defs>
    <g stroke="none" stroke-width="1" fill="none" fill-rule="evenodd">
        <g fill="#4A4A4A">
            <path d="M0,2 L16,2 L16,3 L0,3 L0,2 Z M0,8 L0,7 L16,7 L16,8 L0,8 Z M9,13 L9,12 L16,12 L16,13 L9,13 Z"></path>
            <path d="M0.856500006,10 C0.856500006,10.294636 0.912458006,10.572142 1.02437401,10.83366 C1.13514801,11.094036 1.28817601,11.321294 1.48231601,11.515434 C1.67645601,11.709574 1.90371401,11.862602 2.16523201,11.973376 C2.42560802,12.085292 2.70311402,12.14125 2.99775002,12.14125 L6.03547004,12.14125 L4.94486003,11.05064 L5.54669404,10.448806 L7.66853005,12.5695 L5.54669404,14.690194 L4.94486003,14.08836 L6.03547004,12.99775 L2.78419602,12.99775 L2.78419602,12.990898 C2.39134802,12.964632 2.02476601,12.867562 1.68673401,12.699688 C1.34756001,12.532956 1.05292401,12.314834 0.802826005,12.047606 C0.552728004,11.780378 0.357446002,11.470896 0.213554001,11.120302 C0.0719460005,10.77085 0,10.397416 0,10"></path>
        </g>
    </g>
</svg>