<?xml version="1.0" encoding="UTF-8" standalone="no"?>
<svg width="16px" height="16px" viewBox="0 0 16 16" version="1.1" xmlns="http://www.w3.org/2000/svg" xmlns:xlink="http://www.w3.org/1999/xlink">
    <defs></defs>
    <g stroke="none" stroke-width="1" fill="none" fill-rule="evenodd">
        <g fill="#4A4A4A">
            <path d="M13,5 C13,5.54133333 12.9146667,6.06933333 12.7453333,6.58133333 C12.576,7.09466667 12.328,7.568 12,8 L12,16 L8,14 L4,16 L4,8 C3.672,7.568 3.42266667,7.09466667 3.25333333,6.58133333 C3.084,6.06933333 3,5.54133333 3,5 C3,4.30666667 3.12933333,3.65733333 3.39066667,3.05066667 C3.65066667,2.444 4.008,1.91333333 4.46,1.46133333 C4.91333333,1.008 5.444,0.650666667 6.05066667,0.390666667 C6.65733333,0.130666667 7.30666667,0 8,0 C8.692,0 9.34266667,0.130666667 9.94933333,0.390666667 C10.556,0.650666667 11.0853333,1.008 11.5386667,1.46133333 C11.992,1.91333333 12.3493333,2.444 12.6093333,3.05066667 C12.8693333,3.65733333 13,4.30666667 13,5 L13,5 Z M8,1 C7.448,1 6.92933333,1.10533333 6.44533333,1.316 C5.96,1.52666667 5.53733333,1.81333333 5.176,2.176 C4.81333333,2.53733333 4.52666667,2.96133333 4.316,3.44533333 C4.10533333,3.92933333 4,4.448 4,5 C4,5.552 4.10533333,6.07066667 4.316,6.55466667 C4.52666667,7.03866667 4.81333333,7.46266667 5.176,7.824 C5.53733333,8.18666667 5.96,8.472 6.44533333,8.684 C6.92933333,8.89466667 7.448,9 8,9 C8.552,9 9.07066667,8.89466667 9.55466667,8.684 C10.0386667,8.472 10.4626667,8.18666667 10.824,7.824 C11.1853333,7.46266667 11.472,7.03866667 11.6826667,6.55466667 C11.8946667,6.07066667 12,5.552 12,5 C12,4.448 11.8946667,3.92933333 11.6826667,3.44533333 C11.472,2.96133333 11.1853333,2.53733333 10.824,2.176 C10.4626667,1.81333333 10.0386667,1.52666667 9.55466667,1.316 C9.07066667,1.10533333 8.552,1 8,1 L8,1 Z M8,8 C7.58266667,8 7.19333333,7.92133333 6.832,7.76533333 C6.46933333,7.60933333 6.152,7.39466667 5.87866667,7.12133333 C5.60533333,6.848 5.39066667,6.52933333 5.23466667,6.168 C5.07733333,5.80533333 5,5.416 5,5 C5,4.588 5.07733333,4.2 5.23466667,3.836 C5.39066667,3.472 5.60533333,3.152 5.87866667,2.87866667 C6.152,2.60533333 6.46933333,2.39066667 6.832,2.23466667 C7.19333333,2.07866667 7.58266667,2 8,2 C8.41066667,2 8.79866667,2.07866667 9.164,2.23466667 C9.528,2.39066667 9.848,2.60533333 10.1213333,2.87866667 C10.3946667,3.152 10.6093333,3.472 10.7653333,3.836 C10.9213333,4.2 11,4.588 11,5 C11,5.416 10.9213333,5.80533333 10.7653333,6.168 C10.6093333,6.52933333 10.3946667,6.848 10.1213333,7.12133333 C9.848,7.39466667 9.528,7.60933333 9.164,7.76533333 C8.79866667,7.92133333 8.41066667,8 8,8 L8,8 Z M11,14.5 L11,9 C10.568,9.328 10.0946667,9.57733333 9.58133333,9.74533333 C9.068,9.91466667 8.54133333,10 8,10 C7.45733333,10 6.93066667,9.91466667 6.41733333,9.74533333 C5.904,9.57733333 5.432,9.328 5,9 L5,14.5 L8,13 L11,14.5 L11,14.5 Z M8,3 C7.724,3 7.464,3.052 7.22266667,3.156 C6.98,3.26 6.768,3.404 6.58533333,3.58533333 C6.404,3.768 6.26,3.98 6.156,4.22266667 C6.052,4.46533333 6,4.724 6,5 C6,5.276 6.052,5.53466667 6.156,5.77733333 C6.26,6.02 6.404,6.232 6.58533333,6.41333333 C6.768,6.596 6.98,6.74 7.22266667,6.844 C7.464,6.948 7.724,7 8,7 C8.276,7 8.53466667,6.948 8.77733333,6.844 C9.01866667,6.74 9.232,6.596 9.41333333,6.41333333 C9.596,6.232 9.74,6.02 9.844,5.77733333 C9.948,5.53466667 10,5.276 10,5 C10,4.724 9.948,4.46533333 9.844,4.22266667 C9.74,3.98 9.596,3.768 9.41333333,3.58533333 C9.232,3.404 9.01866667,3.26 8.77733333,3.156 C8.53466667,3.052 8.276,3 8,3 L8,3 Z"></path>
        </g>
    </g>
</svg>