<?xml version="1.0" encoding="UTF-8" standalone="no"?>
<svg width="16px" height="16px" viewBox="0 0 16 16" version="1.1" xmlns="http://www.w3.org/2000/svg" xmlns:xlink="http://www.w3.org/1999/xlink">
    <defs></defs>
    <g stroke="none" stroke-width="1" fill="none" fill-rule="evenodd">
        <g fill="#4A4A4A">
            <path d="M9,4 L12.2890625,4 C11.919269,3.62499813 11.5664079,3.26041844 11.2304688,2.90625 C10.8945296,2.55208156 10.5442727,2.23567848 10.1796875,1.95703125 C9.81510234,1.67838402 9.4179709,1.45442793 8.98828125,1.28515625 C8.5585916,1.11588457 8.06250281,1.03125 7.5,1.03125 C6.89062195,1.03125 6.31510687,1.1497384 5.7734375,1.38671875 C5.23176813,1.6236991 4.75781453,1.94531047 4.3515625,2.3515625 C3.94531047,2.75781453 3.6236991,3.23176813 3.38671875,3.7734375 C3.1497384,4.31510687 3.03125,4.89062195 3.03125,5.5 C3.03125,6.08333625 3.14322805,6.64452855 3.3671875,7.18359375 C3.59114695,7.72265895 3.90885211,8.19791461 4.3203125,8.609375 L10.8515625,15.1484375 L10.1484375,15.8515625 L3.609375,9.3203125 C3.10416414,8.81510164 2.71484512,8.23047207 2.44140625,7.56640625 C2.16796738,6.90234043 2.03125,6.21354523 2.03125,5.5 C2.03125,4.9999975 2.09635352,4.51823148 2.2265625,4.0546875 C2.35677148,3.59114352 2.54166547,3.15625203 2.78125,2.75 C3.02083453,2.34374797 3.30729,1.97396 3.640625,1.640625 C3.97396,1.30729 4.34374797,1.02083453 4.75,0.78125 C5.15625203,0.541665469 5.59114352,0.356771484 6.0546875,0.2265625 C6.51823148,0.0963535156 6.9999975,0.03125 7.5,0.03125 C7.93750219,0.03125 8.33723777,0.0716141797 8.69921875,0.15234375 C9.06119973,0.23307332 9.39713387,0.345051367 9.70703125,0.48828125 C10.0169286,0.631511133 10.3085924,0.803384414 10.5820312,1.00390625 C10.8554701,1.20442809 11.1236966,1.42578004 11.3867188,1.66796875 C11.6497409,1.91015746 11.911457,2.16796738 12.171875,2.44140625 C12.432293,2.71484512 12.7083319,2.99739438 13,3.2890625 L13,0 L14,0 L14,5 L9,5 L9,4 Z"></path>
        </g>
    </g>
</svg>