<?xml version="1.0" encoding="UTF-8" standalone="no"?>
<svg width="16px" height="16px" viewBox="0 0 16 16" version="1.1" xmlns="http://www.w3.org/2000/svg" xmlns:xlink="http://www.w3.org/1999/xlink">
    <defs></defs>
    <g stroke="none" stroke-width="1" fill="none" fill-rule="evenodd">
        <g fill="#4A4A4A">
            <path d="M10.1328125,0.296875 C10.9974002,0.531251172 11.7890589,0.89713293 12.5078125,1.39453125 C13.2265661,1.89192957 13.8450495,2.48046535 14.3632812,3.16015625 C14.881513,3.83984715 15.2838527,4.59244379 15.5703125,5.41796875 C15.8567723,6.24349371 16,7.10416219 16,8 C16,8.73437867 15.9049489,9.44270492 15.7148438,10.125 C15.5247386,10.8072951 15.2565121,11.4453095 14.9101562,12.0390625 C14.5638004,12.6328155 14.1471379,13.1731746 13.6601562,13.6601562 C13.1731746,14.1471379 12.6328155,14.5638004 12.0390625,14.9101562 C11.4453095,15.2565121 10.8072951,15.5247386 10.125,15.7148438 C9.44270492,15.9049489 8.73437867,16 8,16 C7.26562133,16 6.55729508,15.9049489 5.875,15.7148438 C5.19270492,15.5247386 4.55469047,15.2565121 3.9609375,14.9101562 C3.36718453,14.5638004 2.82682535,14.1471379 2.33984375,13.6601562 C1.85286215,13.1731746 1.43619965,12.6328155 1.08984375,12.0390625 C0.743487852,11.4453095 0.475261367,10.8085971 0.28515625,10.1289062 C0.0950511328,9.44921535 0,8.73958703 0,8 C0,7.27082969 0.0963532031,6.56250344 0.2890625,5.875 C0.481771797,5.18749656 0.756508633,4.54036762 1.11328125,3.93359375 C1.47005387,3.32681988 1.90364328,2.77474207 2.4140625,2.27734375 C2.92448172,1.77994543 3.4999968,1.35416844 4.140625,1 L2,1 L2,0 L6,0 L6,4 L5,4 L5,1.6796875 C4.39062195,1.97135563 3.83984621,2.33723738 3.34765625,2.77734375 C2.85546629,3.21745012 2.43489758,3.71223684 2.0859375,4.26171875 C1.73697742,4.81120066 1.46875094,5.40364266 1.28125,6.0390625 C1.09374906,6.67448234 1,7.32812164 1,8 C1,8.6406282 1.0833325,9.2591116 1.25,9.85546875 C1.4166675,10.4518259 1.65234223,11.009112 1.95703125,11.5273438 C2.26172027,12.0455755 2.62760203,12.518227 3.0546875,12.9453125 C3.48177297,13.372398 3.95442449,13.7382797 4.47265625,14.0429688 C4.99088801,14.3476578 5.54687203,14.5833325 6.140625,14.75 C6.73437797,14.9166675 7.35416344,15 8,15 C8.6406282,15 9.2591116,14.9166675 9.85546875,14.75 C10.4518259,14.5833325 11.009112,14.3476578 11.5273438,14.0429688 C12.0455755,13.7382797 12.518227,13.372398 12.9453125,12.9453125 C13.372398,12.518227 13.7382797,12.0455755 14.0429688,11.5273438 C14.3476578,11.009112 14.5833325,10.453128 14.75,9.859375 C14.9166675,9.26562203 15,8.64583656 15,8 C15,7.21874609 14.8736992,6.46614945 14.6210938,5.7421875 C14.3684883,5.01822555 14.0156273,4.35937797 13.5625,3.765625 C13.1093727,3.17187203 12.5690136,2.65755426 11.9414062,2.22265625 C11.3137989,1.78775824 10.6223996,1.46614687 9.8671875,1.2578125 L10.1328125,0.296875 Z"></path>
        </g>
    </g>
</svg>