<?xml version="1.0" encoding="UTF-8" standalone="no"?>
<svg width="16px" height="16px" viewBox="0 0 16 16" version="1.1" xmlns="http://www.w3.org/2000/svg" xmlns:xlink="http://www.w3.org/1999/xlink">
    <defs></defs>
    <g stroke="none" stroke-width="1" fill="none" fill-rule="evenodd">
        <g fill="#4A4A4A">
            <path d="M16,8 C16,8.73437867 15.9049489,9.44270492 15.7148438,10.125 C15.5247386,10.8072951 15.2565121,11.4453095 14.9101562,12.0390625 C14.5638004,12.6328155 14.1471379,13.1731746 13.6601562,13.6601562 C13.1731746,14.1471379 12.6328155,14.5638004 12.0390625,14.9101562 C11.4453095,15.2565121 10.8072951,15.5247386 10.125,15.7148438 C9.44270492,15.9049489 8.73437867,16 8,16 C7.26562133,16 6.55729508,15.9049489 5.875,15.7148438 C5.19270492,15.5247386 4.55469047,15.2565121 3.9609375,14.9101562 C3.36718453,14.5638004 2.82682535,14.1471379 2.33984375,13.6601562 C1.85286215,13.1731746 1.43619965,12.6328155 1.08984375,12.0390625 C0.743487852,11.4453095 0.475261367,10.8085971 0.28515625,10.1289062 C0.0950511328,9.44921535 0,8.73958703 0,8 C0,7.27603805 0.0950511328,6.57031594 0.28515625,5.8828125 C0.475261367,5.19530906 0.748696133,4.54687805 1.10546875,3.9375 C1.46224137,3.32812195 1.89583078,2.77344 2.40625,2.2734375 C2.91666922,1.773435 3.48958016,1.34896008 4.125,1 L2,1 L2,0 L6,0 L6,4 L5,4 L5,1.671875 C4.39062195,1.96354313 3.83984621,2.32942488 3.34765625,2.76953125 C2.85546629,3.20963762 2.43489758,3.70572641 2.0859375,4.2578125 C1.73697742,4.80989859 1.46875094,5.40364266 1.28125,6.0390625 C1.09374906,6.67448234 1,7.32812164 1,8 C1,8.6406282 1.0833325,9.2591116 1.25,9.85546875 C1.4166675,10.4518259 1.65234223,11.009112 1.95703125,11.5273438 C2.26172027,12.0455755 2.62760203,12.518227 3.0546875,12.9453125 C3.48177297,13.372398 3.95442449,13.7382797 4.47265625,14.0429688 C4.99088801,14.3476578 5.54687203,14.5833325 6.140625,14.75 C6.73437797,14.9166675 7.35416344,15 8,15 C8.6406282,15 9.2591116,14.9166675 9.85546875,14.75 C10.4518259,14.5833325 11.009112,14.3476578 11.5273438,14.0429688 C12.0455755,13.7382797 12.518227,13.372398 12.9453125,12.9453125 C13.372398,12.518227 13.7382797,12.0455755 14.0429688,11.5273438 C14.3476578,11.009112 14.5833325,10.453128 14.75,9.859375 C14.9166675,9.26562203 15,8.64583656 15,8 L16,8 Z"></path>
            <path d="M13.378432,7 L9.67472833,7 L9.67472833,6.54320988 C9.67472833,6.35665202 9.70079117,6.18175665 9.75291763,6.01851852 C9.80504409,5.85528039 9.87500224,5.70164681 9.96279417,5.55761317 C10.0505861,5.41357953 10.1534657,5.27777842 10.2714361,5.15020576 C10.3894066,5.02263311 10.5156056,4.89917755 10.650037,4.77983539 C10.7844684,4.66049323 10.9216412,4.54526805 11.0615596,4.43415638 C11.201478,4.32304471 11.3386508,4.21124885 11.4730822,4.09876543 C11.5992831,3.99176901 11.7145083,3.88683179 11.8187613,3.78395062 C11.9230142,3.68106944 12.0121765,3.57476049 12.086251,3.46502058 C12.1603254,3.35528066 12.217938,3.23936961 12.2590905,3.11728395 C12.3002429,2.99519829 12.3208189,2.8628265 12.3208189,2.72016461 C12.3208189,2.56378523 12.2968136,2.42729825 12.2488024,2.31069959 C12.2007912,2.19410093 12.1335765,2.09670821 12.0471563,2.01851852 C11.9607361,1.94032883 11.8585424,1.88134451 11.740572,1.84156379 C11.6226015,1.80178307 11.4936591,1.781893 11.3537407,1.781893 C11.1123129,1.781893 10.8667735,1.83813387 10.6171152,1.95061728 C10.3674568,2.0631007 10.1274044,2.23182329 9.89695055,2.45679012 L9.89695055,1.53909465 C10.0176645,1.44855922 10.1397483,1.36968484 10.2632057,1.30246914 C10.3866631,1.23525344 10.5142338,1.17901257 10.6459217,1.13374486 C10.7776096,1.08847714 10.9161542,1.05486979 11.0615596,1.03292181 C11.206965,1.01097383 11.3619703,1 11.5265802,1 C11.7926995,1 12.0341237,1.03497907 12.25086,1.10493827 C12.4675964,1.17489747 12.6527797,1.2777771 12.8064156,1.41358025 C12.9600515,1.5493834 13.078706,1.71879185 13.1623827,1.9218107 C13.2460593,2.12482955 13.2878971,2.35802337 13.2878971,2.62139918 C13.2878971,2.8600835 13.2584049,3.07475899 13.1994197,3.2654321 C13.1404345,3.45610521 13.0567591,3.63374403 12.9483909,3.79835391 C12.8400227,3.96296379 12.7090227,4.11934082 12.5553868,4.26748971 C12.4017509,4.4156386 12.2302848,4.56790045 12.0409835,4.72427984 C11.8818606,4.85322424 11.723426,4.97873739 11.5656748,5.10082305 C11.4079237,5.2229087 11.2659498,5.34224907 11.1397489,5.45884774 C11.013548,5.5754464 10.9113542,5.69204331 10.8331645,5.80864198 C10.7549749,5.92524064 10.7158806,6.04252342 10.7158806,6.16049383 L10.7158806,6.18106996 L13.378432,6.18106996 L13.378432,7 Z"></path>
        </g>
    </g>
</svg>