<?xml version="1.0" encoding="UTF-8" standalone="no"?>
<svg width="16px" height="16px" viewBox="0 0 16 16" version="1.1" xmlns="http://www.w3.org/2000/svg" xmlns:xlink="http://www.w3.org/1999/xlink">
    <defs></defs>
    <g stroke="none" stroke-width="1" fill="none" fill-rule="evenodd">
        <g fill="#4A4A4A">
            <path d="M11,2.40625 C10.8489576,2.51562555 10.690105,2.6054684 10.5234375,2.67578125 C10.35677,2.7460941 10.1822926,2.80468727 10,2.8515625 L10,1.828125 C10.2916681,1.72916617 10.5690091,1.61067777 10.8320312,1.47265625 C11.0950534,1.33463473 11.3515612,1.17708422 11.6015625,1 L12,1 L12,7 L11,7 L11,2.40625 Z M16,8 C16,8.73437867 15.9049489,9.44270492 15.7148438,10.125 C15.5247386,10.8072951 15.2565121,11.4453095 14.9101562,12.0390625 C14.5638004,12.6328155 14.1471379,13.1731746 13.6601562,13.6601562 C13.1731746,14.1471379 12.6328155,14.5638004 12.0390625,14.9101562 C11.4453095,15.2565121 10.8072951,15.5247386 10.125,15.7148438 C9.44270492,15.9049489 8.73437867,16 8,16 C7.26562133,16 6.55729508,15.9049489 5.875,15.7148438 C5.19270492,15.5247386 4.55469047,15.2565121 3.9609375,14.9101562 C3.36718453,14.5638004 2.82682535,14.1471379 2.33984375,13.6601562 C1.85286215,13.1731746 1.43619965,12.6328155 1.08984375,12.0390625 C0.743487852,11.4453095 0.475261367,10.8085971 0.28515625,10.1289062 C0.0950511328,9.44921535 0,8.73958703 0,8 C0,7.27603805 0.0950511328,6.57031594 0.28515625,5.8828125 C0.475261367,5.19530906 0.748696133,4.54687805 1.10546875,3.9375 C1.46224137,3.32812195 1.89583078,2.77344 2.40625,2.2734375 C2.91666922,1.773435 3.48958016,1.34896008 4.125,1 L2,1 L2,0 L6,0 L6,4 L5,4 L5,1.671875 C4.39062195,1.96354313 3.83984621,2.32942488 3.34765625,2.76953125 C2.85546629,3.20963762 2.43489758,3.70572641 2.0859375,4.2578125 C1.73697742,4.80989859 1.46875094,5.40364266 1.28125,6.0390625 C1.09374906,6.67448234 1,7.32812164 1,8 C1,8.6406282 1.0833325,9.2591116 1.25,9.85546875 C1.4166675,10.4518259 1.65234223,11.009112 1.95703125,11.5273438 C2.26172027,12.0455755 2.62760203,12.518227 3.0546875,12.9453125 C3.48177297,13.372398 3.95442449,13.7382797 4.47265625,14.0429688 C4.99088801,14.3476578 5.54687203,14.5833325 6.140625,14.75 C6.73437797,14.9166675 7.35416344,15 8,15 C8.6406282,15 9.2591116,14.9166675 9.85546875,14.75 C10.4518259,14.5833325 11.009112,14.3476578 11.5273438,14.0429688 C12.0455755,13.7382797 12.518227,13.372398 12.9453125,12.9453125 C13.372398,12.518227 13.7382797,12.0455755 14.0429688,11.5273438 C14.3476578,11.009112 14.5833325,10.453128 14.75,9.859375 C14.9166675,9.26562203 15,8.64583656 15,8 L16,8 Z"></path>
        </g>
    </g>
</svg>