<?xml version="1.0" encoding="UTF-8" standalone="no"?>
<svg width="16px" height="16px" viewBox="0 0 16 16" version="1.1" xmlns="http://www.w3.org/2000/svg" xmlns:xlink="http://www.w3.org/1999/xlink">
    <defs></defs>
    <g stroke="none" stroke-width="1" fill="none" fill-rule="evenodd">
        <g fill="#4A4A4A">
            <path d="M9,3 L15,3 L15,14 L0,14 L0,3 L6,3 L6,4 L1,4 L1,13 L14,13 L14,4 L9,4 L9,3 Z M2,5 L3,5 L3,11 L12,11 L12,5 L13,5 L13,12 L2,12 L2,5 Z M4.8515625,5.1484375 L7,7.2890625 L7,1 L8,1 L8,7.2890625 L10.1484375,5.1484375 L10.8515625,5.8515625 L7.5,9.203125 L4.1484375,5.8515625 L4.8515625,5.1484375 Z"></path>
        </g>
    </g>
</svg>