<?xml version="1.0" encoding="UTF-8" standalone="no"?>
<svg width="16px" height="16px" viewBox="0 0 16 16" version="1.1" xmlns="http://www.w3.org/2000/svg" xmlns:xlink="http://www.w3.org/1999/xlink">
    <defs></defs>
    <g stroke="none" stroke-width="1" fill="none" fill-rule="evenodd">
        <g fill="#4A4A4A">
            <path d="M14,3 C14.1406257,3 14.2708327,3.02604141 14.390625,3.078125 C14.5104173,3.13020859 14.615885,3.20182246 14.7070312,3.29296875 C14.7981775,3.38411504 14.8697914,3.48958273 14.921875,3.609375 C14.9739586,3.72916727 15,3.8593743 15,4 L15,15 L4.2890625,15 L3,13.703125 L3,12 L2.2890625,12 L1,10.703125 L1,2 C1,1.8593743 1.02604141,1.72916727 1.078125,1.609375 C1.13020859,1.48958273 1.20182246,1.38411504 1.29296875,1.29296875 C1.38411504,1.20182246 1.48958273,1.13020859 1.609375,1.078125 C1.72916727,1.02604141 1.8593743,1 2,1 L11,1 C11.1406257,1 11.2708327,1.02604141 11.390625,1.078125 C11.5104173,1.13020859 11.615885,1.20182246 11.7070312,1.29296875 C11.7981775,1.38411504 11.8697914,1.48958273 11.921875,1.609375 C11.9739586,1.72916727 12,1.8593743 12,2 L12,3 L14,3 Z M6,8 L12,8 L12,4 L6,4 L6,8 Z M3,11 L3,4 C3,3.8593743 3.02604141,3.72916727 3.078125,3.609375 C3.13020859,3.48958273 3.20182246,3.38411504 3.29296875,3.29296875 C3.38411504,3.20182246 3.48958273,3.13020859 3.609375,3.078125 C3.72916727,3.02604141 3.8593743,3 4,3 L11,3 L11,2 L2,2 L2,10.2890625 L2.7109375,11 L3,11 Z M11,11 L6,11 L6,14 L7,14 L7,12 L8,12 L8,14 L11,14 L11,11 Z M14,4 L13,4 L13,9 L5,9 L5,4 L4,4 L4,13.2890625 L4.7109375,14 L5,14 L5,10 L12,10 L12,14 L14,14 L14,4 Z"></path>
        </g>
    </g>
</svg>