<?xml version="1.0" encoding="UTF-8" standalone="no"?>
<svg width="16px" height="16px" viewBox="0 0 16 16" version="1.1" xmlns="http://www.w3.org/2000/svg" xmlns:xlink="http://www.w3.org/1999/xlink">
    <defs></defs>
    <g stroke="none" stroke-width="1" fill="none" fill-rule="evenodd">
        <g fill="#4A4A4A">
            <path d="M14,1 C14.1406257,1 14.2708327,1.02604141 14.390625,1.078125 C14.5104173,1.13020859 14.615885,1.20182246 14.7070312,1.29296875 C14.7981775,1.38411504 14.8697914,1.48958273 14.921875,1.609375 C14.9739586,1.72916727 15,1.8593743 15,2 L15,15 L2.7890625,15 L1,13.203125 L1,2 C1,1.8593743 1.02604141,1.72916727 1.078125,1.609375 C1.13020859,1.48958273 1.20182246,1.38411504 1.29296875,1.29296875 C1.38411504,1.20182246 1.48958273,1.13020859 1.609375,1.078125 C1.72916727,1.02604141 1.8593743,1 2,1 L14,1 Z M4,7 L12,7 L12,2 L4,2 L4,7 Z M10,11 L5,11 L5,14 L6,14 L6,12 L7,12 L7,14 L10,14 L10,11 Z M14,2 L13,2 L13,8 L3,8 L3,2 L2,2 L2,12.7890625 L3.203125,14 L4,14 L4,10 L11,10 L11,14 L14,14 L14,2 Z"></path>
        </g>
    </g>
</svg>