<?xml version="1.0" encoding="UTF-8" standalone="no"?>
<svg width="16px" height="16px" viewBox="0 0 16 16" version="1.1" xmlns="http://www.w3.org/2000/svg" xmlns:xlink="http://www.w3.org/1999/xlink">
    <defs></defs>
    <g stroke="none" stroke-width="1" fill="none" fill-rule="evenodd">
        <g fill="#4A4A4A">
            <path d="M10.5,0 C11.0052109,0 11.4921852,0.0651035156 11.9609375,0.1953125 C12.4296898,0.325521484 12.8671855,0.510415469 13.2734375,0.75 C13.6796895,0.989584531 14.0507796,1.27734207 14.3867188,1.61328125 C14.7226579,1.94922043 15.0104155,2.32031047 15.25,2.7265625 C15.4895845,3.13281453 15.6744785,3.57031016 15.8046875,4.0390625 C15.9348965,4.50781484 16,4.99478914 16,5.5 C16,6.00521086 15.9348965,6.49218516 15.8046875,6.9609375 C15.6744785,7.42968984 15.4895845,7.86718547 15.25,8.2734375 C15.0104155,8.67968953 14.7226579,9.05077957 14.3867188,9.38671875 C14.0507796,9.72265793 13.6796895,10.0104155 13.2734375,10.25 C12.8671855,10.4895845 12.4296898,10.6744785 11.9609375,10.8046875 C11.4921852,10.9348965 11.0052109,11 10.5,11 C9.84895508,11 9.2252634,10.8906261 8.62890625,10.671875 C8.0325491,10.4531239 7.4843775,10.1380229 6.984375,9.7265625 L0.8515625,15.8515625 C0.752603672,15.9505213 0.635417344,16 0.5,16 C0.364582656,16 0.247396328,15.9505213 0.1484375,15.8515625 C0.0494786719,15.7526037 0,15.6354173 0,15.5 C0,15.3645827 0.0494786719,15.2473963 0.1484375,15.1484375 L6.2734375,9.015625 C5.86197711,8.5156225 5.54687609,7.9674509 5.328125,7.37109375 C5.10937391,6.7747366 5,6.15104492 5,5.5 C5,4.99478914 5.06510352,4.50781484 5.1953125,4.0390625 C5.32552148,3.57031016 5.51041547,3.13281453 5.75,2.7265625 C5.98958453,2.32031047 6.27734207,1.94922043 6.61328125,1.61328125 C6.94922043,1.27734207 7.32031047,0.989584531 7.7265625,0.75 C8.13281453,0.510415469 8.57031016,0.325521484 9.0390625,0.1953125 C9.50781484,0.0651035156 9.99478914,0 10.5,0 L10.5,0 Z M10.5,10 C11.1197948,10 11.7031223,9.8815116 12.25,9.64453125 C12.7968777,9.4075509 13.2734355,9.08593953 13.6796875,8.6796875 C14.0859395,8.27343547 14.4075509,7.79687773 14.6445312,7.25 C14.8815116,6.70312227 15,6.11979477 15,5.5 C15,4.88020523 14.8815116,4.29687773 14.6445312,3.75 C14.4075509,3.20312227 14.0859395,2.72656453 13.6796875,2.3203125 C13.2734355,1.91406047 12.7968777,1.5924491 12.25,1.35546875 C11.7031223,1.1184884 11.1197948,1 10.5,1 C9.88020523,1 9.29687773,1.1184884 8.75,1.35546875 C8.20312227,1.5924491 7.72656453,1.91406047 7.3203125,2.3203125 C6.91406047,2.72656453 6.5924491,3.20312227 6.35546875,3.75 C6.1184884,4.29687773 6,4.88020523 6,5.5 C6,6.11979477 6.1184884,6.70312227 6.35546875,7.25 C6.5924491,7.79687773 6.91406047,8.27343547 7.3203125,8.6796875 C7.72656453,9.08593953 8.20312227,9.4075509 8.75,9.64453125 C9.29687773,9.8815116 9.88020523,10 10.5,10 L10.5,10 Z"></path>
        </g>
    </g>
</svg>