<?xml version="1.0" encoding="UTF-8" standalone="no"?>
<svg width="16px" height="16px" viewBox="0 0 16 16" version="1.1" xmlns="http://www.w3.org/2000/svg" xmlns:xlink="http://www.w3.org/1999/xlink">
    <defs></defs>
    <g stroke="none" stroke-width="1" fill="none" fill-rule="evenodd">
        <g fill="#4A4A4A">
            <path d="M8.5,8 L7.5,8 L7.5,0 L8.5,0 L8.5,8 Z M10.15625,2.34375 C10.8750036,2.57291781 11.5325491,2.90624781 12.1289062,3.34375 C12.7252634,3.78125219 13.235675,4.29426789 13.6601562,4.8828125 C14.0846375,5.47135711 14.4140613,6.11718398 14.6484375,6.8203125 C14.8828137,7.52344102 15,8.24999625 15,9 C15,9.64583656 14.9166675,10.2669241 14.75,10.8632812 C14.5833325,11.4596384 14.3476578,12.0169245 14.0429688,12.5351562 C13.7382797,13.053388 13.3737,13.5247375 12.9492188,13.9492188 C12.5247375,14.3737 12.053388,14.7382797 11.5351562,15.0429688 C11.0169245,15.3476578 10.4596384,15.5833325 9.86328125,15.75 C9.2669241,15.9166675 8.64583656,16 8,16 C7.35416344,16 6.7330759,15.9166675 6.13671875,15.75 C5.5403616,15.5833325 4.98307551,15.3476578 4.46484375,15.0429688 C3.94661199,14.7382797 3.47526254,14.3737 3.05078125,13.9492188 C2.62629996,13.5247375 2.26172027,13.053388 1.95703125,12.5351562 C1.65234223,12.0169245 1.4166675,11.4596384 1.25,10.8632812 C1.0833325,10.2669241 1,9.64583656 1,9 C1,8.24999625 1.11718633,7.52344102 1.3515625,6.8203125 C1.58593867,6.11718398 1.91536246,5.47135711 2.33984375,4.8828125 C2.76432504,4.29426789 3.2747366,3.78125219 3.87109375,3.34375 C4.4674509,2.90624781 5.12499641,2.57291781 5.84375,2.34375 L6.15625,3.2890625 C5.53645523,3.49218852 4.97135672,3.78124813 4.4609375,4.15625 C3.95051828,4.53125188 3.51302266,4.9687475 3.1484375,5.46875 C2.78385234,5.9687525 2.50130309,6.51952824 2.30078125,7.12109375 C2.10025941,7.72265926 2,8.34895508 2,9 C2,9.55208609 2.07161387,10.0833308 2.21484375,10.59375 C2.35807363,11.1041692 2.55989453,11.582029 2.8203125,12.0273438 C3.08073047,12.4726585 3.39322734,12.8776023 3.7578125,13.2421875 C4.12239766,13.6067727 4.52734152,13.9192695 4.97265625,14.1796875 C5.41797098,14.4401055 5.89583078,14.6419264 6.40625,14.7851562 C6.91666922,14.9283861 7.44791391,15 8,15 C8.55208609,15 9.08333078,14.9283861 9.59375,14.7851562 C10.1041692,14.6419264 10.582029,14.4401055 11.0273438,14.1796875 C11.4726585,13.9192695 11.8776023,13.6067727 12.2421875,13.2421875 C12.6067727,12.8776023 12.9192695,12.4726585 13.1796875,12.0273438 C13.4401055,11.582029 13.6419264,11.1041692 13.7851562,10.59375 C13.9283861,10.0833308 14,9.55208609 14,9 C14,8.34895508 13.8997406,7.72265926 13.6992188,7.12109375 C13.4986969,6.51952824 13.2161477,5.9687525 12.8515625,5.46875 C12.4869773,4.9687475 12.0494817,4.53125188 11.5390625,4.15625 C11.0286433,3.78124813 10.4635448,3.49218852 9.84375,3.2890625 L10.15625,2.34375 Z"></path>
        </g>
    </g>
</svg>