<?xml version="1.0" encoding="UTF-8" standalone="no"?>
<svg width="16px" height="16px" viewBox="0 0 16 16" version="1.1" xmlns="http://www.w3.org/2000/svg" xmlns:xlink="http://www.w3.org/1999/xlink">
    <defs></defs>
    <g stroke="none" stroke-width="1" fill="none" fill-rule="evenodd">
        <g fill="#4A4A4A">
            <path d="M10.359375,9.40625 C11.0572952,9.67187633 11.6914034,10.0221332 12.2617188,10.4570312 C12.8320341,10.8919293 13.3203105,11.3945284 13.7265625,11.9648438 C14.1328145,12.5351591 14.4466135,13.1614549 14.6679688,13.84375 C14.889324,14.5260451 15,15.2447879 15,16 L14,16 C14,15.1718709 13.8424495,14.3945349 13.5273438,13.6679688 C13.212238,12.9414026 12.7825548,12.3059923 12.2382812,11.7617188 C11.6940077,11.2174452 11.0585974,10.787762 10.3320312,10.4726562 C9.60546512,10.1575505 8.82812914,10 8,10 C7.17187086,10 6.39453488,10.1575505 5.66796875,10.4726562 C4.94140262,10.787762 4.3059923,11.2174452 3.76171875,11.7617188 C3.2174452,12.3059923 2.78776199,12.9414026 2.47265625,13.6679688 C2.15755051,14.3945349 2,15.1718709 2,16 L1,16 C1,15.2447879 1.11067598,14.5260451 1.33203125,13.84375 C1.55338652,13.1614549 1.86718547,12.5351591 2.2734375,11.9648438 C2.67968953,11.3945284 3.1679659,10.8919293 3.73828125,10.4570312 C4.3085966,10.0221332 4.94270484,9.67187633 5.640625,9.40625 C4.99478844,9.05728992 4.44791891,8.58854461 4,8 C3.74999875,8 3.50520953,7.97916688 3.265625,7.9375 C3.02604047,7.89583312 2.81250094,7.82031305 2.625,7.7109375 C2.43749906,7.60156195 2.28645891,7.44921973 2.171875,7.25390625 C2.05729109,7.05859277 2,6.8072932 2,6.5 L2,3.5 C2,3.29166563 2.03906211,3.09635508 2.1171875,2.9140625 C2.19531289,2.73176992 2.30208266,2.57291734 2.4375,2.4375 C2.57291734,2.30208266 2.73176992,2.19531289 2.9140625,2.1171875 C3.09635508,2.03906211 3.29166562,2 3.5,2 C3.65625078,2 3.8046868,2.02343727 3.9453125,2.0703125 C4.17968867,1.74739422 4.44791516,1.45833461 4.75,1.203125 C5.05208484,0.947915391 5.37760242,0.730469648 5.7265625,0.55078125 C6.07552258,0.371092852 6.44140434,0.234375469 6.82421875,0.140625 C7.20703316,0.0468745313 7.59895633,0 8,0 C8.6927118,0 9.34244488,0.130207031 9.94921875,0.390625 C10.5559926,0.651042969 11.0859352,1.00781023 11.5390625,1.4609375 C11.9921898,1.91406477 12.348957,2.44400738 12.609375,3.05078125 C12.869793,3.65755512 13,4.3072882 13,5 C13,5.45833563 12.9388027,5.90494574 12.8164062,6.33984375 C12.6940098,6.77474176 12.5182303,7.18359184 12.2890625,7.56640625 C12.0598947,7.94922066 11.7825537,8.29817551 11.4570312,8.61328125 C11.1315088,8.92838699 10.765627,9.19270727 10.359375,9.40625 L10.359375,9.40625 Z M3,6.5 C3,6.63541734 3.04947867,6.75260367 3.1484375,6.8515625 C3.24739633,6.95052133 3.36458266,7 3.5,7 L4,7 L4,3.5 C4,3.36458266 3.95052133,3.24739633 3.8515625,3.1484375 C3.75260367,3.04947867 3.63541734,3 3.5,3 C3.36458266,3 3.24739633,3.04947867 3.1484375,3.1484375 C3.04947867,3.24739633 3,3.36458266 3,3.5 L3,6.5 Z M5.3515625,8 C5.71614766,8.32291828 6.1262998,8.57031164 6.58203125,8.7421875 C7.0377627,8.91406336 7.51041422,9 8,9 C8.55208609,9 9.07031008,8.8945323 9.5546875,8.68359375 C10.0390649,8.4726552 10.4622378,8.18619973 10.8242188,7.82421875 C11.1861997,7.46223777 11.4726552,7.03906492 11.6835938,6.5546875 C11.8945323,6.07031008 12,5.55208609 12,5 C12,4.44791391 11.8945323,3.92968992 11.6835938,3.4453125 C11.4726552,2.96093508 11.1861997,2.53776223 10.8242188,2.17578125 C10.4622378,1.81380027 10.0390649,1.5273448 9.5546875,1.31640625 C9.07031008,1.1054677 8.55208609,1 8,1 C7.67708172,1 7.3619807,1.03776004 7.0546875,1.11328125 C6.7473943,1.18880246 6.45312641,1.29947844 6.171875,1.4453125 C5.89062359,1.59114656 5.63020953,1.76692605 5.390625,1.97265625 C5.15104047,2.17838645 4.93750094,2.41145703 4.75,2.671875 C4.82812539,2.79166727 4.8893227,2.96093641 4.93359375,3.1796875 C4.9778648,3.39843859 5.00911449,3.64322781 5.02734375,3.9140625 C5.04557301,4.18489719 5.0546875,4.46874852 5.0546875,4.765625 C5.0546875,5.06250148 5.05078129,5.35156109 5.04296875,5.6328125 C5.03515621,5.91406391 5.02604172,6.17447797 5.015625,6.4140625 C5.00520828,6.65364703 5,6.84895758 5,7 L7.5,7 C7.63541734,7 7.75260367,7.04947867 7.8515625,7.1484375 C7.95052133,7.24739633 8,7.36458266 8,7.5 C8,7.63541734 7.95052133,7.75260367 7.8515625,7.8515625 C7.75260367,7.95052133 7.63541734,8 7.5,8 L5.3515625,8 Z"></path>
        </g>
    </g>
</svg>