<?xml version="1.0" encoding="utf-8"?>
<!-- Generator: Adobe Illustrator 19.1.0, SVG Export Plug-In . SVG Version: 6.00 Build 0)  -->
<svg version="1.1" id="Layer_1" xmlns="http://www.w3.org/2000/svg" xmlns:xlink="http://www.w3.org/1999/xlink" x="0px" y="0px"
	 width="16px" height="16px" viewBox="0 0 16 16" style="enable-background:new 0 0 16 16;" xml:space="preserve">
<style type="text/css">
	.st0{fill:none;stroke:#000000;stroke-miterlimit:10;}
	.st1{clip-path:url(#SVGID_2_);}
</style>
<g>
	<path d="M-44,2v8h-8V2H-44 M-43,1h-1h-8h-1v1v8v1h1h8h1v-1V2V1L-43,1z"/>
</g>
<g>
	<path d="M-40,6v8h-8V6H-40 M-39,5h-1h-8h-1v1v8v1h1h8h1v-1V6V5L-39,5z"/>
</g>
<g>
	<path d="M9,2v6H2V2H9 M10,1H9H2H1v1v6v1h1h7h1V8V2V1L10,1z"/>
</g>
<g>
	<path d="M14,7v7H8V7H14 M15,6h-1H8H7v1v7v1h1h6h1v-1V7V6L15,6z"/>
</g>
<g>
	<path d="M-25,5v9h-9V5H-25 M-24,4h-1h-9h-1v1v9v1h1h9h1v-1V5V4L-24,4z"/>
</g>
<polyline class="st0" points="-31.5,4 -31.5,1.5 -21.5,1.5 -21.5,11.5 -24,11.5 "/>
<g>
	<path d="M-5,8.5c0,0.597-0.077,1.172-0.232,1.727s-0.372,1.073-0.654,1.555s-0.62,0.921-1.016,1.317s-0.835,0.734-1.317,1.016
		s-1.001,0.499-1.555,0.654S-10.903,15-11.5,15s-1.172-0.077-1.727-0.232s-1.073-0.372-1.555-0.654s-0.921-0.62-1.317-1.016
		c-0.396-0.396-0.734-0.835-1.016-1.317s-0.499-1.001-0.654-1.555S-18,9.097-18,8.5s0.077-1.172,0.232-1.727
		s0.372-1.073,0.654-1.555s0.62-0.921,1.016-1.317c0.396-0.396,0.835-0.734,1.317-1.016s1-0.499,1.552-0.654S-12.101,2-11.5,2
		c0.597,0,1.172,0.077,1.727,0.232s1.073,0.372,1.555,0.654s0.921,0.62,1.317,1.016s0.734,0.835,1.016,1.317s0.499,1,0.654,1.552
		S-5,7.899-5,8.5z M-17.188,8.5c0,0.521,0.068,1.023,0.203,1.508s0.327,0.937,0.574,1.358s0.545,0.805,0.892,1.152
		s0.731,0.644,1.152,0.892s0.873,0.439,1.355,0.574s0.986,0.203,1.511,0.203c0.521,0,1.023-0.068,1.508-0.203
		s0.937-0.327,1.358-0.574s0.805-0.545,1.152-0.892s0.644-0.731,0.892-1.152s0.439-0.874,0.574-1.358S-5.812,9.021-5.812,8.5
		S-5.88,7.477-6.016,6.992S-6.343,6.055-6.59,5.634s-0.545-0.805-0.892-1.152S-8.213,3.838-8.634,3.59s-0.874-0.439-1.358-0.574
		s-0.987-0.203-1.508-0.203s-1.023,0.068-1.508,0.203s-0.937,0.327-1.358,0.574s-0.805,0.545-1.152,0.892s-0.644,0.731-0.892,1.152
		s-0.439,0.873-0.574,1.355S-17.188,7.975-17.188,8.5z M-7.418,8.5l-3.796,3.79l-0.571-0.578l2.793-2.793h-6.57V8.106h6.602
		l-2.831-2.831l0.571-0.571L-7.418,8.5z"/>
</g>
<g>
	<defs>
		<path id="SVGID_1_" d="M4,12l2,1.5L4,15v-1c-0.193,0-0.401,0.003-0.625,0.008s-0.447,0.001-0.668-0.012
			c-0.221-0.013-0.435-0.044-0.641-0.094s-0.388-0.13-0.547-0.242s-0.285-0.26-0.379-0.445C1.047,13.03,1,12.792,1,12.5V10h1v2.5
			c0,0.135,0.049,0.253,0.148,0.352C2.247,12.951,2.365,13,2.5,13H4V12z"/>
	</defs>
	<clipPath id="SVGID_2_">
		<use xlink:href="#SVGID_1_"  style="overflow:visible;"/>
	</clipPath>
	<rect x="-4" y="5" class="st1" width="15" height="15"/>
</g>
</svg>
