<?xml version="1.0" encoding="UTF-8" standalone="no"?>
<svg width="22px" height="20px" viewBox="0 0 22 20" version="1.1" xmlns="http://www.w3.org/2000/svg" xmlns:xlink="http://www.w3.org/1999/xlink">
    <defs></defs>
    <g stroke="none" stroke-width="1" fill="none" fill-rule="evenodd">
        <g fill="#1E1E1E">
            <g>
                <path d="M2.832,7.563 C2.654,7.661 2.42,7.71 2.129,7.71 C1.306,7.71 0.895,7.251 0.895,6.333 L0.895,3.552 L0.087,3.552 L0.087,2.909 L0.895,2.909 L0.895,1.762 L1.647,1.519 L1.647,2.91 L2.831,2.91 L2.831,3.553 L1.647,3.553 L1.647,6.2 C1.647,6.515 1.701,6.74 1.808,6.875 C1.915,7.01 2.093,7.077 2.341,7.077 C2.53,7.077 2.694,7.025 2.832,6.921 L2.832,7.563"></path>
                <path d="M7.738,7.609 L6.986,7.609 L6.986,4.901 C6.986,3.922 6.622,3.432 5.894,3.432 C5.527,3.432 5.218,3.574 4.967,3.857 C4.716,4.14 4.59,4.504 4.59,4.947 L4.59,7.609 L3.837,7.609 L3.837,0.651 L4.59,0.651 L4.59,3.689 L4.609,3.689 C4.969,3.096 5.483,2.799 6.15,2.799 C7.209,2.799 7.738,3.438 7.738,4.713 L7.738,7.609"></path>
                <path d="M9.542,1.716 C9.407,1.716 9.292,1.67 9.198,1.578 C9.104,1.486 9.056,1.37 9.056,1.229 C9.056,1.088 9.103,0.971 9.198,0.877 C9.293,0.784 9.407,0.737 9.542,0.737 C9.68,0.737 9.797,0.784 9.893,0.877 C9.989,0.971 10.038,1.088 10.038,1.229 C10.038,1.364 9.99,1.478 9.893,1.574 C9.797,1.669 9.68,1.716 9.542,1.716 L9.542,1.716 Z M9.156,2.909 L9.909,2.909 L9.909,7.609 L9.156,7.609 L9.156,2.909 Z"></path>
                <path d="M11.149,7.439 L11.149,6.632 C11.559,6.935 12.01,7.086 12.503,7.086 C13.164,7.086 13.494,6.866 13.494,6.425 C13.494,6.3 13.466,6.194 13.409,6.107 C13.352,6.019 13.276,5.942 13.18,5.875 C13.084,5.809 12.971,5.748 12.841,5.694 C12.711,5.64 12.57,5.585 12.421,5.526 C12.213,5.444 12.03,5.36 11.873,5.276 C11.716,5.192 11.584,5.097 11.478,4.992 C11.372,4.887 11.292,4.766 11.239,4.632 C11.185,4.497 11.158,4.34 11.158,4.159 C11.158,3.938 11.209,3.743 11.31,3.573 C11.411,3.403 11.545,3.261 11.714,3.146 C11.882,3.032 12.074,2.945 12.29,2.887 C12.506,2.828 12.728,2.799 12.958,2.799 C13.365,2.799 13.729,2.87 14.05,3.011 L14.05,3.773 C13.704,3.546 13.307,3.433 12.857,3.433 C12.716,3.433 12.589,3.449 12.476,3.481 C12.363,3.513 12.266,3.559 12.184,3.617 C12.103,3.676 12.04,3.745 11.996,3.826 C11.952,3.907 11.93,3.997 11.93,4.095 C11.93,4.217 11.952,4.32 11.996,4.403 C12.04,4.485 12.105,4.559 12.191,4.623 C12.277,4.687 12.381,4.746 12.504,4.798 C12.626,4.85 12.765,4.906 12.921,4.968 C13.129,5.047 13.316,5.129 13.481,5.213 C13.646,5.297 13.787,5.393 13.903,5.498 C14.019,5.603 14.109,5.725 14.171,5.862 C14.234,6 14.265,6.164 14.265,6.353 C14.265,6.585 14.214,6.788 14.111,6.959 C14.008,7.13 13.872,7.272 13.7,7.386 C13.528,7.5 13.331,7.583 13.108,7.638 C12.885,7.694 12.65,7.721 12.406,7.721 C11.923,7.72 11.503,7.626 11.149,7.439"></path>
                <path d="M6.572,14.189 L5.163,18.889 L4.383,18.889 L3.414,15.525 C3.377,15.396 3.353,15.252 3.341,15.088 L3.323,15.088 C3.314,15.198 3.282,15.341 3.227,15.516 L2.175,18.89 L1.423,18.89 L0,14.189 L0.789,14.189 L1.762,17.723 C1.793,17.83 1.814,17.971 1.826,18.146 L1.863,18.146 C1.872,18.011 1.9,17.868 1.946,17.714 L3.029,14.189 L3.717,14.189 L4.69,17.733 C4.721,17.846 4.744,17.987 4.759,18.155 L4.796,18.155 C4.802,18.036 4.828,17.895 4.874,17.733 L5.829,14.189 L6.572,14.189"></path>
                <path d="M11.176,16.728 L7.857,16.728 C7.869,17.251 8.01,17.656 8.279,17.94 C8.549,18.224 8.919,18.367 9.39,18.367 C9.919,18.367 10.406,18.193 10.849,17.844 L10.849,18.551 C10.437,18.85 9.891,19 9.211,19 C8.547,19 8.025,18.786 7.646,18.359 C7.267,17.932 7.077,17.332 7.077,16.557 C7.077,15.827 7.285,15.23 7.699,14.77 C8.114,14.309 8.629,14.079 9.243,14.079 C9.858,14.079 10.334,14.278 10.671,14.676 C11.007,15.074 11.176,15.626 11.176,16.333 L11.176,16.728 L11.176,16.728 Z M10.405,16.09 C10.402,15.655 10.297,15.318 10.091,15.075 C9.884,14.834 9.598,14.713 9.231,14.713 C8.876,14.713 8.575,14.84 8.327,15.094 C8.079,15.348 7.926,15.68 7.868,16.09 L10.405,16.09 L10.405,16.09 Z"></path>
                <path d="M16.092,16.728 L12.773,16.728 C12.785,17.251 12.926,17.656 13.195,17.94 C13.465,18.224 13.835,18.367 14.306,18.367 C14.835,18.367 15.322,18.193 15.765,17.844 L15.765,18.551 C15.352,18.851 14.806,19.001 14.126,19.001 C13.462,19.001 12.94,18.787 12.561,18.36 C12.182,17.933 11.992,17.333 11.992,16.558 C11.992,15.828 12.2,15.231 12.614,14.771 C13.029,14.31 13.544,14.08 14.158,14.08 C14.773,14.08 15.249,14.279 15.586,14.677 C15.922,15.075 16.091,15.627 16.091,16.334 L16.091,16.728 L16.092,16.728 L16.092,16.728 Z M15.32,16.09 C15.317,15.655 15.212,15.318 15.006,15.075 C14.799,14.834 14.513,14.713 14.146,14.713 C13.791,14.713 13.49,14.84 13.242,15.094 C12.994,15.348 12.841,15.68 12.783,16.09 L15.32,16.09 L15.32,16.09 Z"></path>
                <path d="M21.131,18.89 L20.075,18.89 L18.001,16.632 L17.982,16.632 L17.982,18.89 L17.23,18.89 L17.23,11.932 L17.983,11.932 L17.983,16.343 L18.002,16.343 L19.976,14.19 L20.963,14.19 L18.783,16.458 L21.131,18.89"></path>
            </g>
        </g>
    </g>
</svg>