<?xml version="1.0" encoding="UTF-8" standalone="no"?>
<svg width="16px" height="16px" viewBox="0 0 16 16" version="1.1" xmlns="http://www.w3.org/2000/svg" xmlns:xlink="http://www.w3.org/1999/xlink">
    <defs></defs>
    <g stroke="none" stroke-width="1" fill="none" fill-rule="evenodd">
        <g fill="#4A4A4A">
            <path d="M14.5,5 C14.703126,5 14.8958324,5.03906211 15.078125,5.1171875 C15.2604176,5.19531289 15.4205722,5.30208266 15.5585938,5.4375 C15.6966153,5.57291734 15.8046871,5.73176992 15.8828125,5.9140625 C15.9609379,6.09635508 16,6.29166563 16,6.5 C16,6.58854211 15.9752607,6.73567605 15.9257812,6.94140625 C15.8763018,7.14713645 15.8085942,7.39192566 15.7226562,7.67578125 C15.6367183,7.95963684 15.539063,8.26952957 15.4296875,8.60546875 C15.320312,8.94140793 15.2057298,9.28515449 15.0859375,9.63671875 C14.9661452,9.98828301 14.8450527,10.3359358 14.7226562,10.6796875 C14.6002598,11.0234392 14.4869797,11.3450506 14.3828125,11.6445312 C14.2786453,11.9440119 14.1861983,12.2096343 14.1054688,12.4414062 C14.0247392,12.6731782 13.9635419,12.8515619 13.921875,12.9765625 C13.8697914,13.1276049 13.7968755,13.2669264 13.703125,13.3945312 C13.6093745,13.5221361 13.5000006,13.6302079 13.375,13.71875 C13.2499994,13.8072921 13.113282,13.8763018 12.9648438,13.9257812 C12.8164055,13.9752607 12.6614591,14 12.5,14 L0,14 L0,5 C0.119792266,5 0.330727656,5.00390621 0.6328125,5.01171875 C0.934897344,5.01953129 1.27734184,5.02734371 1.66015625,5.03515625 C2.04297066,5.04296879 2.44531039,5.04817707 2.8671875,5.05078125 C3.28906461,5.05338543 3.68098777,5.04817715 4.04296875,5.03515625 C4.40494973,5.02213535 4.71354039,5.0026043 4.96875,4.9765625 C5.22395961,4.9505207 5.38020805,4.90885445 5.4375,4.8515625 L9.8828125,0.4140625 C10.0130215,0.283853516 10.1432285,0.182292031 10.2734375,0.109375 C10.4036465,0.0364579687 10.5624991,0 10.75,0 C10.9218759,0 11.0833326,0.0325517578 11.234375,0.09765625 C11.3854174,0.162760742 11.5182286,0.252603594 11.6328125,0.3671875 C11.7473964,0.481771406 11.8372393,0.614582578 11.9023438,0.765625 C11.9674482,0.916667422 12,1.07812414 12,1.25 C12,1.59896008 11.9804689,1.89973832 11.9414062,2.15234375 C11.9023436,2.40494918 11.8515628,2.62890527 11.7890625,2.82421875 C11.7265622,3.01953223 11.6575525,3.19791586 11.5820312,3.359375 C11.50651,3.52083414 11.432292,3.68229086 11.359375,3.84375 C11.286458,4.00520914 11.2200524,4.17708242 11.1601562,4.359375 C11.1002601,4.54166758 11.0572918,4.75520711 11.03125,5 L14.5,5 Z M1,13 L4,13 L4,6 L1,6 L1,13 Z M12.5,13 C12.6041672,13 12.7005204,12.9687503 12.7890625,12.90625 C12.8776046,12.8437497 12.940104,12.7604172 12.9765625,12.65625 C12.9973959,12.583333 13.0442705,12.4427094 13.1171875,12.234375 C13.1901045,12.0260406 13.2760412,11.7747411 13.375,11.4804688 C13.4739588,11.1861964 13.5820307,10.863283 13.6992188,10.5117188 C13.8164068,10.1601545 13.9361973,9.80338723 14.0585938,9.44140625 C14.1809902,9.07942527 14.2981765,8.72786629 14.4101562,8.38671875 C14.522136,8.04557121 14.6223954,7.73958469 14.7109375,7.46875 C14.7994796,7.19791531 14.8697914,6.97526129 14.921875,6.80078125 C14.9739586,6.62630121 15,6.5260418 15,6.5 C15,6.36458266 14.9505213,6.24739633 14.8515625,6.1484375 C14.7526037,6.04947867 14.6354173,6 14.5,6 L10,6 C10,5.74479039 10.0052083,5.50000117 10.015625,5.265625 C10.0260417,5.03124883 10.049479,4.80208445 10.0859375,4.578125 C10.122396,4.35416555 10.178385,4.13151152 10.2539062,3.91015625 C10.3294275,3.68880098 10.4348952,3.46614695 10.5703125,3.2421875 C10.7213549,2.97656117 10.8307288,2.69531398 10.8984375,2.3984375 C10.9661462,2.10156102 11,1.80208484 11,1.5 L11,1.33984375 C11,1.27994762 10.9934896,1.22526066 10.9804688,1.17578125 C10.9674479,1.12630184 10.9440106,1.08463559 10.9101562,1.05078125 C10.8763019,1.01692691 10.822917,1 10.75,1 C10.7239582,1.01562508 10.6992189,1.02994785 10.6757812,1.04296875 C10.6523436,1.05598965 10.6276043,1.0755207 10.6015625,1.1015625 L6.1484375,5.5625 C5.98697836,5.72395914 5.81119887,5.83723926 5.62109375,5.90234375 C5.43098863,5.96744824 5.22395945,6 5,6 L5,13 L12.5,13 Z"></path>
        </g>
    </g>
</svg>