<?xml version="1.0" encoding="UTF-8" standalone="no"?>
<svg width="16px" height="16px" viewBox="0 0 16 16" version="1.1" xmlns="http://www.w3.org/2000/svg" xmlns:xlink="http://www.w3.org/1999/xlink">
    <defs></defs>
    <g stroke="none" stroke-width="1" fill="none" fill-rule="evenodd">
        <g fill="#4A4A4A">
            <path d="M12.5,1 C12.6614591,1 12.8164055,1.02473934 12.9648438,1.07421875 C13.113282,1.12369816 13.2499994,1.19400996 13.375,1.28515625 C13.5000006,1.37630254 13.6093745,1.48437437 13.703125,1.609375 C13.7968755,1.73437563 13.8697914,1.87239508 13.921875,2.0234375 C13.9635419,2.14843812 14.0247392,2.32682176 14.1054688,2.55859375 C14.1861983,2.79036574 14.2786453,3.05598809 14.3828125,3.35546875 C14.4869797,3.65494941 14.6002598,3.97656078 14.7226562,4.3203125 C14.8450527,4.66406422 14.9661452,5.01171699 15.0859375,5.36328125 C15.2057298,5.71484551 15.320312,6.05859207 15.4296875,6.39453125 C15.539063,6.73047043 15.6367183,7.04036316 15.7226562,7.32421875 C15.8085942,7.60807434 15.8763018,7.85286355 15.9257812,8.05859375 C15.9752607,8.26432395 16,8.41145789 16,8.5 C16,8.70833437 15.9609379,8.90364492 15.8828125,9.0859375 C15.8046871,9.26823008 15.6966153,9.42708266 15.5585938,9.5625 C15.4205722,9.69791734 15.2604176,9.80468711 15.078125,9.8828125 C14.8958324,9.96093789 14.703126,10 14.5,10 L11.03125,10 C11.0572918,10.2239595 11.098958,10.4257804 11.15625,10.6054688 C11.213542,10.7851571 11.2786455,10.9596346 11.3515625,11.1289062 C11.4244795,11.2981779 11.4986975,11.4648429 11.5742188,11.6289062 C11.64974,11.7929696 11.7187497,11.967447 11.78125,12.1523438 C11.8437503,12.3372405 11.8958331,12.5390614 11.9375,12.7578125 C11.9791669,12.9765636 12,13.223957 12,13.5 C12,13.6979177 11.9765627,13.8867179 11.9296875,14.0664062 C11.8828123,14.2460946 11.8098963,14.4049472 11.7109375,14.5429688 C11.6119787,14.6809903 11.4830737,14.7916663 11.3242188,14.875 C11.1653638,14.9583337 10.9739595,15 10.75,15 C10.5624991,15 10.4036465,14.963542 10.2734375,14.890625 C10.1432285,14.817708 10.0130215,14.7161465 9.8828125,14.5859375 L5.4375,10.1484375 C5.39583312,10.1067706 5.29687578,10.0729168 5.140625,10.046875 C4.98437422,10.0208332 4.78906367,10.0013021 4.5546875,9.98828125 C4.32031133,9.97526035 4.05729313,9.96614586 3.765625,9.9609375 C3.47395687,9.95572914 3.1744807,9.953125 2.8671875,9.953125 C2.5598943,9.953125 2.25520984,9.95572914 1.953125,9.9609375 C1.65104016,9.96614586 1.36979297,9.97135414 1.109375,9.9765625 C0.848957031,9.98177086 0.621094727,9.98697914 0.42578125,9.9921875 C0.230467773,9.99739586 0.0885421094,10 0,10 L0,1 L12.5,1 Z M1,9 L4,9 L4,2 L1,2 L1,9 Z M14.5,9 C14.6354173,9 14.7526037,8.95052133 14.8515625,8.8515625 C14.9505213,8.75260367 15,8.63541734 15,8.5 C15,8.4739582 14.9739586,8.37369879 14.921875,8.19921875 C14.8697914,8.02473871 14.7994796,7.80078262 14.7109375,7.52734375 C14.6223954,7.25390488 14.522136,6.94661629 14.4101562,6.60546875 C14.2981765,6.26432121 14.1822923,5.9140643 14.0625,5.5546875 C13.9427077,5.1953107 13.8229173,4.83984551 13.703125,4.48828125 C13.5833327,4.13671699 13.4739588,3.81380355 13.375,3.51953125 C13.2760412,3.22525895 13.1914066,2.97395937 13.1210938,2.765625 C13.0507809,2.55729063 13.0026043,2.41666703 12.9765625,2.34375 C12.940104,2.23958281 12.8776046,2.15625031 12.7890625,2.09375 C12.7005204,2.03124969 12.6041672,2 12.5,2 L5,2 L5,9 C5.22395945,9 5.43098863,9.03255176 5.62109375,9.09765625 C5.81119887,9.16276074 5.98697836,9.27604086 6.1484375,9.4375 C6.23697961,9.52604211 6.36197836,9.653645 6.5234375,9.8203125 C6.68489664,9.98698 6.86979063,10.1783843 7.078125,10.3945312 C7.28645937,10.6106782 7.51301961,10.8437487 7.7578125,11.09375 C8.00260539,11.3437513 8.24869668,11.5950508 8.49609375,11.8476562 C8.74349082,12.1002617 8.9856759,12.346353 9.22265625,12.5859375 C9.4596366,12.825522 9.67968648,13.0429678 9.8828125,13.2382812 C10.0859385,13.4335947 10.2630201,13.5989577 10.4140625,13.734375 C10.5651049,13.8697923 10.677083,13.9583331 10.75,14 C10.822917,14 10.8828123,13.9765627 10.9296875,13.9296875 C10.9765627,13.8828123 11,13.822917 11,13.75 C11,13.4479152 10.9752607,13.1744804 10.9257812,12.9296875 C10.8763018,12.6848946 10.8151045,12.4544282 10.7421875,12.2382812 C10.6692705,12.0221343 10.5885421,11.812501 10.5,11.609375 C10.4114579,11.406249 10.3307295,11.1979177 10.2578125,10.984375 C10.1848955,10.7708323 10.1236982,10.544272 10.0742188,10.3046875 C10.0247393,10.065103 10,9.79687648 10,9.5 L10,9 L14.5,9 Z"></path>
        </g>
    </g>
</svg>