<?xml version="1.0" encoding="UTF-8" standalone="no"?>
<svg width="16px" height="16px" viewBox="0 0 16 16" version="1.1" xmlns="http://www.w3.org/2000/svg" xmlns:xlink="http://www.w3.org/1999/xlink">
    <defs></defs>
    <g stroke="none" stroke-width="1" fill="none" fill-rule="evenodd">
        <g fill="#4A4A4A">
            <path d="M8.5,0.03125 C9.0000025,0.03125 9.48176852,0.0963535156 9.9453125,0.2265625 C10.4088565,0.356771484 10.843748,0.541665469 11.25,0.78125 C11.656252,1.02083453 12.02604,1.30729 12.359375,1.640625 C12.69271,1.97396 12.9791655,2.34374797 13.21875,2.75 C13.4583345,3.15625203 13.6432285,3.59114352 13.7734375,4.0546875 C13.9036465,4.51823148 13.96875,4.9999975 13.96875,5.5 C13.96875,6.21354523 13.8320326,6.90234043 13.5585938,7.56640625 C13.2851549,8.23047207 12.8958359,8.81510164 12.390625,9.3203125 L5.8515625,15.8515625 L5.1484375,15.1484375 L11.6796875,8.609375 C12.0911479,8.19791461 12.408853,7.72265895 12.6328125,7.18359375 C12.856772,6.64452855 12.96875,6.08333625 12.96875,5.5 C12.96875,4.89062195 12.8502616,4.31510687 12.6132812,3.7734375 C12.3763009,3.23176813 12.0546895,2.75781453 11.6484375,2.3515625 C11.2421855,1.94531047 10.7682319,1.6236991 10.2265625,1.38671875 C9.68489313,1.1497384 9.10937805,1.03125 8.5,1.03125 C7.93749719,1.03125 7.4414084,1.11588457 7.01171875,1.28515625 C6.5820291,1.45442793 6.18489766,1.67838402 5.8203125,1.95703125 C5.45572734,2.23567848 5.10547043,2.55208156 4.76953125,2.90625 C4.43359207,3.26041844 4.08073102,3.62499813 3.7109375,4 L7,4 L7,5 L2,5 L2,0 L3,0 L3,3.2890625 C3.28645977,2.99739438 3.5611966,2.71484512 3.82421875,2.44140625 C4.0872409,2.16796738 4.3502591,1.91015746 4.61328125,1.66796875 C4.8763034,1.42578004 5.14452988,1.20442809 5.41796875,1.00390625 C5.69140762,0.803384414 5.98307137,0.631511133 6.29296875,0.48828125 C6.60286613,0.345051367 6.93880027,0.23307332 7.30078125,0.15234375 C7.66276223,0.0716141797 8.06249781,0.03125 8.5,0.03125 L8.5,0.03125 Z"></path>
        </g>
    </g>
</svg>