<?xml version="1.0" encoding="UTF-8" standalone="no"?>
<svg width="16px" height="16px" viewBox="0 0 16 16" version="1.1" xmlns="http://www.w3.org/2000/svg" xmlns:xlink="http://www.w3.org/1999/xlink">
    <defs></defs>
    <g stroke="none" stroke-width="1" fill="none" fill-rule="evenodd">
        <g fill="#4A4A4A">
            <path d="M14,7 L14,16 L2,16 L2,7 L11,7 L11,4 C11,3.57291453 10.9231779,3.17708516 10.7695312,2.8125 C10.6158846,2.44791484 10.4049493,2.13151176 10.1367188,1.86328125 C9.86848824,1.59505074 9.55208516,1.38411535 9.1875,1.23046875 C8.82291484,1.07682215 8.42708547,1 8,1 C7.57291453,1 7.17708516,1.07682215 6.8125,1.23046875 C6.44791484,1.38411535 6.13151176,1.59505074 5.86328125,1.86328125 C5.59505074,2.13151176 5.38411535,2.44791484 5.23046875,2.8125 C5.07682215,3.17708516 5,3.57291453 5,4 L4,4 C4,3.43228883 4.10156148,2.90495035 4.3046875,2.41796875 C4.50781352,1.93098715 4.7890607,1.5078143 5.1484375,1.1484375 C5.5078143,0.789060703 5.93098715,0.507813516 6.41796875,0.3046875 C6.90495035,0.101561484 7.43228883,0 8,0 C8.56771117,0 9.09504965,0.101561484 9.58203125,0.3046875 C10.0690129,0.507813516 10.4921857,0.789060703 10.8515625,1.1484375 C11.2109393,1.5078143 11.4921865,1.93098715 11.6953125,2.41796875 C11.8984385,2.90495035 12,3.43228883 12,4 L12,7 L14,7 Z M13,8 L3,8 L3,15 L13,15 L13,8 Z"></path>
        </g>
    </g>
</svg>