<?xml version="1.0" encoding="UTF-8" standalone="no"?>
<svg width="16px" height="16px" viewBox="0 0 16 16" version="1.1" xmlns="http://www.w3.org/2000/svg" xmlns:xlink="http://www.w3.org/1999/xlink">
    <defs></defs>
    <g stroke="none" stroke-width="1" fill="none" fill-rule="evenodd">
        <g fill="#323232">
            <path d="M11.5,9 C11.9843774,9 12.4388,9.09114492 12.8632812,9.2734375 C13.2877625,9.45573008 13.6588526,9.70572758 13.9765625,10.0234375 C14.2942724,10.3411474 14.5442699,10.7122375 14.7265625,11.1367188 C14.9088551,11.5612 15,12.0156226 15,12.5 C15,12.9843774 14.9088551,13.4388 14.7265625,13.8632812 C14.5442699,14.2877625 14.2942724,14.6588526 13.9765625,14.9765625 C13.6588526,15.2942724 13.2877625,15.5442699 12.8632812,15.7265625 C12.4388,15.9088551 11.9843774,16 11.5,16 C11.0156226,16 10.5612,15.9088551 10.1367188,15.7265625 C9.71223746,15.5442699 9.34114742,15.2942724 9.0234375,14.9765625 C8.70572758,14.6588526 8.45573008,14.2877625 8.2734375,13.8632812 C8.09114492,13.4388 8,12.9843774 8,12.5 C8,12.0156226 8.09114492,11.5612 8.2734375,11.1367188 C8.45573008,10.7122375 8.70572758,10.3411474 9.0234375,10.0234375 C9.34114742,9.70572758 9.71223746,9.45573008 10.1367188,9.2734375 C10.5612,9.09114492 11.0156226,9 11.5,9 L11.5,9 Z M9,12.5 C9,12.8437517 9.06510352,13.1679672 9.1953125,13.4726562 C9.32552148,13.7773453 9.50390512,14.0429676 9.73046875,14.2695312 C9.95703238,14.4960949 10.2226547,14.6744785 10.5273438,14.8046875 C10.8320328,14.9348965 11.1562483,15 11.5,15 C11.7447929,15 11.9843738,14.9648441 12.21875,14.8945312 C12.4531262,14.8242184 12.671874,14.7213548 12.875,14.5859375 L9.4140625,11.125 C9.27864516,11.328126 9.1757816,11.5468738 9.10546875,11.78125 C9.0351559,12.0156262 9,12.2552071 9,12.5 L9,12.5 Z M13.5859375,13.875 C13.7213548,13.671874 13.8242184,13.4531262 13.8945312,13.21875 C13.9648441,12.9843738 14,12.7447929 14,12.5 C14,12.1562483 13.9335944,11.8333348 13.8007812,11.53125 C13.6679681,11.2291652 13.4882824,10.9648449 13.2617188,10.7382812 C13.0351551,10.5117176 12.7708348,10.3320319 12.46875,10.1992188 C12.1666652,10.0664056 11.8437517,10 11.5,10 C11.2552071,10 11.0156262,10.0351559 10.78125,10.1054688 C10.5468738,10.1757816 10.328126,10.2786452 10.125,10.4140625 L13.5859375,13.875 Z M15.546875,5.84375 C15.3749991,6.01562586 15.2070321,6.17317637 15.0429688,6.31640625 C14.8789054,6.45963613 14.7096363,6.58072867 14.5351562,6.6796875 C14.3606762,6.77864633 14.1705739,6.85546848 13.9648438,6.91015625 C13.7591136,6.96484402 13.526043,6.9921875 13.265625,6.9921875 C13.0885408,6.9921875 12.9192716,6.97656266 12.7578125,6.9453125 L11.7109375,8 L10.2890625,8 L12.4609375,5.828125 C12.5963548,5.86979188 12.729166,5.90755191 12.859375,5.94140625 C12.989584,5.97526059 13.1249993,5.9921875 13.265625,5.9921875 C13.5520848,5.9921875 13.8229154,5.92447984 14.078125,5.7890625 L10.2109375,1.921875 C10.0755202,2.17708461 10.0078125,2.44791523 10.0078125,2.734375 C10.0078125,2.8750007 10.0247394,3.01041602 10.0585938,3.140625 C10.0924481,3.27083398 10.1302081,3.40364516 10.171875,3.5390625 L6.328125,7.375 C6.20312437,7.32291641 6.08333391,7.27343773 5.96875,7.2265625 C5.85416609,7.17968727 5.73958391,7.14062516 5.625,7.109375 C5.51041609,7.07812484 5.3919277,7.05338551 5.26953125,7.03515625 C5.1471348,7.01692699 5.0156257,7.0078125 4.875,7.0078125 C4.57812352,7.0078125 4.28906391,7.05078082 4.0078125,7.13671875 C3.72656109,7.22265668 3.46614703,7.3489575 3.2265625,7.515625 L7,11.2890625 L7,12.7109375 L5.5,11.203125 L1.0625,15.6484375 L0,16 L0.3515625,14.9375 L4.796875,10.5 L1.78125,7.484375 L2.1328125,7.1328125 C2.49739766,6.76822734 2.91926844,6.4895843 3.3984375,6.296875 C3.87760656,6.1041657 4.37499742,6.0078125 4.890625,6.0078125 C5.09375102,6.0078125 5.29557191,6.02473941 5.49609375,6.05859375 C5.69661559,6.09244809 5.89583234,6.14062469 6.09375,6.203125 L9.0546875,3.2421875 C9.02343734,3.08072836 9.0078125,2.91145922 9.0078125,2.734375 C9.0078125,2.47916539 9.03515598,2.24869895 9.08984375,2.04296875 C9.14453152,1.83723855 9.22135367,1.64583422 9.3203125,1.46875 C9.41927133,1.29166578 9.54036387,1.12109457 9.68359375,0.95703125 C9.82682363,0.79296793 9.98437414,0.625000859 10.15625,0.453125 L15.546875,5.84375 Z"></path>
        </g>
    </g>
</svg>