<?xml version="1.0" encoding="UTF-8" standalone="no"?>
<svg width="16px" height="16px" viewBox="0 0 16 16" version="1.1" xmlns="http://www.w3.org/2000/svg" xmlns:xlink="http://www.w3.org/1999/xlink">
    <defs></defs>
    <g stroke="none" stroke-width="1" fill="none" fill-rule="evenodd">
        <g fill="#4A4A4A">
            <path d="M6.90636364,7.02818182 C6.79727273,6.52636364 6.69363636,6.08727273 6.58454545,5.70818182 C6.47818182,5.33181818 6.38,5.05909091 6.29,4.89272727 C6.2,4.72909091 6.09636364,4.61727273 5.97909091,4.56 C5.86181818,4.5 5.73363636,4.47 5.59454545,4.47 C5.36,4.47 5.14454545,4.55454545 4.94818182,4.72636364 C4.74909091,4.89545455 4.49272727,5.24727273 4.17363636,5.78181818 L3.34181818,5.28545455 C3.75636364,4.65818182 4.11090909,4.18363636 4.40545455,3.86454545 C4.69727273,3.54272727 4.98909091,3.31909091 5.27545455,3.19090909 C5.56181818,3.06545455 5.92454545,3 6.36090909,3 C6.80818182,3 7.17636364,3.12545455 7.46545455,3.37636364 C7.75181818,3.62727273 7.97818182,4.05818182 8.14454545,4.67181818 C8.30818182,5.28272727 8.46090909,5.93454545 8.6,6.62727273 L8.72545455,6.62727273 L9.71818182,5.39727273 C10.1218182,4.87636364 10.4709091,4.45636364 10.7654545,4.14272727 C11.0572727,3.82909091 11.3163636,3.59181818 11.54,3.43090909 C11.7636364,3.27272727 11.9872727,3.16090909 12.2109091,3.09545455 C12.4345455,3.03272727 12.7018182,3 13.01,3 C13.3836364,3 13.7136364,3.06545455 14,3.19090909 L13.4736364,5.20636364 L12.5463636,5.20636364 C12.5245455,4.91727273 12.4236364,4.77545455 12.2436364,4.77545455 C12.1345455,4.77545455 12.0227273,4.8 11.9,4.85454545 C11.7772727,4.90636364 11.6054545,5.02909091 11.3872727,5.22272727 C11.1690909,5.41363636 10.8772727,5.70818182 10.5090909,6.10909091 C10.1409091,6.50727273 9.61727273,7.10727273 8.93545455,7.90636364 C9.07181818,8.64 9.22727273,9.34909091 9.39909091,10.0309091 C9.56818182,10.7127273 9.69909091,11.1627273 9.78909091,11.3809091 C9.87909091,11.5990909 9.98818182,11.7545455 10.1081818,11.8445455 C10.2309091,11.9372727 10.3836364,11.9809091 10.5636364,11.9809091 C10.7354545,11.9809091 10.8854545,11.9481818 11.0109091,11.8854545 C11.1390909,11.8227273 11.2809091,11.7 11.4363636,11.5172727 C11.5890909,11.3372727 11.78,11.0536364 12.0036364,10.6718182 L12.8327273,11.1654545 C12.3963636,11.8254545 12.0336364,12.3136364 11.7390909,12.63 C11.4472727,12.9436364 11.1609091,13.1590909 10.8854545,13.2763636 C10.6072727,13.3936364 10.2554545,13.4509091 9.83,13.4509091 C9.54090909,13.4509091 9.29272727,13.4072727 9.08,13.3145455 C8.86454545,13.2245455 8.68181818,13.08 8.52636364,12.8836364 C8.37363636,12.6872727 8.24818182,12.4581818 8.15272727,12.1963636 C8.05727273,11.9372727 7.94,11.4845455 7.80090909,10.8463636 C7.66181818,10.2081818 7.57727273,9.79090909 7.54454545,9.6 L7.43272727,9.6 C6.70727273,10.56 6.13727273,11.2745455 5.72272727,11.7490909 C5.30818182,12.2236364 4.96727273,12.5754545 4.7,12.8045455 C4.43272727,13.0336364 4.17090909,13.1972727 3.90909091,13.3009091 C3.64727273,13.4018182 3.34727273,13.4509091 3.00636364,13.4509091 C2.64363636,13.4509091 2.30818182,13.3827273 2,13.2436364 L2.52636364,11.2472727 L3.45363636,11.2472727 C3.47545455,11.5336364 3.57636364,11.6781818 3.75636364,11.6781818 C3.91727273,11.6781818 4.08909091,11.6181818 4.27727273,11.5009091 C4.46272727,11.3836364 4.77909091,11.0890909 5.22636364,10.6145455 C5.67363636,10.14 6.33636364,9.39272727 7.20909091,8.37 L6.90636364,7.02818182 Z"></path>
        </g>
    </g>
</svg>