<?xml version="1.0" encoding="UTF-8" standalone="no"?>
<svg width="16px" height="16px" viewBox="0 0 16 16" version="1.1" xmlns="http://www.w3.org/2000/svg" xmlns:xlink="http://www.w3.org/1999/xlink">
    <defs></defs>
    <g stroke="none" stroke-width="1" fill="none" fill-rule="evenodd">
        <g fill="#000000">
            <path d="M12,15.001 L13.002,15.001 C13.278,15.001 13.538,14.949 13.781,14.845 C14.023,14.741 14.235,14.597 14.415,14.414 C14.595,14.232 14.737,14.019 14.841,13.776 C14.946,13.533 14.998,13.274 14.998,12.997 C14.998,12.71 14.944,12.444 14.837,12.198 C14.731,11.953 14.583,11.742 14.395,11.564 C14.207,11.387 13.989,11.249 13.741,11.149 C13.494,11.05 13.229,11.001 12.947,11.001 C12.884,10.573 12.751,10.175 12.548,9.807 C12.344,9.439 12.09,9.122 11.784,8.855 C11.479,8.589 11.131,8.381 10.739,8.229 C10.348,8.078 9.936,8.002 9.502,8.002 C9.106,8.002 8.724,8.066 8.359,8.194 C7.994,8.322 7.662,8.502 7.365,8.734 C7.067,8.967 6.812,9.243 6.598,9.564 C6.383,9.885 6.227,10.236 6.128,10.617 C5.898,10.419 5.645,10.266 5.368,10.159 C5.092,10.052 4.802,9.998 4.499,9.998 C4.155,9.998 3.831,10.064 3.529,10.194 C3.226,10.325 2.961,10.503 2.734,10.73 C2.507,10.958 2.328,11.223 2.198,11.525 C2.068,11.828 2.002,12.151 2.002,12.496 C2.002,12.84 2.068,13.165 2.198,13.471 C2.328,13.776 2.507,14.042 2.734,14.269 C2.961,14.496 3.226,14.675 3.529,14.805 C3.831,14.937 4.155,15.001 4.499,15.001 L12,15.001 L12,15.001 Z M4.061,9.028 C4.134,9.017 4.207,9.01 4.28,9.004 C4.354,8.999 4.426,8.996 4.499,8.996 C4.886,8.996 5.267,9.064 5.642,9.2 C5.966,8.663 6.381,8.211 6.887,7.846 C7.393,7.48 7.952,7.23 8.563,7.094 C8.563,7.094 8.937,7.033 9.12,7.017 C9.313,7 9.643,7 9.643,7 C10.113,7.016 10.563,7.102 10.994,7.258 C11.424,7.415 11.82,7.629 12.184,7.9 C12.547,8.172 12.864,8.494 13.135,8.867 C13.406,9.241 13.615,9.649 13.761,10.092 C14.09,10.181 14.391,10.318 14.665,10.503 C14.939,10.689 15.175,10.911 15.374,11.169 C15.572,11.427 15.726,11.712 15.836,12.022 C15.945,12.333 16,12.658 16,12.997 C16,13.409 15.922,13.798 15.765,14.163 C15.609,14.529 15.394,14.847 15.123,15.119 C14.852,15.391 14.533,15.606 14.168,15.764 C13.803,15.924 13.414,16 13.002,16 L4.499,16 C4.014,16 3.56,15.911 3.137,15.725 C2.715,15.54 2.344,15.29 2.026,14.974 C1.708,14.659 1.457,14.288 1.274,13.862 C1.091,13.437 1,12.981 1,12.496 C1,12.151 1.05,11.816 1.149,11.49 C1.248,11.164 1.389,10.861 1.571,10.582 C1.755,10.303 1.974,10.053 2.229,9.834 C2.485,9.615 2.772,9.435 3.09,9.294 C3.09,9.294 3.411,9.159 3.578,9.113 C3.764,9.063 4.061,9.028 4.061,9.028 L4.061,9.028 Z M2,2 L6,2 L6,3 L2,3 L2,2 Z M2,4 L6,4 L6,5 L2,5 L2,4 Z M2,6 L6,6 L6,7 L2,7 L2,6 Z"></path>
            <path d="M4.2,16 L0,16 L0,1 C0,0.859 0.026,0.729 0.078,0.609 C0.13,0.49 0.202,0.384 0.293,0.293 C0.384,0.202 0.489,0.13 0.609,0.078 C0.729,0.026 0.859,0 1,0 L7,0 C7.141,0 7.271,0.026 7.391,0.078 C7.511,0.13 7.616,0.202 7.707,0.293 C7.798,0.384 7.87,0.49 7.922,0.609 C7.974,0.729 8,0.859 8,1 L8,7.266 L7,7.767 L7,1 L1,1 L1,15 L2.026,15 L4.2,16 L4.2,16 Z"></path>
        </g>
    </g>
</svg>