<?xml version="1.0" encoding="utf-8"?>
<!-- Generator: Adobe Illustrator 19.1.0, SVG Export Plug-In . SVG Version: 6.00 Build 0)  -->
<!DOCTYPE svg PUBLIC "-//W3C//DTD SVG 1.1//EN" "http://www.w3.org/Graphics/SVG/1.1/DTD/svg11.dtd">
<svg version="1.1" xmlns="http://www.w3.org/2000/svg" xmlns:xlink="http://www.w3.org/1999/xlink" x="0px" y="0px"
	 viewBox="0 0 648 648" enable-background="new 0 0 648 648" xml:space="preserve">
<g id="Layer_1">
</g>
<g id="Completed_Icons">
	<g>
		<path fill="#FFFFFF" d="M340.8,342.4c-0.2-2.6-0.8-8.1-1.3-10.6c-0.6-2.6-1.2-4.8-4-6.2c-2.3-1.1-3.4-1.5-4.4-1.5
			c-0.4,0-0.8,0.1-1.1,0.2c-0.1-0.4-0.2-0.7-0.3-1c2.1-1.9,3.4-4.7,3.4-7.9c0-5.6-4.1-10.2-9.2-10.2c-5.1,0-9.2,4.6-9.2,10.2
			c0,3.1,1.2,5.8,3.2,7.7c-0.2,0.4-0.3,0.7-0.4,1.1c-0.2-0.1-0.5-0.1-0.8-0.1c-1,0-2.2,0.4-4.4,1.5c-2.5,1.3-3.4,3.1-4,6.2
			c-0.5,2.5-1.1,7.9-1.3,10.6l-0.1,1.6h34.2L340.8,342.4z"/>
		<path fill="#515150" d="M308.3,342.5c0.2-2.6,0.8-8,1.3-10.4c0.6-2.7,1.2-4.2,3.2-5.2c2-1,3-1.4,3.7-1.4c0.6,0,1,0.3,1.4,0.7
			c0.1,0,0.1,0.1,0.2,0.2c1.9,1.7,3.8,2.1,5.7,2.1c1.9,0,3.8-0.4,5.7-2.1c0.1-0.1,0.1-0.1,0.2-0.2c0.4-0.4,0.8-0.7,1.4-0.7
			c0.7,0,1.8,0.4,3.7,1.4c2,1,2.6,2.5,3.2,5.2c0.5,2.4,1.1,7.8,1.3,10.4H308.3L308.3,342.5z M323.8,324.1c-4.3,0-7.7-3.9-7.7-8.7
			s3.5-8.7,7.7-8.7c4.3,0,7.7,3.9,7.7,8.7S328.1,324.1,323.8,324.1L323.8,324.1z"/>
	</g>
</g>
</svg>
