<?xml version="1.0" encoding="utf-8"?>
<!-- Generator: Adobe Illustrator 18.1.0, SVG Export Plug-In . SVG Version: 6.00 Build 0)  -->
<!DOCTYPE svg PUBLIC "-//W3C//DTD SVG 1.1//EN" "http://www.w3.org/Graphics/SVG/1.1/DTD/svg11.dtd">
<svg version="1.1" xmlns="http://www.w3.org/2000/svg" xmlns:xlink="http://www.w3.org/1999/xlink" x="0px" y="0px"
	 viewBox="0 0 648 648" enable-background="new 0 0 648 648" xml:space="preserve">
<g id="Layer_1">
</g>
<g id="Completed_Icons">
	<g>
		<path fill="#FFFFFF" d="M333.1,343h-2.7c-1.3,0-3.1-1.1-3.1-3.1v-10.8h1.1v-0.8h-1.1v-4.1h2.2l0-9.4l-0.5-3.3v-4.8h5.7l0,5
			l-0.5,3.2v9.3h2.2v4.1h-1.1v0.8h1.1v10.8C336.3,341.9,334.4,343,333.1,343z"/>
		<path fill="#FFFFFF" d="M319.5,306.7l-3.3,0l0.4,0.7l-0.7,0.8c-0.1,0.1-2.8,3.3-1.1,7.2l-1.2,0.5v1c0,1.7,1.9,3.3,3.8,4v18.9
			c0,2.2,1.5,3.7,3.7,3.7s3.7-1.5,3.7-3.7v-20c1.4-1.3,2.2-3.3,2.2-5.6C327,309.9,323.8,306.7,319.5,306.7z"/>
	</g>
	<g>
		<path fill-rule="evenodd" clip-rule="evenodd" fill="#515150" d="M334.9,330.7v9.3c0,1.1-1,1.6-1.6,1.6h-2.7
			c-0.6,0-1.6-0.5-1.6-1.6v-9.3h1.1v-3.8h-1.1v-1.1h2.2l0-11l-0.5-3.2v-3.3h2.7v3.3l-0.5,3.3v10.9h2.2v1.1h-1.1v3.8H334.9
			L334.9,330.7z"/>
		<path fill-rule="evenodd" clip-rule="evenodd" fill="#515150" d="M319.7,308.3l-0.9,0l3,6l-6.5,2.7c0,1.1,2.2,2.7,3.8,2.7V340
			c0,1.1,0.5,2.2,2.2,2.2c1.6,0,2.2-1.1,2.2-2.2v-20.7c1.3-0.8,2.2-2.7,2.2-4.9C325.7,310.7,322.9,308.3,319.7,308.3z M321.3,341
			c-0.6,0-1.1-0.5-1.1-1.1c0-0.6,0.5-1.1,1.1-1.1c0.6,0,1.1,0.5,1.1,1.1C322.4,340.5,321.9,341,321.3,341z"/>
		<path fill-rule="evenodd" clip-rule="evenodd" fill="#515150" d="M316.6,315.4c-1.8-3.3,0.6-6.1,0.6-6.1l2.3,4.6L316.6,315.4
			L316.6,315.4z"/>
	</g>
</g>
</svg>
