<?xml version="1.0" encoding="utf-8"?>
<!-- Generator: Adobe Illustrator 18.1.0, SVG Export Plug-In . SVG Version: 6.00 Build 0)  -->
<!DOCTYPE svg PUBLIC "-//W3C//DTD SVG 1.1//EN" "http://www.w3.org/Graphics/SVG/1.1/DTD/svg11.dtd">
<svg version="1.1" xmlns="http://www.w3.org/2000/svg" xmlns:xlink="http://www.w3.org/1999/xlink" x="0px" y="0px"
	 viewBox="0 0 648 648" enable-background="new 0 0 648 648" xml:space="preserve">
<g id="Layer_1">
</g>
<g id="Completed_Icons">
	<path fill="#FFFFFF" d="M348.7,320.3c-0.6,0-1,0.2-1.2,0.3c-0.3,0.2-0.6,0.3-0.9,0.5c-0.6,0.3-1,0.5-1.7,0.6c1-0.7,1.7-1.9,1.7-3.3
		c0-1-0.4-1.9-0.9-2.6c0.6-0.7,0.9-1.6,0.9-2.6c0-1.1-0.4-2.1-1.2-2.8c0.7-0.9,1.2-1.9,1.2-3.1c0-2.7-2.2-4.9-4.9-4.9
		c-1.2,0-2.3,0.4-3.1,1.2c-0.7-0.7-1.7-1.2-2.8-1.2c-1,0-1.9,0.4-2.6,0.9c-0.7-0.6-1.6-0.9-2.6-0.9s-1.9,0.4-2.6,0.9
		c-0.7-0.6-1.6-0.9-2.6-0.9c-1,0-1.9,0.4-2.6,0.9c-0.7-0.6-1.6-0.9-2.6-0.9c-1,0-1.9,0.4-2.6,0.9c-0.7-0.6-1.6-0.9-2.6-0.9
		c-1,0-1.9,0.4-2.6,0.9c-0.7-0.6-1.6-0.9-2.6-0.9c-1.1,0-2.1,0.4-2.8,1.2c-0.9-0.7-1.9-1.2-3.1-1.2c-2.7,0-4.9,2.2-4.9,4.9
		c0,1.2,0.4,2.3,1.2,3.1c-0.7,0.7-1.2,1.7-1.2,2.8c0,1,0.4,1.9,0.9,2.6c-0.6,0.7-0.9,1.6-0.9,2.6c0,1,0.4,1.9,0.9,2.6
		c-0.6,0.7-0.9,1.6-0.9,2.6s0.4,1.9,0.9,2.6c-0.6,0.7-0.9,1.6-0.9,2.6c0,1.1,0.4,2.1,1.2,2.8c-0.7,0.9-1.2,1.9-1.2,3.1
		c0,2.7,2.2,4.9,4.9,4.9c1.2,0,2.3-0.4,3.1-1.2c0.7,0.7,1.7,1.2,2.8,1.2c1,0,1.9-0.4,2.6-0.9c0.7,0.6,1.6,0.9,2.6,0.9
		c1,0,1.8-0.4,2.5-0.9c0.7,0.6,1.6,0.9,2.6,0.9c1.5,0,2.7-0.8,3.4-1.9c4.3,8.4,11.4,10.9,11.5,10.9l0.5,0.2l0.5-0.2
		c4.1-1.4,14.7-8.8,14.7-25.6C350.9,321.1,349.8,320.3,348.7,320.3z"/>
	<g>
		<circle fill="#515150" cx="304" cy="334.7" r="3.4"/>
		<path fill="#515150" d="M300.6,328.7c0,1.4,1.2,2.6,2.6,2.6c1.4,0,2.6-1.2,2.6-2.6c0-1.4-1.2-2.6-2.6-2.6
			C301.7,326.1,300.6,327.3,300.6,328.7z"/>
		<circle fill="#515150" cx="310" cy="335.5" r="2.6"/>
		<circle fill="#515150" cx="315.1" cy="335.5" r="2.6"/>
		<circle fill="#515150" cx="303.2" cy="323.6" r="2.6"/>
		<path fill="#515150" d="M310,309c1.4,0,2.6-1.2,2.6-2.6c0-1.4-1.2-2.6-2.6-2.6c-1.4,0-2.6,1.1-2.6,2.6
			C307.4,307.9,308.6,309,310,309z"/>
		<circle fill="#515150" cx="315.1" cy="306.5" r="2.6"/>
		<circle fill="#515150" cx="303.2" cy="318.4" r="2.6"/>
		<circle fill="#515150" cx="320.3" cy="306.5" r="2.6"/>
		<circle fill="#515150" cx="304" cy="307.3" r="3.4"/>
		<circle fill="#515150" cx="303.2" cy="313.3" r="2.6"/>
		<path fill="#515150" d="M320.2,333c-1.1,0-2,0.7-2.4,1.7c0,0,0,0,0,0c0,0.4,0,0.9-0.1,1.3c0.2,1.2,1.3,2.1,2.5,2.1
			c1.4,0,2.6-1.2,2.6-2.6c0-0.1,0-0.3,0-0.4c-0.1-0.3-0.3-0.7-0.4-1.1C321.9,333.4,321.1,333,320.2,333z"/>
		<path fill="#515150" d="M322.8,335.2c-0.1-0.4-0.2-0.8-0.4-1.1C322.5,334.4,322.6,334.8,322.8,335.2z"/>
		<circle fill="#515150" cx="325.4" cy="306.5" r="2.6"/>
		<circle fill="#515150" cx="330.5" cy="306.5" r="2.6"/>
		<path fill="#515150" d="M342.5,321c1.4,0,2.6-1.1,2.6-2.6c0-1.4-1.2-2.6-2.6-2.6c-1.4,0-2.6,1.2-2.6,2.6
			C339.9,319.8,341.1,321,342.5,321z"/>
		<path fill="#515150" d="M345.1,313.3c0-1.4-1.2-2.6-2.6-2.6c-1.4,0-2.6,1.1-2.6,2.6c0,1.4,1.2,2.6,2.6,2.6
			C343.9,315.9,345.1,314.7,345.1,313.3z"/>
		<circle fill="#515150" cx="335.7" cy="306.5" r="2.6"/>
		<circle fill="#515150" cx="341.7" cy="307.3" r="3.4"/>
		<path fill-rule="evenodd" clip-rule="evenodd" fill="#515150" d="M314.3,327v-1.7h6.3c-0.1-0.9-0.1-1.9-0.1-2.9c0-0.2,0-0.4,0-0.5
			h-6.2v-1.7h7.2c0.4-0.2,0.8-0.4,1.2-0.4c0.4,0,0.7,0.1,1,0.2l0,0l0.1,0.1c0.1,0,0.2,0.1,0.2,0.1h6.4c0.5-0.4,0.9-0.8,1.4-1.3
			c1-1.1,2.1-2.2,3.7-2.2c1.1,0,1.9,0.6,2.5,1.2v-7.1h-30.8v20.5h13.7h0.4c-0.3-1.3-0.6-2.8-0.8-4.3H314.3z M310.9,314.1h24v2.6h-24
			V314.1z"/>
		<path fill-rule="evenodd" clip-rule="evenodd" fill="#515150" d="M323.9,320l-0.1-0.1l0,0c-0.2-0.1-0.6-0.2-1-0.2
			c-0.4,0-0.9,0.1-1.2,0.4h2.6C324,320.1,324,320.1,323.9,320z"/>
		<path fill="#515150" d="M348.1,322c-1.5,0.7-2.1,1.3-4.4,1.3c-5.6,0-5.7-4.5-8-4.5c-2.3,0-3.6,4.5-8,4.5c-2.4,0-2.9-0.6-4.4-1.3
			c0,0-1.3-0.6-1.3,1c0,17.7,11.6,23.5,13.7,24.2c2-0.7,13.7-6.7,13.7-24.2C349.4,321.4,348.3,321.9,348.1,322z M334.6,339.6
			l-6.7-6.3l2.2-2.3l4.3,4l7.4-8.8l2.4,2L334.6,339.6z"/>
	</g>
</g>
</svg>
