<?xml version="1.0" encoding="utf-8"?>
<!-- Generator: Adobe Illustrator 18.1.0, SVG Export Plug-In . SVG Version: 6.00 Build 0)  -->
<!DOCTYPE svg PUBLIC "-//W3C//DTD SVG 1.1//EN" "http://www.w3.org/Graphics/SVG/1.1/DTD/svg11.dtd">
<svg version="1.1" xmlns="http://www.w3.org/2000/svg" xmlns:xlink="http://www.w3.org/1999/xlink" x="0px" y="0px"
	 viewBox="0 0 648 648" enable-background="new 0 0 648 648" xml:space="preserve">
<g id="Layer_1">
</g>
<g id="Completed_Icons">
	<path fill="#FFFFFF" d="M336.7,343.5l-8.9,0l2.5-2.4c-2.6,1.4-5.6,2.2-8.6,2.2c-10.1,0-18.3-8.2-18.3-18.3s8.2-18.3,18.3-18.3
		s18.3,8.2,18.3,18.3c0,0.9-0.1,1.8-0.2,2.7l6.4,6.4L336.7,343.5z"/>
	<g>
		<g id="DVD_4_">
			<g>
				<path fill="#515150" d="M330.1,326.9c-0.4,1.4-1,2.6-1.9,3.6l5.6,0L330.1,326.9z M321.7,308c-9.3,0-16.8,7.5-16.8,16.8
					c0,9.3,7.5,16.8,16.8,16.8c4.3,0,8.2-1.6,11.2-4.3l-11.6,0l0-3.9c-4.6-0.2-8.4-4-8.4-8.7c0-4.8,3.9-8.7,8.7-8.7
					c4.7,0,8.5,3.6,8.7,8.2l6.5,0l1.6,1.7c0-0.4,0.1-0.7,0.1-1.1C338.5,315.5,331,308,321.7,308z M321.6,317.4
					c-4.1,0-7.4,3.3-7.4,7.4c0,3.9,3.1,7.2,7,7.3l0-1.6l4.9,0c1.7-1.3,2.8-3.4,2.8-5.8C329,320.7,325.7,317.4,321.6,317.4z
					 M321.6,327.3c-1.4,0-2.5-1.1-2.5-2.5c0-1.4,1.1-2.5,2.5-2.5s2.5,1.1,2.5,2.5C324.1,326.1,323,327.3,321.6,327.3z"/>
			</g>
		</g>
		<g>
			<polygon fill="#515150" points="336.2,326 331.5,326 337.8,332.3 323,332.2 322.9,335.7 337.8,335.7 331.5,342 336.1,342 
				344.1,334 			"/>
		</g>
	</g>
</g>
</svg>
