<?xml version="1.0" encoding="utf-8"?>
<!-- Generator: Adobe Illustrator 18.1.0, SVG Export Plug-In . SVG Version: 6.00 Build 0)  -->
<!DOCTYPE svg PUBLIC "-//W3C//DTD SVG 1.1//EN" "http://www.w3.org/Graphics/SVG/1.1/DTD/svg11.dtd">
<svg version="1.1" xmlns="http://www.w3.org/2000/svg" xmlns:xlink="http://www.w3.org/1999/xlink" x="0px" y="0px"
	 viewBox="0 0 648 648" enable-background="new 0 0 648 648" xml:space="preserve">
<g id="Layer_1">
</g>
<g id="Completed_Icons">
	<path fill="#FFFFFF" d="M350.1,352.2h-23.7c-1.6,0-2.9-1.3-2.9-2.9v-5.6c-4.5,0.1-8.5,0.5-10.3,0.7l0,0.8l-1.5,0h-4.1
		c-0.9,0-1.7-0.4-2.3-1.1c-0.6-0.7-0.8-1.6-0.6-2.4c0.3-1.3,0.9-2.5,1.8-3.4c1.7-1.8,4.5-2.7,9.1-3.1v-1.5l-17.2,0.1
		c-1.6,0-2.9-1.3-2.9-2.9v-29.6c0-1.6,1.3-2.9,2.9-2.9h43.5c1.6,0,2.9,1.3,2.9,2.9v21.2h0.9c1.6,0,2.9,1.3,2.9,2.9
		c0,0.3,0,0.5-0.1,0.8c1-0.6,2.5-0.6,3.4,0.2l1.1,0.9c1.2,1,1.4,2.9,0.3,4.1L353,332v17.3C353,350.9,351.7,352.2,350.1,352.2z"/>
	<g>
		<path fill="#515150" d="M307.6,343.7c-0.9,0-1.6-0.8-1.4-1.7c0.2-0.8,0.6-1.8,1.4-2.6c1.5-1.5,3.9-2.3,8.3-2.6
			c0.7-0.1,1.3-0.7,1.3-1.4v-1.7c0-0.8-0.6-1.4-1.4-1.4l-17.3,0.1c-0.8,0-1.4-0.6-1.4-1.4v-29.6c0-0.8,0.6-1.4,1.4-1.4h43.5
			c0.8,0,1.4,0.6,1.4,1.4v18c0,0.8-0.6,1.4-1.4,1.4h-2.8c-0.8,0-1.4-0.6-1.4-1.4V307c0-0.8-0.6-1.4-1.4-1.4H304
			c-0.8,0-1.4,0.6-1.4,1.4v18.4c0,0.8,0.6,1.4,1.4,1.4l17.3-0.1c0.8,0,1.4,0.6,1.4,1.4v12.7c0,0.8-0.6,1.4-1.4,1.4l-1.4,0
			c-6.1,0.1-7.8,0.7-8.3,1c0,0.1-0.1,0.4,0,0.5H307.6z"/>
		<path fill="#515150" d="M350.1,350.7h-23.7c-0.8,0-1.4-0.6-1.4-1.4v-23.7c0-0.8,0.6-1.4,1.4-1.4h19.3c0.8,0,1.4,0.6,1.4,1.4l0,0
			c0,0.8-0.6,1.4-1.4,1.4h-16.5c-0.8,0-1.4,0.6-1.4,1.4v18.2c0,0.8,0.6,1.4,1.4,1.4h18.1c0.8,0,1.4-0.6,1.4-1.4v-6.5
			c0-0.8,0.6-1.4,1.4-1.4l0,0c0.8,0,1.4,0.6,1.4,1.4v9.3C351.5,350.1,350.8,350.7,350.1,350.7z"/>
		<path fill="#515150" d="M339.3,343.6l-6.9-6.4c-0.6-0.5-0.6-1.4-0.1-2l1-1c0.5-0.6,1.4-0.6,2-0.1l3.6,3.4c0.6,0.5,1.5,0.5,2-0.1
			l8-9.5c0.5-0.6,1.4-0.7,2-0.2l1.1,0.9c0.6,0.5,0.7,1.4,0.2,2l-10.8,12.9C340.8,344,339.9,344.1,339.3,343.6z"/>
	</g>
</g>
</svg>
