<?xml version="1.0" encoding="utf-8"?>
<!-- Generator: Adobe Illustrator 19.1.0, SVG Export Plug-In . SVG Version: 6.00 Build 0)  -->
<!DOCTYPE svg PUBLIC "-//W3C//DTD SVG 1.1//EN" "http://www.w3.org/Graphics/SVG/1.1/DTD/svg11.dtd">
<svg version="1.1" xmlns="http://www.w3.org/2000/svg" xmlns:xlink="http://www.w3.org/1999/xlink" x="0px" y="0px"
	 viewBox="0 0 648 648" enable-background="new 0 0 648 648" xml:space="preserve">
<g id="Layer_1">
</g>
<g id="Isolation_Mode">
	<g>
		<path fill="#FFFFFF" d="M345.8,345.1h-43.9c-2.4,0-4.3-1.9-4.3-4.3v-32.3c0-2.4,1.9-4.3,4.3-4.3h43.9c2.4,0,4.3,1.9,4.3,4.3v32.3
			C350.1,343.2,348.2,345.1,345.8,345.1z"/>
		<rect x="300.2" y="319.7" fill="#515150" width="46.7" height="2.1"/>
		<rect x="313.5" y="321.1" fill="#515150" width="2.1" height="21.1"/>
		<rect x="304.4" y="314.8" fill="#515150" width="2.8" height="2.8"/>
		<rect x="310" y="314.8" fill="#515150" width="2.8" height="2.8"/>
		<rect x="315.6" y="314.8" fill="#515150" width="2.8" height="2.8"/>
		<rect x="321.1" y="314.8" fill="#515150" width="2.8" height="2.8"/>
		<rect x="326.7" y="314.8" fill="#515150" width="2.8" height="2.8"/>
		<g>
			<rect x="303" y="324.7" fill="#515150" width="7.7" height="1.4"/>
			<rect x="305.8" y="328.9" fill="#515150" width="4.9" height="1.4"/>
			<rect x="305.8" y="333.1" fill="#515150" width="4.9" height="1.4"/>
			<rect x="303" y="337.3" fill="#515150" width="7.7" height="1.4"/>
		</g>
		<g>
			<path fill="#515150" d="M345.8,305.7h-43.9c-1.5,0-2.8,1.3-2.8,2.8v32.3c0,1.5,1.3,2.8,2.8,2.8h43.9c1.5,0,2.8-1.3,2.8-2.8v-32.3
				C348.6,307,347.4,305.7,345.8,305.7z M340.3,307.8h2.1v2.1h-2.1V307.8z M336.1,307.8h2.1v2.1h-2.1V307.8z M301.2,340.8v-19h12.5
				v19.7h-11.8C301.5,341.5,301.2,341.2,301.2,340.8z M346.5,340.8c0,0.4-0.3,0.7-0.7,0.7h-30v-19.7h30.7V340.8z M346.5,319.7h-45.3
				v-7h45.3V319.7z M346.5,309.9h-2.1v-2.1h2.1V309.9z"/>
			<rect x="304.7" y="314.8" fill="#515150" width="2.8" height="2.8"/>
			<rect x="310.3" y="314.8" fill="#515150" width="2.8" height="2.8"/>
			<rect x="315.9" y="314.8" fill="#515150" width="2.8" height="2.8"/>
			<rect x="321.4" y="314.8" fill="#515150" width="2.8" height="2.8"/>
			<rect x="327" y="314.8" fill="#515150" width="2.8" height="2.8"/>
			<g>
				<rect x="303.3" y="324.7" fill="#515150" width="7.7" height="1.4"/>
				<rect x="306.1" y="328.9" fill="#515150" width="4.9" height="1.4"/>
				<rect x="306.1" y="333.1" fill="#515150" width="4.9" height="1.4"/>
				<rect x="303.3" y="337.3" fill="#515150" width="7.7" height="1.4"/>
			</g>
		</g>
	</g>
</g>
</svg>
