<?xml version="1.0" encoding="utf-8"?>
<!-- Generator: Adobe Illustrator 18.1.0, SVG Export Plug-In . SVG Version: 6.00 Build 0)  -->
<!DOCTYPE svg PUBLIC "-//W3C//DTD SVG 1.1//EN" "http://www.w3.org/Graphics/SVG/1.1/DTD/svg11.dtd">
<svg version="1.1" xmlns="http://www.w3.org/2000/svg" xmlns:xlink="http://www.w3.org/1999/xlink" x="0px" y="0px"
	 viewBox="0 0 648 648" enable-background="new 0 0 648 648" xml:space="preserve">
<g id="Layer_1">
</g>
<g id="Completed_Icons">
	<path fill="#FFFFFF" d="M352.6,332.3h-11.7v-5.2h1v-36.7h-49.1v57.9H320v8.5l20.9,3.3v-5h11.7c1.4,0,2.4-1.1,2.4-2.4v-17.9
		C355.1,333.3,354,332.3,352.6,332.3z"/>
	<g>
		<g>
			<polygon fill="#515050" points="318.5,346.7 294.3,346.7 294.3,291.9 340.4,291.9 340.4,325.6 338.2,325.6 338.2,294.1 
				296.6,294.1 296.6,344.5 318.5,344.5 			"/>
		</g>
		<g>
			<rect x="305.6" y="300.2" fill="#515050" width="23.6" height="2.6"/>
			<rect x="305.6" y="306.5" fill="#515050" width="23.6" height="2.6"/>
			<rect x="305.6" y="312.8" fill="#515050" width="23.6" height="2.6"/>
		</g>
		<g>
			<path fill="#2372BA" d="M349.9,345.4c-0.9-0.8-2.5-2-3.6-2.6c-0.6-0.3-1.1-0.6-1.1-0.7c0,0-0.1,0.1-0.2,0.1l-0.2,0.2v0.2
				c0,0,3.5,3.4,3.9,3.8c0.1,0.1,0.1,0.3,0.1,0.4v1.8c0,0.1-0.1,0.2-0.2,0.2h-2.4c-0.1,0-0.2,0-0.3-0.1l-0.8-0.7
				c-0.1-0.1-0.1-0.1-0.2,0l-0.7,0.9c0,0.1,0,0.2,0,0.3c0,0,1.4,1.3,1.5,1.4s0.2,0.2,0.5,0.2h4c0.3,0,0.5-0.2,0.5-0.5v-3.8
				C350.8,346.1,350.5,345.8,349.9,345.4z"/>
			<path fill="#2372BA" d="M342.2,342.2c0,0,0.1,0.1,0.1,0.2l0.2,0.2c0,0,0.1,0,0.2,0c0,0,3.4-3.5,3.8-3.9c0.1-0.1,0.3-0.1,0.4-0.1
				h1.8c0.1,0,0.2,0.1,0.2,0.2v2.4c0,0.1,0,0.2-0.1,0.3l-0.8,0.8c-0.1,0.1-0.1,0.1,0,0.2l0.9,0.7c0.1,0,0.2,0,0.3,0
				c0,0,1.3-1.4,1.4-1.5c0.1-0.1,0.2-0.2,0.2-0.5v-4c0-0.3-0.2-0.5-0.5-0.5h-3.8c-0.3,0-0.6,0.3-1,0.8c-0.8,0.9-2,2.5-2.6,3.6
				C342.6,341.5,342.3,342.1,342.2,342.2z"/>
			<path fill="#2372BA" d="M352.6,333.8h-13.2v-5.7l-17.9,2.8v24.5l17.9,2.8v-4.7h13.2c0.6,0,0.9-0.4,0.9-0.9v-17.9
				C353.6,334.1,353.2,333.8,352.6,333.8z M333.3,349.9L333.3,349.9l-5.6-0.5v-11.7l5.1-0.4v2.3l-3.1,0.1v2.7h3.1v2.3l-3.1-0.1v2.7
				l3.6,0.2V349.9z M352.2,352.2h-12.7v-1.4h1.4c0.3,0,0.6-0.3,1-0.8c0.8-0.9,2-2.5,2.6-3.6c0.3-0.6,0.6-1.1,0.7-1.1
				c0,0-0.1-0.1-0.1-0.2l-0.2-0.2h-0.2c0,0-3.4,3.5-3.8,3.9c-0.1,0.1-0.3,0.1-0.4,0.1h-1.1v-5.3c0.6,0.4,1.4,0.9,1.6,1
				c0.6,0.3,1.1,0.6,1.1,0.7c0,0,0.1-0.1,0.2-0.1l0.2-0.2v-0.2c0,0-1.9-1.8-3.1-3v-3.2h1.7c0.1,0,0.2,0,0.3,0.1l0.8,0.8
				c0.1,0.1,0.1,0.1,0.2,0l0.7-0.9c0-0.1,0-0.2,0-0.3c0,0-1.4-1.3-1.5-1.4c-0.2,0-0.3-0.1-0.6-0.1h-1.6v-1.4h12.7V352.2z"/>
		</g>
	</g>
</g>
</svg>
