<?xml version="1.0" encoding="utf-8"?>
<!-- Generator: Adobe Illustrator 18.1.0, SVG Export Plug-In . SVG Version: 6.00 Build 0)  -->
<!DOCTYPE svg PUBLIC "-//W3C//DTD SVG 1.1//EN" "http://www.w3.org/Graphics/SVG/1.1/DTD/svg11.dtd">
<svg version="1.1" xmlns="http://www.w3.org/2000/svg" xmlns:xlink="http://www.w3.org/1999/xlink" x="0px" y="0px"
	 viewBox="0 0 648 648" enable-background="new 0 0 648 648" xml:space="preserve">
<g id="Layer_1">
</g>
<g id="Completed_Icons">
	<path fill="#FFFFFF" d="M353.3,340.3c-0.7-0.7-1.6-1.2-2.6-1.3c-0.8-1.5-2.1-2.7-3.6-3.6c-0.2-2.2-2-4-4.3-4c-0.3,0-0.6,0-0.9,0.1
		v-4h1.6v-36.7h-49.1v57.9h27.2v7.7l20.3,3.2v-4.2c0.3,0.1,0.5,0.1,0.9,0.1c2.3,0,4.1-1.8,4.3-4c1.5-0.9,2.8-2.1,3.5-3.6
		c2.2-0.2,3.9-2,3.9-4.2C354.6,342.4,354.2,341.2,353.3,340.3z"/>
	<g>
		<g>
			<polygon fill="#515050" points="320.2,347.4 295.9,347.4 295.9,292.5 342,292.5 342,326.2 339.8,326.2 339.8,294.8 298.2,294.8 
				298.2,345.1 320.2,345.1 			"/>
		</g>
		<g>
			<rect x="307.2" y="300.8" fill="#515050" width="23.6" height="2.6"/>
			<rect x="307.2" y="307.1" fill="#515050" width="23.6" height="2.6"/>
			<rect x="307.2" y="313.4" fill="#515050" width="23.6" height="2.6"/>
		</g>
		<g>
			<path fill="#2372BA" d="M323.2,331.6v23.6l17.3,2.7v-29.1L323.2,331.6z M334.6,346.7c-0.7,2.3-3.8,2.5-5.6,1.5
				c-0.3-0.2-0.4-0.2-0.4-0.5c0-0.3,0-0.5,0-0.8c0-0.5,0-0.9,0-1.4c0.6,0.6,1.3,1.1,2.1,1.2c0.6,0.1,1.4,0.1,1.7-0.5
				c0.7-1.5-1.5-2.2-2.3-2.8c-1.3-0.9-1.8-2.4-1.4-3.9c0.5-1.5,1.8-2.3,3.3-2.4c0.7,0,1.5,0,2,0.1c0.2,0,0.3,0,0.3,0.2
				c0,0.2,0,0.3,0,0.5c0,0.5,0,1.2,0,1.8c-0.8-0.6-2.4-1.2-3.3-0.4c-0.4,0.4-0.5,0.9-0.3,1.4c0.2,0.5,0.6,0.7,1,1
				c0.9,0.5,1.8,1,2.5,1.9S335,345.7,334.6,346.7z"/>
			<path fill="#2073B7" d="M350.3,340.6c-0.2,0-0.4,0-0.5,0.1c-0.7-1.9-2.3-3.5-4.3-4.3c0-0.2,0.1-0.4,0.1-0.5
				c0-1.5-1.3-2.8-2.8-2.8c-0.5,0-0.9,0.1-1.4,0.4v5c0.4,0.2,0.8,0.4,1.4,0.4c0.8,0,1.5-0.4,2.1-0.9c1.6,0.6,2.9,1.9,3.5,3.6
				c-0.5,0.5-0.9,1.3-0.9,2.1s0.4,1.5,0.9,2.1c-0.6,1.6-1.9,3-3.5,3.6c-0.5-0.5-1.3-0.9-2.1-0.9c-0.5,0-0.9,0.1-1.4,0.4v5
				c0.4,0.2,0.8,0.4,1.4,0.4c1.5,0,2.8-1.3,2.8-2.8c0-0.2,0-0.4-0.1-0.5c1.9-0.8,3.5-2.3,4.2-4.3c0.2,0,0.4,0.1,0.5,0.1
				c1.5,0,2.8-1.3,2.8-2.8C353.1,341.9,351.9,340.6,350.3,340.6z"/>
		</g>
	</g>
</g>
</svg>
