<?xml version="1.0" encoding="utf-8"?>
<!-- Generator: Adobe Illustrator 19.1.0, SVG Export Plug-In . SVG Version: 6.00 Build 0)  -->
<!DOCTYPE svg PUBLIC "-//W3C//DTD SVG 1.1//EN" "http://www.w3.org/Graphics/SVG/1.1/DTD/svg11.dtd">
<svg version="1.1" xmlns="http://www.w3.org/2000/svg" xmlns:xlink="http://www.w3.org/1999/xlink" x="0px" y="0px"
	 viewBox="0 0 648 648" enable-background="new 0 0 648 648" xml:space="preserve">
<g id="Layer_1">
</g>
<g id="Isolation_Mode">
	<g>
		<path fill="#FFFFFF" d="M344.7,324.7h-13c-0.5-0.7-1.2-1.2-2.3-1.2h-2.3V316h-8v7.5H317l-0.2,0c-0.8,0.1-1.6,0.5-2.1,1.2h-13v6.8
			h13c0.5,0.7,1.2,1.3,2.3,1.3h12.5c1,0,1.8-0.5,2.3-1.3h13V324.7z"/>
		<g>
			<rect x="303.2" y="326.2" fill="#515150" width="11.3" height="3.8"/>
			<path fill="#515150" d="M329.5,325h-3.8v-7.5h-5v7.5H317c0,0-1.3,0.2-1.3,1.2v3.7c0,0,0.2,1.2,1.3,1.2h12.5
				c1.1,0,1.3-1.2,1.3-1.2v-3.7C330.7,326.2,330.6,325,329.5,325z"/>
			<rect x="332" y="326.2" fill="#515150" width="11.3" height="3.8"/>
		</g>
	</g>
</g>
</svg>
