<?xml version="1.0" encoding="utf-8"?>
<!-- Generator: Adobe Illustrator 18.1.0, SVG Export Plug-In . SVG Version: 6.00 Build 0)  -->
<!DOCTYPE svg PUBLIC "-//W3C//DTD SVG 1.1//EN" "http://www.w3.org/Graphics/SVG/1.1/DTD/svg11.dtd">
<svg version="1.1" xmlns="http://www.w3.org/2000/svg" xmlns:xlink="http://www.w3.org/1999/xlink" x="0px" y="0px"
	 viewBox="0 0 648 648" enable-background="new 0 0 648 648" xml:space="preserve">
<g id="Layer_1">
</g>
<g id="Completed_Icons">
	<path fill="#FFFFFF" d="M307.8,341.3c-1.7,0-2.7-1.4-2.7-2.7v-26.5c0-1.3,1-2.4,2.3-2.5c0,0,0.1,0,0.2,0h34.2
		c1.4,0,2.5,1.1,2.5,2.5v26.6c0,1.4-1.1,2.5-2.5,2.5L307.8,341.3z"/>
	<path fill="#515150" d="M332.2,332.2v-4.5h4.5v4.5H332.2z M326.2,332.2v-4.5h4.5v4.5H326.2z M332.2,326.2v-4.5h4.5v4.5H332.2z
		 M312.6,332.2v-10.6h10.6v10.6H312.6z M326.2,326.2v-4.5h4.5v4.5H326.2z M339.8,317.1h-30.2v19.6h30.2V317.1z M341.8,339.8
		c0,0-33,0-34,0c-1.2,0-1.2-1.2-1.2-1.2v-26.5c0-0.5,0.4-1,0.9-1c0,0,0.1,0,0.1,0h34.2c0.6,0,1,0.5,1,1v26.6
		C342.8,339.3,342.4,339.8,341.8,339.8z"/>
</g>
</svg>
