<?xml version="1.0" encoding="utf-8"?>
<!-- Generator: Adobe Illustrator 18.1.0, SVG Export Plug-In . SVG Version: 6.00 Build 0)  -->
<!DOCTYPE svg PUBLIC "-//W3C//DTD SVG 1.1//EN" "http://www.w3.org/Graphics/SVG/1.1/DTD/svg11.dtd">
<svg version="1.1" xmlns="http://www.w3.org/2000/svg" xmlns:xlink="http://www.w3.org/1999/xlink" x="0px" y="0px"
	 viewBox="0 0 648 648" enable-background="new 0 0 648 648" xml:space="preserve">
<g id="Layer_1">
</g>
<g id="Completed_Icons">
	<path fill="#FFFFFF" d="M319.5,345c-8.5,0-14.7-3-14.7-7.2V313c0-4.1,6.2-7.2,14.8-7.2c8.4,0,14.8,3.2,14.8,7.4v11.7h3l8,8l0.1,2.5
		l-8.1,8.1h-8.7C326,344.5,322.9,345,319.5,345z"/>
	<g>
		<path fill="#515150" d="M332.8,337.9h-13.6v-7.2h13.6v-0.1l-5.9-5.9h5.9v-11.4c0-3-5.3-5.9-13.3-5.9c-7.9,0-13.3,2.7-13.3,5.7
			v24.8c0,3,5.3,5.7,13.2,5.7c3.9,0,7.1-0.6,9.5-1.6l3.9-3.9C332.8,337.9,332.8,337.9,332.8,337.9z M309.3,314.2
			c0-2.2,5-4.5,10.3-4.5c5.3,0,10.2,2.3,10.2,4.5c0,2.2-4.9,3.9-10.2,3.9C314.3,318.2,309.3,316.4,309.3,314.2z"/>
		<polygon fill="#515150" points="337.3,336 331.3,342.1 336.7,342.1 343.9,334.8 343.9,333.6 336.7,326.4 331.3,326.4 337.3,332.4 
			321,332.4 321,336 337.3,336 		"/>
	</g>
</g>
</svg>
