<?xml version="1.0" encoding="utf-8"?>
<!-- Generator: Adobe Illustrator 18.1.0, SVG Export Plug-In . SVG Version: 6.00 Build 0)  -->
<!DOCTYPE svg PUBLIC "-//W3C//DTD SVG 1.1//EN" "http://www.w3.org/Graphics/SVG/1.1/DTD/svg11.dtd">
<svg version="1.1" xmlns="http://www.w3.org/2000/svg" xmlns:xlink="http://www.w3.org/1999/xlink" x="0px" y="0px"
	 viewBox="0 0 648 648" enable-background="new 0 0 648 648" xml:space="preserve">
<g id="Layer_1">
</g>
<g id="Completed_Icons">
	<g>
		<path fill="#FFFFFF" d="M343.3,341.7h-37v-33h37V341.7z"/>
	</g>
	<g>
		<path fill-rule="evenodd" clip-rule="evenodd" fill="#515150" d="M307.8,310.2v30h34v-30H307.8z M333.8,311.2h2v2h-2V311.2z
			 M329.8,311.2h2v2h-2V311.2z M339.8,338.2h-30v-24h30V338.2z M339.8,313.2h-2v-2h2V313.2z"/>
		<rect x="313.8" y="318.2" fill-rule="evenodd" clip-rule="evenodd" fill="#515150" width="6" height="6"/>
		<rect x="313.8" y="326.2" fill-rule="evenodd" clip-rule="evenodd" fill="#515150" width="6" height="6"/>
		<rect x="321.8" y="318.2" fill-rule="evenodd" clip-rule="evenodd" fill="#515150" width="6" height="6"/>
		<rect x="321.8" y="326.2" fill-rule="evenodd" clip-rule="evenodd" fill="#515150" width="6" height="6"/>
		<rect x="329.8" y="318.2" fill-rule="evenodd" clip-rule="evenodd" fill="#515150" width="6" height="6"/>
		<rect x="329.8" y="326.2" fill-rule="evenodd" clip-rule="evenodd" fill="#515150" width="6" height="6"/>
	</g>
</g>
</svg>
