<?xml version="1.0" encoding="utf-8"?>
<!-- Generator: Adobe Illustrator 18.1.0, SVG Export Plug-In . SVG Version: 6.00 Build 0)  -->
<!DOCTYPE svg PUBLIC "-//W3C//DTD SVG 1.1//EN" "http://www.w3.org/Graphics/SVG/1.1/DTD/svg11.dtd">
<svg version="1.1" xmlns="http://www.w3.org/2000/svg" xmlns:xlink="http://www.w3.org/1999/xlink" x="0px" y="0px"
	 viewBox="0 0 648 648" enable-background="new 0 0 648 648" xml:space="preserve">
<g id="Layer_1">
</g>
<g id="Completed_Icons">
	<path fill="#FFFFFF" d="M314.3,363.8h-23c-2.7,0-4.9-2.2-4.9-4.9v-46.8c0-2.7,2.2-4.9,4.9-4.9h7.9v-15.7c0-2.7,2.2-4.9,4.9-4.9
		h53.6c2.7,0,4.9,2.2,4.9,4.9v39.1c0,2.7-2.2,4.9-4.9,4.9h-38.5v23.4C319.2,361.6,317,363.8,314.3,363.8z"/>
	<g>
		<path fill="#515050" d="M314.3,351.2h-23v-35.7h6.9v-6.8h-6.9c-1.9,0-3.4,1.5-3.4,3.4v46.8c0,1.9,1.5,3.4,3.4,3.4h23
			c1.9,0,3.4-1.5,3.4-3.4v-22.3h-3.4V351.2z M305.8,357.2c0,0.5-0.3,0.9-0.9,0.9h-4.3c-0.5,0-0.9-0.3-0.9-0.9v-1.7
			c0-0.5,0.3-0.9,0.9-0.9h4.3c0.5,0,0.9,0.3,0.9,0.9V357.2z"/>
		<path fill="#515150" d="M357.7,288.1h-53.6c-1.9,0-3.4,1.5-3.4,3.4v39.1c0,1.9,1.5,3.4,3.4,3.4h53.6c1.9,0,3.4-1.5,3.4-3.4v-39.1
			C361.1,289.6,359.6,288.1,357.7,288.1z M350.9,290.6h2.6v2.6h-2.6V290.6z M345.8,290.6h2.6v2.6h-2.6V290.6z M358.6,330.6
			c0,0.5-0.3,0.9-0.9,0.9h-53.6c-0.5,0-0.9-0.3-0.9-0.9v-34h55.3V330.6z M358.6,293.2H356v-2.6h2.6V293.2z"/>
	</g>
</g>
</svg>
