<?xml version="1.0" encoding="utf-8"?>
<!-- Generator: Adobe Illustrator 18.1.0, SVG Export Plug-In . SVG Version: 6.00 Build 0)  -->
<!DOCTYPE svg PUBLIC "-//W3C//DTD SVG 1.1//EN" "http://www.w3.org/Graphics/SVG/1.1/DTD/svg11.dtd">
<svg version="1.1" xmlns="http://www.w3.org/2000/svg" xmlns:xlink="http://www.w3.org/1999/xlink" x="0px" y="0px"
	 viewBox="0 0 648 648" enable-background="new 0 0 648 648" xml:space="preserve">
<g id="Layer_1">
</g>
<g id="Completed_Icons">
	<g>
		<path fill="#FFFFFF" d="M354.4,347h-58.5c-2.8,0-5-2.2-5-5v-34.1c0-2.8,2.2-5,5-5h58.5c2.8,0,5,2.2,5,5V342
			C359.4,344.7,357.1,347,354.4,347z"/>
	</g>
	<g>
		<path fill="#525352" d="M354.4,304.4h-58.5c-1.9,0-3.5,1.6-3.5,3.5V342c0,1.9,1.6,3.5,3.5,3.5h58.5c1.9,0,3.5-1.6,3.5-3.5v-34.1
			C357.9,306,356.3,304.4,354.4,304.4z M327.1,343.7h-3.9V342h3.9V343.7z M353.5,341.1h-56.8v-32.3h56.8V341.1z"/>
		<path fill="#515150" d="M328.5,338.2C328.5,338.2,328.4,338.2,328.5,338.2c-0.8,0-1.5-0.5-1.8-1.2l-8.3-18.3l-5.5,12.4
			c-0.3,0.7-1,1.2-1.8,1.2h-11v-4h9.7l6.7-15.3c0.3-0.7,1-1.2,1.8-1.2h0c0.8,0,1.5,0.5,1.8,1.2l8.5,18.8l6-11c0.4-0.6,1-1,1.8-1
			h14.1v4h-12.9l-7.4,13.5C329.9,337.8,329.2,338.2,328.5,338.2z"/>
	</g>
</g>
</svg>
