<?xml version="1.0" encoding="utf-8"?>
<!-- Generator: Adobe Illustrator 18.1.0, SVG Export Plug-In . SVG Version: 6.00 Build 0)  -->
<!DOCTYPE svg PUBLIC "-//W3C//DTD SVG 1.1//EN" "http://www.w3.org/Graphics/SVG/1.1/DTD/svg11.dtd">
<svg version="1.1" xmlns="http://www.w3.org/2000/svg" xmlns:xlink="http://www.w3.org/1999/xlink" x="0px" y="0px"
	 viewBox="0 0 648 648" enable-background="new 0 0 648 648" xml:space="preserve">
<g id="Layer_1">
</g>
<g id="Completed_Icons">
	<path fill="#FFFFFF" d="M349.2,352h-21.6c-1.5,0-2.7-1.2-2.7-2.7v-14.9h-24.1c-2,0-3.1-1.6-3.1-3.1v-30.5c0-1.5,1.1-3.1,3.1-3.1
		h44.9c1.5,0,3.1,1.1,3.1,3.1v9.7h0.5c1.5,0,2.7,1.2,2.7,2.7v36.1C351.9,350.8,350.7,352,349.2,352z"/>
	<path fill-rule="evenodd" clip-rule="evenodd" fill="#515150" d="M349.2,350.5h-21.6c-0.6,0-1.2-0.5-1.2-1.2v-36.1
		c0-0.7,0.6-1.2,1.2-1.2h21.6c0.7,0,1.2,0.5,1.2,1.2v36.1C350.4,350,349.9,350.5,349.2,350.5L349.2,350.5z M336,347.3h4.8v-1.6H336
		V347.3L336,347.3z M347.2,315.2h-17.6v27.2h17.6V315.2L347.2,315.2z M344,302.4h-41.7V328h22.4v4.8h-24c-1.6,0-1.6-1.6-1.6-1.6
		v-30.5c0,0,0-1.6,1.6-1.6h44.9c0,0,1.6,0,1.6,1.6v9.6H344V302.4L344,302.4z"/>
</g>
</svg>
