<?xml version="1.0" encoding="utf-8"?>
<!-- Generator: Adobe Illustrator 18.1.0, SVG Export Plug-In . SVG Version: 6.00 Build 0)  -->
<!DOCTYPE svg PUBLIC "-//W3C//DTD SVG 1.1//EN" "http://www.w3.org/Graphics/SVG/1.1/DTD/svg11.dtd">
<svg version="1.1" xmlns="http://www.w3.org/2000/svg" xmlns:xlink="http://www.w3.org/1999/xlink" x="0px" y="0px"
	 viewBox="0 0 648 648" enable-background="new 0 0 648 648" xml:space="preserve">
<g id="Layer_1">
</g>
<g id="Completed_Icons">
	<path fill="#FFFFFF" d="M350.1,301.9h-12.7c-3.3-6.7-10.2-11.3-18.2-11.3c-0.2,0-0.4,0-0.7,0l-1.7,0.1v2l-0.7-0.1
		c-0.1,0-0.7-0.1-1.6-0.1c-2.8,0-8,0.6-11.8,4.4c-2.7,2.7-4.1,6.6-4.3,11.4h-6.1L303,321l0,0l0.2,0.2l-1.2,0.7l1,1.3
		c3.9,5.2,9.8,8.2,16.3,8.2c0.9,0,1.7-0.1,2.6-0.2v20.5c0,3.5,2.8,7.4,6.5,7.4h21.8c3.7,0,6.5-3.9,6.5-7.4v-43.3
		C356.6,304.8,353.7,301.9,350.1,301.9z"/>
	<g>
		<path fill="#515150" d="M349.7,303.4h-12.3c0.3,0.8,0.5,1.6,0.7,2.4h2.2v1.3h-1.9c0.2,1,0.3,2,0.3,3.1h9.6v18.7v0.1v19.5h-19.1
			v-20.3c-1.9,1.2-4,2.1-6.3,2.7v20.8c0,2.7,2.2,5.9,5,5.9h13.1h0.8h7.9c2.7,0,5-3.2,5-5.9V329v-0.1v-20.5
			C354.7,305.6,352.5,303.4,349.7,303.4z M341.9,354.3h-6.1v-1.5h6.1V354.3z"/>
		<path fill="#515150" d="M318.9,292.1c-0.3,0-0.6,0-0.9,0v4.7c0.3,0,0.6,0,0.9,0c7.8,0,14.1,6.3,14.1,14.1
			c0,7.8-6.3,14.1-14.1,14.1c-4.5,0-8.5-2.1-11.1-5.4l-4,2.5c3.4,4.6,8.9,7.6,15.1,7.6c10.4,0,18.9-8.5,18.9-18.9
			C337.7,300.6,329.3,292.1,318.9,292.1z"/>
		<path fill="#515150" d="M315.6,294.1c0,0-16.3-2-16,15.8h-4.3l7.4,8.7l8.1-8.7h-5.3C305.5,310,303.7,300.4,315.6,294.1z"/>
		<polygon fill="#515150" points="325.6,321.1 315.6,314.5 315.6,303.2 320.4,303.2 320.4,312 328.2,317.2 		"/>
	</g>
</g>
</svg>
