<?xml version="1.0" encoding="utf-8"?>
<!-- Generator: Adobe Illustrator 18.1.0, SVG Export Plug-In . SVG Version: 6.00 Build 0)  -->
<!DOCTYPE svg PUBLIC "-//W3C//DTD SVG 1.1//EN" "http://www.w3.org/Graphics/SVG/1.1/DTD/svg11.dtd">
<svg version="1.1" xmlns="http://www.w3.org/2000/svg" xmlns:xlink="http://www.w3.org/1999/xlink" x="0px" y="0px"
	 viewBox="0 0 648 648" enable-background="new 0 0 648 648" xml:space="preserve">
<g id="Layer_1">
</g>
<g id="Completed_Icons">
	<path fill="#FFFFFF" d="M324.5,346.2L324,346c-5.5-1.9-19.9-11.8-19.9-34.7c0-2.2,1.4-3,2.6-3c0.5,0,0.9,0.1,1.2,0.2l0.2,0.1
		c0.5,0.2,0.9,0.4,1.3,0.6c1.2,0.6,2,1,4.2,1c2.9,0,4.7-1.8,6.3-3.5c1.4-1.4,2.8-2.8,4.7-2.8c1.9,0,3,1.3,4.1,2.7
		c1.4,1.8,2.9,3.6,6.9,3.6c2.2,0,2.9-0.4,4.2-1.1c0.4-0.2,0.8-0.4,1.2-0.6c0.2-0.1,0.8-0.3,1.4-0.3c1.1,0,2.5,0.8,2.5,3.1
		c0,22.8-14.4,32.8-19.9,34.7L324.5,346.2z"/>
	<path fill="#515150" d="M341.7,309.9c-2.1,1-2.9,1.8-6.1,1.8c-7.7,0-7.9-6.3-11-6.3c-3.1,0-4.9,6.3-11,6.3c-3.3,0-4-0.8-6.1-1.8
		c0,0-1.8-0.9-1.8,1.4c0,24.3,16,32.3,18.9,33.3c2.7-1,18.9-9.2,18.9-33.3C343.4,309.1,341.9,309.8,341.7,309.9z M337,317.8
		l-14.7,19l-9.4-10.2l-0.8-0.9c-0.2-0.2-0.2-0.6,0-0.8l2.4-2.3c0.1-0.1,0.3-0.2,0.4-0.2c0.2,0,0.3,0.1,0.4,0.2l6.6,7.2l11.4-14.8
		c0.1-0.1,0.3-0.2,0.5-0.2c0.1,0,0.3,0,0.4,0.1l2.6,2c0.1,0.1,0.2,0.2,0.2,0.4C337.2,317.5,337.1,317.7,337,317.8z"/>
</g>
</svg>
