<?xml version="1.0" encoding="utf-8"?>
<!-- Generator: Adobe Illustrator 18.1.0, SVG Export Plug-In . SVG Version: 6.00 Build 0)  -->
<!DOCTYPE svg PUBLIC "-//W3C//DTD SVG 1.1//EN" "http://www.w3.org/Graphics/SVG/1.1/DTD/svg11.dtd">
<svg version="1.1" xmlns="http://www.w3.org/2000/svg" xmlns:xlink="http://www.w3.org/1999/xlink" x="0px" y="0px"
	 viewBox="0 0 648 648" enable-background="new 0 0 648 648" xml:space="preserve">
<g id="Layer_1">
</g>
<g id="Isolation_Mode">
	<path fill="#FFFFFF" d="M333.8,339c-0.5-0.7-1.2-1.2-2.3-1.2h-2.3v-5.9c0.2,0.1,0.5,0.1,0.8,0.1h6.9c1.3,0,2.4-1,2.4-2.4V323
		c0-1.3-0.9-2.1-1.9-3c-0.6-0.5-1.4-1.2-2.3-1.8c0.4-0.1,0.7-0.2,0.9-0.5c0,0,2.3-2.4,2.5-2.7c0.2-0.3,0.8-0.8,0.8-1.8v-6.9
		c0-1.3-1-2.4-2.4-2.4h-6.6c-1.3,0-2.1,0.9-3,1.9c-0.5,0.6-1.2,1.4-1.8,2.3c-0.1-0.3-0.2-0.7-0.5-0.9c0,0-2.4-2.3-2.7-2.5
		c-0.3-0.2-0.8-0.8-1.8-0.8h-6.9c-1.3,0-2.4,1-2.4,2.4v6.6c0,1.3,0.9,2.1,1.9,3c0.6,0.5,1.4,1.2,2.3,1.8c-0.4,0.1-0.7,0.2-0.9,0.5
		c0,0-2.3,2.4-2.5,2.7c-0.2,0.3-0.8,0.8-0.8,1.8v6.9c0,1.3,1,2.4,2.4,2.4h6.6c0.4,0,0.7-0.1,1-0.2v6h-2.3l-0.2,0
		c-0.8,0.1-1.6,0.5-2.1,1.2h-13v6.8h13c0.5,0.7,1.2,1.3,2.3,1.3h12.5c1,0,1.8-0.5,2.3-1.3h13V339H333.8z"/>
</g>
<g id="Completed_Icons">
	<g id="exchange_copy_2_4_">
		<g>
			<path fill="#515150" d="M331.6,339.2h-3.8v-7.5h-5v7.5h-3.8c0,0-1.3,0.2-1.3,1.2v3.7c0,0,0.2,1.2,1.3,1.2h12.5
				c1.1,0,1.3-1.2,1.3-1.2v-3.7C332.8,340.5,332.7,339.2,331.6,339.2z M305.3,344.2h11.3v-3.8h-11.3V344.2z M334.1,340.5v3.8h11.3
				v-3.8H334.1z M314.2,314.8c1.6,1.4,4.3,3.4,6.3,4.6c0.9,0.5,1.9,1,2,1.1c0.1,0,0.2-0.1,0.3-0.1l0.3-0.3c0,0,0.1-0.2,0-0.3
				c0,0-6.1-6-6.7-6.7c-0.1-0.1-0.1-0.5-0.1-0.7v-3.1c0-0.2,0.1-0.3,0.3-0.3h4.2c0.1,0,0.4,0,0.4,0.1l1.4,1.4c0.1,0.1,0.2,0.1,0.3,0
				l1.1-1.6c0.1-0.1,0.1-0.4,0-0.4c0,0-2.4-2.3-2.6-2.5c-0.2-0.2-0.4-0.4-0.8-0.4h-6.9c-0.5,0-0.9,0.3-0.9,0.9v6.6
				C312.8,313.5,313.3,314,314.2,314.8z M322.8,315.2c0,0.1,0.1,0.2,0.1,0.3l0.3,0.3c0,0,0.2,0.1,0.3,0c0,0,6-6.1,6.7-6.7
				c0.1-0.1,0.5-0.1,0.7-0.1h3.1c0.2,0,0.3,0.1,0.3,0.3v4.2c0,0.1,0,0.4-0.1,0.4l-1.4,1.4c-0.1,0.1-0.1,0.2,0,0.3l1.6,1.1
				c0.1,0.1,0.4,0.1,0.4,0c0,0,2.3-2.4,2.5-2.6c0.2-0.2,0.4-0.4,0.4-0.8v-6.9c0-0.5-0.3-0.9-0.9-0.9h-6.6c-0.6,0-1,0.4-1.9,1.4
				c-1.4,1.6-3.4,4.3-4.6,6.3C323.4,314.1,322.9,315.1,322.8,315.2z M329.3,330.1c0.2,0.2,0.4,0.4,0.8,0.4h6.9
				c0.5,0,0.9-0.3,0.9-0.9V323c0-0.6-0.4-1-1.4-1.9c-1.6-1.4-4.3-3.4-6.3-4.6c-0.9-0.5-1.9-1-2-1.1c-0.1,0-0.2,0.1-0.3,0.1l-0.3,0.3
				c0,0-0.1,0.2,0,0.3c0,0,6.1,6,6.7,6.7c0.1,0.1,0.1,0.5,0.1,0.7v3.1c0,0.2-0.1,0.3-0.3,0.3h-4.2c-0.1,0-0.4,0-0.4-0.1l-1.4-1.4
				c-0.1-0.1-0.2-0.1-0.3,0l-1.1,1.6c-0.1,0.1-0.1,0.4,0,0.4C326.6,327.6,329.1,329.9,329.3,330.1z M316.4,322.1l1.4-1.4
				c0.1-0.1,0.1-0.2,0-0.3l-1.6-1.1c-0.1-0.1-0.4-0.1-0.4,0c0,0-2.3,2.4-2.5,2.6c-0.2,0.2-0.4,0.4-0.4,0.8v6.9
				c0,0.5,0.3,0.9,0.9,0.9h6.6c0.6,0,1-0.4,1.9-1.4c1.4-1.6,3.4-4.3,4.6-6.3c0.5-0.9,1-1.9,1.1-2c0-0.1-0.1-0.2-0.1-0.3l-0.3-0.3
				c0,0-0.2-0.1-0.3,0c0,0-6,6.1-6.7,6.7c-0.1,0.1-0.5,0.1-0.7,0.1h-3.1c-0.2,0-0.3-0.1-0.3-0.3v-4.2
				C316.3,322.5,316.3,322.2,316.4,322.1z"/>
		</g>
	</g>
</g>
</svg>
