<?xml version="1.0" encoding="utf-8"?>
<!-- Generator: Adobe Illustrator 18.1.0, SVG Export Plug-In . SVG Version: 6.00 Build 0)  -->
<!DOCTYPE svg PUBLIC "-//W3C//DTD SVG 1.1//EN" "http://www.w3.org/Graphics/SVG/1.1/DTD/svg11.dtd">
<svg version="1.1" xmlns="http://www.w3.org/2000/svg" xmlns:xlink="http://www.w3.org/1999/xlink" x="0px" y="0px"
	 viewBox="0 0 648 648" enable-background="new 0 0 648 648" xml:space="preserve">
<g id="Layer_1">
</g>
<g id="Completed_Icons">
	<path fill="#FFFFFF" d="M342.9,352.2h-30.1l0.1-1.6c0-0.8-0.3-1.9-0.6-2.6h-15.4l0.1-1.6c0.1-2.2,0.6-6.7,1.1-8.8
		c0.5-2.1,1.1-4.1,3.4-5.3c1.5-0.7,2.4-1.1,3.1-1.2l0.4-1.7c-0.8-1.3-1.3-2.8-1.3-4.4c0-2.7,1.3-5.1,3.4-6.6v-15.8
		c0-3.6,2.9-4.9,4.9-4.9H349c2,0,4.9,1.3,4.9,4.9v23.6c0,3.6-2.9,4.9-4.9,4.9h-13.8c-0.1,0.2-0.2,0.3-0.2,0.5l1.3,3.4
		c0.5,0.2,1.1,0.5,1.8,0.8c2.5,1.2,3.1,3.2,3.6,5.5c0.5,2.2,1,6.9,1.1,9.2L342.9,352.2z"/>
	<g>
		<path fill="#515150" d="M349,299.3h-37.1c0,0-3.4,0-3.4,3.4V317h2.5v-15.1h38.7v23.6h-14.6v4.2h2H349c0,0,3.4,0,3.4-3.4v-23.6
			C352.3,299.3,349,299.3,349,299.3z"/>
		<g>
			<path fill="#515150" d="M314.3,350.7c0.1-2.3,0.7-6.9,1.1-9c0.5-2.4,1.1-3.6,2.8-4.5c1.7-0.9,2.6-1.2,3.2-1.2
				c0.6,0,0.9,0.3,1.2,0.6c0.1,0,0.1,0.1,0.2,0.1c1.7,1.4,3.3,1.8,4.9,1.8c1.7,0,3.3-0.3,4.9-1.8c0.1,0,0.1-0.1,0.2-0.1
				c0.4-0.3,0.7-0.6,1.2-0.6c0.6,0,1.5,0.3,3.2,1.2c1.7,0.9,2.3,2.1,2.8,4.5c0.5,2.1,1,6.8,1.1,9H314.3L314.3,350.7z M327.8,334.7
				c-3.7,0-6.7-3.4-6.7-7.6c0-4.2,3-7.6,6.7-7.6c3.7,0,6.7,3.4,6.7,7.6C334.5,331.4,331.5,334.7,327.8,334.7L327.8,334.7z"/>
			<g>
				<path fill="#515150" d="M316.7,335.7c2-1,3.1-1.4,4-1.4c0.1,0,0.2,0,0.3,0c-0.3-0.2-0.6-0.5-1-0.6c-1.6-0.8-2.5-1.1-3-1.1
					c-0.5,0-0.8,0.3-1.2,0.6c0,0-0.1,0.1-0.1,0.1c-1.6,1.4-3.1,1.6-4.6,1.6c-1.5,0-3.1-0.3-4.6-1.6c-0.1,0-0.1-0.1-0.1-0.1
					c-0.4-0.3-0.6-0.6-1.2-0.6c-0.6,0-1.4,0.3-3,1.1c-1.6,0.8-2.1,2-2.6,4.3c-0.4,2-0.9,6.4-1,8.5h13.9c0.2-1.9,0.5-3.9,0.8-5.2
					C313.5,339.1,314.2,337,316.7,335.7z"/>
				<path fill="#515150" d="M311,331.4c3.3,0,5.9-2.8,5.9-6.3c0-3.5-2.6-6.3-5.9-6.3c-3.3,0-5.9,2.8-5.9,6.3
					C305.1,328.6,307.8,331.4,311,331.4z"/>
			</g>
		</g>
	</g>
</g>
</svg>
