<?xml version="1.0" encoding="utf-8"?>
<!-- Generator: Adobe Illustrator 18.1.0, SVG Export Plug-In . SVG Version: 6.00 Build 0)  -->
<!DOCTYPE svg PUBLIC "-//W3C//DTD SVG 1.1//EN" "http://www.w3.org/Graphics/SVG/1.1/DTD/svg11.dtd">
<svg version="1.1" xmlns="http://www.w3.org/2000/svg" xmlns:xlink="http://www.w3.org/1999/xlink" x="0px" y="0px"
	 viewBox="0 0 648 648" enable-background="new 0 0 648 648" xml:space="preserve">
<g id="Layer_1">
</g>
<g id="Completed_Icons">
	<path fill="#FFFFFF" d="M350.1,330.7c-0.9-0.9-2.1-1.5-3.3-1.8c-0.2-0.4-0.3-0.8-0.6-1.2h2.9l7.1-7.5l-7.1-7.5h2.4v-6h-11.4
		l4.5-4.5h-8l-6.9,7.3c0-1.7-1.4-2.6-2.7-2.6h-33.7c-1.8,0-2.7,1.4-2.7,2.7v22.8c0,1.3,0.9,2.7,2.7,2.7h17.7v10.8
		c0,1.3,1.1,2.4,2.4,2.4h14.9h1.3h19.1c4.7,0,8.5-4,8.5-8.9C357.3,335,354.2,331.3,350.1,330.7z"/>
	<g>
		<path fill-rule="evenodd" clip-rule="evenodd" fill="#515150" d="M329.7,346.7h-16.2c-0.5,0-0.9-0.4-0.9-0.9v-27
			c0-0.5,0.4-0.9,0.9-0.9h16.2c0.5,0,0.9,0.4,0.9,0.9v27C330.6,346.3,330.2,346.7,329.7,346.7L329.7,346.7z M319.8,344.3h3.6v-1.2
			h-3.6V344.3L319.8,344.3z M328.2,320.3H315v20.4h13.2V320.3L328.2,320.3z M325.8,310.6h-31.3v19.2h16.8v3.6h-18
			c-1.2,0-1.2-1.2-1.2-1.2v-22.8c0,0,0-1.2,1.2-1.2H327c0,0,1.2,0,1.2,1.2v7.2h-2.4V310.6L325.8,310.6z"/>
		<g>
			<polygon fill="#515150" points="350,308.1 340.2,308.1 336.5,308.1 341,303.6 337.2,303.6 331.5,309.6 337.2,315.6 341,315.6 
				336.5,311.1 340.2,311.1 350,311.1 			"/>
		</g>
		<g>
			<polygon fill="#515150" points="335.7,321.6 345.5,321.6 349.2,321.6 344.7,326.1 348.5,326.1 354.2,320.1 348.5,314.1 
				344.7,314.1 349.2,318.6 345.5,318.6 335.7,318.6 			"/>
		</g>
		<path fill="#515150" d="M349.4,332.1c-1-1.1-2.3-1.8-3.8-2c-1-3.5-4-5.9-7.5-5.9c-2.3,0-4.3,1-5.8,2.8c-0.5-0.1-1.1-0.2-1.6-0.2
			c-0.3,0-0.6,0-0.9,0.1v2.2c0.3,0,0.6-0.1,0.9-0.1c0.6,0,1.2,0.1,1.7,0.3l0.8,0.3l0.5-0.7c1.1-1.6,2.7-2.5,4.5-2.5
			c2.7,0,5,2.1,5.5,4.9l0.2,0.9h0.9c1.2,0,2.5,0.6,3.3,1.6l0.3,0.4h0.5c2.6,0,4.7,2.3,4.7,5.1c0,2.8-2.2,5.2-4.8,5.2h-18.9v2.2h18.9
			c3.8,0,7-3.3,7-7.4C355.8,335.5,353,332.4,349.4,332.1z"/>
	</g>
</g>
</svg>
