<?xml version="1.0" encoding="utf-8"?>
<!-- Generator: Adobe Illustrator 18.1.0, SVG Export Plug-In . SVG Version: 6.00 Build 0)  -->
<!DOCTYPE svg PUBLIC "-//W3C//DTD SVG 1.1//EN" "http://www.w3.org/Graphics/SVG/1.1/DTD/svg11.dtd">
<svg version="1.1" xmlns="http://www.w3.org/2000/svg" xmlns:xlink="http://www.w3.org/1999/xlink" x="0px" y="0px"
	 viewBox="0 0 648 648" enable-background="new 0 0 648 648" xml:space="preserve">
<g id="Layer_1">
</g>
<g id="Completed_Icons">
	<path fill="#FFFFFF" d="M345.9,328.2L345.9,328.2l-1.4,0v-36h-49.1V350h27.3l0,1.5h0l0,5.4h8.1l0.2,0c5-1.2,9.5-3.8,13.1-7.4
		c1.9-1.9,3.5-4.1,4.8-6.4c2.2-4.1,3.4-8.7,3.5-13.4l0-1.5L345.9,328.2z"/>
	<g>
		<g>
			<polygon fill="#515150" points="299.1,346.3 299.1,295.9 340.7,295.9 340.7,327.7 343,327.7 343,293.7 296.9,293.7 296.9,348.5 
				321.5,348.5 321.5,346.3 			"/>
		</g>
		<g>
			<rect x="308.2" y="302" fill="#515150" width="23.6" height="2.6"/>
			<rect x="308.2" y="308.3" fill="#515150" width="23.6" height="2.6"/>
			<rect x="308.2" y="314.5" fill="#515150" width="23.6" height="2.6"/>
		</g>
		<path fill="#515150" d="M330,335.4c-1.6,1.6-3.8,2.4-5.9,2.4l0,3.7c3.1,0,6.2-1.2,8.5-3.5c2.3-2.3,3.5-5.4,3.5-8.4l-3.7,0
			C332.5,331.7,331.6,333.8,330,335.4z"/>
		<path fill="#515150" d="M335.2,340.6c-3.1,3-7.1,4.6-11.1,4.6l0,3.7c4.9,0,9.9-1.9,13.6-5.6c3.7-3.7,5.6-8.6,5.7-13.5l-3.7,0
			C339.8,333.6,338.2,337.6,335.2,340.6z"/>
		<path fill="#515150" d="M347.6,329.7l-0.4,0c0,5.9-2.3,11.7-6.8,16.2c-4.5,4.5-10.4,6.7-16.3,6.7l0,2.9h6.5
			c4.5-1.1,8.9-3.5,12.4-7c1.9-1.9,3.4-3.9,4.6-6.1c2.1-3.9,3.2-8.3,3.3-12.6L347.6,329.7z"/>
		<path fill="#515150" d="M327.4,328c-0.1-0.1-0.3-0.2-0.4-0.4c-1.2-0.9-2.9-0.9-4.1,0c-0.1,0.1-0.3,0.2-0.4,0.3
			c-0.5,0.5-0.8,1.1-1,1.8v1.3c0.1,0.7,0.4,1.3,1,1.8c1.4,1.4,3.6,1.4,4.9,0C328.8,331.6,328.8,329.4,327.4,328z"/>
	</g>
</g>
</svg>
