<?xml version="1.0" encoding="utf-8"?>
<!-- Generator: Adobe Illustrator 18.1.0, SVG Export Plug-In . SVG Version: 6.00 Build 0)  -->
<!DOCTYPE svg PUBLIC "-//W3C//DTD SVG 1.1//EN" "http://www.w3.org/Graphics/SVG/1.1/DTD/svg11.dtd">
<svg version="1.1" xmlns="http://www.w3.org/2000/svg" xmlns:xlink="http://www.w3.org/1999/xlink" x="0px" y="0px"
	 viewBox="0 0 648 648" enable-background="new 0 0 648 648" xml:space="preserve">
<g id="Layer_1">
</g>
<g id="Completed_Icons">
	<path fill="#FFFFFF" d="M353.6,329.2h-12.2V293h-49.1v57.9h27.2v3.8c0,1.7,1.4,3,3,3h31.1c1.7,0,3-1.4,3-3v-22.5
		C356.7,330.5,355.3,329.2,353.6,329.2z"/>
	<g>
		<g>
			<polygon fill="#515050" points="318.1,349.3 293.8,349.3 293.8,294.5 339.9,294.5 339.9,328.2 337.7,328.2 337.7,296.7 
				296.1,296.7 296.1,347.1 318.1,347.1 			"/>
		</g>
		<g>
			<rect x="305.1" y="302.8" fill="#515050" width="23.6" height="2.6"/>
			<rect x="305.1" y="309.1" fill="#515050" width="23.6" height="2.6"/>
			<rect x="305.1" y="315.3" fill="#515050" width="23.6" height="2.6"/>
		</g>
		<path fill="#515050" d="M353.6,330.7h-31.1c-0.8,0-1.5,0.7-1.5,1.5v22.5c0,0.8,0.7,1.5,1.5,1.5h31.1c0.8,0,1.5-0.7,1.5-1.5v-22.5
			C355.2,331.3,354.5,330.7,353.6,330.7z M352.1,333.7v2.2l-14.2,9.5l-13.8-9.5v-2.2H352.1z M324.1,353.1v-13.5l12.9,8.9
			c0.3,0.2,0.6,0.3,0.9,0.3c0.3,0,0.6-0.1,0.8-0.3l13.4-8.9v13.6H324.1z"/>
	</g>
</g>
</svg>
