<?xml version="1.0" encoding="utf-8"?>
<!-- Generator: Adobe Illustrator 18.1.0, SVG Export Plug-In . SVG Version: 6.00 Build 0)  -->
<!DOCTYPE svg PUBLIC "-//W3C//DTD SVG 1.1//EN" "http://www.w3.org/Graphics/SVG/1.1/DTD/svg11.dtd">
<svg version="1.1" xmlns="http://www.w3.org/2000/svg" xmlns:xlink="http://www.w3.org/1999/xlink" x="0px" y="0px"
	 viewBox="0 0 648 648" enable-background="new 0 0 648 648" xml:space="preserve">
<g id="Layer_1">
</g>
<g id="Completed_Icons">
	<path fill="#FFFFFF" d="M344.6,343.7h-40c-2.2,0-4-1.8-4-4v-29.2c0-2.2,1.8-4,4-4h40c2.2,0,4,1.8,4,4v29.2
		C348.7,341.8,346.8,343.7,344.6,343.7z"/>
	<g>
		<g id="Rectangle_45_13_">
			<g>
				<path fill="#515150" d="M318.9,326.2v3.8h1.3v-3.8H318.9z M329,326.2v3.8h1.3v-3.8H329z M331.6,331.3h-3.8v-2.5h-6.3v2.5h-3.8
					v-2.5h-5.1v6.3h24.1v-6.3h-5.1V331.3z M329,322.4v-3l-0.6-0.8h-7.6l-0.6,0.8v3h-7.6v5.1h5.1v-2.5h3.8v2.5h6.3v-2.5h3.8v2.5h5.1
					v-5.1H329z M327.8,322.4h-6.3l0-2.5h6.3L327.8,322.4z"/>
			</g>
		</g>
		<path fill="#515150" d="M344.6,307.8h-40c-1.4,0-2.5,1.1-2.5,2.5v29.2c0,1.4,1.1,2.5,2.5,2.5h40c1.4,0,2.5-1.1,2.5-2.5v-29.2
			C347.2,309,346,307.8,344.6,307.8z M339.5,309.7h1.9v1.9h-1.9V309.7z M335.7,309.7h1.9v1.9h-1.9V309.7z M345.3,339.6
			c0,0.4-0.3,0.6-0.6,0.6h-40c-0.4,0-0.6-0.3-0.6-0.6v-25.4h41.3V339.6z M345.3,311.7h-1.9v-1.9h1.9V311.7z"/>
	</g>
</g>
</svg>
