<?xml version="1.0" encoding="utf-8"?>
<!-- Generator: Adobe Illustrator 18.1.0, SVG Export Plug-In . SVG Version: 6.00 Build 0)  -->
<!DOCTYPE svg PUBLIC "-//W3C//DTD SVG 1.1//EN" "http://www.w3.org/Graphics/SVG/1.1/DTD/svg11.dtd">
<svg version="1.1" xmlns="http://www.w3.org/2000/svg" xmlns:xlink="http://www.w3.org/1999/xlink" x="0px" y="0px"
	 viewBox="0 0 648 648" enable-background="new 0 0 648 648" xml:space="preserve">
<g id="Layer_1">
</g>
<g id="Completed_Icons">
	<path fill="#FFFFFF" d="M348.9,295.5h-40.2c-2.2,0-4.1,1.8-4.1,4.1V311h-5.6c-2.2,0-4.1,1.8-4.1,4.1v35.1c0,2.2,1.8,4.1,4.1,4.1
		h17.2c2.2,0,4.1-1.8,4.1-4.1V333h28.5c2.2,0,4.1-1.8,4.1-4.1v-29.4C353,297.4,351.2,295.5,348.9,295.5z"/>
	<g>
		<g>
			<path fill="#515150" d="M316.4,344.4h-17.2v-26.8h5.1v-5.1h-5.1c-1.4,0-2.6,1.1-2.6,2.6v35.1c0,1.4,1.1,2.6,2.6,2.6h17.2
				c1.4,0,2.6-1.1,2.6-2.6v-16.7h-2.6V344.4z M310,348.9c0,0.4-0.3,0.6-0.6,0.6h-3.2c-0.4,0-0.6-0.3-0.6-0.6v-1.3
				c0-0.4,0.3-0.6,0.6-0.6h3.2c0.4,0,0.6,0.3,0.6,0.6V348.9z"/>
			<path fill="#515150" d="M348.9,297h-40.2c-1.4,0-2.6,1.1-2.6,2.6v29.4c0,1.4,1.1,2.6,2.6,2.6h40.2c1.4,0,2.6-1.1,2.6-2.6v-29.4
				C351.5,298.2,350.3,297,348.9,297z M343.8,299h1.9v1.9h-1.9V299z M340,299h1.9v1.9H340V299z M349.6,328.9c0,0.4-0.3,0.6-0.6,0.6
				h-40.2c-0.4,0-0.6-0.3-0.6-0.6v-25.5h41.5V328.9z M349.6,300.9h-1.9V299h1.9V300.9z"/>
		</g>
		<g id="Rectangle_45_17_">
			<g>
				<path fill="#515150" d="M323.1,316.3v3.8h1.3v-3.8H323.1z M333.3,316.3v3.8h1.3v-3.8H333.3z M335.8,321.4H332v-2.5h-6.3v2.5
					h-3.8v-2.5h-5.1v6.3h24.1v-6.3h-5.1V321.4z M333.3,312.5v-3l-0.6-0.8H325l-0.6,0.8v3h-7.6v5.1h5.1v-2.5h3.8v2.5h6.3v-2.5h3.8
					v2.5h5.1v-5.1H333.3z M332,312.5h-6.3l0-2.5h6.3L332,312.5z"/>
			</g>
		</g>
	</g>
</g>
</svg>
