<?xml version="1.0" encoding="utf-8"?>
<!-- Generator: Adobe Illustrator 18.1.0, SVG Export Plug-In . SVG Version: 6.00 Build 0)  -->
<!DOCTYPE svg PUBLIC "-//W3C//DTD SVG 1.1//EN" "http://www.w3.org/Graphics/SVG/1.1/DTD/svg11.dtd">
<svg version="1.1" xmlns="http://www.w3.org/2000/svg" xmlns:xlink="http://www.w3.org/1999/xlink" x="0px" y="0px"
	 viewBox="0 0 648 648" enable-background="new 0 0 648 648" xml:space="preserve">
<g id="Layer_1">
</g>
<g id="Completed_Icons">
	<path fill="#FFFFFF" d="M341.8,339.5c2.3-2.2,3.6-5.3,3.6-8.5c0-0.9-0.1-1.9-0.3-2.7v-35.6h-47.4v55.9H321l-2.6,4.9l7.7-1.3l4.8,5
		l3-10.6l3.8,10.4l4.4-6.1l8.9,2.1L341.8,339.5z"/>
	<g>
		<g>
			<path fill="#515150" d="M301.5,344.8v-48.4h39.9v24.9c0.9,0.7,1.6,1.5,2.3,2.4v-29.6h-44.4V347h22.1l1.2-2.3H301.5z"/>
		</g>
		<path fill="#515150" d="M344,331c0-5.7-4.6-10.4-10.4-10.4c-5.7,0-10.4,4.7-10.4,10.4c0,3.5,1.7,6.6,4.4,8.5l-6.3,12l5.4-0.9
			l3.5,3.7l3.5-12.6l4.4,12.2l3.4-4.6l6.1,1.4l-7.7-11.3C342.4,337.4,344,334.4,344,331z M333.6,339.4c-4.6,0-8.4-3.8-8.4-8.4
			c0-4.6,3.8-8.4,8.4-8.4s8.4,3.8,8.4,8.4C342,335.6,338.2,339.4,333.6,339.4z"/>
		<g>
			<path fill="#515150" d="M333.6,324.6c-3.5,0-6.4,2.9-6.4,6.4c0,3.5,2.9,6.4,6.4,6.4c3.5,0,6.4-2.9,6.4-6.4
				C339.9,327.5,337.1,324.6,333.6,324.6z M333.6,336c-2.8,0-5-2.3-5-5s2.3-5,5-5s5,2.3,5,5S336.4,336,333.6,336z"/>
		</g>
		<g>
			<rect x="310.1" y="302.2" fill="#515150" width="22.7" height="2.5"/>
			<rect x="310.1" y="308.3" fill="#515150" width="22.7" height="2.5"/>
			<rect x="310.1" y="314.3" fill="#515150" width="22.7" height="2.5"/>
		</g>
	</g>
</g>
</svg>
