<?xml version="1.0" encoding="utf-8"?>
<!-- Generator: Adobe Illustrator 18.1.0, SVG Export Plug-In . SVG Version: 6.00 Build 0)  -->
<!DOCTYPE svg PUBLIC "-//W3C//DTD SVG 1.1//EN" "http://www.w3.org/Graphics/SVG/1.1/DTD/svg11.dtd">
<svg version="1.1" xmlns="http://www.w3.org/2000/svg" xmlns:xlink="http://www.w3.org/1999/xlink" x="0px" y="0px"
	 viewBox="0 0 648 648" enable-background="new 0 0 648 648" xml:space="preserve">
<g id="Layer_1">
</g>
<g id="Completed_Icons">
	<path fill="#FFFFFF" d="M365.3,340l-2.4-1c0,0,0-0.1,0-0.1l0-2.3l0-0.1c0,0,0-0.1,0-0.1l2.4-1c0.6-0.2,1-0.7,1.3-1.3
		c0.2-0.6,0.2-1.2,0-1.8l-1.3-3.2c-0.4-0.9-1.2-1.5-2.2-1.5c-0.3,0-0.6,0.1-0.9,0.2l-2.4,1c0,0-0.1-0.1-0.1-0.1L358,327l-0.1-0.1
		c0,0-0.1-0.1-0.1-0.1l1-2.4c0.5-1.2-0.1-2.6-1.3-3.1l-1.8-0.7l-1.1-1.6c-0.9-1.4-2.1-2.6-3.5-3.5c0-0.2,0-0.5,0-0.7
		c0-8.5-6.5-15.4-14.5-15.4c-1.7,0-3.3,0.3-4.8,0.9c-2.8-4.3-7.4-7-12.3-7c-7.3,0-13.6,5.7-14.8,13.3c-0.1,0-0.3,0-0.4,0
		c-3.6,0-7,1.7-9.4,4.7h-0.1c-7.2,0.1-13.1,6.4-13.1,14c0,7.7,5.9,13.9,13.2,13.9h10.4v2.8h-2.3l-0.2,0c-0.8,0.1-1.6,0.5-2.1,1.2
		h-13v6.8h13c0.5,0.7,1.2,1.3,2.3,1.3h12.5c1,0,1.8-0.5,2.3-1.3h13v-6.8h-13c-0.5-0.7-1.2-1.2-2.3-1.2h-2.3v-2.8h21l-2.1,0.9
		c-0.6,0.2-1,0.7-1.3,1.3c-0.2,0.6-0.2,1.2,0,1.8l1.3,3.2c0.5,1.2,1.9,1.8,3.1,1.3l2.4-1c0,0,0.1,0.1,0.1,0.1l1.6,1.6l0.1,0.1
		c0,0,0.1,0.1,0.1,0.1l-1,2.4c-0.5,1.2,0.1,2.6,1.3,3.1l3.2,1.3c1.2,0.5,2.6-0.1,3.1-1.3l1-2.4c0,0,0.1,0,0.1,0
		c0.1,0,0.6,0.1,1.3,0.1c0.7,0,1.2-0.1,1.3-0.1c0,0,0.1,0,0.1,0l1,2.4c0.4,0.9,1.2,1.5,2.2,1.5c0.3,0,0.6-0.1,0.9-0.2l3.2-1.3
		c1.2-0.5,1.8-1.9,1.3-3.1l-1-2.4c0,0,0.1-0.1,0.1-0.1l1.6-1.6l0.1-0.1c0,0,0.1-0.1,0.1-0.1l2.4,1c0.3,0.1,0.6,0.2,0.9,0.2
		c1,0,1.8-0.6,2.2-1.5l1.3-3.2C367.1,341.9,366.5,340.5,365.3,340z"/>
	<g>
		<rect x="289.6" y="344.6" fill="#515150" width="11.3" height="3.8"/>
		<path fill="#515150" d="M315.8,343.4h-3.8v-7.5h-5v7.5h-3.8c0,0-1.3,0.2-1.3,1.2v3.7c0,0,0.2,1.2,1.3,1.2h12.5
			c1.1,0,1.3-1.2,1.3-1.2v-3.7C317.1,344.6,316.9,343.4,315.8,343.4z"/>
		<rect x="318.3" y="344.6" fill="#515150" width="11.3" height="3.8"/>
		<g>
			<g>
				<g>
					<path fill="#515150" d="M334.9,336.3l-2.4-1c-0.6-0.2-1-0.7-1.3-1.3c-0.2-0.6-0.2-1.2,0-1.8l1.3-3.2c0.5-1.2,1.9-1.8,3.1-1.3
						l2.4,1c0,0,0.1-0.1,0.1-0.1l0.1-0.1l1.6-1.6c0,0,0.1-0.1,0.1-0.1l-1-2.4c-0.2-0.6-0.2-1.2,0-1.8c0.2-0.6,0.7-1,1.3-1.3l3.2-1.3
						c0.3-0.1,0.6-0.2,0.9-0.2c1,0,1.8,0.6,2.2,1.5l1,2.4c0,0,0.1,0,0.1,0c0.1,0,0.5-0.1,1.3-0.1c0.7,0,1.2,0.1,1.3,0.1
						c0,0,0.1,0,0.1,0l1-2.4c0.4-0.9,1.3-1.5,2.2-1.4c-1-1.5-2.3-2.7-3.8-3.5c0.1-0.5,0.1-1,0.1-1.5c0-7.7-5.8-13.9-13-13.9
						c-1.9,0-3.7,0.4-5.4,1.3c-2.4-4.5-6.8-7.4-11.7-7.4c-7.2,0-13,6-13.5,13.5c-0.6-0.1-1.1-0.2-1.7-0.2c-3.4,0-6.6,1.8-8.6,4.7
						c-0.3,0-0.5,0-0.8,0c-6.4,0.1-11.6,5.7-11.6,12.5c0,6.8,5.2,12.4,11.7,12.4h39.7l0-1.2C334.9,336.4,334.9,336.3,334.9,336.3z"
						/>
				</g>
				<path fill="#515150" d="M364.8,341.4l-2.7-1.1c-0.4-0.2-0.8-0.4-0.8-0.5c0-0.1,0.1-0.6,0.1-1l0-2.2c0-0.5-0.1-0.9-0.1-1
					c0-0.1,0.3-0.3,0.8-0.5l2.7-1.1c0.4-0.2,0.7-0.7,0.5-1.1l-1.3-3.2c-0.2-0.4-0.7-0.7-1.1-0.5l-2.7,1.1c-0.4,0.2-0.8,0.3-0.9,0.2
					c-0.1-0.1-0.4-0.4-0.7-0.8L357,328c-0.4-0.3-0.7-0.6-0.8-0.7c-0.1-0.1,0-0.5,0.2-0.9l1.1-2.7c0.2-0.4,0-1-0.5-1.1l-3.2-1.3
					c-0.4-0.2-1,0-1.1,0.5l-1.1,2.7c-0.2,0.4-0.4,0.8-0.5,0.8c-0.1,0-0.6-0.1-1-0.1c0,0-0.5-0.1-1.1-0.1c-0.6,0-1.1,0.1-1.1,0.1
					c-0.5,0.1-0.9,0.1-1,0.1c-0.1,0-0.3-0.3-0.5-0.8l-1.1-2.7c-0.2-0.4-0.7-0.7-1.1-0.5l-3.2,1.3c-0.4,0.2-0.7,0.7-0.5,1.1l1.1,2.7
					c0.2,0.4,0.3,0.8,0.2,0.9c-0.1,0.1-0.4,0.4-0.8,0.7l-1.6,1.6c-0.3,0.4-0.6,0.7-0.7,0.8c-0.1,0.1-0.5,0-0.9-0.2l-2.7-1.1
					c-0.4-0.2-1,0-1.1,0.5l-1.3,3.2c-0.2,0.4,0,1,0.5,1.1l2.7,1.1c0.4,0.2,0.8,0.4,0.8,0.5c0,0.1-0.1,0.6-0.1,1l0,2.2
					c0,0.5,0.1,0.9,0.1,1c0,0.1-0.3,0.3-0.8,0.5l-2.7,1.1c-0.4,0.2-0.7,0.7-0.5,1.1l1.3,3.2c0.2,0.4,0.7,0.7,1.1,0.5l2.7-1.1
					c0.4-0.2,0.8-0.3,0.9-0.2c0.1,0.1,0.4,0.4,0.7,0.8l1.6,1.6c0.4,0.3,0.7,0.6,0.8,0.7c0.1,0.1,0,0.5-0.2,0.9l-1.1,2.7
					c-0.2,0.4,0,1,0.5,1.1l3.2,1.3c0.4,0.2,1,0,1.1-0.5l1.1-2.7c0.2-0.4,0.4-0.8,0.5-0.8c0.1,0,0.6,0.1,1,0.1c0,0,0.5,0.1,1.1,0.1
					c0.6,0,1.1-0.1,1.1-0.1c0.5-0.1,0.9-0.1,1-0.1c0.1,0,0.3,0.3,0.5,0.8l1.1,2.7c0.2,0.4,0.7,0.7,1.1,0.5l3.2-1.3
					c0.4-0.2,0.7-0.7,0.5-1.1l-1.1-2.7c-0.2-0.4-0.3-0.8-0.2-0.9c0.1-0.1,0.4-0.4,0.8-0.7l1.6-1.6c0.3-0.4,0.6-0.7,0.7-0.8
					c0.1-0.1,0.5,0,0.9,0.2l2.7,1.1c0.4,0.2,1,0,1.1-0.5l1.3-3.2C365.4,342.1,365.2,341.5,364.8,341.4z M348.9,346.3
					c-4.8,0-8.7-3.9-8.7-8.7c0-4.8,3.9-8.7,8.7-8.7c4.8,0,8.7,3.9,8.7,8.7C357.6,342.4,353.7,346.3,348.9,346.3z"/>
			</g>
		</g>
	</g>
</g>
</svg>
