<?xml version="1.0" encoding="utf-8"?>
<!-- Generator: Adobe Illustrator 18.1.0, SVG Export Plug-In . SVG Version: 6.00 Build 0)  -->
<!DOCTYPE svg PUBLIC "-//W3C//DTD SVG 1.1//EN" "http://www.w3.org/Graphics/SVG/1.1/DTD/svg11.dtd">
<svg version="1.1" xmlns="http://www.w3.org/2000/svg" xmlns:xlink="http://www.w3.org/1999/xlink" x="0px" y="0px"
	 viewBox="0 0 648 648" enable-background="new 0 0 648 648" xml:space="preserve">
<g id="Layer_1">
</g>
<g id="Completed_Icons">
	<path fill="#FFFFFF" d="M345.5,333.2v-3.1c0-2.2-0.8-4.3-2-5.9v-27.3h-42.9v50.5h23.2v2.3c0,1.7,1.3,3,3,3h18c1.7,0,3-1.3,3-3
		v-13.5C347.8,334.7,346.8,333.6,345.5,333.2z M344.8,351.1v-1.5h0L344.8,351.1z"/>
	<g>
		<g>
			<path fill="#515150" d="M304.3,343.6v-43h35.4v19.8c0.8,0.3,1.6,0.8,2.3,1.3v-23.3H302v47.5h21v-2.3H304.3z"/>
		</g>
		<g>
			<rect x="311.9" y="305.7" fill="#515150" width="20.3" height="2.3"/>
			<rect x="311.9" y="311.1" fill="#515150" width="20.3" height="2.3"/>
			<rect x="311.9" y="316.5" fill="#515150" width="20.3" height="2.3"/>
		</g>
		<path fill="#515150" d="M344.8,334.6H344v-4.5c0-4.6-3.7-8.3-8.3-8.3c-4.6,0-8.3,3.7-8.3,8.3v4.5h-0.8c-0.8,0-1.5,0.7-1.5,1.5
			v13.5c0,0.8,0.7,1.5,1.5,1.5h18c0.8,0,1.5-0.7,1.5-1.5v-13.5C346.3,335.3,345.6,334.6,344.8,334.6z M341,334.6h-10.5v-4.5
			c0-2.9,2.3-5.3,5.3-5.3c2.9,0,5.3,2.3,5.3,5.3V334.6z"/>
	</g>
</g>
</svg>
