<?xml version="1.0" encoding="utf-8"?>
<!-- Generator: Adobe Illustrator 18.1.0, SVG Export Plug-In . SVG Version: 6.00 Build 0)  -->
<!DOCTYPE svg PUBLIC "-//W3C//DTD SVG 1.1//EN" "http://www.w3.org/Graphics/SVG/1.1/DTD/svg11.dtd">
<svg version="1.1" xmlns="http://www.w3.org/2000/svg" xmlns:xlink="http://www.w3.org/1999/xlink" x="0px" y="0px"
	 viewBox="0 0 648 648" enable-background="new 0 0 648 648" xml:space="preserve">
<g id="Layer_1">
</g>
<g id="Completed_Icons">
	<path fill="#FFFFFF" d="M324.7,346.5c-2.2,0-4.3-0.5-6.2-1.5h-12.3c-1.8,0-3.2-1.4-3.2-3.2v-34.6c0-1.8,1.4-3.2,3.2-3.2h36.9
		c1.8,0,3.2,1.4,3.2,3.2v34.6c0,1.8-1.4,3.2-3.2,3.2h-12.3C329,346,326.9,346.5,324.7,346.5z"/>
	<g>
		<defs>
			<filter id="Adobe_OpacityMaskFilter" filterUnits="userSpaceOnUse" x="304.6" y="305.4" width="40.3" height="38">
				<feColorMatrix  type="matrix" values="1 0 0 0 0  0 1 0 0 0  0 0 1 0 0  0 0 0 1 0"/>
			</filter>
		</defs>
		<mask maskUnits="userSpaceOnUse" x="304.6" y="305.4" width="40.3" height="38" id="Rectangle_40_2_">
			<g id="Rectangle_40Opacity_Mask_3_" filter="url(#Adobe_OpacityMaskFilter)">
				
					<image overflow="visible" width="1920" height="1366" id="Rectangle_40Opacity_Mask_4_" xlink:href="622A6B5B.jpg"  transform="matrix(1.1522 0 0 1.1522 -986.0027 -1028.8435)">
				</image>
			</g>
		</mask>
		<g id="Rectangle_40_4_" mask="url(#Rectangle_40_2_)">
			<g>
				<path fill="#515150" d="M343.1,305.4h-36.8c-0.8,0-1.8,0.9-1.8,1.7l0,34.8c0,0.8,0.7,1.5,1.5,1.5H317c-1.3-1-2.4-2.2-3.3-3.5
					l-5.6,0v-5.6h3.7c0-0.4-0.1-0.8-0.1-1.2h-3.6v-5.8h4.9c0.2-0.4,0.4-0.8,0.6-1.2h-5.5v-5.8h7.4v3.3c0.4-0.4,0.7-0.7,1.2-1v-2.3
					h4.3c0.8-0.3,1.7-0.4,2.6-0.5c0.4,0,0.7-0.1,1.1-0.1v0c0,0,0,0,0.1,0c1.3,0,2.6,0.2,3.8,0.6h3.1v1.4c0.4,0.2,0.8,0.5,1.2,0.8
					v-2.2h8.7v5.8h-5.5c0.2,0.4,0.4,0.8,0.6,1.2h4.9v5.8h-3.7c0,0.4,0,0.8-0.1,1.2h3.7v5.7l-5.7,0c-0.9,1.3-2,2.5-3.2,3.5h10.9
					c0.8,0,1.5-0.7,1.5-1.5l0-34.8C344.9,306.3,344,305.4,343.1,305.4z M308.1,319.4v-5.9l7.4,0v5.9H308.1z M316.6,319.4v-5.9l6.9,0
					v5.9H316.6z M324.7,319.4v-5.9l6.9,0v5.8H324.7z M332.7,319.4v-5.8l8.7,0v5.8H332.7z"/>
			</g>
		</g>
		<path fill="#515150" d="M324.7,321c-6.6,0-12,5.4-12,12c0,6.6,5.4,12,12,12c6.6,0,12-5.4,12-12C336.7,326.4,331.3,321,324.7,321z
			 M324.7,339.4c-3.5,0-6.4-2.9-6.4-6.4c0-3.5,2.9-6.4,6.4-6.4c3.5,0,6.4,2.9,6.4,6.4C331.1,336.5,328.3,339.4,324.7,339.4z"/>
		<path fill="#515150" d="M324.7,327.6c-3,0-5.4,2.4-5.4,5.4c0,3,2.4,5.4,5.4,5.4c3,0,5.4-2.4,5.4-5.4
			C330.1,330,327.7,327.6,324.7,327.6z M324.7,334.7c-0.9,0-1.7-0.8-1.7-1.7c0-0.9,0.8-1.7,1.7-1.7s1.7,0.8,1.7,1.7
			C326.4,333.9,325.7,334.7,324.7,334.7z"/>
	</g>
</g>
</svg>
