<?xml version="1.0" encoding="utf-8"?>
<!-- Generator: Adobe Illustrator 18.1.0, SVG Export Plug-In . SVG Version: 6.00 Build 0)  -->
<!DOCTYPE svg PUBLIC "-//W3C//DTD SVG 1.1//EN" "http://www.w3.org/Graphics/SVG/1.1/DTD/svg11.dtd">
<svg version="1.1" xmlns="http://www.w3.org/2000/svg" xmlns:xlink="http://www.w3.org/1999/xlink" x="0px" y="0px"
	 viewBox="0 0 648 648" enable-background="new 0 0 648 648" xml:space="preserve">
<g id="Layer_1">
</g>
<g id="Completed_Icons">
	<path fill="#FFFFFF" d="M346.9,320.3c0.5-0.7,0.9-1.5,0.9-2.5c0-0.9-0.3-1.8-0.9-2.5c0.5-0.7,0.9-1.5,0.9-2.5c0-1.1-0.4-2-1.1-2.7
		c0.7-0.8,1.1-1.9,1.1-3c0-2.6-2.1-4.8-4.8-4.8c-1.1,0-2.2,0.4-3,1.1c-0.7-0.7-1.7-1.1-2.7-1.1c-0.9,0-1.8,0.3-2.5,0.9
		c-0.7-0.5-1.5-0.9-2.5-0.9s-1.8,0.3-2.5,0.9c-0.7-0.5-1.5-0.9-2.5-0.9c-0.9,0-1.8,0.3-2.5,0.9c-0.7-0.5-1.5-0.9-2.5-0.9
		c-0.9,0-1.8,0.3-2.5,0.9c-0.7-0.5-1.5-0.9-2.5-0.9c-0.9,0-1.8,0.3-2.5,0.9c-0.7-0.5-1.5-0.9-2.5-0.9c-1.1,0-2,0.4-2.7,1.1
		c-0.8-0.7-1.9-1.1-3-1.1c-2.6,0-4.8,2.1-4.8,4.8c0,1.1,0.4,2.2,1.1,3c-0.7,0.7-1.1,1.7-1.1,2.7c0,0.9,0.3,1.8,0.9,2.5
		c-0.5,0.7-0.9,1.5-0.9,2.5c0,0.9,0.3,1.8,0.9,2.5c-0.5,0.7-0.9,1.5-0.9,2.5s0.3,1.8,0.9,2.5c-0.5,0.7-0.9,1.5-0.9,2.5
		c0,1.1,0.4,2,1.1,2.7c-0.7,0.8-1.1,1.9-1.1,3c0,2.6,2.1,4.8,4.8,4.8c1.1,0,2.2-0.4,3-1.1c0.7,0.7,1.7,1.1,2.7,1.1
		c0.9,0,1.8-0.3,2.5-0.9c0.7,0.5,1.5,0.9,2.5,0.9c0.9,0,1.8-0.3,2.5-0.9c0.7,0.5,1.5,0.9,2.5,0.9c0.3,0,0.7-0.1,1.1-0.2l-3.4,6.9
		l6,3l2.2-4.4l2.2,4.4l6-3l-3.3-6.6c0.4-0.4,0.8-0.9,1.1-1.4c0.7,0.8,1.8,1.4,3,1.4c1.1,0,2-0.4,2.7-1.1c0.8,0.7,1.9,1.1,3,1.1
		c2.6,0,4.8-2.1,4.8-4.8c0-1.1-0.4-2.2-1.1-3c0.7-0.7,1.1-1.7,1.1-2.7c0-0.9-0.3-1.8-0.9-2.5c0.5-0.7,0.9-1.5,0.9-2.5
		S347.4,321,346.9,320.3z"/>
	<g>
		<circle fill="#515150" cx="307" cy="333.7" r="3.3"/>
		<path fill="#515150" d="M303.7,327.9c0,1.4,1.1,2.5,2.5,2.5c1.4,0,2.5-1.1,2.5-2.5c0-1.4-1.1-2.5-2.5-2.5
			C304.8,325.5,303.7,326.6,303.7,327.9z"/>
		<circle fill="#515150" cx="312.7" cy="334.5" r="2.5"/>
		<circle fill="#515150" cx="317.6" cy="334.5" r="2.5"/>
		<circle fill="#515150" cx="306.2" cy="323" r="2.5"/>
		<path fill="#515150" d="M312.7,309.1c1.4,0,2.5-1.1,2.5-2.5c0-1.4-1.1-2.5-2.5-2.5c-1.4,0-2.5,1.1-2.5,2.5
			C310.3,308,311.4,309.1,312.7,309.1z"/>
		<circle fill="#515150" cx="317.6" cy="306.7" r="2.5"/>
		<circle fill="#515150" cx="306.2" cy="318.1" r="2.5"/>
		<circle fill="#515150" cx="322.5" cy="306.7" r="2.5"/>
		<circle fill="#515150" cx="307" cy="307.5" r="3.3"/>
		<circle fill="#515150" cx="306.2" cy="313.2" r="2.5"/>
		<path fill="#515150" d="M337.3,332c-1.1,0-2,0.7-2.3,1.6c0,0,0,0,0,0c0,0.4,0,0.8-0.1,1.2c0.2,1.2,1.2,2.1,2.4,2.1
			c1.4,0,2.5-1.1,2.5-2.5C339.7,333.1,338.6,332,337.3,332z"/>
		<circle fill="#515150" cx="327.5" cy="306.7" r="2.5"/>
		<circle fill="#515150" cx="343" cy="333.7" r="3.3"/>
		<path fill="#515150" d="M341.4,323c0,1.4,1.1,2.5,2.5,2.5c1.4,0,2.5-1.1,2.5-2.5c0-1.4-1.1-2.5-2.5-2.5
			C342.5,320.6,341.4,321.7,341.4,323z"/>
		<circle fill="#515150" cx="332.4" cy="306.7" r="2.5"/>
		<path fill="#515150" d="M341.4,318.1c0,1.4,1.1,2.5,2.5,2.5c1.4,0,2.5-1.1,2.5-2.5c0-1.4-1.1-2.5-2.5-2.5
			C342.5,315.7,341.4,316.8,341.4,318.1z"/>
		<path fill="#515150" d="M346.3,313.2c0-1.4-1.1-2.5-2.5-2.5c-1.4,0-2.5,1.1-2.5,2.5c0,1.4,1.1,2.5,2.5,2.5
			C345.2,315.7,346.3,314.6,346.3,313.2z"/>
		<path fill="#515150" d="M341.4,327.9c0,1.4,1.1,2.5,2.5,2.5c1.4,0,2.5-1.1,2.5-2.5c0-1.4-1.1-2.5-2.5-2.5
			C342.5,325.5,341.4,326.6,341.4,327.9z"/>
		<circle fill="#515150" cx="337.3" cy="306.7" r="2.5"/>
		<path fill="#515150" d="M322.6,332C322.6,332,322.6,332,322.6,332c-1.5,0-2.6,1.1-2.6,2.4c0,1.4,1.1,2.5,2.5,2.5
			c0.3,0,0.5-0.1,0.7-0.1c-0.5-0.9-0.9-2-0.9-3.1C322.4,333.1,322.5,332.5,322.6,332z"/>
		<circle fill="#515150" cx="343" cy="307.5" r="3.3"/>
		<path fill="#515150" d="M335,333.6c-0.1,0.3-0.2,0.5-0.2,0.8c0,0.1,0,0.3,0,0.4C334.9,334.5,335,334.1,335,333.6
			C335,333.6,335,333.6,335,333.6z"/>
		<path fill-rule="evenodd" clip-rule="evenodd" fill="#515150" d="M339.7,310.7h-29.5v19.6h13.1c1.1-1.8,3.1-3,5.3-3
			c2.3,0,4.2,1.2,5.3,3h5.7V310.7z M333.2,326.3h-16.4v-1.6h16.4V326.3z M333.2,321.4h-16.4v-1.6h16.4V321.4z M336.5,316.5h-22.9
			V314h22.9V316.5z"/>
		<path fill="#515150" d="M328.7,338.7c-2.7,0-4.9-2.2-4.9-4.9c0-2.7,2.2-4.9,4.9-4.9c2.7,0,4.9,2.2,4.9,4.9
			C333.7,336.5,331.5,338.7,328.7,338.7L328.7,338.7z M328.8,332.2c-0.9,0-1.6,0.7-1.6,1.6c0,0.9,0.7,1.6,1.6,1.6
			c0.9,0,1.6-0.7,1.6-1.6C330.4,332.9,329.7,332.2,328.8,332.2L328.8,332.2z M331.2,346.1l-1.6-3.3l1.6-3.3h0.8l2.5,4.9L331.2,346.1
			L331.2,346.1z M325.5,346.1l-3.3-1.6l2.5-4.9l3.3,1.6L325.5,346.1L325.5,346.1z"/>
	</g>
</g>
</svg>
