<?xml version="1.0" encoding="utf-8"?>
<!-- Generator: Adobe Illustrator 18.1.0, SVG Export Plug-In . SVG Version: 6.00 Build 0)  -->
<!DOCTYPE svg PUBLIC "-//W3C//DTD SVG 1.1//EN" "http://www.w3.org/Graphics/SVG/1.1/DTD/svg11.dtd">
<svg version="1.1" xmlns="http://www.w3.org/2000/svg" xmlns:xlink="http://www.w3.org/1999/xlink" x="0px" y="0px"
	 viewBox="0 0 648 648" enable-background="new 0 0 648 648" xml:space="preserve">
<g id="Layer_1">
</g>
<g id="Completed_Icons">
	<path fill="#FFFFFF" d="M348.4,331.6c0.3-0.6,0.5-1.3,0.5-2c0-1-0.4-2-1-2.7c0.6-0.7,1-1.7,1-2.7c0-1-0.4-2-1-2.7
		c0.6-0.7,1-1.7,1-2.7c0-1-0.4-2-1-2.7c0.6-0.7,1-1.7,1-2.7c0-1.2-0.5-2.2-1.3-3c0.8-0.9,1.3-2.1,1.3-3.3c0-2.8-2.3-5.1-5.1-5.1
		c-1.3,0-2.4,0.5-3.3,1.3c-0.8-0.8-1.8-1.3-3-1.3c-1,0-2,0.4-2.7,1c-0.7-0.6-1.7-1-2.7-1c-1,0-2,0.4-2.7,1c-0.7-0.6-1.7-1-2.7-1
		c-1,0-2,0.4-2.7,1c-0.7-0.6-1.7-1-2.7-1c-1,0-2,0.4-2.7,1c-0.7-0.6-1.7-1-2.7-1c-1,0-2,0.4-2.7,1c-0.7-0.6-1.7-1-2.7-1
		c-1.2,0-2.2,0.5-3,1.3c-0.9-0.8-2.1-1.3-3.3-1.3c-2.8,0-5.1,2.3-5.1,5.1c0,1.3,0.5,2.4,1.3,3.3c-0.8,0.8-1.3,1.8-1.3,3
		c0,1,0.4,2,1,2.7c-0.6,0.7-1,1.7-1,2.7c0,1,0.4,2,1,2.7c-0.6,0.7-1,1.7-1,2.7c0,1,0.4,2,1,2.7c-0.6,0.7-1,1.7-1,2.7
		c0,1.2,0.5,2.2,1.3,3c-0.8,0.9-1.3,2.1-1.3,3.3c0,2.8,2.3,5.1,5.1,5.1c1.3,0,2.4-0.5,3.3-1.3c0.8,0.8,1.8,1.3,3,1.3
		c1,0,2-0.4,2.7-1c0.7,0.6,1.7,1,2.7,1c1,0,2-0.4,2.7-1c0.7,0.6,1.7,1,2.7,1c1,0,2-0.4,2.7-1c0.7,0.6,1.7,1,2.7,1
		c1.5,0,2.8-0.8,3.5-1.9l10.8,9.5l10.9-9.9v-10.6L348.4,331.6z"/>
	<g>
		<circle fill="#515150" cx="303.8" cy="336.2" r="3.6"/>
		<path fill="#515150" d="M300.2,329.8c0,1.5,1.2,2.7,2.7,2.7c1.5,0,2.7-1.2,2.7-2.7c0-1.5-1.2-2.7-2.7-2.7
			C301.4,327.1,300.2,328.3,300.2,329.8z"/>
		<circle fill="#515150" cx="310.2" cy="337.1" r="2.7"/>
		<circle fill="#515150" cx="315.6" cy="337.1" r="2.7"/>
		<path fill="#515150" d="M305.6,324.4c0-1.5-1.2-2.7-2.7-2.7c-1.5,0-2.7,1.2-2.7,2.7c0,1.5,1.2,2.7,2.7,2.7
			C304.4,327.1,305.6,325.9,305.6,324.4z"/>
		<path fill="#515150" d="M310.2,308.9c1.5,0,2.7-1.2,2.7-2.7c0-1.5-1.2-2.7-2.7-2.7c-1.5,0-2.7,1.2-2.7,2.7
			C307.5,307.7,308.7,308.9,310.2,308.9z"/>
		<circle fill="#515150" cx="315.6" cy="306.2" r="2.7"/>
		<path fill="#515150" d="M305.6,318.9c0-1.5-1.2-2.7-2.7-2.7c-1.5,0-2.7,1.2-2.7,2.7c0,1.5,1.2,2.7,2.7,2.7
			C304.4,321.6,305.6,320.4,305.6,318.9z"/>
		<circle fill="#515150" cx="321.1" cy="306.2" r="2.7"/>
		<circle fill="#515150" cx="303.8" cy="307.1" r="3.6"/>
		<path fill="#515150" d="M305.6,313.5c0-1.5-1.2-2.7-2.7-2.7c-1.5,0-2.7,1.2-2.7,2.7c0,1.5,1.2,2.7,2.7,2.7
			C304.4,316.2,305.6,315,305.6,313.5z"/>
		<path fill="#515150" d="M321.1,334.3c-1.2,0-2.2,0.7-2.6,1.8c0,0,0,0,0,0c0,0.5,0,0.9-0.1,1.3c0.2,1.3,1.3,2.3,2.7,2.3
			c1.5,0,2.7-1.2,2.7-2.7C323.8,335.6,322.6,334.3,321.1,334.3z"/>
		<path fill="#515150" d="M326.5,334.3c-1.2,0-2.2,0.7-2.6,1.8c0,0,0,0,0,0c0,0.5,0,0.9-0.1,1.3c0.2,1.3,1.3,2.3,2.7,2.3
			c1.5,0,2.7-1.2,2.7-2.7C329.2,335.6,328,334.3,326.5,334.3z"/>
		<circle fill="#515150" cx="326.5" cy="306.2" r="2.7"/>
		<path fill="#515150" d="M346.3,333.5c-0.4-0.3-0.8-0.6-1.3-0.8l0,2.1L346.3,333.5z"/>
		<path fill="#515150" d="M345,327c1.3-0.2,2.4-1.3,2.4-2.7c0-1.4-1-2.5-2.4-2.7c0,0,0,0.1,0,0.1L345,327z"/>
		<circle fill="#515150" cx="332" cy="306.2" r="2.7"/>
		<path fill="#515150" d="M344.5,320.5c0.3,0.3,0.5,0.7,0.5,1.1c1.3-0.2,2.4-1.3,2.4-2.7c0-1.5-1.2-2.7-2.7-2.7
			c-1.5,0-2.7,1.2-2.7,2.7c0,0.4,0.1,0.7,0.2,1.1h1.1C343.7,320,344.2,320.2,344.5,320.5z"/>
		<path fill="#515150" d="M347.4,313.5c0-1.5-1.2-2.7-2.7-2.7c-1.5,0-2.7,1.2-2.7,2.7c0,1.5,1.2,2.7,2.7,2.7
			C346.2,316.2,347.4,315,347.4,313.5z"/>
		<path fill="#515150" d="M347.4,329.8c0-1.4-1-2.5-2.4-2.7l0,5.4C346.4,332.3,347.4,331.2,347.4,329.8z"/>
		<circle fill="#515150" cx="337.4" cy="306.2" r="2.7"/>
		<circle fill="#515150" cx="343.8" cy="307.1" r="3.6"/>
		<path fill-rule="evenodd" clip-rule="evenodd" fill="#515150" d="M330.5,330.4c0.7-0.3,1.5-0.1,2,0.4l1.8,1.8h2.4v-10.7
			c0-1,0.8-1.8,1.8-1.8h1.7v-9.3h-32.7v21.8H322h7.4v-0.5C329.4,331.3,329.8,330.7,330.5,330.4z M332.9,322.5h-18.2v-1.8h18.2V322.5
			z M311.1,314.4h25.4v2.7h-25.4V314.4z M314.7,328v-1.8h18.2v1.8H314.7z"/>
		<polygon fill="#515150" points="343.2,339.3 343.3,321.8 338.5,321.8 338.5,339.3 331.2,332.1 331.2,338.3 340.8,346.9 
			350.3,338.3 350.3,332.1 		"/>
	</g>
</g>
</svg>
