<?xml version="1.0" encoding="utf-8"?>
<!-- Generator: Adobe Illustrator 18.1.0, SVG Export Plug-In . SVG Version: 6.00 Build 0)  -->
<!DOCTYPE svg PUBLIC "-//W3C//DTD SVG 1.1//EN" "http://www.w3.org/Graphics/SVG/1.1/DTD/svg11.dtd">
<svg version="1.1" xmlns="http://www.w3.org/2000/svg" xmlns:xlink="http://www.w3.org/1999/xlink" x="0px" y="0px"
	 viewBox="0 0 648 648" enable-background="new 0 0 648 648" xml:space="preserve">
<g id="Layer_1">
</g>
<g id="Completed_Icons">
	<path fill="#FFFFFF" d="M350.7,313.7c0.7-0.8,1.1-1.9,1.1-3c0-2.6-2.1-4.8-4.8-4.8c-1.1,0-2.2,0.4-3,1.1c-0.6-0.5-1.3-0.9-2.1-1
		h0.1l0.5-0.6c0.7-0.9,1.1-1.9,1.1-3c0-2.6-2.1-4.7-4.7-4.7c-1.1,0-2.2,0.4-3,1.1c-0.7-0.7-1.6-1.1-2.7-1.1c-0.9,0-1.8,0.3-2.4,0.8
		c-0.7-0.5-1.5-0.8-2.4-0.8s-1.8,0.3-2.4,0.8c-0.7-0.5-1.5-0.8-2.4-0.8c-0.9,0-1.8,0.3-2.4,0.8c-0.7-0.5-1.5-0.8-2.4-0.8
		s-1.8,0.3-2.4,0.8c-0.7-0.5-1.5-0.8-2.4-0.8s-1.8,0.3-2.4,0.8c-0.7-0.5-1.5-0.8-2.4-0.8c-1,0-2,0.4-2.7,1.1c-0.8-0.7-1.9-1.1-3-1.1
		c-2.6,0-4.7,2.1-4.7,4.7c0,1.1,0.4,2.2,1.1,3c-0.7,0.7-1.1,1.6-1.1,2.7c0,0.9,0.3,1.8,0.8,2.4c-0.5,0.7-0.8,1.5-0.8,2.4
		c0,0.9,0.3,1.8,0.8,2.4c-0.5,0.7-0.8,1.5-0.8,2.4s0.3,1.8,0.8,2.4c-0.5,0.7-0.8,1.5-0.8,2.4c0,1,0.4,2,1.1,2.7
		c-0.7,0.8-1.1,1.9-1.1,3c0,2.6,2.1,4.7,4.7,4.7c0.8,0,1.7-0.2,2.4-0.7l0.7-0.4v-0.2c0.1,0.8,0.5,1.5,1,2.1c-0.7,0.8-1.1,1.9-1.1,3
		c0,2.6,2.1,4.8,4.8,4.8c1.1,0,2.2-0.4,3-1.1c0.7,0.7,1.7,1.1,2.7,1.1c0.9,0,1.8-0.3,2.5-0.9c0.7,0.5,1.5,0.9,2.5,0.9
		c0.9,0,1.8-0.3,2.5-0.9c0.7,0.5,1.5,0.9,2.5,0.9c0.3,0,0.7-0.1,1.1-0.2l-3.4,6.9l6,3l2.2-4.4l2.2,4.4l6-3l-3.3-6.6
		c0.4-0.4,0.8-0.9,1.1-1.4c0.7,0.8,1.8,1.4,3,1.4c1.1,0,2-0.4,2.7-1.1c0.8,0.7,1.9,1.1,3,1.1c2.6,0,4.8-2.1,4.8-4.8
		c0-1.1-0.4-2.2-1.1-3c0.7-0.7,1.1-1.7,1.1-2.7c0-0.9-0.3-1.8-0.9-2.5c0.5-0.7,0.9-1.5,0.9-2.5s-0.3-1.8-0.9-2.5
		c0.5-0.7,0.9-1.5,0.9-2.5c0-0.9-0.3-1.8-0.9-2.5c0.5-0.7,0.9-1.5,0.9-2.5C351.8,315.4,351.4,314.4,350.7,313.7z"/>
	<g>
		<path fill="#515150" d="M304.8,304.5h31.6h4.9c0.5-0.6,0.7-1.3,0.7-2c0-1.8-1.5-3.2-3.2-3.2c-1.8,0-3.2,1.5-3.2,3.2h-0.1
			c0.1-0.3,0.1-0.5,0.1-0.8c0-1.3-1.1-2.4-2.4-2.4c-1.3,0-2.4,1.1-2.4,2.4c0,0.3,0.1,0.6,0.1,0.8h-0.3c0.1-0.3,0.1-0.5,0.1-0.8
			c0-1.3-1.1-2.4-2.4-2.4s-2.4,1.1-2.4,2.4c0,0.3,0.1,0.6,0.1,0.8h-0.3c0.1-0.3,0.1-0.5,0.1-0.8c0-1.3-1.1-2.4-2.4-2.4
			c-1.3,0-2.4,1.1-2.4,2.4c0,0.3,0.1,0.6,0.1,0.8h-0.3c0.1-0.3,0.1-0.5,0.1-0.8c0-1.3-1.1-2.4-2.4-2.4c-1.3,0-2.4,1.1-2.4,2.4
			c0,0.3,0.1,0.6,0.1,0.8H316c0.1-0.3,0.1-0.5,0.1-0.8c0-1.3-1.1-2.4-2.4-2.4c-1.3,0-2.4,1.1-2.4,2.4c0,0.3,0.1,0.6,0.1,0.8h-0.3
			c0.1-0.3,0.1-0.5,0.1-0.8c0-1.3-1.1-2.4-2.4-2.4c-1.3,0-2.4,1.1-2.4,2.4c0,0.3,0.1,0.6,0.1,0.8h-0.1c0-1.8-1.5-3.2-3.2-3.2
			c-1.8,0-3.2,1.5-3.2,3.2c0,1.5,1,2.8,2.4,3.1v0.1l0,0c-1.3,0-2.4,1.1-2.4,2.4c0,1.3,1.1,2.4,2.4,2.4l0,0v0l0,0
			c-1.3,0-2.4,1.1-2.4,2.4s1.1,2.4,2.4,2.4l0,0v0l0,0c-1.3,0-2.4,1.1-2.4,2.4s1.1,2.4,2.4,2.4l0,0v0l0,0c-1.3,0-2.4,1.1-2.4,2.4
			c0,1.3,1.1,2.4,2.4,2.4l0,0v0.1c-1.4,0.4-2.4,1.6-2.4,3.1c0,1.8,1.5,3.2,3.2,3.2c0.6,0,1.2-0.2,1.6-0.5V326V304.5z"/>
		<g>
			<circle fill="#515150" cx="311.1" cy="337.2" r="3.3"/>
			<path fill="#515150" d="M307.8,331.4c0,1.4,1.1,2.5,2.5,2.5c1.4,0,2.5-1.1,2.5-2.5c0-1.4-1.1-2.5-2.5-2.5
				C308.9,329,307.8,330.1,307.8,331.4z"/>
			<circle fill="#515150" cx="316.8" cy="338" r="2.5"/>
			<circle fill="#515150" cx="321.7" cy="338" r="2.5"/>
			<circle fill="#515150" cx="310.2" cy="326.5" r="2.5"/>
			<path fill="#515150" d="M316.8,312.6c1.4,0,2.5-1.1,2.5-2.5c0-1.4-1.1-2.5-2.5-2.5c-1.4,0-2.5,1.1-2.5,2.5
				C314.3,311.5,315.4,312.6,316.8,312.6z"/>
			<circle fill="#515150" cx="321.7" cy="310.2" r="2.5"/>
			<circle fill="#515150" cx="310.2" cy="321.6" r="2.5"/>
			<circle fill="#515150" cx="326.6" cy="310.2" r="2.5"/>
			<circle fill="#515150" cx="311.1" cy="311" r="3.3"/>
			<circle fill="#515150" cx="310.2" cy="316.7" r="2.5"/>
			<path fill="#515150" d="M341.3,335.5c-1.1,0-2,0.7-2.3,1.6c0,0,0,0,0,0c0,0.4,0,0.8-0.1,1.2c0.2,1.2,1.2,2.1,2.4,2.1
				c1.4,0,2.5-1.1,2.5-2.5C343.8,336.6,342.7,335.5,341.3,335.5z"/>
			<circle fill="#515150" cx="331.5" cy="310.2" r="2.5"/>
			<circle fill="#515150" cx="347.1" cy="337.2" r="3.3"/>
			<path fill="#515150" d="M345.4,326.5c0,1.4,1.1,2.5,2.5,2.5c1.4,0,2.5-1.1,2.5-2.5c0-1.4-1.1-2.5-2.5-2.5
				C346.5,324.1,345.4,325.2,345.4,326.5z"/>
			<circle fill="#515150" cx="336.4" cy="310.2" r="2.5"/>
			<path fill="#515150" d="M345.4,321.6c0,1.4,1.1,2.5,2.5,2.5c1.4,0,2.5-1.1,2.5-2.5c0-1.4-1.1-2.5-2.5-2.5
				C346.5,319.2,345.4,320.3,345.4,321.6z"/>
			<path fill="#515150" d="M350.3,316.7c0-1.4-1.1-2.5-2.5-2.5c-1.4,0-2.5,1.1-2.5,2.5c0,1.4,1.1,2.5,2.5,2.5
				C349.2,319.2,350.3,318.1,350.3,316.7z"/>
			<path fill="#515150" d="M345.4,331.4c0,1.4,1.1,2.5,2.5,2.5c1.4,0,2.5-1.1,2.5-2.5c0-1.4-1.1-2.5-2.5-2.5
				C346.5,329,345.4,330.1,345.4,331.4z"/>
			<circle fill="#515150" cx="341.3" cy="310.2" r="2.5"/>
			<path fill="#515150" d="M326.7,335.5C326.7,335.5,326.6,335.5,326.7,335.5c-1.5,0-2.6,1.1-2.6,2.4c0,1.4,1.1,2.5,2.5,2.5
				c0.3,0,0.5-0.1,0.7-0.1c-0.5-0.9-0.9-2-0.9-3.1C326.5,336.6,326.6,336.1,326.7,335.5z"/>
			<circle fill="#515150" cx="347.1" cy="311" r="3.3"/>
			<path fill="#515150" d="M339,337.1c-0.1,0.3-0.2,0.5-0.2,0.8c0,0.1,0,0.3,0,0.4C339,338,339,337.6,339,337.1
				C339,337.2,339,337.2,339,337.1z"/>
			<path fill-rule="evenodd" clip-rule="evenodd" fill="#515150" d="M343.8,314.3h-29.5v19.6h13.1c1.1-1.8,3.1-3,5.3-3
				c2.3,0,4.2,1.2,5.3,3h5.7V314.3z M337.2,329.8h-16.4v-1.6h16.4V329.8z M337.2,324.9h-16.4v-1.6h16.4V324.9z M340.5,320h-22.9
				v-2.5h22.9V320z"/>
			<path fill="#515150" d="M332.8,342.2c-2.7,0-4.9-2.2-4.9-4.9c0-2.7,2.2-4.9,4.9-4.9c2.7,0,4.9,2.2,4.9,4.9
				C337.7,340,335.5,342.2,332.8,342.2L332.8,342.2z M332.8,335.7c-0.9,0-1.6,0.7-1.6,1.6c0,0.9,0.7,1.6,1.6,1.6
				c0.9,0,1.6-0.7,1.6-1.6C334.5,336.4,333.7,335.7,332.8,335.7L332.8,335.7z M335.3,349.6l-1.6-3.3l1.6-3.3h0.8l2.5,4.9
				L335.3,349.6L335.3,349.6z M329.5,349.6l-3.3-1.6l2.5-4.9l3.3,1.6L329.5,349.6L329.5,349.6z"/>
		</g>
	</g>
</g>
</svg>
