<?xml version="1.0" encoding="utf-8"?>
<!-- Generator: Adobe Illustrator 18.1.0, SVG Export Plug-In . SVG Version: 6.00 Build 0)  -->
<!DOCTYPE svg PUBLIC "-//W3C//DTD SVG 1.1//EN" "http://www.w3.org/Graphics/SVG/1.1/DTD/svg11.dtd">
<svg version="1.1" xmlns="http://www.w3.org/2000/svg" xmlns:xlink="http://www.w3.org/1999/xlink" x="0px" y="0px"
	 viewBox="0 0 648 648" enable-background="new 0 0 648 648" xml:space="preserve">
<g id="Layer_1">
</g>
<g id="Completed_Icons">
	<path fill="#FFFFFF" d="M351,356.5h-32.7v-6.2h-15.5c-3.7,0-6.5-3.9-6.5-7.4v-43.1c0-3.6,2.9-6.5,6.5-6.5h21.7
		c3.6,0,6.5,2.9,6.5,6.5v24h15.2v4.1l1.4-1.7l5.9,5l-2.4,2.9V356.5z"/>
	<g>
		<polygon fill="#515150" points="349.9,355.4 320.1,355.4 320.1,325.6 344.9,325.6 344.9,328.7 323.3,328.7 323.3,352.2 
			346.7,352.2 346.7,341.7 349.9,341.7 		"/>
		<polygon fill="#515150" points="337.4,348.5 327.4,339 330.6,335.6 337,341.7 348.1,328.6 351.6,331.6 		"/>
		<path fill="#515150" d="M324.8,295.1h-21.7c-2.7,0-5,2.2-5,5v43.1c0,2.7,2.2,5.9,5,5.9H317V340h-12.6v-38.2h19.1v18.7h6.3v-20.5
			C329.8,297.3,327.6,295.1,324.8,295.1z M309.3,344.4h6.1v1.5h-6.1V344.4z M315.5,298.8h-3.1v-1.3h3.1V298.8z"/>
	</g>
</g>
</svg>
