<?xml version="1.0" encoding="utf-8"?>
<!-- Generator: Adobe Illustrator 18.1.0, SVG Export Plug-In . SVG Version: 6.00 Build 0)  -->
<!DOCTYPE svg PUBLIC "-//W3C//DTD SVG 1.1//EN" "http://www.w3.org/Graphics/SVG/1.1/DTD/svg11.dtd">
<svg version="1.1" xmlns="http://www.w3.org/2000/svg" xmlns:xlink="http://www.w3.org/1999/xlink" x="0px" y="0px"
	 viewBox="0 0 648 648" enable-background="new 0 0 648 648" xml:space="preserve">
<g id="Layer_1">
</g>
<g id="Completed_Icons">
	<path fill="#FFFFFF" d="M333.2,347.9l-0.5-0.2c-0.2-0.1-4.1-1.4-7.7-5.9h-22v-39.7h39.5v21c0.1,0,0.2-0.1,0.2-0.1
		c0.2-0.1,0.5-0.3,0.8-0.4c0.2-0.1,0.6-0.3,1.1-0.3c1.1,0,2.1,0.8,2.1,2.5c0,15-9.5,21.6-13.2,22.9L333.2,347.9z"/>
	<g>
		<path fill="#515150" d="M304.6,303.7v36.7h19.1c-0.9-1.3-1.7-2.7-2.4-4.3h-12.4v-28h28v13.3c0.9,0.8,2.2,1.6,4.2,1.7v-19.3H304.6z
			"/>
		<rect x="311" y="310.1" fill="#515150" width="10.8" height="10.7"/>
		<path fill="#515150" d="M333.2,318.2c0.6,0,1.1,0.3,1.5,0.8v-8.9h-10.8v10.7h5.7C331,319.5,332,318.2,333.2,318.2z"/>
		<path fill="#515150" d="M311,323v10.7h9.4c-1-3-1.7-6.5-1.7-10.7H311z"/>
		<path fill="#515150" d="M344.3,324c-1.4,0.6-1.9,1.2-3.9,1.2c-5,0-5.1-4-7.1-4c-2,0-3.2,4-7.1,4c-2.1,0-2.6-0.5-3.9-1.2
			c0,0-1.1-0.6-1.1,0.9c0,15.7,10.3,20.9,12.2,21.5c1.8-0.6,12.2-5.9,12.2-21.5C345.4,323.5,344.5,323.9,344.3,324z M338.2,338.9
			c-0.2,0.2-0.6,0.4-0.9,0.4c-0.3,0-0.7-0.1-0.9-0.4l-3.2-3.3l-3.2,3.4c-0.3,0.3-0.6,0.4-0.9,0.4c-0.3,0-0.6-0.1-0.9-0.3
			c-0.5-0.5-0.5-1.3-0.1-1.8l3.3-3.5l-3.3-3.4c-0.5-0.5-0.5-1.3,0-1.8c0.5-0.5,1.3-0.5,1.8,0l3.2,3.3l3.2-3.4
			c0.5-0.5,1.3-0.5,1.8-0.1c0.5,0.5,0.5,1.3,0.1,1.8l-3.3,3.5l3.3,3.4C338.7,337.6,338.7,338.4,338.2,338.9z"/>
	</g>
</g>
</svg>
