<?xml version="1.0" encoding="utf-8"?>
<!-- Generator: Adobe Illustrator 18.1.0, SVG Export Plug-In . SVG Version: 6.00 Build 0)  -->
<!DOCTYPE svg PUBLIC "-//W3C//DTD SVG 1.1//EN" "http://www.w3.org/Graphics/SVG/1.1/DTD/svg11.dtd">
<svg version="1.1" xmlns="http://www.w3.org/2000/svg" xmlns:xlink="http://www.w3.org/1999/xlink" x="0px" y="0px"
	 viewBox="0 0 648 648" enable-background="new 0 0 648 648" xml:space="preserve">
<g id="Layer_1">
</g>
<g id="Isolation_Mode">
	<path fill="#FFFFFF" d="M341.6,306.4v-1.8h-24.9c-2.6,0-7.4,1.6-7.4,7.4v23.4c-2.5,0.3-4.5,2.4-4.5,5c0,2.8,2.3,5.1,5.1,5.1h23.4
		l-0.1-0.1c2.4-0.4,4.2-2.5,4.2-5c0-0.5-0.1-1-0.2-1.5v-3.2l0.1-0.1h-0.1v-20.4h7.3l0.4-0.8c0.5-1,0.8-2.1,0.8-3.1
		C345.7,308.6,344.2,306.7,341.6,306.4z"/>
</g>
<g id="Completed_Icons">
	<g>
		<path fill-rule="evenodd" clip-rule="evenodd" fill="#515150" d="M329.3,336.9h-19.4c-2,0-3.6,1.6-3.6,3.6c0,2,1.6,3.6,3.6,3.6
			h19.4c-1-0.9-1.6-2.1-1.6-3.6C327.6,339,328.3,337.8,329.3,336.9z"/>
		<path fill-rule="evenodd" clip-rule="evenodd" fill="#515150" d="M344.2,311.4c0-2.3-1.3-3.6-3.6-3.6c-1.2,0-3.6,2.5-3.6,4.7
			l0,1.2h6.5C344,313,344.2,312.2,344.2,311.4z"/>
		<circle fill-rule="evenodd" clip-rule="evenodd" fill="#515150" cx="332.4" cy="340.5" r="3.6"/>
		<g id="Rectangle_6_5_">
			<g>
				<path fill="#515150" d="M316.7,306.1c0,0-5.9,0-5.9,5.9c0,5.9,0,23.9,0,23.9H331l-1.3,4.5h5.9v-4.7c0,0,0-5.9,0-23.7
					c0-5.9,5.9-5.9,5.9-5.9H316.7z M327.4,332.2h-11.9V331h11.9V332.2z M331,328.7h-15.4v-1.2H331V328.7z M331,325.1h-15.4v-1.2H331
					V325.1z M331,321.5h-15.4v-1.2H331V321.5z M331,318h-15.4v-1.2H331V318z M331,314.4h-15.4v-2.4H331V314.4z"/>
			</g>
		</g>
	</g>
</g>
</svg>
