<?xml version="1.0" encoding="utf-8"?>
<!-- Generator: Adobe Illustrator 18.1.0, SVG Export Plug-In . SVG Version: 6.00 Build 0)  -->
<!DOCTYPE svg PUBLIC "-//W3C//DTD SVG 1.1//EN" "http://www.w3.org/Graphics/SVG/1.1/DTD/svg11.dtd">
<svg version="1.1" xmlns="http://www.w3.org/2000/svg" xmlns:xlink="http://www.w3.org/1999/xlink" x="0px" y="0px"
	 viewBox="0 0 648 648" enable-background="new 0 0 648 648" xml:space="preserve">
<g id="Layer_1">
</g>
<g id="Completed_Icons">
	<path fill="#FFFFFF" d="M324.7,347.4l-0.5-0.2c-5.9-2-21.1-12.5-21.1-36.9c0-2.3,1.4-3.1,2.6-3.1c0.5,0,1,0.1,1.3,0.3l0.1,0.1
		c0.5,0.2,1,0.5,1.4,0.7c1.3,0.7,2.1,1.1,4.5,1.1c3.2,0,5-1.9,6.8-3.7c1.5-1.5,2.9-3,4.9-3c2,0,3.2,1.4,4.3,2.8
		c1.5,1.8,3.2,3.9,7.5,3.9c2.3,0,3.2-0.4,4.5-1.1c0.4-0.2,0.8-0.4,1.3-0.7c0.2-0.1,0.8-0.4,1.5-0.4c0.4,0,2.6,0.2,2.6,3.2
		c0,24.2-15.3,34.8-21.1,36.9L324.7,347.4z"/>
	<path fill="#515150" d="M324.7,345.8c-3-1-20.1-9.6-20.1-35.5c0-2.4,1.9-1.4,1.9-1.4c2.2,1,3,1.9,6.5,1.9c6.5,0,8.4-6.7,11.7-6.7
		c3.3,0,3.5,6.7,11.7,6.7c3.4,0,4.3-0.9,6.5-1.9c0.3-0.1,1.9-0.9,1.9,1.4C344.8,336.1,327.6,344.8,324.7,345.8L324.7,345.8z"/>
</g>
</svg>
