<?xml version="1.0" encoding="utf-8"?>
<!-- Generator: Adobe Illustrator 18.1.0, SVG Export Plug-In . SVG Version: 6.00 Build 0)  -->
<!DOCTYPE svg PUBLIC "-//W3C//DTD SVG 1.1//EN" "http://www.w3.org/Graphics/SVG/1.1/DTD/svg11.dtd">
<svg version="1.1" xmlns="http://www.w3.org/2000/svg" xmlns:xlink="http://www.w3.org/1999/xlink" x="0px" y="0px"
	 viewBox="0 0 648 648" enable-background="new 0 0 648 648" xml:space="preserve">
<g id="Layer_1">
</g>
<g id="Completed_Icons">
	<path fill="#FFFFFF" d="M340.5,346.3h-32.9v-2.6H305v-4.3h2.6v-2.2H305v-4.3h2.6v-2.2H305v-4.3h2.6v-2.2H305v-4.3h2.6v-2.2H305
		v-4.3h2.6v-2.2H305v-4.3h2.6v-2.6h32.9v1.3h3.9v38.2h-3.9V346.3z"/>
	<g id="spiral_binding_2_">
		<g>
			<path fill="#515150" d="M318.2,320h14.3v-7.8h-14.3V320z M310.4,334.4h-3.9v1.3h3.9V334.4z M310.4,327.9h-3.9v1.3h3.9V327.9z
				 M310.4,308.3h-3.9v1.3h3.9V308.3z M310.4,314.8h-3.9v1.3h3.9V314.8z M310.4,321.3h-3.9v1.3h3.9V321.3z M340.3,307v7.8h2.6V307
				H340.3z M340.3,333.1h2.6v-6.5h-2.6V333.1z M340.3,323.9h2.6v-6.5h-2.6V323.9z M340.3,342.2h2.6v-6.5h-2.6V342.2z M309.1,307.7h2
				v2.6h-2v3.9h2v2.6h-2v3.9h2v2.6h-2v3.9h2v2.6h-2v3.9h2v2.6h-2v3.9h2v2.6h-2v2H339v-39.1h-29.9V307.7z M316.9,310.9h16.9v10.4
				h-16.9V310.9z M310.4,340.9h-3.9v1.3h3.9V340.9z"/>
		</g>
	</g>
</g>
</svg>
