<?xml version="1.0" encoding="utf-8"?>
<!-- Generator: Adobe Illustrator 19.1.0, SVG Export Plug-In . SVG Version: 6.00 Build 0)  -->
<!DOCTYPE svg PUBLIC "-//W3C//DTD SVG 1.1//EN" "http://www.w3.org/Graphics/SVG/1.1/DTD/svg11.dtd">
<svg version="1.1" xmlns="http://www.w3.org/2000/svg" xmlns:xlink="http://www.w3.org/1999/xlink" x="0px" y="0px"
	 viewBox="0 0 648 648" enable-background="new 0 0 648 648" xml:space="preserve">
<g id="Layer_1">
</g>
<g id="Isolation_Mode">
	<g>
		<path fill="#FFFFFF" d="M319.3,342.6c-0.3,0-0.6-0.1-0.9-0.2l-3.2-1.3c-1.2-0.5-1.8-1.9-1.3-3.1l1-2.4c0,0-0.1-0.1-0.1-0.1
			l-0.1-0.1l-1.6-1.6c0,0-0.1-0.1-0.1-0.1l-2.4,1c-0.6,0.2-1.2,0.2-1.8,0c-0.6-0.2-1-0.7-1.3-1.3l-1.3-3.2c-0.2-0.6-0.2-1.2,0-1.8
			c0.2-0.6,0.7-1,1.3-1.3l2.4-1c0,0,0-0.1,0-0.1l0-0.1l0-2.3c0,0,0-0.1,0-0.1l-2.4-1c-0.6-0.2-1-0.7-1.3-1.3c-0.2-0.6-0.2-1.2,0-1.8
			l1.3-3.2c0.2-0.6,0.7-1,1.3-1.3c0.6-0.2,1.2-0.2,1.8,0l2.4,1c0,0,0.1-0.1,0.1-0.1l0.1-0.1l1.6-1.6c0,0,0.1-0.1,0.1-0.1l-1-2.4
			c-0.5-1.2,0.1-2.6,1.3-3.1l3.2-1.3c0.6-0.2,1.2-0.2,1.8,0c0.6,0.2,1,0.7,1.3,1.3l1,2.4c0,0,0.1,0,0.1,0c0.1,0,0.5-0.1,1.3-0.1
			c0.7,0,1.2,0.1,1.3,0.1c0,0,0.1,0,0.1,0l1-2.4c0.2-0.6,0.7-1,1.3-1.3c0.6-0.2,1.2-0.2,1.8,0l3.2,1.3c1.2,0.5,1.8,1.9,1.3,3.1
			l-1,2.4c0,0,0.1,0.1,0.1,0.1l0.1,0.1l1.6,1.6c0,0,0.1,0.1,0.1,0.1l2.4-1c0.6-0.2,1.2-0.2,1.8,0c0.6,0.2,1,0.7,1.3,1.3l1.3,3.2
			c0.2,0.6,0.2,1.2,0,1.8c-0.2,0.6-0.7,1-1.3,1.3l-2.4,1c0,0,0,0.1,0,0.1l0,0.1l0,2.3c0,0,0,0.1,0,0.1l2.4,1
			c1.2,0.5,1.8,1.9,1.3,3.1l-1.3,3.2c-0.2,0.6-0.7,1-1.3,1.3c-0.6,0.2-1.2,0.2-1.8,0l-2.4-1c0,0-0.1,0.1-0.1,0.1l-0.1,0.1l-1.6,1.6
			c0,0-0.1,0.1-0.1,0.1l1,2.4c0.5,1.2-0.1,2.6-1.3,3.1l-3.2,1.3c-1.2,0.5-2.6-0.1-3.1-1.3l-1-2.4c0,0-0.1,0-0.1,0
			c-0.1,0-0.5,0.1-1.3,0.1c-0.7,0-1.2-0.1-1.3-0.1c0,0-0.1,0-0.1,0l-1,2.4c-0.2,0.6-0.7,1-1.3,1.3
			C319.9,342.5,319.6,342.6,319.3,342.6z"/>
		<path fill="#515150" d="M339.7,328.5l-2.7-1.1c-0.4-0.2-0.8-0.4-0.8-0.5c0-0.1,0.1-0.6,0.1-1l0-2.2c0-0.5-0.1-0.9-0.1-1
			c0-0.1,0.3-0.3,0.8-0.5l2.7-1.1c0.4-0.2,0.7-0.7,0.5-1.1l-1.3-3.2c-0.2-0.4-0.7-0.7-1.1-0.5l-2.7,1.1c-0.4,0.2-0.8,0.3-0.9,0.2
			c-0.1-0.1-0.4-0.4-0.7-0.8l-1.6-1.6c-0.4-0.3-0.7-0.6-0.8-0.7c-0.1-0.1,0-0.5,0.2-0.9l1.1-2.7c0.2-0.4,0-1-0.5-1.1l-3.2-1.3
			c-0.4-0.2-1,0-1.1,0.5l-1.1,2.7c-0.2,0.4-0.4,0.8-0.5,0.8c-0.1,0-0.6-0.1-1-0.1c0,0-0.5-0.1-1.1-0.1c-0.6,0-1.1,0.1-1.1,0.1
			c-0.5,0.1-0.9,0.1-1,0.1c-0.1,0-0.3-0.3-0.5-0.8l-1.1-2.7c-0.2-0.4-0.7-0.7-1.1-0.5l-3.2,1.3c-0.4,0.2-0.7,0.7-0.5,1.1l1.1,2.7
			c0.2,0.4,0.3,0.8,0.2,0.9c-0.1,0.1-0.4,0.4-0.8,0.7l-1.6,1.6c-0.3,0.4-0.6,0.7-0.7,0.8c-0.1,0.1-0.5,0-0.9-0.2l-2.7-1.1
			c-0.4-0.2-1,0-1.1,0.5l-1.3,3.2c-0.2,0.4,0,1,0.5,1.1l2.7,1.1c0.4,0.2,0.8,0.4,0.8,0.5c0,0.1-0.1,0.6-0.1,1l0,2.2
			c0,0.5,0.1,0.9,0.1,1c0,0.1-0.3,0.3-0.8,0.5l-2.7,1.1c-0.4,0.2-0.7,0.7-0.5,1.1l1.3,3.2c0.2,0.4,0.7,0.7,1.1,0.5l2.7-1.1
			c0.4-0.2,0.8-0.3,0.9-0.2c0.1,0.1,0.4,0.4,0.7,0.8l1.6,1.6c0.4,0.3,0.7,0.6,0.8,0.7c0.1,0.1,0,0.5-0.2,0.9l-1.1,2.7
			c-0.2,0.4,0,1,0.5,1.1l3.2,1.3c0.4,0.2,1,0,1.1-0.5l1.1-2.7c0.2-0.4,0.4-0.8,0.5-0.8c0.1,0,0.6,0.1,1,0.1c0,0,0.5,0.1,1.1,0.1
			c0.6,0,1.1-0.1,1.1-0.1c0.5-0.1,0.9-0.1,1-0.1c0.1,0,0.3,0.3,0.5,0.8l1.1,2.7c0.2,0.4,0.7,0.7,1.1,0.5l3.2-1.3
			c0.4-0.2,0.7-0.7,0.5-1.1l-1.1-2.7c-0.2-0.4-0.3-0.8-0.2-0.9c0.1-0.1,0.4-0.4,0.8-0.7l1.6-1.6c0.3-0.4,0.6-0.7,0.7-0.8
			c0.1-0.1,0.5,0,0.9,0.2l2.7,1.1c0.4,0.2,1,0,1.1-0.5l1.3-3.2C340.3,329.2,340.1,328.6,339.7,328.5z M323.8,333.4
			c-4.8,0-8.7-3.9-8.7-8.7c0-4.8,3.9-8.7,8.7-8.7c4.8,0,8.7,3.9,8.7,8.7C332.5,329.5,328.6,333.4,323.8,333.4z"/>
	</g>
</g>
</svg>
