<?xml version="1.0" encoding="utf-8"?>
<!-- Generator: Adobe Illustrator 19.1.0, SVG Export Plug-In . SVG Version: 6.00 Build 0)  -->
<!DOCTYPE svg PUBLIC "-//W3C//DTD SVG 1.1//EN" "http://www.w3.org/Graphics/SVG/1.1/DTD/svg11.dtd">
<svg version="1.1" xmlns="http://www.w3.org/2000/svg" xmlns:xlink="http://www.w3.org/1999/xlink" x="0px" y="0px"
	 viewBox="0 0 648 648" enable-background="new 0 0 648 648" xml:space="preserve">
<g id="Layer_1">
</g>
<g id="Isolation_Mode">
	<g>
		<path fill="#FFFFFF" d="M336.8,311.3c-2.3-2.3-4.9-1.4-5.9-0.6c-0.3,0.3-0.9,0.7-1.2,1.1c-0.4,0.4-0.7,1-0.6,1.6
			c-0.6,0-1.2,0.2-1.6,0.6l-16.3,16.3c-0.4,0.4-0.6,1-0.6,1.6c0,0.6,0.2,1.2,0.6,1.6l0.3,0.3c-0.4-0.2-0.9-0.3-1.3-0.1
			c-0.7,0.2-1.1,0.7-1.3,1.4l-0.6,2.4c-0.2,0.7,0,1.4,0.5,1.9c0.4,0.4,0.8,0.5,1.4,0.5c0.2,0,0.3,0,0.5-0.1l2.4-0.6
			c0.7-0.2,1.2-0.7,1.4-1.4c0.1-0.4,0.1-0.8-0.1-1.2l0.3,0.3c0.4,0.4,1,0.7,1.6,0.7c0.6,0,1.2-0.2,1.6-0.7l16.2-16.2
			c0.4-0.4,0.7-1,0.7-1.6c0,0,0,0,0,0c0.6,0,1.1-0.2,1.6-0.6c0.3-0.3,0.7-0.7,0.9-1l0.2-0.2C338.2,316.2,339.1,313.6,336.8,311.3z"
			/>
		<g>
			<path fill="#515150" d="M310.3,335.4l-0.6,2.3c-0.1,0.4,0.2,0.7,0.5,0.6l2.4-0.6c0.4-0.1,0.5-0.4,0.2-0.7l-1.8-1.8
				C310.7,334.9,310.4,335,310.3,335.4z"/>
			<path fill="#515150" d="M312.2,332.4l3.5,3.5c0.3,0.3,0.8,0.3,1.1,0l16.2-16.3c0.3-0.3,0.3-0.8,0-1.1l-3.5-3.5
				c-0.3-0.3-0.8-0.3-1.1,0l-16.3,16.3C311.9,331.6,311.9,332.1,312.2,332.4z"/>
			<path fill="#515150" d="M335.7,312.3c-2-2-4-0.5-4-0.5c-0.3,0.2-0.8,0.7-1.1,1c-0.3,0.3-0.3,0.7,0,1.1l3.5,3.5
				c0.3,0.3,0.8,0.3,1,0c0.3-0.3,0.7-0.8,1-1.1C336.2,316.3,337.7,314.3,335.7,312.3z"/>
		</g>
	</g>
</g>
</svg>
