<?xml version="1.0" encoding="utf-8"?>
<!-- Generator: Adobe Illustrator 18.1.0, SVG Export Plug-In . SVG Version: 6.00 Build 0)  -->
<!DOCTYPE svg PUBLIC "-//W3C//DTD SVG 1.1//EN" "http://www.w3.org/Graphics/SVG/1.1/DTD/svg11.dtd">
<svg version="1.1" xmlns="http://www.w3.org/2000/svg" xmlns:xlink="http://www.w3.org/1999/xlink" x="0px" y="0px"
	 viewBox="0 0 648 648" enable-background="new 0 0 648 648" xml:space="preserve">
<g id="Layer_1">
</g>
<g id="Completed_Icons">
	<polygon fill="#FFFFFF" points="344.9,313.8 329.2,299.7 329.2,301.6 305.1,301.6 305.1,350.7 342.5,350.7 342.5,313.8 	"/>
	<g>
		<path fill="#515150" d="M327.7,314.9v-11.8h-21.5v46.1h34.5v-34.3H327.7z M312.8,311.9h9.4v1.4h-9.4V311.9z M312.8,318.6h18.6v1.4
			h-18.6V318.6z M312.8,323.9h18.6v1.4h-18.6V323.9z M312.8,329.3h13.3v1.4h-13.3V329.3z M318.2,336h-5.4v-1.4h5.4V336z
			 M327.9,344.2l-6.7-6.3l2.2-2.3l4.3,4l7.4-8.8l2.4,2L327.9,344.2z"/>
		<polygon fill="#515150" points="330.4,303.1 330.4,312.3 340.7,312.3 		"/>
	</g>
</g>
</svg>
