<?xml version="1.0" encoding="utf-8"?>
<!-- Generator: Adobe Illustrator 18.1.0, SVG Export Plug-In . SVG Version: 6.00 Build 0)  -->
<!DOCTYPE svg PUBLIC "-//W3C//DTD SVG 1.1//EN" "http://www.w3.org/Graphics/SVG/1.1/DTD/svg11.dtd">
<svg version="1.1" xmlns="http://www.w3.org/2000/svg" xmlns:xlink="http://www.w3.org/1999/xlink" x="0px" y="0px"
	 viewBox="0 0 648 648" enable-background="new 0 0 648 648" xml:space="preserve">
<g id="Layer_1">
</g>
<g id="Completed_Icons">
	<path fill="#FFFFFF" d="M338.3,312c-3.6-4.2-8.6-6.6-13.9-6.6c-8.9,0-17,6.9-18.9,16l-0.4,1.8v3h-0.9v19.3l6.6-6.7
		c3.7,3.8,8.7,6.1,13.7,6.1c8.8,0,16.5-6.7,18.5-15.9l0.3-1.5l0.1-3.4h1.9v-19.1L338.3,312z"/>
	<g>
		<path fill="#515150" d="M338.2,314.4c-3.2-4.4-8.2-7.3-13.7-7.3c-8.2,0-15.7,6.4-17.5,14.8h5.8c1.3-6,5.7-9,11.6-9
			c4.5,0,8.1,1.7,10.1,5.1l-4.9,4.9h14v-14L338.2,314.4z"/>
		<path fill="#515150" d="M336.1,328.9c-1.3,6-5.7,8.9-11.6,8.9c-4.3,0-7.8-1.6-9.9-4.7l5.2-5.2h-14V342l5.1-5.2
			c3.4,4.1,8.3,6.8,13.6,6.8c8.2,0,15.3-6.4,17-14.7H336.1z"/>
	</g>
</g>
</svg>
