<?xml version="1.0" encoding="utf-8"?>
<!-- Generator: Adobe Illustrator 18.1.0, SVG Export Plug-In . SVG Version: 6.00 Build 0)  -->
<!DOCTYPE svg PUBLIC "-//W3C//DTD SVG 1.1//EN" "http://www.w3.org/Graphics/SVG/1.1/DTD/svg11.dtd">
<svg version="1.1" xmlns="http://www.w3.org/2000/svg" xmlns:xlink="http://www.w3.org/1999/xlink" x="0px" y="0px"
	 viewBox="0 0 648 648" enable-background="new 0 0 648 648" xml:space="preserve">
<g id="Layer_1">
</g>
<g id="Completed_Icons">
	<path fill="#FFFFFF" d="M351.7,339.7l-0.1-2.1c-0.2-2.6-0.8-8-1.3-10.5c-0.6-2.6-1.3-5-4.2-6.5c-2.3-1.2-3.5-1.6-4.6-1.6
		c-0.5,0-0.9,0.1-1.2,0.2c2.2-1.9,3.7-4.9,3.7-8.3c0-5.8-4.3-10.6-9.6-10.6c-5.3,0-9.6,4.8-9.6,10.6c0,3.4,1.4,6.4,3.7,8.3
		c-0.3-0.1-0.7-0.2-1.2-0.2c-1.1,0-2.3,0.4-4.6,1.6c-1.9,1-3.1,2.4-3.8,4.7l-0.3,1h-8.9l-1.6,1.9v2.7h-9.1v7.6v1.5v9.1h32v-9.1v-0.3
		H351.7z"/>
	<g>
		<g>
			<path fill="#515150" d="M323,330.3h9.4v7.2h17.2c-0.2-2.6-0.7-7.9-1.3-10.2c-0.6-2.7-1.2-4.1-3.2-5.1c-1.9-1-3-1.3-3.7-1.3
				c-0.6,0-1,0.3-1.4,0.7c-0.1,0-0.1,0.1-0.2,0.2c-1.9,1.6-3.7,2-5.6,2c-1.9,0-3.7-0.4-5.6-2c-0.1-0.1-0.1-0.1-0.2-0.2
				c-0.4-0.4-0.8-0.7-1.4-0.7c-0.7,0-1.7,0.4-3.7,1.3c-1.5,0.8-2.3,1.8-2.8,3.5l2.4,2.9V330.3z"/>
			<path fill="#515150" d="M334.2,319.3c4.2,0,7.6-3.9,7.6-8.6s-3.4-8.6-7.6-8.6c-4.2,0-7.6,3.9-7.6,8.6S330,319.3,334.2,319.3z"/>
		</g>
		<g id="Rectangle_45_9_">
			<g>
				<path fill="#515150" d="M308.1,337.2v4.6h1.5v-4.6H308.1z M320.3,337.2v4.6h1.5v-4.6H320.3z M323.3,343.3h-4.6v-3h-7.6v3h-4.6
					v-3h-6.1v7.6h29v-7.6h-6.1V343.3z M320.3,332.6V329l-0.8-0.9h-9.1l-0.8,0.9v3.7h-9.1v6.1h6.1v-3h4.6v3h7.6v-3h4.6v3h6.1v-6.1
					H320.3z M318.8,332.6h-7.6l0-3h7.6L318.8,332.6z"/>
			</g>
		</g>
	</g>
</g>
</svg>
