<?xml version="1.0" encoding="utf-8"?>
<!-- Generator: Adobe Illustrator 18.1.0, SVG Export Plug-In . SVG Version: 6.00 Build 0)  -->
<!DOCTYPE svg PUBLIC "-//W3C//DTD SVG 1.1//EN" "http://www.w3.org/Graphics/SVG/1.1/DTD/svg11.dtd">
<svg version="1.1" xmlns="http://www.w3.org/2000/svg" xmlns:xlink="http://www.w3.org/1999/xlink" x="0px" y="0px"
	 viewBox="0 0 648 648" enable-background="new 0 0 648 648" xml:space="preserve">
<g id="Layer_1">
</g>
<g id="Completed_Icons">
	<path fill="#FFFFFF" d="M315.4,348.1h39.3l-0.1-2.1c-0.2-3-0.9-9.2-1.5-12c-0.6-3-1.4-5.6-4.7-7.2c-2.6-1.3-3.9-1.8-5.1-1.8
		c-0.7,0-1.3,0.2-1.8,0.4v-0.5c2.6-2.2,4.3-5.6,4.3-9.5c0-6.5-4.8-11.9-10.8-11.9c-5.9,0-10.8,5.3-10.8,11.9c0,2.3,0.6,4.5,1.7,6.4
		c-1.9-0.9-3.1-1.3-4-1.3c-0.5,0-0.9,0.1-1.3,0.2v-0.4c2-1.9,3.2-4.6,3.2-7.6c0-5.6-4.3-10.2-9.7-10.2c-5.3,0-9.7,4.6-9.7,10.2
		c0,3.1,1.3,5.9,3.4,7.8v0.3c-0.4-0.2-0.9-0.3-1.4-0.3c-1.1,0-2.4,0.4-4.9,1.7c-3.1,1.6-3.9,4.2-4.5,6.9c-0.6,2.7-1.2,8.6-1.4,11.4
		l-0.1,2.1h20.2c-0.1,1.3-0.2,2.5-0.3,3.4L315.4,348.1z"/>
	<g>
		<path fill="#515150" d="M317.6,346.1c0.2-2.9,0.9-9,1.4-11.7c0.7-3.1,1.4-4.7,3.6-5.9c2.2-1.1,3.4-1.5,4.2-1.5
			c0.7,0,1.1,0.3,1.6,0.8c0.1,0.1,0.1,0.1,0.2,0.2c2.2,1.9,4.3,2.3,6.4,2.3c2.2,0,4.3-0.4,6.4-2.3c0.1-0.1,0.1-0.1,0.2-0.2
			c0.5-0.4,0.9-0.8,1.6-0.8c0.8,0,2,0.4,4.2,1.5c2.3,1.1,3,2.8,3.6,5.9c0.6,2.7,1.3,8.8,1.4,11.7H317.6L317.6,346.1z M335.1,325.2
			c-4.8,0-8.8-4.4-8.8-9.9c0-5.4,3.9-9.9,8.8-9.9c4.8,0,8.8,4.4,8.8,9.9C343.9,320.8,339.9,325.2,335.1,325.2L335.1,325.2z"/>
		<g>
			<path fill="#515150" d="M321.7,326.5c2.6-1.3,4-1.8,5.2-1.8c0.1,0,0.2,0,0.3,0c-0.4-0.3-0.8-0.6-1.3-0.8c-2.1-1.1-3.2-1.5-4-1.5
				c-0.7,0-1,0.3-1.5,0.7c-0.1,0.1-0.1,0.1-0.2,0.2c-2,1.8-4,2.1-6,2.1c-2,0-4-0.3-6-2.1c-0.1-0.1-0.1-0.1-0.2-0.2
				c-0.5-0.4-0.8-0.7-1.5-0.7c-0.7,0-1.9,0.4-4,1.5c-2.1,1.1-2.8,2.6-3.4,5.5c-0.6,2.6-1.2,8.3-1.4,11.1h18c0.3-2.5,0.6-5.1,1-6.7
				C317.5,331,318.3,328.2,321.7,326.5z"/>
			<path fill="#515150" d="M314.3,320.9c4.2,0,7.7-3.7,7.7-8.2c0-4.5-3.4-8.2-7.7-8.2c-4.2,0-7.7,3.7-7.7,8.2
				C306.6,317.2,310,320.9,314.3,320.9z"/>
		</g>
	</g>
</g>
</svg>
