<?xml version="1.0" encoding="utf-8"?>
<!-- Generator: Adobe Illustrator 19.1.0, SVG Export Plug-In . SVG Version: 6.00 Build 0)  -->
<svg version="1.1" xmlns="http://www.w3.org/2000/svg" xmlns:xlink="http://www.w3.org/1999/xlink" x="0px" y="0px" width="100px"
	 height="100px" 
	 viewBox="0 0 100 100" style="enable-background:new 0 0 100 100;" xml:space="preserve">
<style type="text/css">
	.st0{fill:#8C3123;}
	.st1{fill:#E05243;}
	.st2{fill:#5E1F18;}
	.st3{fill:#F2B0A9;}
	.st4{fill-rule:evenodd;clip-rule:evenodd;fill:#FFFFFF;}
	.st5{clip-path:url(#SVGID_2_);enable-background:new    ;}
	.st6{clip-path:url(#SVGID_4_);enable-background:new    ;}
	.st7{fill:#FFFFFF;}
	.st8{enable-background:new    ;}
	.st9{fill-rule:evenodd;clip-rule:evenodd;fill:#8C3123;}
	.st10{fill-rule:evenodd;clip-rule:evenodd;fill:#E05243;}
</style>
<g id="Layer_1">
	<polygon class="st0" points="25.5,78.9 15.9,74.1 15.9,25.9 25.5,21.1 42.5,51.7 	"/>
	<polygon class="st1" points="31.8,77 25.5,78.9 25.5,21.1 31.8,22.8 44.5,51.2 	"/>
	<polygon class="st0" points="50,69.3 79.7,76.3 82.7,29.7 44.5,30.8 	"/>
	<polygon class="st2" points="51.8,36.1 58.4,37.2 79.7,34.2 59.2,20 52,29.5 	"/>
	<polygon class="st0" points="31.8,82.1 50,91.2 55.8,51.5 50,8.8 31.8,17.9 	"/>
	<polygon class="st1" points="84.1,25.9 84.1,25.9 79.7,23.7 50,8.8 50,25.3 50,91.2 60.2,86.1 60.2,28.4 79.7,34.2 79.7,76.3 
		84.1,74.1 84.1,35.5 84.1,35.5 	"/>
</g>
<g id="Layer_2">
</g>
</svg>
