<?xml version="1.0" encoding="utf-8"?>
<!-- Generator: Adobe Illustrator 19.1.0, SVG Export Plug-In . SVG Version: 6.00 Build 0)  -->
<svg version="1.1" xmlns="http://www.w3.org/2000/svg" xmlns:xlink="http://www.w3.org/1999/xlink" x="0px" y="0px" width="100px"
	 height="100px" 
	 viewBox="0 0 100 100" style="enable-background:new 0 0 100 100;" xml:space="preserve">
<style type="text/css">
	.st0{fill:#8C3123;}
	.st1{fill:#E05243;}
	.st2{fill:#5E1F18;}
	.st3{fill:#F2B0A9;}
	.st4{fill-rule:evenodd;clip-rule:evenodd;fill:#FFFFFF;}
	.st5{clip-path:url(#SVGID_2_);enable-background:new    ;}
	.st6{clip-path:url(#SVGID_4_);enable-background:new    ;}
	.st7{fill:#FFFFFF;}
	.st8{enable-background:new    ;}
	.st9{fill-rule:evenodd;clip-rule:evenodd;fill:#8C3123;}
	.st10{fill-rule:evenodd;clip-rule:evenodd;fill:#E05243;}
</style>
<g id="Layer_1">
	<circle class="st0" cx="50" cy="51.3" r="30.4"/>
	<circle class="st1" cx="50" cy="48.7" r="30.4"/>
	<g>
		<path class="st7" d="M60.7,54.2H63v2h-2.4V54.2z M55,27h3l0,2.9h-2v-1h-1V27z M55.9,43.5l0-3.9h2l0,3.9L55.9,43.5z M57.9,46.4v3.9
			l-2,0v-3.9L57.9,46.4z M55.9,36.7l0-3.9l2,0l0,3.9H55.9z M48,27h4v2h-4V27z M42.1,27h3v2h-1v1h-2V27z M42.1,32.8h2v3.9h-2V32.8z
			 M42.1,39.6h2v3.9h-2V39.6z M42.1,46.5h2v3.9h-2V46.5z M37,54.3h2.4v2H37V54.3z M35.2,56.1v0.2H35l-1.1,1.1l-3.1-3.1h4.4v1.5
			l0.1,0.1L35.2,56.1z M39.7,63l-3.3-3.2l1.4-1.4l3.3,3.2L39.7,63z M41.1,54.3h1v-1h2v2.9h-3V54.3z M45.4,68.6l-3.3-3.2l1.4-1.4
			l3.3,3.2L45.4,68.6z M50,73L47.9,71l1.4-1.4l0.7,0.7l0.7-0.7l1.4,1.4L50,73z M54.6,68.6l-1.4-1.4l3.3-3.2l1.4,1.4L54.6,68.6z
			 M58.9,56.2h-3v-2.9h2v1h1V56.2z M60.3,62.9l-1.4-1.4l3.3-3.2l1.4,1.4L60.3,62.9z M66.1,57.3L65,56.2h-0.2V56l-0.1-0.1l0.1-0.1
			v-1.5h4.4L66.1,57.3z"/>
	</g>
</g>
<g id="Layer_2">
</g>
</svg>
