<?xml version="1.0" encoding="utf-8"?>
<!-- Generator: Adobe Illustrator 19.1.0, SVG Export Plug-In . SVG Version: 6.00 Build 0)  -->
<svg version="1.1" xmlns="http://www.w3.org/2000/svg" xmlns:xlink="http://www.w3.org/1999/xlink" x="0px" y="0px" width="100px"
	 height="100px" 
	 viewBox="0 0 100 100" style="enable-background:new 0 0 100 100;" xml:space="preserve">
<style type="text/css">
	.st0{fill:#8C3123;}
	.st1{fill:#E05243;}
	.st2{fill:#5E1F18;}
	.st3{fill:#F2B0A9;}
	.st4{fill-rule:evenodd;clip-rule:evenodd;fill:#FFFFFF;}
	.st5{clip-path:url(#SVGID_2_);enable-background:new    ;}
	.st6{clip-path:url(#SVGID_4_);enable-background:new    ;}
	.st7{fill:#FFFFFF;}
	.st8{enable-background:new    ;}
	.st9{fill-rule:evenodd;clip-rule:evenodd;fill:#8C3123;}
	.st10{fill-rule:evenodd;clip-rule:evenodd;fill:#E05243;}
</style>
<g id="Layer_1">
	<polygon class="st0" points="24.1,38.7 31.8,37.2 40.9,46.1 31.8,53.1 24.1,52.7 	"/>
	<polygon class="st3" points="57.5,57.3 74.7,78.8 84.2,57.2 68.2,56.2 	"/>
	<polygon class="st3" points="42.5,57.3 25.3,78.8 15.8,57.2 31.8,56.2 	"/>
	<polygon class="st1" points="84.2,57.2 74.7,58.6 74.7,78.8 84.2,74.1 	"/>
	<polygon class="st1" points="43.8,38.8 31.8,37.2 31.8,53.1 43.8,52.7 	"/>
	<polygon class="st0" points="56.1,38.8 68.1,37.2 74.7,45.7 68.1,53.1 56.1,52.7 	"/>
	<polygon class="st1" points="75.8,38.7 68.1,37.2 68.1,53.1 75.8,52.7 	"/>
	<polygon class="st0" points="37.7,36 50,33.5 59.1,45.1 50,54 37.7,53.4 	"/>
	<polygon class="st2" points="60.1,28.4 49.9,30.7 39.7,28.4 50,8.8 	"/>
	<polygon class="st0" points="57.5,57.3 74.7,58.6 74.7,78.8 57.5,74.2 	"/>
	<polygon class="st0" points="15.8,57.2 25.3,58.6 25.3,78.8 15.8,74.1 	"/>
	<polygon class="st1" points="42.5,57.3 25.3,58.6 25.3,78.8 42.5,74.2 	"/>
	<polygon class="st3" points="68.1,59.6 50,57.9 31.9,59.6 50,91.2 	"/>
	<polygon class="st1" points="68.1,59.6 50,62.3 50,91.2 68.1,82.1 	"/>
	<polygon class="st0" points="31.9,59.6 50,62.3 50,91.2 31.9,82.1 	"/>
	<polygon class="st1" points="62.2,36 50,33.5 50,54 62.2,53.4 	"/>
	<polygon class="st1" points="60.1,13.9 50,8.8 50,25.3 60.1,28.4 	"/>
	<polygon class="st0" points="39.7,13.9 50,8.8 50,25.3 39.7,28.4 	"/>
</g>
<g id="Layer_2">
</g>
</svg>
