<?xml version="1.0" encoding="utf-8"?>
<!-- Generator: Adobe Illustrator 19.1.0, SVG Export Plug-In . SVG Version: 6.00 Build 0)  -->
<svg version="1.1" xmlns="http://www.w3.org/2000/svg" xmlns:xlink="http://www.w3.org/1999/xlink" x="0px" y="0px" width="100px"
	 height="100px" 
	 viewBox="0 0 100 100" style="enable-background:new 0 0 100 100;" xml:space="preserve">
<style type="text/css">
	.st0{fill:#8C3123;}
	.st1{fill:#E05243;}
	.st2{fill:#5E1F18;}
	.st3{fill:#F2B0A9;}
	.st4{fill-rule:evenodd;clip-rule:evenodd;fill:#FFFFFF;}
	.st5{clip-path:url(#SVGID_2_);enable-background:new    ;}
	.st6{clip-path:url(#SVGID_4_);enable-background:new    ;}
	.st7{fill:#FFFFFF;}
	.st8{enable-background:new    ;}
	.st9{fill-rule:evenodd;clip-rule:evenodd;fill:#8C3123;}
	.st10{fill-rule:evenodd;clip-rule:evenodd;fill:#E05243;}
</style>
<g id="Layer_1">
	<g>
		<rect x="23.9" y="60" class="st0" width="52.2" height="18.4"/>
	</g>
	<g>
		<rect x="36.2" y="28.7" class="st0" width="26.9" height="12.9"/>
	</g>
	<g>
		<defs>
			<path id="SVGID_1_" d="M76.1,32.9v18.5c-4.6-2.1-10.8-4.1-18.7-4.7V28.2C65.3,28.9,71.5,30.8,76.1,32.9z"/>
		</defs>
		<use xlink:href="#SVGID_1_"  style="overflow:visible;fill:#8C3123;"/>
		<clipPath id="SVGID_2_">
			<use xlink:href="#SVGID_1_"  style="overflow:visible;"/>
		</clipPath>
		<g class="st5">
			<path class="st0" d="M76.1,48.3v3.2c-4.6-2.1-10.8-4.1-18.7-4.7v-3.2C65.3,44.2,71.5,46.2,76.1,48.3"/>
		</g>
	</g>
	<g>
		<defs>
			<path id="SVGID_3_" d="M41.9,33.4v13.8c-7.5,1.2-13.6,3.7-18,6V29.8C28.3,27.5,34.4,34.6,41.9,33.4z"/>
		</defs>
		<use xlink:href="#SVGID_3_"  style="overflow:visible;fill:#8C3123;"/>
		<clipPath id="SVGID_4_">
			<use xlink:href="#SVGID_3_"  style="overflow:visible;"/>
		</clipPath>
		<g class="st6">
			<path class="st0" d="M41.9,44v3.2c-7.5,1.2-13.6,3.7-18,6V50C28.3,47.7,34.4,45.2,41.9,44"/>
		</g>
	</g>
	<g>
		<path class="st1" d="M76.1,21.6v28.5v-1.8c-4.6-2.1-10.8-4.1-18.7-4.7v-5.1H41.9V44c-7.5,1.2-13.6,3.7-18,6V21.6H76.1z"/>
	</g>
	<g>
		<path class="st1" d="M57.4,48.9c7.9,0.7,14.1,2.7,18.7,4.8v21.5H23.9v-20c4.3-2.3,10.4-4.7,18-5.9v6.3h15.5V48.9z"/>
	</g>
</g>
<g id="Layer_2">
</g>
</svg>
