<?xml version="1.0" encoding="utf-8"?>
<!-- Generator: Adobe Illustrator 19.1.0, SVG Export Plug-In . SVG Version: 6.00 Build 0)  -->
<svg version="1.1" xmlns="http://www.w3.org/2000/svg" xmlns:xlink="http://www.w3.org/1999/xlink" x="0px" y="0px" width="100px"
	 height="100px" 
	 viewBox="0 0 100 100" style="enable-background:new 0 0 100 100;" xml:space="preserve">
<style type="text/css">
	.st0{fill:#8C3123;}
	.st1{fill:#E05243;}
	.st2{fill:#5E1F18;}
	.st3{fill:#F2B0A9;}
	.st4{fill-rule:evenodd;clip-rule:evenodd;fill:#FFFFFF;}
	.st5{clip-path:url(#SVGID_2_);enable-background:new    ;}
	.st6{clip-path:url(#SVGID_4_);enable-background:new    ;}
	.st7{fill:#FFFFFF;}
	.st8{enable-background:new    ;}
	.st9{fill-rule:evenodd;clip-rule:evenodd;fill:#8C3123;}
	.st10{fill-rule:evenodd;clip-rule:evenodd;fill:#E05243;}
</style>
<g id="Layer_1">
	<polygon class="st2" points="50,46.1 71.4,31 79.8,45.8 59.6,46.6 	"/>
	<polygon class="st2" points="50,46.1 28.6,33.7 20.2,45.8 40.4,46.6 	"/>
	<polygon class="st3" points="50,53.9 28.6,70.6 20.2,54.2 40.4,53.4 	"/>
	<polygon class="st3" points="50,53.9 71.4,70.6 79.8,54.2 59.6,53.4 	"/>
	<polygon class="st1" points="71.4,44.9 79.8,45.8 79.8,28.9 71.4,31 	"/>
	<polygon class="st0" points="41.1,32 71.4,31.7 71.4,44.9 50,46.1 	"/>
	<polygon class="st1" points="71.4,55.1 79.8,54.2 79.8,71.1 71.4,70.3 	"/>
	<polygon class="st0" points="42.4,67.8 71.4,65.2 71.4,55.1 50,53.9 	"/>
	<polygon class="st1" points="50,31.7 25,31.8 28.6,44.9 50,46.1 	"/>
	<polygon class="st0" points="28.6,44.9 20.2,45.8 20.2,28.9 28.6,29.5 	"/>
	<polygon class="st0" points="28.6,55.1 20.2,54.2 20.2,71.1 28.6,70.2 	"/>
	<polygon class="st1" points="50,69 28.6,65.2 28.6,55.1 50,53.9 	"/>
	<polygon class="st1" points="62.6,41.1 50,39.3 38.1,50.5 50,60.9 62.6,59 	"/>
	<polygon class="st0" points="37.4,41.1 50,39.3 50,60.9 37.4,59 	"/>
	<polygon class="st2" points="71.4,34.8 50,38.3 28.6,34.8 50,14 	"/>
	<polygon class="st3" points="71.4,65.2 50,61.7 28.6,65.2 50,86 	"/>
	<polygon class="st1" points="79.8,62.7 50,71.6 50,86 79.8,71.1 	"/>
	<polygon class="st0" points="20.2,62.7 50,71.6 50,86 20.2,71.1 	"/>
	<polygon class="st1" points="79.8,37.3 50,28.4 50,14 79.8,28.9 	"/>
	<polygon class="st0" points="20.2,37.3 50,28.4 50,14 20.2,28.9 	"/>
</g>
<g id="Layer_2">
</g>
</svg>
