<?xml version="1.0" encoding="utf-8"?>
<!-- Generator: Adobe Illustrator 19.1.0, SVG Export Plug-In . SVG Version: 6.00 Build 0)  -->
<svg version="1.1" xmlns="http://www.w3.org/2000/svg" xmlns:xlink="http://www.w3.org/1999/xlink" x="0px" y="0px" width="100px"
	 height="100px" 
	 viewBox="0 0 100 100" style="enable-background:new 0 0 100 100;" xml:space="preserve">
<style type="text/css">
	.st0{fill:#8C3123;}
	.st1{fill:#E05243;}
	.st2{fill:#5E1F18;}
	.st3{fill:#F2B0A9;}
	.st4{fill-rule:evenodd;clip-rule:evenodd;fill:#FFFFFF;}
	.st5{clip-path:url(#SVGID_2_);enable-background:new    ;}
	.st6{clip-path:url(#SVGID_4_);enable-background:new    ;}
	.st7{fill:#FFFFFF;}
	.st8{enable-background:new    ;}
	.st9{fill-rule:evenodd;clip-rule:evenodd;fill:#8C3123;}
	.st10{fill-rule:evenodd;clip-rule:evenodd;fill:#E05243;}
</style>
<g id="Layer_1">
	<g>
		<path class="st0" d="M49.1,24l28,3.3v2.5c0,3.2-12.5,5.8-28,5.8c-15.4,0-28-2.6-28-5.8v-2.5L49.1,24z"/>
	</g>
	<g>
		<polygon class="st0" points="76.9,34.3 72.9,49.3 59.7,40.4 59.7,47.8 44.6,47.8 34.4,40.9 34.4,48.2 25,48.2 21.3,34.3 
			21.3,31.8 22.7,34.5 49.1,39.5 76.3,34 76.9,31.8 		"/>
	</g>
	<g>
		<polygon class="st0" points="63.8,47.5 78.9,55.2 78.9,57.7 63.8,67.8 63.8,62.6 51.4,62.6 58.1,58.1 50.7,52.6 63.8,52.6 		"/>
	</g>
	<g>
		<polygon class="st0" points="36.8,47.9 43.3,52.4 51.4,55.7 51.4,58.2 45,62.7 36.8,68.2 36.8,63 23.7,63 23.7,53.1 36.8,53.1 		
			"/>
	</g>
	<g>
		<path class="st0" d="M62.6,67v7.3l4.1-2.7l1.9-3.7v2.5l-0.9,3.8c0,2.1-8.3,4.1-18.6,4.1c-10.3,0-18.6-1.7-18.6-3.9l-1.7-6.6v-2.5
			l5.7,2.5v5.6l11.6-6L62.6,67z"/>
	</g>
	<g>
		<path class="st1" d="M49.1,21.6c15.4,0,28,2.6,28,5.8c0,3.2-12.5,5.8-28,5.8c-15.4,0-28-2.6-28-5.8C21.1,24.1,33.6,21.6,49.1,21.6
			z"/>
	</g>
	<g>
		<path class="st1" d="M76.9,31.8l-4,15.1L59.7,38v7.4H44.6l-10.3-6.9v7.4H25l-3.7-13.9c1.5,2.9,13.4,5.2,27.8,5.2
			C63.5,37,75.3,34.7,76.9,31.8z"/>
	</g>
	<g>
		<polygon class="st1" points="63.8,45 78.9,55.2 63.8,65.3 63.8,60.1 51.4,60.1 58.1,55.6 50.7,50.1 63.8,50.2 		"/>
	</g>
	<g>
		<polygon class="st1" points="36.8,45.5 43.3,49.9 51.4,55.7 45,60.2 36.8,65.7 36.8,60.6 23.7,60.6 23.7,50.6 36.8,50.6 		"/>
	</g>
	<g>
		<path class="st1" d="M62.6,64.5v7.3l6-3.9l-0.9,3.8c0,2.1-8.3,4.1-18.6,4.1c-10.3,0-18.6-1.7-18.6-3.9l-1.7-6.6h5.7v7.3L45.9,65
			L62.6,64.5z"/>
	</g>
</g>
<g id="Layer_2">
</g>
</svg>
