<?xml version="1.0" encoding="utf-8"?>
<!-- Generator: Adobe Illustrator 19.1.0, SVG Export Plug-In . SVG Version: 6.00 Build 0)  -->
<svg version="1.1" xmlns="http://www.w3.org/2000/svg" xmlns:xlink="http://www.w3.org/1999/xlink" x="0px" y="0px" width="100px"
	 height="100px" 
	 viewBox="0 0 100 100" style="enable-background:new 0 0 100 100;" xml:space="preserve">
<style type="text/css">
	.st0{fill:#8C3123;}
	.st1{fill:#E05243;}
	.st2{fill:#5E1F18;}
	.st3{fill:#F2B0A9;}
	.st4{fill-rule:evenodd;clip-rule:evenodd;fill:#FFFFFF;}
	.st5{clip-path:url(#SVGID_2_);enable-background:new    ;}
	.st6{clip-path:url(#SVGID_4_);enable-background:new    ;}
	.st7{fill:#FFFFFF;}
	.st8{enable-background:new    ;}
	.st9{fill-rule:evenodd;clip-rule:evenodd;fill:#8C3123;}
	.st10{fill-rule:evenodd;clip-rule:evenodd;fill:#E05243;}
</style>
<g id="Layer_1">
	<g>
		<g>
			<g>
				<rect x="35.5" y="26.6" class="st9" width="29" height="7.7"/>
			</g>
		</g>
	</g>
	<polygon class="st0" points="61,20 39,20 36,20.5 36,23 64,23 64,20.5 	"/>
	<g>
		<path class="st0" d="M50,30.4l26.5,3.9l0,2.3c0,3.5-11.9,6.2-26.5,6.2c-14.6,0-26.5-2.8-26.5-6.2l0-2.5L50,30.4z"/>
	</g>
	<g>
		<path class="st0" d="M50,47.1c11.1,0,20.6-1.6,24.5-3.9l1.3-2.2l0.5-2v2.5l-8.7,37c0,2.3-7.9,4.1-17.7,4.1
			c-9.8,0-17.7-1.8-17.7-4.1l-8.7-37l0-2.5l2,4.2C29.7,45.6,39.1,47.1,50,47.1z"/>
	</g>
	<g>
		<g>
			<g>
				<rect x="35.5" y="24.1" class="st10" width="29" height="7.7"/>
			</g>
		</g>
	</g>
	<polygon class="st1" points="61,17.5 39,17.5 36,20.5 64,20.5 	"/>
	<g>
		<path class="st1" d="M50,27.9c14.6,0,26.5,2.8,26.5,6.2c0,3.5-11.9,6.2-26.5,6.2c-14.6,0-26.5-2.8-26.5-6.2
			C23.5,30.7,35.4,27.9,50,27.9z"/>
	</g>
	<g>
		<path class="st1" d="M50,44.6c13.6,0,24.9-2.4,26.3-5.5l-8.7,37c0,2.3-7.9,4.1-17.7,4.1c-9.8,0-17.7-1.8-17.7-4.1l-8.7-37
			C25.2,42.2,36.4,44.6,50,44.6z"/>
	</g>
</g>
<g id="Layer_2">
</g>
</svg>
