<?xml version="1.0" encoding="utf-8"?>
<!-- Generator: Adobe Illustrator 19.1.0, SVG Export Plug-In . SVG Version: 6.00 Build 0)  -->
<svg version="1.1" xmlns="http://www.w3.org/2000/svg" xmlns:xlink="http://www.w3.org/1999/xlink" x="0px" y="0px" width="100px"
	 height="100px" 
	 viewBox="0 0 100 100" style="enable-background:new 0 0 100 100;" xml:space="preserve">
<style type="text/css">
	.st0{fill:#8C3123;}
	.st1{fill:#E05243;}
	.st2{fill:#5E1F18;}
	.st3{fill:#F2B0A9;}
	.st4{fill-rule:evenodd;clip-rule:evenodd;fill:#FFFFFF;}
	.st5{clip-path:url(#SVGID_2_);enable-background:new    ;}
	.st6{clip-path:url(#SVGID_4_);enable-background:new    ;}
	.st7{fill:#FFFFFF;}
	.st8{enable-background:new    ;}
	.st9{fill-rule:evenodd;clip-rule:evenodd;fill:#8C3123;}
	.st10{fill-rule:evenodd;clip-rule:evenodd;fill:#E05243;}
</style>
<g id="Layer_1">
	<polygon class="st0" points="21.4,23.1 15.9,25.9 15.9,74 21.4,76.8 34.9,49.9 	"/>
	<polygon class="st1" points="50,69.8 21.4,76.8 21.4,23.1 50,30 63.5,50 	"/>
	<polygon class="st0" points="50,69.8 78.6,76.8 83.5,50.6 78.6,23.1 50,30 	"/>
	<polygon class="st1" points="78.6,23.1 84.1,25.9 84.1,74 78.6,76.8 	"/>
	<polygon class="st0" points="37.5,58.8 50,60.4 59.9,50 50,39.6 37.5,41.2 	"/>
	<polygon class="st2" points="62.5,32.7 50,35 37.5,32.7 50,8.8 	"/>
	<polygon class="st3" points="62.5,67.3 50,65 37.5,67.3 50,91.2 	"/>
	<polygon class="st1" points="62.5,32.7 50,29.6 50,8.8 62.5,15.1 	"/>
	<polygon class="st0" points="37.5,32.7 50,29.6 50,8.8 37.5,15.1 	"/>
	<polygon class="st1" points="50,91.2 62.5,84.9 62.5,67.3 50,70.4 	"/>
	<polygon class="st0" points="50,91.2 37.5,84.9 37.5,67.3 50,70.4 	"/>
	<polygon class="st1" points="62.5,58.8 50,60.4 50,39.6 62.5,41.2 	"/>
</g>
<g id="Layer_2">
</g>
</svg>
