<?xml version="1.0" encoding="utf-8"?>
<!-- Generator: Adobe Illustrator 19.1.0, SVG Export Plug-In . SVG Version: 6.00 Build 0)  -->
<svg version="1.1" xmlns="http://www.w3.org/2000/svg" xmlns:xlink="http://www.w3.org/1999/xlink" x="0px" y="0px" width="100px"
	 height="100px" 
	 viewBox="0 0 100 100" style="enable-background:new 0 0 100 100;" xml:space="preserve">
<style type="text/css">
	.st0{fill:#8C3123;}
	.st1{fill:#E05243;}
	.st2{fill:#5E1F18;}
	.st3{fill:#F2B0A9;}
	.st4{fill-rule:evenodd;clip-rule:evenodd;fill:#FFFFFF;}
	.st5{clip-path:url(#SVGID_2_);enable-background:new    ;}
	.st6{clip-path:url(#SVGID_4_);enable-background:new    ;}
	.st7{fill:#FFFFFF;}
	.st8{enable-background:new    ;}
	.st9{fill-rule:evenodd;clip-rule:evenodd;fill:#8C3123;}
	.st10{fill-rule:evenodd;clip-rule:evenodd;fill:#E05243;}
</style>
<g id="Layer_1">
	<polygon class="st3" points="39.7,57 24,78.1 15.8,57.1 30.8,56.2 	"/>
	<polygon class="st3" points="60.1,57 76,78.2 84.1,57.1 69.2,56.2 	"/>
	<polygon class="st2" points="39.7,43 24,21.8 15.8,43 30.9,43.9 	"/>
	<polygon class="st2" points="60.1,43 76,21.8 84.2,43 69.2,43.9 	"/>
	<polygon class="st0" points="60.1,43 76,41.8 76,21.8 60.1,25.9 	"/>
	<polygon class="st1" points="84.2,43 76,41.8 76,21.8 84.2,25.9 	"/>
	<polygon class="st0" points="60.1,57 76,58.3 76,78.2 60.1,74.1 	"/>
	<polygon class="st1" points="84.1,57.1 76,58.3 76,78.2 84.1,74.2 	"/>
	<polygon class="st1" points="39.7,43 24,41.8 24,21.8 39.7,25.9 	"/>
	<polygon class="st0" points="15.8,43 24,41.8 24,21.8 15.8,25.9 	"/>
	<polygon class="st1" points="39.7,57 24,58.3 24,78.2 39.7,74.1 	"/>
	<polygon class="st0" points="15.8,57.1 24,58.3 24,78.2 15.8,74.1 	"/>
	<polygon class="st3" points="66.3,59.7 50,58 33.5,59.6 50,91.2 	"/>
	<polygon class="st2" points="66.3,40.4 50,42 33.5,40.4 50,8.8 	"/>
	<polygon class="st1" points="66.3,40.4 50,38 50,8.8 66.3,17 	"/>
	<polygon class="st0" points="33.5,40.4 50,38 50,8.8 33.5,17.1 	"/>
	<polygon class="st1" points="66.3,59.7 50,62 50,91.2 66.3,83.1 	"/>
	<polygon class="st0" points="33.5,59.6 50,62 50,91.2 33.5,83 	"/>
</g>
<g id="Layer_2">
</g>
</svg>
