<?xml version="1.0" encoding="utf-8"?>
<!-- Generator: Adobe Illustrator 19.1.0, SVG Export Plug-In . SVG Version: 6.00 Build 0)  -->
<svg version="1.1" xmlns="http://www.w3.org/2000/svg" xmlns:xlink="http://www.w3.org/1999/xlink" x="0px" y="0px" width="100px"
	 height="100px" 
	 viewBox="0 0 100 100" style="enable-background:new 0 0 100 100;" xml:space="preserve">
<style type="text/css">
	.st0{fill:#8C3123;}
	.st1{fill:#E05243;}
	.st2{fill:#5E1F18;}
	.st3{fill:#F2B0A9;}
	.st4{fill-rule:evenodd;clip-rule:evenodd;fill:#FFFFFF;}
	.st5{clip-path:url(#SVGID_2_);enable-background:new    ;}
	.st6{clip-path:url(#SVGID_4_);enable-background:new    ;}
	.st7{fill:#FFFFFF;}
	.st8{enable-background:new    ;}
	.st9{fill-rule:evenodd;clip-rule:evenodd;fill:#8C3123;}
	.st10{fill-rule:evenodd;clip-rule:evenodd;fill:#E05243;}
</style>
<g id="Layer_1">
	<g>
		<polygon class="st0" points="76.5,19.7 76.5,82.8 57.7,82.8 57.7,72.7 42.3,72.7 42.3,82.8 23.5,82.8 23.5,19.7 		"/>
	</g>
	<g>
		<polygon class="st1" points="76.5,17.2 76.5,80.3 57.7,80.3 57.7,70.2 42.3,70.2 42.3,80.3 23.5,80.3 23.5,17.2 		"/>
	</g>
	<g>
		<path class="st7" d="M37.5,32.7v0.2c0,2-0.8,4-3.4,4c-2.8,0-3.7-1.8-3.7-5.8c0-4,0.9-5.8,3.7-5.8c3.2,0,3.4,2.3,3.4,3.5V29h-1.8
			v-0.2c0-1-0.3-2.2-1.6-2.2c-1.3,0-1.9,0.8-1.9,4.4c0,3.6,0.6,4.5,1.9,4.5c1.5,0,1.7-1.6,1.7-2.7v-0.2L37.5,32.7L37.5,32.7z"/>
		<path class="st7" d="M40.9,25.6h2.3l2.9,11.1h-1.9l-0.7-2.7h-3.3l-0.7,2.7h-1.9L40.9,25.6z M43.3,32.5L42,27.1h0l-1.3,5.5H43.3z"
			/>
		<path class="st7" d="M53.7,32.7v0.2c0,2-0.8,4-3.4,4c-2.8,0-3.7-1.8-3.7-5.8c0-4,0.9-5.8,3.7-5.8c3.2,0,3.4,2.3,3.4,3.5V29h-1.8
			v-0.2c0-1-0.3-2.2-1.6-2.2c-1.3,0-1.9,0.8-1.9,4.4c0,3.6,0.6,4.5,1.9,4.5c1.5,0,1.7-1.6,1.7-2.7v-0.2L53.7,32.7L53.7,32.7z"/>
		<path class="st7" d="M55,25.6h1.8V30h3.3v-4.4h1.8v11.1h-1.8v-5.2h-3.3v5.2H55V25.6z"/>
		<path class="st7" d="M63.7,25.6h6v1.5h-4.3v3.1h4v1.5h-4v3.5h4.4v1.5h-6.2V25.6z"/>
	</g>
</g>
<g id="Layer_2">
</g>
</svg>
