<?xml version="1.0" encoding="utf-8"?>
<!-- Generator: Adobe Illustrator 19.1.0, SVG Export Plug-In . SVG Version: 6.00 Build 0)  -->
<svg version="1.1" xmlns="http://www.w3.org/2000/svg" xmlns:xlink="http://www.w3.org/1999/xlink" x="0px" y="0px" width="100px"
	 height="100px" 
	 viewBox="0 0 100 100" style="enable-background:new 0 0 100 100;" xml:space="preserve">
<style type="text/css">
	.st0{fill:#8C3123;}
	.st1{fill:#E05243;}
	.st2{fill:#5E1F18;}
	.st3{fill:#F2B0A9;}
	.st4{fill-rule:evenodd;clip-rule:evenodd;fill:#FFFFFF;}
	.st5{clip-path:url(#SVGID_2_);enable-background:new    ;}
	.st6{clip-path:url(#SVGID_4_);enable-background:new    ;}
	.st7{fill:#FFFFFF;}
	.st8{enable-background:new    ;}
	.st9{fill-rule:evenodd;clip-rule:evenodd;fill:#8C3123;}
	.st10{fill-rule:evenodd;clip-rule:evenodd;fill:#E05243;}
</style>
<g id="Layer_1">
	<g>
		<polygon class="st0" points="76.5,19.7 76.5,82.8 57.7,82.8 57.7,72.7 42.3,72.7 42.3,82.8 23.5,82.8 23.5,19.7 		"/>
	</g>
	<g>
		<polygon class="st1" points="76.5,17.2 76.5,80.3 57.7,80.3 57.7,70.2 42.3,70.2 42.3,80.3 23.5,80.3 23.5,17.2 		"/>
	</g>
	<path class="st0" d="M67.6,44.5c-1.1-0.5-2.6-1-3.8-1.1c-0.7-0.1-2,1.4-2.7,1.4c-3.6,0.4-7,2.6-8.6,6.1c-1.5,3.1-1.3,6.5,0.1,9.4
		c0.2,0.5-6.5,1.5-6.1,0.9c1.3-1.8,2.1-3.9,2.1-6.2c0-5.7-4.5-10.4-10.1-10.7c-0.2,0-1.4-1.6-1.6-1.6c-1.9,0-2.7,0.3-4.2,1.2
		c-0.3,0.2-0.6,2.1-0.9,2.3c-2.8,1.9-4.6,5.2-4.6,8.8c0,5.9,4.8,10.7,10.7,10.7c1.9,0,3.7-0.5,5.2-1.4c0.6,0.1,1.2,0.1,1.9,0.1
		c0,0,5.1,0.6,10.5-0.7c0.7,0.5,1.4,1,2.2,1.4c5.4,2.5,11.8,0.2,14.3-5.1c2.2-4.7,0.7-10.2-3.4-13.2C68,46.4,68.2,44.8,67.6,44.5z
		 M35,60.6l-1.5,1.2c-0.8,0.7-3.3-1.9-3-2.6c0.1-0.2,0.3-0.4,0.5-0.6l1.5-1.3c0.9-0.7,2.1-0.5,2.8,0.3v0.2
		C36,58.7,35.8,59.9,35,60.6z M34,50.2l-0.6-1.9c-0.4-1,0.2-2.2,1.2-2.5l0.2-0.1c1-0.4,2.2,0.2,2.5,1.2l0.6,1.9
		c0.4,1-0.2,2.2-1.2,2.5l-0.2,0.1C35.5,51.8,34.3,51.2,34,50.2z M37.7,56.5c-0.8,0-1.5-0.7-1.5-1.5s0.7-1.5,1.5-1.5s1.5,0.7,1.5,1.5
		S38.5,56.5,37.7,56.5z M43.2,57.7c-1.1,0-1.9-0.9-1.9-2v-0.2c0-1.1,0.9-1.9,2-1.9h2c1.1,0,1.9,0.9,1.9,2v0.2c0,1.1-0.9,1.9-2,1.9
		H43.2z M58.4,54.8V55c-0.2,1.1-1.1,1.8-2.2,1.7l-1.9-0.2c-1.1-0.2-1.8-1.1-1.7-2.2v-0.2c0.2-1.1,1.1-1.8,2.2-1.7l1.9,0.2
		C57.8,52.8,58.5,53.7,58.4,54.8z M61,56.3c-0.3-0.4-0.3-1-0.1-1.5c0.3-0.7,1.2-1.1,2-0.7c0.3,0.2,0.6,0.5,0.7,0.9
		C63.7,55.3,61.1,56.5,61,56.3z M62.6,63.1l-0.5-1.9c-0.3-1.1,0.4-2.1,1.4-2.4h0.2c1.1-0.3,2.1,0.4,2.4,1.4l0.5,1.8
		C66.6,62.1,62.9,64.1,62.6,63.1z M67.8,49.9l-0.9,1.8c-0.5,1-1.6,1.4-2.6,0.9l-0.2-0.1c-1-0.5-1.4-1.6-0.9-2.6l0.9-1.8
		c0.5-1,1.6-1.4,2.6-0.9l0.2,0.1C67.9,47.8,68.3,48.9,67.8,49.9z"/>
	<path class="st7" d="M66.8,43.3c-5.4-2.5-11.8-0.2-14.3,5.1c-1.7,3.6-1.2,7.7,0.9,10.8c-2.5,0.6-5.3,1-8.2,1c2-2,3.3-4.7,3.3-7.7
		c0-5.9-4.8-10.7-10.7-10.7c-5.9,0-10.7,4.8-10.7,10.7c0,5.9,4.8,10.7,10.7,10.7c1.9,0,3.7-0.5,5.2-1.4c0.6,0.1,1.2,0.1,1.9,0.1
		c0,0,5.1,0.6,10.5-0.7c0.7,0.5,1.4,1,2.2,1.4c5.4,2.5,11.8,0.2,14.3-5.1C74.4,52.2,72.2,45.8,66.8,43.3z M35,58.1l-1.5,1.2
		c-0.8,0.7-2,0.5-2.7-0.3l-0.1-0.2c-0.7-0.8-0.5-2,0.3-2.7l1.5-1.3c0.9-0.7,2.1-0.5,2.8,0.3v0.2C36,56.2,35.8,57.4,35,58.1z
		 M34,47.7l-0.6-1.9c-0.4-1,0.2-2.2,1.2-2.5l0.2-0.1c1-0.4,2.2,0.2,2.5,1.2l0.6,1.9c0.4,1-0.2,2.2-1.2,2.5l-0.2,0.1
		C35.5,49.3,34.3,48.7,34,47.7z M37.7,54c-0.8,0-1.5-0.7-1.5-1.5s0.7-1.5,1.5-1.5s1.5,0.7,1.5,1.5S38.5,54,37.7,54z M43.2,55.2
		c-1.1,0-1.9-0.9-1.9-2V53c0-1.1,0.9-1.9,2-1.9h2c1.1,0,1.9,0.9,1.9,2v0.2c0,1.1-0.9,1.9-2,1.9H43.2z M58.4,52.3v0.2
		c-0.2,1.1-1.1,1.8-2.2,1.7L54.3,54c-1.1-0.2-1.8-1.1-1.7-2.2v-0.2c0.2-1.1,1.1-1.8,2.2-1.7l1.9,0.2C57.8,50.3,58.5,51.2,58.4,52.3z
		 M61.6,54.3c-0.7-0.3-1.1-1.2-0.7-2c0.3-0.7,1.2-1.1,2-0.7c0.7,0.4,1,1.3,0.7,2C63.3,54.3,62.4,54.7,61.6,54.3z M65.2,61.9L65,62
		c-1.1,0.3-2.1-0.4-2.4-1.4l-0.5-1.9c-0.3-1.1,0.4-2.1,1.4-2.4h0.2c1.1-0.3,2.1,0.4,2.4,1.4l0.5,1.8C66.9,60.6,66.2,61.6,65.2,61.9z
		 M67.8,47.4l-0.9,1.8c-0.5,1-1.6,1.4-2.6,0.9L64.1,50c-1-0.5-1.4-1.6-0.9-2.6l0.9-1.8c0.5-1,1.6-1.4,2.6-0.9l0.2,0.1
		C67.9,45.3,68.3,46.4,67.8,47.4z"/>
	<g class="st8">
		<path class="st7" d="M40.9,33.7h-1.7l-4-11.4h1.6l3.3,9.9h0l3.3-9.9H45L40.9,33.7z"/>
	</g>
	<g class="st8">
		<path class="st7" d="M49.8,23.5H46v-1.3h9.1v1.3h-3.8v10.1h-1.5V23.5z"/>
	</g>
	<g class="st8">
		<path class="st7" d="M57.3,22.2h1.5v10.1h6v1.3h-7.6V22.2z"/>
	</g>
</g>
<g id="Layer_2">
</g>
</svg>
