<?xml version="1.0" encoding="utf-8"?>
<!-- Generator: Adobe Illustrator 18.1.0, SVG Export Plug-In . SVG Version: 6.00 Build 0)  -->
<!DOCTYPE svg PUBLIC "-//W3C//DTD SVG 1.1//EN" "http://www.w3.org/Graphics/SVG/1.1/DTD/svg11.dtd">
<svg version="1.1" xmlns="http://www.w3.org/2000/svg" xmlns:xlink="http://www.w3.org/1999/xlink" x="0px" y="0px"
	 viewBox="0 0 648 648" enable-background="new 0 0 648 648" xml:space="preserve">
<g id="Layer_1">
</g>
<g id="Completed_Icons">
	<path fill="#FFFFFF" d="M346.8,328.8c0-3.4-6.2-5-12.4-5c-1.1,0-2.3,0.1-3.4,0.2v-24.5c0-2.5-2-4.5-4.5-4.5h-21
		c-2.5,0-4.5,2-4.5,4.5v51h21.4c1.7,3.5,8,4,11.9,4c4.4,0,11.9-0.7,12.3-5.5l0-19.5C346.8,329.4,346.8,329.1,346.8,328.8z"/>
	<g>
		<path fill="#515150" d="M334.5,340.2c-0.4,0-0.7,0.1-0.9,0.4s-0.3,0.7-0.3,1.2c0,0.5,0.1,0.9,0.3,1.2s0.5,0.4,0.9,0.4
			c0.3,0,0.6-0.1,0.8-0.4s0.3-0.7,0.3-1.2c0-0.5-0.1-0.9-0.3-1.2S334.9,340.2,334.5,340.2z"/>
		<ellipse fill="#515150" cx="334.5" cy="328.8" rx="10.9" ry="3.4"/>
		<path fill="#515150" d="M329.6,299.6c0-1.7-1.4-3-3-3h-21c-1.6,0-3,1.3-3,3v49.5h18.8v-0.9v-5.1h-13.5v-2.3h13.5v-4.5h-13.5v-2.3
			h13.5v-4.6v-0.7c0-3.2,3.8-4.8,8.3-5.4V299.6z M324.3,305.6h-16.5v-2.3h16.5V305.6z"/>
		<polygon fill="none" points="338.6,345 338.6,338.7 340.5,338.7 340.5,343.5 342.6,343.5 342.6,345 		"/>
		<polygon fill="none" points="338.6,345 338.6,338.7 340.5,338.7 340.5,343.5 342.6,343.5 342.6,345 		"/>
		<path fill="#515150" d="M334.5,333.8c-4.3,0-8.6-0.8-10.9-2.4v16.7v0.9c0.4,3.8,8.1,4.1,10.8,4.1c2.7,0,10.5-0.3,10.8-4.1v-0.9
			v-16.7C343.1,333,338.7,333.8,334.5,333.8z M330.6,344.2c-0.2,0.3-0.5,0.5-0.9,0.7s-0.9,0.2-1.5,0.2c-0.7,0-1.3-0.1-1.8-0.3v-1.7
			c0.3,0.2,0.6,0.3,0.9,0.5s0.6,0.2,0.9,0.2c0.2,0,0.4,0,0.5-0.1s0.2-0.2,0.2-0.3c0-0.1,0-0.2-0.1-0.3s-0.1-0.2-0.3-0.2
			s-0.3-0.2-0.6-0.3c-1-0.4-1.5-1-1.5-1.9c0-0.6,0.2-1.1,0.7-1.5s1.1-0.5,1.9-0.5c0.2,0,0.4,0,0.6,0s0.4,0,0.5,0.1s0.4,0.1,0.6,0.1
			v1.6c-0.5-0.3-1.1-0.4-1.6-0.4c-0.2,0-0.4,0-0.5,0.1s-0.2,0.2-0.2,0.3c0,0.1,0.1,0.2,0.2,0.3s0.3,0.2,0.7,0.3
			c0.7,0.3,1.1,0.6,1.4,0.9s0.4,0.7,0.4,1.1C330.9,343.5,330.8,343.9,330.6,344.2z M336,345.9l-0.8-0.8c-0.2,0-0.5,0.1-0.7,0.1
			c-0.6,0-1.1-0.1-1.6-0.4s-0.9-0.6-1.1-1.1s-0.4-1-0.4-1.6c0-0.6,0.1-1.2,0.4-1.7s0.7-0.9,1.1-1.2s1.1-0.4,1.7-0.4
			c0.6,0,1.1,0.1,1.6,0.4s0.8,0.7,1.1,1.1s0.4,1.1,0.4,1.7c0,1-0.3,1.8-0.9,2.4l1.7,1.6H336z M342.6,345h-4.1v-6.3h1.9v4.8h2.2V345z
			"/>
	</g>
</g>
</svg>
