<?xml version="1.0" encoding="utf-8"?>
<!-- Generator: Adobe Illustrator 18.1.0, SVG Export Plug-In . SVG Version: 6.00 Build 0)  -->
<!DOCTYPE svg PUBLIC "-//W3C//DTD SVG 1.1//EN" "http://www.w3.org/Graphics/SVG/1.1/DTD/svg11.dtd">
<svg version="1.1" xmlns="http://www.w3.org/2000/svg" xmlns:xlink="http://www.w3.org/1999/xlink" x="0px" y="0px"
	 viewBox="0 0 648 648" enable-background="new 0 0 648 648" xml:space="preserve">
<g id="Layer_1">
</g>
<g id="Isolation_Mode">
	<path fill="#FFFFFF" d="M343.8,321c4.7,0,8.5-4,8.5-8.9c0-4.4-3.1-8.1-7.2-8.7c-0.9-0.9-2.1-1.5-3.3-1.8c-1.4-3.6-4.8-6.1-8.6-6.1
		c-2.4,0-4.7,1-6.4,2.7c-0.2,0-0.3,0-0.5,0c-0.4-2-2.2-3.6-4.4-3.6h-21c-2.5,0-4.5,2-4.5,4.5v51h17.3v4.5h36v-26.3v-1.5V325
		c0-1.9-1.5-3.5-3.5-3.5h-3V321H343.8z"/>
	<g>
		<path fill="#515150" d="M315.1,330.2V353h33v-24.8h-31C315.9,328.3,315.1,329.2,315.1,330.2z"/>
		<path fill="#515150" d="M346.1,323h-0.5h-4.1h-3.7c-0.8,0-1.2,0.4-1.8,1l-3.1,2.8h15.2V325C348.1,323.8,347.2,323,346.1,323z"/>
		<path fill="#515150" d="M344.3,304.8c-1-1.1-2.3-1.8-3.8-2c-1-3.5-4-5.9-7.5-5.9c-2.3,0-4.3,1-5.8,2.8c-0.5-0.1-1.1-0.2-1.6-0.2
			c-0.3,0-0.6,0-0.9,0.1V299c0-1.6-1.4-3-3-3h-21c-1.6,0-3,1.4-3,3v49.5h15v-6h-9.7v-2.3h9.7v-4.5h-9.7v-2.3h9.7v-3.3
			c0-2.3,1.9-4.2,4.2-4.2h7.8v-6.6h18.9c3.8,0,7-3.3,7-7.4C350.7,308.3,347.9,305.1,344.3,304.8z M319.6,305h-16.5v-2.3h16.5V305z
			 M343.8,317.3h-18.9v-15.4c0.3,0,0.6-0.1,0.9-0.1c0.6,0,1.2,0.1,1.7,0.3l0.8,0.3l0.5-0.7c1.1-1.6,2.7-2.5,4.5-2.5
			c2.7,0,5,2.1,5.5,4.9l0.2,0.9h0.9c1.2,0,2.5,0.6,3.3,1.6l0.3,0.4h0.5c2.6,0,4.7,2.3,4.7,5.1C348.5,314.9,346.3,317.3,343.8,317.3z
			"/>
	</g>
</g>
</svg>
