<?xml version="1.0" encoding="utf-8"?>
<!-- Generator: Adobe Illustrator 18.1.0, SVG Export Plug-In . SVG Version: 6.00 Build 0)  -->
<!DOCTYPE svg PUBLIC "-//W3C//DTD SVG 1.1//EN" "http://www.w3.org/Graphics/SVG/1.1/DTD/svg11.dtd">
<svg version="1.1" xmlns="http://www.w3.org/2000/svg" xmlns:xlink="http://www.w3.org/1999/xlink" x="0px" y="0px"
	 viewBox="0 0 648 648" enable-background="new 0 0 648 648" xml:space="preserve">
<g id="Layer_1">
</g>
<g id="Completed_Icons">
	<path fill="#FFFFFF" d="M347.1,321.7h-8.3c-1.4,0-2.2,0.8-2.8,1.3l-4.4,3.9h-4.3v-27.8c0-2.5-2-4.5-4.5-4.5h-21
		c-2.5,0-4.5,2-4.5,4.5v51h17.3v4.5h36v-26.3V327v-1.8C350.6,323.3,349,321.7,347.1,321.7z"/>
	<g>
		<path fill="#515251" d="M304.1,342.7v-2.3h9.8V336h-9.8v-2.3h9.8v-3.3c0-2.3,1.9-4.2,4.2-4.2h7.8v-27c0-1.6-1.3-3-3-3h-21
			c-1.6,0-3,1.4-3,3v49.5h15v-6H304.1z M304.1,303h16.5v2.3h-16.5V303z"/>
		<path fill="#515150" d="M316.1,330.4v22.8h33v-24.8H318C316.9,328.5,316.1,329.4,316.1,330.4z"/>
		<path fill="#515150" d="M347.1,323.2h-0.5h-4.1h-3.7c-0.8,0-1.2,0.4-1.8,1l-3.1,2.8h15.2v-1.8C349.1,324,348.2,323.2,347.1,323.2z
			"/>
	</g>
</g>
</svg>
