<?xml version="1.0" encoding="utf-8"?>
<!-- Generator: Adobe Illustrator 18.1.0, SVG Export Plug-In . SVG Version: 6.00 Build 0)  -->
<!DOCTYPE svg PUBLIC "-//W3C//DTD SVG 1.1//EN" "http://www.w3.org/Graphics/SVG/1.1/DTD/svg11.dtd">
<svg version="1.1" xmlns="http://www.w3.org/2000/svg" xmlns:xlink="http://www.w3.org/1999/xlink" x="0px" y="0px"
	 viewBox="0 0 648 648" enable-background="new 0 0 648 648" xml:space="preserve">
<g id="Layer_1">
</g>
<g id="Completed_Icons">
	<path fill="#FFFFFF" d="M346.2,331.8l-5.8,0V331c0-1.7-1.3-3-3-3h-8.3c-1,0-1.8,0.4-2.3,1.1v-27.9c0-2.5-2-4.5-4.5-4.5h-21
		c-2.5,0-4.5,2-4.5,4.5v51h19.6V352h34.5v-12.8v-1.5v-0.9C350.9,334.4,348.8,332.1,346.2,331.8z"/>
	<g>
		<path fill="#515251" d="M303.6,344.7v-2.3h11.3v-4.5h-11.3v-2.3h11.5c0.6-2.6,2.9-4.6,5.6-4.6h4.7v-29.9c0-1.6-1.4-3-3-3h-21
			c-1.6,0-3,1.4-3,3v49.5h16.6v-6H303.6z M303.6,304.9h16.5v2.3h-16.5V304.9z"/>
		<path fill="#515251" d="M342.7,340.5c0,0.5-0.5,1-1.1,1s-1.1-0.5-1.1-1v-1.3h-14.3v1.3c0,0.5-0.5,1-1.1,1s-1.1-0.5-1.1-1v-1.3
			h-6.8v11.3h32.3v-11.3h-6.8V340.5z"/>
		<path fill="#515251" d="M346,333.3c-0.1,0-0.1,0-0.6,0h-6.5V331c0-0.9-0.6-1.5-1.5-1.5h-8.3c-0.9,0-1.5,0.6-1.5,1.5v2.3h-6.4h-0.6
			c-1.9,0-3.5,1.7-3.5,3.6c0,0.1,0,0.1,0,0.1c0,0,0,0,0,0.1v0.7h6.8v-0.5c0-0.5,0.5-1,1.1-1s1.1,0.4,1.1,1v0.5h14.3v-0.5
			c0-0.5,0.5-1,1.1-1s1.1,0.4,1.1,1v0.5h6.8v-0.7V337c0-0.1,0-0.1,0-0.1C349.4,335.1,347.8,333.5,346,333.3z M337.4,333.3h-8.3V331
			h8.3V333.3z"/>
	</g>
</g>
</svg>
