<?xml version="1.0" encoding="utf-8"?>
<!-- Generator: Adobe Illustrator 18.1.0, SVG Export Plug-In . SVG Version: 6.00 Build 0)  -->
<!DOCTYPE svg PUBLIC "-//W3C//DTD SVG 1.1//EN" "http://www.w3.org/Graphics/SVG/1.1/DTD/svg11.dtd">
<svg version="1.1" xmlns="http://www.w3.org/2000/svg" xmlns:xlink="http://www.w3.org/1999/xlink" x="0px" y="0px"
	 viewBox="0 0 648 648" enable-background="new 0 0 648 648" xml:space="preserve">
<g id="Layer_1">
</g>
<g id="Completed_Icons">
	<path fill="#FFFFFF" d="M347.4,329.2c0-3.4-6.2-5-12.4-5c-1.1,0-2.3,0.1-3.4,0.2V300c0-2.5-2-4.5-4.5-4.5h-21c-2.5,0-4.5,2-4.5,4.5
		v51h21.4c1.7,3.5,8,4,11.9,4c4.4,0,11.9-0.7,12.3-5.5l0-19.5C347.4,329.8,347.4,329.5,347.4,329.2z"/>
	<g>
		<path fill="#515150" d="M321.9,343.5h-13.5v-2.3h13.5v-4.5h-13.5v-2.3h13.5v-4.6v-0.7c0-3.2,3.8-4.8,8.3-5.4V300c0-1.6-1.4-3-3-3
			h-21c-1.6,0-3,1.4-3,3v49.5h18.8v-0.9V343.5z M308.4,303.7h16.5v2.3h-16.5V303.7z"/>
		<path fill="#0078D7" d="M324.2,331.8v16.7v0.9c0.4,3.8,8.1,4.1,10.8,4.1c2.7,0,10.5-0.3,10.8-4.1v-0.9v-16.7
			c-2.1,1.6-6.5,2.4-10.7,2.4S326.4,333.4,324.2,331.8z"/>
		<ellipse fill="#0078D7" cx="335.1" cy="329.2" rx="10.9" ry="3.4"/>
	</g>
</g>
</svg>
