<?xml version="1.0" encoding="utf-8"?>
<!-- Generator: Adobe Illustrator 18.1.0, SVG Export Plug-In . SVG Version: 6.00 Build 0)  -->
<!DOCTYPE svg PUBLIC "-//W3C//DTD SVG 1.1//EN" "http://www.w3.org/Graphics/SVG/1.1/DTD/svg11.dtd">
<svg version="1.1" xmlns="http://www.w3.org/2000/svg" xmlns:xlink="http://www.w3.org/1999/xlink" x="0px" y="0px"
	 viewBox="0 0 648 648" enable-background="new 0 0 648 648" xml:space="preserve">
<g id="Layer_1">
</g>
<g id="Completed_Icons">
	<path fill="#FFFFFF" d="M347.6,341l-1.8-0.8v-1.9l1.8-0.8l0.1,0c1.1-0.5,1.6-1.8,1.1-2.9l-1.1-2.6c-0.4-1.1-1.7-1.7-2.8-1.3l-2,0.8
		l-1.3-1.3l0,0l0.8-1.8c0.5-1.1,0-2.3-1.1-2.9l-2.7-1.2c-1.1-0.5-2.5,0.1-2.9,1.1l-0.7,1.8c-0.2,0-0.5,0-1,0c-0.4,0-0.8,0-1,0
		l-0.7-1.7c-0.3-0.9-1.1-1.5-2.1-1.5c-0.3,0-0.6,0.1-0.9,0.2l-1,0.4v-25c0-2.5-2-4.5-4.5-4.5h-21c-2.5,0-4.5,2-4.5,4.5v51h27
		c-0.1,0.9,0.4,1.8,1.3,2.3l2.7,1.1c1,0.5,2.4,0,3-1.1l0.8-1.9c0.2,0,0.5,0,1,0c0.4,0,0.8,0,1,0l0.8,1.8l0,0.1
		c0.4,0.8,1.2,1.3,2,1.3c0.3,0,0.6-0.1,0.9-0.2l2.6-1.1c0.5-0.2,1-0.6,1.2-1.2c0.3-0.6,0.2-1.2,0-1.8l-0.8-1.9l1.3-1.3l1.8,0.7
		c0.3,0.1,0.6,0.2,0.9,0.2c0,0,0,0,0,0c0.8,0,1.6-0.5,2.1-1.4l1.1-2.6c0.3-0.6,0.3-1.2,0-1.8C348.6,341.6,348.1,341.1,347.6,341z"/>
	<g>
		<path fill="#515251" d="M326.3,348.2l-1.3-1.4c0,0,0-0.1-0.1-0.1l-2,0.8c-0.3,0.1-0.5,0.2-0.8,0.2c-0.8,0-1.6-0.5-1.9-1.3
			l-1.1-2.7c-0.1-0.2-0.1-0.4-0.1-0.5h-14V341h15.6l1.6-0.7c0,0,0-0.1,0-0.1v-1.9c0,0,0-0.1,0-0.1l-2-0.8c-0.4-0.2-0.7-0.5-1-0.8
			H305v-2.3h14.3l0.9-2.2c0.3-0.8,1-1.3,1.9-1.3c0.3,0,0.5,0,0.8,0.2l2,0.8l0.1-0.1l1.4-1.4c0,0,0.1,0,0.1-0.1l-0.9-1.9
			c-0.2-0.5-0.2-1,0-1.6c0.2-0.5,0.6-0.9,1.1-1.1l0.1,0v-25.9c0-1.7-1.4-3-3-3h-21c-1.7,0-3,1.3-3,3v49.5H326L326.3,348.2
			L326.3,348.2z M305,303.5h16.5v2.3H305V303.5z"/>
		<path fill="#515150" d="M347,342.3l-2.2-0.9c-0.3-0.2-0.6-0.3-0.6-0.4s0-0.5,0.1-0.9v-1.8c0-0.4-0.1-0.8-0.1-0.9s0.3-0.3,0.6-0.4
			l2.2-0.9c0.3-0.2,0.6-0.6,0.4-0.9l-1.1-2.7c-0.1-0.3-0.6-0.5-0.9-0.4l-2.2,0.9c-0.3,0.2-0.7,0.2-0.7,0.2c0,0-0.3-0.3-0.6-0.6
			l-1.3-1.3c-0.3-0.3-0.6-0.5-0.6-0.6c0,0,0-0.4,0.2-0.7l0.9-2.2c0.2-0.3,0-0.8-0.4-0.9l-2.7-1.1c-0.4-0.2-0.8,0-0.9,0.3l-0.9,2.2
			c-0.1,0.4-0.3,0.6-0.4,0.6s-0.5,0-0.9-0.1c0,0-0.4,0-0.9,0s-0.9,0-0.9,0c-0.4,0-0.8,0.1-0.9,0.1s-0.3-0.3-0.4-0.6l-0.9-2.2
			c-0.1-0.4-0.6-0.6-0.9-0.4l-2.7,1.1c-0.3,0.1-0.5,0.6-0.4,0.9l0.9,2.2c0.2,0.3,0.2,0.7,0.2,0.7c0,0-0.3,0.3-0.6,0.6l-1.3,1.3
			c-0.3,0.3-0.5,0.6-0.6,0.6c0,0-0.4,0-0.7-0.2l-2.2-0.9c-0.3-0.2-0.8,0-0.9,0.4l-1.1,2.7c-0.1,0.4,0,0.8,0.4,0.9l2.2,0.9
			c0.4,0.2,0.6,0.3,0.6,0.4s0,0.5-0.1,0.9v1.8c0,0.4,0.1,0.8,0.1,0.9s-0.3,0.3-0.6,0.4l-2.2,0.9c-0.4,0.2-0.6,0.6-0.4,0.9l1.1,2.7
			c0.2,0.3,0.6,0.6,0.9,0.4l2.2-0.9c0.3-0.1,0.7-0.2,0.7-0.2c0,0,0.3,0.3,0.6,0.6l1.3,1.3c0.3,0.3,0.6,0.5,0.6,0.6
			c0,0,0,0.4-0.2,0.7l-0.9,2.2c-0.2,0.3,0,0.8,0.4,0.9l2.7,1.1c0.3,0.2,0.8,0,0.9-0.4l0.9-2.2c0.2-0.4,0.3-0.6,0.4-0.6
			s0.5,0,0.9,0.1c0,0,0.4,0,0.9,0c0.5,0,0.9,0,0.9,0c0.4,0,0.8-0.1,0.9-0.1s0.3,0.3,0.4,0.6l0.9,2.2c0.2,0.3,0.6,0.6,0.9,0.4
			l2.7-1.1c0.4-0.1,0.6-0.6,0.4-0.9l-1-2.2c-0.1-0.4-0.2-0.7-0.2-0.7c0,0,0.3-0.3,0.6-0.6l1.3-1.3c0.3-0.3,0.5-0.6,0.6-0.6
			c0,0,0.4,0,0.7,0.2l2.2,0.9c0.3,0.2,0.8,0,0.9-0.4l1.1-2.7C347.6,342.9,347.4,342.5,347,342.3z M333.9,346.4c-4,0-7.2-3.2-7.2-7.2
			s3.2-7.2,7.2-7.2c4,0,7.2,3.2,7.2,7.2S337.9,346.4,333.9,346.4z"/>
	</g>
</g>
</svg>
