<?xml version="1.0" encoding="utf-8"?>
<!-- Generator: Adobe Illustrator 18.1.0, SVG Export Plug-In . SVG Version: 6.00 Build 0)  -->
<!DOCTYPE svg PUBLIC "-//W3C//DTD SVG 1.1//EN" "http://www.w3.org/Graphics/SVG/1.1/DTD/svg11.dtd">
<svg version="1.1" xmlns="http://www.w3.org/2000/svg" xmlns:xlink="http://www.w3.org/1999/xlink" x="0px" y="0px"
	 viewBox="0 0 648 648" enable-background="new 0 0 648 648" xml:space="preserve">
<g id="Layer_1">
	<g id="Layer_1_1_">
	</g>
</g>
<g id="Completed_Icons">
	<path fill="#FFFFFF" d="M343.8,325.6h-14v-24.9c0-2.5-2-4.5-4.5-4.5h-21c-2.5,0-4.5,2-4.5,4.5v51h16.4l-0.1-0.2
		c0.4,0.2,0.9,0.3,1.4,0.3h26.3c1.7,0,3-1.3,3-3v-20.3C346.8,326.8,345.6,325.6,343.8,325.6z"/>
	<g>
		<path fill="#515150" d="M313.8,344.2h-7.2v-2.3h7.2v-4.5h-7.2v-2.3h7.2v-6.6c0-2.1,1.7-3.8,3.8-3.8h10.8v-24.1c0-1.6-1.4-3-3-3
			h-21c-1.6,0-3,1.4-3,3v49.5h12.8c-0.2-0.4-0.3-0.9-0.3-1.4V344.2z M306.6,304.4h16.5v2.3h-16.5V304.4z"/>
		<path fill="#515150" d="M343.8,327.1h-26.3c-0.9,0-1.5,0.6-1.5,1.5v20.3c0,0.9,0.6,1.5,1.5,1.5h26.3c0.9,0,1.5-0.6,1.5-1.5v-20.3
			C345.3,327.7,344.7,327.1,343.8,327.1z M342.3,328.6h1.5v1.5h-1.5V328.6z M339.3,328.6h1.5v1.5h-1.5V328.6z M336.3,328.6h1.5v1.5
			h-1.5V328.6z M343.8,348.8h-26.3v-17.3h26.3V348.8z"/>
	</g>
</g>
</svg>
