<?xml version="1.0" encoding="utf-8"?>
<!-- Generator: Adobe Illustrator 18.1.0, SVG Export Plug-In . SVG Version: 6.00 Build 0)  -->
<!DOCTYPE svg PUBLIC "-//W3C//DTD SVG 1.1//EN" "http://www.w3.org/Graphics/SVG/1.1/DTD/svg11.dtd">
<svg version="1.1" xmlns="http://www.w3.org/2000/svg" xmlns:xlink="http://www.w3.org/1999/xlink" x="0px" y="0px"
	 viewBox="0 0 648 648" enable-background="new 0 0 648 648" xml:space="preserve">
<g id="Layer_1">
</g>
<g id="Completed_Icons">
	<path fill="#FFFFFF" d="M349.6,328.1l-0.2,0.2v-6.8c0-2.2-1.8-3.9-3.9-3.9h-25.1v-17.5c0-2.5-2-4.5-4.5-4.5h-21
		c-2.5,0-4.5,2-4.5,4.5v51h20.6c0.3,0.1,0.6,0.1,0.9,0.1h29.7v3.6l1.8-0.3c2.1-0.4,4-1.3,5.6-2.6c0,0,0,0,0,0l0,0c0,0,0,0,0,0l0,0
		c0,0,0,0,0,0l0.1-0.1l0,0l0,0l0,0c0,0,0,0,0,0l0.1-0.1c0.1,0,0.1-0.1,0.1-0.1c0,0,0,0,0.1-0.1c0,0,0,0,0.1-0.1l0,0l0,0
		c2.2-2,3.4-4.6,3.4-7.2v-4l4.8,4.7v-8.7L349.6,328.1z"/>
	<g>
		<path fill="#515251" d="M307.6,343.8h-10.5v-2.3h10.5v-4.5h-10.5v-2.3h10.5v-13.1c0-2.3,1.9-4.2,4.2-4.2h7v-17.2c0-1.7-1.4-3-3-3
			h-21c-1.6,0-3,1.3-3,3v49.5h16.4c-0.4-0.7-0.7-1.4-0.7-2.3V343.8z M297.1,304.1h16.5v2.3h-16.5V304.1z"/>
		<path fill="#515251" d="M311.8,348.2c-0.4,0-0.6-0.2-0.6-0.6v-22.2H346v6l1.8-1.8v-7.8c0-1.3-1.1-2.4-2.4-2.4h-33.6
			c-1.3,0-2.4,1.1-2.4,2.4v25.8c0,1.3,1.1,2.4,2.4,2.4h29.4v-1.8H311.8z M344.2,321.1h1.8v1.8h-1.8V321.1z M340.6,321.1h1.8v1.8
			h-1.8V321.1z M337,321.1h1.8v1.8H337V321.1z"/>
		<path fill="#515251" d="M345.4,351.8c0.2,0,0.4,0,0.7-0.1C345.9,351.7,345.7,351.8,345.4,351.8z"/>
		<path fill="#515251" d="M346.2,351.7c0.2,0,0.4-0.1,0.6-0.2C346.6,351.6,346.4,351.7,346.2,351.7z"/>
		<path fill="#515251" d="M346.9,351.5c0.4-0.2,0.8-0.4,1.2-0.6l0,0C347.7,351.1,347.3,351.4,346.9,351.5z"/>
		<path fill="#515251" d="M349.6,348.1c0,0.1,0,0.2-0.1,0.3C349.6,348.4,349.6,348.2,349.6,348.1z"/>
		<path fill="#515251" d="M349.5,348.6c0,0.1,0,0.2-0.1,0.3C349.5,348.8,349.5,348.7,349.5,348.6z"/>
		<path fill="#515251" d="M349.7,347.6c0,0.2,0,0.3,0,0.5C349.6,347.9,349.7,347.7,349.7,347.6z"/>
		<path fill="#515251" d="M348.2,350.7c0.1-0.1,0.2-0.2,0.3-0.2c0,0,0,0,0.1-0.1C348.4,350.6,348.3,350.6,348.2,350.7z"/>
		<path fill="#515251" d="M348.8,350.1c-0.1,0.1-0.2,0.2-0.2,0.3C348.6,350.3,348.7,350.2,348.8,350.1z"/>
		<path fill="#515251" d="M349.2,349.4c0,0.1-0.1,0.2-0.2,0.3C349.1,349.6,349.2,349.5,349.2,349.4z"/>
		<path fill="#515251" d="M349.4,349c0,0.1-0.1,0.2-0.1,0.3C349.3,349.2,349.4,349.1,349.4,349z"/>
		<path fill="#515251" d="M349,349.8c-0.1,0.1-0.1,0.2-0.2,0.3C348.9,350,349,349.9,349,349.8z"/>
		<path fill="#515251" d="M348.5,350.4C348.5,350.4,348.5,350.4,348.5,350.4C348.5,350.4,348.5,350.4,348.5,350.4z"/>
		<path fill="#515251" d="M349.4,348.9c0,0,0,0.1,0,0.1C349.4,349,349.4,348.9,349.4,348.9z"/>
		<path fill="#515251" d="M349.1,349.7C349.1,349.7,349,349.7,349.1,349.7C349,349.7,349.1,349.7,349.1,349.7z"/>
		<path fill="#515251" d="M348.8,350.1C348.8,350.1,348.8,350.1,348.8,350.1C348.8,350.1,348.8,350.1,348.8,350.1z"/>
		<path fill="#515251" d="M346.9,351.5C346.9,351.5,346.8,351.5,346.9,351.5C346.8,351.5,346.9,351.5,346.9,351.5z"/>
		<path fill="#515251" d="M346.2,351.7C346.2,351.7,346.1,351.7,346.2,351.7C346.1,351.7,346.2,351.7,346.2,351.7z"/>
		<path fill="#515251" d="M349.6,348.5c0,0,0,0.1,0,0.1C349.5,348.5,349.5,348.5,349.6,348.5z"/>
		<path fill="#515251" d="M349.6,348c0,0,0,0.1,0,0.1C349.6,348.1,349.6,348.1,349.6,348z"/>
		<path fill="#515251" d="M349.3,349.3c0,0,0,0.1-0.1,0.1C349.2,349.4,349.3,349.3,349.3,349.3z"/>
		<path fill="#515251" d="M349.7,330.4L349.7,330.4l-6.6,6.5v4.5l4.8-4.6v7.5c0,2.3-2.1,4.4-4.8,5.2v2.3v1.4c1.9-0.4,3.6-1.2,5-2.3
			c-0.3,0.3-0.7,0.5-1.2,0.6c0.4-0.2,0.8-0.4,1.2-0.6c0.1,0,0.1-0.1,0.2-0.1c0.1-0.1,0.2-0.2,0.3-0.3c0,0,0,0-0.1,0.1
			c1.8-1.7,3-3.9,3-6.2v-7.5l4.8,4.7V337L349.7,330.4z"/>
	</g>
</g>
</svg>
