<?xml version="1.0" encoding="utf-8"?>
<!-- Generator: Adobe Illustrator 18.1.0, SVG Export Plug-In . SVG Version: 6.00 Build 0)  -->
<!DOCTYPE svg PUBLIC "-//W3C//DTD SVG 1.1//EN" "http://www.w3.org/Graphics/SVG/1.1/DTD/svg11.dtd">
<svg version="1.1" xmlns="http://www.w3.org/2000/svg" xmlns:xlink="http://www.w3.org/1999/xlink" x="0px" y="0px"
	 viewBox="0 0 648 648" enable-background="new 0 0 648 648" xml:space="preserve">
<g id="Layer_1">
</g>
<g id="Completed_Icons">
	<path fill="#FFFFFF" d="M325.8,352.8h35.7l-0.2-1.7c-0.3-2.8-1-7.9-1.5-10.3c-0.6-2.8-1.5-4.6-4-6c-0.5-0.3-0.9-0.5-1.3-0.7
		c-1.4-0.8-2.3-1.3-3.2-1.3c-0.6,0-1.2,0.2-1.7,0.5l-0.2,0.2c-0.3,0.3-0.7,0.6-1.2,0.8c0,0,4.8-3.8,4.8-9.5c0-4.1-2.3-7.7-5.5-9.3
		v-13.4c0-2.4-2-4.5-4.4-4.5h-51.9c-2.4,0-4.4,2.1-4.4,4.5v31.5c0,2.4,2,4.5,4.4,4.5h18.2c0.2,1,0.4,2.2,0.1,2.7
		c-0.8,1.1-5.2,1.1-7.4,1.1c-1.8,0-3.3,1.5-3.3,3.4c0,1.8,1.5,3.3,3.3,3.3h24.2c-0.1,1-0.2,1.9-0.2,2.6L325.8,352.8z"/>
	<g>
		<path fill="#515050" d="M323.7,336.6h4.5c0.6-0.9,1.5-1.7,2.8-2.5l1-0.5c0.5-0.3,1-0.5,1.4-0.8H292v-30h50.3v11.1
			c0.4-0.1,0.9-0.1,1.3-0.1c0.8,0,1.7,0.1,2.4,0.3v-12c0-1.6-1.4-3-2.9-3h-51.9c-1.6,0-2.9,1.4-2.9,3v31.5c0,1.6,1.3,3,2.9,3h19.4
			c1.6,5.8,0.3,6.8-8.5,6.8c-1,0-1.8,0.8-1.8,1.9c0,1,0.8,1.8,1.8,1.8h23.6c0.2-1.4,0.3-2.8,0.5-4.1
			C322.9,342.3,322.6,340.7,323.7,336.6z"/>
		<path fill="#515251" d="M355.1,336.1c-2-1.1-3.1-1.9-3.8-1.9c-0.3,0-0.6,0.1-0.8,0.2c-0.4,0.4-1,0.8-1.6,1.1
			c-0.1,0.1-0.2,0.1-0.3,0.2c-0.6,0.4-1.1,0.6-1.6,0.8c-1,0.4-2.2,0.6-3.3,0.6s-2.3-0.2-3.3-0.6c-0.6-0.2-1.1-0.4-1.6-0.8
			c-0.7-0.4-1.4-0.8-1.9-1.4c-0.2-0.1-0.5-0.2-0.8-0.2c-0.8,0-1.5,0.5-3.8,1.9c-2,1.1-2.8,2.4-3.3,5c-0.5,2.3-1.2,7.6-1.3,10.2h32.4
			c-0.3-2.5-1-7.8-1.5-10.1C357.8,338.4,357.1,337.2,355.1,336.1z"/>
		<path fill="#515251" d="M343.6,316c-4.4,0-7.9,4-7.9,8.8c0,4.8,3.5,8.8,7.9,8.8c4.4,0,8-4,8-8.8C351.5,320,347.9,316,343.6,316z"
			/>
	</g>
</g>
</svg>
