<svg xmlns="http://www.w3.org/2000/svg" xmlns:xlink="http://www.w3.org/1999/xlink" width="128" height="128" viewBox="0 0 128 128"><defs><linearGradient id="a" x1="64" y1="7" x2="64" y2="120.8232" gradientUnits="userSpaceOnUse"><stop offset="0" stop-color="#4387fd"/><stop offset="1" stop-color="#4683ea"/></linearGradient></defs><title>IAM</title><path d="M27.7911,115.2471L1.5406,69.7529a11.5117,11.5117,0,0,1,0-11.5058l26.25-45.4942A11.4978,11.4978,0,0,1,37.75,7H90.25a11.4978,11.4978,0,0,1,9.9585,5.7529l26.25,45.4942a11.5117,11.5117,0,0,1,0,11.5058l-26.25,45.4942A11.4978,11.4978,0,0,1,90.25,121H37.75A11.4978,11.4978,0,0,1,27.7911,115.2471Z" fill="url(#a)"/><path d="M89,44.75l-38.96-.7685L47,78.5l2.6749,8.3251,34.1414,34.1412h6.4344a11.4991,11.4991,0,0,0,9.9585-5.75L121.9,77.6477Z" opacity="0.07"/><path d="M64,33.73L39,44.8416V61.5082c0,15.4167,10.6667,29.8333,25,33.3333,14.3334-3.5,25-17.9166,25-33.3333V44.8416ZM64,45.5a8,8,0,1,1-8,8A7.9978,7.9978,0,0,1,64,45.5ZM79,78.5828a1.0029,1.0029,0,0,1-.1705.5573c-0.1824.2728-.3626,0.5469-0.56,0.8107A27.8727,27.8727,0,0,1,64,90.1829,27.8722,27.8722,0,0,1,49.73,79.9507c-0.197-.2638-0.3772-0.5379-0.56-0.8107A1.0029,1.0029,0,0,1,49,78.5828V74.139c0-6.131,9.9938-9.2195,15-9.2195s15,3.0885,15,9.2195v4.4437Z" fill="#fff"/></svg>