<?xml version="1.0" encoding="utf-8"?>
<!-- Generator: Adobe Illustrator 19.1.0, SVG Export Plug-In . SVG Version: 6.00 Build 0)  -->
<svg version="1.1" xmlns="http://www.w3.org/2000/svg" xmlns:xlink="http://www.w3.org/1999/xlink" x="0px" y="0px" width="100px"
	 height="100px" viewBox="0 0 100 100" style="enable-background:new 0 0 100 100;" xml:space="preserve">
<style type="text/css">
	.st0{fill:#876929;}
	.st1{fill:#624A1E;}
	.st2{fill:#FAD791;}
	.st3{fill:#D9A741;}
	.st4{enable-background:new    ;}
	.st5{fill:#FFFFFF;}
	.st6{clip-path:url(#SVGID_2_);enable-background:new    ;}
	.st7{clip-path:url(#SVGID_4_);enable-background:new    ;}
	.st8{clip-path:url(#SVGID_6_);enable-background:new    ;}
</style>
<g id="Layer_1">
	<g>
		<rect x="23.1" y="21.9" class="st0" width="53.8" height="56.2"/>
	</g>
	<g>
		<rect x="23.1" y="21.9" class="st3" width="53.8" height="53.7"/>
	</g>
	<g>
		<path class="st5" d="M69.6,44.4c-0.5-2.3-1.4-4.4-2.6-6.4l2.5-2.5l-6.2-6.2l-2.5,2.5c-1.9-1.2-4.1-2.1-6.4-2.6v-3.6h-8.8v3.6
			c-2.3,0.5-4.4,1.4-6.4,2.6l-2.5-2.5l-6.2,6.2l2.5,2.5c-1.2,1.9-2.1,4.1-2.6,6.4h-3.6v8.8h3.6c0.5,2.3,1.4,4.4,2.6,6.4L30.6,62
			l6.2,6.2l2.5-2.5c1.9,1.2,4.1,2.1,6.4,2.6v3.6h8.8v-3.6c2.3-0.5,4.4-1.4,6.4-2.6l2.5,2.5l6.2-6.2l-2.5-2.5
			c1.2-1.9,2.1-4.1,2.6-6.4h3.6v-8.8H69.6z M62.5,55c-1.3,2.7-3.5,4.8-6.2,6.2c-0.6,0.3-1.3,0.6-1.9,0.8c-1.4,0.5-2.8,0.7-4.4,0.7
			s-3-0.3-4.4-0.7c-0.7-0.2-1.3-0.5-1.9-0.8c-2.7-1.3-4.8-3.5-6.2-6.2c-0.3-0.6-0.6-1.3-0.8-1.9c-0.5-1.4-0.7-2.8-0.7-4.4
			s0.3-3,0.7-4.4c0.2-0.7,0.5-1.3,0.8-1.9c1.3-2.7,3.5-4.8,6.2-6.2c0.6-0.3,1.3-0.6,1.9-0.8c1.4-0.5,2.8-0.7,4.4-0.7s3,0.3,4.4,0.7
			c0.7,0.2,1.3,0.5,1.9,0.8c2.7,1.3,4.8,3.5,6.2,6.2c0.3,0.6,0.6,1.3,0.8,1.9c0.5,1.4,0.7,2.8,0.7,4.4s-0.3,3-0.7,4.4
			C63.1,53.8,62.8,54.4,62.5,55z"/>
		<path class="st5" d="M56.5,44.4c-0.6-0.8-1.3-1.6-2.1-2.1c-0.9-0.6-1.8-1-2.9-1.2c-0.5-0.1-1-0.1-1.5-0.1s-1,0.1-1.5,0.1
			c-1,0.2-2,0.6-2.9,1.2c-0.8,0.6-1.6,1.3-2.1,2.1c-0.6,0.9-1,1.8-1.2,2.9c-0.1,0.5-0.1,1-0.1,1.5s0.1,1,0.1,1.5
			c0.2,1,0.6,2,1.2,2.9c0.6,0.8,1.3,1.6,2.1,2.1c0.9,0.6,1.8,1,2.9,1.2c0.5,0.1,1,0.1,1.5,0.1s1-0.1,1.5-0.1c1-0.2,2-0.6,2.9-1.2
			c0.8-0.6,1.6-1.3,2.1-2.1c0.6-0.9,1-1.8,1.2-2.9c0.1-0.5,0.1-1,0.1-1.5s-0.1-1-0.1-1.5C57.5,46.2,57.1,45.2,56.5,44.4z"/>
	</g>
</g>
<g id="Layer_2">
</g>
</svg>
