<?xml version="1.0" encoding="utf-8"?>
<!-- Generator: Adobe Illustrator 19.1.0, SVG Export Plug-In . SVG Version: 6.00 Build 0)  -->
<svg version="1.1" xmlns="http://www.w3.org/2000/svg" xmlns:xlink="http://www.w3.org/1999/xlink" x="0px" y="0px" width="100px"
	 height="100px" viewBox="0 0 100 100" style="enable-background:new 0 0 100 100;" xml:space="preserve">
<style type="text/css">
	.st0{fill:#876929;}
	.st1{fill:#624A1E;}
	.st2{fill:#FAD791;}
	.st3{fill:#D9A741;}
	.st4{enable-background:new    ;}
	.st5{fill:#FFFFFF;}
	.st6{clip-path:url(#SVGID_2_);enable-background:new    ;}
	.st7{clip-path:url(#SVGID_4_);enable-background:new    ;}
	.st8{clip-path:url(#SVGID_6_);enable-background:new    ;}
</style>
<g id="Layer_1">
	<polygon class="st0" points="31.4,22 14.7,48.5 31.4,75.1 44.7,71.7 45.4,25.6 	"/>
	<polygon class="st3" points="50.1,70.4 31.4,75.1 31.4,22 50.1,26.7 	"/>
	<polygon class="st0" points="47.8,31.1 50.1,91.2 85.3,73.5 85.3,28.7 76.3,30.1 	"/>
	<polygon class="st0" points="61.3,42.9 72.3,42.3 83.1,22.6 55.7,8.8 45.4,13.3 	"/>
	<polygon class="st3" points="55.7,8.8 83.1,22.6 72.3,42.3 	"/>
	<polygon class="st0" points="50,14.5 72.3,54.9 76.1,78.1 50.1,91.2 39.5,85.9 39.5,18.8 50,14.5 	"/>
	<polygon class="st3" points="85.3,28.7 85.3,73.5 50.1,91.2 50,14.5 72.3,54.9 	"/>
</g>
<g id="Layer_2">
</g>
</svg>
