<?xml version="1.0" encoding="utf-8"?>
<!-- Generator: Adobe Illustrator 19.1.0, SVG Export Plug-In . SVG Version: 6.00 Build 0)  -->
<svg version="1.1" xmlns="http://www.w3.org/2000/svg" xmlns:xlink="http://www.w3.org/1999/xlink" x="0px" y="0px" width="100px"
	 height="100px" viewBox="0 0 100 100" style="enable-background:new 0 0 100 100;" xml:space="preserve">
<style type="text/css">
	.st0{fill:#876929;}
	.st1{fill:#624A1E;}
	.st2{fill:#FAD791;}
	.st3{fill:#D9A741;}
	.st4{enable-background:new    ;}
	.st5{fill:#FFFFFF;}
	.st6{clip-path:url(#SVGID_2_);enable-background:new    ;}
	.st7{clip-path:url(#SVGID_4_);enable-background:new    ;}
	.st8{clip-path:url(#SVGID_6_);enable-background:new    ;}
</style>
<g id="Layer_1">
	<polygon class="st3" points="27.9,27.4 16,25.8 16,67 27.9,64.3 	"/>
	<polygon class="st0" points="16,32.4 27.9,34.2 50,28.4 72.1,34.2 72.1,63.1 84,67 84,25.8 50,8.8 16,25.8 	"/>
	<polygon class="st1" points="44.5,27 50.1,25.3 77.2,33.4 72.1,34.2 	"/>
	<polygon class="st2" points="44.4,78.3 44.4,61.8 72.1,58.1 77.2,58.5 77.2,68.3 	"/>
	<polygon class="st1" points="55.5,27 49.9,25.3 22.8,33.4 27.9,34.2 	"/>
	<polygon class="st2" points="55.6,76 55.6,61.8 27.9,58.1 22.8,58.5 22.8,67.9 	"/>
	<polygon class="st3" points="84,35.5 50,25.3 50,8.8 84,25.8 	"/>
	<polygon class="st3" points="84,67 50,79.1 50,62.7 84,57.4 	"/>
	<polygon class="st3" points="77.2,22.6 84,26 84,67 77.2,69.5 	"/>
	<polygon class="st3" points="60.2,64.3 50,66.3 50,91.2 60.2,86 	"/>
	<polygon class="st0" points="72.1,34.2 77.2,33.4 77.2,58.5 72.1,58.1 	"/>
	<polygon class="st0" points="16,67 50,79.1 50,62.7 16,57.4 	"/>
	<polygon class="st0" points="22.8,22.6 16,26 16,67 22.8,69.5 	"/>
	<polygon class="st0" points="39.8,64.3 50,66.3 50,91.2 39.8,86 	"/>
</g>
<g id="Layer_2">
</g>
</svg>
