<?xml version="1.0" encoding="utf-8"?>
<!-- Generator: Adobe Illustrator 19.1.0, SVG Export Plug-In . SVG Version: 6.00 Build 0)  -->
<svg version="1.1" xmlns="http://www.w3.org/2000/svg" xmlns:xlink="http://www.w3.org/1999/xlink" x="0px" y="0px" width="100px"
	 height="100px" viewBox="0 0 100 100" style="enable-background:new 0 0 100 100;" xml:space="preserve">
<style type="text/css">
	.st0{fill:#876929;}
	.st1{fill:#624A1E;}
	.st2{fill:#FAD791;}
	.st3{fill:#D9A741;}
	.st4{enable-background:new    ;}
	.st5{fill:#FFFFFF;}
	.st6{clip-path:url(#SVGID_2_);enable-background:new    ;}
	.st7{clip-path:url(#SVGID_4_);enable-background:new    ;}
	.st8{clip-path:url(#SVGID_6_);enable-background:new    ;}
</style>
<g id="Layer_1">
	<polygon class="st2" points="68.2,56.4 64.1,56.2 60.3,56.5 64.4,70.4 	"/>
	<polygon class="st1" points="84.1,35.5 50,39.8 15.9,35.5 50,8.8 	"/>
	<polygon class="st2" points="71.5,74.3 50,69.3 28.5,74.3 50,91.2 	"/>
	<polygon class="st3" points="84.1,35.5 50,25.3 50,8.8 84.1,25.9 	"/>
	<polygon class="st3" points="71.5,80.4 50,91.2 50,82.9 71.5,74.3 	"/>
	<polygon class="st0" points="50,91.2 28.5,80.4 28.5,74.3 50,82.9 	"/>
	<polygon class="st0" points="15.9,35.5 50,25.3 50,8.8 15.9,25.9 	"/>
	<polygon class="st3" points="68.2,69.3 64.4,70.4 64.4,56.8 68.2,56.4 	"/>
	<polygon class="st0" points="44.6,73.1 50,74.7 55.4,73.1 55.4,42.3 50,41.8 44.6,42.3 	"/>
	<polygon class="st3" points="55.4,73.1 50,74.7 50,41.8 55.4,42.3 	"/>
	<polygon class="st0" points="35.6,56.8 31.8,56.4 31.8,43.6 35.6,43.2 39.8,43.5 39.8,56.5 	"/>
	<polygon class="st0" points="60.3,69.5 64.4,70.4 64.4,56.8 60.3,56.5 	"/>
	<polygon class="st3" points="39.8,56.5 35.6,56.8 35.6,43.2 39.8,43.5 	"/>
</g>
<g id="Layer_2">
</g>
</svg>
