<?xml version="1.0" encoding="utf-8"?>
<!-- Generator: Adobe Illustrator 19.1.0, SVG Export Plug-In . SVG Version: 6.00 Build 0)  -->
<svg version="1.1" xmlns="http://www.w3.org/2000/svg" xmlns:xlink="http://www.w3.org/1999/xlink" x="0px" y="0px" width="100px"
	 height="100px" viewBox="0 0 100 100" style="enable-background:new 0 0 100 100;" xml:space="preserve">
<style type="text/css">
	.st0{fill:#876929;}
	.st1{fill:#624A1E;}
	.st2{fill:#FAD791;}
	.st3{fill:#D9A741;}
	.st4{enable-background:new    ;}
	.st5{fill:#FFFFFF;}
	.st6{clip-path:url(#SVGID_2_);enable-background:new    ;}
	.st7{clip-path:url(#SVGID_4_);enable-background:new    ;}
	.st8{clip-path:url(#SVGID_6_);enable-background:new    ;}
</style>
<g id="Layer_1">
	<path class="st0" d="M77.6,51.4C77.6,66.6,65.2,79,50,79S22.4,66.6,22.4,51.4v-2.5c0,0,18.3-25.1,27.6-25.1
		c10.9,0,27.6,25.1,27.6,25.1V51.4z"/>
	<circle class="st3" cx="50" cy="48.9" r="27.6"/>
	<rect x="40" y="31.9" class="st5" width="1.5" height="12.5"/>
	<rect x="40" y="50.2" class="st5" width="1.5" height="12.5"/>
	<polygon class="st5" points="60.8,63.7 59.3,63.7 59.3,48.2 40.5,48.2 40.5,46.7 60.8,46.7 	"/>
	<polygon class="st3" points="40.6,54.1 49.5,47.6 40.6,41 32.1,47.2 	"/>
	<path class="st5" d="M40.6,55.1l-9.7-7.9l9.7-7l10.2,7.5L40.6,55.1z M33.3,47.2l7.3,6l7.6-5.6L40.6,42L33.3,47.2z"/>
	<rect x="54.2" y="59.6" class="st3" width="12.1" height="7.1"/>
	<path class="st5" d="M67,67.5H53.5v-8.6H67V67.5z M55,60.3V66h10.6v-5.6H55z"/>
	<rect x="34.8" y="29" class="st3" width="12.1" height="7.1"/>
	<path class="st5" d="M47.6,36.8H34.1v-8.6h13.5V36.8z M35.6,35.4h10.6v-5.6H35.6V35.4z"/>
	<rect x="34.7" y="59.6" class="st3" width="12.1" height="7.1"/>
	<path class="st5" d="M47.5,67.5H34v-8.6h13.5V67.5z M35.5,66H46v-5.6H35.5V66z"/>
</g>
<g id="Layer_2">
</g>
</svg>
