<?xml version="1.0" encoding="utf-8"?>
<!-- Generator: Adobe Illustrator 19.1.0, SVG Export Plug-In . SVG Version: 6.00 Build 0)  -->
<svg version="1.1" xmlns="http://www.w3.org/2000/svg" xmlns:xlink="http://www.w3.org/1999/xlink" x="0px" y="0px" width="100px"
	 height="100px" viewBox="0 0 100 100" style="enable-background:new 0 0 100 100;" xml:space="preserve">
<style type="text/css">
	.st0{fill:#876929;}
	.st1{fill:#624A1E;}
	.st2{fill:#FAD791;}
	.st3{fill:#D9A741;}
	.st4{enable-background:new    ;}
	.st5{fill:#FFFFFF;}
	.st6{clip-path:url(#SVGID_2_);enable-background:new    ;}
	.st7{clip-path:url(#SVGID_4_);enable-background:new    ;}
	.st8{clip-path:url(#SVGID_6_);enable-background:new    ;}
</style>
<g id="Layer_1">
	<polygon class="st2" points="84.1,55.2 67.5,54.5 56.8,55.2 74.5,79.2 	"/>
	<polygon class="st1" points="84.1,45.2 67.5,45.9 56.8,45.2 74.5,21.1 	"/>
	<polygon class="st1" points="15.9,45.1 32.5,45.9 43.2,45.2 25.5,21.2 	"/>
	<polygon class="st2" points="15.9,55.2 32.5,54.5 43.2,55.2 25.5,79.2 	"/>
	<polygon class="st3" points="74.5,44.2 84.1,45.2 84.1,25.9 74.5,21.1 	"/>
	<polygon class="st0" points="56.8,25.9 74.5,21.1 74.5,44.2 56.8,45.2 	"/>
	<polygon class="st3" points="50,23.1 69.2,29.4 69.2,38.9 50,35.5 	"/>
	<polygon class="st1" points="41.4,37.1 50.1,35.5 69.2,38.9 60.7,39.8 	"/>
	<polygon class="st0" points="25.5,44.2 15.9,45.1 15.9,25.8 25.5,21.1 	"/>
	<polygon class="st3" points="43.2,25.9 25.5,21.1 25.5,44.2 43.2,45.2 	"/>
	<polygon class="st0" points="50,23.1 30.8,29.4 30.8,38.9 50,35.5 	"/>
	<polygon class="st1" points="58.6,37.1 49.9,35.5 30.8,38.9 39.3,39.8 	"/>
	<polygon class="st3" points="74.5,56.1 84.1,55.2 84.1,74.4 74.5,79.2 	"/>
	<polygon class="st0" points="56.8,74.5 74.5,79.2 74.5,56.1 56.8,55.2 	"/>
	<polygon class="st3" points="50,77.2 69.2,71 69.2,61.4 50,64.8 	"/>
	<polygon class="st2" points="41.4,63.3 50.1,64.8 69.2,61.4 60.7,60.5 	"/>
	<polygon class="st0" points="25.5,56.1 15.9,55.2 15.9,74.4 25.5,79.2 	"/>
	<polygon class="st3" points="43.2,74.5 25.5,79.2 25.5,56.1 43.2,55.2 	"/>
	<polygon class="st0" points="50,77.2 30.8,71 30.8,61.4 50,64.8 	"/>
	<polygon class="st2" points="58.6,63.3 49.9,64.8 30.8,61.4 39.3,60.5 	"/>
	<polygon class="st0" points="39.8,86.1 50,91.2 55.7,88.3 60.2,13.9 50,8.8 39.8,13.9 	"/>
	<polygon class="st3" points="60.2,86.1 50,91.2 50,8.8 60.2,13.9 	"/>
</g>
<g id="Layer_2">
</g>
</svg>
