<?xml version="1.0" encoding="utf-8"?>
<!-- Generator: Adobe Illustrator 19.1.0, SVG Export Plug-In . SVG Version: 6.00 Build 0)  -->
<svg version="1.1" xmlns="http://www.w3.org/2000/svg" xmlns:xlink="http://www.w3.org/1999/xlink" x="0px" y="0px" width="100px"
	 height="100px" viewBox="0 0 100 100" style="enable-background:new 0 0 100 100;" xml:space="preserve">
<style type="text/css">
	.st0{fill:#876929;}
	.st1{fill:#624A1E;}
	.st2{fill:#FAD791;}
	.st3{fill:#D9A741;}
	.st4{enable-background:new    ;}
	.st5{fill:#FFFFFF;}
	.st6{clip-path:url(#SVGID_2_);enable-background:new    ;}
	.st7{clip-path:url(#SVGID_4_);enable-background:new    ;}
	.st8{clip-path:url(#SVGID_6_);enable-background:new    ;}
</style>
<g id="Layer_1">
	<polygon class="st0" points="45.2,68.1 79.7,76.3 84.1,74.1 84.1,25.9 79.7,23.7 45.2,31.8 	"/>
	<polygon class="st0" points="45.2,25.3 45.2,74.8 68.2,82.1 74.5,78.9 74.5,21.1 68.2,17.9 	"/>
	<polygon class="st3" points="74.5,78.9 68.2,82.1 68.2,17.9 74.5,21.1 	"/>
	<polygon class="st3" points="84.1,74.1 79.7,76.3 79.7,23.7 84.1,25.9 	"/>
	<path class="st0" d="M50,8.8L15.9,25.9l0,48.2l34.1,17l10.2-5.1V13.9L50,8.8z M39.8,66.8l-10.1-2.4V35.6l10.1-2.4V66.8z"/>
	<polygon class="st2" points="20.3,65.8 39.8,71.6 39.8,66.8 29.7,64.5 	"/>
	<polygon class="st3" points="29.7,64.5 20.3,65.8 20.3,34.2 29.7,35.6 	"/>
	<polygon class="st1" points="39.8,33.2 29.7,35.6 20.3,34.2 39.8,28.4 	"/>
	<polygon class="st3" points="60.2,86.1 50,91.2 50,8.8 60.2,13.9 	"/>
</g>
<g id="Layer_2">
</g>
</svg>
