<?xml version="1.0" encoding="utf-8"?>
<!-- Generator: Adobe Illustrator 19.1.0, SVG Export Plug-In . SVG Version: 6.00 Build 0)  -->
<svg version="1.1" xmlns="http://www.w3.org/2000/svg" xmlns:xlink="http://www.w3.org/1999/xlink" x="0px" y="0px" width="100px"
	 height="100px" viewBox="0 0 100 100" style="enable-background:new 0 0 100 100;" xml:space="preserve">
<style type="text/css">
	.st0{fill:#876929;}
	.st1{fill:#624A1E;}
	.st2{fill:#FAD791;}
	.st3{fill:#D9A741;}
	.st4{enable-background:new    ;}
	.st5{fill:#FFFFFF;}
	.st6{clip-path:url(#SVGID_2_);enable-background:new    ;}
	.st7{clip-path:url(#SVGID_4_);enable-background:new    ;}
	.st8{clip-path:url(#SVGID_6_);enable-background:new    ;}
</style>
<g id="Layer_1">
	<g>
		<g class="st4">
			<g>
				<rect x="28" y="21" class="st0" width="44" height="56"/>
			</g>
		</g>
	</g>
	<path class="st3" d="M28,21v53.7h44V21H28z"/>
	<polygon class="st3" points="24,34.9 30.8,42.4 24,49.9 	"/>
	<path class="st5" d="M23,52.5V32.3l9.1,10.1L23,52.5z M25,37.5v9.8l4.4-4.9L25,37.5z"/>
	<polygon class="st3" points="76,49.9 69.3,42.4 76,34.9 	"/>
	<path class="st5" d="M77,52.5l-9.1-10.1L77,32.3V52.5z M70.6,42.4l4.4,4.9v-9.8L70.6,42.4z"/>
	<rect x="33" y="26.3" class="st5" width="34" height="5"/>
	<rect x="33" y="33.9" class="st5" width="34" height="5"/>
	<rect x="33" y="41.5" class="st5" width="34" height="5"/>
	<rect x="33" y="49.1" class="st5" width="34" height="5"/>
	<rect x="33" y="56.7" class="st5" width="34" height="5"/>
	<rect x="33" y="64.3" class="st5" width="34" height="5"/>
</g>
<g id="Layer_2">
</g>
</svg>
