<?xml version="1.0" encoding="utf-8"?>
<!-- Generator: Adobe Illustrator 19.1.0, SVG Export Plug-In . SVG Version: 6.00 Build 0)  -->
<svg version="1.1" xmlns="http://www.w3.org/2000/svg" xmlns:xlink="http://www.w3.org/1999/xlink" x="0px" y="0px" width="100px"
	 height="100px" viewBox="0 0 100 100" style="enable-background:new 0 0 100 100;" xml:space="preserve">
<style type="text/css">
	.st0{fill:#876929;}
	.st1{fill:#624A1E;}
	.st2{fill:#FAD791;}
	.st3{fill:#D9A741;}
	.st4{enable-background:new    ;}
	.st5{fill:#FFFFFF;}
	.st6{clip-path:url(#SVGID_2_);enable-background:new    ;}
	.st7{clip-path:url(#SVGID_4_);enable-background:new    ;}
	.st8{clip-path:url(#SVGID_6_);enable-background:new    ;}
</style>
<g id="Layer_1">
	<polygon class="st1" points="15.9,38.1 23.1,38.8 29.1,37.6 21.6,23 	"/>
	<polygon class="st1" points="84.1,38.1 76.9,38.8 70.9,37.6 78.4,23 	"/>
	<polygon class="st0" points="15.9,57.2 50,62.3 84.1,57.2 84.1,43 50,38.1 15.9,43 	"/>
	<polygon class="st2" points="84.1,61.9 76.9,61.2 70.9,62.4 78.4,77 	"/>
	<polygon class="st2" points="15.9,61.9 23.1,61.2 29.1,62.4 21.6,77 	"/>
	<polygon class="st0" points="78.4,23 70.9,24.9 70.9,37.6 78.4,36.7 	"/>
	<polygon class="st1" points="75.1,35.9 67.3,36.9 58.9,35.2 67,17.3 	"/>
	<polygon class="st0" points="58.9,35.2 67,33.9 67,17.3 58.9,20 	"/>
	<polygon class="st3" points="21.6,23 29.1,24.9 29.1,37.6 21.6,36.7 	"/>
	<polygon class="st3" points="84.1,38.1 78.4,36.7 78.4,23 84.1,25.9 	"/>
	<polygon class="st1" points="24.9,35.9 32.7,36.9 41.1,35.2 33,17.3 	"/>
	<polygon class="st3" points="41.1,35.2 33,33.9 33,17.3 41.1,20 	"/>
	<polygon class="st3" points="84.1,57.2 50,62.3 50,38.1 84.1,43 	"/>
	<polygon class="st3" points="75.1,35.9 67,33.9 67,17.3 75.1,21.4 	"/>
	<polygon class="st1" points="62.5,32.8 50,35 37.5,32.8 50,8.8 	"/>
	<polygon class="st3" points="62.5,32.8 50,29.7 50,8.8 62.5,15.1 	"/>
	<polygon class="st0" points="15.9,38.1 21.6,36.7 21.6,23 15.9,25.9 	"/>
	<polygon class="st0" points="24.9,35.9 33,33.9 33,17.3 24.9,21.4 	"/>
	<polygon class="st0" points="37.5,32.8 50,29.7 50,8.8 37.5,15.1 	"/>
	<polygon class="st0" points="78.4,77 70.9,75.1 70.9,62.4 78.4,63.3 	"/>
	<polygon class="st3" points="84.1,61.9 78.4,63.3 78.4,77 84.1,74.1 	"/>
	<polygon class="st2" points="75.1,64.1 67.3,63.1 58.9,64.8 67,82.7 	"/>
	<polygon class="st3" points="75.1,64.1 67,66.1 67,82.7 75.1,78.6 	"/>
	<polygon class="st0" points="58.9,64.8 67,66.1 67,82.7 58.9,80 	"/>
	<polygon class="st3" points="21.6,77 29.1,75.1 29.1,62.4 21.6,63.3 	"/>
	<polygon class="st2" points="24.9,64.1 32.7,63.1 41.1,64.8 33,82.7 	"/>
	<polygon class="st3" points="41.1,64.8 33,66.1 33,82.7 41.1,80 	"/>
	<polygon class="st2" points="62.5,67.2 50,65 37.5,67.2 50,91.2 	"/>
	<polygon class="st3" points="62.5,67.2 50,70.3 50,91.2 62.5,84.9 	"/>
	<polygon class="st0" points="15.9,61.9 21.6,63.3 21.6,77 15.9,74.1 	"/>
	<polygon class="st0" points="24.9,64.1 33,66.1 33,82.7 24.9,78.6 	"/>
	<polygon class="st0" points="37.5,67.2 50,70.3 50,91.2 37.5,84.9 	"/>
</g>
<g id="Layer_2">
</g>
</svg>
