<?xml version="1.0" encoding="utf-8"?>
<!-- Generator: Adobe Illustrator 19.1.0, SVG Export Plug-In . SVG Version: 6.00 Build 0)  -->
<svg version="1.1" xmlns="http://www.w3.org/2000/svg" xmlns:xlink="http://www.w3.org/1999/xlink" x="0px" y="0px" width="100px"
	 height="100px" viewBox="0 0 100 100" style="enable-background:new 0 0 100 100;" xml:space="preserve">
<style type="text/css">
	.st0{fill:#876929;}
	.st1{fill:#624A1E;}
	.st2{fill:#FAD791;}
	.st3{fill:#D9A741;}
	.st4{enable-background:new    ;}
	.st5{fill:#FFFFFF;}
	.st6{clip-path:url(#SVGID_2_);enable-background:new    ;}
	.st7{clip-path:url(#SVGID_4_);enable-background:new    ;}
	.st8{clip-path:url(#SVGID_6_);enable-background:new    ;}
</style>
<g id="Layer_1">
	<polygon class="st0" points="15.9,35.5 15.9,74.1 50,91.2 84.1,74.1 84.1,64.5 55.1,60.9 55.1,39.1 84.1,35.5 84.1,25.9 50,8.8 
		15.9,25.9 	"/>
	<polygon class="st0" points="15.9,64.5 50,74.7 50,91.2 15.9,74.1 	"/>
	<polygon class="st0" points="20.3,76.3 15.9,74.1 15.9,25.9 20.3,23.7 	"/>
	<polygon class="st3" points="55.1,60.9 20.3,65.8 20.3,34.2 55.1,39.1 	"/>
	<polygon class="st3" points="84.1,35.5 50,25.3 50,8.8 84.1,25.9 	"/>
	<polygon class="st3" points="84.1,64.5 50,74.7 50,91.2 84.1,74.1 	"/>
	<polygon class="st0" points="37.4,58.8 50,60.4 50,39.5 37.4,41.1 	"/>
	<polygon class="st0" points="24.8,57.3 32.9,58.3 32.9,41.7 24.8,42.7 	"/>
	<polygon class="st1" points="20.3,34.2 50,25.3 84.1,35.5 55.1,39.1 	"/>
	<polygon class="st2" points="20.3,65.8 50,74.7 84.1,64.5 55.1,60.9 	"/>
	<polygon class="st3" points="84.1,56.1 50,60.4 50,39.5 84.1,43.9 	"/>
</g>
<g id="Layer_2">
</g>
</svg>
