<?xml version="1.0" encoding="utf-8"?>
<!-- Generator: Adobe Illustrator 19.1.0, SVG Export Plug-In . SVG Version: 6.00 Build 0)  -->
<svg version="1.1" id="Layer_1" xmlns="http://www.w3.org/2000/svg" xmlns:xlink="http://www.w3.org/1999/xlink" x="0px" y="0px"
	 width="16px" height="16px" viewBox="0 0 16 16" enable-background="new 0 0 16 16" xml:space="preserve">
<path d="M7.812,1c0.442,0,0.868,0.057,1.278,0.171s0.794,0.276,1.152,0.485s0.682,0.46,0.974,0.752s0.542,0.616,0.752,0.974
	s0.371,0.742,0.485,1.152s0.171,0.836,0.171,1.278c0,0.661-0.125,1.274-0.376,1.839s-0.608,1.078-1.073,1.538
	c-0.378,0.374-0.669,0.791-0.872,1.251S10,11.4,10,11.938v1.75c0,0.182-0.034,0.353-0.103,0.513s-0.162,0.299-0.28,0.417
	S9.36,14.829,9.2,14.897S8.87,15,8.687,15h-1.75c-0.182,0-0.353-0.034-0.513-0.103s-0.299-0.162-0.417-0.28S5.796,14.36,5.728,14.2
	s-0.103-0.33-0.103-0.513v-1.75c0-0.538-0.101-1.037-0.304-1.497S4.827,9.563,4.449,9.189c-0.465-0.46-0.823-0.973-1.073-1.538
	S3,6.473,3,5.812C3,5.37,3.057,4.944,3.171,4.534S3.447,3.74,3.656,3.382S4.117,2.7,4.408,2.408s0.616-0.542,0.974-0.752
	s0.742-0.371,1.152-0.485S7.37,1,7.812,1z M9.146,11.5c0.059-0.588,0.21-1.121,0.451-1.6s0.567-0.925,0.978-1.34
	c0.378-0.383,0.669-0.801,0.872-1.254s0.304-0.951,0.304-1.494s-0.104-1.053-0.311-1.531S10.95,3.386,10.595,3.03
	S9.822,2.393,9.344,2.186S8.355,1.875,7.812,1.875c-0.542,0-1.053,0.104-1.531,0.311S5.386,2.675,5.03,3.03S4.393,3.803,4.186,4.281
	C3.979,4.76,3.875,5.27,3.875,5.812s0.101,1.04,0.304,1.494C4.382,7.76,4.673,8.178,5.051,8.561c0.41,0.415,0.736,0.861,0.978,1.34
	s0.392,1.012,0.451,1.6H9.146z M8.687,14.125c0.118,0,0.221-0.043,0.308-0.13s0.13-0.189,0.13-0.308v-1.312H6.5v1.312
	c0,0.118,0.043,0.221,0.13,0.308s0.189,0.13,0.308,0.13H8.687z"/>
</svg>
