<?xml version="1.0" encoding="utf-8"?>
<!-- Generator: Adobe Illustrator 19.1.0, SVG Export Plug-In . SVG Version: 6.00 Build 0)  -->
<svg version="1.1" id="Layer_1" xmlns="http://www.w3.org/2000/svg" xmlns:xlink="http://www.w3.org/1999/xlink" x="0px" y="0px"
	 width="16px" height="16px" viewBox="0 0 16 16" enable-background="new 0 0 16 16" xml:space="preserve">
<path d="M14.25,9L16,9.668v5.582L14.25,16l-2.75-2.75l-1.832,1.418L9,14.25v-3.496l0.668-0.422L11.5,11.75L14.25,9z M9.75,13.5l1-1
	l-1-1V13.5z M14.25,14v-3l-1.75,1.5L14.25,14z"/>
<path d="M6.676,10.352C6.892,9.925,7,9.475,7,9c0-0.411,0.079-0.799,0.238-1.164c0.159-0.364,0.374-0.682,0.645-0.953
	c0.271-0.271,0.588-0.485,0.953-0.645C9.2,6.08,9.588,6,10,6c0.411,0,0.799,0.08,1.164,0.238c0.364,0.159,0.682,0.374,0.953,0.645
	c0.271,0.271,0.485,0.589,0.645,0.953c0.023,0.053,0.032,0.11,0.052,0.164h1.053c-0.009-0.035-0.013-0.071-0.023-0.105
	c-0.104-0.356-0.253-0.689-0.445-1c-0.193-0.31-0.426-0.591-0.699-0.844c-0.273-0.252-0.58-0.465-0.918-0.637
	c0.38-0.281,0.678-0.635,0.895-1.062C12.892,3.925,13,3.475,13,3c0-0.411-0.08-0.799-0.238-1.164
	c-0.159-0.364-0.374-0.682-0.645-0.953c-0.271-0.271-0.589-0.485-0.953-0.645C10.799,0.08,10.411,0,10,0
	C9.588,0,9.2,0.08,8.836,0.238C8.471,0.397,8.153,0.612,7.883,0.883C7.612,1.154,7.397,1.472,7.238,1.836C7.079,2.201,7,2.589,7,3
	c0,0.475,0.108,0.925,0.324,1.352C7.54,4.779,7.838,5.133,8.219,5.414c-0.391,0.198-0.74,0.451-1.047,0.758
	c-0.308,0.308-0.56,0.656-0.758,1.047c-0.281-0.38-0.636-0.678-1.062-0.895C4.924,6.108,4.474,6,4,6C3.588,6,3.2,6.08,2.836,6.238
	C2.471,6.397,2.153,6.612,1.883,6.883C1.612,7.154,1.397,7.472,1.238,7.836C1.079,8.201,1,8.589,1,9
	c0,0.475,0.108,0.925,0.324,1.352c0.216,0.428,0.514,0.781,0.895,1.062c-0.339,0.172-0.645,0.385-0.918,0.637
	c-0.273,0.253-0.507,0.534-0.699,0.844c-0.193,0.311-0.341,0.644-0.445,1C0.052,14.252,0,14.62,0,15h1
	c0-0.411,0.079-0.799,0.238-1.164c0.159-0.364,0.374-0.682,0.645-0.953c0.271-0.271,0.588-0.485,0.953-0.645
	C3.2,12.08,3.588,12,4,12c0.411,0,0.799,0.08,1.164,0.238c0.364,0.159,0.682,0.374,0.953,0.645c0.271,0.271,0.485,0.589,0.645,0.953
	C6.92,14.201,7,14.589,7,15h1c0-0.38-0.052-0.748-0.156-1.105c-0.104-0.356-0.253-0.689-0.445-1
	c-0.193-0.31-0.426-0.591-0.699-0.844c-0.273-0.252-0.58-0.465-0.918-0.637C6.161,11.133,6.459,10.779,6.676,10.352z M8.16,3.777
	C8.053,3.535,8,3.276,8,3c0-0.271,0.053-0.528,0.16-0.773C8.267,1.982,8.41,1.77,8.59,1.59S8.98,1.268,9.223,1.16
	C9.465,1.054,9.724,1,10,1c0.271,0,0.528,0.054,0.773,0.16c0.245,0.107,0.457,0.25,0.637,0.43s0.323,0.393,0.43,0.637
	C11.946,2.472,12,2.729,12,3c0,0.276-0.054,0.535-0.16,0.777C11.733,4.02,11.59,4.23,11.41,4.41s-0.392,0.323-0.637,0.43
	C10.528,4.947,10.271,5,10,5C9.724,5,9.465,4.947,9.223,4.84C8.98,4.733,8.77,4.59,8.59,4.41S8.267,4.02,8.16,3.777z M5.84,9.777
	C5.733,10.02,5.59,10.23,5.41,10.41s-0.392,0.323-0.637,0.43C4.528,10.947,4.271,11,4,11c-0.276,0-0.535-0.053-0.777-0.16
	C2.98,10.733,2.77,10.59,2.59,10.41S2.267,10.02,2.16,9.777C2.053,9.535,2,9.276,2,9c0-0.271,0.053-0.528,0.16-0.773
	C2.267,7.982,2.41,7.77,2.59,7.59S2.98,7.268,3.223,7.16C3.465,7.054,3.724,7,4,7c0.271,0,0.528,0.054,0.773,0.16
	C5.018,7.268,5.23,7.41,5.41,7.59s0.323,0.393,0.43,0.637C5.946,8.472,6,8.729,6,9C6,9.276,5.946,9.535,5.84,9.777z"/>
</svg>
