<?xml version="1.0" encoding="utf-8"?>
<!-- Generator: Adobe Illustrator 19.1.0, SVG Export Plug-In . SVG Version: 6.00 Build 0)  -->
<svg version="1.1" id="Layer_1" xmlns="http://www.w3.org/2000/svg" xmlns:xlink="http://www.w3.org/1999/xlink" x="0px" y="0px"
	 width="16px" height="16px" viewBox="0 0 16 16" enable-background="new 0 0 16 16" xml:space="preserve">
<path d="M8,15c-0.647,0-1.268-0.083-1.863-0.25s-1.152-0.401-1.671-0.704s-0.992-0.668-1.418-1.094s-0.791-0.899-1.094-1.418
	S1.416,10.456,1.25,9.859S1,8.643,1,8s0.083-1.262,0.25-1.859s0.401-1.155,0.704-1.675s0.668-0.992,1.094-1.418
	s0.899-0.791,1.418-1.094S5.544,1.416,6.141,1.25S7.357,1,8,1s1.262,0.083,1.859,0.25s1.155,0.401,1.675,0.704
	s0.992,0.668,1.418,1.094s0.791,0.899,1.094,1.418s0.538,1.078,0.704,1.675S15,7.357,15,8c0,0.647-0.083,1.268-0.25,1.863
	s-0.401,1.152-0.704,1.671s-0.668,0.992-1.094,1.418s-0.899,0.791-1.418,1.094s-1.078,0.538-1.675,0.704S8.643,15,8,15z M8,1.875
	c-0.561,0-1.102,0.073-1.624,0.219S5.367,2.446,4.914,2.712s-0.867,0.587-1.241,0.96S2.979,4.46,2.712,4.914S2.24,5.855,2.094,6.376
	S1.875,7.439,1.875,8s0.073,1.102,0.219,1.624s0.352,1.009,0.619,1.463s0.587,0.867,0.96,1.241s0.787,0.694,1.241,0.96
	s0.941,0.473,1.463,0.619S7.439,14.125,8,14.125s1.102-0.073,1.624-0.219s1.009-0.352,1.463-0.619s0.867-0.587,1.241-0.96
	s0.694-0.787,0.96-1.241s0.473-0.941,0.619-1.463S14.125,8.561,14.125,8s-0.073-1.102-0.219-1.624s-0.352-1.009-0.619-1.463
	s-0.587-0.867-0.96-1.241s-0.787-0.694-1.241-0.96S10.145,2.24,9.624,2.094S8.561,1.875,8,1.875z"/>
<polygon points="7.861,4.056 7.861,7.272 10,9.417 9.473,9.944 7.111,7.589 7.111,4.056 "/>
</svg>
