<?xml version="1.0" encoding="utf-8"?>
<!-- Generator: Adobe Illustrator 19.1.0, SVG Export Plug-In . SVG Version: 6.00 Build 0)  -->
<svg version="1.1" id="Layer_1" xmlns="http://www.w3.org/2000/svg" xmlns:xlink="http://www.w3.org/1999/xlink" x="0px" y="0px"
	 width="16px" height="16px" viewBox="0 0 16 16" enable-background="new 0 0 16 16" xml:space="preserve">
<path d="M7.5,2.453L12,5.051v5.196l-4.5,2.598L3,10.247V5.051L7.5,2.453 M7.5,1.298L2,4.474v6.351L7.5,14l5.5-3.175V4.474L7.5,1.298
	L7.5,1.298z"/>
<path d="M7.5,13.392c-0.276,0-0.5-0.224-0.5-0.5V7.649c0-0.276,0.224-0.5,0.5-0.5S8,7.373,8,7.649v5.243
	C8,13.168,7.776,13.392,7.5,13.392z"/>
<path d="M7.5,8.149c-0.086,0-0.173-0.022-0.25-0.067L2.759,5.489C2.52,5.351,2.438,5.045,2.576,4.806
	C2.713,4.567,3.02,4.485,3.259,4.623L7.5,7.072l4.238-2.447c0.237-0.138,0.544-0.057,0.683,0.183
	c0.138,0.239,0.056,0.545-0.183,0.683L7.75,8.082C7.673,8.126,7.586,8.149,7.5,8.149z"/>
<path d="M2.759,13.671L0.25,12.223C0.095,12.133,0,11.968,0,11.79V3.432c0-0.179,0.095-0.344,0.25-0.433L2.759,1.55l0.5,0.866
	L1,3.721v7.78l2.259,1.304L2.759,13.671z"/>
<path d="M12.25,13.671l-0.5-0.866l2.259-1.304v-7.78L11.75,2.417l0.5-0.866l2.509,1.449c0.155,0.089,0.25,0.254,0.25,0.433v8.357
	c0,0.179-0.095,0.344-0.25,0.433L12.25,13.671z"/>
</svg>
