<?xml version="1.0" encoding="utf-8"?>
<!-- Generator: Adobe Illustrator 19.1.0, SVG Export Plug-In . SVG Version: 6.00 Build 0)  -->
<svg version="1.1" id="Layer_1" xmlns="http://www.w3.org/2000/svg" xmlns:xlink="http://www.w3.org/1999/xlink" x="0px" y="0px"
	 width="16px" height="16px" viewBox="0 0 16 16" enable-background="new 0 0 16 16" xml:space="preserve">
<path d="M8,1.064c3.825,0,6.936,3.111,6.936,6.936S11.825,14.936,8,14.936S1.064,11.825,1.064,8S4.175,1.064,8,1.064 M8,0
	C3.582,0,0,3.582,0,8c0,4.418,3.582,8,8,8c4.418,0,8-3.582,8-8C16,3.582,12.418,0,8,0L8,0z"/>
<rect x="3.408" y="5.124" transform="matrix(0.8189 0.5739 -0.5739 0.8189 4.8941 -4.7313)" width="13.073" height="0.532"/>
<rect x="-0.532" y="10.272" transform="matrix(0.7818 0.6235 -0.6235 0.7818 7.9204 -1.5588)" width="13.438" height="0.532"/>
<rect x="6.42" y="0.099" transform="matrix(0.8566 0.516 -0.516 0.8566 4.8722 -2.5102)" width="1.064" height="14.822"/>
<circle cx="12.518" cy="7.193" r="1.541"/>
<circle cx="5.536" cy="9.853" r="1.541"/>
<circle cx="9.446" cy="13.042" r="0.829"/>
</svg>
