<?xml version="1.0" encoding="utf-8"?>
<!-- Generator: Adobe Illustrator 19.1.0, SVG Export Plug-In . SVG Version: 6.00 Build 0)  -->
<svg version="1.1" id="Layer_1" xmlns="http://www.w3.org/2000/svg" xmlns:xlink="http://www.w3.org/1999/xlink" x="0px" y="0px"
	 width="16px" height="16px" viewBox="0 0 16 16" enable-background="new 0 0 16 16" xml:space="preserve">
<path d="M8,0C5.196,0,3,1.538,3,3.5v9C3,14.462,5.196,16,8,16c2.804,0,5-1.538,5-3.5v-9C13,1.538,10.804,0,8,0z M12,12.5
	c0,1.355-1.832,2.5-4,2.5s-4-1.145-4-2.5V5.618C4.905,6.461,6.344,7,8,7s3.095-0.539,4-1.382V12.5z M8,6C5.832,6,4,4.855,4,3.5
	S5.832,1,8,1s4,1.145,4,2.5S10.168,6,8,6z"/>
<path d="M6.473,13.469v-0.773c0.088,0.078,0.195,0.148,0.318,0.211s0.254,0.115,0.391,0.158s0.274,0.076,0.412,0.1
	s0.266,0.035,0.383,0.035c0.404,0,0.705-0.075,0.904-0.225s0.299-0.365,0.299-0.646c0-0.151-0.033-0.282-0.1-0.395
	s-0.158-0.214-0.275-0.307c-0.117-0.093-0.256-0.181-0.416-0.266s-0.333-0.174-0.518-0.268c-0.195-0.099-0.377-0.199-0.547-0.301
	s-0.316-0.214-0.441-0.336s-0.223-0.261-0.295-0.416S6.48,9.704,6.48,9.496c0-0.255,0.056-0.478,0.168-0.666S6.908,8.485,7.09,8.363
	S7.48,8.149,7.713,8.09S8.184,8,8.426,8C8.978,8,9.38,8.066,9.633,8.199v0.738C9.302,8.708,8.877,8.594,8.359,8.594
	c-0.143,0-0.287,0.015-0.43,0.045S7.659,8.718,7.547,8.785S7.344,8.94,7.273,9.047S7.168,9.284,7.168,9.438
	c0,0.144,0.027,0.267,0.08,0.371s0.132,0.199,0.236,0.285s0.231,0.169,0.381,0.25s0.322,0.169,0.518,0.266
	c0.201,0.099,0.391,0.203,0.57,0.312s0.337,0.23,0.473,0.363s0.243,0.28,0.322,0.441s0.119,0.347,0.119,0.555
	c0,0.276-0.054,0.51-0.162,0.701s-0.254,0.347-0.438,0.467s-0.395,0.206-0.635,0.26s-0.492,0.08-0.758,0.08
	c-0.088,0-0.198-0.007-0.328-0.021s-0.263-0.035-0.398-0.062s-0.264-0.062-0.385-0.102S6.545,13.519,6.473,13.469z"/>
</svg>
