<?xml version="1.0" encoding="utf-8"?>
<!-- Generator: Adobe Illustrator 19.1.0, SVG Export Plug-In . SVG Version: 6.00 Build 0)  -->
<svg version="1.1" id="Layer_1" xmlns="http://www.w3.org/2000/svg" xmlns:xlink="http://www.w3.org/1999/xlink" x="0px" y="0px"
	 width="16px" height="16px" viewBox="0 0 16 16" enable-background="new 0 0 16 16" xml:space="preserve">
<path d="M7.5,4.113L10,5.557v2.887L7.5,9.887L5,8.443V5.557L7.5,4.113 M7.5,2.959L4,4.979v4.041l3.5,2.021L11,9.021V4.979L7.5,2.959
	L7.5,2.959z"/>
<path d="M7.5,10.524c-0.276,0-0.5-0.224-0.5-0.5V7c0-0.276,0.224-0.5,0.5-0.5S8,6.724,8,7v3.024C8,10.3,7.776,10.524,7.5,10.524z"/>
<path d="M7.5,7.5c-0.086,0-0.173-0.022-0.25-0.067L4.624,5.917C4.385,5.779,4.303,5.473,4.441,5.234
	c0.138-0.24,0.444-0.322,0.683-0.183L7.5,6.423l2.555-1.476c0.238-0.139,0.545-0.057,0.683,0.183
	c0.138,0.239,0.056,0.545-0.183,0.683L7.75,7.433C7.673,7.478,7.586,7.5,7.5,7.5z"/>
<path d="M0,13h7v1H4v1h7v-1H8v-1h7V1H0V13z M1,2h13v10H1V2z"/>
</svg>
