<?xml version="1.0" encoding="utf-8"?>
<!-- Generator: Adobe Illustrator 19.1.0, SVG Export Plug-In . SVG Version: 6.00 Build 0)  -->
<svg version="1.1" id="Layer_1" xmlns="http://www.w3.org/2000/svg" xmlns:xlink="http://www.w3.org/1999/xlink" x="0px" y="0px"
	 width="16px" height="16px" viewBox="0 0 16 16" enable-background="new 0 0 16 16" xml:space="preserve">
<path fill="#0372C6" d="M7.5,15c-0.693,0-1.358-0.089-1.996-0.266s-1.236-0.428-1.793-0.754s-1.064-0.716-1.52-1.172
	s-0.846-0.962-1.172-1.52s-0.577-1.155-0.754-1.793S0,8.193,0,7.5s0.089-1.358,0.266-1.996S0.694,4.268,1.02,3.711
	s0.716-1.064,1.172-1.52s0.962-0.846,1.52-1.172s1.155-0.577,1.793-0.754S6.807,0,7.5,0s1.358,0.089,1.996,0.266
	s1.236,0.428,1.793,0.754s1.064,0.716,1.52,1.172s0.846,0.962,1.172,1.52s0.577,1.155,0.754,1.793S15,6.807,15,7.5
	s-0.089,1.358-0.266,1.996s-0.428,1.236-0.754,1.793s-0.716,1.064-1.172,1.52s-0.962,0.846-1.52,1.172s-1.155,0.577-1.793,0.754
	S8.193,15,7.5,15z"/>
<path fill="#FFFFFF" d="M7.5,11.438c0.451,0,0.884-0.069,1.298-0.209c0.414-0.139,0.792-0.335,1.134-0.589
	c0.342-0.254,0.639-0.558,0.892-0.914s0.446-0.751,0.578-1.184l0.536,0.167c-0.147,0.489-0.366,0.935-0.656,1.338
	s-0.63,0.749-1.021,1.039S9.44,11.601,8.97,11.76S8.01,12,7.5,12c-0.402,0-0.793-0.05-1.174-0.149
	c-0.381-0.1-0.74-0.244-1.078-0.433s-0.651-0.419-0.938-0.69c-0.287-0.271-0.536-0.578-0.747-0.921v1.068H3v-2.25h2.25v0.562H3.861
	C4.034,9.53,4.248,9.84,4.505,10.117c0.257,0.277,0.543,0.513,0.86,0.708s0.656,0.346,1.017,0.453
	C6.742,11.384,7.116,11.438,7.5,11.438z M12,4.125v2.25H9.75V5.812h1.389C10.966,5.47,10.75,5.16,10.494,4.883
	C10.239,4.606,9.952,4.37,9.636,4.176S8.98,3.83,8.618,3.723S7.883,3.562,7.5,3.562c-0.452,0-0.884,0.069-1.299,0.209
	C5.786,3.911,5.408,4.107,5.067,4.36C4.726,4.614,4.429,4.918,4.175,5.274S3.729,6.025,3.598,6.458L3.062,6.292
	C3.207,5.805,3.425,5.36,3.715,4.956s0.631-0.751,1.022-1.042S5.559,3.399,6.03,3.24S6.99,3,7.5,3c0.401,0,0.792,0.05,1.172,0.149
	c0.381,0.1,0.741,0.244,1.079,0.433s0.651,0.419,0.939,0.69c0.287,0.271,0.536,0.578,0.747,0.921V4.125H12z"/>
</svg>
