<?xml version="1.0" encoding="utf-8"?>
<!-- Generator: Adobe Illustrator 19.1.0, SVG Export Plug-In . SVG Version: 6.00 Build 0)  -->
<svg version="1.1" id="Layer_1" xmlns="http://www.w3.org/2000/svg" xmlns:xlink="http://www.w3.org/1999/xlink" x="0px" y="0px"
	 width="16px" height="16px" viewBox="0 0 16 16" enable-background="new 0 0 16 16" xml:space="preserve">
<path fill="#0372C6" d="M7.5,15c-0.693,0-1.358-0.089-1.996-0.266s-1.236-0.428-1.793-0.754s-1.064-0.716-1.52-1.172
	s-0.846-0.962-1.172-1.52s-0.577-1.155-0.754-1.793S0,8.193,0,7.5s0.089-1.358,0.266-1.996S0.694,4.268,1.02,3.711
	s0.716-1.064,1.172-1.52s0.962-0.846,1.52-1.172s1.155-0.577,1.793-0.754S6.807,0,7.5,0s1.358,0.089,1.996,0.266
	s1.236,0.428,1.793,0.754s1.064,0.716,1.52,1.172s0.846,0.962,1.172,1.52s0.577,1.155,0.754,1.793S15,6.807,15,7.5
	s-0.089,1.358-0.266,1.996s-0.428,1.236-0.754,1.793s-0.716,1.064-1.172,1.52s-0.962,0.846-1.52,1.172s-1.155,0.577-1.793,0.754
	S8.193,15,7.5,15z"/>
<rect x="7" y="4" fill="#FFFFFF" width="1" height="1"/>
<rect x="7" y="6" fill="#FFFFFF" width="1" height="5"/>
</svg>
