<?xml version="1.0" encoding="utf-8"?>
<!-- Generator: Adobe Illustrator 19.1.0, SVG Export Plug-In . SVG Version: 6.00 Build 0)  -->
<svg version="1.1" id="Layer_1" xmlns="http://www.w3.org/2000/svg" xmlns:xlink="http://www.w3.org/1999/xlink" x="0px" y="0px"
	 width="16px" height="16px" viewBox="0 0 16 16" enable-background="new 0 0 16 16" xml:space="preserve">
<path fill="#7FBA00" d="M7.5,14.5c-0.641,0-1.266-0.084-1.857-0.249c-0.597-0.167-1.161-0.403-1.677-0.705
	c-0.517-0.302-0.995-0.67-1.418-1.093c-0.423-0.424-0.792-0.901-1.094-1.419c-0.301-0.516-0.538-1.079-0.704-1.673
	C0.584,8.771,0.5,8.146,0.5,7.5c0-0.641,0.084-1.266,0.249-1.857c0.167-0.597,0.403-1.161,0.705-1.677
	c0.302-0.517,0.67-0.995,1.093-1.418c0.424-0.423,0.901-0.792,1.419-1.094c0.516-0.301,1.079-0.538,1.673-0.704
	C6.229,0.584,6.854,0.5,7.5,0.5c0.641,0,1.266,0.084,1.857,0.249c0.597,0.167,1.161,0.403,1.677,0.705
	c0.517,0.302,0.995,0.67,1.418,1.093c0.423,0.424,0.792,0.901,1.094,1.419c0.301,0.516,0.538,1.08,0.704,1.676
	C14.416,6.234,14.5,6.859,14.5,7.5s-0.084,1.266-0.249,1.857c-0.167,0.597-0.403,1.161-0.705,1.677
	c-0.302,0.517-0.67,0.995-1.093,1.418c-0.424,0.423-0.901,0.792-1.419,1.094c-0.516,0.301-1.08,0.538-1.676,0.704
	C8.766,14.416,8.141,14.5,7.5,14.5z"/>
<path fill="#FFFFFF" d="M7.5,1c0.595,0,1.175,0.078,1.724,0.231c0.554,0.154,1.079,0.375,1.559,0.655
	c0.48,0.28,0.923,0.622,1.317,1.015c0.394,0.394,0.735,0.837,1.015,1.317c0.28,0.48,0.5,1.005,0.655,1.559
	C13.922,6.325,14,6.905,14,7.5s-0.078,1.175-0.231,1.724c-0.154,0.554-0.375,1.079-0.655,1.559c-0.28,0.48-0.622,0.923-1.015,1.317
	c-0.394,0.394-0.837,0.735-1.317,1.015c-0.48,0.28-1.005,0.5-1.559,0.655C8.675,13.922,8.095,14,7.5,14s-1.175-0.078-1.724-0.231
	c-0.554-0.154-1.079-0.375-1.559-0.655c-0.48-0.28-0.923-0.622-1.317-1.015c-0.394-0.394-0.735-0.837-1.015-1.317
	c-0.28-0.48-0.501-1.004-0.655-1.556C1.078,8.68,1,8.099,1,7.5c0-0.595,0.078-1.175,0.231-1.724
	c0.154-0.554,0.375-1.079,0.655-1.559c0.28-0.48,0.622-0.923,1.015-1.317c0.394-0.394,0.837-0.735,1.317-1.015
	c0.48-0.28,1.004-0.501,1.556-0.655C6.32,1.078,6.901,1,7.5,1 M7.5,0C6.807,0,6.141,0.089,5.504,0.267
	C4.867,0.446,4.27,0.697,3.713,1.022C3.157,1.346,2.65,1.737,2.194,2.194C1.737,2.65,1.346,3.157,1.022,3.713
	S0.446,4.868,0.267,5.508C0.089,6.147,0,6.812,0,7.5c0,0.693,0.089,1.359,0.267,1.996c0.178,0.637,0.43,1.234,0.754,1.791
	s0.715,1.063,1.172,1.52c0.457,0.457,0.963,0.847,1.52,1.172c0.557,0.325,1.155,0.576,1.794,0.754C6.147,14.911,6.812,15,7.5,15
	s1.353-0.089,1.992-0.267c0.64-0.178,1.238-0.43,1.794-0.754c0.557-0.325,1.063-0.715,1.52-1.172
	c0.457-0.457,0.847-0.963,1.172-1.52c0.325-0.557,0.576-1.155,0.754-1.794C14.911,8.853,15,8.188,15,7.5s-0.089-1.353-0.267-1.992
	c-0.178-0.64-0.43-1.238-0.754-1.794c-0.325-0.557-0.715-1.063-1.172-1.52c-0.457-0.457-0.963-0.847-1.52-1.172
	c-0.557-0.325-1.155-0.576-1.794-0.754C8.853,0.089,8.188,0,7.5,0L7.5,0z"/>
<polygon fill="#FFFFFF" points="10.92,4.358 11.58,5.017 6.094,10.503 3.42,7.83 4.08,7.17 6.094,9.185 "/>
</svg>
