<?xml version="1.0" encoding="utf-8"?>
<!-- Generator: Adobe Illustrator 19.1.0, SVG Export Plug-In . SVG Version: 6.00 Build 0)  -->
<svg version="1.1" id="Layer_1" xmlns="http://www.w3.org/2000/svg" xmlns:xlink="http://www.w3.org/1999/xlink" x="0px" y="0px"
	 width="16px" height="16px" viewBox="0 0 16 16" enable-background="new 0 0 16 16" xml:space="preserve">
<path fill="#EB1023" d="M7.55,0c0.692,0,1.356,0.09,1.995,0.27c0.639,0.18,1.236,0.431,1.792,0.755
	c0.556,0.324,1.062,0.713,1.518,1.17c0.456,0.456,0.846,0.962,1.17,1.518c0.324,0.556,0.576,1.153,0.755,1.792
	s0.27,1.304,0.27,1.995c0,0.692-0.09,1.356-0.27,1.995s-0.431,1.236-0.755,1.792c-0.324,0.556-0.713,1.062-1.17,1.518
	c-0.456,0.456-0.962,0.846-1.518,1.17c-0.556,0.324-1.153,0.576-1.792,0.755C8.907,14.91,8.242,15,7.55,15s-1.356-0.09-1.995-0.27
	c-0.639-0.179-1.236-0.431-1.792-0.755c-0.556-0.324-1.062-0.713-1.518-1.17c-0.456-0.456-0.846-0.962-1.17-1.518
	c-0.324-0.556-0.576-1.153-0.755-1.792S0.05,8.192,0.05,7.5c0-0.691,0.09-1.356,0.27-1.995s0.431-1.236,0.755-1.792
	s0.713-1.062,1.17-1.518s0.962-0.846,1.518-1.17S4.916,0.45,5.555,0.27C6.194,0.09,6.858,0,7.55,0z"/>
<path fill="#FFFFFF" d="M9.373,5c0.091,0,0.178,0.017,0.26,0.052c0.082,0.035,0.155,0.084,0.218,0.146
	c0.063,0.063,0.111,0.136,0.146,0.218c0.035,0.083,0.052,0.169,0.052,0.26v3.646c0,0.091-0.017,0.178-0.052,0.26
	C9.963,9.666,9.914,9.739,9.852,9.801C9.789,9.865,9.716,9.913,9.634,9.948C9.551,9.983,9.464,10,9.373,10H5.727
	c-0.091,0-0.178-0.017-0.26-0.052C5.385,9.913,5.311,9.865,5.249,9.801C5.186,9.739,5.137,9.666,5.102,9.583
	C5.067,9.501,5.05,9.414,5.05,9.323V5.677c0-0.091,0.017-0.178,0.052-0.26c0.035-0.082,0.084-0.155,0.146-0.218
	c0.063-0.063,0.136-0.111,0.218-0.146C5.549,5.017,5.636,5,5.727,5H9.373z"/>
</svg>
