<?xml version="1.0" encoding="utf-8"?>
<!-- Generator: Adobe Illustrator 19.1.0, SVG Export Plug-In . SVG Version: 6.00 Build 0)  -->
<svg version="1.1" id="Layer_1" xmlns="http://www.w3.org/2000/svg" xmlns:xlink="http://www.w3.org/1999/xlink" x="0px" y="0px"
	 width="16px" height="16px" viewBox="0 0 16 16" enable-background="new 0 0 16 16" xml:space="preserve">
<rect x="7" y="12" fill="#FFFFFF" width="1" height="1"/>
<path fill="#BA131A" d="M7.5,0c0.688,0,1.353,0.089,1.992,0.267s1.237,0.431,1.791,0.758s1.06,0.719,1.516,1.176
	s0.848,0.962,1.176,1.516s0.58,1.151,0.758,1.791S15,6.812,15,7.5s-0.089,1.353-0.267,1.992s-0.431,1.237-0.758,1.791
	s-0.719,1.06-1.176,1.516s-0.962,0.848-1.516,1.176s-1.151,0.58-1.791,0.758S8.188,15,7.5,15s-1.353-0.089-1.992-0.267
	s-1.237-0.431-1.791-0.758s-1.06-0.719-1.516-1.176s-0.848-0.962-1.176-1.516s-0.58-1.151-0.758-1.791S0,8.188,0,7.5
	s0.089-1.353,0.267-1.992s0.431-1.237,0.758-1.791s0.719-1.06,1.176-1.516s0.962-0.848,1.516-1.176s1.151-0.58,1.791-0.758
	S6.812,0,7.5,0z"/>
<polygon fill="#FFFFFF" points="10.745,4.915 8.167,7.5 10.745,10.085 10.085,10.745 7.5,8.167 4.915,10.745 4.255,10.085 
	6.833,7.5 4.255,4.915 4.915,4.255 7.5,6.833 10.085,4.255 "/>
</svg>
