<?xml version="1.0" encoding="utf-8"?>
<!-- Generator: Adobe Illustrator 19.1.0, SVG Export Plug-In . SVG Version: 6.00 Build 0)  -->
<svg version="1.1" id="Layer_1" xmlns="http://www.w3.org/2000/svg" xmlns:xlink="http://www.w3.org/1999/xlink" x="0px" y="0px"
	 width="16px" height="16px" viewBox="0 0 16 16" enable-background="new 0 0 16 16" xml:space="preserve">
<path fill="#7FBA00" d="M7.5,0c0.688,0,1.353,0.089,1.992,0.267s1.238,0.43,1.794,0.754s1.063,0.715,1.52,1.172
	s0.847,0.963,1.172,1.52s0.576,1.155,0.754,1.794S15,6.812,15,7.5s-0.089,1.353-0.267,1.992s-0.43,1.238-0.754,1.794
	s-0.715,1.063-1.172,1.52s-0.963,0.847-1.52,1.172s-1.155,0.576-1.794,0.754S8.188,15,7.5,15s-1.353-0.089-1.992-0.267
	s-1.238-0.43-1.794-0.754s-1.063-0.715-1.52-1.172s-0.847-0.963-1.172-1.52s-0.576-1.154-0.754-1.791S0,8.193,0,7.5
	c0-0.688,0.089-1.353,0.267-1.992s0.43-1.238,0.754-1.794s0.715-1.063,1.172-1.52s0.963-0.847,1.52-1.172s1.154-0.576,1.791-0.754
	S6.807,0,7.5,0z"/>
<polygon fill="#FFFFFF" points="10.92,4.358 11.58,5.017 6.094,10.503 3.42,7.83 4.08,7.17 6.094,9.185 "/>
</svg>
