<?xml version="1.0" encoding="utf-8"?>
<!-- Generator: Adobe Illustrator 19.1.0, SVG Export Plug-In . SVG Version: 6.00 Build 0)  -->
<svg version="1.1" id="Layer_1" xmlns="http://www.w3.org/2000/svg" xmlns:xlink="http://www.w3.org/1999/xlink" x="0px" y="0px"
	 width="16px" height="16px" viewBox="0 0 16 16" enable-background="new 0 0 16 16" xml:space="preserve">
<path fill="#7A7A7A" d="M7.5,0c0.69,0,1.354,0.089,1.993,0.267c0.637,0.178,1.236,0.431,1.793,0.757
	c0.557,0.327,1.063,0.718,1.518,1.173s0.845,0.961,1.173,1.518c0.327,0.557,0.579,1.155,0.757,1.793C14.911,6.146,15,6.81,15,7.5
	s-0.089,1.355-0.267,1.993c-0.178,0.638-0.431,1.236-0.757,1.793c-0.328,0.557-0.718,1.063-1.173,1.518s-0.961,0.846-1.518,1.173
	c-0.557,0.327-1.155,0.58-1.793,0.757C8.854,14.911,8.19,15,7.5,15s-1.355-0.089-1.993-0.267c-0.638-0.177-1.236-0.43-1.793-0.757
	c-0.557-0.327-1.063-0.718-1.518-1.173s-0.846-0.961-1.173-1.518c-0.328-0.557-0.58-1.154-0.757-1.793C0.088,8.855,0,8.19,0,7.5
	s0.088-1.354,0.267-1.993c0.177-0.638,0.43-1.236,0.757-1.793C1.35,3.158,1.742,2.652,2.197,2.197s0.961-0.846,1.518-1.173
	c0.557-0.327,1.154-0.579,1.793-0.757C6.145,0.089,6.81,0,7.5,0z"/>
<path fill="#FFFFFF" d="M7.5,3.483c0.345,0,0.669,0.067,0.973,0.2c0.303,0.133,0.569,0.314,0.796,0.541
	C9.497,4.452,9.677,4.718,9.81,5.021c0.133,0.304,0.2,0.628,0.2,0.973c0,0.314-0.05,0.587-0.149,0.82
	c-0.1,0.233-0.224,0.443-0.373,0.632s-0.31,0.36-0.482,0.514C8.834,8.113,8.673,8.268,8.524,8.422
	C8.375,8.576,8.25,8.741,8.151,8.916c-0.1,0.176-0.149,0.373-0.149,0.592v0.502H6.998V9.508c0-0.314,0.049-0.587,0.149-0.82
	C7.246,8.456,7.371,8.245,7.52,8.057c0.149-0.188,0.31-0.359,0.482-0.514C8.175,7.389,8.336,7.235,8.485,7.08
	c0.149-0.154,0.273-0.318,0.373-0.49c0.099-0.173,0.149-0.371,0.149-0.596c0-0.209-0.039-0.405-0.118-0.588
	C8.81,5.222,8.702,5.063,8.567,4.927C8.431,4.791,8.271,4.684,8.088,4.605C7.905,4.527,7.709,4.487,7.5,4.487
	c-0.21,0-0.406,0.039-0.588,0.118C6.728,4.684,6.568,4.791,6.433,4.927C6.297,5.063,6.19,5.222,6.111,5.405
	c-0.078,0.183-0.118,0.38-0.118,0.588H4.99c0-0.345,0.065-0.669,0.196-0.973c0.13-0.303,0.31-0.569,0.537-0.796
	c0.228-0.228,0.494-0.408,0.8-0.541C6.829,3.55,7.155,3.483,7.5,3.483z"/>
<rect x="6.998" y="11.015" fill="#FFFFFF" width="1.004" height="1.004"/>
</svg>
