<?xml version="1.0" encoding="utf-8"?>
<!-- Generator: Adobe Illustrator 19.1.0, SVG Export Plug-In . SVG Version: 6.00 Build 0)  -->
<svg version="1.1" id="Layer_1" xmlns="http://www.w3.org/2000/svg" xmlns:xlink="http://www.w3.org/1999/xlink" x="0px" y="0px"
	 width="16px" height="16px" viewBox="0 0 16 16" enable-background="new 0 0 16 16" xml:space="preserve">
<path fill="#0372C6" d="M7.5,14.5c-0.645,0-1.271-0.083-1.862-0.248c-0.595-0.165-1.158-0.402-1.674-0.704
	c-0.519-0.303-0.996-0.671-1.418-1.094s-0.791-0.9-1.094-1.418c-0.302-0.516-0.539-1.08-0.704-1.674C0.583,8.771,0.5,8.145,0.5,7.5
	s0.083-1.271,0.248-1.862c0.165-0.595,0.402-1.158,0.704-1.674c0.303-0.519,0.671-0.996,1.094-1.418s0.9-0.791,1.418-1.094
	c0.516-0.302,1.08-0.539,1.674-0.704C6.229,0.583,6.855,0.5,7.5,0.5s1.271,0.083,1.862,0.248c0.595,0.165,1.158,0.402,1.674,0.704
	c0.519,0.303,0.996,0.671,1.418,1.094s0.791,0.9,1.094,1.418c0.302,0.516,0.539,1.08,0.704,1.674C14.417,6.229,14.5,6.855,14.5,7.5
	s-0.083,1.271-0.248,1.862c-0.165,0.595-0.402,1.158-0.704,1.674c-0.303,0.519-0.671,0.996-1.094,1.418s-0.9,0.791-1.418,1.094
	c-0.516,0.302-1.08,0.539-1.674,0.704C8.771,14.417,8.145,14.5,7.5,14.5z"/>
<path fill="#FFFFFF" d="M7.5,1c0.599,0,1.181,0.077,1.729,0.229c0.552,0.153,1.076,0.373,1.556,0.654
	c0.481,0.281,0.924,0.622,1.317,1.016c0.393,0.393,0.735,0.836,1.015,1.317c0.281,0.48,0.501,1.004,0.654,1.556
	C13.923,6.319,14,6.901,14,7.5s-0.077,1.181-0.229,1.729c-0.153,0.552-0.373,1.076-0.654,1.556
	c-0.281,0.481-0.622,0.924-1.016,1.317c-0.393,0.393-0.836,0.735-1.317,1.016c-0.48,0.281-1.004,0.501-1.556,0.654
	C8.681,13.923,8.099,14,7.5,14s-1.181-0.077-1.729-0.229c-0.552-0.153-1.076-0.373-1.556-0.654
	c-0.481-0.281-0.924-0.622-1.317-1.016c-0.393-0.393-0.735-0.836-1.015-1.317c-0.281-0.48-0.501-1.004-0.654-1.556
	C1.077,8.681,1,8.099,1,7.5s0.077-1.181,0.229-1.729c0.153-0.552,0.373-1.076,0.654-1.556c0.281-0.481,0.622-0.924,1.016-1.317
	c0.393-0.393,0.836-0.735,1.317-1.016c0.48-0.281,1.004-0.501,1.556-0.654C6.319,1.077,6.901,1,7.5,1 M7.5,0
	C6.807,0,6.142,0.089,5.504,0.266C4.866,0.443,4.268,0.694,3.711,1.02c-0.557,0.326-1.064,0.716-1.52,1.172S1.345,3.154,1.02,3.711
	S0.443,4.866,0.266,5.504C0.089,6.142,0,6.807,0,7.5s0.089,1.358,0.266,1.996c0.177,0.638,0.428,1.236,0.754,1.793
	s0.716,1.064,1.172,1.52s0.962,0.846,1.52,1.172c0.557,0.326,1.155,0.577,1.793,0.754C6.142,14.911,6.807,15,7.5,15
	s1.358-0.089,1.996-0.266c0.638-0.177,1.236-0.428,1.793-0.754c0.557-0.326,1.064-0.716,1.52-1.172s0.846-0.962,1.172-1.52
	s0.577-1.155,0.754-1.793C14.911,8.858,15,8.193,15,7.5s-0.089-1.358-0.266-1.996c-0.177-0.638-0.428-1.236-0.754-1.793
	s-0.716-1.064-1.172-1.52s-0.962-0.846-1.52-1.172c-0.557-0.326-1.155-0.577-1.793-0.754C8.858,0.089,8.193,0,7.5,0L7.5,0z"/>
<path fill="#FFFFFF" d="M7.5,11.438c0.451,0,0.884-0.069,1.298-0.209c0.414-0.139,0.792-0.335,1.134-0.589
	c0.342-0.254,0.639-0.558,0.892-0.914s0.446-0.751,0.578-1.184l0.536,0.167c-0.147,0.489-0.366,0.935-0.656,1.338
	s-0.63,0.749-1.021,1.039S9.44,11.601,8.97,11.76S8.01,12,7.5,12c-0.402,0-0.793-0.05-1.174-0.149
	c-0.381-0.1-0.74-0.244-1.078-0.433s-0.651-0.419-0.938-0.69c-0.287-0.271-0.536-0.578-0.747-0.921v1.068H3v-2.25h2.25v0.562H3.861
	C4.034,9.53,4.248,9.84,4.505,10.117c0.257,0.277,0.543,0.513,0.86,0.708s0.656,0.346,1.017,0.453
	C6.742,11.384,7.116,11.438,7.5,11.438z M12,4.125v2.25H9.75V5.812h1.389C10.966,5.47,10.75,5.16,10.494,4.883
	C10.239,4.606,9.952,4.37,9.636,4.176S8.98,3.83,8.618,3.723S7.883,3.562,7.5,3.562c-0.452,0-0.884,0.069-1.299,0.209
	C5.786,3.911,5.408,4.107,5.067,4.36C4.726,4.614,4.429,4.918,4.175,5.274S3.729,6.025,3.598,6.458L3.062,6.292
	C3.207,5.805,3.425,5.36,3.715,4.956s0.631-0.751,1.022-1.042S5.559,3.399,6.03,3.24S6.99,3,7.5,3c0.401,0,0.792,0.05,1.172,0.149
	c0.381,0.1,0.741,0.244,1.079,0.433s0.651,0.419,0.939,0.69c0.287,0.271,0.536,0.578,0.747,0.921V4.125H12z"/>
</svg>
