<?xml version="1.0" encoding="utf-8"?>
<!-- Generator: Adobe Illustrator 19.1.0, SVG Export Plug-In . SVG Version: 6.00 Build 0)  -->
<svg version="1.1" id="Layer_1" xmlns="http://www.w3.org/2000/svg" xmlns:xlink="http://www.w3.org/1999/xlink" x="0px" y="0px"
	 width="16px" height="16px" viewBox="0 0 16 16" enable-background="new 0 0 16 16" xml:space="preserve">
<path fill="#EB1023" d="M7.5,15c-0.692,0-1.357-0.089-1.996-0.268c-0.639-0.179-1.236-0.431-1.791-0.758s-1.06-0.717-1.515-1.172
	s-0.845-0.96-1.172-1.515s-0.579-1.152-0.758-1.791C0.089,8.857,0,8.192,0,7.5s0.089-1.357,0.268-1.996s0.431-1.236,0.758-1.791
	s0.717-1.06,1.172-1.515s0.96-0.845,1.515-1.172s1.152-0.579,1.791-0.758S6.808,0,7.5,0s1.357,0.089,1.996,0.268
	c0.639,0.179,1.236,0.431,1.791,0.758s1.06,0.717,1.515,1.172s0.845,0.96,1.172,1.515s0.579,1.152,0.758,1.791
	C14.911,6.143,15,6.808,15,7.5s-0.089,1.357-0.268,1.996c-0.179,0.639-0.431,1.236-0.758,1.791s-0.717,1.06-1.172,1.515
	s-0.96,0.845-1.515,1.172s-1.152,0.579-1.791,0.758C8.857,14.911,8.192,15,7.5,15z"/>
<rect x="4.286" y="6.964" fill="#FFFFFF" width="6.429" height="1.071"/>
</svg>
