<?xml version="1.0" encoding="utf-8"?>
<!-- Generator: Adobe Illustrator 19.1.0, SVG Export Plug-In . SVG Version: 6.00 Build 0)  -->
<svg version="1.1" xmlns="http://www.w3.org/2000/svg" xmlns:xlink="http://www.w3.org/1999/xlink" x="0px" y="0px" width="100px"
	 height="100px" 
	 viewBox="0 0 100 100" style="enable-background:new 0 0 100 100;" xml:space="preserve">
<style type="text/css">
	.st0{fill:#9D5025;}
	.st1{fill:#F58536;}
	.st2{fill:#FBBF93;}
	.st3{fill:#6B3A19;}
	.st4{fill:#FFFFFF;}
	.st5{display:none;}
</style>
<g id="Layer_1">
	<path class="st0" d="M76.1,44.8v-2.5l-8.9-0.3h-5.5v-0.5c0-6.3-5.6-9.8-11.8-9.8c-6.1,0-11.2,3.9-11.9,10.3h-5.4l-8.9,0.3v2.5
		l8.9,6.1v-3.5h5.4V54h-3.9v16.9h31.4V54h-3.9v-6.6h5.5v3.5L76.1,44.8z M55.2,54H43.9v-6.6h11.3V54z M43.9,42.1c0-1,0.2-5.3,5.6-5.3
		c0,0,0,0,0,0c5.2,0,5.6,4.3,5.7,5.3H43.9z"/>
	<path class="st1" d="M76.1,42.4l-8.9-6.1v3.3h-5.5v-0.5c0-6.3-5.6-9.8-11.8-9.8c-6.1,0-11.2,3.9-11.9,10.3h-5.4v-3.3l-8.9,6.1
		l8.9,6.1V45h5.4v6.6h-3.9v16.9h31.4V51.5h-3.9V45h5.5v3.5L76.1,42.4z M55.2,51.5H43.9V45h11.3V51.5z M43.9,39.6
		c0-1,0.2-5.3,5.6-5.3c0,0,0,0,0,0c5.2,0,5.6,4.3,5.7,5.3H43.9z"/>
</g>
<g id="Layer_2" class="st5">
</g>
</svg>
