<?xml version="1.0" encoding="utf-8"?>
<!-- Generator: Adobe Illustrator 19.2.0, SVG Export Plug-In . SVG Version: 6.00 Build 0)  -->
<svg version="1.1" xmlns="http://www.w3.org/2000/svg" xmlns:xlink="http://www.w3.org/1999/xlink" x="0px" y="0px"
	 viewBox="0 0 100 100" style="enable-background:new 0 0 100 100;" xml:space="preserve">
<style type="text/css">
	.st0{fill:#9D5025;}
	.st1{fill:#F58536;}
	.st2{fill:#FBBF93;}
	.st3{fill:#6B3A19;}
	.st4{fill:#FFFFFF;}
	.st5{display:none;}
</style>
<g id="Layer_1">
	<circle class="st0" cx="50" cy="51.3" r="30.4"/>
	<circle class="st1" cx="50" cy="48.7" r="30.4"/>
	<rect x="58.2" y="34.6" class="st4" width="3.2" height="28.3"/>
	<polygon class="st4" points="67.3,41.8 75.7,48.6 67.3,55.7 	"/>
	<polygon class="st4" points="37.6,47.1 39.4,48.6 37.4,50.4 68.7,50.4 68.7,47.1 	"/>
	<polygon class="st4" points="37.4,36.2 61.5,36.2 61.5,33 37.6,33 39.4,34.5 	"/>
	<polygon class="st4" points="39.4,62.8 37.4,64.5 61.5,64.5 61.5,61.3 37.6,61.3 	"/>
	<polygon class="st4" points="30.7,43.2 37.4,48.6 30.7,54.3 	"/>
	<polygon class="st4" points="30.7,29 37.4,34.5 30.7,40.2 	"/>
	<polygon class="st4" points="30.7,57.3 37.4,62.8 30.7,68.5 	"/>
</g>
<g id="Layer_2" class="st5">
</g>
</svg>
