<?xml version="1.0" encoding="utf-8"?>
<!-- Generator: Adobe Illustrator 19.1.0, SVG Export Plug-In . SVG Version: 6.00 Build 0)  -->
<svg version="1.1" xmlns="http://www.w3.org/2000/svg" xmlns:xlink="http://www.w3.org/1999/xlink" x="0px" y="0px" width="100px"
	 height="100px" 
	 viewBox="0 0 100 100" style="enable-background:new 0 0 100 100;" xml:space="preserve">
<style type="text/css">
	.st0{fill:#9D5025;}
	.st1{fill:#F58536;}
	.st2{fill:#FBBF93;}
	.st3{fill:#6B3A19;}
	.st4{fill:#FFFFFF;}
	.st5{display:none;}
</style>
<g id="Layer_1">
	<polygon class="st2" points="59.5,55 50,54.4 20.2,56.3 28.6,75.3 	"/>
	<polygon class="st0" points="28.5,24.7 20.2,28.9 20.2,50 28.5,50 40.3,39.3 	"/>
	<polygon class="st1" points="59.5,55 28.6,57.6 28.6,75.3 59.5,66.9 	"/>
	<polygon class="st1" points="43.6,50 28.5,50 28.5,24.7 43.6,28.8 	"/>
	<polygon class="st0" points="65.2,50 76,50 76,29.3 65.2,31 	"/>
	<polygon class="st3" points="44,33.1 53.8,23.4 76,36.2 65.2,37.7 	"/>
	<polygon class="st0" points="34.1,50 50,50 58.3,33.3 50,14 34.1,21.9 	"/>
	<polygon class="st1" points="50,14 50,50 58.9,50 58.9,31.1 76,36.2 76,50 79.8,50 79.8,28.9 	"/>
	<polygon class="st0" points="20.2,56.3 28.6,57.6 28.6,75.3 20.2,71.1 	"/>
	<polygon class="st2" points="79.8,56.3 65.4,55.4 34.1,58.4 50,86 	"/>
	<polygon class="st1" points="79.8,56.3 50,60.7 50,86 79.8,71.1 	"/>
	<polygon class="st0" points="34.1,58.4 50,60.7 50,86 34.1,78.1 	"/>
</g>
<g id="Layer_2" class="st5">
</g>
</svg>
