<?xml version="1.0" encoding="utf-8"?>
<!-- Generator: Adobe Illustrator 19.1.0, SVG Export Plug-In . SVG Version: 6.00 Build 0)  -->
<svg version="1.1" xmlns="http://www.w3.org/2000/svg" xmlns:xlink="http://www.w3.org/1999/xlink" x="0px" y="0px" width="100px"
	 height="100px" 
	 viewBox="0 0 100 100" style="enable-background:new 0 0 100 100;" xml:space="preserve">
<style type="text/css">
	.st0{fill:#9D5025;}
	.st1{fill:#F58536;}
	.st2{fill:#FBBF93;}
	.st3{fill:#6B3A19;}
	.st4{fill:#FFFFFF;}
	.st5{display:none;}
</style>
<g id="Layer_1">
	<g>
		<rect x="16.5" y="21.1" class="st0" width="66.9" height="16.4"/>
	</g>
	<g>
		<rect x="16.5" y="19.1" class="st1" width="66.9" height="16"/>
	</g>
	<g>
		<rect x="16.5" y="42.5" class="st0" width="66.9" height="17.2"/>
	</g>
	<g>
		<rect x="16.5" y="41.2" class="st1" width="66.9" height="16"/>
	</g>
	<g>
		<rect x="16.5" y="64.1" class="st0" width="66.9" height="16.6"/>
	</g>
	<g>
		<rect x="16.5" y="62.3" class="st1" width="66.9" height="16"/>
	</g>
	<path class="st4" d="M24.8,31.9h-1.5v-7.1h-2v-1h0.1c0.9,0,2-0.2,2.3-1.5v-0.2h1.1V31.9z M33.4,23.6c-1.5,2-2.8,5.4-3,8.3h-1.6
		c0.2-2.9,1.6-6.2,3.1-8.2h-4.2v-1.4h5.7V23.6z M40.2,31.9h-5.6c0-4.2,4-4.1,4-7.2c0-0.8-0.3-1.5-1.2-1.5c-1.1,0-1.3,1-1.3,2h-1.5
		c0-1.9,0.8-3.1,2.8-3.1c2,0,2.7,1.2,2.7,2.6c0,3.2-3.1,3.4-3.8,5.8h3.9V31.9z M43.5,31.9h-1.5v-1.8h1.5V31.9z M49.1,31.9h-1.5v-7.1
		h-2v-1h0.1c0.9,0,2-0.2,2.3-1.5v-0.2h1.1V31.9z M54.8,32.1c-2.4,0-2.9-1.9-2.9-4.7c0-2.9,0.5-5.3,3-5.3c1.7,0,2.6,0.8,2.6,2.4H56
		c0-0.6-0.3-1.3-1-1.3c-1.4,0-1.5,1.9-1.5,3.4l0,0c0.4-0.7,1-1,1.9-1c1.3,0,2.4,1,2.4,2.9C57.7,30.8,56.8,32.1,54.8,32.1z
		 M60.9,31.9h-1.5v-1.8h1.5V31.9z M65.4,32.1c-1.8,0-2.9-1.2-2.9-5c0-3.8,1-5,2.9-5c1.8,0,2.9,1.2,2.9,5
		C68.2,30.9,67.2,32.1,65.4,32.1z M71.4,31.9h-1.5v-1.8h1.5V31.9z M75.9,32.1c-1.8,0-2.9-1.2-2.9-5c0-3.8,1-5,2.9-5
		c1.8,0,2.9,1.2,2.9,5C78.7,30.9,77.7,32.1,75.9,32.1z"/>
	<path class="st4" d="M75.9,44.2c1.8,0,2.9,1.2,2.9,5c0,3.8-1,5-2.9,5c-1.8,0-2.9-1.2-2.9-5C73,45.4,74,44.2,75.9,44.2z M69.8,52.2
		h1.5V54h-1.5V52.2z M62.9,45.9h0.1c0.9,0,2-0.2,2.3-1.5v-0.2h1.1V54h-1.5v-7.1h-2V45.9z M59.3,52.2h1.5V54h-1.5V52.2z M55,44.2
		c1.7,0,2.6,0.8,2.6,2.4H56c0-0.6-0.3-1.3-1-1.3c-1.4,0-1.5,1.9-1.5,3.4l0,0c0.4-0.7,1-1,1.9-1c1.3,0,2.4,1,2.4,2.9
		c0,2.2-0.9,3.6-2.9,3.6c-2.4,0-2.9-1.9-2.9-4.7C51.9,46.6,52.5,44.2,55,44.2z M45.5,45.9h0.1c0.9,0,2-0.2,2.3-1.5v-0.2h1.1V54h-1.5
		v-7.1h-2V45.9z M41.9,52.2h1.5V54h-1.5V52.2z M37.5,45.3c-1.1,0-1.3,1-1.3,2h-1.5c0-1.9,0.8-3.1,2.8-3.1c2,0,2.7,1.2,2.7,2.6
		c0,3.2-3.1,3.4-3.8,5.8h3.9V54h-5.6c0-4.2,4-4.1,4-7.2C38.7,46,38.3,45.3,37.5,45.3z M27.7,44.4h5.7v1.2c-1.5,2-2.8,5.4-3,8.3h-1.6
		c0.2-2.9,1.6-6.2,3.1-8.2h-4.2V44.4z M21.3,45.9h0.1c0.9,0,2-0.2,2.3-1.5v-0.2h1.1V54h-1.5v-7.1h-2V45.9z"/>
	<path class="st4" d="M75.9,65.3c1.8,0,2.9,1.2,2.9,5c0,3.8-1,5-2.9,5c-1.8,0-2.9-1.2-2.9-5C73,66.5,74,65.3,75.9,65.3z M69.8,73.3
		h1.5v1.8h-1.5V73.3z M65.4,66.4c-1.1,0-1.3,1-1.3,2h-1.5c0-1.9,0.8-3.1,2.8-3.1c2,0,2.7,1.2,2.7,2.6c0,3.2-3.1,3.4-3.8,5.8h3.9v1.3
		h-5.6c0-4.2,4-4.1,4-7.2C66.6,67.1,66.2,66.4,65.4,66.4z M59.3,73.3h1.5v1.8h-1.5V73.3z M55,65.3c1.7,0,2.6,0.8,2.6,2.4H56
		c0-0.6-0.3-1.3-1-1.3c-1.4,0-1.5,1.9-1.5,3.4l0,0c0.4-0.7,1-1,1.9-1c1.3,0,2.4,1,2.4,2.9c0,2.2-0.9,3.6-2.9,3.6
		c-2.4,0-2.9-1.9-2.9-4.7C51.9,67.7,52.5,65.3,55,65.3z M45.5,67h0.1c0.9,0,2-0.2,2.3-1.5v-0.2h1.1v9.8h-1.5V68h-2V67z M41.9,73.3
		h1.5v1.8h-1.5V73.3z M37.5,66.4c-1.1,0-1.3,1-1.3,2h-1.5c0-1.9,0.8-3.1,2.8-3.1c2,0,2.7,1.2,2.7,2.6c0,3.2-3.1,3.4-3.8,5.8h3.9v1.3
		h-5.6c0-4.2,4-4.1,4-7.2C38.7,67.1,38.3,66.4,37.5,66.4z M27.7,65.5h5.7v1.2c-1.5,2-2.8,5.4-3,8.3h-1.6c0.2-2.9,1.6-6.2,3.1-8.2
		h-4.2V65.5z M21.3,67h0.1c0.9,0,2-0.2,2.3-1.5v-0.2h1.1v9.8h-1.5V68h-2V67z"/>
	<path class="st1" d="M65.4,23.4c-1.1,0-1.3,1-1.3,3.9c0,2.8,0.3,3.9,1.3,3.9c1.1,0,1.3-1,1.3-3.9C66.7,24.4,66.4,23.4,65.4,23.4z"
		/>
	<path class="st1" d="M75.9,23.4c-1.1,0-1.3,1-1.3,3.9c0,2.8,0.3,3.9,1.3,3.9c1.1,0,1.3-1,1.3-3.9C77.2,24.4,76.9,23.4,75.9,23.4z"
		/>
	<path class="st1" d="M75.9,53.2c1.1,0,1.3-1,1.3-3.9c0-2.8-0.3-3.9-1.3-3.9c-1.1,0-1.3,1-1.3,3.9C74.6,52.2,74.8,53.2,75.9,53.2z"
		/>
	<path class="st1" d="M54.9,53.2c0.9,0,1.3-1,1.3-2.1c0-1.3-0.4-2.1-1.3-2.1c-1.1,0-1.3,1-1.3,2.2C53.6,52.3,54,53.2,54.9,53.2z"/>
	<path class="st1" d="M75.9,74.3c1.1,0,1.3-1,1.3-3.9c0-2.8-0.3-3.9-1.3-3.9c-1.1,0-1.3,1-1.3,3.9C74.6,73.3,74.8,74.3,75.9,74.3z"
		/>
	<path class="st1" d="M54.9,74.3c0.9,0,1.3-1,1.3-2.1c0-1.3-0.4-2.1-1.3-2.1c-1.1,0-1.3,1-1.3,2.2C53.6,73.4,54,74.3,54.9,74.3z"/>
	<path class="st1" d="M54.9,31.1c0.9,0,1.3-1,1.3-2.1c0-1.3-0.4-2.1-1.3-2.1c-1.1,0-1.3,1-1.3,2.2C53.6,30.2,54,31.1,54.9,31.1z"/>
</g>
<g id="Layer_2" class="st5">
</g>
</svg>
