<?xml version="1.0" encoding="utf-8"?>
<!-- Generator: Adobe Illustrator 19.1.0, SVG Export Plug-In . SVG Version: 6.00 Build 0)  -->
<svg version="1.1" xmlns="http://www.w3.org/2000/svg" xmlns:xlink="http://www.w3.org/1999/xlink" x="0px" y="0px" width="100px"
	 height="100px" 
	 viewBox="0 0 100 100" style="enable-background:new 0 0 100 100;" xml:space="preserve">
<style type="text/css">
	.st0{fill:#9D5025;}
	.st1{fill:#F58536;}
	.st2{fill:#FBBF93;}
	.st3{fill:#6B3A19;}
	.st4{fill:#FFFFFF;}
	.st5{display:none;}
</style>
<g id="Layer_1">
	<circle class="st0" cx="50" cy="51.3" r="30.4"/>
	<circle class="st1" cx="50" cy="48.7" r="30.4"/>
	<polygon class="st4" points="79,48.9 68.2,42.6 68.2,46.4 52.5,46.4 52.5,30.6 56.2,30.6 50,19.8 43.8,30.6 47.5,30.6 47.5,46.4 
		31.8,46.4 31.8,42.6 21,48.9 31.8,55.1 31.8,51.4 47.5,51.4 47.5,67.1 43.8,67.1 50,77.9 56.2,67.1 52.5,67.1 52.5,51.4 68.2,51.4 
		68.2,55.1 	"/>
	<g>
		<g>
			<path class="st1" d="M41.7,56.1c-3.1,0-5.4-2.3-5.4-4.4v-0.5c0-1.7,1.5-4.1,3.4-4.6l0.2-0.1l0-0.3c0-1.9,0.7-3.6,2-4.9
				c1.3-1.3,3-2,4.9-2c2.7,0,5.2,1.6,6.3,4.1l0.1,0.3l0.3-0.2c0.6-0.4,1.2-0.6,1.9-0.6c1.8,0,3.3,1.4,3.4,3.2l0,0.2l0.2,0
				c2.7,0.2,4.8,2.8,4.8,4.9v0.5c0,2.1-2.3,4.4-5.4,4.4H41.7z"/>
			<path class="st4" d="M46.8,40.3c2.3,0,4.4,1.4,5.4,3.5l0.6,1.4l1.2-0.9c0.4-0.3,0.9-0.4,1.3-0.4c1.3,0,2.3,1,2.4,2.3l0,1.1
				l1.1,0.1c2.1,0.2,3.9,2.3,3.9,3.9v0.5c0,1.6-1.9,3.4-4.4,3.4H41.7c-2.5,0-4.4-1.8-4.4-3.4v-0.5c0-1.3,1.2-3.2,2.7-3.7l0.9-0.3
				l0-1.1c0-1.6,0.6-3.1,1.7-4.2C43.7,40.9,45.2,40.3,46.8,40.3 M46.8,38.3c-2.1,0-4.1,0.8-5.6,2.3c-1.4,1.4-2.2,3.2-2.3,5.2
				c-2.2,0.9-3.6,3.5-3.6,5.4v0.5c0,2.9,3,5.4,6.4,5.4h16.7c3.4,0,6.4-2.5,6.4-5.4v-0.5c0-2.4-2.1-5.2-5.1-5.8
				c-0.4-2-2.1-3.6-4.3-3.6c-0.6,0-1.2,0.1-1.7,0.4C52.2,39.8,49.6,38.3,46.8,38.3L46.8,38.3z"/>
		</g>
	</g>
</g>
<g id="Layer_2" class="st5">
</g>
</svg>
