<?xml version="1.0" encoding="utf-8"?>
<!-- Generator: Adobe Illustrator 19.1.0, SVG Export Plug-In . SVG Version: 6.00 Build 0)  -->
<svg version="1.1" xmlns="http://www.w3.org/2000/svg" xmlns:xlink="http://www.w3.org/1999/xlink" x="0px" y="0px" width="100px"
	 height="100px" 
	 viewBox="0 0 100 100" style="enable-background:new 0 0 100 100;" xml:space="preserve">
<style type="text/css">
	.st0{fill:#9D5025;}
	.st1{fill:#F58536;}
	.st2{fill:#FBBF93;}
	.st3{fill:#6B3A19;}
	.st4{fill:#FFFFFF;}
	.st5{display:none;}
</style>
<g id="Layer_1">
	<polygon class="st3" points="79.8,37.3 50,41.1 20.2,37.3 50,14 	"/>
	<polygon class="st2" points="79.8,62.7 50,58.9 20.2,62.7 50,86 	"/>
	<polygon class="st1" points="79.8,37.3 50,28.4 50,14 79.8,28.9 	"/>
	<polygon class="st1" points="62.6,55.9 79.8,54.2 79.8,45.8 62.6,44.1 	"/>
	<polygon class="st1" points="79.8,62.7 50,71.6 50,86 79.8,71.1 	"/>
	<polygon class="st0" points="20.2,37.3 50,28.4 50,14 20.2,28.9 	"/>
	<polygon class="st0" points="34.1,61.2 50,64.4 65.9,50 50,35.6 34.1,38.8 	"/>
	<polygon class="st1" points="65.9,61.2 50,64.4 50,35.6 65.9,38.8 	"/>
	<polygon class="st0" points="37.4,55.9 20.2,54.2 20.2,45.8 37.4,44.1 	"/>
	<polygon class="st0" points="20.2,62.7 50,71.6 50,86 20.2,71.1 	"/>
</g>
<g id="Layer_2" class="st5">
</g>
</svg>
