<?xml version="1.0" encoding="utf-8"?>
<!-- Generator: Adobe Illustrator 19.2.0, SVG Export Plug-In . SVG Version: 6.00 Build 0)  -->
<svg version="1.1" xmlns="http://www.w3.org/2000/svg" xmlns:xlink="http://www.w3.org/1999/xlink" x="0px" y="0px" width="100" height="100"
	 viewBox="0 0 100 100" style="enable-background:new 0 0 100 100;" xml:space="preserve">
<style type="text/css">
	.st0{fill:#F58536;}
	.st1{fill:#9D5025;}
	.st2{fill:#6B3A19;}
	.st3{fill:#F37825;}
	.st4{fill:#924821;}
	.st5{display:none;}
</style>
<g id="Layer_1">
	<g>
		<polygon class="st0" points="63.1,80.9 49.9,87.5 49.9,12.5 63.1,19.1 		"/>
		<polygon class="st1" points="36.8,80.9 49.9,87.5 49.9,12.5 36.8,19.1 		"/>
		<polygon class="st0" points="45,39.8 22.9,37 22.9,26 45,31.3 		"/>
		<polygon class="st1" points="18.9,28 22.9,26 22.9,37 18.9,38.1 		"/>
		<polygon class="st2" points="45,39.8 40.4,40.5 18.9,38.1 22.9,37 		"/>
		<polygon class="st3" points="77.8,59.4 81.1,58.8 81.1,50 77.8,50 		"/>
		<polygon class="st4" points="54.8,57.4 77.8,59.6 77.8,50 54.8,50 		"/>
	</g>
</g>
<g id="Layer_2" class="st5">
</g>
</svg>
