<?xml version="1.0" encoding="utf-8"?>
<!-- Generator: Adobe Illustrator 19.1.0, SVG Export Plug-In . SVG Version: 6.00 Build 0)  -->
<svg version="1.1" xmlns="http://www.w3.org/2000/svg" xmlns:xlink="http://www.w3.org/1999/xlink" x="0px" y="0px" width="100px"
	 height="100px" 
	 viewBox="0 0 100 100" style="enable-background:new 0 0 100 100;" xml:space="preserve">
<style type="text/css">
	.st0{fill:#9D5025;}
	.st1{fill:#F58536;}
	.st2{fill:#FBBF93;}
	.st3{fill:#6B3A19;}
	.st4{fill:#FFFFFF;}
	.st5{display:none;}
</style>
<g id="Layer_1">
	<circle class="st0" cx="50" cy="51.3" r="30.4"/>
	<rect x="19.6" y="48.7" class="st0" width="60.9" height="2.5"/>
	<circle class="st1" cx="50" cy="48.7" r="30.4"/>
	<path class="st4" d="M27.1,51.8V51c0-3,2.3-6.9,5.6-8.4C33,36.1,38.4,30.9,45,30.9c4.4,0,8.5,2.4,10.6,6.1c0.8-0.4,1.8-0.6,2.7-0.6
		c3.4,0,6.1,2.4,6.7,5.6c4.6,0.9,7.9,5.3,7.9,9v0.7c0,4.5-4.7,8.5-10,8.5H37C31.7,60.2,27.1,56.3,27.1,51.8z"/>
	<g>
		<path class="st1" d="M56.3,40.2l-1.9,1.3l-1-2.1C51.9,36.2,48.6,34,45,34c-2.5,0-4.8,1-6.5,2.7c-1.7,1.7-2.7,4-2.7,6.5l0,1.7
			l-1.4,0.4C32.1,46,30.2,49,30.2,51v0.7c0,2.5,3,5.3,6.8,5.3H63c3.9,0,6.8-2.9,6.8-5.3V51c0-2.5-2.8-5.8-6-6l-1.7-0.1L62,43.1
			c-0.1-2-1.7-3.5-3.7-3.5C57.6,39.6,56.9,39.8,56.3,40.2z"/>
	</g>
</g>
<g id="Layer_2" class="st5">
</g>
</svg>
