<?xml version="1.0" encoding="utf-8"?>
<!-- Generator: Adobe Illustrator 19.1.0, SVG Export Plug-In . SVG Version: 6.00 Build 0)  -->
<svg version="1.1" xmlns="http://www.w3.org/2000/svg" xmlns:xlink="http://www.w3.org/1999/xlink" x="0px" y="0px"
	 viewBox="0 0 100 100" style="enable-background:new 0 0 100 100;" xml:space="preserve">
<style type="text/css">
	.st0{fill:#9D5025;}
	.st1{fill:#F58536;}
	.st2{fill:#FFFFFF;}
	.st3{display:none;}
</style>
<g id="Layer_1">
	<circle class="st0" cx="50" cy="51.3" r="30.4"/>
	<circle class="st1" cx="50" cy="48.7" r="30.4"/>
	<g>
		<g>
			<g>
				<g>
					<rect x="38.2" y="59" class="st2" width="19.4" height="2.8"/>
				</g>
			</g>
			<g>
				<g>
					<rect x="38.2" y="53.2" class="st2" width="19.4" height="2.8"/>
				</g>
			</g>
			<g>
				<g>
					<rect x="38.2" y="41.5" class="st2" width="19.4" height="2.8"/>
				</g>
			</g>
			<g>
				<g>
					<rect x="24.3" y="47.1" class="st2" width="44.3" height="3.2"/>
				</g>
			</g>
			<g>
				<g>
					<rect x="38.2" y="35.7" class="st2" width="19.4" height="2.8"/>
				</g>
			</g>
			<g>
				<polygon class="st2" points="62.1,45.8 59.2,45.8 59.2,33.1 36.5,33.1 36.5,45.8 33.7,45.8 33.7,30.3 62.1,30.3 				"/>
			</g>
			<g>
				<polygon class="st2" points="62.1,67.2 33.7,67.2 33.7,51.8 36.5,51.8 36.5,64.4 59.2,64.4 59.2,52 62.1,52 				"/>
			</g>
		</g>
		<g>
			<polygon class="st2" points="67.3,41.9 75.7,48.7 67.3,55.9 			"/>
		</g>
	</g>
</g>
<g id="Layer_2" class="st3">
</g>
</svg>
