<?xml version="1.0" encoding="utf-8"?>
<!-- Generator: Adobe Illustrator 19.1.0, SVG Export Plug-In . SVG Version: 6.00 Build 0)  -->
<svg version="1.1" xmlns="http://www.w3.org/2000/svg" xmlns:xlink="http://www.w3.org/1999/xlink" x="0px" y="0px"
	 viewBox="0 0 100 100" style="enable-background:new 0 0 100 100;" xml:space="preserve">
<style type="text/css">
	.st0{fill:#9D5025;}
	.st1{fill:#F58536;}
	.st2{fill:#FFFFFF;}
	.st3{display:none;}
</style>
<g id="Layer_1">
	<circle class="st0" cx="50" cy="51.3" r="30.4"/>
	<circle class="st1" cx="50" cy="48.7" r="30.4"/>
	<g>
		<g>
			<path class="st2" d="M50,71.4l-0.5-0.2c-0.2-0.1-4.7-1.7-9.3-6.9c-2.6-3-4.7-6.6-6.2-10.7c-1.8-5.1-2.8-11-2.8-17.5v-1.4l1.4,0
				c1.3,0,3.7-0.4,4.7-1.4c1.4-1.4,1.6-3.9,1.6-3.9l0.1-0.9l0.9-0.3C40.1,28,45,26.1,50,26.1c4.8,0,9.8,1.8,10.1,1.9l0.9,0.3
				l0.1,0.9c0,0,0.2,2.5,1.6,3.9c0.9,0.9,3.5,1.3,4.7,1.3l1.4,0.1v1.4c0,6.5-0.9,12.4-2.8,17.5c-1.5,4.1-3.6,7.7-6.2,10.8
				c-4.5,5.2-9.1,6.8-9.3,6.9L50,71.4z M34.2,37.5c0.2,10.3,3,18.8,8.1,24.8c3.2,3.7,6.5,5.4,7.7,6c1.2-0.5,4.4-2.2,7.7-6
				c5.1-6,7.9-14.5,8.1-24.9c-1.5-0.2-3.9-0.7-5.2-2.1c-1.5-1.5-2.1-3.6-2.3-4.8c-1.5-0.5-5-1.5-8.2-1.5c-3.3,0-6.7,1-8.2,1.5
				c-0.2,1.2-0.8,3.3-2.3,4.8C38,36.8,35.7,37.3,34.2,37.5z"/>
		</g>
		<path class="st2" d="M59.1,47.4c-1.8,1.8-7.3,5.6-9.4,7.7c0-1,0-5,0-6c-3.6,0-20.7,0-24.2,0c0-2.1,0-1.4,0-3.6
			c3.5,0,20.6,0,24.2,0c0-1,0-5.1,0-5.9C51.6,41.6,57.1,45.4,59.1,47.4z"/>
	</g>
</g>
<g id="Layer_2" class="st3">
</g>
</svg>
