<?xml version="1.0" encoding="utf-8"?>
<!-- Generator: Adobe Illustrator 19.1.0, SVG Export Plug-In . SVG Version: 6.00 Build 0)  -->
<svg version="1.1" xmlns="http://www.w3.org/2000/svg" xmlns:xlink="http://www.w3.org/1999/xlink" x="0px" y="0px" width="100px"
	 height="100px" 
	 viewBox="0 0 100 100" style="enable-background:new 0 0 100 100;" xml:space="preserve">
<style type="text/css">
	.st0{fill:#9D5025;}
	.st1{fill:#F58536;}
	.st2{fill:#FBBF93;}
	.st3{fill:#6B3A19;}
	.st4{fill:#FFFFFF;}
	.st5{display:none;}
</style>
<g id="Layer_1">
	<path class="st0" d="M50.5,24c0.3,0,0.6,0.1,0.7,0.2c3,3.3,5.9,4.5,8.6,4.5c5.3,0,17.2,3.7,17.4,3.5v2.5c-0.2,0.3-4.3,5-4.1,10.6
		c0.1,3.3,1.8,5.6,3.2,8c0.6,0.9,2,3.7,2,3.7l0,2.5c0,0.7-0.1,1.5-0.2,2.3c-2.7,13.4-15.8,8-26.5,16.7c-0.2,0.2-0.4,0.2-0.5,0.2
		c-0.3,0-0.4-0.2-0.4-0.2c-6.4-7.8-26.3-1.3-28.8-16.7c-0.2-1-0.2-1.9-0.2-2.7l0-2.4c0,0,1.4-3.2,1.9-4c1.1-1.9,2.2-3.7,2.4-6.7
		c0.2-4.9-3.8-10-4-10.3v-2.5c0.2,0.2,13.6-4.8,19.1-4.8c2.8,0,5.9-1,9-4.1C50.1,24.1,50.3,24,50.5,24z"/>
	<path class="st1" d="M50.5,21.5c0.3,0,0.6,0.1,0.7,0.2c3,3.3,5.9,4.5,8.6,4.5c5.3,0,9.1-4.3,9.3-4.5l8.1,10.5
		c-0.2,0.3-4.3,5-4.1,10.6c0.3,6.6,6.4,8.9,4.9,16.4c-2.7,13.4-15.8,8-26.5,16.7c-0.2,0.2-0.4,0.2-0.5,0.2c-0.3,0-0.4-0.2-0.4-0.2
		c-6.4-7.8-26.3-1.3-28.8-16.7c-1.4-8.5,3.8-9.5,4-15.8c0.2-4.9-3.8-10-4-10.3l9.4-11.4c0.2,0.2,4.1,4.1,9.7,4.1c2.8,0,5.9-1,9-4.1
		C50.1,21.6,50.3,21.5,50.5,21.5z"/>
</g>
<g id="Layer_2" class="st5">
</g>
</svg>
