<?xml version="1.0" encoding="utf-8"?>
<!-- Generator: Adobe Illustrator 19.1.0, SVG Export Plug-In . SVG Version: 6.00 Build 0)  -->
<svg version="1.1" xmlns="http://www.w3.org/2000/svg" xmlns:xlink="http://www.w3.org/1999/xlink" x="0px" y="0px" width="100px"
	 height="100px" 
	 viewBox="0 0 100 100" style="enable-background:new 0 0 100 100;" xml:space="preserve">
<style type="text/css">
	.st0{fill:#373737;}
	.st1{fill:#4F4F4F;}
	.st2{fill:#ACACAC;}
	.st3{fill:#FFFFFF;}
</style>
<g id="Layer_1">
	<polygon class="st0" points="62.6,38.1 50,39.9 37.4,38.1 50,14 	"/>
	<polygon class="st1" points="61.9,50 73.8,50 79,56.5 73.8,64.4 61.9,62.7 	"/>
	<polygon class="st2" points="38.1,50 26.2,50 20.9,56.4 26.2,64.5 38.1,62.7 	"/>
	<polygon class="st2" points="62.6,38.1 50,35.6 50,14 62.6,20.3 	"/>
	<polygon class="st1" points="37.4,38.1 50,35.6 50,14 37.4,20.3 	"/>
	<polygon class="st2" points="68.8,50 50,50 34.1,61.3 50,86 68.8,76.6 	"/>
	<polygon class="st1" points="31.2,50 50,50 50,86 31.2,76.6 	"/>
	<polygon class="st2" points="73.8,64.4 79.8,62.7 79.8,50 73.8,50 	"/>
	<polygon class="st1" points="26.2,64.5 20.2,62.7 20.2,50 26.2,50 	"/>
</g>
<g id="Layer_2">
</g>
</svg>
