<?xml version="1.0" encoding="utf-8"?>
<!-- Generator: Adobe Illustrator 19.1.0, SVG Export Plug-In . SVG Version: 6.00 Build 0)  -->
<svg version="1.1" id="Layer_1" xmlns="http://www.w3.org/2000/svg" xmlns:xlink="http://www.w3.org/1999/xlink" x="0px" y="0px" width="100px"
	 height="100px" 
	 viewBox="0 0 100 100" style="enable-background:new 0 0 100 100;" xml:space="preserve">
<style type="text/css">
	.st0{fill:url(#SVGID_1_);}
	.st1{fill:#FFFFFF;}
	.st2{fill:url(#SVGID_2_);}
	.st3{fill:url(#SVGID_3_);}
</style>
<g>
	
		<linearGradient id="SVGID_1_" gradientUnits="userSpaceOnUse" x1="-709.6666" y1="-190.8454" x2="-709.6666" y2="133.2869" gradientTransform="matrix(0.2586 0 0 0.2586 233.5345 57.6034)">
		<stop  offset="0" style="stop-color:#F58434"/>
		<stop  offset="1" style="stop-color:#D26B28"/>
	</linearGradient>
	<polygon class="st0" points="13,28.9 50,7.8 87,28.9 87,71.1 50,92.2 13,71.1 	"/>
	<g>
		<g>
			<rect x="38.3" y="46.1" class="st1" width="15.1" height="3.9"/>
			<rect x="38.3" y="53.9" class="st1" width="15.1" height="3.9"/>
			<rect x="38.3" y="61.7" class="st1" width="15.1" height="3.9"/>
		</g>
		<g>
			<polygon class="st1" points="57.3,40.7 57.3,63.2 61.2,63.2 61.2,36.8 42.2,36.8 42.2,40.7 			"/>
			<path class="st1" d="M69,29H38.3v7.8h-7.8v38.1h30.7v-7.8H69V29z M57.3,71H34.4V40.7h22.9V71z M65.1,63.2h-3.9V36.8h-19v-3.9
				h22.9V63.2z"/>
		</g>
	</g>
</g>
</svg>
