<?xml version="1.0" encoding="utf-8"?>
<!-- Generator: Adobe Illustrator 19.1.0, SVG Export Plug-In . SVG Version: 6.00 Build 0)  -->
<svg version="1.1" id="Layer_1" xmlns="http://www.w3.org/2000/svg" xmlns:xlink="http://www.w3.org/1999/xlink" x="0px" y="0px" width="100px"
	 height="100px" 
	 viewBox="0 0 100 100" style="enable-background:new 0 0 100 100;" xml:space="preserve">
<style type="text/css">
	.st0{fill:url(#SVGID_1_);}
	.st1{fill:#FFFFFF;}
	.st2{fill:url(#SVGID_2_);}
	.st3{fill:url(#SVGID_3_);}
</style>
<g>
	
		<linearGradient id="SVGID_1_" gradientUnits="userSpaceOnUse" x1="50" y1="-687.7309" x2="50" y2="-603.9035" gradientTransform="matrix(1 0 0 1 0 696)">
		<stop  offset="0" style="stop-color:#F58435"/>
		<stop  offset="1" style="stop-color:#D16A28"/>
	</linearGradient>
	<polygon class="st0" points="13,28.9 50,7.8 87,28.9 87,71.1 50,92.2 13,71.1 	"/>
	<path class="st1" d="M71.4,35.8v6.5v2.5l-22.1,9.8l-22.1-9.8v-2.5v-6.5h-3.9v2.6v9v21.4h51.9V47.4v-9v-2.6
		C75.3,35.8,71.4,35.8,71.4,35.8z M71.4,65H27.3V49.2L49.4,59l22.1-9.8V65H71.4z"/>
	<polygon class="st1" points="49.3,21.7 23.4,33.3 23.4,38.4 27.3,38.4 27.3,35.9 49.3,26 71.4,35.9 71.4,38.4 75.3,38.4 75.3,33.3 
			"/>
	<g>
		<polygon class="st1" points="35.1,48.4 35.1,42.1 63.5,42.1 63.5,48.4 67.5,46.6 67.5,38.1 31.2,38.1 31.2,46.6 		"/>
	</g>
</g>
</svg>
