<?xml version="1.0" encoding="utf-8"?>
<!-- Generator: Adobe Illustrator 19.1.0, SVG Export Plug-In . SVG Version: 6.00 Build 0)  -->
<svg version="1.1" id="Layer_1" xmlns="http://www.w3.org/2000/svg" xmlns:xlink="http://www.w3.org/1999/xlink" x="0px" y="0px" width="100px"
	 height="100px" 
	 viewBox="0 0 100 100" style="enable-background:new 0 0 100 100;" xml:space="preserve">
<style type="text/css">
	.st0{fill:url(#SVGID_1_);}
	.st1{fill:#FFFFFF;}
	.st2{fill:url(#SVGID_2_);}
	.st3{fill:url(#SVGID_3_);}
</style>
<linearGradient id="SVGID_1_" gradientUnits="userSpaceOnUse" x1="50" y1="7.9402" x2="50" y2="92.3562">
	<stop  offset="0" style="stop-color:#F58534"/>
	<stop  offset="1" style="stop-color:#D16928"/>
</linearGradient>
<polygon class="st0" points="13,28.7 50,7.5 87,28.7 87,71.2 50,92.5 13,71.2 "/>
<path class="st1" d="M37.4,30.4v9.9H26.2l0,0c-1.1,0-1.9,0.9-1.9,1.9l0,0v26.3l0,0c0,1.1,0.9,1.9,1.9,1.9l0,0h19l0,0
	c1.1,0,1.9-0.9,1.9-1.9l0,0v-2.8h6.3h2.9h2.6h10.6v-2c0-1.3-4.6-2.4-10.8-2.7v-3h16.1l0,0V30.4H37.4z M35.7,69.5
	c-0.9,0-1.6-0.7-1.6-1.6s0.7-1.6,1.6-1.6c0.9,0,1.6,0.7,1.6,1.6S36.6,69.5,35.7,69.5z M43.3,65.4H28.2V44.2h15.1V65.4z M53.4,61
	c-2.4,0.1-4.5,0.3-6.3,0.6v-3.7h6.3V61z M71,54.1H47.2V42.2l0,0c0-1.1-0.9-1.9-1.9-1.9l0,0h-3.9v-5.9h29.7v19.7H71z"/>
</svg>
