<?xml version="1.0" encoding="utf-8"?>
<!-- Generator: Adobe Illustrator 17.1.0, SVG Export Plug-In . SVG Version: 6.00 Build 0)  -->
<!DOCTYPE svg PUBLIC "-//W3C//DTD SVG 1.1//EN" "http://www.w3.org/Graphics/SVG/1.1/DTD/svg11.dtd">
<svg version="1.1" id="Layer_1" xmlns="http://www.w3.org/2000/svg" xmlns:xlink="http://www.w3.org/1999/xlink" x="0px" y="0px"
	 height="50px" width="50px" viewBox="0 0 50 50" enable-background="new 0 0 50 50" xml:space="preserve">
<path fill="#59B4D9" d="M43.4,0H6.6C5.7,0,5,0.7,5,1.6V7v0.5v40.8C5,49.3,5.7,50,6.6,50h36.8c0.9,0,1.6-0.7,1.6-1.6V7.5V7V1.6
	C45,0.7,44.3,0,43.4,0z"/>
<path opacity="0.1" fill="#FFFFFF" d="M6.6,0C5.7,0,5,0.7,5,1.6v5.9v17v23.8C5,49.3,5.7,50,6.6,50H22L39.9,0H6.6z"/>
<rect x="25.3" y="25.3" opacity="0.6" fill="#FFFFFF" width="13.3" height="2.6"/>
<path fill="#FFFFFF" d="M10.9,11.5l-0.4-0.5c-0.1-0.1-0.1-0.3,0-0.4l1.3-1.2c0.1-0.1,0.1-0.1,0.2-0.1c0.1,0,0.2,0,0.2,0.1l3.5,3.8
	l6-7.8c0.1-0.1,0.2-0.1,0.2-0.1c0.1,0,0.1,0,0.2,0.1l1.4,1.1c0.1,0.1,0.1,0.1,0.1,0.2c0,0.1,0,0.2-0.1,0.2l-7.8,10L10.9,11.5z"/>
<path fill="#FFFFFF" d="M10.9,25.1l-0.4-0.5c-0.1-0.1-0.1-0.3,0-0.4l1.3-1.2c0.1-0.1,0.1-0.1,0.2-0.1c0.1,0,0.2,0,0.2,0.1l3.5,3.8
	l6-7.8c0.1-0.1,0.2-0.1,0.2-0.1c0.1,0,0.1,0,0.2,0.1l1.4,1.1c0.1,0.1,0.1,0.1,0.1,0.2c0,0.1,0,0.2-0.1,0.2l-7.8,10L10.9,25.1z"/>
<rect x="25.3" y="11.4" opacity="0.6" fill="#FFFFFF" width="13.3" height="2.6"/>
<path fill="#FFFFFF" d="M10.9,40l-0.4-0.5c-0.1-0.1-0.1-0.3,0-0.4l1.3-1.2c0.1-0.1,0.1-0.1,0.2-0.1c0.1,0,0.2,0,0.2,0.1l3.5,3.8
	l6-7.8c0.1-0.1,0.2-0.1,0.2-0.1c0.1,0,0.1,0,0.2,0.1l1.4,1.1c0.1,0.1,0.1,0.1,0.1,0.2c0,0.1,0,0.2-0.1,0.2l-7.8,10L10.9,40z"/>
<rect x="25.3" y="39.9" opacity="0.6" fill="#FFFFFF" width="13.3" height="2.6"/>
</svg>
