<?xml version="1.0" encoding="utf-8"?>
<!-- Generator: Adobe Illustrator 17.0.1, SVG Export Plug-In . SVG Version: 6.00 Build 0)  -->
<!DOCTYPE svg PUBLIC "-//W3C//DTD SVG 1.1//EN" "http://www.w3.org/Graphics/SVG/1.1/DTD/svg11.dtd">
<svg version="1.1" id="Layer_1" xmlns="http://www.w3.org/2000/svg" xmlns:xlink="http://www.w3.org/1999/xlink" x="0px" y="0px"
	 width="50px" height="50px" viewBox="0.5 0.5 50 50" enable-background="new 0.5 0.5 50 50" xml:space="preserve">
<path fill="#59B4D9" d="M0.5,45.127c0,1.108,0.898,2.007,2.007,2.007h45.986c1.109,0,2.007-0.899,2.007-2.007V13.798h-50V45.127z"/>
<path fill="#A0A1A2" d="M48.493,4.5H2.507C1.398,4.5,0.5,5.398,0.5,6.507v10.627h50V6.507C50.5,5.398,49.601,4.5,48.493,4.5"/>
<path opacity="0.2" fill="#FFFFFF" enable-background="new    " d="M2.514,4.5c-1.108,0-2.007,0.898-2.007,2.007v7.291v3.336v27.993
	c0,1.108,0.899,2.007,2.007,2.007h2.188L44.12,4.5H2.514z"/>
<rect x="13.357" y="9.279" fill="#FFFFFF" width="33.671" height="3.942"/>
<path fill="#59B4D9" d="M11.81,11.183c0,2.693-2.184,4.878-4.878,4.878s-4.878-2.185-4.878-4.878c0-2.694,2.184-4.879,4.878-4.879
	C9.625,6.304,11.81,8.489,11.81,11.183"/>
<polygon fill="#FFFFFF" points="6.416,11.732 8.629,14.068 7.428,14.068 4.469,11.25 7.417,8.432 8.615,8.432 6.416,10.754 
	11.809,10.754 11.809,11.732 "/>
</svg>
