<?xml version="1.0" encoding="utf-8"?>
<!-- Generator: Adobe Illustrator 17.1.0, SVG Export Plug-In . SVG Version: 6.00 Build 0)  -->
<!DOCTYPE svg PUBLIC "-//W3C//DTD SVG 1.1//EN" "http://www.w3.org/Graphics/SVG/1.1/DTD/svg11.dtd">
<svg version="1.1" id="Layer_1" xmlns="http://www.w3.org/2000/svg" xmlns:xlink="http://www.w3.org/1999/xlink" x="0px" y="0px"
	 height="18px" width="18px" viewBox="0 0 18 18" enable-background="new 0 0 18 18" xml:space="preserve">
<g>
	<path fill="#A0A1A2" d="M17.1,0H0.9C0.4,0,0,0.4,0,0.9v16.1C0,17.6,0.4,18,0.9,18h16.1c0.5,0,0.9-0.4,0.9-0.9V0.9
		C18,0.4,17.6,0,17.1,0z M17,17H1V4h16V17z"/>
	<rect x="5" y="5" fill="#A0A1A2" width="2" height="2"/>
	<rect x="8" y="5" fill="#A0A1A2" width="2" height="2"/>
	<rect x="2" y="8" fill="#A0A1A2" width="2" height="2"/>
	<rect x="5" y="8" fill="#A0A1A2" width="2" height="2"/>
	<rect x="8" y="8" fill="#A0A1A2" width="2" height="2"/>
	<rect x="11" y="8" fill="#A0A1A2" width="2" height="2"/>
	<rect x="2" y="11" fill="#A0A1A2" width="2" height="2"/>
	<rect x="5" y="11" fill="#A0A1A2" width="2" height="2"/>
	<rect x="2" y="14" fill="#A0A1A2" width="2" height="2"/>
	<rect x="5" y="14" fill="#A0A1A2" width="2" height="2"/>
	<rect x="8" y="14" fill="#A0A1A2" width="2" height="2"/>
	<rect x="11" y="14" fill="#A0A1A2" width="2" height="2"/>
	<rect x="8" y="11" fill="#A0A1A2" width="2" height="2"/>
	<rect x="11" y="5" fill="#A0A1A2" width="2" height="2"/>
	<rect x="11" y="11" fill="#A0A1A2" width="2" height="2"/>
	<rect x="14" y="8" fill="#A0A1A2" width="2" height="2"/>
	<rect x="14" y="5" fill="#A0A1A2" width="2" height="2"/>
	<rect x="14" y="11" fill="#A0A1A2" width="2" height="2"/>
</g>
</svg>
