<?xml version="1.0" encoding="utf-8"?>
<!-- Generator: Adobe Illustrator 17.0.1, SVG Export Plug-In . SVG Version: 6.00 Build 0)  -->
<!DOCTYPE svg PUBLIC "-//W3C//DTD SVG 1.1//EN" "http://www.w3.org/Graphics/SVG/1.1/DTD/svg11.dtd">
<svg version="1.1" id="Layer_1" xmlns="http://www.w3.org/2000/svg" xmlns:xlink="http://www.w3.org/1999/xlink" x="0px" y="0px"
	 width="16px" height="16px" viewBox="0 0 16 16" enable-background="new 0 0 16 16" xml:space="preserve">
<path fill="#7FBA00" d="M0.632,8.853L0.101,8.278C-0.037,8.126-0.037,7.885,0.123,7.74l1.534-1.418
	c0.073-0.066,0.16-0.101,0.255-0.101c0.108,0,0.204,0.044,0.276,0.123l4.218,4.523l7.258-9.296c0.073-0.094,0.182-0.145,0.298-0.145
	c0.088,0,0.167,0.029,0.233,0.081l1.659,1.28c0.081,0.059,0.13,0.145,0.145,0.248c0.007,0.101-0.015,0.204-0.081,0.276L6.595,15.246
	L0.632,8.853z"/>
</svg>
