<?xml version="1.0" encoding="utf-8"?>
<!-- Generator: Adobe Illustrator 17.0.1, SVG Export Plug-In . SVG Version: 6.00 Build 0)  -->
<!DOCTYPE svg PUBLIC "-//W3C//DTD SVG 1.1//EN" "http://www.w3.org/Graphics/SVG/1.1/DTD/svg11.dtd">
<svg version="1.1" id="Layer_1" xmlns="http://www.w3.org/2000/svg" xmlns:xlink="http://www.w3.org/1999/xlink" x="0px" y="0px"
	 width="50px" height="50px" viewBox="0.5 0.5 50 50" enable-background="new 0.5 0.5 50 50" xml:space="preserve">
<polygon fill="#804998" points="24.069,9.256 17.167,15.804 17.167,12.251 25.496,3.5 33.833,12.22 33.833,15.762 26.968,9.256 
	26.968,20.854 24.069,20.854 "/>
<path fill="#804998" d="M48.648,25.5H2.353c-1.02,0-1.853,0.832-1.853,1.853V31.5v13v4.147c0,1.021,0.836,1.853,1.848,1.853h46.295
	c1.02,0,1.853-0.832,1.853-1.853V44.5v-13v-4.147C50.496,26.332,49.66,25.5,48.648,25.5z"/>
<rect x="4.228" y="29.5" opacity="0.35" fill="#FFFFFF" enable-background="new    " width="42.5" height="17.01"/>
<rect x="21.146" y="34.176" fill="#B8D432" width="8.323" height="8.324"/>
<rect x="33.564" y="34.176" fill="#B8D432" width="8.32" height="8.324"/>
<rect x="8.729" y="34.176" fill="#B8D432" width="8.324" height="8.324"/>
</svg>
