<?xml version="1.0" encoding="utf-8"?>
<!-- Generator: Adobe Illustrator 17.0.1, SVG Export Plug-In . SVG Version: 6.00 Build 0)  -->
<!DOCTYPE svg PUBLIC "-//W3C//DTD SVG 1.1//EN" "http://www.w3.org/Graphics/SVG/1.1/DTD/svg11.dtd">
<svg version="1.1" id="Layer_1" xmlns="http://www.w3.org/2000/svg" xmlns:xlink="http://www.w3.org/1999/xlink" x="0px" y="0px"
	 width="50px" height="50px" viewBox="0 0 50 50" enable-background="new 0 0 50 50" xml:space="preserve">
<rect x="4" fill="#E5E5E5" width="10.003" height="50"/>
<rect x="6" y="2" fill="#59B4D9" width="5.941" height="46"/>
<rect x="6" y="20" opacity="0.6" fill="#FFFFFF" width="6.003" height="28"/>
<rect x="4" y="18" fill="#7A7A7A" width="9.999" height="4"/>
<rect x="4.001" y="18" opacity="0.7" fill="#FFFFFF" width="10" height="2"/>
<rect x="20" fill="#E5E5E5" width="10.003" height="50"/>
<rect x="22" y="2" fill="#59B4D9" width="5.941" height="46"/>
<rect x="22.005" y="36" opacity="0.6" fill="#FFFFFF" width="6.003" height="12"/>
<rect x="20" y="34" fill="#7A7A7A" width="9.999" height="4"/>
<rect x="20.001" y="34" opacity="0.7" fill="#FFFFFF" width="10" height="2"/>
<rect x="36" fill="#E5E5E5" width="10.003" height="50"/>
<rect x="38" y="2" fill="#59B4D9" width="5.941" height="46"/>
<rect x="38" y="20" opacity="0.6" fill="#FFFFFF" width="6.003" height="28"/>
<rect x="36" y="18" fill="#7A7A7A" width="9.999" height="4"/>
<rect x="36.001" y="18" opacity="0.7" fill="#FFFFFF" width="10" height="2"/>
<rect x="4.001" y="22" opacity="0.2" fill="#1E1E1E" width="10" height="2"/>
<rect x="35.97" y="22" opacity="0.2" fill="#1E1E1E" width="10" height="2"/>
<rect x="20.007" y="38" opacity="0.2" fill="#1E1E1E" width="10" height="2"/>
</svg>
