<?xml version="1.0" encoding="utf-8"?>
<!-- Generator: Adobe Illustrator 17.1.0, SVG Export Plug-In . SVG Version: 6.00 Build 0)  -->
<!DOCTYPE svg PUBLIC "-//W3C//DTD SVG 1.1//EN" "http://www.w3.org/Graphics/SVG/1.1/DTD/svg11.dtd">
<svg version="1.1" id="Layer_1" xmlns="http://www.w3.org/2000/svg" xmlns:xlink="http://www.w3.org/1999/xlink" x="0px" y="0px"
	 height="50px" width="50px" viewBox="0 0 50 50" enable-background="new 0 0 50 50" xml:space="preserve">
<path fill="#A0A1A2" d="M44.5,45h-39c-3,0-5.5-2.5-5.5-5.5v-29C0,7.5,2.5,5,5.5,5h39c3,0,5.5,2.5,5.5,5.5v29
	C50,42.5,47.5,45,44.5,45z"/>
<rect x="2.7" y="13.1" fill="#0072C6" width="13" height="24"/>
<rect x="2.7" y="13.1" opacity="0.15" fill="#FFFFFF" width="13" height="12"/>
<path fill="#FFFFFF" d="M14.1,24.7c0,2.5-0.5,4.4-1.4,5.7s-2.2,2-3.8,2c-1.6,0-2.8-0.6-3.7-1.9C4.4,29.2,4,27.4,4,25
	c0-2.6,0.4-4.5,1.3-5.9s2.2-2,3.9-2C12.5,17.2,14.1,19.7,14.1,24.7z M11.7,24.8c0-2-0.2-3.4-0.6-4.3c-0.4-0.9-1.1-1.4-1.9-1.4
	c-1.8,0-2.7,2-2.7,5.9c0,1.8,0.2,3.2,0.7,4.1c0.5,0.9,1.1,1.4,2,1.4c0.9,0,1.5-0.5,1.9-1.4S11.6,26.7,11.7,24.8L11.7,24.8z"/>
<rect x="18.7" y="13.1" fill="#0072C6" width="13" height="24"/>
<rect x="18.7" y="13.1" opacity="0.15" fill="#FFFFFF" width="13" height="12"/>
<path fill="#FFFFFF" d="M30.1,24.7c0,2.5-0.5,4.4-1.4,5.7s-2.2,2-3.8,2c-1.6,0-2.8-0.6-3.7-1.9C20.4,29.2,20,27.4,20,25
	c0-2.6,0.4-4.5,1.3-5.9s2.2-2,3.9-2C28.5,17.2,30.1,19.7,30.1,24.7z M27.7,24.8c0-2-0.2-3.4-0.6-4.3c-0.4-0.9-1.1-1.4-1.9-1.4
	c-1.8,0-2.7,2-2.7,5.9c0,1.8,0.2,3.2,0.7,4.1c0.5,0.9,1.1,1.4,2,1.4c0.9,0,1.5-0.5,1.9-1.4S27.6,26.7,27.7,24.8L27.7,24.8z"/>
<rect x="34.7" y="13.1" fill="#0072C6" width="13" height="24"/>
<rect x="34.7" y="13.1" opacity="0.15" fill="#FFFFFF" width="13" height="12"/>
<path fill="#FFFFFF" d="M42.5,17.1v15h-2.4V20c-0.8,0.6-1.8,1-3.1,1.4v-2c0.9-0.3,1.7-0.6,2.4-1c0.7-0.4,1.4-0.8,2-1.2H42.5z"/>
</svg>
