<?xml version="1.0" encoding="utf-8"?>
<!-- Generator: Adobe Illustrator 19.1.0, SVG Export Plug-In . SVG Version: 6.00 Build 0)  -->
<svg version="1.1" id="Layer_1" xmlns="http://www.w3.org/2000/svg" xmlns:xlink="http://www.w3.org/1999/xlink" x="0px" y="0px"
	 width="50px" height="50px" viewBox="0 0 50 50" style="enable-background:new 0 0 50 50;" xml:space="preserve">
<style type="text/css">
	.st0{fill:#0072C6;}
	.st1{opacity:0.15;fill:#FFFFFF;enable-background:new    ;}
	.st2{opacity:0.25;fill:#1E1E1E;enable-background:new    ;}
	.st3{fill:#B8D432;}
	.st4{fill:#7FBA00;}
	.st5{opacity:0.25;fill:#FCD116;enable-background:new    ;}
</style>
<path class="st0" d="M25,21.4L1.1,11.8v-0.1L25,2l23.9,9.6v0.1L25,21.4z"/>
<path class="st0" d="M25,50l23.9-9.7V11.7L25,21.4V50z"/>
<path class="st1" d="M25,50l23.9-9.7V11.7L25,21.4V50z"/>
<path class="st0" d="M25,50L1.1,40.4V11.8L25,21.4V50z"/>
<path class="st2" d="M25,50L1.1,40.4V11.8L25,21.4V50z"/>
<polygon class="st3" points="34.9,17.4 34.9,46 41.2,43.4 41.2,14.7 "/>
<polygon class="st4" points="14.9,17.4 14.9,46 8.4,43.4 8.4,14.7 "/>
<polygon class="st4" points="10.9,7.6 10.9,7.7 34.9,17.4 41.2,14.7 41.2,14.6 17.3,5 "/>
<polygon class="st3" points="39.1,7.6 39.1,7.7 14.9,17.4 8.4,14.7 8.4,14.6 32.7,5 "/>
<path class="st4" d="M19,15.3c0.5,0.1,1.1,0.1,1.7-0.2l7.7-3.1l-5.9-3.1l-6.9-2.5c-0.6-0.2-1.1-0.3-1.8,0c-1.7,0.7-3.1,2.6-3.1,4.3
	c0,0.8,0.4,1.5,0.9,1.8L19,15.3z"/>
<path class="st4" d="M21.6,9.5l5.9-7.8c0.6-0.6,1.1-1.1,1.8-1.4C29.9,0.1,30.5,0,31,0.1l7,2.6c0.7,0.3,1.2,1,1.2,2
	c0,1.7-1.4,3.6-3.1,4.3l-7.7,3.1L21.6,9.5z"/>
<path class="st5" d="M38.1,2.7l-7-2.6C30.6,0,30,0,29.4,0.3c-0.7,0.3-1.3,0.8-1.8,1.4l-5.4,7.2l-6.5-2.4c-0.6-0.2-1.1-0.3-1.8,0
	c-1.7,0.7-3.1,2.6-3.1,4.3c0,0.8,0.4,1.5,0.9,1.8l7.3,2.7c0.5,0.1,1.1,0.1,1.7-0.2l7.7-3.1l-0.7-0.4l0.8,0.3l7.7-3.1
	c1.7-0.7,3.1-2.6,3.1-4.3C39.3,3.6,38.8,2.9,38.1,2.7z"/>
<path class="st2" d="M34.4,4.2c0.6-0.6,1.1-1.1,1.8-1.4c1.7-0.7,3.1,0.2,3.1,1.9S37.9,8.3,36.2,9l-7.7,3.1L34.4,4.2z"/>
<path class="st2" d="M22.5,8.9c-0.6-0.2-1.1-0.3-1.8,0c-1.7,0.7-3.1,2.6-3.1,4.3s1.4,2.5,3.1,1.9l7.7-3.1L22.5,8.9z"/>
</svg>
