<?xml version="1.0" encoding="utf-8"?>
<!-- Generator: Adobe Illustrator 17.0.1, SVG Export Plug-In . SVG Version: 6.00 Build 0)  -->
<!DOCTYPE svg PUBLIC "-//W3C//DTD SVG 1.1//EN" "http://www.w3.org/Graphics/SVG/1.1/DTD/svg11.dtd">
<svg version="1.1" id="Layer_1" xmlns="http://www.w3.org/2000/svg" xmlns:xlink="http://www.w3.org/1999/xlink" x="0px" y="0px"
	 width="50px" height="50px" viewBox="0 0 50 50" enable-background="new 0 0 50 50" xml:space="preserve">
<path fill="#7A7A7A" d="M24.159,40.351h-3.951c0.957,5.788-2.336,6.618-7.968,6.618V50h7.163h5.229h6.759v-3.031
	C25.76,46.969,23.201,46.142,24.159,40.351"/>
<rect x="12.242" y="46.968" fill="#A0A1A2" width="19.151" height="3.032"/>
<path fill="#EC008C" d="M35.12,5.48c-3.17-3.17-7.195-4.963-11.332-5.383C18.386-0.452,12.791,1.341,8.652,5.48
	C4.513,9.619,2.72,15.214,3.268,20.616c0.42,4.138,2.213,8.162,5.383,11.332c4.898,4.898,11.833,6.508,18.077,4.842
	c3.074-0.82,5.981-2.431,8.392-4.842c3.879-3.879,5.699-9.038,5.461-14.117C40.37,13.34,38.551,8.91,35.12,5.48z"/>
<path fill="#A0A1A2" d="M21.886,43.656c-6.662,0-12.926-2.594-17.637-7.305c-0.68-0.68-0.68-1.781,0-2.461
	c0.68-0.679,1.781-0.68,2.461,0c4.054,4.054,9.443,6.286,15.176,6.286c5.733,0,11.122-2.232,15.176-6.286
	c4.054-4.054,6.286-9.443,6.286-15.176S41.116,7.592,37.062,3.538c-0.68-0.68-0.68-1.781,0-2.461c0.68-0.68,1.782-0.679,2.461,0
	c4.711,4.711,7.305,10.974,7.305,17.637s-2.594,12.926-7.305,17.637S28.548,43.656,21.886,43.656z"/>
<path opacity="0.2" fill="#1E1E1E" d="M31.612,28.442c-3.221,3.222-7.105,5.373-11.211,6.469c-2.025,0.54-4.105,0.818-6.187,0.842
	c3.95,1.775,8.379,2.142,12.515,1.038c3.074-0.82,5.981-2.431,8.392-4.842c3.879-3.879,5.699-9.038,5.461-14.117
	c-0.111-2.361-0.679-4.7-1.679-6.891C38.857,17.279,36.449,23.605,31.612,28.442z"/>
<circle fill="#FFFFFF" cx="21.817" cy="27.096" r="2.904"/>
<polygon fill="#FFFFFF" points="22.25,9.379 21.383,9.379 19.213,9.379 19.988,22.846 21.383,22.846 22.25,22.846 23.646,22.846 
	24.421,9.379 "/>
</svg>
