<?xml version="1.0" encoding="utf-8"?>
<!-- Generator: Adobe Illustrator 17.0.1, SVG Export Plug-In . SVG Version: 6.00 Build 0)  -->
<!DOCTYPE svg PUBLIC "-//W3C//DTD SVG 1.1//EN" "http://www.w3.org/Graphics/SVG/1.1/DTD/svg11.dtd">
<svg version="1.1" id="Layer_1" xmlns="http://www.w3.org/2000/svg" xmlns:xlink="http://www.w3.org/1999/xlink" x="0px" y="0px"
	 width="50px" height="50px" viewBox="0 0 50 50" enable-background="new 0 0 50 50" xml:space="preserve">
<rect x="5" y="5" fill="#B8D432" width="8.868" height="8.792"/>
<rect x="15.377" y="5" fill="#B8D432" width="8.868" height="8.792"/>
<rect x="25.728" y="5" fill="#B8D432" width="8.895" height="8.792"/>
<rect x="36.132" y="5" fill="#B8D432" width="8.868" height="8.792"/>
<rect x="5" y="15.402" fill="#B8D432" width="8.868" height="8.792"/>
<rect x="15.377" y="15.402" fill="#B8D432" width="8.868" height="8.792"/>
<rect x="25.728" y="15.402" fill="#B8D432" width="8.895" height="8.792"/>
<rect x="36.132" y="15.402" fill="#B8D432" width="8.868" height="8.792"/>
<rect x="5" y="25.804" fill="#B8D432" width="8.868" height="8.917"/>
<rect x="15.377" y="25.804" fill="#B8D432" width="8.868" height="8.917"/>
<rect x="25.728" y="25.804" fill="#B8D432" width="8.895" height="8.917"/>
<rect x="36.132" y="25.804" fill="#B8D432" width="8.868" height="8.917"/>
<rect x="5" y="36.208" fill="#B8D432" width="8.868" height="8.792"/>
<rect x="15.377" y="36.208" fill="#B8D432" width="8.868" height="8.792"/>
<rect x="25.728" y="36.208" fill="#B8D432" width="8.895" height="8.792"/>
<rect x="36.132" y="36.208" fill="#B8D432" width="8.868" height="8.792"/>
</svg>
