<?xml version="1.0" encoding="utf-8"?>
<!-- Generator: Adobe Illustrator 17.0.1, SVG Export Plug-In . SVG Version: 6.00 Build 0)  -->
<!DOCTYPE svg PUBLIC "-//W3C//DTD SVG 1.1//EN" "http://www.w3.org/Graphics/SVG/1.1/DTD/svg11.dtd">
<svg version="1.1" id="Layer_1" xmlns="http://www.w3.org/2000/svg" xmlns:xlink="http://www.w3.org/1999/xlink" x="0px" y="0px"
	 width="50px" height="50px" viewBox="0 0 50 50" enable-background="new 0 0 50 50" xml:space="preserve">
<polygon fill="#804998" points="17.7,23.411 12.811,18.256 16.789,18.256 23.333,24.978 16.822,31.667 12.844,31.667 17.7,26.511 
	0,26.511 0,23.411 "/>
<polygon fill="#59B4D9" points="44.367,23.411 39.478,18.256 43.456,18.256 50,24.978 43.489,31.667 39.511,31.667 44.367,26.511 
	26.667,26.511 26.667,23.411 "/>
<polygon fill="#A0A1A2" points="36.667,40.889 5.556,40.889 5.556,30.556 10,30.556 10,36.444 32.222,36.444 32.222,30.556 
	36.667,30.556 "/>
<polygon fill="#A0A1A2" points="36.667,19.444 32.222,19.444 32.222,12.444 10,12.444 10,19.444 5.556,19.444 5.556,8 36.667,8 "/>
</svg>
