<?xml version="1.0" encoding="utf-8"?>
<!-- Generator: Adobe Illustrator 17.0.1, SVG Export Plug-In . SVG Version: 6.00 Build 0)  -->
<!DOCTYPE svg PUBLIC "-//W3C//DTD SVG 1.1//EN" "http://www.w3.org/Graphics/SVG/1.1/DTD/svg11.dtd">
<svg version="1.1" id="Layer_1" xmlns="http://www.w3.org/2000/svg" xmlns:xlink="http://www.w3.org/1999/xlink" x="0px" y="0px"
	 width="50px" height="50px" viewBox="0 0 50 50" enable-background="new 0 0 50 50" xml:space="preserve">
<path fill="#FCD116" d="M39.337,19.525c2.222-2.22,2.222-5.824,0-8.045l-9.812-9.813c-2.222-2.222-5.824-2.222-8.046,0l-9.813,9.813
	c-2.221,2.221-2.221,5.825,0,8.045l8.633,8.633v16.641l5.202,5.202l4.519-4.519v-0.033l2.652-2.653l-2.629-2.629l2.629-2.629
	l-2.629-2.629l2.629-2.629l-2.652-2.653v-0.784L39.337,19.525z M25.502,4.039c1.783,0,3.229,1.446,3.229,3.229
	c0,1.784-1.446,3.229-3.229,3.229c-1.783,0-3.229-1.445-3.229-3.229S23.719,4.039,25.502,4.039z"/>
<polygon opacity="0.4" fill="#FF8C00" enable-background="new    " points="22.728,43.961 24.758,45.961 24.758,30.008 
	22.728,29.008 "/>
<rect x="15.868" y="13.617" opacity="0.5" fill="#FFFFFF" enable-background="new    " width="18.64" height="2.679"/>
<rect x="15.868" y="17.976" opacity="0.5" fill="#FFFFFF" enable-background="new    " width="18.64" height="2.679"/>
</svg>
