<?xml version="1.0" encoding="utf-8"?>
<!-- Generator: Adobe Illustrator 17.0.1, SVG Export Plug-In . SVG Version: 6.00 Build 0)  -->
<!DOCTYPE svg PUBLIC "-//W3C//DTD SVG 1.1//EN" "http://www.w3.org/Graphics/SVG/1.1/DTD/svg11.dtd">
<svg version="1.1" id="Layer_1" xmlns="http://www.w3.org/2000/svg" xmlns:xlink="http://www.w3.org/1999/xlink" x="0px" y="0px"
	 width="50px" height="50px" viewBox="-10.5 -9.5 50 50" enable-background="new -10.5 -9.5 50 50" xml:space="preserve">
<path fill="#0072C6" d="M34.492,35.865h2V-9.5H-1.841h-2.667C-5.801-9.333-8.5-6.2-8.5-5.749c0,0.187,0.059,43.882,0.059,43.882
	c0,1.307,1.06,2.367,2.368,2.367h37.565v-0.729L34.492,35.865z"/>
<path fill="#E5E5E5" d="M-2.726-7.5c-1.105,0-1.58,0.185-2.507,1c-2.275,2,0.39,2,1.495,2h35.23v44.271l3-3.906V-7.5H-2.726z"/>
<polygon opacity="0.5" fill="#A0A1A2" enable-background="new    " points="31.492,39.771 34.492,35.865 34.492,-7.5 31.492,-4.5 
	"/>
<path fill="#FFFFFF" d="M22.492,10.5c0,1.105-0.895,2-2,2h-17c-1.105,0-2-0.895-2-2v-5c0-1.105,0.895-2,2-2h17c1.105,0,2,0.895,2,2
	V10.5z"/>
</svg>
