<?xml version="1.0" encoding="utf-8"?>
<!-- Generator: Adobe Illustrator 17.1.0, SVG Export Plug-In . SVG Version: 6.00 Build 0)  -->
<!DOCTYPE svg PUBLIC "-//W3C//DTD SVG 1.1//EN" "http://www.w3.org/Graphics/SVG/1.1/DTD/svg11.dtd">
<svg version="1.1" xmlns="http://www.w3.org/2000/svg" xmlns:xlink="http://www.w3.org/1999/xlink" x="0px" y="0px"
	 viewBox="0 0 16 16" enable-background="new 0 0 16 16" xml:space="preserve">
<g id="outline">
</g>
<g id="icon_x5F_bg">
	<g>
		<path fill="#FCD116" d="M3.8,8.7c0-0.2-0.1-0.4-0.1-0.7c0-0.2,0-0.4,0.1-0.7l0-0.3H0v1.8h3.9L3.8,8.7z"/>
		<path fill="#FCD116" d="M12.1,7.1l0,0.3c0,0.2,0.1,0.4,0.1,0.7c0,0.2,0,0.4-0.1,0.7l0,0.3H16V7.1H12.1z"/>
		<path fill="#FCD116" d="M4.6,10.5l-0.2-0.2l-3.1,3.1l1.3,1.3l3.1-3.1l-0.2-0.2C5.2,11.1,4.9,10.8,4.6,10.5z"/>
		<path fill="#FCD116" d="M11.4,5.5l0.2,0.2l3.1-3.1l-1.3-1.3l-3.1,3.1l0.2,0.2C10.8,4.9,11.1,5.2,11.4,5.5z"/>
		<path fill="#FCD116" d="M7.3,12.2l-0.3,0V16h1.8v-3.9l-0.3,0C8.2,12.2,7.8,12.2,7.3,12.2z"/>
		<path fill="#FCD116" d="M8.7,3.8l0.3,0l0-3.9H7.1l0,3.9l0.3,0C7.8,3.8,8.2,3.8,8.7,3.8z"/>
		<path fill="#FCD116" d="M11.4,10.5c-0.3,0.4-0.6,0.7-0.9,0.9l-0.2,0.2l3.1,3.1l1.3-1.3l-3.1-3.1L11.4,10.5z"/>
		<path fill="#FCD116" d="M1.3,2.6l3.1,3.1l0.2-0.2c0.3-0.4,0.6-0.7,0.9-0.9l0.2-0.2L2.6,1.3L1.3,2.6z"/>
	</g>
</g>
<g id="color_x5F_action">
</g>
<g id="color_x5F_decoration">
</g>
<g id="color_x5F_importance">
</g>
<g id="icon_x5F_fg">
</g>
<g id="not_x5F_bg">
</g>
<g id="not_x5F_fg">
</g>
</svg>
