<?xml version="1.0" encoding="utf-8"?>
<!-- Generator: Adobe Illustrator 17.1.0, SVG Export Plug-In . SVG Version: 6.00 Build 0)  -->
<!DOCTYPE svg PUBLIC "-//W3C//DTD SVG 1.1//EN" "http://www.w3.org/Graphics/SVG/1.1/DTD/svg11.dtd">
<svg version="1.1" id="Layer_1" xmlns="http://www.w3.org/2000/svg" xmlns:xlink="http://www.w3.org/1999/xlink" x="0px" y="0px"
	 viewBox="0 0 50 50" enable-background="new 0 0 50 50" xml:space="preserve">
<path fill="#A0A1A2" d="M32.7,47.5c0,1.4-1.1,2.5-2.5,2.5h-25c-1.4,0-2.5-1.1-2.5-2.5v-45C2.7,1.1,3.8,0,5.2,0h24.9
	c1.4,0,2.5,1.1,2.5,2.5v45H32.7z"/>
<rect x="6.7" y="5" fill="#7A7A7A" width="6" height="7"/>
<rect x="14.7" y="5" fill="#7A7A7A" width="6" height="7"/>
<rect x="22.7" y="5" fill="#7A7A7A" width="6" height="7"/>
<rect x="6.7" y="16" fill="#7A7A7A" width="6" height="7"/>
<rect x="14.7" y="16" fill="#7A7A7A" width="6" height="7"/>
<rect x="22.7" y="16" fill="#7A7A7A" width="6" height="7"/>
<rect x="6.7" y="27" fill="#7A7A7A" width="6" height="7"/>
<rect x="14.7" y="27" fill="#7A7A7A" width="6" height="7"/>
<rect x="22.7" y="27" fill="#7A7A7A" width="6" height="7"/>
<path fill="#3E3E3E" d="M32.5,49.1l2.1,0.9l0.2-0.3l1.7-2h1.7l2,2.3l2.1-0.9v-0.3l-0.2-2.6l1.2-1.2l3,0.2l0.9-2.2L47,42.7L45,41
	v-1.8l2.2-2L46.4,35h-0.3l-2.6,0.2L42.3,34l0.2-3l-2.2-1l-0.2,0.3l-1.7,2h-1.7l-2-2.3l-2.1,0.9v0.4l0.2,2.6l-1.2,1.2l-3-0.2
	l-0.9,2.2l0.3,0.2l2,1.7v1.8l-2.2,2l0.9,2.2H29l2.6-0.2l1.2,1.3L32.5,49.1z M33.2,38.1c1-2.5,3.8-3.6,6.2-2.6s3.5,3.9,2.5,6.3
	c-1,2.5-3.8,3.6-6.2,2.6C33.3,43.4,32.1,40.6,33.2,38.1"/>
</svg>
