<?xml version="1.0" encoding="utf-8"?>
<!-- Generator: Adobe Illustrator 17.1.0, SVG Export Plug-In . SVG Version: 6.00 Build 0)  -->
<!DOCTYPE svg PUBLIC "-//W3C//DTD SVG 1.1//EN" "http://www.w3.org/Graphics/SVG/1.1/DTD/svg11.dtd">
<svg version="1.1" id="Layer_1" xmlns="http://www.w3.org/2000/svg" xmlns:xlink="http://www.w3.org/1999/xlink" x="0px" y="0px"
	 height="50px" width="50px" viewBox="0 0 50 50" enable-background="new 0 0 50 50" xml:space="preserve">
<path fill="#1E1E1E" d="M0,44.3c0,1.1,0.9,2,2,2h46c1.1,0,2-0.9,2-2V13H0V44.3z"/>
<path opacity="0.25" fill="#0072C6" d="M0,44.3c0,1.1,0.9,2,2,2h46c1.1,0,2-0.9,2-2V13H0V44.3z"/>
<path fill="#A0A1A2" d="M48,3.7H2c-1.1,0-2,0.9-2,2v10.6h50V5.7C50,4.6,49.1,3.7,48,3.7"/>
<rect x="12.9" y="8.5" fill="#FFFFFF" width="33.7" height="3.9"/>
<path fill="#59B4D9" d="M11.3,10.4c0,2.7-2.2,4.9-4.9,4.9c-2.7,0-4.9-2.2-4.9-4.9c0-2.7,2.2-4.9,4.9-4.9C9.1,5.5,11.3,7.7,11.3,10.4
	"/>
<polygon fill="#FFFFFF" points="5.9,10.9 8.1,13.3 6.9,13.3 4,10.4 6.9,7.6 8.1,7.6 5.9,9.9 11.3,9.9 11.3,10.9 "/>
<rect x="12" y="22.7" fill="#E5E5E5" width="38" height="20"/>
<rect x="0" y="22.7" fill="#59B4D9" width="12" height="20"/>
<g opacity="0.2">
	<g>
		<g>
			<path fill="#FFFFFF" d="M2,3.7c-1.1,0-2,0.9-2,2V13v3.3v28c0,1.1,0.9,2,2,2h2.2L43.6,3.7H2z"/>
		</g>
	</g>
</g>
</svg>
