<?xml version="1.0" encoding="utf-8"?>
<!-- Generator: Adobe Illustrator 17.1.0, SVG Export Plug-In . SVG Version: 6.00 Build 0)  -->
<!DOCTYPE svg PUBLIC "-//W3C//DTD SVG 1.1//EN" "http://www.w3.org/Graphics/SVG/1.1/DTD/svg11.dtd">
<svg version="1.1" id="Layer_1" xmlns="http://www.w3.org/2000/svg" xmlns:xlink="http://www.w3.org/1999/xlink" x="0px" y="0px"
	 height="50px" width="50px" viewBox="0 0 50 50" enable-background="new 0 0 50 50" xml:space="preserve">
<g>
	<g>
		<path fill="#FCD116" d="M36.4,0H17.6L9.6,25.2c-0.2,0.6,0.1,1,0.7,1h8.8c0.3,0,0.5,0.1,0.6,0.2c0.2,0.2,0.2,0.5,0.1,0.8l-9.1,22.1
			c-0.2,0.6-0.1,0.7,0.3,0.2L40.1,17c0.4-0.5,0.2-0.9-0.4-0.9l-9.5,0h-1.7c-0.6,0-0.9-0.4-0.6-1L36.4,0z"/>
	</g>
	<path opacity="0.3" fill="#FF8C00" d="M39.7,16.1l-5.8,0L12.3,48.5L40.1,17C40.5,16.5,40.4,16.1,39.7,16.1z"/>
	<g opacity="0.3">
		<path fill="#FF8C00" d="M36.4,0h-5.5l-7.8,16.1h5.2c-0.5-0.1-0.7-0.5-0.4-1L36.4,0z"/>
	</g>
</g>
</svg>
