<?xml version="1.0" encoding="utf-8"?>
<!-- Generator: Adobe Illustrator 17.1.0, SVG Export Plug-In . SVG Version: 6.00 Build 0)  -->
<!DOCTYPE svg PUBLIC "-//W3C//DTD SVG 1.1//EN" "http://www.w3.org/Graphics/SVG/1.1/DTD/svg11.dtd">
<svg version="1.1" id="Layer_1" xmlns="http://www.w3.org/2000/svg" xmlns:xlink="http://www.w3.org/1999/xlink" x="0px" y="0px"
	 width="50px" height="50px" viewBox="0 0 50 50" enable-background="new 0 0 50 50" xml:space="preserve">
<polygon fill="#59B4D9" points="27.1,21.8 22.9,21.8 19.7,50 30.3,50 "/>
<path opacity="0.5" fill="#3E3E3E" d="M40.3,22.5C40.3,14,33.5,7.1,25,7.1C16.5,7.1,9.7,14,9.7,22.5c0,5.6,3,10.5,7.6,13.2
	c0.5-0.8,0.9-1.6,1.3-2.3c-3.7-2.2-6.2-6.2-6.2-10.9c0-7,5.7-12.7,12.7-12.7c7,0,12.7,5.7,12.7,12.7c0,4.6-2.5,8.7-6.2,10.9
	c0.4,0.7,0.9,1.5,1.3,2.3C37.3,33,40.3,28.1,40.3,22.5"/>
<path opacity="0.2" fill="#3E3E3E" d="M13.7,41.9c0.4-0.8,0.9-1.6,1.3-2.4c-5.9-3.4-9.8-9.8-9.8-17.1C5.2,11.6,14.1,2.7,25,2.7
	c10.9,0,19.8,8.9,19.8,19.8c0,7.3-4,13.6-9.8,17.1c0.4,0.8,0.9,1.6,1.3,2.4c6.7-3.9,11.2-11.1,11.2-19.4C47.5,10.1,37.4,0,25,0
	C12.6,0,2.5,10.1,2.5,22.5C2.5,30.7,7.1,38,13.7,41.9"/>
<circle fill="#0072C6" cx="25" cy="22.6" r="6.8"/>
</svg>
