<?xml version="1.0" encoding="utf-8"?>
<!-- Generator: Adobe Illustrator 17.1.0, SVG Export Plug-In . SVG Version: 6.00 Build 0)  -->
<!DOCTYPE svg PUBLIC "-//W3C//DTD SVG 1.1//EN" "http://www.w3.org/Graphics/SVG/1.1/DTD/svg11.dtd">
<svg version="1.1" id="Layer_1" xmlns="http://www.w3.org/2000/svg" xmlns:xlink="http://www.w3.org/1999/xlink" x="0px" y="0px"
	 height="50px" width="50px" viewBox="0 0 50 50" enable-background="new 0 0 50 50" xml:space="preserve">
<path fill-rule="evenodd" clip-rule="evenodd" fill="#59B4D9" d="M44.7,40.5v-9.7c-2.1,1.2-5,2.3-5.2,2.3c-0.9,0-2.3-1.8-3.5-3
	c-1.8,1.8-5.2,5.4-5.8,5.4c-1.5,0-4.1-7.8-4.9-9.6c-1.7,1.5-4.9,4.8-5.5,4.8c-0.6,0-1.2-0.8-2.5-1.6v11.5H44.7z M44.7,28.3V18.3
	H17.3v8.2c1,0.4,1.2,1.2,2.2,1.8c2-2.1,5.2-5.7,6.1-5.7c1.2,0,4.4,8.7,4.9,9.6c1.7-1.5,4.9-4.8,5.5-4.8c0.9,0,2.6,2.1,3.8,3.3
	L44.7,28.3z M5.5,15.5h39.3v-3.9l-39.3,0V15.5z M14.4,40.5V18.3h-9l0,22.2H14.4z M11.9,34.7c0,1.1-0.9,2-2,2S8,35.8,8,34.7
	s0.9-2,1.9-2S11.9,33.6,11.9,34.7z M11.9,29.3c0,1.1-0.9,2-2,2S8,30.4,8,29.3c0-1.1,0.9-2,1.9-2S11.9,28.1,11.9,29.3z M11.9,23.7
	c0,1.1-0.9,2-2,2S8,24.8,8,23.7c0-1.1,0.9-2,1.9-2S11.9,22.6,11.9,23.7z M2.3,6.3C1.2,6.3,0,7.5,0,8.7v34.7c0,1.2,1.2,2.4,2.3,2.4
	h45.3c1.2,0,2.3-1.2,2.3-2.4V8.7c0-1.2-1.2-2.4-2.3-2.4H2.3z M2.3,8.7h45.3v7.2v27.5H3.5H2.3V8.7z"/>
</svg>
