<?xml version="1.0" encoding="utf-8"?>
<!-- Generator: Adobe Illustrator 17.1.0, SVG Export Plug-In . SVG Version: 6.00 Build 0)  -->
<!DOCTYPE svg PUBLIC "-//W3C//DTD SVG 1.1//EN" "http://www.w3.org/Graphics/SVG/1.1/DTD/svg11.dtd">
<svg version="1.1" id="Layer_1" xmlns="http://www.w3.org/2000/svg" xmlns:xlink="http://www.w3.org/1999/xlink" x="0px" y="0px"
	 height="50px" width="50px" viewBox="0 0 50 50" enable-background="new 0 0 50 50" xml:space="preserve">
<g>
	<path fill="#59B4D9" d="M24.6,30.2c-0.6,0-1.1-0.2-1.6-0.5L1,12.4l3.1-3l20.5,16L45.9,8.9l3.1,3L26.2,29.6
		C25.7,30,25.2,30.2,24.6,30.2z"/>
</g>
<path fill="#59B4D9" d="M4.4,40.3h41.7L46,10H3.8l0.1,29.7L4.4,40.3z M48,44H2.6C1.1,44,0,42.9,0,41.5V8.6C0,7.1,1.1,6,2.6,6h44.9
	C48.9,6,50,7.1,50,8.6v32.9c0,1.4-1.1,2.5-2.6,2.5L48,44L48,44z"/>
</svg>
