<?xml version="1.0" encoding="utf-8"?>
<!-- Generator: Adobe Illustrator 17.1.0, SVG Export Plug-In . SVG Version: 6.00 Build 0)  -->
<!DOCTYPE svg PUBLIC "-//W3C//DTD SVG 1.1//EN" "http://www.w3.org/Graphics/SVG/1.1/DTD/svg11.dtd">
<svg version="1.1" id="Layer_1" xmlns="http://www.w3.org/2000/svg" xmlns:xlink="http://www.w3.org/1999/xlink" x="0px" y="0px"
	 height="50px" width="50px" viewBox="0 0 50 50" enable-background="new 0 0 50 50" xml:space="preserve">
<path fill="#59B4D9" d="M47.4,39.6l-9.6-16.5L28,6.4c-1.5-2.6-4.6-2.6-6.1,0l-9.6,16.1L2.6,39.6c-1.5,2.6,0.1,5.8,3.2,5.8H25h19.3
	C47.4,45.3,48.9,42.2,47.4,39.6z M24.7,16.9h0.9H28l-0.8,14.6h-1.5h-0.9h-1.5l-0.8-14.6H24.7z M25,39.2c-1.7,0-3.1-1.4-3.1-3.1
	s1.4-3.1,3.1-3.1s3.1,1.4,3.1,3.1S26.7,39.2,25,39.2z"/>
</svg>
