<?xml version="1.0" encoding="utf-8"?>
<!-- Generator: Adobe Illustrator 19.1.0, SVG Export Plug-In . SVG Version: 6.00 Build 0)  -->
<svg version="1.1" id="Layer_1" xmlns="http://www.w3.org/2000/svg" xmlns:xlink="http://www.w3.org/1999/xlink" x="0px" y="0px"
	 width="50px" height="50px" viewBox="0 0 50 50" enable-background="new 0 0 50 50" xml:space="preserve">
<path fill="#0072C6" d="M10.2,19.5v12.7c0,3,6.6,5.3,14.8,5.3v-18H10.2z"/>
<path fill="#0072C6" d="M24.8,37.6H25c8.1,0,14.8-2.4,14.8-5.3V19.5h-15V37.6z"/>
<path opacity="0.15" fill="#FFFFFF" d="M24.8,37.6H25c8.1,0,14.8-2.4,14.8-5.3V19.5h-15V37.6z"/>
<g>
	<path fill="#0072C6" d="M48.6,16.6c1.8,0.7,1.8,2,0,2.7l-20.3,8.3c-1.8,0.7-4.8,0.7-6.6,0L1.4,19.4c-1.8-0.7-1.8-2,0-2.7l20.3-8.3
		c1.8-0.7,4.8-0.7,6.6,0L48.6,16.6z"/>
</g>
<path fill="#0072C6" d="M0,19.7c-0.1,0.5,0.4,1.1,1.4,1.5l20.3,8.3c1.8,0.7,4.8,0.7,6.6,0l20.3-8.3c1-0.4,1.4-1,1.4-1.5l0-1.8
	c0.1,0.5-0.4,1.1-1.4,1.5l-20.3,8.3c-1.8,0.7-4.8,0.7-6.6,0L1.4,19.4c-1.1-0.4-1.5-1-1.3-1.6L0,19.7z"/>
<path opacity="0.25" fill="#1E1E1E" d="M0,19.7c-0.1,0.5,0.4,1.1,1.4,1.5l20.3,8.3c1.8,0.7,4.8,0.7,6.6,0l20.3-8.3
	c1-0.4,1.4-1,1.4-1.5l0-1.8c0.1,0.5-0.4,1.1-1.4,1.5l-20.3,8.3c-1.8,0.7-4.8,0.7-6.6,0L1.4,19.4c-1.1-0.4-1.5-1-1.3-1.6L0,19.7z"/>
<circle opacity="0.25" fill="#1E1E1E" cx="25" cy="17" r="1.9"/>
<g>
	<polygon fill="#FCD116" points="11,41.3 10,41.3 10,22.6 23.1,17.3 23.5,18.2 11,23.3 	"/>
</g>
<path fill="#FF8C00" d="M9.1,42.1V29.6c0-0.7,0.6-1.4,1.4-1.4h0c0.7,0,1.4,0.6,1.4,1.4v12.4H9.1z"/>
</svg>
