<?xml version="1.0" encoding="utf-8"?>
<!-- Generator: Adobe Illustrator 17.0.1, SVG Export Plug-In . SVG Version: 6.00 Build 0)  -->
<!DOCTYPE svg PUBLIC "-//W3C//DTD SVG 1.1//EN" "http://www.w3.org/Graphics/SVG/1.1/DTD/svg11.dtd">
<svg version="1.1" id="Layer_1" xmlns="http://www.w3.org/2000/svg" xmlns:xlink="http://www.w3.org/1999/xlink" x="0px" y="0px"
	 width="50px" height="50px" viewBox="0 0 50 50" enable-background="new 0 0 50 50" xml:space="preserve">
<path fill="#3E3E3E" d="M47.092,8.89c-2.544-4.209-6.572-7.174-11.343-8.349C34.298,0.183,32.812,0,31.329,0
	c-8.472,0-15.818,5.768-17.863,14.024c-1.123,4.584-0.389,9.441,1.974,13.547L1.372,41.751c-1.841,1.861-1.828,4.862,0.033,6.704
	c0.922,0.914,2.13,1.372,3.336,1.372c1.219,0,2.441-0.469,3.368-1.404l14.002-14.115c1.524,0.895,3.14,1.566,4.827,1.981
	c1.447,0.356,2.93,0.537,4.408,0.537c8.487,0,15.834-5.76,17.864-14.008C50.391,18.049,49.638,13.102,47.092,8.89z"/>
<path fill="#FFFFFF" d="M43.859,21.499c-1.423,5.775-6.566,9.81-12.513,9.81c-1.034,0-2.073-0.126-3.087-0.375
	c-1.558-0.385-2.97-1.051-4.22-1.916c-1.317-0.911-2.438-2.05-3.324-3.352c-1.99-2.922-2.795-6.636-1.889-10.328
	c1.43-5.782,6.576-9.819,12.51-9.819c1.035,0,2.076,0.126,3.094,0.377c3.341,0.823,6.162,2.899,7.945,5.848
	C44.158,14.691,44.685,18.156,43.859,21.499"/>
<path opacity="0.1" fill="#59B4D9" d="M43.859,21.499c-1.423,5.775-6.566,9.81-12.513,9.81c-1.034,0-2.073-0.126-3.087-0.375
	c-1.558-0.385-2.97-1.051-4.22-1.916c-1.317-0.911-2.438-2.05-3.324-3.352c-1.99-2.922-2.795-6.636-1.889-10.328
	c1.43-5.782,6.576-9.819,12.51-9.819c1.035,0,2.076,0.126,3.094,0.377c3.341,0.823,6.162,2.899,7.945,5.848
	C44.158,14.691,44.685,18.156,43.859,21.499"/>
<path opacity="0.3" fill="#59B4D9" d="M38.308,7.577C37.13,6.816,35.83,6.242,34.43,5.896c-1.018-0.252-2.059-0.378-3.095-0.378
	c-5.933,0-11.079,4.038-12.509,9.82c-0.906,3.692-0.1,7.406,1.889,10.329c0.349,0.513,0.746,0.993,1.166,1.452
	C24.615,18.668,30.572,11.672,38.308,7.577"/>
<path opacity="0.5" fill="#1E1E1E" d="M20.913,33.556c-1.865-1.291-3.463-2.902-4.746-4.786c-0.265-0.389-0.494-0.795-0.727-1.199
	l-1.323,1.333l-0.145,0.146c0.174,0.286,0.354,0.567,0.543,0.844c1.422,2.089,3.191,3.874,5.261,5.306
	c0.176,0.122,0.619,0.293,1.004,0.45l1.331-1.342C21.706,34.071,21.304,33.826,20.913,33.556z"/>
</svg>
