<?xml version="1.0" encoding="utf-8"?>
<!-- Generator: Adobe Illustrator 17.0.1, SVG Export Plug-In . SVG Version: 6.00 Build 0)  -->
<!DOCTYPE svg PUBLIC "-//W3C//DTD SVG 1.1//EN" "http://www.w3.org/Graphics/SVG/1.1/DTD/svg11.dtd">
<svg version="1.1" id="Layer_1" xmlns="http://www.w3.org/2000/svg" xmlns:xlink="http://www.w3.org/1999/xlink" x="0px" y="0px"
	 width="50px" height="50px" viewBox="0 0 50 50" enable-background="new 0 0 50 50" xml:space="preserve">
<path fill="#59B4D9" d="M34.256,14.928c0,5.006-4.059,9.065-9.066,9.065s-9.065-4.059-9.065-9.065s4.058-9.065,9.065-9.065
	C30.197,5.863,34.256,9.922,34.256,14.928"/>
<polygon fill="#59B4D9" points="31.818,27.1 25.19,36.387 18.562,27.1 9.001,27.1 9.001,50 41.38,50 41.38,27.1 "/>
<path fill="#59B4D9" d="M39.966,24.14h-6.881v-3.33h3.552v-5.827c0-6.426-5.228-11.654-11.654-11.654S13.329,8.557,13.329,14.983
	v1.665h-3.33v-1.665C9.999,6.722,16.721,0,24.982,0s14.983,6.722,14.983,14.983L39.966,24.14L39.966,24.14z"/>
</svg>
