<?xml version="1.0" encoding="utf-8"?>
<!-- Generator: Adobe Illustrator 17.1.0, SVG Export Plug-In . SVG Version: 6.00 Build 0)  -->
<!DOCTYPE svg PUBLIC "-//W3C//DTD SVG 1.1//EN" "http://www.w3.org/Graphics/SVG/1.1/DTD/svg11.dtd">
<svg version="1.1" id="Layer_1" xmlns="http://www.w3.org/2000/svg" xmlns:xlink="http://www.w3.org/1999/xlink" x="0px" y="0px"
	 height="50px" width="50px" viewBox="0 0 50 50" enable-background="new 0 0 50 50" xml:space="preserve">
<path fill="#7FBA00" d="M34.5,0l-9.9,0.4L3.9,21.1l14.7,14.7l20.7-20.7l0.8-9.5L34.5,0z M35.3,7.7c-0.8,0.8-2.1,0.8-2.9,0
	c-0.8-0.8-0.8-2.1,0-2.9c0.8-0.8,2.1-0.8,2.9,0C36.1,5.6,36.1,6.9,35.3,7.7z"/>
<polygon opacity="0.1" fill="#FFFFFF" points="3.9,21.1 18.6,35.8 21.9,32.5 21.9,3.1 "/>
<path opacity="0.3" fill="#1E1E1E" d="M36.5,3.6c-1.5-1.5-3.8-1.5-5.3,0c-1.5,1.5-1.5,3.8,0,5.3c1.5,1.5,3.8,1.5,5.3,0
	C38,7.4,38,5,36.5,3.6z M35.3,7.7c-0.8,0.8-2.1,0.8-2.9,0c-0.8-0.8-0.8-2.1,0-2.9c0.8-0.8,2.1-0.8,2.9,0C36.1,5.6,36.1,6.9,35.3,7.7
	z"/>
<path fill="#3999C6" d="M37.5,7.1l-9.9,0.4L6.9,28.2l14.7,14.7l20.7-20.7l0.8-9.5L37.5,7.1z M38.3,14.8c-0.8,0.8-2.1,0.8-2.9,0
	c-0.8-0.8-0.8-2.1,0-2.9c0.8-0.8,2.1-0.8,2.9,0C39.1,12.7,39.1,14,38.3,14.8z"/>
<polygon opacity="0.1" fill="#FFFFFF" points="6.9,28.2 21.6,42.9 24.9,39.6 24.9,10.2 "/>
<path opacity="0.3" fill="#1E1E1E" d="M39.5,10.7c-1.5-1.5-3.8-1.5-5.3,0c-1.5,1.5-1.5,3.8,0,5.3c1.5,1.5,3.8,1.5,5.3,0
	C41,14.5,41,12.2,39.5,10.7z M38.3,14.8c-0.8,0.8-2.1,0.8-2.9,0c-0.8-0.8-0.8-2.1,0-2.9c0.8-0.8,2.1-0.8,2.9,0
	C39.1,12.7,39.1,14,38.3,14.8z"/>
<path fill="#804998" d="M40.5,14.2l-9.9,0.4L9.9,35.3L24.6,50l20.7-20.7l0.8-9.5L40.5,14.2z M41.3,21.9c-0.8,0.8-2.1,0.8-2.9,0
	c-0.8-0.8-0.8-2.1,0-2.9c0.8-0.8,2.1-0.8,2.9,0C42.1,19.8,42.1,21.1,41.3,21.9z"/>
<polygon opacity="0.1" fill="#FFFFFF" points="9.9,35.3 24.6,50 27.9,46.7 27.9,17.3 "/>
<path opacity="0.3" fill="#1E1E1E" d="M42.5,17.8c-1.5-1.5-3.8-1.5-5.3,0c-1.5,1.5-1.5,3.8,0,5.3c1.5,1.5,3.8,1.5,5.3,0
	C44,21.6,44,19.3,42.5,17.8z M41.3,21.9c-0.8,0.8-2.1,0.8-2.9,0c-0.8-0.8-0.8-2.1,0-2.9c0.8-0.8,2.1-0.8,2.9,0
	C42.1,19.8,42.1,21.1,41.3,21.9z"/>
</svg>
