<?xml version="1.0" encoding="utf-8"?>
<!-- Generator: Adobe Illustrator 17.1.0, SVG Export Plug-In . SVG Version: 6.00 Build 0)  -->
<!DOCTYPE svg PUBLIC "-//W3C//DTD SVG 1.1//EN" "http://www.w3.org/Graphics/SVG/1.1/DTD/svg11.dtd">
<svg version="1.1" id="Layer_1" xmlns="http://www.w3.org/2000/svg" xmlns:xlink="http://www.w3.org/1999/xlink" x="0px" y="0px"
	 height="50px" width="50px" viewBox="0 0 50 50" enable-background="new 0 0 50 50" xml:space="preserve">
<path fill="#59B4D9" d="M47.8,10.6H13.9c-1.2,0-2.2,1-2.2,2.2s1,2.2,2.2,2.2h33.9c1.2,0,2.2-1,2.2-2.2S49,10.6,47.8,10.6z"/>
<path fill="#59B4D9" d="M47.8,23.7H13.9c-1.2,0-2.2,1-2.2,2.2s1,2.2,2.2,2.2h33.9c1.2,0,2.2-1,2.2-2.2S49,23.7,47.8,23.7z"/>
<path fill="#59B4D9" d="M47.8,36.9H13.9c-1.2,0-2.2,1-2.2,2.2c0,1.2,1,2.2,2.2,2.2h33.9c1.2,0,2.2-1,2.2-2.2
	C50,37.9,49,36.9,47.8,36.9z"/>
<g>
	<path d="M4.8,7.2v10H2.6V9.6C2.4,9.8,2.1,10,1.7,10.1s-0.8,0.3-1.2,0.3V8.6c1.1-0.3,2.1-0.8,2.9-1.5H4.8z"/>
	<path d="M2.9,29.4h4.2v1.8H0.6v-0.7c0-0.5,0.1-1,0.3-1.4c0.2-0.4,0.4-0.8,0.8-1.2c0.3-0.4,0.8-0.8,1.5-1.3c0.6-0.5,1.1-0.9,1.3-1.2
		c0.3-0.3,0.4-0.7,0.4-1.1c0-0.8-0.5-1.3-1.4-1.3c-0.8,0-1.6,0.3-2.4,1V22c0.9-0.6,1.8-0.8,2.9-0.8c1,0,1.8,0.2,2.3,0.7
		c0.6,0.5,0.9,1.2,0.9,2c0,0.5-0.1,0.9-0.3,1.3s-0.4,0.8-0.7,1.1c-0.3,0.3-0.8,0.8-1.5,1.2c-0.7,0.5-1.1,0.8-1.3,1.1
		C3,29,2.9,29.2,2.9,29.4z"/>
	<path d="M7.3,42.4c0,0.9-0.3,1.6-1,2.2c-0.7,0.5-1.6,0.8-2.8,0.8c-1,0-1.8-0.2-2.5-0.5V43c0.6,0.5,1.4,0.7,2.3,0.7
		c0.6,0,1-0.1,1.3-0.4c0.3-0.2,0.4-0.6,0.4-1c0-0.4-0.2-0.8-0.6-1S3.6,41,2.9,41H2v-1.7h0.8c1.3,0,1.9-0.4,1.9-1.3
		c0-0.8-0.5-1.2-1.5-1.2c-0.7,0-1.3,0.2-1.9,0.6v-1.8c0.7-0.3,1.5-0.5,2.4-0.5c1,0,1.7,0.2,2.3,0.7s0.9,1,0.9,1.8
		C7,38.9,6.3,39.7,5,40v0c0.7,0.1,1.2,0.3,1.6,0.7C7,41.2,7.3,41.8,7.3,42.4z"/>
</g>
</svg>
