<?xml version="1.0" encoding="utf-8"?>
<!-- Generator: Adobe Illustrator 17.0.1, SVG Export Plug-In . SVG Version: 6.00 Build 0)  -->
<!DOCTYPE svg PUBLIC "-//W3C//DTD SVG 1.1//EN" "http://www.w3.org/Graphics/SVG/1.1/DTD/svg11.dtd">
<svg version="1.1" id="Layer_1" xmlns="http://www.w3.org/2000/svg" xmlns:xlink="http://www.w3.org/1999/xlink" x="0px" y="0px"
	 width="50px" height="50px" viewBox="0 0 50 50" enable-background="new 0 0 50 50" xml:space="preserve">
<path fill="#3E3E3E" d="M22.972,4.679c1.417,1.504,2.488,3.009,3.211,4.512c0.521,1.041,1.374,3.775,2.56,8.2l3.818-5.727
	c1.012-1.388,2.242-2.712,3.688-3.97s2.719-2.119,3.818-2.582c0.694-0.289,1.461-0.434,2.3-0.434c1.244,0,2.235,0.333,2.972,0.998
	c0.738,0.666,1.106,1.475,1.106,2.43c0,1.1-0.217,1.851-0.651,2.256c-0.81,0.723-1.736,1.085-2.777,1.085
	c-0.607,0-1.258-0.13-1.952-0.39c-1.36-0.462-2.271-0.694-2.733-0.694c-0.694,0-1.519,0.406-2.473,1.215
	c-1.793,1.504-3.934,4.411-6.421,8.721l3.558,14.926c0.55,2.285,1.012,3.652,1.388,4.1c0.376,0.449,0.752,0.673,1.128,0.673
	c0.607,0,1.316-0.332,2.126-0.998c1.591-1.33,2.95-3.066,4.079-5.207l1.519,0.781c-1.822,3.413-4.136,6.248-6.942,8.504
	c-1.591,1.273-2.936,1.909-4.035,1.909c-1.62,0-2.907-0.911-3.862-2.733c-0.607-1.128-1.866-5.988-3.775-14.579
	c-4.512,7.839-8.128,12.886-10.847,15.143c-1.764,1.446-3.471,2.169-5.12,2.169c-1.157,0-2.213-0.419-3.167-1.258
	c-0.694-0.636-1.041-1.49-1.041-2.56c0-0.955,0.318-1.75,0.955-2.386c0.636-0.636,1.417-0.955,2.343-0.955s1.909,0.463,2.95,1.388
	c0.752,0.666,1.331,0.998,1.736,0.998c0.347,0,0.795-0.231,1.345-0.694c1.36-1.099,3.211-3.471,5.554-7.116s3.876-6.276,4.599-7.897
	c-1.793-7.029-2.762-10.745-2.907-11.151c-0.665-1.88-1.533-3.211-2.603-3.992s-2.647-1.171-4.729-1.171
	c-0.665,0-1.432,0.029-2.3,0.087V6.718L22.972,4.679z"/>
</svg>
