<?xml version="1.0" encoding="utf-8"?>
<!-- Generator: Adobe Illustrator 19.1.0, SVG Export Plug-In . SVG Version: 6.00 Build 0)  -->
<svg version="1.1" id="Layer_1" xmlns="http://www.w3.org/2000/svg" xmlns:xlink="http://www.w3.org/1999/xlink" x="0px" y="0px" width="100px"
	 height="100px" 
	 viewBox="0 0 100 100" style="enable-background:new 0 0 100 100;" xml:space="preserve">
<style type="text/css">
	.st0{fill:#B7CA9D;}
	.st1{fill:#3C4929;}
	.st2{fill:#4B612C;}
	.st3{fill:#759C3E;}
</style>
<polygon class="st3" points="59.4,66.7 28.6,75.2 28.6,24.7 59.4,33.1 "/>
<polygon class="st2" points="28.6,75.2 20.2,71 20.2,28.9 28.6,24.7 "/>
<polygon class="st2" points="34.1,42.9 50,40.9 50,58.9 34.1,57 "/>
<polygon class="st1" points="79.8,39.5 65.3,41 34.1,36 50,14 "/>
<polygon class="st2" points="34.1,21.9 50,14 50,32 34.1,36 "/>
<polygon class="st0" points="79.8,60.5 65.3,59 34.1,64 50,85.8 "/>
<polygon class="st2" points="34.1,78 50,86 50,68 34.1,64 "/>
<polygon class="st3" points="79.8,39.5 50,32 50,14 79.8,28.9 "/>
<polygon class="st3" points="79.8,55.2 50,58.9 50,40.9 79.8,44.7 "/>
<polygon class="st3" points="79.8,71.1 50,86 50,68 79.8,60.5 "/>
</svg>
