<?xml version="1.0" encoding="utf-8"?>
<!-- Generator: Adobe Illustrator 19.1.0, SVG Export Plug-In . SVG Version: 6.00 Build 0)  -->
<svg version="1.1" id="Layer_1" xmlns="http://www.w3.org/2000/svg" xmlns:xlink="http://www.w3.org/1999/xlink" x="0px" y="0px" width="100px"
	 height="100px" 
	 viewBox="0 0 100 100" style="enable-background:new 0 0 100 100;" xml:space="preserve">
<style type="text/css">
	.st0{fill:#B7CA9D;}
	.st1{fill:#3C4929;}
	.st2{fill:#4B612C;}
	.st3{fill:#759C3E;}
</style>
<polygon class="st0" points="49.3,59.4 19.5,63.1 27.9,75.7 58.9,60.6 "/>
<polygon class="st1" points="49.3,41.5 79.1,37.8 70.8,25.2 39.8,40.3 "/>
<polygon class="st2" points="39.8,40.3 70.8,35.3 70.8,25.2 39.8,33.6 "/>
<polygon class="st2" points="19.5,54.7 49.3,57.7 78.6,50.5 49.3,43.3 19.5,46.2 "/>
<polygon class="st3" points="79.1,54.7 49.3,57.7 49.3,43.3 79.1,46.2 "/>
<polygon class="st1" points="19.5,37.8 49.3,14.5 65.2,33.6 34,39.6 "/>
<polygon class="st2" points="19.5,29.4 49.3,14.5 49.3,28.9 19.5,37.8 "/>
<polygon class="st3" points="70.8,25.2 79.1,29.4 79.1,37.8 70.8,35.3 "/>
<polygon class="st3" points="58.9,60.6 27.9,65.6 27.9,75.7 58.9,67.3 "/>
<polygon class="st3" points="65.2,33.6 49.3,28.9 49.3,14.5 65.2,22.4 "/>
<polygon class="st0" points="79.1,63.1 49.3,86.5 33.5,67.3 64.7,61.3 "/>
<polygon class="st3" points="79.1,71.5 49.3,86.5 49.3,72.1 79.1,63.1 "/>
<polygon class="st2" points="33.5,67.3 49.3,72.1 49.3,86.5 33.5,78.5 "/>
<polygon class="st2" points="27.9,75.7 19.5,71.5 19.5,63.1 27.9,65.6 "/>
</svg>
