<?xml version="1.0" encoding="utf-8"?>
<!-- Generator: Adobe Illustrator 19.1.0, SVG Export Plug-In . SVG Version: 6.00 Build 0)  -->
<svg version="1.1" id="Layer_1" xmlns="http://www.w3.org/2000/svg" xmlns:xlink="http://www.w3.org/1999/xlink" x="0px" y="0px" width="100px"
	 height="100px" 
	 viewBox="0 0 100 100" style="enable-background:new 0 0 100 100;" xml:space="preserve">
<style type="text/css">
	.st0{fill:#B7CA9D;}
	.st1{fill:#3C4929;}
	.st2{fill:#4B612C;}
	.st3{fill:#759C3E;}
</style>
<g>
	<polygon class="st2" points="25.4,78.8 15.9,74.1 15.9,25.8 25.4,21.1 38.5,50.7 	"/>
	<polygon class="st3" points="56.8,29.5 25.4,21.1 25.4,78.8 56.8,70.1 	"/>
	<polygon class="st2" points="71.3,65.8 78.6,68.2 83.2,52.3 78.6,36.4 71.3,37.5 	"/>
	<polygon class="st1" points="78.6,36.8 71.3,37.8 67,36.8 74.5,21.2 	"/>
	<polygon class="st2" points="67,36.8 74.5,35.8 74.5,21.1 67,23.1 	"/>
	<polygon class="st1" points="43.1,31.5 50,24.3 68.1,34.3 61.4,35.3 	"/>
	<polygon class="st0" points="78.6,63.2 71.3,62.3 67,63.1 74.5,78.9 	"/>
	<polygon class="st2" points="67,63.1 74.5,64.1 74.5,78.9 67,76.8 	"/>
	<polygon class="st3" points="68.1,34.3 50,29.8 50,8.8 68.1,17.9 	"/>
	<polygon class="st3" points="84.1,25.9 74.5,21.1 74.5,35.8 84.1,38.1 	"/>
	<polygon class="st0" points="43.1,68.4 50,82.2 68.1,65.8 61.4,64.6 	"/>
	<polygon class="st3" points="68.1,65.8 50,70.1 50,91.2 68.1,82.1 	"/>
	<polygon class="st3" points="84.1,74.1 74.5,78.9 74.5,64.1 84.1,61.8 	"/>
	<polygon class="st2" points="31.8,82 50,91.2 58.4,50.1 50,8.8 31.8,17.9 	"/>
	<polygon class="st3" points="60.2,86 50,91.2 50,9.1 60.2,14.2 	"/>
	<polygon class="st3" points="78.6,76.8 84.1,74.1 84.1,25.9 78.6,24.7 	"/>
</g>
</svg>
