<?xml version="1.0" encoding="utf-8"?>
<!-- Generator: Adobe Illustrator 19.1.0, SVG Export Plug-In . SVG Version: 6.00 Build 0)  -->
<svg version="1.1" id="Layer_1" xmlns="http://www.w3.org/2000/svg" xmlns:xlink="http://www.w3.org/1999/xlink" x="0px" y="0px"
	 width="16px" height="16px" viewBox="0 0 16 16" style="enable-background:new 0 0 16 16;" xml:space="preserve">
<style type="text/css">
	.st0{fill:#323232;}
	.st1{fill:none;}
	.st2{clip-path:url(#SVGID_2_);}
	.st3{clip-path:url(#SVGID_4_);}
	.st4{clip-path:url(#SVGID_6_);fill:#4A4A4A;}
	.st5{clip-path:url(#SVGID_8_);fill:#4A4A4A;}
</style>
<path d="M15,3.29c0,0.301-0.057,0.592-0.171,0.875s-0.28,0.533-0.499,0.752L5.327,13.92L1,15l1.08-4.327l9.003-9.003
	c0.219-0.219,0.469-0.385,0.752-0.499S12.409,1,12.71,1c0.314,0,0.611,0.06,0.889,0.181s0.521,0.285,0.728,0.492
	s0.371,0.45,0.492,0.728S15,2.976,15,3.29z M2.203,13.797l2.249-0.561c-0.046-0.21-0.12-0.408-0.222-0.595s-0.227-0.353-0.373-0.499
	c-0.146-0.146-0.312-0.27-0.499-0.373s-0.385-0.177-0.595-0.222L2.203,13.797z M3.229,10.762c0.483,0.16,0.899,0.414,1.248,0.762
	s0.603,0.764,0.762,1.248l7.39-7.396l-2.003-2.003L3.229,10.762z M13.25,4.753c0.114-0.114,0.223-0.221,0.328-0.321
	s0.198-0.206,0.28-0.318s0.147-0.232,0.195-0.362s0.072-0.281,0.072-0.455c0-0.196-0.038-0.379-0.113-0.55s-0.178-0.321-0.308-0.451
	s-0.28-0.232-0.451-0.308s-0.354-0.113-0.55-0.113c-0.173,0-0.325,0.024-0.455,0.072s-0.251,0.113-0.362,0.195
	s-0.218,0.175-0.318,0.28s-0.207,0.214-0.321,0.328L13.25,4.753z"/>
</svg>
