<?xml version="1.0" encoding="utf-8"?>
<!-- Generator: Adobe Illustrator 19.1.0, SVG Export Plug-In . SVG Version: 6.00 Build 0)  -->
<svg version="1.1" id="Layer_1" xmlns="http://www.w3.org/2000/svg" xmlns:xlink="http://www.w3.org/1999/xlink" x="0px" y="0px"
	 width="16px" height="16px" viewBox="0 0 16 16" style="enable-background:new 0 0 16 16;" xml:space="preserve">
<style type="text/css">
	.st0{fill:#323232;}
	.st1{fill:none;}
	.st2{clip-path:url(#SVGID_2_);}
	.st3{clip-path:url(#SVGID_4_);}
	.st4{clip-path:url(#SVGID_6_);fill:#4A4A4A;}
	.st5{clip-path:url(#SVGID_8_);fill:#4A4A4A;}
</style>
<polygon points="8.744,6.625 11,6.625 6.625,11 5.634,11 6.946,8.375 5.412,8.375 7.599,4 10.057,4 "/>
<path d="M8.5,4c0.455,0,0.87,0.077,1.269,0.234c0.399,0.158,0.757,0.378,1.062,0.653c0.306,0.276,0.564,0.61,0.765,0.993
	c0.201,0.381,0.332,0.801,0.389,1.247L12.097,8h0.88c0.283,0,0.54,0.051,0.784,0.155c0.254,0.108,0.467,0.249,0.652,0.43
	c0.183,0.179,0.324,0.387,0.432,0.635C14.949,9.459,15,9.714,15,10c0,0.282-0.05,0.534-0.152,0.772
	c-0.107,0.247-0.249,0.457-0.434,0.642c-0.184,0.184-0.395,0.326-0.644,0.432C13.529,11.95,13.277,12,13,12H4
	c-0.419,0-0.801-0.076-1.165-0.232c-0.372-0.159-0.686-0.37-0.96-0.643c-0.274-0.274-0.484-0.587-0.643-0.96
	C1.076,9.801,1,9.419,1,9s0.076-0.801,0.232-1.165c0.159-0.372,0.37-0.686,0.643-0.96c0.274-0.274,0.587-0.484,0.96-0.643
	C3.199,6.076,3.581,6,4,6c0.175,0,0.357,0.018,0.539,0.052l0.663,0.127l0.366-0.567c0.164-0.254,0.355-0.484,0.568-0.686
	c0.21-0.198,0.442-0.368,0.689-0.503c0.248-0.136,0.517-0.242,0.799-0.315C7.906,4.037,8.2,4,8.5,4 M8.5,3
	C8.115,3,7.74,3.047,7.375,3.141S6.667,3.37,6.344,3.547S5.723,3.941,5.449,4.199S4.935,4.747,4.727,5.07C4.482,5.023,4.24,5,4,5
	C3.448,5,2.928,5.104,2.441,5.312S1.53,5.806,1.168,6.168C0.806,6.53,0.521,6.954,0.312,7.441S0,8.448,0,9s0.104,1.072,0.312,1.559
	s0.493,0.911,0.855,1.273c0.362,0.362,0.786,0.647,1.273,0.855S3.448,13,4,13h9c0.411,0,0.799-0.078,1.164-0.234
	s0.684-0.371,0.957-0.645s0.488-0.591,0.645-0.953S16,10.417,16,10c0-0.422-0.079-0.815-0.238-1.18s-0.375-0.681-0.648-0.949
	s-0.594-0.48-0.961-0.637S13.393,7,12.977,7c-0.073-0.568-0.238-1.096-0.496-1.586s-0.585-0.913-0.98-1.27s-0.85-0.637-1.363-0.84
	C9.624,3.102,9.078,3,8.5,3L8.5,3z"/>
</svg>
