<?xml version="1.0" encoding="utf-8"?>
<!-- Generator: Adobe Illustrator 19.1.0, SVG Export Plug-In . SVG Version: 6.00 Build 0)  -->
<svg version="1.1" id="Layer_1" xmlns="http://www.w3.org/2000/svg" xmlns:xlink="http://www.w3.org/1999/xlink" x="0px" y="0px"
	 width="16px" height="16px" viewBox="0 0 16 16" style="enable-background:new 0 0 16 16;" xml:space="preserve">
<style type="text/css">
	.st0{fill:#323232;}
	.st1{fill:none;}
	.st2{clip-path:url(#SVGID_2_);}
	.st3{clip-path:url(#SVGID_4_);}
	.st4{clip-path:url(#SVGID_6_);fill:#4A4A4A;}
	.st5{clip-path:url(#SVGID_8_);fill:#4A4A4A;}
</style>
<path d="M11.938,2c0.141,0,0.277,0.022,0.407,0.065s0.25,0.105,0.359,0.185s0.205,0.174,0.287,0.284s0.146,0.23,0.191,0.362
	c0.036,0.109,0.09,0.265,0.161,0.468s0.152,0.435,0.243,0.697s0.19,0.543,0.297,0.844S14.095,5.51,14.2,5.818
	s0.205,0.608,0.301,0.902s0.181,0.565,0.256,0.813s0.134,0.463,0.178,0.643C14.978,8.356,15,8.485,15,8.562
	c0,0.182-0.034,0.353-0.103,0.513s-0.163,0.299-0.284,0.417s-0.261,0.212-0.42,0.28s-0.328,0.103-0.506,0.103h-3.035
	c0.023,0.196,0.059,0.373,0.109,0.53s0.107,0.31,0.171,0.458s0.129,0.294,0.195,0.438s0.126,0.296,0.181,0.458s0.1,0.338,0.137,0.53
	s0.055,0.408,0.055,0.649c0,0.173-0.021,0.338-0.062,0.496s-0.105,0.296-0.191,0.417s-0.199,0.218-0.338,0.291
	s-0.306,0.109-0.502,0.109c-0.164,0-0.303-0.032-0.417-0.096s-0.228-0.153-0.342-0.267l-3.89-3.883
	c-0.036-0.036-0.123-0.066-0.26-0.089S5.19,9.876,4.985,9.865S4.55,9.845,4.295,9.841S3.778,9.834,3.509,9.834
	s-0.535,0.002-0.8,0.007S2.199,9.85,1.971,9.854S1.543,9.864,1.373,9.868S1.077,9.875,1,9.875V2H11.938z M1.875,9H4.5V2.875H1.875V9
	z M13.688,9c0.118,0,0.221-0.043,0.308-0.13s0.13-0.189,0.13-0.308c0-0.023-0.023-0.111-0.068-0.263s-0.107-0.349-0.185-0.588
	s-0.165-0.508-0.263-0.807S13.41,6.3,13.305,5.985s-0.21-0.625-0.314-0.933s-0.201-0.59-0.287-0.848s-0.161-0.477-0.222-0.66
	s-0.104-0.305-0.126-0.369c-0.032-0.091-0.087-0.164-0.164-0.219s-0.162-0.082-0.253-0.082H5.375V9c0.196,0,0.377,0.028,0.543,0.085
	s0.32,0.156,0.461,0.297C6.457,9.46,6.567,9.572,6.708,9.718s0.303,0.313,0.485,0.502s0.381,0.393,0.595,0.612
	c0.214,0.219,0.43,0.439,0.646,0.66s0.428,0.436,0.636,0.646s0.4,0.4,0.578,0.571s0.333,0.316,0.465,0.434s0.23,0.196,0.294,0.232
	c0.064,0,0.116-0.021,0.157-0.062s0.062-0.093,0.062-0.157c0-0.264-0.022-0.504-0.065-0.718s-0.097-0.416-0.161-0.605
	s-0.134-0.373-0.212-0.55s-0.148-0.36-0.212-0.547s-0.117-0.385-0.161-0.595S9.75,9.697,9.75,9.438V9H13.688z"/>
</svg>
