<?xml version="1.0" encoding="utf-8"?>
<!-- Generator: Adobe Illustrator 19.1.0, SVG Export Plug-In . SVG Version: 6.00 Build 0)  -->
<svg version="1.1" id="Layer_1" xmlns="http://www.w3.org/2000/svg" xmlns:xlink="http://www.w3.org/1999/xlink" x="0px" y="0px"
	 width="16px" height="16px" viewBox="0 0 16 16" style="enable-background:new 0 0 16 16;" xml:space="preserve">
<style type="text/css">
	.st0{fill:#323232;}
	.st1{fill:none;}
	.st2{clip-path:url(#SVGID_2_);}
	.st3{clip-path:url(#SVGID_4_);}
	.st4{clip-path:url(#SVGID_6_);fill:#4A4A4A;}
	.st5{clip-path:url(#SVGID_8_);fill:#4A4A4A;}
</style>
<path d="M16,8c0,0.734-0.095,1.442-0.285,2.125s-0.458,1.32-0.805,1.914s-0.763,1.134-1.25,1.621s-1.027,0.903-1.621,1.25
	s-1.231,0.614-1.914,0.805S8.734,16,8,16s-1.442-0.095-2.125-0.285s-1.32-0.458-1.914-0.805s-1.134-0.763-1.621-1.25
	s-0.903-1.027-1.25-1.621s-0.614-1.23-0.805-1.91S0,8.739,0,8c0-0.724,0.095-1.43,0.285-2.117s0.464-1.336,0.82-1.945
	s0.79-1.164,1.301-1.664S3.489,1.349,4.125,1H2V0h4v4H5V1.672C4.391,1.964,3.84,2.329,3.348,2.77S2.435,3.706,2.086,4.258
	S1.469,5.403,1.281,6.039S1,7.328,1,8c0,0.641,0.083,1.259,0.25,1.855s0.402,1.153,0.707,1.672s0.671,0.991,1.098,1.418
	s0.899,0.793,1.418,1.098s1.074,0.54,1.668,0.707S7.354,15,8,15c0.641,0,1.259-0.083,1.855-0.25s1.153-0.402,1.672-0.707
	s0.991-0.671,1.418-1.098s0.793-0.899,1.098-1.418s0.54-1.074,0.707-1.668S15,8.646,15,8H16z"/>
<path d="M11,2.406c-0.151,0.109-0.31,0.199-0.477,0.27S10.183,2.805,10,2.852V1.828c0.292-0.099,0.569-0.218,0.832-0.355
	s0.52-0.296,0.77-0.473H12v6h-1V2.406z"/>
</svg>
