<?xml version="1.0" encoding="utf-8"?>
<!-- Generator: Adobe Illustrator 19.1.0, SVG Export Plug-In . SVG Version: 6.00 Build 0)  -->
<svg version="1.1" id="Layer_1" xmlns="http://www.w3.org/2000/svg" xmlns:xlink="http://www.w3.org/1999/xlink" x="0px" y="0px"
	 width="16px" height="16px" viewBox="0 0 16 16" style="enable-background:new 0 0 16 16;" xml:space="preserve">
<style type="text/css">
	.st0{fill:#7A7A7A;}
	.st1{fill:#FF8B00;}
	.st2{fill:#FFFFFF;}
	.st3{fill:#EB1023;}
	.st4{fill:#0372C6;}
	.st5{fill:#BA131A;}
	.st6{fill:#7FBA00;}
	.st7{clip-path:url(#SVGID_2_);}
</style>
<path d="M14.857,12.571v1.143h-4.571c0,0.316-0.06,0.612-0.179,0.888c-0.119,0.277-0.283,0.52-0.491,0.728
	c-0.209,0.209-0.451,0.372-0.728,0.491C8.612,15.941,8.315,16,8,16c-0.316,0-0.612-0.059-0.888-0.179
	c-0.277-0.119-0.52-0.282-0.728-0.491c-0.209-0.208-0.372-0.451-0.491-0.728c-0.119-0.277-0.179-0.573-0.179-0.888H1.143v-1.143
	h1.143V5.714c0-0.523,0.068-1.03,0.205-1.518C2.628,3.709,2.82,3.253,3.067,2.83C3.314,2.408,3.612,2.022,3.96,1.674
	s0.733-0.646,1.156-0.893c0.422-0.247,0.878-0.439,1.366-0.576C6.97,0.069,7.476,0,8,0c0.523,0,1.03,0.069,1.518,0.205
	c0.488,0.137,0.943,0.329,1.366,0.576c0.422,0.247,0.808,0.545,1.156,0.893s0.646,0.734,0.893,1.156
	c0.247,0.423,0.439,0.878,0.576,1.366c0.137,0.488,0.205,0.994,0.205,1.518v6.857H14.857z M12.571,12.571V5.714
	c0-0.631-0.121-1.223-0.362-1.777c-0.241-0.554-0.569-1.037-0.982-1.451c-0.414-0.414-0.897-0.741-1.451-0.982S8.631,1.143,8,1.143
	c-0.631,0-1.223,0.121-1.777,0.362S5.186,2.073,4.772,2.487C4.358,2.901,4.031,3.384,3.79,3.938S3.429,5.084,3.429,5.714v6.857
	H12.571z M8,14.857c0.161,0,0.309-0.03,0.446-0.089c0.137-0.059,0.257-0.141,0.362-0.246c0.104-0.104,0.186-0.224,0.246-0.362
	c0.059-0.137,0.089-0.286,0.089-0.446H6.857c0,0.161,0.03,0.31,0.089,0.446c0.059,0.137,0.141,0.258,0.246,0.362
	c0.104,0.104,0.224,0.186,0.362,0.246C7.69,14.828,7.839,14.857,8,14.857z"/>
</svg>
