<?xml version="1.0" encoding="utf-8"?>
<!-- Generator: Adobe Illustrator 19.1.0, SVG Export Plug-In . SVG Version: 6.00 Build 0)  -->
<svg version="1.1" id="Layer_1" xmlns="http://www.w3.org/2000/svg" xmlns:xlink="http://www.w3.org/1999/xlink" x="0px" y="0px"
	 width="16px" height="16px" viewBox="0 0 16 16" style="enable-background:new 0 0 16 16;" xml:space="preserve">
<style type="text/css">
	.st0{fill:#323232;}
	.st1{fill:none;}
	.st2{clip-path:url(#SVGID_2_);}
	.st3{clip-path:url(#SVGID_4_);}
	.st4{clip-path:url(#SVGID_6_);fill:#4A4A4A;}
	.st5{clip-path:url(#SVGID_8_);fill:#4A4A4A;}
</style>
<path d="M11.062,9.797L13,16l-5-3.844L3,16l1.938-6.203L0,6h6.125L8,0l1.875,6H16L11.062,9.797z M11.102,13.281
	c-0.198-0.646-0.396-1.288-0.594-1.926s-0.401-1.28-0.609-1.926c0.536-0.401,1.065-0.805,1.586-1.211S12.531,7.406,13.062,7H9.141
	C8.953,6.385,8.764,5.777,8.574,5.176S8.193,3.966,8,3.352C7.807,3.966,7.616,4.574,7.426,5.176S7.047,6.385,6.859,7H2.938
	c0.531,0.406,1.057,0.812,1.578,1.219s1.049,0.81,1.586,1.211c-0.208,0.646-0.411,1.288-0.609,1.926s-0.396,1.28-0.594,1.926
	c0.521-0.401,1.038-0.799,1.551-1.195S7.479,11.292,8,10.891c0.521,0.401,1.038,0.799,1.551,1.195S10.581,12.88,11.102,13.281z"/>
</svg>
