<?xml version="1.0" encoding="utf-8"?>
<!-- Generator: Adobe Illustrator 19.1.0, SVG Export Plug-In . SVG Version: 6.00 Build 0)  -->
<svg version="1.1" id="Layer_1" xmlns="http://www.w3.org/2000/svg" xmlns:xlink="http://www.w3.org/1999/xlink" x="0px" y="0px"
	 width="16px" height="16px" viewBox="0 0 16 16" style="enable-background:new 0 0 16 16;" xml:space="preserve">
<style type="text/css">
	.st0{fill:#323232;}
	.st1{fill:none;}
	.st2{clip-path:url(#SVGID_2_);}
	.st3{clip-path:url(#SVGID_4_);}
	.st4{clip-path:url(#SVGID_6_);fill:#4A4A4A;}
	.st5{clip-path:url(#SVGID_8_);fill:#4A4A4A;}
</style>
<path d="M16,12.289V16h-4v-2h-2v-2H8v-1.617c-0.385,0.203-0.789,0.357-1.211,0.461S5.938,11,5.5,11
	c-0.505,0-0.992-0.065-1.461-0.195S3.133,10.49,2.727,10.25S1.949,9.723,1.613,9.387S0.99,8.68,0.75,8.273S0.326,7.43,0.195,6.961
	S0,6.005,0,5.5s0.065-0.992,0.195-1.461S0.51,3.133,0.75,2.727s0.527-0.777,0.863-1.113S2.32,0.99,2.727,0.75
	S3.57,0.326,4.039,0.195S4.995,0,5.5,0s0.992,0.065,1.461,0.195S7.867,0.51,8.273,0.75s0.777,0.527,1.113,0.863
	S10.01,2.32,10.25,2.727s0.424,0.844,0.555,1.312S11,4.995,11,5.5c0,0.266-0.021,0.529-0.062,0.789s-0.102,0.516-0.18,0.766
	L16,12.289z M15,12.711L9.609,7.32c0.115-0.297,0.208-0.595,0.281-0.895S10,5.818,10,5.5c0-0.62-0.118-1.203-0.355-1.75
	S9.086,2.727,8.68,2.32S7.797,1.592,7.25,1.355S6.12,1,5.5,1S4.297,1.118,3.75,1.355S2.727,1.914,2.32,2.32S1.592,3.203,1.355,3.75
	S1,4.88,1,5.5s0.118,1.203,0.355,1.75S1.914,8.273,2.32,8.68s0.883,0.728,1.43,0.965S4.88,10,5.5,10
	c0.505,0,1.001-0.086,1.488-0.258S7.914,9.323,8.305,9H9v2h2v2h2v2h2V12.711z M4,3c0.141,0,0.271,0.026,0.391,0.078
	s0.225,0.124,0.316,0.215S4.87,3.49,4.922,3.609S5,3.859,5,4S4.974,4.271,4.922,4.391S4.798,4.616,4.707,4.707
	S4.51,4.87,4.391,4.922S4.141,5,4,5S3.729,4.974,3.609,4.922S3.384,4.798,3.293,4.707S3.13,4.51,3.078,4.391S3,4.141,3,4
	s0.026-0.271,0.078-0.391s0.124-0.225,0.215-0.316S3.49,3.13,3.609,3.078S3.859,3,4,3z"/>
</svg>
