<?xml version="1.0" encoding="utf-8"?>
<!-- Generator: Adobe Illustrator 19.1.0, SVG Export Plug-In . SVG Version: 6.00 Build 0)  -->
<svg version="1.1" id="Layer_1" xmlns="http://www.w3.org/2000/svg" xmlns:xlink="http://www.w3.org/1999/xlink" x="0px" y="0px"
	 width="16px" height="16px" viewBox="0 0 16 16" style="enable-background:new 0 0 16 16;" xml:space="preserve">
<style type="text/css">
	.st0{fill:#323232;}
	.st1{fill:none;}
	.st2{clip-path:url(#SVGID_2_);}
	.st3{clip-path:url(#SVGID_4_);}
	.st4{clip-path:url(#SVGID_6_);fill:#4A4A4A;}
	.st5{clip-path:url(#SVGID_8_);fill:#4A4A4A;}
</style>
<path d="M15,1v14H1V1H15z M2,2v8h1.172l0.852-0.852C4.122,9.049,4.24,9,4.375,9s0.253,0.049,0.352,0.148l1.383,1.375l1.906-7.398
	C8.042,3.016,8.1,2.926,8.191,2.855S8.385,2.75,8.5,2.75c0.12,0,0.224,0.035,0.312,0.105s0.146,0.163,0.172,0.277l0.797,3.258H11
	c0.115,0,0.217,0.035,0.309,0.105s0.15,0.16,0.176,0.27L12.047,9H14V2H2z M14,14v-4h-2.344c-0.12,0-0.224-0.035-0.312-0.105
	s-0.146-0.163-0.172-0.277l-0.562-2.227H9.391c-0.12,0-0.224-0.035-0.312-0.105S8.932,7.122,8.906,7.008L8.484,5.305l-1.625,6.32
	c-0.026,0.109-0.085,0.199-0.176,0.27S6.49,12,6.375,12c-0.135,0-0.253-0.049-0.352-0.148l-1.648-1.648l-0.648,0.648
	C3.628,10.951,3.51,11,3.375,11H2v3H14z"/>
</svg>
