<?xml version="1.0" encoding="utf-8"?>
<!-- Generator: Adobe Illustrator 19.1.0, SVG Export Plug-In . SVG Version: 6.00 Build 0)  -->
<svg version="1.1" id="Layer_1" xmlns="http://www.w3.org/2000/svg" xmlns:xlink="http://www.w3.org/1999/xlink" x="0px" y="0px"
	 width="16px" height="16px" viewBox="0 0 16 16" style="enable-background:new 0 0 16 16;" xml:space="preserve">
<style type="text/css">
	.st0{fill:#323232;}
	.st1{fill:none;}
	.st2{clip-path:url(#SVGID_2_);}
	.st3{clip-path:url(#SVGID_4_);}
	.st4{clip-path:url(#SVGID_6_);fill:#4A4A4A;}
	.st5{clip-path:url(#SVGID_8_);fill:#4A4A4A;}
</style>
<path d="M10.763,6.916C10.921,6.553,11,6.164,11,5.75s-0.079-0.803-0.237-1.166s-0.373-0.681-0.645-0.952S9.529,3.146,9.166,2.987
	S8.414,2.75,8,2.75S7.197,2.829,6.834,2.987S6.153,3.36,5.882,3.632S5.396,4.221,5.237,4.584S5,5.336,5,5.75
	s0.079,0.803,0.237,1.166S5.61,7.597,5.882,7.868s0.589,0.486,0.952,0.645S7.586,8.75,8,8.75s0.803-0.079,1.166-0.237
	s0.681-0.373,0.952-0.645S10.604,7.279,10.763,6.916z"/>
<path d="M0,0v16h16V0H0z M12.5,14c0-0.641-0.114-1.235-0.343-1.784s-0.544-1.024-0.946-1.427s-0.878-0.718-1.427-0.946
	S8.641,9.5,8,9.5c-0.418,0-0.82,0.053-1.207,0.158s-0.747,0.255-1.081,0.448s-0.637,0.426-0.908,0.697S4.3,11.378,4.106,11.712
	s-0.343,0.694-0.448,1.081S3.5,13.582,3.5,14H2.75c0-0.562,0.082-1.101,0.246-1.614s0.396-0.985,0.697-1.415
	s0.665-0.809,1.093-1.137s0.905-0.588,1.433-0.779c-0.305-0.164-0.578-0.363-0.82-0.598S4.95,7.962,4.78,7.675
	s-0.301-0.594-0.393-0.92S4.25,6.094,4.25,5.75c0-0.52,0.098-1.007,0.293-1.462s0.463-0.853,0.803-1.192s0.737-0.607,1.192-0.803
	S7.48,2,8,2s1.007,0.098,1.462,0.293s0.853,0.463,1.192,0.803s0.607,0.737,0.803,1.192S11.75,5.23,11.75,5.75
	c0,0.344-0.046,0.678-0.138,1.002S11.39,7.381,11.22,7.666s-0.375,0.546-0.615,0.782s-0.511,0.437-0.812,0.601
	c0.531,0.184,1.011,0.44,1.438,0.771s0.791,0.712,1.09,1.146s0.528,0.908,0.688,1.424s0.24,1.053,0.24,1.611H12.5z"/>
</svg>
