<?xml version="1.0" encoding="utf-8"?>
<!-- Generator: Adobe Illustrator 19.1.0, SVG Export Plug-In . SVG Version: 6.00 Build 0)  -->
<svg version="1.1" id="Layer_1" xmlns="http://www.w3.org/2000/svg" xmlns:xlink="http://www.w3.org/1999/xlink" x="0px" y="0px"
	 width="16px" height="16px" viewBox="0 0 16 16" style="enable-background:new 0 0 16 16;" xml:space="preserve">
<style type="text/css">
	.st0{fill:#323232;}
	.st1{fill:none;}
	.st2{clip-path:url(#SVGID_2_);}
	.st3{clip-path:url(#SVGID_4_);}
	.st4{clip-path:url(#SVGID_6_);fill:#4A4A4A;}
	.st5{clip-path:url(#SVGID_8_);fill:#4A4A4A;}
</style>
<path d="M16,5.548c-0.177,0.177-0.35,0.339-0.519,0.486c-0.169,0.148-0.343,0.272-0.523,0.374c-0.18,0.102-0.375,0.181-0.587,0.237
	c-0.212,0.056-0.451,0.084-0.72,0.084c-0.182,0-0.357-0.016-0.523-0.048l-1.077,1.085h-1.463l2.235-2.235
	c0.14,0.043,0.276,0.081,0.41,0.117c0.134,0.035,0.273,0.052,0.418,0.052c0.294,0,0.574-0.069,0.836-0.209l-3.98-3.98
	c-0.14,0.262-0.209,0.542-0.209,0.836c0,0.145,0.017,0.284,0.052,0.418c0.035,0.134,0.073,0.27,0.117,0.41L6.513,7.124
	C6.384,7.07,6.26,7.019,6.143,6.971S5.907,6.882,5.789,6.85s-0.24-0.057-0.366-0.076C5.297,6.755,5.162,6.746,5.017,6.746
	c-0.306,0-0.603,0.044-0.892,0.133c-0.289,0.088-0.558,0.218-0.804,0.39l3.883,3.883v1.463L5.66,11.063l-4.567,4.575L0,16
	l0.362-1.093l4.575-4.567L1.833,7.236l0.362-0.362c0.375-0.375,0.809-0.662,1.303-0.86s1.005-0.297,1.536-0.297
	c0.209,0,0.417,0.017,0.623,0.052c0.206,0.035,0.411,0.084,0.615,0.149L9.319,2.87C9.286,2.705,9.27,2.53,9.27,2.348
	c0-0.262,0.028-0.499,0.084-0.712C9.411,1.424,9.49,1.227,9.592,1.045c0.102-0.182,0.226-0.358,0.374-0.527
	C10.114,0.35,10.275,0.177,10.452,0L16,5.548z M11.835,8.796c0.498,0,0.966,0.093,1.403,0.281c0.437,0.188,0.819,0.445,1.146,0.772
	c0.327,0.327,0.584,0.709,0.772,1.146c0.188,0.437,0.281,0.905,0.281,1.403c0,0.498-0.093,0.966-0.281,1.403
	c-0.188,0.437-0.445,0.819-0.772,1.146c-0.327,0.327-0.709,0.584-1.146,0.772C12.801,15.907,12.334,16,11.835,16
	c-0.498,0-0.966-0.093-1.403-0.281c-0.437-0.188-0.819-0.445-1.146-0.772c-0.327-0.327-0.584-0.709-0.772-1.146
	c-0.188-0.437-0.281-0.905-0.281-1.403c0-0.498,0.093-0.966,0.281-1.403c0.188-0.437,0.445-0.819,0.772-1.146
	c0.327-0.327,0.709-0.584,1.146-0.772C10.869,8.889,11.337,8.796,11.835,8.796z M9.262,12.398c0,0.354,0.067,0.687,0.201,1.001
	c0.134,0.314,0.318,0.587,0.551,0.82s0.507,0.417,0.82,0.551c0.314,0.134,0.647,0.201,1.001,0.201c0.252,0,0.498-0.036,0.74-0.109
	c0.241-0.072,0.466-0.178,0.675-0.318l-3.562-3.562c-0.14,0.209-0.245,0.434-0.318,0.675C9.298,11.899,9.262,12.146,9.262,12.398z
	 M13.982,13.813c0.14-0.209,0.245-0.434,0.318-0.675s0.109-0.487,0.109-0.74c0-0.354-0.068-0.686-0.205-0.997
	s-0.322-0.583-0.555-0.816s-0.506-0.418-0.816-0.555s-0.643-0.205-0.997-0.205c-0.252,0-0.498,0.036-0.74,0.109
	s-0.466,0.178-0.675,0.318L13.982,13.813z"/>
</svg>
