<?xml version="1.0" encoding="utf-8"?>
<!-- Generator: Adobe Illustrator 19.1.0, SVG Export Plug-In . SVG Version: 6.00 Build 0)  -->
<svg version="1.1" id="Layer_1" xmlns="http://www.w3.org/2000/svg" xmlns:xlink="http://www.w3.org/1999/xlink" x="0px" y="0px"
	 width="16px" height="16px" viewBox="0 0 16 16" style="enable-background:new 0 0 16 16;" xml:space="preserve">
<style type="text/css">
	.st0{fill:#323232;}
	.st1{fill:none;}
	.st2{clip-path:url(#SVGID_2_);}
	.st3{clip-path:url(#SVGID_4_);}
	.st4{clip-path:url(#SVGID_6_);fill:#4A4A4A;}
	.st5{clip-path:url(#SVGID_8_);fill:#4A4A4A;}
</style>
<path d="M8.584,4.533h2.905c-0.327-0.331-0.638-0.653-0.935-0.966S9.948,2.975,9.626,2.728S8.953,2.285,8.574,2.135
	S7.756,1.911,7.259,1.911c-0.538,0-1.046,0.105-1.525,0.314C5.256,2.434,4.837,2.718,4.479,3.077S3.836,3.854,3.626,4.333
	C3.417,4.811,3.312,5.319,3.312,5.858c0,0.515,0.099,1.011,0.297,1.487S4.088,8.24,4.451,8.604l5.768,5.775L9.598,15L3.823,9.232
	c-0.446-0.446-0.79-0.963-1.032-1.549S2.429,6.488,2.429,5.858c0-0.442,0.057-0.867,0.172-1.276c0.115-0.409,0.278-0.793,0.49-1.152
	c0.212-0.359,0.465-0.685,0.759-0.98S4.472,1.902,4.83,1.69C5.189,1.478,5.573,1.315,5.983,1.2c0.409-0.115,0.835-0.172,1.276-0.172
	c0.386,0,0.739,0.036,1.059,0.107c0.32,0.071,0.616,0.17,0.89,0.297S9.74,1.71,9.981,1.887s0.478,0.373,0.711,0.586
	c0.232,0.214,0.463,0.442,0.693,0.683c0.23,0.241,0.474,0.491,0.731,0.749V1H13v4.416H8.584V4.533z"/>
</svg>
