<?xml version="1.0" encoding="utf-8"?>
<!-- Generator: Adobe Illustrator 19.1.0, SVG Export Plug-In . SVG Version: 6.00 Build 0)  -->
<svg version="1.1" id="Layer_1" xmlns="http://www.w3.org/2000/svg" xmlns:xlink="http://www.w3.org/1999/xlink" x="0px" y="0px"
	 width="16px" height="16px" viewBox="0 0 16 16" style="enable-background:new 0 0 16 16;" xml:space="preserve">
<style type="text/css">
	.st0{fill:#323232;}
	.st1{fill:none;}
	.st2{clip-path:url(#SVGID_2_);}
	.st3{clip-path:url(#SVGID_4_);}
	.st4{clip-path:url(#SVGID_6_);fill:#4A4A4A;}
	.st5{clip-path:url(#SVGID_8_);fill:#4A4A4A;}
</style>
<path d="M2.248,7.032c-0.152,0.076-0.352,0.113-0.6,0.113c-0.666,0-0.999-0.319-0.999-0.957V4.247H0.077v-0.61H0.65V2.843
	l0.777-0.22v1.015h0.821v0.61H1.427v1.716c0,0.203,0.037,0.348,0.111,0.436s0.197,0.13,0.369,0.13c0.132,0,0.246-0.037,0.342-0.113
	V7.032z"/>
<path d="M5.968,7.068H5.19V5.192c0-0.679-0.227-1.019-0.68-1.019c-0.228,0-0.42,0.099-0.576,0.295
	C3.777,4.665,3.699,4.916,3.699,5.223v1.846H2.919v-5.08h0.781v2.218h0.013c0.259-0.434,0.63-0.65,1.112-0.65
	c0.762,0,1.143,0.465,1.143,1.398V7.068z"/>
<path d="M7.305,2.917c-0.127,0-0.236-0.042-0.326-0.124C6.887,2.711,6.842,2.605,6.842,2.478s0.045-0.234,0.136-0.319
	c0.09-0.084,0.199-0.126,0.326-0.126c0.132,0,0.244,0.042,0.335,0.126c0.091,0.085,0.137,0.191,0.137,0.319
	c0,0.121-0.046,0.224-0.137,0.31S7.436,2.917,7.305,2.917z M7.69,7.068H6.913V3.637H7.69V7.068z"/>
<path d="M8.491,6.961v-0.72c0.291,0.22,0.611,0.331,0.962,0.331c0.469,0,0.704-0.139,0.704-0.415c0-0.079-0.02-0.145-0.06-0.199
	c-0.04-0.055-0.094-0.103-0.163-0.146c-0.068-0.043-0.148-0.08-0.241-0.115C9.6,5.665,9.496,5.627,9.382,5.585
	C9.241,5.528,9.115,5.469,9.002,5.406C8.889,5.344,8.795,5.273,8.72,5.194c-0.075-0.079-0.131-0.169-0.169-0.27
	C8.513,4.823,8.494,4.706,8.494,4.572c0-0.165,0.039-0.31,0.117-0.437C8.69,4.009,8.795,3.902,8.926,3.816
	c0.132-0.086,0.281-0.15,0.449-0.194c0.168-0.043,0.341-0.065,0.519-0.065c0.317,0,0.601,0.048,0.851,0.144v0.681
	c-0.241-0.166-0.518-0.248-0.831-0.248c-0.098,0-0.187,0.01-0.266,0.031C9.569,4.183,9.502,4.212,9.446,4.247
	c-0.056,0.035-0.1,0.079-0.131,0.129c-0.031,0.05-0.047,0.105-0.047,0.166c0,0.074,0.016,0.136,0.047,0.188
	c0.031,0.052,0.078,0.097,0.139,0.136C9.516,4.905,9.589,4.94,9.676,4.973C9.761,5.005,9.86,5.04,9.972,5.078
	c0.147,0.06,0.28,0.122,0.397,0.185c0.118,0.062,0.217,0.133,0.3,0.213c0.083,0.079,0.146,0.17,0.191,0.275
	c0.045,0.103,0.067,0.227,0.067,0.371c0,0.174-0.04,0.326-0.121,0.456c-0.08,0.129-0.188,0.236-0.322,0.322
	c-0.134,0.084-0.289,0.147-0.464,0.189C9.845,7.128,9.66,7.149,9.466,7.149C9.091,7.149,8.766,7.087,8.491,6.961z"/>
<path d="M5.053,10.5l-1.012,3.431H3.227l-0.623-2.325c-0.024-0.089-0.04-0.19-0.047-0.302H2.543
	c-0.004,0.076-0.024,0.174-0.06,0.295l-0.677,2.332H1.009L0,10.5h0.804l0.623,2.473c0.02,0.074,0.034,0.172,0.04,0.295h0.023
	c0.007-0.094,0.024-0.194,0.054-0.302L2.238,10.5h0.73l0.617,2.483c0.02,0.078,0.034,0.176,0.044,0.295h0.023
	c0.004-0.083,0.021-0.182,0.05-0.295l0.61-2.483H5.053z"/>
<path d="M8.501,12.426H6.162c0.009,0.318,0.107,0.562,0.293,0.734c0.187,0.172,0.443,0.258,0.769,0.258
	c0.366,0,0.703-0.109,1.009-0.327v0.626c-0.313,0.196-0.726,0.295-1.24,0.295c-0.505,0-0.901-0.156-1.188-0.467
	c-0.287-0.312-0.43-0.751-0.43-1.315c0-0.534,0.158-0.969,0.474-1.305c0.316-0.336,0.708-0.505,1.178-0.505s0.832,0.151,1.089,0.452
	c0.257,0.303,0.385,0.721,0.385,1.257V12.426z M7.75,11.876c-0.002-0.279-0.068-0.496-0.198-0.651
	c-0.13-0.155-0.308-0.234-0.536-0.234c-0.224,0-0.413,0.082-0.568,0.245c-0.155,0.163-0.25,0.376-0.286,0.64H7.75z"/>
<path d="M12.147,12.426H9.808c0.009,0.318,0.107,0.562,0.293,0.734c0.187,0.172,0.443,0.258,0.769,0.258
	c0.366,0,0.703-0.109,1.009-0.327v0.626c-0.313,0.196-0.726,0.295-1.24,0.295c-0.505,0-0.901-0.156-1.188-0.467
	c-0.287-0.312-0.43-0.751-0.43-1.315c0-0.534,0.158-0.969,0.474-1.305c0.316-0.336,0.708-0.505,1.178-0.505
	c0.469,0,0.832,0.151,1.089,0.452c0.257,0.303,0.385,0.721,0.385,1.257V12.426z M11.396,11.876
	c-0.002-0.279-0.068-0.496-0.198-0.651c-0.13-0.155-0.308-0.234-0.536-0.234c-0.224,0-0.413,0.082-0.568,0.245
	c-0.155,0.163-0.25,0.376-0.286,0.64H11.396z"/>
<path d="M16,13.931h-0.985l-1.334-1.649h-0.013v1.649h-0.781v-5.08h0.781v3.221h0.013l1.26-1.572h0.935l-1.417,1.655L16,13.931z"/>
</svg>
