<?xml version="1.0" encoding="utf-8"?>
<!-- Generator: Adobe Illustrator 19.1.0, SVG Export Plug-In . SVG Version: 6.00 Build 0)  -->
<svg version="1.1" id="Layer_1" xmlns="http://www.w3.org/2000/svg" xmlns:xlink="http://www.w3.org/1999/xlink" x="0px" y="0px"
	 width="16px" height="16px" viewBox="0 0 16 16" style="enable-background:new 0 0 16 16;" xml:space="preserve">
<style type="text/css">
	.st0{fill:#323232;}
	.st1{fill:none;}
	.st2{clip-path:url(#SVGID_2_);}
	.st3{clip-path:url(#SVGID_4_);}
	.st4{clip-path:url(#SVGID_6_);fill:#4A4A4A;}
	.st5{clip-path:url(#SVGID_8_);fill:#4A4A4A;}
</style>
<path d="M8,14.125c0.702,0,1.375-0.108,2.02-0.325s1.233-0.522,1.764-0.916s0.993-0.868,1.388-1.422s0.694-1.168,0.899-1.842
	l0.834,0.26c-0.228,0.761-0.567,1.455-1.019,2.082s-0.981,1.166-1.589,1.617s-1.278,0.801-2.01,1.049S8.793,15,8,15
	c-0.624,0-1.233-0.077-1.825-0.232s-1.152-0.379-1.678-0.673s-1.013-0.652-1.459-1.073s-0.834-0.899-1.162-1.432v1.661H1v-3.5h3.5
	v0.875H2.34c0.269,0.533,0.603,1.015,1.001,1.446s0.844,0.798,1.336,1.101s1.02,0.538,1.583,0.704S7.403,14.125,8,14.125z M15,2.75
	v3.5h-3.5V5.375h2.16c-0.269-0.533-0.603-1.015-1.001-1.446s-0.844-0.798-1.336-1.101s-1.02-0.538-1.583-0.704S8.597,1.875,8,1.875
	c-0.702,0-1.375,0.108-2.02,0.325S4.747,2.722,4.216,3.116S3.223,3.984,2.829,4.538S2.135,5.705,1.93,6.38L1.096,6.12
	c0.228-0.757,0.567-1.449,1.019-2.078s0.981-1.169,1.589-1.62s1.278-0.801,2.01-1.049S7.207,1,8,1c0.624,0,1.233,0.077,1.825,0.232
	s1.152,0.379,1.678,0.673s1.013,0.652,1.459,1.073s0.834,0.899,1.162,1.432V2.75H15z"/>
</svg>
