<?xml version="1.0" encoding="utf-8"?>
<!-- Generator: Adobe Illustrator 19.1.0, SVG Export Plug-In . SVG Version: 6.00 Build 0)  -->
<svg version="1.1" id="Layer_1" xmlns="http://www.w3.org/2000/svg" xmlns:xlink="http://www.w3.org/1999/xlink" x="0px" y="0px"
	 width="16px" height="16px" viewBox="0 0 16 16" style="enable-background:new 0 0 16 16;" xml:space="preserve">
<style type="text/css">
	.st0{fill:#323232;}
	.st1{fill:none;}
	.st2{clip-path:url(#SVGID_2_);}
	.st3{clip-path:url(#SVGID_4_);}
	.st4{clip-path:url(#SVGID_6_);fill:#4A4A4A;}
	.st5{clip-path:url(#SVGID_8_);fill:#4A4A4A;}
</style>
<path d="M13.883,7.672c0,0.047,0.001,0.094,0.004,0.141c0.002,0.047,0.004,0.094,0.004,0.141s-0.001,0.094-0.004,0.141
	c-0.003,0.047-0.004,0.094-0.004,0.141l2.023,1.258l-1.242,2.992l-2.32-0.531c-0.125,0.136-0.255,0.266-0.391,0.391l0.531,2.32
	l-2.992,1.242l-1.258-2.023c-0.047,0-0.094,0.001-0.141,0.004C8.047,13.89,8,13.891,7.953,13.891s-0.094-0.001-0.141-0.004
	c-0.047-0.002-0.094-0.004-0.141-0.004l-1.258,2.023l-2.992-1.242l0.531-2.32c-0.136-0.125-0.266-0.255-0.391-0.391l-2.32,0.531
	L0,9.492l2.023-1.258c0-0.047-0.001-0.094-0.004-0.141C2.017,8.047,2.016,8,2.016,7.953S2.017,7.859,2.02,7.812
	c0.002-0.047,0.004-0.094,0.004-0.141L0,6.414l1.242-2.992l2.32,0.531c0.125-0.135,0.255-0.266,0.391-0.391l-0.531-2.32L6.414,0
	l1.258,2.023c0.047,0,0.094-0.001,0.141-0.004c0.047-0.002,0.094-0.004,0.141-0.004S8.047,2.017,8.094,2.02
	c0.047,0.003,0.094,0.004,0.141,0.004L9.492,0l2.992,1.242l-0.531,2.32c0.135,0.125,0.266,0.255,0.391,0.391l2.32-0.531l1.242,2.992
	L13.883,7.672z M12.969,8.688c0.01-0.125,0.021-0.249,0.031-0.371c0.01-0.122,0.016-0.246,0.016-0.371
	c0-0.12-0.005-0.242-0.016-0.367c-0.011-0.125-0.021-0.247-0.031-0.367l1.844-1.148l-0.672-1.625L12.023,4.93
	c-0.162-0.198-0.327-0.38-0.496-0.547c-0.169-0.167-0.353-0.333-0.551-0.5l0.492-2.117L9.844,1.094L8.688,2.938
	c-0.12-0.01-0.242-0.021-0.367-0.031c-0.125-0.01-0.248-0.016-0.367-0.016c-0.125,0-0.249,0.005-0.371,0.016
	C7.459,2.917,7.336,2.927,7.211,2.938L6.062,1.094L4.438,1.766L4.93,3.883C4.731,4.044,4.549,4.21,4.383,4.379
	c-0.167,0.169-0.333,0.353-0.5,0.551L1.766,4.438L1.094,6.062l1.844,1.156C2.927,7.344,2.917,7.468,2.906,7.59
	C2.896,7.712,2.891,7.836,2.891,7.961c0,0.12,0.005,0.242,0.016,0.367c0.01,0.125,0.021,0.248,0.031,0.367L1.094,9.844l0.672,1.625
	l2.117-0.492c0.161,0.198,0.327,0.38,0.496,0.547c0.169,0.167,0.353,0.333,0.551,0.5l-0.492,2.117l1.625,0.672l1.156-1.844
	C7.338,12.979,7.461,12.99,7.586,13c0.125,0.011,0.247,0.016,0.367,0.016c0.125,0,0.249-0.005,0.371-0.016
	c0.122-0.01,0.246-0.021,0.371-0.031l1.148,1.844l1.625-0.672l-0.492-2.117c0.198-0.161,0.38-0.327,0.547-0.496
	c0.167-0.169,0.333-0.353,0.5-0.551l2.117,0.492l0.672-1.625L12.969,8.688z M7.953,5.016c0.406,0,0.788,0.077,1.145,0.23
	C9.454,5.4,9.766,5.609,10.031,5.875s0.475,0.577,0.629,0.934c0.153,0.357,0.23,0.738,0.23,1.145s-0.077,0.788-0.23,1.145
	c-0.154,0.357-0.363,0.668-0.629,0.934s-0.577,0.476-0.934,0.629c-0.357,0.154-0.738,0.23-1.145,0.23s-0.788-0.077-1.145-0.23
	c-0.357-0.153-0.668-0.363-0.934-0.629S5.399,9.455,5.246,9.098c-0.154-0.356-0.23-0.738-0.23-1.145s0.077-0.788,0.23-1.145
	c0.153-0.356,0.363-0.668,0.629-0.934S6.452,5.4,6.809,5.246C7.165,5.093,7.547,5.016,7.953,5.016z M7.953,10.016
	c0.286,0,0.555-0.053,0.805-0.16c0.25-0.106,0.469-0.254,0.656-0.441s0.334-0.406,0.441-0.656c0.106-0.25,0.16-0.518,0.16-0.805
	c0-0.286-0.054-0.555-0.16-0.805C9.749,6.898,9.602,6.68,9.414,6.492S9.008,6.158,8.758,6.051c-0.25-0.106-0.519-0.16-0.805-0.16
	c-0.287,0-0.555,0.054-0.805,0.16C6.898,6.158,6.68,6.305,6.492,6.492S6.157,6.898,6.051,7.148c-0.107,0.25-0.16,0.519-0.16,0.805
	c0,0.287,0.053,0.555,0.16,0.805c0.106,0.25,0.254,0.469,0.441,0.656s0.406,0.335,0.656,0.441
	C7.398,9.962,7.667,10.016,7.953,10.016z"/>
</svg>
