<?xml version="1.0" encoding="utf-8"?>
<!-- Generator: Adobe Illustrator 19.1.0, SVG Export Plug-In . SVG Version: 6.00 Build 0)  -->
<svg version="1.1" id="Layer_1" xmlns="http://www.w3.org/2000/svg" xmlns:xlink="http://www.w3.org/1999/xlink" x="0px" y="0px"
	 width="16px" height="16px" viewBox="0 0 16 16" style="enable-background:new 0 0 16 16;" xml:space="preserve">
<style type="text/css">
	.st0{fill:#323232;}
	.st1{fill:none;}
	.st2{clip-path:url(#SVGID_2_);}
	.st3{clip-path:url(#SVGID_4_);}
	.st4{clip-path:url(#SVGID_6_);fill:#4A4A4A;}
	.st5{clip-path:url(#SVGID_8_);fill:#4A4A4A;}
</style>
<path d="M15.375,4.883C15.792,5.883,16,6.922,16,8s-0.208,2.117-0.625,3.117c-0.406,0.953-0.979,1.8-1.719,2.539
	c-0.74,0.739-1.586,1.312-2.539,1.719C10.117,15.792,9.078,16,8,16c-0.906,0-1.781-0.148-2.625-0.445
	c-0.823-0.286-1.576-0.692-2.258-1.219C2.44,13.81,1.859,13.19,1.375,12.477c-0.245-0.359-0.457-0.734-0.637-1.125
	s-0.327-0.797-0.441-1.219l0.961-0.266c0.208,0.755,0.53,1.448,0.965,2.078c0.435,0.63,0.949,1.172,1.543,1.625
	s1.252,0.805,1.977,1.055C6.466,14.875,7.219,15,8,15c0.641,0,1.259-0.083,1.855-0.25c0.596-0.167,1.153-0.402,1.672-0.707
	c0.518-0.305,0.991-0.671,1.418-1.098c0.427-0.427,0.793-0.899,1.098-1.418s0.54-1.074,0.707-1.668C14.917,9.266,15,8.646,15,8
	c0-0.641-0.083-1.259-0.25-1.855c-0.167-0.597-0.402-1.153-0.707-1.672c-0.305-0.518-0.671-0.991-1.098-1.418
	c-0.427-0.427-0.9-0.793-1.418-1.098c-0.519-0.305-1.076-0.54-1.672-0.707C9.259,1.083,8.641,1,8,1C7.323,1,6.667,1.095,6.031,1.285
	c-0.636,0.19-1.228,0.46-1.777,0.809c-0.55,0.349-1.044,0.77-1.484,1.262C2.329,3.848,1.966,4.396,1.68,5H4v1H0V2h1v2.141
	c0.088-0.167,0.185-0.329,0.289-0.488c0.104-0.159,0.213-0.313,0.328-0.465C2.106,2.537,2.68,1.974,3.336,1.5
	C4.023,1.011,4.76,0.638,5.547,0.383C6.333,0.128,7.151,0,8,0c1.078,0,2.117,0.208,3.117,0.625c0.953,0.406,1.799,0.979,2.539,1.719
	C14.396,3.083,14.969,3.93,15.375,4.883z"/>
<polygon points="8,4 8,8.289 10.852,11.148 10.148,11.852 7,8.711 7,4 "/>
</svg>
