<?xml version="1.0" encoding="utf-8"?>
<!-- Generator: Adobe Illustrator 19.1.0, SVG Export Plug-In . SVG Version: 6.00 Build 0)  -->
<svg version="1.1" id="Layer_1" xmlns="http://www.w3.org/2000/svg" xmlns:xlink="http://www.w3.org/1999/xlink" x="0px" y="0px"
	 width="16px" height="16px" viewBox="0 0 16 16" style="enable-background:new 0 0 16 16;" xml:space="preserve">
<style type="text/css">
	.st0{fill:#323232;}
	.st1{fill:none;}
	.st2{clip-path:url(#SVGID_2_);}
	.st3{clip-path:url(#SVGID_4_);}
	.st4{clip-path:url(#SVGID_6_);fill:#4A4A4A;}
	.st5{clip-path:url(#SVGID_8_);fill:#4A4A4A;}
</style>
<path d="M8,16c-0.739,0-1.449-0.095-2.129-0.285c-0.68-0.19-1.316-0.458-1.91-0.805c-0.594-0.346-1.134-0.763-1.621-1.25
	c-0.487-0.487-0.903-1.027-1.25-1.621s-0.614-1.231-0.805-1.914C0.095,9.443,0,8.734,0,8s0.095-1.442,0.285-2.125
	c0.19-0.682,0.458-1.32,0.805-1.914S1.853,2.827,2.34,2.34c0.487-0.487,1.027-0.903,1.621-1.25c0.594-0.346,1.231-0.614,1.914-0.805
	C6.558,0.095,7.266,0,8,0s1.442,0.095,2.125,0.285c0.683,0.19,1.32,0.458,1.914,0.805c0.594,0.347,1.134,0.763,1.621,1.25
	c0.487,0.487,0.903,1.027,1.25,1.621s0.614,1.232,0.805,1.914C15.905,6.558,16,7.266,16,8c0,0.74-0.095,1.449-0.285,2.129
	s-0.458,1.316-0.805,1.91s-0.763,1.134-1.25,1.621c-0.487,0.487-1.027,0.904-1.621,1.25c-0.594,0.347-1.231,0.615-1.914,0.805
	C9.442,15.905,8.734,16,8,16z M8,1C7.359,1,6.741,1.083,6.145,1.25C5.548,1.417,4.991,1.652,4.473,1.957S3.481,2.628,3.055,3.055
	c-0.427,0.427-0.793,0.9-1.098,1.418C1.652,4.991,1.417,5.548,1.25,6.145C1.083,6.741,1,7.359,1,8s0.083,1.259,0.25,1.855
	c0.167,0.597,0.402,1.154,0.707,1.672c0.305,0.519,0.671,0.991,1.098,1.418c0.427,0.427,0.899,0.793,1.418,1.098
	s1.075,0.541,1.672,0.707C6.741,14.917,7.359,15,8,15s1.259-0.083,1.855-0.25c0.597-0.167,1.153-0.402,1.672-0.707
	s0.991-0.67,1.418-1.098c0.427-0.427,0.793-0.899,1.098-1.418c0.305-0.518,0.54-1.075,0.707-1.672C14.917,9.259,15,8.641,15,8
	s-0.083-1.259-0.25-1.855c-0.167-0.596-0.402-1.153-0.707-1.672c-0.305-0.518-0.671-0.991-1.098-1.418
	c-0.427-0.427-0.899-0.793-1.418-1.098s-1.075-0.54-1.672-0.707C9.259,1.083,8.641,1,8,1z M8,8V3H7v6h4V8H8z"/>
</svg>
