<?xml version="1.0" encoding="utf-8"?>
<!-- Generator: Adobe Illustrator 19.1.0, SVG Export Plug-In . SVG Version: 6.00 Build 0)  -->
<svg version="1.1" id="Layer_1" xmlns="http://www.w3.org/2000/svg" xmlns:xlink="http://www.w3.org/1999/xlink" x="0px" y="0px"
	 width="16px" height="16px" viewBox="0 0 16 16" style="enable-background:new 0 0 16 16;" xml:space="preserve">
<style type="text/css">
	.st0{fill:#323232;}
	.st1{fill:none;}
	.st2{clip-path:url(#SVGID_2_);}
	.st3{clip-path:url(#SVGID_4_);}
	.st4{clip-path:url(#SVGID_6_);fill:#4A4A4A;}
	.st5{clip-path:url(#SVGID_8_);fill:#4A4A4A;}
</style>
<path d="M8.125,7.391C8.62,7.578,9.079,7.826,9.504,8.133c0.424,0.308,0.801,0.66,1.129,1.059s0.602,0.836,0.82,1.312
	s0.372,0.976,0.461,1.496h-1.016c-0.12-0.583-0.331-1.12-0.633-1.609C9.963,9.901,9.595,9.479,9.16,9.125
	c-0.435-0.354-0.922-0.63-1.461-0.828C7.16,8.099,6.594,8,6,8C5.542,8,5.099,8.06,4.672,8.18C4.245,8.3,3.846,8.468,3.477,8.684
	C3.106,8.9,2.77,9.16,2.465,9.465s-0.565,0.642-0.781,1.012c-0.216,0.37-0.384,0.769-0.504,1.195C1.06,12.099,1,12.542,1,13H0
	c0-0.625,0.092-1.227,0.277-1.805c0.185-0.578,0.446-1.112,0.785-1.602c0.338-0.489,0.746-0.924,1.223-1.305
	c0.477-0.38,1.006-0.68,1.59-0.898c-0.589-0.385-1.048-0.87-1.379-1.453C2.165,5.354,2,4.708,2,4c0-0.552,0.104-1.071,0.312-1.559
	C2.521,1.955,2.806,1.53,3.168,1.168C3.53,0.806,3.954,0.521,4.441,0.312C4.928,0.104,5.448,0,6,0c0.552,0,1.071,0.104,1.559,0.312
	C8.045,0.521,8.47,0.806,8.832,1.168C9.194,1.53,9.479,1.955,9.688,2.441C9.896,2.929,10,3.448,10,4c0,0.344-0.043,0.68-0.129,1.008
	S9.661,5.646,9.5,5.938C9.338,6.229,9.142,6.499,8.91,6.746C8.678,6.994,8.417,7.208,8.125,7.391z M3,4
	c0,0.417,0.078,0.806,0.234,1.168c0.156,0.362,0.371,0.68,0.645,0.953S4.47,6.609,4.832,6.766C5.194,6.922,5.583,7,6,7
	c0.411,0,0.799-0.078,1.164-0.234c0.364-0.156,0.684-0.371,0.957-0.645S8.609,5.53,8.766,5.168C8.922,4.806,9,4.417,9,4
	c0-0.411-0.078-0.799-0.234-1.164C8.609,2.472,8.395,2.152,8.121,1.879S7.528,1.391,7.164,1.234C6.799,1.078,6.411,1,6,1
	C5.583,1,5.194,1.078,4.832,1.234C4.47,1.391,4.152,1.605,3.879,1.879S3.391,2.472,3.234,2.836C3.078,3.201,3,3.589,3,4z M16,13v1
	h-2v2h-1v-2h-2v-1h2v-2h1v2H16z"/>
</svg>
