<?xml version="1.0" encoding="utf-8"?>
<!-- Generator: Adobe Illustrator 19.1.0, SVG Export Plug-In . SVG Version: 6.00 Build 0)  -->
<svg version="1.1" id="Layer_1" xmlns="http://www.w3.org/2000/svg" xmlns:xlink="http://www.w3.org/1999/xlink" x="0px" y="0px"
	 width="16px" height="16px" viewBox="0 0 16 16" style="enable-background:new 0 0 16 16;" xml:space="preserve">
<style type="text/css">
	.st0{fill:#323232;}
	.st1{fill:none;}
	.st2{clip-path:url(#SVGID_2_);}
	.st3{clip-path:url(#SVGID_4_);}
	.st4{clip-path:url(#SVGID_6_);fill:#4A4A4A;}
	.st5{clip-path:url(#SVGID_8_);fill:#4A4A4A;}
</style>
<path d="M8,0c0.734,0,1.443,0.095,2.125,0.285s1.32,0.458,1.914,0.805s1.134,0.763,1.621,1.25s0.904,1.027,1.25,1.621
	s0.615,1.232,0.805,1.914S16,7.266,16,8s-0.095,1.443-0.285,2.125s-0.458,1.32-0.805,1.914s-0.763,1.134-1.25,1.621
	s-1.027,0.904-1.621,1.25s-1.232,0.615-1.914,0.805S8.734,16,8,16s-1.443-0.095-2.125-0.285s-1.32-0.458-1.914-0.805
	s-1.134-0.763-1.621-1.25s-0.904-1.027-1.25-1.621s-0.615-1.23-0.805-1.91S0,8.74,0,8c0-0.734,0.095-1.443,0.285-2.125
	s0.458-1.32,0.805-1.914S1.853,2.827,2.34,2.34s1.027-0.904,1.621-1.25s1.23-0.615,1.91-0.805S7.26,0,8,0z M1,8
	c0,0.693,0.096,1.359,0.289,2h2.836C4.083,9.667,4.052,9.335,4.031,9.004S4,8.339,4,8c0-0.339,0.01-0.673,0.031-1.004
	S4.083,6.333,4.125,6H1.289C1.096,6.641,1,7.307,1,8z M5.711,1.383C5.273,1.534,4.854,1.729,4.453,1.969S3.68,2.482,3.336,2.789
	S2.68,3.436,2.398,3.809S1.878,4.578,1.68,5h2.602C4.344,4.688,4.417,4.372,4.5,4.055s0.184-0.632,0.301-0.941
	s0.251-0.611,0.402-0.902S5.523,1.643,5.711,1.383z M1.68,11c0.198,0.422,0.438,0.819,0.719,1.191s0.594,0.712,0.938,1.02
	s0.716,0.581,1.117,0.82s0.82,0.435,1.258,0.586c-0.188-0.26-0.357-0.536-0.508-0.828s-0.285-0.592-0.402-0.902
	S4.583,12.263,4.5,11.945S4.344,11.312,4.281,11H1.68z M10.867,10c0.042-0.333,0.074-0.665,0.098-0.996S11,8.339,11,8
	c0-0.339-0.012-0.673-0.035-1.004S10.909,6.333,10.867,6H5.133C5.091,6.333,5.059,6.665,5.035,6.996S5,7.661,5,8
	c0,0.339,0.012,0.673,0.035,1.004S5.091,9.667,5.133,10H10.867z M8,1C7.745,1,7.507,1.07,7.285,1.211S6.859,1.536,6.672,1.766
	S6.316,2.254,6.168,2.543s-0.28,0.582-0.395,0.879S5.562,4.005,5.484,4.281S5.346,4.797,5.305,5h5.391
	c-0.042-0.203-0.102-0.443-0.18-0.719s-0.174-0.562-0.289-0.859S9.98,2.832,9.832,2.543S9.516,1.995,9.328,1.766
	S8.936,1.352,8.715,1.211S8.255,1,8,1z M8,15c0.255,0,0.493-0.07,0.715-0.211s0.426-0.326,0.613-0.555s0.355-0.488,0.504-0.777
	s0.28-0.582,0.395-0.879s0.211-0.583,0.289-0.859s0.138-0.516,0.18-0.719H5.305c0.042,0.203,0.102,0.443,0.18,0.719
	s0.174,0.562,0.289,0.859s0.246,0.59,0.395,0.879s0.316,0.548,0.504,0.777s0.392,0.414,0.613,0.555S7.745,15,8,15z M14.32,5
	c-0.198-0.422-0.438-0.819-0.719-1.191s-0.594-0.712-0.938-1.02s-0.716-0.581-1.117-0.82s-0.82-0.435-1.258-0.586
	c0.188,0.26,0.357,0.536,0.508,0.828s0.285,0.592,0.402,0.902s0.217,0.624,0.301,0.941S11.656,4.688,11.719,5H14.32z M10.289,14.617
	c0.438-0.151,0.857-0.346,1.258-0.586s0.773-0.513,1.117-0.82s0.656-0.647,0.938-1.02s0.521-0.77,0.719-1.191h-2.602
	c-0.062,0.312-0.135,0.628-0.219,0.945s-0.184,0.632-0.301,0.941s-0.251,0.611-0.402,0.902S10.477,14.357,10.289,14.617z M15,8
	c0-0.693-0.096-1.359-0.289-2h-2.836c0.042,0.333,0.073,0.665,0.094,0.996S12,7.661,12,8c0,0.339-0.01,0.673-0.031,1.004
	S11.917,9.667,11.875,10h2.836C14.904,9.359,15,8.693,15,8z"/>
</svg>
