<?xml version="1.0" encoding="utf-8"?>
<!-- Generator: Adobe Illustrator 19.1.0, SVG Export Plug-In . SVG Version: 6.00 Build 0)  -->
<svg version="1.1" id="Layer_1" xmlns="http://www.w3.org/2000/svg" xmlns:xlink="http://www.w3.org/1999/xlink" x="0px" y="0px"
	 width="16px" height="16px" viewBox="0 0 16 16" style="enable-background:new 0 0 16 16;" xml:space="preserve">
<style type="text/css">
	.st0{fill:#323232;}
	.st1{fill:none;}
	.st2{fill-rule:evenodd;clip-rule:evenodd;}
</style>
<rect y="2" width="16" height="1"/>
<rect y="7" width="16" height="1"/>
<rect x="7" y="12" width="9" height="1"/>
<path class="st2" d="M3,11l2,1.5L3,14v-1c-0.193,0-0.401,0.003-0.625,0.008s-0.447,0.001-0.668-0.012
	c-0.221-0.013-0.435-0.044-0.641-0.094s-0.388-0.13-0.547-0.242s-0.285-0.26-0.379-0.445C0.047,12.03,0,11.792,0,11.5V9h1v2.5
	c0,0.135,0.049,0.253,0.148,0.352C1.247,11.951,1.365,12,1.5,12H3V11z"/>
</svg>
