<?xml version="1.0" encoding="utf-8"?>
<!-- Generator: Adobe Illustrator 19.1.0, SVG Export Plug-In . SVG Version: 6.00 Build 0)  -->
<svg version="1.1" id="Layer_1" xmlns="http://www.w3.org/2000/svg" xmlns:xlink="http://www.w3.org/1999/xlink" x="0px" y="0px"
	 width="16px" height="16px" viewBox="0 0 16 16" style="enable-background:new 0 0 16 16;" xml:space="preserve">
<style type="text/css">
	.st0{fill:#323232;}
	.st1{fill:none;}
	.st2{fill-rule:evenodd;clip-rule:evenodd;}
</style>
<path d="M9,2v6H2V2H9 M10,1H9H2H1v1v6v1h1h7h1V8V2V1L10,1z"/>
<path d="M14,7v7H8V7H14 M15,6h-1H8H7v1v7v1h1h6h1v-1V7V6L15,6z"/>
<path class="st2" d="M4,12l2,1.5L4,15v-1c-0.193,0-0.401,0.003-0.625,0.008s-0.447,0.001-0.668-0.012
	c-0.221-0.013-0.435-0.044-0.641-0.094s-0.388-0.13-0.547-0.242s-0.285-0.26-0.379-0.445C1.047,13.03,1,12.792,1,12.5V10h1v2.5
	c0,0.135,0.049,0.253,0.148,0.352C2.247,12.951,2.365,13,2.5,13H4V12z"/>
</svg>
