<?xml version="1.0" encoding="utf-8"?>
<!-- Generator: Adobe Illustrator 19.1.0, SVG Export Plug-In . SVG Version: 6.00 Build 0)  -->
<svg version="1.1" id="Layer_1" xmlns="http://www.w3.org/2000/svg" xmlns:xlink="http://www.w3.org/1999/xlink" x="0px" y="0px"
	 width="16px" height="16px" viewBox="0 0 16 16" style="enable-background:new 0 0 16 16;" xml:space="preserve">
<style type="text/css">
	.st0{fill:#323232;}
	.st1{fill:none;}
	.st2{clip-path:url(#SVGID_2_);}
	.st3{clip-path:url(#SVGID_4_);}
	.st4{clip-path:url(#SVGID_6_);fill:#4A4A4A;}
	.st5{clip-path:url(#SVGID_8_);fill:#4A4A4A;}
</style>
<path d="M15,2v13H0V2h2V1h3c0.458,0,0.9,0.07,1.324,0.211S7.141,1.562,7.5,1.844c0.359-0.281,0.751-0.492,1.176-0.633S9.542,1,10,1
	h3v1H15z M1,14h6.297c-0.167-0.161-0.336-0.303-0.508-0.426s-0.35-0.227-0.535-0.312s-0.38-0.151-0.586-0.195S5.24,13,5,13H2V3H1V14
	z M3,12h2c0.349,0,0.693,0.043,1.031,0.129S6.693,12.344,7,12.516V2.719C6.719,2.484,6.406,2.306,6.062,2.184S5.365,2,5,2H3V12z
	 M14,3h-1v10h-3c-0.24,0-0.462,0.022-0.668,0.066s-0.401,0.109-0.586,0.195s-0.363,0.19-0.535,0.312S7.87,13.839,7.703,14H14V3z
	 M10,2C9.635,2,9.281,2.061,8.938,2.184S8.281,2.484,8,2.719v9.797c0.307-0.172,0.63-0.301,0.969-0.387S9.651,12,10,12h2V2H10z"/>
</svg>
