<?xml version="1.0" encoding="utf-8"?>
<!-- Generator: Adobe Illustrator 19.1.0, SVG Export Plug-In . SVG Version: 6.00 Build 0)  -->
<svg version="1.1" id="Layer_1" xmlns="http://www.w3.org/2000/svg" xmlns:xlink="http://www.w3.org/1999/xlink" x="0px" y="0px"
	 width="16px" height="16px" viewBox="0 0 16 16" style="enable-background:new 0 0 16 16;" xml:space="preserve">
<style type="text/css">
	.st0{fill:#323232;}
	.st1{fill:none;}
	.st2{clip-path:url(#SVGID_2_);}
	.st3{clip-path:url(#SVGID_4_);}
	.st4{clip-path:url(#SVGID_6_);fill:#4A4A4A;}
	.st5{clip-path:url(#SVGID_8_);fill:#4A4A4A;}
</style>
<path d="M11,3v9.5c0,0.484-0.092,0.939-0.277,1.363s-0.435,0.794-0.75,1.109s-0.685,0.565-1.109,0.75S7.984,16,7.5,16
	s-0.939-0.092-1.363-0.277s-0.794-0.435-1.109-0.75s-0.565-0.685-0.75-1.109S4,12.984,4,12.5v-10c0-0.344,0.066-0.667,0.199-0.969
	s0.312-0.566,0.539-0.793s0.491-0.406,0.793-0.539S6.156,0,6.5,0s0.667,0.066,0.969,0.199s0.566,0.312,0.793,0.539
	s0.406,0.491,0.539,0.793S9,2.156,9,2.5v10c0,0.208-0.039,0.404-0.117,0.586s-0.185,0.341-0.32,0.477s-0.294,0.242-0.477,0.32
	C7.904,13.961,7.708,14,7.5,14s-0.404-0.039-0.586-0.117s-0.341-0.185-0.477-0.32s-0.242-0.294-0.32-0.477S6,12.708,6,12.5V4h1v8.5
	c0,0.135,0.049,0.253,0.148,0.352S7.365,13,7.5,13s0.253-0.049,0.352-0.148S8,12.635,8,12.5v-10c0-0.208-0.039-0.404-0.117-0.586
	s-0.185-0.341-0.32-0.477s-0.294-0.242-0.477-0.32S6.708,1,6.5,1S6.096,1.039,5.914,1.117s-0.341,0.185-0.477,0.32
	s-0.242,0.294-0.32,0.477S5,2.292,5,2.5v10c0,0.344,0.066,0.667,0.199,0.969s0.312,0.566,0.539,0.793s0.491,0.406,0.793,0.539
	S7.156,15,7.5,15s0.667-0.066,0.969-0.199s0.566-0.312,0.793-0.539s0.406-0.491,0.539-0.793S10,12.844,10,12.5V3H11z"/>
</svg>
