<?xml version="1.0" encoding="utf-8"?>
<!-- Generator: Adobe Illustrator 19.1.0, SVG Export Plug-In . SVG Version: 6.00 Build 0)  -->
<svg version="1.1" id="Layer_1" xmlns="http://www.w3.org/2000/svg" xmlns:xlink="http://www.w3.org/1999/xlink" x="0px" y="0px"
	 width="16px" height="16px" viewBox="0 0 16 16" style="enable-background:new 0 0 16 16;" xml:space="preserve">
<style type="text/css">
	.st0{fill:#323232;}
	.st1{fill:none;}
	.st2{clip-path:url(#SVGID_2_);}
	.st3{clip-path:url(#SVGID_4_);}
	.st4{clip-path:url(#SVGID_6_);fill:#4A4A4A;}
	.st5{clip-path:url(#SVGID_8_);fill:#4A4A4A;}
</style>
<path d="M11.75,1c0.588,0,1.141,0.112,1.656,0.336c0.516,0.224,0.966,0.527,1.352,0.91c0.385,0.383,0.688,0.833,0.91,1.352
	C15.889,4.116,16,4.667,16,5.25c0,0.568-0.108,1.112-0.324,1.633c-0.217,0.521-0.522,0.979-0.918,1.375L8,15.008l-6.758-6.75
	C0.846,7.862,0.54,7.404,0.324,6.883C0.107,6.362,0,5.818,0,5.25c0-0.583,0.11-1.134,0.332-1.652
	c0.221-0.518,0.524-0.969,0.91-1.352c0.385-0.383,0.836-0.686,1.352-0.91C3.109,1.112,3.661,1,4.25,1
	c0.432,0,0.817,0.05,1.156,0.148c0.338,0.099,0.652,0.236,0.941,0.41c0.289,0.175,0.564,0.384,0.828,0.629
	C7.438,2.433,7.713,2.701,8,2.992c0.286-0.292,0.561-0.56,0.824-0.805c0.263-0.245,0.539-0.454,0.828-0.629
	c0.289-0.174,0.603-0.311,0.941-0.41C10.932,1.05,11.317,1,11.75,1z M14.047,7.547c0.307-0.307,0.541-0.659,0.703-1.055
	c0.161-0.396,0.242-0.81,0.242-1.242c0-0.453-0.084-0.876-0.25-1.27c-0.167-0.393-0.397-0.734-0.691-1.023
	c-0.295-0.289-0.639-0.516-1.031-0.68c-0.394-0.164-0.816-0.246-1.27-0.246c-0.438,0-0.826,0.069-1.164,0.207
	c-0.339,0.138-0.651,0.319-0.938,0.543C9.361,3.005,9.087,3.259,8.824,3.543C8.561,3.827,8.286,4.115,8,4.406
	C7.719,4.125,7.445,3.841,7.18,3.555C6.914,3.269,6.637,3.011,6.348,2.781C6.059,2.552,5.743,2.365,5.402,2.219
	C5.061,2.073,4.677,2,4.25,2C3.802,2,3.38,2.085,2.984,2.254C2.588,2.423,2.243,2.655,1.949,2.949
	c-0.295,0.294-0.526,0.64-0.695,1.035C1.084,4.38,1,4.802,1,5.25c0,0.433,0.082,0.847,0.246,1.242
	C1.41,6.888,1.646,7.24,1.953,7.547L8,13.594L14.047,7.547z"/>
</svg>
