<?xml version="1.0" encoding="utf-8"?>
<!-- Generator: Adobe Illustrator 19.1.0, SVG Export Plug-In . SVG Version: 6.00 Build 0)  -->
<svg version="1.1" id="Layer_1" xmlns="http://www.w3.org/2000/svg" xmlns:xlink="http://www.w3.org/1999/xlink" x="0px" y="0px"
	 width="16px" height="16px" viewBox="0 0 16 16" style="enable-background:new 0 0 16 16;" xml:space="preserve">
<style type="text/css">
	.st0{fill:#323232;}
	.st1{fill:none;}
	.st2{clip-path:url(#SVGID_2_);}
	.st3{clip-path:url(#SVGID_4_);}
	.st4{clip-path:url(#SVGID_6_);fill:#4A4A4A;}
	.st5{clip-path:url(#SVGID_8_);fill:#4A4A4A;}
</style>
<path d="M14,7v9H2V7h2V4.078c0-0.562,0.102-1.091,0.305-1.586s0.484-0.927,0.844-1.297s0.783-0.661,1.27-0.875S7.432,0,8,0
	s1.095,0.107,1.582,0.32s0.91,0.505,1.27,0.875s0.641,0.802,0.844,1.297S12,3.516,12,4.078V7H14z M13,8H3v7h10V8z M5,7h6V4.078
	c0-0.422-0.076-0.819-0.227-1.191s-0.361-0.699-0.629-0.98S9.559,1.404,9.191,1.242S8.427,1,8,1C7.573,1,7.176,1.081,6.809,1.242
	S6.124,1.625,5.855,1.906s-0.478,0.608-0.629,0.98S5,3.656,5,4.078V7z"/>
</svg>
