<?xml version="1.0" encoding="utf-8"?>
<!-- Generator: Adobe Illustrator 19.1.0, SVG Export Plug-In . SVG Version: 6.00 Build 0)  -->
<svg version="1.1" id="Layer_1" xmlns="http://www.w3.org/2000/svg" xmlns:xlink="http://www.w3.org/1999/xlink" x="0px" y="0px"
	 width="16px" height="16px" viewBox="0 0 16 16" style="enable-background:new 0 0 16 16;" xml:space="preserve">
<style type="text/css">
	.st0{fill:#323232;}
	.st1{fill:none;}
	.st2{clip-path:url(#SVGID_2_);}
	.st3{clip-path:url(#SVGID_4_);}
	.st4{clip-path:url(#SVGID_6_);fill:#4A4A4A;}
	.st5{clip-path:url(#SVGID_8_);fill:#4A4A4A;}
</style>
<path d="M14,3h-1v11.5c0,0.208-0.039,0.404-0.117,0.586c-0.078,0.183-0.185,0.341-0.32,0.477c-0.136,0.136-0.294,0.242-0.477,0.32
	S11.708,16,11.5,16h-8c-0.208,0-0.403-0.039-0.586-0.117s-0.341-0.185-0.477-0.32c-0.136-0.135-0.242-0.294-0.32-0.477
	C2.039,14.904,2,14.708,2,14.5V3H1V2h4V1c0-0.141,0.026-0.271,0.078-0.391C5.13,0.49,5.202,0.384,5.293,0.293
	C5.384,0.202,5.489,0.13,5.609,0.078C5.729,0.026,5.859,0,6,0h3c0.141,0,0.271,0.026,0.391,0.078
	c0.12,0.052,0.226,0.124,0.316,0.215C9.798,0.384,9.87,0.49,9.922,0.609C9.974,0.729,10,0.859,10,1v1h4V3z M12,3H3v11.5
	c0,0.136,0.05,0.253,0.148,0.352C3.247,14.951,3.364,15,3.5,15h8c0.136,0,0.253-0.049,0.352-0.148C11.95,14.753,12,14.636,12,14.5V3
	z M6,13H5V5h1V13z M6,2h3V1H6V2z M8,13H7V5h1V13z M10,13H9V5h1V13z"/>
</svg>
