<?xml version="1.0" encoding="utf-8"?>
<!-- Generator: Adobe Illustrator 19.1.0, SVG Export Plug-In . SVG Version: 6.00 Build 0)  -->
<svg version="1.1" id="Layer_1" xmlns="http://www.w3.org/2000/svg" xmlns:xlink="http://www.w3.org/1999/xlink" x="0px" y="0px"
	 width="16px" height="16px" viewBox="0 0 16 16" style="enable-background:new 0 0 16 16;" xml:space="preserve">
<style type="text/css">
	.st0{fill:#323232;}
	.st1{fill:none;}
	.st2{clip-path:url(#SVGID_2_);}
	.st3{clip-path:url(#SVGID_4_);}
	.st4{clip-path:url(#SVGID_6_);fill:#4A4A4A;}
	.st5{clip-path:url(#SVGID_8_);fill:#4A4A4A;}
</style>
<path d="M10.5,0c0.505,0,0.992,0.065,1.461,0.195s0.906,0.315,1.312,0.555s0.777,0.527,1.113,0.863s0.624,0.707,0.863,1.113
	s0.425,0.844,0.555,1.312S16,4.995,16,5.5s-0.065,0.992-0.195,1.461s-0.315,0.906-0.555,1.312s-0.527,0.777-0.863,1.113
	s-0.707,0.624-1.113,0.863s-0.844,0.425-1.312,0.555S11.005,11,10.5,11c-0.651,0-1.274-0.109-1.871-0.328s-1.145-0.534-1.645-0.945
	l-6.133,6.125C0.752,15.95,0.635,16,0.5,16c-0.136,0-0.253-0.05-0.352-0.148C0.049,15.753,0,15.636,0,15.5s0.049-0.253,0.148-0.352
	l6.125-6.133c-0.412-0.5-0.727-1.048-0.945-1.645S5,6.151,5,5.5c0-0.505,0.065-0.992,0.195-1.461C5.325,3.57,5.51,3.133,5.75,2.727
	C5.989,2.32,6.277,1.949,6.613,1.613S7.32,0.989,7.727,0.75S8.57,0.325,9.039,0.195S9.995,0,10.5,0z M10.5,10
	c0.62,0,1.203-0.118,1.75-0.355s1.023-0.559,1.43-0.965s0.728-0.883,0.965-1.43S15,6.12,15,5.5s-0.118-1.203-0.355-1.75
	s-0.559-1.023-0.965-1.43s-0.883-0.728-1.43-0.965S11.12,1,10.5,1S9.297,1.118,8.75,1.355S7.727,1.914,7.32,2.32
	S6.592,3.203,6.355,3.75C6.118,4.297,6,4.88,6,5.5s0.118,1.203,0.355,1.75C6.592,7.797,6.914,8.273,7.32,8.68
	s0.883,0.728,1.43,0.965S9.88,10,10.5,10z"/>
</svg>
