<?xml version="1.0" encoding="utf-8"?>
<!-- Generator: Adobe Illustrator 19.1.0, SVG Export Plug-In . SVG Version: 6.00 Build 0)  -->
<svg version="1.1" id="Layer_1" xmlns="http://www.w3.org/2000/svg" xmlns:xlink="http://www.w3.org/1999/xlink" x="0px" y="0px"
	 width="16px" height="16px" viewBox="0 0 16 16" style="enable-background:new 0 0 16 16;" xml:space="preserve">
<style type="text/css">
	.st0{fill:#7A7A7A;}
	.st1{fill:#FF8B00;}
	.st2{fill:#FFFFFF;}
	.st3{fill:#EB1023;}
	.st4{fill:#0372C6;}
	.st5{fill:#BA131A;}
	.st6{fill:#7FBA00;}
	.st7{clip-path:url(#SVGID_2_);}
</style>
<path d="M12.977,7c0.417,0,0.809,0.078,1.176,0.234s0.688,0.368,0.961,0.637c0.273,0.268,0.49,0.585,0.648,0.949S16,9.578,16,10
	c0,0.417-0.078,0.806-0.234,1.168s-0.371,0.68-0.645,0.953s-0.592,0.488-0.957,0.645S13.411,13,13,13H4
	c-0.552,0-1.072-0.104-1.559-0.312s-0.911-0.493-1.273-0.855s-0.647-0.786-0.855-1.273S0,9.552,0,9s0.104-1.072,0.312-1.559
	S0.806,6.53,1.168,6.168s0.786-0.647,1.273-0.855S3.448,5,4,5c0.24,0,0.482,0.023,0.727,0.07c0.208-0.323,0.449-0.613,0.723-0.871
	s0.572-0.475,0.895-0.652S7.01,3.234,7.375,3.141S8.115,3,8.5,3c0.578,0,1.124,0.102,1.637,0.305s0.967,0.483,1.363,0.84
	s0.723,0.78,0.98,1.27S12.904,6.432,12.977,7z M13,12c0.276,0,0.535-0.052,0.777-0.156s0.454-0.247,0.637-0.43
	s0.326-0.395,0.43-0.637S15,10.276,15,10s-0.052-0.535-0.156-0.777s-0.247-0.454-0.43-0.637s-0.395-0.326-0.637-0.43S13.276,8,13,8
	h-1V7.5c0-0.484-0.091-0.939-0.273-1.363s-0.432-0.796-0.75-1.113s-0.689-0.568-1.113-0.75S8.984,4,8.5,4
	C8.135,4,7.784,4.055,7.445,4.164s-0.65,0.263-0.934,0.461S5.977,5.061,5.758,5.34S5.365,5.93,5.234,6.273C4.844,6.091,4.432,6,4,6
	C3.583,6,3.194,6.078,2.832,6.234s-0.68,0.371-0.953,0.645S1.391,7.471,1.234,7.836C1.078,8.201,1,8.589,1,9
	c0,0.417,0.078,0.806,0.234,1.168s0.371,0.68,0.645,0.953s0.591,0.488,0.953,0.645S3.583,12,4,12H13z"/>
</svg>
