<?xml version="1.0" encoding="utf-8"?>
<!-- Generator: Adobe Illustrator 19.1.0, SVG Export Plug-In . SVG Version: 6.00 Build 0)  -->
<svg version="1.1" id="Layer_1" xmlns="http://www.w3.org/2000/svg" xmlns:xlink="http://www.w3.org/1999/xlink" x="0px" y="0px"
	 width="16px" height="16px" viewBox="0 0 16 16" style="enable-background:new 0 0 16 16;" xml:space="preserve">
<style type="text/css">
	.st0{fill:#323232;}
	.st1{fill:none;}
	.st2{clip-path:url(#SVGID_2_);}
	.st3{clip-path:url(#SVGID_4_);}
	.st4{clip-path:url(#SVGID_6_);fill:#4A4A4A;}
	.st5{clip-path:url(#SVGID_8_);fill:#4A4A4A;}
</style>
<path d="M13.5,6c0.344,0,0.667,0.066,0.969,0.199s0.566,0.312,0.793,0.539s0.406,0.491,0.539,0.793S16,8.156,16,8.5
	s-0.066,0.668-0.199,0.973s-0.312,0.57-0.539,0.797s-0.491,0.405-0.793,0.535S13.844,11,13.5,11h-2
	c-0.297,0-0.581-0.049-0.852-0.148s-0.514-0.237-0.73-0.414s-0.4-0.388-0.551-0.633S9.109,9.292,9.047,9H6.953
	c-0.062,0.292-0.169,0.56-0.32,0.805s-0.335,0.456-0.551,0.633s-0.46,0.315-0.73,0.414S4.797,11,4.5,11h-2
	c-0.344,0-0.668-0.065-0.973-0.195s-0.57-0.309-0.797-0.535S0.326,9.777,0.195,9.473S0,8.844,0,8.5s0.065-0.667,0.195-0.969
	S0.504,6.965,0.73,6.738s0.492-0.406,0.797-0.539S2.156,6,2.5,6h2c0.297,0,0.581,0.049,0.852,0.148s0.514,0.237,0.73,0.414
	s0.4,0.388,0.551,0.633S6.891,7.708,6.953,8h2.094c0.062-0.292,0.169-0.56,0.32-0.805S9.702,6.74,9.918,6.562s0.46-0.315,0.73-0.414
	S11.203,6,11.5,6H13.5z M4.5,10c0.156,0,0.309-0.023,0.457-0.07s0.285-0.115,0.41-0.203S5.602,9.533,5.695,9.41S5.862,9.151,5.914,9
	H4.5C4.365,9,4.247,8.951,4.148,8.852S4,8.635,4,8.5s0.049-0.253,0.148-0.352S4.365,8,4.5,8h1.414
	C5.862,7.849,5.789,7.712,5.695,7.59S5.492,7.362,5.367,7.273S5.105,7.117,4.957,7.07S4.656,7,4.5,7h-2
	C2.292,7,2.096,7.039,1.914,7.117s-0.341,0.185-0.477,0.32s-0.242,0.294-0.32,0.477C1.039,8.096,1,8.292,1,8.5
	s0.039,0.404,0.117,0.586s0.185,0.341,0.32,0.477s0.294,0.242,0.477,0.32S2.292,10,2.5,10H4.5z M13.5,10
	c0.208,0,0.404-0.039,0.586-0.117s0.341-0.185,0.477-0.32s0.242-0.294,0.32-0.477S15,8.708,15,8.5s-0.039-0.404-0.117-0.586
	c-0.078-0.182-0.185-0.341-0.32-0.477s-0.294-0.242-0.477-0.32S13.708,7,13.5,7h-2c-0.156,0-0.309,0.023-0.457,0.07
	s-0.285,0.115-0.41,0.203s-0.234,0.194-0.328,0.316S10.138,7.849,10.086,8H11.5c0.135,0,0.253,0.049,0.352,0.148S12,8.365,12,8.5
	s-0.049,0.253-0.148,0.352S11.635,9,11.5,9h-1.414c0.052,0.151,0.125,0.288,0.219,0.41s0.203,0.228,0.328,0.316
	s0.262,0.156,0.41,0.203S11.344,10,11.5,10H13.5z"/>
</svg>
