<?xml version="1.0" encoding="utf-8"?>
<!-- Generator: Adobe Illustrator 19.1.0, SVG Export Plug-In . SVG Version: 6.00 Build 0)  -->
<svg version="1.1" id="Layer_1" xmlns="http://www.w3.org/2000/svg" xmlns:xlink="http://www.w3.org/1999/xlink" x="0px" y="0px"
	 width="16px" height="16px" viewBox="0 0 16 16" style="enable-background:new 0 0 16 16;" xml:space="preserve">
<style type="text/css">
	.st0{fill:#323232;}
	.st1{fill:none;}
	.st2{clip-path:url(#SVGID_2_);}
	.st3{clip-path:url(#SVGID_4_);}
	.st4{clip-path:url(#SVGID_6_);fill:#4A4A4A;}
	.st5{clip-path:url(#SVGID_8_);fill:#4A4A4A;}
</style>
<path d="M15.078,1.719c0.136,0.234,0.259,0.458,0.371,0.672s0.21,0.43,0.293,0.648s0.147,0.446,0.191,0.684S16,4.219,16,4.5
	c0,0.411-0.054,0.809-0.16,1.191s-0.258,0.741-0.453,1.074S14.956,7.403,14.68,7.68s-0.581,0.512-0.914,0.707
	s-0.691,0.347-1.074,0.453S11.911,9,11.5,9c-0.12,0-0.241-0.005-0.363-0.016s-0.243-0.026-0.363-0.047l-6.297,6.297
	c-0.25,0.25-0.535,0.44-0.855,0.57S2.966,16,2.617,16c-0.359,0-0.698-0.069-1.016-0.207S1.007,15.468,0.77,15.23
	s-0.425-0.515-0.562-0.832S0,13.742,0,13.383c0-0.349,0.065-0.684,0.195-1.004s0.32-0.605,0.57-0.855l6.297-6.297
	c-0.021-0.12-0.036-0.241-0.047-0.363S7,4.62,7,4.5c0-0.411,0.054-0.809,0.16-1.191s0.258-0.741,0.453-1.074S8.044,1.597,8.32,1.32
	s0.581-0.512,0.914-0.707s0.691-0.347,1.074-0.453S11.089,0,11.5,0c0.281,0,0.54,0.022,0.777,0.066s0.465,0.108,0.684,0.191
	s0.435,0.181,0.648,0.293s0.438,0.235,0.672,0.371L11.203,4L12,4.797L15.078,1.719z M11.5,8c0.484,0,0.938-0.093,1.363-0.277
	s0.794-0.435,1.109-0.75s0.565-0.685,0.75-1.109S15,4.984,15,4.5c0-0.38-0.062-0.747-0.188-1.102L12,6.203L9.797,4l2.805-2.812
	C12.247,1.062,11.88,1,11.5,1c-0.484,0-0.938,0.093-1.363,0.277s-0.794,0.435-1.109,0.75s-0.565,0.685-0.75,1.109S8,4.016,8,4.5
	c0,0.183,0.016,0.359,0.047,0.531s0.067,0.344,0.109,0.516l-6.68,6.688c-0.151,0.151-0.269,0.325-0.352,0.523S1,13.164,1,13.383
	s0.043,0.427,0.129,0.625s0.202,0.37,0.348,0.516s0.317,0.262,0.516,0.348S2.398,15,2.617,15s0.427-0.042,0.625-0.125
	s0.372-0.2,0.523-0.352l6.688-6.68c0.172,0.042,0.344,0.078,0.516,0.109S11.317,8,11.5,8z"/>
</svg>
