<?xml version="1.0" encoding="utf-8"?>
<!-- Generator: Adobe Illustrator 19.1.0, SVG Export Plug-In . SVG Version: 6.00 Build 0)  -->
<svg version="1.1" id="Layer_1" xmlns="http://www.w3.org/2000/svg" xmlns:xlink="http://www.w3.org/1999/xlink" x="0px" y="0px"
	 width="16px" height="16px" viewBox="0 0 16 16" style="enable-background:new 0 0 16 16;" xml:space="preserve">
<style type="text/css">
	.st0{fill:#7A7A7A;}
	.st1{fill:#FF8B00;}
	.st2{fill:#FFFFFF;}
	.st3{fill:#EB1023;}
	.st4{fill:#0372C6;}
	.st5{fill:#BA131A;}
	.st6{fill:#7FBA00;}
	.st7{clip-path:url(#SVGID_2_);}
</style>
<path d="M8,0c0.736,0,1.445,0.095,2.126,0.285c0.68,0.19,1.318,0.459,1.912,0.808c0.594,0.349,1.134,0.766,1.619,1.251
	c0.485,0.485,0.902,1.025,1.251,1.619c0.348,0.594,0.617,1.232,0.808,1.912C15.905,6.555,16,7.264,16,8s-0.095,1.445-0.285,2.126
	c-0.19,0.681-0.459,1.318-0.808,1.912c-0.349,0.594-0.766,1.134-1.251,1.619c-0.485,0.485-1.025,0.903-1.619,1.251
	c-0.594,0.349-1.232,0.618-1.912,0.808C9.445,15.905,8.736,16,8,16s-1.446-0.095-2.126-0.285c-0.681-0.189-1.318-0.459-1.912-0.808
	c-0.594-0.348-1.134-0.766-1.619-1.251c-0.485-0.485-0.903-1.025-1.251-1.619c-0.349-0.594-0.618-1.231-0.808-1.912
	C0.094,9.445,0,8.736,0,8s0.094-1.445,0.285-2.126c0.189-0.68,0.458-1.318,0.808-1.912C1.44,3.368,1.858,2.828,2.343,2.343
	s1.025-0.902,1.619-1.251c0.594-0.348,1.231-0.618,1.912-0.808C6.554,0.095,7.264,0,8,0z M8,14.996c0.641,0,1.26-0.084,1.858-0.251
	c0.596-0.167,1.155-0.403,1.674-0.707c0.519-0.304,0.99-0.668,1.414-1.092c0.424-0.424,0.788-0.895,1.092-1.414
	c0.303-0.519,0.54-1.076,0.707-1.674C14.912,9.261,14.996,8.642,14.996,8c0-0.641-0.084-1.26-0.251-1.858
	c-0.167-0.597-0.404-1.155-0.707-1.674c-0.304-0.519-0.668-0.99-1.092-1.414c-0.425-0.424-0.895-0.788-1.414-1.092
	c-0.519-0.304-1.077-0.54-1.674-0.707C9.26,1.088,8.641,1.004,8,1.004c-0.642,0-1.262,0.084-1.858,0.251
	C5.545,1.423,4.987,1.658,4.469,1.962C3.95,2.267,3.478,2.631,3.054,3.054C2.63,3.479,2.266,3.95,1.962,4.469
	c-0.304,0.519-0.54,1.077-0.707,1.674C1.088,6.74,1.004,7.359,1.004,8c0,0.642,0.084,1.261,0.251,1.858
	c0.167,0.597,0.403,1.155,0.707,1.674c0.303,0.519,0.667,0.991,1.092,1.414c0.424,0.424,0.895,0.788,1.414,1.092
	c0.519,0.304,1.076,0.54,1.674,0.707C6.738,14.912,7.358,14.996,8,14.996z M8,3.715c0.368,0,0.713,0.071,1.038,0.213
	c0.323,0.142,0.607,0.335,0.849,0.577c0.243,0.243,0.435,0.526,0.577,0.849c0.142,0.324,0.213,0.669,0.213,1.038
	c0,0.335-0.053,0.627-0.159,0.874c-0.107,0.248-0.238,0.473-0.397,0.674C9.962,8.142,9.791,8.325,9.607,8.49
	C9.423,8.654,9.251,8.819,9.092,8.983C8.933,9.148,8.8,9.324,8.695,9.51c-0.107,0.187-0.159,0.397-0.159,0.632v0.536H7.464v-0.536
	c0-0.335,0.052-0.626,0.159-0.874C7.729,9.02,7.862,8.795,8.021,8.594C8.18,8.393,8.351,8.211,8.536,8.046
	C8.72,7.882,8.891,7.717,9.05,7.552c0.159-0.164,0.291-0.339,0.397-0.523c0.106-0.184,0.159-0.396,0.159-0.636
	c0-0.223-0.042-0.432-0.126-0.628c-0.084-0.195-0.199-0.365-0.343-0.51C8.993,5.11,8.822,4.996,8.628,4.912
	C8.432,4.828,8.223,4.787,8,4.787c-0.224,0-0.433,0.042-0.628,0.126C7.177,4.996,7.006,5.11,6.862,5.255
	c-0.145,0.145-0.259,0.315-0.343,0.51C6.435,5.961,6.393,6.171,6.393,6.393H5.322c0-0.368,0.069-0.714,0.209-1.038
	c0.139-0.323,0.331-0.607,0.573-0.849c0.243-0.243,0.527-0.435,0.854-0.577C7.285,3.787,7.632,3.715,8,3.715z M7.464,11.749h1.071
	v1.071H7.464V11.749z"/>
</svg>
