<?xml version="1.0" encoding="utf-8"?>
<!-- Generator: Adobe Illustrator 19.1.0, SVG Export Plug-In . SVG Version: 6.00 Build 0)  -->
<svg version="1.1" id="Layer_1" xmlns="http://www.w3.org/2000/svg" xmlns:xlink="http://www.w3.org/1999/xlink" x="0px" y="0px"
	 width="16px" height="16px" viewBox="0 0 16 16" style="enable-background:new 0 0 16 16;" xml:space="preserve">
<style type="text/css">
	.st0{fill:#323232;}
	.st1{fill:none;}
	.st2{clip-path:url(#SVGID_2_);}
	.st3{clip-path:url(#SVGID_4_);}
	.st4{clip-path:url(#SVGID_6_);fill:#4A4A4A;}
	.st5{clip-path:url(#SVGID_8_);fill:#4A4A4A;}
</style>
<path d="M10.359,9.406c0.698,0.266,1.332,0.616,1.902,1.051s1.059,0.938,1.465,1.508s0.72,1.197,0.941,1.879S15,15.245,15,16h-1
	c0-0.828-0.158-1.605-0.473-2.332s-0.745-1.362-1.289-1.906s-1.18-0.974-1.906-1.289S8.828,10,8,10s-1.605,0.158-2.332,0.473
	s-1.362,0.745-1.906,1.289s-0.974,1.18-1.289,1.906S2,15.172,2,16H1c0-0.755,0.111-1.474,0.332-2.156s0.535-1.309,0.941-1.879
	s0.895-1.073,1.465-1.508s1.204-0.785,1.902-1.051C4.995,9.057,4.448,8.589,4,8C3.75,8,3.505,7.979,3.266,7.938
	S2.812,7.82,2.625,7.711S2.286,7.449,2.172,7.254S2,6.807,2,6.5v-3c0-0.208,0.039-0.404,0.117-0.586s0.185-0.341,0.32-0.477
	s0.294-0.242,0.477-0.32S3.292,2,3.5,2c0.156,0,0.305,0.023,0.445,0.07C4.18,1.747,4.448,1.458,4.75,1.203S5.378,0.73,5.727,0.551
	s0.715-0.316,1.098-0.41S7.599,0,8,0c0.693,0,1.342,0.13,1.949,0.391s1.137,0.617,1.59,1.07s0.81,0.983,1.07,1.59S13,4.307,13,5
	c0,0.458-0.061,0.905-0.184,1.34s-0.298,0.844-0.527,1.227s-0.507,0.732-0.832,1.047S10.766,9.193,10.359,9.406z M3,6.5
	c0,0.135,0.049,0.253,0.148,0.352S3.365,7,3.5,7H4V3.5c0-0.135-0.049-0.253-0.148-0.352S3.635,3,3.5,3S3.247,3.049,3.148,3.148
	S3,3.365,3,3.5V6.5z M5.352,8c0.365,0.323,0.775,0.57,1.23,0.742S7.51,9,8,9c0.552,0,1.07-0.105,1.555-0.316s0.908-0.497,1.27-0.859
	c0.362-0.362,0.648-0.785,0.859-1.27S12,5.552,12,5s-0.105-1.07-0.316-1.555s-0.497-0.908-0.859-1.27s-0.785-0.648-1.27-0.859
	S8.552,1,8,1C7.677,1,7.362,1.038,7.055,1.113S6.453,1.299,6.172,1.445S5.63,1.767,5.391,1.973S4.938,2.411,4.75,2.672
	c0.078,0.12,0.139,0.289,0.184,0.508s0.076,0.464,0.094,0.734s0.027,0.555,0.027,0.852S5.051,5.352,5.043,5.633
	S5.026,6.174,5.016,6.414S5,6.849,5,7h2.5c0.135,0,0.253,0.049,0.352,0.148S8,7.365,8,7.5S7.951,7.753,7.852,7.852S7.635,8,7.5,8
	H5.352z"/>
</svg>
