<?xml version="1.0" encoding="utf-8"?>
<!-- Generator: Adobe Illustrator 19.1.0, SVG Export Plug-In . SVG Version: 6.00 Build 0)  -->
<svg version="1.1" id="Layer_1" xmlns="http://www.w3.org/2000/svg" xmlns:xlink="http://www.w3.org/1999/xlink" x="0px" y="0px"
	 width="16px" height="16px" viewBox="0 0 16 16" style="enable-background:new 0 0 16 16;" xml:space="preserve">
<style type="text/css">
	.st0{fill:#323232;}
	.st1{fill:none;}
	.st2{clip-path:url(#SVGID_2_);}
	.st3{clip-path:url(#SVGID_4_);}
	.st4{clip-path:url(#SVGID_6_);fill:#4A4A4A;}
	.st5{clip-path:url(#SVGID_8_);fill:#4A4A4A;}
</style>
<path d="M16,8c0,0.734-0.095,1.442-0.285,2.125s-0.458,1.32-0.805,1.914s-0.763,1.134-1.25,1.621s-1.027,0.903-1.621,1.25
	s-1.231,0.614-1.914,0.805S8.734,16,8,16s-1.442-0.095-2.125-0.285s-1.32-0.458-1.914-0.805s-1.134-0.763-1.621-1.25
	s-0.903-1.027-1.25-1.621s-0.614-1.23-0.805-1.91S0,8.739,0,8c0-0.724,0.095-1.43,0.285-2.117s0.464-1.336,0.82-1.945
	s0.79-1.164,1.301-1.664S3.489,1.349,4.125,1H2V0h4v4H5V1.672C4.391,1.964,3.84,2.329,3.348,2.77S2.435,3.706,2.086,4.258
	S1.469,5.403,1.281,6.039S1,7.328,1,8c0,0.641,0.083,1.259,0.25,1.855s0.402,1.153,0.707,1.672s0.671,0.991,1.098,1.418
	s0.899,0.793,1.418,1.098s1.074,0.54,1.668,0.707S7.354,15,8,15c0.641,0,1.259-0.083,1.855-0.25s1.153-0.402,1.672-0.707
	s0.991-0.671,1.418-1.098s0.793-0.899,1.098-1.418s0.54-1.074,0.707-1.668S15,8.646,15,8H16z"/>
<path d="M13.516,7H10V6.566c0-0.177,0.024-0.343,0.074-0.498s0.116-0.301,0.199-0.438s0.181-0.266,0.293-0.387
	s0.231-0.238,0.359-0.352s0.258-0.223,0.391-0.328s0.263-0.212,0.391-0.318c0.12-0.102,0.229-0.201,0.328-0.299
	s0.184-0.198,0.254-0.303s0.125-0.214,0.164-0.33s0.059-0.241,0.059-0.377c0-0.148-0.022-0.278-0.068-0.389
	s-0.109-0.203-0.191-0.277s-0.179-0.13-0.291-0.168s-0.234-0.057-0.367-0.057c-0.229,0-0.462,0.054-0.699,0.16
	s-0.465,0.267-0.684,0.48V1.816c0.114-0.086,0.23-0.161,0.348-0.225s0.238-0.117,0.363-0.16s0.257-0.075,0.395-0.096
	s0.285-0.031,0.441-0.031c0.253,0,0.481,0.033,0.688,0.1s0.382,0.164,0.527,0.293s0.259,0.29,0.338,0.482s0.119,0.414,0.119,0.664
	c0,0.227-0.028,0.431-0.084,0.611s-0.136,0.35-0.238,0.506s-0.228,0.305-0.373,0.445s-0.309,0.285-0.488,0.434
	c-0.151,0.122-0.302,0.241-0.451,0.357s-0.284,0.229-0.404,0.34S11.174,5.759,11.1,5.869s-0.111,0.222-0.111,0.334v0.02h2.527V7z"/>
</svg>
