<?xml version="1.0" encoding="utf-8"?>
<!-- Generator: Adobe Illustrator 19.1.0, SVG Export Plug-In . SVG Version: 6.00 Build 0)  -->
<svg version="1.1" id="Layer_1" xmlns="http://www.w3.org/2000/svg" xmlns:xlink="http://www.w3.org/1999/xlink" x="0px" y="0px"
	 width="16px" height="16px" viewBox="0 0 16 16" style="enable-background:new 0 0 16 16;" xml:space="preserve">
<style type="text/css">
	.st0{fill:#323232;}
	.st1{fill:none;}
	.st2{clip-path:url(#SVGID_2_);}
	.st3{clip-path:url(#SVGID_4_);}
	.st4{clip-path:url(#SVGID_6_);fill:#4A4A4A;}
	.st5{clip-path:url(#SVGID_8_);fill:#4A4A4A;}
</style>
<path d="M7.978,3.8c0.603,0,1.184,0.126,1.743,0.379L10.1,3.333C9.769,3.183,9.428,3.07,9.076,2.994
	C8.723,2.919,8.365,2.881,8,2.881c-0.476,0-0.933,0.061-1.371,0.182S5.783,3.356,5.404,3.578S4.68,4.065,4.369,4.376
	C4.058,4.687,3.79,5.032,3.567,5.411C3.343,5.791,3.17,6.199,3.049,6.636S2.867,7.528,2.867,8c0,0.685,0.129,1.34,0.386,1.965
	s0.63,1.18,1.116,1.666l0.664-0.664c-0.394-0.394-0.698-0.847-0.911-1.36C3.907,9.095,3.8,8.559,3.8,8
	c0-0.384,0.05-0.755,0.149-1.112c0.1-0.357,0.241-0.691,0.423-1.003c0.182-0.311,0.4-0.594,0.653-0.849
	c0.253-0.255,0.535-0.475,0.846-0.66C6.182,4.191,6.515,4.049,6.87,3.949S7.594,3.8,7.978,3.8z"/>
<path d="M12.667,5.9l-0.846,0.379c0.253,0.559,0.379,1.14,0.379,1.743c0,0.559-0.107,1.091-0.321,1.597
	c-0.214,0.506-0.518,0.955-0.911,1.349l0.664,0.664c0.481-0.481,0.849-1.037,1.105-1.666c0.255-0.63,0.383-1.285,0.383-1.965
	c0-0.365-0.038-0.723-0.113-1.076C12.93,6.572,12.817,6.231,12.667,5.9z"/>
<path d="M14.748,6.144c-0.168-0.595-0.403-1.153-0.707-1.673s-0.668-0.993-1.094-1.418s-0.898-0.79-1.418-1.094
	c-0.52-0.304-1.078-0.54-1.673-0.707C9.26,1.084,8.642,1,8,1S6.74,1.084,6.144,1.252C5.549,1.419,4.991,1.655,4.471,1.959
	c-0.52,0.304-0.993,0.668-1.418,1.094s-0.79,0.898-1.094,1.418s-0.54,1.078-0.707,1.673C1.084,6.74,1,7.358,1,8
	s0.084,1.26,0.252,1.856c0.168,0.595,0.403,1.153,0.707,1.673s0.668,0.993,1.094,1.418s0.898,0.79,1.418,1.094
	s1.078,0.54,1.673,0.707C6.74,14.916,7.358,15,8,15s1.26-0.084,1.856-0.252c0.596-0.168,1.153-0.403,1.673-0.707
	s0.993-0.668,1.418-1.094s0.79-0.898,1.094-1.418s0.54-1.078,0.707-1.673C14.916,9.26,15,8.642,15,8S14.916,6.74,14.748,6.144z
	 M13.848,9.611c-0.146,0.515-0.35,0.998-0.612,1.447s-0.578,0.859-0.948,1.229s-0.779,0.685-1.229,0.948s-0.932,0.467-1.447,0.612
	S8.559,14.067,8,14.067s-1.096-0.073-1.611-0.219s-0.998-0.35-1.447-0.612s-0.859-0.578-1.229-0.948s-0.685-0.779-0.948-1.229
	s-0.467-0.932-0.612-1.447C2.006,9.096,1.933,8.559,1.933,8s0.073-1.096,0.219-1.611c0.146-0.515,0.35-0.998,0.612-1.447
	c0.263-0.45,0.578-0.859,0.948-1.229s0.779-0.685,1.229-0.948c0.45-0.263,0.932-0.467,1.447-0.613C6.904,2.006,7.441,1.933,8,1.933
	s1.096,0.073,1.611,0.219c0.515,0.146,0.998,0.35,1.447,0.613c0.45,0.262,0.859,0.578,1.229,0.948s0.685,0.779,0.948,1.229
	c0.263,0.45,0.467,0.932,0.612,1.447C13.994,6.904,14.067,7.441,14.067,8S13.994,9.096,13.848,9.611z"/>
<path d="M11.945,4.711l-0.656-0.656L8.605,6.739l0.007,0.007C8.418,6.649,8.214,6.6,8,6.6c-0.194,0-0.377,0.036-0.547,0.109
	S7.135,6.882,7.008,7.008C6.882,7.135,6.782,7.283,6.709,7.453C6.636,7.623,6.6,7.806,6.6,8s0.036,0.377,0.109,0.547
	c0.073,0.17,0.173,0.318,0.299,0.445c0.126,0.126,0.275,0.226,0.445,0.299C7.623,9.364,7.806,9.4,8,9.4s0.377-0.036,0.547-0.109
	c0.17-0.073,0.318-0.173,0.445-0.299c0.126-0.126,0.226-0.275,0.299-0.445C9.364,8.377,9.4,8.194,9.4,8
	c0-0.214-0.049-0.418-0.146-0.612l0.007,0.007L11.945,4.711z M8.328,8.328C8.236,8.42,8.126,8.467,8,8.467S7.764,8.42,7.672,8.328
	S7.533,8.126,7.533,8S7.58,7.764,7.672,7.672S7.874,7.533,8,7.533S8.236,7.58,8.328,7.672S8.467,7.874,8.467,8
	S8.42,8.236,8.328,8.328z"/>
</svg>
