<?xml version="1.0" encoding="utf-8"?>
<!-- Generator: Adobe Illustrator 19.1.0, SVG Export Plug-In . SVG Version: 6.00 Build 0)  -->
<svg version="1.1" id="Layer_1" xmlns="http://www.w3.org/2000/svg" xmlns:xlink="http://www.w3.org/1999/xlink" x="0px" y="0px"
	 width="16px" height="16px" viewBox="0 0 16 16" style="enable-background:new 0 0 16 16;" xml:space="preserve">
<style type="text/css">
	.st0{fill:#323232;}
	.st1{fill:none;}
	.st2{clip-path:url(#SVGID_2_);}
	.st3{clip-path:url(#SVGID_4_);}
	.st4{clip-path:url(#SVGID_6_);fill:#4A4A4A;}
	.st5{clip-path:url(#SVGID_8_);fill:#4A4A4A;}
</style>
<path d="M13,4.414c0.458,0.203,0.872,0.462,1.242,0.777s0.685,0.672,0.945,1.07s0.461,0.829,0.602,1.293C15.93,8.018,16,8.5,16,9
	c0,0.693-0.13,1.342-0.391,1.949s-0.617,1.137-1.07,1.59s-0.983,0.81-1.59,1.07S11.693,14,11,14c-0.542,0-1.069-0.085-1.582-0.254
	S8.432,13.328,8,13l-2,2L0,9l7-7h6V4.414z M6,13.586l6-6V5.125c-0.094-0.021-0.208-0.035-0.344-0.043s-0.277-0.016-0.426-0.023
	s-0.296-0.02-0.441-0.035s-0.277-0.043-0.395-0.082s-0.212-0.092-0.285-0.16S10,4.62,10,4.5c0-0.135,0.049-0.253,0.148-0.352
	S10.365,4,10.5,4c0.255,0,0.507,0.003,0.754,0.008S11.75,4.044,12,4.102V3H7.414l-6,6L6,13.586z M11,13
	c0.552,0,1.07-0.105,1.555-0.316s0.908-0.497,1.27-0.859s0.648-0.785,0.859-1.27S15,9.552,15,9c0-0.354-0.047-0.701-0.141-1.039
	c-0.094-0.339-0.227-0.658-0.398-0.957S14.079,6.43,13.832,6.18S13.307,5.716,13,5.539V8l-4.281,4.281
	c0.333,0.234,0.695,0.413,1.086,0.535S10.594,13,11,13z"/>
</svg>
