<?xml version="1.0" encoding="utf-8"?>
<!-- Generator: Adobe Illustrator 19.1.0, SVG Export Plug-In . SVG Version: 6.00 Build 0)  -->
<svg version="1.1" id="Layer_1" xmlns="http://www.w3.org/2000/svg" xmlns:xlink="http://www.w3.org/1999/xlink" x="0px" y="0px"
	 width="16px" height="16px" viewBox="0 0 16 16" style="enable-background:new 0 0 16 16;" xml:space="preserve">
<style type="text/css">
	.st0{fill:#323232;}
	.st1{fill:none;}
	.st2{clip-path:url(#SVGID_2_);}
	.st3{clip-path:url(#SVGID_4_);}
	.st4{clip-path:url(#SVGID_6_);fill:#4A4A4A;}
	.st5{clip-path:url(#SVGID_8_);fill:#4A4A4A;}
</style>
<path d="M0,3V0h3v3H0z M0,7V4h3v3H0z M0,11V8h3v3H0z M0,15v-3h3v3H0z M1,1v1h1V1H1z M1,5v1h1V5H1z M1,9v1h1V9H1z M1,13v1h1v-1H1z
	 M5,1h11v1H5V1z M5,6V5h9v1H5z M12,9v1H5V9H12z M5,14v-1h9v1H5z"/>
</svg>
