<?xml version="1.0" encoding="utf-8"?>
<!-- Generator: Adobe Illustrator 19.1.0, SVG Export Plug-In . SVG Version: 6.00 Build 0)  -->
<svg version="1.1" id="Layer_1" xmlns="http://www.w3.org/2000/svg" xmlns:xlink="http://www.w3.org/1999/xlink" x="0px" y="0px"
	 width="16px" height="16px" viewBox="0 0 16 16" style="enable-background:new 0 0 16 16;" xml:space="preserve">
<style type="text/css">
	.st0{fill:#323232;}
	.st1{fill:none;}
	.st2{clip-path:url(#SVGID_2_);}
	.st3{clip-path:url(#SVGID_4_);}
	.st4{clip-path:url(#SVGID_6_);fill:#4A4A4A;}
	.st5{clip-path:url(#SVGID_8_);fill:#4A4A4A;}
</style>
<path d="M4.062,14c-0.141,0-0.277-0.022-0.407-0.065s-0.25-0.105-0.359-0.185s-0.205-0.174-0.287-0.284s-0.146-0.23-0.191-0.362
	c-0.036-0.109-0.09-0.265-0.161-0.468s-0.152-0.435-0.243-0.697s-0.19-0.543-0.297-0.844S1.905,10.49,1.8,10.182
	S1.595,9.574,1.499,9.28S1.318,8.715,1.243,8.466S1.108,8.004,1.065,7.824C1.022,7.644,1,7.515,1,7.438
	c0-0.182,0.034-0.353,0.103-0.513s0.163-0.299,0.284-0.417s0.261-0.212,0.42-0.28s0.328-0.103,0.506-0.103h3.035
	c-0.023-0.196-0.059-0.373-0.109-0.53s-0.107-0.31-0.171-0.458S4.939,4.843,4.873,4.7S4.746,4.403,4.691,4.242
	s-0.1-0.338-0.137-0.53S4.5,3.304,4.5,3.062c0-0.173,0.021-0.338,0.062-0.496S4.666,2.271,4.753,2.15s0.199-0.218,0.338-0.291
	S5.398,1.75,5.594,1.75c0.164,0,0.303,0.032,0.417,0.096s0.228,0.153,0.342,0.267l3.89,3.883c0.036,0.036,0.123,0.066,0.26,0.089
	s0.308,0.04,0.513,0.051s0.435,0.019,0.69,0.024s0.517,0.007,0.786,0.007s0.535-0.002,0.8-0.007s0.51-0.009,0.738-0.014
	s0.427-0.009,0.598-0.014S14.923,6.125,15,6.125V14H4.062z M14.125,7H11.5v6.125h2.625V7z M2.312,7C2.194,7,2.091,7.043,2.005,7.13
	c-0.087,0.087-0.13,0.189-0.13,0.308c0,0.023,0.023,0.111,0.068,0.263S2.05,8.049,2.128,8.289s0.165,0.508,0.263,0.807
	S2.59,9.7,2.695,10.015s0.21,0.625,0.314,0.933s0.201,0.59,0.287,0.848s0.161,0.477,0.222,0.66s0.104,0.305,0.126,0.369
	c0.032,0.091,0.087,0.164,0.164,0.219s0.162,0.082,0.253,0.082h6.562V7c-0.196,0-0.377-0.028-0.543-0.085S9.761,6.758,9.62,6.617
	C9.543,6.54,9.433,6.428,9.292,6.282S8.989,5.969,8.807,5.78S8.426,5.387,8.212,5.168c-0.214-0.219-0.43-0.439-0.646-0.66
	S7.138,4.072,6.93,3.862c-0.207-0.21-0.4-0.4-0.578-0.571S6.02,2.976,5.888,2.857s-0.23-0.196-0.294-0.232
	c-0.064,0-0.116,0.021-0.157,0.062S5.375,2.78,5.375,2.844c0,0.264,0.022,0.504,0.065,0.718s0.097,0.416,0.161,0.605
	c0.064,0.189,0.134,0.373,0.212,0.55s0.148,0.36,0.212,0.547s0.117,0.385,0.161,0.595S6.25,6.303,6.25,6.562V7H2.312z"/>
</svg>
