<?xml version="1.0" encoding="utf-8"?>
<!-- Generator: Adobe Illustrator 19.1.0, SVG Export Plug-In . SVG Version: 6.00 Build 0)  -->
<svg version="1.1" id="Layer_1" xmlns="http://www.w3.org/2000/svg" xmlns:xlink="http://www.w3.org/1999/xlink" x="0px" y="0px"
	 width="16px" height="16px" viewBox="0 0 16 16" style="enable-background:new 0 0 16 16;" xml:space="preserve">
<style type="text/css">
	.st0{fill:#323232;}
	.st1{fill:none;}
	.st2{clip-path:url(#SVGID_2_);}
	.st3{clip-path:url(#SVGID_4_);}
	.st4{clip-path:url(#SVGID_6_);fill:#4A4A4A;}
	.st5{clip-path:url(#SVGID_8_);fill:#4A4A4A;}
</style>
<path d="M12.508,1.395c0.719,0.497,1.337,1.086,1.855,1.766s0.921,1.432,1.207,2.258S16,7.104,16,8c0,0.734-0.095,1.443-0.285,2.125
	s-0.458,1.32-0.805,1.914s-0.763,1.134-1.25,1.621s-1.027,0.904-1.621,1.25s-1.232,0.615-1.914,0.805S8.734,16,8,16
	s-1.443-0.095-2.125-0.285s-1.32-0.458-1.914-0.805s-1.134-0.763-1.621-1.25s-0.904-1.027-1.25-1.621s-0.615-1.23-0.805-1.91
	S0,8.74,0,8c0-0.729,0.096-1.438,0.289-2.125S0.757,4.54,1.113,3.934s0.79-1.159,1.301-1.656S3.5,1.354,4.141,1H2V0h4v4H5V1.68
	C4.391,1.971,3.84,2.337,3.348,2.777S2.435,3.712,2.086,4.262S1.469,5.404,1.281,6.039S1,7.328,1,8c0,0.641,0.083,1.259,0.25,1.855
	s0.402,1.154,0.707,1.672s0.671,0.991,1.098,1.418s0.9,0.793,1.418,1.098s1.074,0.54,1.668,0.707S7.354,15,8,15
	c0.641,0,1.259-0.083,1.855-0.25s1.154-0.402,1.672-0.707s0.991-0.671,1.418-1.098s0.793-0.9,1.098-1.418s0.54-1.074,0.707-1.668
	S15,8.646,15,8c0-0.781-0.126-1.534-0.379-2.258s-0.605-1.383-1.059-1.977s-0.993-1.108-1.621-1.543s-1.319-0.757-2.074-0.965
	l0.266-0.961C10.997,0.531,11.789,0.897,12.508,1.395z"/>
</svg>
