<?xml version="1.0" encoding="utf-8"?>
<!-- Generator: Adobe Illustrator 19.1.0, SVG Export Plug-In . SVG Version: 6.00 Build 0)  -->
<svg version="1.1" id="Layer_1" xmlns="http://www.w3.org/2000/svg" xmlns:xlink="http://www.w3.org/1999/xlink" x="0px" y="0px"
	 width="16px" height="16px" viewBox="0 0 16 16" style="enable-background:new 0 0 16 16;" xml:space="preserve">
<style type="text/css">
	.st0{fill:#323232;}
	.st1{fill:none;}
	.st2{clip-path:url(#SVGID_2_);}
	.st3{clip-path:url(#SVGID_4_);}
	.st4{clip-path:url(#SVGID_6_);fill:#4A4A4A;}
	.st5{clip-path:url(#SVGID_8_);fill:#4A4A4A;}
</style>
<path d="M7,10V9c0.396,0,0.774-0.045,1.137-0.137c0.362-0.091,0.681-0.237,0.957-0.438c0.276-0.2,0.496-0.458,0.66-0.773
	C9.918,7.337,10,6.953,10,6.5c0-0.344-0.066-0.667-0.199-0.969C9.668,5.229,9.488,4.965,9.262,4.738S8.771,4.332,8.469,4.199
	C8.167,4.066,7.844,4,7.5,4h-4C3.156,4,2.833,4.066,2.531,4.199C2.229,4.332,1.965,4.512,1.738,4.738S1.332,5.229,1.199,5.531
	C1.066,5.833,1,6.156,1,6.5c0,0.453,0.082,0.837,0.246,1.152C1.41,7.968,1.63,8.226,1.906,8.426
	c0.276,0.201,0.595,0.347,0.957,0.438C3.225,8.955,3.604,9,4,9v1H3.5c-0.484,0-0.939-0.092-1.363-0.277
	c-0.425-0.185-0.794-0.435-1.109-0.75c-0.315-0.315-0.565-0.685-0.75-1.109C0.092,7.439,0,6.984,0,6.5s0.092-0.938,0.277-1.363
	c0.185-0.424,0.435-0.794,0.75-1.109c0.315-0.315,0.685-0.565,1.109-0.75C2.561,3.093,3.016,3,3.5,3h4
	c0.484,0,0.938,0.093,1.363,0.277c0.424,0.185,0.794,0.435,1.109,0.75c0.315,0.315,0.565,0.685,0.75,1.109
	C10.907,5.562,11,6.016,11,6.5s-0.093,0.939-0.277,1.363c-0.185,0.425-0.435,0.794-0.75,1.109c-0.315,0.315-0.685,0.565-1.109,0.75
	C8.438,9.908,7.984,10,7.5,10H7z M12,6v1c0.396,0,0.774,0.046,1.137,0.137c0.362,0.091,0.681,0.237,0.957,0.438
	c0.276,0.201,0.496,0.458,0.66,0.773C14.918,8.663,15,9.047,15,9.5c0,0.344-0.066,0.667-0.199,0.969
	c-0.133,0.302-0.312,0.566-0.539,0.793s-0.491,0.406-0.793,0.539C13.167,11.934,12.844,12,12.5,12h-4
	c-0.344,0-0.667-0.066-0.969-0.199c-0.302-0.133-0.566-0.312-0.793-0.539s-0.406-0.491-0.539-0.793C6.066,10.167,6,9.844,6,9.5
	c0-0.453,0.082-0.837,0.246-1.152C6.41,8.033,6.63,7.775,6.906,7.574c0.276-0.2,0.595-0.346,0.957-0.438C8.225,7.046,8.604,7,9,7V6
	H8.5C8.016,6,7.561,6.093,7.137,6.277c-0.425,0.185-0.794,0.435-1.109,0.75c-0.315,0.315-0.565,0.685-0.75,1.109
	C5.092,8.562,5,9.016,5,9.5s0.092,0.939,0.277,1.363c0.185,0.425,0.435,0.794,0.75,1.109c0.315,0.315,0.685,0.565,1.109,0.75
	C7.561,12.908,8.016,13,8.5,13h4c0.484,0,0.938-0.092,1.363-0.277c0.425-0.185,0.794-0.435,1.109-0.75
	c0.315-0.315,0.565-0.685,0.75-1.109C15.907,10.439,16,9.984,16,9.5s-0.093-0.938-0.277-1.363c-0.185-0.424-0.435-0.794-0.75-1.109
	c-0.315-0.315-0.685-0.565-1.109-0.75C13.438,6.093,12.984,6,12.5,6H12z"/>
</svg>
