<?xml version="1.0" encoding="utf-8"?>
<!-- Generator: Adobe Illustrator 19.1.0, SVG Export Plug-In . SVG Version: 6.00 Build 0)  -->
<svg version="1.1" id="Layer_1" xmlns="http://www.w3.org/2000/svg" xmlns:xlink="http://www.w3.org/1999/xlink" x="0px" y="0px"
	 width="16px" height="16px" viewBox="0 0 16 16" style="enable-background:new 0 0 16 16;" xml:space="preserve">
<style type="text/css">
	.st0{fill:#7A7A7A;}
	.st1{fill:#FF8B00;}
	.st2{fill:#FFFFFF;}
	.st3{fill:#EB1023;}
	.st4{fill:#0372C6;}
	.st5{fill:#BA131A;}
	.st6{fill:#7FBA00;}
	.st7{clip-path:url(#SVGID_2_);}
</style>
<path d="M14,4v10c0,0.276-0.054,0.535-0.161,0.777c-0.106,0.242-0.25,0.453-0.429,0.633c-0.181,0.18-0.393,0.323-0.637,0.43
	S12.271,16,12,16H3c-0.276,0-0.536-0.054-0.777-0.16c-0.243-0.107-0.453-0.25-0.634-0.43c-0.179-0.18-0.323-0.391-0.429-0.633
	C1.054,14.535,1,14.276,1,14V4h2V3c0-0.411,0.079-0.8,0.239-1.164c0.158-0.364,0.373-0.682,0.644-0.953s0.588-0.485,0.953-0.645
	S5.588,0,6,0c0.541,0,1.045,0.136,1.508,0.406C7.971,0.136,8.469,0,9,0c0.412,0,0.799,0.079,1.164,0.238s0.682,0.374,0.953,0.645
	s0.485,0.589,0.644,0.953C11.921,2.2,12,2.589,12,3v1H14z M10.266,15C10.088,14.688,10,14.354,10,14V5H2v9
	c0,0.141,0.026,0.271,0.078,0.391s0.124,0.225,0.214,0.316c0.092,0.091,0.198,0.163,0.317,0.215S2.859,15,3,15H10.266z M4,4h4V3
	c0-0.271-0.054-0.528-0.161-0.773C7.733,1.982,7.589,1.77,7.411,1.59C7.23,1.41,7.018,1.267,6.773,1.16S6.271,1,6,1
	C5.724,1,5.464,1.054,5.223,1.16C4.98,1.267,4.77,1.41,4.589,1.59C4.411,1.77,4.267,1.982,4.161,2.227C4.054,2.472,4,2.729,4,3V4z
	 M11,3c0-0.271-0.054-0.528-0.161-0.773c-0.106-0.245-0.25-0.457-0.429-0.637c-0.181-0.18-0.393-0.323-0.637-0.43S9.271,1,9,1
	C8.766,1,8.545,1.039,8.336,1.117c0.188,0.234,0.328,0.464,0.422,0.688s0.157,0.45,0.191,0.68C8.983,2.714,9,2.952,9,3.199
	S9,3.714,9,4h2V3z M13,5h-2v9c0,0.141,0.026,0.271,0.078,0.391s0.124,0.225,0.214,0.316c0.092,0.091,0.198,0.163,0.317,0.215
	S11.859,15,12,15s0.271-0.026,0.391-0.078s0.225-0.124,0.317-0.215c0.09-0.091,0.162-0.196,0.214-0.316S13,14.141,13,14V5z"/>
</svg>
