<?xml version="1.0" encoding="utf-8"?>
<!-- Generator: Adobe Illustrator 19.1.0, SVG Export Plug-In . SVG Version: 6.00 Build 0)  -->
<svg version="1.1" id="Layer_1" xmlns="http://www.w3.org/2000/svg" xmlns:xlink="http://www.w3.org/1999/xlink" x="0px" y="0px"
	 width="16px" height="16px" viewBox="0 0 16 16" style="enable-background:new 0 0 16 16;" xml:space="preserve">
<style type="text/css">
	.st0{fill:#323232;}
	.st1{fill:none;}
	.st2{clip-path:url(#SVGID_2_);}
	.st3{clip-path:url(#SVGID_4_);}
	.st4{clip-path:url(#SVGID_6_);fill:#4A4A4A;}
	.st5{clip-path:url(#SVGID_8_);fill:#4A4A4A;}
</style>
<path d="M14,0v16H3c-0.276,0-0.535-0.052-0.777-0.156s-0.454-0.247-0.637-0.43s-0.326-0.395-0.43-0.637S1,14.276,1,14V2
	c0-0.255,0.056-0.504,0.168-0.746s0.26-0.456,0.445-0.641S2.01,0.28,2.25,0.168S2.74,0,3,0H14z M2,12.266
	C2.312,12.089,2.646,12,3,12h10V1H3C2.88,1,2.76,1.03,2.641,1.09S2.414,1.227,2.32,1.32S2.15,1.521,2.09,1.641S2,1.88,2,2V12.266z
	 M13,13H3c-0.141,0-0.271,0.026-0.391,0.078s-0.225,0.124-0.316,0.215S2.13,13.49,2.078,13.609S2,13.859,2,14
	s0.026,0.271,0.078,0.391s0.124,0.225,0.215,0.316s0.197,0.163,0.316,0.215S2.859,15,3,15h10V13z M4,3h7v3H4V3z M5,5h5V4H5V5z"/>
</svg>
