<?xml version="1.0" encoding="utf-8"?>
<!-- Generator: Adobe Illustrator 19.1.0, SVG Export Plug-In . SVG Version: 6.00 Build 0)  -->
<svg version="1.1" id="Layer_1" xmlns="http://www.w3.org/2000/svg" xmlns:xlink="http://www.w3.org/1999/xlink" x="0px" y="0px"
	 width="16px" height="16px" viewBox="0 0 16 16" style="enable-background:new 0 0 16 16;" xml:space="preserve">
<style type="text/css">
	.st0{fill:#323232;}
	.st1{fill:none;}
	.st2{clip-path:url(#SVGID_2_);}
	.st3{clip-path:url(#SVGID_4_);}
	.st4{clip-path:url(#SVGID_6_);fill:#4A4A4A;}
	.st5{clip-path:url(#SVGID_8_);fill:#4A4A4A;}
</style>
<path d="M14,1c0.141,0,0.271,0.026,0.391,0.078c0.12,0.052,0.225,0.124,0.316,0.215c0.091,0.091,0.163,0.196,0.215,0.316
	C14.974,1.729,15,1.859,15,2v13H2.789L1,13.203V2c0-0.141,0.026-0.271,0.078-0.391c0.052-0.12,0.124-0.226,0.215-0.316
	C1.384,1.202,1.489,1.13,1.609,1.078C1.729,1.026,1.859,1,2,1H14z M14,2h-1v6H3V2H2v10.789L3.203,14H4v-4h7v4h3V2z M4,7h8V2H4V7z
	 M10,11H5v3h1v-2h1v2h3V11z"/>
</svg>
