<?xml version="1.0" encoding="utf-8"?>
<!-- Generator: Adobe Illustrator 19.1.0, SVG Export Plug-In . SVG Version: 6.00 Build 0)  -->
<svg version="1.1" id="Layer_1" xmlns="http://www.w3.org/2000/svg" xmlns:xlink="http://www.w3.org/1999/xlink" x="0px" y="0px"
	 width="16px" height="16px" viewBox="0 0 16 16" style="enable-background:new 0 0 16 16;" xml:space="preserve">
<style type="text/css">
	.st0{fill:#323232;}
	.st1{fill:none;}
	.st2{clip-path:url(#SVGID_2_);}
	.st3{clip-path:url(#SVGID_4_);}
	.st4{clip-path:url(#SVGID_6_);fill:#4A4A4A;}
	.st5{clip-path:url(#SVGID_8_);fill:#4A4A4A;}
</style>
<path d="M7.5,4c0.344,0,0.666,0.066,0.969,0.199C8.77,4.332,9.035,4.511,9.261,4.738S9.667,5.229,9.8,5.531
	C9.933,5.833,9.999,6.156,9.999,6.5c0,0.453-0.082,0.837-0.246,1.152C9.751,7.656,9.748,7.659,9.745,7.664l0.702,0.702
	c0.101-0.16,0.197-0.323,0.275-0.502c0.185-0.424,0.277-0.879,0.277-1.363s-0.093-0.938-0.277-1.363
	c-0.185-0.424-0.435-0.794-0.75-1.109c-0.315-0.315-0.685-0.565-1.109-0.75C8.438,3.093,7.984,3,7.5,3H5.082l1,1H7.5z"/>
<path d="M7,10h0.5c0.124,0,0.241-0.023,0.362-0.036L7,9.103V10z"/>
<path d="M14.973,11.973c0.314-0.315,0.564-0.685,0.75-1.109C15.906,10.439,16,9.985,16,9.5c0-0.485-0.094-0.939-0.277-1.364
	c-0.186-0.424-0.435-0.794-0.75-1.109c-0.316-0.315-0.685-0.565-1.11-0.75C13.438,6.093,12.984,6,12.499,6H12v1
	c0.396,0,0.774,0.046,1.136,0.137c0.362,0.091,0.681,0.237,0.958,0.438c0.275,0.201,0.496,0.458,0.66,0.773
	C14.918,8.663,15,9.047,15,9.5c0,0.344-0.066,0.667-0.199,0.969s-0.312,0.566-0.539,0.793c-0.155,0.155-0.335,0.28-0.526,0.392
	l0.734,0.734C14.65,12.265,14.818,12.127,14.973,11.973z"/>
<path d="M1.027,4.027c-0.315,0.315-0.565,0.685-0.75,1.109C0.092,5.561,0,6.015,0,6.5s0.092,0.939,0.277,1.363
	c0.185,0.425,0.435,0.794,0.75,1.109c0.315,0.316,0.685,0.566,1.109,0.75C2.561,9.907,3.015,10,3.5,10H4V9
	C3.604,9,3.225,8.954,2.863,8.863C2.501,8.772,2.182,8.626,1.906,8.426c-0.276-0.2-0.496-0.458-0.66-0.773
	C1.082,7.337,1,6.953,1,6.5c0-0.344,0.066-0.667,0.199-0.969c0.133-0.302,0.312-0.566,0.539-0.793
	C1.89,4.586,2.065,4.464,2.25,4.354L1.518,3.622C1.343,3.743,1.178,3.876,1.027,4.027z"/>
<path d="M8.999,6H8.5c-0.131,0-0.254,0.024-0.38,0.038l0.88,0.88V6z"/>
<path d="M8.5,12c-0.344,0-0.667-0.066-0.969-0.199c-0.302-0.133-0.566-0.312-0.793-0.539s-0.406-0.491-0.539-0.793S6,9.844,6,9.5
	c0-0.453,0.082-0.836,0.246-1.152L5.544,7.648C5.447,7.804,5.353,7.962,5.277,8.136C5.092,8.561,5,9.015,5,9.5
	c0,0.484,0.092,0.938,0.277,1.363c0.185,0.425,0.435,0.794,0.75,1.109c0.315,0.315,0.685,0.565,1.109,0.75
	C7.561,12.907,8.015,13,8.5,13h2.397l-1-1H8.5z"/>
<rect x="7.5" y="-1.399" transform="matrix(0.7071 -0.7071 0.7071 0.7071 -3.3137 8)" width="1" height="18.799"/>
</svg>
