<?xml version="1.0" encoding="utf-8"?>
<!-- Generator: Adobe Illustrator 19.1.0, SVG Export Plug-In . SVG Version: 6.00 Build 0)  -->
<svg version="1.1" id="Layer_1" xmlns="http://www.w3.org/2000/svg" xmlns:xlink="http://www.w3.org/1999/xlink" x="0px" y="0px"
	 width="16px" height="16px" viewBox="0 0 16 16" style="enable-background:new 0 0 16 16;" xml:space="preserve">
<style type="text/css">
	.st0{fill:#323232;}
	.st1{fill:none;}
	.st2{clip-path:url(#SVGID_2_);}
	.st3{clip-path:url(#SVGID_4_);}
	.st4{clip-path:url(#SVGID_6_);fill:#4A4A4A;}
	.st5{clip-path:url(#SVGID_8_);fill:#4A4A4A;}
</style>
<path d="M8,0c0.739,0,1.449,0.094,2.129,0.283s1.318,0.457,1.913,0.804c0.594,0.347,1.135,0.764,1.621,1.25
	c0.486,0.486,0.903,1.026,1.25,1.621c0.347,0.594,0.615,1.232,0.804,1.913C15.906,6.551,16,7.261,16,8s-0.094,1.449-0.283,2.129
	c-0.189,0.681-0.457,1.318-0.804,1.913c-0.347,0.594-0.764,1.135-1.25,1.621c-0.486,0.486-1.026,0.903-1.621,1.25
	c-0.594,0.347-1.232,0.615-1.913,0.804C9.449,15.906,8.739,16,8,16s-1.449-0.094-2.129-0.283c-0.681-0.189-1.318-0.457-1.913-0.804
	c-0.594-0.347-1.135-0.764-1.621-1.25c-0.486-0.486-0.903-1.026-1.25-1.621c-0.347-0.594-0.615-1.232-0.804-1.913S0,8.739,0,8
	s0.094-1.449,0.283-2.129S0.74,4.553,1.087,3.958s0.764-1.135,1.25-1.621s1.026-0.903,1.621-1.25S5.19,0.472,5.871,0.283
	S7.261,0,8,0z M8.533,14.917c0.567-0.044,1.111-0.154,1.633-0.329c0.522-0.175,1.012-0.404,1.471-0.688
	c0.458-0.283,0.879-0.617,1.262-1c0.383-0.383,0.717-0.804,1-1.262c0.283-0.458,0.513-0.949,0.688-1.471
	c0.175-0.522,0.285-1.067,0.329-1.633h-1.05V7.467h1.05c-0.044-0.567-0.154-1.111-0.329-1.633c-0.175-0.522-0.404-1.013-0.688-1.471
	c-0.283-0.458-0.617-0.879-1-1.263c-0.383-0.383-0.804-0.717-1.262-1c-0.458-0.283-0.949-0.512-1.471-0.687
	C9.644,1.237,9.1,1.128,8.533,1.083v1.05H7.467v-1.05C6.9,1.128,6.356,1.237,5.833,1.413S4.821,1.817,4.363,2.1
	C3.904,2.383,3.483,2.717,3.1,3.1s-0.717,0.804-1,1.263C1.817,4.821,1.587,5.311,1.413,5.833S1.128,6.9,1.083,7.467h1.05v1.067
	h-1.05C1.128,9.1,1.237,9.644,1.413,10.167c0.175,0.522,0.404,1.012,0.687,1.471c0.283,0.458,0.617,0.879,1,1.262
	c0.383,0.383,0.804,0.717,1.263,1c0.458,0.283,0.949,0.513,1.471,0.688c0.522,0.175,1.067,0.285,1.633,0.329v-1.05h1.067V14.917z
	 M9.242,6.758l2.492,4.975L6.758,9.242L4.267,4.267L9.242,6.758z M9.767,9.767L8.592,7.408L6.233,6.233l1.175,2.358L9.767,9.767z"/>
</svg>
