<?xml version="1.0" encoding="utf-8"?>
<!-- Generator: Adobe Illustrator 19.1.0, SVG Export Plug-In . SVG Version: 6.00 Build 0)  -->
<svg version="1.1" id="Layer_1" xmlns="http://www.w3.org/2000/svg" xmlns:xlink="http://www.w3.org/1999/xlink" x="0px" y="0px"
	 width="16px" height="16px" viewBox="0 0 16 16" style="enable-background:new 0 0 16 16;" xml:space="preserve">
<style type="text/css">
	.st0{fill:#323232;}
	.st1{fill:none;}
	.st2{clip-path:url(#SVGID_2_);}
	.st3{clip-path:url(#SVGID_4_);}
	.st4{clip-path:url(#SVGID_6_);fill:#4A4A4A;}
	.st5{clip-path:url(#SVGID_8_);fill:#4A4A4A;}
</style>
<path d="M10.156,2.344c0.719,0.229,1.376,0.562,1.973,1s1.106,0.95,1.531,1.539s0.754,1.234,0.988,1.938S15,8.25,15,9
	c0,0.646-0.083,1.267-0.25,1.863s-0.402,1.153-0.707,1.672s-0.669,0.989-1.094,1.414s-0.896,0.789-1.414,1.094
	s-1.075,0.54-1.672,0.707S8.646,16,8,16s-1.267-0.083-1.863-0.25s-1.153-0.402-1.672-0.707s-0.989-0.669-1.414-1.094
	s-0.789-0.896-1.094-1.414s-0.54-1.075-0.707-1.672S1,9.646,1,9c0-0.75,0.117-1.477,0.352-2.18S1.915,5.472,2.34,4.883
	s0.935-1.102,1.531-1.539s1.254-0.771,1.973-1l0.312,0.945c-0.62,0.203-1.185,0.492-1.695,0.867S3.513,4.969,3.148,5.469
	S2.501,6.52,2.301,7.121S2,8.349,2,9c0,0.552,0.071,1.083,0.215,1.594s0.345,0.988,0.605,1.434s0.573,0.851,0.938,1.215
	s0.77,0.677,1.215,0.938s0.923,0.462,1.434,0.605S7.448,15,8,15s1.083-0.071,1.594-0.215s0.988-0.345,1.434-0.605
	s0.851-0.573,1.215-0.938s0.677-0.77,0.938-1.215s0.462-0.923,0.605-1.434S14,9.552,14,9c0-0.651-0.101-1.277-0.301-1.879
	s-0.483-1.152-0.848-1.652s-0.802-0.938-1.312-1.312s-1.075-0.664-1.695-0.867L10.156,2.344z"/>
<rect x="7.5" width="1" height="8"/>
</svg>
