<?xml version="1.0" encoding="utf-8"?>
<!-- Generator: Adobe Illustrator 19.1.0, SVG Export Plug-In . SVG Version: 6.00 Build 0)  -->
<svg version="1.1" id="Layer_1" xmlns="http://www.w3.org/2000/svg" xmlns:xlink="http://www.w3.org/1999/xlink" x="0px" y="0px"
	 width="16px" height="16px" viewBox="0 0 16 16" style="enable-background:new 0 0 16 16;" xml:space="preserve">
<style type="text/css">
	.st0{fill:#323232;}
	.st1{fill:none;}
	.st2{clip-path:url(#SVGID_2_);}
	.st3{clip-path:url(#SVGID_4_);}
	.st4{clip-path:url(#SVGID_6_);fill:#4A4A4A;}
	.st5{clip-path:url(#SVGID_8_);fill:#4A4A4A;}
</style>
<path d="M13,1h3v14H0V1h3V0h1v1h8V0h1V1z M3,2H1v2h14V2h-2v1h-1V2H4v1H3V2z M1,14h14V5H1V14z M3,9V8h1v1H3z M3,11v-1h1v1H3z M3,13
	v-1h1v1H3z M6,7V6h1v1H6z M6,9V8h1v1H6z M6,11v-1h1v1H6z M6,13v-1h1v1H6z M9,7V6h1v1H9z M9,9V8h1v1H9z M9,11v-1h1v1H9z M9,13v-1h1v1
	H9z M12,7V6h1v1H12z M12,9V8h1v1H12z M12,11v-1h1v1H12z"/>
</svg>
