<?xml version="1.0" encoding="utf-8"?>
<!-- Generator: Adobe Illustrator 19.1.0, SVG Export Plug-In . SVG Version: 6.00 Build 0)  -->
<svg version="1.1" id="Layer_1" xmlns="http://www.w3.org/2000/svg" xmlns:xlink="http://www.w3.org/1999/xlink" x="0px" y="0px"
	 width="16px" height="16px" viewBox="0 0 16 16" style="enable-background:new 0 0 16 16;" xml:space="preserve">
<style type="text/css">
	.st0{fill:#323232;}
	.st1{fill:none;}
	.st2{clip-path:url(#SVGID_2_);}
	.st3{clip-path:url(#SVGID_4_);}
	.st4{clip-path:url(#SVGID_6_);fill:#4A4A4A;}
	.st5{clip-path:url(#SVGID_8_);fill:#4A4A4A;}
</style>
<path d="M0,0v16h16V0H0z M8.375,14h-0.75v-0.75h0.75V14z M11.246,6.266c-0.086,0.266-0.199,0.509-0.34,0.729
	s-0.301,0.425-0.48,0.612s-0.363,0.369-0.551,0.545S9.504,8.503,9.324,8.677s-0.34,0.358-0.48,0.554S8.59,9.637,8.504,9.863
	s-0.129,0.48-0.129,0.762v1.125h-0.75v-1.125c0-0.328,0.043-0.625,0.129-0.891c0.086-0.266,0.199-0.509,0.34-0.729
	s0.301-0.424,0.48-0.609s0.363-0.366,0.551-0.542s0.371-0.352,0.551-0.527s0.34-0.361,0.48-0.557s0.254-0.406,0.34-0.633
	s0.129-0.48,0.129-0.762c0-0.363-0.069-0.704-0.208-1.022s-0.326-0.596-0.562-0.832S9.341,3.097,9.022,2.958S8.363,2.75,8,2.75
	S7.296,2.819,6.977,2.958C6.659,3.097,6.382,3.284,6.146,3.521S5.722,4.034,5.583,4.353S5.375,5.012,5.375,5.375h-0.75
	c0-0.309,0.04-0.606,0.12-0.894s0.193-0.556,0.34-0.806s0.323-0.479,0.53-0.686s0.436-0.384,0.686-0.53S6.819,2.2,7.106,2.12
	S7.691,2,8,2s0.606,0.04,0.894,0.12s0.556,0.193,0.806,0.34s0.479,0.323,0.686,0.53s0.384,0.436,0.53,0.686s0.26,0.519,0.34,0.806
	s0.12,0.585,0.12,0.894C11.375,5.703,11.332,6,11.246,6.266z"/>
</svg>
