<?xml version="1.0" encoding="utf-8"?>
<!-- Generator: Adobe Illustrator 19.1.0, SVG Export Plug-In . SVG Version: 6.00 Build 0)  -->
<svg version="1.1" id="Layer_1" xmlns="http://www.w3.org/2000/svg" xmlns:xlink="http://www.w3.org/1999/xlink" x="0px" y="0px"
	 width="16px" height="16px" viewBox="0 0 16 16" style="enable-background:new 0 0 16 16;" xml:space="preserve">
<style type="text/css">
	.st0{fill:#323232;}
	.st1{fill:none;}
	.st2{clip-path:url(#SVGID_2_);}
	.st3{clip-path:url(#SVGID_4_);}
	.st4{clip-path:url(#SVGID_6_);fill:#4A4A4A;}
	.st5{clip-path:url(#SVGID_8_);fill:#4A4A4A;}
</style>
<path d="M10.092,9.224c0.62,0.214,1.179,0.514,1.678,0.899s0.923,0.831,1.271,1.336s0.616,1.06,0.803,1.661s0.28,1.228,0.28,1.88
	H13.25c0-0.747-0.133-1.441-0.4-2.082s-0.635-1.195-1.104-1.665s-1.024-0.837-1.665-1.104S8.747,9.75,8,9.75
	c-0.488,0-0.957,0.062-1.408,0.185s-0.872,0.297-1.261,0.523s-0.743,0.497-1.06,0.813s-0.588,0.67-0.813,1.06s-0.4,0.81-0.523,1.261
	S2.75,14.512,2.75,15H1.875c0-0.656,0.096-1.284,0.287-1.883s0.463-1.15,0.813-1.651s0.776-0.943,1.275-1.326
	S5.307,9.454,5.922,9.23C5.566,9.039,5.247,8.807,4.965,8.533S4.442,7.956,4.244,7.621S3.893,6.928,3.786,6.547
	S3.625,5.776,3.625,5.375c0-0.606,0.114-1.175,0.342-1.706c0.228-0.531,0.54-0.995,0.937-1.391s0.86-0.709,1.391-0.937S7.394,1,8,1
	s1.175,0.114,1.706,0.342s0.995,0.54,1.391,0.937s0.709,0.86,0.937,1.391s0.342,1.099,0.342,1.706c0,0.401-0.054,0.791-0.161,1.169
	s-0.26,0.734-0.458,1.066s-0.438,0.637-0.718,0.913S10.443,9.032,10.092,9.224z M4.5,5.375c0,0.483,0.092,0.937,0.277,1.36
	s0.435,0.794,0.752,1.111C5.846,8.163,6.216,8.414,6.64,8.598S7.517,8.875,8,8.875s0.937-0.092,1.36-0.277s0.794-0.435,1.111-0.752
	c0.317-0.317,0.567-0.687,0.752-1.111S11.5,5.858,11.5,5.375s-0.092-0.937-0.277-1.36s-0.435-0.794-0.752-1.111
	S9.784,2.336,9.36,2.152S8.483,1.875,8,1.875S7.063,1.967,6.64,2.152S5.846,2.587,5.529,2.904S4.961,3.591,4.777,4.015
	S4.5,4.892,4.5,5.375z"/>
</svg>
