<?xml version="1.0" encoding="utf-8"?>
<!-- Generator: Adobe Illustrator 19.1.0, SVG Export Plug-In . SVG Version: 6.00 Build 0)  -->
<svg version="1.1" id="Layer_1" xmlns="http://www.w3.org/2000/svg" xmlns:xlink="http://www.w3.org/1999/xlink" x="0px" y="0px"
	 width="16px" height="16px" viewBox="0 0 16 16" style="enable-background:new 0 0 16 16;" xml:space="preserve">
<style type="text/css">
	.st0{fill:#FFFFFF;stroke:#CECECE;stroke-miterlimit:10;}
	.st1{fill:#7A7A7A;}
	.st2{fill:#FF8B00;}
	.st3{fill:#FFFFFF;}
	.st4{fill:#EB1023;}
	.st5{fill:#0372C6;}
	.st6{fill:#BA131A;}
	.st7{fill:#7FBA00;}
	.st8{fill-rule:evenodd;clip-rule:evenodd;}
</style>
<path d="M1.395,3.492C1.892,2.773,2.48,2.155,3.16,1.637S4.592,0.716,5.418,0.43S7.104,0,8,0c0.734,0,1.443,0.095,2.125,0.285
	s1.32,0.458,1.914,0.805s1.134,0.763,1.621,1.25s0.904,1.027,1.25,1.621s0.615,1.232,0.805,1.914S16,7.266,16,8
	s-0.095,1.443-0.285,2.125s-0.458,1.32-0.805,1.914s-0.763,1.134-1.25,1.621s-1.027,0.904-1.621,1.25s-1.23,0.615-1.91,0.805
	S8.74,16,8,16c-0.729,0-1.438-0.096-2.125-0.289s-1.335-0.467-1.941-0.824s-1.159-0.79-1.656-1.301S1.354,12.5,1,11.859V14H0l0-4h4
	v1H1.68c0.292,0.609,0.658,1.16,1.098,1.652s0.935,0.913,1.484,1.262s1.142,0.617,1.777,0.805S7.328,15,8,15
	c0.641,0,1.259-0.083,1.855-0.25s1.154-0.402,1.672-0.707s0.991-0.671,1.418-1.098s0.793-0.9,1.098-1.418s0.54-1.074,0.707-1.668
	S15,8.646,15,8c0-0.641-0.083-1.259-0.25-1.855s-0.402-1.154-0.707-1.672s-0.671-0.991-1.098-1.418s-0.9-0.793-1.418-1.098
	s-1.074-0.54-1.668-0.707S8.646,1,8,1C7.219,1,6.466,1.126,5.742,1.379S4.359,1.984,3.766,2.438
	C3.172,2.891,2.658,3.431,2.223,4.059S1.466,5.378,1.258,6.133L0.297,5.867C0.531,5.003,0.897,4.211,1.395,3.492z"/>
</svg>
