<?xml version="1.0" encoding="utf-8"?>
<!-- Generator: Adobe Illustrator 19.1.0, SVG Export Plug-In . SVG Version: 6.00 Build 0)  -->
<svg version="1.1" id="Layer_1" xmlns="http://www.w3.org/2000/svg" xmlns:xlink="http://www.w3.org/1999/xlink" x="0px" y="0px"
	 width="16px" height="16px" viewBox="0 0 16 16" style="enable-background:new 0 0 16 16;" xml:space="preserve">
<style type="text/css">
	.st0{fill:#323232;}
	.st1{fill:none;}
	.st2{clip-path:url(#SVGID_2_);}
	.st3{clip-path:url(#SVGID_4_);}
	.st4{clip-path:url(#SVGID_6_);fill:#4A4A4A;}
	.st5{clip-path:url(#SVGID_8_);fill:#4A4A4A;}
</style>
<path d="M8,0c0.734,0,1.441,0.095,2.121,0.285c0.68,0.19,1.316,0.46,1.91,0.809c0.594,0.349,1.134,0.767,1.621,1.254
	c0.487,0.487,0.905,1.027,1.254,1.621s0.618,1.23,0.809,1.91S16,7.266,16,8s-0.095,1.441-0.285,2.121s-0.46,1.316-0.809,1.91
	s-0.767,1.134-1.254,1.621c-0.487,0.487-1.027,0.905-1.621,1.254c-0.594,0.349-1.23,0.619-1.91,0.809C9.441,15.905,8.734,16,8,16
	s-1.441-0.095-2.121-0.285c-0.68-0.19-1.316-0.459-1.91-0.809c-0.594-0.349-1.134-0.767-1.621-1.254
	c-0.487-0.487-0.905-1.027-1.254-1.621s-0.618-1.23-0.809-1.91S0,8.734,0,8s0.095-1.441,0.285-2.121s0.46-1.316,0.809-1.91
	S1.86,2.835,2.348,2.348c0.487-0.487,1.027-0.905,1.621-1.254c0.594-0.349,1.23-0.618,1.91-0.809C6.559,0.095,7.266,0,8,0z M8,15
	c0.854,0,1.671-0.146,2.449-0.438c0.778-0.292,1.491-0.716,2.137-1.273L2.711,3.414C2.153,4.06,1.729,4.772,1.438,5.551
	C1.146,6.33,1,7.146,1,8c0,0.646,0.083,1.267,0.25,1.863c0.167,0.597,0.402,1.154,0.707,1.672c0.305,0.519,0.669,0.99,1.094,1.414
	c0.425,0.425,0.896,0.789,1.414,1.094s1.075,0.541,1.672,0.707C6.733,14.917,7.354,15,8,15z M13.289,12.586
	c0.558-0.646,0.981-1.358,1.273-2.137C14.854,9.671,15,8.854,15,8c0-0.646-0.083-1.267-0.25-1.863
	c-0.167-0.596-0.402-1.153-0.707-1.672c-0.305-0.518-0.669-0.989-1.094-1.414c-0.425-0.424-0.896-0.789-1.414-1.094
	S10.46,1.417,9.863,1.25C9.267,1.083,8.646,1,8,1C7.146,1,6.329,1.146,5.551,1.438C4.772,1.729,4.06,2.154,3.414,2.711
	L13.289,12.586z"/>
</svg>
