<?xml version="1.0" encoding="utf-8"?>
<!-- Generator: Adobe Illustrator 19.1.0, SVG Export Plug-In . SVG Version: 6.00 Build 0)  -->
<svg version="1.1" id="Layer_1" xmlns="http://www.w3.org/2000/svg" xmlns:xlink="http://www.w3.org/1999/xlink" x="0px" y="0px"
	 width="16px" height="16px" viewBox="0 0 16 16" style="enable-background:new 0 0 16 16;" xml:space="preserve">
<style type="text/css">
	.st0{fill:#7A7A7A;}
	.st1{fill:#FF8B00;}
	.st2{fill:#FFFFFF;}
	.st3{fill:#EB1023;}
	.st4{fill:#0372C6;}
	.st5{fill:#BA131A;}
	.st6{fill:#7FBA00;}
	.st7{clip-path:url(#SVGID_2_);}
</style>
<path d="M7.992,0c0.739,0,1.45,0.095,2.133,0.285c0.682,0.19,1.32,0.458,1.914,0.805c0.594,0.347,1.134,0.762,1.621,1.246
	c0.486,0.484,0.903,1.023,1.25,1.617c0.346,0.594,0.614,1.232,0.805,1.914C15.904,6.55,16,7.261,16,8
	c0,0.745-0.096,1.458-0.285,2.141c-0.19,0.683-0.459,1.32-0.805,1.914c-0.347,0.594-0.762,1.133-1.246,1.617
	s-1.023,0.898-1.617,1.242s-1.233,0.611-1.918,0.801C9.443,15.905,8.731,16,7.992,16c-0.74,0-1.451-0.095-2.133-0.285
	c-0.683-0.19-1.32-0.457-1.914-0.801s-1.133-0.759-1.617-1.246c-0.484-0.487-0.898-1.026-1.242-1.617
	c-0.344-0.591-0.611-1.229-0.801-1.914C0.095,9.452,0,8.74,0,8c0-0.739,0.095-1.45,0.285-2.133c0.189-0.682,0.457-1.319,0.801-1.91
	C1.43,3.366,1.845,2.827,2.332,2.34c0.486-0.487,1.025-0.903,1.617-1.25c0.591-0.346,1.228-0.614,1.91-0.805
	C6.541,0.095,7.252,0,7.992,0z M7.992,15c0.65,0,1.275-0.082,1.875-0.246c0.599-0.164,1.157-0.397,1.676-0.699
	c0.518-0.302,0.989-0.665,1.414-1.09c0.424-0.424,0.787-0.896,1.09-1.414c0.302-0.518,0.536-1.077,0.703-1.676
	C14.916,9.276,15,8.651,15,8c0-0.646-0.084-1.268-0.25-1.867c-0.167-0.599-0.401-1.157-0.703-1.676
	c-0.303-0.518-0.667-0.989-1.094-1.414c-0.428-0.424-0.9-0.788-1.418-1.09c-0.519-0.302-1.077-0.536-1.676-0.703
	C9.26,1.083,8.638,1,7.992,1C7.346,1,6.725,1.083,6.129,1.25C5.532,1.417,4.975,1.651,4.457,1.953
	c-0.519,0.302-0.99,0.666-1.414,1.09c-0.425,0.425-0.788,0.896-1.09,1.414C1.65,4.976,1.416,5.534,1.25,6.133
	C1.083,6.732,1,7.354,1,8c0,0.651,0.082,1.275,0.246,1.871c0.164,0.597,0.396,1.154,0.699,1.672c0.302,0.519,0.665,0.99,1.09,1.414
	c0.424,0.425,0.896,0.788,1.414,1.09c0.518,0.302,1.075,0.537,1.672,0.703C6.717,14.917,7.341,15,7.992,15z M8.5,7.57
	c0.338,0.125,0.66,0.258,0.965,0.398s0.57,0.31,0.797,0.508c0.227,0.198,0.406,0.438,0.539,0.719S11,9.82,11,10.227
	c0,0.375-0.065,0.714-0.195,1.016c-0.131,0.302-0.309,0.565-0.535,0.789c-0.227,0.224-0.491,0.41-0.793,0.559
	c-0.303,0.148-0.628,0.257-0.977,0.324V14h-1v-0.984c-0.209,0-0.433-0.012-0.672-0.035c-0.24-0.023-0.48-0.06-0.723-0.109
	c-0.242-0.049-0.477-0.113-0.703-0.191s-0.429-0.172-0.605-0.281l0.328-0.961c0.172,0.099,0.355,0.183,0.551,0.25
	c0.195,0.068,0.396,0.124,0.602,0.168c0.205,0.044,0.411,0.076,0.617,0.094C7.1,11.968,7.302,11.977,7.5,11.977V8.32
	C7.188,8.211,6.883,8.08,6.586,7.926C6.289,7.772,6.023,7.589,5.789,7.375C5.555,7.162,5.365,6.913,5.223,6.629
	c-0.144-0.284-0.215-0.61-0.215-0.98c0-0.359,0.067-0.685,0.203-0.977C5.346,4.38,5.528,4.128,5.758,3.914
	c0.229-0.213,0.493-0.391,0.793-0.531C6.85,3.242,7.166,3.144,7.5,3.086V2h1v1.016c0.354,0.011,0.713,0.051,1.078,0.121
	c0.364,0.07,0.703,0.189,1.016,0.355L10.25,4.398c-0.115-0.062-0.246-0.114-0.395-0.156C9.707,4.201,9.553,4.167,9.395,4.141
	C9.235,4.115,9.079,4.095,8.926,4.082C8.771,4.069,8.63,4.06,8.5,4.055V7.57z M7.5,4.133C7.349,4.169,7.186,4.226,7.012,4.301
	c-0.175,0.076-0.335,0.171-0.48,0.285C6.385,4.701,6.264,4.832,6.168,4.98C6.071,5.129,6.023,5.294,6.023,5.477
	c0,0.203,0.047,0.39,0.141,0.559C6.258,6.205,6.376,6.358,6.52,6.496c0.143,0.138,0.302,0.262,0.477,0.371
	C7.17,6.977,7.338,7.07,7.5,7.148V4.133z M8.5,11.828c0.177-0.057,0.355-0.134,0.535-0.23c0.18-0.096,0.341-0.213,0.484-0.352
	c0.143-0.138,0.259-0.293,0.348-0.465C9.955,10.609,10,10.419,10,10.211c0-0.208-0.047-0.392-0.141-0.551
	C9.766,9.501,9.646,9.362,9.5,9.242C9.354,9.123,9.192,9.02,9.016,8.934C8.838,8.848,8.666,8.769,8.5,8.695V11.828z"/>
</svg>
