<?xml version="1.0" encoding="utf-8"?>
<!-- Generator: Adobe Illustrator 19.1.0, SVG Export Plug-In . SVG Version: 6.00 Build 0)  -->
<svg version="1.1" id="Layer_1" xmlns="http://www.w3.org/2000/svg" xmlns:xlink="http://www.w3.org/1999/xlink" x="0px" y="0px"
	 width="16px" height="16px" viewBox="0 0 16 16" style="enable-background:new 0 0 16 16;" xml:space="preserve">
<style type="text/css">
	.st0{fill:#323232;}
	.st1{fill:none;}
	.st2{clip-path:url(#SVGID_2_);}
	.st3{clip-path:url(#SVGID_4_);}
	.st4{clip-path:url(#SVGID_6_);fill:#4A4A4A;}
	.st5{clip-path:url(#SVGID_8_);fill:#4A4A4A;}
</style>
<path d="M14.453,9.375c0.24,0.135,0.454,0.297,0.645,0.484s0.352,0.395,0.484,0.621s0.236,0.469,0.309,0.727S16,11.729,16,12h-1
	c0-0.276-0.052-0.535-0.156-0.777s-0.247-0.454-0.43-0.637s-0.395-0.326-0.637-0.43S13.276,10,13,10s-0.535,0.052-0.777,0.156
	s-0.454,0.247-0.637,0.43s-0.326,0.395-0.43,0.637S11,11.724,11,12h-1c0-0.297,0.043-0.585,0.129-0.863s0.21-0.543,0.371-0.793
	c-0.141-0.208-0.302-0.396-0.484-0.562S9.634,9.474,9.418,9.359S8.974,9.156,8.734,9.094S8.25,9,8,9
	C7.583,9,7.194,9.078,6.832,9.234s-0.68,0.371-0.953,0.645s-0.488,0.592-0.645,0.957S5,11.589,5,12H4
	c0-0.521,0.099-1.023,0.297-1.508c-0.182-0.151-0.384-0.271-0.605-0.359S3.24,10,3,10c-0.276,0-0.535,0.052-0.777,0.156
	s-0.454,0.247-0.637,0.43s-0.326,0.395-0.43,0.637S1,11.724,1,12H0c0-0.26,0.033-0.514,0.098-0.762s0.16-0.48,0.285-0.699
	s0.276-0.422,0.453-0.609S1.211,9.581,1.43,9.445c-0.292-0.24-0.52-0.53-0.684-0.871S0.5,7.875,0.5,7.5
	c0-0.344,0.065-0.667,0.195-0.969S1.004,5.965,1.23,5.738s0.492-0.406,0.797-0.539S2.656,5,3,5s0.667,0.066,0.969,0.199
	s0.566,0.312,0.793,0.539s0.406,0.491,0.539,0.793S5.5,7.156,5.5,7.5c0,0.38-0.082,0.741-0.246,1.082S4.859,9.214,4.562,9.453
	l0.234,0.156c0.182-0.266,0.41-0.507,0.684-0.723s0.559-0.392,0.855-0.527C6.07,8.125,5.865,7.846,5.719,7.523S5.5,6.859,5.5,6.5
	c0-0.344,0.065-0.667,0.195-0.969S6.004,4.965,6.23,4.738s0.492-0.406,0.797-0.539S7.656,4,8,4s0.667,0.066,0.969,0.199
	s0.566,0.312,0.793,0.539s0.406,0.491,0.539,0.793S10.5,6.156,10.5,6.5c0,0.359-0.073,0.701-0.219,1.023S9.93,8.125,9.664,8.359
	c0.302,0.141,0.585,0.316,0.848,0.527s0.493,0.449,0.691,0.715l0.344-0.227c-0.172-0.182-0.306-0.393-0.402-0.633S11,8.255,11,8
	c0-0.276,0.052-0.535,0.156-0.777s0.247-0.454,0.43-0.637s0.395-0.326,0.637-0.43S12.724,6,13,6s0.535,0.052,0.777,0.156
	s0.454,0.247,0.637,0.43s0.326,0.395,0.43,0.637S15,7.724,15,8c0,0.255-0.048,0.503-0.145,0.742S14.625,9.193,14.453,9.375z
	 M1.5,7.5c0,0.208,0.039,0.404,0.117,0.586c0.078,0.182,0.185,0.341,0.32,0.477s0.294,0.242,0.477,0.32S2.792,9,3,9
	s0.404-0.039,0.586-0.117s0.341-0.185,0.477-0.32c0.135-0.135,0.242-0.294,0.32-0.477C4.461,7.904,4.5,7.708,4.5,7.5
	S4.461,7.096,4.383,6.914s-0.185-0.341-0.32-0.477c-0.135-0.135-0.294-0.242-0.477-0.32S3.208,6,3,6S2.596,6.039,2.414,6.117
	s-0.341,0.185-0.477,0.32s-0.242,0.294-0.32,0.477S1.5,7.292,1.5,7.5z M6.5,6.5c0,0.208,0.039,0.404,0.117,0.586
	s0.185,0.341,0.32,0.477s0.294,0.242,0.477,0.32S7.792,8,8,8c0.208,0,0.404-0.039,0.586-0.117s0.341-0.185,0.477-0.32
	s0.242-0.294,0.32-0.477S9.5,6.708,9.5,6.5S9.461,6.096,9.383,5.914s-0.185-0.341-0.32-0.477s-0.294-0.242-0.477-0.32S8.208,5,8,5
	C7.792,5,7.596,5.039,7.414,5.117s-0.341,0.185-0.477,0.32s-0.242,0.294-0.32,0.477S6.5,6.292,6.5,6.5z M12,8
	c0,0.141,0.026,0.271,0.078,0.391s0.124,0.225,0.215,0.316s0.197,0.163,0.316,0.215S12.859,9,13,9s0.271-0.026,0.391-0.078
	s0.225-0.124,0.316-0.215s0.163-0.197,0.215-0.316S14,8.141,14,8s-0.026-0.271-0.078-0.391s-0.124-0.225-0.215-0.316
	S13.51,7.13,13.391,7.078S13.141,7,13,7s-0.271,0.026-0.391,0.078s-0.225,0.124-0.316,0.215S12.13,7.49,12.078,7.609S12,7.859,12,8z
	"/>
</svg>
