<?xml version="1.0" encoding="utf-8"?>
<!-- Generator: Adobe Illustrator 19.1.0, SVG Export Plug-In . SVG Version: 6.00 Build 0)  -->
<svg version="1.1" id="Layer_1" xmlns="http://www.w3.org/2000/svg" xmlns:xlink="http://www.w3.org/1999/xlink" x="0px" y="0px"
	 width="16px" height="16px" viewBox="0 0 16 16" style="enable-background:new 0 0 16 16;" xml:space="preserve">
<style type="text/css">
	.st0{fill:#323232;}
	.st1{fill:none;}
	.st2{clip-path:url(#SVGID_2_);}
	.st3{clip-path:url(#SVGID_4_);}
	.st4{clip-path:url(#SVGID_6_);fill:#4A4A4A;}
	.st5{clip-path:url(#SVGID_8_);fill:#4A4A4A;}
</style>
<path d="M5.792,4.217L5.774,4.213L5.792,4.217"/>
<path d="M12.379,10.289H3.621c-0.127,0-0.229-0.099-0.229-0.221V5.958c0-2.454,2.067-4.45,4.608-4.45
	c2.541,0,4.608,1.997,4.608,4.451v4.11C12.608,10.19,12.506,10.289,12.379,10.289L12.379,10.289z M3.849,9.847h8.302V5.958
	c0-2.21-1.862-4.009-4.151-4.009S3.849,3.748,3.849,5.958V9.847L3.849,9.847z"/>
<path d="M16,12.419c0,0-0.763-1.745-4.005-2.7H4.005C0.763,10.673,0,12.419,0,12.419l0.032,0.027h15.936L16,12.419"/>
<path d="M15.182,12.883H0.818C1.111,13.325,3.575,15,8,15S14.889,13.325,15.182,12.883"/>
<path d="M7.301,9.94C7.214,9.922,5.147,9.529,4.695,7.832c-0.018-0.071,0.009-0.15,0.078-0.181c0.069-0.044,0.151-0.035,0.206,0.018
	c0.014,0.009,1.074,0.995,1.952,1.003c0.073,0,0.133,0.04,0.16,0.101l0.402,0.941C7.52,9.768,7.507,9.829,7.465,9.883
	C7.429,9.927,7.365,9.953,7.301,9.94"/>
<path d="M8.219,9.94c0.098-0.018,2.324-0.411,2.811-2.108c0.019-0.071-0.015-0.15-0.088-0.181c-0.069-0.044-0.162-0.035-0.222,0.018
	c-0.01,0.009-1.157,0.995-2.102,1.003c-0.074,0-0.143,0.04-0.172,0.101L8.017,9.715C7.987,9.768,7.997,9.829,8.041,9.883
	C8.081,9.927,8.155,9.953,8.219,9.94"/>
<path d="M7.936,7.58C7.104,7.563,6.395,6.758,6.4,6.625c0.005-0.128,3.003-0.066,3.003,0.066C9.399,6.82,8.763,7.593,7.936,7.58
	L7.936,7.58z M7.2,4.99c0.178,0.005,0.315,0.252,0.311,0.548C7.501,5.847,7.355,6.086,7.177,6.081
	C6.999,6.077,6.866,5.829,6.871,5.525C6.875,5.225,7.026,4.986,7.2,4.99L7.2,4.99z M8.795,5.07c0.174,0,0.311,0.252,0.306,0.553
	C9.092,5.923,8.946,6.166,8.767,6.162C8.589,6.157,8.457,5.915,8.465,5.609C8.471,5.309,8.617,5.065,8.795,5.07L8.795,5.07z
	 M7.954,3.271C6.277,3.236,4.965,4.902,5.783,6.608c0.841,1.755,1.527,2.409,1.998,4.211c0.549-1.781,1.266-2.404,2.185-4.123
	C10.862,5.03,9.632,3.307,7.954,3.271L7.954,3.271z"/>
</svg>
