<?xml version="1.0" encoding="utf-8"?>
<!-- Generator: Adobe Illustrator 19.1.0, SVG Export Plug-In . SVG Version: 6.00 Build 0)  -->
<svg version="1.1" id="Layer_1" xmlns="http://www.w3.org/2000/svg" xmlns:xlink="http://www.w3.org/1999/xlink" x="0px" y="0px"
	 width="16px" height="16px" viewBox="0 0 16 16" style="enable-background:new 0 0 16 16;" xml:space="preserve">
<style type="text/css">
	.st0{fill:#7A7A7A;}
	.st1{fill:#FF8B00;}
	.st2{fill:#FFFFFF;}
	.st3{fill:#EB1023;}
	.st4{fill:#0372C6;}
	.st5{fill:#BA131A;}
	.st6{fill:#7FBA00;}
	.st7{clip-path:url(#SVGID_2_);}
</style>
<path d="M14,7v9H2V7h9V4c0-0.427-0.077-0.823-0.23-1.188s-0.365-0.681-0.633-0.949S9.552,1.384,9.188,1.23S8.427,1,8,1
	C7.573,1,7.177,1.077,6.812,1.23S6.132,1.595,5.863,1.863S5.384,2.448,5.23,2.812S5,3.573,5,4H4c0-0.568,0.102-1.095,0.305-1.582
	s0.484-0.91,0.844-1.27s0.783-0.641,1.27-0.844S7.432,0,8,0s1.095,0.102,1.582,0.305s0.91,0.484,1.27,0.844s0.641,0.783,0.844,1.27
	S12,3.432,12,4v3H14z M13,8H3v7h10V8z"/>
</svg>
