<?xml version="1.0" encoding="utf-8"?>
<!-- Generator: Adobe Illustrator 19.1.0, SVG Export Plug-In . SVG Version: 6.00 Build 0)  -->
<svg version="1.1" id="Layer_1" xmlns="http://www.w3.org/2000/svg" xmlns:xlink="http://www.w3.org/1999/xlink" x="0px" y="0px"
	 width="16px" height="16px" viewBox="0 0 16 16" style="enable-background:new 0 0 16 16;" xml:space="preserve">
<style type="text/css">
	.st0{fill:#323232;}
	.st1{fill:none;}
	.st2{clip-path:url(#SVGID_2_);}
	.st3{clip-path:url(#SVGID_4_);}
	.st4{clip-path:url(#SVGID_6_);fill:#4A4A4A;}
	.st5{clip-path:url(#SVGID_8_);fill:#4A4A4A;}
</style>
<path d="M15,7.5c0,0.688-0.09,1.353-0.268,1.992s-0.43,1.237-0.754,1.794c-0.325,0.557-0.716,1.063-1.172,1.521
	c-0.457,0.456-0.963,0.847-1.52,1.172c-0.557,0.324-1.155,0.575-1.795,0.754C8.853,14.91,8.188,15,7.5,15s-1.353-0.09-1.992-0.268
	c-0.64-0.179-1.238-0.43-1.795-0.754c-0.557-0.325-1.062-0.716-1.52-1.172c-0.457-0.457-0.848-0.964-1.172-1.521
	s-0.576-1.154-0.754-1.794C0.089,8.853,0,8.188,0,7.5s0.089-1.353,0.268-1.992c0.178-0.64,0.43-1.238,0.754-1.795
	s0.715-1.063,1.172-1.52c0.457-0.457,0.963-0.848,1.52-1.172C4.27,0.696,4.867,0.445,5.504,0.268C6.142,0.089,6.807,0,7.5,0
	c0.688,0,1.353,0.089,1.992,0.268c0.64,0.178,1.238,0.429,1.795,0.754c0.557,0.324,1.062,0.715,1.52,1.172
	c0.456,0.456,0.847,0.963,1.172,1.52c0.324,0.557,0.576,1.154,0.754,1.791C14.91,6.142,15,6.807,15,7.5z M0.938,7.5
	c0,0.601,0.078,1.18,0.234,1.739c0.156,0.559,0.377,1.081,0.663,1.567c0.285,0.485,0.628,0.929,1.028,1.329s0.844,0.744,1.33,1.029
	c0.485,0.286,1.007,0.507,1.563,0.663s1.138,0.234,1.743,0.234c0.601,0,1.18-0.078,1.739-0.234s1.081-0.377,1.567-0.663
	c0.486-0.285,0.93-0.629,1.33-1.029s0.743-0.844,1.028-1.329c0.286-0.486,0.507-1.009,0.663-1.567
	c0.156-0.56,0.234-1.139,0.234-1.739s-0.078-1.181-0.234-1.739c-0.156-0.56-0.377-1.082-0.663-1.567
	c-0.285-0.486-0.628-0.93-1.028-1.33s-0.844-0.743-1.33-1.028C10.32,1.549,9.799,1.328,9.239,1.172S8.101,0.938,7.5,0.938
	S6.319,1.016,5.761,1.172c-0.56,0.156-1.082,0.377-1.567,0.663c-0.486,0.285-0.93,0.628-1.33,1.028S2.12,3.707,1.835,4.193
	C1.549,4.679,1.328,5.2,1.172,5.757S0.938,6.895,0.938,7.5z M12.209,7.5L7.83,11.872l-0.66-0.666l3.223-3.223h-7.58V7.046h7.617
	L7.163,3.779L7.822,3.12L12.209,7.5z"/>
</svg>
