<?xml version="1.0" encoding="utf-8"?>
<!-- Generator: Adobe Illustrator 19.1.0, SVG Export Plug-In . SVG Version: 6.00 Build 0)  -->
<svg version="1.1" id="Layer_1" xmlns="http://www.w3.org/2000/svg" xmlns:xlink="http://www.w3.org/1999/xlink" x="0px" y="0px"
	 width="16px" height="16px" viewBox="0 0 16 16" style="enable-background:new 0 0 16 16;" xml:space="preserve">
<style type="text/css">
	.st0{fill:#FFFFFF;stroke:#CECECE;stroke-miterlimit:10;}
	.st1{fill:#7A7A7A;}
	.st2{fill:#FF8B00;}
	.st3{fill:#FFFFFF;}
	.st4{fill:#EB1023;}
	.st5{fill:#0372C6;}
	.st6{fill:#BA131A;}
	.st7{fill:#7FBA00;}
	.st8{fill-rule:evenodd;clip-rule:evenodd;}
</style>
<path class="st8" d="M6.906,6.803c-0.109-0.502-0.213-0.941-0.322-1.32C6.478,5.106,6.38,4.834,6.29,4.667
	C6.2,4.504,6.096,4.392,5.979,4.335c-0.117-0.06-0.245-0.09-0.385-0.09c-0.235,0-0.45,0.085-0.646,0.256
	C4.749,4.67,4.493,5.022,4.174,5.556L3.342,5.06c0.415-0.627,0.769-1.102,1.064-1.421c0.292-0.322,0.584-0.545,0.87-0.674
	C5.562,2.84,5.925,2.775,6.361,2.775c0.447,0,0.815,0.125,1.105,0.376c0.286,0.251,0.513,0.682,0.679,1.295
	C8.308,5.057,8.461,5.709,8.6,6.402h0.125l0.993-1.23c0.404-0.521,0.753-0.941,1.047-1.255c0.292-0.314,0.551-0.551,0.775-0.712
	c0.224-0.158,0.447-0.27,0.671-0.335c0.224-0.063,0.491-0.095,0.799-0.095c0.374,0,0.704,0.065,0.99,0.191l-0.526,2.015h-0.927
	c-0.022-0.289-0.123-0.431-0.303-0.431c-0.109,0-0.221,0.025-0.344,0.079c-0.123,0.052-0.295,0.175-0.513,0.368
	c-0.218,0.191-0.51,0.485-0.878,0.886c-0.368,0.398-0.892,0.998-1.574,1.797c0.136,0.734,0.292,1.443,0.464,2.125
	c0.169,0.682,0.3,1.132,0.39,1.35s0.199,0.374,0.319,0.464c0.123,0.093,0.275,0.136,0.455,0.136c0.172,0,0.322-0.033,0.447-0.095
	c0.128-0.063,0.27-0.185,0.425-0.368c0.153-0.18,0.344-0.464,0.567-0.845l0.829,0.494c-0.436,0.66-0.799,1.148-1.094,1.465
	c-0.292,0.314-0.578,0.529-0.854,0.646c-0.278,0.117-0.63,0.175-1.055,0.175c-0.289,0-0.537-0.044-0.75-0.136
	c-0.215-0.09-0.398-0.235-0.554-0.431c-0.153-0.196-0.278-0.425-0.374-0.687c-0.095-0.259-0.213-0.712-0.352-1.35
	C7.662,9.983,7.577,9.565,7.545,9.375H7.433c-0.725,0.96-1.295,1.675-1.71,2.149C5.308,11.998,4.967,12.35,4.7,12.579
	c-0.267,0.229-0.529,0.393-0.791,0.496c-0.262,0.101-0.562,0.15-0.903,0.15c-0.363,0-0.698-0.068-1.006-0.207l0.526-1.996h0.927
	c0.022,0.286,0.123,0.431,0.303,0.431c0.161,0,0.333-0.06,0.521-0.177c0.185-0.117,0.502-0.412,0.949-0.886
	c0.447-0.475,1.11-1.222,1.983-2.245L6.906,6.803z"/>
</svg>
