<?xml version="1.0" encoding="utf-8"?>
<!-- Generator: Adobe Illustrator 19.1.0, SVG Export Plug-In . SVG Version: 6.00 Build 0)  -->
<svg version="1.1" id="Layer_1" xmlns="http://www.w3.org/2000/svg" xmlns:xlink="http://www.w3.org/1999/xlink" x="0px" y="0px"
	 width="16px" height="16px" viewBox="0 0 16 16" style="enable-background:new 0 0 16 16;" xml:space="preserve">
<style type="text/css">
	.st0{fill:#323232;}
	.st1{fill:none;}
	.st2{clip-path:url(#SVGID_2_);}
	.st3{clip-path:url(#SVGID_4_);}
	.st4{clip-path:url(#SVGID_6_);fill:#4A4A4A;}
	.st5{clip-path:url(#SVGID_8_);fill:#4A4A4A;}
</style>
<path d="M7.5,0c0.411,0,0.809,0.054,1.191,0.16s0.741,0.258,1.074,0.453c0.333,0.195,0.638,0.431,0.914,0.707
	c0.276,0.276,0.512,0.581,0.707,0.914s0.346,0.691,0.453,1.074C11.946,3.691,12,4.089,12,4.5c0,0.438-0.058,0.833-0.172,1.188
	c-0.115,0.354-0.266,0.679-0.453,0.973s-0.401,0.566-0.641,0.816C10.495,7.727,10.25,7.969,10,8.203S9.505,8.671,9.266,8.902
	C9.026,9.134,8.812,9.38,8.625,9.641s-0.339,0.542-0.453,0.844C8.057,10.786,8,11.125,8,11.5V13H7v-1.5
	c0-0.438,0.057-0.833,0.172-1.188C7.286,9.958,7.438,9.634,7.625,9.34s0.401-0.565,0.641-0.812C8.505,8.28,8.75,8.039,9,7.805
	s0.495-0.469,0.734-0.703c0.239-0.234,0.453-0.481,0.641-0.742s0.338-0.542,0.453-0.844C10.942,5.214,11,4.875,11,4.5
	c0-0.484-0.093-0.938-0.277-1.363c-0.185-0.425-0.435-0.794-0.75-1.109c-0.315-0.315-0.685-0.565-1.109-0.75
	C8.438,1.093,7.984,1,7.5,1S6.561,1.093,6.137,1.277c-0.425,0.185-0.794,0.435-1.109,0.75c-0.315,0.315-0.565,0.685-0.75,1.109
	C4.092,3.562,4,4.016,4,4.5H3c0-0.411,0.053-0.809,0.16-1.191c0.106-0.383,0.258-0.741,0.453-1.074S4.044,1.597,4.32,1.32
	c0.276-0.276,0.581-0.512,0.914-0.707C5.567,0.418,5.926,0.267,6.309,0.16S7.088,0,7.5,0z M7,15h1v1H7V15z"/>
</svg>
