<?xml version="1.0" encoding="utf-8"?>
<!-- Generator: Adobe Illustrator 19.1.0, SVG Export Plug-In . SVG Version: 6.00 Build 0)  -->
<svg version="1.1" id="Layer_1" xmlns="http://www.w3.org/2000/svg" xmlns:xlink="http://www.w3.org/1999/xlink" x="0px" y="0px"
	 width="16px" height="16px" viewBox="0 0 16 16" style="enable-background:new 0 0 16 16;" xml:space="preserve">
<style type="text/css">
	.st0{fill:#323232;}
	.st1{fill:none;}
	.st2{clip-path:url(#SVGID_2_);}
	.st3{clip-path:url(#SVGID_4_);}
	.st4{clip-path:url(#SVGID_6_);fill:#4A4A4A;}
	.st5{clip-path:url(#SVGID_8_);fill:#4A4A4A;}
</style>
<path d="M11.075,6.763c-0.903,0-1.354,0.834-1.354,1.762c0,0.903,0.489,1.712,1.348,1.712c0.865,0,1.354-0.796,1.354-1.756
	C12.423,7.641,11.984,6.763,11.075,6.763z"/>
<path d="M7.113,6.788c-0.238,0-0.42,0.019-0.514,0.044v1.643c0.119,0.031,0.27,0.044,0.452,0.044c0.658,0,1.06-0.32,1.06-0.903
	C8.11,7.058,7.715,6.788,7.113,6.788z"/>
<path d="M8,0C3.582,0,0,3.582,0,8s3.582,8,8,8s8-3.582,8-8S12.418,0,8,0z M5.276,6.844H3.546v1.405h1.599v0.452H3.546v1.913H3V6.386
	h2.276V6.844z M8.329,8.494C8.041,8.801,7.57,8.958,7.037,8.958c-0.163,0-0.314-0.006-0.439-0.038v1.693H6.053V6.437
	C6.316,6.393,6.661,6.355,7.1,6.355c0.539,0,0.934,0.125,1.185,0.351c0.232,0.201,0.37,0.508,0.37,0.884
	C8.656,7.973,8.543,8.274,8.329,8.494z M11.037,10.682c-1.116,0-1.9-0.865-1.9-2.145c0-1.342,0.834-2.22,1.963-2.22
	c1.154,0,1.9,0.884,1.9,2.138C13,9.911,12.115,10.682,11.037,10.682z"/>
</svg>
