<?xml version="1.0" encoding="utf-8"?>
<!-- Generator: Adobe Illustrator 19.1.0, SVG Export Plug-In . SVG Version: 6.00 Build 0)  -->
<svg version="1.1" id="Layer_1" xmlns="http://www.w3.org/2000/svg" xmlns:xlink="http://www.w3.org/1999/xlink" x="0px" y="0px"
	 width="16px" height="16px" viewBox="0 0 16 16" style="enable-background:new 0 0 16 16;" xml:space="preserve">
<style type="text/css">
	.st0{fill:#323232;}
	.st1{fill:none;}
	.st2{clip-path:url(#SVGID_2_);}
	.st3{clip-path:url(#SVGID_4_);}
	.st4{clip-path:url(#SVGID_6_);fill:#4A4A4A;}
	.st5{clip-path:url(#SVGID_8_);fill:#4A4A4A;}
</style>
<path d="M16,5.548c-0.177,0.177-0.35,0.339-0.519,0.486c-0.169,0.148-0.343,0.272-0.523,0.374c-0.18,0.102-0.375,0.181-0.587,0.237
	c-0.212,0.056-0.451,0.084-0.72,0.084c-0.182,0-0.357-0.016-0.523-0.048l-3.047,3.047c0.069,0.204,0.121,0.413,0.153,0.627
	s0.048,0.429,0.048,0.643c0,0.349-0.035,0.664-0.105,0.949c-0.069,0.284-0.17,0.552-0.302,0.804s-0.29,0.491-0.478,0.72
	C9.211,13.699,9,13.931,8.764,14.167L5.66,11.063l-4.567,4.575L0,16l0.362-1.093l4.575-4.567L1.833,7.236l0.362-0.362
	C2.57,6.499,3,6.212,3.485,6.014s0.993-0.297,1.524-0.297c0.439,0,0.86,0.067,1.262,0.201L9.319,2.87
	C9.286,2.705,9.27,2.53,9.27,2.348c0-0.262,0.028-0.499,0.084-0.712C9.411,1.424,9.49,1.227,9.592,1.045
	c0.102-0.182,0.226-0.358,0.374-0.527C10.114,0.35,10.275,0.177,10.452,0L16,5.548z M13.652,5.701c0.294,0,0.574-0.069,0.836-0.209
	l-3.98-3.98c-0.14,0.262-0.209,0.542-0.209,0.836c0,0.15,0.017,0.29,0.052,0.422c0.035,0.132,0.073,0.266,0.117,0.406L6.513,7.124
	C6.379,7.07,6.252,7.019,6.135,6.971C6.017,6.923,5.898,6.882,5.781,6.85c-0.118-0.032-0.24-0.057-0.366-0.076
	S5.154,6.746,5.009,6.746c-0.306,0-0.602,0.044-0.888,0.133c-0.286,0.088-0.554,0.218-0.8,0.39l5.411,5.411
	c0.172-0.246,0.303-0.514,0.394-0.8c0.091-0.286,0.137-0.58,0.137-0.88c0-0.145-0.009-0.28-0.028-0.406
	c-0.019-0.126-0.045-0.249-0.08-0.37c-0.035-0.121-0.076-0.24-0.125-0.358C8.981,9.748,8.93,9.621,8.876,9.487l3.948-3.956
	c0.14,0.043,0.274,0.081,0.406,0.117C13.362,5.683,13.503,5.701,13.652,5.701z"/>
</svg>
