<?xml version="1.0" encoding="utf-8"?>
<!-- Generator: Adobe Illustrator 19.1.0, SVG Export Plug-In . SVG Version: 6.00 Build 0)  -->
<svg version="1.1" id="Layer_1" xmlns="http://www.w3.org/2000/svg" xmlns:xlink="http://www.w3.org/1999/xlink" x="0px" y="0px"
	 width="16px" height="16px" viewBox="0 0 16 16" style="enable-background:new 0 0 16 16;" xml:space="preserve">
<style type="text/css">
	.st0{fill:#323232;}
	.st1{fill:none;}
	.st2{clip-path:url(#SVGID_2_);}
	.st3{clip-path:url(#SVGID_4_);}
	.st4{clip-path:url(#SVGID_6_);fill:#4A4A4A;}
	.st5{clip-path:url(#SVGID_8_);fill:#4A4A4A;}
</style>
<path d="M2.711,8H2.406L8,13.594L12.594,9h1.414L8,15.008l-6.758-6.75C1.06,8.076,0.898,7.879,0.758,7.668S0.495,7.234,0.391,7
	h1.898L4.5,4.797L8,8.289l2.5-2.492L11.711,7h2.773c0.167-0.266,0.294-0.547,0.383-0.844S15,5.555,15,5.242
	c0-0.453-0.085-0.875-0.254-1.266s-0.401-0.73-0.695-1.02s-0.638-0.516-1.031-0.68s-0.816-0.246-1.27-0.246
	c-0.438,0-0.825,0.069-1.164,0.207c-0.339,0.138-0.651,0.319-0.938,0.543C9.362,3.005,9.087,3.259,8.824,3.543
	C8.562,3.827,8.286,4.115,8,4.406C7.719,4.125,7.445,3.841,7.18,3.555C6.914,3.269,6.637,3.011,6.348,2.781
	C6.059,2.552,5.743,2.365,5.402,2.219C5.062,2.073,4.677,2,4.25,2C3.802,2,3.382,2.085,2.988,2.254
	C2.595,2.423,2.251,2.655,1.957,2.949C1.663,3.244,1.431,3.587,1.262,3.98C1.093,4.374,1.008,4.794,1.008,5.242
	C1.008,5.487,1.036,5.74,1.094,6H0.07C0.044,5.875,0.027,5.75,0.02,5.625S0.008,5.375,0.008,5.25c0-0.588,0.11-1.141,0.332-1.656
	s0.523-0.966,0.906-1.352c0.383-0.385,0.832-0.688,1.348-0.91C3.109,1.111,3.661,1,4.25,1c0.433,0,0.817,0.05,1.156,0.148
	c0.339,0.099,0.652,0.236,0.941,0.41c0.289,0.175,0.565,0.384,0.828,0.629C7.438,2.433,7.714,2.701,8,2.992
	c0.286-0.292,0.562-0.56,0.824-0.805c0.263-0.245,0.539-0.454,0.828-0.629c0.289-0.174,0.603-0.311,0.941-0.41
	C10.933,1.05,11.317,1,11.75,1c0.583,0,1.133,0.111,1.648,0.332c0.516,0.222,0.965,0.522,1.348,0.902
	c0.383,0.38,0.685,0.828,0.906,1.344s0.332,1.065,0.332,1.648c0,0.505-0.089,0.996-0.266,1.473S15.289,7.609,14.961,8h-3.672
	L10.5,7.203L8,9.711L4.5,6.203L2.711,8z"/>
</svg>
