<?xml version="1.0" encoding="utf-8"?>
<!-- Generator: Adobe Illustrator 18.1.1, SVG Export Plug-In . SVG Version: 6.00 Build 0)  -->
<svg version="1.1" xmlns="http://www.w3.org/2000/svg" xmlns:xlink="http://www.w3.org/1999/xlink" x="0px" y="0px" width="128px"
	 height="128px" viewBox="0 0 128 128" style="enable-background:new 0 0 128 128;" xml:space="preserve">
<g id="BASE">
	<linearGradient id="SVGID_1_" gradientUnits="userSpaceOnUse" x1="63.9997" y1="7.0336" x2="63.9997" y2="120.7894">
		<stop  offset="0" style="stop-color:#4387FD"/>
		<stop  offset="1" style="stop-color:#4683EA"/>
	</linearGradient>
	<path style="fill:url(#SVGID_1_);" d="M27.7906,115.2166L1.54,69.7493c-2.0541-3.5578-2.0541-7.9412,0-11.499l26.2506-45.4672
		c2.0541-3.5578,5.8503-5.7495,9.9585-5.7495h52.5012c4.1082,0,7.9044,2.1917,9.9585,5.7495l26.2506,45.4672
		c2.0541,3.5578,2.0541,7.9412,0,11.499l-26.2506,45.4672c-2.0541,3.5578-5.8503,5.7495-9.9585,5.7495H37.7491
		C33.6409,120.9661,29.8448,118.7744,27.7906,115.2166z"/>
</g>
<g id="shadow">
	<g>
		<defs>
			<path id="SVGID_5_" d="M27.7911,115.2166L1.5406,69.7493c-2.0541-3.5578-2.0541-7.9412,0-11.499l26.2505-45.4672
				c2.0541-3.5578,5.8502-5.7495,9.9585-5.7495h52.501c4.1082,0,7.9044,2.1917,9.9585,5.7495l26.2505,45.4672
				c2.0541,3.5578,2.0541,7.9412,0,11.499l-26.2505,45.4672c-2.0541,3.5578-5.8503,5.7495-9.9585,5.7495h-52.501
				C33.6413,120.9661,29.8452,118.7744,27.7911,115.2166z"/>
		</defs>
		<clipPath id="SVGID_2_">
			<use xlink:href="#SVGID_5_"  style="overflow:visible;"/>
		</clipPath>
		<polygon style="opacity:0.07;clip-path:url(#SVGID_2_);" points="122.7083,77.9582 80.3333,35.5832 64.125,39.4582 
			47.625,35.6665 55.8333,43.8749 42.05,58.1975 44.55,60.6975 42.1601,66.5767 47.1601,71.5767 42.0625,76.7707 54.75,89.4582 
			47.6431,92.5909 77.1302,122.078 97.6671,122.0415 		"/>
	</g>
</g>
<g id="art">
	<g>
		<g>
			<circle style="fill:#FFFFFF;" cx="83.1572" cy="64.148" r="3.5745"/>
			<circle style="fill:#FFFFFF;" cx="44.8428" cy="64.148" r="3.5745"/>
		</g>
		<g>
			<circle style="fill:#FFFFFF;" cx="64" cy="58.7862" r="3.5745"/>
			<circle style="fill:#FFFFFF;" cx="64" cy="69.5098" r="3.5745"/>
		</g>
		<polygon style="fill:#FFFFFF;" points="69.3887,41.9868 80.3697,35.6469 75.055,32.5785 74.9078,32.5785 64.0005,38.8759 
			64.0002,38.8758 64,38.8759 53.0927,32.5785 52.9455,32.5785 47.6308,35.6469 58.6118,41.9868 42.05,51.4961 42.05,58.1975 
			47.7,58.1975 47.7,54.607 61.2821,46.667 61.2821,52.4993 66.7184,52.4993 66.7184,46.667 80.275,54.607 80.275,58.1975 
			85.95,58.1975 85.95,51.4961 		"/>
		<polygon style="fill:#FFFFFF;" points="80.275,73.6259 66.7184,81.566 66.7184,75.8019 61.2821,75.8019 61.2821,81.566 
			47.7,73.6259 47.7,70.0354 42.05,70.0354 42.05,76.7368 58.6266,86.2547 47.6308,92.6032 52.9454,95.6716 53.0927,95.6716 
			64.0002,89.3741 74.9078,95.6716 75.055,95.6716 80.3697,92.6032 69.3738,86.2547 85.95,76.7368 85.95,70.0354 80.275,70.0354 		
			"/>
	</g>
</g>
<g id="Guides" style="display:none;">
</g>
</svg>
