<?xml version="1.0" encoding="utf-8"?>
<!-- Generator: Adobe Illustrator 19.0.1, SVG Export Plug-In . SVG Version: 6.00 Build 0)  -->
<svg version="1.1" xmlns="http://www.w3.org/2000/svg" xmlns:xlink="http://www.w3.org/1999/xlink" x="0px" y="0px" width="128px"
	 height="128px" viewBox="0 0 128 128" style="enable-background:new 0 0 128 128;" xml:space="preserve">
<g id="BASE">
	<linearGradient id="SVGID_1_" gradientUnits="userSpaceOnUse" x1="63.9997" y1="7.0336" x2="63.9997" y2="120.7894">
		<stop  offset="0" style="stop-color:#4387FD"/>
		<stop  offset="1" style="stop-color:#4683EA"/>
	</linearGradient>
	<path style="fill:url(#SVGID_1_);" d="M27.7906,115.2166L1.54,69.7493c-2.0541-3.5578-2.0541-7.9412,0-11.499l26.2506-45.4672
		c2.0542-3.5578,5.8503-5.7495,9.9585-5.7495h52.5012c4.1082,0,7.9044,2.1917,9.9585,5.7495l26.2506,45.4672
		c2.0541,3.5578,2.0541,7.9412,0,11.499l-26.2506,45.4673c-2.0541,3.5578-5.8503,5.7495-9.9585,5.7495H37.7491
		C33.6409,120.9661,29.8448,118.7744,27.7906,115.2166z"/>
</g>
<g id="shadow">
	<g>
		<defs>
			<path id="SVGID_5_" d="M27.7911,115.2166L1.5406,69.7494c-2.0541-3.5578-2.0541-7.9412,0-11.499l26.2505-45.4672
				c2.0541-3.5578,5.8502-5.7495,9.9585-5.7495h52.5009c4.1082,0,7.9044,2.1917,9.9585,5.7495l26.2505,45.4672
				c2.0541,3.5578,2.0541,7.9412,0,11.499l-26.2505,45.4672c-2.0541,3.5578-5.8502,5.7495-9.9585,5.7495H37.7495
				C33.6413,120.9661,29.8452,118.7744,27.7911,115.2166z"/>
		</defs>
		<clipPath id="SVGID_2_">
			<use xlink:href="#SVGID_5_"  style="overflow:visible;"/>
		</clipPath>
		<polygon style="opacity:0.07;clip-path:url(#SVGID_2_);" points="118.7083,84.7916 72.3021,38.3853 57,38.9999 51.1723,65.1305 
			56.25,73.9999 39.75,71.4999 36.2865,86.6509 72.651,123.0155 97.6671,121.9478 		"/>
	</g>
</g>
<g id="art">
	<g>
		<path style="fill:#FFFFFF;" d="M73.3976,40.0059c0,0,0.0002,0.0004,0.0004,0.0006c1.0485,1.8165,1.6026,3.8896,1.6021,5.9958
			c-0.0005,3.2054-1.2493,6.2185-3.5162,8.4846s-5.2806,3.5138-8.4861,3.5133c-4.2736-0.001-8.257-2.3026-10.3955-6.0066
			c-1.0487-1.8164-1.6026-3.8896-1.6022-5.996c0.0011-6.6167,5.3853-11.9989,12.0023-11.9979
			C67.2759,34.0007,71.2592,36.3022,73.3976,40.0059z M57.949,48.9067c1.0395,1.8005,2.9746,2.9192,5.0499,2.9198
			c3.2125,0.0004,5.8266-2.6127,5.8272-5.8253c0.0003-1.0235-0.2678-2.0292-0.7752-2.9081
			c-1.0392-1.8004-2.9743-2.9191-5.0498-2.9196c-3.2125-0.0004-5.8266,2.6127-5.8272,5.8253
			C57.1735,47.0226,57.4417,48.028,57.949,48.9067z"/>
		<path style="fill:#FFFFFF;" d="M51,75.4036c2.2971,0.9669,4.3798,2.5185,6,4.5964V50l-5.9965-3.9919L51,75.4036z"/>
		<path style="fill:#FFFFFF;" d="M93.1269,71.8646c0,0,0.0003,0.0004,0.0004,0.0006c2.1393,3.7059,2.1398,8.3078,0.0016,12.0098
			c-3.3094,5.7296-10.6632,7.6986-16.3931,4.3892c-1.8224-1.0527-3.3396-2.5683-4.3873-4.3831
			c-2.1395-3.7058-2.1403-8.3077-0.0018-12.0101c3.3095-5.7295,10.6635-7.6985,16.3932-4.3891
			C90.5622,68.5346,92.0793,70.0501,93.1269,71.8646z M77.6951,80.7942c0.5069,0.8779,1.2429,1.6123,2.1286,2.124
			c2.7818,1.6067,6.3524,0.6507,7.959-2.1311c1.0384-1.7978,1.0375-4.0338-0.0024-5.8353l-0.0002-0.0003
			c-0.5067-0.8777-1.2426-1.6119-2.1283-2.1235c-2.7818-1.6067-6.3524-0.6507-7.9591,2.131
			C76.6542,76.757,76.6551,78.9928,77.6951,80.7942z"/>
		<path style="fill:#FFFFFF;" d="M55.7765,55.3787l26.4972,15.2981l6.4641-3.1962l-25.9808-15
			C60.7711,53.9867,58.386,55.0145,55.7765,55.3787z"/>
		<path style="fill:#FFFFFF;" d="M55.6228,73.0263C55.6228,73.0263,55.6227,73.026,55.6228,73.0263l0.0012,0.0021
			c1.6021,2.7761,2.0273,6.01,1.1971,9.1059s-2.8163,5.6832-5.5924,7.2853c-5.7299,3.3066-13.0824,1.3358-16.3901-4.3933
			c-1.6032-2.7783-2.0284-6.0122-1.1982-9.108c0.8301-3.0961,2.8163-5.6832,5.5924-7.2854
			C44.9624,65.3267,52.3154,67.2978,55.6228,73.0263z M40.1847,81.9384c1.6065,2.7826,5.1763,3.7394,7.9582,2.134
			c1.3479-0.7778,2.3121-2.034,2.7152-3.537c0.403-1.5031,0.1966-3.0732-0.5813-4.421l-0.0007-0.0012
			c-1.6059-2.7815-5.1757-3.7386-7.9575-2.133c-1.3478,0.7779-2.3121,2.034-2.7152,3.5371
			C39.2004,79.0205,39.4068,80.5906,40.1847,81.9384z"/>
		<path style="fill:#FFFFFF;" d="M79.4076,66.2224l-27.7128,16l-0.3898,7.1492l25.0405-14.453
			C76.034,72.4461,78.4189,68.6643,79.4076,66.2224z"/>
	</g>
</g>
<g id="Guides">
</g>
</svg>
