<?xml version="1.0" encoding="utf-8"?>
<!-- Generator: Adobe Illustrator 18.1.1, SVG Export Plug-In . SVG Version: 6.00 Build 0)  -->
<svg version="1.1" xmlns="http://www.w3.org/2000/svg" xmlns:xlink="http://www.w3.org/1999/xlink" x="0px" y="0px" width="128px"
	 height="128px" viewBox="0 0 128 128" style="enable-background:new 0 0 128 128;" xml:space="preserve">
<g id="BASE">
	<linearGradient id="SVGID_1_" gradientUnits="userSpaceOnUse" x1="63.9997" y1="7.0336" x2="63.9997" y2="120.7894">
		<stop  offset="0" style="stop-color:#4387FD"/>
		<stop  offset="1" style="stop-color:#4683EA"/>
	</linearGradient>
	<path style="fill:url(#SVGID_1_);" d="M27.7906,115.2166L1.54,69.7493c-2.0541-3.5578-2.0541-7.9412,0-11.499l26.2506-45.4672
		c2.0542-3.5578,5.8503-5.7495,9.9585-5.7495h52.5012c4.1082,0,7.9044,2.1917,9.9585,5.7495l26.2506,45.4672
		c2.0541,3.5578,2.0541,7.9412,0,11.499l-26.2506,45.4673c-2.0541,3.5578-5.8503,5.7495-9.9585,5.7495H37.7491
		C33.6409,120.9661,29.8448,118.7744,27.7906,115.2166z"/>
</g>
<g id="shadow">
	<g>
		<defs>
			<path id="SVGID_5_" d="M27.7911,115.2166L1.5406,69.7493c-2.0541-3.5578-2.0541-7.9412,0-11.499l26.2505-45.4672
				c2.0541-3.5578,5.8502-5.7495,9.9584-5.7495h52.501c4.1082,0,7.9043,2.1917,9.9584,5.7495l26.2505,45.4672
				c2.0541,3.5578,2.0541,7.9412,0,11.499l-26.2505,45.4673c-2.0541,3.5578-5.8502,5.7495-9.9584,5.7495h-52.501
				C33.6413,120.9661,29.8452,118.7744,27.7911,115.2166z"/>
		</defs>
		<clipPath id="SVGID_2_">
			<use xlink:href="#SVGID_5_"  style="overflow:visible;"/>
		</clipPath>
		<polygon style="opacity:0.07;clip-path:url(#SVGID_2_);" points="125.3542,74.0728 88.0208,36.7395 82.75,42.6874 78.5938,39.416 
			64.125,39.3645 40.6563,41.479 50.1667,50.9895 48.7531,55.1975 67.8324,74.2768 57.4219,75.078 53.8789,72.2954 48.1719,77.927 
			59.4583,89.2134 49.3281,88.5558 45.6094,85.5936 40.1667,91.4582 70.724,122.0155 97.6671,121.9478 		"/>
	</g>
</g>
<g id="art">
	<g>
		<polygon style="fill:#FFFFFF;" points="52.9438,54.7906 68.8693,54.7906 70.7163,52.9445 68.8693,51.1006 52.9438,51.1006 		"/>
		<circle style="fill:#FFFFFF;" cx="50.8287" cy="52.9432" r="3.075"/>
		<circle style="fill:#FFFFFF;" cx="77.1713" cy="52.9432" r="3.9975"/>
	</g>
	<g>
		<polygon style="fill:#FFFFFF;" points="57.4021,75.0578 59.2476,76.9039 74.9425,76.9039 74.9425,73.2139 59.2476,73.2139 		"/>
		<circle style="fill:#FFFFFF;" cx="50.9825" cy="75.0565" r="3.9975"/>
		<circle style="fill:#FFFFFF;" cx="77.0944" cy="75.0565" r="3.075"/>
	</g>
	<g>
		<polygon style="fill:#FFFFFF;" points="45.0428,41.2716 76.7474,41.2716 78.5928,39.427 76.7474,37.5847 45.0428,37.5816 		"/>
		<circle style="fill:#FFFFFF;" cx="42.9602" cy="39.4266" r="3.075"/>
		<circle style="fill:#FFFFFF;" cx="85.0493" cy="39.4266" r="3.9975"/>
	</g>
	<g>
		<polygon style="fill:#FFFFFF;" points="49.3233,88.5735 51.1672,90.4181 82.9102,90.4181 82.9102,86.7312 51.1672,86.7281 		"/>
		<circle style="fill:#FFFFFF;" cx="42.9346" cy="88.5731" r="3.9975"/>
		<circle style="fill:#FFFFFF;" cx="85.0621" cy="88.5731" r="3.075"/>
	</g>
	<g>
		<circle style="fill:#FFFFFF;" cx="64" cy="63.9999" r="3.9975"/>
	</g>
</g>
<g id="Guides">
</g>
</svg>
