<?xml version="1.0" encoding="utf-8"?>
<!-- Generator: Adobe Illustrator 18.1.0, SVG Export Plug-In . SVG Version: 6.00 Build 0)  -->
<!DOCTYPE svg PUBLIC "-//W3C//DTD SVG 1.1//EN" "http://www.w3.org/Graphics/SVG/1.1/DTD/svg11.dtd">
<svg version="1.1" id="Layer_1" xmlns="http://www.w3.org/2000/svg" xmlns:xlink="http://www.w3.org/1999/xlink" x="0px" y="0px"
	 viewBox="0 0 216 216" enable-background="new 0 0 216 216" xml:space="preserve">
<g>
	<g id="shape28-2">
		<title>Sheet.28</title>
		<path fill="#00188F" d="M126.8,93.3c-0.3-0.3-0.7-0.5-1-0.5c-0.1,0-0.2,0-0.3,0H91.4c-0.9,0-1.6,0.9-1.6,1.9v26.5
			c0,1.1,0.7,1.9,1.6,1.9h34.3c0.9,0,1.6-0.9,1.6-1.9V95.3C127.3,96,127.4,93.9,126.8,93.3z M102.8,118.2c-0.1,0.2-0.2,0.5-0.2,0.7
			h-3V97.7c0-0.6,0.5-1.1,1.1-1.1h8.7c0.6,0,1.1,0.5,1.1,1.1v8.8c-0.4,0-0.7,0.3-0.9,0.6l-3.9,6.4h-4.5v1.1h3.8l-0.6,1.1h-3.2v1.1
			h2.5L102.8,118.2z M116.8,118.8h-12.4c-0.5,0-0.7-0.4-0.5-0.8l6.2-10.3c0.3-0.5,0.7-0.5,1,0l6.2,10.3
			C117.6,118.5,117.4,118.8,116.8,118.8z"/>
	</g>
	<rect x="101.2" y="99.9" fill="#00188F" width="7.6" height="1.1"/>
	<polygon fill="#00188F" points="113.2,114.6 112.7,114.6 111,114.6 111,113.5 112.1,113.5 112.1,111.8 109.4,111.8 109.4,113.5 
		110.5,113.5 110.5,114.6 108.8,114.6 108.3,114.6 108.3,116.2 107.2,116.2 107.2,117.8 109.9,117.8 109.9,116.2 108.8,116.2 
		108.8,115.1 110.5,115.1 111,115.1 112.7,115.1 112.7,116.2 111.6,116.2 111.6,117.8 114.3,117.8 114.3,116.2 113.2,116.2 	"/>
</g>
</svg>
