<?xml version="1.0" encoding="utf-8"?>
<!-- Generator: Adobe Illustrator 18.1.0, SVG Export Plug-In . SVG Version: 6.00 Build 0)  -->
<!DOCTYPE svg PUBLIC "-//W3C//DTD SVG 1.1//EN" "http://www.w3.org/Graphics/SVG/1.1/DTD/svg11.dtd">
<svg version="1.1" xmlns="http://www.w3.org/2000/svg" xmlns:xlink="http://www.w3.org/1999/xlink" x="0px" y="0px"
	 viewBox="0 0 216 216" enable-background="new 0 0 216 216" xml:space="preserve">
<g id="Layer_1">
</g>
<g id="Top_Layer">
	<g>
		<path fill="#00188F" d="M129.3,95.8c-0.4-0.4-0.8-0.6-1.2-0.6h-0.3c0-0.6-0.2-1.7-0.6-2.1c-0.4-0.4-0.8-0.6-1.2-0.6h-0.8
			c-0.1-0.5-0.2-1.1-0.4-1.4c-0.3-0.3-0.7-0.5-1-0.5c-0.1,0-0.2,0-0.3,0H89.3c-0.9,0-1.6,0.9-1.6,1.9v26.5c0,1.1,0.7,1.9,1.6,1.9
			h0.2v0.3c0,1.3,0.9,2.3,2,2.3h0.1v0.4c0,1.3,0.9,2.3,2,2.3h34.3c1.1,0,2-1.1,2-2.3V98.2c0,0,0,0,0,0v0
			C129.9,97.6,129.8,96.3,129.3,95.8z M109,105.6l6.2,10.3c0.3,0.4,0.1,0.8-0.5,0.8h-12.4c-0.5,0-0.7-0.4-0.5-0.8l6.2-10.3
			C108.3,105.2,108.7,105.2,109,105.6z M97.5,95.5c0-0.6,0.5-1.1,1.1-1.1h8.7c0.6,0,1.1,0.5,1.1,1.1v8.8c-0.4,0-0.7,0.3-0.9,0.6
			l-3.9,6.4h-4.5v1.1h3.8l-0.6,1.1h-3.2v1.1h2.5l-0.9,1.5c-0.1,0.2-0.2,0.5-0.2,0.7h-3V95.5z M90.2,121.3V121h33.3
			c0.9,0,1.6-0.9,1.6-1.9V93.2h0c0,0,0,0,0,0h0.8c0.2,0,0.5,0.1,0.7,0.4c0.3,0.3,0.4,1.3,0.4,1.7l0,25.9c0,0.8-0.6,1.5-1.3,1.5H91.5
			C90.8,122.8,90.2,122.2,90.2,121.3z M129.1,124c0,0.8-0.6,1.5-1.3,1.5H93.6c-0.7,0-1.3-0.7-1.3-1.5v-0.4h33.4c1.1,0,2-1.1,2-2.3
			l0-25.3h0.3c0.2,0,0.5,0.1,0.7,0.4c0.3,0.3,0.4,1.3,0.4,1.7L129.1,124z"/>
		<rect x="99.1" y="97.7" fill="#00188F" width="7.6" height="1.1"/>
		<polygon fill="#00188F" points="107.3,111.3 108.4,111.3 108.4,112.4 106.7,112.4 106.2,112.4 106.2,114.1 105.1,114.1 
			105.1,115.7 107.8,115.7 107.8,114.1 106.7,114.1 106.7,113 108.4,113 108.9,113 110.5,113 110.5,114.1 109.4,114.1 109.4,115.7 
			112.2,115.7 112.2,114.1 111.1,114.1 111.1,112.4 110.5,112.4 108.9,112.4 108.9,111.3 110,111.3 110,109.7 107.3,109.7 		"/>
	</g>
</g>
</svg>
