<?xml version="1.0" encoding="utf-8"?>
<!-- Generator: Adobe Illustrator 18.1.0, SVG Export Plug-In . SVG Version: 6.00 Build 0)  -->
<!DOCTYPE svg PUBLIC "-//W3C//DTD SVG 1.1//EN" "http://www.w3.org/Graphics/SVG/1.1/DTD/svg11.dtd">
<svg version="1.1" id="Layer_1" xmlns="http://www.w3.org/2000/svg" xmlns:xlink="http://www.w3.org/1999/xlink" x="0px" y="0px"
	 viewBox="0 0 216 216" enable-background="new 0 0 216 216" xml:space="preserve">
<g>
	<rect x="100.7" y="100.6" fill="#00188F" width="7.4" height="1.1"/>
	<g>
		<path fill="#00188F" d="M106.2,113v6h11v-6H106.2z M110.9,117.8h-3.7V114h3.7V117.8z M116.1,117.8h-3.9v-0.5h3.9V117.8z
			 M116.1,116.7h-3.9v-0.5h3.9V116.7z M116.1,115.7h-3.9v-0.5h3.9V115.7z M116.1,114.6h-3.9V114h3.9V114.6z"/>
	</g>
	<path fill="#00188F" d="M126.7,93.8c-0.3-0.3-0.7-0.5-1-0.5c-0.1,0-0.2,0-0.3,0H91.3c-0.9,0-1.6,0.9-1.6,1.9v26.5
		c0,1,0.7,1.9,1.6,1.9h34.3c0.9,0,1.6-0.9,1.6-1.9V95.8C127.2,96.5,127.3,94.4,126.7,93.8z M104.9,110.4v0.5v3.3h-4.2v1.1h4.2v1.1
		h-4.2v1.1h4.2v2.2h-5.8V98.5c0-0.6,0.5-1.1,1.1-1.1h8.4c0.6,0,1.1,0.5,1.1,1.1v11.9c-0.5,0-0.7,0-1.1,0h-3.1H104.9z M117.8,119.6
		h-12.1v-8.4h12.1V119.6z"/>
</g>
</svg>
