<?xml version="1.0" encoding="utf-8"?>
<!-- Generator: Adobe Illustrator 18.1.0, SVG Export Plug-In . SVG Version: 6.00 Build 0)  -->
<!DOCTYPE svg PUBLIC "-//W3C//DTD SVG 1.1//EN" "http://www.w3.org/Graphics/SVG/1.1/DTD/svg11.dtd">
<svg version="1.1" xmlns="http://www.w3.org/2000/svg" xmlns:xlink="http://www.w3.org/1999/xlink" x="0px" y="0px"
	 viewBox="0 0 216 216" enable-background="new 0 0 216 216" xml:space="preserve">
<g id="Layer_1">
</g>
<g id="Top_Layer">
	<g>
		<path fill="#00188F" d="M131,95c-0.4-0.4-0.8-0.6-1.2-0.6h-0.3c0-0.6-0.2-1.7-0.6-2.1c-0.4-0.4-0.8-0.6-1.2-0.6h-0.8
			c-0.1-0.5-0.2-1-0.4-1.3c-0.3-0.3-0.7-0.5-1-0.5c-0.1,0-0.2,0-0.3,0H90.9c-0.9,0-1.6,0.9-1.6,1.9v26.5c0,1,0.7,1.9,1.6,1.9h0.2
			v0.2c0,1.3,0.9,2.3,2,2.3h0.1v0.4c0,1.3,0.9,2.3,2,2.3h34.3c1.1,0,2-1.1,2-2.3V97.4c0,0,0,0,0,0v0C131.6,96.9,131.5,95.5,131,95z
			 M98.8,95.1c0-0.6,0.5-1.1,1.1-1.1h8.4c0.6,0,1.1,0.5,1.1,1.1V107c-0.5,0-0.7,0-1.1,0h-3.1h-0.5v0.5v3.3h-4.2v1.1h4.2v1.1h-4.2
			v1.1h4.2v2.2h-5.8V95.1z M117.4,107.8v8.4h-12.1v-8.4H117.4z M93.2,122.1c-0.7,0-1.3-0.7-1.3-1.5v-0.2h33.3c0.9,0,1.6-0.9,1.6-1.9
			V92.5h0c0,0.1,0,0.1,0,0h0.8c0.2,0,0.5,0.1,0.7,0.4c0.3,0.3,0.4,1.3,0.4,1.7l0,25.9c0,0.8-0.6,1.5-1.3,1.5H93.2z M130.8,123.2
			c0,0.8-0.6,1.5-1.3,1.5H95.3c-0.7,0-1.3-0.7-1.3-1.5v-0.4h33.4c1.1,0,2-1.1,2-2.3l0-25.3h0.3c0.2,0,0.5,0.1,0.7,0.4
			c0.3,0.3,0.4,1.3,0.4,1.7L130.8,123.2z"/>
		<rect x="100.4" y="97.3" fill="#00188F" width="7.4" height="1.1"/>
		<path fill="#00188F" d="M116.8,109.6h-11v6h11V109.6z M110.5,114.5h-3.7v-3.8h3.7V114.5z M115.8,114.5h-3.9v-0.5h3.9V114.5z
			 M115.8,113.4h-3.9v-0.5h3.9V113.4z M115.8,112.3h-3.9v-0.5h3.9V112.3z M115.8,111.2h-3.9v-0.5h3.9V111.2z"/>
	</g>
	<line fill="none" x1="86.6" y1="109.6" x2="87.4" y2="109.6"/>
</g>
</svg>
