<?xml version="1.0" encoding="utf-8"?>
<!-- Generator: Adobe Illustrator 18.1.0, SVG Export Plug-In . SVG Version: 6.00 Build 0)  -->
<!DOCTYPE svg PUBLIC "-//W3C//DTD SVG 1.1//EN" "http://www.w3.org/Graphics/SVG/1.1/DTD/svg11.dtd">
<svg version="1.1" id="Layer_1" xmlns="http://www.w3.org/2000/svg" xmlns:xlink="http://www.w3.org/1999/xlink" x="0px" y="0px"
	 viewBox="0 0 216 216" enable-background="new 0 0 216 216" xml:space="preserve">
<g>
	<path fill="#00188F" d="M126.8,93.7c-0.3-0.3-0.7-0.5-1-0.5c-0.1,0-0.2,0-0.3,0H91.4c-0.9,0-1.6,0.9-1.6,1.9v26.5
		c0,1.1,0.7,1.9,1.6,1.9h34.3c0.9,0,1.6-0.9,1.6-1.9V95.8C127.3,96.4,127.4,94.3,126.8,93.7z M99.8,119.9V98c0-0.6,0.5-1.1,1.1-1.1
		h9c0.6,0,1.1,0.5,1.1,1.1v7c-2.1,0.3-3.9,1.1-3.9,2.6v0.2v1v5.5h-5.6v1.1h5.6v1.1h-5.6v1.1h5.6v0.2c0,0.8,0.4,1.5,1.2,2H99.8z
		 M117.3,117.9c0,1.1-2,2-4.5,2s-4.5-0.9-4.5-2v-9.1c0.9,0.8,2.8,1.1,4.5,1.1s3.6-0.3,4.5-1.1V117.9z M112.8,109.2
		c-2.5,0-4.5-0.7-4.5-1.6c0-0.9,2-1.6,4.5-1.6s4.5,0.7,4.5,1.6C117.3,108.5,115.3,109.2,112.8,109.2z"/>
	<rect x="101.5" y="100.2" fill="#00188F" width="7.9" height="1.1"/>
</g>
</svg>
