<?xml version="1.0" encoding="utf-8"?>
<!-- Generator: Adobe Illustrator 18.1.0, SVG Export Plug-In . SVG Version: 6.00 Build 0)  -->
<!DOCTYPE svg PUBLIC "-//W3C//DTD SVG 1.1//EN" "http://www.w3.org/Graphics/SVG/1.1/DTD/svg11.dtd">
<svg version="1.1" xmlns="http://www.w3.org/2000/svg" xmlns:xlink="http://www.w3.org/1999/xlink" x="0px" y="0px"
	 viewBox="0 0 216 216" enable-background="new 0 0 216 216" xml:space="preserve">
<g id="Layer_1">
</g>
<g id="Top_Layer">
	<g>
		<rect x="99" y="96.8" fill="#00188F" width="7.9" height="1.1"/>
		<path fill="#00188F" d="M128.8,95c-0.4-0.4-0.8-0.6-1.2-0.6h-0.3c0-0.6-0.2-1.7-0.6-2.1c-0.4-0.4-0.8-0.6-1.2-0.6h-0.8
			c-0.1-0.5-0.2-1.1-0.4-1.4c-0.3-0.3-0.7-0.5-1-0.5c-0.1,0-0.2,0-0.3,0H88.8c-0.9,0-1.6,0.9-1.6,1.9v26.5c0,1.1,0.7,1.9,1.6,1.9H89
			v0.3c0,1.3,0.9,2.3,2,2.3h0.1v0.4c0,1.3,0.9,2.3,2,2.3h34.3c1.1,0,2-1.1,2-2.3V97.4c0,0,0,0,0,0v0C129.4,96.8,129.3,95.5,128.8,95
			z M114.7,104.2c0,0.9-2,1.6-4.5,1.6s-4.5-0.7-4.5-1.6c0-0.9,2-1.6,4.5-1.6S114.7,103.3,114.7,104.2z M114.7,105.4v9.1
			c0,1.1-2,2-4.5,2s-4.5-0.9-4.5-2v-9.1c0.9,0.8,2.8,1.1,4.5,1.1S113.8,106.1,114.7,105.4z M97.3,94.5c0-0.6,0.5-1.1,1.1-1.1h9
			c0.6,0,1.1,0.5,1.1,1.1v7c-2.1,0.3-3.9,1.1-3.9,2.6v0.2v1v5.5H99v1.1h5.6v1.1H99v1.1h5.6v0.2c0,0.8,0.4,1.5,1.2,2h-8.5V94.5z
			 M91,122c-0.7,0-1.3-0.7-1.3-1.5v-0.3h33.3c0.9,0,1.6-0.9,1.6-1.9V92.5h0c0,0,0,0,0,0h0.8c0.2,0,0.5,0.1,0.7,0.4
			c0.3,0.3,0.4,1.3,0.4,1.7l0,25.9c0,0.8-0.6,1.5-1.3,1.5H91z M128.6,123.2c0,0.8-0.6,1.5-1.3,1.5H93.1c-0.7,0-1.3-0.7-1.3-1.5v-0.4
			h33.4c1.1,0,2-1.1,2-2.3l0-25.3h0.3c0.2,0,0.5,0.1,0.7,0.4c0.3,0.3,0.4,1.3,0.4,1.7L128.6,123.2z"/>
	</g>
</g>
</svg>
