<?xml version="1.0" encoding="utf-8"?>
<!-- Generator: Adobe Illustrator 18.1.0, SVG Export Plug-In . SVG Version: 6.00 Build 0)  -->
<!DOCTYPE svg PUBLIC "-//W3C//DTD SVG 1.1//EN" "http://www.w3.org/Graphics/SVG/1.1/DTD/svg11.dtd">
<svg version="1.1" id="Layer_1" xmlns="http://www.w3.org/2000/svg" xmlns:xlink="http://www.w3.org/1999/xlink" x="0px" y="0px"
	 viewBox="0 0 216 216" enable-background="new 0 0 216 216" xml:space="preserve">
<g>
	<rect x="101.5" y="100.2" fill="#00188F" width="7.9" height="1.1"/>
	<path fill="#00188F" d="M127,93.7c-0.3-0.3-0.7-0.5-1-0.5c-0.1,0-0.2,0-0.3,0H91.6c-0.9,0-1.6,0.9-1.6,1.9v26.5
		c0,1.1,0.7,1.9,1.6,1.9h34.3c0.9,0,1.6-0.9,1.6-1.9V95.7C127.5,96.4,127.6,94.3,127,93.7z M106.5,110.9H106v3.4h-4.5v1.1h4.5v1.1
		h-4.5v1.1h4.5v2.3h-6.2v-22c0-0.6,0.5-1.1,1.1-1.1h9c0.6,0,1.1,0.5,1.1,1.1v12.4c-0.6,0-0.8,0-1.1,0h-3.4V110.9z M117.8,113.7h-0.5
		v0.6h0.5v1.6h-0.5v0.6h0.5v1.7h-0.5v0.5h0.3v1.3h-10.4V112h0.6v-0.6h2.7c0.7,0,1.4,0.2,2,0.5h0.2c0.6-0.3,1.3-0.5,2-0.5h2.7v0.6
		h0.5V113.7z"/>
	<g>
		<path fill="#00188F" d="M110.5,111.9h-2.4v7.4h2.4c0.6,0,1.3,0.1,1.8,0.4v-7.3C111.7,112.1,111.1,111.9,110.5,111.9z M110.2,113.1
			c0.4,0,0.7,0.3,0.7,0.7c0,0.4-0.3,0.7-0.7,0.7c-0.4,0-0.7-0.3-0.7-0.7C109.5,113.4,109.8,113.1,110.2,113.1z M108.9,115.5
			c0.1-0.6,0.1-0.6,0.7-0.8c0,0,0,0,0.1,0c0,0,0.1,0,0.1,0c0.1,0.2,0.3,0.5,0.4,0.6c0,0,0,0,0,0h0c0,0,0,0,0,0
			c0.1-0.1,0.4-0.5,0.4-0.6c0,0,0,0,0.1,0c0,0,0,0,0.1,0c0.6,0.1,0.6,0.2,0.7,0.8c0,0.1,0,0.2,0,0.2c0,0.2-0.6,0.4-1.3,0.4h0
			c-0.7,0-1.3-0.1-1.3-0.4C108.9,115.7,108.9,115.6,108.9,115.5z M111.6,117.5h-2.8V117h2.8V117.5z"/>
	</g>
	<g>
		<path fill="#00188F" d="M112.6,112.3v7.3c0.6-0.3,1.2-0.4,1.8-0.4h2.4v-7.4h-2.4C113.8,111.9,113.1,112.1,112.6,112.3z
			 M115.4,113.8c0,0.4-0.3,0.7-0.7,0.7c-0.4,0-0.7-0.3-0.7-0.7c0-0.4,0.3-0.7,0.7-0.7C115.1,113.1,115.4,113.4,115.4,113.8z
			 M116,115.7c0,0.2-0.6,0.4-1.3,0.4h0c-0.7,0-1.3-0.1-1.3-0.4c0,0,0-0.1,0-0.2c0.1-0.6,0.2-0.6,0.7-0.8c0,0,0,0,0.1,0
			c0,0,0.1,0,0.1,0c0.1,0.2,0.3,0.5,0.4,0.6c0,0,0,0,0,0h0c0,0,0,0,0,0c0.1-0.1,0.4-0.5,0.4-0.6c0,0,0,0,0.1,0c0,0,0,0,0.1,0
			c0.6,0.1,0.6,0.2,0.7,0.8C116,115.6,116,115.7,116,115.7z M113.3,117h2.8v0.6h-2.8V117z"/>
	</g>
	<g id="shape142-22" transform="translate(1.67319,-1.26587)">
		<title>Sheet.142</title>
		<rect x="107.1" y="119.3" fill="#FFFFFF" width="2.8" height="0.6"/>
	</g>
</g>
</svg>
