<?xml version="1.0" encoding="utf-8"?>
<!-- Generator: Adobe Illustrator 18.1.0, SVG Export Plug-In . SVG Version: 6.00 Build 0)  -->
<!DOCTYPE svg PUBLIC "-//W3C//DTD SVG 1.1//EN" "http://www.w3.org/Graphics/SVG/1.1/DTD/svg11.dtd">
<svg version="1.1" xmlns="http://www.w3.org/2000/svg" xmlns:xlink="http://www.w3.org/1999/xlink" x="0px" y="0px"
	 viewBox="0 0 216 216" enable-background="new 0 0 216 216" xml:space="preserve">
<g id="Layer_1">
</g>
<g id="Top_Layer">
	<g>
		<rect x="99.4" y="97.3" fill="#00188F" width="7.9" height="1.1"/>
		<path fill="#00188F" d="M106,116.4h2.4c0.6,0,1.3,0.1,1.8,0.4v-7.3c-0.6-0.3-1.2-0.5-1.8-0.5H106V116.4z M108.1,110.2
			c0.4,0,0.7,0.3,0.7,0.7c0,0.4-0.3,0.7-0.7,0.7c-0.4,0-0.7-0.3-0.7-0.7C107.4,110.5,107.7,110.2,108.1,110.2z M106.8,112.6
			c0.1-0.6,0.1-0.6,0.7-0.8c0,0,0,0,0.1,0c0,0,0.1,0,0.1,0c0.1,0.2,0.3,0.5,0.4,0.6c0,0,0,0,0,0h0c0,0,0,0,0,0
			c0.1-0.1,0.4-0.5,0.4-0.6c0,0,0,0,0.1,0c0,0,0,0,0.1,0c0.6,0.1,0.6,0.2,0.7,0.8c0,0.1,0,0.2,0,0.2c0,0.2-0.6,0.4-1.3,0.4h0
			c-0.7,0-1.3-0.1-1.3-0.4C106.8,112.7,106.8,112.7,106.8,112.6z M106.7,114h2.8v0.6h-2.8V114z"/>
		<path fill="#00188F" d="M114.7,116.4v-7.4h-2.4c-0.6,0-1.3,0.2-1.8,0.5v7.3c0.6-0.3,1.2-0.4,1.8-0.4H114.7z M112.5,110.2
			c0.4,0,0.7,0.3,0.7,0.7c0,0.4-0.3,0.7-0.7,0.7c-0.4,0-0.7-0.3-0.7-0.7C111.8,110.5,112.2,110.2,112.5,110.2z M111.3,112.6
			c0.1-0.6,0.2-0.6,0.7-0.8c0,0,0,0,0.1,0c0,0,0.1,0,0.1,0c0.1,0.2,0.3,0.5,0.4,0.6c0,0,0,0,0,0h0c0,0,0,0,0,0
			c0.1-0.1,0.4-0.5,0.4-0.6c0,0,0,0,0.1,0c0,0,0,0,0.1,0c0.6,0.1,0.6,0.2,0.7,0.8c0,0.1,0,0.2,0,0.2c0,0.2-0.6,0.4-1.3,0.4h0
			c-0.7,0-1.3-0.1-1.3-0.4C111.2,112.7,111.2,112.7,111.3,112.6z M111.2,114h2.8v0.6h-2.8V114z"/>
		<path fill="#00188F" d="M129.5,95.4c-0.4-0.4-0.8-0.6-1.2-0.6H128c0-0.6-0.2-1.7-0.6-2.1c-0.4-0.4-0.8-0.6-1.2-0.6h-0.8
			c-0.1-0.5-0.2-1.1-0.4-1.4c-0.3-0.3-0.7-0.5-1-0.5c-0.1,0-0.2,0-0.3,0H89.5c-0.9,0-1.6,0.9-1.6,1.9v26.5c0,1.1,0.7,1.9,1.6,1.9
			h0.2v0.3c0,1.3,0.9,2.3,2,2.3h0.1v0.4c0,1.3,0.9,2.3,2,2.3h34.3c1.1,0,2-1.1,2-2.3V97.8c0,0,0,0,0,0v0
			C130.1,97.2,130,95.9,129.5,95.4z M110.4,109c0.6-0.3,1.3-0.5,2-0.5h2.7v0.6h0.5v1.7h-0.5v0.6h0.5v1.6h-0.5v0.6h0.5v1.7h-0.5v0.5
			h0.3v1.3H105v-7.9h0.6v-0.6h2.7c0.7,0,1.4,0.2,2,0.5H110.4z M97.7,95c0-0.6,0.5-1.1,1.1-1.1h9c0.6,0,1.1,0.5,1.1,1.1v12.4
			c-0.6,0-0.8,0-1.1,0h-3.4v0.6h-0.6v3.4h-4.5v1.1h4.5v1.1h-4.5v1.1h4.5v2.3h-6.2V95z M91.7,122.4c-0.7,0-1.3-0.7-1.3-1.5v-0.3h33.3
			c0.9,0,1.6-0.9,1.6-1.9V92.9h0c0,0.1,0,0,0,0h0.8c0.2,0,0.5,0.1,0.7,0.4c0.3,0.3,0.4,1.3,0.4,1.7l0,25.9c0,0.8-0.6,1.5-1.3,1.5
			H91.7z M129.3,123.6c0,0.8-0.6,1.5-1.3,1.5H93.8c-0.7,0-1.3-0.7-1.3-1.5v-0.4H126c1.1,0,2-1.1,2-2.3l0-25.3h0.3
			c0.2,0,0.5,0.1,0.7,0.4c0.3,0.3,0.4,1.3,0.4,1.7L129.3,123.6z"/>
	</g>
</g>
</svg>
