<?xml version="1.0" encoding="utf-8"?>
<!-- Generator: Adobe Illustrator 18.1.0, SVG Export Plug-In . SVG Version: 6.00 Build 0)  -->
<!DOCTYPE svg PUBLIC "-//W3C//DTD SVG 1.1//EN" "http://www.w3.org/Graphics/SVG/1.1/DTD/svg11.dtd">
<svg version="1.1" xmlns="http://www.w3.org/2000/svg" xmlns:xlink="http://www.w3.org/1999/xlink" x="0px" y="0px"
	 viewBox="0 0 216 216" enable-background="new 0 0 216 216" xml:space="preserve">
<g id="Layer_1">
</g>
<g id="Top_Layer">
	<g>
		<rect x="98.7" y="97" fill="#00188F" width="7.7" height="1.1"/>
		<path fill="#00188F" d="M129.3,95.4c-0.4-0.4-0.8-0.6-1.2-0.6h-0.3c0-0.6-0.2-1.7-0.6-2.1c-0.4-0.4-0.8-0.6-1.2-0.6h-1.1
			c0-0.5-0.1-1.4-0.5-1.7c-0.3-0.3-0.7-0.5-1-0.5c-0.1,0-0.2,0-0.3,0H89c-0.9,0-1.6,0.9-1.6,1.9v26.5c0,1,0.7,1.9,1.6,1.9h34.3
			c0.9,0,1.6-0.9,1.6-1.9V92.7l0,0.1h1.1c0.2,0,0.5,0.1,0.7,0.4c0.3,0.3,0.4,1.3,0.4,1.7l0,25.9c0,0.8-0.6,1.5-1.3,1.5H91.5
			c-0.7,0-1.3-0.7-1.3-1.5v-0.6h-0.8v0.6c0,1.3,0.9,2.3,2,2.3h0.1v0.4c0,1.3,0.9,2.3,2,2.3h34.3c1.1,0,2-1.1,2-2.3V97.7c0,0,0,0,0,0
			v0C129.9,97.2,129.8,95.9,129.3,95.4z M100.4,115.6c-0.1,0.2-0.2,0.5-0.2,0.7h-3.1V94.8c0-0.6,0.5-1.1,1.1-1.1h8.8
			c0.6,0,1.1,0.5,1.1,1.1v8.9c-0.4,0-0.7,0.3-0.9,0.6l-3.9,6.5h-4.5v1.1h3.9l-0.7,1.1h-3.2v1.1h2.5L100.4,115.6z M114.5,116.2h-12.6
			c-0.5,0-0.8-0.3-0.5-0.8l6.3-10.4c0.3-0.5,0.7-0.5,1,0l6.3,10.4C115.3,115.9,115,116.2,114.5,116.2z M129.1,123.5
			c0,0.8-0.6,1.5-1.3,1.5H93.6c-0.7,0-1.3-0.7-1.3-1.5v-0.4h33.4c1.1,0,2-1.1,2-2.3l0-25.3h0.3c0.2,0,0.5,0.1,0.7,0.4
			c0.3,0.3,0.4,1.3,0.4,1.7L129.1,123.5z"/>
	</g>
</g>
</svg>
