<?xml version="1.0" encoding="utf-8"?>
<!-- Generator: Adobe Illustrator 18.1.0, SVG Export Plug-In . SVG Version: 6.00 Build 0)  -->
<!DOCTYPE svg PUBLIC "-//W3C//DTD SVG 1.1//EN" "http://www.w3.org/Graphics/SVG/1.1/DTD/svg11.dtd">
<svg version="1.1" id="Layer_1" xmlns="http://www.w3.org/2000/svg" xmlns:xlink="http://www.w3.org/1999/xlink" x="0px" y="0px"
	 viewBox="0 0 216 216" enable-background="new 0 0 216 216" xml:space="preserve">
<g>
	<g id="shape44-2_1_">
		<title>Sheet.44</title>
		<rect x="101.2" y="99.7" fill="#00188F" width="7.7" height="1.1"/>
	</g>
	<path fill="#00188F" d="M126.9,93c-0.3-0.3-0.7-0.5-1-0.5c-0.1,0-0.2,0-0.3,0H91.5c-0.9,0-1.6,0.9-1.6,1.9v26.5
		c0,1,0.7,1.9,1.6,1.9h34.3c0.9,0,1.6-0.9,1.6-1.9V95C127.4,95.7,127.5,93.6,126.9,93z M102.9,118.3c-0.1,0.2-0.2,0.5-0.2,0.7h-3.1
		V97.5c0-0.6,0.5-1.1,1.1-1.1h8.8c0.6,0,1.1,0.5,1.1,1.1v8.9c-0.4,0-0.7,0.3-0.9,0.6l-3.9,6.5h-4.5v1.1h3.9l-0.7,1.1h-3.2v1.1h2.5
		L102.9,118.3z M117,118.9h-12.6c-0.5,0-0.8-0.3-0.5-0.8l6.3-10.4c0.3-0.5,0.7-0.5,1,0l6.3,10.4C117.8,118.5,117.6,118.9,117,118.9z
		"/>
</g>
</svg>
