<?xml version="1.0" encoding="utf-8"?>
<!-- Generator: Adobe Illustrator 18.1.0, SVG Export Plug-In . SVG Version: 6.00 Build 0)  -->
<!DOCTYPE svg PUBLIC "-//W3C//DTD SVG 1.1//EN" "http://www.w3.org/Graphics/SVG/1.1/DTD/svg11.dtd">
<svg version="1.1" xmlns="http://www.w3.org/2000/svg" xmlns:xlink="http://www.w3.org/1999/xlink" x="0px" y="0px"
	 viewBox="0 0 216 216" enable-background="new 0 0 216 216" xml:space="preserve">
<g id="Layer_1">
</g>
<g id="Top_Layer">
	<g>
		<path fill="#00188F" d="M104,107.3v8.1c0,0.3,0.3,0.6,0.6,0.6h7.7c0.3,0,0.6-0.3,0.6-0.6v-6.9h-1.8v-1.8h-6.5
			C104.2,106.8,104,107,104,107.3z M105.7,109.4h4.9v0.9h-4.9V109.4z M105.7,111.1h4.9v0.9h-4.9V111.1z M105.7,112.9h4.9v0.9h-4.9
			V112.9z"/>
		<rect x="100.2" y="96.6" fill="#00188F" width="8" height="1.1"/>
		<path fill="#00188F" d="M128.7,95.6c-0.4-0.4-0.8-0.6-1.2-0.6h-0.3c0-0.6-0.2-1.7-0.6-2.1c-0.4-0.4-0.8-0.6-1.2-0.6h-0.7
			c-0.1-0.5-0.2-1.1-0.4-1.3c-0.3-0.3-0.7-0.5-1-0.5c-0.1,0-0.2,0-0.3,0H88.8c-0.9,0-1.6,0.9-1.6,1.9v26.5c0,1.1,0.7,1.9,1.6,1.9
			h0.1v0.2c0,1.3,0.9,2.3,2,2.3H91v0.4c0,1.3,0.9,2.3,2,2.3h34.3c1.1,0,2-1.1,2-2.3V98c0,0,0,0,0,0v0
			C129.3,97.5,129.2,96.1,128.7,95.6z M113.6,108.1v7.4c0,0.8-0.7,1.5-1.5,1.5h-7.7c-0.8,0-1.5-0.7-1.5-1.5v-8.1
			c0-0.8,0.7-1.5,1.5-1.5h7L113.6,108.1z M98.4,94.1c0-0.6,0.5-1.1,1.1-1.1h9.1c0.6,0,1.1,0.5,1.1,1.1v11h-5.4c-1.2,0-2.2,1-2.2,2.2
			v3.3h-2v1.1h2v1.2h-2v1.1h2v1.4c0,0.3,0.1,0.6,0.2,0.9h-3.9V94.1z M90.9,122.6c-0.7,0-1.3-0.7-1.3-1.5v-0.2h33.4
			c0.9,0,1.6-0.9,1.6-1.9V93.1h0c0,0.1,0,0.1,0,0h0.7c0.2,0,0.5,0.1,0.7,0.4c0.3,0.3,0.4,1.3,0.4,1.7l0,25.9c0,0.8-0.6,1.5-1.3,1.5
			H90.9z M128.6,123.8c0,0.8-0.6,1.5-1.3,1.5H93c-0.7,0-1.3-0.7-1.3-1.5v-0.4h33.4c1.1,0,2-1.1,2-2.3l0-25.3h0.3
			c0.2,0,0.5,0.1,0.7,0.4c0.3,0.3,0.4,1.3,0.4,1.7L128.6,123.8z"/>
	</g>
</g>
</svg>
