<?xml version="1.0" encoding="utf-8"?>
<!-- Generator: Adobe Illustrator 18.1.0, SVG Export Plug-In . SVG Version: 6.00 Build 0)  -->
<!DOCTYPE svg PUBLIC "-//W3C//DTD SVG 1.1//EN" "http://www.w3.org/Graphics/SVG/1.1/DTD/svg11.dtd">
<svg version="1.1" xmlns="http://www.w3.org/2000/svg" xmlns:xlink="http://www.w3.org/1999/xlink" x="0px" y="0px"
	 viewBox="0 0 216 216" enable-background="new 0 0 216 216" xml:space="preserve">
<g id="Layer_1">
</g>
<g id="Isolation_Mode">
	<g>
		<path fill="#00188F" d="M114.1,110.7v-1.8h-6.5c-0.3,0-0.6,0.3-0.6,0.6v8.1c0,0.3,0.3,0.6,0.6,0.6h7.7c0.3,0,0.6-0.3,0.6-0.6v-6.9
			H114.1z M113.7,115.9h-4.9V115h4.9V115.9z M113.7,114.2h-4.9v-0.9h4.9V114.2z M113.7,112.4h-4.9v-0.9h4.9V112.4z"/>
		<path fill="#00188F" d="M127.2,93.1c-0.3-0.3-0.7-0.5-1-0.5c-0.1,0-0.2,0-0.3,0H91.8c-0.9,0-1.6,0.9-1.6,1.9v26.5
			c0,1.1,0.7,1.9,1.6,1.9h34.3c0.9,0,1.6-0.9,1.6-1.9V95.2C127.7,95.8,127.8,93.7,127.2,93.1z M105.2,114v1.2h-2v1.1h2v1.4
			c0,0.3,0.1,0.6,0.2,0.9h-3.9V96.3c0-0.6,0.5-1.1,1.1-1.1h9.1c0.6,0,1.1,0.5,1.1,1.1v11h-5.4c-1.2,0-2.2,1-2.2,2.2v3.3h-2v1.1
			H105.2z M116.6,117.7c0,0.8-0.7,1.5-1.5,1.5h-7.7c-0.8,0-1.5-0.7-1.5-1.5v-8.1c0-0.8,0.7-1.5,1.5-1.5h7l2.2,2.2V117.7z"/>
		<rect x="103.2" y="98.7" fill="#00188F" width="8" height="1.1"/>
	</g>
</g>
</svg>
