<?xml version="1.0" encoding="utf-8"?>
<!-- Generator: Adobe Illustrator 18.1.0, SVG Export Plug-In . SVG Version: 6.00 Build 0)  -->
<!DOCTYPE svg PUBLIC "-//W3C//DTD SVG 1.1//EN" "http://www.w3.org/Graphics/SVG/1.1/DTD/svg11.dtd">
<svg version="1.1" xmlns="http://www.w3.org/2000/svg" xmlns:xlink="http://www.w3.org/1999/xlink" x="0px" y="0px"
	 viewBox="0 0 216 216" enable-background="new 0 0 216 216" xml:space="preserve">
<g id="Layer_1">
</g>
<g id="Top_Layer">
	<g>
		<rect x="99.9" y="97.1" fill="#00188F" width="8" height="1.1"/>
		<path fill="#00188F" d="M112.8,111.3h2.5c-0.1-1-0.4-1.9-0.9-2.6c-0.5,0.3-1.1,0.5-1.8,0.6C112.7,109.9,112.7,110.6,112.8,111.3z"
			/>
		<path fill="#00188F" d="M113.9,108.3c-0.6-0.7-1.5-1.2-2.4-1.5c0.4,0.5,0.7,1.1,0.9,2C113,108.7,113.5,108.5,113.9,108.3z"/>
		<path fill="#00188F" d="M112,109.4c-0.5,0.1-1.1,0.1-1.7,0.1s-1.1,0-1.7-0.1c-0.1,0.6-0.2,1.2-0.2,1.9h3.8
			C112.2,110.6,112.1,110,112,109.4z"/>
		<path fill="#00188F" d="M108.6,113.6c0.6-0.1,1.1-0.1,1.7-0.1s1.2,0,1.7,0.1c0.1-0.6,0.2-1.1,0.2-1.8h-3.8
			C108.4,112.6,108.5,113.1,108.6,113.6z"/>
		<path fill="#00188F" d="M110.3,109c0.5,0,1.1,0,1.6-0.1c-0.4-1.4-1-2.2-1.6-2.2s-1.2,0.8-1.6,2.2C109.3,109,109.8,109,110.3,109z"
			/>
		<path fill="#00188F" d="M109.1,106.9c-0.9,0.2-1.8,0.8-2.4,1.5c0.4,0.2,1,0.4,1.5,0.5C108.5,108,108.8,107.3,109.1,106.9z"/>
		<path fill="#00188F" d="M107.9,111.2c0-0.7,0.1-1.3,0.2-1.9c-0.7-0.1-1.3-0.3-1.8-0.6c-0.5,0.7-0.9,1.6-1,2.6h2.5V111.2z"/>
		<path fill="#00188F" d="M107.9,111.9h-2.5c0,0.9,0.3,1.7,0.8,2.4c0.5-0.3,1.1-0.5,1.8-0.6C108,113.1,107.9,112.6,107.9,111.9z"/>
		<path fill="#00188F" d="M106.6,114.8c0.7,0.8,1.5,1.3,2.6,1.6c-0.4-0.5-0.7-1.2-0.9-2.1C107.6,114.4,107.1,114.5,106.6,114.8z"/>
		<path fill="#00188F" d="M110.3,114c-0.5,0-1.1,0-1.6,0.1c0.4,1.5,1,2.3,1.6,2.3s1.2-0.9,1.6-2.3C111.4,114.1,110.9,114,110.3,114z
			"/>
		<path fill="#00188F" d="M111.5,116.3c1-0.3,1.9-0.8,2.6-1.6c-0.4-0.2-1-0.4-1.6-0.5C112.2,115.1,111.9,115.9,111.5,116.3z"/>
		<path fill="#00188F" d="M112.6,113.7c0.7,0.1,1.3,0.3,1.8,0.6c0.5-0.7,0.8-1.5,0.8-2.4h-2.5C112.7,112.6,112.7,113.1,112.6,113.7z
			"/>
		<path fill="#00188F" d="M129.6,95.1c-0.4-0.4-0.8-0.6-1.2-0.6h-0.3c0-0.6-0.2-1.7-0.6-2.1c-0.4-0.4-0.8-0.6-1.2-0.6h-0.7
			c-0.1-0.5-0.2-0.9-0.4-1.2c-0.3-0.3-0.7-0.5-1-0.5c-0.1,0-0.2,0-0.3,0H89.8c-0.9,0-1.6,0.9-1.6,1.9v26.5c0,1.1,0.7,1.9,1.6,1.9h0
			v0.1c0,1.3,0.9,2.3,2,2.3H92v0.4c0,1.3,0.9,2.3,2,2.3h34.3c1.1,0,2-1.1,2-2.3V97.5c0,0,0,0,0,0v0C130.3,97,130.1,95.6,129.6,95.1z
			 M115.8,111.6c0,3-2.4,5.4-5.4,5.4s-5.4-2.4-5.4-5.4c0-3,2.4-5.4,5.4-5.4S115.8,108.6,115.8,111.6z M98.2,94.8
			c0-0.6,0.5-1.1,1.1-1.1h9.1c0.6,0,1.1,0.5,1.1,1.1v10.3c-3.1,0.4-5.5,3-5.7,6.2h-4v1.1h4c0.1,0.4,0.1,0.8,0.3,1.1h-4.3v1.1h4.8
			c0.5,0.9,1.2,1.7,2.1,2.3h-8.5V94.8z M91.8,122.1c-0.7,0-1.3-0.7-1.3-1.5v-0.1h33.5c0.9,0,1.6-0.9,1.6-1.9V92.7c0,0.2,0,0.1,0-0.1
			h0.6c0.2,0,0.5,0.1,0.7,0.4c0.3,0.3,0.4,1.3,0.4,1.7l0,25.9c0,0.8-0.6,1.5-1.3,1.5H91.8z M129.5,123.3c0,0.8-0.6,1.5-1.3,1.5H94
			c-0.7,0-1.3-0.7-1.3-1.5v-0.4h33.4c1.1,0,2-1.1,2-2.3l0-25.3h0.3c0.2,0,0.5,0.1,0.7,0.4c0.3,0.3,0.4,1.3,0.4,1.7L129.5,123.3z"/>
	</g>
</g>
</svg>
