<?xml version="1.0" encoding="utf-8"?>
<!-- Generator: Adobe Illustrator 18.1.0, SVG Export Plug-In . SVG Version: 6.00 Build 0)  -->
<!DOCTYPE svg PUBLIC "-//W3C//DTD SVG 1.1//EN" "http://www.w3.org/Graphics/SVG/1.1/DTD/svg11.dtd">
<svg version="1.1" xmlns="http://www.w3.org/2000/svg" xmlns:xlink="http://www.w3.org/1999/xlink" x="0px" y="0px"
	 viewBox="0 0 216 216" enable-background="new 0 0 216 216" xml:space="preserve">
<g id="Layer_1">
</g>
<g id="Isolation_Mode">
	<g>
		<g>
			<g id="shape105-2_1_">
				<title>Sheet.105</title>
				<rect x="101.9" y="100.2" fill="#00188F" width="8" height="1.1"/>
			</g>
			<g>
				<path fill="#00188F" d="M127.2,93.8c-0.3-0.3-0.7-0.5-1-0.5c-0.1,0-0.2,0-0.3,0H91.8c-0.9,0-1.6,0.9-1.6,1.9v26.5
					c0,1.1,0.7,1.9,1.6,1.9h34.3c0.9,0,1.6-0.9,1.6-1.9V95.8C127.7,96.5,127.8,94.4,127.2,93.8z M100.2,120.2V97.9
					c0-0.6,0.5-1.1,1.1-1.1h9.1c0.6,0,1.1,0.5,1.1,1.1v10.3c-3.1,0.4-5.5,3-5.7,6.2h-4v1.1h4.1c0.1,0.4,0.1,0.8,0.3,1.1h-4.3v1.1
					h4.8c0.5,0.9,1.2,1.7,2.1,2.3H100.2z M112.4,120.2c-3,0-5.4-2.4-5.4-5.4c0-3,2.4-5.4,5.4-5.4s5.4,2.4,5.4,5.4
					C117.8,117.7,115.4,120.2,112.4,120.2z"/>
			</g>
		</g>
		<path fill="#00188F" d="M116.3,111.9c0.5,0.7,0.9,1.6,0.9,2.6h-2.5c0-0.7-0.1-1.4-0.2-2C115.2,112.4,115.8,112.2,116.3,111.9z"/>
		<path fill="#00188F" d="M116,111.5c-0.4,0.2-1,0.4-1.5,0.5c-0.2-0.8-0.5-1.5-0.9-2C114.5,110.3,115.3,110.8,116,111.5z"/>
		<path fill="#00188F" d="M110.5,114.5c0-0.7,0.1-1.3,0.2-1.9c0.5,0.1,1.1,0.1,1.7,0.1s1.1,0,1.7-0.1c0.1,0.6,0.2,1.2,0.2,1.9H110.5
			z"/>
		<path fill="#00188F" d="M114.3,115.1c0,0.7-0.1,1.2-0.2,1.8c-0.6-0.1-1.1-0.1-1.7-0.1s-1.2,0-1.7,0.1c-0.1-0.6-0.2-1.1-0.2-1.8
			H114.3z"/>
		<path fill="#00188F" d="M112.4,109.9c0.6,0,1.2,0.8,1.6,2.2c-0.5,0.1-1,0.1-1.6,0.1s-1.1,0-1.6-0.1
			C111.2,110.7,111.8,109.9,112.4,109.9z"/>
		<path fill="#00188F" d="M111.2,110c-0.4,0.5-0.7,1.1-0.9,2c-0.6-0.1-1.1-0.3-1.5-0.5C109.4,110.8,110.2,110.3,111.2,110z"/>
		<path fill="#00188F" d="M108.4,111.9c0.5,0.3,1.1,0.5,1.8,0.6c-0.1,0.6-0.2,1.2-0.2,1.9v0.1h-2.5
			C107.5,113.6,107.9,112.6,108.4,111.9z"/>
		<path fill="#00188F" d="M108.3,117.5c-0.5-0.7-0.8-1.5-0.8-2.4h2.5c0,0.7,0.1,1.3,0.2,1.8C109.4,117.1,108.8,117.3,108.3,117.5z"
			/>
		<path fill="#00188F" d="M108.6,117.9c0.5-0.2,1-0.4,1.6-0.5c0.2,0.9,0.5,1.6,0.9,2.1C110.2,119.3,109.3,118.7,108.6,117.9z"/>
		<path fill="#00188F" d="M112.4,119.7c-0.6,0-1.2-0.9-1.6-2.3c0.5-0.1,1.1-0.1,1.6-0.1s1.1,0,1.6,0.1
			C113.6,118.8,113,119.7,112.4,119.7z"/>
		<path fill="#00188F" d="M113.5,119.5c0.4-0.5,0.7-1.2,0.9-2.1c0.6,0.1,1.2,0.3,1.6,0.5C115.4,118.7,114.6,119.3,113.5,119.5z"/>
		<path fill="#00188F" d="M114.6,116.9c0.1-0.6,0.2-1.2,0.2-1.8h2.5c0,0.9-0.3,1.7-0.8,2.4C115.9,117.3,115.3,117.1,114.6,116.9z"/>
	</g>
</g>
</svg>
