<?xml version="1.0" encoding="utf-8"?>
<!-- Generator: Adobe Illustrator 18.1.0, SVG Export Plug-In . SVG Version: 6.00 Build 0)  -->
<!DOCTYPE svg PUBLIC "-//W3C//DTD SVG 1.1//EN" "http://www.w3.org/Graphics/SVG/1.1/DTD/svg11.dtd">
<svg version="1.1" xmlns="http://www.w3.org/2000/svg" xmlns:xlink="http://www.w3.org/1999/xlink" x="0px" y="0px"
	 viewBox="0 0 216 216" enable-background="new 0 0 216 216" xml:space="preserve">
<g id="Layer_1">
</g>
<g id="Isolation_Mode">
	<g>
		<polygon fill="#FFFFFF" points="113.6,109.4 113.6,109.4 106.8,109.4 106.8,114.2 106.8,114.2 106.8,109.4 106.8,109.4 
			106.8,109.4 		"/>
		<rect x="106.8" y="109.4" fill="#FFFFFF" width="6.7" height="0"/>
	</g>
</g>
<g id="Top_Layer">
	<g>
		<rect x="98.8" y="97.4" fill="#00188F" width="7.9" height="1.1"/>
		<path fill="#00188F" d="M129,95.8c-0.4-0.4-0.8-0.6-1.2-0.6h-0.3c0-0.6-0.2-1.7-0.6-2.1c-0.4-0.4-0.8-0.6-1.2-0.6h-0.8
			c-0.1-0.5-0.2-1.1-0.4-1.3c-0.3-0.3-0.7-0.5-1-0.5c-0.1,0-0.2,0-0.3,0H89c-0.9,0-1.6,0.9-1.6,1.9v26.5c0,1.1,0.7,1.9,1.6,1.9h0.2
			v0.3c0,1.3,0.9,2.3,2,2.3h0.1v0.4c0,1.3,0.9,2.3,2,2.3h34.3c1.1,0,2-1.1,2-2.3V98.2c0,0,0,0,0,0v0C129.6,97.6,129.5,96.3,129,95.8
			z M115.2,111.6v5.8l-6.8-1v-4.8H115.2z M115.2,111h-6.8v-4.9l6.8-0.9V111z M97.1,95.1c0-0.6,0.5-1.1,1.1-1.1h9.1
			c0.6,0,1.1,0.5,1.1,1.1v9.7l-6.2,1v5.7h-3.4v1.1h3.4v1.1h-3.4v1.1h3.4v1.6l4.3,0.6h-9.4V95.1z M103.3,111.6h4.5v4.7l-4.5-0.7
			V111.6z M103.3,111v-4.2l4.5-0.6v4.8H103.3z M91.2,122.8c-0.7,0-1.3-0.7-1.3-1.5V121h33.3c0.9,0,1.6-0.9,1.6-1.9V93.2h0
			c0,0.1,0,0.1,0,0h0.8c0.2,0,0.5,0.1,0.7,0.4c0.3,0.3,0.4,1.3,0.4,1.7l0,25.9c0,0.8-0.6,1.5-1.3,1.5H91.2z M128.8,124
			c0,0.8-0.6,1.5-1.3,1.5H93.3c-0.7,0-1.3-0.7-1.3-1.5v-0.4h33.4c1.1,0,2-1.1,2-2.3l0-25.3h0.3c0.2,0,0.5,0.1,0.7,0.4
			c0.3,0.3,0.4,1.3,0.4,1.7L128.8,124z"/>
	</g>
</g>
</svg>
