<?xml version="1.0" encoding="utf-8"?>
<!-- Generator: Adobe Illustrator 18.1.0, SVG Export Plug-In . SVG Version: 6.00 Build 0)  -->
<!DOCTYPE svg PUBLIC "-//W3C//DTD SVG 1.1//EN" "http://www.w3.org/Graphics/SVG/1.1/DTD/svg11.dtd">
<svg version="1.1" xmlns="http://www.w3.org/2000/svg" xmlns:xlink="http://www.w3.org/1999/xlink" x="0px" y="0px"
	 viewBox="0 0 216 216" enable-background="new 0 0 216 216" xml:space="preserve">
<g id="Layer_1">
</g>
<g id="Isolation_Mode">
	<g>
		<g>
			<rect x="101.8" y="100.1" fill="#00188F" width="7.9" height="1.1"/>
		</g>
		<g>
			<path fill="#00188F" d="M127.4,93.9c-0.3-0.3-0.7-0.5-1-0.5c-0.1,0-0.2,0-0.3,0H92c-0.9,0-1.6,0.9-1.6,1.9v26.5
				c0,1.1,0.7,1.9,1.6,1.9h34.3c0.9,0,1.6-0.9,1.6-1.9V95.9C127.9,96.5,128,94.4,127.4,93.9z M100.1,119.9V97.8
				c0-0.6,0.5-1.1,1.1-1.1h9.1c0.6,0,1.1,0.5,1.1,1.1v9.7l-6.2,1v5.7h-3.4v1.1h3.4v1.1h-3.4v1.1h3.4v1.6l4.3,0.6H100.1z
				 M110.9,108.8v4.8h-4.5v-4.2L110.9,108.8z M110.9,119l-4.5-0.7v-4.1h4.5V119z M111.4,108.8l6.8-0.9v5.8h-6.8V108.8z M118.3,120.1
				l-6.8-1v-4.8h6.8V120.1z"/>
		</g>
	</g>
	<g>
		<polygon fill="#FFFFFF" points="118.2,114.3 118.2,114.3 111.4,114.3 111.4,119.1 111.5,119.1 111.5,114.3 111.5,114.3 
			111.5,114.3 		"/>
		<rect x="111.5" y="114.3" fill="#FFFFFF" width="6.7" height="0"/>
	</g>
</g>
</svg>
