<?xml version="1.0" encoding="utf-8"?>
<!-- Generator: Adobe Illustrator 19.1.0, SVG Export Plug-In . SVG Version: 6.00 Build 0)  -->
<svg version="1.1" xmlns="http://www.w3.org/2000/svg" xmlns:xlink="http://www.w3.org/1999/xlink" x="0px" y="0px" width="100px"
	 height="100px" 
	 viewBox="499 737 100 100" style="enable-background:new 499 737 100 100;" xml:space="preserve">
<style type="text/css">
	.st0{fill:#19486F;}
	.st1{fill:#2E73B8;}
	.st2{fill:#1F5B98;}
	.st3{fill:#99BCE3;}
	.st4{fill:#5294CF;}
	.st5{fill:#FFFFFF;}
	.st6{fill:none;}
	.st7{enable-background:new    ;}
</style>
<g id="Layer_1">
	<path class="st0" d="M566.4,814.7h-34.8c-5,0-9.1-4.1-9.1-9.1v-34.8c0-5,4.1-9.1,9.1-9.1h34.8c5,0,9.1,4.1,9.1,9.1v34.8
		C575.5,810.7,571.4,814.7,566.4,814.7z"/>
	<path class="st1" d="M566.4,812.3h-34.8c-5,0-9.1-4.1-9.1-9.1v-34.8c0-5,4.1-9.1,9.1-9.1h34.8c5,0,9.1,4.1,9.1,9.1v34.8
		C575.5,808.2,571.4,812.3,566.4,812.3z"/>
	<rect x="529" y="785.5" class="st5" width="12.5" height="20"/>
	<rect x="542.7" y="765.5" class="st5" width="12.5" height="40"/>
	<rect x="556.5" y="775.5" class="st5" width="12.5" height="30"/>
	<path class="st1" d="M535.2,803.3L535.2,803.3c-2.5,0-4.5-2-4.5-4.5v0c0-2.5,2-4.5,4.5-4.5l0,0c2.5,0,4.5,2,4.5,4.5v0
		C539.7,801.3,537.7,803.3,535.2,803.3z"/>
	<rect x="558.2" y="794.3" class="st1" width="9" height="9"/>
	<polygon class="st1" points="553.5,803.3 544.5,803.3 549,794.3 	"/>
</g>
<g id="Layer_2">
</g>
</svg>
