<?xml version="1.0" encoding="utf-8"?>
<!-- Generator: Adobe Illustrator 19.1.0, SVG Export Plug-In . SVG Version: 6.00 Build 0)  -->
<svg version="1.1" xmlns="http://www.w3.org/2000/svg" xmlns:xlink="http://www.w3.org/1999/xlink" x="0px" y="0px" width="100px"
	 height="100px" 
	 viewBox="250 1609 100 100" style="enable-background:new 250 1609 100 100;" xml:space="preserve">
<style type="text/css">
	.st0{fill:#19486F;}
	.st1{fill:#2E73B8;}
	.st2{fill:#1F5B98;}
	.st3{fill:#99BCE3;}
	.st4{fill:#5294CF;}
	.st5{fill:#FFFFFF;}
	.st6{fill:none;}
	.st7{enable-background:new    ;}
</style>
<g id="Layer_1">
	<path class="st0" d="M317.4,1688h-34.8c-5,0-9.1-4.1-9.1-9.1v-34.8c0-5,4.1-9.1,9.1-9.1h34.8c5,0,9.1,4.1,9.1,9.1v34.8
		C326.5,1683.9,322.4,1688,317.4,1688z"/>
	<path class="st1" d="M317.4,1685.5h-34.8c-5,0-9.1-4.1-9.1-9.1v-34.8c0-5,4.1-9.1,9.1-9.1h34.8c5,0,9.1,4.1,9.1,9.1v34.8
		C326.5,1681.4,322.4,1685.5,317.4,1685.5z"/>
	<rect x="310" y="1623.4" class="st1" width="4" height="13.7"/>
	<rect x="286" y="1623.4" class="st1" width="4" height="13.7"/>
	<rect x="304" y="1623.4" class="st1" width="4" height="13.7"/>
	<rect x="292" y="1623.4" class="st1" width="4" height="13.7"/>
	<rect x="298" y="1623.4" class="st1" width="4" height="13.7"/>
	<rect x="264.4" y="1669" class="st1" width="18.1" height="4"/>
	<rect x="264.4" y="1651" class="st1" width="18.1" height="4"/>
	<rect x="264.4" y="1663" class="st1" width="18.1" height="4"/>
	<rect x="264.4" y="1657" class="st1" width="18.1" height="4"/>
	<rect x="264.4" y="1645" class="st1" width="18.1" height="4"/>
	<rect x="286" y="1678.9" class="st1" width="4" height="15.7"/>
	<rect x="310" y="1678.9" class="st1" width="4" height="15.7"/>
	<rect x="292" y="1678.9" class="st1" width="4" height="15.7"/>
	<rect x="304" y="1678.9" class="st1" width="4" height="15.7"/>
	<rect x="298" y="1678.9" class="st1" width="4" height="15.7"/>
	<rect x="319.7" y="1663" class="st1" width="15.9" height="4"/>
	<rect x="319.7" y="1645" class="st1" width="15.9" height="4"/>
	<rect x="319.7" y="1657" class="st1" width="15.9" height="4"/>
	<rect x="319.7" y="1651" class="st1" width="15.9" height="4"/>
	<rect x="319.7" y="1669" class="st1" width="15.9" height="4"/>
	<path class="st5" d="M308.9,1679.7h-17.7c-1.1,0-2-0.9-2-2v-34.6c0-1.1,0.9-2,2-2h17.7c1.1,0,2,0.9,2,2v34.6
		C310.9,1678.8,310,1679.7,308.9,1679.7z"/>
	<g>
		<circle class="st5" cx="300" cy="1652.3" r="7.5"/>
		<path class="st1" d="M300,1660.8c-4.7,0-8.5-3.8-8.5-8.5s3.8-8.5,8.5-8.5s8.5,3.8,8.5,8.5S304.7,1660.8,300,1660.8z M300,1645.8
			c-3.6,0-6.5,2.9-6.5,6.5s2.9,6.5,6.5,6.5s6.5-2.9,6.5-6.5S303.6,1645.8,300,1645.8z"/>
	</g>
	<g>
		<circle class="st1" cx="300" cy="1666.4" r="2.9"/>
		<polygon class="st1" points="302.9,1675.9 297.1,1675.9 299.5,1665.8 300.5,1665.8 		"/>
	</g>
</g>
<g id="Layer_2">
</g>
</svg>
