<?xml version="1.0" encoding="utf-8"?>
<!-- Generator: Adobe Illustrator 19.1.0, SVG Export Plug-In . SVG Version: 6.00 Build 0)  -->
<svg version="1.1" xmlns="http://www.w3.org/2000/svg" xmlns:xlink="http://www.w3.org/1999/xlink" x="0px" y="0px" width="100px"
	 height="100px" 
	 viewBox="250 174.4 100 100" style="enable-background:new 250 174.4 100 100;" xml:space="preserve">
<style type="text/css">
	.st0{fill:#19486F;}
	.st1{fill:#2E73B8;}
	.st2{fill:#1F5B98;}
	.st3{fill:#99BCE3;}
	.st4{fill:#5294CF;}
	.st5{fill:#FFFFFF;}
	.st6{fill:none;}
	.st7{enable-background:new    ;}
</style>
<g id="Layer_1">
	<path class="st0" d="M317.4,253.4h-34.8c-5,0-9.1-4.1-9.1-9.1v-34.8c0-5,4.1-9.1,9.1-9.1h34.8c5,0,9.1,4.1,9.1,9.1v34.8
		C326.5,249.4,322.4,253.4,317.4,253.4z"/>
	<path class="st1" d="M317.4,251h-34.8c-5,0-9.1-4.1-9.1-9.1v-34.8c0-5,4.1-9.1,9.1-9.1h34.8c5,0,9.1,4.1,9.1,9.1v34.8
		C326.5,246.9,322.4,251,317.4,251z"/>
	<rect x="310" y="188.8" class="st1" width="4" height="13.7"/>
	<rect x="286" y="188.8" class="st1" width="4" height="13.7"/>
	<rect x="304" y="188.8" class="st1" width="4" height="13.7"/>
	<rect x="292" y="188.8" class="st1" width="4" height="13.7"/>
	<rect x="298" y="188.8" class="st1" width="4" height="13.7"/>
	<rect x="264.4" y="234.4" class="st1" width="18.1" height="4"/>
	<rect x="264.4" y="216.4" class="st1" width="18.1" height="4"/>
	<rect x="264.4" y="228.4" class="st1" width="18.1" height="4"/>
	<rect x="264.4" y="222.4" class="st1" width="18.1" height="4"/>
	<rect x="264.4" y="210.4" class="st1" width="18.1" height="4"/>
	<rect x="286" y="244.3" class="st1" width="4" height="15.7"/>
	<rect x="310" y="244.3" class="st1" width="4" height="15.7"/>
	<rect x="292" y="244.3" class="st1" width="4" height="15.7"/>
	<rect x="304" y="244.3" class="st1" width="4" height="15.7"/>
	<rect x="298" y="244.3" class="st1" width="4" height="15.7"/>
	<rect x="319.7" y="228.4" class="st1" width="15.9" height="4"/>
	<rect x="319.7" y="210.4" class="st1" width="15.9" height="4"/>
	<rect x="319.7" y="222.4" class="st1" width="15.9" height="4"/>
	<rect x="319.7" y="216.4" class="st1" width="15.9" height="4"/>
	<rect x="319.7" y="234.4" class="st1" width="15.9" height="4"/>
	<path class="st5" d="M309.4,236.2h-18.7c-1.3,0-2.3-1-2.3-2.3v-18.7c0-1.3,1-2.3,2.3-2.3h18.7c1.3,0,2.3,1,2.3,2.3v18.7
		C311.7,235.1,310.7,236.2,309.4,236.2z"/>
	<g>
		<path class="st1" d="M314.8,220.5h-20.6c-0.8,0-1.5-0.7-1.5-1.5s0.7-1.5,1.5-1.5h20.6c0.8,0,1.5,0.7,1.5,1.5
			S315.7,220.5,314.8,220.5z"/>
	</g>
	<g>
		<path class="st1" d="M305.7,231.4h-20.6c-0.8,0-1.5-0.7-1.5-1.5s0.7-1.5,1.5-1.5h20.6c0.8,0,1.5,0.7,1.5,1.5
			S306.6,231.4,305.7,231.4z"/>
	</g>
	<circle class="st1" cx="294.3" cy="219" r="4"/>
	<circle class="st1" cx="305.7" cy="229.9" r="4"/>
</g>
<g id="Layer_2">
</g>
</svg>
