<?xml version="1.0" encoding="utf-8"?>
<!-- Generator: Adobe Illustrator 19.1.0, SVG Export Plug-In . SVG Version: 6.00 Build 0)  -->
<svg version="1.1" xmlns="http://www.w3.org/2000/svg" xmlns:xlink="http://www.w3.org/1999/xlink" x="0px" y="0px" width="100px"
	 height="100px" 
	 viewBox="250 889 100 100" style="enable-background:new 250 889 100 100;" xml:space="preserve">
<style type="text/css">
	.st0{fill:#19486F;}
	.st1{fill:#2E73B8;}
	.st2{fill:#1F5B98;}
	.st3{fill:#99BCE3;}
	.st4{fill:#5294CF;}
	.st5{fill:#FFFFFF;}
	.st6{fill:none;}
	.st7{enable-background:new    ;}
</style>
<g id="Layer_1">
	<path class="st0" d="M317.4,968h-34.8c-5,0-9.1-4.1-9.1-9.1v-34.8c0-5,4.1-9.1,9.1-9.1h34.8c5,0,9.1,4.1,9.1,9.1v34.8
		C326.5,963.9,322.4,968,317.4,968z"/>
	<path class="st1" d="M317.4,965.5h-34.8c-5,0-9.1-4.1-9.1-9.1v-34.8c0-5,4.1-9.1,9.1-9.1h34.8c5,0,9.1,4.1,9.1,9.1v34.8
		C326.5,961.4,322.4,965.5,317.4,965.5z"/>
	<rect x="310" y="903.4" class="st1" width="4" height="13.7"/>
	<rect x="286" y="903.4" class="st1" width="4" height="13.7"/>
	<rect x="304" y="903.4" class="st1" width="4" height="13.7"/>
	<rect x="292" y="903.4" class="st1" width="4" height="13.7"/>
	<rect x="298" y="903.4" class="st1" width="4" height="13.7"/>
	<rect x="264.4" y="949" class="st1" width="18.1" height="4"/>
	<rect x="264.4" y="931" class="st1" width="18.1" height="4"/>
	<rect x="264.4" y="943" class="st1" width="18.1" height="4"/>
	<rect x="264.4" y="937" class="st1" width="18.1" height="4"/>
	<rect x="264.4" y="925" class="st1" width="18.1" height="4"/>
	<rect x="286" y="958.9" class="st1" width="4" height="15.7"/>
	<rect x="310" y="958.9" class="st1" width="4" height="15.7"/>
	<rect x="292" y="958.9" class="st1" width="4" height="15.7"/>
	<rect x="304" y="958.9" class="st1" width="4" height="15.7"/>
	<rect x="298" y="958.9" class="st1" width="4" height="15.7"/>
	<rect x="319.7" y="943" class="st1" width="15.9" height="4"/>
	<rect x="319.7" y="925" class="st1" width="15.9" height="4"/>
	<rect x="319.7" y="937" class="st1" width="15.9" height="4"/>
	<rect x="319.7" y="931" class="st1" width="15.9" height="4"/>
	<rect x="319.7" y="949" class="st1" width="15.9" height="4"/>
	<polygon class="st1" points="288.7,939.2 291.5,931.2 307,932.8 313,945.7 293.7,950.2 	"/>
	<g>
		<circle class="st1" cx="286.7" cy="946.6" r="7.7"/>
		<path class="st5" d="M286.7,955.8c-5.1,0-9.2-4.1-9.2-9.2c0-5.1,4.1-9.2,9.2-9.2c5.1,0,9.2,4.1,9.2,9.2
			C296,951.7,291.8,955.8,286.7,955.8z M286.7,940.4c-3.4,0-6.2,2.8-6.2,6.2c0,3.4,2.8,6.2,6.2,6.2c3.4,0,6.2-2.8,6.2-6.2
			C293,943.2,290.2,940.4,286.7,940.4z"/>
	</g>
	<g>
		<path class="st1" d="M305.5,946.6c0-4.3,3.5-7.7,7.7-7.7c4.3,0,7.7,3.5,7.7,7.7s-3.5,7.7-7.7,7.7
			C309,954.3,305.5,950.9,305.5,946.6"/>
		<path class="st5" d="M313.3,955.8c-5.1,0-9.2-4.1-9.2-9.2c0-5.1,4.1-9.2,9.2-9.2c5.1,0,9.2,4.1,9.2,9.2
			C322.5,951.7,318.3,955.8,313.3,955.8z M313.3,940.4c-3.4,0-6.2,2.8-6.2,6.2c0,3.4,2.8,6.2,6.2,6.2c3.4,0,6.2-2.8,6.2-6.2
			C319.5,943.2,316.7,940.4,313.3,940.4z"/>
	</g>
	<g>
		<path class="st5" d="M286.7,948.1c-0.1,0-0.3,0-0.4-0.1c-0.8-0.2-1.2-1.1-1-1.9l4.8-15.4c0.2-0.6,0.7-1,1.3-1.1
			c0.6-0.1,1.2,0.2,1.5,0.8l7.1,13l5.7-11.3c0.3-0.5,0.8-0.8,1.4-0.8c0.6,0,1.1,0.4,1.3,0.9l6.3,13.8c0.2,0.5,0.2,1-0.1,1.4
			s-0.8,0.7-1.3,0.7H300c-0.2,0-0.5,0-0.7-0.2c0,0,0,0,0,0c-0.3-0.1-0.5-0.4-0.6-0.6l-6.8-12.3l-3.7,12.1
			C288,947.7,287.4,948.1,286.7,948.1z M302.4,945.1h8.5l-4-8.8L302.4,945.1z"/>
	</g>
	<g>
		<path class="st5" d="M315.6,948.1h-18l9.5-18.7L315.6,948.1z M302.4,945.1h8.5l-4-8.8L302.4,945.1z"/>
	</g>
	<g>
		<path class="st5" d="M307,934.3c-0.1,0-0.1,0-0.2,0l-15.5-1.7c-0.5,0-3-0.2-4.3-1.9c-0.5-0.6-1.1-1.7-0.8-3.2c0-0.4,0.3-2,1.5-3
			c0.6-0.5,1.8-1.1,3.5-0.8c0.8,0.1,1.4,0.9,1.3,1.7c-0.1,0.8-0.9,1.4-1.7,1.3c-0.5-0.1-0.9,0-1.2,0.2c-0.3,0.3-0.4,0.8-0.4,1
			c0,0,0,0.1,0,0.2c-0.1,0.5,0,0.8,0.2,0.9c0.5,0.6,1.7,0.8,2.2,0.8l15.6,1.7c0.8,0.1,1.4,0.8,1.3,1.7
			C308.4,933.7,307.8,934.3,307,934.3z"/>
	</g>
	<g>
		<path class="st5" d="M306.9,936.1c-0.8,0-1.5-0.7-1.5-1.5v-4.8c0-0.8,0.7-1.5,1.5-1.5s1.5,0.7,1.5,1.5v4.8
			C308.4,935.4,307.7,936.1,306.9,936.1z"/>
	</g>
	<g>
		<circle class="st1" cx="300" cy="946.6" r="2.2"/>
		<path class="st5" d="M300,950.3c-2,0-3.7-1.7-3.7-3.7s1.7-3.7,3.7-3.7s3.7,1.7,3.7,3.7S302,950.3,300,950.3z M300,945.9
			c-0.4,0-0.7,0.3-0.7,0.7s0.3,0.7,0.7,0.7s0.7-0.3,0.7-0.7S300.4,945.9,300,945.9z"/>
	</g>
	<g>
		<path class="st5" d="M308.4,930.4h-4.9c-0.8,0-1.5-0.7-1.5-1.5s0.7-1.5,1.5-1.5h4.9c0.3,0,0.3-0.1,0.3-0.3c0-0.8,0.7-1.5,1.5-1.5
			s1.5,0.7,1.5,1.5C311.7,929.5,309.7,930.4,308.4,930.4z"/>
	</g>
</g>
<g id="Layer_2">
</g>
</svg>
