<?xml version="1.0" encoding="utf-8"?>
<!-- Generator: Adobe Illustrator 19.1.0, SVG Export Plug-In . SVG Version: 6.00 Build 0)  -->
<svg version="1.1" xmlns="http://www.w3.org/2000/svg" xmlns:xlink="http://www.w3.org/1999/xlink" x="0px" y="0px" width="100px"
	 height="100px" 
	 viewBox="250 306.5 100 100" style="enable-background:new 250 306.5 100 100;" xml:space="preserve">
<style type="text/css">
	.st0{fill:#19486F;}
	.st1{fill:#2E73B8;}
	.st2{fill:#1F5B98;}
	.st3{fill:#99BCE3;}
	.st4{fill:#5294CF;}
	.st5{fill:#FFFFFF;}
	.st6{fill:none;}
	.st7{enable-background:new    ;}
</style>
<g id="Layer_1">
	<path class="st0" d="M317.4,385.4h-34.8c-5,0-9.1-4.1-9.1-9.1v-34.8c0-5,4.1-9.1,9.1-9.1h34.8c5,0,9.1,4.1,9.1,9.1v34.8
		C326.5,381.4,322.4,385.4,317.4,385.4z"/>
	<path class="st1" d="M317.4,383h-34.8c-5,0-9.1-4.1-9.1-9.1v-34.8c0-5,4.1-9.1,9.1-9.1h34.8c5,0,9.1,4.1,9.1,9.1v34.8
		C326.5,378.9,322.4,383,317.4,383z"/>
	<rect x="310" y="320.8" class="st1" width="4" height="13.7"/>
	<rect x="286" y="320.8" class="st1" width="4" height="13.7"/>
	<rect x="304" y="320.8" class="st1" width="4" height="13.7"/>
	<rect x="292" y="320.8" class="st1" width="4" height="13.7"/>
	<rect x="298" y="320.8" class="st1" width="4" height="13.7"/>
	<rect x="264.4" y="366.5" class="st1" width="18.1" height="4"/>
	<rect x="264.4" y="348.5" class="st1" width="18.1" height="4"/>
	<rect x="264.4" y="360.5" class="st1" width="18.1" height="4"/>
	<rect x="264.4" y="354.5" class="st1" width="18.1" height="4"/>
	<rect x="264.4" y="342.5" class="st1" width="18.1" height="4"/>
	<rect x="286" y="376.3" class="st1" width="4" height="15.7"/>
	<rect x="310" y="376.3" class="st1" width="4" height="15.7"/>
	<rect x="292" y="376.3" class="st1" width="4" height="15.7"/>
	<rect x="304" y="376.3" class="st1" width="4" height="15.7"/>
	<rect x="298" y="376.3" class="st1" width="4" height="15.7"/>
	<rect x="319.7" y="360.5" class="st1" width="15.9" height="4"/>
	<rect x="319.7" y="342.5" class="st1" width="15.9" height="4"/>
	<rect x="319.7" y="354.5" class="st1" width="15.9" height="4"/>
	<rect x="319.7" y="348.5" class="st1" width="15.9" height="4"/>
	<rect x="319.7" y="366.5" class="st1" width="15.9" height="4"/>
	<path class="st5" d="M301,377.1h-2c-1.8,0-3.3-1.5-3.3-3.3v-5.3h8.7v5.3C304.3,375.6,302.8,377.1,301,377.1z"/>
	<g>
		<path class="st5" d="M304.3,368.1h-8.7c-0.8,0-1.5-0.7-1.5-1.5s0.7-1.5,1.5-1.5h8.7c0.8,0,1.5,0.7,1.5,1.5
			S305.2,368.1,304.3,368.1z"/>
	</g>
	<g>
		<path class="st5" d="M294.9,359.9c-0.5,0-1-0.3-1.3-0.7c-0.4-0.7-0.2-1.6,0.5-2.1l14-8.3c0.7-0.4,1.6-0.2,2.1,0.5
			c0.4,0.7,0.2,1.6-0.5,2.1l-14,8.3C295.5,359.9,295.2,359.9,294.9,359.9z"/>
	</g>
	<g>
		<path class="st5" d="M291.1,349.8c-0.5,0-1-0.3-1.3-0.7c-0.4-0.7-0.2-1.6,0.5-2.1l14-8.3c0.7-0.4,1.6-0.2,2.1,0.5s0.2,1.6-0.5,2.1
			l-14,8.3C291.7,349.7,291.4,349.8,291.1,349.8z"/>
	</g>
	<g>
		<path class="st5" d="M291.1,356c-0.5,0-1-0.3-1.3-0.7c-0.4-0.7-0.2-1.6,0.5-2.1l17.8-10.6c0.7-0.4,1.6-0.2,2.1,0.5
			c0.4,0.7,0.2,1.6-0.5,2.1l-17.8,10.6C291.7,355.9,291.4,356,291.1,356z"/>
	</g>
	<g>
		<path class="st5" d="M300,368.1c-0.8,0-1.5-0.7-1.5-1.5v-5c0-0.5,0.3-1,0.7-1.3l8.9-5.3c0.7-0.4,1.6-0.2,2.1,0.5
			c0.4,0.7,0.2,1.6-0.5,2.1l-8.2,4.9v4.1C301.5,367.4,300.8,368.1,300,368.1z"/>
	</g>
	<g>
		<path class="st5" d="M291.1,343.6c-0.5,0-1-0.3-1.3-0.7c-0.4-0.7-0.2-1.6,0.5-2.1l7.4-4.4c0.7-0.4,1.6-0.2,2.1,0.5
			c0.4,0.7,0.2,1.6-0.5,2.1l-7.4,4.4C291.7,343.6,291.4,343.6,291.1,343.6z"/>
	</g>
</g>
<g id="Layer_2">
</g>
</svg>
