<?xml version="1.0" encoding="utf-8"?>
<!-- Generator: Adobe Illustrator 19.1.0, SVG Export Plug-In . SVG Version: 6.00 Build 0)  -->
<svg version="1.1" xmlns="http://www.w3.org/2000/svg" xmlns:xlink="http://www.w3.org/1999/xlink" x="0px" y="0px" width="100px"
	 height="100px" 
	 viewBox="499 1033 100 100" style="enable-background:new 499 1033 100 100;" xml:space="preserve">
<style type="text/css">
	.st0{fill:#19486F;}
	.st1{fill:#2E73B8;}
	.st2{fill:#1F5B98;}
	.st3{fill:#99BCE3;}
	.st4{fill:#5294CF;}
	.st5{fill:#FFFFFF;}
	.st6{fill:none;}
	.st7{enable-background:new    ;}
</style>
<g id="Layer_1">
	<path class="st0" d="M560.9,1057.9l-3.7,2.5l-1.8-4.1c-2.8-6.2-9.1-10.3-15.9-10.3c-4.7,0-9.1,1.8-12.3,5.1
		c-3.3,3.3-5.1,7.7-5.1,12.4l0.1,3.2l-2.7,0.8c-4.5,1.3-8.1,7-8.1,10.9v1.4c0,4.7,5.7,10.2,13,10.2h49.4c7.3,0,13-5.5,13-10.2v-1.4
		c0-4.7-5.3-11-11.4-11.5l-3.3-0.3l-0.1-3.3c-0.1-3.8-3.2-6.7-7-6.7C563.5,1056.7,562.1,1057.1,560.9,1057.9z"/>
	<path class="st1" d="M560.9,1054.9l-3.7,2.5l-1.8-4.1c-2.8-6.2-9.1-10.3-15.9-10.3c-4.7,0-9.1,1.8-12.3,5.1
		c-3.3,3.3-5.1,7.7-5.1,12.4l0.1,3.2l-2.7,0.8c-4.5,1.3-8.1,7-8.1,10.9v1.4c0,4.7,5.7,10.2,13,10.2h49.4c7.3,0,13-5.5,13-10.2v-1.4
		c0-4.7-5.3-11-11.4-11.5l-3.3-0.3l-0.1-3.3c-0.1-3.8-3.2-6.7-7-6.7C563.5,1053.7,562.1,1054.1,560.9,1054.9z"/>
	<rect x="519.1" y="1100.7" class="st0" width="58" height="22.2"/>
	<rect x="519.1" y="1097.7" class="st1" width="58" height="22.2"/>
	<path class="st5" d="M530.9,1113.4L530.9,1113.4c-2.7,0-4.8-2.2-4.8-4.8l0,0c0-2.7,2.2-4.8,4.8-4.8l0,0c2.7,0,4.8,2.2,4.8,4.8l0,0
		C535.7,1111.2,533.6,1113.4,530.9,1113.4z"/>
	<polygon class="st5" points="554.2,1113.4 541.7,1113.4 548,1103.7 	"/>
	<rect x="560.2" y="1103.7" class="st5" width="9.7" height="9.7"/>
	<rect x="522.9" y="1066.4" class="st5" width="50" height="15.8"/>
	<path class="st1" d="M530.9,1079.1L530.9,1079.1c-2.7,0-4.8-2.2-4.8-4.8l0,0c0-2.7,2.2-4.8,4.8-4.8l0,0c2.7,0,4.8,2.2,4.8,4.8l0,0
		C535.7,1076.9,533.6,1079.1,530.9,1079.1z"/>
	<polygon class="st1" points="554.2,1079.1 541.7,1079.1 548,1069.4 	"/>
	<rect x="560.2" y="1069.4" class="st1" width="9.7" height="9.7"/>
</g>
<g id="Layer_2">
</g>
</svg>
