<?xml version="1.0" encoding="utf-8"?>
<!-- Generator: Adobe Illustrator 19.1.0, SVG Export Plug-In . SVG Version: 6.00 Build 0)  -->
<svg version="1.1" xmlns="http://www.w3.org/2000/svg" xmlns:xlink="http://www.w3.org/1999/xlink" x="0px" y="0px" width="100px"
	 height="100px" 
	 viewBox="0 0 100 100" style="enable-background:new 0 0 100 100;" xml:space="preserve">
<style type="text/css">
	.st0{fill:#19486F;}
	.st1{fill:#2E73B8;}
	.st2{fill:#1F5B98;}
	.st3{fill:#99BCE3;}
	.st4{fill:#5294CF;}
	.st5{fill:#FFFFFF;}
	.st6{fill:none;}
	.st7{enable-background:new    ;}
</style>
<g id="Layer_1">
	<polygon class="st0" points="67.9,37.3 76,27 79.8,37.3 72,38.3 	"/>
	<polygon class="st2" points="54.5,65.2 76,69.5 79.4,55.2 76,40.8 54.5,42.8 	"/>
	<polygon class="st3" points="50,55.1 50,71.5 76,54.6 56.3,53.7 	"/>
	<polygon class="st2" points="55,50 62.6,50 72.8,40.2 62.6,26.2 55,28.4 	"/>
	<polygon class="st2" points="67.9,37.3 76,36.2 76,27 67.9,28.9 	"/>
	<polygon class="st4" points="79.8,54.2 50,57.2 50,86 79.8,71.1 	"/>
	<polygon class="st4" points="50,86 58.9,73.2 58.9,37.4 50,35.6 40.7,59.2 	"/>
	<polygon class="st4" points="76,64.5 79.8,71.1 79.8,41.6 76,40.8 	"/>
	<polygon class="st4" points="79.8,28.9 76,27 76,36.2 79.8,37.3 	"/>
	<polygon class="st4" points="73.8,30.7 62.6,26.2 62.6,50 73.8,50 	"/>
	<polygon class="st0" points="32.1,37.3 24,27 20.2,37.3 28,38.3 	"/>
	<polygon class="st4" points="45.5,65.2 24,69.5 24,40.8 45.5,42.8 	"/>
	<polygon class="st3" points="50,55.1 50,73.4 24,54.6 43.7,53.7 	"/>
	<polygon class="st4" points="45,50 37.4,50 28,38.8 37.4,26.2 45,28.4 	"/>
	<polygon class="st4" points="32.1,37.3 24,36.2 24,27 32.1,28.9 	"/>
	<polygon class="st2" points="20.2,54.2 50,57.2 50,86 20.2,71.1 	"/>
	<polygon class="st2" points="50,86 41.1,74.1 41.1,37.4 50,35.6 	"/>
	<polygon class="st2" points="24,70.4 20.2,71.1 20.2,41.6 24,40.8 	"/>
	<polygon class="st2" points="20.2,28.9 24,27 24,36.2 20.2,37.3 	"/>
	<polygon class="st2" points="26.2,30.7 37.4,26.2 37.4,50 26.2,50 	"/>
	<polygon class="st0" points="58.9,31.1 50,33.2 41.1,31.1 50,14 	"/>
	<polygon class="st4" points="50,14 58.9,18.5 58.9,31.1 50,28.4 	"/>
	<polygon class="st2" points="50,14 41.1,18.5 41.1,31.1 50,28.4 	"/>
</g>
<g id="Layer_2">
</g>
</svg>
