<?xml version="1.0" encoding="utf-8"?>
<!-- Generator: Adobe Illustrator 19.1.0, SVG Export Plug-In . SVG Version: 6.00 Build 0)  -->
<svg version="1.1" xmlns="http://www.w3.org/2000/svg" xmlns:xlink="http://www.w3.org/1999/xlink" x="0px" y="0px" width="100px"
	 height="100px" 
	 viewBox="250 1033 100 100" style="enable-background:new 250 1033 100 100;" xml:space="preserve">
<style type="text/css">
	.st0{fill:#19486F;}
	.st1{fill:#2E73B8;}
	.st2{fill:#1F5B98;}
	.st3{fill:#99BCE3;}
	.st4{fill:#5294CF;}
	.st5{fill:#FFFFFF;}
	.st6{fill:none;}
	.st7{enable-background:new    ;}
</style>
<g id="Layer_1">
	<path class="st0" d="M317.4,1112h-34.8c-5,0-9.1-4.1-9.1-9.1v-34.8c0-5,4.1-9.1,9.1-9.1h34.8c5,0,9.1,4.1,9.1,9.1v34.8
		C326.5,1107.9,322.4,1112,317.4,1112z"/>
	<path class="st1" d="M317.4,1109.5h-34.8c-5,0-9.1-4.1-9.1-9.1v-34.8c0-5,4.1-9.1,9.1-9.1h34.8c5,0,9.1,4.1,9.1,9.1v34.8
		C326.5,1105.4,322.4,1109.5,317.4,1109.5z"/>
	<rect x="310" y="1047.4" class="st1" width="4" height="13.7"/>
	<rect x="286" y="1047.4" class="st1" width="4" height="13.7"/>
	<rect x="304" y="1047.4" class="st1" width="4" height="13.7"/>
	<rect x="292" y="1047.4" class="st1" width="4" height="13.7"/>
	<rect x="298" y="1047.4" class="st1" width="4" height="13.7"/>
	<rect x="264.4" y="1093" class="st1" width="18.1" height="4"/>
	<rect x="264.4" y="1075" class="st1" width="18.1" height="4"/>
	<rect x="264.4" y="1087" class="st1" width="18.1" height="4"/>
	<rect x="264.4" y="1081" class="st1" width="18.1" height="4"/>
	<rect x="264.4" y="1069" class="st1" width="18.1" height="4"/>
	<rect x="286" y="1102.9" class="st1" width="4" height="15.7"/>
	<rect x="310" y="1102.9" class="st1" width="4" height="15.7"/>
	<rect x="292" y="1102.9" class="st1" width="4" height="15.7"/>
	<rect x="304" y="1102.9" class="st1" width="4" height="15.7"/>
	<rect x="298" y="1102.9" class="st1" width="4" height="15.7"/>
	<rect x="319.7" y="1087" class="st1" width="15.9" height="4"/>
	<rect x="319.7" y="1069" class="st1" width="15.9" height="4"/>
	<rect x="319.7" y="1081" class="st1" width="15.9" height="4"/>
	<rect x="319.7" y="1075" class="st1" width="15.9" height="4"/>
	<rect x="319.7" y="1093" class="st1" width="15.9" height="4"/>
	<g>
		<path class="st5" d="M278.5,1091.1h-0.7c-0.8,0-1.5-0.7-1.5-1.5s0.7-1.5,1.5-1.5h0.7c0.8,0,1.5,0.7,1.5,1.5
			S279.3,1091.1,278.5,1091.1z"/>
	</g>
	<g>
		<path class="st5" d="M323.5,1091.4h-0.7c-0.8,0-1.5-0.7-1.5-1.5s0.7-1.5,1.5-1.5h0.7c0.8,0,1.5,0.7,1.5,1.5
			S324.3,1091.4,323.5,1091.4z"/>
	</g>
	<g>
		<path class="st1" d="M317.4,1091h3.8v-3.4c0-7-8.4-7-8.4-7l-3.2-7.4h-15.8l-2.2,7.2l-11.9,3.3v4v3.4h2.9"/>
		<path class="st5" d="M321.2,1092.5h-3.8c-0.8,0-1.5-0.7-1.5-1.5s0.7-1.5,1.5-1.5h2.3v-1.9c0-5.3-6.2-5.5-6.9-5.5
			c-0.6,0-1.1-0.4-1.4-0.9l-2.8-6.5H295l-1.8,6.1c-0.1,0.5-0.5,0.9-1,1l-10.8,3v4.7h1.4c0.8,0,1.5,0.7,1.5,1.5s-0.7,1.5-1.5,1.5
			h-2.9c-0.8,0-1.5-0.7-1.5-1.5v-7.4c0-0.7,0.4-1.3,1.1-1.4l11.1-3.1l1.9-6.4c0.2-0.6,0.8-1.1,1.4-1.1h15.8c0.6,0,1.1,0.4,1.4,0.9
			l2.8,6.6c3.5,0.3,8.9,2.4,8.9,8.5v3.4C322.7,1091.8,322,1092.5,321.2,1092.5z"/>
	</g>
	<g>
		<path class="st1" d="M317.4,1091h3.8v-3.4c0-7-8.4-7-8.4-7l-3.2-7.4h-15.8l-2.2,7.2l-11.9,3.3v4v3.4h2.9"/>
		<path class="st5" d="M321.2,1092.5h-3.8c-0.8,0-1.5-0.7-1.5-1.5s0.7-1.5,1.5-1.5h2.3v-1.9c0-5.3-6.2-5.5-6.9-5.5
			c-0.6,0-1.1-0.4-1.4-0.9l-2.8-6.5H295l-1.8,6.1c-0.1,0.5-0.5,0.9-1,1l-10.8,3v4.7h1.4c0.8,0,1.5,0.7,1.5,1.5s-0.7,1.5-1.5,1.5
			h-2.9c-0.8,0-1.5-0.7-1.5-1.5v-7.4c0-0.7,0.4-1.3,1.1-1.4l11.1-3.1l1.9-6.4c0.2-0.6,0.8-1.1,1.4-1.1h15.8c0.6,0,1.1,0.4,1.4,0.9
			l2.8,6.6c3.5,0.3,8.9,2.4,8.9,8.5v3.4C322.7,1091.8,322,1092.5,321.2,1092.5z"/>
	</g>
	<g>
		<circle class="st1" cx="287" cy="1091" r="3.9"/>
		<path class="st5" d="M287,1096.4c-3,0-5.4-2.4-5.4-5.4s2.4-5.4,5.4-5.4s5.4,2.4,5.4,5.4S290,1096.4,287,1096.4z M287,1088.6
			c-1.3,0-2.4,1.1-2.4,2.4s1.1,2.4,2.4,2.4s2.4-1.1,2.4-2.4S288.3,1088.6,287,1088.6z"/>
	</g>
	<g>
		<circle class="st1" cx="312.8" cy="1091" r="3.9"/>
		<path class="st5" d="M312.8,1096.4c-3,0-5.4-2.4-5.4-5.4s2.4-5.4,5.4-5.4s5.4,2.4,5.4,5.4S315.8,1096.4,312.8,1096.4z
			 M312.8,1088.6c-1.3,0-2.4,1.1-2.4,2.4s1.1,2.4,2.4,2.4s2.4-1.1,2.4-2.4S314.2,1088.6,312.8,1088.6z"/>
	</g>
	<g>
		<path class="st5" d="M308.3,1092.5h-16.6c-0.8,0-1.5-0.7-1.5-1.5s0.7-1.5,1.5-1.5h16.6c0.8,0,1.5,0.7,1.5,1.5
			S309.1,1092.5,308.3,1092.5z"/>
	</g>
</g>
<g id="Layer_2">
</g>
</svg>
