<?xml version="1.0" encoding="utf-8"?>
<!-- Generator: Adobe Illustrator 19.1.0, SVG Export Plug-In . SVG Version: 6.00 Build 0)  -->
<svg version="1.1" xmlns="http://www.w3.org/2000/svg" xmlns:xlink="http://www.w3.org/1999/xlink" x="0px" y="0px" width="100px"
	 height="100px" 
	 viewBox="499 1179 100 100" style="enable-background:new 499 1179 100 100;" xml:space="preserve">
<style type="text/css">
	.st0{fill:#19486F;}
	.st1{fill:#2E73B8;}
	.st2{fill:#1F5B98;}
	.st3{fill:#99BCE3;}
	.st4{fill:#5294CF;}
	.st5{fill:#FFFFFF;}
	.st6{fill:none;}
	.st7{enable-background:new    ;}
</style>
<g id="Layer_1">
	<path class="st6" d="M536.1,1217.7C536.1,1217.7,536.1,1217.7,536.1,1217.7c-1.4,0-2.5,1.1-2.5,2.5c0,1.3,1.1,2.4,2.5,2.4
		c0,0,0,0,0,0c1.4,0,2.5-1.1,2.5-2.5C538.6,1218.8,537.5,1217.7,536.1,1217.7z"/>
	<polygon class="st0" points="564,1251 557.5,1247.7 554.2,1254.2 549,1249.1 543.8,1254.2 540.5,1247.7 534,1251 532.8,1243.8 
		530.3,1244.2 530.3,1267.6 549,1254.8 567.7,1267.6 567.7,1244.2 565.2,1243.8 	"/>
	<polygon class="st1" points="530.3,1233.5 530.3,1264.6 549,1251.8 567.7,1264.6 567.7,1233.5 	"/>
	<polygon class="st0" points="572.8,1221.6 577.2,1217.1 577.2,1214.1 571.7,1214.2 574.5,1208.6 574.5,1205.6 568.3,1207.6 
		569.2,1201.4 569.2,1198.4 563,1202.3 562,1196.1 556.4,1198.9 553.5,1193.4 549,1197.8 544.5,1193.4 541.6,1198.9 536,1196.1 
		535,1202.3 528.8,1198.4 528.8,1201.4 529.7,1207.6 523.5,1205.6 523.5,1208.6 526.3,1214.2 520.8,1214.1 520.8,1217.1 
		525.2,1221.6 520.8,1223.1 520.8,1226.1 526.3,1228.9 523.5,1231.6 523.5,1234.6 529.7,1235.6 528.8,1238.8 528.8,1241.8 
		530.3,1241.6 535,1240.9 536,1247.1 541.6,1244.2 544.5,1249.8 549,1245.4 553.5,1249.8 556.4,1244.2 562,1247.1 563,1240.9 
		567.7,1241.6 569.2,1241.8 569.2,1238.8 568.3,1235.6 574.5,1234.6 574.5,1231.6 571.7,1228.9 577.2,1226.1 577.2,1223.1 	"/>
	<polygon class="st1" points="572.8,1218.6 577.2,1214.1 571.7,1211.2 574.5,1205.6 568.3,1204.6 569.2,1198.4 563,1199.3 
		562,1193.1 556.4,1195.9 553.5,1190.4 549,1194.8 544.5,1190.4 541.6,1195.9 536,1193.1 535,1199.3 528.8,1198.4 529.7,1204.6 
		523.5,1205.6 526.3,1211.2 520.8,1214.1 525.2,1218.6 520.8,1223.1 526.3,1225.9 523.5,1231.6 529.7,1232.6 528.8,1238.8 
		530.3,1238.6 535,1237.9 536,1244.1 541.6,1241.2 544.5,1246.8 549,1242.4 553.5,1246.8 556.4,1241.2 562,1244.1 563,1237.9 
		567.7,1238.6 569.2,1238.8 568.3,1232.6 574.5,1231.6 571.7,1225.9 577.2,1223.1 	"/>
	<g>
		<circle class="st1" cx="549" cy="1218.6" r="21.8"/>
		<path class="st5" d="M549,1241.9c-12.9,0-23.3-10.5-23.3-23.3c0-12.9,10.5-23.3,23.3-23.3s23.3,10.5,23.3,23.3
			C572.3,1231.5,561.9,1241.9,549,1241.9z M549,1198.3c-11.2,0-20.3,9.1-20.3,20.3s9.1,20.3,20.3,20.3s20.3-9.1,20.3-20.3
			S560.2,1198.3,549,1198.3z"/>
	</g>
	<path class="st5" d="M563.8,1216.8l-3.1,1.8l-1.2-0.3l-1.3-1.3l-3.4,0.3l-1.4-2.4l-4,0.1l-0.9,0c0-0.1-0.8-1.3-2-2.2
		c-1.6-1.3-3.5-1.9-5.5-1.9c-1.9,0-3.9,0.6-5.5,2c-3.7,3-4.3,8.5-1.2,12.2c0.2,0.3,0.4,0.5,0.7,0.7c1.7,1.6,3.9,2.4,6.1,2.4
		c1.9,0,3.9-0.6,5.5-2c0.5-0.4,0.8-0.8,1.2-1.2c0.4-0.4,0.7-0.9,0.9-1.3c0.3-0.5,0.5-0.9,0.5-1h16.2l1.6-2.9L563.8,1216.8z
		 M537.2,1221.6C537.2,1221.6,537.2,1221.6,537.2,1221.6c-1.3,0-2.3-1-2.3-2.2c0-1.3,1-2.3,2.2-2.3c0,0,0,0,0,0c1.3,0,2.3,1,2.3,2.2
		C539.5,1220.5,538.5,1221.6,537.2,1221.6z"/>
</g>
<g id="Layer_2">
</g>
</svg>
