<?xml version="1.0" encoding="utf-8"?>
<!-- Generator: Adobe Illustrator 19.1.0, SVG Export Plug-In . SVG Version: 6.00 Build 0)  -->
<svg version="1.1" xmlns="http://www.w3.org/2000/svg" xmlns:xlink="http://www.w3.org/1999/xlink" x="0px" y="0px" width="100px"
	 height="100px" 
	 viewBox="250 1467 100 100" style="enable-background:new 250 1467 100 100;" xml:space="preserve">
<style type="text/css">
	.st0{fill:#19486F;}
	.st1{fill:#2E73B8;}
	.st2{fill:#1F5B98;}
	.st3{fill:#99BCE3;}
	.st4{fill:#5294CF;}
	.st5{fill:#FFFFFF;}
	.st6{fill:none;}
	.st7{enable-background:new    ;}
</style>
<g id="Layer_1">
	<path class="st0" d="M317.4,1546h-34.8c-5,0-9.1-4.1-9.1-9.1v-34.8c0-5,4.1-9.1,9.1-9.1h34.8c5,0,9.1,4.1,9.1,9.1v34.8
		C326.5,1541.9,322.4,1546,317.4,1546z"/>
	<path class="st1" d="M317.4,1543.5h-34.8c-5,0-9.1-4.1-9.1-9.1v-34.8c0-5,4.1-9.1,9.1-9.1h34.8c5,0,9.1,4.1,9.1,9.1v34.8
		C326.5,1539.4,322.4,1543.5,317.4,1543.5z"/>
	<rect x="310" y="1481.4" class="st1" width="4" height="13.7"/>
	<rect x="286" y="1481.4" class="st1" width="4" height="13.7"/>
	<rect x="304" y="1481.4" class="st1" width="4" height="13.7"/>
	<rect x="292" y="1481.4" class="st1" width="4" height="13.7"/>
	<rect x="298" y="1481.4" class="st1" width="4" height="13.7"/>
	<rect x="264.4" y="1527" class="st1" width="18.1" height="4"/>
	<rect x="264.4" y="1509" class="st1" width="18.1" height="4"/>
	<rect x="264.4" y="1521" class="st1" width="18.1" height="4"/>
	<rect x="264.4" y="1515" class="st1" width="18.1" height="4"/>
	<rect x="264.4" y="1503" class="st1" width="18.1" height="4"/>
	<rect x="286" y="1536.9" class="st1" width="4" height="15.7"/>
	<rect x="310" y="1536.9" class="st1" width="4" height="15.7"/>
	<rect x="292" y="1536.9" class="st1" width="4" height="15.7"/>
	<rect x="304" y="1536.9" class="st1" width="4" height="15.7"/>
	<rect x="298" y="1536.9" class="st1" width="4" height="15.7"/>
	<rect x="319.7" y="1521" class="st1" width="15.9" height="4"/>
	<rect x="319.7" y="1503" class="st1" width="15.9" height="4"/>
	<rect x="319.7" y="1515" class="st1" width="15.9" height="4"/>
	<rect x="319.7" y="1509" class="st1" width="15.9" height="4"/>
	<rect x="319.7" y="1527" class="st1" width="15.9" height="4"/>
	<path class="st5" d="M314.6,1521.4c0-0.3,0-0.5-0.1-0.8c0-0.2-0.1-0.3-0.1-0.5c0-0.2-0.1-0.5-0.1-0.7c0-0.2-0.1-0.3-0.1-0.5
		c-0.1-0.2-0.1-0.5-0.2-0.7c0-0.2-0.1-0.4-0.2-0.5c-0.1-0.2-0.1-0.5-0.2-0.7c-0.1-0.2-0.1-0.4-0.2-0.5c-0.1-0.2-0.2-0.5-0.2-0.7
		c-0.1-0.2-0.1-0.4-0.2-0.5c-0.1-0.2-0.2-0.4-0.3-0.7c-0.1-0.2-0.2-0.4-0.3-0.6c-0.1-0.2-0.2-0.4-0.3-0.6c-0.7-1.3-0.7-2.9,0-4.2
		l2.5-4.9l-1.4-1.4l0,0c-1.3,0.8-2.6,1.2-4,1.4c-4,0.4-8.2-1.3-9.3-2.9l0,0l0,0c-1.1,1.6-5.3,3.3-9.3,2.9c-1.3-0.2-2.7-0.6-4-1.4
		l0,0l-1.4,1.4l2.5,4.9c0.7,1.3,0.6,2.9,0,4.2c-0.1,0.2-0.2,0.4-0.3,0.6c-0.1,0.2-0.2,0.4-0.3,0.6c-0.1,0.2-0.2,0.4-0.3,0.7
		c-0.1,0.2-0.2,0.4-0.2,0.5c-0.1,0.2-0.2,0.5-0.2,0.7c-0.1,0.2-0.1,0.4-0.2,0.5c-0.1,0.2-0.1,0.5-0.2,0.7c-0.1,0.2-0.1,0.4-0.2,0.5
		c-0.1,0.2-0.1,0.5-0.2,0.7c0,0.2-0.1,0.3-0.1,0.5c0,0.2-0.1,0.5-0.1,0.7c0,0.2-0.1,0.3-0.1,0.5c0,0.3-0.1,0.5-0.1,0.8
		c0,0.1,0,0.3,0,0.4c0,0.4,0,0.8,0,1.2c0,7.1,5,9.5,11.6,10.1c1,0.1,3,1.3,3,2.2c0-1,2.1-2.2,3-2.2c6.6-0.5,11.6-3,11.6-10.1
		c0-0.4,0-0.8,0-1.2C314.6,1521.7,314.6,1521.5,314.6,1521.4z"/>
</g>
<g id="Layer_2">
</g>
</svg>
