<?xml version="1.0" encoding="utf-8"?>
<!-- Generator: Adobe Illustrator 19.1.0, SVG Export Plug-In . SVG Version: 6.00 Build 0)  -->
<svg version="1.1" xmlns="http://www.w3.org/2000/svg" xmlns:xlink="http://www.w3.org/1999/xlink" x="0px" y="0px" width="100px"
	 height="100px" 
	 viewBox="499 2033 100 100" style="enable-background:new 499 2033 100 100;" xml:space="preserve">
<style type="text/css">
	.st0{fill:#19486F;}
	.st1{fill:#2E73B8;}
	.st2{fill:#1F5B98;}
	.st3{fill:#99BCE3;}
	.st4{fill:#5294CF;}
	.st5{fill:#FFFFFF;}
	.st6{fill:none;}
	.st7{enable-background:new    ;}
</style>
<g id="Layer_1">
	<polygon class="st0" points="574.2,2093.5 531.8,2093.5 531.8,2091 553,2075.3 574.2,2091 	"/>
	<polygon class="st0" points="576.8,2111.9 542.8,2111.9 542.8,2109.4 560.1,2096.3 576.8,2109.4 	"/>
	<rect x="542.8" y="2093.5" class="st1" width="34" height="15.9"/>
	<g class="st7">
		<path class="st5" d="M544.6,2096.1h1.7v4.3h3.2v-4.3h1.7v10.7h-1.7v-5h-3.2v5h-1.7V2096.1z"/>
		<path class="st5" d="M555.3,2097.5h-2.6v-1.4h6.8v1.4H557v9.3h-1.7V2097.5z"/>
		<path class="st5" d="M562.9,2097.5h-2.6v-1.4h6.8v1.4h-2.5v9.3h-1.7V2097.5z"/>
		<path class="st5" d="M568.7,2096.1h3.4c2.1,0,3,1.3,3,3.1c0,1.9-1.1,3.2-3.1,3.2h-1.5v4.4h-1.7V2096.1z M570.4,2101.1h1.2
			c0.9,0,1.7-0.5,1.7-1.8c0-1.2-0.5-1.9-1.8-1.9h-1.1V2101.1z"/>
	</g>
	<path class="st0" d="M574.2,2091v-25.8c0-5-4.1-9.1-9.1-9.1h-34.8c-5,0-9.1,4.1-9.1,9.1v34.8c0,5,4.1,9.1,9.1,9.1h10V2091H574.2z"
		/>
	<path class="st1" d="M574.2,2091v-28.3c0-5-4.1-9.1-9.1-9.1h-34.8c-5,0-9.1,4.1-9.1,9.1v34.8c0,5,4.1,9.1,9.1,9.1h10V2091H574.2z"
		/>
</g>
<g id="Layer_2">
</g>
</svg>
