<?xml version="1.0" encoding="utf-8"?>
<!-- Generator: Adobe Illustrator 19.1.0, SVG Export Plug-In . SVG Version: 6.00 Build 0)  -->
<svg version="1.1" xmlns="http://www.w3.org/2000/svg" xmlns:xlink="http://www.w3.org/1999/xlink" x="0px" y="0px" width="100px"
	 height="100px" 
	 viewBox="250 1323 100 100" style="enable-background:new 250 1323 100 100;" xml:space="preserve">
<style type="text/css">
	.st0{fill:#19486F;}
	.st1{fill:#2E73B8;}
	.st2{fill:#1F5B98;}
	.st3{fill:#99BCE3;}
	.st4{fill:#5294CF;}
	.st5{fill:#FFFFFF;}
	.st6{fill:none;}
	.st7{enable-background:new    ;}
</style>
<g id="Layer_1">
	<path class="st0" d="M317.4,1402h-34.8c-5,0-9.1-4.1-9.1-9.1v-34.8c0-5,4.1-9.1,9.1-9.1h34.8c5,0,9.1,4.1,9.1,9.1v34.8
		C326.5,1397.9,322.4,1402,317.4,1402z"/>
	<path class="st1" d="M317.4,1399.5h-34.8c-5,0-9.1-4.1-9.1-9.1v-34.8c0-5,4.1-9.1,9.1-9.1h34.8c5,0,9.1,4.1,9.1,9.1v34.8
		C326.5,1395.4,322.4,1399.5,317.4,1399.5z"/>
	<rect x="310" y="1337.4" class="st1" width="4" height="13.7"/>
	<rect x="286" y="1337.4" class="st1" width="4" height="13.7"/>
	<rect x="304" y="1337.4" class="st1" width="4" height="13.7"/>
	<rect x="292" y="1337.4" class="st1" width="4" height="13.7"/>
	<rect x="298" y="1337.4" class="st1" width="4" height="13.7"/>
	<rect x="264.4" y="1383" class="st1" width="18.1" height="4"/>
	<rect x="264.4" y="1365" class="st1" width="18.1" height="4"/>
	<rect x="264.4" y="1377" class="st1" width="18.1" height="4"/>
	<rect x="264.4" y="1371" class="st1" width="18.1" height="4"/>
	<rect x="264.4" y="1359" class="st1" width="18.1" height="4"/>
	<rect x="286" y="1392.9" class="st1" width="4" height="15.7"/>
	<rect x="310" y="1392.9" class="st1" width="4" height="15.7"/>
	<rect x="292" y="1392.9" class="st1" width="4" height="15.7"/>
	<rect x="304" y="1392.9" class="st1" width="4" height="15.7"/>
	<rect x="298" y="1392.9" class="st1" width="4" height="15.7"/>
	<rect x="319.7" y="1377" class="st1" width="15.9" height="4"/>
	<rect x="319.7" y="1359" class="st1" width="15.9" height="4"/>
	<rect x="319.7" y="1371" class="st1" width="15.9" height="4"/>
	<rect x="319.7" y="1365" class="st1" width="15.9" height="4"/>
	<rect x="319.7" y="1383" class="st1" width="15.9" height="4"/>
	<path class="st0" d="M317.4,1402h-34.8c-5,0-9.1-4.1-9.1-9.1v-34.8c0-5,4.1-9.1,9.1-9.1h34.8c5,0,9.1,4.1,9.1,9.1v34.8
		C326.5,1397.9,322.4,1402,317.4,1402z"/>
	<path class="st1" d="M317.4,1399.5h-34.8c-5,0-9.1-4.1-9.1-9.1v-34.8c0-5,4.1-9.1,9.1-9.1h34.8c5,0,9.1,4.1,9.1,9.1v34.8
		C326.5,1395.4,322.4,1399.5,317.4,1399.5z"/>
	<rect x="310" y="1337.4" class="st1" width="4" height="13.7"/>
	<rect x="286" y="1337.4" class="st1" width="4" height="13.7"/>
	<rect x="304" y="1337.4" class="st1" width="4" height="13.7"/>
	<rect x="292" y="1337.4" class="st1" width="4" height="13.7"/>
	<rect x="298" y="1337.4" class="st1" width="4" height="13.7"/>
	<rect x="264.4" y="1383" class="st1" width="18.1" height="4"/>
	<rect x="264.4" y="1365" class="st1" width="18.1" height="4"/>
	<rect x="264.4" y="1377" class="st1" width="18.1" height="4"/>
	<rect x="264.4" y="1371" class="st1" width="18.1" height="4"/>
	<rect x="264.4" y="1359" class="st1" width="18.1" height="4"/>
	<rect x="286" y="1392.9" class="st1" width="4" height="15.7"/>
	<rect x="310" y="1392.9" class="st1" width="4" height="15.7"/>
	<rect x="292" y="1392.9" class="st1" width="4" height="15.7"/>
	<rect x="304" y="1392.9" class="st1" width="4" height="15.7"/>
	<rect x="298" y="1392.9" class="st1" width="4" height="15.7"/>
	<rect x="319.7" y="1377" class="st1" width="15.9" height="4"/>
	<rect x="319.7" y="1359" class="st1" width="15.9" height="4"/>
	<rect x="319.7" y="1371" class="st1" width="15.9" height="4"/>
	<rect x="319.7" y="1365" class="st1" width="15.9" height="4"/>
	<rect x="319.7" y="1383" class="st1" width="15.9" height="4"/>
	<path class="st5" d="M299,1377.1c2.5,0,4.6-1.3,5.8-3.3h1.1c3.7,0,3.2,3.8,3.2,3.8v2.9h6.7v-6.7c0-3.7-3-6.7-6.7-6.7l-4.3-0.1
		c-0.6-1-1.4-1.9-2.4-2.4v-4.2h0l3.4,0c1.8,0,3.3-1.5,3.3-3.3c0-1.8-1.5-3.3-3.3-3.3h-13.4c-1.8,0-3.3,1.5-3.3,3.3
		c0,1.8,1.5,3.3,3.3,3.3l3.3,0v4.2c-1,0.6-1.9,1.4-2.4,2.4h-11v6.7h11C294.4,1375.8,296.5,1377.1,299,1377.1z"/>
	<path class="st5" d="M312.3,1382.9c-1.8,3.3-3,5.1-3,7.7c0,1.7,1.3,3,3,3c1.7,0,3-1.3,3-3C315.3,1388,313.8,1386.1,312.3,1382.9z"
		/>
</g>
<g id="Layer_2">
</g>
</svg>
