<?xml version="1.0" encoding="utf-8"?>
<!-- Generator: Adobe Illustrator 19.1.0, SVG Export Plug-In . SVG Version: 6.00 Build 0)  -->
<svg version="1.1" xmlns="http://www.w3.org/2000/svg" xmlns:xlink="http://www.w3.org/1999/xlink" x="0px" y="0px" width="100px"
	 height="100px" 
	 viewBox="250 737 100 100" style="enable-background:new 250 737 100 100;" xml:space="preserve">
<style type="text/css">
	.st0{fill:#19486F;}
	.st1{fill:#2E73B8;}
	.st2{fill:#1F5B98;}
	.st3{fill:#99BCE3;}
	.st4{fill:#5294CF;}
	.st5{fill:#FFFFFF;}
	.st6{fill:none;}
	.st7{enable-background:new    ;}
</style>
<g id="Layer_1">
	<path class="st0" d="M317.4,816h-34.8c-5,0-9.1-4.1-9.1-9.1v-34.8c0-5,4.1-9.1,9.1-9.1h34.8c5,0,9.1,4.1,9.1,9.1v34.8
		C326.5,811.9,322.4,816,317.4,816z"/>
	<path class="st1" d="M317.4,813.5h-34.8c-5,0-9.1-4.1-9.1-9.1v-34.8c0-5,4.1-9.1,9.1-9.1h34.8c5,0,9.1,4.1,9.1,9.1v34.8
		C326.5,809.4,322.4,813.5,317.4,813.5z"/>
	<rect x="310" y="751.4" class="st1" width="4" height="13.7"/>
	<rect x="286" y="751.4" class="st1" width="4" height="13.7"/>
	<rect x="304" y="751.4" class="st1" width="4" height="13.7"/>
	<rect x="292" y="751.4" class="st1" width="4" height="13.7"/>
	<rect x="298" y="751.4" class="st1" width="4" height="13.7"/>
	<rect x="264.4" y="797" class="st1" width="18.1" height="4"/>
	<rect x="264.4" y="779" class="st1" width="18.1" height="4"/>
	<rect x="264.4" y="791" class="st1" width="18.1" height="4"/>
	<rect x="264.4" y="785" class="st1" width="18.1" height="4"/>
	<rect x="264.4" y="773" class="st1" width="18.1" height="4"/>
	<rect x="286" y="806.9" class="st1" width="4" height="15.7"/>
	<rect x="310" y="806.9" class="st1" width="4" height="15.7"/>
	<rect x="292" y="806.9" class="st1" width="4" height="15.7"/>
	<rect x="304" y="806.9" class="st1" width="4" height="15.7"/>
	<rect x="298" y="806.9" class="st1" width="4" height="15.7"/>
	<rect x="319.7" y="791" class="st1" width="15.9" height="4"/>
	<rect x="319.7" y="773" class="st1" width="15.9" height="4"/>
	<rect x="319.7" y="785" class="st1" width="15.9" height="4"/>
	<rect x="319.7" y="779" class="st1" width="15.9" height="4"/>
	<rect x="319.7" y="797" class="st1" width="15.9" height="4"/>
	<g>
		<rect x="298.5" y="778.8" class="st5" width="3" height="32.5"/>
	</g>
	<path class="st5" d="M317.3,778.7c-12.1-1.1-14.9-1.4-16.1-0.8c0-1.4-1.5-3.8-7.9-14l-0.8-1.3l-2.6,1.4l0.7,1.4
		c5,11,6.2,13.6,7.4,14.3c-1.2,0.7-2.5,3.2-8.2,13.9l-0.7,1.4l2.5,1.6l0.9-1.3c7-9.9,8.7-12.2,8.7-13.6c0.6,0.4,1.7,0.5,4.3,0.5
		c2.4,0,6.1-0.1,11.8-0.3l1.6-0.1l0.1-3L317.3,778.7z"/>
	<path class="st5" d="M300,776.3c-1.9,0-3.5,1.6-3.5,3.5s1.6,3.5,3.5,3.5s3.5-1.6,3.5-3.5S301.9,776.3,300,776.3z"/>
	<circle class="st1" cx="300" cy="779.8" r="1"/>
</g>
<g id="Layer_2">
</g>
</svg>
