<?xml version="1.0" encoding="utf-8"?>
<!-- Generator: Adobe Illustrator 19.1.0, SVG Export Plug-In . SVG Version: 6.00 Build 0)  -->
<svg version="1.1" xmlns="http://www.w3.org/2000/svg" xmlns:xlink="http://www.w3.org/1999/xlink" x="0px" y="0px" width="100px"
	 height="100px" 
	 viewBox="499 1895 100 100" style="enable-background:new 499 1895 100 100;" xml:space="preserve">
<style type="text/css">
	.st0{fill:#19486F;}
	.st1{fill:#2E73B8;}
	.st2{fill:#1F5B98;}
	.st3{fill:#99BCE3;}
	.st4{fill:#5294CF;}
	.st5{fill:#FFFFFF;}
	.st6{fill:none;}
	.st7{enable-background:new    ;}
</style>
<g id="Layer_1">
	<polygon class="st0" points="574.2,1955.5 531.8,1955.5 531.8,1953 553,1937.3 574.2,1953 	"/>
	<polygon class="st0" points="576.8,1973.9 539.3,1973.9 539.3,1971.4 558.4,1958.3 576.8,1971.4 	"/>
	<rect x="539.3" y="1955.5" class="st1" width="37.5" height="15.9"/>
	<g class="st7">
		<path class="st5" d="M541.1,1958.1h2.7l1.9,7.9h0l1.9-7.9h2.6v10.7h-1.6v-8.9h0l-2.2,8.9h-1.4l-2.2-8.9h0v8.9h-1.6V1958.1z"/>
		<path class="st5" d="M557.5,1968.6c-0.4,0.3-1,0.4-1.7,0.4c-2.5,0-3.5-1.7-3.5-5.6c0-3.8,1.1-5.6,3.5-5.6s3.5,1.7,3.5,5.6
			c0,2-0.4,3.5-0.8,4.2l1.1,1.2l-1,0.9L557.5,1968.6z M556.6,1965.8l0.7,0.7c0.2-0.6,0.3-1.6,0.3-3.1c0-3.6-0.8-4.2-1.8-4.2
			c-1,0-1.8,0.6-1.8,4.2c0,3.7,0.8,4.3,1.8,4.3c0.2,0,0.4,0,0.6-0.1l-0.8-0.8L556.6,1965.8z"/>
		<path class="st5" d="M563.3,1959.5h-2.6v-1.4h6.8v1.4H565v9.3h-1.7V1959.5z"/>
		<path class="st5" d="M570.9,1959.5h-2.5v-1.4h6.8v1.4h-2.5v9.3h-1.7V1959.5z"/>
	</g>
	<path class="st0" d="M574.2,1953v-25.8c0-5-4.1-9.1-9.1-9.1h-34.8c-5,0-9.1,4.1-9.1,9.1v34.8c0,5,4.1,9.1,9.1,9.1h7V1953H574.2z"/>
	<path class="st1" d="M574.2,1953v-28.3c0-5-4.1-9.1-9.1-9.1h-34.8c-5,0-9.1,4.1-9.1,9.1v34.8c0,5,4.1,9.1,9.1,9.1h7V1953H574.2z"/>
</g>
<g id="Layer_2">
</g>
</svg>
