<?xml version="1.0" encoding="utf-8"?>
<!-- Generator: Adobe Illustrator 19.1.0, SVG Export Plug-In . SVG Version: 6.00 Build 0)  -->
<svg version="1.1" xmlns="http://www.w3.org/2000/svg" xmlns:xlink="http://www.w3.org/1999/xlink" x="0px" y="0px" width="100px"
	 height="100px" 
	 viewBox="499 1323 100 100" style="enable-background:new 499 1323 100 100;" xml:space="preserve">
<style type="text/css">
	.st0{fill:#19486F;}
	.st1{fill:#2E73B8;}
	.st2{fill:#1F5B98;}
	.st3{fill:#99BCE3;}
	.st4{fill:#5294CF;}
	.st5{fill:#FFFFFF;}
	.st6{fill:none;}
	.st7{enable-background:new    ;}
</style>
<g id="Layer_1">
	<path class="st0" d="M570.3,1351.8c-1.3,1.2-4.6,2.7-9.8,3.6c-3.2,0.6-7,0.9-11.5,0.9c-11.9,0-19.3-2.6-21.3-4.5H527v1.8
		c0,1.9,7.8,5.5,22,5.5c4.5,0,8.4-0.4,11.5-0.9c6.8-1.2,10.4-3.3,10.4-4.6v-1.8H570.3z"/>
	<path class="st0" d="M570.9,1394.2c0,0.1,0,0.1-0.1,0.2c0,0.1-0.1,0.2-0.1,0.3c-1.2,2-7.4,4.8-20.5,4.8c-8,0-14.7-1.5-18.6-2.8
		l0.1,0.3c-2.6-1-4.4-2-4.7-2.8v2.8c0.2,0.9,2.3,2,5.2,3c3.9,1.3,10,2.3,18,2.3c13.1,0,19.3-2.9,20.5-4.8c0.1-0.1,0.1-0.2,0.1-0.3
		c0-0.1,0-0.1,0.1-0.2c0-0.1,0-0.1,0-0.2v-2.8C571,1394.1,571,1394.2,570.9,1394.2z"/>
	<path class="st1" d="M560.2,1360.8c-0.6,0.1-1.2,0.2-1.8,0.3c-0.3,0-0.6,0.1-0.9,0.1c-0.6,0.1-1.1,0.1-1.7,0.2
		c-0.4,0-0.7,0.1-1.1,0.1c-0.7,0.1-1.5,0.1-2.2,0.1l-0.4,0c-0.9,0-1.8,0.1-2.7,0.1c-0.2,0-0.4,0-0.6,0c-8.7,0-17.5-1.5-21.8-4.4
		v37.8c0.2,0.9,2.3,2,5.2,3c3.9,1.3,10,2.3,18,2.3c14.6,0,20.7-3.6,20.7-5.5l0-38C568.7,1358.6,565,1360,560.2,1360.8z"/>
	<path class="st0" d="M527,1351.8c0,1.2,3.2,3.1,9.3,4.4v-8.7C530.2,1348.6,527,1350.6,527,1351.8z"/>
	<path class="st0" d="M570.9,1351.8c0-1.2-3.2-3.1-9.2-4.3v8.7C567.7,1354.9,570.9,1353,570.9,1351.8z"/>
	<polygon class="st1" points="536.3,1343.7 540.6,1346.7 549,1352.8 557.5,1346.7 561.8,1343.7 	"/>
	<path class="st1" d="M560.2,1347.1l-11.1,8l-11.2-8l-1.6-1.1v1.4v8.7c3.4,0.7,7.6,1.2,12.7,1.2c4.5,0,8.4-0.4,11.5-0.9
		c0.4-0.1,0.9-0.2,1.3-0.2v-8.7v-1.5L560.2,1347.1z"/>
</g>
<g id="Layer_2">
</g>
</svg>
