<?xml version="1.0" encoding="utf-8"?>
<!-- Generator: Adobe Illustrator 19.1.0, SVG Export Plug-In . SVG Version: 6.00 Build 0)  -->
<svg version="1.1" xmlns="http://www.w3.org/2000/svg" xmlns:xlink="http://www.w3.org/1999/xlink" x="0px" y="0px" width="100px"
	 height="100px" 
	 viewBox="250 1179 100 100" style="enable-background:new 250 1179 100 100;" xml:space="preserve">
<style type="text/css">
	.st0{fill:#19486F;}
	.st1{fill:#2E73B8;}
	.st2{fill:#1F5B98;}
	.st3{fill:#99BCE3;}
	.st4{fill:#5294CF;}
	.st5{fill:#FFFFFF;}
	.st6{fill:none;}
	.st7{enable-background:new    ;}
</style>
<g id="Layer_1">
	<path class="st0" d="M317.4,1258h-34.8c-5,0-9.1-4.1-9.1-9.1v-34.8c0-5,4.1-9.1,9.1-9.1h34.8c5,0,9.1,4.1,9.1,9.1v34.8
		C326.5,1253.9,322.4,1258,317.4,1258z"/>
	<path class="st1" d="M317.4,1255.5h-34.8c-5,0-9.1-4.1-9.1-9.1v-34.8c0-5,4.1-9.1,9.1-9.1h34.8c5,0,9.1,4.1,9.1,9.1v34.8
		C326.5,1251.4,322.4,1255.5,317.4,1255.5z"/>
	<rect x="310" y="1193.4" class="st1" width="4" height="13.7"/>
	<rect x="286" y="1193.4" class="st1" width="4" height="13.7"/>
	<rect x="304" y="1193.4" class="st1" width="4" height="13.7"/>
	<rect x="292" y="1193.4" class="st1" width="4" height="13.7"/>
	<rect x="298" y="1193.4" class="st1" width="4" height="13.7"/>
	<rect x="264.4" y="1239" class="st1" width="18.1" height="4"/>
	<rect x="264.4" y="1221" class="st1" width="18.1" height="4"/>
	<rect x="264.4" y="1233" class="st1" width="18.1" height="4"/>
	<rect x="264.4" y="1227" class="st1" width="18.1" height="4"/>
	<rect x="264.4" y="1215" class="st1" width="18.1" height="4"/>
	<rect x="286" y="1248.9" class="st1" width="4" height="15.7"/>
	<rect x="310" y="1248.9" class="st1" width="4" height="15.7"/>
	<rect x="292" y="1248.9" class="st1" width="4" height="15.7"/>
	<rect x="304" y="1248.9" class="st1" width="4" height="15.7"/>
	<rect x="298" y="1248.9" class="st1" width="4" height="15.7"/>
	<rect x="319.7" y="1233" class="st1" width="15.9" height="4"/>
	<rect x="319.7" y="1215" class="st1" width="15.9" height="4"/>
	<rect x="319.7" y="1227" class="st1" width="15.9" height="4"/>
	<rect x="319.7" y="1221" class="st1" width="15.9" height="4"/>
	<rect x="319.7" y="1239" class="st1" width="15.9" height="4"/>
	<rect x="281.5" y="1220.2" class="st5" width="37" height="26.4"/>
	<rect x="279" y="1219" class="st5" width="42" height="2.5"/>
	<rect x="279" y="1245.2" class="st5" width="42" height="2.6"/>
	<polygon class="st5" points="300,1207 279,1219 321,1219 	"/>
	<g>
		<path class="st1" d="M300.9,1217.9c4.4,0.3,8.6,2.6,8.6,7.8h-6.2c0.1-1.7-1-2.5-2.4-2.9v4.5c0.8,0.2,1.6,0.4,2.5,0.6
			c3.4,1,6.9,2.6,6.9,6.9c0,5.6-4.5,7.6-9.4,7.8v3h-1.6v-3c-5.3-0.2-9.7-2.5-9.8-8.4h6.2c0.1,2.4,1.5,3.4,3.6,3.6v-5.2
			c-0.6-0.2-1.3-0.4-2.1-0.6c-3.4-1-7-2.5-7-6.9c0-5.1,4.7-7.2,9.1-7.4v-3h1.6V1217.9z M299.3,1222.7c-1.3,0-2.9,0.5-2.9,2.2
			c0,1.1,1.2,1.6,2.9,2.1V1222.7z M300.9,1237.9c1.5-0.1,3.2-0.7,3.2-2.3c0-1.3-1.3-1.9-3.2-2.5V1237.9z"/>
	</g>
</g>
<g id="Layer_2">
</g>
</svg>
