<?xml version="1.0" encoding="utf-8"?>
<!-- Generator: Adobe Illustrator 19.1.0, SVG Export Plug-In . SVG Version: 6.00 Build 0)  -->
<svg version="1.1" xmlns="http://www.w3.org/2000/svg" xmlns:xlink="http://www.w3.org/1999/xlink" x="0px" y="0px" width="100px"
	 height="100px" 
	 viewBox="499 2323 100 100" style="enable-background:new 499 2323 100 100;" xml:space="preserve">
<style type="text/css">
	.st0{fill:#19486F;}
	.st1{fill:#2E73B8;}
	.st2{fill:#1F5B98;}
	.st3{fill:#99BCE3;}
	.st4{fill:#5294CF;}
	.st5{fill:#FFFFFF;}
	.st6{fill:none;}
	.st7{enable-background:new    ;}
</style>
<g id="Layer_1">
	<rect x="511.5" y="2377.5" class="st0" width="75" height="22.2"/>
	<rect x="511.5" y="2346.6" class="st1" width="75" height="49.9"/>
	<g>
		<path class="st5" d="M586.5,2385.3h-12.6c-0.8,0-1.5-0.7-1.5-1.5v-9c0-0.8,0.7-1.5,1.5-1.5s1.5,0.7,1.5,1.5v7.5h11.1V2385.3z"/>
	</g>
	<g>
		<path class="st5" d="M586.5,2393h-23.3c-0.8,0-1.5-0.7-1.5-1.5v-16.7c0-0.8,0.7-1.5,1.5-1.5s1.5,0.7,1.5,1.5v15.2h21.8V2393z"/>
	</g>
	<circle class="st5" cx="573.9" cy="2374.8" r="3.7"/>
	<circle class="st5" cx="563.2" cy="2374.8" r="3.7"/>
	<circle class="st5" cx="552.9" cy="2385.1" r="3.7"/>
	<circle class="st5" cx="545.5" cy="2359.2" r="3.7"/>
	<circle class="st5" cx="550.8" cy="2370.8" r="3.7"/>
	<circle class="st5" cx="527.9" cy="2359.2" r="3.7"/>
	<circle class="st5" cx="517.9" cy="2385.2" r="3.7"/>
	<path class="st5" d="M581.8,2368.8H566c-0.9,0-1.6-0.7-1.6-1.6v-15.8c0-0.9,0.7-1.6,1.6-1.6h15.8c0.9,0,1.6,0.7,1.6,1.6v15.8
		C583.4,2368,582.7,2368.8,581.8,2368.8z"/>
	<g>
		<path class="st5" d="M552.9,2386.6c-0.4,0-0.8-0.1-1.1-0.4l-15.3-15.3c-0.3-0.3-0.4-0.7-0.4-1.1v-23.2h3v22.6l14.8,14.8
			c0.6,0.6,0.6,1.5,0,2.1C553.6,2386.5,553.2,2386.6,552.9,2386.6z"/>
	</g>
	<circle class="st5" cx="527.7" cy="2370.8" r="3.7"/>
	<circle class="st5" cx="529.9" cy="2385.2" r="3.7"/>
	<g>
		<polygon class="st5" points="543.4,2396.5 540.4,2396.5 540.4,2385.7 526.8,2372.1 528.9,2370 543.4,2384.4 		"/>
	</g>
	<g>
		<path class="st5" d="M573.9,2360.7h-28.7c-0.8,0-1.5-0.7-1.5-1.5s0.7-1.5,1.5-1.5h28.7c0.8,0,1.5,0.7,1.5,1.5
			S574.7,2360.7,573.9,2360.7z"/>
	</g>
	<g>
		<path class="st5" d="M556.5,2360.7c-0.8,0-1.5-0.7-1.5-1.5v-12.6h3v12.6C558,2360.1,557.3,2360.7,556.5,2360.7z"/>
	</g>
	<g>
		<path class="st5" d="M529.8,2386.7c-0.4,0-0.8-0.1-1.1-0.4l-12-12c-0.3-0.3-0.4-0.7-0.4-1.1v-26.6h3v26l11.5,11.5
			c0.6,0.6,0.6,1.5,0,2.1C530.6,2386.6,530.2,2386.7,529.8,2386.7z"/>
	</g>
	<g>
		<path class="st5" d="M529.9,2360.7h-12.1c-0.8,0-1.5-0.7-1.5-1.5s0.7-1.5,1.5-1.5h12.1c0.8,0,1.5,0.7,1.5,1.5
			S530.8,2360.7,529.9,2360.7z"/>
	</g>
	<g>
		<rect x="516.4" y="2385.2" class="st5" width="3" height="11.3"/>
	</g>
	<g>
		
			<rect x="547" y="2367.7" transform="matrix(0.7071 0.7071 -0.7071 0.7071 1838.6794 307.2323)" class="st5" width="3" height="10.8"/>
	</g>
	<g>
		<path class="st1" d="M555.8,2342.9c-0.5,0-1-0.2-1.4-0.6c-3-3-7.9-3-10.9,0c-0.8,0.8-2,0.8-2.8,0s-0.8-2,0-2.8
			c4.6-4.6,12-4.6,16.5,0c0.8,0.8,0.8,2,0,2.8C556.9,2342.7,556.4,2342.9,555.8,2342.9z"/>
	</g>
	<g>
		<path class="st1" d="M561.3,2337.5c-0.5,0-1-0.2-1.4-0.6c-6-6-15.7-6-21.7,0c-0.8,0.8-2,0.8-2.8,0s-0.8-2,0-2.8
			c7.5-7.5,19.8-7.5,27.4,0c0.8,0.8,0.8,2,0,2.8C562.3,2337.3,561.8,2337.5,561.3,2337.5z"/>
	</g>
	<g>
		<path class="st1" d="M549,2409.9c-3,0-6-1.1-8.3-3.4c-0.8-0.8-0.8-2,0-2.8s2-0.8,2.8,0c3,3,7.9,3,10.9,0c0.8-0.8,2-0.8,2.8,0
			s0.8,2,0,2.8C555,2408.8,552,2409.9,549,2409.9z"/>
	</g>
	<g>
		<path class="st1" d="M549,2417.6c-5,0-9.9-1.9-13.7-5.7c-0.8-0.8-0.8-2,0-2.8s2-0.8,2.8,0c6,6,15.7,6,21.7,0c0.8-0.8,2-0.8,2.8,0
			s0.8,2,0,2.8C558.9,2415.7,554,2417.6,549,2417.6z"/>
	</g>
</g>
<g id="Layer_2">
</g>
</svg>
