<?xml version="1.0" encoding="utf-8"?>
<!-- Generator: Adobe Illustrator 19.1.0, SVG Export Plug-In . SVG Version: 6.00 Build 0)  -->
<svg version="1.1" xmlns="http://www.w3.org/2000/svg" xmlns:xlink="http://www.w3.org/1999/xlink" x="0px" y="0px" width="100px"
	 height="100px" 
	 viewBox="499 2179 100 100" style="enable-background:new 499 2179 100 100;" xml:space="preserve">
<style type="text/css">
	.st0{fill:#19486F;}
	.st1{fill:#2E73B8;}
	.st2{fill:#1F5B98;}
	.st3{fill:#99BCE3;}
	.st4{fill:#5294CF;}
	.st5{fill:#FFFFFF;}
	.st6{fill:none;}
	.st7{enable-background:new    ;}
</style>
<g id="Layer_1">
	<polygon class="st0" points="576.8,2257.9 528.8,2257.9 528.8,2255.4 553.2,2242.3 576.8,2255.4 	"/>
	<rect x="528.8" y="2239.5" class="st1" width="48" height="15.9"/>
	<g class="st7">
		<path class="st5" d="M531.4,2242.1h1.7v4.3h3.2v-4.3h1.7v10.7h-1.7v-5h-3.2v5h-1.7V2242.1z"/>
		<path class="st5" d="M542.1,2243.5h-2.6v-1.4h6.8v1.4h-2.5v9.3h-1.7V2243.5z"/>
		<path class="st5" d="M549.6,2243.5h-2.6v-1.4h6.8v1.4h-2.5v9.3h-1.7V2243.5z"/>
		<path class="st5" d="M555.4,2242.1h3.4c2.1,0,3,1.3,3,3.1c0,1.9-1.1,3.2-3.1,3.2h-1.5v4.4h-1.7V2242.1z M557.1,2247.1h1.2
			c0.9,0,1.7-0.5,1.7-1.8c0-1.2-0.5-1.9-1.8-1.9h-1.1V2247.1z"/>
		<path class="st5" d="M565.9,2241.8h1.3l-3.4,11.1h-1.3L565.9,2241.8z"/>
		<path class="st5" d="M574.4,2252.8h-6.2c0-4.6,4.5-4.5,4.5-7.8c0-0.9-0.4-1.6-1.3-1.6c-1.3,0-1.5,1.1-1.5,2.2h-1.6
			c0-2.1,0.9-3.4,3.1-3.4c2.2,0,3,1.3,3,2.8c0,3.5-3.4,3.8-4.3,6.3h4.3V2252.8z"/>
	</g>
	<path class="st0" d="M565.1,2202.1h-34.8c-5,0-9.1,4.1-9.1,9.1v25.8v9c0,3.8,2.3,7,5.5,8.4V2237h13.6h19.7h14.1v-25.8
		C574.2,2206.2,570.1,2202.1,565.1,2202.1z"/>
	<polygon class="st0" points="574.2,2239.5 526.1,2239.5 526.1,2237 550.5,2223.9 574.2,2237 	"/>
	<path class="st1" d="M565.1,2199.6h-34.8c-5,0-9.1,4.1-9.1,9.1v28.3v6.5c0,3.8,2.3,7,5.5,8.4V2237h13.6h19.7h14.1v-28.3
		C574.2,2203.7,570.1,2199.6,565.1,2199.6z"/>
</g>
<g id="Layer_2">
</g>
</svg>
