<?xml version="1.0" encoding="utf-8"?>
<!-- Generator: Adobe Illustrator 19.1.0, SVG Export Plug-In . SVG Version: 6.00 Build 0)  -->
<svg version="1.1" xmlns="http://www.w3.org/2000/svg" xmlns:xlink="http://www.w3.org/1999/xlink" x="0px" y="0px" width="100px"
	 height="100px" 
	 viewBox="250 2033 100 100" style="enable-background:new 250 2033 100 100;" xml:space="preserve">
<style type="text/css">
	.st0{fill:#19486F;}
	.st1{fill:#2E73B8;}
	.st2{fill:#1F5B98;}
	.st3{fill:#99BCE3;}
	.st4{fill:#5294CF;}
	.st5{fill:#FFFFFF;}
	.st6{fill:none;}
	.st7{enable-background:new    ;}
</style>
<g id="Layer_1">
	<path class="st0" d="M317.4,2112h-34.8c-5,0-9.1-4.1-9.1-9.1v-34.8c0-5,4.1-9.1,9.1-9.1h34.8c5,0,9.1,4.1,9.1,9.1v34.8
		C326.5,2107.9,322.4,2112,317.4,2112z"/>
	<path class="st1" d="M317.4,2109.5h-34.8c-5,0-9.1-4.1-9.1-9.1v-34.8c0-5,4.1-9.1,9.1-9.1h34.8c5,0,9.1,4.1,9.1,9.1v34.8
		C326.5,2105.4,322.4,2109.5,317.4,2109.5z"/>
	<rect x="310" y="2047.4" class="st1" width="4" height="13.7"/>
	<rect x="286" y="2047.4" class="st1" width="4" height="13.7"/>
	<rect x="304" y="2047.4" class="st1" width="4" height="13.7"/>
	<rect x="292" y="2047.4" class="st1" width="4" height="13.7"/>
	<rect x="298" y="2047.4" class="st1" width="4" height="13.7"/>
	<rect x="264.4" y="2093" class="st1" width="18.1" height="4"/>
	<rect x="264.4" y="2075" class="st1" width="18.1" height="4"/>
	<rect x="264.4" y="2087" class="st1" width="18.1" height="4"/>
	<rect x="264.4" y="2081" class="st1" width="18.1" height="4"/>
	<rect x="264.4" y="2069" class="st1" width="18.1" height="4"/>
	<rect x="286" y="2102.9" class="st1" width="4" height="15.7"/>
	<rect x="310" y="2102.9" class="st1" width="4" height="15.7"/>
	<rect x="292" y="2102.9" class="st1" width="4" height="15.7"/>
	<rect x="304" y="2102.9" class="st1" width="4" height="15.7"/>
	<rect x="298" y="2102.9" class="st1" width="4" height="15.7"/>
	<rect x="319.7" y="2087" class="st1" width="15.9" height="4"/>
	<rect x="319.7" y="2069" class="st1" width="15.9" height="4"/>
	<rect x="319.7" y="2081" class="st1" width="15.9" height="4"/>
	<rect x="319.7" y="2075" class="st1" width="15.9" height="4"/>
	<rect x="319.7" y="2093" class="st1" width="15.9" height="4"/>
	<path class="st5" d="M305.9,2071l3,21.2c1,6.7,0.1,12.9-8.8,12.9h-6.5c-8.4,0-9.7-6.2-8.8-12.9l3-21.2H305.9z"/>
	<path class="st5" d="M287.9,2069c0.6-4.2,4-7.2,7.9-7.2h2.2c3.9,0,7.3,3,7.9,7.2H287.9z"/>
	<polygon class="st5" points="291.9,2088.5 285.3,2091.7 277.7,2073 282,2070.9 	"/>
	<g>
		<path class="st5" d="M308.8,2093.7h-1.6v-3h1.6c2.3,0,4.2-1.9,4.2-4.2v-4.4c0-2.3-1.9-4.2-4.2-4.2h-3v-3h3c4,0,7.2,3.2,7.2,7.2
			v4.4C316,2090.5,312.8,2093.7,308.8,2093.7z"/>
	</g>
	<g>
		<rect x="300.5" y="2099.5" class="st5" width="14" height="3"/>
	</g>
	<path class="st5" d="M320,2105.2h-2.3c-2.3,0-4.2-1.9-4.2-4.2v-0.1c0-2.3,1.9-4.2,4.2-4.2h2.3V2105.2z"/>
	<g>
		<g>
			<path class="st5" d="M322.7,2100.4h-5.5c-0.8,0-1.5-0.7-1.5-1.5s0.7-1.5,1.5-1.5h5.5c0.8,0,1.5,0.7,1.5,1.5
				S323.6,2100.4,322.7,2100.4z"/>
		</g>
		<g>
			<path class="st5" d="M322.7,2104.6h-5.5c-0.8,0-1.5-0.7-1.5-1.5s0.7-1.5,1.5-1.5h5.5c0.8,0,1.5,0.7,1.5,1.5
				S323.6,2104.6,322.7,2104.6z"/>
		</g>
	</g>
</g>
<g id="Layer_2">
</g>
</svg>
