<?xml version="1.0" encoding="utf-8"?>
<!-- Generator: Adobe Illustrator 19.1.0, SVG Export Plug-In . SVG Version: 6.00 Build 0)  -->
<svg version="1.1" xmlns="http://www.w3.org/2000/svg" xmlns:xlink="http://www.w3.org/1999/xlink" x="0px" y="0px" width="100px"
	 height="100px" 
	 viewBox="250 1895 100 100" style="enable-background:new 250 1895 100 100;" xml:space="preserve">
<style type="text/css">
	.st0{fill:#19486F;}
	.st1{fill:#2E73B8;}
	.st2{fill:#1F5B98;}
	.st3{fill:#99BCE3;}
	.st4{fill:#5294CF;}
	.st5{fill:#FFFFFF;}
	.st6{fill:none;}
	.st7{enable-background:new    ;}
</style>
<g id="Layer_1">
	<path class="st0" d="M317.4,1974h-34.8c-5,0-9.1-4.1-9.1-9.1v-34.8c0-5,4.1-9.1,9.1-9.1h34.8c5,0,9.1,4.1,9.1,9.1v34.8
		C326.5,1969.9,322.4,1974,317.4,1974z"/>
	<path class="st1" d="M317.4,1971.5h-34.8c-5,0-9.1-4.1-9.1-9.1v-34.8c0-5,4.1-9.1,9.1-9.1h34.8c5,0,9.1,4.1,9.1,9.1v34.8
		C326.5,1967.4,322.4,1971.5,317.4,1971.5z"/>
	<rect x="310" y="1909.4" class="st1" width="4" height="13.7"/>
	<rect x="286" y="1909.4" class="st1" width="4" height="13.7"/>
	<rect x="304" y="1909.4" class="st1" width="4" height="13.7"/>
	<rect x="292" y="1909.4" class="st1" width="4" height="13.7"/>
	<rect x="298" y="1909.4" class="st1" width="4" height="13.7"/>
	<rect x="264.4" y="1955" class="st1" width="18.1" height="4"/>
	<rect x="264.4" y="1937" class="st1" width="18.1" height="4"/>
	<rect x="264.4" y="1949" class="st1" width="18.1" height="4"/>
	<rect x="264.4" y="1943" class="st1" width="18.1" height="4"/>
	<rect x="264.4" y="1931" class="st1" width="18.1" height="4"/>
	<rect x="286" y="1964.9" class="st1" width="4" height="15.7"/>
	<rect x="310" y="1964.9" class="st1" width="4" height="15.7"/>
	<rect x="292" y="1964.9" class="st1" width="4" height="15.7"/>
	<rect x="304" y="1964.9" class="st1" width="4" height="15.7"/>
	<rect x="298" y="1964.9" class="st1" width="4" height="15.7"/>
	<rect x="319.7" y="1949" class="st1" width="15.9" height="4"/>
	<rect x="319.7" y="1931" class="st1" width="15.9" height="4"/>
	<rect x="319.7" y="1943" class="st1" width="15.9" height="4"/>
	<rect x="319.7" y="1937" class="st1" width="15.9" height="4"/>
	<rect x="319.7" y="1955" class="st1" width="15.9" height="4"/>
	<path class="st5" d="M317.2,1959h-34.8c-1.4,0-2.5-1.1-2.5-2.5v-19.3c0-1.4,1.1-2.5,2.5-2.5h34.8c1.4,0,2.5,1.1,2.5,2.5v19.3
		C319.7,1957.9,318.6,1959,317.2,1959z"/>
	<g>
		<path class="st1" d="M303,1956.9c-5.5,0-10-4.5-10-10s4.5-10,10-10s10,4.5,10,10S308.5,1956.9,303,1956.9z M303,1939.9
			c-3.9,0-7,3.1-7,7s3.1,7,7,7s7-3.1,7-7S306.9,1939.9,303,1939.9z"/>
	</g>
	<circle class="st1" cx="303" cy="1946.9" r="5.3"/>
	<rect x="283.1" y="1938" class="st1" width="6.4" height="3"/>
	<polygon class="st5" points="311.5,1933.7 294.5,1933.7 296.8,1929 309.2,1929 	"/>
</g>
<g id="Layer_2">
</g>
</svg>
