<?xml version="1.0" encoding="utf-8"?>
<!-- Generator: Adobe Illustrator 19.1.0, SVG Export Plug-In . SVG Version: 6.00 Build 0)  -->
<svg version="1.1" xmlns="http://www.w3.org/2000/svg" xmlns:xlink="http://www.w3.org/1999/xlink" x="0px" y="0px" width="100px"
	 height="100px" 
	 viewBox="250 1751 100 100" style="enable-background:new 250 1751 100 100;" xml:space="preserve">
<style type="text/css">
	.st0{fill:#19486F;}
	.st1{fill:#2E73B8;}
	.st2{fill:#1F5B98;}
	.st3{fill:#99BCE3;}
	.st4{fill:#5294CF;}
	.st5{fill:#FFFFFF;}
	.st6{fill:none;}
	.st7{enable-background:new    ;}
</style>
<g id="Layer_1">
	<path class="st0" d="M317.4,1830h-34.8c-5,0-9.1-4.1-9.1-9.1v-34.8c0-5,4.1-9.1,9.1-9.1h34.8c5,0,9.1,4.1,9.1,9.1v34.8
		C326.5,1825.9,322.4,1830,317.4,1830z"/>
	<path class="st1" d="M317.4,1827.5h-34.8c-5,0-9.1-4.1-9.1-9.1v-34.8c0-5,4.1-9.1,9.1-9.1h34.8c5,0,9.1,4.1,9.1,9.1v34.8
		C326.5,1823.4,322.4,1827.5,317.4,1827.5z"/>
	<rect x="310" y="1765.4" class="st1" width="4" height="13.7"/>
	<rect x="286" y="1765.4" class="st1" width="4" height="13.7"/>
	<rect x="304" y="1765.4" class="st1" width="4" height="13.7"/>
	<rect x="292" y="1765.4" class="st1" width="4" height="13.7"/>
	<rect x="298" y="1765.4" class="st1" width="4" height="13.7"/>
	<rect x="264.4" y="1811" class="st1" width="18.1" height="4"/>
	<rect x="264.4" y="1793" class="st1" width="18.1" height="4"/>
	<rect x="264.4" y="1805" class="st1" width="18.1" height="4"/>
	<rect x="264.4" y="1799" class="st1" width="18.1" height="4"/>
	<rect x="264.4" y="1787" class="st1" width="18.1" height="4"/>
	<rect x="286" y="1820.9" class="st1" width="4" height="15.7"/>
	<rect x="310" y="1820.9" class="st1" width="4" height="15.7"/>
	<rect x="292" y="1820.9" class="st1" width="4" height="15.7"/>
	<rect x="304" y="1820.9" class="st1" width="4" height="15.7"/>
	<rect x="298" y="1820.9" class="st1" width="4" height="15.7"/>
	<rect x="319.7" y="1805" class="st1" width="15.9" height="4"/>
	<rect x="319.7" y="1787" class="st1" width="15.9" height="4"/>
	<rect x="319.7" y="1799" class="st1" width="15.9" height="4"/>
	<rect x="319.7" y="1793" class="st1" width="15.9" height="4"/>
	<rect x="319.7" y="1811" class="st1" width="15.9" height="4"/>
	<path class="st5" d="M308.5,1809.6l-23.7-2.1c-0.5,0-1-0.4-1.1-1l-2.2-12.3c-0.1-0.7,0.4-1.3,1.1-1.4l29.5-3.1
		c0.8-0.1,1.5,0.6,1.3,1.4l-3.6,17.5C309.6,1809.3,309.1,1809.7,308.5,1809.6z"/>
	<circle class="st5" cx="286" cy="1820.1" r="3.1"/>
	<circle class="st5" cx="312.2" cy="1820.1" r="3.1"/>
	<g>
		<path class="st1" d="M285.8,1812.4c-0.3,0-0.5-0.2-0.5-0.5v-22.2c0-0.3,0.2-0.5,0.5-0.5s0.5,0.2,0.5,0.5v22.2
			C286.3,1812.2,286.1,1812.4,285.8,1812.4z"/>
	</g>
	<g>
		<path class="st1" d="M290.9,1812.4c-0.3,0-0.5-0.2-0.5-0.5v-22.2c0-0.3,0.2-0.5,0.5-0.5s0.5,0.2,0.5,0.5v22.2
			C291.4,1812.2,291.1,1812.4,290.9,1812.4z"/>
	</g>
	<g>
		<path class="st1" d="M295.9,1812.4c-0.3,0-0.5-0.2-0.5-0.5v-22.2c0-0.3,0.2-0.5,0.5-0.5s0.5,0.2,0.5,0.5v22.2
			C296.4,1812.2,296.2,1812.4,295.9,1812.4z"/>
	</g>
	<g>
		<path class="st1" d="M321.8,1795.8h-43.1c-0.3,0-0.5-0.2-0.5-0.5s0.2-0.5,0.5-0.5h43.1c0.3,0,0.5,0.2,0.5,0.5
			S322,1795.8,321.8,1795.8z"/>
	</g>
	<g>
		<path class="st1" d="M321.8,1800.4h-43.1c-0.3,0-0.5-0.2-0.5-0.5s0.2-0.5,0.5-0.5h43.1c0.3,0,0.5,0.2,0.5,0.5
			S322,1800.4,321.8,1800.4z"/>
	</g>
	<g>
		<path class="st1" d="M321.8,1805.1h-43.1c-0.3,0-0.5-0.2-0.5-0.5s0.2-0.5,0.5-0.5h43.1c0.3,0,0.5,0.2,0.5,0.5
			S322,1805.1,321.8,1805.1z"/>
	</g>
	<g>
		<path class="st1" d="M301,1812.4c-0.3,0-0.5-0.2-0.5-0.5v-22.2c0-0.3,0.2-0.5,0.5-0.5s0.5,0.2,0.5,0.5v22.2
			C301.5,1812.2,301.2,1812.4,301,1812.4z"/>
	</g>
	<g>
		<path class="st1" d="M306,1811.9c-0.3,0-0.5-0.2-0.5-0.5v-21.6c0-0.3,0.2-0.5,0.5-0.5s0.5,0.2,0.5,0.5v21.6
			C306.5,1811.6,306.3,1811.9,306,1811.9z"/>
	</g>
	<g>
		<path class="st5" d="M313.2,1816h-28.5c-0.8,0-1.5-0.7-1.5-1.5s0.7-1.5,1.5-1.5h25.5l-3.1-4.1c-0.3-0.3-0.4-0.8-0.3-1.2l5.1-24.6
			c0.1-0.5,0.5-0.9,0.9-1.1l5.8-2.2c0.8-0.3,1.6,0.1,1.9,0.9c0.3,0.8-0.1,1.6-0.9,1.9l-5,1.9l-4.8,23.1l4.5,6
			c0.3,0.5,0.4,1.1,0.1,1.6S313.8,1816,313.2,1816z"/>
	</g>
	<g>
		<path class="st5" d="M309,1810.5l-24.3-1.5c-1.2-0.1-2.2-1-2.5-2.2l-2.2-12.3c-0.1-0.7,0.1-1.5,0.5-2.1c0.4-0.6,1.1-1,1.9-1.1
			l29.5-3.1l0.3,3l-29.2,3l2.1,11.8l24,1.4L309,1810.5z"/>
	</g>
</g>
<g id="Layer_2">
</g>
</svg>
