<?xml version="1.0" encoding="utf-8"?>
<!-- Generator: Adobe Illustrator 19.1.0, SVG Export Plug-In . SVG Version: 6.00 Build 0)  -->
<svg version="1.1" xmlns="http://www.w3.org/2000/svg" xmlns:xlink="http://www.w3.org/1999/xlink" x="0px" y="0px" width="100px"
	 height="100px" 
	 viewBox="499 174.4 100 100" style="enable-background:new 499 174.4 100 100;" xml:space="preserve">
<style type="text/css">
	.st0{fill:#19486F;}
	.st1{fill:#2E73B8;}
	.st2{fill:#1F5B98;}
	.st3{fill:#99BCE3;}
	.st4{fill:#5294CF;}
	.st5{fill:#FFFFFF;}
	.st6{fill:none;}
	.st7{enable-background:new    ;}
</style>
<g id="Layer_1">
	<path class="st0" d="M571.6,209.8c-0.8,0-1.5,0.1-2.3,0.2c0-0.3,0.1-0.6,0.1-1c0-4-3.3-7.3-7.3-7.3c-2.7,0-5,1.4-6.3,3.6
		c-1.3-7.3-7.6-12.8-15.2-12.8c-8.5,0-15.5,6.9-15.5,15.5c0,0.9,0.1,1.8,0.3,2.7c-5.4,0.3-9.7,4.8-9.7,10.3
		c0,5.7,4.6,10.4,10.4,10.4c5.1,0,39.6,0,45.6,0c6,0,10.8-4.8,10.8-10.8C582.4,214.6,577.5,209.8,571.6,209.8z"/>
	<path class="st1" d="M571.6,206.8c-0.8,0-1.5,0.1-2.3,0.2c0-0.3,0.1-0.6,0.1-1c0-4-3.3-7.3-7.3-7.3c-2.7,0-5,1.4-6.3,3.6
		c-1.3-7.3-7.6-12.8-15.2-12.8c-8.5,0-15.5,6.9-15.5,15.5c0,0.9,0.1,1.8,0.3,2.7c-5.4,0.3-9.7,4.8-9.7,10.3
		c0,5.7,4.6,10.4,10.4,10.4c5.1,0,39.6,0,45.6,0c6,0,10.8-4.8,10.8-10.8C582.4,211.6,577.5,206.8,571.6,206.8z"/>
	<path class="st1" d="M549.2,216.5h-2.9c-0.2,0-0.4,0.2-0.4,0.4v6.9c0,0.2,0.2,0.4,0.4,0.4h2.9c0.2,0,0.4-0.2,0.4-0.4v-6.9
		C549.6,216.7,549.4,216.5,549.2,216.5z"/>
	<path class="st1" d="M543.2,216.5h-2.3c-0.2,0-0.4,0.2-0.4,0.4v2.7c0,0.2,0.2,0.4,0.4,0.4h2.3c0.2,0,0.4-0.2,0.4-0.4v-2.7
		C543.6,216.7,543.4,216.5,543.2,216.5z"/>
	<path class="st1" d="M554.6,216.5h-2.3c-0.2,0-0.4,0.2-0.4,0.4v2.7c0,0.2,0.2,0.4,0.4,0.4h2.3c0.2,0,0.4-0.2,0.4-0.4v-2.7
		C555,216.7,554.8,216.5,554.6,216.5z"/>
	<path class="st5" d="M557.3,225.9h-16.6c-1.3,0-2.3-1-2.3-2.3v-16.6c0-1.3,1-2.3,2.3-2.3h16.6c1.3,0,2.3,1,2.3,2.3v16.6
		C559.6,224.8,558.6,225.9,557.3,225.9z"/>
	<g>
		<path class="st1" d="M562.5,211.8h-18.7c-0.8,0-1.5-0.7-1.5-1.5s0.7-1.5,1.5-1.5h18.7c0.8,0,1.5,0.7,1.5,1.5
			S563.3,211.8,562.5,211.8z"/>
	</g>
	<g>
		<path class="st1" d="M554.2,221.7h-18.7c-0.8,0-1.5-0.7-1.5-1.5s0.7-1.5,1.5-1.5h18.7c0.8,0,1.5,0.7,1.5,1.5
			S555,221.7,554.2,221.7z"/>
	</g>
	<circle class="st1" cx="543.8" cy="210.3" r="3.6"/>
	<circle class="st1" cx="554.2" cy="220.2" r="3.6"/>
	<path class="st1" d="M549.2,248.1h-2.9c-0.2,0-0.4,0.2-0.4,0.4v6.9c0,0.2,0.2,0.4,0.4,0.4h2.9c0.2,0,0.4-0.2,0.4-0.4v-6.9
		C549.6,248.2,549.4,248.1,549.2,248.1z"/>
	<path class="st1" d="M543.2,248.1h-2.3c-0.2,0-0.4,0.2-0.4,0.4v2.7c0,0.2,0.2,0.4,0.4,0.4h2.3c0.2,0,0.4-0.2,0.4-0.4v-2.7
		C543.6,248.2,543.4,248.1,543.2,248.1z"/>
	<path class="st1" d="M554.6,248.1h-2.3c-0.2,0-0.4,0.2-0.4,0.4v2.7c0,0.2,0.2,0.4,0.4,0.4h2.3c0.2,0,0.4-0.2,0.4-0.4v-2.7
		C555,248.2,554.8,248.1,554.6,248.1z"/>
	<path class="st0" d="M557.3,259.4h-16.6c-1.3,0-2.3-1-2.3-2.3v-16.6c0-1.3,1-2.3,2.3-2.3h16.6c1.3,0,2.3,1,2.3,2.3v16.6
		C559.6,258.4,558.6,259.4,557.3,259.4z"/>
	<path class="st1" d="M557.3,257.4h-16.6c-1.3,0-2.3-1-2.3-2.3v-16.6c0-1.3,1-2.3,2.3-2.3h16.6c1.3,0,2.3,1,2.3,2.3v16.6
		C559.6,256.4,558.6,257.4,557.3,257.4z"/>
	<g>
		<path class="st5" d="M559.6,243.3h-15.8c-0.8,0-1.5-0.7-1.5-1.5s0.7-1.5,1.5-1.5h15.8V243.3z"/>
	</g>
	<g>
		<path class="st5" d="M554.2,253.3h-15.8v-3h15.8c0.8,0,1.5,0.7,1.5,1.5S555,253.3,554.2,253.3z"/>
	</g>
	<circle class="st5" cx="543.8" cy="241.8" r="3.6"/>
	<circle class="st5" cx="554.2" cy="251.8" r="3.6"/>
</g>
<g id="Layer_2">
</g>
</svg>
