<?xml version="1.0" encoding="utf-8"?>
<!-- Generator: Adobe Illustrator 19.1.0, SVG Export Plug-In . SVG Version: 6.00 Build 0)  -->
<svg version="1.1" xmlns="http://www.w3.org/2000/svg" xmlns:xlink="http://www.w3.org/1999/xlink" x="0px" y="0px" width="100px"
	 height="100px" 
	 viewBox="250 2179 100 100" style="enable-background:new 250 2179 100 100;" xml:space="preserve">
<style type="text/css">
	.st0{fill:#19486F;}
	.st1{fill:#2E73B8;}
	.st2{fill:#1F5B98;}
	.st3{fill:#99BCE3;}
	.st4{fill:#5294CF;}
	.st5{fill:#FFFFFF;}
	.st6{fill:none;}
	.st7{enable-background:new    ;}
</style>
<g id="Layer_1">
	<path class="st0" d="M317.4,2258h-34.8c-5,0-9.1-4.1-9.1-9.1v-34.8c0-5,4.1-9.1,9.1-9.1h34.8c5,0,9.1,4.1,9.1,9.1v34.8
		C326.5,2253.9,322.4,2258,317.4,2258z"/>
	<path class="st1" d="M317.4,2255.5h-34.8c-5,0-9.1-4.1-9.1-9.1v-34.8c0-5,4.1-9.1,9.1-9.1h34.8c5,0,9.1,4.1,9.1,9.1v34.8
		C326.5,2251.4,322.4,2255.5,317.4,2255.5z"/>
	<rect x="310" y="2193.4" class="st1" width="4" height="13.7"/>
	<rect x="286" y="2193.4" class="st1" width="4" height="13.7"/>
	<rect x="304" y="2193.4" class="st1" width="4" height="13.7"/>
	<rect x="292" y="2193.4" class="st1" width="4" height="13.7"/>
	<rect x="298" y="2193.4" class="st1" width="4" height="13.7"/>
	<rect x="264.4" y="2239" class="st1" width="18.1" height="4"/>
	<rect x="264.4" y="2221" class="st1" width="18.1" height="4"/>
	<rect x="264.4" y="2233" class="st1" width="18.1" height="4"/>
	<rect x="264.4" y="2227" class="st1" width="18.1" height="4"/>
	<rect x="264.4" y="2215" class="st1" width="18.1" height="4"/>
	<rect x="286" y="2248.9" class="st1" width="4" height="15.7"/>
	<rect x="310" y="2248.9" class="st1" width="4" height="15.7"/>
	<rect x="292" y="2248.9" class="st1" width="4" height="15.7"/>
	<rect x="304" y="2248.9" class="st1" width="4" height="15.7"/>
	<rect x="298" y="2248.9" class="st1" width="4" height="15.7"/>
	<rect x="319.7" y="2233" class="st1" width="15.9" height="4"/>
	<rect x="319.7" y="2215" class="st1" width="15.9" height="4"/>
	<rect x="319.7" y="2227" class="st1" width="15.9" height="4"/>
	<rect x="319.7" y="2221" class="st1" width="15.9" height="4"/>
	<rect x="319.7" y="2239" class="st1" width="15.9" height="4"/>
	<path class="st5" d="M290.4,2239.5L290.4,2239.5c-2.3-2.3,10.2-14.9,11.5-16.1l10.9-10.9c3.4-3.4,7.2-5.1,8.5-3.8l0,0
		c1.3,1.3-0.5,5.1-3.8,8.5l-10.9,10.9C305.3,2229.2,292.8,2241.8,290.4,2239.5z"/>
	<g>
		<polygon class="st5" points="288.3,2241.6 277.3,2238.7 280.7,2235.3 293.1,2236.8 		"/>
		<polygon class="st5" points="288.3,2241.6 291.2,2252.6 294.6,2249.2 293.1,2236.8 		"/>
	</g>
	<g>
		<polygon class="st5" points="302,2227.9 279.5,2216.8 281.7,2214.6 310.4,2219.5 		"/>
		<polygon class="st5" points="302,2227.9 313.1,2250.4 315.3,2248.2 310.4,2219.5 		"/>
	</g>
	
		<rect x="286.7" y="2211.9" transform="matrix(0.7071 0.7071 -0.7071 0.7071 1650.2352 445.1261)" class="st5" width="2.2" height="5.4"/>
	
		<rect x="296" y="2213.2" transform="matrix(0.7071 0.7071 -0.7071 0.7071 1653.9507 438.9354)" class="st5" width="2.2" height="5.4"/>
	
		<rect x="314.2" y="2239.4" transform="matrix(-0.7071 -0.7071 0.7071 -0.7071 -1047.0999 4050.4824)" class="st5" width="2.2" height="5.4"/>
	
		<rect x="312.8" y="2230.1" transform="matrix(-0.7071 -0.7071 0.7071 -0.7071 -1042.8745 4033.5713)" class="st5" width="2.2" height="5.4"/>
</g>
<g id="Layer_2">
</g>
</svg>
