<?xml version="1.0" encoding="utf-8"?>
<!-- Generator: Adobe Illustrator 19.1.0, SVG Export Plug-In . SVG Version: 6.00 Build 0)  -->
<svg version="1.1" xmlns="http://www.w3.org/2000/svg" xmlns:xlink="http://www.w3.org/1999/xlink" x="0px" y="0px" width="100px"
	 height="100px" 
	 viewBox="499 448 100 100" style="enable-background:new 499 448 100 100;" xml:space="preserve">
<style type="text/css">
	.st0{fill:#19486F;}
	.st1{fill:#2E73B8;}
	.st2{fill:#1F5B98;}
	.st3{fill:#99BCE3;}
	.st4{fill:#5294CF;}
	.st5{fill:#FFFFFF;}
	.st6{fill:none;}
	.st7{enable-background:new    ;}
</style>
<g id="Layer_1">
	<rect x="511.5" y="502.3" class="st0" width="75" height="22.2"/>
	<rect x="511.5" y="471.5" class="st1" width="75" height="49.9"/>
	<path class="st5" d="M531.8,501L531.8,501c-2.7,0-4.8-2.2-4.8-4.8l0,0c0-2.7,2.2-4.8,4.8-4.8l0,0c2.7,0,4.8,2.2,4.8,4.8l0,0
		C536.7,498.8,534.5,501,531.8,501z"/>
	<polygon class="st5" points="555.2,501 542.7,501 548.9,491.3 	"/>
	<rect x="561.2" y="491.3" class="st5" width="9.7" height="9.7"/>
	<path class="st5" d="M549.8,471.5l0.2,1.6c0,0.3,0.3,0.4,0.5,0.4l1.8-0.2c0.4,1.1,0.9,2.2,1.6,3.1l-1.2,1.3c-0.2,0.2-0.2,0.5,0,0.7
		l2.3,2c0.2,0.2,0.5,0.2,0.7,0l1.2-1.3c1,0.6,2.1,1,3.2,1.3l-0.1,1.8c0,0.3,0.2,0.5,0.5,0.5l3,0.1c0.3,0,0.5-0.2,0.5-0.5l0.1-1.8
		c0.6-0.1,1.1-0.2,1.7-0.4c0.6-0.2,1.1-0.4,1.6-0.7l1.1,1.4c0.2,0.2,0.5,0.2,0.7,0.1l2.4-1.9c0.2-0.2,0.2-0.5,0.1-0.7l-1.1-1.4
		c0.8-0.9,1.4-1.9,1.8-2.9l1.7,0.4c0.3,0.1,0.5-0.1,0.6-0.4l0.5-2.5H549.8z"/>
	<path class="st5" d="M545.6,519.7l1.6-0.8c0.2-0.1,0.3-0.4,0.2-0.6l-1.4-2.7c-0.1-0.2-0.4-0.3-0.6-0.2l-1.6,0.9
		c-0.7-0.9-1.6-1.7-2.5-2.3l0.7-1.7c0.1-0.2,0-0.5-0.3-0.6l-2.8-1.1c-0.2-0.1-0.5,0-0.6,0.3l-0.7,1.7c-1.1-0.2-2.3-0.3-3.4-0.1
		l-0.6-1.8c-0.1-0.2-0.3-0.4-0.6-0.3l-2.9,0.9c-0.2,0.1-0.4,0.3-0.3,0.6l0.6,1.8c-1,0.6-1.9,1.3-2.7,2.1l-1.6-1
		c-0.2-0.1-0.5-0.1-0.7,0.1l-1.6,2.6c-0.1,0.2-0.1,0.5,0.1,0.7l1.5,1c-0.3,0.8-0.5,1.6-0.6,2.4h21.2
		C545.9,520.8,545.7,520.3,545.6,519.7z"/>
</g>
<g id="Layer_2">
</g>
</svg>
