<?xml version="1.0" encoding="utf-8"?>
<!-- Generator: Adobe Illustrator 19.1.0, SVG Export Plug-In . SVG Version: 6.00 Build 0)  -->
<svg version="1.1" xmlns="http://www.w3.org/2000/svg" xmlns:xlink="http://www.w3.org/1999/xlink" x="0px" y="0px" width="100px"
	 height="100px" 
	 viewBox="250 2323 100 100" style="enable-background:new 250 2323 100 100;" xml:space="preserve">
<style type="text/css">
	.st0{fill:#19486F;}
	.st1{fill:#2E73B8;}
	.st2{fill:#1F5B98;}
	.st3{fill:#99BCE3;}
	.st4{fill:#5294CF;}
	.st5{fill:#FFFFFF;}
	.st6{fill:none;}
	.st7{enable-background:new    ;}
</style>
<g id="Layer_1">
	<path class="st0" d="M317.4,2402h-34.8c-5,0-9.1-4.1-9.1-9.1v-34.8c0-5,4.1-9.1,9.1-9.1h34.8c5,0,9.1,4.1,9.1,9.1v34.8
		C326.5,2397.9,322.4,2402,317.4,2402z"/>
	<path class="st1" d="M317.4,2399.5h-34.8c-5,0-9.1-4.1-9.1-9.1v-34.8c0-5,4.1-9.1,9.1-9.1h34.8c5,0,9.1,4.1,9.1,9.1v34.8
		C326.5,2395.4,322.4,2399.5,317.4,2399.5z"/>
	<rect x="310" y="2337.4" class="st1" width="4" height="13.7"/>
	<rect x="286" y="2337.4" class="st1" width="4" height="13.7"/>
	<rect x="304" y="2337.4" class="st1" width="4" height="13.7"/>
	<rect x="292" y="2337.4" class="st1" width="4" height="13.7"/>
	<rect x="298" y="2337.4" class="st1" width="4" height="13.7"/>
	<rect x="264.4" y="2383" class="st1" width="18.1" height="4"/>
	<rect x="264.4" y="2365" class="st1" width="18.1" height="4"/>
	<rect x="264.4" y="2377" class="st1" width="18.1" height="4"/>
	<rect x="264.4" y="2371" class="st1" width="18.1" height="4"/>
	<rect x="264.4" y="2359" class="st1" width="18.1" height="4"/>
	<rect x="286" y="2392.9" class="st1" width="4" height="15.7"/>
	<rect x="310" y="2392.9" class="st1" width="4" height="15.7"/>
	<rect x="292" y="2392.9" class="st1" width="4" height="15.7"/>
	<rect x="304" y="2392.9" class="st1" width="4" height="15.7"/>
	<rect x="298" y="2392.9" class="st1" width="4" height="15.7"/>
	<rect x="319.7" y="2377" class="st1" width="15.9" height="4"/>
	<rect x="319.7" y="2359" class="st1" width="15.9" height="4"/>
	<rect x="319.7" y="2371" class="st1" width="15.9" height="4"/>
	<rect x="319.7" y="2365" class="st1" width="15.9" height="4"/>
	<rect x="319.7" y="2383" class="st1" width="15.9" height="4"/>
	<circle class="st5" cx="300" cy="2373.3" r="21.6"/>
	<g>
		<path class="st1" d="M295.9,2359.7c-0.7,0-1.3-0.4-1.4-1.1l-0.4-1.4c-0.2-0.8,0.3-1.6,1.1-1.8c0.8-0.2,1.6,0.3,1.8,1.1l0.4,1.4
			c0.2,0.8-0.3,1.6-1.1,1.8C296.2,2359.7,296.1,2359.7,295.9,2359.7z"/>
	</g>
	<g>
		<path class="st1" d="M304.1,2359.7c-0.1,0-0.3,0-0.4-0.1c-0.8-0.2-1.3-1-1.1-1.8l0.4-1.4c0.2-0.8,1-1.3,1.8-1.1
			c0.8,0.2,1.3,1,1.1,1.8l-0.4,1.4C305.3,2359.2,304.7,2359.7,304.1,2359.7z"/>
	</g>
	<g>
		<path class="st1" d="M311.1,2363.7c-0.4,0-0.8-0.1-1.1-0.4c-0.6-0.6-0.6-1.5,0-2.1l1-1c0.6-0.6,1.5-0.6,2.1,0
			c0.6,0.6,0.6,1.5,0,2.1l-1,1C311.8,2363.6,311.5,2363.7,311.1,2363.7z"/>
	</g>
	<g>
		<path class="st1" d="M288.9,2363.7c-0.4,0-0.8-0.1-1.1-0.4l-1-1c-0.6-0.6-0.6-1.5,0-2.1s1.5-0.6,2.1,0l1,1c0.6,0.6,0.6,1.5,0,2.1
			C289.7,2363.6,289.3,2363.7,288.9,2363.7z"/>
	</g>
	<circle class="st1" cx="300" cy="2386.2" r="4.7"/>
	<g>
		<path class="st1" d="M300,2387.7c-0.8,0-1.5-0.7-1.5-1.5v-21.9c0-0.8,0.7-1.5,1.5-1.5s1.5,0.7,1.5,1.5v21.9
			C301.5,2387,300.8,2387.7,300,2387.7z"/>
	</g>
	<g>
		<path class="st1" d="M297.3,2365.2h-1.7c-0.3,0-0.5-0.2-0.5-0.5s0.2-0.5,0.5-0.5h1.7c0.3,0,0.5,0.2,0.5,0.5
			S297.5,2365.2,297.3,2365.2z"/>
	</g>
	<g>
		<path class="st1" d="M297.3,2367.9h-3.1c-0.3,0-0.5-0.2-0.5-0.5s0.2-0.5,0.5-0.5h3.1c0.3,0,0.5,0.2,0.5,0.5
			S297.5,2367.9,297.3,2367.9z"/>
	</g>
	<g>
		<path class="st1" d="M297.3,2370.6h-1.7c-0.3,0-0.5-0.2-0.5-0.5s0.2-0.5,0.5-0.5h1.7c0.3,0,0.5,0.2,0.5,0.5
			S297.5,2370.6,297.3,2370.6z"/>
	</g>
	<g>
		<path class="st1" d="M297.3,2373.3h-3.1c-0.3,0-0.5-0.2-0.5-0.5s0.2-0.5,0.5-0.5h3.1c0.3,0,0.5,0.2,0.5,0.5
			S297.5,2373.3,297.3,2373.3z"/>
	</g>
	<g>
		<path class="st1" d="M297.3,2375.9h-1.7c-0.3,0-0.5-0.2-0.5-0.5s0.2-0.5,0.5-0.5h1.7c0.3,0,0.5,0.2,0.5,0.5
			S297.5,2375.9,297.3,2375.9z"/>
	</g>
	<g>
		<path class="st1" d="M297.3,2378.6h-3.1c-0.3,0-0.5-0.2-0.5-0.5s0.2-0.5,0.5-0.5h3.1c0.3,0,0.5,0.2,0.5,0.5
			S297.5,2378.6,297.3,2378.6z"/>
	</g>
	<g>
		<path class="st1" d="M297.3,2381.3h-1.7c-0.3,0-0.5-0.2-0.5-0.5s0.2-0.5,0.5-0.5h1.7c0.3,0,0.5,0.2,0.5,0.5
			S297.5,2381.3,297.3,2381.3z"/>
	</g>
</g>
<g id="Layer_2">
</g>
</svg>
