<?xml version="1.0" encoding="utf-8"?>
<!-- Generator: Adobe Illustrator 19.1.0, SVG Export Plug-In . SVG Version: 6.00 Build 0)  -->
<svg version="1.1" xmlns="http://www.w3.org/2000/svg" xmlns:xlink="http://www.w3.org/1999/xlink" x="0px" y="0px" width="100px"
	 height="100px" 
	 viewBox="499 1751 100 100" style="enable-background:new 499 1751 100 100;" xml:space="preserve">
<style type="text/css">
	.st0{fill:#19486F;}
	.st1{fill:#2E73B8;}
	.st2{fill:#1F5B98;}
	.st3{fill:#99BCE3;}
	.st4{fill:#5294CF;}
	.st5{fill:#FFFFFF;}
	.st6{fill:none;}
	.st7{enable-background:new    ;}
</style>
<g id="Layer_1">
	<path class="st0" d="M559.3,1764.3h-27.4c-4,0-7.2,2.4-7.2,5.7v3v36v3c0,3.3,3.2,6.3,7.2,6.3h0h15.6v-3h-0.1
		c0.5-7.3,6.5-13.2,14-13.2c1.9,0,3.7,0.4,5.3,1v-30.2v-3C566.7,1766.6,563.3,1764.3,559.3,1764.3z"/>
	<path class="st1" d="M559.3,1761.3h-27.4c-4,0-7.2,2.4-7.2,5.7v3v39c0,3.3,3.2,6.3,7.2,6.3h15.7c-0.1-0.7-0.2-1.4-0.2-2.1
		c0-7.8,6.3-14,14-14c1.9,0,3.7,0.4,5.3,1v-30.2v-3C566.7,1763.6,563.3,1761.3,559.3,1761.3z"/>
	<polygon class="st5" points="534.1,1801.4 531.3,1798.4 528.2,1801.5 528.2,1801.5 534.1,1807.3 543.9,1797.5 541.6,1795.2 	"/>
	<g class="st7">
		<path class="st3" d="M528.4,1782.6h3.4l3.7,3.5l3.9-3.5h3.2l-5.4,4.8l5.8,5.2h-3.5l-4.1-3.8l-4.2,3.8H528l5.8-5.2L528.4,1782.6z"
			/>
	</g>
	<g class="st7">
		<path class="st3" d="M528.4,1768.1h3.4l3.7,3.5l3.9-3.5h3.2l-5.4,4.8l5.8,5.2h-3.5l-4.1-3.8l-4.2,3.8H528l5.8-5.2L528.4,1768.1z"
			/>
	</g>
	<path class="st6" d="M555,1812.7C555,1812.7,555,1812.7,555,1812.7c-0.7,0-1.2,0.6-1.2,1.2c0,0.7,0.6,1.2,1.2,1.2c0,0,0,0,0,0
		c0.7,0,1.2-0.6,1.2-1.2C556.2,1813.2,555.7,1812.7,555,1812.7z"/>
	<path class="st0" d="M561.4,1829.8c-3.8,0-7.1-1.7-9.3-4.5v15.4l9.3-6.4l9.3,6.4v-15.4C568.5,1828.1,565.2,1829.8,561.4,1829.8z"/>
	<path class="st0" d="M561.4,1803.6c-6.6,0-11.9,5.3-11.9,11.9c0,2.8,1,5.4,2.6,7.4c2.2,2.7,5.5,4.5,9.3,4.5s7.1-1.7,9.3-4.5
		c1.6-2,2.6-4.6,2.6-7.4C573.3,1808.9,568,1803.6,561.4,1803.6z"/>
	<path class="st1" d="M561.4,1827.5c-3.8,0-7.1-1.7-9.3-4.5v15.4l9.3-6.4l9.3,6.4V1823C568.5,1825.8,565.2,1827.5,561.4,1827.5z"/>
	<path class="st1" d="M561.4,1801.3c-6.6,0-11.9,5.3-11.9,11.9c0,2.8,1,5.4,2.6,7.4c2.2,2.7,5.5,4.5,9.3,4.5s7.1-1.7,9.3-4.5
		c1.6-2,2.6-4.6,2.6-7.4C573.3,1806.6,568,1801.3,561.4,1801.3z"/>
	<path class="st5" d="M568.7,1812.2l-1.5,0.9l-0.6-0.1l-0.6-0.7l-1.7,0.2l-0.7-1.2l-2,0l-0.5,0c0,0-0.4-0.7-1-1.1
		c-0.8-0.6-1.7-0.9-2.7-0.9c-1,0-1.9,0.3-2.7,1c-1.8,1.5-2.1,4.2-0.6,6c0.1,0.1,0.2,0.3,0.3,0.4c0.8,0.8,1.9,1.2,3,1.2
		c1,0,1.9-0.3,2.7-1c0.2-0.2,0.4-0.4,0.6-0.6c0.2-0.2,0.3-0.4,0.4-0.7c0.1-0.3,0.2-0.5,0.2-0.5h8l0.8-1.4L568.7,1812.2z
		 M555.6,1814.6C555.6,1814.6,555.6,1814.6,555.6,1814.6c-0.6,0-1.1-0.5-1.1-1.1c0-0.6,0.5-1.1,1.1-1.1c0,0,0,0,0,0
		c0.6,0,1.1,0.5,1.1,1.1C556.7,1814.1,556.2,1814.6,555.6,1814.6z"/>
</g>
<g id="Layer_2">
</g>
</svg>
