<?xml version="1.0" encoding="utf-8"?>
<!-- Generator: Adobe Illustrator 19.1.0, SVG Export Plug-In . SVG Version: 6.00 Build 0)  -->
<svg version="1.1" xmlns="http://www.w3.org/2000/svg" xmlns:xlink="http://www.w3.org/1999/xlink" x="0px" y="0px" width="100px"
	 height="100px" 
	 viewBox="499 593.5 100 100" style="enable-background:new 499 593.5 100 100;" xml:space="preserve">
<style type="text/css">
	.st0{fill:#19486F;}
	.st1{fill:#2E73B8;}
	.st2{fill:#1F5B98;}
	.st3{fill:#99BCE3;}
	.st4{fill:#5294CF;}
	.st5{fill:#FFFFFF;}
	.st6{fill:none;}
	.st7{enable-background:new    ;}
</style>
<g id="Layer_1">
	<path class="st0" d="M559.8,617.2l-3.3,2.3l-1.7-3.7c-2.5-5.6-8.2-9.3-14.4-9.3c-4.2,0-8.2,1.6-11.1,4.6c-3,3-4.6,7-4.6,11.2
		l0.1,2.9l-2.5,0.7c-4,1.2-7.3,6.3-7.3,9.8v1.3c0,4.2,5.1,9.2,11.8,9.2h44.6c6.6,0,11.8-4.9,11.8-9.2v-1.3c0-4.3-4.8-9.9-10.3-10.4
		l-3-0.2l-0.1-3c-0.1-3.4-2.9-6.1-6.3-6.1C562.1,616.1,560.8,616.4,559.8,617.2z"/>
	<path class="st1" d="M559.8,614.2l-3.3,2.3l-1.7-3.7c-2.5-5.6-8.2-9.3-14.4-9.3c-4.2,0-8.2,1.6-11.1,4.6c-3,3-4.6,7-4.6,11.2
		l0.1,2.9l-2.5,0.7c-4,1.2-7.3,6.3-7.3,9.8v1.3c0,4.2,5.1,9.2,11.8,9.2h44.6c6.6,0,11.8-4.9,11.8-9.2v-1.3c0-4.3-4.8-9.9-10.3-10.4
		l-3-0.2l-0.1-3c-0.1-3.4-2.9-6.1-6.3-6.1C562.1,613.1,560.8,613.5,559.8,614.2z"/>
	<rect x="519.1" y="661.2" class="st0" width="58" height="22.2"/>
	<rect x="519.1" y="658.2" class="st1" width="58" height="22.2"/>
	<g>
		<rect x="546.6" y="631.3" class="st5" width="3" height="12"/>
	</g>
	<g>
		<rect x="546.6" y="643.3" class="st1" width="3" height="9.3"/>
	</g>
	<polygon class="st1" points="548.1,658.2 552.6,651.6 543.6,651.6 	"/>
	<path class="st5" d="M530.9,673.8L530.9,673.8c-2.7,0-4.8-2.2-4.8-4.8l0,0c0-2.7,2.2-4.8,4.8-4.8l0,0c2.7,0,4.8,2.2,4.8,4.8l0,0
		C535.7,671.7,533.6,673.8,530.9,673.8z"/>
	<polygon class="st5" points="554.2,673.8 541.7,673.8 548,664.2 	"/>
	<rect x="560.2" y="664.2" class="st5" width="9.7" height="9.7"/>
	<circle class="st5" cx="548" cy="631.3" r="3.8"/>
</g>
<g id="Layer_2">
</g>
</svg>
