<?xml version="1.0" encoding="utf-8"?>
<!-- Generator: Adobe Illustrator 19.1.0, SVG Export Plug-In . SVG Version: 6.00 Build 0)  -->
<svg version="1.1" xmlns="http://www.w3.org/2000/svg" xmlns:xlink="http://www.w3.org/1999/xlink" x="0px" y="0px" width="100px"
	 height="100px" 
	 viewBox="250 593.5 100 100" style="enable-background:new 250 593.5 100 100;" xml:space="preserve">
<style type="text/css">
	.st0{fill:#19486F;}
	.st1{fill:#2E73B8;}
	.st2{fill:#1F5B98;}
	.st3{fill:#99BCE3;}
	.st4{fill:#5294CF;}
	.st5{fill:#FFFFFF;}
	.st6{fill:none;}
	.st7{enable-background:new    ;}
</style>
<g id="Layer_1">
	<path class="st0" d="M317.4,672.4h-34.8c-5,0-9.1-4.1-9.1-9.1v-34.8c0-5,4.1-9.1,9.1-9.1h34.8c5,0,9.1,4.1,9.1,9.1v34.8
		C326.5,668.4,322.4,672.4,317.4,672.4z"/>
	<path class="st1" d="M317.4,670h-34.8c-5,0-9.1-4.1-9.1-9.1v-34.8c0-5,4.1-9.1,9.1-9.1h34.8c5,0,9.1,4.1,9.1,9.1v34.8
		C326.5,665.9,322.4,670,317.4,670z"/>
	<rect x="310" y="607.8" class="st1" width="4" height="13.7"/>
	<rect x="286" y="607.8" class="st1" width="4" height="13.7"/>
	<rect x="304" y="607.8" class="st1" width="4" height="13.7"/>
	<rect x="292" y="607.8" class="st1" width="4" height="13.7"/>
	<rect x="298" y="607.8" class="st1" width="4" height="13.7"/>
	<rect x="264.4" y="653.5" class="st1" width="18.1" height="4"/>
	<rect x="264.4" y="635.5" class="st1" width="18.1" height="4"/>
	<rect x="264.4" y="647.5" class="st1" width="18.1" height="4"/>
	<rect x="264.4" y="641.5" class="st1" width="18.1" height="4"/>
	<rect x="264.4" y="629.5" class="st1" width="18.1" height="4"/>
	<rect x="286" y="663.3" class="st1" width="4" height="15.7"/>
	<rect x="310" y="663.3" class="st1" width="4" height="15.7"/>
	<rect x="292" y="663.3" class="st1" width="4" height="15.7"/>
	<rect x="304" y="663.3" class="st1" width="4" height="15.7"/>
	<rect x="298" y="663.3" class="st1" width="4" height="15.7"/>
	<rect x="319.7" y="647.5" class="st1" width="15.9" height="4"/>
	<rect x="319.7" y="629.5" class="st1" width="15.9" height="4"/>
	<rect x="319.7" y="641.5" class="st1" width="15.9" height="4"/>
	<rect x="319.7" y="635.5" class="st1" width="15.9" height="4"/>
	<rect x="319.7" y="653.5" class="st1" width="15.9" height="4"/>
	<path class="st5" d="M313.2,637.4l-0.3-16.1c0-0.3-0.2-0.5-0.5-0.5h-3.8c-0.3,0-0.5,0.2-0.5,0.5l-0.2,14l-24.3-9.6
		c-0.7-0.3-1.4,0.2-1.4,0.9v38c0,0.6,0.4,1,1,1h33.7c0.6,0,1-0.4,1-1v-24.7c0-0.4-0.3-0.8-0.6-0.9L313.2,637.4z"/>
	<path class="st1" d="M301.9,652h-3.7c-0.3,0-0.5,0.2-0.5,0.5v11.2c0,0.3,0.2,0.5,0.5,0.5h3.7c0.3,0,0.5-0.2,0.5-0.5v-11.2
		C302.4,652.2,302.2,652,301.9,652z"/>
	<path class="st1" d="M292.4,652h-3.8c-0.3,0-0.5,0.2-0.5,0.5v4.5c0,0.3,0.2,0.5,0.5,0.5h3.8c0.3,0,0.5-0.2,0.5-0.5v-4.5
		C292.9,652.2,292.7,652,292.4,652z"/>
	<path class="st1" d="M311.6,652h-3.8c-0.3,0-0.5,0.2-0.5,0.5v4.5c0,0.3,0.2,0.5,0.5,0.5h3.8c0.3,0,0.5-0.2,0.5-0.5v-4.5
		C312.1,652.2,311.8,652,311.6,652z"/>
	<path class="st1" d="M292.4,642.5h-3.8c-0.3,0-0.5,0.2-0.5,0.5v4.5c0,0.3,0.2,0.5,0.5,0.5h3.8c0.3,0,0.5-0.2,0.5-0.5V643
		C292.9,642.8,292.7,642.5,292.4,642.5z"/>
	<path class="st1" d="M301.9,642.5h-3.8c-0.3,0-0.5,0.2-0.5,0.5v4.5c0,0.3,0.2,0.5,0.5,0.5h3.8c0.3,0,0.5-0.2,0.5-0.5V643
		C302.4,642.8,302.2,642.5,301.9,642.5z"/>
	<path class="st1" d="M311.6,642.5h-3.8c-0.3,0-0.5,0.2-0.5,0.5v4.5c0,0.3,0.2,0.5,0.5,0.5h3.8c0.3,0,0.5-0.2,0.5-0.5V643
		C312.1,642.8,311.8,642.5,311.6,642.5z"/>
</g>
<g id="Layer_2">
</g>
</svg>
