<?xml version="1.0" encoding="utf-8"?>
<!-- Generator: Adobe Illustrator 19.1.0, SVG Export Plug-In . SVG Version: 6.00 Build 0)  -->
<svg version="1.1" xmlns="http://www.w3.org/2000/svg" xmlns:xlink="http://www.w3.org/1999/xlink" x="0px" y="0px" width="100px"
	 height="100px" 
	 viewBox="250 448 100 100" style="enable-background:new 250 448 100 100;" xml:space="preserve">
<style type="text/css">
	.st0{fill:#19486F;}
	.st1{fill:#2E73B8;}
	.st2{fill:#1F5B98;}
	.st3{fill:#99BCE3;}
	.st4{fill:#5294CF;}
	.st5{fill:#FFFFFF;}
	.st6{fill:none;}
	.st7{enable-background:new    ;}
</style>
<g id="Layer_1">
	<path class="st0" d="M317.4,527h-34.8c-5,0-9.1-4.1-9.1-9.1v-34.8c0-5,4.1-9.1,9.1-9.1h34.8c5,0,9.1,4.1,9.1,9.1v34.8
		C326.5,522.9,322.4,527,317.4,527z"/>
	<path class="st1" d="M317.4,524.5h-34.8c-5,0-9.1-4.1-9.1-9.1v-34.8c0-5,4.1-9.1,9.1-9.1h34.8c5,0,9.1,4.1,9.1,9.1v34.8
		C326.5,520.4,322.4,524.5,317.4,524.5z"/>
	<rect x="310" y="462.4" class="st1" width="4" height="13.7"/>
	<rect x="286" y="462.4" class="st1" width="4" height="13.7"/>
	<rect x="304" y="462.4" class="st1" width="4" height="13.7"/>
	<rect x="292" y="462.4" class="st1" width="4" height="13.7"/>
	<rect x="298" y="462.4" class="st1" width="4" height="13.7"/>
	<rect x="264.4" y="508" class="st1" width="18.1" height="4"/>
	<rect x="264.4" y="490" class="st1" width="18.1" height="4"/>
	<rect x="264.4" y="502" class="st1" width="18.1" height="4"/>
	<rect x="264.4" y="496" class="st1" width="18.1" height="4"/>
	<rect x="264.4" y="484" class="st1" width="18.1" height="4"/>
	<rect x="286" y="517.9" class="st1" width="4" height="15.7"/>
	<rect x="310" y="517.9" class="st1" width="4" height="15.7"/>
	<rect x="292" y="517.9" class="st1" width="4" height="15.7"/>
	<rect x="304" y="517.9" class="st1" width="4" height="15.7"/>
	<rect x="298" y="517.9" class="st1" width="4" height="15.7"/>
	<rect x="319.7" y="502" class="st1" width="15.9" height="4"/>
	<rect x="319.7" y="484" class="st1" width="15.9" height="4"/>
	<rect x="319.7" y="496" class="st1" width="15.9" height="4"/>
	<rect x="319.7" y="490" class="st1" width="15.9" height="4"/>
	<rect x="319.7" y="508" class="st1" width="15.9" height="4"/>
	<path class="st5" d="M315.8,493.7h-31.6c-0.6,0-1,0.5-1,1v18.5c0,0.6,0.5,1,1,1h31.6c0.6,0,1-0.5,1-1v-18.5
		C316.9,494.1,316.4,493.7,315.8,493.7z"/>
	<path class="st1" d="M302.3,501.2h-4.4c-0.4,0-0.8,0.3-0.8,0.8v10.7c0,0.4,0.3,0.8,0.8,0.8h4.4c0.4,0,0.8-0.3,0.8-0.8V502
		C303,501.6,302.7,501.2,302.3,501.2z"/>
	<path class="st1" d="M292.7,501.2h-3.3c-0.4,0-0.8,0.3-0.8,0.8v4c0,0.4,0.3,0.8,0.8,0.8h3.3c0.4,0,0.8-0.3,0.8-0.8v-4
		C293.4,501.6,293.1,501.2,292.7,501.2z"/>
	<path class="st1" d="M310.7,501.2h-3.3c-0.4,0-0.8,0.3-0.8,0.8v4c0,0.4,0.3,0.8,0.8,0.8h3.3c0.4,0,0.8-0.3,0.8-0.8v-4
		C311.5,501.6,311.1,501.2,310.7,501.2z"/>
	<path class="st5" d="M300,480.1l-22.7,13.1v2.1c0,0.6,0.4,1,1,1h43.4c0.6,0,1-0.4,1-1v-2.1L300,480.1z"/>
</g>
<g id="Layer_2">
</g>
</svg>
