<?xml version="1.0" encoding="utf-8"?>
<!-- Generator: Adobe Illustrator 19.1.0, SVG Export Plug-In . SVG Version: 6.00 Build 0)  -->
<svg version="1.1" xmlns="http://www.w3.org/2000/svg" xmlns:xlink="http://www.w3.org/1999/xlink" x="0px" y="0px" width="100px"
	 height="100px" 
	 viewBox="250 2469 100 100" style="enable-background:new 250 2469 100 100;" xml:space="preserve">
<style type="text/css">
	.st0{fill:#19486F;}
	.st1{fill:#2E73B8;}
	.st2{fill:#1F5B98;}
	.st3{fill:#99BCE3;}
	.st4{fill:#5294CF;}
	.st5{fill:#FFFFFF;}
	.st6{fill:none;}
	.st7{enable-background:new    ;}
</style>
<g id="Layer_1">
	<path class="st0" d="M317.4,2548h-34.8c-5,0-9.1-4.1-9.1-9.1v-34.8c0-5,4.1-9.1,9.1-9.1h34.8c5,0,9.1,4.1,9.1,9.1v34.8
		C326.5,2543.9,322.4,2548,317.4,2548z"/>
	<path class="st1" d="M317.4,2545.5h-34.8c-5,0-9.1-4.1-9.1-9.1v-34.8c0-5,4.1-9.1,9.1-9.1h34.8c5,0,9.1,4.1,9.1,9.1v34.8
		C326.5,2541.4,322.4,2545.5,317.4,2545.5z"/>
	<rect x="310" y="2483.4" class="st1" width="4" height="13.7"/>
	<rect x="286" y="2483.4" class="st1" width="4" height="13.7"/>
	<rect x="304" y="2483.4" class="st1" width="4" height="13.7"/>
	<rect x="292" y="2483.4" class="st1" width="4" height="13.7"/>
	<rect x="298" y="2483.4" class="st1" width="4" height="13.7"/>
	<rect x="264.4" y="2529" class="st1" width="18.1" height="4"/>
	<rect x="264.4" y="2511" class="st1" width="18.1" height="4"/>
	<rect x="264.4" y="2523" class="st1" width="18.1" height="4"/>
	<rect x="264.4" y="2517" class="st1" width="18.1" height="4"/>
	<rect x="264.4" y="2505" class="st1" width="18.1" height="4"/>
	<rect x="286" y="2538.9" class="st1" width="4" height="15.7"/>
	<rect x="310" y="2538.9" class="st1" width="4" height="15.7"/>
	<rect x="292" y="2538.9" class="st1" width="4" height="15.7"/>
	<rect x="304" y="2538.9" class="st1" width="4" height="15.7"/>
	<rect x="298" y="2538.9" class="st1" width="4" height="15.7"/>
	<rect x="319.7" y="2523" class="st1" width="15.9" height="4"/>
	<rect x="319.7" y="2505" class="st1" width="15.9" height="4"/>
	<rect x="319.7" y="2517" class="st1" width="15.9" height="4"/>
	<rect x="319.7" y="2511" class="st1" width="15.9" height="4"/>
	<rect x="319.7" y="2529" class="st1" width="15.9" height="4"/>
	<g>
		<path class="st5" d="M312.3,2536.2h-24.5c-2.7,0-5-2.2-5-5v-24.5c0-2.7,2.2-5,5-5h24.5c2.7,0,5,2.2,5,5v24.5
			C317.2,2534,315,2536.2,312.3,2536.2z M287.7,2504.8c-1.1,0-2,0.9-2,2v24.5c0,1.1,0.9,2,2,2h24.5c1.1,0,2-0.9,2-2v-24.5
			c0-1.1-0.9-2-2-2H287.7z"/>
	</g>
	<polygon class="st5" points="309.2,2515.5 303.5,2515.5 303.5,2509.8 296.5,2509.8 296.5,2515.5 290.8,2515.5 290.8,2522.5 
		296.5,2522.5 296.5,2528.2 303.5,2528.2 303.5,2522.5 309.2,2522.5 	"/>
</g>
<g id="Layer_2">
</g>
</svg>
