<?xml version="1.0" encoding="utf-8"?>
<!-- Generator: Adobe Illustrator 19.1.0, SVG Export Plug-In . SVG Version: 6.00 Build 0)  -->
<svg version="1.1" xmlns="http://www.w3.org/2000/svg" xmlns:xlink="http://www.w3.org/1999/xlink" x="0px" y="0px" width="100px"
	 height="100px" 
	 viewBox="499 1467 100 100" style="enable-background:new 499 1467 100 100;" xml:space="preserve">
<style type="text/css">
	.st0{fill:#19486F;}
	.st1{fill:#2E73B8;}
	.st2{fill:#1F5B98;}
	.st3{fill:#99BCE3;}
	.st4{fill:#5294CF;}
	.st5{fill:#FFFFFF;}
	.st6{fill:none;}
	.st7{enable-background:new    ;}
</style>
<g id="Layer_1">
	<path class="st0" d="M576.7,1515.8v2.4c0,15.2-12.4,27.4-27.7,27.4c-15.3,0-27.6-12.3-27.6-27.4v-2.4H576.7z"/>
	<path class="st1" d="M549,1488.4c15.3,0,27.7,12.3,27.7,27.4c0,15.2-12.4,27.4-27.7,27.4c-15.3,0-27.6-12.3-27.6-27.4
		C521.3,1500.6,533.7,1488.4,549,1488.4z"/>
	<polygon class="st5" points="554.9,1511.5 544,1498 538.6,1502.3 550.5,1517 538.6,1531.7 544,1536 554.9,1522.5 559.4,1517 	"/>
</g>
<g id="Layer_2">
</g>
</svg>
