<svg id="api_connect_icon" xmlns="http://www.w3.org/2000/svg" viewBox="0 0 32 32"><style>.st1{fill:#fff}</style><circle cx="16" cy="16" r="15.9" fill="#4b68fa"/><ellipse transform="rotate(-17.661 14.533 22.065)" class="st1" cx="14.5" cy="22.1" rx=".7" ry=".7"/><path transform="rotate(152.031 12.94 19.086)" class="st1" d="M12.7 16h.5v6.2h-.5z"/><path transform="rotate(153.77 20.252 17.18)" class="st1" d="M20 13.3h.5v7.8H20z"/><path transform="rotate(-154.565 16.531 17.888)" class="st1" d="M16.3 13.5h.5v8.7h-.5z"/><ellipse transform="rotate(-3.784 6.089 20.373) scale(.99998)" class="st1" cx="6.1" cy="20.4" rx=".7" ry=".7"/><path transform="rotate(-3.784 5.89 17.357) scale(.99998)" class="st1" d="M5.6 14.3h.5v6.1h-.5z"/><ellipse transform="rotate(-38.316 10.074 25.415)" class="st1" cx="10.1" cy="25.4" rx=".7" ry=".7"/><path transform="rotate(-38.316 8.2 23.043)" class="st1" d="M8 20h.5v6.1H8z"/><ellipse transform="rotate(-81.355 18.283 26.666)" class="st1" cx="18.3" cy="26.7" rx=".7" ry=".7"/><path transform="rotate(-81.355 14.182 26.043)" class="st1" d="M13.9 22.2h.5v7.6h-.5z"/><ellipse transform="rotate(-62.433 8.635 8.27)" class="st1" cx="8.6" cy="8.3" rx=".7" ry=".7"/><path transform="rotate(27.567 7.062 11.282)" class="st1" d="M6.8 8.2h.5v6.1h-.5z"/><ellipse transform="rotate(-27.164 14.347 5.335)" class="st1" cx="14.3" cy="5.3" rx=".7" ry=".7"/><path transform="rotate(62.832 11.32 6.887)" class="st1" d="M11.1 3.8h.5v6.1h-.5z"/><path transform="rotate(104.725 17.273 6.11)" class="st1" d="M17 3.1h.5v6.1H17z"/><ellipse transform="rotate(-50.898 25.548 11.03)" class="st1" cx="25.5" cy="11" rx=".7" ry=".7"/><path transform="rotate(129.102 22.91 8.884)" class="st1" d="M22.7 5.8h.5v6.1h-.5z"/><ellipse transform="rotate(-7.068 26.337 17.402)" class="st1" cx="26.3" cy="17.4" rx=".7" ry=".7"/><path transform="rotate(172.932 25.918 14.03)" class="st1" d="M25.7 11h.5v6.1h-.5z"/><ellipse transform="rotate(-66.578 23.78 23.296)" class="st1" cx="23.8" cy="23.3" rx=".7" ry=".7"/><path transform="rotate(23.422 24.985 20.523)" class="st1" d="M24.7 17.5h.5v6.1h-.5z"/><path transform="rotate(51.663 24.28 19.028)" class="st1" d="M24 16.4h.5v5.2H24z"/><path transform="rotate(58.56 20.88 25.064)" class="st1" d="M20.6 22h.5v6.1h-.5z"/><path transform="rotate(-77.056 10.596 8.726)" class="st1" d="M10.3 7.1h.5v3.3h-.5z"/><path transform="rotate(52.728 8.79 11.561)" class="st1" d="M8.5 7.8H9v7.5h-.5z"/><path transform="rotate(31.45 13.208 7.207)" class="st1" d="M13 5.4h.5v3.7H13z"/><path transform="rotate(-126.92 12.382 23.681)" class="st1" d="M12.1 21.1h.5v5.1h-.5z"/><path transform="rotate(141.109 16.372 24.346)" class="st1" d="M16.1 21.5h.5v5.6h-.5z"/><path transform="rotate(-147.32 20.178 23.724)" class="st1" d="M19.9 20.5h.5v6.4h-.5z"/><path transform="rotate(144.106 22.964 22.14)" class="st1" d="M22.7 20.5h.5v3.3h-.5z"/><path transform="rotate(-78.492 10.151 21.192)" class="st1" d="M9.9 17.1h.5v8.2h-.5z"/><path transform="rotate(81.396 18.147 21.436)" class="st1" d="M17.9 17.8h.5v7.3h-.5z"/><path transform="rotate(53.08 8.723 18.374)" class="st1" d="M8.5 15.3H9v6.1h-.5z"/><ellipse transform="rotate(-3.801 5.655 13.976)" class="st1" cx="5.7" cy="14" rx=".7" ry=".7"/><path transform="rotate(76.22 16.338 8.002)" class="st1" d="M16.1 4h.5v8h-.5z"/><path transform="rotate(143 25.2 16.017)" class="st1" d="M25 14.2h.5v3.7H25z"/><path transform="rotate(-150 24.659 12.696)" class="st1" d="M24.4 10.9h.5v3.5h-.5z"/><ellipse transform="rotate(-37 22.035 20.824)" class="st1" cx="22" cy="20.8" rx=".7" ry=".7"/><path transform="rotate(155.844 22.122 10.547)" class="st1" d="M21.9 6.7h.5v7.8h-.5z"/><path transform="rotate(-164.796 22.978 17.47)" class="st1" d="M22.7 14.2h.5v6.5h-.5z"/><path transform="rotate(112.575 8.49 15.142)" class="st1" d="M8.2 12.2h.5v5.9h-.5z"/><ellipse transform="rotate(-67.425 5.663 13.966)" class="st1" cx="5.7" cy="14" rx=".7" ry=".7"/><path transform="matrix(.9964 .08439 -.08439 .9964 1.127 -.947)" class="st1" d="M11.5 9.5h.5v6.7h-.5z"/><ellipse transform="rotate(-17.674 12.076 9.064)" class="st1" cx="12.1" cy="9.1" rx=".7" ry=".7"/><path transform="rotate(126.534 15.145 11.338)" class="st1" d="M14.9 7.4h.5v7.9h-.5z"/><ellipse transform="rotate(-75.275 20.56 6.975)" class="st1" cx="20.6" cy="7" rx=".7" ry=".7"/><ellipse transform="rotate(-57.52 20.568 6.975)" class="st1" cx="20.6" cy="7" rx=".7" ry=".7"/><path transform="rotate(16.443 19.576 10.312)" class="st1" d="M19.3 6.6h.5V14h-.5z"/><path transform="rotate(95.918 21.295 14.012)" class="st1" d="M21 11.3h.5v5.5H21z"/><ellipse transform="rotate(-78.329 23.825 14.275)" class="st1" cx="23.8" cy="14.3" rx=".7" ry=".7"/><path transform="rotate(69.929 14.934 15.069)" class="st1" d="M14.7 11.2h.5v7.7h-.5z"/><ellipse transform="rotate(-80.102 11.485 16.33)" class="st1" cx="11.5" cy="16.3" rx=".7" ry=".7"/><ellipse transform="rotate(-78.329 18.553 13.728)" class="st1" cx="18.6" cy="13.7" rx=".7" ry=".7"/></svg>