<?xml version="1.0" encoding="utf-8"?>
<!-- Generator: Adobe Illustrator 25.0.0, SVG Export Plug-In . SVG Version: 6.00 Build 0)  -->
<svg version="1.1" id="data-virtualization" xmlns="http://www.w3.org/2000/svg" xmlns:xlink="http://www.w3.org/1999/xlink"
	 x="0px" y="0px" viewBox="0 0 32 32" style="enable-background:new 0 0 32 32;" xml:space="preserve">
<style type="text/css">
	.st0{filter:url(#Adobe_OpacityMaskFilter);}
	.st1{fill:#FFFFFF;}
	.st2{fill:url(#SVGID_1_);}
	.st3{fill:url(#SVGID_2_);}
	.st4{mask:url(#Color_1_);fill:url(#Color_2_);}
	.st5{fill:#001D6C;}
</style>
<g>
	<defs>
		<filter id="Adobe_OpacityMaskFilter" filterUnits="userSpaceOnUse" x="0" y="0" width="32" height="32">
			<feColorMatrix  type="matrix" values="1 0 0 0 0  0 1 0 0 0  0 0 1 0 0  0 0 0 1 0"/>
		</filter>
	</defs>
	<mask maskUnits="userSpaceOnUse" x="0" y="0" width="32" height="32" id="Color_1_">
		<g class="st0">
			<path class="st1" d="M24.8,9.1C23.9,5,20.3,2,16,2S8.1,5,7.2,9.1C4.2,9.7,2,12.4,2,15.5C2,19.1,4.9,22,8.5,22l3.5,0v-2l-3.5,0
				C6,20,4,18,4,15.5c0-2.3,1.8-4.3,4.1-4.5L9,11l0.1-0.8C9.5,6.6,12.5,4,16,4c3.5,0,6.5,2.6,6.9,6.1L23,11l0.8,0.1
				c2.3,0.2,4.1,2.2,4.1,4.5c0,2.5-2,4.5-4.5,4.5H20v2h3.5c3.6,0,6.5-2.9,6.5-6.5C30,12.4,27.8,9.7,24.8,9.1z"/>
			<g id="Gradients__x28_black_x29__4_">
				
					<linearGradient id="SVGID_1_" gradientUnits="userSpaceOnUse" x1="85.0004" y1="-27.4996" x2="93.0004" y2="-27.4996" gradientTransform="matrix(1 0 0 1 -80.0004 46.9996)">
					<stop  offset="6.597687e-04" style="stop-color:#000000;stop-opacity:0"/>
					<stop  offset="0.7" style="stop-color:#000000"/>
				</linearGradient>
				<rect x="5" y="16" class="st2" width="8" height="7"/>
			</g>
			<g id="Gradients__x28_black_x29__3_">
				
					<linearGradient id="SVGID_2_" gradientUnits="userSpaceOnUse" x1="-9.9996" y1="-115.3342" x2="-1.9996" y2="-115.3342" gradientTransform="matrix(-1 0 0 -1 17.0004 -95.8342)">
					<stop  offset="6.597687e-04" style="stop-color:#000000;stop-opacity:0"/>
					<stop  offset="0.7" style="stop-color:#000000"/>
				</linearGradient>
				<polygon class="st3" points="27,16 19,16 19,23 27,23 				"/>
			</g>
		</g>
	</mask>
	<linearGradient id="Color_2_" gradientUnits="userSpaceOnUse" x1="0" y1="32" x2="32" y2="1.421085e-14">
		<stop  offset="0.1" style="stop-color:#08BDBA"/>
		<stop  offset="0.9" style="stop-color:#0F62FE"/>
	</linearGradient>
	<rect id="Color_87_" class="st4" width="32" height="32"/>
	<path class="st5" d="M22,24c-0.2,0-0.3,0-0.5,0L18.2,18c0.5-0.5,0.8-1.2,0.8-2c0-1.7-1.3-3-3-3s-3,1.3-3,3c0,0.8,0.3,1.5,0.8,2
		L10.5,24c-0.2,0-0.3,0-0.5,0c-1.7,0-3,1.3-3,3s1.3,3,3,3s3-1.3,3-3c0-0.8-0.3-1.5-0.8-2l3.3-6.1c0.2,0,0.3,0,0.5,0s0.3,0,0.5,0
		l3.3,6.1c-0.5,0.5-0.8,1.2-0.8,2c0,1.7,1.3,3,3,3s3-1.3,3-3S23.7,24,22,24z M16,15c0.6,0,1,0.4,1,1s-0.4,1-1,1s-1-0.4-1-1
		S15.4,15,16,15z M10,28c-0.6,0-1-0.4-1-1s0.4-1,1-1s1,0.4,1,1S10.6,28,10,28z M22,28c-0.6,0-1-0.4-1-1s0.4-1,1-1s1,0.4,1,1
		S22.6,28,22,28z"/>
</g>
</svg>
