<svg id="CloudHyperProtectDBaaS" xmlns="http://www.w3.org/2000/svg" xmlns:xlink="http://www.w3.org/1999/xlink" viewBox="0 0 32 32"><defs><linearGradient id="jqe1k80nya" x1="73.5" y1="-22.5" x2="88.5" y2="-22.5" gradientTransform="translate(-66.5 49.5)" gradientUnits="userSpaceOnUse"><stop offset=".2" stop-opacity="0"/><stop offset=".75"/></linearGradient><linearGradient id="78gu0dey8b" x1="73.5" y1="-30.5" x2="88.5" y2="-30.5" xlink:href="#jqe1k80nya"/><linearGradient id="4t5xjfcmgd" y1="32" x2="32" gradientUnits="userSpaceOnUse"><stop offset=".1" stop-color="#0f62fe"/><stop offset=".9" stop-color="#1192e8"/></linearGradient><mask id="14qhvyz93c" x="0" y="0" width="32" height="32" maskUnits="userSpaceOnUse"><path d="M23 2H7a2 2 0 0 0-2 2v22a2 2 0 0 0 2 2h14v-2H7v-6h14v-2H7v-6h16v3h2V4a2 2 0 0 0-2-2zM7 4h16v6H7z" style="fill:#fff"/><path style="fill:url(#jqe1k80nya)" d="M7 25h15v4H7z" id="Gradients_black_" data-name="Gradients (black)"/><path style="fill:url(#78gu0dey8b)" d="M7 17h15v4H7z" id="Gradients_black_2" data-name="Gradients (black)"/></mask></defs><g style="mask:url(#14qhvyz93c)"><path id="Color" style="fill:url(#4t5xjfcmgd)" d="M0 0h32v32H0z"/></g><circle cx="10" cy="23" r="1" style="fill:#001d6c"/><circle cx="10" cy="15" r="1" style="fill:#001d6c"/><circle cx="10" cy="7" r="1" style="fill:#001d6c"/><path d="m24 30-2.139-1.013A5.021 5.021 0 0 1 19 24.468V18h10v6.468a5.021 5.021 0 0 1-2.861 4.519zm-3-10v4.468a3.012 3.012 0 0 0 1.717 2.711l1.283.607 1.283-.607A3.012 3.012 0 0 0 27 24.468V20z" style="fill:#001d6c"/></svg>
