<?xml version="1.0" encoding="utf-8"?>
<!-- Generator: Adobe Illustrator 24.2.1, SVG Export Plug-In . SVG Version: 6.00 Build 0)  -->
<svg version="1.1" id="Cloud-MySQL_light_theme_icon"
     xmlns="http://www.w3.org/2000/svg" xmlns:xlink="http://www.w3.org/1999/xlink" x="0px" y="0px" viewBox="0 0 32 32"
     style="enable-background:new 0 0 32 32;" xml:space="preserve">
<style type="text/css">
    .st0{fill:url(#SVGID_1_);}
</style>
<linearGradient id="SVGID_1_" gradientUnits="userSpaceOnUse" x1="0.5391" y1="2.6609" x2="31.2591" y2="33.521" gradientTransform="matrix(1 0 0 -1 0 34)">
    <stop  offset="0.1" style="stop-color:#FA4D56"/>
    <stop  offset="0.9" style="stop-color:#0F62FE"/>
</linearGradient>
<path class="st0" d="M14.2,13.5L14.2,13.5L13,15.8l-3.1,5.7l-3.1-5.7l-1.2-2.5H5.5V24H2.2V8h3.7l3.9,7.5l0,0L13.8,8h3.7v16h-3.3
    V13.5z M28.2,11.9h3.2l-4.6,13.9c-0.2,0.8-0.7,1.5-1.3,2.1c-0.7,0.5-1.6,0.7-2.4,0.7H21V26h2.3l0.4-1.3L19.5,12h3.3l1.8,5.6l0.9,3.5
    h0.1l0.9-3.5L28.2,11.9z"/>
</svg>
