<svg width="32" height="32" xmlns="http://www.w3.org/2000/svg"><g fill="#9855D4" fill-rule="evenodd"><path d="M31.36 32H8.31a.64.64 0 0 1-.64-.64V16.004h1.28V30.72h21.77V8.818H16v-1.28h15.36a.64.64 0 0 1 .64.64V31.36a.64.64 0 0 1-.64.64"/><path d="M31.36 32a.64.64 0 0 1-.54-.296l-5.013-7.877-4.06 2.343a.634.634 0 0 1-.487.064.646.646 0 0 1-.39-.3l-4.56-8-7.686 4.34a.643.643 0 0 1-.872-.24.642.642 0 0 1 .242-.874l8.242-4.656a.644.644 0 0 1 .87.24l4.56 7.996 4.032-2.326a.638.638 0 0 1 .86.21l5.342 8.392a.642.642 0 0 1-.541.984m-7.636-19.768c-.676 0-1.225.55-1.225 1.225s.55 1.225 1.225 1.225c.676 0 1.226-.55 1.226-1.225 0-.674-.55-1.225-1.227-1.225m0 3.73a2.508 2.508 0 0 1-2.505-2.505 2.509 2.509 0 0 1 2.505-2.505 2.508 2.508 0 0 1 2.506 2.505 2.508 2.508 0 0 1-2.507 2.505M8.32 1.28c-3.88 0-7.04 3.16-7.04 7.04 0 3.884 3.16 7.043 7.04 7.043 3.884 0 7.043-3.16 7.043-7.042 0-3.88-3.16-7.04-7.042-7.04m0 15.363C3.735 16.643 0 12.91 0 8.32 0 3.733 3.734 0 8.32 0c4.59 0 8.323 3.732 8.323 8.32 0 4.59-3.734 8.323-8.322 8.323"/><path d="M15.77 7.167H8.323a.639.639 0 0 1-.64-.64v-2.48a.64.64 0 0 1 .64-.64h6.19a.64.64 0 0 1 0 1.28h-5.55v1.2h6.81a.64.64 0 0 1 0 1.28m-.953 5.887H4.484a.64.64 0 0 1-.64-.64v-2.48a.64.64 0 0 1 .64-.64H15.77c.356 0 .64.287.64.64 0 .355-.284.64-.64.64H5.124v1.2h9.698a.64.64 0 1 1 0 1.28"/></g></svg>