<?xml version="1.0" encoding="utf-8"?>
<!-- Generator: Adobe Illustrator 19.1.0, SVG Export Plug-In . SVG Version: 6.00 Build 0)  -->
<svg version="1.1" xmlns="http://www.w3.org/2000/svg" xmlns:xlink="http://www.w3.org/1999/xlink" x="0px" y="0px" width="100px"
	 height="100px" 
	 viewBox="0 0 100 100" style="enable-background:new 0 0 100 100;" xml:space="preserve">
<style type="text/css">
	.st0{fill:#FFFFFF;}
	.st1{fill:#444444;}
	.st2{fill:#205E00;}
	.st3{fill:#96BF3D;}
	.st4{fill:#737373;}
	.st5{fill:#115193;}
	.st6{fill:#342074;}
	.st7{fill:#33385A;}
	.st8{fill:#53B1CB;}
	.st9{fill:#4F0F87;}
	.st10{fill:#8CC64F;}
	.st11{fill:#AE1F23;}
	.st12{fill:#5A69A4;}
	.st13{fill:#FFD44F;}
	.st14{fill:#EE472A;}
	.st15{fill:#CFCFCF;}
</style>
<g id="Layer_1">
	<g>
		<polygon class="st8" points="54.6,74.8 81.3,59.7 81.3,29.5 54.6,44.6 		"/>
		<polygon class="st8" points="28,59.6 54.6,74.8 54.6,44.6 28,29.5 		"/>
		<polygon class="st8" points="81.2,29.4 54.6,14.4 28,29.4 54.6,44.5 		"/>
		<polygon class="st0" points="54.6,43.4 79.2,29.5 79.2,29.4 54.6,43.4 		"/>
		<polygon class="st0" points="30.1,29.4 30,29.5 54.6,43.4 54.6,43.4 		"/>
		<rect x="54.6" y="43.4" class="st0" width="0" height="0"/>
		<path class="st0" d="M81.2,28.3L54.6,13.2L28,28.3l-1,0.6V30v30.2l26.6,15.1l1,0.6l1-0.6l26.6-15.1V30v-1.2L81.2,28.3z M80.3,59.1
			l-24.6,14V45.1l24.6-14V59.1z M53.6,73.1L29,59.1V31.2l24.6,14V73.1z M30.1,29.4l24.6-13.9l24.6,13.9l0,0L54.6,43.4l0,0l0,0
			L30.1,29.4L30.1,29.4z"/>
	</g>
	<g>
		<polygon class="st0" points="33.9,84.2 49.2,75.5 49.2,58.2 33.9,66.9 		"/>
		<polygon class="st0" points="18.5,75.5 33.9,84.3 33.9,66.8 18.5,58.1 		"/>
		<polygon class="st0" points="49.1,58.1 33.8,49.5 18.6,58.1 33.8,66.8 		"/>
		<polygon class="st0" points="33.8,66 47.7,58.1 47.6,58.1 33.8,66 		"/>
		<polygon class="st0" points="20,58.1 20,58.1 33.8,66 33.8,66 		"/>
		<rect x="33.8" y="66" class="st0" width="0" height="0"/>
		<path class="st1" d="M49.2,57.3l-15.3-8.7l-15.3,8.7l-0.8,0.4v0.9V76l15.3,8.7l0.8,0.4l0.8-0.4L49.9,76V58.6v-0.9L49.2,57.3z
			 M48.4,75.1L34.6,83V67.3l13.8-7.8V75.1z M33.1,83l-13.8-7.9V59.4l13.8,7.8V83z M20,58.1l13.8-7.8l13.8,7.8l0,0L33.8,66l0,0l0,0
			L20,58.1L20,58.1z"/>
	</g>
	<g>
		<polygon class="st9" points="50.2,85.7 59,80.7 59,70.7 50.2,75.7 		"/>
		<polygon class="st9" points="41.1,80.7 49.9,85.7 49.9,75.7 41.1,70.7 		"/>
		<polygon class="st9" points="58.8,70.5 50.1,65.5 41.3,70.5 50.1,75.4 		"/>
		<polygon class="st0" points="50.1,74.7 57.6,70.5 57.6,70.5 50.1,74.7 		"/>
		<polygon class="st0" points="42.5,70.5 42.5,70.5 50.1,74.7 50.1,74.7 		"/>
		<rect x="50.1" y="74.7" class="st0" width="0" height="0"/>
		<path class="st0" d="M59.2,69.6l-9.1-5.1L41,69.6L40.3,70v0.9v10.3l9.1,5.2l0.8,0.4l0.7-0.4l9.1-5.2V70.9V70L59.2,69.6z
			 M58.4,80.3l-7.6,4.3V76l7.6-4.3V80.3z M41.8,71.7l7.6,4.3v8.6l-7.6-4.3V71.7z M42.5,70.5l7.5-4.3l7.5,4.3l0,0l-7.6,4.3l0,0h0
			L42.5,70.5L42.5,70.5z"/>
	</g>
</g>
<g id="Layer_2">
</g>
</svg>
