<?xml version="1.0" encoding="utf-8"?>
<!-- Generator: Adobe Illustrator 19.1.0, SVG Export Plug-In . SVG Version: 6.00 Build 0)  -->
<svg version="1.1" id="Layer_1" xmlns="http://www.w3.org/2000/svg" xmlns:xlink="http://www.w3.org/1999/xlink" x="0px" y="0px"
	 viewBox="0 0 100 100" style="enable-background:new 0 0 100 100;" xml:space="preserve">
<style type="text/css">
	.st0{fill:#FFFFFF;}
	.st1{fill:#444444;}
	.st2{fill:#4090D7;}
	.st3{fill:#96BF3D;}
</style>
<polygon class="st0" points="50,86 81.7,68 81.7,32 50,50 "/>
<polygon class="st0" points="18.3,67.9 50,85.9 50,50 18.3,32 "/>
<polygon class="st0" points="81.5,32 50,14.1 18.5,32 50,49.9 "/>
<polygon class="st0" points="50,48.8 79.7,32 79.6,32 50,48.8 "/>
<polygon class="st0" points="20.4,32 20.3,32 50,48.8 50,48.8 "/>
<rect x="50" y="48.8" class="st0" width="0" height="0"/>
<path class="st1" d="M81.7,30.8L50,12.9L18.3,30.8l-1,0.6v1.2v36l31.7,18l1,0.6l1-0.6l31.7-18v-36v-1.2L81.7,30.8z M80.7,67.4
	L51,84.2V50.5l29.7-16.8V67.4z M49,84.2L19.3,67.4V33.7L49,50.5V84.2z M20.4,32L50,15.2L79.6,32l0,0L50,48.8l0,0l0,0L20.4,32
	L20.4,32z"/>
<polygon class="st2" points="50.1,69.4 67.2,59.7 67.2,40.4 50.1,50.1 "/>
<polygon class="st2" points="32.8,59.7 49.9,69.4 49.9,50.1 32.8,40.4 "/>
<polygon class="st2" points="67,40.2 50,30.5 33,40.2 50,49.8 "/>
<polygon class="st3" points="50,48.8 65.3,40.2 65.3,40.2 50,48.8 "/>
<polygon class="st3" points="34.7,40.2 34.7,40.2 50,48.8 50,48.8 "/>
<rect x="50" y="48.8" class="st3" width="0" height="0"/>
<path class="st0" d="M67.3,39L50,29.2L32.7,39l-1,0.6v1.2v19.6L49,70.2l1,0.6l1-0.6l17.3-9.8V40.7v-1.2L67.3,39z M66.3,59.2L51,67.9
	V50.6l15.3-8.7V59.2z M49,67.9l-15.3-8.7V41.9L49,50.6V67.9z M34.7,40.2L50,31.5l15.3,8.6l0,0L50,48.8l0,0l0,0L34.7,40.2L34.7,40.2z
	"/>
</svg>
