<?xml version="1.0" encoding="utf-8"?>
<!-- Generator: Adobe Illustrator 17.0.1, SVG Export Plug-In . SVG Version: 6.00 Build 0)  -->
<!DOCTYPE svg PUBLIC "-//W3C//DTD SVG 1.1//EN" "http://www.w3.org/Graphics/SVG/1.1/DTD/svg11.dtd">
<svg version="1.1" id="Layer_1" xmlns="http://www.w3.org/2000/svg" xmlns:xlink="http://www.w3.org/1999/xlink" x="0px" y="0px"
	 width="21px" height="21px" viewBox="0 0 21 21" enable-background="new 0 0 21 21" xml:space="preserve">
<rect x="6.824" opacity="0.4" fill="#FFFFFF" width="4.244" height="4.198"/>
<rect x="11.777" opacity="0.4" fill="#FFFFFF" width="4.257" height="4.198"/>
<rect x="16.756" opacity="0.4" fill="#FFFFFF" width="4.244" height="4.198"/>
<rect x="16.756" y="4.966" opacity="0.4" fill="#FFFFFF" width="4.244" height="4.198"/>
<rect x="16.756" y="9.933" opacity="0.4" fill="#FFFFFF" width="4.244" height="4.257"/>
<path fill="#FFFFFF" d="M1.567,20.511c-0.416,0-0.808-0.162-1.103-0.454C0.167,19.763,0.002,19.37,0,18.951
	c-0.002-0.419,0.159-0.813,0.454-1.11l3.788-3.824c-0.64-1.194-0.817-2.564-0.496-3.876C4.351,7.694,6.53,5.985,9.044,5.985
	c0.437,0,0.877,0.054,1.309,0.159c1.415,0.349,2.611,1.228,3.365,2.476c0.754,1.248,0.978,2.716,0.628,4.131
	c-0.602,2.445-2.78,4.152-5.298,4.152c-0.44,0-0.88-0.054-1.307-0.159c-0.447-0.11-0.88-0.278-1.292-0.502l-3.768,3.804
	C2.383,20.346,1.988,20.511,1.567,20.511 M9.044,8.053c-1.561,0-2.913,1.062-3.29,2.583c-0.227,0.927-0.045,1.918,0.498,2.715
	c0.236,0.347,0.53,0.644,0.873,0.882c0.343,0.237,0.717,0.407,1.11,0.504c0.265,0.066,0.539,0.098,0.812,0.098
	c1.563,0,2.916-1.06,3.29-2.579c0.217-0.878,0.079-1.79-0.39-2.566c-0.468-0.775-1.21-1.321-2.088-1.538
	C9.59,8.086,9.316,8.053,9.044,8.053"/>
<path opacity="0.4" fill="#FFFFFF" d="M10.518,5.664c0.187,0.046,0.37,0.101,0.55,0.164V4.966H6.824v0.989
	C7.53,5.658,8.301,5.492,9.106,5.492C9.578,5.492,10.053,5.55,10.518,5.664"/>
<path opacity="0.4" fill="#FFFFFF" d="M14.148,8.335c0.161,0.267,0.294,0.546,0.41,0.829h1.477V4.966h-4.257v1.171
	C12.749,6.629,13.569,7.379,14.148,8.335"/>
<path opacity="0.4" fill="#FFFFFF" d="M14.826,12.792c-0.122,0.496-0.305,0.964-0.538,1.397h1.747V9.932h-1.215
	C15.055,10.86,15.061,11.837,14.826,12.792"/>
<path opacity="0.4" fill="#FFFFFF" d="M11.997,11.438c0,1.603-1.301,2.903-2.903,2.903c-1.604,0-2.903-1.299-2.903-2.903
	c0-1.603,1.3-2.903,2.903-2.903C10.696,8.535,11.997,9.834,11.997,11.438"/>
</svg>
