<?xml version="1.0" encoding="utf-8"?>
<!-- Generator: Adobe Illustrator 17.0.1, SVG Export Plug-In . SVG Version: 6.00 Build 0)  -->
<!DOCTYPE svg PUBLIC "-//W3C//DTD SVG 1.1//EN" "http://www.w3.org/Graphics/SVG/1.1/DTD/svg11.dtd">
<svg version="1.1" id="Layer_1" xmlns="http://www.w3.org/2000/svg" xmlns:xlink="http://www.w3.org/1999/xlink" x="0px" y="0px"
	 width="30px" height="21px" viewBox="-0.5 0 30 21" enable-background="new -0.5 0 30 21" xml:space="preserve">
<path fill="#FFFFFF" d="M29.5,16.517c0-1.918-1.554-3.473-3.472-3.473c-0.144,0-0.286,0.012-0.425,0.029
	c0.213-0.78,0.33-1.6,0.33-2.447c0-5.114-4.145-9.258-9.258-9.258c-4.085,0-7.548,2.646-8.777,6.316
	c-0.65-0.224-1.344-0.352-2.069-0.352c-3.496,0-6.329,2.834-6.329,6.329c0,3.496,2.833,6.33,6.329,6.33
	c0.003,0,0.006-0.001,0.008-0.001v0.001h20.475l-0.005-0.015C28.095,19.833,29.5,18.341,29.5,16.517z"/>
</svg>
