<?xml version="1.0" encoding="UTF-8" standalone="no"?>
<svg width="16px" height="16px" viewBox="0 0 16 16" version="1.1" xmlns="http://www.w3.org/2000/svg" xmlns:xlink="http://www.w3.org/1999/xlink">
    <defs></defs>
    <g stroke="none" stroke-width="1" fill="none" fill-rule="evenodd">
        <g fill="#4A4A4A">
            <path d="M8,0 C8.73437867,0 9.44270492,0.0950511328 10.125,0.28515625 C10.8072951,0.475261367 11.4453095,0.743487852 12.0390625,1.08984375 C12.6328155,1.43619965 13.1731746,1.85286215 13.6601562,2.33984375 C14.1471379,2.82682535 14.5638004,3.36718453 14.9101562,3.9609375 C15.2565121,4.55469047 15.5247386,5.19270492 15.7148438,5.875 C15.9049489,6.55729508 16,7.26562133 16,8 C16,8.73437867 15.9049489,9.44270492 15.7148438,10.125 C15.5247386,10.8072951 15.2565121,11.4453095 14.9101562,12.0390625 C14.5638004,12.6328155 14.1471379,13.1731746 13.6601562,13.6601562 C13.1731746,14.1471379 12.6328155,14.5638004 12.0390625,14.9101562 C11.4453095,15.2565121 10.8072951,15.5247386 10.125,15.7148438 C9.44270492,15.9049489 8.73437867,16 8,16 C7.26562133,16 6.55729508,15.9049489 5.875,15.7148438 C5.19270492,15.5247386 4.55469047,15.2565121 3.9609375,14.9101562 C3.36718453,14.5638004 2.82682535,14.1471379 2.33984375,13.6601562 C1.85286215,13.1731746 1.43619965,12.6328155 1.08984375,12.0390625 C0.743487852,11.4453095 0.475261367,10.8085971 0.28515625,10.1289062 C0.0950511328,9.44921535 0,8.73958703 0,8 C0,7.26562133 0.0950511328,6.55729508 0.28515625,5.875 C0.475261367,5.19270492 0.743487852,4.55469047 1.08984375,3.9609375 C1.43619965,3.36718453 1.85286215,2.82682535 2.33984375,2.33984375 C2.82682535,1.85286215 3.36718453,1.43619965 3.9609375,1.08984375 C4.55469047,0.743487852 5.19140285,0.475261367 5.87109375,0.28515625 C6.55078465,0.0950511328 7.26041297,0 8,0 L8,0 Z M14.3203125,5 C14.1223948,4.57812289 13.8828139,4.18099145 13.6015625,3.80859375 C13.3203111,3.43619605 13.0078142,3.0963557 12.6640625,2.7890625 C12.3203108,2.4817693 11.9479187,2.20833453 11.546875,1.96875 C11.1458313,1.72916547 10.7265647,1.53385492 10.2890625,1.3828125 C10.4765634,1.64323047 10.6458326,1.91926938 10.796875,2.2109375 C10.9479174,2.50260563 11.0820307,2.80338387 11.1992188,3.11328125 C11.3164068,3.42317863 11.4166663,3.73697758 11.5,4.0546875 C11.5833337,4.37239742 11.6562497,4.68749844 11.71875,5 L14.3203125,5 Z M15,8 C15,7.3072882 14.9036468,6.6406282 14.7109375,6 L11.875,6 C11.9166669,6.333335 11.9479166,6.66536293 11.96875,6.99609375 C11.9895834,7.32682457 12,7.66145664 12,8 C12,8.33854336 11.9895834,8.67317543 11.96875,9.00390625 C11.9479166,9.33463707 11.9166669,9.666665 11.875,10 L14.7109375,10 C14.9036468,9.3593718 15,8.6927118 15,8 L15,8 Z M8,15 C8.25520961,15 8.49348848,14.9296882 8.71484375,14.7890625 C8.93619902,14.6484368 9.14062406,14.4635428 9.328125,14.234375 C9.51562594,14.0052072 9.68359301,13.7460952 9.83203125,13.4570312 C9.98046949,13.1679673 10.1119786,12.8750015 10.2265625,12.578125 C10.3411464,12.2812485 10.4374996,11.994793 10.515625,11.71875 C10.5937504,11.442707 10.6536456,11.203126 10.6953125,11 L5.3046875,11 C5.34635438,11.203126 5.40624961,11.442707 5.484375,11.71875 C5.56250039,11.994793 5.65885359,12.2812485 5.7734375,12.578125 C5.88802141,12.8750015 6.01953051,13.1679673 6.16796875,13.4570312 C6.31640699,13.7460952 6.48437406,14.0052072 6.671875,14.234375 C6.85937594,14.4635428 7.06380098,14.6484368 7.28515625,14.7890625 C7.50651152,14.9296882 7.74479039,15 8,15 L8,15 Z M10.8671875,10 C10.9088544,9.666665 10.9414061,9.33463707 10.9648438,9.00390625 C10.9882814,8.67317543 11,8.33854336 11,8 C11,7.66145664 10.9882814,7.32682457 10.9648438,6.99609375 C10.9414061,6.66536293 10.9088544,6.333335 10.8671875,6 L5.1328125,6 C5.09114562,6.333335 5.05859387,6.66536293 5.03515625,6.99609375 C5.01171863,7.32682457 5,7.66145664 5,8 C5,8.33854336 5.01171863,8.67317543 5.03515625,9.00390625 C5.05859387,9.33463707 5.09114562,9.666665 5.1328125,10 L10.8671875,10 Z M1,8 C1,8.6927118 1.0963532,9.3593718 1.2890625,10 L4.125,10 C4.08333313,9.666665 4.05208344,9.33463707 4.03125,9.00390625 C4.01041656,8.67317543 4,8.33854336 4,8 C4,7.66145664 4.01041656,7.32682457 4.03125,6.99609375 C4.05208344,6.66536293 4.08333313,6.333335 4.125,6 L1.2890625,6 C1.0963532,6.6406282 1,7.3072882 1,8 L1,8 Z M8,1 C7.74479039,1 7.50651152,1.0703118 7.28515625,1.2109375 C7.06380098,1.3515632 6.85937594,1.53645719 6.671875,1.765625 C6.48437406,1.99479281 6.31640699,2.2539048 6.16796875,2.54296875 C6.01953051,2.8320327 5.88802141,3.12499852 5.7734375,3.421875 C5.65885359,3.71875148 5.56250039,4.00520695 5.484375,4.28125 C5.40624961,4.55729305 5.34635438,4.79687398 5.3046875,5 L10.6953125,5 C10.6536456,4.79687398 10.5937504,4.55729305 10.515625,4.28125 C10.4374996,4.00520695 10.3411464,3.71875148 10.2265625,3.421875 C10.1119786,3.12499852 9.98046949,2.8320327 9.83203125,2.54296875 C9.68359301,2.2539048 9.51562594,1.99479281 9.328125,1.765625 C9.14062406,1.53645719 8.93619902,1.3515632 8.71484375,1.2109375 C8.49348848,1.0703118 8.25520961,1 8,1 L8,1 Z M5.7109375,1.3828125 C5.27343531,1.53385492 4.85416867,1.72916547 4.453125,1.96875 C4.05208133,2.20833453 3.67968922,2.4817693 3.3359375,2.7890625 C2.99218578,3.0963557 2.67968891,3.43619605 2.3984375,3.80859375 C2.11718609,4.18099145 1.87760516,4.57812289 1.6796875,5 L4.28125,5 C4.34375031,4.68749844 4.41666625,4.37239742 4.5,4.0546875 C4.58333375,3.73697758 4.68359316,3.42317863 4.80078125,3.11328125 C4.91796934,2.80338387 5.05208258,2.50260563 5.203125,2.2109375 C5.35416742,1.91926938 5.52343656,1.64323047 5.7109375,1.3828125 L5.7109375,1.3828125 Z M1.6796875,11 C1.87760516,11.4218771 2.11718609,11.8190086 2.3984375,12.1914062 C2.67968891,12.5638039 2.99218578,12.9036443 3.3359375,13.2109375 C3.67968922,13.5182307 4.05208133,13.7916655 4.453125,14.03125 C4.85416867,14.2708345 5.27343531,14.4661451 5.7109375,14.6171875 C5.52343656,14.3567695 5.35416742,14.0807306 5.203125,13.7890625 C5.05208258,13.4973944 4.91796934,13.1966161 4.80078125,12.8867188 C4.68359316,12.5768214 4.58333375,12.2630224 4.5,11.9453125 C4.41666625,11.6276026 4.34375031,11.3125016 4.28125,11 L1.6796875,11 Z M10.2890625,14.6171875 C10.7265647,14.4661451 11.1458313,14.2708345 11.546875,14.03125 C11.9479187,13.7916655 12.3203108,13.5182307 12.6640625,13.2109375 C13.0078142,12.9036443 13.3203111,12.5638039 13.6015625,12.1914062 C13.8828139,11.8190086 14.1223948,11.4218771 14.3203125,11 L11.71875,11 C11.6562497,11.3125016 11.5833337,11.6276026 11.5,11.9453125 C11.4166663,12.2630224 11.3164068,12.5768214 11.1992188,12.8867188 C11.0820307,13.1966161 10.9479174,13.4973944 10.796875,13.7890625 C10.6458326,14.0807306 10.4765634,14.3567695 10.2890625,14.6171875 L10.2890625,14.6171875 Z"></path>
        </g>
    </g>
</svg>