<?xml version="1.0" encoding="UTF-8" standalone="no"?>
<svg width="16px" height="16px" viewBox="0 0 16 16" version="1.1" xmlns="http://www.w3.org/2000/svg" xmlns:xlink="http://www.w3.org/1999/xlink">
    <defs></defs>
    <g stroke="none" stroke-width="1" fill="none" fill-rule="evenodd">
        <g fill="#000000">
            <path d="M9.143,3.143 C9.143,3.304 9.113,3.452 9.054,3.589 C8.994,3.726 8.912,3.847 8.808,3.951 C8.704,4.055 8.583,4.137 8.446,4.196 C8.309,4.256 8.161,4.286 8,4.286 C7.839,4.286 7.69,4.256 7.554,4.196 C7.417,4.137 7.296,4.055 7.192,3.951 C7.088,3.847 7.006,3.726 6.946,3.589 C6.887,3.452 6.857,3.304 6.857,3.143 C6.857,2.982 6.887,2.833 6.946,2.696 C7.006,2.56 7.088,2.439 7.192,2.335 C7.296,2.231 7.417,2.149 7.554,2.089 C7.69,2.03 7.839,2 8,2 C8.161,2 8.309,2.03 8.446,2.089 C8.583,2.149 8.704,2.231 8.808,2.335 C8.912,2.439 8.994,2.56 9.054,2.696 C9.113,2.833 9.143,2.982 9.143,3.143 L9.143,3.143 Z M9.143,8 C9.143,8.161 9.113,8.31 9.054,8.447 C8.994,8.583 8.912,8.704 8.808,8.808 C8.704,8.912 8.583,8.994 8.446,9.054 C8.309,9.113 8.161,9.143 8,9.143 C7.839,9.143 7.69,9.113 7.554,9.054 C7.417,8.994 7.296,8.912 7.192,8.808 C7.088,8.704 7.006,8.583 6.946,8.447 C6.887,8.31 6.857,8.161 6.857,8 C6.857,7.839 6.887,7.691 6.946,7.554 C7.006,7.417 7.088,7.296 7.192,7.192 C7.296,7.088 7.417,7.006 7.554,6.946 C7.69,6.887 7.839,6.857 8,6.857 C8.161,6.857 8.309,6.887 8.446,6.946 C8.583,7.006 8.704,7.088 8.808,7.192 C8.912,7.296 8.994,7.417 9.054,7.554 C9.113,7.691 9.143,7.839 9.143,8 L9.143,8 Z M9.143,12.857 C9.143,13.018 9.113,13.167 9.054,13.304 C8.994,13.441 8.912,13.561 8.808,13.665 C8.704,13.769 8.583,13.851 8.446,13.911 C8.309,13.97 8.161,14 8,14 C7.839,14 7.69,13.97 7.554,13.911 C7.417,13.851 7.296,13.769 7.192,13.665 C7.088,13.561 7.006,13.441 6.946,13.304 C6.887,13.167 6.857,13.018 6.857,12.857 C6.857,12.696 6.887,12.548 6.946,12.411 C7.006,12.274 7.088,12.153 7.192,12.049 C7.296,11.945 7.417,11.863 7.554,11.804 C7.69,11.744 7.839,11.714 8,11.714 C8.161,11.714 8.309,11.744 8.446,11.804 C8.583,11.863 8.704,11.945 8.808,12.049 C8.912,12.153 8.994,12.274 9.054,12.411 C9.113,12.548 9.143,12.696 9.143,12.857 L9.143,12.857 Z" transform="translate(8.000000, 8.000000) rotate(-90.000000) translate(-8.000000, -8.000000) "></path>
        </g>
    </g>
</svg>