<?xml version="1.0" encoding="UTF-8" standalone="no"?>
<svg width="16px" height="16px" viewBox="0 0 16 16" version="1.1" xmlns="http://www.w3.org/2000/svg" xmlns:xlink="http://www.w3.org/1999/xlink">
    <defs></defs>
    <g stroke="none" stroke-width="1" fill="none" fill-rule="evenodd">
        <g fill="#4A4A4A">
            <path d="M13.9236043,7.69441724 C13.9236043,7.74143021 13.9249102,7.78844247 13.927522,7.83545544 C13.9301339,7.8824684 13.9314398,7.92948067 13.9314398,7.97649363 C13.9314398,8.0235066 13.9301339,8.07051886 13.927522,8.11753183 C13.9249102,8.1645448 13.9236043,8.21155706 13.9236043,8.25857003 L15.9529873,9.52007835 L14.7071499,12.5210578 L12.3800196,11.9882468 C12.2546517,12.1240621 12.1240621,12.2546517 11.9882468,12.3800196 L12.5210578,14.7071499 L9.52007835,15.9529873 L8.25857003,13.9236043 C8.21155706,13.9236043 8.1645448,13.9249102 8.11753183,13.927522 C8.07051886,13.9301339 8.0235066,13.9314398 7.97649363,13.9314398 C7.92948067,13.9314398 7.8824684,13.9301339 7.83545544,13.927522 C7.78844247,13.9249102 7.74143021,13.9236043 7.69441724,13.9236043 L6.43290891,15.9529873 L3.43192948,14.7071499 L3.96474045,12.3800196 C3.82892521,12.2546517 3.69833559,12.1240621 3.57296768,11.9882468 L1.24583741,12.5210578 L0,9.52007835 L2.02938296,8.25857003 C2.02938296,8.21155706 2.02807706,8.1645448 2.02546523,8.11753183 C2.0228534,8.07051886 2.0215475,8.0235066 2.0215475,7.97649363 C2.0215475,7.92948067 2.0228534,7.8824684 2.02546523,7.83545544 C2.02807706,7.78844247 2.02938296,7.74143021 2.02938296,7.69441724 L0,6.43290891 L1.24583741,3.43192948 L3.57296768,3.96474045 C3.69833559,3.82892521 3.82892521,3.69833559 3.96474045,3.57296768 L3.43192948,1.24583741 L6.43290891,0 L7.69441724,2.02938296 C7.74143021,2.02938296 7.78844247,2.02807706 7.83545544,2.02546523 C7.8824684,2.0228534 7.92948067,2.0215475 7.97649363,2.0215475 C8.0235066,2.0215475 8.07051886,2.0228534 8.11753183,2.02546523 C8.1645448,2.02807706 8.21155706,2.02938296 8.25857003,2.02938296 L9.52007835,0 L12.5210578,1.24583741 L11.9882468,3.57296768 C12.1240621,3.69833559 12.2546517,3.82892521 12.3800196,3.96474045 L14.7071499,3.43192948 L15.9529873,6.43290891 L13.9236043,7.69441724 Z M13.006856,8.71302644 C13.0173033,8.58765853 13.0277505,8.46359839 13.0381978,8.34084231 C13.0486452,8.21808623 13.0538688,8.09402609 13.0538688,7.96865818 C13.0538688,7.84851393 13.0486452,7.72575969 13.0381978,7.60039177 C13.0277505,7.47502386 13.0173033,7.35226962 13.006856,7.23212537 L14.8560235,6.08031342 L14.1821743,4.45053869 L12.0587659,4.94417238 C11.8968324,4.74567318 11.7309835,4.56284772 11.5612145,4.3956905 C11.3914454,4.22853328 11.2073141,4.06137857 11.0088149,3.89422135 L11.5024486,1.77081293 L9.87267385,1.09696376 L8.71302644,2.94613124 C8.59288219,2.93568392 8.47012795,2.92523675 8.34476004,2.91478942 C8.21939213,2.9043421 8.09663788,2.89911851 7.97649363,2.89911851 C7.85112572,2.89911851 7.72706558,2.9043421 7.6043095,2.91478942 C7.48155342,2.92523675 7.35749328,2.93568392 7.23212537,2.94613124 L6.08031342,1.09696376 L4.45053869,1.77081293 L4.94417238,3.89422135 C4.74567318,4.05615491 4.56284772,4.22200372 4.3956905,4.39177277 C4.22853328,4.56154182 4.06137857,4.74567318 3.89422135,4.94417238 L1.77081293,4.45053869 L1.09696376,6.08031342 L2.94613124,7.23996082 C2.93568392,7.36532874 2.92523675,7.48938887 2.91478942,7.61214496 C2.9043421,7.73490104 2.89911851,7.85896118 2.89911851,7.98432909 C2.89911851,8.10447334 2.9043421,8.22722758 2.91478942,8.35259549 C2.92523675,8.47796341 2.93568392,8.60071765 2.94613124,8.7208619 L1.09696376,9.87267385 L1.77081293,11.5024486 L3.89422135,11.0088149 C4.05615491,11.2073141 4.22200372,11.3901395 4.39177277,11.5572968 C4.56154182,11.724454 4.74567318,11.8916087 4.94417238,12.0587659 L4.45053869,14.1821743 L6.08031342,14.8560235 L7.23996082,13.006856 C7.36010507,13.0173033 7.48285931,13.0277505 7.60822723,13.0381978 C7.73359514,13.0486452 7.85634938,13.0538688 7.97649363,13.0538688 C8.10186155,13.0538688 8.22592168,13.0486452 8.34867777,13.0381978 C8.47143385,13.0277505 8.59549399,13.0173033 8.7208619,13.006856 L9.87267385,14.8560235 L11.5024486,14.1821743 L11.0088149,12.0587659 C11.2073141,11.8968324 11.3901395,11.7309835 11.5572968,11.5612145 C11.724454,11.3914454 11.8916087,11.2073141 12.0587659,11.0088149 L14.1821743,11.5024486 L14.8560235,9.87267385 L13.006856,8.71302644 Z M7.97649363,5.03036239 C8.38393935,5.03036239 8.76656693,5.10741026 9.12438786,5.26150833 C9.48220878,5.41560639 9.79431796,5.62585567 10.0607248,5.89226249 C10.3271316,6.1586693 10.5373809,6.47077849 10.6914789,6.82859941 C10.845577,7.18642033 10.9226249,7.56904791 10.9226249,7.97649363 C10.9226249,8.38393935 10.845577,8.76656693 10.6914789,9.12438786 C10.5373809,9.48220878 10.3271316,9.79431796 10.0607248,10.0607248 C9.79431796,10.3271316 9.48220878,10.5373809 9.12438786,10.6914789 C8.76656693,10.845577 8.38393935,10.9226249 7.97649363,10.9226249 C7.56904791,10.9226249 7.18642033,10.845577 6.82859941,10.6914789 C6.47077849,10.5373809 6.1586693,10.3271316 5.89226249,10.0607248 C5.62585567,9.79431796 5.41560639,9.48220878 5.26150833,9.12438786 C5.10741026,8.76656693 5.03036239,8.38393935 5.03036239,7.97649363 C5.03036239,7.56904791 5.10741026,7.18642033 5.26150833,6.82859941 C5.41560639,6.47077849 5.62585567,6.1586693 5.89226249,5.89226249 C6.1586693,5.62585567 6.47077849,5.41560639 6.82859941,5.26150833 C7.18642033,5.10741026 7.56904791,5.03036239 7.97649363,5.03036239 L7.97649363,5.03036239 Z M7.97649363,10.0450539 C8.2637951,10.0450539 8.53280972,9.99151213 8.78354554,9.88442703 C9.03428137,9.77734194 9.25367193,9.62977567 9.4417238,9.4417238 C9.62977567,9.25367193 9.77734194,9.03428137 9.88442703,8.78354554 C9.99151213,8.53280972 10.0450539,8.2637951 10.0450539,7.97649363 C10.0450539,7.68919216 9.99151213,7.42017755 9.88442703,7.16944172 C9.77734194,6.9187059 9.62977567,6.69931534 9.4417238,6.51126347 C9.25367193,6.3232116 9.03428137,6.17564533 8.78354554,6.06856024 C8.53280972,5.96147514 8.2637951,5.9079334 7.97649363,5.9079334 C7.68919216,5.9079334 7.42017755,5.96147514 7.16944172,6.06856024 C6.9187059,6.17564533 6.69931534,6.3232116 6.51126347,6.51126347 C6.3232116,6.69931534 6.17564533,6.9187059 6.06856024,7.16944172 C5.96147514,7.42017755 5.9079334,7.68919216 5.9079334,7.97649363 C5.9079334,8.2637951 5.96147514,8.53280972 6.06856024,8.78354554 C6.17564533,9.03428137 6.3232116,9.25367193 6.51126347,9.4417238 C6.69931534,9.62977567 6.9187059,9.77734194 7.16944172,9.88442703 C7.42017755,9.99151213 7.68919216,10.0450539 7.97649363,10.0450539 L7.97649363,10.0450539 Z"></path>
        </g>
    </g>
</svg>