<?xml version="1.0" encoding="UTF-8" standalone="no"?>
<svg width="16px" height="16px" viewBox="0 0 16 16" version="1.1" xmlns="http://www.w3.org/2000/svg" xmlns:xlink="http://www.w3.org/1999/xlink">
    <defs></defs>
    <g stroke="none" stroke-width="1" fill="none" fill-rule="evenodd">
        <g fill="#4A4A4A">
            <path d="M5.75,12.421875 C6.09375172,12.5937509 6.40364445,12.8046862 6.6796875,13.0546875 C6.95573055,13.3046888 7.19140527,13.5833318 7.38671875,13.890625 C7.58203223,14.1979182 7.73307238,14.5312482 7.83984375,14.890625 C7.94661512,15.2500018 8,15.6197898 8,16 L7,16 C7,15.5885396 6.92187578,15.2005227 6.765625,14.8359375 C6.60937422,14.4713523 6.39453262,14.1523451 6.12109375,13.8789062 C5.84765488,13.6054674 5.52864766,13.3906258 5.1640625,13.234375 C4.79947734,13.0781242 4.41146039,13 4,13 C3.58333125,13 3.19401223,13.0781242 2.83203125,13.234375 C2.47005027,13.3906258 2.15234512,13.6054674 1.87890625,13.8789062 C1.60546738,14.1523451 1.39062578,14.4713523 1.234375,14.8359375 C1.07812422,15.2005227 1,15.5885396 1,16 L0,16 C0,15.6197898 0.0533848828,15.2500018 0.16015625,14.890625 C0.266927617,14.5312482 0.417967773,14.1979182 0.61328125,13.890625 C0.808594727,13.5833318 1.04426945,13.3046888 1.3203125,13.0546875 C1.59635555,12.8046862 1.90624828,12.5937509 2.25,12.421875 C1.85937305,12.1406236 1.55338652,11.7890646 1.33203125,11.3671875 C1.11067598,10.9453104 1,10.4895858 1,10 C1,9.58853961 1.07812422,9.20052266 1.234375,8.8359375 C1.39062578,8.47135234 1.60546738,8.15234512 1.87890625,7.87890625 C2.15234512,7.60546738 2.47005027,7.39062578 2.83203125,7.234375 C3.19401223,7.07812422 3.58333125,7 4,7 C4.48958578,7 4.94531039,7.11067598 5.3671875,7.33203125 C5.78906461,7.55338652 6.14062359,7.85937305 6.421875,8.25 C6.61979266,7.85416469 6.87499844,7.50000156 7.1875,7.1875 C7.50000156,6.87499844 7.85416469,6.61979266 8.25,6.421875 C7.85937305,6.14062359 7.55338652,5.78906461 7.33203125,5.3671875 C7.11067598,4.94531039 7,4.48958578 7,4 C7,3.58853961 7.07812422,3.20052266 7.234375,2.8359375 C7.39062578,2.47135234 7.60546738,2.15234512 7.87890625,1.87890625 C8.15234512,1.60546738 8.47005027,1.39062578 8.83203125,1.234375 C9.19401223,1.07812422 9.58333125,1 10,1 C10.4114604,1 10.7994773,1.07812422 11.1640625,1.234375 C11.5286477,1.39062578 11.8476549,1.60546738 12.1210938,1.87890625 C12.3945326,2.15234512 12.6093742,2.47135234 12.765625,2.8359375 C12.9218758,3.20052266 13,3.58853961 13,4 C13,4.48958578 12.889324,4.94531039 12.6679688,5.3671875 C12.4466135,5.78906461 12.140627,6.14062359 11.75,6.421875 C12.0937517,6.59375086 12.4036445,6.80468625 12.6796875,7.0546875 C12.9557305,7.30468875 13.1914053,7.5833318 13.3867188,7.890625 C13.5820322,8.1979182 13.7330724,8.5312482 13.8398438,8.890625 C13.9466151,9.2500018 14,9.61978977 14,10 L13,10 C13,9.58853961 12.9218758,9.20052266 12.765625,8.8359375 C12.6093742,8.47135234 12.3945326,8.15234512 12.1210938,7.87890625 C11.8476549,7.60546738 11.5286477,7.39062578 11.1640625,7.234375 C10.7994773,7.07812422 10.4114604,7 10,7 C9.58333125,7 9.19401223,7.07812422 8.83203125,7.234375 C8.47005027,7.39062578 8.15234512,7.60546738 7.87890625,7.87890625 C7.60546738,8.15234512 7.39062578,8.47135234 7.234375,8.8359375 C7.07812422,9.20052266 7,9.58853961 7,10 C7,10.4895858 6.88932402,10.9453104 6.66796875,11.3671875 C6.44661348,11.7890646 6.14062695,12.1406236 5.75,12.421875 L5.75,12.421875 Z M8,4 C8,4.27604305 8.05208281,4.53515504 8.15625,4.77734375 C8.26041719,5.01953246 8.40364492,5.23176992 8.5859375,5.4140625 C8.76823008,5.59635508 8.98046754,5.73958281 9.22265625,5.84375 C9.46484496,5.94791719 9.72395695,6 10,6 C10.276043,6 10.535155,5.94791719 10.7773438,5.84375 C11.0195325,5.73958281 11.2317699,5.59635508 11.4140625,5.4140625 C11.5963551,5.23176992 11.7395828,5.01953246 11.84375,4.77734375 C11.9479172,4.53515504 12,4.27604305 12,4 C12,3.72395695 11.9479172,3.46484496 11.84375,3.22265625 C11.7395828,2.98046754 11.5963551,2.76823008 11.4140625,2.5859375 C11.2317699,2.40364492 11.0195325,2.26041719 10.7773438,2.15625 C10.535155,2.05208281 10.276043,2 10,2 C9.72395695,2 9.46484496,2.05208281 9.22265625,2.15625 C8.98046754,2.26041719 8.76823008,2.40364492 8.5859375,2.5859375 C8.40364492,2.76823008 8.26041719,2.98046754 8.15625,3.22265625 C8.05208281,3.46484496 8,3.72395695 8,4 L8,4 Z M2,10 C2,10.276043 2.05208281,10.535155 2.15625,10.7773438 C2.26041719,11.0195325 2.40364492,11.2317699 2.5859375,11.4140625 C2.76823008,11.5963551 2.98046754,11.7395828 3.22265625,11.84375 C3.46484496,11.9479172 3.72395695,12 4,12 C4.27604305,12 4.53515504,11.9479172 4.77734375,11.84375 C5.01953246,11.7395828 5.23176992,11.5963551 5.4140625,11.4140625 C5.59635508,11.2317699 5.73958281,11.0195325 5.84375,10.7773438 C5.94791719,10.535155 6,10.276043 6,10 C6,9.72395695 5.94791719,9.46484496 5.84375,9.22265625 C5.73958281,8.98046754 5.59635508,8.76823008 5.4140625,8.5859375 C5.23176992,8.40364492 5.01953246,8.26041719 4.77734375,8.15625 C4.53515504,8.05208281 4.27604305,8 4,8 C3.72395695,8 3.46484496,8.05208281 3.22265625,8.15625 C2.98046754,8.26041719 2.76823008,8.40364492 2.5859375,8.5859375 C2.40364492,8.76823008 2.26041719,8.98046754 2.15625,9.22265625 C2.05208281,9.46484496 2,9.72395695 2,10 L2,10 Z"></path>
        </g>
    </g>
</svg>