<?xml version="1.0" encoding="UTF-8" standalone="no"?>
<svg width="16px" height="16px" viewBox="0 0 16 16" version="1.1" xmlns="http://www.w3.org/2000/svg" xmlns:xlink="http://www.w3.org/1999/xlink">
    <defs></defs>
    <g stroke="none" stroke-width="1" fill="none" fill-rule="evenodd">
        <g fill="#323232">
            <path d="M15.546875,5.84375 C15.3749991,6.01562586 15.2070321,6.17317637 15.0429688,6.31640625 C14.8789054,6.45963613 14.7096363,6.58072867 14.5351562,6.6796875 C14.3606762,6.77864633 14.1705739,6.85546848 13.9648438,6.91015625 C13.7591136,6.96484402 13.526043,6.9921875 13.265625,6.9921875 C13.0885408,6.9921875 12.9192716,6.97656266 12.7578125,6.9453125 L9.796875,9.90625 C9.86458367,10.1041677 9.91406234,10.3072906 9.9453125,10.515625 C9.97656266,10.7239594 9.9921875,10.9322906 9.9921875,11.140625 C9.9921875,11.4791684 9.95833367,11.786457 9.890625,12.0625 C9.82291633,12.338543 9.72526105,12.5989571 9.59765625,12.84375 C9.47005145,13.0885429 9.31510508,13.3216135 9.1328125,13.5429688 C8.95051992,13.764324 8.74479281,13.9895822 8.515625,14.21875 L5.5,11.203125 L1.0625,15.6484375 L0,16 L0.3515625,14.9375 L4.796875,10.5 L1.78125,7.484375 L2.1328125,7.1328125 C2.49739766,6.76822734 2.91536223,6.4895843 3.38671875,6.296875 C3.85807527,6.1041657 4.35155992,6.0078125 4.8671875,6.0078125 C5.29427297,6.0078125 5.70312305,6.07291602 6.09375,6.203125 L9.0546875,3.2421875 C9.02343734,3.08072836 9.0078125,2.91145922 9.0078125,2.734375 C9.0078125,2.47916539 9.03515598,2.24869895 9.08984375,2.04296875 C9.14453152,1.83723855 9.22135367,1.64583422 9.3203125,1.46875 C9.41927133,1.29166578 9.54036387,1.12109457 9.68359375,0.95703125 C9.82682363,0.79296793 9.98437414,0.625000859 10.15625,0.453125 L15.546875,5.84375 Z M13.265625,5.9921875 C13.5520848,5.9921875 13.8229154,5.92447984 14.078125,5.7890625 L10.2109375,1.921875 C10.0755202,2.17708461 10.0078125,2.44791523 10.0078125,2.734375 C10.0078125,2.88020906 10.0247394,3.01692645 10.0585938,3.14453125 C10.0924481,3.27213605 10.1302081,3.40364516 10.171875,3.5390625 L6.328125,7.375 C6.19791602,7.32291641 6.07552141,7.27343773 5.9609375,7.2265625 C5.84635359,7.17968727 5.73177141,7.14062516 5.6171875,7.109375 C5.50260359,7.07812484 5.3841152,7.05338551 5.26171875,7.03515625 C5.1393223,7.01692699 5.0078132,7.0078125 4.8671875,7.0078125 C4.57031102,7.0078125 4.28255348,7.05078082 4.00390625,7.13671875 C3.72525902,7.22265668 3.46614703,7.3489575 3.2265625,7.515625 L8.484375,12.7734375 C8.6510425,12.533853 8.77864539,12.274741 8.8671875,11.9960938 C8.95572961,11.7174465 9,11.4322931 9,11.140625 C9,10.9999993 8.99088551,10.8684902 8.97265625,10.7460938 C8.95442699,10.6236973 8.92838559,10.5039068 8.89453125,10.3867188 C8.86067691,10.2695307 8.82031273,10.1536464 8.7734375,10.0390625 C8.72656227,9.92447859 8.67708359,9.80208398 8.625,9.671875 L12.4609375,5.828125 C12.5963548,5.86979188 12.7278639,5.90755191 12.8554688,5.94140625 C12.9830736,5.97526059 13.1197909,5.9921875 13.265625,5.9921875 L13.265625,5.9921875 Z"></path>
        </g>
    </g>
</svg>