<?xml version="1.0" encoding="UTF-8" standalone="no"?>
<svg width="16px" height="16px" viewBox="0 0 16 16" version="1.1" xmlns="http://www.w3.org/2000/svg" xmlns:xlink="http://www.w3.org/1999/xlink">
    <defs></defs>
    <g stroke="none" stroke-width="1" fill="none" fill-rule="evenodd">
        <g fill="#4A4A4A">
            <g transform="translate(0.000000, 3.000000)">
                <path d="M3.5,11 L11.75,11 C14.093,11 16,9.093 16,6.75 C16,4.502 14.246,2.656 12.034,2.51 C11.279,0.974 9.73,0 8,0 C5.687,0 3.777,1.753 3.528,4 L3.5,4 C1.57,4 0,5.57 0,7.5 C0,9.43 1.57,11 3.5,11 L3.5,11 Z M3.5,5 C3.63,5 3.767,5.012 3.919,5.038 L4.5,5.092 L4.5,4.5 C4.5,2.57 6.07,1 8,1 C9.433,1 10.706,1.859 11.244,3.19 L11.413,3.5 L11.75,3.5 C13.542,3.5 15,4.958 15,6.75 C15,8.542 13.542,10 11.75,10 L3.5,10 C2.122,10 1,8.878 1,7.5 C1,6.122 2.122,5 3.5,5 L3.5,5 Z"></path>
                <path d="M7,0.799999952 L8,3.54999995 L6,3.54999995 L8.75,8.79999995 L8.75,5.04999995 L10,5.04999995 L10,0.799999952 L7,0.799999952"></path>
            </g>
        </g>
    </g>
</svg>