<?xml version="1.0" encoding="utf-8"?>
<!-- Generator: Adobe Illustrator 19.1.0, SVG Export Plug-In . SVG Version: 6.00 Build 0)  -->
<svg version="1.1" id="Layer_1" xmlns="http://www.w3.org/2000/svg" xmlns:xlink="http://www.w3.org/1999/xlink" x="0px" y="0px"
	 width="16px" height="16px" viewBox="0 0 16 16" style="enable-background:new 0 0 16 16;" xml:space="preserve">
<g>
	<path d="M13,5c0,0.542-0.085,1.069-0.254,1.582S12.328,7.568,12,8v8l-4-2l-4,2V8C3.672,7.568,3.423,7.095,3.254,6.582S3,5.542,3,5
		c0-0.693,0.13-1.342,0.391-1.949s0.617-1.137,1.07-1.59s0.983-0.81,1.59-1.07S7.307,0,8,0s1.342,0.13,1.949,0.391
		s1.137,0.617,1.59,1.07s0.81,0.983,1.07,1.59C12.87,3.658,13,4.307,13,5z M8,1C7.448,1,6.93,1.105,6.445,1.316
		s-0.908,0.497-1.27,0.859s-0.648,0.785-0.859,1.27S4,4.448,4,5s0.105,1.07,0.316,1.555s0.497,0.908,0.859,1.27
		c0.362,0.362,0.785,0.648,1.27,0.859S7.448,9,8,9s1.07-0.105,1.555-0.316s0.908-0.497,1.27-0.859
		c0.362-0.362,0.648-0.785,0.859-1.27S12,5.552,12,5s-0.105-1.07-0.316-1.555s-0.497-0.908-0.859-1.27s-0.785-0.648-1.27-0.859
		S8.552,1,8,1z M8,8C7.583,8,7.194,7.922,6.832,7.766s-0.68-0.371-0.953-0.645S5.391,6.53,5.234,6.168S5,5.417,5,5
		c0-0.411,0.078-0.799,0.234-1.164s0.371-0.684,0.645-0.957S6.47,2.391,6.832,2.234S7.583,2,8,2c0.411,0,0.799,0.078,1.164,0.234
		s0.684,0.371,0.957,0.645s0.488,0.592,0.645,0.957S11,4.589,11,5c0,0.417-0.078,0.806-0.234,1.168s-0.371,0.68-0.645,0.953
		S9.529,7.609,9.164,7.766S8.411,8,8,8z M11,14.5V9c-0.432,0.328-0.905,0.577-1.418,0.746S8.542,10,8,10S6.931,9.915,6.418,9.746
		S5.432,9.328,5,9v5.5L8,13L11,14.5z M8,3C7.724,3,7.465,3.052,7.223,3.156s-0.454,0.247-0.637,0.43S6.26,3.98,6.156,4.223
		S6,4.724,6,5s0.052,0.535,0.156,0.777s0.247,0.454,0.43,0.637S6.98,6.74,7.223,6.844S7.724,7,8,7c0.276,0,0.535-0.052,0.777-0.156
		s0.454-0.247,0.637-0.43S9.74,6.02,9.844,5.777S10,5.276,10,5S9.948,4.465,9.844,4.223s-0.247-0.454-0.43-0.637
		S9.02,3.26,8.777,3.156S8.276,3,8,3z"/>
</g>
</svg>
