<?xml version="1.0" encoding="UTF-8" standalone="no"?>
<svg width="16px" height="16px" viewBox="0 0 16 16" version="1.1" xmlns="http://www.w3.org/2000/svg" xmlns:xlink="http://www.w3.org/1999/xlink">
    <defs></defs>
    <g stroke="none" stroke-width="1" fill="none" fill-rule="evenodd">
        <g fill="#4A4A4A">
            <path d="M13,4.4140625 C13.4583356,4.61718852 13.872394,4.87630051 14.2421875,5.19140625 C14.611981,5.50651199 14.927082,5.86327926 15.1875,6.26171875 C15.447918,6.66015824 15.6484368,7.09114352 15.7890625,7.5546875 C15.9296882,8.01823148 16,8.4999975 16,9 C16,9.6927118 15.869793,10.3424449 15.609375,10.9492188 C15.348957,11.5559926 14.9921898,12.0859352 14.5390625,12.5390625 C14.0859352,12.9921898 13.5559926,13.348957 12.9492188,13.609375 C12.3424449,13.869793 11.6927118,14 11,14 C10.4583306,14 9.93099215,13.9153654 9.41796875,13.7460938 C8.90494535,13.5768221 8.43229383,13.3281266 8,13 L6,15 L0,9 L7,2 L13,2 L13,4.4140625 Z M6,13.5859375 L12,7.5859375 L12,5.125 C11.9062495,5.10416656 11.7916673,5.08984379 11.65625,5.08203125 C11.5208327,5.07421871 11.378907,5.06640629 11.2304688,5.05859375 C11.0820305,5.05078121 10.9348966,5.03906258 10.7890625,5.0234375 C10.6432284,5.00781242 10.5117193,4.98046895 10.3945312,4.94140625 C10.2773432,4.90234355 10.182292,4.84895867 10.109375,4.78125 C10.036458,4.71354133 10,4.61979227 10,4.5 C10,4.36458266 10.0494787,4.24739633 10.1484375,4.1484375 C10.2473963,4.04947867 10.3645827,4 10.5,4 C10.7552096,4 11.0065092,4.00260414 11.2539062,4.0078125 C11.5013033,4.01302086 11.7499987,4.04427055 12,4.1015625 L12,3 L7.4140625,3 L1.4140625,9 L6,13.5859375 Z M11,13 C11.5520861,13 12.0703101,12.8945323 12.5546875,12.6835937 C13.0390649,12.4726552 13.4622378,12.1861997 13.8242188,11.8242187 C14.1861997,11.4622378 14.4726552,11.0390649 14.6835938,10.5546875 C14.8945323,10.0703101 15,9.55208609 15,9 C15,8.64583156 14.9531255,8.29948086 14.859375,7.9609375 C14.7656245,7.62239414 14.6328134,7.30338691 14.4609375,7.00390625 C14.2890616,6.70442559 14.0794283,6.42968875 13.8320312,6.1796875 C13.5846342,5.92968625 13.3072932,5.71614672 13,5.5390625 L13,8 L8.71875,12.28125 C9.052085,12.5156262 9.41406055,12.6940098 9.8046875,12.8164062 C10.1953145,12.9388027 10.593748,13 11,13 L11,13 Z"></path>
        </g>
    </g>
</svg>