<?xml version="1.0" encoding="UTF-8" standalone="no"?>
<svg width="16px" height="16px" viewBox="0 0 16 16" version="1.1" xmlns="http://www.w3.org/2000/svg" xmlns:xlink="http://www.w3.org/1999/xlink">
    <defs></defs>
    <g stroke="none" stroke-width="1" fill="none" fill-rule="evenodd">
        <g fill="#4A4A4A">
            <path d="M15.078125,1.71875 C15.2135423,1.95312617 15.337239,2.17708227 15.4492188,2.390625 C15.5611985,2.60416773 15.6588538,2.82031141 15.7421875,3.0390625 C15.8255212,3.25781359 15.8893227,3.4856759 15.9335938,3.72265625 C15.9778648,3.9596366 16,4.21874859 16,4.5 C16,4.91146039 15.9466151,5.30859184 15.8398438,5.69140625 C15.7330724,6.07422066 15.5820322,6.43229 15.3867188,6.765625 C15.1914053,7.09896 14.9557305,7.40364445 14.6796875,7.6796875 C14.4036445,7.95573055 14.09896,8.19140527 13.765625,8.38671875 C13.43229,8.58203223 13.0742207,8.73307238 12.6914062,8.83984375 C12.3085918,8.94661512 11.9114604,9 11.5,9 C11.3802077,9 11.2591152,8.99479172 11.1367188,8.984375 C11.0143223,8.97395828 10.8932298,8.95833344 10.7734375,8.9375 L4.4765625,15.234375 C4.22656125,15.4843763 3.94140785,15.6744785 3.62109375,15.8046875 C3.30077965,15.9348965 2.96614758,16 2.6171875,16 C2.2578107,16 1.91927242,15.9309903 1.6015625,15.7929688 C1.28385258,15.6549472 1.0065116,15.4674491 0.76953125,15.2304688 C0.532550898,14.9934884 0.345052773,14.7161474 0.20703125,14.3984375 C0.0690097266,14.0807276 0,13.7421893 0,13.3828125 C0,13.0338524 0.0651035156,12.6992204 0.1953125,12.3789062 C0.325521484,12.0585921 0.51562375,11.7734388 0.765625,11.5234375 L7.0625,5.2265625 C7.04166656,5.10677023 7.02604172,4.9856777 7.015625,4.86328125 C7.00520828,4.7408848 7,4.61979227 7,4.5 C7,4.08853961 7.05338488,3.69140816 7.16015625,3.30859375 C7.26692762,2.92577934 7.41796777,2.56771 7.61328125,2.234375 C7.80859473,1.90104 8.04426945,1.59635555 8.3203125,1.3203125 C8.59635555,1.04426945 8.90104,0.808594727 9.234375,0.61328125 C9.56771,0.417967773 9.92577934,0.266927617 10.3085938,0.16015625 C10.6914082,0.0533848828 11.0885396,0 11.5,0 C11.7812514,0 12.0403634,0.0221351953 12.2773438,0.06640625 C12.5143241,0.110677305 12.7421864,0.17447875 12.9609375,0.2578125 C13.1796886,0.34114625 13.3958323,0.438801523 13.609375,0.55078125 C13.8229177,0.662760977 14.0468738,0.786457656 14.28125,0.921875 L11.203125,4 L12,4.796875 L15.078125,1.71875 Z M11.5,8 C11.9843774,8 12.4388,7.90755301 12.8632812,7.72265625 C13.2877625,7.53775949 13.6575505,7.28776199 13.9726562,6.97265625 C14.287762,6.65755051 14.5377595,6.28776254 14.7226562,5.86328125 C14.907553,5.43879996 15,4.98437742 15,4.5 C15,4.11978977 14.9375006,3.75260594 14.8125,3.3984375 L12,6.203125 L9.796875,4 L12.6015625,1.1875 C12.2473941,1.06249937 11.8802102,1 11.5,1 C11.0156226,1 10.5612,1.09244699 10.1367188,1.27734375 C9.71223746,1.46224051 9.34244949,1.71223801 9.02734375,2.02734375 C8.71223801,2.34244949 8.46224051,2.71223746 8.27734375,3.13671875 C8.09244699,3.56120004 8,4.01562258 8,4.5 C8,4.68229258 8.01562484,4.85937414 8.046875,5.03125 C8.07812516,5.20312586 8.11458312,5.37499914 8.15625,5.546875 L1.4765625,12.234375 C1.32552008,12.3854174 1.20833375,12.5598948 1.125,12.7578125 C1.04166625,12.9557302 1,13.1640614 1,13.3828125 C1,13.6015636 1.04296832,13.8098948 1.12890625,14.0078125 C1.21484418,14.2057302 1.33072844,14.3776034 1.4765625,14.5234375 C1.62239656,14.6692716 1.79426984,14.7851558 1.9921875,14.8710938 C2.19010516,14.9570317 2.39843641,15 2.6171875,15 C2.83593859,15 3.04426984,14.9583337 3.2421875,14.875 C3.44010516,14.7916663 3.61458258,14.6744799 3.765625,14.5234375 L10.453125,7.84375 C10.6250009,7.88541688 10.7968741,7.92187484 10.96875,7.953125 C11.1406259,7.98437516 11.3177074,8 11.5,8 L11.5,8 Z"></path>
        </g>
    </g>
</svg>