<?xml version="1.0" encoding="utf-8"?>
<!-- Generator: Adobe Illustrator 19.1.0, SVG Export Plug-In . SVG Version: 6.00 Build 0)  -->
<svg version="1.1" id="Layer_1" xmlns="http://www.w3.org/2000/svg" xmlns:xlink="http://www.w3.org/1999/xlink" x="0px" y="0px"
	 width="20px" height="20px" viewBox="-789 161 20 20" enable-background="new -789 161 20 20" xml:space="preserve">
<path opacity="0.25" fill="#FFFFFF" enable-background="new    " d="M-771,161h-2h-1h-2h-1h-2h-1h-2h-1h-2h-1h-2h-1v1v2v1v2v1v2v1v2
	v1h1h2h1h2h1h2h1h2h1h2h1h2h1v-13H-771z M-786,173h-2v-2h2V173z M-786,170h-2v-2h2V170z M-786,167h-2v-2h2V167z M-786,164h-2v-2h2
	V164z M-783,173h-2v-2h2V173z M-783,170h-2v-2h2V170z M-783,167h-2v-2h2V167z M-783,164h-2v-2h2V164z M-780,173h-2v-2h2V173z
	 M-780,170h-2v-2h2V170z M-780,167h-2v-2h2V167z M-780,164h-2v-2h2V164z M-777,173h-2v-2h2V173z M-777,170h-2v-2h2V170z M-777,167
	h-2v-2h2V167z M-777,164h-2v-2h2V164z M-774,173h-2v-2h2V173z M-774,170h-2v-2h2V170z M-774,167h-2v-2h2V167z M-774,164h-2v-2h2V164
	z M-771,173h-2v-2h2V173z M-771,170h-2v-2h2V170z M-771,167h-2v-2h2V167z M-771,164h-2v-2h2V164z"/>
<rect x="-789" y="161" fill="#FFFFFF" width="4" height="4"/>
</svg>
