<?xml version="1.0" encoding="utf-8"?>
<!-- Generator: Adobe Illustrator 17.1.0, SVG Export Plug-In . SVG Version: 6.00 Build 0)  -->
<!DOCTYPE svg PUBLIC "-//W3C//DTD SVG 1.1//EN" "http://www.w3.org/Graphics/SVG/1.1/DTD/svg11.dtd">
<svg version="1.1" id="Layer_1" xmlns="http://www.w3.org/2000/svg" xmlns:xlink="http://www.w3.org/1999/xlink" x="0px" y="0px"
	 viewBox="0 0 20 20" enable-background="new 0 0 20 20" xml:space="preserve">
<path opacity="0.25" fill="#FFFFFF" enable-background="new    " d="M18,0h-2h-1h-2h-1h-2H9H7H6H4H3H1H0v1v2v1v2v1v2v1v2v1h1h2h1h2
	h1h2h1h2h1h2h1h2h1V0H18z M3,12H1v-2h2V12z M3,9H1V7h2V9z M3,6H1V4h2V6z M3,3H1V1h2V3z M6,12H4v-2h2V12z M6,9H4V7h2V9z M6,6H4V4h2V6
	z M6,3H4V1h2V3z M9,12H7v-2h2V12z M9,9H7V7h2V9z M9,6H7V4h2V6z M9,3H7V1h2V3z M12,12h-2v-2h2V12z M12,9h-2V7h2V9z M12,6h-2V4h2V6z
	 M12,3h-2V1h2V3z M15,12h-2v-2h2V12z M15,9h-2V7h2V9z M15,6h-2V4h2V6z M15,3h-2V1h2V3z M18,12h-2v-2h2V12z M18,9h-2V7h2V9z M18,6h-2
	V4h2V6z M18,3h-2V1h2V3z"/>
<rect fill="#FFFFFF" width="7" height="13"/>
</svg>
