<?xml version="1.0" encoding="utf-8"?>
<!-- Generator: Adobe Illustrator 19.1.0, SVG Export Plug-In . SVG Version: 6.00 Build 0)  -->
<svg version="1.1" xmlns="http://www.w3.org/2000/svg" xmlns:xlink="http://www.w3.org/1999/xlink" x="0px" y="0px" width="100px"
	 height="100px" 
	 viewBox="0 0 100 100" style="enable-background:new 0 0 100 100;" xml:space="preserve">
<style type="text/css">
	.st0{fill:#19486F;}
	.st1{fill:#2E73B8;}
	.st2{fill:#5294CF;}
	.st3{fill:#205B99;}
	.st4{fill:#99BCE3;}
	.st5{display:none;}
	.st6{fill:#FFFFFF;}
	.st7{enable-background:new    ;}
</style>
<g id="Layer_1">
	<polygon class="st0" points="47,79.2 22,79.2 22,76.8 34.5,69.7 47,76.8 	"/>
	<polygon class="st0" points="78,79.2 53,79.2 53,76.8 65.5,69.7 78,76.8 	"/>
	<polygon class="st0" points="47,58.6 22,58.6 22,56.1 34.5,49.1 47,56.1 	"/>
	<polygon class="st0" points="78,58.6 53,58.6 53,56.1 65.5,49.1 78,56.1 	"/>
	<polygon class="st0" points="47,37.9 22,37.9 22,35.4 34.5,28.4 47,35.4 	"/>
	<polygon class="st0" points="78,37.9 53,37.9 53,35.4 65.5,28.4 78,35.4 	"/>
	<rect x="22" y="20.8" class="st1" width="25" height="14.7"/>
	<rect x="22" y="41.4" class="st1" width="25" height="14.7"/>
	<rect x="22" y="62.1" class="st1" width="25" height="14.7"/>
	<rect x="53" y="20.8" class="st1" width="25" height="14.7"/>
	<rect x="53" y="41.4" class="st1" width="25" height="14.7"/>
	<rect x="53" y="62.1" class="st1" width="25" height="14.7"/>
	<circle class="st6" cx="65.5" cy="28.1" r="5"/>
	<circle class="st6" cx="65.5" cy="48.8" r="5"/>
	<circle class="st6" cx="65.5" cy="69.4" r="5"/>
</g>
<g id="Layer_2">
</g>
</svg>
