<?xml version="1.0" encoding="utf-8"?>
<!-- Generator: Adobe Illustrator 19.1.0, SVG Export Plug-In . SVG Version: 6.00 Build 0)  -->
<svg version="1.1" xmlns="http://www.w3.org/2000/svg" xmlns:xlink="http://www.w3.org/1999/xlink" x="0px" y="0px" width="100px"
	 height="100px" 
	 viewBox="0 0 100 100" style="enable-background:new 0 0 100 100;" xml:space="preserve">
<style type="text/css">
	.st0{fill:#19486F;}
	.st1{fill:#2E73B8;}
	.st2{fill:#5294CF;}
	.st3{fill:#205B99;}
	.st4{fill:#99BCE3;}
	.st5{display:none;}
	.st6{fill:#FFFFFF;}
	.st7{enable-background:new    ;}
</style>
<g id="Layer_1">
	<polygon class="st0" points="47,79.2 22,79.2 22,76.8 34.5,69.7 47,76.8 	"/>
	<polygon class="st0" points="78,79.2 53,79.2 53,76.8 65.5,69.7 78,76.8 	"/>
	<polygon class="st0" points="47,48.2 22,48.2 22,45.8 34.5,38.7 47,45.8 	"/>
	<polygon class="st0" points="78,48.2 53,48.2 53,45.8 65.5,38.7 78,45.8 	"/>
	<rect x="22" y="20.8" class="st1" width="25" height="25"/>
	<rect x="53" y="20.8" class="st1" width="25" height="25"/>
	<rect x="22" y="51.8" class="st1" width="25" height="25"/>
	<rect x="53" y="51.8" class="st1" width="25" height="25"/>
	<circle class="st6" cx="34.5" cy="33.3" r="8.7"/>
</g>
<g id="Layer_2">
</g>
</svg>
