<?xml version="1.0" encoding="utf-8"?>
<!-- Generator: Adobe Illustrator 19.2.0, SVG Export Plug-In . SVG Version: 6.00 Build 0)  -->
<svg version="1.1" xmlns="http://www.w3.org/2000/svg" xmlns:xlink="http://www.w3.org/1999/xlink" x="0px" y="0px"
	 viewBox="0 0 100 100" style="enable-background:new 0 0 100 100;" xml:space="preserve">
<style type="text/css">
	.st0{fill:#19486F;}
	.st1{fill:#2E73B8;}
	.st2{fill:#5294CF;}
	.st3{fill:#205B99;}
	.st4{fill:#99BCE3;}
	.st5{display:none;}
	.st6{fill:#FFFFFF;}
	.st7{enable-background:new    ;}
</style>
<g id="Layer_1">
	<path class="st0" d="M72.7,47.1c1.1,0,2-0.9,2-2v-7.3c0-1.1-0.9-2-2-2h-7.3c-0.5,0-0.9,0.2-1.2,0.4l-4.5-3.4v-6.3c0-1.1-0.9-2-2-2
		h-7.3c-1.1,0-2,0.9-2,2v7.3c0,0.3,0.1,0.6,0.2,0.9l-6.8,8.1H28.3c-1.7,0-3,1.3-3,3v13.7c0,1.7,1.3,3,3,3H42c0.3,0,0.5,0,0.8-0.1
		l5.7,5.9c0,0.1,0,0.3,0,0.4V76c0,1.1,0.9,2,2,2h7.3c1.1,0,2-0.9,2-2v-6.4c1.5-1.2,3.1-2.3,4.5-3.4c0.3,0.3,0.8,0.5,1.3,0.5h7.3
		c1.1,0,2-0.9,2-2v-7.3c0-1.1-0.9-2-2-2h-2.4v-8.3H72.7z M64.3,48.4l-1.7-3.5l0.8-0.3v0.5c0,0.9,0.7,1.7,1.5,1.9L64.3,48.4z
		 M58.9,67.1c-0.2-0.2-0.5-0.3-0.7-0.3l3.1-6.4l2.2,0.5v2.7C62.2,64.6,60.7,65.7,58.9,67.1z M50.9,35.9h4.5l3.7,7.6L45,48.1v-2.3
		c0-0.8-0.3-1.5-0.8-2L50.9,35.9z M63.4,38.8V42l-1.9,0.6l-3.3-6.8c0.3-0.1,0.5-0.2,0.8-0.4L63.4,38.8z M45,59.5v-3.1l13.8,3.4
		l-3.4,6.9h-5c0,0,0,0,0,0l-5.7-5.9C44.9,60.4,45,60,45,59.5z M65,55.5c-0.9,0.2-1.5,1-1.5,1.9v1l-1.1-0.3l1.9-4L65,55.5z
		 M59.9,57.5L45,53.8v-3.1l15.2-5l2.7,5.6L59.9,57.5z M67.8,55.4h-0.1l-2-4.2l2-4.2h0.1V55.4z"/>
	<path class="st1" d="M72.7,44.6c1.1,0,2-0.9,2-2v-7.3c0-1.1-0.9-2-2-2h-7.3c-0.5,0-0.9,0.2-1.2,0.4l-4.5-3.4v-6.3c0-1.1-0.9-2-2-2
		h-7.3c-1.1,0-2,0.9-2,2v7.3c0,0.3,0.1,0.6,0.2,0.9l-6.8,8.1H28.3c-1.7,0-3,1.3-3,3v13.7c0,1.7,1.3,3,3,3H42c0.3,0,0.5,0,0.8-0.1
		l5.7,5.9c0,0.1,0,0.3,0,0.4v7.3c0,1.1,0.9,2,2,2h7.3c1.1,0,2-0.9,2-2v-6.4c1.5-1.2,3.1-2.3,4.5-3.4c0.3,0.3,0.8,0.5,1.3,0.5h7.3
		c1.1,0,2-0.9,2-2V55c0-1.1-0.9-2-2-2h-2.4v-8.3H72.7z M64.3,45.9l-1.7-3.5l0.8-0.3v0.5c0,0.9,0.7,1.7,1.5,1.9L64.3,45.9z
		 M58.9,64.7c-0.2-0.2-0.5-0.3-0.7-0.3l3.1-6.4l2.2,0.5v2.7C62.2,62.1,60.7,63.3,58.9,64.7z M50.9,33.4h4.5l3.7,7.6L45,45.6v-2.3
		c0-0.8-0.3-1.5-0.8-2L50.9,33.4z M63.4,36.3v3.2l-1.9,0.6l-3.3-6.8c0.3-0.1,0.5-0.2,0.8-0.4L63.4,36.3z M45,57.1v-3.1l13.8,3.4
		l-3.4,6.9h-5c0,0,0,0,0,0l-5.7-5.9C44.9,58,45,57.5,45,57.1z M65,53c-0.9,0.2-1.5,1-1.5,1.9v1l-1.1-0.3l1.9-4L65,53z M59.9,55
		L45,51.4v-3.1l15.2-5l2.7,5.6L59.9,55z M67.8,53h-0.1l-2-4.2l2-4.2h0.1V53z"/>
	<g>
		<path class="st6" d="M55.5,53.7c0,2.2-1.8,4-4,4h-18c-2.2,0-4-1.8-4-4v-6c0-2.2,1.8-4,4-4h18c2.2,0,4,1.8,4,4V53.7z"/>
		<path class="st0" d="M51.5,58.2h-18c-2.5,0-4.5-2-4.5-4.5v-6c0-2.5,2-4.5,4.5-4.5h18c2.5,0,4.5,2,4.5,4.5v6
			C56,56.2,54,58.2,51.5,58.2z M33.5,44.2c-1.9,0-3.5,1.6-3.5,3.5v6c0,1.9,1.6,3.5,3.5,3.5h18c1.9,0,3.5-1.6,3.5-3.5v-6
			c0-1.9-1.6-3.5-3.5-3.5H33.5z"/>
	</g>
	<g>
		<path class="st1" d="M36.3,46.4h2.9c2.4,0,2.9,1.7,2.9,4.2c0,3.1-0.7,4.5-3,4.5h-2.8V46.4z M38.1,53.8h0.8c1.2,0,1.5-0.8,1.5-3.1
			c0-2-0.2-3-1.5-3h-0.7V53.8z"/>
		<path class="st1" d="M44.6,52.4v0.3c0,0.8,0.2,1.3,1.2,1.3c0.5,0,1-0.3,1-1.1c0-0.8-0.4-1.1-1.6-1.5c-1.6-0.5-2.3-1.2-2.3-2.6
			c0-1.7,1-2.5,2.7-2.5c1.6,0,2.7,0.7,2.7,2.3v0.2h-1.7c0-0.8-0.3-1.3-0.9-1.3c-0.8,0-1,0.5-1,1c0,0.5,0.2,0.9,0.9,1.2l1.3,0.6
			c1.3,0.6,1.6,1.2,1.6,2.3c0,1.8-1.1,2.7-3,2.7c-2,0-2.8-0.9-2.8-2.5v-0.4H44.6z"/>
	</g>
</g>
<g id="Layer_2">
</g>
</svg>
