<?xml version="1.0" encoding="utf-8"?>
<!-- Generator: Adobe Illustrator 19.1.0, SVG Export Plug-In . SVG Version: 6.00 Build 0)  -->
<svg version="1.1" xmlns="http://www.w3.org/2000/svg" xmlns:xlink="http://www.w3.org/1999/xlink" x="0px" y="0px" width="100px"
	 height="100px" 
	 viewBox="0 0 100 100" style="enable-background:new 0 0 100 100;" xml:space="preserve">
<style type="text/css">
	.st0{fill:#19486F;}
	.st1{fill:#2E73B8;}
	.st2{fill:#5294CF;}
	.st3{fill:#205B99;}
	.st4{fill:#99BCE3;}
	.st5{display:none;}
	.st6{fill:#FFFFFF;}
	.st7{enable-background:new    ;}
</style>
<g id="Layer_1">
	<path class="st0" d="M67.4,77.7H32.6c-5,0-9.1-4.1-9.1-9.1V33.9c0-5,4.1-9.1,9.1-9.1h34.8c5,0,9.1,4.1,9.1,9.1v34.8
		C76.5,73.7,72.4,77.7,67.4,77.7z"/>
	<path class="st1" d="M67.4,75.3H32.6c-5,0-9.1-4.1-9.1-9.1V31.4c0-5,4.1-9.1,9.1-9.1h34.8c5,0,9.1,4.1,9.1,9.1v34.8
		C76.5,71.2,72.4,75.3,67.4,75.3z"/>
	<g>
		<path class="st6" d="M29.8,28.1h3.1l1.5,7.3h0l1.5-7.3H39v10.3h-1.9v-8.3h0l-1.8,8.3h-1.6l-1.8-8.3h0v8.3h-1.9V28.1z"/>
		<path class="st6" d="M41.8,35.2v0.3c0,1,0.3,1.6,1.4,1.6c0.6,0,1.2-0.4,1.2-1.3c0-0.9-0.5-1.3-1.9-1.8c-1.9-0.6-2.7-1.4-2.7-3.1
			c0-2,1.2-3,3.2-3c1.9,0,3.2,0.8,3.2,2.8V31h-2c0-1-0.3-1.5-1.1-1.5c-0.9,0-1.2,0.6-1.2,1.2c0,0.6,0.2,1,1.1,1.4l1.6,0.7
			c1.6,0.7,2,1.5,2,2.7c0,2.2-1.3,3.2-3.6,3.2c-2.4,0-3.3-1.1-3.3-3v-0.4H41.8z"/>
		<path class="st6" d="M52,35.2v0.3c0,1,0.3,1.6,1.4,1.6c0.6,0,1.2-0.4,1.2-1.3c0-0.9-0.5-1.3-1.9-1.8c-1.9-0.6-2.7-1.4-2.7-3.1
			c0-2,1.2-3,3.2-3c1.9,0,3.2,0.8,3.2,2.8V31h-2c0-1-0.3-1.5-1.1-1.5c-0.9,0-1.2,0.6-1.2,1.2c0,0.6,0.2,1,1.1,1.4l1.6,0.7
			c1.6,0.7,2,1.5,2,2.7c0,2.2-1.3,3.2-3.6,3.2c-2.4,0-3.3-1.1-3.3-3v-0.4H52z"/>
		<path class="st6" d="M63.5,39.7l-1.2-1.3c-0.2,0.1-0.4,0.1-0.6,0.2c-0.2,0-0.5,0-0.7,0c-3.1,0-3.5-2.2-3.5-5.4s0.4-5.4,3.5-5.4
			c3.1,0,3.5,2.2,3.5,5.4c0,1.8-0.1,3.2-0.8,4.2l1.1,1.1L63.5,39.7z M60.9,37.1c1.2,0,1.4-1.1,1.4-3.8c0-2.8-0.2-3.8-1.4-3.8
			c-1.2,0-1.4,1.1-1.4,3.8C59.5,36,59.7,37.1,60.9,37.1z"/>
		<path class="st6" d="M65.3,38.4V28.1h2.1v8.6h3.7v1.7H65.3z"/>
	</g>
</g>
<g id="Layer_2">
</g>
</svg>
