<?xml version="1.0" encoding="utf-8"?>
<!-- Generator: Adobe Illustrator 19.1.0, SVG Export Plug-In . SVG Version: 6.00 Build 0)  -->
<svg version="1.1" xmlns="http://www.w3.org/2000/svg" xmlns:xlink="http://www.w3.org/1999/xlink" x="0px" y="0px" width="100px"
	 height="100px" 
	 viewBox="0 0 100 100" style="enable-background:new 0 0 100 100;" xml:space="preserve">
<style type="text/css">
	.st0{fill:#19486F;}
	.st1{fill:#2E73B8;}
	.st2{fill:#5294CF;}
	.st3{fill:#205B99;}
	.st4{fill:#99BCE3;}
	.st5{display:none;}
	.st6{fill:#FFFFFF;}
	.st7{enable-background:new    ;}
</style>
<g id="Layer_1">
	<path class="st0" d="M67.4,77.7H32.6c-5,0-9.1-4.1-9.1-9.1V33.9c0-5,4.1-9.1,9.1-9.1h34.8c5,0,9.1,4.1,9.1,9.1v34.8
		C76.5,73.7,72.4,77.7,67.4,77.7z"/>
	<path class="st1" d="M67.4,75.3H32.6c-5,0-9.1-4.1-9.1-9.1V31.4c0-5,4.1-9.1,9.1-9.1h34.8c5,0,9.1,4.1,9.1,9.1v34.8
		C76.5,71.2,72.4,75.3,67.4,75.3z"/>
	<g>
		<path class="st6" d="M26,30.6h2.5c1.5,0,2.2,0.9,2.2,2.3c0,1.4-0.8,2.3-2.3,2.3h-1.1v3.2H26V30.6z M27.3,34.2h0.9
			c0.7,0,1.3-0.4,1.3-1.4c0-0.8-0.3-1.4-1.3-1.4h-0.8V34.2z"/>
		<path class="st6" d="M33.5,32.4c1.7,0,2.2,1.3,2.2,3.1c0,1.8-0.6,3.1-2.2,3.1c-1.6,0-2.2-1.3-2.2-3.1
			C31.3,33.6,31.7,32.4,33.5,32.4z M33.5,37.7c0.9,0,1-0.7,1-2.2c0-1.3-0.2-2.2-1-2.2c-0.9,0-1,0.9-1,2.2
			C32.4,37,32.6,37.7,33.5,37.7z"/>
		<path class="st6" d="M39.2,34.2v-0.2c0-0.5-0.2-0.9-0.8-0.9c-0.5,0-0.8,0.2-0.8,0.8c0,0.5,0.2,0.6,0.8,0.9l0.8,0.3
			c0.9,0.3,1.3,0.8,1.3,1.7c0,1.3-0.9,1.8-2.1,1.8c-1.5,0-1.9-0.7-1.9-1.8v-0.2h1.1v0.2c0,0.7,0.2,1.1,0.9,1.1c0.6,0,1-0.3,1-0.9
			c0-0.4-0.2-0.7-0.6-0.9l-1-0.3c-0.9-0.3-1.3-0.8-1.3-1.7c0-1.1,0.8-1.6,2-1.6c1.5,0,1.8,0.9,1.8,1.6v0.3H39.2z"/>
		<path class="st6" d="M40.9,32.5h0.8v-1.7h1.2v1.7h1v0.9h-1v3.5c0,0.5,0.1,0.6,0.5,0.6c0.2,0,0.3,0,0.4,0v0.9
			c-0.3,0.1-0.6,0.1-1,0.1c-0.8,0-1.2-0.2-1.2-1.4v-3.7h-0.8V32.5z"/>
		<path class="st6" d="M45.6,38.9c0,0.4,0.3,0.7,0.9,0.7c0.6,0,1-0.4,1-1.1v-1h0c-0.2,0.5-0.8,0.8-1.3,0.8c-1.4,0-1.8-1.4-1.8-3
			c0-1.3,0.2-3,1.9-3c0.7,0,1.2,0.5,1.3,0.9h0v-0.7h1.1v5.6c0,1.4-0.6,2.3-2.2,2.3c-1.8,0-2-1-2-1.5H45.6z M46.5,37.4
			c0.9,0,1-1.2,1-2.1c0-1-0.1-2-0.9-2c-0.9,0-1,0.9-1,2C45.5,36.3,45.6,37.4,46.5,37.4z"/>
		<path class="st6" d="M49.8,32.5H51v0.9h0c0.3-0.7,0.7-1.1,1.4-1.1c0.1,0,0.2,0,0.3,0v1.2c-0.1,0-0.3-0.1-0.5-0.1
			c-0.5,0-1.2,0.2-1.2,1.3v3.5h-1.2V32.5z"/>
		<path class="st6" d="M54.3,35.6V36c0,0.8,0.1,1.8,1,1.8c0.8,0,0.9-1,0.9-1.3h1.1c0,1.3-0.8,2.1-2.1,2.1c-1,0-2.2-0.3-2.2-3
			c0-1.6,0.3-3.2,2.2-3.2c1.7,0,2.1,1,2.1,2.6v0.6H54.3z M56.2,34.8v-0.3c0-0.7-0.2-1.3-0.9-1.3c-0.8,0-1,0.7-1,1.5v0.1H56.2z"/>
		<path class="st6" d="M59.5,36v0.2c0,1,0.4,1.4,1.3,1.4c0.8,0,1.2-0.6,1.2-1.1c0-0.8-0.4-1.2-1.1-1.4l-0.9-0.3
			c-1.1-0.4-1.6-1-1.6-2.2c0-1.4,1-2.2,2.4-2.2c2,0,2.2,1.3,2.2,2.1v0.2h-1.3v-0.2c0-0.7-0.3-1.1-1.1-1.1c-0.5,0-1.1,0.3-1.1,1.1
			c0,0.7,0.3,1,1.2,1.3l0.8,0.3c1.1,0.4,1.6,1,1.6,2.1c0,1.7-1,2.4-2.6,2.4c-1.9,0-2.4-1.3-2.4-2.4V36H59.5z"/>
		<path class="st6" d="M67.9,38.3c-0.3,0.2-0.7,0.3-1.2,0.3c-1.8,0-2.6-1.3-2.6-4.1s0.8-4.1,2.6-4.1c1.8,0,2.6,1.3,2.6,4.1
			c0,1.5-0.3,2.5-0.6,3.1l0.8,0.8l-0.7,0.7L67.9,38.3z M67.2,36.3l0.5,0.5c0.2-0.5,0.3-1.2,0.3-2.3c0-2.6-0.6-3.1-1.3-3.1
			s-1.3,0.5-1.3,3.1c0,2.7,0.6,3.2,1.3,3.2c0.2,0,0.3,0,0.5-0.1L66.5,37L67.2,36.3z"/>
		<path class="st6" d="M70.4,30.6h1.3v6.8h3v1.1h-4.3V30.6z"/>
	</g>
</g>
<g id="Layer_2">
</g>
</svg>
