<?xml version="1.0" encoding="utf-8"?>
<!-- Generator: Adobe Illustrator 19.1.0, SVG Export Plug-In . SVG Version: 6.00 Build 0)  -->
<svg version="1.1" xmlns="http://www.w3.org/2000/svg" xmlns:xlink="http://www.w3.org/1999/xlink" x="0px" y="0px" width="100px"
	 height="100px" 
	 viewBox="0 0 100 100" style="enable-background:new 0 0 100 100;" xml:space="preserve">
<style type="text/css">
	.st0{fill:#19486F;}
	.st1{fill:#2E73B8;}
	.st2{fill:#5294CF;}
	.st3{fill:#205B99;}
	.st4{fill:#99BCE3;}
	.st5{display:none;}
	.st6{fill:#FFFFFF;}
	.st7{enable-background:new    ;}
</style>
<g id="Layer_1">
	<path class="st0" d="M67.4,77.7H32.6c-5,0-9.1-4.1-9.1-9.1V33.9c0-5,4.1-9.1,9.1-9.1h34.8c5,0,9.1,4.1,9.1,9.1v34.8
		C76.5,73.7,72.4,77.7,67.4,77.7z"/>
	<path class="st1" d="M67.4,75.3H32.6c-5,0-9.1-4.1-9.1-9.1V31.4c0-5,4.1-9.1,9.1-9.1h34.8c5,0,9.1,4.1,9.1,9.1v34.8
		C76.5,71.2,72.4,75.3,67.4,75.3z"/>
	<g>
		<g>
			<path class="st6" d="M72.5,67.5c0,2.2-1.8,4-4,4h-19c-2.2,0-4-1.8-4-4v-6c0-2.2,1.8-4,4-4h19c2.2,0,4,1.8,4,4V67.5z"/>
			<path class="st0" d="M68.5,72h-19c-2.5,0-4.5-2-4.5-4.5v-6c0-2.5,2-4.5,4.5-4.5h19c2.5,0,4.5,2,4.5,4.5v6C73,69.9,71,72,68.5,72z
				 M49.5,58c-1.9,0-3.5,1.6-3.5,3.5v6c0,1.9,1.6,3.5,3.5,3.5h19c1.9,0,3.5-1.6,3.5-3.5v-6c0-1.9-1.6-3.5-3.5-3.5H49.5z"/>
		</g>
	</g>
	<g class="st7">
		<path class="st1" d="M49.5,60.6h2.8c1.6,0,2.2,1.2,2.2,2.4c0,1.6-1,2.4-2.5,2.4h-0.8v3.1h-1.6V60.6z M51.1,64.2h0.7
			c0.6,0,1.1-0.4,1.1-1.2c0-0.8-0.3-1.2-1.1-1.2h-0.7V64.2z"/>
		<path class="st1" d="M55.3,68.5v-7.9h1.6v7.9H55.3z"/>
		<path class="st1" d="M60.6,60.5c2.4,0,2.7,1.7,2.7,4.1c0,2.4-0.3,4.1-2.7,4.1c-2.4,0-2.7-1.7-2.7-4.1
			C57.9,62.2,58.2,60.5,60.6,60.5z M60.6,67.5c0.9,0,1.1-0.8,1.1-2.9c0-2.1-0.2-2.9-1.1-2.9c-0.9,0-1.1,0.8-1.1,2.9
			C59.5,66.7,59.7,67.5,60.6,67.5z"/>
		<path class="st1" d="M64.2,60.6H67c1.6,0,2.2,1.2,2.2,2.4c0,1.6-1,2.4-2.5,2.4h-0.8v3.1h-1.6V60.6z M65.8,64.2h0.7
			c0.6,0,1.1-0.4,1.1-1.2c0-0.8-0.3-1.2-1.1-1.2h-0.7V64.2z"/>
	</g>
</g>
<g id="Layer_2">
</g>
</svg>
