<?xml version="1.0" encoding="utf-8"?>
<!-- Generator: Adobe Illustrator 19.1.0, SVG Export Plug-In . SVG Version: 6.00 Build 0)  -->
<svg version="1.1" xmlns="http://www.w3.org/2000/svg" xmlns:xlink="http://www.w3.org/1999/xlink" x="0px" y="0px" width="100px"
	 height="100px" 
	 viewBox="0 0 100 100" style="enable-background:new 0 0 100 100;" xml:space="preserve">
<style type="text/css">
	.st0{fill:#19486F;}
	.st1{fill:#2E73B8;}
	.st2{fill:#5294CF;}
	.st3{fill:#205B99;}
	.st4{fill:#99BCE3;}
	.st5{display:none;}
	.st6{fill:#FFFFFF;}
	.st7{enable-background:new    ;}
</style>
<g id="Layer_1">
	<polygon class="st0" points="29.5,32.7 20,32.7 20,30.3 24.8,23.2 29.5,30.3 	"/>
	<polygon class="st0" points="43,32.7 33.5,32.7 33.5,30.3 38.3,23.2 43,30.3 	"/>
	<polygon class="st0" points="80,32.7 47,32.7 47,30.3 63.5,23.2 80,30.3 	"/>
	<polygon class="st0" points="29.5,48.2 20,48.2 20,45.8 24.8,38.7 29.5,45.8 	"/>
	<polygon class="st0" points="43,48.2 33.5,48.2 33.5,45.8 38.3,38.7 43,45.8 	"/>
	<polygon class="st0" points="80,48.2 47,48.2 47,45.8 63.5,38.7 80,45.8 	"/>
	<polygon class="st0" points="29.5,63.7 20,63.7 20,61.3 24.8,54.2 29.5,61.3 	"/>
	<polygon class="st0" points="43,63.7 33.5,63.7 33.5,61.3 38.3,54.2 43,61.3 	"/>
	<polygon class="st0" points="80,63.7 47,63.7 47,61.3 63.5,54.2 80,61.3 	"/>
	<polygon class="st0" points="29.5,79.2 20,79.2 20,76.8 24.8,69.7 29.5,76.8 	"/>
	<polygon class="st0" points="43,79.2 33.5,79.2 33.5,76.8 38.3,69.7 43,76.8 	"/>
	<polygon class="st0" points="80,79.2 47,79.2 47,76.8 63.5,69.7 80,76.8 	"/>
	<rect x="20" y="20.8" class="st1" width="9.5" height="9.5"/>
	<rect x="20" y="36.3" class="st1" width="9.5" height="9.5"/>
	<rect x="20" y="51.8" class="st1" width="9.5" height="9.5"/>
	<rect x="20" y="67.3" class="st1" width="9.5" height="9.5"/>
	<rect x="47" y="20.8" class="st1" width="33" height="9.5"/>
	<rect x="47" y="36.3" class="st1" width="33" height="9.5"/>
	<rect x="47" y="51.8" class="st1" width="33" height="9.5"/>
	<rect x="47" y="67.3" class="st1" width="33" height="9.5"/>
	<rect x="33.5" y="20.8" class="st1" width="9.5" height="9.5"/>
	<rect x="33.5" y="36.3" class="st1" width="9.5" height="9.5"/>
	<rect x="33.5" y="51.8" class="st1" width="9.5" height="9.5"/>
	<rect x="33.5" y="67.3" class="st1" width="9.5" height="9.5"/>
</g>
<g id="Layer_2">
</g>
</svg>
