<?xml version="1.0" encoding="utf-8"?>
<!-- Generator: Adobe Illustrator 19.1.0, SVG Export Plug-In . SVG Version: 6.00 Build 0)  -->
<svg version="1.1" xmlns="http://www.w3.org/2000/svg" xmlns:xlink="http://www.w3.org/1999/xlink" x="0px" y="0px" width="100px"
	 height="100px" 
	 viewBox="0 0 100 100" style="enable-background:new 0 0 100 100;" xml:space="preserve">
<style type="text/css">
	.st0{fill:#19486F;}
	.st1{fill:#2E73B8;}
	.st2{fill:#5294CF;}
	.st3{fill:#205B99;}
	.st4{fill:#99BCE3;}
	.st5{display:none;}
	.st6{fill:#FFFFFF;}
	.st7{enable-background:new    ;}
</style>
<g id="Layer_1">
	<polygon class="st4" points="74.5,56.1 60.1,55.3 60.1,55.3 60.1,55 60.1,55 39.9,55 39.9,55 39.9,55.3 39.9,55.3 25.5,56.1 
		18,58.4 25.5,67.3 39.9,69 39.9,69 60.1,69 60.1,69 74.5,67.3 82,58.4 	"/>
	<polygon class="st0" points="74.5,43.9 60.1,44.7 60.1,44.7 60.1,45.1 60.1,45.1 39.9,45.1 39.9,45.1 39.9,44.7 39.9,44.7 
		25.5,43.9 18,41.6 25.5,32.7 39.9,31.1 39.9,31.1 60.1,31.1 60.1,31.1 74.5,32.7 82,41.6 	"/>
	<polygon class="st1" points="82,41.6 74,38 65.9,29.5 74,21.1 82,29.8 	"/>
	<polygon class="st1" points="82,58.4 74,62 63.4,72 74,78.9 82,70.2 	"/>
	<polygon class="st2" points="60,35.1 43.5,24.5 60,14 74,21.1 74,38 	"/>
	<polygon class="st2" points="60,65 45.9,75.5 60,86 74,78.9 74,62 	"/>
	<polygon class="st2" points="67,59.2 57,61 47.1,50 57,38.9 67,40.3 	"/>
	<polygon class="st1" points="60,35.1 60,14 40,14 28.6,28.1 40,35.1 	"/>
	<polygon class="st1" points="60,65 60,86 40,86 28.6,71.6 40,65 	"/>
	<polygon class="st1" points="57,61 43,61 34.5,50 43,38.9 57,38.9 	"/>
	<polygon class="st3" points="40,35.1 40,14 26,21.1 20.3,33.8 26,38 	"/>
	<polygon class="st3" points="40,65 40,86 26,78.9 19.8,65 26,62 	"/>
	<polygon class="st3" points="33,59.2 43,61 43,38.9 33,40.3 	"/>
	<polygon class="st0" points="18,41.6 26,38 26,21.1 18,29.8 	"/>
	<polygon class="st0" points="18,58.4 26,62 26,78.9 18,70.2 	"/>
</g>
<g id="Layer_2">
</g>
</svg>
