<?xml version="1.0" encoding="utf-8"?>
<!-- Generator: Adobe Illustrator 19.1.0, SVG Export Plug-In . SVG Version: 6.00 Build 0)  -->
<svg version="1.1" xmlns="http://www.w3.org/2000/svg" xmlns:xlink="http://www.w3.org/1999/xlink" x="0px" y="0px" width="100px"
	 height="100px" 
	 viewBox="0 0 100 100" style="enable-background:new 0 0 100 100;" xml:space="preserve">
<style type="text/css">
	.st0{fill:#19486F;}
	.st1{fill:#2E73B8;}
	.st2{fill:#5294CF;}
	.st3{fill:#205B99;}
	.st4{fill:#99BCE3;}
	.st5{display:none;}
	.st6{fill:#FFFFFF;}
	.st7{enable-background:new    ;}
</style>
<g id="Layer_1">
	<path class="st0" d="M71.8,29.7c0,3-9.8,5.5-21.8,5.5s-21.8-2.5-21.8-5.5v-2.5l21.8-3l21.8,3V29.7z"/>
	<path class="st0" d="M50,39.6L28.2,70.3v2.5c0,3,9.8,5.5,21.8,5.5s21.8-2.5,21.8-5.5v-2.5L50,39.6z"/>
	<ellipse class="st1" cx="50" cy="27.2" rx="21.8" ry="5.5"/>
	<path class="st1" d="M50,37.1c-12.1,0-21.8-2.5-21.8-5.5v38.8c0,3,9.8,5.5,21.8,5.5s21.8-2.5,21.8-5.5V31.6
		C71.8,34.6,62.1,37.1,50,37.1z"/>
	<g>
		<path class="st6" d="M39.5,44.2h12.8c4.4,0,8.8,2,8.8,7.1c0,2.7-1.3,5.3-4,6.3v0.1c2.7,0.6,3.5,3.6,3.7,6c0.1,1.1,0.2,4.8,1.1,5.7
			h-6.5c-0.6-0.8-0.7-3.3-0.7-4c-0.2-2.5-0.6-5.2-3.7-5.2h-5v9.2h-6.6V44.2z M46.1,55.2h5.5c2,0,3-1.1,3-3c0-1.9-1.5-2.7-3.3-2.7
			h-5.2V55.2z"/>
	</g>
</g>
<g id="Layer_2">
</g>
</svg>
