<?xml version="1.0" encoding="utf-8"?>
<!-- Generator: Adobe Illustrator 19.1.0, SVG Export Plug-In . SVG Version: 6.00 Build 0)  -->
<svg version="1.1" xmlns="http://www.w3.org/2000/svg" xmlns:xlink="http://www.w3.org/1999/xlink" x="0px" y="0px" width="100px"
	 height="100px" 
	 viewBox="0 0 100 100" style="enable-background:new 0 0 100 100;" xml:space="preserve">
<style type="text/css">
	.st0{fill:#19486F;}
	.st1{fill:#2E73B8;}
	.st2{fill:#5294CF;}
	.st3{fill:#205B99;}
	.st4{fill:#99BCE3;}
	.st5{display:none;}
	.st6{fill:#FFFFFF;}
	.st7{enable-background:new    ;}
</style>
<g id="Layer_1">
	<polygon class="st1" points="82.3,37.5 82.3,29.9 74.3,21.1 61.2,50 74.3,78.8 82.3,70.1 82.3,62.5 79.6,64.3 79.6,60.6 82.3,59.3 
		82.3,51.6 79.6,51.7 79.6,48.3 82.3,48.4 82.3,40.9 79.6,39.5 79.6,37 	"/>
	<polygon class="st2" points="60,86 74.3,78.9 74.3,21.1 60,14 43.8,50.6 	"/>
	<polygon class="st1" points="40,86 60,86 60,14 40,14 29.7,50.6 	"/>
	<polygon class="st3" points="40,86 25.6,78.9 21.1,50.6 25.6,21.1 40,14 	"/>
	<polygon class="st0" points="79.6,60.6 74.3,63.2 60,66.3 50.3,66.3 40,66.3 26,63.2 25.8,63.2 25.6,63.2 25.6,52.3 40,53.3 
		50.3,53.3 60,53.3 74.3,52.3 82.3,51.6 79.6,51.6 79.6,48.4 82.2,48.4 74.3,47.8 60,47.3 50.3,47.3 40.1,47.3 25.6,47.7 25.6,36.7 
		25.8,36.7 40.1,33.3 50.3,33.3 60,33.3 74.3,36.7 79.6,39.5 79.6,37.7 82.3,37.5 74.3,31.9 60,27.3 50.3,27.3 40.1,27.3 25.6,32.1 
		25.6,21.1 18.6,29.9 18.6,37.5 20.6,37.7 20.6,39.6 18.6,40.8 18.6,48.4 20.6,48.4 20.6,51.6 18.6,51.6 18.6,59.2 20.6,60.4 
		20.6,62.3 18.6,62.5 18.6,70.1 25.6,78.8 25.6,67.9 40,72.3 50.3,72.3 60,72.3 74.3,67.9 82.3,62.5 79.6,62.3 	"/>
</g>
<g id="Layer_2">
</g>
</svg>
