<?xml version="1.0" encoding="utf-8"?>
<!-- Generator: Adobe Illustrator 19.1.0, SVG Export Plug-In . SVG Version: 6.00 Build 0)  -->
<svg version="1.1" xmlns="http://www.w3.org/2000/svg" xmlns:xlink="http://www.w3.org/1999/xlink" x="0px" y="0px" width="100px"
	 height="100px" 
	 viewBox="0 0 100 100" style="enable-background:new 0 0 100 100;" xml:space="preserve">
<style type="text/css">
	.st0{fill:#19486F;}
	.st1{fill:#2E73B8;}
	.st2{fill:#5294CF;}
	.st3{fill:#205B99;}
	.st4{fill:#99BCE3;}
	.st5{display:none;}
	.st6{fill:#FFFFFF;}
	.st7{enable-background:new    ;}
</style>
<g id="Layer_1">
	<path class="st0" d="M71.8,29.7c0,3-9.8,5.5-21.8,5.5s-21.8-2.5-21.8-5.5v-2.5l21.8-3l21.8,3V29.7z"/>
	<path class="st0" d="M50,39.6L28.2,70.3v2.5c0,3,9.8,5.5,21.8,5.5s21.8-2.5,21.8-5.5v-2.5L50,39.6z"/>
	<ellipse class="st1" cx="50" cy="27.2" rx="21.8" ry="5.5"/>
	<path class="st1" d="M50,37.1c-12.1,0-21.8-2.5-21.8-5.5v38.8c0,3,9.8,5.5,21.8,5.5s21.8-2.5,21.8-5.5V31.6
		C71.8,34.6,62.1,37.1,50,37.1z"/>
	<g>
		<path class="st6" d="M45.1,60.9c0.2,3.3,2.2,4.4,5.3,4.4c2.2,0,4.5-0.8,4.5-2.9c0-2.5-4-3-8.1-4.1c-4-1.1-8.2-3-8.2-8.1
			c0-6.1,6.2-8.5,11.5-8.5c5.6,0,11.2,2.7,11.3,9.1H54c0.1-2.6-2.3-3.4-4.5-3.4c-1.6,0-3.5,0.6-3.5,2.4c0,2.2,4.1,2.6,8.1,3.7
			c4.1,1.1,8.1,3,8.1,8.1c0,7.1-6.1,9.4-12.2,9.4c-6.5,0-12.2-2.8-12.2-10H45.1z"/>
	</g>
</g>
<g id="Layer_2">
</g>
</svg>
