<?xml version="1.0" encoding="utf-8"?>
<!-- Generator: Adobe Illustrator 19.1.0, SVG Export Plug-In . SVG Version: 6.00 Build 0)  -->
<svg version="1.1" xmlns="http://www.w3.org/2000/svg" xmlns:xlink="http://www.w3.org/1999/xlink" x="0px" y="0px" width="100px"
	 height="100px" 
	 viewBox="0 0 100 100" style="enable-background:new 0 0 100 100;" xml:space="preserve">
<style type="text/css">
	.st0{fill:#19486F;}
	.st1{fill:#2E73B8;}
	.st2{fill:#5294CF;}
	.st3{fill:#205B99;}
	.st4{fill:#99BCE3;}
	.st5{display:none;}
	.st6{fill:#FFFFFF;}
	.st7{enable-background:new    ;}
</style>
<g id="Layer_1">
	<polygon class="st2" points="75,26.3 80,28.7 80,71.1 75,73.6 67.1,50 	"/>
	<polygon class="st3" points="25,26.3 20,28.7 20,71.1 25,73.6 37.5,50 	"/>
	<polygon class="st3" points="50,67.5 75,73.6 75,26.3 50,32.4 	"/>
	<polygon class="st2" points="50,67.5 25,73.6 25,26.3 50,32.4 	"/>
	<polygon class="st2" points="56,83 65.6,78.2 65.6,21.8 56,17 46.5,48.4 	"/>
	<polygon class="st3" points="44,83 34.4,78.2 34.4,21.8 44,17 52.5,50 	"/>
	<rect x="44" y="17" class="st1" width="12" height="66"/>
</g>
<g id="Layer_2">
</g>
</svg>
