<?xml version="1.0" encoding="utf-8"?>
<!-- Generator: Adobe Illustrator 19.1.0, SVG Export Plug-In . SVG Version: 6.00 Build 0)  -->
<svg version="1.1" xmlns="http://www.w3.org/2000/svg" xmlns:xlink="http://www.w3.org/1999/xlink" x="0px" y="0px" width="100px"
	 height="100px" 
	 viewBox="0 0 100 100" style="enable-background:new 0 0 100 100;" xml:space="preserve">
<style type="text/css">
	.st0{fill:#19486F;}
	.st1{fill:#2E73B8;}
	.st2{fill:#5294CF;}
	.st3{fill:#205B99;}
	.st4{fill:#99BCE3;}
	.st5{display:none;}
	.st6{fill:#FFFFFF;}
	.st7{enable-background:new    ;}
</style>
<g id="Layer_1">
	<path class="st0" d="M67.4,77.7H32.6c-5,0-9.1-4.1-9.1-9.1V33.9c0-5,4.1-9.1,9.1-9.1h34.8c5,0,9.1,4.1,9.1,9.1v34.8
		C76.5,73.7,72.4,77.7,67.4,77.7z"/>
	<path class="st1" d="M67.4,75.3H32.6c-5,0-9.1-4.1-9.1-9.1V31.4c0-5,4.1-9.1,9.1-9.1h34.8c5,0,9.1,4.1,9.1,9.1v34.8
		C76.5,71.2,72.4,75.3,67.4,75.3z"/>
	<polygon class="st6" points="69,39 69,35 64,35 64,30 60,30 60,35 58,35 58,30 54,30 54,35 52,35 52,30 48,30 48,35 46,35 46,30 
		42,30 42,35 40,35 40,30 36,30 36,35 31,35 31,39 36,39 36,41 31,41 31,45 36,45 36,47 31,47 31,51 36,51 36,53 31,53 31,57 36,57 
		36,59 31,59 31,63 36,63 36,68 40,68 40,63 42,63 42,68 46,68 46,63 48,63 48,68 52,68 52,63 54,63 54,68 58,68 58,63 60,63 60,68 
		64,68 64,63 69,63 69,59 64,59 64,57 69,57 69,53 64,53 64,51 69,51 69,47 64,47 64,45 69,45 69,41 64,41 64,39 	"/>
	<path class="st1" d="M42,40h9.9c3.2,0,5,2.2,5,4.8c0,2.1-1,3.6-3,4.4v0.1c2,0.5,2.6,2.6,2.7,4.3c0.1,1.1,0.2,3.4,0.9,4.4h-3.9
		c-0.5-1-0.4-2.9-0.6-4.3c-0.3-1.9-1-2.7-3-2.7H46v7h-4V40z M46,48h4.5c1.7,0,2.7-0.8,2.7-2.5c0-1.7-0.9-2.5-2.7-2.5H46V48z"/>
</g>
<g id="Layer_2">
</g>
</svg>
