<?xml version="1.0" encoding="utf-8"?>
<!-- Generator: Adobe Illustrator 19.1.0, SVG Export Plug-In . SVG Version: 6.00 Build 0)  -->
<svg version="1.1" xmlns="http://www.w3.org/2000/svg" xmlns:xlink="http://www.w3.org/1999/xlink" x="0px" y="0px" width="100px"
	 height="100px" 
	 viewBox="0 0 100 100" style="enable-background:new 0 0 100 100;" xml:space="preserve">
<style type="text/css">
	.st0{fill:#19486F;}
	.st1{fill:#2E73B8;}
	.st2{fill:#5294CF;}
	.st3{fill:#205B99;}
	.st4{fill:#99BCE3;}
	.st5{display:none;}
	.st6{fill:#FFFFFF;}
	.st7{enable-background:new    ;}
</style>
<g id="Layer_1">
	<path class="st0" d="M67.4,77.7H32.6c-5,0-9.1-4.1-9.1-9.1V33.9c0-5,4.1-9.1,9.1-9.1h34.8c5,0,9.1,4.1,9.1,9.1v34.8
		C76.5,73.7,72.4,77.7,67.4,77.7z"/>
	<path class="st1" d="M67.4,75.3H32.6c-5,0-9.1-4.1-9.1-9.1V31.4c0-5,4.1-9.1,9.1-9.1h34.8c5,0,9.1,4.1,9.1,9.1v34.8
		C76.5,71.2,72.4,75.3,67.4,75.3z"/>
	<g>
		<path class="st6" d="M37.5,36v0.2c0,2-0.8,4-3.4,4c-2.8,0-3.7-1.8-3.7-5.8s0.9-5.8,3.7-5.8c3.2,0,3.4,2.3,3.4,3.5v0.2h-1.8v-0.2
			c0-1-0.3-2.2-1.6-2.2c-1.3,0-1.9,0.8-1.9,4.4s0.6,4.5,1.9,4.5c1.5,0,1.7-1.7,1.7-2.7V36H37.5z"/>
		<path class="st6" d="M40.9,28.8h2.3L46.1,40h-1.9l-0.7-2.7h-3.3L39.5,40h-1.9L40.9,28.8z M43.2,35.8l-1.3-5.5h0l-1.3,5.5H43.2z"/>
		<path class="st6" d="M53.7,36v0.2c0,2-0.8,4-3.4,4c-2.8,0-3.7-1.8-3.7-5.8s0.9-5.8,3.7-5.8c3.2,0,3.4,2.3,3.4,3.5v0.2h-1.8v-0.2
			c0-1-0.3-2.2-1.6-2.2c-1.3,0-1.9,0.8-1.9,4.4s0.6,4.5,1.9,4.5c1.5,0,1.7-1.7,1.7-2.7V36H53.7z"/>
		<path class="st6" d="M55,28.8h1.8v4.5h3.3v-4.5h1.8V40h-1.8v-5.2h-3.3V40H55V28.8z"/>
		<path class="st6" d="M63.7,28.8h6v1.5h-4.3v3.1h4v1.5h-4v3.6h4.4V40h-6.2V28.8z"/>
	</g>
</g>
<g id="Layer_2">
</g>
</svg>
