<?xml version="1.0" encoding="utf-8"?>
<!-- Generator: Adobe Illustrator 19.1.0, SVG Export Plug-In . SVG Version: 6.00 Build 0)  -->
<svg version="1.1" xmlns="http://www.w3.org/2000/svg" xmlns:xlink="http://www.w3.org/1999/xlink" x="0px" y="0px" width="100px"
	 height="100px" 
	 viewBox="0 0 100 100" style="enable-background:new 0 0 100 100;" xml:space="preserve">
<style type="text/css">
	.st0{fill:#19486F;}
	.st1{fill:#2E73B8;}
	.st2{fill:#5294CF;}
	.st3{fill:#205B99;}
	.st4{fill:#99BCE3;}
	.st5{display:none;}
	.st6{fill:#FFFFFF;}
	.st7{enable-background:new    ;}
</style>
<g id="Layer_1">
	<polygon class="st4" points="79.8,62.7 50,59 20.2,62.7 50,86 	"/>
	<polygon class="st0" points="80,37.3 49.8,41 20,37.3 50,14 	"/>
	<polygon class="st3" points="50,14 20,28.9 20,37.3 50,28.4 	"/>
	<polygon class="st3" points="50,71.6 20,62.7 20,71.1 50,86 	"/>
	<polygon class="st3" points="50,60.9 37,59 37,41.2 50,39.3 62.3,50.1 	"/>
	<polygon class="st2" points="50,14 80,28.9 80,37.3 50,28.4 	"/>
	<polygon class="st2" points="50,71.6 80,62.7 80,71.1 50,86 	"/>
	<polygon class="st2" points="50,60.9 63,59 63,41.2 50,39.3 	"/>
</g>
<g id="Layer_2">
</g>
</svg>
