<?xml version="1.0" encoding="utf-8"?>
<!-- Generator: Adobe Illustrator 19.1.0, SVG Export Plug-In . SVG Version: 6.00 Build 0)  -->
<svg version="1.1" xmlns="http://www.w3.org/2000/svg" xmlns:xlink="http://www.w3.org/1999/xlink" x="0px" y="0px" width="100px"
	 height="100px" 
	 viewBox="0 0 100 100" style="enable-background:new 0 0 100 100;" xml:space="preserve">
<style type="text/css">
	.st0{fill:#19486F;}
	.st1{fill:#2E73B8;}
	.st2{fill:#5294CF;}
	.st3{fill:#205B99;}
	.st4{fill:#99BCE3;}
	.st5{display:none;}
	.st6{fill:#FFFFFF;}
	.st7{enable-background:new    ;}
</style>
<g id="Layer_1">
	<path class="st0" d="M32.6,24h34.8c5,0,9.1,4.1,9.1,9.1v2.2v13.1c-1.8-0.9-5.7-1.9-11.6-1.9c-2.6,0-4.8,0.2-6.7,0.5
		c-3.9,0.7-6,1.8-6,2.5v26c0,0.4,0.6,1,1.7,1.6h-1.7H32.6c-5,0-9.1-4.1-9.1-9.1V35.3v-2.2C23.5,28.1,27.6,24,32.6,24z"/>
	<path class="st1" d="M32.6,21.8h34.8c5,0,9.1,4.1,9.1,9.1v2.2v13.1c-1.8-0.9-5.7-1.9-11.6-1.9c-2.6,0-4.8,0.2-6.7,0.5
		c-3.9,0.7-6,1.8-6,2.5v26c0,0.4,0.6,1,1.7,1.6h-1.7H32.6c-5,0-9.1-4.1-9.1-9.1V33.1v-2.2C23.5,25.9,27.6,21.8,32.6,21.8z"/>
	<path class="st0" d="M65.8,51.3c-2.2,0-4.1,0.2-5.6,0.4c-1.9,0.3-5-0.4-5-0.4s0,2.3,0,2.5c0,0.6,1.7,1.5,5,2.1
		c1.5,0.3,3.4,0.4,5.6,0.4c6.9,0,10.7-1.6,10.7-2.5c0-0.3,0-2.5,0-2.5S70.7,51.3,65.8,51.3z"/>
	<path class="st0" d="M55,58.6l0,17.1c0,0.9,3,2.5,10.1,2.5c3.9,0,6.9-0.5,8.8-1c1.4-0.5,2.4-1,2.5-1.4v-17c-2.1,1.3-6.4,2-10.6,2
		h-0.3c-0.4,0-0.9,0-1.3,0l-0.2,0c-0.4,0-0.7,0-1.1-0.1c-0.2,0-0.4,0-0.5,0c-0.3,0-0.6,0-0.8-0.1c-0.2,0-0.3,0-0.5-0.1
		c-0.3,0-0.6-0.1-0.9-0.1C57.9,60,56.1,59.4,55,58.6z"/>
	<path class="st1" d="M65.8,48.8c-2.2,0-4.1,0.2-5.6,0.4c-3.3,0.5-5,1.5-5,2.1c0,0.6,1.7,1.5,5,2.1c1.5,0.3,3.4,0.4,5.6,0.4
		c6.9,0,10.7-1.6,10.7-2.5C76.5,50.4,72.7,48.8,65.8,48.8z"/>
	<path class="st1" d="M55,56.1l0,17.1c0,0.9,3,2.5,10.1,2.5c3.9,0,6.9-0.5,8.8-1c1.4-0.5,2.4-1,2.5-1.4v-17c-2.1,1.3-6.4,2-10.6,2
		h-0.3c-0.4,0-0.9,0-1.3,0l-0.2,0c-0.4,0-0.7,0-1.1-0.1c-0.2,0-0.4,0-0.5,0c-0.3,0-0.6,0-0.8-0.1c-0.2,0-0.3,0-0.5-0.1
		c-0.3,0-0.6-0.1-0.9-0.1C57.9,57.5,56.1,56.9,55,56.1z"/>
	<path class="st0" d="M32.6,74.8h21.3l0,2.2H32.6c-5,0-9.1-4.1-9.1-9.1v-2.2C23.5,70.7,27.6,74.8,32.6,74.8z"/>
	<g>
		<path class="st6" d="M32.2,27.9c3.1,0,3.5,2.2,3.5,5.4s-0.4,5.4-3.5,5.4c-3.1,0-3.5-2.2-3.5-5.4S29.1,27.9,32.2,27.9z M32.2,37.1
			c1.2,0,1.4-1.1,1.4-3.8c0-2.8-0.2-3.8-1.4-3.8c-1.2,0-1.4,1.1-1.4,3.8C30.8,36,31,37.1,32.2,37.1z"/>
		<path class="st6" d="M36.6,28.1h3.9c1.7,0,2.8,0.9,2.8,2.7c0,1.4-0.6,2.3-1.7,2.6v0c1.4,0.2,1.6,1,1.7,3.2c0,1.1,0.1,1.7,0.5,1.9
			v0.1h-2.3c-0.2-0.3-0.2-0.7-0.3-1.1l-0.1-2c0-0.8-0.4-1.3-1.2-1.3h-1.1v4.4h-2.1V28.1z M38.7,32.6h0.9c1,0,1.6-0.4,1.6-1.6
			c0-1-0.5-1.4-1.4-1.4h-1V32.6z"/>
		<path class="st6" d="M46.6,28.1h2.6l2.7,10.3h-2.2l-0.5-2.2h-2.8l-0.5,2.2h-2.2L46.6,28.1z M46.9,34.5h2l-1-4.7h0L46.9,34.5z"/>
		<path class="st6" d="M56.6,31.6c0-1.5-0.3-2.2-1.2-2.2c-1.1,0-1.3,1.1-1.3,4c0,3.1,0.4,3.7,1.3,3.7c0.8,0,1.3-0.4,1.3-2.6h2.1
			c0,2.2-0.6,4.2-3.3,4.2c-3.1,0-3.5-2.2-3.5-5.4s0.4-5.4,3.5-5.4c3,0,3.2,2.2,3.2,3.7H56.6z"/>
		<path class="st6" d="M59.5,38.4V28.1h2.1v8.6h3.7v1.7H59.5z"/>
		<path class="st6" d="M71.7,28.1v1.7H68v2.4h3.5v1.7H68v2.8h3.8v1.7h-5.9V28.1H71.7z"/>
	</g>
	<g>
		<path class="st6" d="M60,60h3.3l2.3,9.7h0l2.3-9.7h3.2v13.1h-2V62.3h0l-2.6,10.9h-1.8l-2.6-10.9h0v10.9h-2V60z"/>
	</g>
</g>
<g id="Layer_2">
</g>
</svg>
