<?xml version="1.0" encoding="utf-8"?>
<!-- Generator: Adobe Illustrator 19.1.0, SVG Export Plug-In . SVG Version: 6.00 Build 0)  -->
<svg version="1.1" xmlns="http://www.w3.org/2000/svg" xmlns:xlink="http://www.w3.org/1999/xlink" x="0px" y="0px" width="100px"
	 height="100px" 
	 viewBox="0 0 100 100" style="enable-background:new 0 0 100 100;" xml:space="preserve">
<style type="text/css">
	.st0{fill:#19486F;}
	.st1{fill:#2E73B8;}
	.st2{fill:#5294CF;}
	.st3{fill:#205B99;}
	.st4{fill:#99BCE3;}
	.st5{display:none;}
	.st6{fill:#FFFFFF;}
	.st7{enable-background:new    ;}
</style>
<g id="Layer_1">
	<path class="st0" d="M67.4,77.7H32.6c-5,0-9.1-4.1-9.1-9.1V33.9c0-5,4.1-9.1,9.1-9.1h34.8c5,0,9.1,4.1,9.1,9.1v34.8
		C76.5,73.7,72.4,77.7,67.4,77.7z"/>
	<path class="st1" d="M67.4,75.3H32.6c-5,0-9.1-4.1-9.1-9.1V31.4c0-5,4.1-9.1,9.1-9.1h34.8c5,0,9.1,4.1,9.1,9.1v34.8
		C76.5,71.2,72.4,75.3,67.4,75.3z"/>
	<g>
		<polygon class="st6" points="69,38.8 69,34.8 64,34.8 64,29.8 60,29.8 60,34.8 58,34.8 58,29.8 54,29.8 54,34.8 52,34.8 52,29.8 
			48,29.8 48,34.8 46,34.8 46,29.8 42,29.8 42,34.8 40,34.8 40,29.8 36,29.8 36,34.8 31,34.8 31,38.8 36,38.8 36,40.8 31,40.8 
			31,44.8 36,44.8 36,46.8 31,46.8 31,50.8 36,50.8 36,52.8 31,52.8 31,56.8 36,56.8 36,58.8 31,58.8 31,62.8 36,62.8 36,67.8 
			40,67.8 40,62.8 42,62.8 42,67.8 46,67.8 46,62.8 48,62.8 48,67.8 52,67.8 52,62.8 54,62.8 54,67.8 58,67.8 58,62.8 60,62.8 
			60,67.8 64,67.8 64,62.8 69,62.8 69,58.8 64,58.8 64,56.8 69,56.8 69,52.8 64,52.8 64,50.8 69,50.8 69,46.8 64,46.8 64,44.8 
			69,44.8 69,40.8 64,40.8 64,38.8 		"/>
		<path class="st1" d="M41,40.8h5.2l3.9,11h0l3.6-11H59v16h-4v-11h0.4l-4,11h-2.8l-4-11H45v11h-4V40.8z"/>
	</g>
</g>
<g id="Layer_2">
</g>
</svg>
