<?xml version="1.0" encoding="utf-8"?>
<!-- Generator: Adobe Illustrator 19.1.0, SVG Export Plug-In . SVG Version: 6.00 Build 0)  -->
<svg version="1.1" xmlns="http://www.w3.org/2000/svg" xmlns:xlink="http://www.w3.org/1999/xlink" x="0px" y="0px" width="100px"
	 height="100px" 
	 viewBox="0 0 100 100" style="enable-background:new 0 0 100 100;" xml:space="preserve">
<style type="text/css">
	.st0{fill:#19486F;}
	.st1{fill:#2E73B8;}
	.st2{fill:#5294CF;}
	.st3{fill:#205B99;}
	.st4{fill:#99BCE3;}
	.st5{display:none;}
	.st6{fill:#FFFFFF;}
	.st7{enable-background:new    ;}
</style>
<g id="Layer_1">
	<path class="st0" d="M67.4,77.7H32.6c-5,0-9.1-4.1-9.1-9.1V33.9c0-5,4.1-9.1,9.1-9.1h34.8c5,0,9.1,4.1,9.1,9.1v34.8
		C76.5,73.7,72.4,77.7,67.4,77.7z"/>
	<path class="st1" d="M67.4,75.3H32.6c-5,0-9.1-4.1-9.1-9.1V31.4c0-5,4.1-9.1,9.1-9.1h34.8c5,0,9.1,4.1,9.1,9.1v34.8
		C76.5,71.2,72.4,75.3,67.4,75.3z"/>
	<g>
		<path class="st6" d="M32.2,27.9c3.1,0,3.5,2.2,3.5,5.4s-0.4,5.4-3.5,5.4c-3.1,0-3.5-2.2-3.5-5.4S29.1,27.9,32.2,27.9z M32.2,37.1
			c1.2,0,1.4-1.1,1.4-3.8c0-2.8-0.2-3.8-1.4-3.8c-1.2,0-1.4,1.1-1.4,3.8C30.8,36,31,37.1,32.2,37.1z"/>
		<path class="st6" d="M36.6,28.1h3.9c1.7,0,2.8,0.9,2.8,2.7c0,1.4-0.6,2.3-1.7,2.6v0c1.4,0.2,1.6,1,1.7,3.2c0,1.1,0.1,1.7,0.5,1.9
			v0.1h-2.3c-0.2-0.3-0.2-0.7-0.3-1.1l-0.1-2c0-0.8-0.4-1.3-1.2-1.3h-1.1v4.4h-2.1V28.1z M38.7,32.6h0.9c1,0,1.6-0.4,1.6-1.6
			c0-1-0.5-1.4-1.4-1.4h-1V32.6z"/>
		<path class="st6" d="M46.6,28.1h2.6l2.7,10.3h-2.2l-0.5-2.2h-2.8l-0.5,2.2h-2.2L46.6,28.1z M46.9,34.5h2l-1-4.7h0L46.9,34.5z"/>
		<path class="st6" d="M56.6,31.6c0-1.5-0.3-2.2-1.2-2.2c-1.1,0-1.3,1.1-1.3,4c0,3.1,0.4,3.7,1.3,3.7c0.8,0,1.3-0.4,1.3-2.6h2.1
			c0,2.2-0.6,4.2-3.3,4.2c-3.1,0-3.5-2.2-3.5-5.4s0.4-5.4,3.5-5.4c3,0,3.2,2.2,3.2,3.7H56.6z"/>
		<path class="st6" d="M59.5,38.4V28.1h2.1v8.6h3.7v1.7H59.5z"/>
		<path class="st6" d="M71.7,28.1v1.7H68v2.4h3.5v1.7H68v2.8h3.8v1.7h-5.9V28.1H71.7z"/>
	</g>
</g>
<g id="Layer_2">
</g>
</svg>
