<?xml version="1.0" encoding="utf-8"?>
<!-- Generator: Adobe Illustrator 17.0.1, SVG Export Plug-In . SVG Version: 6.00 Build 0)  -->
<!DOCTYPE svg PUBLIC "-//W3C//DTD SVG 1.1//EN" "http://www.w3.org/Graphics/SVG/1.1/DTD/svg11.dtd">
<svg version="1.1" id="Layer_1" xmlns="http://www.w3.org/2000/svg" xmlns:xlink="http://www.w3.org/1999/xlink" x="0px" y="0px"
	 width="21px" height="21px" viewBox="0 0 21 21" enable-background="new 0 0 21 21" xml:space="preserve">
<path fill="#FFFFFF" d="M18.218,0H2.641C1.1,0,0,1.165,0,2.699v11.022C0,15.28,1.12,16,2.662,16h5.627l4.621,4.546L12.944,16h5.23
	c1.539,0,2.802-0.871,2.802-2.41L21,2.573C21.01,1.042,19.759,0,18.218,0z M11.871,3l-0.392,6H9.634L9.243,3H11.871z M10.49,13.265
	c-0.914,0-1.656-0.741-1.656-1.656c0-0.915,0.742-1.656,1.656-1.656c0.914,0,1.656,0.741,1.656,1.656
	C12.146,12.524,11.404,13.265,10.49,13.265z"/>
</svg>
