<?xml version="1.0" encoding="utf-8"?>
<!-- Generator: Adobe Illustrator 17.1.0, SVG Export Plug-In . SVG Version: 6.00 Build 0)  -->
<!DOCTYPE svg PUBLIC "-//W3C//DTD SVG 1.1//EN" "http://www.w3.org/Graphics/SVG/1.1/DTD/svg11.dtd">
<svg version="1.1" id="Layer_1" xmlns="http://www.w3.org/2000/svg" xmlns:xlink="http://www.w3.org/1999/xlink" x="0px" y="0px"
	 height="21px" width="21px" viewBox="0 0 21 21" enable-background="new 0 0 21 21" xml:space="preserve">
<path opacity="0.3" fill="#FFFFFF" enable-background="new    " d="M21,10.5h-4.7c0,1.7-0.8,3.3-1.9,4.3l3.1,3.5
	C19.6,16.4,21,13.6,21,10.5"/>
<path opacity="0.7" fill="#FFFFFF" enable-background="new    " d="M16.3,10.5H21C21,4.7,16.3,0,10.5,0v4.7
	C13.7,4.7,16.3,7.3,16.3,10.5"/>
<path fill="#FFFFFF" d="M10.5,16.3c-3.2,0-5.8-2.6-5.8-5.8s2.6-5.8,5.8-5.8l0,0V0l0,0l0,0C4.7,0,0,4.7,0,10.5S4.7,21,10.5,21
	c2.7,0,5.1-1,7-2.7l-3.1-3.5C13.3,15.7,12,16.3,10.5,16.3z"/>
<g>
	<path fill="#FFFFFF" d="M12.5,12.1c0,0.5-0.1,0.8-0.4,1.1c-0.3,0.3-0.7,0.5-1.3,0.6v1h-0.5v-1c-0.3,0-0.7,0-1-0.1
		c-0.3-0.1-0.5-0.2-0.7-0.3v-0.8C8.7,12.8,9,13,9.3,13.1c0.3,0.1,0.6,0.2,0.9,0.2v-2.5c-0.6-0.3-1-0.5-1.2-0.8
		C8.7,9.7,8.5,9.3,8.5,8.8c0-0.5,0.2-0.9,0.5-1.2C9.3,7.2,9.7,7,10.2,7V6.1h0.5v0.9C11.4,7,11.8,7,12,7.2V8
		c-0.3-0.3-0.8-0.4-1.3-0.4v2.6c0.6,0.3,1,0.5,1.2,0.8C12.3,11.3,12.5,11.7,12.5,12.1z M10.2,9.9V7.6C10,7.7,9.7,7.8,9.6,8
		C9.4,8.2,9.3,8.4,9.3,8.7c0,0.3,0.1,0.5,0.2,0.7C9.7,9.5,9.9,9.7,10.2,9.9z M11.7,12.2c0-0.4-0.3-0.8-0.9-1.2v2.2
		C11.3,13.1,11.7,12.7,11.7,12.2z"/>
</g>
</svg>
