<?xml version="1.0" encoding="utf-8"?>
<!-- Generator: Adobe Illustrator 19.2.1, SVG Export Plug-In . SVG Version: 6.00 Build 0)  -->
<svg version="1.1" id="Layer_1" xmlns="http://www.w3.org/2000/svg" xmlns:xlink="http://www.w3.org/1999/xlink" x="0px" y="0px"
	 viewBox="0 0 100 100" style="enable-background:new 0 0 100 100;" xml:space="preserve">
<style type="text/css">
	.st0{fill:#692F56;}
	.st1{fill:#AD688B;}
	.st2{fill:#512843;}
	.st3{fill:#CFB2C1;}
</style>
<polygon class="st0" points="55.5,37.2 66.6,35.4 66.6,20.8 55.5,24.3 "/>
<polygon class="st1" points="81,56.7 49.9,61.4 49.9,38.7 81,43.4 "/>
<polygon class="st1" points="61.3,34.2 49.9,31.4 49.9,12.5 61.3,18.2 "/>
<polygon class="st1" points="61.4,65.8 50.1,68.6 50.1,87.5 61.4,81.8 "/>
<polygon class="st1" points="73.6,37.2 66.5,35.4 66.5,20.8 73.6,24.3 "/>
<polygon class="st2" points="73.7,37.2 62.9,38.6 55.5,37.2 66.7,35.4 "/>
<polygon class="st1" points="44.5,37.2 33.4,35.4 33.4,20.8 44.5,24.3 "/>
<polygon class="st0" points="19,56.7 50.1,61.4 50.1,38.7 19,43.4 "/>
<polygon class="st0" points="38.7,34.2 50.1,31.4 50.1,12.5 38.7,18.2 "/>
<polygon class="st0" points="38.7,65.8 50.1,68.6 50.1,87.5 38.7,81.8 "/>
<polygon class="st0" points="26.4,37.2 33.5,35.4 33.5,20.8 26.4,24.3 "/>
<polygon class="st2" points="26.4,37.2 37.2,38.6 44.6,37.2 33.4,35.4 "/>
<polygon class="st2" points="61.4,34.2 50.1,36.3 38.7,34.2 50.1,31.4 "/>
<polygon class="st3" points="61.4,65.8 50.1,63.7 38.7,65.8 50.1,68.6 "/>
</svg>
