<?xml version="1.0" encoding="utf-8"?>
<!-- Generator: Adobe Illustrator 17.0.1, SVG Export Plug-In . SVG Version: 6.00 Build 0)  -->
<!DOCTYPE svg PUBLIC "-//W3C//DTD SVG 1.1//EN" "http://www.w3.org/Graphics/SVG/1.1/DTD/svg11.dtd">
<svg version="1.1" id="Layer_1" xmlns="http://www.w3.org/2000/svg" xmlns:xlink="http://www.w3.org/1999/xlink" x="0px" y="0px"
	 width="105px" height="105px" viewBox="-25.5 0.5 105 105" enable-background="new -25.5 0.5 105 105" xml:space="preserve">
<polygon opacity="0.25" fill="#1E1E1E" enable-background="new    " points="-25.5,99.489 -25.5,105.5 79.5,0.5 73.488,0.5 "/>
<polygon fill="#B8D432" points="37.357,0.5 31.345,0.5 -25.5,57.345 -25.5,63.357 -25.5,99.489 73.488,0.5 "/>
<path fill="#7FBA00" d="M8.916,46.706l2.112,2.112l-0.962,0.963l-5.824-5.824l1.767-1.768c0.669-0.667,1.343-1.031,2.024-1.086
	c0.679-0.058,1.303,0.196,1.869,0.763c0.566,0.566,0.836,1.222,0.813,1.967c-0.025,0.744-0.364,1.444-1.018,2.1L8.916,46.706z
	 M6,43.791l2.128,2.128l0.625-0.625c0.415-0.415,0.636-0.826,0.659-1.235c0.023-0.409-0.14-0.787-0.488-1.137
	c-0.685-0.685-1.426-0.63-2.222,0.166L6,43.791z"/>
<path fill="#7FBA00" d="M19.594,40.254l-1.131,1.13l-2.487-0.63c-0.228-0.061-0.432-0.1-0.615-0.124
	c-0.181-0.02-0.344-0.023-0.494-0.006c-0.147,0.019-0.283,0.061-0.41,0.13c-0.13,0.066-0.253,0.16-0.374,0.283l-0.391,0.39
	l2.363,2.363l-0.962,0.963l-5.824-5.824l1.915-1.918c0.274-0.273,0.56-0.491,0.852-0.657c0.296-0.163,0.594-0.267,0.896-0.308
	c0.302-0.036,0.599-0.009,0.893,0.092c0.29,0.1,0.569,0.28,0.832,0.546c0.204,0.204,0.361,0.425,0.474,0.657
	c0.111,0.233,0.178,0.471,0.198,0.718c0.023,0.247,0.001,0.497-0.062,0.75c-0.065,0.253-0.168,0.506-0.315,0.753l0.016,0.017
	c0.165-0.046,0.324-0.072,0.472-0.079c0.152-0.007,0.299-0.007,0.445-0.001c0.147,0.004,0.302,0.02,0.468,0.049
	c0.163,0.026,0.352,0.061,0.563,0.105L19.594,40.254z M11.016,38.75l1.892,1.892l0.805-0.805c0.15-0.149,0.264-0.309,0.342-0.481
	c0.078-0.172,0.121-0.347,0.129-0.524c0.006-0.178-0.029-0.355-0.1-0.53c-0.075-0.178-0.186-0.341-0.341-0.497
	c-0.277-0.277-0.585-0.407-0.919-0.391c-0.332,0.02-0.663,0.194-0.994,0.524L11.016,38.75z"/>
<path fill="#7FBA00" d="M23.707,36.139l-3.269,3.272l-5.824-5.824l3.139-3.14l0.822,0.82L16.4,33.442l1.648,1.648l2.002-2.001
	l0.818,0.816l-2.002,2.002l1.722,1.722l2.302-2.302L23.707,36.139z"/>
<path fill="#7FBA00" d="M23.648,24.549l3.734,7.917l-1.079,1.08l-7.879-3.77l1.057-1.056l5.854,2.981
	c0.188,0.092,0.389,0.221,0.597,0.386l0.017-0.017c-0.136-0.172-0.263-0.378-0.383-0.617l-2.941-5.882L23.648,24.549z"/>
<path fill="#7FBA00" d="M31.403,28.444l-0.994,0.995l-5.824-5.824l0.994-0.995L31.403,28.444z"/>
<path fill="#7FBA00" d="M36.271,23.575l-3.27,3.269l-5.824-5.824l3.139-3.139l0.822,0.822l-2.174,2.174l1.651,1.648l2.001-2.002
	l0.816,0.818l-2.001,2.001l1.722,1.722l2.301-2.301L36.271,23.575z"/>
<path fill="#7FBA00" d="M39.013,9.184l4.229,7.422l-1.092,1.092l-5.181-2.965c-0.22-0.127-0.438-0.286-0.653-0.482l-0.017,0.016
	c0.178,0.207,0.334,0.426,0.462,0.659l2.97,5.193l-1.118,1.117l-7.452-4.195l1.06-1.062l5.321,3.21
	c0.221,0.137,0.436,0.295,0.643,0.48l0.02-0.02c-0.129-0.15-0.276-0.376-0.446-0.673l-3.069-5.46l0.994-0.995l5.402,3.192
	c0.183,0.108,0.387,0.253,0.605,0.433l0.016-0.016c-0.129-0.143-0.274-0.351-0.442-0.63l-3.247-5.317L39.013,9.184z"/>
<path opacity="0.4" fill="#1E1E1E" enable-background="new    " d="M8.916,46.706l2.112,2.112l-0.962,0.963l-5.824-5.824
	l1.767-1.768c0.669-0.667,1.343-1.031,2.024-1.086c0.679-0.058,1.303,0.196,1.869,0.763c0.566,0.566,0.836,1.222,0.813,1.967
	c-0.025,0.744-0.364,1.444-1.018,2.1L8.916,46.706z M6,43.791l2.128,2.128l0.625-0.625c0.415-0.415,0.636-0.826,0.659-1.235
	c0.023-0.409-0.14-0.787-0.488-1.137c-0.685-0.685-1.426-0.63-2.222,0.166L6,43.791z"/>
<path opacity="0.4" fill="#1E1E1E" enable-background="new    " d="M19.594,40.254l-1.131,1.13l-2.487-0.63
	c-0.228-0.061-0.432-0.1-0.615-0.124c-0.181-0.02-0.344-0.023-0.494-0.006c-0.147,0.019-0.283,0.061-0.41,0.13
	c-0.13,0.066-0.253,0.16-0.374,0.283l-0.391,0.39l2.363,2.363l-0.962,0.963l-5.824-5.824l1.915-1.918
	c0.274-0.273,0.56-0.491,0.852-0.657c0.296-0.163,0.594-0.267,0.896-0.308c0.302-0.036,0.599-0.009,0.893,0.092
	c0.29,0.1,0.569,0.28,0.832,0.546c0.204,0.204,0.361,0.425,0.474,0.657c0.111,0.233,0.178,0.471,0.198,0.718
	c0.023,0.247,0.001,0.497-0.062,0.75c-0.065,0.253-0.168,0.506-0.315,0.753l0.016,0.017c0.165-0.046,0.324-0.072,0.472-0.079
	c0.152-0.007,0.299-0.007,0.445-0.001c0.147,0.004,0.302,0.02,0.468,0.049c0.163,0.026,0.352,0.061,0.563,0.105L19.594,40.254z
	 M11.016,38.75l1.892,1.892l0.805-0.805c0.15-0.149,0.264-0.309,0.342-0.481c0.078-0.172,0.121-0.347,0.129-0.524
	c0.006-0.178-0.029-0.355-0.1-0.53c-0.075-0.178-0.186-0.341-0.341-0.497c-0.277-0.277-0.585-0.407-0.919-0.391
	c-0.332,0.02-0.663,0.194-0.994,0.524L11.016,38.75z"/>
<path opacity="0.4" fill="#1E1E1E" enable-background="new    " d="M23.707,36.139l-3.269,3.272l-5.824-5.824l3.139-3.14l0.822,0.82
	L16.4,33.442l1.648,1.648l2.002-2.001l0.818,0.816l-2.002,2.002l1.722,1.722l2.302-2.302L23.707,36.139z"/>
<path opacity="0.4" fill="#1E1E1E" enable-background="new    " d="M23.648,24.549l3.734,7.917l-1.079,1.08l-7.879-3.77l1.057-1.056
	l5.854,2.981c0.188,0.092,0.389,0.221,0.597,0.386l0.017-0.017c-0.136-0.172-0.263-0.378-0.383-0.617l-2.941-5.882L23.648,24.549z"
	/>
<path opacity="0.4" fill="#1E1E1E" enable-background="new    " d="M31.403,28.444l-0.994,0.995l-5.824-5.824l0.994-0.995
	L31.403,28.444z"/>
<path opacity="0.4" fill="#1E1E1E" enable-background="new    " d="M36.271,23.575l-3.27,3.269l-5.824-5.824l3.139-3.139
	l0.822,0.822l-2.174,2.174l1.651,1.648l2.001-2.002l0.816,0.818l-2.001,2.001l1.722,1.722l2.301-2.301L36.271,23.575z"/>
<path opacity="0.4" fill="#1E1E1E" enable-background="new    " d="M39.013,9.184l4.229,7.422l-1.092,1.092l-5.181-2.965
	c-0.22-0.127-0.438-0.286-0.653-0.482l-0.017,0.016c0.178,0.207,0.334,0.426,0.462,0.659l2.97,5.193l-1.118,1.117l-7.452-4.195
	l1.06-1.062l5.321,3.21c0.221,0.137,0.436,0.295,0.643,0.48l0.02-0.02c-0.129-0.15-0.276-0.376-0.446-0.673l-3.069-5.46l0.994-0.995
	l5.402,3.192c0.183,0.108,0.387,0.253,0.605,0.433l0.016-0.016c-0.129-0.143-0.274-0.351-0.442-0.63l-3.247-5.317L39.013,9.184z"/>
</svg>
