<?xml version="1.0" encoding="utf-8"?>
<!-- Generator: Adobe Illustrator 19.1.0, SVG Export Plug-In . SVG Version: 6.00 Build 0)  -->
<svg version="1.1" id="Layer_1" xmlns="http://www.w3.org/2000/svg" xmlns:xlink="http://www.w3.org/1999/xlink" x="0px" y="0px" width="100px"
	 height="100px" 
	 viewBox="0 0 100 100" style="enable-background:new 0 0 100 100;" xml:space="preserve">
<style type="text/css">
	.st0{fill:#759C3E;}
	.st1{fill:#7D7C7C;}
	.st2{fill:#FFFFFF;}
	.st3{fill:#D2D3D3;}
	.st4{fill:#B7CA9D;}
	.st5{fill:#4B612C;}
	.st6{enable-background:new    ;}
	.st7{fill:#373737;}
	.st8{fill:#E05243;}
	.st9{fill:#4F4F4F;}
	.st10{fill:#3C4929;}
</style>
<path class="st5" d="M89.2,51.9c-0.3-0.4-0.6-0.8-0.8-1.2c-1.4-2.5-2.1-5.2-2.7-8.1c-2.1-9.7-7.5-17-16-22.3
	c-6-3.7-12.1-6.1-19.3-5.2c-9.6,1.2-17.6,4.8-23.2,13.1c-3.1,4.7-5.5,9.7-7.4,15c-1.7,4.8-1.5,10.1-3.7,14.8c-0.4,0.9-1,1.8-1.6,2.7
	c-1.5,2.3-3.4,4.4-4.5,6.9c-2.6,6.1-1.2,9.6,4.7,12.6c0.6,0.3,1.2,0.6,1.8,0.8c6.9,2.8,22.9,6.2,32.8,2.4c2.3-0.6,4.5-1.7,6.7-2.9
	C64,76.3,71.9,72,79.8,67.7c3.5-1.9,6.9-4.1,9.5-7.2C91.8,57.5,91.8,54.8,89.2,51.9z"/>
<path class="st0" d="M61.2,18.6c4.3,1.4,8,3.9,11.5,6.8c2.5,2,9.3,8.9,10.8,17.6c0.2,1.3,0.3,2.6,0.5,3.9c0.1,0.5,0.8,1.5,0.8,1.5
	l0.8,2c0,0,1.5,2.4,2.3,3.5c1,1.4,1.4,2.9,0.3,4.4c-2.5,3.3-5.8,5.5-9.9,7.6c0.2-1.7,0.3-3,0.4-4.3l-2.7-0.8c-1,2.3-0.4,4,2.1,5.2
	c-2.4,1.3-4.5,2.3-6.5,3.5c-6.4,3.4-12.7,6.9-19.1,10.2c-4.7,2.4-9.8,3.7-15.1,3.5c-6.1-0.2-12-1.4-17.8-3.4c-2.6-0.9-4.7-5-3.9-7.6
	c0.4-1.3,1.6-2,2.9-1.8c4.5,0.5,8.9,1,13.4,1.5c4.9,0.6,9.9,1.7,14.8,1.7c5.6,0,11-1.7,16.2-3.9c-1.6,0.1-3.2,0.2-4.8,0.3
	c-4.4,0.3-8.9,0.5-13.3,1.1c-5.5,0.7-10.6-0.5-15.8-1.8c-4.2-1-7.7-3.3-10.1-6.9c-0.9-1.4-1.5-3-0.8-4.5c0.6,0.5,1.2,1.5,1.7,1.4
	c0.6-0.1,1.4-0.9,1.6-1.6c0.7-1.8,1.1-3.6,1.7-5.5c0.9-3.3,1.6-6.7,2.8-9.8c2.3-5.8,4.8-11.6,8.6-16.6c1.4-1.9,3-3.7,4.8-5.2
	c2.3-2,5.3-2.7,8.3-3c3.5-0.3,7-0.2,10.6-0.2c0.2,0,0.4,0.2,0.6,0.3L61.2,18.6z"/>
<path class="st4" d="M83.6,42.9c-0.8-1.5-1.4-3.1-2.3-4.4c-4.5-6.5-14-6.4-18.7,0.1c-2.9,4.1-4.3,8.8-5.1,13.6
	c-0.2,1.5-0.4,2.9-0.7,4.8c-1.7-2.8-2.1-5.6-2.3-8.3c-0.3-5.9,0.6-11.6,4.2-16.5c2.6-3.5,5.7-6.4,10.3-7c1.2-0.2,2.4,0.1,3.7,0.1
	c1.4,1.2,3.1,2.2,4.1,3.6c2.8,3.6,5.2,7.5,6.4,12C83.5,41.6,83.5,42.3,83.6,42.9z"/>
<path class="st4" d="M61.2,18.6c-5.1,1.4-8,5.2-10.4,9.5c-3.5,6.2-6,12.8-5.9,20c0.1,4.1,0.9,8.2,2.6,12c0.2,0.4,0.3,0.8,0.6,1.5
	c-2.1,0-3.4-0.8-4.5-2.3c-2-2.7-2.7-5.9-2.6-9.1c0.2-9.3,2-18.3,8.1-25.8c1.3-1.6,2.8-3.1,4.4-4.5c1.6-1.4,3.6-2.1,5.8-2
	C59.9,18.1,60.6,18.3,61.2,18.6z"/>
<path class="st4" d="M85.7,50.4c0,2.3-1.6,3.5-3.1,4.7c-7.7,6.2-16.7,9.4-26.3,11.2c-4.3,0.8-8.5,1.5-12.8,2
	c-5.2,0.6-10.1-1.2-15.1-2.5c-2-0.5-4-1.2-6.1-1.8c0-0.2,0-0.4,0.1-0.6c0.9,0,1.8-0.1,2.7,0c4,0.7,7.9,1.7,11.9,2.1
	c3.7,0.4,7.4,0.4,11.1,0c6.9-0.8,13.7-2.2,20.2-4.7c3.8-1.5,7.4-3.3,10.9-5.3c2.8-1.6,5.3-3.5,5.7-7.1C85.2,49,85.5,49.7,85.7,50.4z
	"/>
<path class="st4" d="M76.2,60.8c1.9-1.2,3.8-2.4,5.8-3.4c0.8-0.4,1.8-0.3,2.7-0.4c0.1,0.2,0.1,0.3,0.2,0.5c-2,1.4-4,2.7-6,4.1
	C77.9,61.3,77,61.1,76.2,60.8z"/>
</svg>
