<?xml version="1.0" encoding="utf-8"?>
<!-- Generator: Adobe Illustrator 19.1.0, SVG Export Plug-In . SVG Version: 6.00 Build 0)  -->
<svg version="1.1" id="Layer_1" xmlns="http://www.w3.org/2000/svg" xmlns:xlink="http://www.w3.org/1999/xlink" x="0px" y="0px" width="100px"
	 height="100px" 
	 viewBox="0 0 100 100" style="enable-background:new 0 0 100 100;" xml:space="preserve">
<style type="text/css">
	.st0{fill:#759C3E;}
	.st1{fill:#7D7C7C;}
	.st2{fill:#FFFFFF;}
	.st3{fill:#D2D3D3;}
	.st4{fill:#B7CA9D;}
	.st5{fill:#4B612C;}
	.st6{enable-background:new    ;}
	.st7{fill:#373737;}
	.st8{fill:#E05243;}
	.st9{fill:#4F4F4F;}
	.st10{fill:#3C4929;}
</style>
<g>
	<path class="st0" d="M67.4,22.1c1.7,0,3,1.3,3,3v47.4c0,1.6-1.3,3-3,3H32.6c-1.7,0-3-1.3-3-3V25.1c0-1.6,1.3-3,3-3L67.4,22.1
		L67.4,22.1z"/>
</g>
<g class="st6">
	<path class="st2" d="M44.2,63.9c-0.1-1.3-1-1.9-2.3-1.9c-1.1,0-2.1,0.4-2.1,1.6c0,1.2,1.5,1.3,3,1.7c1.5,0.3,3,0.9,3,2.7
		c0,2-2,2.8-3.7,2.8c-2.1,0-3.9-1-3.9-3.3h1.2c0,1.6,1.3,2.3,2.7,2.3c1.1,0,2.4-0.4,2.4-1.7c0-1.3-1.5-1.5-3-1.8s-3-0.8-3-2.5
		c0-1.9,1.7-2.7,3.4-2.7c1.9,0,3.4,0.9,3.5,3H44.2z"/>
	<path class="st2" d="M49.4,62.2h-3.1v-1.1h7.5v1.1h-3.1v8.3h-1.2V62.2z"/>
	<path class="st2" d="M60.2,63.9c-0.1-1.3-1-1.9-2.3-1.9c-1.1,0-2.1,0.4-2.1,1.6c0,1.2,1.5,1.3,3,1.7c1.5,0.3,3,0.9,3,2.7
		c0,2-2,2.8-3.7,2.8c-2.1,0-3.9-1-3.9-3.3h1.2c0,1.6,1.3,2.3,2.7,2.3c1.1,0,2.4-0.4,2.4-1.7c0-1.3-1.5-1.5-3-1.8s-3-0.8-3-2.5
		c0-1.9,1.7-2.7,3.4-2.7c1.9,0,3.4,0.9,3.5,3H60.2z"/>
</g>
<g>
	<circle class="st2" cx="50" cy="39.7" r="13"/>
	<path class="st9" d="M50,54.2c-8,0-14.5-6.5-14.5-14.5S42,25.2,50,25.2s14.5,6.5,14.5,14.5S58,54.2,50,54.2z M50,28.2
		c-6.3,0-11.5,5.2-11.5,11.5S43.7,51.2,50,51.2s11.5-5.2,11.5-11.5S56.3,28.2,50,28.2z"/>
</g>
<g>
	<rect x="44" y="39.2" class="st9" width="7" height="3"/>
</g>
<g>
	<rect x="49.5" y="30.6" class="st9" width="3" height="11.6"/>
</g>
</svg>
