<?xml version="1.0" encoding="utf-8"?>
<!-- Generator: Adobe Illustrator 19.1.0, SVG Export Plug-In . SVG Version: 6.00 Build 0)  -->
<svg version="1.1" id="Layer_1" xmlns="http://www.w3.org/2000/svg" xmlns:xlink="http://www.w3.org/1999/xlink" x="0px" y="0px" width="100px"
	 height="100px" 
	 viewBox="0 0 100 100" style="enable-background:new 0 0 100 100;" xml:space="preserve">
<style type="text/css">
	.st0{fill:#759C3E;}
	.st1{fill:#7D7C7C;}
	.st2{fill:#FFFFFF;}
	.st3{fill:#D2D3D3;}
	.st4{fill:#B7CA9D;}
	.st5{fill:#4B612C;}
	.st6{enable-background:new    ;}
	.st7{fill:#373737;}
	.st8{fill:#E05243;}
	.st9{fill:#4F4F4F;}
	.st10{fill:#3C4929;}
</style>
<path class="st1" d="M66.9,25.8H26.4c-3.4,0-6.2,2.8-6.2,6.2v27.5c0,3.4,2.8,6.2,6.2,6.2h40.6c3.4,0,6.2-2.8,6.2-6.2V32
	C73.1,28.5,70.4,25.8,66.9,25.8z"/>
<path class="st2" d="M66.9,23.3H26.4c-3.4,0-6.2,2.8-6.2,6.2V57c0,3.4,2.8,6.2,6.2,6.2h40.6c3.4,0,6.2-2.8,6.2-6.2V29.5
	C73.1,26.1,70.4,23.3,66.9,23.3z"/>
<circle class="st0" cx="59.9" cy="36" r="9.5"/>
<circle class="st2" cx="64.1" cy="36" r="2.5"/>
<polygon class="st0" points="56.7,40 45.6,40 44.7,38.3 40.9,38.7 39.5,37.2 38.2,36.9 34.8,38.9 30.6,35.7 32.9,31.9 56.7,31.9 "/>
<circle class="st1" cx="33.4" cy="50.7" r="9.5"/>
<circle class="st2" cx="29.2" cy="50.7" r="2.5"/>
<polygon class="st1" points="36.6,46.6 47.7,46.6 48.6,48.3 52.4,48 53.8,49.5 55.1,49.8 58.5,47.7 62.7,51 60.4,54.7 36.6,54.7 "/>
<g>
	<circle class="st2" cx="65.3" cy="62.2" r="13"/>
	<path class="st9" d="M65.4,76.7c-8,0-14.5-6.5-14.5-14.5s6.5-14.5,14.5-14.5s14.5,6.5,14.5,14.5S73.3,76.7,65.4,76.7z M65.4,50.7
		c-6.3,0-11.5,5.2-11.5,11.5S59,73.7,65.4,73.7s11.5-5.2,11.5-11.5S71.7,50.7,65.4,50.7z"/>
</g>
<g>
	<rect x="59.3" y="61.7" class="st9" width="7" height="3"/>
</g>
<g>
	<rect x="64.9" y="53.2" class="st9" width="3" height="11.6"/>
</g>
</svg>
