<?xml version="1.0" encoding="utf-8"?>
<!-- Generator: Adobe Illustrator 19.1.0, SVG Export Plug-In . SVG Version: 6.00 Build 0)  -->
<svg version="1.1" id="Layer_1" xmlns="http://www.w3.org/2000/svg" xmlns:xlink="http://www.w3.org/1999/xlink" x="0px" y="0px" width="100px"
	 height="100px" 
	 viewBox="0 0 100 100" style="enable-background:new 0 0 100 100;" xml:space="preserve">
<style type="text/css">
	.st0{fill:#759C3E;}
	.st1{fill:#7D7C7C;}
	.st2{fill:#FFFFFF;}
	.st3{fill:#D2D3D3;}
	.st4{fill:#B7CA9D;}
	.st5{fill:#4B612C;}
	.st6{enable-background:new    ;}
	.st7{fill:#373737;}
	.st8{fill:#E05243;}
	.st9{fill:#4F4F4F;}
	.st10{fill:#3C4929;}
</style>
<g>
	<path class="st3" d="M67.4,23.3c1.7,0,3,1.3,3,3v47.4c0,1.6-1.3,3-3,3H32.6c-1.7,0-3-1.3-3-3V26.3c0-1.6,1.3-3,3-3L67.4,23.3
		L67.4,23.3z"/>
</g>
<path class="st7" d="M63.2,59.8v-6.1c-0.4-4-3.9-7.2-8.1-7.2c-4.2,0-7.7,3.1-8.1,7.2v6.1h-4.2v13.6h24.5V59.8H63.2z M59.3,59.8H51
	l0-6.1c0,0,0-3.8,4.2-3.8c4,0,4.2,3.8,4.2,3.8L59.3,59.8z"/>
<path class="st1" d="M40.7,25.6c-4.6,0-8.3,3.7-8.3,8.3c0,4.6,3.7,8.3,8.3,8.3s8.3-3.7,8.3-8.3C49.1,29.3,45.3,25.6,40.7,25.6z
	 M40.7,32.5c-1.2,0-2.2-1-2.2-2.2c0-1.2,1-2.2,2.2-2.2s2.2,1,2.2,2.2C42.9,31.5,41.9,32.5,40.7,32.5z"/>
<polygon class="st1" points="44.3,36.8 44.3,46.4 42.7,47.3 43,50.5 41.8,51.8 41.5,52.9 43.3,55.9 40.4,59.6 37.2,57.6 37.2,36.8 
	"/>
</svg>
