<?xml version="1.0" encoding="utf-8"?>
<!-- Generator: Adobe Illustrator 19.2.0, SVG Export Plug-In . SVG Version: 6.00 Build 0)  -->
<svg version="1.1" id="Layer_1" xmlns="http://www.w3.org/2000/svg" xmlns:xlink="http://www.w3.org/1999/xlink" x="0px" y="0px"
	 viewBox="0 0 100 100" style="enable-background:new 0 0 100 100;" xml:space="preserve">
<style type="text/css">
	.st0{fill:#4C622C;}
	.st1{fill:#759C3F;}
	.st2{fill:#FFFFFF;}
</style>
<path class="st0" d="M79.5,79.9H20.5c-1.6,0-3-1.3-3-3V31c0-1.6,1.3-3,3-3h59.1c1.6,0,3,1.3,3,3V77C82.5,78.6,81.2,79.9,79.5,79.9z"
	/>
<path class="st1" d="M79.5,75.9H20.5c-1.6,0-3-1.3-3-3V27c0-1.6,1.3-3,3-3h59.1c1.6,0,3,1.3,3,3V73C82.5,74.6,81.2,75.9,79.5,75.9z"
	/>
<rect x="30.3" y="28.1" class="st2" width="48.7" height="4.4"/>
<circle class="st2" cx="23.8" cy="30.3" r="3.5"/>
<rect x="21" y="36.8" class="st2" width="58" height="35.1"/>
<polygon class="st1" points="55.5,58.1 55.3,58.7 54.8,60.1 53.5,59.5 52.9,59.2 52.6,59.7 51.7,60.9 50.6,60 50.1,59.6 49.7,60 
	48.5,60.9 47.7,59.7 47.4,59.2 46.8,59.5 45.5,60.1 45,58.7 44.8,58.1 43.8,58.3 43,58.3 43,69.3 50,63.4 57,69.3 57,58.3 
	56.3,58.3 "/>
<polygon class="st1" points="59.1,48.8 60.3,47.5 58.8,46.5 59.6,44.9 57.9,44.3 58.3,42.6 56.5,42.4 56.4,40.7 54.6,41 54.1,39.4 
	52.5,40.1 51.5,38.7 50.1,39.8 48.8,38.7 47.8,40.1 46.2,39.4 45.6,41 43.9,40.7 43.8,42.4 42,42.6 42.3,44.3 40.7,44.9 41.4,46.5 
	40,47.5 41.1,48.8 40,50.1 41.4,51.1 40.7,52.7 42.3,53.3 41.8,55 43.2,55.2 43.5,55.2 43.8,56.9 45.6,56.6 46.2,58.3 47.8,57.5 
	48.8,59 50.1,57.8 51.5,59 52.5,57.5 54.1,58.3 54.6,56.6 56.4,56.9 56.6,55.2 56.7,55.2 58.3,55 57.9,53.3 59.6,52.7 58.8,51.1 
	60.3,50.1 "/>
<polygon class="st2" points="48.4,49.8 45.9,47.1 43.1,49.9 43.1,49.9 48.3,55.1 57.1,46.3 55.1,44.2 "/>
</svg>
