<?xml version="1.0" encoding="utf-8"?>
<!-- Generator: Adobe Illustrator 19.1.0, SVG Export Plug-In . SVG Version: 6.00 Build 0)  -->
<svg version="1.1" id="Layer_1" xmlns="http://www.w3.org/2000/svg" xmlns:xlink="http://www.w3.org/1999/xlink" x="0px" y="0px" width="100px"
	 height="100px" 
	 viewBox="0 0 100 100" style="enable-background:new 0 0 100 100;" xml:space="preserve">
<style type="text/css">
	.st0{fill:#759C3E;}
	.st1{fill:#7D7C7C;}
	.st2{fill:#FFFFFF;}
	.st3{fill:#D2D3D3;}
	.st4{fill:#B7CA9D;}
	.st5{fill:#4B612C;}
	.st6{enable-background:new    ;}
	.st7{fill:#373737;}
	.st8{fill:#E05243;}
	.st9{fill:#4F4F4F;}
	.st10{fill:#3C4929;}
</style>
<polygon class="st5" points="26.1,69.8 20,71.2 20,28.8 26.1,25.7 35.3,39.3 "/>
<polygon class="st0" points="33.9,39.1 26.1,38.1 26.1,25.7 33.9,27.7 "/>
<polygon class="st5" points="66,37.2 78.6,39.1 73.9,25.7 66,27.7 "/>
<polygon class="st5" points="37.3,70.1 50,86.2 58.1,34.8 50,13.8 37.3,20.1 "/>
<polygon class="st5" points="20,71.2 50,86.2 59.8,57.4 50,28.6 20,37.4 "/>
<polygon class="st5" points="55.5,39.3 78.6,47.5 73.9,74.3 62.9,71.5 "/>
<polygon class="st0" points="62.9,79.8 50,86.2 50,13.8 62.9,20.2 "/>
<polygon class="st0" points="73.9,74.3 80,71.2 80,28.8 73.9,25.7 "/>
<polygon class="st0" points="80,50 50,50 50,28.6 80,37.4 "/>
</svg>
