<?xml version="1.0" encoding="utf-8"?>
<!-- Generator: Adobe Illustrator 19.1.0, SVG Export Plug-In . SVG Version: 6.00 Build 0)  -->
<svg version="1.1" id="Layer_1" xmlns="http://www.w3.org/2000/svg" xmlns:xlink="http://www.w3.org/1999/xlink" x="0px" y="0px" width="100px"
	 height="100px" 
	 viewBox="0 0 100 100" style="enable-background:new 0 0 100 100;" xml:space="preserve">
<style type="text/css">
	.st0{fill:#759C3E;}
	.st1{fill:#7D7C7C;}
	.st2{fill:#FFFFFF;}
	.st3{fill:#D2D3D3;}
	.st4{fill:#B7CA9D;}
	.st5{fill:#4B612C;}
	.st6{enable-background:new    ;}
	.st7{fill:#373737;}
	.st8{fill:#E05243;}
	.st9{fill:#4F4F4F;}
	.st10{fill:#3C4929;}
</style>
<g>
	<circle class="st3" cx="50" cy="50" r="26.5"/>
	<path class="st1" d="M50,77.5c-15.2,0-27.5-12.3-27.5-27.5S34.8,22.5,50,22.5S77.5,34.8,77.5,50S65.2,77.5,50,77.5z M50,24.5
		c-14.1,0-25.5,11.4-25.5,25.5S35.9,75.5,50,75.5S75.5,64.1,75.5,50S64.1,24.5,50,24.5z"/>
</g>
<g class="st6">
	<path class="st7" d="M31.6,43.1h2.4l4.2,11.1l4.2-11.1h2.4v13.2h-1.7v-11h0l-4.1,11h-1.5l-4.1-11h0v11h-1.7V43.1z"/>
</g>
<g class="st6">
	<path class="st7" d="M47.1,43.1h8.7v1.5h-6.9v4.2h6.1v1.5h-6.1v6.1h-1.8V43.1z"/>
</g>
<g class="st6">
	<path class="st7" d="M61,43.1h1.9l5.2,13.2h-1.9l-1.4-4h-5.6l-1.5,4h-1.8L61,43.1z M59.6,50.9h4.5l-2.2-6.2h0L59.6,50.9z"/>
</g>
</svg>
