<?xml version="1.0" encoding="utf-8"?>
<!-- Generator: Adobe Illustrator 19.1.0, SVG Export Plug-In . SVG Version: 6.00 Build 0)  -->
<svg version="1.1" id="Layer_1" xmlns="http://www.w3.org/2000/svg" xmlns:xlink="http://www.w3.org/1999/xlink" x="0px" y="0px" width="100px"
	 height="100px" 
	 viewBox="0 0 100 100" style="enable-background:new 0 0 100 100;" xml:space="preserve">
<style type="text/css">
	.st0{fill:#759C3E;}
	.st1{fill:#7D7C7C;}
	.st2{fill:#FFFFFF;}
	.st3{fill:#D2D3D3;}
	.st4{fill:#B7CA9D;}
	.st5{fill:#4B612C;}
	.st6{enable-background:new    ;}
	.st7{fill:#373737;}
	.st8{fill:#E05243;}
	.st9{fill:#4F4F4F;}
	.st10{fill:#3C4929;}
</style>
<polygon class="st4" points="79.8,65.7 50,60.1 20.2,65.7 50,86 "/>
<polyline class="st5" points="20.2,65.7 20.2,71.1 24,73 50,86 50,76.9 "/>
<polyline class="st0" points="79.8,65.7 79.8,71.1 76,73 50,86 50,76.9 "/>
<polygon class="st4" points="50,57.7 62.6,59 50,71.5 37.4,59 "/>
<polygon class="st5" points="37.4,67.8 50,71.6 50,60.8 37.4,59 "/>
<polygon class="st0" points="62.6,67.8 50,71.6 50,60.8 62.6,59 "/>
<polygon class="st5" points="37.4,20.3 50,14 62.1,36.9 50,54.6 37.4,53.6 "/>
<polygon class="st0" points="62.6,53.6 50,54.6 50,14 62.6,20.3 "/>
</svg>
