<?xml version="1.0" encoding="utf-8"?>
<!-- Generator: Adobe Illustrator 19.1.0, SVG Export Plug-In . SVG Version: 6.00 Build 0)  -->
<svg version="1.1" id="Layer_1" xmlns="http://www.w3.org/2000/svg" xmlns:xlink="http://www.w3.org/1999/xlink" x="0px" y="0px" width="100px"
	 height="100px" 
	 viewBox="0 0 100 100" style="enable-background:new 0 0 100 100;" xml:space="preserve">
<style type="text/css">
	.st0{fill:#759C3E;}
	.st1{fill:#7D7C7C;}
	.st2{fill:#FFFFFF;}
	.st3{fill:#D2D3D3;}
	.st4{fill:#B7CA9D;}
	.st5{fill:#4B612C;}
	.st6{enable-background:new    ;}
	.st7{fill:#373737;}
	.st8{fill:#E05243;}
	.st9{fill:#4F4F4F;}
	.st10{fill:#3C4929;}
</style>
<circle class="st5" cx="34.1" cy="51.2" r="2.8"/>
<rect x="31.3" y="48.8" class="st5" width="5.6" height="2.5"/>
<path class="st5" d="M23,37.5v28h54v-28H23z M69.3,55.8H48.5c-1.7,3.7-5.4,6.2-9.7,6.2C32.9,62,28,57.2,28,51.2s4.8-10.8,10.8-10.8
	c4.3,0,8,2.5,9.7,6.2h6.4l1.1,2l4.2-0.4l1.6,1.7l1.5,0.3l3.8-2.3l4.8,3.7L69.3,55.8z"/>
<circle class="st0" cx="34.1" cy="48.8" r="2.8"/>
<path class="st0" d="M23,35v28h54V35H23z M69.3,53.3H48.5c-1.7,3.7-5.4,6.2-9.7,6.2c-5.9,0-10.8-4.8-10.8-10.8S32.9,38,38.8,38
	c4.3,0,8,2.5,9.7,6.2h6.4l1.1,2l4.2-0.4l1.6,1.7l1.5,0.3l3.8-2.3l4.8,3.7L69.3,53.3z"/>
</svg>
