<?xml version="1.0" encoding="utf-8"?>
<!-- Generator: Adobe Illustrator 19.1.0, SVG Export Plug-In . SVG Version: 6.00 Build 0)  -->
<svg version="1.1" id="Layer_1" xmlns="http://www.w3.org/2000/svg" xmlns:xlink="http://www.w3.org/1999/xlink" x="0px" y="0px" width="100px"
	 height="100px" 
	 viewBox="0 0 100 100" style="enable-background:new 0 0 100 100;" xml:space="preserve">
<style type="text/css">
	.st0{fill:#759C3E;}
	.st1{fill:#7D7C7C;}
	.st2{fill:#FFFFFF;}
	.st3{fill:#D2D3D3;}
	.st4{fill:#B7CA9D;}
	.st5{fill:#4B612C;}
	.st6{enable-background:new    ;}
	.st7{fill:#373737;}
	.st8{fill:#E05243;}
	.st9{fill:#4F4F4F;}
	.st10{fill:#3C4929;}
</style>
<path class="st1" d="M70.3,31.3H29.7c-3.4,0-6.2,2.8-6.2,6.2V65c0,3.4,2.8,6.2,6.2,6.2h40.6c3.4,0,6.2-2.8,6.2-6.2V37.5
	C76.5,34.1,73.7,31.3,70.3,31.3z"/>
<path class="st2" d="M70.3,28.8H29.7c-3.4,0-6.2,2.8-6.2,6.2v27.5c0,3.4,2.8,6.2,6.2,6.2h40.6c3.4,0,6.2-2.8,6.2-6.2V35
	C76.5,31.6,73.7,28.8,70.3,28.8z"/>
<circle class="st0" cx="63.2" cy="41.5" r="9.5"/>
<circle class="st2" cx="67.4" cy="41.5" r="2.5"/>
<polygon class="st0" points="60,45.6 49,45.6 48,43.8 44.3,44.2 42.8,42.7 41.5,42.4 38.1,44.5 33.9,41.2 36.2,37.5 60,37.5 "/>
<circle class="st1" cx="36.8" cy="56.2" r="9.5"/>
<circle class="st2" cx="32.6" cy="56.2" r="2.5"/>
<polygon class="st1" points="40,52.1 51,52.1 52,53.9 55.7,53.5 57.2,55 58.5,55.3 61.9,53.2 66.1,56.5 63.8,60.2 40,60.2 "/>
</svg>
