<?xml version="1.0" encoding="utf-8"?>
<!-- Generator: Adobe Illustrator 19.1.0, SVG Export Plug-In . SVG Version: 6.00 Build 0)  -->
<svg version="1.1" id="Layer_1" xmlns="http://www.w3.org/2000/svg" xmlns:xlink="http://www.w3.org/1999/xlink" x="0px" y="0px" width="100px"
	 height="100px" 
	 viewBox="0 0 100 100" style="enable-background:new 0 0 100 100;" xml:space="preserve">
<style type="text/css">
	.st0{fill:#759C3E;}
	.st1{fill:#7D7C7C;}
	.st2{fill:#FFFFFF;}
	.st3{fill:#D2D3D3;}
	.st4{fill:#B7CA9D;}
	.st5{fill:#4B612C;}
	.st6{enable-background:new    ;}
	.st7{fill:#373737;}
	.st8{fill:#E05243;}
	.st9{fill:#4F4F4F;}
	.st10{fill:#3C4929;}
</style>
<polygon class="st4" points="15.9,54.8 21.1,54.6 25.7,55 20.3,74.7 "/>
<polygon class="st5" points="35.6,70.4 50,74.7 61.7,44.3 50,8.8 35.6,16 "/>
<polygon class="st0" points="64.4,70.4 50,74.7 50,8.8 64.4,16 "/>
<polygon class="st5" points="74.3,64.6 79.7,65.3 79.7,55.3 74.3,55 "/>
<polygon class="st0" points="25.7,64.6 20.3,65.3 20.3,55.3 25.7,55 "/>
<polygon class="st4" points="49.4,64.2 25.7,60 20.3,60.5 48.4,80.6 "/>
<polygon class="st0" points="79.7,55.3 84.1,54.8 84.1,74.1 79.7,71 "/>
<polygon class="st4" points="84.1,54.8 78.9,54.6 74.3,55 79.7,55.3 "/>
<polygon class="st5" points="15.9,59.6 50,66.5 50,91.2 15.9,74.1 "/>
<polygon class="st5" points="20.3,55.3 15.9,54.8 15.9,74.1 20.3,72.4 "/>
<polygon class="st4" points="50,64.3 50,86.6 79.7,60.5 74.3,60 "/>
<polygon class="st4" points="60.2,57.2 50,56.4 39.8,57.2 50,91.2 "/>
<polygon class="st0" points="84.1,59.6 50,66.5 50,91.2 84.1,74.1 "/>
<polygon class="st0" points="60.2,85.3 50,90.4 50,58.2 60.2,57.2 "/>
<polygon class="st5" points="39.8,81.6 50,91.2 50,58.2 39.8,57.2 "/>
</svg>
