<?xml version="1.0" encoding="utf-8"?>
<!-- Generator: Adobe Illustrator 19.1.0, SVG Export Plug-In . SVG Version: 6.00 Build 0)  -->
<svg version="1.1" id="Layer_1" xmlns="http://www.w3.org/2000/svg" xmlns:xlink="http://www.w3.org/1999/xlink" x="0px" y="0px" width="100px"
	 height="100px" 
	 viewBox="0 0 100 100" style="enable-background:new 0 0 100 100;" xml:space="preserve">
<style type="text/css">
	.st0{fill:#759C3E;}
	.st1{fill:#7D7C7C;}
	.st2{fill:#FFFFFF;}
	.st3{fill:#D2D3D3;}
	.st4{fill:#B7CA9D;}
	.st5{fill:#4B612C;}
	.st6{enable-background:new    ;}
	.st7{fill:#373737;}
	.st8{fill:#E05243;}
	.st9{fill:#4F4F4F;}
	.st10{fill:#3C4929;}
</style>
<polygon class="st10" points="37.8,39.2 33.4,35.1 31.2,39.4 34.5,39.8 "/>
<polygon class="st10" points="34.1,44.4 50,45.4 65.9,44.4 50,35.6 "/>
<polygon class="st10" points="60.7,39.2 64.6,39.9 68.8,39.4 65,31.4 "/>
<polygon class="st4" points="44.8,67.9 53.9,65.8 62.6,67.8 53.6,76.5 "/>
<polygon class="st0" points="45.8,38.4 41.1,37.6 36.2,31.5 41.1,21.7 45.8,23.2 "/>
<polygon class="st5" points="34.1,27.5 34.1,21.9 50,14 54.2,22.9 45.8,26.2 41.1,24.8 41.1,37.4 50,35.6 54.8,56.5 50,86 
	45.2,83.6 45.2,76.9 41.1,75.2 41.1,43.7 34.1,44.4 34.1,38.8 31.2,39.4 31.2,28.7 "/>
<polygon class="st0" points="58.2,18.1 61.6,19.8 65.9,21.9 65.9,27.5 68.8,28.7 68.8,39.4 65.9,38.8 65.9,44.4 62.1,44 58.9,43.7 
	58.9,49.9 58.9,50 58.9,50 65.9,50 65.9,55.8 62.6,56.1 62.6,61.9 54.8,63.4 54.8,70.2 62.6,67.8 62.6,73.8 54.8,76.9 54.8,83.6 
	50,86 50,64.4 50,57.2 50,50 50,49.9 50,42.8 50,35.6 54.2,36.4 54.2,26.2 50,24.8 50,21.2 50,14 "/>
<polygon class="st10" points="54.8,23.1 50,21.2 41.1,24.8 45.8,26.2 "/>
<polygon class="st5" points="54.2,24.8 58.9,24.8 58.9,37.4 54.2,36.4 "/>
<polygon class="st10" points="41.1,24.8 50,21.2 51.9,22 54.8,23.1 58.9,24.8 54.2,26.2 50,24.8 45.8,26.2 "/>
</svg>
