<?xml version="1.0" encoding="utf-8"?>
<!-- Generator: Adobe Illustrator 19.1.0, SVG Export Plug-In . SVG Version: 6.00 Build 0)  -->
<svg version="1.1" id="Layer_1" xmlns="http://www.w3.org/2000/svg" xmlns:xlink="http://www.w3.org/1999/xlink" x="0px" y="0px" width="100px"
	 height="100px" 
	 viewBox="0 0 100 100" style="enable-background:new 0 0 100 100;" xml:space="preserve">
<style type="text/css">
	.st0{fill:#759C3E;}
	.st1{fill:#7D7C7C;}
	.st2{fill:#FFFFFF;}
	.st3{fill:#D2D3D3;}
	.st4{fill:#B7CA9D;}
	.st5{fill:#4B612C;}
	.st6{enable-background:new    ;}
	.st7{fill:#373737;}
	.st8{fill:#E05243;}
	.st9{fill:#4F4F4F;}
	.st10{fill:#3C4929;}
</style>
<g>
	<path class="st1" d="M67.4,24.6c1.7,0,3,1.3,3,3v47.4c0,1.6-1.3,3-3,3H32.6c-1.7,0-3-1.3-3-3V27.5c0-1.6,1.3-3,3-3L67.4,24.6
		L67.4,24.6z"/>
</g>
<g>
	<path class="st3" d="M67.4,22.1c1.7,0,3,1.3,3,3v47.4c0,1.6-1.3,3-3,3H32.6c-1.7,0-3-1.3-3-3V25.1c0-1.6,1.3-3,3-3L67.4,22.1
		L67.4,22.1z"/>
</g>
<polygon class="st0" points="38.4,33.7 35.6,30.6 32.5,33.7 32.5,33.7 38.3,39.5 48.2,29.7 45.9,27.4 "/>
<polygon class="st0" points="38.4,47.6 35.6,44.6 32.5,47.7 32.5,47.7 38.3,53.5 48.2,43.7 45.9,41.4 "/>
<g class="st6">
	<path class="st8" d="M38.7,61.6l-6-5.4h2.9l4.6,4.3l4.8-4.3h2.7l-6,5.4l6.4,5.7h-3l-4.9-4.6l-5.1,4.6h-2.7L38.7,61.6z"/>
</g>
</svg>
