<?xml version="1.0" encoding="utf-8"?>
<!-- Generator: Adobe Illustrator 17.1.0, SVG Export Plug-In . SVG Version: 6.00 Build 0)  -->
<!DOCTYPE svg PUBLIC "-//W3C//DTD SVG 1.1//EN" "http://www.w3.org/Graphics/SVG/1.1/DTD/svg11.dtd">
<svg version="1.1" id="Layer_1" xmlns="http://www.w3.org/2000/svg" xmlns:xlink="http://www.w3.org/1999/xlink" x="0px" y="0px"
	 height="12px" width="12px" viewBox="0 0 12 12" enable-background="new 0 0 12 12" xml:space="preserve">
<g>
	<path fill="#3D4650" d="M11,8.4c0,1.1-0.4,2-1.2,2.6S8,12,6.6,12H2V0h4.4c1.4,0,2.4,0.2,3.1,0.8c0.6,0.5,1,1.2,1,2
		c0,0.7-0.2,1.3-0.7,1.8C9.4,5,8.8,5.3,8.2,5.5l0,0c0.9,0.1,1.5,0.4,2.1,1C10.8,7,11,7.7,11,8.4z M7.8,3.3c0-0.9-0.7-1.3-2-1.3H4.7
		v2.9H6c0.6,0,1-0.2,1.3-0.4C7.6,4.2,7.8,3.8,7.8,3.3z M8.2,8.4c0-0.5-0.2-0.9-0.6-1.1C7.3,7.1,6.8,6.9,6.2,6.9H4.6v3.2h1.6
		c0.6,0,1.1-0.2,1.5-0.5C8,9.3,8.2,8.9,8.2,8.4z"/>
</g>
</svg>
