<?xml version="1.0" encoding="utf-8"?>
<!-- Generator: Adobe Illustrator 17.1.0, SVG Export Plug-In . SVG Version: 6.00 Build 0)  -->
<!DOCTYPE svg PUBLIC "-//W3C//DTD SVG 1.1//EN" "http://www.w3.org/Graphics/SVG/1.1/DTD/svg11.dtd">
<svg version="1.1" id="Layer_1" xmlns="http://www.w3.org/2000/svg" xmlns:xlink="http://www.w3.org/1999/xlink" x="0px" y="0px"
	 height="12px" width="12px" viewBox="0 0 12 12" enable-background="new 0 0 12 12" xml:space="preserve">
<g>
	<path fill="#3D4650" d="M9.9,11H2v1h8L9.9,11L9.9,11z"/>
	<g>
		<path fill="#3D4650" d="M9.9,0v5.5c0,1.1-0.4,2-1.1,2.6C8.1,8.7,7.2,9,6,9S3.7,8.7,3,8.1C2.3,7.5,2,6.6,2,5.5V0h2v5.5
			C4,6.2,4.2,6.6,4.5,7S5.4,7.5,6,7.5S7,7.3,7.5,7C7.8,6.7,8,6.1,8,5.5V0H9.9z"/>
	</g>
</g>
</svg>
