<?xml version="1.0" encoding="utf-8"?>
<!-- Generator: Adobe Illustrator 17.1.0, SVG Export Plug-In . SVG Version: 6.00 Build 0)  -->
<!DOCTYPE svg PUBLIC "-//W3C//DTD SVG 1.1//EN" "http://www.w3.org/Graphics/SVG/1.1/DTD/svg11.dtd">
<svg version="1.1" id="Layer_1" xmlns="http://www.w3.org/2000/svg" xmlns:xlink="http://www.w3.org/1999/xlink" x="0px" y="0px"
	 height="12px" width="12px" viewBox="0 0 12 12" enable-background="new 0 0 12 12" xml:space="preserve">
<g>
	<g>
		<g>
			<path fill="#3D4650" d="M11.5,4.9L9.7,6.7C9.1,7.3,8.3,7.3,7.5,7l3-3c0.5-0.5,0.2-1.4-0.2-1.8C9.8,1.7,8.9,1.6,8.5,2l-3,3
				C5.3,4.2,5.3,3.5,5.9,2.8L7.7,1c1-1,2.6-0.8,3.6,0.2S12.4,4,11.5,4.9L11.5,4.9z"/>
			<path fill="#3D4650" d="M3.6,11l3-3c0.2,0.8,0.2,1.5-0.4,2.2l-1.8,1.7c-1,1-2.6,0.7-3.6-0.2c-1-1-1.1-2.6-0.2-3.5l1.8-1.8
				C3,5.8,3.8,5.8,4.6,6l-3,3c-0.5,0.5-0.2,1.4,0.2,1.8C2.3,11.2,3.1,11.5,3.6,11L3.6,11z"/>
			<path fill="#3D4650" d="M3.5,8.2l4.3-4.4C8,3.6,8.8,3.2,9,3.5c0.2,0.2-0.1,1-0.3,1.2L4.3,9C4.1,9.2,3.3,9.8,3,9.6
				C2.8,9.4,3.2,8.5,3.5,8.2z"/>
		</g>
	</g>
</g>
<line fill="none" stroke="#3D4650" stroke-width="2" stroke-miterlimit="10" x1="1" y1="1" x2="4" y2="4"/>
<line fill="none" stroke="#3D4650" stroke-width="2" stroke-miterlimit="10" x1="8.1" y1="8.1" x2="11.1" y2="11.1"/>
</svg>
