<?xml version="1.0" encoding="utf-8"?>
<!-- Generator: Adobe Illustrator 17.1.0, SVG Export Plug-In . SVG Version: 6.00 Build 0)  -->
<!DOCTYPE svg PUBLIC "-//W3C//DTD SVG 1.1//EN" "http://www.w3.org/Graphics/SVG/1.1/DTD/svg11.dtd">
<svg version="1.1" id="Layer_1" xmlns="http://www.w3.org/2000/svg" xmlns:xlink="http://www.w3.org/1999/xlink" x="0px" y="0px"
	 height="16px" width="16px" viewBox="0 0 16 16" enable-background="new 0 0 16 16" xml:space="preserve">
<path d="M7.5,16C4.3,16,2,13.4,2,10.5v-6C2,2,3.5,0,6,0s4,2,4,4.5V9c0,1.7-0.8,3-2.5,3S5,10.7,5,9V5h2v4c0,0.6-0.1,1,0.5,1
	S8,9.6,8,9V4.5C8,3.1,7.4,2,6,2S4,3.1,4,4.5v6c0,2,1.6,3.5,3.5,3.5s3.5-1.5,3.5-3.5V5h2v5.5C13,13.4,10.7,16,7.5,16z"/>
</svg>
