<?xml version="1.0" encoding="utf-8"?>
<!-- Generator: Adobe Illustrator 17.1.0, SVG Export Plug-In . SVG Version: 6.00 Build 0)  -->
<!DOCTYPE svg PUBLIC "-//W3C//DTD SVG 1.1//EN" "http://www.w3.org/Graphics/SVG/1.1/DTD/svg11.dtd">
<svg version="1.1" id="Layer_1" xmlns="http://www.w3.org/2000/svg" xmlns:xlink="http://www.w3.org/1999/xlink" x="0px" y="0px"
	 height="16px" width="16px" viewBox="0 0 16 16" enable-background="new 0 0 16 16" xml:space="preserve">
<path d="M14.8,10H6.4c-0.5,0-0.9-0.6-0.9-1.1S5.9,8,6.4,8h8.4c0.5,0,0.9,0.4,0.9,0.9C15.7,9.4,15.3,10,14.8,10z"/>
<path d="M14.8,4H6.4C5.9,4,5.5,3.4,5.5,2.9S5.9,2,6.4,2h8.4c0.5,0,0.9,0.4,0.9,0.9S15.3,4,14.8,4z"/>
<polygon points="0,2.1 0,2.1 0.7,1.4 0.7,1.4 0.7,1.4 2.1,2.8 4.8,0 4.8,0 4.8,0 5.5,0.7 5.5,0.7 5.5,0.7 2.1,4.1 "/>
<polygon points="0,8 0,8 0.7,7.3 0.7,7.3 0.7,7.3 2.1,8.7 4.8,5.9 4.8,5.9 4.8,5.9 5.5,6.6 5.5,6.6 5.5,6.6 2.1,10.1 "/>
<polygon points="0,13.9 0,13.9 0.7,13.2 0.7,13.2 0.7,13.2 2.1,14.6 4.8,11.9 4.8,11.9 4.8,11.9 5.5,12.5 5.5,12.5 5.5,12.5 2.1,16 
	"/>
<path d="M14.8,16H6.4c-0.5,0-0.9-0.6-0.9-1.1S5.9,14,6.4,14h8.4c0.5,0,0.9,0.4,0.9,0.9S15.3,16,14.8,16z"/>
</svg>
