<?xml version="1.0" encoding="utf-8"?>
<!-- Generator: Adobe Illustrator 19.2.0, SVG Export Plug-In . SVG Version: 6.00 Build 0)  -->
<svg version="1.1" id="Layer_1" xmlns="http://www.w3.org/2000/svg" xmlns:xlink="http://www.w3.org/1999/xlink" x="0px" y="0px"
	 width="16px" height="16px" viewBox="0 0 16 16" style="enable-background:new 0 0 16 16;" xml:space="preserve">
<style type="text/css">
	.st0{fill:#323232;}
	.st1{fill:none;}
	.st2{fill-rule:evenodd;clip-rule:evenodd;}
	.st3{fill:#FFFFFF;}
</style>
<g>
	<rect x="1" y="12" transform="matrix(1.258742e-10 1 -1 1.258742e-10 16 9)" class="st3" width="5" height="1"/>
	<rect x="3" y="11" transform="matrix(8.991012e-11 1 -1 8.991012e-11 18 5)" class="st3" width="7" height="1"/>
	<rect x="4.5" y="9.5" transform="matrix(6.311911e-11 1 -1 6.311911e-11 19.5 0.5)" class="st3" width="10" height="1"/>
	<rect x="9" y="11" transform="matrix(9.016947e-11 1 -1 9.016947e-11 24 -1)" class="st3" width="7" height="1"/>
	<path class="st3" d="M15,1v14H1V1H15 M16,0H0v16h16V0L16,0z"/>
</g>
</svg>
