<?xml version="1.0" encoding="utf-8"?>
<!-- Generator: Adobe Illustrator 17.1.0, SVG Export Plug-In . SVG Version: 6.00 Build 0)  -->
<!DOCTYPE svg PUBLIC "-//W3C//DTD SVG 1.1//EN" "http://www.w3.org/Graphics/SVG/1.1/DTD/svg11.dtd">
<svg version="1.1" id="Layer_1" xmlns="http://www.w3.org/2000/svg" xmlns:xlink="http://www.w3.org/1999/xlink" x="0px" y="0px"
	 height="24px" width="24px" viewBox="0 0 24 24" enable-background="new 0 0 24 24" xml:space="preserve">
<path d="M18.8,15.6c0,1.6-0.6,2.9-1.8,3.9c-1.2,1-2.8,1.5-4.8,1.5H5.2V3h6.6c2.1,0,3.6,0.4,4.7,1.2c1,0.7,1.5,1.8,1.5,3
	c0,1-0.4,1.9-1.1,2.7c-0.6,0.6-1.4,1.1-2.4,1.4v0.1c1.3,0.2,2.3,0.6,3.1,1.5C18.4,13.6,18.8,14.5,18.8,15.6z M13.8,8c0-1.3-1-2-3-2
	H9.1v4.3h2c0.8,0,1.5-0.2,2-0.6C13.5,9.2,13.8,8.7,13.8,8z M14.5,15.6c0-0.7-0.3-1.3-0.8-1.7c-0.5-0.4-1.3-0.6-2.2-0.6H9.1V18h2.4
	c0.9,0,1.7-0.2,2.2-0.7C14.2,16.9,14.5,16.3,14.5,15.6z"/>
</svg>
