<?xml version="1.0" encoding="utf-8"?>
<!-- Generator: Adobe Illustrator 19.2.0, SVG Export Plug-In . SVG Version: 6.00 Build 0)  -->
<svg version="1.1" id="Layer_1" xmlns="http://www.w3.org/2000/svg" xmlns:xlink="http://www.w3.org/1999/xlink" x="0px" y="0px"
	 width="16px" height="16px" viewBox="0 0 16 16" style="enable-background:new 0 0 16 16;" xml:space="preserve">
<style type="text/css">
	.st0{fill:#FF8C00;}
	.st1{opacity:0.2;}
	.st2{fill:#FFFFFF;}
	.st3{fill:#7A7A7A;}
</style>
<path d="M12.571,10.213l-0.494,0.494l-0.649,0.649v1.215H2.286V5.714c0-0.631,0.121-1.223,0.362-1.777
	c0.241-0.554,0.568-1.037,0.982-1.451C4.043,2.073,4.527,1.746,5.08,1.504c0.554-0.241,1.146-0.362,1.777-0.362
	c0.631,0,1.223,0.121,1.777,0.362c0.554,0.241,1.037,0.569,1.451,0.982c0.069,0.069,0.122,0.152,0.186,0.225l0.392-0.392
	l0.427-0.427c-0.065-0.072-0.123-0.149-0.193-0.219c-0.348-0.348-0.734-0.646-1.156-0.893C9.318,0.535,8.863,0.343,8.375,0.205
	C7.887,0.069,7.381,0,6.857,0c-0.524,0-1.03,0.069-1.518,0.205C4.851,0.343,4.396,0.535,3.973,0.781
	C3.55,1.028,3.165,1.326,2.817,1.674S2.171,2.408,1.924,2.83C1.677,3.253,1.485,3.709,1.348,4.196
	C1.211,4.685,1.143,5.191,1.143,5.714v6.857H0v1.143h4.571c0,0.316,0.059,0.612,0.179,0.888c0.119,0.277,0.282,0.52,0.491,0.728
	c0.208,0.209,0.451,0.372,0.728,0.491C6.246,15.941,6.541,16,6.857,16c0.315,0,0.612-0.059,0.888-0.179
	c0.277-0.119,0.519-0.282,0.728-0.491c0.208-0.208,0.372-0.451,0.491-0.728c0.119-0.277,0.179-0.573,0.179-0.888h4.571v-1.143
	h-1.143V10.213z M7.911,14.161c-0.06,0.137-0.142,0.258-0.246,0.362c-0.104,0.104-0.225,0.186-0.362,0.246
	c-0.137,0.06-0.286,0.089-0.446,0.089c-0.161,0-0.31-0.03-0.446-0.089c-0.137-0.059-0.258-0.141-0.362-0.246
	c-0.104-0.104-0.186-0.224-0.246-0.362c-0.06-0.137-0.089-0.286-0.089-0.446H8C8,13.875,7.97,14.024,7.911,14.161z"/>
<g>
	<g>
		<path d="M6.881,7.015V6.012l6.049-0.008l-2.264-2.272l0.705-0.705l3.487,3.487L11.37,10l-0.705-0.705l2.288-2.288L6.881,7.015z"/>
	</g>
</g>
</svg>
