<?xml version="1.0" encoding="utf-8"?>
<!-- Generator: Adobe Illustrator 17.0.1, SVG Export Plug-In . SVG Version: 6.00 Build 0)  -->
<!DOCTYPE svg PUBLIC "-//W3C//DTD SVG 1.1//EN" "http://www.w3.org/Graphics/SVG/1.1/DTD/svg11.dtd">
<svg version="1.1" id="Layer_1" xmlns="http://www.w3.org/2000/svg" xmlns:xlink="http://www.w3.org/1999/xlink" x="0px" y="0px"
	 width="24px" height="24px" viewBox="0.5 0.5 24 24" enable-background="new 0.5 0.5 24 24" xml:space="preserve">
<path d="M19.846,6.5H5.154C4.601,6.5,4.5,6.27,4.5,6s0.101-1.5,0.654-1.5h14.692C20.399,4.5,20.5,5.73,20.5,6S20.399,6.5,19.846,6.5
	z"/>
<path d="M14.33,3.5h-0.011h-3.723c-0.402,0-0.597-0.13-0.597-0.5c0.011-0.36,0.149-0.5,0.597-0.5h3.686
	c0.402,0,0.717,0.14,0.717,0.5c0,0.37-0.256,0.5-0.646,0.5H14.33z"/>
<path d="M5.5,7.5v14c0.04,0.82,3.537,1,4.337,1h5.862c0.8,0,3.761-0.18,3.801-1v-14H5.5z M9.542,19.167
	c0.01,0.36-0.27,0.68-0.62,0.69h-0.73c-0.35,0-0.63-0.28-0.65-0.65v-9.37c-0.01-0.37,0.542-0.726,1.023-0.726
	c0.34,0,0.967,0.316,0.977,0.676V19.167z M13.5,19.156c-0.01,0.36-0.3,0.64-0.64,0.64h-0.74c-0.35-0.01-0.63-0.33-0.62-0.7v-9.37
	c0.02-0.37,0.642-0.655,1.002-0.635S13.51,9.416,13.5,9.786V19.156z M17.396,19.151c-0.01,0.36-0.3,0.64-0.64,0.64h-0.74
	c-0.35-0.01-0.63-0.33-0.62-0.7v-9.37c0.02-0.37,0.642-0.654,1.002-0.635c0.36,0.02,1.008,0.325,0.998,0.695V19.151z"/>
</svg>
