<?xml version="1.0" encoding="utf-8"?>
<!-- Generator: Adobe Illustrator 17.1.0, SVG Export Plug-In . SVG Version: 6.00 Build 0)  -->
<!DOCTYPE svg PUBLIC "-//W3C//DTD SVG 1.1//EN" "http://www.w3.org/Graphics/SVG/1.1/DTD/svg11.dtd">
<svg version="1.1" id="Layer_1" xmlns="http://www.w3.org/2000/svg" xmlns:xlink="http://www.w3.org/1999/xlink" x="0px" y="0px"
	 height="24px" width="24px" viewBox="0 0 24 24" enable-background="new 0 0 24 24" xml:space="preserve">
<path d="M20.5,3h-7.1h-2.9H3.5C2.7,3,2,3.7,2,4.5v16.1C2,21.3,2.7,22,3.5,22h7.1h2.9h7.1c0.8,0,1.5-0.7,1.5-1.5V4.5
	C22,3.7,21.3,3,20.5,3z M20,20h-6h-4H4V5h6h4h6V20z"/>
<rect x="6" y="16" width="12" height="1"/>
<g>
	<rect x="6" y="12" width="5" height="1"/>
	<polygon points="11,10 11,12 18,12 18,13 11,13 11,15 19,15 19,10 	"/>
</g>
<g>
	<rect x="8" y="8" width="10" height="1"/>
	<polygon points="6,8 8,8 8,6 5,6 5,11 8,11 8,9 6,9 	"/>
</g>
</svg>
