<?xml version="1.0" encoding="utf-8"?>
<!-- Generator: Adobe Illustrator 17.1.0, SVG Export Plug-In . SVG Version: 6.00 Build 0)  -->
<!DOCTYPE svg PUBLIC "-//W3C//DTD SVG 1.1//EN" "http://www.w3.org/Graphics/SVG/1.1/DTD/svg11.dtd">
<svg version="1.1" id="Layer_1" xmlns="http://www.w3.org/2000/svg" xmlns:xlink="http://www.w3.org/1999/xlink" x="0px" y="0px"
	 height="16px" width="16px" viewBox="0 0 16 16" enable-background="new 0 0 16 16" xml:space="preserve">
<polygon points="10.3,4 9.4,4 5.5,12 6.5,12 "/>
<polygon points="11.1,2.2 10.3,2.2 4.6,13.9 5.5,13.9 "/>
<g>
	<path d="M4.6,4C3.7,4,3.1,4.8,3,6H0v4h3c0.1,0.9,0.5,1.7,1.1,1.9L8,4"/>
	<path d="M12.8,6c-0.2-0.9-0.6-1.6-1.2-1.9L7.8,12H11c0.2,0,0.3,0,0.5-0.1c0.7-0.2,1.1-1,1.3-1.9H16V6H12.8z"/>
</g>
<path d="M8.9,42L8.9,42L9,38H6v-4H4.6c-0.9,0-1.5,0.8-1.6,2H0v4h3c0.2,1.1,0.7,2,1.6,2H8.9z"/>
<path d="M7,34v3h3v5h1c0.2,0,0.3,0,0.5-0.1c0.6-0.2,1.1-1,1.3-1.9H16v-4h-3.2c-0.2-1.1-0.9-2-1.8-2H7z"/>
</svg>
