<?xml version="1.0" encoding="utf-8"?>
<!-- Generator: Adobe Illustrator 17.0.1, SVG Export Plug-In . SVG Version: 6.00 Build 0)  -->
<!DOCTYPE svg PUBLIC "-//W3C//DTD SVG 1.1//EN" "http://www.w3.org/Graphics/SVG/1.1/DTD/svg11.dtd">
<svg version="1.1" id="Layer_1" xmlns="http://www.w3.org/2000/svg" xmlns:xlink="http://www.w3.org/1999/xlink" x="0px" y="0px"
	 width="24px" height="24px" viewBox="0 0 24 24" enable-background="new 0 0 24 24" xml:space="preserve">
<g>
	<g>
		<g>
		</g>
		<g>
		</g>
		<g>
			<g>
				<path fill-rule="evenodd" clip-rule="evenodd" d="M8.688,5.969L8.661,5.963L8.688,5.969z"/>
			</g>
		</g>
	</g>
	<g>
		<g>
			<path d="M18.569,15.078H5.431c-0.19,0-0.343-0.148-0.343-0.331V8.581C5.088,4.9,8.189,1.906,12,1.906
				c3.812,0,6.912,2.995,6.912,6.676v6.165C18.912,14.929,18.759,15.078,18.569,15.078z M5.774,14.415h12.453V8.581
				c0-3.315-2.793-6.013-6.226-6.013S5.774,5.266,5.774,8.581V14.415z"/>
		</g>
	</g>
	<g>
		<g>
			<g>
				<path d="M24,18.273c0,0-1.145-2.618-6.007-4.05H6.007C1.145,15.654,0,18.273,0,18.273l0.048,0.04h23.904L24,18.273z"/>
			</g>
		</g>
		<g>
			<path d="M22.773,18.969H1.227C1.666,19.632,5.362,22.144,12,22.144S22.334,19.632,22.773,18.969z"/>
		</g>
	</g>
	<g>
		<g>
			<g>
				<path d="M10.951,14.554c-0.13-0.027-3.23-0.616-3.909-3.162c-0.027-0.106,0.014-0.225,0.117-0.272
					c0.103-0.066,0.226-0.053,0.309,0.027c0.021,0.013,1.611,1.492,2.928,1.505c0.11,0,0.199,0.06,0.24,0.152l0.603,1.412
					c0.041,0.08,0.021,0.172-0.041,0.252C11.143,14.534,11.047,14.574,10.951,14.554z"/>
			</g>
		</g>
		<g>
			<g>
				<path d="M12.631,14.554c0.137-0.027,3.237-0.616,3.915-3.162c0.027-0.106-0.021-0.225-0.123-0.272
					c-0.096-0.066-0.226-0.053-0.309,0.027c-0.014,0.013-1.611,1.492-2.928,1.505c-0.103,0-0.199,0.06-0.24,0.152l-0.597,1.412
					c-0.041,0.08-0.027,0.172,0.034,0.252C12.439,14.534,12.542,14.574,12.631,14.554z"/>
			</g>
		</g>
		<g>
			<g>
				<path fill-rule="evenodd" clip-rule="evenodd" d="M11.904,11.014C10.656,10.988,9.593,9.781,9.6,9.582
					c0.007-0.192,4.505-0.099,4.505,0.099C14.098,9.874,13.145,11.034,11.904,11.014z M10.8,7.129
					c0.267,0.007,0.473,0.378,0.466,0.822c-0.014,0.464-0.233,0.822-0.501,0.815c-0.267-0.007-0.466-0.378-0.459-0.835
					C10.313,7.481,10.539,7.123,10.8,7.129z M13.193,7.249c0.261,0,0.466,0.378,0.459,0.829c-0.014,0.451-0.233,0.815-0.501,0.809
					c-0.267-0.007-0.466-0.371-0.453-0.829C12.706,7.607,12.926,7.242,13.193,7.249z M11.931,4.551
					C9.415,4.498,7.447,6.997,8.674,9.556c1.262,2.632,2.29,3.613,2.997,6.317c0.823-2.671,1.899-3.606,3.278-6.185
					C16.293,7.189,14.448,4.604,11.931,4.551z"/>
			</g>
		</g>
	</g>
</g>
</svg>
