<?xml version="1.0" encoding="utf-8"?>
<!-- Generator: Adobe Illustrator 19.2.1, SVG Export Plug-In . SVG Version: 6.00 Build 0)  -->
<svg version="1.1" xmlns="http://www.w3.org/2000/svg" xmlns:xlink="http://www.w3.org/1999/xlink" x="0px" y="0px" width="24px"
	 height="24px" viewBox="0 0 24 24" style="enable-background:new 0 0 24 24;" xml:space="preserve">
<style type="text/css">
	.st0{opacity:0.3;fill:#FFFFFF;enable-background:new    ;}
	.st1{opacity:0.7;fill:#FFFFFF;enable-background:new    ;}
	.st2{fill:#FFFFFF;}
	.st3{opacity:0.4;fill:#FFFFFF;enable-background:new    ;}
	.st4{fill:none;}
	.st5{fill:#B8D432;}
	.st6{fill:#2E80AB;}
	.st7{fill:#1F2328;}
	.st8{opacity:0.4;}
	.st9{opacity:0.7;}
	.st10{display:none;}
	.st11{display:inline;}
	.st12{fill:#FF8C00;}
	.st13{fill:#0078D7;}
	.st14{fill:#E81123;}
	.st15{fill:#32383F;}
	.st16{fill:#C0C0C0;}
	.st17{fill:#7A7A7A;}
	.st18{fill:#00BCF2;}
	.st19{fill:#B3B3B3;}
	.st20{fill:#3E3E3E;}
	.st21{fill:#E5E5E5;}
	.st22{fill:#A0A1A2;}
	.st23{opacity:0.15;fill:#FFFFFF;enable-background:new    ;}
	.st24{opacity:0.1;fill:#FFFFFF;enable-background:new    ;}
	.st25{fill:#7AC3E1;}
	.st26{fill:#BA141A;}
	.st27{opacity:0.2;fill:#FFFFFF;enable-background:new    ;}
	.st28{fill:#59B4D9;}
	.st29{fill:#3999C6;}
	.st30{clip-path:url(#SVGID_6_);fill:#DEE2E5;}
	.st31{clip-path:url(#SVGID_6_);fill:#9CD5F4;}
	.st32{opacity:0.4;clip-path:url(#SVGID_6_);fill:url(#);}
	.st33{clip-path:url(#SVGID_6_);}
	.st34{clip-path:url(#SVGID_8_);fill:none;stroke:#00BBF1;stroke-linecap:round;stroke-linejoin:round;stroke-miterlimit:10;}
	.st35{fill:#0F0F0F;}
	.st36{fill-rule:evenodd;clip-rule:evenodd;fill:#9CD5F4;}
	.st37{fill-rule:evenodd;clip-rule:evenodd;fill:#00BCF2;}
	.st38{fill:#888888;}
	.st39{fill:#758292;}
	.st40{fill:#2AA7DF;}
	.st41{fill:#32A3D7;}
	.st42{fill:#C4E6F6;}
	.st43{fill-rule:evenodd;clip-rule:evenodd;fill:#FFFFFF;}
	.st44{opacity:0.3;fill:#FFFFFF;}
	.st45{fill:#D2D7DB;}
	.st46{fill:#C8CDD3;}
	.st47{fill:#E3E6E9;}
	.st48{fill:#9EA7B2;}
	.st49{fill:#00567B;}
	.st50{fill:#8AC340;}
	.st51{fill:#4A494A;}
	.st52{fill:#338899;}
	.st53{fill:#99DDDD;}
	.st54{fill:#E8E7E6;}
	.st55{fill:#59B4D9;stroke:#59B4D9;stroke-width:0.232;stroke-miterlimit:10;}
	.st56{fill:#FCD116;}
	.st57{fill:#CA6228;}
	.st58{fill:#DCE0E4;}
	.st59{fill:#7FBA00;}
	.st60{opacity:0.2;}
	.st61{opacity:0.8;fill:#FFFFFF;}
	.st62{fill:#1E1E1E;}
	.st63{fill:#3998C5;}
	.st64{fill:#59B3D8;}
	.st65{opacity:0.5;fill:#FFFFFF;enable-background:new    ;}
	.st66{fill:#B7D332;}
	.st67{fill:#474C52;}
	.st68{opacity:0.8;fill:#42C94C;}
	.st69{opacity:0.1;fill:#FFFFFF;}
	.st70{opacity:0.15;fill:#FFFFFF;}
	.st71{fill:#EE3601;}
	.st72{opacity:0.5;}
	.st73{clip-path:url(#SVGID_10_);fill:#DEE2E5;}
	.st74{clip-path:url(#SVGID_10_);fill:#9CD5F4;}
	.st75{opacity:0.4;clip-path:url(#SVGID_10_);fill:url(#);}
	.st76{clip-path:url(#SVGID_10_);}
	.st77{clip-path:url(#SVGID_12_);fill:none;stroke:#00BBF1;stroke-linecap:round;stroke-linejoin:round;stroke-miterlimit:10;}
	.st78{fill:#FFB900;}
	.st79{fill:none;stroke:#C0C0C0;stroke-miterlimit:3;}
	.st80{opacity:0.5;fill:none;stroke:#C0C0C0;stroke-miterlimit:3;}
	.st81{opacity:0.7;fill:#FFFFFF;}
	.st82{clip-path:url(#SVGID_14_);fill:#DEE2E5;}
	.st83{clip-path:url(#SVGID_14_);fill:#9CD5F4;}
	.st84{opacity:0.4;clip-path:url(#SVGID_14_);fill:url(#);}
	.st85{clip-path:url(#SVGID_14_);}
	.st86{clip-path:url(#SVGID_16_);fill:none;stroke:#00BBF1;stroke-linecap:round;stroke-linejoin:round;stroke-miterlimit:10;}
	.st87{clip-path:url(#SVGID_18_);fill:#DEE2E5;}
	.st88{clip-path:url(#SVGID_18_);fill:#9CD5F4;}
	.st89{opacity:0.4;clip-path:url(#SVGID_18_);fill:url(#);}
	.st90{clip-path:url(#SVGID_18_);}
	.st91{clip-path:url(#SVGID_20_);fill:none;stroke:#00BBF1;stroke-linecap:round;stroke-linejoin:round;stroke-miterlimit:10;}
	.st92{fill:#231F20;}
	.st93{fill:#EF3D14;}
	.st94{fill:#EF3F22;}
	.st95{fill:#F4513B;}
	.st96{opacity:0.9;fill:#CCCC06;}
	.st97{fill:#FCD117;}
	.st98{display:inline;opacity:0.75;fill:#FFFFFF;}
	.st99{fill:#FF0000;}
	.st100{display:inline;fill:none;stroke:#FF0000;stroke-miterlimit:10;}
	.st101{fill:none;stroke:#FF0000;stroke-miterlimit:10;}
	.st102{display:inline;opacity:0.2;fill:#FF0000;}
</style>
<symbol  id="Jump_Bar_Billing_Hub" viewBox="0 -21 21 21">
	<path class="st0" d="M21-10.5h-4.7c0-1.72-0.753-3.261-1.943-4.323l3.132-3.511C19.643-16.41,21-13.614,21-10.5"/>
	<path class="st1" d="M16.3-10.5H21C21-4.701,16.299,0,10.5,0v-4.7C13.703-4.7,16.3-7.297,16.3-10.5"/>
	<path class="st2" d="M10.5-16.3c-3.203,0-5.801,2.597-5.801,5.8s2.597,5.8,5.8,5.8l0,0V0l0,0l0,0C4.7-0.001,0-4.701,0-10.5
		S4.701-21,10.5-21c2.685,0,5.133,1.009,6.989,2.667l-3.132,3.51C13.331-15.739,11.983-16.3,10.5-16.3z"/>
	<g>
		<path class="st2" d="M12.34-11.732c0-0.323-0.106-0.593-0.318-0.81c-0.217-0.224-0.521-0.367-0.916-0.431v-0.742H10.75V-13
			c-0.23,0-0.466,0.033-0.707,0.1c-0.215,0.057-0.373,0.121-0.476,0.194v0.595c0.132-0.118,0.316-0.218,0.554-0.297
			c0.226-0.078,0.436-0.117,0.629-0.117v1.75c-0.415,0.201-0.704,0.383-0.868,0.547C9.663-10.004,9.554-9.722,9.554-9.38
			c0,0.324,0.111,0.606,0.333,0.848c0.223,0.242,0.51,0.389,0.863,0.441v0.614h0.355v-0.602c0.444-0.014,0.753-0.077,0.926-0.191
			v-0.581c-0.232,0.18-0.541,0.278-0.926,0.294v-1.805c0.403-0.193,0.693-0.375,0.871-0.543
			C12.219-11.137,12.34-11.413,12.34-11.732z M10.75-10.174v1.597c-0.191-0.039-0.343-0.124-0.455-0.255
			c-0.111-0.131-0.167-0.291-0.167-0.48c0-0.193,0.046-0.354,0.137-0.479C10.355-9.919,10.518-10.046,10.75-10.174z M11.766-11.783
			c0,0.314-0.221,0.593-0.66,0.834v-1.549C11.545-12.402,11.766-12.164,11.766-11.783z"/>
	</g>
</symbol>
<symbol  id="Jump_Bar_Browse" viewBox="0 -21 21 21">
	<rect x="6.824" y="-4.443" class="st3" width="4.244" height="4.198"/>
	<rect x="11.777" y="-4.443" class="st3" width="4.257" height="4.198"/>
	<rect x="16.756" y="-4.443" class="st3" width="4.244" height="4.198"/>
	<rect x="16.756" y="-9.408" class="st3" width="4.244" height="4.198"/>
	<rect x="16.756" y="-14.434" class="st3" width="4.244" height="4.257"/>
	<path class="st2" d="M1.567-20.756c-0.416,0-0.808,0.162-1.103,0.454C0.167-20.007,0.002-19.615,0-19.195
		c-0.002,0.419,0.159,0.813,0.454,1.11l3.788,3.824c-0.64,1.194-0.817,2.564-0.496,3.876C4.351-7.938,6.53-6.23,9.044-6.23
		c0.437,0,0.877-0.054,1.309-0.159c1.415-0.349,2.611-1.228,3.365-2.476s0.978-2.716,0.628-4.131
		c-0.602-2.445-2.78-4.152-5.298-4.152c-0.44,0-0.88,0.054-1.307,0.159c-0.447,0.11-0.88,0.278-1.292,0.502L2.681-20.29
		C2.383-20.59,1.988-20.756,1.567-20.756 M9.044-8.298c-1.561,0-2.913-1.062-3.29-2.583c-0.227-0.927-0.045-1.918,0.498-2.715
		c0.236-0.347,0.53-0.644,0.873-0.882c0.343-0.237,0.717-0.407,1.11-0.504C8.5-15.048,8.774-15.08,9.047-15.08
		c1.563,0,2.916,1.06,3.29,2.579c0.217,0.878,0.079,1.79-0.39,2.566c-0.468,0.775-1.21,1.321-2.088,1.538
		C9.59-8.331,9.316-8.298,9.044-8.298"/>
	<path class="st3" d="M10.518-5.909c0.187-0.046,0.37-0.101,0.55-0.164v0.862H6.824V-6.2C7.53-5.903,8.301-5.737,9.106-5.737
		C9.578-5.737,10.053-5.795,10.518-5.909"/>
	<path class="st3" d="M14.148-8.58c0.161-0.267,0.294-0.546,0.41-0.829h1.477v4.198h-4.257v-1.171
		C12.749-6.874,13.569-7.624,14.148-8.58"/>
	<path class="st3" d="M14.826-13.036c-0.122-0.496-0.305-0.964-0.538-1.397h1.747v4.257H14.82
		C15.055-11.104,15.061-12.082,14.826-13.036"/>
	<path class="st3" d="M11.997-11.682c0-1.603-1.301-2.903-2.903-2.903c-1.604,0-2.903,1.299-2.903,2.903
		c0,1.603,1.3,2.903,2.903,2.903C10.696-8.78,11.997-10.078,11.997-11.682"/>
	<rect y="-21" class="st4" width="21" height="21"/>
</symbol>
<symbol  id="Jump_Bar_Create" viewBox="0 -21 21 21">
	<polygon class="st5" points="21,-9 12,-9 12,0 9,0 9,-9 0,-9 0,-12 9,-12 9,-21 12,-21 12,-12 21,-12 	"/>
</symbol>
<symbol  id="Jump_Bar_Home" viewBox="0 -30 30 30">
	<path class="st2" d="M19.781-18.141c0-1.125-0.844-1.969-1.875-1.969c-0.844,0-1.5,0.469-1.781,1.125H4.969
		C2.25-18.984,0-16.828,0-14.016s2.25,5.062,4.969,5.062h0.375l0,0l0,0l0,0c0.938,2.25,3.094,3.844,5.625,3.844
		c2.25,0,4.125-1.125,5.156-2.906c-0.563-0.094-1.031-0.281-1.5-0.469c-0.844,1.125-2.156,1.875-3.656,1.875
		c-1.688,0-3.187-0.938-3.937-2.344C6.938-9.047,6.938-9.234,6.844-9.328c-0.094-0.375-0.281-0.75-0.281-1.125H4.969l0,0l0,0l0,0
		c-1.875,0-3.375-1.594-3.375-3.469s1.5-3.469,3.375-3.469l0,0h11.063c0.375,0.656,1.031,1.125,1.781,1.125
		C18.938-16.266,19.781-17.016,19.781-18.141z M24-12.422c-1.125,2.25-3.469,3.844-6.094,3.844c-3.281,0-6-2.344-6.656-5.438
		c-1.594-0.188-3-1.031-3.844-2.25h8.156c0.563,0.75,1.406,1.125,2.344,1.125c1.687,0,3-1.406,3-3.094s-1.406-3.094-3-3.094
		c-0.938,0-1.781,0.469-2.344,1.125H6.469c0.375-2.625,2.625-4.688,5.25-4.688l0,0l0,0h12.187l0,0l0,0
		c3.375,0,6.094,2.719,6.094,6.188C30-15.234,27.281-12.516,24-12.422z"/>
	<rect y="-30" class="st4" width="30" height="30"/>
</symbol>
<symbol  id="Jump_Bar_Notifications" viewBox="0 -21 21 21">
	<path class="st2" d="M18.218-0.227H2.641C1.1-0.227,0-1.392,0-2.926v-11.022c0-1.559,1.12-2.279,2.662-2.279h5.627l4.621-4.546
		l0.034,4.546h5.23c1.539,0,2.802,0.871,2.802,2.41L21-2.8C21.01-1.269,19.759-0.227,18.218-0.227z M11.871-3.227l-0.392-6H9.634
		l-0.391,6H11.871z M10.49-13.492c-0.914,0-1.656,0.741-1.656,1.656s0.742,1.656,1.656,1.656c0.914,0,1.656-0.741,1.656-1.656
		S11.404-13.492,10.49-13.492z"/>
	<rect x="0" y="-21" class="st4" width="21" height="21"/>
</symbol>
<g id="Layer_1">
	<g id="Badge_Warning_Outline">
	</g>
	<g id="Azure_top_nav_2">
	</g>
	<g>
		<path class="st16" d="M12,0C5.373,0,0,5.373,0,12s5.373,12,12,12s12-5.373,12-12S18.627,0,12,0z M12,22.5
			C6.21,22.5,1.5,17.79,1.5,12S6.21,1.5,12,1.5S22.5,6.21,22.5,12S17.79,22.5,12,22.5z M16.5,10.5C15.673,10.5,15,9.827,15,9
			s0.673-1.5,1.5-1.5S18,8.173,18,9S17.327,10.5,16.5,10.5z M7.5,10.5C6.673,10.5,6,9.827,6,9s0.673-1.5,1.5-1.5S9,8.173,9,9
			S8.327,10.5,7.5,10.5z M6.406,15.995c0.001-0.002,0.002-0.005,0.002-0.007L7.525,15c1.098,1.236,2.694,2.02,4.474,2.02
			c1.78,0,3.375-0.783,4.474-2.019l1.116,0.988c0.001,0.002,0.002,0.003,0.004,0.005c-1.373,1.546-3.368,2.526-5.594,2.526
			C9.773,18.52,7.779,17.54,6.406,15.995z"/>
	</g>
</g>
<g id="Redlines" class="st10">
</g>
</svg>
