<?xml version="1.0" encoding="utf-8"?>
<!-- Generator: Adobe Illustrator 17.1.0, SVG Export Plug-In . SVG Version: 6.00 Build 0)  -->
<!DOCTYPE svg PUBLIC "-//W3C//DTD SVG 1.1//EN" "http://www.w3.org/Graphics/SVG/1.1/DTD/svg11.dtd">
<svg version="1.1" id="Layer_1" xmlns="http://www.w3.org/2000/svg" xmlns:xlink="http://www.w3.org/1999/xlink" x="0px" y="0px"
	 height="20px" width="20px" viewBox="0 0 20 20" enable-background="new 0 0 20 20" xml:space="preserve">
<path d="M10,0C4.5,0,0,4.5,0,10s4.5,10,10,10s10-4.5,10-10S15.5,0,10,0z M18,12.9C18,12.9,17.9,12.9,18,12.9l-3.6,0
	c0.1-0.9,0.2-1.9,0.2-2.9s-0.1-2-0.2-2.9H18C18.3,8,18.5,9,18.5,10C18.5,11,18.3,12,18,12.9z M10.4,18.5c-0.1,0-0.3,0-0.4,0
	s-0.3,0-0.4,0c-0.9-0.4-1.8-1.9-2.3-4.1h5.5C12.2,16.6,11.3,18.1,10.4,18.5z M7,12.9C6.8,12,6.8,11,6.8,10S6.8,8,7,7.1H13
	C13.2,8,13.2,9,13.2,10s-0.1,2-0.2,2.9H7z M2,12.9C1.7,12,1.5,11,1.5,10c0-1,0.2-2,0.5-2.9h3.6C5.5,8,5.4,9,5.4,10s0.1,2,0.2,2.9
	L2,12.9C2.1,12.9,2,12.9,2,12.9z M9.6,1.5c0.1,0,0.3,0,0.4,0s0.3,0,0.4,0c0.9,0.4,1.8,1.9,2.3,4.1H7.3C7.8,3.4,8.7,1.9,9.6,1.5z
	 M17.2,5.6h-3.1c-0.3-1.4-0.8-2.7-1.4-3.6C14.6,2.6,16.2,3.9,17.2,5.6z M7.2,2C6.6,2.9,6.2,4.1,5.9,5.6H2.8C3.8,3.9,5.4,2.6,7.2,2z
	 M2.8,14.4h3.1c0.3,1.4,0.8,2.7,1.4,3.6C5.4,17.4,3.8,16.1,2.8,14.4z M12.8,18c0.6-0.9,1.1-2.2,1.4-3.6h3.1
	C16.2,16.1,14.6,17.4,12.8,18z"/>
</svg>
