<?xml version="1.0" encoding="utf-8"?>
<!-- Generator: Adobe Illustrator 17.1.0, SVG Export Plug-In . SVG Version: 6.00 Build 0)  -->
<!DOCTYPE svg PUBLIC "-//W3C//DTD SVG 1.1//EN" "http://www.w3.org/Graphics/SVG/1.1/DTD/svg11.dtd">
<svg version="1.1" id="Layer_1" xmlns="http://www.w3.org/2000/svg" xmlns:xlink="http://www.w3.org/1999/xlink" x="0px" y="0px"
	 height="24px" width="24px" viewBox="0 0 24 24" enable-background="new 0 0 24 24" xml:space="preserve">
<rect x="16" y="4" width="6" height="2"/>
<rect x="16" y="8" width="6" height="2"/>
<rect x="16" y="14" width="6" height="2"/>
<rect x="16" y="18" width="6" height="2"/>
<polygon points="14,4 14,3 12,3 11,3 10,3 10,11 11,11 12,11 14,11 14,10 12,10 12,4 "/>
<polygon points="8,4 8,2 5,2 4,2 3,2 3,22 4,22 5,22 8,22 8,20 6,20 6,4 "/>
<polygon points="14,14 14,13 12,13 11,13 10,13 10,21 11,21 12,21 14,21 14,20 12,20 12,14 "/>
<rect x="2" y="10" width="1" height="4"/>
</svg>
