<?xml version="1.0" encoding="utf-8"?>
<!-- Generator: Adobe Illustrator 17.1.0, SVG Export Plug-In . SVG Version: 6.00 Build 0)  -->
<!DOCTYPE svg PUBLIC "-//W3C//DTD SVG 1.1//EN" "http://www.w3.org/Graphics/SVG/1.1/DTD/svg11.dtd">
<svg version="1.1" id="Layer_1" xmlns="http://www.w3.org/2000/svg" xmlns:xlink="http://www.w3.org/1999/xlink" x="0px" y="0px"
	 height="16px" width="16px" viewBox="0 0 16 16" enable-background="new 0 0 16 16" xml:space="preserve">
<path d="M3.5,12.1c1.3,1.7,3.3,2.8,5.6,2.8c3.8,0,7-3.1,7-7s-3.1-7-7-7s-7,3.1-7,7c0,0.2,0,0.5,0,0.7h2.2c0-0.2-0.1-0.5-0.1-0.7
	c0-2.6,2.1-4.8,4.8-4.8s4.8,2.1,4.8,4.8s-2.1,4.8-4.8,4.8c-1.6,0-3-0.8-3.9-2L3.5,12.1z"/>
<rect x="8.2" y="3.6" width="0.9" height="4.6"/>
<rect x="8.2" y="8" width="4.3" height="0.9"/>
<polygon points="6.3,8 3.1,11.1 0,8 "/>
</svg>
