<?xml version="1.0" encoding="utf-8"?>
<!-- Generator: Adobe Illustrator 17.1.0, SVG Export Plug-In . SVG Version: 6.00 Build 0)  -->
<!DOCTYPE svg PUBLIC "-//W3C//DTD SVG 1.1//EN" "http://www.w3.org/Graphics/SVG/1.1/DTD/svg11.dtd">
<svg version="1.1" id="Layer_1" xmlns="http://www.w3.org/2000/svg" xmlns:xlink="http://www.w3.org/1999/xlink" x="0px" y="0px"
	 height="16px" width="16px" viewBox="0 0 16 16" enable-background="new 0 0 16 16" xml:space="preserve">
<path d="M8,10.9c0,0,5.5,0,5.5,0c1.3,0,2.5-1.1,2.5-2.5V2.5C16,1.1,14.9,0,13.5,0H7.6C6.2,0,5.1,1.1,5.1,2.5v5.2L0,12.8V16h4v-2h2
	v-2h2V10.9z M14.1,1.9c0.5,0.5,0.5,1.4,0,1.9c-0.5,0.5-1.4,0.5-1.9,0c-0.5-0.5-0.5-1.4,0-1.9C12.6,1.4,13.5,1.4,14.1,1.9z"/>
</svg>
