<?xml version="1.0" encoding="utf-8"?>
<!-- Generator: Adobe Illustrator 17.1.0, SVG Export Plug-In . SVG Version: 6.00 Build 0)  -->
<!DOCTYPE svg PUBLIC "-//W3C//DTD SVG 1.1//EN" "http://www.w3.org/Graphics/SVG/1.1/DTD/svg11.dtd">
<svg version="1.1" id="Layer_1" xmlns="http://www.w3.org/2000/svg" xmlns:xlink="http://www.w3.org/1999/xlink" x="0px" y="0px"
	 height="16px" width="16px" viewBox="0 0 16 16" enable-background="new 0 0 16 16" xml:space="preserve">
<g>
	<g>
		<path d="M15.2,6l-2.3,2.2C12,9,11,9.1,9.9,8.8L14,4.9c0.6-0.6,0.3-1.8-0.3-2.3c-0.6-0.6-1.8-0.8-2.4-0.3L7.2,6.2
			c-0.3-1-0.3-2,0.6-2.8l2.3-2.2c1.2-1.2,3.6-1,4.8,0.2C16.2,2.5,16.4,4.8,15.2,6L15.2,6z"/>
		<path d="M4.7,13.8l4.1-3.9c0.3,1,0.3,2-0.6,2.8l-2.3,2.2c-1.2,1.2-3.5,0.9-4.8-0.3c-1.2-1.2-1.5-3.3-0.3-4.5l2.3-2.2
			C4,7,5,7,6,7.3L2,11.2c-0.6,0.6-0.3,1.7,0.3,2.3C2.8,14,4,14.4,4.7,13.8L4.7,13.8z"/>
		<path d="M4.5,10.2l5.8-5.5c0.3-0.3,0.9-1,1.6-0.4c0.5,0.5,0.1,1-0.4,1.5l-5.8,5.5c-0.5,0.5-1.3,1.2-1.8,0.7
			C3.3,11.5,3.8,10.8,4.5,10.2z"/>
	</g>
</g>
</svg>
