<?xml version="1.0" encoding="utf-8"?>
<!-- Generator: Adobe Illustrator 17.0.1, SVG Export Plug-In . SVG Version: 6.00 Build 0)  -->
<!DOCTYPE svg PUBLIC "-//W3C//DTD SVG 1.1//EN" "http://www.w3.org/Graphics/SVG/1.1/DTD/svg11.dtd">
<svg version="1.1" id="Layer_1" xmlns="http://www.w3.org/2000/svg" xmlns:xlink="http://www.w3.org/1999/xlink" x="0px" y="0px"
	 width="30px" height="30px" viewBox="0 0 30 30" enable-background="new 0 0 30 30" xml:space="preserve">
<path fill="#0F0F0F" d="M7.625,9.668c0,0.283-0.054,0.547-0.161,0.791s-0.254,0.457-0.439,0.637s-0.408,0.322-0.667,0.425
	s-0.544,0.154-0.857,0.154c-0.293,0-0.566-0.051-0.82-0.154s-0.476-0.247-0.667-0.432s-0.342-0.4-0.454-0.645
	C3.447,10.2,3.391,9.942,3.391,9.668c0-0.283,0.056-0.547,0.168-0.791C3.672,8.633,3.826,8.421,4.021,8.24
	c0.195-0.181,0.422-0.322,0.681-0.425C4.961,7.713,5.237,7.661,5.53,7.661c0.303,0,0.581,0.051,0.835,0.154
	C6.619,7.918,6.839,8.059,7.024,8.24s0.332,0.393,0.439,0.637C7.571,9.121,7.625,9.385,7.625,9.668z"/>
<path fill="#0F0F0F" d="M7.625,21.299c0,0.283-0.054,0.549-0.161,0.798s-0.254,0.464-0.439,0.645s-0.408,0.322-0.667,0.425
	S5.813,23.32,5.501,23.32c-0.293,0-0.566-0.054-0.82-0.161s-0.476-0.254-0.667-0.439s-0.342-0.4-0.454-0.645
	c-0.112-0.244-0.168-0.503-0.168-0.776c0-0.293,0.056-0.564,0.168-0.813s0.266-0.464,0.461-0.645
	c0.195-0.181,0.422-0.322,0.681-0.425s0.535-0.154,0.828-0.154c0.303,0,0.581,0.054,0.835,0.161
	c0.254,0.107,0.474,0.251,0.659,0.432s0.332,0.396,0.439,0.645C7.571,20.749,7.625,21.015,7.625,21.299z"/>
<rect x="11.096" y="13.594" fill="#0F0F0F" width="8.012" height="2.49"/>
<rect x="23.723" fill="#0F0F0F" width="2.886" height="30"/>
</svg>
