<svg xmlns="http://www.w3.org/2000/svg" viewBox="0 0 50 50"><defs><style>.a{fill:#ff8c00;}.b{opacity:0.2;}.c{fill:#fff;}.d{fill:#7a7a7a;}</style></defs><title>Notification hub namespaces icons</title><path class="a" d="M18.22,26.66V29.9L10.6,23.42H40V13.7A3.79,3.79,0,0,0,36,10H13.78C11.56,10,10,11.3,10,13.52v3.54H32V13.82l7.62,6.48H10v8.94a4,4,0,0,0,3.78,4.2h8l6.6,6.48,0.06-6.48H36a4,4,0,0,0,4-4V26.6H18.22v0.06Z"/><g class="b"><path class="c" d="M13.78,33.5H19.6L23,26.72H18.16V30L10.6,23.42h14l1.68-3.12H10v8.94A4.12,4.12,0,0,0,13.78,33.5Z"/><path class="c" d="M31.36,10H13.78C11.56,10,10,11.3,10,13.52v3.54H27.82Z"/></g><path class="d" d="M9.56,45.17A1.45,1.45,0,0,1,8.83,45L2,41a4.21,4.21,0,0,1-2-3.44V12.42A4.21,4.21,0,0,1,2,9L8.83,5a1.45,1.45,0,0,1,1.46,2.52l-6.84,4a1.4,1.4,0,0,0-.53.92V37.58a1.4,1.4,0,0,0,.53.92l6.84,4A1.46,1.46,0,0,1,9.56,45.17Z"/><path class="d" d="M40.44,4.83a1.45,1.45,0,0,1,.73.2L48,9a4.21,4.21,0,0,1,2,3.44V37.58A4.21,4.21,0,0,1,48,41l-6.85,4a1.45,1.45,0,0,1-1.45-2.52l6.85-4a1.4,1.4,0,0,0,.53-0.92V12.42a1.4,1.4,0,0,0-.53-0.92l-6.85-4A1.46,1.46,0,0,1,40.44,4.83Z"/></svg>