<?xml version="1.0" encoding="utf-8"?>
<!-- Generator: Adobe Illustrator 17.1.0, SVG Export Plug-In . SVG Version: 6.00 Build 0)  -->
<!DOCTYPE svg PUBLIC "-//W3C//DTD SVG 1.1//EN" "http://www.w3.org/Graphics/SVG/1.1/DTD/svg11.dtd">
<svg version="1.1" id="Layer_1" xmlns="http://www.w3.org/2000/svg" xmlns:xlink="http://www.w3.org/1999/xlink" x="0px" y="0px"
	 height="24px" width="24px" viewBox="0 0 24 24" enable-background="new 0 0 24 24" xml:space="preserve">
<g>
	<polygon points="3,11 5,11 5,12 3,12 3,15 6,15 6,14 4,14 4,13 6,13 6,10 3,10 	"/>
	<polygon points="3,18 5,18 5,19 4,19 4,20 5,20 5,21 3,21 3,22 6,22 6,17 3,17 	"/>
	<rect x="8" y="4" width="13" height="2"/>
	<rect x="8" y="11" width="13" height="2"/>
	<rect x="8" y="18" width="13" height="2"/>
</g>
<path d="M5,3v5H4V4H3V3H5z"/>
</svg>
