<?xml version="1.0" encoding="utf-8"?>
<!-- Generator: Adobe Illustrator 17.1.0, SVG Export Plug-In . SVG Version: 6.00 Build 0)  -->
<!DOCTYPE svg PUBLIC "-//W3C//DTD SVG 1.1//EN" "http://www.w3.org/Graphics/SVG/1.1/DTD/svg11.dtd">
<svg version="1.1" id="Layer_1" xmlns="http://www.w3.org/2000/svg" xmlns:xlink="http://www.w3.org/1999/xlink" x="0px" y="0px"
	 height="16px" width="16px" viewBox="0 0 16 16" enable-background="new 0 0 16 16" xml:space="preserve">
<path d="M14.8,10H5.4c-0.5,0-0.9-0.6-0.9-1.1S4.9,8,5.4,8h9.4c0.5,0,0.9,0.4,0.9,0.9C15.7,9.4,15.3,10,14.8,10z"/>
<path d="M14.8,4H5.4C4.9,4,4.5,3.4,4.5,2.9S4.9,2,5.4,2h9.4c0.5,0,0.9,0.4,0.9,0.9S15.3,4,14.8,4z"/>
<path d="M14.8,16H5.4c-0.5,0-0.9-0.6-0.9-1.1S4.9,14,5.4,14h9.4c0.5,0,0.9,0.4,0.9,0.9S15.3,16,14.8,16z"/>
<circle cx="1.5" cy="2.5" r="1.5"/>
<circle cx="1.5" cy="8.5" r="1.5"/>
<circle cx="1.5" cy="14.5" r="1.5"/>
</svg>
