<svg xmlns="http://www.w3.org/2000/svg" viewBox="0 0 16 16"><title>Notification hub namespaces icons</title><path d="M7.89,7.48Q7.62,6.39,7.4,5.21,8.49,3.93,9.08,3.29A13.11,13.11,0,0,1,10,2.35,2.3,2.3,0,0,1,10.56,2a0.8,0.8,0,0,1,.35-0.15,0.39,0.39,0,0,1,.33.19h1L12.8,0a2.64,2.64,0,0,0-1.06-.12,3.08,3.08,0,0,0-.85.14,2.51,2.51,0,0,0-.72.38,6,6,0,0,0-.83.77C9,1.52,8.66,2.05,8.23,2.61L7.17,4H7a15.89,15.89,0,0,0-.49-2.16A2.93,2.93,0,0,0,5.83.42,1.75,1.75,0,0,0,4.65,0,2.91,2.91,0,0,0,3.49.19,2.86,2.86,0,0,0,2.57.9,12.37,12.37,0,0,0,1.43,2.42L2.32,2.95a4.91,4.91,0,0,1,.83-1.13,1,1,0,0,1,.69-0.27,0.89,0.89,0,0,1,.41.1A0.81,0.81,0,0,1,4.58,2a4.64,4.64,0,0,1,.31.87C5,3.27,5.12,3.74,5.23,4.27L5.56,5.7Q4.16,7.34,3.44,8.1a6.83,6.83,0,0,1-1,.95,1.39,1.39,0,0,1-.56.3A0.61,0.61,0,0,1,1.55,9h-1L0,11a2.56,2.56,0,0,0,1.07.16A2.65,2.65,0,0,0,2,11a3.08,3.08,0,0,0,.84-0.54A12.1,12.1,0,0,0,4,9.31C4.41,8.8,5,8,5.8,7H5.91S6,7.66,6.19,8.34a12.58,12.58,0,0,0,.38,1.44,2.67,2.67,0,0,0,.25.46L8.26,8.79C8.17,8.53,8,8.1,7.89,7.48Z"/><polygon points="15.14 11.94 12.52 9.33 12.52 16 11.3 16 11.3 9.33 8.69 11.94 7.83 11.09 11.91 7 16 11.09 15.14 11.94"/></svg>