<?xml version="1.0" encoding="utf-8"?>
<!-- Generator: Adobe Illustrator 17.1.0, SVG Export Plug-In . SVG Version: 6.00 Build 0)  -->
<!DOCTYPE svg PUBLIC "-//W3C//DTD SVG 1.1//EN" "http://www.w3.org/Graphics/SVG/1.1/DTD/svg11.dtd">
<svg version="1.1" id="Layer_1" xmlns="http://www.w3.org/2000/svg" xmlns:xlink="http://www.w3.org/1999/xlink" x="0px" y="0px"
	 height="16px" width="16px" viewBox="0 0 16 16" enable-background="new 0 0 16 16" xml:space="preserve">
<path d="M7.8,0c2.8,0,5.5,1.3,5.5,4.3c0,2.8-3.2,3.9-3.9,4.9C8.8,10,9,11,7.6,11c-0.9,0-1.4-0.8-1.4-1.4C6.2,7,10,6.4,10,4.3
	c0-1.2-0.8-1.9-2.1-1.9c-2.8,0-1.7,2.9-3.8,2.9C3.4,5.3,2.7,4.9,2.7,4C2.7,1.9,5.1,0,7.8,0z M7.7,12.5c1,0,1.8,0.8,1.8,1.8
	c0,1-0.8,1.8-1.8,1.8s-1.8-0.8-1.8-1.8S6.7,12.5,7.7,12.5z"/>
</svg>
