<?xml version="1.0" encoding="utf-8"?>
<!-- Generator: Adobe Illustrator 17.1.0, SVG Export Plug-In . SVG Version: 6.00 Build 0)  -->
<!DOCTYPE svg PUBLIC "-//W3C//DTD SVG 1.1//EN" "http://www.w3.org/Graphics/SVG/1.1/DTD/svg11.dtd">
<svg version="1.1" id="Layer_1" xmlns="http://www.w3.org/2000/svg" xmlns:xlink="http://www.w3.org/1999/xlink" x="0px" y="0px"
	 height="16px" width="16px" viewBox="0 0 16 16" enable-background="new 0 0 16 16" xml:space="preserve">
<path d="M6.7,0.8c1.4,0,2.7,0.5,3.8,1.4L13,4.3V0l2,1.6v6.4H8.6L7,6h4.4L8.9,3.9C8.3,3.4,7.5,3.1,6.7,3.1c-1.9,0-3.4,1.5-3.4,3.4
	c0,1,0.5,2,1.3,2.6l5.7,5L8.7,16L3,11C1.7,9.8,0.9,8.2,0.9,6.6C0.9,3.4,3.6,0.8,6.7,0.8z"/>
</svg>
