<?xml version="1.0" encoding="utf-8"?>
<!-- Generator: Adobe Illustrator 17.1.0, SVG Export Plug-In . SVG Version: 6.00 Build 0)  -->
<!DOCTYPE svg PUBLIC "-//W3C//DTD SVG 1.1//EN" "http://www.w3.org/Graphics/SVG/1.1/DTD/svg11.dtd">
<svg version="1.1" id="Layer_1" xmlns="http://www.w3.org/2000/svg" xmlns:xlink="http://www.w3.org/1999/xlink" x="0px" y="0px"
	 height="16px" width="16px" viewBox="0 0 16 16" enable-background="new 0 0 16 16" xml:space="preserve">
<path d="M12.7,8.8c-0.2,2.8-2.4,5-5.2,4.9c-2.9-0.1-5.3-2.5-5.3-5.4c0-1.7,0.8-3.2,2.1-4.2L7,6.6V0.2H0.2l2.4,2.4C1,4,0,6.1,0,8.3
	c0,4.2,3.4,7.6,7.5,7.7s7.3-3.1,7.4-7.2H12.7z"/>
<path d="M10.5,7.7h3.8C15.2,7.7,16,7,16,6V2c0-1-0.8-1.7-1.7-1.7h-4.1C9.3,0.2,8.5,1,8.5,2v3.6L5,9v2.2h2.4V9.9h1.7V8.1h1.4V7.7z
	 M14.7,1.5c0.3,0.3,0.3,1,0,1.3s-1,0.3-1.3,0s-0.3-1,0-1.3S14.3,1.2,14.7,1.5z"/>
</svg>
