<?xml version="1.0" encoding="utf-8"?>
<!-- Generator: Adobe Illustrator 17.1.0, SVG Export Plug-In . SVG Version: 6.00 Build 0)  -->
<!DOCTYPE svg PUBLIC "-//W3C//DTD SVG 1.1//EN" "http://www.w3.org/Graphics/SVG/1.1/DTD/svg11.dtd">
<svg version="1.1" id="Layer_1" xmlns="http://www.w3.org/2000/svg" xmlns:xlink="http://www.w3.org/1999/xlink" x="0px" y="0px"
	 width="24px" height="24px" viewBox="0 0 24 24" enable-background="new 0 0 24 24" xml:space="preserve">
<path d="M18.6,13c-0.2,3.5-3,6.2-6.5,6.1c-3.6-0.1-6.6-3.1-6.6-6.7c0-2.1,1-4,2.6-5.2l3.3,3.1v-8H3L6,5.3C4,7,2.7,9.6,2.7,12.4
	c0,5.2,4.2,9.5,9.4,9.6c5.1,0.1,9.1-3.9,9.2-9H18.6z"/>
<path d="M20.9,10.3h-5.4V8.9l2.4-2.2c0.5-0.5,0.8-0.9,1-1.2c0.2-0.3,0.3-0.6,0.3-0.9c0-0.8-0.4-1.1-1.2-1.1c-0.7,0-1.4,0.3-2,0.8
	V2.7C16.6,2.2,17.4,2,18.3,2c0.9,0,1.5,0.2,2,0.7c0.4,0.4,0.7,1,0.7,1.7c0,1-0.6,1.9-1.7,3l-1.7,1.5v0h3.3V10.3z"/>
</svg>
