<?xml version="1.0" encoding="utf-8"?>
<!-- Generator: Adobe Illustrator 17.1.0, SVG Export Plug-In . SVG Version: 6.00 Build 0)  -->
<!DOCTYPE svg PUBLIC "-//W3C//DTD SVG 1.1//EN" "http://www.w3.org/Graphics/SVG/1.1/DTD/svg11.dtd">
<svg version="1.1" id="Layer_1" xmlns="http://www.w3.org/2000/svg" xmlns:xlink="http://www.w3.org/1999/xlink" x="0px" y="0px"
	 height="24px" width="24px" viewBox="0 0 24 24" enable-background="new 0 0 24 24" xml:space="preserve">
<g>
	<g>
		<polygon fill-rule="evenodd" clip-rule="evenodd" points="9.6,8 8,9.7 4,6.2 5.7,4.6 		"/>
		<polygon fill-rule="evenodd" clip-rule="evenodd" points="20,17.6 18.6,19.3 14.6,16.2 16.3,14.5 		"/>
		<g>
			<path d="M18.6,10l-2.2,2.2c-0.8,0.8-1.7,0.8-2.7,0.5l3.8-3.8c0.6-0.6,0.3-1.7-0.3-2.3c-0.6-0.6-1.7-0.8-2.2-0.2l-3.8,3.8
				c-0.3-1-0.3-1.9,0.5-2.7l2.2-2.2c1.2-1.2,3.3-1,4.5,0.2S19.8,8.9,18.6,10L18.6,10z"/>
			<path d="M8.9,17.6l3.8-3.8c0.3,1,0.3,1.9-0.5,2.7L10,18.7c-1.2,1.2-3.3,0.9-4.5-0.3c-1.2-1.2-1.4-3.3-0.2-4.4l2.2-2.2
				c0.8-0.8,1.7-0.8,2.7-0.5l-3.8,3.8c-0.6,0.6-0.3,1.7,0.2,2.2C7.2,17.9,8.2,18.2,8.9,17.6L8.9,17.6z"/>
			<path fill-rule="evenodd" clip-rule="evenodd" d="M8.7,14.2l5.4-5.4c0.3-0.3,1.2-0.7,1.5-0.4c0.3,0.3-0.1,1.2-0.4,1.5l-5.4,5.4
				c-0.3,0.3-1.3,1-1.6,0.7C7.8,15.6,8.4,14.5,8.7,14.2z"/>
		</g>
	</g>
</g>
</svg>
