<?xml version="1.0" encoding="utf-8"?>
<!-- Generator: Adobe Illustrator 17.1.0, SVG Export Plug-In . SVG Version: 6.00 Build 0)  -->
<!DOCTYPE svg PUBLIC "-//W3C//DTD SVG 1.1//EN" "http://www.w3.org/Graphics/SVG/1.1/DTD/svg11.dtd">
<svg version="1.1" id="Layer_1" xmlns="http://www.w3.org/2000/svg" xmlns:xlink="http://www.w3.org/1999/xlink" x="0px" y="0px"
	 height="24px" width="24px" viewBox="0 0 24 24" enable-background="new 0 0 24 24" xml:space="preserve">
<g>
	<g>
		<polygon points="10.7,11.4 2.5,11.4 2.5,2.8 		"/>
		<path d="M13.1,21.5c-3.2,0-6.1-1.4-7.9-3.7l2.1-2c1.2,1.8,3.3,3.1,5.7,3.1c3.7,0,6.7-3,6.6-6.7c-0.1-3.7-3.1-6.7-6.9-6.7
			c-2.3,0-4.4,1.2-5.5,3L5.1,6.3C6.8,4,9.6,2.5,12.7,2.5c5.3,0,9.7,4.3,9.8,9.6C22.6,17.4,18.4,21.5,13.1,21.5z"/>
	</g>
</g>
</svg>
