<?xml version="1.0" encoding="utf-8"?>
<!-- Generator: Adobe Illustrator 17.1.0, SVG Export Plug-In . SVG Version: 6.00 Build 0)  -->
<!DOCTYPE svg PUBLIC "-//W3C//DTD SVG 1.1//EN" "http://www.w3.org/Graphics/SVG/1.1/DTD/svg11.dtd">
<svg version="1.1" id="Layer_1" xmlns="http://www.w3.org/2000/svg" xmlns:xlink="http://www.w3.org/1999/xlink" x="0px" y="0px"
	 viewBox="0 0 24 24" enable-background="new 0 0 24 24" xml:space="preserve">
<path d="M15.3,11.9c-0.9,0.8-2,1.3-3.3,1.3s-2.4-0.5-3.3-1.3L8.2,22l3.8-3.8l3.8,3.8L15.3,11.9z"/>
<path d="M12,2C8.4,2,5.5,4.9,5.5,8.5c0,3.6,2.9,6.5,6.5,6.5c3.6,0,6.5-2.9,6.5-6.5C18.5,4.9,15.6,2,12,2z M12,12.9
	c-2.5,0-4.5-2-4.5-4.5C7.5,6,9.5,4,12,4c2.5,0,4.5,2,4.5,4.5C16.5,10.9,14.5,12.9,12,12.9z"/>
</svg>
