<?xml version="1.0" encoding="utf-8"?>
<!-- Generator: Adobe Illustrator 17.1.0, SVG Export Plug-In . SVG Version: 6.00 Build 0)  -->
<!DOCTYPE svg PUBLIC "-//W3C//DTD SVG 1.1//EN" "http://www.w3.org/Graphics/SVG/1.1/DTD/svg11.dtd">
<svg version="1.1" id="Layer_1" xmlns="http://www.w3.org/2000/svg" xmlns:xlink="http://www.w3.org/1999/xlink" x="0px" y="0px"
	 width="50px" height="50px" viewBox="0 0 50 50" enable-background="new 0 0 50 50" xml:space="preserve">
<path d="M21.8,0.6c1.5,0.4,2.8,1,4.1,1.7C27.1,3.1,28.3,4,29.3,5c1,1.1,1.9,2.2,2.7,3.5c0.7,1.3,1.3,2.6,1.7,4.1
	c0.4,1.5,0.6,3,0.6,4.6c0,2-0.3,4-1,5.8s-1.7,3.6-3,5.1l19.1,19.2c0.3,0.3,0.5,0.7,0.5,1.1c0,0.4-0.2,0.8-0.5,1.1
	c-0.3,0.3-0.7,0.5-1.1,0.5c-0.4,0-0.8-0.2-1.1-0.5L28.2,30.4c-1.6,1.3-3.3,2.3-5.1,3c-1.9,0.7-3.8,1-5.8,1c-1.6,0-3.1-0.2-4.6-0.6
	c-1.5-0.4-2.8-1-4.1-1.7c-1.3-0.7-2.4-1.6-3.5-2.7c-1-1.1-1.9-2.2-2.7-3.5c-0.7-1.3-1.3-2.6-1.7-4.1c-0.4-1.5-0.6-3-0.6-4.6
	c0-1.6,0.2-3.1,0.6-4.6c0.4-1.5,1-2.8,1.7-4.1C3.1,7.3,4,6.1,5,5c1-1,2.2-1.9,3.5-2.7c1.3-0.7,2.6-1.3,4.1-1.7
	c1.5-0.4,3-0.6,4.6-0.6S20.3,0.2,21.8,0.6z M22.7,30.1c1.7-0.7,3.2-1.7,4.5-3s2.3-2.8,3-4.5c0.7-1.7,1.1-3.5,1.1-5.5
	c0-1.9-0.4-3.8-1.1-5.5c-0.7-1.7-1.7-3.2-3-4.5s-2.8-2.3-4.5-3c-1.7-0.7-3.5-1.1-5.5-1.1s-3.8,0.4-5.5,1.1C10,5,8.5,6,7.3,7.3
	S5,10,4.2,11.7c-0.7,1.7-1.1,3.5-1.1,5.5c0,1.9,0.4,3.8,1.1,5.5c0.7,1.7,1.7,3.2,3,4.5s2.8,2.3,4.5,3c1.7,0.7,3.5,1.1,5.5,1.1
	S20.9,30.9,22.7,30.1z"/>
</svg>
