<?xml version="1.0" encoding="utf-8"?>
<!-- Generator: Adobe Illustrator 17.1.0, SVG Export Plug-In . SVG Version: 6.00 Build 0)  -->
<!DOCTYPE svg PUBLIC "-//W3C//DTD SVG 1.1//EN" "http://www.w3.org/Graphics/SVG/1.1/DTD/svg11.dtd">
<svg version="1.1" id="Layer_1" xmlns="http://www.w3.org/2000/svg" xmlns:xlink="http://www.w3.org/1999/xlink" x="0px" y="0px"
	 height="16px" width="16px" viewBox="0 0 16 16" enable-background="new 0 0 16 16" xml:space="preserve">
<polygon fill-rule="evenodd" clip-rule="evenodd" points="6,7 4,7 4,5 2,5 2,7 0,7 0,9 2,9 2,11 4,11 4,9 6,9 "/>
<path fill-rule="evenodd" clip-rule="evenodd" d="M14.8,0H8C7.5,0,7,0.5,7,1.1v13.8C7,15.5,7.5,16,8,16h6.8c0.6,0,1.2-0.6,1.2-1.2V1
	C16,0.4,15.4,0,14.8,0z M12.5,15h-2c-0.3,0-0.5-0.2-0.5-0.5s0.2-0.5,0.5-0.5h2c0.3,0,0.5,0.2,0.5,0.5S12.8,15,12.5,15z M15,13H8V2h7
	V13z"/>
</svg>
