<?xml version="1.0" encoding="utf-8"?>
<!-- Generator: Adobe Illustrator 17.1.0, SVG Export Plug-In . SVG Version: 6.00 Build 0)  -->
<!DOCTYPE svg PUBLIC "-//W3C//DTD SVG 1.1//EN" "http://www.w3.org/Graphics/SVG/1.1/DTD/svg11.dtd">
<svg version="1.1" id="Layer_1" xmlns="http://www.w3.org/2000/svg" xmlns:xlink="http://www.w3.org/1999/xlink" x="0px" y="0px"
	 width="24px" height="24px" viewBox="0 0 24 24" enable-background="new 0 0 24 24" xml:space="preserve">
<polygon points="20.8,10.6 15.4,10.6 15.4,9.2 17.2,9.2 17.2,3.9 15.4,4.3 15.4,2.8 19,2.1 19,9.2 20.8,9.2 "/>
<path d="M4.8,11.8c0-2.1,1-3.9,2.5-5.1l3.3,3.1V2H2.2l3,2.8C3.3,6.5,2,9,2,11.8c0,4.9,3.8,9,8.6,9.4v-2.8C7.3,18,4.8,15.2,4.8,11.8z
	"/>
<path d="M19.2,12.2c0,2.1-1,3.9-2.5,5.1l-3.3-3.1V22h8.3l-3-2.8c2-1.7,3.2-4.1,3.2-7L19.2,12.2z"/>
</svg>
