<?xml version="1.0" encoding="utf-8"?>
<!-- Generator: Adobe Illustrator 17.1.0, SVG Export Plug-In . SVG Version: 6.00 Build 0)  -->
<!DOCTYPE svg PUBLIC "-//W3C//DTD SVG 1.1//EN" "http://www.w3.org/Graphics/SVG/1.1/DTD/svg11.dtd">
<svg version="1.1" id="Layer_1" xmlns="http://www.w3.org/2000/svg" xmlns:xlink="http://www.w3.org/1999/xlink" x="0px" y="0px"
	 height="16px" width="16px" viewBox="0 0 16 16" enable-background="new 0 0 16 16" xml:space="preserve">
<circle cx="2.9" cy="2.7" r="0.8"/>
<circle cx="2.9" cy="5.9" r="0.8"/>
<circle cx="2.9" cy="9.1" r="0.8"/>
<path d="M2,13.4c0-1.2,0.6-2.2,1.4-3H2c-0.6,0-1.2-0.6-1.2-1.2S1.4,8,2,8h5.6h0.1c0.4-0.6,1.2-0.9,1.9-0.9V0.8C9.6,0.3,9.2,0,8.8,0
	h-8C0.4,0,0,0.4,0,0.8v14.4C0,15.7,0.4,16,0.8,16H3C2.4,15.3,2,14.4,2,13.4z M2,1.5h5.6c0.6,0,1.2,0.6,1.2,1.2S8.2,3.9,7.6,3.9H2
	c-0.6,0-1.2-0.5-1.2-1.2S1.4,1.5,2,1.5z M2,4.7h5.6c0.6,0,1.2,0.6,1.2,1.2S8.2,7.1,7.6,7.1H2c-0.6,0-1.2-0.5-1.2-1.2S1.4,4.7,2,4.7z
	"/>
<path d="M16,14.6c0-0.8-0.6-1.4-1.4-1.4c-0.1,0-0.1,0-0.2,0c0.1-0.3,0.2-0.6,0.2-1c0-2.2-1.8-3.9-3.8-3.9C9,8.2,7.6,9.3,7,10.8
	c-0.2-0.1-0.6-0.2-0.9-0.2c-1.4,0-2.6,1.2-2.6,2.6s1.2,2.6,2.6,2.6l0,0l0,0h8.6l0,0C15.4,15.9,16,15.3,16,14.6"/>
</svg>
