<?xml version="1.0" encoding="utf-8"?>
<!-- Generator: Adobe Illustrator 17.1.0, SVG Export Plug-In . SVG Version: 6.00 Build 0)  -->
<!DOCTYPE svg PUBLIC "-//W3C//DTD SVG 1.1//EN" "http://www.w3.org/Graphics/SVG/1.1/DTD/svg11.dtd">
<svg version="1.1" id="Layer_1" xmlns="http://www.w3.org/2000/svg" xmlns:xlink="http://www.w3.org/1999/xlink" x="0px" y="0px"
	 width="16px" height="16px" viewBox="0 0 16 16" enable-background="new 0 0 16 16" xml:space="preserve">
<g>
	<g>
		<g>
			<g>
				<path d="M0.2,7.3c0.7,2.6,3,4.5,5.7,4.5c0.5,0,1-0.1,1.4-0.2c0.5-0.1,1.1-0.3,1.6-0.6l4.5,4.5c0.3,0.3,0.7,0.5,1.1,0.5
					c0.4,0,0.8-0.1,1.1-0.4c0.6-0.6,0.6-1.6,0-2.2L11,8.9c0.8-1.3,1-2.9,0.6-4.4C11,1.9,8.6,0,5.9,0C5.4,0,5,0.1,4.5,0.2
					C3,0.6,1.7,1.5,0.9,2.9C0,4.2-0.2,5.8,0.2,7.3z M2.4,3.8c0.6-0.9,1.5-1.6,2.6-1.9c0.3-0.1,0.7-0.1,1-0.1c1.9,0,3.6,1.3,4,3.2
					c0.3,1.2,0,2.4-0.6,3.3C9.1,8.7,8.7,9,8.3,9.3C7.9,9.6,7.4,9.8,6.9,9.9c-0.3,0.1-0.7,0.1-1,0.1c-1.9,0-3.6-1.3-4-3.1
					C1.6,5.8,1.8,4.7,2.4,3.8z"/>
			</g>
		</g>
	</g>
</g>
<rect x="3" y="5" width="6" height="2"/>
<rect x="5" y="3" width="2" height="6"/>
</svg>
