<?xml version="1.0" encoding="utf-8"?>
<!-- Generator: Adobe Illustrator 19.1.0, SVG Export Plug-In . SVG Version: 6.00 Build 0)  -->
<svg version="1.1" xmlns="http://www.w3.org/2000/svg" xmlns:xlink="http://www.w3.org/1999/xlink" x="0px" y="0px" width="100px"
	 height="100px" 
	 viewBox="0 0 100 100" style="enable-background:new 0 0 100 100;" xml:space="preserve">
<style type="text/css">
	.st0{fill:#692F56;}
	.st1{clip-path:url(#SVGID_2_);}
	.st2{fill:#AD688B;}
	.st3{fill:#8D090A;}
	.st4{fill:#EA2227;}
	.st5{fill:#FFFFFF;}
	.st6{fill:#CFB2C1;}
	.st7{fill:#512843;}
	.st8{fill:#875078;}
	.st9{clip-path:url(#SVGID_4_);}
	.st10{fill:#AD688A;}
	.st11{fill:#F58435;}
	.st12{fill:#DF5343;}
	.st13{fill:url(#SVGID_5_);}
	.st14{fill:#6A3056;}
	.st15{fill:none;}
</style>
<g id="Layer_1">
	<g>
		<rect x="12.9" y="64" class="st0" width="81.9" height="14"/>
	</g>
	<g>
		<rect x="12.9" y="48" class="st0" width="81.9" height="12.7"/>
	</g>
	<g>
		<polygon class="st0" points="94.8,41.2 94.8,43.7 22.9,43.7 22.9,41.2 64.3,27.6 		"/>
	</g>
	<g>
		<defs>
			<path id="SVGID_1_" d="M41.8,33.1l-14.2,0.5c0-1.7-0.3-3.4-1-5v-2.5c0.3,0.8,13.1,3.2,13.1,3.2L41.8,33.1z"/>
		</defs>
		<use xlink:href="#SVGID_1_"  style="overflow:visible;fill:#692F56;"/>
		<clipPath id="SVGID_2_">
			<use xlink:href="#SVGID_1_"  style="overflow:visible;"/>
		</clipPath>
		<g class="st1">
			<path class="st0" d="M27.6,31.1v2.5c0-1.7-0.3-3.4-1-5v-2.5C27.2,27.7,27.6,29.4,27.6,31.1"/>
		</g>
	</g>
	<g>
		<path class="st2" d="M94.8,26.2v15H22.9c2.9-2.4,4.7-6,4.7-10.1c0-1.7-0.3-3.4-1-4.9H94.8z"/>
	</g>
	<g>
		<path class="st2" d="M12.9,45.6h81.9v12.5H12.9V45.6z"/>
	</g>
	<g>
		<path class="st2" d="M12.9,63h81.9v12.5H12.9V63z"/>
	</g>
	<path class="st3" d="M23.6,33.7c0,5.1-4.1,9.2-9.2,9.2s-9.2-4.1-9.2-9.2v-2.5l9.2-6.8l9.2,6.8V33.7z"/>
	<circle class="st4" cx="14.4" cy="31.2" r="9.2"/>
	<rect x="15.6" y="48.3" class="st5" width="76.6" height="7.2"/>
	<rect x="15.6" y="65.6" class="st5" width="76.6" height="7.2"/>
	<g>
		<path class="st5" d="M43.6,29.2h2.1v3.9h2.4v-3.9h2.1v10.3h-2.1v-4.6h-2.4v4.6h-2.1V29.2z"/>
		<path class="st5" d="M57.7,29.2v1.7h-2.3v8.6h-2.1v-8.6h-2.3v-1.7H57.7z"/>
		<path class="st5" d="M64.7,29.2v1.7h-2.3v8.6h-2.1v-8.6H58v-1.7H64.7z"/>
		<path class="st5" d="M65.6,29.2h3.7c2.1,0,2.8,1.5,2.8,3.1c0,2.1-1.3,3.1-3.3,3.1h-1.1v4.1h-2.1V29.2z M67.6,33.8h0.9
			c0.8,0,1.4-0.5,1.4-1.5c0-1-0.4-1.6-1.4-1.6h-0.9V33.8z"/>
	</g>
</g>
<g id="Layer_2">
</g>
</svg>
