<?xml version="1.0" encoding="utf-8"?>
<!-- Generator: Adobe Illustrator 19.1.0, SVG Export Plug-In . SVG Version: 6.00 Build 0)  -->
<svg version="1.1" xmlns="http://www.w3.org/2000/svg" xmlns:xlink="http://www.w3.org/1999/xlink" x="0px" y="0px" width="100px"
	 height="100px" 
	 viewBox="0 0 100 100" style="enable-background:new 0 0 100 100;" xml:space="preserve">
<style type="text/css">
	.st0{fill:#692F56;}
	.st1{clip-path:url(#SVGID_2_);}
	.st2{fill:#AD688B;}
	.st3{fill:#8D090A;}
	.st4{fill:#EA2227;}
	.st5{fill:#FFFFFF;}
	.st6{fill:#CFB2C1;}
	.st7{fill:#512843;}
	.st8{fill:#875078;}
	.st9{clip-path:url(#SVGID_4_);}
	.st10{fill:#AD688A;}
	.st11{fill:#F58435;}
	.st12{fill:#DF5343;}
	.st13{fill:url(#SVGID_5_);}
	.st14{fill:#6A3056;}
	.st15{fill:none;}
</style>
<g id="Layer_1">
	<polygon class="st6" points="49.7,53.8 45.2,53.6 16,54.8 20.4,76.2 	"/>
	<polygon class="st6" points="83.8,54.9 78.2,54.7 68.1,55.5 74.1,79 	"/>
	<polygon class="st7" points="83.8,45.2 50.1,46.6 16.1,45.2 50,8.8 	"/>
	<polygon class="st2" points="49.7,53.8 20.4,55.3 20.4,76.2 49.7,69.4 	"/>
	<polygon class="st6" points="67.9,54.1 61.5,53.8 25.6,55.8 31.7,82 	"/>
	<polygon class="st2" points="83.8,45.2 50,41.8 50,8.8 83.8,25.8 	"/>
	<polygon class="st0" points="16.1,45.2 50,41.8 50,8.8 16.1,25.8 	"/>
	<polygon class="st0" points="20.4,55.3 16,54.8 16,74 20.4,76.2 	"/>
	<polygon class="st2" points="67.9,70.7 31.7,82 31.7,56.4 67.9,54.1 	"/>
	<polygon class="st0" points="25.6,55.8 31.7,56.4 31.7,82 25.6,78.8 	"/>
	<polygon class="st2" points="83.8,54.9 83.8,74.1 74.1,79 74.1,55.9 	"/>
	<polygon class="st0" points="68.1,77.2 74.1,79 74.1,55.9 68.1,55.5 	"/>
	<polygon class="st6" points="67.9,56.5 57.7,55.8 39.9,57.2 50,91.2 	"/>
	<polygon class="st2" points="67.9,56.5 67.9,82.1 50,91.2 50,58.3 	"/>
	<polygon class="st0" points="39.9,57.2 50,58.3 50,91.2 39.9,86.1 	"/>
</g>
<g id="Layer_2">
</g>
</svg>
