<?xml version="1.0" encoding="utf-8"?>
<!-- Generator: Adobe Illustrator 19.1.0, SVG Export Plug-In . SVG Version: 6.00 Build 0)  -->
<svg version="1.1" xmlns="http://www.w3.org/2000/svg" xmlns:xlink="http://www.w3.org/1999/xlink" x="0px" y="0px" width="100px"
	 height="100px" 
	 viewBox="0 0 100 100" style="enable-background:new 0 0 100 100;" xml:space="preserve">
<style type="text/css">
	.st0{fill:#692F56;}
	.st1{clip-path:url(#SVGID_2_);}
	.st2{fill:#AD688B;}
	.st3{fill:#8D090A;}
	.st4{fill:#EA2227;}
	.st5{fill:#FFFFFF;}
	.st6{fill:#CFB2C1;}
	.st7{fill:#512843;}
	.st8{fill:#875078;}
	.st9{clip-path:url(#SVGID_4_);}
	.st10{fill:#AD688A;}
	.st11{fill:#F58435;}
	.st12{fill:#DF5343;}
	.st13{fill:url(#SVGID_5_);}
	.st14{fill:#6A3056;}
	.st15{fill:none;}
</style>
<g id="Layer_1">
	<polygon class="st8" points="42.2,77.8 35.1,75.8 28.4,68.2 35.9,68.8 	"/>
	<polygon class="st2" points="42.2,77.8 47.3,67.2 42.5,66.5 35.9,68.8 	"/>
	<polygon class="st8" points="25.8,72.8 21.8,71.7 17.4,66.6 22.1,67.4 	"/>
	<polygon class="st2" points="25.8,72.8 28.7,66.8 26,66.4 22.1,67.4 	"/>
	<polygon class="st0" points="15.7,66.8 19.8,67.7 39.7,50.3 19.8,30.9 15.7,32.9 	"/>
	<polygon class="st2" points="35.5,34.3 35.5,66.2 19.8,67.7 19.8,30.9 	"/>
	<polygon class="st0" points="24.8,68.7 31.8,70.1 51.1,47.8 31.8,24.8 24.8,28.3 	"/>
	<polygon class="st2" points="71.6,37.5 71.6,65 31.8,70.1 31.8,24.8 	"/>
	<polygon class="st8" points="64.4,84.4 54.4,81.5 44.8,70.7 55.5,71.6 	"/>
	<polygon class="st2" points="64.4,84.4 71.6,69.3 64.9,68.3 55.5,71.6 	"/>
	<polygon class="st0" points="39.7,71.6 50,73.6 63.9,44.6 50,15.6 39.7,20.8 	"/>
	<polygon class="st2" points="50,73.6 84.3,66.7 84.3,32.8 50,15.6 	"/>
</g>
<g id="Layer_2">
</g>
</svg>
