<?xml version="1.0" encoding="utf-8"?>
<!-- Generator: Adobe Illustrator 19.1.0, SVG Export Plug-In . SVG Version: 6.00 Build 0)  -->
<svg version="1.1" xmlns="http://www.w3.org/2000/svg" xmlns:xlink="http://www.w3.org/1999/xlink" x="0px" y="0px" width="100px"
	 height="100px" 
	 viewBox="0 0 100 100" style="enable-background:new 0 0 100 100;" xml:space="preserve">
<style type="text/css">
	.st0{fill:#692F56;}
	.st1{clip-path:url(#SVGID_2_);}
	.st2{fill:#AD688B;}
	.st3{fill:#8D090A;}
	.st4{fill:#EA2227;}
	.st5{fill:#FFFFFF;}
	.st6{fill:#CFB2C1;}
	.st7{fill:#512843;}
	.st8{fill:#875078;}
	.st9{clip-path:url(#SVGID_4_);}
	.st10{fill:#AD688A;}
	.st11{fill:#F58435;}
	.st12{fill:#DF5343;}
	.st13{fill:url(#SVGID_5_);}
	.st14{fill:#6A3056;}
	.st15{fill:none;}
</style>
<g id="Layer_1">
	<polygon class="st0" points="37.8,58.6 50,60.1 61.3,50.9 50,39.9 37.8,41.4 	"/>
	<polygon class="st0" points="71.5,24.8 78.4,23.1 83.5,44.6 78.4,73 71.5,72 	"/>
	<polygon class="st2" points="78.4,71 84.1,74.1 84.1,25.9 78.4,23.1 	"/>
	<polygon class="st6" points="71.5,65.2 78.4,66.2 50,91.2 42.4,72.4 	"/>
	<polygon class="st2" points="28.5,75.2 21.6,76.9 17.7,27.9 28.5,29.6 	"/>
	<polygon class="st7" points="28.5,34.8 21.6,33.8 50,8.8 57.6,27.6 	"/>
	<polygon class="st6" points="57.6,72.4 39.2,67.8 31.9,69.2 50,90.4 	"/>
	<polygon class="st7" points="42.4,27.6 50,8.9 68.1,30.8 60.8,32.2 	"/>
	<polygon class="st2" points="62.2,58.6 50,60.1 50,39.9 62.2,41.4 	"/>
	<polygon class="st2" points="84.1,74.1 50,91.2 50,74.7 80.3,65.6 82.3,66.2 	"/>
	<polygon class="st0" points="31.9,69.2 50,74.7 50,91.1 31.9,82.1 	"/>
	<polygon class="st2" points="68.1,30.8 50,25.3 50,8.9 68.1,17.9 	"/>
	<polygon class="st0" points="15.9,25.9 50,8.8 50,25.3 15.9,35.5 	"/>
	<polygon class="st0" points="21.6,29.5 15.9,25.9 15.9,74.1 21.6,76.9 	"/>
</g>
<g id="Layer_2">
</g>
</svg>
