<?xml version="1.0" encoding="utf-8"?>
<!-- Generator: Adobe Illustrator 19.1.0, SVG Export Plug-In . SVG Version: 6.00 Build 0)  -->
<svg version="1.1" xmlns="http://www.w3.org/2000/svg" xmlns:xlink="http://www.w3.org/1999/xlink" x="0px" y="0px" width="100px"
	 height="100px" 
	 viewBox="0 0 100 100" style="enable-background:new 0 0 100 100;" xml:space="preserve">
<style type="text/css">
	.st0{fill:#692F56;}
	.st1{clip-path:url(#SVGID_2_);}
	.st2{fill:#AD688B;}
	.st3{fill:#8D090A;}
	.st4{fill:#EA2227;}
	.st5{fill:#FFFFFF;}
	.st6{fill:#CFB2C1;}
	.st7{fill:#512843;}
	.st8{fill:#875078;}
	.st9{clip-path:url(#SVGID_4_);}
	.st10{fill:#AD688A;}
	.st11{fill:#F58435;}
	.st12{fill:#DF5343;}
	.st13{fill:url(#SVGID_5_);}
	.st14{fill:#6A3056;}
	.st15{fill:none;}
</style>
<g id="Layer_1">
	<g>
		<rect x="12.9" y="64" class="st0" width="81.9" height="14"/>
	</g>
	<g>
		<rect x="12.9" y="48" class="st0" width="81.9" height="12.7"/>
	</g>
	<g>
		<polygon class="st0" points="94.8,41.2 94.8,43.7 22.9,43.7 22.9,41.2 64.3,27.6 		"/>
	</g>
	<g>
		<defs>
			<path id="SVGID_3_" d="M41.8,33.1l-14.2,0.5c0-1.7-0.3-3.4-1-5v-2.5c0.3,0.8,13.1,3.2,13.1,3.2L41.8,33.1z"/>
		</defs>
		<use xlink:href="#SVGID_3_"  style="overflow:visible;fill:#692F56;"/>
		<clipPath id="SVGID_2_">
			<use xlink:href="#SVGID_3_"  style="overflow:visible;"/>
		</clipPath>
		<g class="st1">
			<path class="st0" d="M27.6,31.1v2.5c0-1.7-0.3-3.4-1-5v-2.5C27.2,27.7,27.6,29.4,27.6,31.1"/>
		</g>
	</g>
	<g>
		<path class="st2" d="M94.8,26.2v15H22.9c2.9-2.4,4.7-6,4.7-10.1c0-1.7-0.3-3.4-1-4.9H94.8z"/>
	</g>
	<g>
		<path class="st2" d="M12.9,45.6h81.9v12.5H12.9V45.6z"/>
	</g>
	<g>
		<path class="st2" d="M12.9,63h81.9v12.5H12.9V63z"/>
	</g>
	<g>
		<path class="st5" d="M49.2,28.4V30h-3.7v2.4H49v1.7h-3.4v2.7h3.8v1.7h-5.9V28.4H49.2z"/>
		<path class="st5" d="M50.3,30.9h1.9v0.8h0c0.5-0.7,1.1-1,2-1c0.9,0,1.6,0.4,1.8,1.2h0c0.3-0.8,1-1.2,2-1.2c1.3,0,1.9,0.8,1.9,2.3
			v5.6h-2v-5.4c0-0.6-0.2-1-0.8-1c-0.6,0-1,0.4-1,1.3v5h-2v-5.4c0-0.6-0.2-1-0.8-1c-0.6,0-1,0.4-1,1.3v5h-2V30.9z"/>
		<path class="st5" d="M61.2,33.2V33c0-1.8,1.2-2.4,2.7-2.4c2.4,0,2.8,1,2.8,2.3v4c0,0.7,0,1,0.2,1.5H65c-0.1-0.2-0.2-0.5-0.2-0.8h0
			c-0.5,0.8-1,1-2,1c-1.4,0-1.9-1.2-1.9-2.2c0-1.4,0.6-2,1.9-2.4l1.1-0.3c0.6-0.2,0.8-0.4,0.8-0.9c0-0.6-0.3-0.9-0.9-0.9
			c-0.6,0-0.9,0.4-0.9,1v0.2H61.2z M64.8,34.7c-0.3,0.2-0.6,0.3-0.8,0.4c-0.8,0.2-1.1,0.6-1.1,1.2c0,0.6,0.2,1.1,0.7,1.1
			c0.5,0,1.2-0.3,1.2-1.2V34.7z"/>
		<path class="st5" d="M68.2,28.2h2v1.7h-2V28.2z M68.2,30.9h2v7.7h-2V30.9z"/>
		<path class="st5" d="M71.6,28.4h2v10.2h-2V28.4z"/>
	</g>
	<path class="st3" d="M23.6,33.7c0,5.1-4.1,9.2-9.2,9.2s-9.2-4.1-9.2-9.2v-2.5l9.2-6.8l9.2,6.8V33.7z"/>
	<circle class="st4" cx="14.4" cy="31.2" r="9.2"/>
	<rect x="15.6" y="48.3" class="st5" width="76.6" height="7.2"/>
	<rect x="15.6" y="65.6" class="st5" width="76.6" height="7.2"/>
</g>
<g id="Layer_2">
</g>
</svg>
