<?xml version="1.0" encoding="utf-8"?>
<!-- Generator: Adobe Illustrator 19.1.0, SVG Export Plug-In . SVG Version: 6.00 Build 0)  -->
<svg version="1.1" xmlns="http://www.w3.org/2000/svg" xmlns:xlink="http://www.w3.org/1999/xlink" x="0px" y="0px" width="100px"
	 height="100px" 
	 viewBox="0 0 100 100" style="enable-background:new 0 0 100 100;" xml:space="preserve">
<style type="text/css">
	.st0{fill:#692F56;}
	.st1{clip-path:url(#SVGID_2_);}
	.st2{fill:#AD688B;}
	.st3{fill:#8D090A;}
	.st4{fill:#EA2227;}
	.st5{fill:#FFFFFF;}
	.st6{fill:#CFB2C1;}
	.st7{fill:#512843;}
	.st8{fill:#875078;}
	.st9{clip-path:url(#SVGID_4_);}
	.st10{fill:#AD688A;}
	.st11{fill:#F58435;}
	.st12{fill:#DF5343;}
	.st13{fill:url(#SVGID_5_);}
	.st14{fill:#6A3056;}
	.st15{fill:none;}
</style>
<g id="Layer_1">
	<polygon class="st7" points="9.9,37 75.1,21.5 75.1,35.3 17.9,38.8 	"/>
	<polygon class="st6" points="42.7,55.8 83.7,74.3 90.1,59.7 50.5,54.8 	"/>
	<polygon class="st0" points="42.7,55.8 83.7,61.7 83.7,74.3 42.7,64.4 	"/>
	<polygon class="st6" points="29,57.5 70.6,80.9 79.6,62.9 38.4,56.3 	"/>
	<polygon class="st2" points="79.6,62.9 70.6,65.6 70.6,80.9 79.6,76.4 	"/>
	<polygon class="st2" points="90.1,59.7 83.7,61.7 83.7,74.3 90.1,71.1 	"/>
	<polygon class="st0" points="29,57.5 70.6,65.6 70.6,80.9 29,67.3 	"/>
	<polygon class="st6" points="9.9,59.7 50,91.2 64.4,67.4 22.6,58.1 	"/>
	<polygon class="st8" points="9.9,25.8 62.1,13.4 62,8.8 11.2,24.7 	"/>
	<polygon class="st8" points="71.6,22.1 90.1,18.9 90.1,14.3 71.6,18.1 	"/>
	<polygon class="st2" points="90.1,42.7 50,42.7 14.3,47.5 50,61.8 90.1,53.9 	"/>
	<polygon class="st0" points="9.9,42.7 50,42.7 50,61.8 9.9,53.9 	"/>
	<polygon class="st0" points="9.9,37 50,33.1 66.7,19.6 50,13.9 9.9,25.8 	"/>
	<polygon class="st2" points="64.4,67.4 50,71.7 50,91.2 64.4,84 	"/>
	<polygon class="st0" points="9.9,59.7 50,71.7 50,91.2 9.9,71.1 	"/>
	<polygon class="st2" points="50,33.1 50,13.9 62,8.8 75.1,21 90.1,14.3 90.1,25.8 75.1,35.3 61.9,25.4 	"/>
</g>
<g id="Layer_2">
	<line class="st15" x1="50" y1="91.2" x2="90.1" y2="71.1"/>
</g>
</svg>
