<svg xmlns="http://www.w3.org/2000/svg" xmlns:xlink="http://www.w3.org/1999/xlink" width="128" height="128" viewBox="0 0 128 128"><defs><linearGradient id="a" x1="63.9997" y1="7.0336" x2="63.9997" y2="120.7894" gradientUnits="userSpaceOnUse"><stop offset="0" stop-color="#4387fd"/><stop offset="1" stop-color="#4683ea"/></linearGradient><clipPath id="b"><path d="M27.7911,115.2166L1.5406,69.7493a11.499,11.499,0,0,1,0-11.499l26.25-45.4672a11.499,11.499,0,0,1,9.9585-5.75H90.25a11.499,11.499,0,0,1,9.9585,5.75l26.25,45.4672a11.499,11.499,0,0,1,0,11.499l-26.25,45.4672a11.499,11.499,0,0,1-9.9585,5.75H37.75A11.499,11.499,0,0,1,27.7911,115.2166Z" fill="none"/></clipPath></defs><title>Machine-Learning</title><path d="M27.7906,115.2166L1.54,69.7493a11.499,11.499,0,0,1,0-11.499L27.7906,12.7831a11.4991,11.4991,0,0,1,9.9585-5.75H90.25a11.4991,11.4991,0,0,1,9.9585,5.75L126.4594,58.25a11.499,11.499,0,0,1,0,11.499l-26.2506,45.4672a11.4991,11.4991,0,0,1-9.9585,5.75H37.7491A11.4991,11.4991,0,0,1,27.7906,115.2166Z" fill="url(#a)"/><g clip-path="url(#b)"><polygon points="127.375 81.875 80.25 34.75 68.031 40.969 61.864 34.802 40.5 47.25 44.75 51.5 33.25 68.25 38.5 73.5 47.573 93.094 76.323 121.844 98 122 127.375 81.875" opacity="0.07"/></g><polygon points="79.928 74 82.853 69 94.1 69 97 64 89.461 51 77.726 51 74.333 45 71 45 71 41 76.667 41 80.06 47 87.141 47 80.183 35 66 35 66 52 72.021 52 74.354 56 66 56 66 64 73.596 64 77.062 58 86.384 58 88.695 62 79.37 62 75.904 68 66 68 66 83 78.494 83 76.183 87 66 87 66 93 80.183 93 91.781 73 85.147 73 82.223 78 71 78 71 74 79.928 74" fill="#fff"/><polygon points="48.072 74 45.147 69 33.9 69 31 64 38.539 51 50.274 51 53.667 45 57 45 57 41 51.333 41 47.94 47 40.859 47 47.817 35 62 35 62 52 55.979 52 53.646 56 62 56 62 64 54.404 64 50.938 58 41.616 58 39.305 62 48.63 62 52.096 68 62 68 62 83 49.506 83 51.817 87 62 87 62 93 47.817 93 36.219 73 42.853 73 45.777 78 57 78 57 74 48.072 74" fill="#fff"/></svg>