<svg xmlns="http://www.w3.org/2000/svg" xmlns:xlink="http://www.w3.org/1999/xlink" width="128" height="128" viewBox="0 0 128 128"><defs><linearGradient id="a" x1="63.9997" y1="7.0336" x2="63.9997" y2="120.7894" gradientUnits="userSpaceOnUse"><stop offset="0" stop-color="#4387fd"/><stop offset="1" stop-color="#4683ea"/></linearGradient><clipPath id="b"><path d="M27.7911,115.2167L1.5406,69.75a11.499,11.499,0,0,1,0-11.499l26.25-45.4672a11.499,11.499,0,0,1,9.9585-5.75H90.25a11.499,11.499,0,0,1,9.9585,5.75l26.25,45.4672a11.499,11.499,0,0,1,0,11.499l-26.25,45.4672a11.499,11.499,0,0,1-9.9585,5.75H37.75A11.499,11.499,0,0,1,27.7911,115.2167Z" fill="none"/></clipPath></defs><title>jobs-api</title><path d="M27.7906,115.2166L1.54,69.7493a11.499,11.499,0,0,1,0-11.499L27.7906,12.7831a11.4991,11.4991,0,0,1,9.9585-5.75H90.25a11.4991,11.4991,0,0,1,9.9585,5.75L126.4594,58.25a11.499,11.499,0,0,1,0,11.499l-26.2506,45.4672a11.4991,11.4991,0,0,1-9.9585,5.75H37.7491A11.4991,11.4991,0,0,1,27.7906,115.2166Z" fill="url(#a)"/><g clip-path="url(#b)"><polygon points="119.229 86.479 80.625 47.875 64 43.426 49.067 48.975 43.301 64 47.938 80.729 88.875 121.667 97.563 121.281 119.229 86.479" opacity="0.07"/></g><path d="M64,40.8042A23.1953,23.1953,0,1,0,87.1947,64,23.1954,23.1954,0,0,0,64,40.8042M64,81.599A17.6,17.6,0,1,1,81.6,64,17.5986,17.5986,0,0,1,64,81.599" fill="#fff"/><path d="M80.6917,78.2868l-2.403,2.4049a1.0878,1.0878,0,0,0,0,1.5371l9.1143,9.112a1.0881,1.0881,0,0,0,1.5371,0l2.403-2.4013a1.0916,1.0916,0,0,0,0-1.5365l-9.1156-9.1162a1.09,1.09,0,0,0-1.5358,0" fill="#fff"/><rect x="53" y="58" width="22" height="15" rx="1.5872" ry="1.5872" fill="#fff"/><path d="M68,55v3H60V55h8ZM58,55v6H70V55a2,2,0,0,0-2-2H60A2,2,0,0,0,58,55Z" fill="#fff"/></svg>