<?xml version="1.0" encoding="utf-8"?>
<!-- Generator: Adobe Illustrator 18.1.1, SVG Export Plug-In . SVG Version: 6.00 Build 0)  -->
<svg version="1.1" xmlns="http://www.w3.org/2000/svg" xmlns:xlink="http://www.w3.org/1999/xlink" x="0px" y="0px" width="128px"
	 height="128px" viewBox="0 0 128 128" style="enable-background:new 0 0 128 128;" xml:space="preserve">
<g id="BASE">
	<linearGradient id="SVGID_1_" gradientUnits="userSpaceOnUse" x1="63.9997" y1="7.0336" x2="63.9997" y2="120.7894">
		<stop  offset="0" style="stop-color:#4387FD"/>
		<stop  offset="1" style="stop-color:#4683EA"/>
	</linearGradient>
	<path style="fill:url(#SVGID_1_);" d="M27.7906,115.2166L1.54,69.7493c-2.0541-3.5578-2.0541-7.9412,0-11.499l26.2506-45.4672
		c2.0541-3.5578,5.8503-5.7495,9.9585-5.7495h52.5012c4.1082,0,7.9044,2.1917,9.9585,5.7495l26.2506,45.4672
		c2.0541,3.5578,2.0541,7.9412,0,11.499l-26.2506,45.4672c-2.0541,3.5578-5.8503,5.7495-9.9585,5.7495H37.7491
		C33.6409,120.9661,29.8448,118.7744,27.7906,115.2166z"/>
</g>
<g id="shadow">
	<g>
		<defs>
			<path id="SVGID_5_" d="M27.7911,115.2166L1.5406,69.7493c-2.0541-3.5578-2.0541-7.9412,0-11.499l26.2505-45.4672
				c2.0541-3.5578,5.8502-5.7495,9.9585-5.7495h52.501c4.1082,0,7.9044,2.1917,9.9585,5.7495l26.2505,45.4672
				c2.0541,3.5578,2.0541,7.9412,0,11.499l-26.2505,45.4672c-2.0541,3.5578-5.8502,5.7495-9.9585,5.7495h-52.501
				C33.6413,120.9661,29.8452,118.7744,27.7911,115.2166z"/>
		</defs>
		<clipPath id="SVGID_2_">
			<use xlink:href="#SVGID_5_"  style="overflow:visible;"/>
		</clipPath>
		<polygon style="opacity:0.07;clip-path:url(#SVGID_2_);" points="122.8541,79.8541 92.4717,49.4716 87.9167,51.5832 
			80.6392,69.5558 76.5929,65.5095 69.8998,64.8163 57.3362,52.2528 49.9167,53.0832 42.7981,45.9646 39.4167,52.8332 
			24.8303,55.7889 37.9587,68.9172 26.8024,79.9064 68.5625,121.6665 97.5625,121.2811 		"/>
	</g>
</g>
<g id="art">
	<g>
		<g>
			<path style="fill:#FFFFFF;" d="M87.7454,49.4271h4.7707l11.3214,31.1939H99.209l-3.2572-9.344H83.7139l-3.3832,9.344h-4.3315
				L87.7454,49.4271z M94.7528,67.8379l-4.8027-13.7815L84.96,67.8379H94.7528z"/>
		</g>
		<path style="fill:#FFFFFF;" d="M50.5564,58h-4.5147c-0.4513,1-0.9321,1.9557-1.443,2.8715
			c-1.0304,1.8486-2.1523,3.3971-3.3658,4.7949c-1.2665-1.5033-2.4546-3.0737-3.5634-4.9355C37.146,59.8512,36.6665,59,36.2247,58
			h-4.4182c0.6133,1,1.2948,2.8385,2.0624,4.1778c1.346,2.3505,2.8114,4.4267,4.3948,6.3801
			c-1.6895,1.504-3.6555,2.8984-5.8993,4.2571c-2.2431,1.3606-4.9088,2.5215-7.9972,3.5247l2.2571,3.7527
			c2.8499-1.0822,5.4962-2.3604,7.9376-3.8251c2.4414-1.4653,4.6383-3.044,6.5916-4.7347c0.9236,0.8459,1.9534,1.6563,3.0885,2.4347
			c1.134,0.7785,2.3287,1.5241,3.5826,2.2362c1.2533,0.7129,2.5342,1.3718,3.8405,1.9791c1.3075,0.6067,2.6065,1.1346,3.9009,1.5834
			l2.2167-4.0387c-1.0828-0.3423-2.2167-0.7447-3.4049-1.207c-1.1882-0.4621-2.3751-0.9899-3.5633-1.5834
			c-1.1882-0.5947-2.3559-1.2538-3.5044-1.9798c-1.1471-0.7254-2.2106-1.5244-3.1873-2.3958
			c1.6636-1.8997,3.1415-3.8952,4.4346-6.2836C49.3007,60.9041,49.9611,59,50.5564,58z"/>
		<polygon style="fill:#FFFFFF;" points="76.7831,65.497 69.657,61.3825 69.657,64.5939 55.7321,64.5939 55.7321,66.6576 
			69.657,66.6576 69.657,69.6117 		"/>
		<polygon style="fill:#FFFFFF;" points="42.8815,52.2168 42.8815,46.0277 38.7131,46.0277 38.7131,52.2168 24.7877,52.2168 
			24.7877,55.8271 57.2793,55.8271 57.2793,52.2168 		"/>
	</g>
</g>
<g id="Guides">
</g>
</svg>
