<?xml version="1.0" encoding="utf-8"?>
<!-- Generator: Adobe Illustrator 19.1.0, SVG Export Plug-In . SVG Version: 6.00 Build 0)  -->
<svg version="1.1" id="Layer_1" xmlns="http://www.w3.org/2000/svg" xmlns:xlink="http://www.w3.org/1999/xlink" x="0px" y="0px" 
	 viewBox="0 0 100 100" style="enable-background:new 0 0 100 100;" xml:space="preserve">
<style type="text/css">
	.st0{enable-background:new    ;}
	.st1{fill:#4B612C;}
	.st2{fill:#3C4929;}
	.st3{fill:#B7CA9D;}
	.st4{fill:#759C3E;}
	.st5{fill:#FFFFFF;}
	.st6{fill:#8D090A;}
	.st7{fill:#EA2227;}
</style>
<polygon class="st1" points="14,64 30,84 46,64 "/>
<rect x="14" y="60" class="st1" width="32" height="4"/>
<polygon class="st1" points="54,64 70,84 86,64 "/>
<polygon class="st1" points="74,50 54,30 56,20 44,20 46,30 26,50 26,64 34,64 34,54 50,38 50,38 66,54 66,64 74,64 "/>
<rect x="54" y="60" class="st1" width="32" height="4"/>
<polygon class="st4" points="14,60 30,80 46,60 "/>
<polygon class="st4" points="54,60 70,80 86,60 "/>
<polygon class="st4" points="75,46 56,27 56,16 44,16 44,27 25,46 25,60 35,60 35,50 50,34 50,34 65,50 65,60 75,60 "/>
</svg>
