<?xml version="1.0" encoding="utf-8"?>
<!-- Generator: Adobe Illustrator 19.1.0, SVG Export Plug-In . SVG Version: 6.00 Build 0)  -->
<svg version="1.1" id="Layer_1" xmlns="http://www.w3.org/2000/svg" xmlns:xlink="http://www.w3.org/1999/xlink" x="0px" y="0px" 
	 viewBox="0 0 100 100" style="enable-background:new 0 0 100 100;" xml:space="preserve">
<style type="text/css">
	.st0{enable-background:new    ;}
	.st1{fill:#4B612C;}
	.st2{fill:#3C4929;}
	.st3{fill:#B7CA9D;}
	.st4{fill:#759C3E;}
	.st5{fill:#FFFFFF;}
	.st6{fill:#8D090A;}
	.st7{fill:#EA2227;}
</style>
<rect x="14" y="28" class="st1" width="18" height="4"/>
<rect x="41" y="28" class="st1" width="18" height="4"/>
<rect x="14" y="14" class="st4" width="18" height="15.5"/>
<rect x="68" y="28" class="st1" width="18" height="4"/>
<rect x="14" y="55" class="st1" width="18" height="4"/>
<rect x="41" y="55" class="st1" width="18" height="4"/>
<rect x="68" y="55" class="st1" width="18" height="4"/>
<rect x="14" y="82" class="st1" width="18" height="4"/>
<rect x="41" y="82" class="st1" width="18" height="4"/>
<rect x="68" y="82" class="st1" width="18" height="4"/>
<rect x="41" y="14" class="st4" width="18" height="15.5"/>
<rect x="68" y="14" class="st4" width="18" height="15.5"/>
<rect x="14" y="41" class="st4" width="18" height="15.5"/>
<rect x="41" y="41" class="st4" width="18" height="15.5"/>
<rect x="68" y="41" class="st4" width="18" height="15.5"/>
<rect x="14" y="68" class="st4" width="18" height="15.5"/>
<rect x="41" y="68" class="st4" width="18" height="15.5"/>
<rect x="68" y="68" class="st4" width="18" height="15.5"/>
</svg>
