<?xml version="1.0" encoding="utf-8"?>
<!-- Generator: Adobe Illustrator 19.1.0, SVG Export Plug-In . SVG Version: 6.00 Build 0)  -->
<svg version="1.1" id="Layer_1" xmlns="http://www.w3.org/2000/svg" xmlns:xlink="http://www.w3.org/1999/xlink" x="0px" y="0px" 
	 viewBox="0 0 100 100" style="enable-background:new 0 0 100 100;" xml:space="preserve">
<style type="text/css">
	.st0{enable-background:new    ;}
	.st1{fill:#4B612C;}
	.st2{fill:#3C4929;}
	.st3{fill:#B7CA9D;}
	.st4{fill:#759C3E;}
	.st5{fill:#FFFFFF;}
	.st6{fill:#8D090A;}
	.st7{fill:#EA2227;}
</style>
<rect x="27.7" y="42.8" class="st1" width="10.7" height="26.4"/>
<rect x="44.6" y="48" class="st1" width="10.7" height="21.3"/>
<rect x="25.8" y="73.5" class="st1" width="48.4" height="5.7"/>
<path class="st1" d="M61.6,39.6v29.6h10.7V39.6c-1.6,0.9-3.4,1.4-5.4,1.4S63.2,40.5,61.6,39.6z"/>
<rect x="27.7" y="40.4" class="st4" width="10.7" height="26.4"/>
<rect x="44.6" y="45.5" class="st4" width="10.7" height="21.3"/>
<rect x="25.8" y="71" class="st4" width="48.4" height="5.7"/>
<path class="st4" d="M61.6,37.2v29.6h10.7V37.2c-1.6,0.9-3.4,1.4-5.4,1.4S63.2,38,61.6,37.2z"/>
<path class="st6" d="M73.4,29.8c0,3.6-2.9,6.5-6.5,6.5s-6.5-2.9-6.5-6.5v-2.5l6.5-4l6.5,4V29.8z"/>
<circle class="st7" cx="66.9" cy="27.3" r="6.5"/>
</svg>
