<?xml version="1.0" encoding="utf-8"?>
<!-- Generator: Adobe Illustrator 19.1.0, SVG Export Plug-In . SVG Version: 6.00 Build 0)  -->
<svg version="1.1" id="Layer_1" xmlns="http://www.w3.org/2000/svg" xmlns:xlink="http://www.w3.org/1999/xlink" x="0px" y="0px" 
	 viewBox="0 0 100 100" style="enable-background:new 0 0 100 100;" xml:space="preserve">
<style type="text/css">
	.st0{enable-background:new    ;}
	.st1{fill:#4B612C;}
	.st2{fill:#3C4929;}
	.st3{fill:#B7CA9D;}
	.st4{fill:#759C3E;}
	.st5{fill:#FFFFFF;}
	.st6{fill:#8D090A;}
	.st7{fill:#EA2227;}
</style>
<polygon class="st2" points="25.6,45.4 23.4,45.5 15.9,45.2 18,34.9 "/>
<polygon class="st3" points="25.6,55 23.4,54.8 15.9,55.1 18,65.4 "/>
<polygon class="st1" points="18,55.3 15.9,55.1 15.9,64.8 18,65.4 "/>
<polygon class="st4" points="25.6,64.4 18,65.4 18,55.3 25.6,55 "/>
<polygon class="st3" points="39.6,55.8 33.5,55.3 22.7,55.8 28.5,74.3 "/>
<polygon class="st1" points="18,45 15.9,45.2 15.9,35.5 18,34.9 "/>
<polygon class="st4" points="25.6,35.9 18,34.9 18,45 25.6,45.4 "/>
<polygon class="st2" points="39.6,44.6 33.5,45 22.7,44.5 28.5,26 "/>
<polygon class="st1" points="22.7,28 28.5,26 28.5,43.9 22.7,44.5 "/>
<polygon class="st4" points="39.6,28.5 28.5,26 28.5,43.9 39.6,44.6 "/>
<polygon class="st1" points="22.7,72.2 28.5,74.3 28.5,56.4 22.7,55.8 "/>
<polygon class="st4" points="39.6,72 28.5,74.3 28.5,56.4 39.6,55.8 "/>
<polygon class="st1" points="35.6,84 50,91.2 83.8,50 50,8.8 35.6,16 "/>
<polygon class="st4" points="84.1,74.1 50,91.2 50,8.8 84.1,25.9 "/>
</svg>
