<?xml version="1.0" encoding="utf-8"?>
<!-- Generator: Adobe Illustrator 19.1.0, SVG Export Plug-In . SVG Version: 6.00 Build 0)  -->
<svg version="1.1" id="Layer_1" xmlns="http://www.w3.org/2000/svg" xmlns:xlink="http://www.w3.org/1999/xlink" x="0px" y="0px" 
	 viewBox="0 0 100 100" style="enable-background:new 0 0 100 100;" xml:space="preserve">
<style type="text/css">
	.st0{enable-background:new    ;}
	.st1{fill:#4B612C;}
	.st2{fill:#3C4929;}
	.st3{fill:#B7CA9D;}
	.st4{fill:#759C3E;}
	.st5{fill:#FFFFFF;}
	.st6{fill:#8D090A;}
	.st7{fill:#EA2227;}
</style>
<polygon class="st4" points="30,73 18.5,70.2 18.5,30.6 30,28.4 "/>
<polygon class="st3" points="20.5,65.8 50.3,87.8 50.3,69.6 30,64.5 "/>
<polygon class="st1" points="70.1,69.6 81.3,70.2 81.6,32.9 70.1,29.2 "/>
<polygon class="st2" points="50.3,30.8 30,35.5 20.5,34.2 50.3,12.8 "/>
<polygon class="st3" points="79.5,65.8 49.7,86.5 49.7,69.6 70,64.5 "/>
<polygon class="st2" points="49.7,30.8 70.1,35.5 79.5,34.2 50,11.9 "/>
<path class="st1" d="M50,8.8l-33.8,17l0,48.2l33.8,17l8.6-40.6L50,8.8z M40.1,71.6l-19.5-5.9V34.2l19.5-5.9V71.6z"/>
<path class="st4" d="M50,91.2l33.8-17l0-48.2L50,8.8V91.2z M59.9,28.4l19.5,5.9v31.5l-19.5,5.9V28.4z"/>
</svg>
