<?xml version="1.0" encoding="utf-8"?>
<!-- Generator: Adobe Illustrator 19.1.0, SVG Export Plug-In . SVG Version: 6.00 Build 0)  -->
<svg version="1.1" id="Layer_1" xmlns="http://www.w3.org/2000/svg" xmlns:xlink="http://www.w3.org/1999/xlink" x="0px" y="0px" 
	 viewBox="0 0 100 100" style="enable-background:new 0 0 100 100;" xml:space="preserve">
<style type="text/css">
	.st0{enable-background:new    ;}
	.st1{fill:#4B612C;}
	.st2{fill:#3C4929;}
	.st3{fill:#B7CA9D;}
	.st4{fill:#759C3E;}
	.st5{fill:#FFFFFF;}
	.st6{fill:#8D090A;}
	.st7{fill:#EA2227;}
</style>
<polygon class="st1" points="84.1,70.1 84.1,50 63.5,50 63.5,75.9 74.6,78.8 "/>
<polygon class="st1" points="50,66.8 74.4,71.7 74.4,21.1 50,27.7 26.2,43.8 "/>
<polygon class="st4" points="84.1,50 84.1,74.1 74.6,78.8 "/>
<polygon class="st4" points="15.9,70.1 15.9,50 36.5,50 36.5,75.9 25.4,78.8 "/>
<polygon class="st4" points="50,66.8 25.6,71.7 25.6,21.1 50,27.7 "/>
<polygon class="st1" points="50,50 62.2,19.5 50,8.9 32,17.9 "/>
<polygon class="st1" points="15.9,50 15.9,74.1 25.4,78.8 "/>
<polygon class="st4" points="50,50 50,8.9 68,17.9 "/>
<polygon class="st1" points="15.9,35.7 15.9,25.9 25.6,21.1 50,66.8 64.6,77 50,91.1 31.9,82.1 "/>
<polygon class="st4" points="84.1,35.7 84.1,25.9 74.4,21.1 50,66.8 50,91.1 68.1,82.1 "/>
</svg>
