<?xml version="1.0" encoding="utf-8"?>
<!-- Generator: Adobe Illustrator 19.1.0, SVG Export Plug-In . SVG Version: 6.00 Build 0)  -->
<svg version="1.1" id="Layer_1" xmlns="http://www.w3.org/2000/svg" xmlns:xlink="http://www.w3.org/1999/xlink" x="0px" y="0px" 
	 viewBox="0 0 100 100" style="enable-background:new 0 0 100 100;" xml:space="preserve">
<style type="text/css">
	.st0{enable-background:new    ;}
	.st1{fill:#4B612C;}
	.st2{fill:#3C4929;}
	.st3{fill:#B7CA9D;}
	.st4{fill:#759C3E;}
	.st5{fill:#FFFFFF;}
	.st6{fill:#8D090A;}
	.st7{fill:#EA2227;}
</style>
<path class="st1" d="M71.4,46.2V29c0-7.1-5.8-12.9-12.9-12.9H41.4c-7.1,0-12.9,5.8-12.9,12.9v17.1H20v38.6h60V46.2H71.4z M62.9,46.2
	H37.1V32.5c0-4.3,3.5-7.7,7.7-7.7h10.3c4.3,0,7.7,3.5,7.7,7.7L62.9,46.2L62.9,46.2z"/>
<path class="st4" d="M71.4,43.7V26.6c0-7.1-5.8-12.9-12.9-12.9H41.4c-7.1,0-12.9,5.8-12.9,12.9v17.1H20v38.6h60V43.7H71.4z
	 M62.9,43.7H37.1V30c0-4.3,3.5-7.7,7.7-7.7h10.3c4.3,0,7.7,3.5,7.7,7.7L62.9,43.7L62.9,43.7z"/>
</svg>
