<?xml version="1.0" encoding="utf-8"?>
<!-- Generator: Adobe Illustrator 19.1.0, SVG Export Plug-In . SVG Version: 6.00 Build 0)  -->
<svg version="1.1" id="Layer_1" xmlns="http://www.w3.org/2000/svg" xmlns:xlink="http://www.w3.org/1999/xlink" x="0px" y="0px" 
	 viewBox="0 0 100 100" style="enable-background:new 0 0 100 100;" xml:space="preserve">
<style type="text/css">
	.st0{enable-background:new    ;}
	.st1{fill:#4B612C;}
	.st2{fill:#3C4929;}
	.st3{fill:#B7CA9D;}
	.st4{fill:#759C3E;}
	.st5{fill:#FFFFFF;}
	.st6{fill:#8D090A;}
	.st7{fill:#EA2227;}
</style>
<polygon class="st3" points="86.4,65.5 50,60.1 13.6,65.5 50,91.2 "/>
<polygon class="st1" points="20.9,64.9 27,66.7 41.5,44.6 27,22.4 20.9,24.7 "/>
<polygon class="st4" points="48.8,63 27,66.8 27,22.4 48.8,27.3 "/>
<polygon class="st1" points="39.1,70.4 30.6,67.9 30.6,13.1 39.1,8.8 64.3,41.3 "/>
<polygon class="st4" points="68.2,63.7 39.1,70.5 39.1,8.8 68.2,20.2 "/>
<polygon class="st1" points="50,78.4 13.6,65.5 13.6,73 50,91.2 "/>
<polygon class="st4" points="86.4,73 50,91.2 50,78.4 86.4,65.5 "/>
<polygon class="st3" points="76.2,53.1 67.3,53.1 42.2,54.8 50,73.7 "/>
<polygon class="st1" points="42.2,71.3 50,73.7 50,55.6 42.2,54.8 "/>
<polygon class="st4" points="76.2,53.1 50,55.6 50,73.7 76.2,65.8 "/>
</svg>
