<?xml version="1.0" encoding="utf-8"?>
<!-- Generator: Adobe Illustrator 19.1.0, SVG Export Plug-In . SVG Version: 6.00 Build 0)  -->
<svg version="1.1" id="Layer_1" xmlns="http://www.w3.org/2000/svg" xmlns:xlink="http://www.w3.org/1999/xlink" x="0px" y="0px" 
	 viewBox="0 0 100 100" style="enable-background:new 0 0 100 100;" xml:space="preserve">
<style type="text/css">
	.st0{enable-background:new    ;}
	.st1{fill:#4B612C;}
	.st2{fill:#3C4929;}
	.st3{fill:#B7CA9D;}
	.st4{fill:#759C3E;}
	.st5{fill:#FFFFFF;}
	.st6{fill:#8D090A;}
	.st7{fill:#EA2227;}
</style>
<polygon class="st2" points="56.7,33.1 74.4,21.1 84,33.1 67.5,35.5 "/>
<polygon class="st2" points="43.3,33.1 25.6,21.1 16,33.1 32.5,35.5 "/>
<polygon class="st3" points="84.1,57.2 50,55.1 15.9,57.2 50,91.2 "/>
<polygon class="st4" points="43.3,33.1 25.6,29.7 25.6,21.1 43.3,25.9 "/>
<polygon class="st1" points="16,33.1 25.6,29.7 25.6,21.1 16,25.9 "/>
<polygon class="st1" points="56.7,33.1 74.4,29.7 74.4,21.1 56.7,25.9 "/>
<polygon class="st4" points="84,33.1 74.4,29.7 74.4,21.1 84,25.9 "/>
<polygon class="st1" points="15.9,50 50,50 84.1,44.9 50,33.5 15.9,40.4 "/>
<polygon class="st1" points="50,91.2 15.9,74.1 15.9,57.2 50,62.2 "/>
<polygon class="st4" points="84.1,74.1 50,91.2 50,62.2 84.1,57.2 "/>
<polygon class="st4" points="84.1,50 50,50 50,33.5 84.1,40.4 "/>
<polygon class="st2" points="68.2,27.5 50,31.6 31.8,27.5 50,8.8 "/>
<polygon class="st1" points="31.8,27.5 50,21.2 50,8.8 31.8,17.9 "/>
<polygon class="st4" points="68.2,27.5 50,21.2 50,8.8 68.2,17.9 "/>
</svg>
