<?xml version="1.0" encoding="utf-8"?>
<!-- Generator: Adobe Illustrator 19.1.0, SVG Export Plug-In . SVG Version: 6.00 Build 0)  -->
<svg version="1.1" id="Layer_1" xmlns="http://www.w3.org/2000/svg" xmlns:xlink="http://www.w3.org/1999/xlink" x="0px" y="0px" 
	 viewBox="0 0 100 100" style="enable-background:new 0 0 100 100;" xml:space="preserve">
<style type="text/css">
	.st0{enable-background:new    ;}
	.st1{fill:#4B612C;}
	.st2{fill:#3C4929;}
	.st3{fill:#B7CA9D;}
	.st4{fill:#759C3E;}
	.st5{fill:#FFFFFF;}
	.st6{fill:#8D090A;}
	.st7{fill:#EA2227;}
</style>
<polygon class="st1" points="20.2,45.8 26.2,45.2 33.7,52.9 26.2,59.5 20.2,58.3 "/>
<polygon class="st2" points="62.6,38.1 50,39.8 37.4,38.1 50,14 "/>
<polygon class="st1" points="65.8,58.7 73.8,59.5 78.5,52.3 73.8,45.2 65.8,45.5 "/>
<polygon class="st4" points="62.6,38.1 50,35.5 50,14 62.6,20.3 "/>
<polygon class="st4" points="79.8,45.8 73.8,45.2 73.8,59.5 79.8,58.3 "/>
<polygon class="st4" points="34.2,58.7 26.2,59.5 26.2,45.2 34.2,45.5 "/>
<polygon class="st1" points="37.4,38.1 50,35.5 50,14 37.4,20.3 "/>
<polygon class="st1" points="31.1,76.6 50,86 66.8,63.7 50,42.7 31.1,44.7 "/>
<polygon class="st4" points="68.9,76.6 50,86 50,42.7 68.9,44.7 "/>
</svg>
