<?xml version="1.0" encoding="utf-8"?>
<!-- Generator: Adobe Illustrator 18.1.0, SVG Export Plug-In . SVG Version: 6.00 Build 0)  -->
<!DOCTYPE svg PUBLIC "-//W3C//DTD SVG 1.0//EN" "http://www.w3.org/TR/2001/REC-SVG-20010904/DTD/svg10.dtd">
<svg version="1.0" xmlns="http://www.w3.org/2000/svg" xmlns:xlink="http://www.w3.org/1999/xlink" x="0px" y="0px"
	 viewBox="0 0 152 117.5" enable-background="new 0 0 152 117.5" xml:space="preserve">
<g id="Layer_1">
	<g id="Azure">
	</g>
	<g id="BizTalk_Services" transform="translate(37.3575,-2500.2)">
	</g>
</g>
<g id="paths">
	<g id="Access_control">
	</g>
	<g id="Azure_active_directory">
	</g>
	<g id="API_Management">
	</g>
	<g id="Azure_automation">
	</g>
	<g id="Azure_SQL_database">
	</g>
	<g id="Azure_subscription">
	</g>
	<g id="Backup_service">
	</g>
	<g id="Bitbucket_code_source">
	</g>
	<g id="Azure_cache">
	</g>
	<g id="Content_delivery_network__x28_CDN_x29_">
		<path fill="#0078D7" d="M92.7,56.6c0.2-0.9,0.4-1.8,0.4-2.8c0-3.7-1.8-7-4.6-8.9L84,52.3c-0.2,0.3,0,0.5,0.3,0.5l5.6,0
			c0.3,0,0.4,0.2,0.2,0.4L75.6,69.8c-0.2,0.3-0.3,0.2-0.2-0.1L80,58.5c0.1-0.3,0-0.6-0.4-0.6h-4.5c-0.3,0-0.5-0.2-0.4-0.5l5.3-14.3
			c-3.6,0.7-6.6,3.2-8,6.5c-1.4-1.7-3.5-2.7-5.8-2.7c-4.2,0-7.7,3.5-7.7,7.7c0,0.7,0.1,1.4,0.3,2.1C55.5,58,53,61.3,53,65.2
			c0,5,4,9.1,9,9.1h27.9c5,0,9-4.1,9-9.1C99,61.2,96.3,57.7,92.7,56.6z"/>
	</g>
</g>
</svg>
