<?xml version="1.0" encoding="utf-8"?>
<!-- Generator: Adobe Illustrator 19.1.0, SVG Export Plug-In . SVG Version: 6.00 Build 0)  -->
<svg version="1.1" id="Layer_1" xmlns="http://www.w3.org/2000/svg" xmlns:xlink="http://www.w3.org/1999/xlink" x="0px" y="0px"
	 width="50px" height="50px" viewBox="-162 256 50 50" enable-background="new -162 256 50 50" xml:space="preserve">
<g>
	<path fill="#3E3E3E" d="M-162,262.8v36.3c0,3.8,8.4,6.8,18.9,6.8v-43.1H-162z"/>
	<path fill="#A0A1A2" d="M-143.4,306h0.3c10.4,0,18.9-3.1,18.9-6.8v-36.4h-19.2V306z"/>
	<path fill="#FFFFFF" d="M-124.2,262.8c0,3.8-8.4,6.8-18.9,6.8c-10.5,0-18.9-3-18.9-6.8c0-3.7,8.5-6.8,18.9-6.8
		C-132.7,256-124.2,259.1-124.2,262.8"/>
	<path fill="#7FBA00" d="M-128.1,262.4c0,2.5-6.7,4.5-15,4.5c-8.3,0-15-2-15-4.5s6.7-4.5,15-4.5
		C-134.8,257.9-128.1,259.9-128.1,262.4"/>
	<path fill="#B8D432" d="M-131.2,265.2c2-0.8,3.1-1.7,3.1-2.8c0-2.5-6.7-4.5-15-4.5c-8.3,0-15,2-15,4.5c0,1,1.2,2,3.1,2.8
		c2.7-1.1,7-1.8,11.9-1.8C-138.3,263.4-134,264.1-131.2,265.2"/>
</g>
<g>
	<path fill="#3999C6" d="M-143.4,306v-18c-2.8,0-5.2-1.5-6.6-3.7c-1.4,2.2-3.7,3.7-6.5,3.7c-2.2,0-4.1-0.9-5.5-2.4v13.6
		C-162,302.9-153.7,305.9-143.4,306z"/>
	<path fill="#3999C6" d="M-143.1,306L-143.1,306L-143.1,306L-143.1,306z"/>
	<path fill="#59B4D9" d="M-143.4,306h0.3C-143.2,306-143.3,306-143.4,306L-143.4,306z"/>
	<path fill="#59B4D9" d="M-130,288c-2.8,0-5.3-1.5-6.7-3.7c-1.3,2.2-3.7,3.6-6.5,3.7v18l0,0c10.4,0,18.9-3.1,18.9-6.8v-13.7
		C-125.7,287-127.7,288-130,288z"/>
	<path fill="#59B4D9" d="M-143.3,288L-143.3,288l-0.1,18c0.1,0,0.1,0,0.2,0l0,0v-18C-143.2,288-143.2,288-143.3,288z"/>
</g>
<g>
	<rect x="-139.084" y="291.933" fill="#68217A" width="4.89" height="14.067"/>
</g>
<g>
	<rect x="-131.806" y="288.625" fill="#68217A" width="4.89" height="17.375"/>
</g>
<g>
	<rect x="-124.537" y="294.192" fill="#68217A" width="4.906" height="11.808"/>
</g>
<g>
	<rect x="-117.251" y="289.97" fill="#68217A" width="4.89" height="16.03"/>
</g>
<g>
	<polygon fill="#68217A" points="-122.541,289.483 -127.977,281.569 -137.374,288.474 -138.111,287.473 -127.679,279.808 
		-122.307,287.628 -113.925,280.308 -113.396,280.915 -113.864,281.323 -113.576,281.653 	"/>
</g>
<g>
	<circle fill="#804998" cx="-137.969" cy="288.05" r="1.864"/>
</g>
<g>
	<circle fill="#804998" cx="-127.864" cy="280.88" r="1.864"/>
</g>
<g>
	<circle fill="#804998" cx="-122.552" cy="288.556" r="1.864"/>
</g>
<g>
	<circle fill="#804998" cx="-113.864" cy="281.141" r="1.864"/>
</g>
</svg>
