<?xml version="1.0" encoding="utf-8"?>
<!-- Generator: Adobe Illustrator 17.1.0, SVG Export Plug-In . SVG Version: 6.00 Build 0)  -->
<!DOCTYPE svg PUBLIC "-//W3C//DTD SVG 1.1//EN" "http://www.w3.org/Graphics/SVG/1.1/DTD/svg11.dtd">
<svg version="1.1" id="Layer_1" xmlns="http://www.w3.org/2000/svg" xmlns:xlink="http://www.w3.org/1999/xlink" x="0px" y="0px"
	 height="50px" width="50px" viewBox="0 0 50 50" enable-background="new 0 0 50 50" xml:space="preserve">
<path fill="#3999C6" d="M25,50c-1.2,0-2.4-0.5-3.3-1.4L1.4,28.3C0.5,27.4,0,26.2,0,25c0-1.2,0.5-2.4,1.4-3.3L21.7,1.4
	C22.6,0.5,23.8,0,25,0c1.2,0,2.4,0.5,3.3,1.4l20.4,20.4c0.9,0.9,1.4,2,1.4,3.3c0,1.2-0.5,2.4-1.4,3.3L28.3,48.6
	C27.4,49.5,26.2,50,25,50"/>
<path opacity="0.15" fill="#FFFFFF" d="M28.3,1.4C27.4,0.5,26.2,0,25,0c-1.2,0-2.4,0.5-3.3,1.4L1.4,21.7C0.5,22.6,0,23.8,0,25
	c0,1.2,0.5,2.4,1.4,3.3l11.5,11.5L34.6,7.7L28.3,1.4z"/>
<polygon fill="#FFFFFF" points="25,4.4 18.4,11 23.1,11 23.1,20.6 27,20.6 27,11 31.6,11 "/>
<polygon fill="#FFFFFF" points="25,45.6 31.6,39 26.9,39 26.9,29.6 23,29.6 23,39 18.4,39 "/>
<polygon fill="#FFFFFF" points="28.1,25 34.7,31.6 34.7,27 43.6,27 43.6,23 34.7,23 34.7,18.4 "/>
<polygon fill="#FFFFFF" points="22,25 15.4,18.4 15.4,23 6.4,23 6.4,27 15.4,27 15.4,31.6 "/>
</svg>
