<?xml version="1.0" encoding="utf-8"?>
<!-- Generator: Adobe Illustrator 17.1.0, SVG Export Plug-In . SVG Version: 6.00 Build 0)  -->
<!DOCTYPE svg PUBLIC "-//W3C//DTD SVG 1.1//EN" "http://www.w3.org/Graphics/SVG/1.1/DTD/svg11.dtd">
<svg version="1.1" id="Layer_1" xmlns="http://www.w3.org/2000/svg" xmlns:xlink="http://www.w3.org/1999/xlink" x="0px" y="0px"
	 width="50px" height="50px" viewBox="0 0 50 50" enable-background="new 0 0 50 50" xml:space="preserve">
<path fill="#59B4D9" d="M44,22.2c0-0.4,0.1-0.9,0.1-1.3c0-7.1-5.8-12.8-13-12.8c-4.2,0-8.1,2-10.5,5.3c-1.5-1-3.3-1.5-5.2-1.5
	c-5.4,0-9.8,4.4-9.8,9.7l0,0.8C2,24.3,0,27.4,0,31.2c0,6,4.9,10.7,11.2,10.7h27.6c6.3,0,11.2-4.7,11.2-10.7C50,27.2,47.8,24,44,22.2
	z"/>
<g>
	<path fill="#FCD116" d="M32.3,17.3C32.3,17.3,32.3,17.3,32.3,17.3C32.3,17.3,32.3,17.3,32.3,17.3z"/>
	<path fill="#FCD116" d="M32.4,17c0,0.1-0.1,0.1-0.1,0.2C32.3,17.1,32.3,17.1,32.4,17l4.3-7.6c0,0,0,0,0,0L32.4,17z"/>
	<path fill="#FCD116" d="M22.7,23.1h4.9c0.2,0,0.3,0,0.3,0.1c0.1,0.1,0.1,0.3,0.1,0.5l-5,12.2c-0.1,0.3,0,0.4,0.2,0.1l0.7-0.8
		l11.8-17.7l3.2,0c0,0,0,0,0,0l-5.2,0h-1c0,0-0.1,0-0.1,0h-2.9l4.7-9c-1-0.3-2.1-0.4-3.2-0.4c-1.6,0-3.1,0.3-4.5,0.8l-4.3,13.7
		C22.2,22.9,22.4,23.1,22.7,23.1z"/>
	<path fill="#59B4D9" d="M39.1,18L23.9,35.2l-0.1,0.2L39.1,18c0.3-0.3,0.2-0.5-0.2-0.5h0C39.2,17.5,39.3,17.7,39.1,18z"/>
	<path opacity="0.3" fill="#FF8C00" d="M39.1,18L23.9,35.2l-0.1,0.2L39.1,18c0.3-0.3,0.2-0.5-0.2-0.5h0C39.2,17.5,39.3,17.7,39.1,18
		z"/>
	<path fill="#FCD116" d="M23.9,35.2L39.1,18c0.2-0.3,0.1-0.5-0.2-0.5l-3.2,0L23.9,35.2z"/>
	<path opacity="0.3" fill="#FF8C00" d="M23.9,35.2L39.1,18c0.2-0.3,0.1-0.5-0.2-0.5l-3.2,0L23.9,35.2z"/>
	<path fill="#FF8C00" d="M32.6,17.5L32.6,17.5c-0.1,0-0.2-0.1-0.2-0.2C32.3,17.4,32.4,17.5,32.6,17.5z"/>
	<path fill="#FF8C00" d="M32.3,17.3c0,0,0-0.1,0-0.1C32.3,17.2,32.3,17.3,32.3,17.3z"/>
	<path fill="#FF8C00" d="M32.4,17l4.3-7.6c-0.7-0.3-1.5-0.6-2.3-0.8l-4.7,9h2.9c-0.1,0-0.2-0.1-0.2-0.2c0,0,0,0,0,0c0,0,0-0.1,0-0.1
		C32.3,17.1,32.3,17,32.4,17z"/>
</g>
</svg>
