<?xml version="1.0" encoding="utf-8"?>
<!-- Generator: Adobe Illustrator 18.1.0, SVG Export Plug-In . SVG Version: 6.00 Build 0)  -->
<!DOCTYPE svg PUBLIC "-//W3C//DTD SVG 1.0//EN" "http://www.w3.org/TR/2001/REC-SVG-20010904/DTD/svg10.dtd">
<svg version="1.0" xmlns="http://www.w3.org/2000/svg" xmlns:xlink="http://www.w3.org/1999/xlink" x="0px" y="0px"
	 viewBox="0 0 152 117.5" enable-background="new 0 0 152 117.5" xml:space="preserve">
<g id="Layer_1">
	<g id="Azure">
	</g>
	<g id="BizTalk_Services" transform="translate(37.3575,-2500.2)">
	</g>
	<g id="Key_Vault">
	</g>
	<g id="Mobile_Engagement">
	</g>
</g>
<g id="paths">
	<g id="Access_control">
	</g>
	<g id="Azure_active_directory">
	</g>
	<g id="API_Management">
	</g>
	<g id="Azure_automation">
	</g>
	<g id="Azure_SQL_database">
	</g>
	<g id="Azure_subscription">
	</g>
	<g id="Backup_service">
	</g>
	<g id="Bitbucket_code_source">
	</g>
	<g id="Azure_cache">
	</g>
	<g id="Content_delivery_network__x28_CDN_x29_">
	</g>
	<g id="Cloud_service">
	</g>
	<g id="CodePlex">
	</g>
	<g id="Dropbox_code_source">
	</g>
	<g id="Express_route">
	</g>
	<g id="Git_repository">
	</g>
	<g id="GitHub_code">
	</g>
	<g id="HD_Insight">
	</g>
	<g id="Health_monitoring">
	</g>
	<g id="Healthy">
	</g>
	<g id="BizTalk_hybrid_connection">
	</g>
	<g id="Hybrid_connection_manager_for_BizTalk_hybrid_connection">
	</g>
	<g id="Hyper-V_recovery_manager">
	</g>
	<g id="Machine_learning">
	</g>
	<g id="Media_services">
	</g>
	<g id="Microsoft_account">
	</g>
	<g id="Mobile_services">
	</g>
	<g id="Multi-factor_authentication">
	</g>
	<g id="MySQL_database">
	</g>
	<g id="Notification_hub">
	</g>
	<g id="Notification_topic">
		<g>
			<polygon fill="#0078D7" points="77,57.1 77.4,49.7 74.6,49.7 75,57.1 			"/>
			<path fill="#0078D7" d="M76,58.4c-0.9,0-1.6,0.7-1.6,1.6c0,0.9,0.6,1.6,1.6,1.6c0.9,0,1.6-0.7,1.6-1.6
				C77.5,59.1,76.9,58.4,76,58.4z"/>
			<path fill="#0078D7" d="M89.7,41l-27.6,0c-2.6,0-4.4,1.8-4.4,4.4l0,18.5c0,2.6,1.8,4.9,4.4,4.9l6.6,0l12.4,8.8L80,68.8l9.6,0
				c2.6,0,4.6-2.1,4.6-4.6l0.1-18.6C94.3,43.1,92.3,41,89.7,41z M86.2,64.6H76H65.8c-1.6,0-2.5-1.4-1.7-2.7l5.2-8.8l5.1-8.4
				c0.8-1.3,2.4-1.3,3.2,0l5.2,8.8l5.1,8.4C88.7,63.3,87.9,64.6,86.2,64.6z"/>
		</g>
	</g>
</g>
</svg>
