<?xml version="1.0" encoding="utf-8"?>
<!-- Generator: Adobe Illustrator 19.1.0, SVG Export Plug-In . SVG Version: 6.00 Build 0)  -->
<svg version="1.1" id="Layer_1" xmlns="http://www.w3.org/2000/svg" xmlns:xlink="http://www.w3.org/1999/xlink" x="0px" y="0px"
	 viewBox="-280 372 50 50" style="enable-background:new -280 372 50 50;" xml:space="preserve">
<style type="text/css">
	.st0{fill:#0078D7;}
	.st1{fill:#FFFFFF;}
</style>
<path class="st0" d="M-254,422c-1.2,0-2.4-0.5-3.3-1.4l-20.3-20.3c-0.9-0.9-1.4-2.1-1.4-3.3s0.5-2.4,1.4-3.3l20.3-20.3
	c0.9-0.9,2.1-1.4,3.3-1.4s2.4,0.5,3.3,1.4l20.4,20.4c0.9,0.9,1.4,2,1.4,3.3c0,1.2-0.5,2.4-1.4,3.3l-20.4,20.2
	C-251.6,421.5-252.8,422-254,422"/>
<polygon class="st1" points="-255,376.4 -261.6,383 -256.9,383 -256.9,392.6 -253,392.6 -253,383 -248.4,383 "/>
<polygon class="st1" points="-255,417.6 -248.4,411 -253.1,411 -253.1,401.6 -257,401.6 -257,411 -261.6,411 "/>
<polygon class="st1" points="-251.9,397 -245.3,403.6 -245.3,399 -236.4,399 -236.4,395 -245.3,395 -245.3,390.4 "/>
<polygon class="st1" points="-258,397 -264.6,390.4 -264.6,395 -273.6,395 -273.6,399 -264.6,399 -264.6,403.6 "/>
</svg>
