<?xml version="1.0" encoding="utf-8"?>
<!-- Generator: Adobe Illustrator 18.1.0, SVG Export Plug-In . SVG Version: 6.00 Build 0)  -->
<!DOCTYPE svg PUBLIC "-//W3C//DTD SVG 1.0//EN" "http://www.w3.org/TR/2001/REC-SVG-20010904/DTD/svg10.dtd">
<svg version="1.0" xmlns="http://www.w3.org/2000/svg" xmlns:xlink="http://www.w3.org/1999/xlink" x="0px" y="0px"
	 viewBox="0 0 152 117.5" enable-background="new 0 0 152 117.5" xml:space="preserve">
<g id="Layer_1">
	<g id="Azure">
	</g>
	<g id="BizTalk_Services" transform="translate(37.3575,-2500.2)">
	</g>
	<g id="group147-265" transform="translate(1101.05,-3627.84)">
		<g id="group148-266">
			<title>Sheet.148</title>
			<g id="shape149-267" transform="translate(23.9392,-0.8505)">
				<title>Sheet.149</title>
				<path fill="#006FD4" d="M-1040.9,3676.7v21.4c1.3,0.2,2.7,0.4,4,0.6v-22.5C-1038.2,3676.4-1039.6,3676.6-1040.9,3676.7z"/>
			</g>
			<g id="shape150-269" transform="translate(28.9785,0)">
				<title>Sheet.150</title>
				<path fill="#006FD4" d="M-1040.6,3675v23.2c1.3,0.2,1.5,0.4,2.7,0.6v-24.3C-1039.1,3674.6-1039.3,3674.8-1040.6,3675z"/>
			</g>
			<g id="shape151-271">
				<title>Sheet.151</title>
				<path fill="#006FD4" d="M-1039.5,3675v23.2c-1.3,0.2-1.5,0.4-2.7,0.6v-24.3C-1041.1,3674.6-1040.9,3674.8-1039.5,3675z"/>
			</g>
			<g id="shape152-273" transform="translate(3.78375,-0.84825)">
				<title>Sheet.152</title>
				<path fill="#006FD4" d="M-1042,3676.1v22.5c1.3-0.2,2.7-0.4,4-0.6v-21.4C-1039.3,3676.6-1040.7,3676.4-1042,3676.1z"/>
			</g>
		</g>
		<g id="shape153-275" transform="translate(8.82375,-1.6155)">
			<title>Sheet.153</title>
			<path fill="#006FD4" d="M-1030,3688.4l-7.8,8.8c-0.1,0.1-0.2,0.2-0.4,0.2h-0.2l-0.1-0.2c-0.2-0.2-0.1-0.6,0-0.7l2.3-5.8h-2.1
				c-0.2,0-0.4,0.1-0.6-0.1c-0.1-0.2-0.1-0.3-0.1-0.5l3-8.1c0.1-0.3,0.5-0.5,0.9-0.5h4.6c0.2,0,0.5,0.1,0.6,0.3
				c0.1,0.2,0.1,0.4,0,0.6l-3,5l2.6,0c0.3,0,0.5,0.1,0.6,0.3C-1029.8,3688-1029.8,3688.2-1030,3688.4z M-1035.3,3678.5
				c-3.6,0-3.6-0.3-6.4-0.8v20.9c2-0.2,2.9-0.5,6.4-0.5c3.6,0,5.5,0.2,8.2,0.5v-20.9C-1029.8,3678.1-1031.6,3678.5-1035.3,3678.5z"
				/>
		</g>
	</g>
</g>
<g id="paths">
	<g id="Access_control">
	</g>
	<g id="Azure_active_directory">
	</g>
	<g id="API_Management">
	</g>
	<g id="Azure_automation">
	</g>
	<g id="Azure_SQL_database">
	</g>
	<g id="Azure_subscription">
	</g>
	<g id="Backup_service">
	</g>
	<g id="Bitbucket_code_source">
	</g>
	<g id="Azure_cache">
	</g>
	<g id="Content_delivery_network__x28_CDN_x29_">
	</g>
	<g id="Cloud_service">
	</g>
	<g id="CodePlex">
	</g>
</g>
</svg>
