<?xml version="1.0" encoding="utf-8"?>
<!-- Generator: Adobe Illustrator 19.1.0, SVG Export Plug-In . SVG Version: 6.00 Build 0)  -->
<svg version="1.1" id="Layer_1" xmlns="http://www.w3.org/2000/svg" xmlns:xlink="http://www.w3.org/1999/xlink" x="0px" y="0px"
	 width="50px" height="50px" viewBox="0 0 50 50" enable-background="new 0 0 50 50" xml:space="preserve">
<g>
	<path fill="#3E3E3E" d="M6.1,6.8v36.3c0,3.8,8.4,6.8,18.9,6.8V6.8H6.1z"/>
	<path fill="#A0A1A2" d="M24.7,50H25c10.4,0,18.9-3.1,18.9-6.8V6.8H24.7V50z"/>
	<path fill="#FFFFFF" d="M43.9,6.8c0,3.8-8.4,6.8-18.9,6.8S6.1,10.6,6.1,6.8C6.1,3.1,14.6,0,25,0S43.9,3.1,43.9,6.8"/>
	<path fill="#7FBA00" d="M40,6.4c0,2.5-6.7,4.5-15,4.5s-15-2-15-4.5c0-2.5,6.7-4.5,15-4.5S40,3.9,40,6.4"/>
	<path fill="#B8D432" d="M36.9,9.2c2-0.8,3.1-1.7,3.1-2.8c0-2.5-6.7-4.5-15-4.5c-8.3,0-15,2-15,4.5c0,1,1.2,2,3.1,2.8
		c2.7-1.1,7-1.8,11.9-1.8C29.8,7.4,34.1,8.1,36.9,9.2"/>
</g>
<g>
	<path fill="#3999C6" d="M24.7,50V32c-2.8,0-5.2-1.5-6.6-3.7c-1.4,2.2-3.7,3.7-6.5,3.7c-2.2,0-4.1-0.9-5.5-2.4v13.6
		C6.1,46.9,14.4,49.9,24.7,50z"/>
	<path fill="#3999C6" d="M25,50L25,50L25,50C25,50,25,50,25,50z"/>
	<path fill="#59B4D9" d="M24.7,50H25C24.9,50,24.8,50,24.7,50L24.7,50z"/>
	<path fill="#59B4D9" d="M38.1,32c-2.8,0-5.3-1.5-6.7-3.7c-1.3,2.2-3.7,3.6-6.5,3.7v18h0c10.4,0,18.9-3.1,18.9-6.8V29.5
		C42.4,31,40.4,32,38.1,32z"/>
	<path fill="#59B4D9" d="M24.8,32C24.8,32,24.8,32,24.8,32l-0.1,18c0.1,0,0.1,0,0.2,0h0V32C24.9,32,24.9,32,24.8,32z"/>
</g>
</svg>
