<?xml version="1.0" encoding="utf-8"?>
<!-- Generator: Adobe Illustrator 18.1.0, SVG Export Plug-In . SVG Version: 6.00 Build 0)  -->
<!DOCTYPE svg PUBLIC "-//W3C//DTD SVG 1.0//EN" "http://www.w3.org/TR/2001/REC-SVG-20010904/DTD/svg10.dtd">
<svg version="1.0" xmlns="http://www.w3.org/2000/svg" xmlns:xlink="http://www.w3.org/1999/xlink" x="0px" y="0px"
	 viewBox="0 0 152 117.5" enable-background="new 0 0 152 117.5" xml:space="preserve">
<g id="Layer_1">
	<g id="Azure">
	</g>
	<g id="BizTalk_Services" transform="translate(37.3575,-2500.2)">
	</g>
	<g id="shape19-41" transform="translate(1104.2,-2043.07)">
		<title>Sheet.19</title>
		<path fill="#006FD4" d="M-1028.2,2092c-5.2,0-9.5-1.3-9.5-2.8c0-1.6,4.2-2.8,9.5-2.8c5.2,0,9.5,1.3,9.5,2.8
			C-1018.7,2090.8-1023,2092-1028.2,2092z M-1020.9,2101.8c-0.5,0.4-1,0.6-1.7,0.6c-0.4,0-0.8-0.1-1.2-0.1c-0.4-0.1-0.7-0.2-1-0.3
			c-0.1,0.1-0.3,0.3-0.6,0.6c-0.2,0.3-0.5,0.7-0.9,1.1c0.3,1.2,0.5,2.1,0.7,2.7c0.2,0.5,0.3,1,0.5,1.6c0.1,0.4,0.3,0.8,0.6,1
			c0.3,0.2,0.7,0.4,1.3,0.4c0.2,0,0.5,0,0.8-0.1c0.3-0.1,0.6-0.2,0.8-0.2l-0.3,1.1c-0.8,0.3-1.5,0.6-2.1,0.8
			c-0.6,0.2-1.1,0.2-1.6,0.2c-0.3,0-0.7,0-1-0.1c-0.3-0.1-0.6-0.2-0.9-0.3c-0.3-0.2-0.6-0.4-0.8-0.7c-0.2-0.3-0.4-0.7-0.5-1.1
			c-0.1-0.3-0.2-0.7-0.3-1c-0.1-0.4-0.2-0.7-0.3-1l-0.5,0.8l-0.5,0.7c-0.7,1-1.2,1.7-1.7,2.1c-0.5,0.4-1,0.6-1.7,0.6
			c-0.5,0-0.9-0.2-1.3-0.5c-0.3-0.3-0.5-0.8-0.5-1.3c0-0.7,0.2-1.3,0.7-1.7c0.5-0.4,1-0.6,1.7-0.6c0.4,0,0.8,0,1.1,0.1
			c0.4,0.1,0.7,0.2,1,0.3c0.1-0.1,0.3-0.3,0.6-0.6c0.2-0.3,0.5-0.7,0.8-1.1c-0.3-1.1-0.5-1.9-0.7-2.5l-0.5-1.7
			c-0.1-0.4-0.4-0.8-0.6-1c-0.3-0.2-0.7-0.4-1.3-0.4c-0.2,0-0.5,0-0.8,0.1c-0.3,0.1-0.5,0.2-0.8,0.2l0.3-1.1
			c0.7-0.3,1.4-0.6,2.1-0.7c0.7-0.2,1.2-0.2,1.7-0.2c0.4,0,0.7,0,1,0.1c0.3,0.1,0.6,0.2,0.9,0.4c0.3,0.2,0.5,0.4,0.8,0.7
			c0.2,0.3,0.4,0.7,0.5,1.1c0.1,0.3,0.2,0.7,0.3,1l0.2,0.9l0.5-0.8c0.2-0.3,0.3-0.5,0.5-0.7c0.6-1,1.2-1.7,1.7-2.1
			c0.5-0.4,1.1-0.6,1.7-0.6c0.5,0,0.9,0.2,1.3,0.5c0.3,0.3,0.5,0.8,0.5,1.3C-1020.2,2100.8-1020.5,2101.3-1020.9,2101.8z
			 M-1028.2,2084.5c-7.3,0-13.3,2.4-13.3,5.1v24.2c0,2.7,5.9,5.2,13.3,5.2c7.3,0,13.3-2.4,13.3-5.1v-24.2
			C-1014.9,2087.1-1020.9,2084.5-1028.2,2084.5z"/>
	</g>
</g>
<g id="paths">
	<g id="Access_control">
	</g>
	<g id="Azure_active_directory">
	</g>
	<g id="API_Management">
	</g>
	<g id="Azure_automation">
	</g>
	<g id="Azure_SQL_database">
	</g>
	<g id="Azure_subscription">
	</g>
	<g id="Backup_service">
	</g>
	<g id="Bitbucket_code_source">
	</g>
	<g id="Azure_cache">
	</g>
	<g id="Content_delivery_network__x28_CDN_x29_">
	</g>
	<g id="Cloud_service">
	</g>
	<g id="CodePlex">
	</g>
</g>
</svg>
