<?xml version="1.0" encoding="utf-8"?>
<!-- Generator: Adobe Illustrator 19.1.0, SVG Export Plug-In . SVG Version: 6.00 Build 0)  -->
<svg version="1.1" id="Layer_1" xmlns="http://www.w3.org/2000/svg" xmlns:xlink="http://www.w3.org/1999/xlink" x="0px" y="0px"
	 viewBox="-289 381 32 32" style="enable-background:new -289 381 32 32;" xml:space="preserve">
<style type="text/css">
	.st0{fill:#0078D7;}
</style>
<path class="st0" d="M-268.1,398.8c-0.9,1.6-2.5,2.7-4.5,2.7s-3.6-1.1-4.5-2.7c-0.9,1.6-2.5,2.7-4.5,2.7c-1.3,0-2.5-0.5-3.4-1.3v7.9
	c0.1,2.6,5.6,4.9,12.4,4.9c6.8,0,12.3-2.2,12.3-4.7v-8.1c-0.9,0.8-2.1,1.3-3.4,1.3C-265.6,401.5-267.3,400.4-268.1,398.8z"/>
<path class="st0" d="M-272.6,381c-6.8,0-12.3,2.3-12.3,4.7v8.7v3.8c0.9,0.8,2.1,1.3,3.4,1.3c1.9,0,3.6-1.1,4.5-2.7
	c0.9,1.6,2.5,2.7,4.5,2.7s3.6-1.1,4.5-2.7c0.9,1.6,2.5,2.7,4.5,2.7c1.3,0,2.5-0.5,3.4-1.3v-3.8v-8.5
	C-260.3,383.4-265.8,381-272.6,381z M-272.6,382.8c4.8,0,8.8,1.2,8.8,2.6s-4,2.6-8.8,2.6c-4.8,0-8.8-1.2-8.8-2.6
	S-277.5,382.8-272.6,382.8z"/>
</svg>
