<?xml version="1.0" encoding="utf-8"?>
<!-- Generator: Adobe Illustrator 17.1.0, SVG Export Plug-In . SVG Version: 6.00 Build 0)  -->
<!DOCTYPE svg PUBLIC "-//W3C//DTD SVG 1.1//EN" "http://www.w3.org/Graphics/SVG/1.1/DTD/svg11.dtd">
<svg version="1.1" id="Layer_1" xmlns="http://www.w3.org/2000/svg" xmlns:xlink="http://www.w3.org/1999/xlink" x="0px" y="0px"
	 width="50px" height="50px" viewBox="0 0 50 50" enable-background="new 0 0 50 50" xml:space="preserve">
<g>
	<polygon fill="#3999C6" points="50,50 45.5,50 45.5,17.3 24.9,5.9 4.5,17.3 4.5,50 0,50 0,14.6 24.9,0.6 50,14.6 	"/>
</g>
<rect x="20.8" y="35.3" fill="#B8D432" width="8.4" height="6"/>
<rect x="20.8" y="25.8" fill="#B8D432" width="8.4" height="6.9"/>
<rect x="20.8" y="17.1" fill="#B8D432" width="8.4" height="6"/>
<rect x="20.8" y="43.9" fill="#B8D432" width="8.4" height="6.1"/>
<rect x="31.8" y="43.9" fill="#B8D432" width="8.4" height="6.1"/>
<rect x="31.8" y="35.3" fill="#B8D432" width="8.4" height="6"/>
<rect x="31.8" y="25.8" fill="#B8D432" width="8.4" height="6.9"/>
<rect x="9.8" y="25.8" fill="#B8D432" width="8.4" height="6.9"/>
<rect x="9.8" y="35.3" fill="#B8D432" width="8.4" height="6"/>
<rect x="9.8" y="43.9" fill="#B8D432" width="8.4" height="6.1"/>
</svg>
