<?xml version="1.0" encoding="UTF-8" standalone="no"?>
<!DOCTYPE svg PUBLIC "-//W3C//DTD SVG 1.1//EN" "http://www.w3.org/Graphics/SVG/1.1/DTD/svg11.dtd">
<!-- Generated by Microsoft Visio, SVG Export DataLakeStore.svg Layer_1 -->
<svg xmlns="http://www.w3.org/2000/svg" xmlns:xlink="http://www.w3.org/1999/xlink" xmlns:ev="http://www.w3.org/2001/xml-events"
		xmlns:v="http://schemas.microsoft.com/visio/2003/SVGExtensions/" width="0.333333in" height="0.333333in" viewBox="0 0 24 24"
		xml:space="preserve" color-interpolation-filters="sRGB" class="st2">
	<v:documentProperties v:langID="1033" v:viewMarkup="false"/>

	<style type="text/css">
	<![CDATA[
		.st1 {fill:#0078d7;stroke:none;stroke-linecap:butt;stroke-width:0.75}
		.st2 {fill:none;fill-rule:evenodd;font-size:12px;overflow:visible;stroke-linecap:square;stroke-miterlimit:3}
	]]>
	</style>

	<g v:mID="0" v:index="1" v:groupContext="foregroundPage">
		<title>Layer_1</title>
		<v:pageProperties v:drawingScale="1" v:pageScale="1" v:drawingUnits="19" v:shadowOffsetX="9" v:shadowOffsetY="-9"/>
		<g id="shape4-1" v:mID="4" v:groupContext="shape" transform="translate(-0.00075,0)">
			<title>Sheet.4</title>
			<path d="M2.7 3.3 C2.7 2.25 5.63 1.35 9.3 1.35 C12.9 1.35 15.9 2.25 15.9 3.3 C15.9 4.35 12.9 5.25 9.3 5.25 C5.7 5.25
						 2.7 4.35 2.7 3.3 ZM8.29 11.25 L8.29 9.37 L15.36 9.37 L17 11.02 L18.68 11.02 L18.68 3.67 C18.53 1.8 14.4
						 -0 9.3 -0 C4.2 -0 0.08 1.72 0.08 3.52 L0.08 12.9 C0.75 13.5 1.65 13.87 2.63 13.87 C4.05 13.87 5.33 13.05
						 6 11.85 C6.5 12.74 7.3 13.43 8.29 13.72 L8.29 11.25 ZM23.47 13.99 L23.47 12.89 L16.23 12.89 L14.58 11.25
						 L10.17 11.25 L10.17 23.34 C10.17 23.71 10.46 24 10.82 24 L23.34 24 C23.71 24 24 23.71 24 23.34 L24 13.99
						 L23.47 13.99 ZM8.29 23.34 L8.29 15.24 C7.26 14.96 6.44 14.27 5.92 13.35 C5.25 14.55 4.05 15.37 2.55 15.37
						 C1.58 15.37 0.68 15 0 14.4 L0 20.32 C0.07 22.16 3.71 23.79 8.38 23.98 C8.33 23.78 8.29 23.56 8.29 23.34
						 Z" class="st1"/>
		</g>
	</g>
</svg>
