<?xml version="1.0" encoding="UTF-8" standalone="no"?>
<!DOCTYPE svg PUBLIC "-//W3C//DTD SVG 1.1//EN" "http://www.w3.org/Graphics/SVG/1.1/DTD/svg11.dtd">
<!-- Generated by Microsoft Visio, SVG Export DataLakeAnalytics.svg Page-1 -->
<svg xmlns="http://www.w3.org/2000/svg" xmlns:xlink="http://www.w3.org/1999/xlink" xmlns:ev="http://www.w3.org/2001/xml-events"
		xmlns:v="http://schemas.microsoft.com/visio/2003/SVGExtensions/" width="0.354167in" height="0.354167in"
		viewBox="0 0 25.5 25.5" xml:space="preserve" color-interpolation-filters="sRGB" class="st2">
	<v:documentProperties v:langID="1033" v:viewMarkup="false"/>

	<style type="text/css">
	<![CDATA[
		.st1 {fill:#0078d7;stroke:none;stroke-linecap:butt;stroke-width:0.75}
		.st2 {fill:none;fill-rule:evenodd;font-size:12px;overflow:visible;stroke-linecap:square;stroke-miterlimit:3}
	]]>
	</style>

	<g v:mID="0" v:index="1" v:groupContext="foregroundPage">
		<title>Page-1</title>
		<v:pageProperties v:drawingScale="1" v:pageScale="1" v:drawingUnits="19" v:shadowOffsetX="2.83465"
				v:shadowOffsetY="-2.83465" v:shadowType="1"/>
		<g id="shape1-1" v:mID="1" v:groupContext="shape" transform="translate(0.75,-0.75)">
			<title>Sheet.1</title>
			<path d="M2.7 4.8 C2.7 3.75 5.63 2.85 9.3 2.85 C12.9 2.85 15.9 3.75 15.9 4.8 C15.9 5.85 12.9 6.75 9.3 6.75 C5.7 6.75
						 2.7 5.85 2.7 4.8 ZM11.54 14.11 C11.59 14.11 11.64 14.12 11.69 14.12 L13.74 12.61 C14.1 11.49 15.15 10.67
						 16.39 10.67 C17.34 10.67 18.18 11.15 18.68 11.89 L18.68 5.17 C18.53 3.3 14.4 1.5 9.3 1.5 C4.2 1.5 0.07 3.22
						 0.07 5.02 L0.07 14.4 C0.75 15 1.65 15.37 2.63 15.37 C4.05 15.37 5.33 14.55 6 13.35 C6.65 14.51 7.8 15.31
						 9.22 15.36 C9.72 14.61 10.57 14.11 11.54 14.11 ZM9.12 18.75 L9.12 18.22 C8.9 17.82 8.77 17.37 8.77 16.88
						 C8.77 16.87 8.77 16.85 8.77 16.84 C7.52 16.67 6.52 15.9 5.93 14.85 C5.25 16.05 4.05 16.87 2.55 16.87 C1.57
						 16.87 0.68 16.5 0 15.9 L0 21.82 C0.07 23.75 4.11 25.46 9.12 25.5 L9.12 18.75 ZM11 25.5 L13.35 25.5 L13.35
						 18.75 L11 18.75 L11 25.5 ZM14.49 25.5 L16.84 25.5 L16.84 17.16 L14.49 17.16 L14.49 25.5 ZM17.98 25.5 L20.34
						 25.5 L20.34 19.83 L17.98 19.83 L17.98 25.5 ZM21.48 25.5 L23.83 25.5 L23.83 17.81 L21.48 17.81 L21.48 25.5
						 ZM23.11 12.67 C22.61 12.67 22.21 13.07 22.21 13.57 C22.21 13.67 22.24 13.77 22.27 13.87 L19.4 16.38 C19.26
						 16.29 19.11 16.23 18.93 16.23 C18.88 16.23 18.82 16.25 18.77 16.27 L17.14 13.9 C17.22 13.76 17.28 13.61
						 17.28 13.44 C17.28 12.95 16.88 12.55 16.38 12.55 C15.89 12.55 15.49 12.95 15.49 13.44 C15.49 13.51 15.51
						 13.56 15.53 13.62 L12.05 16.18 C11.91 16.07 11.73 15.99 11.53 15.99 C11.04 15.99 10.64 16.39 10.64 16.88
						 C10.64 17.38 11.04 17.78 11.53 17.78 C12.03 17.78 12.43 17.38 12.43 16.88 C12.43 16.81 12.4 16.74 12.39
						 16.67 L15.84 14.13 C15.99 14.25 16.18 14.34 16.38 14.34 C16.49 14.34 16.58 14.31 16.68 14.28 L18.25 16.57
						 C18.12 16.72 18.04 16.91 18.04 17.13 C18.04 17.62 18.44 18.02 18.93 18.02 C19.43 18.02 19.83 17.62 19.83
						 17.13 C19.83 17.03 19.8 16.93 19.77 16.84 L22.66 14.32 C22.79 14.4 22.94 14.46 23.11 14.46 C23.6 14.46 24
						 14.06 24 13.57 C24 13.07 23.6 12.67 23.11 12.67 Z" class="st1"/>
		</g>
	</g>
</svg>
