<?xml version="1.0" encoding="utf-8"?>
<!-- Generator: Adobe Illustrator 18.1.0, SVG Export Plug-In . SVG Version: 6.00 Build 0)  -->
<!DOCTYPE svg PUBLIC "-//W3C//DTD SVG 1.0//EN" "http://www.w3.org/TR/2001/REC-SVG-20010904/DTD/svg10.dtd">
<svg version="1.0" xmlns="http://www.w3.org/2000/svg" xmlns:xlink="http://www.w3.org/1999/xlink" x="0px" y="0px"
	 viewBox="0 0 152 117.5" enable-background="new 0 0 152 117.5" xml:space="preserve">
<g id="Layer_1">
	<g id="Azure">
	</g>
	<g id="BizTalk_Services" transform="translate(37.3575,-2500.2)">
	</g>
	<g id="Key_Vault">
	</g>
	<g id="Mobile_Engagement">
	</g>
	<g id="Office_subscription">
		<g id="Office_subscription_1_">
		</g>
	</g>
</g>
<g id="paths">
	<g id="Access_control">
	</g>
	<g id="Azure_active_directory">
	</g>
	<g id="API_Management">
	</g>
	<g id="Azure_automation">
	</g>
	<g id="Azure_SQL_database">
	</g>
	<g id="Azure_subscription">
	</g>
	<g id="Backup_service">
	</g>
	<g id="Bitbucket_code_source">
	</g>
	<g id="Azure_cache">
	</g>
	<g id="Content_delivery_network__x28_CDN_x29_">
	</g>
	<g id="Cloud_service">
	</g>
	<g id="CodePlex">
	</g>
	<g id="Dropbox_code_source">
	</g>
	<g id="Express_route">
	</g>
	<g id="Git_repository">
	</g>
	<g id="GitHub_code">
	</g>
	<g id="HD_Insight">
	</g>
	<g id="Health_monitoring">
	</g>
	<g id="Healthy">
	</g>
	<g id="BizTalk_hybrid_connection">
	</g>
	<g id="Hybrid_connection_manager_for_BizTalk_hybrid_connection">
	</g>
	<g id="Hyper-V_recovery_manager">
	</g>
	<g id="Machine_learning">
	</g>
	<g id="Media_services">
	</g>
	<g id="Microsoft_account">
	</g>
	<g id="Mobile_services">
	</g>
	<g id="Multi-factor_authentication">
	</g>
	<g id="MySQL_database">
	</g>
	<g id="Notification_hub">
	</g>
	<g id="Notification_topic">
	</g>
	<g id="Cloud_Office_365">
	</g>
	<g id="Office_365">
	</g>
	<g id="OS_image">
	</g>
	<g id="Remote_app">
	</g>
	<g id="Task_scheduler">
	</g>
	<g id="Azure_SDK">
	</g>
	<g id="Service_bus">
	</g>
	<g id="Service_bus_queue">
	</g>
	<g id="Service_bus_relay">
	</g>
	<g id="Service_bus_topic">
		<g id="group161-290_1_" transform="translate(1255.96,-660.708)">
			<title>Sheet.161</title>
			<g id="shape162-291_1_" transform="translate(8.99281E-015,-8.118)">
				<title>Sheet.162</title>
				<path fill="#0078D7" d="M-1197.2,724.5l-2.5-4.3l0.1-1.1h2.4v-11.8h7.4v-4.4h-3.8h-4h-1.5h-0.9c-0.9,0-1.5,0-1.5,1.5l0,0v29.5
					c0.1,0.3,0.7,1.5,1.6,1.5h1.9h8.2v-4.4h-7.4V724.5z"/>
			</g>
			<g id="shape163-293_1_" transform="translate(7.75875,0)">
				<title>Sheet.163</title>
				<path fill="#0078D7" d="M-1191.7,712l-4.4,6.4v10.3h-4.1l6.3,8l6.4-8h-4.2"/>
				<path fill="#0078D7" d="M-1191.7,700.7h-4.4V711h4.4"/>
			</g>
			<g id="shape164-295_1_" transform="translate(3.81225,-14.8065)">
				<title>Sheet.164</title>
				<path fill="#0078D7" d="M-1193.6,713.5h-4.4l0,13.9h-2.9l5,6.9l5.4-6.9h-3.1V713.5z"/>
			</g>
			<g id="shape165-297_1_" transform="translate(9.75975,-27.0067)">
				<title>Sheet.165</title>
				<path fill="#0078D7" d="M-1195.5,721.8h-4.4c0.3,0,1.7,0.2,1.7,1.4v3.1v5.9h4.4v-9C-1193.7,721.9-1195.1,721.8-1195.5,721.8z"/>
			</g>
			<g id="shape166-299_1_" transform="translate(16.3875,-8.1135)">
				<title>Sheet.166</title>
				<path fill="#0078D7" d="M-1188.9,720.6h-1.3c-0.1-6.6-3.5-11.1-8.5-12.9v4.8c3.3,2.1,4.6,5.8,4.7,10.6l-0.1,1.8l4.8,0
					c2.5,0.1,4.1,1.7,4.1,3.3v2.7h-13.5v4.4h7.3h8.5c1.1,0,1.8-0.4,1.8-1.6v-0.7V731v-2.8C-1181.2,724.3-1184.9,720.6-1188.9,720.6z
					"/>
			</g>
		</g>
	</g>
</g>
<g id="Layer_57">
</g>
</svg>
