<?xml version="1.0" encoding="utf-8"?>
<!-- Generator: Adobe Illustrator 18.1.0, SVG Export Plug-In . SVG Version: 6.00 Build 0)  -->
<!DOCTYPE svg PUBLIC "-//W3C//DTD SVG 1.0//EN" "http://www.w3.org/TR/2001/REC-SVG-20010904/DTD/svg10.dtd">
<svg version="1.0" xmlns="http://www.w3.org/2000/svg" xmlns:xlink="http://www.w3.org/1999/xlink" x="0px" y="0px"
	 viewBox="0 0 152 117.5" enable-background="new 0 0 152 117.5" xml:space="preserve">
<g id="Layer_1">
	<g id="Azure">
	</g>
	<g id="BizTalk_Services" transform="translate(37.3575,-2500.2)">
	</g>
	<g id="Key_Vault">
	</g>
	<g id="Mobile_Engagement">
	</g>
	<g id="Office_subscription">
		<g id="Office_subscription_1_">
		</g>
	</g>
</g>
<g id="paths">
	<g id="Access_control">
	</g>
	<g id="Azure_active_directory">
	</g>
	<g id="API_Management">
	</g>
	<g id="Azure_automation">
	</g>
	<g id="Azure_SQL_database">
	</g>
	<g id="Azure_subscription">
	</g>
	<g id="Backup_service">
	</g>
	<g id="Bitbucket_code_source">
	</g>
	<g id="Azure_cache">
	</g>
	<g id="Content_delivery_network__x28_CDN_x29_">
	</g>
	<g id="Cloud_service">
	</g>
	<g id="CodePlex">
	</g>
	<g id="Dropbox_code_source">
	</g>
	<g id="Express_route">
	</g>
	<g id="Git_repository">
	</g>
	<g id="GitHub_code">
	</g>
	<g id="HD_Insight">
	</g>
	<g id="Health_monitoring">
	</g>
	<g id="Healthy">
	</g>
	<g id="BizTalk_hybrid_connection">
	</g>
	<g id="Hybrid_connection_manager_for_BizTalk_hybrid_connection">
	</g>
	<g id="Hyper-V_recovery_manager">
	</g>
	<g id="Machine_learning">
	</g>
	<g id="Media_services">
	</g>
	<g id="Microsoft_account">
	</g>
	<g id="Mobile_services">
	</g>
	<g id="Multi-factor_authentication">
	</g>
	<g id="MySQL_database">
	</g>
	<g id="Notification_hub">
	</g>
	<g id="Notification_topic">
	</g>
	<g id="Cloud_Office_365">
	</g>
	<g id="Office_365">
	</g>
	<g id="OS_image">
	</g>
	<g id="Remote_app">
	</g>
	<g id="Task_scheduler">
	</g>
	<g id="Azure_SDK">
	</g>
	<g id="Service_bus">
	</g>
	<g id="Service_bus_queue">
		<g>
			<g id="group1302-2518_1_" transform="translate(1245.56,-594.883)">
				<title>Sheet.1302</title>
				<g id="group167-2519_1_" transform="translate(12.4658,-15.558)">
					<title>Sheet.167</title>
					<g id="shape168-2520_1_" transform="translate(6.117,0)">
						<title>Sheet.168</title>
						<path fill="#0078D7" d="M-1184.8,672.7h-4.4v7.6h-3.6l5.9,8.2l5.9-8.2h-3.8V672.7z"/>
					</g>
					<g id="group172-2528_1_" transform="translate(1.0785,-6.921)">
						<title>Sheet.172</title>
						<g id="shape173-2529_1_" transform="translate(1.64868E-013,-16.1423)">
							<title>Sheet.173</title>
							<path fill="#0078D7" d="M-1180.9,668.7h-2.5h-7.4h-1.6h-1c-0.4,0-1.5,0-1.5,1.5v7.6h4.5v-4.6h6v4.6h4.5V670
								C-1179.7,668.8-1180.5,668.7-1180.9,668.7z"/>
						</g>
						<g id="shape174-2531_1_" transform="translate(0.00075,0)">
							<title>Sheet.174</title>
							<path fill="#0078D7" d="M-1190.3,679.6h-4.5v4.7c0,0.3,1.3,1.4,1.6,1.4h1.5h5.9v-4.5h-4.5V679.6z"/>
						</g>
					</g>
					<g id="shape178-2539_1_" transform="translate(12.9225,-6.92025)">
						<title>Sheet.178</title>
						<path fill="#0078D7" d="M-1177.6,672.2h-1.3c-0.7-9-5.1-13.5-11.1-14.7v4.3c4.5,1.5,6.2,5.9,6.3,11.7l-0.1,3l6-0.1
							c1.6,0,2.8,0.4,2.8,2.1v2.6h-15.1v4.5h17.8c0.3,0,1.7-1.2,1.7-1.5v-0.9v-2v-2.7C-1170.5,674.7-1173.7,672.2-1177.6,672.2z"/>
					</g>
				</g>
			</g>
			<g id="shape1030-2088_1_" transform="translate(1.9455,-1.944)">
				<title>Sheet.1030</title>
				<path fill="#0078D7" d="M78,48.6H62.7c-0.5,0-1.1,0.5-1.1,1v11.3c0,0.5,0.6,0.9,1.1,0.9H78c0.5,0,0.9-0.4,0.9-0.9V49.5
					C78.9,49,78.5,48.6,78,48.6z M77.1,50.2l-6.7,5.2l-6.6-5.2H77.1z M63.2,60.2v-8l6.5,4.9c0.2,0.1,0.4,0.2,0.6,0.2
					c0.2,0,0.3-0.1,0.5-0.2l6.5-5.1v8.1H63.2z"/>
			</g>
		</g>
	</g>
</g>
<g id="Layer_57">
</g>
</svg>
