<?xml version="1.0" encoding="utf-8"?>
<!-- Generator: Adobe Illustrator 17.1.0, SVG Export Plug-In . SVG Version: 6.00 Build 0)  -->
<!DOCTYPE svg PUBLIC "-//W3C//DTD SVG 1.1//EN" "http://www.w3.org/Graphics/SVG/1.1/DTD/svg11.dtd">
<svg version="1.1" id="Layer_1" xmlns="http://www.w3.org/2000/svg" xmlns:xlink="http://www.w3.org/1999/xlink" x="0px" y="0px"
	 width="50px" height="50px" viewBox="0 0 50 50" enable-background="new 0 0 50 50" xml:space="preserve">
<polygon fill="#59B4D9" points="21.3,30 16.3,30 16.3,40.6 12,40.6 19,50 26,40.6 21.3,40.6 "/>
<rect x="12.4" y="14.2" fill="#B8D432" width="12.3" height="3.6"/>
<rect x="12.4" y="19.4" fill="#B8D432" width="12.3" height="3.6"/>
<rect x="12.4" y="24.7" fill="#B8D432" width="12.3" height="3.6"/>
<path fill="#59B4D9" d="M19.9,0h-2.8H8.5H6.8H5.6C5.3,0,4,0,4,1.7v22.8l0,0v12.3c0,0.3,1.6,1.7,1.9,1.7h1.7h6.7v-5.3H9.2v-4.1v-5
	V5.2h7v7h5.3V1.3C21.3,0,20.4,0,19.9,0z"/>
<path fill="#59B4D9" d="M38.1,22.8h-1.6c-0.9-10.6-6.1-15.6-13.1-17v5.2c5.3,1.7,7.3,6.9,7.5,13.9l-0.2,3.6l7-0.2
	c1.9,0,3.4,0.5,3.4,2.5v3.1H23.4v5.3h20.9c0.3,0,1.9-1.4,1.9-1.7v-1.1v-2.7v-3.4C46.2,25.9,42.4,22.8,38.1,22.8z"/>
</svg>
