<?xml version="1.0" encoding="utf-8"?>
<!-- Generator: Adobe Illustrator 19.1.0, SVG Export Plug-In . SVG Version: 6.00 Build 0)  -->
<svg version="1.1" id="Layer_1" xmlns="http://www.w3.org/2000/svg" xmlns:xlink="http://www.w3.org/1999/xlink" x="0px" y="0px"
	 viewBox="-289 381 32 32" style="enable-background:new -289 381 32 32;" xml:space="preserve">
<style type="text/css">
	.st0{fill:#0078D7;}
</style>
<g>
	<polygon class="st0" points="-258.9,413 -260.9,413 -260.9,390.4 -273,383.3 -285.1,390.4 -285.1,413 -287.1,413 -287.1,389.2 
		-273,381 -258.9,389.2 	"/>
</g>
<path class="st0" d="M-273,388.8c-5.2,0-9.2,1.8-9.2,3.6v16.8c0,2,4.1,3.8,9.2,3.8s9.2-1.7,9.2-3.6v-16.8
	C-263.8,390.6-267.8,388.8-273,388.8z M-272.9,390.1c3.6,0,6.6,0.9,6.6,2.1c0,1.2-3,2.1-6.6,2.1s-6.6-0.9-6.6-2.1
	C-279.5,391-276.5,390.1-272.9,390.1z M-276.4,404.7c-0.4,0.3-0.9,0.5-1.6,0.5c-0.5,0-1.2-0.1-1.5-0.3v-1.2c0.4,0.4,0.9,0.5,1.5,0.5
	c0.3,0,0.5-0.1,0.5-0.2c0.2-0.1,0.2-0.3,0.2-0.4c0-0.2-0.1-0.3-0.2-0.5c-0.1-0.1-0.4-0.3-0.8-0.5c-0.8-0.4-1.3-0.9-1.3-1.7
	c0-0.5,0.2-0.9,0.5-1.2c0.3-0.3,0.8-0.5,1.5-0.5c0.5,0,0.9,0.1,1.3,0.2v1.2c-0.4-0.3-0.8-0.4-1.3-0.4c-0.3,0-0.5,0.1-0.5,0.2
	c-0.2,0.1-0.2,0.3-0.2,0.4c0,0.2,0.1,0.3,0.2,0.5c0.1,0.1,0.4,0.3,0.8,0.5c0.5,0.3,0.9,0.5,1.2,0.8c0.3,0.3,0.4,0.5,0.4,0.9
	C-275.8,404-276,404.4-276.4,404.7z M-269.9,406.4h-1.7l-1.2-1.3c-0.5,0-0.9-0.1-1.3-0.4c-0.4-0.3-0.8-0.5-0.9-1s-0.4-0.9-0.4-1.4
	s0.1-1.2,0.4-1.6c0.3-0.5,0.5-0.8,1-1c0.5-0.3,0.9-0.4,1.5-0.4s0.9,0.1,1.4,0.4c0.4,0.3,0.8,0.5,0.9,1c0.2,0.5,0.4,0.9,0.4,1.5
	c0,0.7-0.2,1.2-0.5,1.7c-0.3,0.5-0.8,0.8-1.3,1L-269.9,406.4z M-265.6,405.1h-3.4v-5.7h1.3v4.6h2.1V405.1L-265.6,405.1z"/>
<path class="st0" d="M-272.5,400.4c-0.5,0-0.8,0.2-1,0.5c-0.3,0.4-0.4,0.8-0.4,1.3s0.1,1,0.4,1.3c0.3,0.4,0.5,0.5,1,0.5
	s0.8-0.2,1-0.5c0.3-0.3,0.4-0.8,0.4-1.3s-0.1-1-0.4-1.3C-271.7,400.6-272,400.4-272.5,400.4z"/>
</svg>
