<?xml version="1.0" encoding="utf-8"?>
<!-- Generator: Adobe Illustrator 18.1.0, SVG Export Plug-In . SVG Version: 6.00 Build 0)  -->
<!DOCTYPE svg PUBLIC "-//W3C//DTD SVG 1.0//EN" "http://www.w3.org/TR/2001/REC-SVG-20010904/DTD/svg10.dtd">
<svg version="1.0" xmlns="http://www.w3.org/2000/svg" xmlns:xlink="http://www.w3.org/1999/xlink" x="0px" y="0px"
	 viewBox="0 0 152 117.5" enable-background="new 0 0 152 117.5" xml:space="preserve">
<g id="Layer_1">
	<g id="Azure">
	</g>
	<g id="BizTalk_Services" transform="translate(37.3575,-2500.2)">
	</g>
	<g id="Key_Vault">
	</g>
	<g id="Mobile_Engagement">
	</g>
	<g id="Office_subscription">
		<g id="Office_subscription_1_">
		</g>
	</g>
</g>
<g id="paths">
	<g id="Access_control">
	</g>
	<g id="Azure_active_directory">
	</g>
	<g id="API_Management">
	</g>
	<g id="Azure_automation">
	</g>
	<g id="Azure_SQL_database">
	</g>
	<g id="Azure_subscription">
	</g>
	<g id="Backup_service">
	</g>
	<g id="Bitbucket_code_source">
	</g>
	<g id="Azure_cache">
	</g>
	<g id="Content_delivery_network__x28_CDN_x29_">
	</g>
	<g id="Cloud_service">
	</g>
	<g id="CodePlex">
	</g>
	<g id="Dropbox_code_source">
	</g>
	<g id="Express_route">
	</g>
	<g id="Git_repository">
	</g>
	<g id="GitHub_code">
	</g>
	<g id="HD_Insight">
	</g>
	<g id="Health_monitoring">
	</g>
	<g id="Healthy">
	</g>
	<g id="BizTalk_hybrid_connection">
	</g>
	<g id="Hybrid_connection_manager_for_BizTalk_hybrid_connection">
	</g>
	<g id="Hyper-V_recovery_manager">
	</g>
	<g id="Machine_learning">
	</g>
	<g id="Media_services">
	</g>
	<g id="Microsoft_account">
	</g>
	<g id="Mobile_services">
	</g>
	<g id="Multi-factor_authentication">
	</g>
	<g id="MySQL_database">
	</g>
	<g id="Notification_hub">
	</g>
	<g id="Notification_topic">
	</g>
	<g id="Cloud_Office_365">
	</g>
	<g id="Office_365">
	</g>
	<g id="OS_image">
	</g>
	<g id="Remote_app">
	</g>
	<g id="Task_scheduler">
	</g>
	<g id="Azure_SDK">
	</g>
	<g id="Service_bus">
	</g>
	<g id="Service_bus_queue">
	</g>
	<g id="Service_bus_relay">
	</g>
	<g id="Service_bus_topic">
	</g>
	<g id="Service_endpoint">
	</g>
	<g id="Custom_create">
	</g>
	<g id="SQL_data_sync">
	</g>
	<g id="SQL_reporting">
		<g id="group280-567_1_" transform="translate(1176.29,-1528.96)">
			<title>Sheet.280</title>
			<g id="shape281-568_1_" transform="translate(-1.59872E-014,-0.0225)">
				<title>Sheet.281</title>
				<path fill="#0078D7" d="M-1105.6,1559c-8.7,0-14.2,2.8-14.2,5.8v27.6c0,2.8,2.5,5.5,10.2,5.9v-24.8l13.8,0l5.2,4.7V1565
					C-1090.7,1562-1096.9,1559-1105.6,1559z M-1105.6,1561.1c6.2,0,10.4,1.5,10.4,3.3c0,1.8-4.2,3.2-10.4,3.2
					c-6.2,0-11.2-1.4-11.2-3.2C-1116.8,1562.5-1111.8,1561.1-1105.6,1561.1z"/>
			</g>
			<g id="shape282-570_1_" transform="translate(10.0837,0)">
				<title>Sheet.282</title>
				<path fill="#0078D7" d="M-1100.8,1596.8h-16v-20.4h10.2v5.8h5.8V1596.8z M-1107.1,1575h-11.1v23.3h19v-16.7L-1107.1,1575z"/>
			</g>
			<g id="group283-572_1_" transform="translate(13.5465,-5.47725)">
				<title>Sheet.283</title>
				<g id="shape284-573_1_" transform="translate(-1.249E-015,-10.0755)">
					<title>Sheet.284</title>
					<rect x="-1117.7" y="1594.4" fill="#0078D7" width="4.4" height="1.5"/>
				</g>
				<g id="shape285-575_1_" transform="translate(-1.249E-015,-7.56225)">
					<title>Sheet.285</title>
					<rect x="-1117.7" y="1594.8" fill="#0078D7" width="4.4" height="1.5"/>
				</g>
				<g id="shape286-577_1_" transform="translate(-1.249E-015,-5.0415)">
					<title>Sheet.286</title>
					<rect x="-1117.7" y="1595.2" fill="#0078D7" width="4.4" height="1.5"/>
				</g>
				<g id="shape287-579_1_" transform="translate(-1.249E-015,-2.5215)">
					<title>Sheet.287</title>
					<rect x="-1117.7" y="1595.6" fill="#0078D7" width="4.4" height="1.5"/>
				</g>
				<g id="shape288-581_1_">
					<title>Sheet.288</title>
					<rect x="-1117.7" y="1596" fill="#0078D7" width="4.4" height="1.5"/>
				</g>
				<g id="shape289-583_1_" transform="translate(5.0415,0)">
					<title>Sheet.289</title>
					<rect x="-1116.9" y="1596" fill="#0078D7" width="4.4" height="1.5"/>
				</g>
				<g id="shape290-585_1_" transform="translate(5.0415,-2.5215)">
					<title>Sheet.290</title>
					<rect x="-1116.9" y="1595.6" fill="#0078D7" width="4.4" height="1.5"/>
				</g>
				<g id="shape291-587_1_" transform="translate(5.0415,-5.0415)">
					<title>Sheet.291</title>
					<rect x="-1116.9" y="1595.2" fill="#0078D7" width="4.4" height="1.5"/>
				</g>
			</g>
		</g>
	</g>
</g>
<g id="Layer_57">
</g>
<g id="Ibiza_Symbols">
	<g id="SQL_Database_Premium">
	</g>
</g>
</svg>
