<?xml version="1.0" encoding="utf-8"?>
<!-- Generator: Adobe Illustrator 19.1.0, SVG Export Plug-In . SVG Version: 6.00 Build 0)  -->
<svg version="1.1" id="Layer_1" xmlns="http://www.w3.org/2000/svg" xmlns:xlink="http://www.w3.org/1999/xlink" x="0px" y="0px"
	 viewBox="-289 381 32 32" style="enable-background:new -289 381 32 32;" xml:space="preserve">
<style type="text/css">
	.st0{fill:#2072B8;}
</style>
<g>
	<path class="st0" d="M-257,384.8c-0.1-2.5-7.1-4.8-16-4.8c-9,0-16,2.3-16,4.7c0.1,0.2,0.1,0.3,0.2,0.5c1.7,3.1,2.8,7.1,2.8,11.4
		c0,4.3-1,8.2-2.7,11.3c1.2,2.3,7.8,4.1,15.8,4.1c8,0,14.6-1.8,15.8-4c-1.7-3.1-2.8-7.1-2.8-11.4C-260,392.1-258.9,388-257,384.8z
		 M-277.5,399.8c-0.4,0.3-1.1,0.5-1.8,0.5c-0.7,0-1.2-0.1-1.7-0.4v-1.4c0.5,0.4,1.1,0.7,1.7,0.7c0.3,0,0.5-0.1,0.7-0.2
		c0.2-0.1,0.2-0.3,0.2-0.5c0-0.2-0.1-0.4-0.2-0.5c-0.2-0.1-0.5-0.3-1-0.6c-1-0.5-1.5-1.1-1.5-1.9c0-0.6,0.2-1,0.6-1.4
		c0.4-0.3,1-0.5,1.7-0.5c0.6,0,1.1,0.1,1.6,0.2v1.3c-0.4-0.3-0.9-0.4-1.5-0.4c-0.3,0-0.5,0.1-0.7,0.2c-0.2,0.1-0.2,0.3-0.2,0.5
		c0,0.2,0.1,0.4,0.2,0.5s0.4,0.3,0.8,0.5c0.6,0.3,1,0.6,1.3,0.9c0.3,0.3,0.4,0.7,0.4,1.1C-276.8,399-277,399.5-277.5,399.8z
		 M-270,401.8h-1.9l-1.3-1.5c-0.6,0-1.1-0.2-1.5-0.5c-0.5-0.3-0.8-0.7-1.1-1.2c-0.3-0.5-0.4-1-0.4-1.6c0-0.7,0.1-1.3,0.4-1.8
		s0.7-0.9,1.1-1.2c0.5-0.3,1.1-0.4,1.7-0.4c0.6,0,1.1,0.1,1.6,0.4c0.5,0.3,0.8,0.7,1.1,1.2c0.3,0.5,0.4,1.1,0.4,1.7
		c0,0.8-0.2,1.4-0.5,2c-0.3,0.6-0.8,0.9-1.5,1.2L-270,401.8z M-265,400.2h-3.8v-6.4h1.4v5.3h2.4C-265,399-265,400.2-265,400.2z
		 M-272.9,387.1c-6.3,0-11.6-1.2-11.6-2.7s5.2-2.7,11.6-2.7s11.4,1.2,11.4,2.7S-266.7,387.1-272.9,387.1z"/>
	<path class="st0" d="M-273,394.9c-0.5,0-0.9,0.2-1.2,0.6c-0.3,0.4-0.5,0.9-0.5,1.5c0,0.6,0.1,1.1,0.4,1.5c0.3,0.4,0.7,0.6,1.2,0.6
		c0.5,0,0.9-0.2,1.2-0.5c0.3-0.4,0.4-0.9,0.4-1.5c0-0.7-0.1-1.2-0.4-1.5C-272.1,395.1-272.5,394.9-273,394.9z"/>
</g>
</svg>
