<?xml version="1.0" encoding="utf-8"?>
<!-- Generator: Adobe Illustrator 19.1.0, SVG Export Plug-In . SVG Version: 6.00 Build 0)  -->
<svg version="1.1" id="Layer_1" xmlns="http://www.w3.org/2000/svg" xmlns:xlink="http://www.w3.org/1999/xlink" x="0px" y="0px"
	 width="50px" height="50px" viewBox="0 0 50 50" enable-background="new 0 0 50 50" xml:space="preserve">
<path fill="#0072C6" d="M45.302,25.945c0-7.08,1.778-13.536,4.698-18.429V6.831H24.657v43.168H25c0.426,0,0.85-0.003,1.271-0.009
	c0.131-0.002,0.26-0.006,0.391-0.008c0.29-0.005,0.58-0.01,0.867-0.018c0.156-0.004,0.31-0.011,0.465-0.016
	c0.257-0.008,0.515-0.016,0.769-0.027c0.177-0.007,0.351-0.017,0.526-0.025c0.23-0.011,0.462-0.021,0.69-0.034
	c0.189-0.01,0.376-0.023,0.564-0.035c0.209-0.013,0.42-0.025,0.627-0.039c0.196-0.014,0.389-0.029,0.583-0.044
	c0.198-0.015,0.396-0.03,0.592-0.046c0.191-0.016,0.38-0.034,0.569-0.051c0.193-0.018,0.388-0.035,0.579-0.054
	c0.195-0.019,0.387-0.04,0.58-0.061c0.179-0.019,0.359-0.038,0.537-0.058c0.197-0.022,0.391-0.047,0.585-0.07
	c0.171-0.021,0.342-0.041,0.511-0.063c0.196-0.025,0.389-0.052,0.583-0.079c0.16-0.022,0.321-0.044,0.479-0.067
	c0.197-0.029,0.39-0.059,0.584-0.089c0.15-0.023,0.301-0.046,0.45-0.071c0.199-0.032,0.394-0.066,0.589-0.1
	c0.136-0.024,0.274-0.047,0.408-0.071c0.199-0.036,0.394-0.073,0.589-0.111c0.127-0.024,0.255-0.049,0.38-0.074
	c0.196-0.039,0.388-0.08,0.579-0.12c0.119-0.025,0.238-0.05,0.355-0.076c0.192-0.042,0.38-0.086,0.568-0.13
	c0.11-0.026,0.221-0.052,0.329-0.078c0.19-0.046,0.376-0.093,0.561-0.141c0.099-0.026,0.198-0.051,0.295-0.077
	c0.189-0.05,0.374-0.102,0.557-0.154c0.087-0.025,0.174-0.049,0.259-0.074c0.188-0.055,0.371-0.111,0.552-0.167
	c0.075-0.023,0.149-0.047,0.223-0.07c0.183-0.059,0.363-0.119,0.539-0.179c0.067-0.023,0.134-0.046,0.2-0.069
	c0.177-0.063,0.35-0.126,0.52-0.19c0.058-0.022,0.116-0.044,0.173-0.066c0.171-0.067,0.338-0.134,0.501-0.203
	c0.05-0.021,0.1-0.042,0.149-0.063c0.164-0.07,0.323-0.142,0.477-0.214c0.043-0.02,0.085-0.04,0.127-0.06
	c0.155-0.074,0.306-0.15,0.451-0.226c0.036-0.019,0.071-0.038,0.106-0.057c0.146-0.078,0.287-0.157,0.422-0.237
	c0.029-0.017,0.057-0.035,0.086-0.052c0.136-0.082,0.267-0.165,0.391-0.25c0.023-0.016,0.046-0.032,0.069-0.048
	c0.125-0.086,0.244-0.173,0.356-0.261c0.018-0.014,0.034-0.028,0.052-0.042c0.113-0.09,0.219-0.181,0.318-0.273
	c0.013-0.012,0.025-0.024,0.038-0.037c0.099-0.094,0.192-0.189,0.277-0.285c0.009-0.01,0.017-0.021,0.026-0.031
	c0.085-0.098,0.163-0.196,0.232-0.296c0.006-0.008,0.011-0.017,0.017-0.025c0.069-0.102,0.131-0.204,0.184-0.307
	c0.003-0.006,0.006-0.013,0.009-0.019c0.013-0.027,0.021-0.054,0.034-0.081C46.998,39.171,45.302,32.857,45.302,25.945z"/>
<path opacity="0.15" fill="#FFFFFF" enable-background="new    " d="M45.302,25.945c0-7.08,1.778-13.536,4.698-18.429V6.831H24.657
	v43.168H25c12.75,0,23.26-2.608,24.796-5.979C46.998,39.171,45.302,32.857,45.302,25.945z"/>
<path fill="#0072C6" d="M0,6.831v0.491C0.096,7.587,0.182,7.87,0.274,8.143c2.704,4.812,4.336,11.02,4.336,17.802
	c0,6.873-1.677,13.155-4.446,17.993C1.564,47.348,12.147,50,25,50V6.831H0z"/>
<path fill="#FFFFFF" d="M50,6.831c0,3.773-11.194,6.831-25,6.831S0,10.603,0,6.831S11.193,0,25,0S50,3.058,50,6.831"/>
<path fill="#7FBA00" d="M44.889,6.437c0,2.491-8.905,4.507-19.889,4.507S5.11,8.928,5.11,6.437c0-2.49,8.906-4.507,19.89-4.507
	S44.889,3.948,44.889,6.437"/>
<path fill="#B8D432" d="M40.722,9.191c2.604-0.762,4.168-1.716,4.168-2.752c0-2.491-8.905-4.508-19.89-4.508
	c-10.984,0-19.889,2.018-19.889,4.508c0,1.036,1.565,1.99,4.168,2.752C12.915,8.127,18.598,7.439,25,7.439
	C31.404,7.439,37.083,8.127,40.722,9.191"/>
<path fill="#FFFFFF" d="M18.547,32.354c0,1.122-0.407,1.991-1.221,2.607c-0.814,0.616-1.938,0.924-3.373,0.924
	c-1.221,0-2.241-0.22-3.061-0.66v-2.64c0.946,0.803,1.988,1.205,3.126,1.205c0.55,0,0.975-0.11,1.275-0.33s0.45-0.511,0.45-0.875
	c0-0.357-0.144-0.668-0.433-0.932s-0.876-0.605-1.761-1.023c-1.804-0.846-2.706-2.002-2.706-3.464c0-1.061,0.393-1.912,1.18-2.553
	c0.786-0.64,1.831-0.961,3.134-0.961c1.155,0,2.111,0.152,2.871,0.454v2.466c-0.797-0.55-1.705-0.825-2.722-0.825
	c-0.511,0-0.915,0.108-1.212,0.325c-0.297,0.218-0.445,0.508-0.445,0.87c0,0.374,0.119,0.681,0.359,0.92
	c0.239,0.239,0.73,0.535,1.472,0.887c1.106,0.523,1.893,1.053,2.364,1.592C18.312,30.881,18.547,31.552,18.547,32.354z"/>
<path fill="#FFFFFF" d="M31.274,29.682c0,1.391-0.317,2.599-0.949,3.621c-0.633,1.023-1.523,1.74-2.672,2.153l3.431,3.176H27.62
	l-2.45-2.747c-1.05-0.038-1.998-0.316-2.842-0.833c-0.844-0.516-1.496-1.225-1.955-2.124s-0.689-1.902-0.689-3.007
	c0-1.226,0.249-2.319,0.746-3.279c0.498-0.96,1.197-1.698,2.099-2.215c0.902-0.516,1.935-0.775,3.102-0.775
	c1.088,0,2.063,0.25,2.924,0.751c0.86,0.5,1.528,1.212,2.004,2.136C31.036,27.463,31.274,28.511,31.274,29.682z M28.47,29.831
	c0-1.199-0.261-2.146-0.784-2.842s-1.237-1.044-2.145-1.044c-0.924,0-1.663,0.349-2.219,1.047c-0.555,0.699-0.833,1.628-0.833,2.788
	c0,1.155,0.272,2.077,0.816,2.767c0.545,0.69,1.267,1.035,2.169,1.035c0.919,0,1.647-0.334,2.186-1.002
	C28.2,31.913,28.47,30.996,28.47,29.831z"/>
<polygon fill="#FFFFFF" points="40.273,35.679 33.229,35.679 33.229,23.851 35.893,23.851 35.893,33.518 40.273,33.518 "/>
</svg>
