<?xml version="1.0" encoding="utf-8"?>
<!-- Generator: Adobe Illustrator 17.1.0, SVG Export Plug-In . SVG Version: 6.00 Build 0)  -->
<!DOCTYPE svg PUBLIC "-//W3C//DTD SVG 1.1//EN" "http://www.w3.org/Graphics/SVG/1.1/DTD/svg11.dtd">
<svg version="1.1" id="Layer_1" xmlns="http://www.w3.org/2000/svg" xmlns:xlink="http://www.w3.org/1999/xlink" x="0px" y="0px"
	 height="50px" width="50px" viewBox="0 0 50 50" enable-background="new 0 0 50 50" xml:space="preserve">
<path fill="#59B4D9" d="M28.6,10.3c0,5.7-4.6,10.3-10.3,10.3c-5.7,0-10.3-4.6-10.3-10.3C8.1,4.6,12.7,0,18.3,0
	C24,0,28.6,4.6,28.6,10.3"/>
<polygon fill="#59B4D9" points="25.8,24.1 18.3,34.6 10.8,24.1 0,24.1 0,50 36.7,50 36.7,24.1 "/>
<path opacity="0.2" fill="#FFFFFF" d="M8.1,10.3c0,5.6,4.5,10.1,10,10.3l2.6-20.2C19.9,0.1,19.1,0,18.3,0C12.7,0,8.1,4.6,8.1,10.3"
	/>
<polygon opacity="0.2" fill="#FFFFFF" points="10.8,24.1 0,24.1 0,50 14.4,50 16.7,32.2 "/>
<path fill="#FCD116" d="M46.5,42.7c2,0,3.5-1.6,3.5-3.5l0-8.6c0-2-1.6-3.5-3.5-3.5h-8.6c-2,0-3.5,1.6-3.5,3.5v7.6L27,45.4l0,4.6h4
	l0,0l2.3,0v-2.3h2.3l0-2.3h2.3l0-2.3l0.3-0.3L46.5,42.7z M47.2,29.8c0.8,0.8,0.8,2.1,0,2.8c-0.8,0.8-2.1,0.8-2.8,0
	c-0.8-0.8-0.8-2.1,0-2.8C45.1,29,46.4,29,47.2,29.8z"/>
<path opacity="0.3" fill="#FF8C00" d="M46.5,42.7c2,0,3.5-1.6,3.5-3.5l0-8.6c0-2-1.6-3.5-3.5-3.5h-8.6c-2,0-3.5,1.6-3.5,3.5v7.6
	L27,45.4l0,4.6h4l0,0l2.3,0v-2.3h2.3l0-2.3h2.3l0-2.3l0.3-0.3L46.5,42.7z M47.2,29.8c0.8,0.8,0.8,2.1,0,2.8c-0.8,0.8-2.1,0.8-2.8,0
	c-0.8-0.8-0.8-2.1,0-2.8C45.1,29,46.4,29,47.2,29.8z"/>
<polygon opacity="0.4" fill="#FF8C00" points="28.4,47.1 28.4,48.9 35.4,41.9 35,40.6 "/>
<rect x="36.5" y="34.6" transform="matrix(-0.7071 -0.7071 0.7071 -0.7071 47.0405 90.4337)" opacity="0.5" fill="#FFFFFF" width="11.6" height="1.7"/>
<rect x="34.5" y="36.6" transform="matrix(-0.7071 -0.7071 0.7071 -0.7071 42.4132 92.3504)" opacity="0.5" fill="#FFFFFF" width="11.6" height="1.7"/>
</svg>
