<?xml version="1.0" encoding="utf-8"?>
<!-- Generator: Adobe Illustrator 19.1.0, SVG Export Plug-In . SVG Version: 6.00 Build 0)  -->
<svg version="1.1" id="Layer_1" xmlns="http://www.w3.org/2000/svg" xmlns:xlink="http://www.w3.org/1999/xlink" x="0px" y="0px"
	 width="50px" height="50px" viewBox="1 -1 50 50" enable-background="new 1 -1 50 50" xml:space="preserve">
<path fill="#7FBA00" d="M3.5,45.3h45c1.3,0,2.4-1.1,2.4-2.4V5.1c0-1.3-1.1-2.4-2.4-2.4h-45c-1.3,0-2.4,1.1-2.4,2.4v37.8
	C1.1,44.2,2.2,45.3,3.5,45.3z"/>
<path fill="#FFFFFF" d="M40.9,2.7v21.1h-4.1c-0.4-2.4-1.6-4.7-3.4-6.6c-2.4-2.4-5.5-3.7-8.9-3.7c-3.3,0-6.5,1.3-8.9,3.7
	c-0.8,0.8-0.8,2.1,0,3c0.8,0.8,2.1,0.8,3,0c1.6-1.6,3.7-2.4,5.9-2.4s4.3,0.9,5.9,2.4c3.3,3.3,3.3,8.6,0,11.8
	c-1.6,1.6-3.7,2.4-5.9,2.4s-4.3-0.9-5.9-2.4c-0.8-0.8-2.1-0.8-3,0c-0.8,0.8-0.8,2.1,0,3c2.4,2.4,5.5,3.7,8.9,3.7
	c3.3,0,6.5-1.3,8.9-3.7c2-2,3.1-4.4,3.5-7H43c1.2,0,2.1-0.9,2.1-2.1V2.7"/>
<path fill="#FFFFFF" d="M7.2,2.7v23.2c0,1.2,0.9,2.1,2.1,2.1h10.8c0.8,1.7,2.5,2.9,4.5,2.9c2.8,0,5-2.2,5-5c-0.1-2.8-2.4-5-5.1-5
	c-2,0-3.7,1.2-4.5,2.9h-8.7V2.7"/>
</svg>
