<?xml version="1.0" encoding="utf-8"?>
<!-- Generator: Adobe Illustrator 19.1.0, SVG Export Plug-In . SVG Version: 6.00 Build 0)  -->
<svg version="1.1" id="Layer_1" xmlns="http://www.w3.org/2000/svg" xmlns:xlink="http://www.w3.org/1999/xlink" x="0px" y="0px"
	 width="50px" height="50px" viewBox="1 -1 50 50" enable-background="new 1 -1 50 50" xml:space="preserve">
<polygon fill="#59B4D9" points="48,-1 4,-1 4,49 48,49 "/>
<polygon opacity="0.8" fill="#FFFFFF" enable-background="new    " points="46,1 6,1 6,47 46,47 "/>
<path fill="#59B4D9" d="M29.8,41.1c0,0.6-0.5,1.1-1.1,1.1H13.6c-0.6,0-1.1-0.5-1.1-1.1S13,40,13.6,40h15.1
	C29.3,40,29.8,40.5,29.8,41.1"/>
<path fill="#59B4D9" d="M39.9,26.1c0,0.6-0.5,1.1-1.1,1.1H13.6c-0.6,0-1.1-0.5-1.1-1.1S13,25,13.6,25h25.1
	C39.4,25,39.9,25.5,39.9,26.1"/>
<path fill="#59B4D9" d="M39.9,33.6c0,0.6-0.5,1.1-1.1,1.1H13.6c-0.6,0-1.1-0.5-1.1-1.1s0.5-1.1,1.1-1.1h25.1
	C39.4,32.5,39.9,33,39.9,33.6"/>
<path fill="#59B4D9" d="M38.717-1v12.47h-6.423c-0.236-1.418-0.946-2.778-2.009-3.9c-1.418-1.418-3.25-2.187-5.26-2.187
	c-1.95,0-3.841,0.768-5.26,2.187c-0.473,0.473-0.473,1.241,0,1.773c0.473,0.473,1.241,0.473,1.773,0
	c0.946-0.946,2.187-1.418,3.487-1.418s2.541,0.532,3.487,1.418c1.95,1.95,1.95,5.082,0,6.973c-0.946,0.946-2.187,1.418-3.487,1.418
	s-2.541-0.532-3.487-1.418c-0.473-0.473-1.241-0.473-1.773,0c-0.473,0.473-0.473,1.241,0,1.773c1.418,1.418,3.25,2.187,5.26,2.187
	c1.95,0,3.841-0.768,5.26-2.187c1.182-1.182,1.832-2.6,2.068-4.137h7.605c0.709,0,1.241-0.532,1.241-1.241V-1"/>
<path fill="#59B4D9" d="M10.801-1v13.711c0,0.709,0.532,1.241,1.241,1.241h10.382c0.473,1.005,1.477,1.714,2.659,1.714
	c1.655,0,2.955-1.3,2.955-2.955c-0.059-1.655-1.418-2.955-3.014-2.955c-1.182,0-2.187,0.709-2.659,1.714h-9.141V-1"/>
</svg>
