<?xml version="1.0" encoding="utf-8"?>
<!-- Generator: Adobe Illustrator 17.1.0, SVG Export Plug-In . SVG Version: 6.00 Build 0)  -->
<!DOCTYPE svg PUBLIC "-//W3C//DTD SVG 1.1//EN" "http://www.w3.org/Graphics/SVG/1.1/DTD/svg11.dtd">
<svg version="1.1" id="Layer_1" xmlns="http://www.w3.org/2000/svg" xmlns:xlink="http://www.w3.org/1999/xlink" x="0px" y="0px"
	 width="50px" height="50px" viewBox="0 0 50 50" enable-background="new 0 0 50 50" xml:space="preserve">
<polygon fill="#B8D432" points="50,43 0,43 6,32 44,32 "/>
<rect y="43" fill="#7A7A7A" width="50" height="3"/>
<rect y="43" opacity="0.5" fill="#DD5900" enable-background="new    " width="50" height="3"/>
<g>
	<path fill="#A0A1A2" d="M21.4,34.9H8.8V22.5h2.5c-0.3-0.8-0.5-1.6-0.5-2.4c0,0,0-0.1,0-0.2H6.2v17.6h17.7V27h-2.6V34.9z"/>
	<path fill="#A0A1A2" d="M38.9,22.5h2.3v12.5H28.6V27h-2.6v10.5h17.7V19.8h-5.6c0.4,0.7,0.7,1.5,0.7,2.4
		C38.9,22.4,38.9,22.4,38.9,22.5z"/>
	<path fill="#A0A1A2" d="M8.8,15V2.6h12.5v7.2c0.8-0.6,1.7-1,2.6-1.2V0H6.2v17.7h5.1c0.3-1,0.9-1.9,1.6-2.6L8.8,15L8.8,15z"/>
	<path fill="#A0A1A2" d="M28.6,8.4V2.6h12.5V15h-5.4c0.2,0.8,0.3,1.7,0.3,2.5c0,0,0,0.1,0,0.1h7.7V0H26.1v8.2c0.2,0,0.4,0,0.6,0
		C27.3,8.1,28,8.2,28.6,8.4z"/>
</g>
<g>
	<path fill="#59B4D9" d="M36.8,22.3c0-1.5-1.2-2.8-2.8-2.8c-0.1,0-0.2,0-0.3,0c0.2-0.6,0.3-1.3,0.3-2c0-4.1-3.3-7.5-7.4-7.5
		c-3.3,0-6,2.1-7,5.1c-0.5-0.2-1.1-0.3-1.7-0.3c-2.8,0-5.1,2.3-5.1,5.1c0,2.8,2.3,5.1,5.1,5.1c0,0,0,0,0,0v0h16.4l0,0
		C35.7,25,36.8,23.8,36.8,22.3"/>
	<path opacity="0.2" fill="#FFFFFF" d="M20.6,25.1c-0.7-0.7-1.2-1.5-1.4-2.5c-0.6-2.7,1.1-5.5,3.8-6.1c0.6-0.1,1.1-0.2,1.7-0.1
		c0.2-2.6,1.8-4.8,4.1-6c-0.7-0.2-1.5-0.4-2.2-0.4c-3.3,0-6,2.1-7,5.1c-0.5-0.2-1.1-0.3-1.7-0.3c-2.8,0-5.1,2.3-5.1,5.1
		c0,2.8,2.3,5.1,5.1,5.1c0,0,0,0,0,0v0H20.6z"/>
</g>
</svg>
