<?xml version="1.0" encoding="utf-8"?>
<!-- Generator: Adobe Illustrator 18.1.1, SVG Export Plug-In . SVG Version: 6.00 Build 0)  -->
<!DOCTYPE svg PUBLIC "-//W3C//DTD SVG 1.1//EN" "http://www.w3.org/Graphics/SVG/1.1/DTD/svg11.dtd">
<svg version="1.1" id="Layer_1" xmlns="http://www.w3.org/2000/svg" xmlns:xlink="http://www.w3.org/1999/xlink" x="0px" y="0px"
	 width="50px" height="50px" viewBox="0 0 50 50" enable-background="new 0 0 50 50" xml:space="preserve">
<path fill="#7A7A7A" d="M32.4,38.5h-1.2H19.4h-0.6c1.6,5.8-0.6,6.6-10.2,6.6v3h12.2h8.9h11.5v-3C31.7,45.1,30.8,44.3,32.4,38.5"/>
<path fill="#A0A1A2" d="M47,2H2.7C1.2,2,0,3.3,0,4.8v30.9c0,1.5,1.2,2.8,2.7,2.8H47c1.5,0,3-1.3,3-2.8V4.8C50,3.3,48.5,2,47,2
	 M46.2,5.8v28.8H3.8V5.8l42.4-0.1L46.2,5.8z"/>
<polygon fill="#59B4D9" points="46.1,5.8 46.1,34.6 3.8,34.6 3.8,5.8 46.2,5.7 "/>
<path opacity="0.2" fill="#FFFFFF" d="M3.8,34.6L3.8,34.6L3.8,5.8l38.7-0.1L47,2c0,0,0,0,0,0H2.7C1.2,2,0,3.3,0,4.8v30.9
	c0,1.5,1.2,2.8,2.7,2.8h1.1l4.6-3.8H3.8z"/>
<polygon fill="#59B4D9" points="3.8,34.6 3.8,34.6 3.8,5.8 42.5,5.7 42.5,5.7 3.8,5.8 "/>
<rect x="8.7" y="45.1" fill="#A0A1A2" width="32.7" height="3"/>
<path fill="#B8D432" d="M25.5,4c0,0.4-0.3,0.7-0.7,0.7c-0.4,0-0.7-0.3-0.7-0.7c0-0.4,0.3-0.7,0.7-0.7C25.2,3.3,25.5,3.7,25.5,4"/>
<path fill="#FFFFFF" d="M41.3,19.9c0.3-0.3,0.3-0.8,0-1.2l-1.6-1.6l-7.1-7c-0.3-0.3-0.8-0.3-1.2,0l0,0c-0.4,0.3-0.4,0.9,0,1.2
	l7.5,7.4c0.3,0.3,0.3,0.9,0,1.2l-7.5,7.6c-0.3,0.3-0.3,0.9,0,1.2l0,0c0.3,0.3,0.8,0.3,1.2,0l7.1-7c0,0,0,0,0,0L41.3,19.9z"/>
<path fill="#FFFFFF" d="M8.7,19.9c-0.3-0.3-0.3-0.8,0-1.2l1.6-1.6l7.1-7c0.3-0.3,0.8-0.3,1.2,0l0,0c0.4,0.3,0.4,0.9,0,1.2l-7.5,7.4
	c-0.3,0.3-0.3,0.9,0,1.2l7.5,7.6c0.3,0.3,0.3,0.9,0,1.2l0,0c-0.3,0.3-0.8,0.3-1.2,0l-7.1-7c0,0,0,0,0,0L8.7,19.9z"/>
<path fill="#FFFFFF" d="M20.5,19.3c0,1.3-1,2.2-2.2,2.2s-2.3-1-2.3-2.2c0-1.1,0.9-2.2,2.3-2.2C19.6,17.1,20.5,18.1,20.5,19.3z"/>
<path fill="#FFFFFF" d="M27.2,19.3c0,1.3-1,2.2-2.2,2.2s-2.3-1-2.3-2.2c0-1.1,1-2.2,2.3-2.2S27.2,18.1,27.2,19.3z"/>
<circle fill="#FFFFFF" cx="31.8" cy="19.3" r="2.2"/>
</svg>
