<?xml version="1.0" encoding="utf-8"?>
<!-- Generator: Adobe Illustrator 17.1.0, SVG Export Plug-In . SVG Version: 6.00 Build 0)  -->
<!DOCTYPE svg PUBLIC "-//W3C//DTD SVG 1.1//EN" "http://www.w3.org/Graphics/SVG/1.1/DTD/svg11.dtd">
<svg version="1.1" id="Layer_1" xmlns="http://www.w3.org/2000/svg" xmlns:xlink="http://www.w3.org/1999/xlink" x="0px" y="0px"
	 width="50px" height="50px" viewBox="0 0 50 50" enable-background="new 0 0 50 50" xml:space="preserve">
<path fill="#59B4D9" d="M8,28.4c-2.1,0-3.6-0.4-4.5-1.1c-0.9-0.8-1.3-2.1-1.3-4v-3.4c0-1.7-0.7-2.6-2.1-2.6v-2.6
	c1.4,0,2.1-0.9,2.1-2.7V8.8c0-1.9,0.4-3.3,1.3-4.1S5.9,3.6,8,3.6v2.6C6.5,6.2,5.7,7,5.7,8.7v3C5.7,14,5,15.4,3.5,16l0,0
	c1.4,0.6,2.2,2,2.2,4.3v2.9c0,0.9,0.2,1.6,0.5,2c0.4,0.4,0.9,0.6,1.7,0.6v2.6H8z"/>
<path fill="#59B4D9" d="M42,21.6c2.1,0,3.6,0.4,4.5,1.1c0.9,0.8,1.3,2.1,1.3,4v3.4c0,1.7,0.7,2.6,2.1,2.6v2.6
	c-1.4,0-2.1,0.9-2.1,2.7v3.1c0,1.9-0.4,3.3-1.3,4.1c-0.9,0.8-2.4,1.2-4.5,1.2v-2.6c1.5,0,2.3-0.8,2.3-2.5v-3c0-2.3,0.7-3.7,2.2-4.3
	l0,0c-1.4-0.6-2.2-2-2.2-4.3v-2.9c0-0.9-0.2-1.6-0.5-2c-0.4-0.4-0.9-0.6-1.7-0.6L42,21.6L42,21.6z"/>
<path fill="#A0A1A2" d="M25.7,27H12.9c-1.3,0-2.4-1.1-2.4-2.1s1.1-1.9,2.4-1.9h12.8c1.4,0,2.4,0.8,2.4,1.9S27.1,27,25.7,27z"/>
<path fill="#A0A1A2" d="M36.7,36.1H16.9c-1.3,0-2.4-1.1-2.4-2.1s1.1-1.9,2.4-1.9h19.8c1.4,0,2.4,0.8,2.4,1.9S38.1,36.1,36.7,36.1z"
	/>
<path fill="#A0A1A2" d="M36.7,17.1H12.9c-1.3,0-2.4-1.1-2.4-2.1s1.1-1.9,2.4-1.9h23.8c1.4,0,2.4,0.8,2.4,1.9S38.1,17.1,36.7,17.1z"
	/>
<path fill="#A0A1A2" d="M32.7,7.6H12.9c-1.3,0-2.4-1.1-2.4-2.1s1.1-1.9,2.4-1.9h19.8c1.4,0,2.4,0.8,2.4,1.9S34.1,7.6,32.7,7.6z"/>
<path fill="#A0A1A2" d="M31.7,46.4H16.9c-1.3,0-2.4-1.1-2.4-2.1s1.1-1.9,2.4-1.9h14.8c1.3,0,2.4,0.8,2.4,1.9
	C34.1,45.3,33.1,46.4,31.7,46.4z"/>
</svg>
