<?xml version="1.0" encoding="utf-8"?>
<!-- Generator: Adobe Illustrator 17.1.0, SVG Export Plug-In . SVG Version: 6.00 Build 0)  -->
<!DOCTYPE svg PUBLIC "-//W3C//DTD SVG 1.1//EN" "http://www.w3.org/Graphics/SVG/1.1/DTD/svg11.dtd">
<svg version="1.1" id="Layer_1" xmlns="http://www.w3.org/2000/svg" xmlns:xlink="http://www.w3.org/1999/xlink" x="0px" y="0px"
	 width="50px" height="50px" viewBox="0 0 50 50" enable-background="new 0 0 50 50" xml:space="preserve">
<path fill="#A0A1A2" d="M0,44.8c0,1,0.8,1.9,1.8,1.9h46.3c1,0,1.9-0.8,1.9-1.9l0-33.1H0V44.8z"/>
<path fill="#7A7A7A" d="M48.1,4H1.8C0.8,4,0,4.9,0,5.9v5.7h50l0-5.7C50,4.9,49.2,4,48.1,4"/>
<polygon fill="#B8D432" points="13.1,16 3.7,16 3.7,43 22.7,43 22.7,25.6 "/>
<polygon opacity="0.8" fill="#FFFFFF" points="12.4,17.1 4.8,17.1 4.8,42 21.6,42 21.6,26.3 12.4,26.3 "/>
<polygon fill="#B8D432" points="36.6,16 27.2,16 27.2,43 46.2,43 46.2,25.6 "/>
<polygon opacity="0.8" fill="#FFFFFF" points="35.9,17.1 28.3,17.1 28.3,42 45.1,42 45.1,26.3 35.9,26.3 "/>
<path opacity="0.2" fill="#FFFFFF" d="M2,4C0.9,4,0,4.9,0,6v7.3v3.3v28c0,1.1,0.9,2,2,2h2.2L43.6,4H2z"/>
</svg>
