<?xml version="1.0" encoding="utf-8"?>
<!-- Generator: Adobe Illustrator 17.0.1, SVG Export Plug-In . SVG Version: 6.00 Build 0)  -->
<!DOCTYPE svg PUBLIC "-//W3C//DTD SVG 1.1//EN" "http://www.w3.org/Graphics/SVG/1.1/DTD/svg11.dtd">
<svg version="1.1" id="Layer_1" xmlns="http://www.w3.org/2000/svg" xmlns:xlink="http://www.w3.org/1999/xlink" x="0px" y="0px"
	 width="50px" height="50px" viewBox="0 0 50 50" enable-background="new 0 0 50 50" xml:space="preserve">
<path fill="#FCD116" d="M50,37.571c0,1.973-1.599,3.571-3.571,3.571H3.571C1.599,41.143,0,39.544,0,37.571v-30
	C0,5.599,1.599,4,3.571,4h42.857C48.401,4,50,5.599,50,7.571V37.571z"/>
<rect x="4.286" y="8.286" fill="#FFFFFF" width="41.429" height="28.571"/>
<circle fill="#DD5900" cx="12.143" cy="30.429" r="5.714"/>
<circle fill="#FF8C00" cx="12.143" cy="30.429" r="4.286"/>
<path fill="#DD5900" d="M12.143,34.714c-1.662,0-3.174-0.64-4.317-1.679L7.148,46.066l4.923-4.923l5,5l0.072-0.714L16.46,33.035
	C15.317,34.075,13.805,34.714,12.143,34.714z"/>
<path fill="#7A7A7A" d="M40.962,29.085c0,0.441-0.358,0.799-0.799,0.799H22.227c-0.441,0-0.799-0.358-0.799-0.799
	c0-0.441,0.358-0.799,0.799-0.799h17.936C40.604,28.286,40.962,28.644,40.962,29.085"/>
<path fill="#7A7A7A" d="M40.962,24.714c0,0.441-0.358,0.799-0.799,0.799H22.227c-0.441,0-0.799-0.358-0.799-0.799
	c0-0.441,0.358-0.799,0.799-0.799h17.936C40.604,23.915,40.962,24.273,40.962,24.714"/>
<path fill="#7A7A7A" d="M40.962,18.286c0,0.441-0.358,0.799-0.799,0.799H10.084c-0.441,0-0.799-0.358-0.799-0.799
	c0-0.441,0.358-0.799,0.799-0.799h30.078C40.604,17.486,40.962,17.844,40.962,18.286"/>
</svg>
