<?xml version="1.0" encoding="utf-8"?>
<!-- Generator: Adobe Illustrator 17.1.0, SVG Export Plug-In . SVG Version: 6.00 Build 0)  -->
<!DOCTYPE svg PUBLIC "-//W3C//DTD SVG 1.1//EN" "http://www.w3.org/Graphics/SVG/1.1/DTD/svg11.dtd">
<svg version="1.1" id="Layer_1" xmlns="http://www.w3.org/2000/svg" xmlns:xlink="http://www.w3.org/1999/xlink" x="0px" y="0px"
	 width="50px" height="50px" viewBox="0 0 50 50" enable-background="new 0 0 50 50" xml:space="preserve">
<path fill="#59B4D9" d="M0.5,45.1c0,1.1,0.9,2,2,2h46c1.1,0,2-0.9,2-2V13.8h-50V45.1z"/>
<path fill="#0072C6" d="M48.5,4.5h-46c-1.1,0-2,0.9-2,2v10.6h50V6.5C50.5,5.4,49.6,4.5,48.5,4.5"/>
<rect x="13.4" y="9.3" fill="#FFFFFF" width="33.7" height="3.9"/>
<path fill="#59B4D9" d="M11.8,11.2c0,2.7-2.2,4.9-4.9,4.9s-4.9-2.2-4.9-4.9c0-2.7,2.2-4.9,4.9-4.9C9.6,6.3,11.8,8.5,11.8,11.2"/>
<polygon fill="#FFFFFF" points="6.4,11.7 8.6,14.1 7.4,14.1 4.5,11.3 7.4,8.4 8.6,8.4 6.4,10.8 11.8,10.8 11.8,11.7 "/>
<path fill="#0072C6" d="M17.9,36.6c0,0.6-0.2,1-0.6,1.4s-0.9,0.5-1.6,0.5c-0.6,0-1.1-0.2-1.5-0.6s-0.6-0.8-0.6-1.4
	c0-0.6,0.2-1,0.6-1.4s0.9-0.5,1.6-0.5c0.6,0,1.1,0.2,1.5,0.6S17.9,36,17.9,36.6z"/>
<path fill="#0072C6" d="M26.8,36.6c0,0.6-0.2,1-0.6,1.4s-0.9,0.5-1.6,0.5c-0.6,0-1.1-0.2-1.5-0.6s-0.6-0.8-0.6-1.4
	c0-0.6,0.2-1,0.6-1.4s0.9-0.5,1.6-0.5c0.6,0,1.1,0.2,1.5,0.6S26.8,36,26.8,36.6z"/>
<path fill="#0072C6" d="M35.7,36.6c0,0.6-0.2,1-0.6,1.4s-0.9,0.5-1.6,0.5c-0.6,0-1.1-0.2-1.5-0.6s-0.6-0.8-0.6-1.4
	c0-0.6,0.2-1,0.6-1.4c0.4-0.4,0.9-0.5,1.6-0.5c0.6,0,1.1,0.2,1.5,0.6S35.7,36,35.7,36.6z"/>
</svg>
