<?xml version="1.0" encoding="utf-8"?>
<!-- Generator: Adobe Illustrator 19.1.0, SVG Export Plug-In . SVG Version: 6.00 Build 0)  -->
<svg version="1.1" id="Layer_1" xmlns="http://www.w3.org/2000/svg" xmlns:xlink="http://www.w3.org/1999/xlink" x="0px" y="0px"
	 width="50px" height="50px" viewBox="0 0 50 50" enable-background="new 0 0 50 50" xml:space="preserve">
<path fill="#7FBA00" d="M39.063,18.75c1.514,0,2.934,0.289,4.26,0.867s2.482,1.359,3.467,2.344s1.766,2.14,2.344,3.467
	S50,28.174,50,29.688s-0.289,2.934-0.867,4.26s-1.359,2.482-2.344,3.467s-2.14,1.766-3.467,2.344s-2.747,0.867-4.26,0.867h-12.5
	c-1.514,0-2.934-0.289-4.26-0.867s-2.482-1.359-3.467-2.344s-1.766-2.14-2.344-3.467s-0.867-2.747-0.867-4.26
	s0.289-2.934,0.867-4.26s1.359-2.482,2.344-3.467s2.14-1.766,3.467-2.344s2.747-0.867,4.26-0.867h1.563v3.125
	c-1.237,0-2.421,0.142-3.552,0.427s-2.128,0.741-2.991,1.367s-1.55,1.432-2.063,2.417s-0.769,2.185-0.769,3.601
	c0,1.074,0.208,2.083,0.623,3.027s0.977,1.77,1.685,2.478s1.534,1.27,2.478,1.685s1.953,0.623,3.027,0.623h12.5
	c1.074,0,2.083-0.208,3.027-0.623s1.77-0.977,2.478-1.685s1.27-1.534,1.685-2.478s0.623-1.953,0.623-3.027
	c0-1.416-0.256-2.616-0.769-3.601s-1.2-1.79-2.063-2.417s-1.86-1.082-2.991-1.367s-2.315-0.427-3.552-0.427V18.75H39.063z"/>
<path fill="#59B4D9" d="M21.875,31.25v-3.125c1.237,0,2.421-0.142,3.552-0.427s2.128-0.741,2.991-1.367s1.55-1.432,2.063-2.417
	s0.769-2.185,0.769-3.601c0-1.074-0.208-2.083-0.623-3.027s-0.977-1.77-1.685-2.478s-1.534-1.27-2.478-1.685
	S24.512,12.5,23.438,12.5h-12.5c-1.074,0-2.083,0.208-3.027,0.623s-1.77,0.977-2.478,1.685s-1.27,1.534-1.685,2.478
	s-0.623,1.953-0.623,3.027c0,1.416,0.256,2.616,0.769,3.601s1.2,1.79,2.063,2.417s1.86,1.082,2.991,1.367s2.315,0.427,3.552,0.427
	v3.125h-1.563c-1.514,0-2.934-0.289-4.26-0.867S4.195,29.024,3.21,28.04s-1.766-2.14-2.344-3.467S0,21.826,0,20.313
	s0.289-2.934,0.867-4.26s1.359-2.482,2.344-3.467s2.14-1.766,3.467-2.344s2.747-0.867,4.26-0.867h12.5
	c1.514,0,2.934,0.289,4.26,0.867s2.482,1.359,3.467,2.344c0.985,0.985,1.766,2.14,2.344,3.467s0.867,2.747,0.867,4.26
	s-0.289,2.934-0.867,4.26s-1.359,2.482-2.344,3.467c-0.985,0.985-2.14,1.766-3.467,2.344s-2.747,0.867-4.26,0.867H21.875z"/>
</svg>
