<?xml version="1.0" encoding="utf-8"?>
<!-- Generator: Adobe Illustrator 17.1.0, SVG Export Plug-In . SVG Version: 6.00 Build 0)  -->
<!DOCTYPE svg PUBLIC "-//W3C//DTD SVG 1.1//EN" "http://www.w3.org/Graphics/SVG/1.1/DTD/svg11.dtd">
<svg version="1.1" id="Layer_1" xmlns="http://www.w3.org/2000/svg" xmlns:xlink="http://www.w3.org/1999/xlink" x="0px" y="0px"
	 height="50px" width="50px" viewBox="0 0 50 50" enable-background="new 0 0 50 50" xml:space="preserve">
<g>
	<path fill="#0072C6" d="M19.4,45.9l2.8-3.8c-7.3-1.6-14.1-7.8-14.8-15.7c-0.7-8.6,4.8-16.3,12.9-18.5l3-3.9l-3.8-3.5
		C7.5,3.3-1,14.5,0.1,27.1c1,12,10.5,21.3,22,22.7L19.4,45.9z"/>
	<path fill="#0072C6" d="M28.8,0.2l2.4,3.9l-3.3,3.6c7.3,1.7,14.1,7.9,14.8,15.7c0.7,8.5-4.7,16.2-12.7,18.5l-2.3,4.3l3.5,3
		c11.7-3,19.8-14,18.7-26.4C48.9,11,39.9,1.9,28.8,0.2z"/>
</g>
<g>
	<rect x="12.7" y="21.5" fill="#0072C6" width="4.1" height="9.7"/>
	<rect x="19.5" y="16" fill="#59B4D9" width="4.1" height="15.2"/>
	<rect x="26.3" y="22.9" fill="#3999C6" width="4.1" height="8.3"/>
	<rect x="33.2" y="18.7" fill="#0072C6" width="4.1" height="12.4"/>
</g>
</svg>
