<?xml version="1.0" encoding="utf-8"?>
<!-- Generator: Adobe Illustrator 17.0.1, SVG Export Plug-In . SVG Version: 6.00 Build 0)  -->
<!DOCTYPE svg PUBLIC "-//W3C//DTD SVG 1.1//EN" "http://www.w3.org/Graphics/SVG/1.1/DTD/svg11.dtd">
<svg version="1.1" id="Layer_1" xmlns="http://www.w3.org/2000/svg" xmlns:xlink="http://www.w3.org/1999/xlink" x="0px" y="0px"
	 width="50px" height="50px" viewBox="0 0 50 50" enable-background="new 0 0 50 50" xml:space="preserve">
<path fill="#0072C6" d="M0,44.474c0,1.108,0.898,2.007,2.007,2.007h45.986c1.109,0,2.007-0.899,2.007-2.007V13.145H0V44.474z"/>
<path fill="#A0A1A2" d="M47.993,3.847H2.007C0.898,3.847,0,4.745,0,5.854v10.627h50V5.854C50,4.745,49.101,3.847,47.993,3.847"/>
<path opacity="0.2" fill="#FFFFFF" d="M2.014,3.847c-1.108,0-2.007,0.898-2.007,2.007v7.291v3.336v27.993
	c0,1.108,0.899,2.007,2.007,2.007h2.188L43.62,3.847H2.014z"/>
<rect x="12.857" y="8.626" fill="#FFFFFF" width="33.671" height="3.942"/>
<path fill="#59B4D9" d="M11.31,10.53c0,2.693-2.184,4.878-4.878,4.878s-4.878-2.185-4.878-4.878c0-2.694,2.184-4.879,4.878-4.879
	C9.125,5.651,11.31,7.836,11.31,10.53"/>
<polygon fill="#FFFFFF" points="5.916,11.079 8.129,13.414 6.928,13.414 3.969,10.597 6.917,7.779 8.115,7.779 5.916,10.101 
	11.309,10.101 11.309,11.079 "/>
<path fill="#FFFFFF" d="M17.286,26.473l-2.644,8.816h-1.463l-1.817-6.311c-0.069-0.241-0.115-0.514-0.138-0.818H11.19
	c-0.017,0.207-0.077,0.474-0.181,0.801l-1.972,6.328H7.625l-2.669-8.816h1.481l1.825,6.629c0.058,0.201,0.098,0.465,0.121,0.792
	h0.069c0.017-0.252,0.069-0.522,0.155-0.809l2.032-6.612h1.292l1.825,6.646c0.057,0.213,0.101,0.477,0.129,0.792h0.069
	c0.011-0.224,0.06-0.488,0.146-0.792l1.791-6.646H17.286z"/>
<path fill="#FFFFFF" d="M30.91,26.473l-2.644,8.816h-1.463l-1.817-6.311c-0.069-0.241-0.115-0.514-0.138-0.818h-0.035
	c-0.017,0.207-0.077,0.474-0.181,0.801l-1.972,6.328h-1.41l-2.669-8.816h1.481l1.825,6.629c0.058,0.201,0.098,0.465,0.121,0.792
	h0.069c0.017-0.252,0.069-0.522,0.155-0.809l2.032-6.612h1.292l1.825,6.646c0.057,0.213,0.101,0.477,0.129,0.792h0.069
	c0.011-0.224,0.06-0.488,0.146-0.792l1.791-6.646H30.91z"/>
<path fill="#FFFFFF" d="M44.535,26.473l-2.644,8.816h-1.463l-1.817-6.311c-0.069-0.241-0.115-0.514-0.138-0.818h-0.035
	c-0.017,0.207-0.077,0.474-0.181,0.801l-1.972,6.328h-1.412l-2.669-8.816h1.481l1.825,6.629c0.058,0.201,0.098,0.465,0.121,0.792
	H35.7c0.017-0.252,0.069-0.522,0.155-0.809l2.032-6.612h1.292l1.825,6.646c0.057,0.213,0.101,0.477,0.129,0.792h0.069
	c0.011-0.224,0.06-0.488,0.146-0.792l1.791-6.646H44.535z"/>
</svg>
