<?xml version="1.0" encoding="utf-8"?>
<!-- Generator: Adobe Illustrator 17.1.0, SVG Export Plug-In . SVG Version: 6.00 Build 0)  -->
<!DOCTYPE svg PUBLIC "-//W3C//DTD SVG 1.1//EN" "http://www.w3.org/Graphics/SVG/1.1/DTD/svg11.dtd">
<svg version="1.1" id="Layer_1" xmlns="http://www.w3.org/2000/svg" xmlns:xlink="http://www.w3.org/1999/xlink" x="0px" y="0px"
	 width="50px" height="50px" viewBox="0 0 50 50" enable-background="new 0 0 50 50" xml:space="preserve">
<path fill="#3999C6" d="M6.1,6.8v36.3c0,3.7,8.5,6.8,18.8,6.8V6.8H6.1z"/>
<path fill="#59B4D9" d="M24.7,50h0.3c10.5,0,18.8-3,18.8-6.8V6.8H24.7V50z"/>
<path fill="#FFFFFF" d="M43.9,6.8c0,3.7-8.5,6.8-18.8,6.8S6.1,10.6,6.1,6.8S14.6,0,24.9,0S43.9,3,43.9,6.8"/>
<path fill="#7FBA00" d="M40,6.4c0,2.5-6.7,4.5-15,4.5S10,9,10,6.4s6.7-4.5,15-4.5S40,3.9,40,6.4"/>
<path fill="#B8D432" d="M36.8,9.2c2-0.8,3.1-1.7,3.1-2.7c0-2.5-6.7-4.5-15-4.5s-15,2-15,4.5c0,1,1.2,2,3.1,2.7
	c2.7-1.1,7-1.7,11.9-1.7C29.8,7.4,34.1,8.1,36.8,9.2"/>
<path fill="#3999C6" d="M16.5,24.9h-1.7v9.9h1.7c1.5,0,2.7-0.5,3.6-1.4c0.8-0.9,1.3-2.1,1.3-3.7c0-1.4-0.4-2.6-1.2-3.4
	C19.2,25.4,18,24.9,16.5,24.9"/>
<path fill="#59B4D9" d="M33.8,27.8c0.4-0.4,0.6-0.8,0.6-1.4c0-1.1-0.8-1.7-2.5-1.7h-1.3v3.6h1.5C32.8,28.3,33.4,28.2,33.8,27.8"/>
<path fill="#59B4D9" d="M34.4,31.4c-0.5-0.3-1.1-0.5-1.9-0.5h-1.9V35h1.9c0.8,0,1.4-0.2,1.9-0.6c0.4-0.4,0.7-0.9,0.7-1.5
	C35,32.3,34.8,31.8,34.4,31.4"/>
<path fill="#FFFFFF" d="M16.6,38.2l2.6-2.6c1.5,2.3,4.2,3.8,7.1,3.8c4.7,0,8.5-3.7,8.4-8.5c-0.1-4.6-3.9-8.5-8.7-8.5
	c-2.7,0-5.1,1.3-6.6,3.3l4,4.3H13.2V19.3l3.7,3.9c2.2-2.6,5.4-4.2,9.2-4.2c6.7,0,12.2,5.4,12.4,12.1c0.1,6.6-5.1,11.8-11.9,11.8
	C22.5,42.9,18.8,41.1,16.6,38.2z"/>
</svg>
