<?xml version="1.0" encoding="utf-8"?>
<!-- Generator: Adobe Illustrator 17.1.0, SVG Export Plug-In . SVG Version: 6.00 Build 0)  -->
<!DOCTYPE svg PUBLIC "-//W3C//DTD SVG 1.1//EN" "http://www.w3.org/Graphics/SVG/1.1/DTD/svg11.dtd">
<svg version="1.1" id="Layer_1" xmlns="http://www.w3.org/2000/svg" xmlns:xlink="http://www.w3.org/1999/xlink" x="0px" y="0px"
	 height="50px" width="50px" viewBox="0 0 50 50" enable-background="new 0 0 50 50" xml:space="preserve">
<path fill="#7FBA00" d="M50,37.198c0,5.001-11.194,9.054-25,9.054S0,42.199,0,37.198v-4.88h50V37.198z"/>
<path fill="#B8D432" d="M50,32.318c0,5.001-11.194,9.054-25,9.054S0,37.319,0,32.318c0-5,11.193-9.054,25-9.054S50,27.318,50,32.318
	"/>
<path fill="#7FBA00" d="M33.013,31.797c0,1.33-3.588,2.407-8.014,2.407s-8.015-1.077-8.015-2.407s3.589-2.407,8.015-2.407
	S33.013,30.468,33.013,31.797"/>
<path opacity="0.25" fill="#FFFFFF" d="M43.071,26.115c-3.502-1.327-8.104-2.269-13.279-2.633l-3.244,6.004
	c1.596,0.094,3.023,0.329,4.127,0.662L43.071,26.115z"/>
<path opacity="0.25" fill="#FFFFFF" d="M5.902,38.208c3.601,1.543,8.598,2.643,14.288,3.045l3.793-7.02
	c-1.579-0.06-3.014-0.257-4.168-0.552L5.902,38.208z"/>
<path fill="#0072C6" d="M50,17.682c0,5.001-11.194,9.054-25,9.054S0,22.682,0,17.682v-4.88h50V17.682z"/>
<path fill="#59B4D9" d="M50,12.802c0,5.001-11.194,9.054-25,9.054S0,17.802,0,12.802s11.193-9.054,25-9.054S50,7.801,50,12.802"/>
<path fill="#0072C6" d="M33.013,12.281c0,1.33-3.588,2.407-8.014,2.407s-8.015-1.077-8.015-2.407s3.589-2.407,8.015-2.407
	S33.013,10.951,33.013,12.281"/>
<path opacity="0.25" fill="#FFFFFF" d="M43.071,6.549c-3.502-1.327-8.104-2.269-13.279-2.633L26.548,9.92
	c1.596,0.094,3.023,0.329,4.127,0.662L43.071,6.549z"/>
<path opacity="0.25" fill="#FFFFFF" d="M5.902,18.642c3.601,1.543,8.598,2.643,14.288,3.045l3.793-7.02
	c-1.579-0.06-3.014-0.257-4.168-0.552L5.902,18.642z"/>
</svg>
