<?xml version="1.0" encoding="utf-8"?>
<!-- Generator: Adobe Illustrator 17.1.0, SVG Export Plug-In . SVG Version: 6.00 Build 0)  -->
<!DOCTYPE svg PUBLIC "-//W3C//DTD SVG 1.1//EN" "http://www.w3.org/Graphics/SVG/1.1/DTD/svg11.dtd">
<svg version="1.1" id="Layer_1" xmlns="http://www.w3.org/2000/svg" xmlns:xlink="http://www.w3.org/1999/xlink" x="0px" y="0px"
	 width="50px" height="50px" viewBox="0 0 50 50" enable-background="new 0 0 50 50" xml:space="preserve">
<path fill="#0072C6" d="M45.5,45.4h2V0H9.2H6.5c-1.3,0.2-4,3.3-4,3.8c0,0.2,0.1,43.9,0.1,43.9c0,1.3,1.1,2.4,2.4,2.4h37.6v-0.7
	L45.5,45.4z"/>
<path fill="#E5E5E5" d="M8.3,2C7.2,2,6.7,2.2,5.8,3C3.5,5,6.2,5,7.3,5h35.2v44.3l3-3.9V2H8.3z"/>
<polygon opacity="0.5" fill="#A0A1A2" enable-background="new    " points="42.5,49.3 45.5,45.4 45.5,2 42.5,5 "/>
<g>
	<path fill="#FF8C00" d="M30.8,25.9h-8.4h-8.4c-1.3,0-2-1.4-1.4-2.5l4.2-7.4l4.2-7c0.7-1.1,2-1.1,2.7,0l4.2,7.3l4.2,7.2
		C32.8,24.6,32.2,25.9,30.8,25.9z"/>
	<circle fill="#FFFFFF" cx="22.4" cy="21.9" r="1.4"/>
	<polygon fill="#FFFFFF" points="22.7,13.6 22.3,13.6 21.3,13.6 21.6,19.9 22.3,19.9 22.7,19.9 23.4,19.9 23.7,13.6 	"/>
</g>
<g>
	<circle fill="#BA141A" cx="22.5" cy="37.7" r="9"/>
	<polygon fill="#FFFFFF" points="27.5,34.3 25.9,32.7 22.5,36.1 19.1,32.7 17.5,34.3 20.9,37.7 17.5,41.1 19.1,42.7 22.5,39.3 
		25.9,42.7 27.5,41.1 24.1,37.7 	"/>
</g>
</svg>
