<?xml version="1.0" encoding="utf-8"?>
<!-- Generator: Adobe Illustrator 17.0.1, SVG Export Plug-In . SVG Version: 6.00 Build 0)  -->
<!DOCTYPE svg PUBLIC "-//W3C//DTD SVG 1.1//EN" "http://www.w3.org/Graphics/SVG/1.1/DTD/svg11.dtd">
<svg version="1.1" id="Layer_1" xmlns="http://www.w3.org/2000/svg" xmlns:xlink="http://www.w3.org/1999/xlink" x="0px" y="0px"
	 width="50px" height="50px" viewBox="0 0 50 50" enable-background="new 0 0 50 50" xml:space="preserve">
<path fill="#FEE087" d="M47.064,11.912V7.934H21.897L15.963,2H0v43.708c0,1.309,1.06,2.372,2.371,2.372l0,0h45.258
	c1.309,0,2.371-1.063,2.371-2.371V11.912H47.064z"/>
<path fill="#59B4D9" d="M32.59,38.052c-1.656,1.267-3.607,1.883-5.544,1.883c-2.749,0-5.467-1.234-7.263-3.584
	c-3.069-4.007-2.312-9.737,1.703-12.807c1.655-1.274,3.608-1.882,5.543-1.882c2.749,0,5.467,1.234,7.263,3.585
	C37.361,29.253,36.596,34.986,32.59,38.052"/>
<path fill="#FFFFFF" d="M30.911,32.399c0.664,0.866,1.895,1.023,2.757,0.367c0.045-0.034,0.079-0.075,0.12-0.112
	c0.88,0.62,1.565,1.08,1.909,1.314c0.104-0.265,0.17-0.515,0.244-0.78c-0.362-0.269-0.933-0.709-1.639-1.281
	c0.233-0.613,0.158-1.329-0.267-1.89c-0.609-0.787-1.688-0.988-2.532-0.505c-0.934-0.838-1.95-1.784-3.034-2.861
	c3.351-1.802,5.73-1.537,5.73-1.537c-0.398-0.508-0.843-0.952-1.318-1.352c-1.414-0.219-3.607-0.194-6.115,1.14v-0.001
	c-0.122,0.064-0.244,0.139-0.367,0.21c0.122-0.071,0.244-0.146,0.366-0.211c-0.835-0.875-1.687-1.812-2.552-2.819
	c-0.416,0.133-0.82,0.298-1.211,0.492c0.639,1.046,1.498,2.101,2.469,3.131c0,0,0,0,0.001,0c0.032,0.034,0.067,0.068,0.099,0.102
	c-0.033-0.034-0.07-0.065-0.101-0.099c-0.828,0.57-1.673,1.296-2.531,2.203c-0.109,0.117-0.205,0.236-0.308,0.354
	c-0.492-0.1-1.009-0.074-1.493,0.099c-0.83-1.789-0.773-3.229-0.642-3.968c-0.359,0.376-0.695,0.771-0.984,1.193
	c-0.217,0.885-0.276,2.162,0.365,3.699c-0.735,0.965-0.776,2.328-0.006,3.336c0.067,0.087,0.146,0.158,0.221,0.235
	c-0.336,1.146-0.504,2.255-0.55,3.204c0.086,0.118,0.086,0.212,0.173,0.327c0.438,0.562,0.992,1.094,1.524,1.523
	c-0.065-1.007,0.007-2.551,0.631-4.221c0.426,0.031,0.856-0.035,1.262-0.205c0.236,0.208,0.48,0.417,0.744,0.63
	c0.897,0.71,1.791,1.263,2.663,1.698c-0.045,0.444,0.066,0.904,0.354,1.286c0.616,0.795,1.757,0.944,2.552,0.336
	c0.166-0.127,0.297-0.28,0.405-0.445c1.422,0.317,2.664,0.372,3.585,0.372c0.141,0,0.795-0.889,1.17-1.441
	c-0.56,0.117-2.226,0.339-4.497-0.313c-0.055-0.253-0.16-0.5-0.328-0.719c-0.577-0.756-1.629-0.92-2.417-0.415
	c-0.791-0.429-1.618-0.963-2.472-1.639c-0.178-0.141-0.331-0.281-0.495-0.422c0.513-0.817,0.571-1.857,0.12-2.735
	c0.108-0.108,0.199-0.218,0.314-0.325c0.807-0.753,1.663-1.424,2.387-1.926c1.14,1.054,2.348,2.052,3.492,2.944
	C30.403,31.015,30.451,31.798,30.911,32.399z"/>
<path fill="#FFFFFF" d="M27.309,27.361c0.002-0.001,0.004-0.003,0.006-0.005c0.058-0.037,0.117-0.075,0.175-0.113
	C27.43,27.283,27.369,27.322,27.309,27.361z"/>
<path opacity="0.2" fill="#1E1E1E" d="M4.742,11.912v33.796c0,1.309-1.062,2.372-2.371,2.372C1.06,48.08,0,47.017,0,45.708V2h15.963
	l5.934,5.934h25.167v3.978H4.742z"/>
</svg>
