<?xml version="1.0" encoding="utf-8"?>
<!-- Generator: Adobe Illustrator 17.1.0, SVG Export Plug-In . SVG Version: 6.00 Build 0)  -->
<!DOCTYPE svg PUBLIC "-//W3C//DTD SVG 1.1//EN" "http://www.w3.org/Graphics/SVG/1.1/DTD/svg11.dtd">
<svg version="1.1" id="Layer_1" xmlns="http://www.w3.org/2000/svg" xmlns:xlink="http://www.w3.org/1999/xlink" x="0px" y="0px"
	 width="50px" height="50px" viewBox="0 0 50 50" enable-background="new 0 0 50 50" xml:space="preserve">
<path fill="#0072C6" d="M0,39.5c0,0.9,0.7,1.6,1.6,1.6h37.4c0.9,0,1.6-0.7,1.6-1.6V14H0V39.5z"/>
<path fill="#A0A1A2" d="M39.1,6.5H1.6C0.7,6.5,0,7.2,0,8.1v8.6h40.7V8.1C40.7,7.2,40,6.5,39.1,6.5"/>
<path opacity="0.2" fill="#FFFFFF" d="M1.6,6.5C0.7,6.5,0,7.2,0,8.1V14v2.7v22.8c0,0.9,0.7,1.6,1.6,1.6h1.8L35.5,6.5H1.6z"/>
<rect x="10.5" y="10.4" fill="#FFFFFF" width="27.4" height="3.2"/>
<path fill="#59B4D9" d="M9.2,11.9c0,2.2-1.8,4-4,4c-2.2,0-4-1.8-4-4c0-2.2,1.8-4,4-4C7.4,7.9,9.2,9.7,9.2,11.9"/>
<polygon fill="#FFFFFF" points="4.8,12.3 6.6,14.2 5.6,14.2 3.2,12 5.6,9.7 6.6,9.7 4.8,11.6 9.2,11.6 9.2,12.3 "/>
<path fill="#59B4D9" d="M50,39.8c0-2.1-1.7-3.8-3.7-3.8c-0.2,0-0.3,0-0.5,0c0.2-0.8,0.4-1.7,0.4-2.7c0-5.5-4.5-10-10-10
	c-4.4,0-8.1,2.9-9.4,6.8c-0.7-0.2-1.4-0.4-2.2-0.4c-3.8,0-6.8,3.1-6.8,6.9c0,3.8,3,6.9,6.8,6.9c0,0,0,0,0,0v0h22l0,0
	C48.5,43.4,50,41.8,50,39.8"/>
<path opacity="0.2" fill="#FFFFFF" enable-background="new    " d="M28.2,43.5c-0.9-0.9-1.6-2-1.9-3.4c-0.8-3.7,1.4-7.4,5.1-8.2
	c0.8-0.2,1.5-0.2,2.3-0.1c0.3-3.5,2.4-6.5,5.6-8c-1-0.3-2-0.5-3-0.5c-4.4,0-8.1,2.9-9.4,6.8c-0.7-0.2-1.4-0.4-2.2-0.4
	c-3.8,0-6.8,3.1-6.8,6.9c0,3.8,3,6.9,6.8,6.9c0,0,0,0,0,0v0H28.2z"/>
</svg>
