<?xml version="1.0" encoding="utf-8"?>
<!-- Generator: Adobe Illustrator 17.1.0, SVG Export Plug-In . SVG Version: 6.00 Build 0)  -->
<!DOCTYPE svg PUBLIC "-//W3C//DTD SVG 1.1//EN" "http://www.w3.org/Graphics/SVG/1.1/DTD/svg11.dtd">
<svg version="1.1" id="Layer_1" xmlns="http://www.w3.org/2000/svg" xmlns:xlink="http://www.w3.org/1999/xlink" x="0px" y="0px"
	 height="50px" width="50px" viewBox="0 0 50 50" enable-background="new 0 0 50 50" xml:space="preserve">
<path fill="#A0A1A2" d="M39.9,47.5c0,1.4-1.1,2.5-2.5,2.5H12.5c-1.4,0-2.5-1.1-2.5-2.5v-45C10,1.1,11.1,0,12.5,0h24.9
	c1.4,0,2.5,1.1,2.5,2.5V47.5L39.9,47.5z"/>
<rect x="14" y="5" fill="#7A7A7A" width="6" height="7"/>
<rect x="22" y="5" fill="#7A7A7A" width="6" height="7"/>
<rect x="30" y="5" fill="#7A7A7A" width="6" height="7"/>
<rect x="14" y="16" fill="#7A7A7A" width="6" height="7"/>
<rect x="22" y="16" fill="#7A7A7A" width="6" height="7"/>
<rect x="30" y="16" fill="#7A7A7A" width="6" height="7"/>
<rect x="14" y="27" fill="#7A7A7A" width="6" height="7"/>
<rect x="22" y="27" fill="#7A7A7A" width="6" height="7"/>
<rect x="30" y="27" fill="#7A7A7A" width="6" height="7"/>
</svg>
