<?xml version="1.0" encoding="utf-8"?>
<!-- Generator: Adobe Illustrator 17.0.1, SVG Export Plug-In . SVG Version: 6.00 Build 0)  -->
<!DOCTYPE svg PUBLIC "-//W3C//DTD SVG 1.1//EN" "http://www.w3.org/Graphics/SVG/1.1/DTD/svg11.dtd">
<svg version="1.1" id="Layer_1" xmlns="http://www.w3.org/2000/svg" xmlns:xlink="http://www.w3.org/1999/xlink" x="0px" y="0px"
	 width="50px" height="50px" viewBox="-10.5 -9.5 50 50" enable-background="new -10.5 -9.5 50 50" xml:space="preserve">
<path fill="#FF8C00" d="M34.5,35.865h2V-9.5H-1.833H-4.5c-1.293,0.167-3.992,3.3-3.992,3.751c0,0.187,0.059,43.882,0.059,43.882
	c0,1.307,1.06,2.367,2.368,2.367H31.5v-0.729L34.5,35.865z"/>
<path fill="#E5E5E5" d="M-2.718-7.5c-1.105,0-1.58,0.185-2.507,1c-2.275,2,0.39,2,1.495,2H31.5v44.271l3-3.906V-7.5H-2.718z"/>
<polygon opacity="0.5" fill="#A0A1A2" enable-background="new    " points="31.5,39.771 34.5,35.865 34.5,-7.5 31.5,-4.5 "/>
<g>
	<path fill="#FFFFFF" d="M7.048,17.125c0-1.332,0.533-2.542,1.396-3.428L6.548,11.8c-1.349,1.373-2.183,3.253-2.183,5.325
		c0,2.096,0.853,3.996,2.229,5.373l1.896-1.896C7.6,19.71,7.048,18.481,7.048,17.125z"/>
	<path fill="#FFFFFF" d="M16.886,17.125c0,1.356-0.552,2.586-1.442,3.477l1.896,1.896c1.377-1.377,2.229-3.277,2.229-5.373
		c0-2.072-0.834-3.952-2.183-5.325l-1.896,1.896C16.353,14.583,16.886,15.792,16.886,17.125z"/>
	<path fill="#FFFFFF" d="M21.134,17.125c0,2.527-1.028,4.819-2.688,6.479l1.896,1.896c2.146-2.146,3.475-5.108,3.475-8.375
		c0-3.243-1.311-6.185-3.429-8.327l-1.896,1.896C20.125,12.35,21.134,14.621,21.134,17.125z"/>
	<path fill="#FFFFFF" d="M2.8,17.125c0-2.503,1.01-4.775,2.642-6.431L3.546,8.797c-2.118,2.142-3.429,5.084-3.429,8.327
		c0,3.267,1.329,6.23,3.475,8.375l1.896-1.896C3.828,21.944,2.8,19.652,2.8,17.125z"/>
	<path fill="#FFFFFF" d="M14.225,14.961c-0.57-0.594-1.37-0.966-2.258-0.966c-0.888,0-1.688,0.372-2.258,0.966
		c-0.539,0.562-0.872,1.324-0.872,2.164c0,0.864,0.35,1.647,0.917,2.213c0.566,0.567,1.349,0.917,2.213,0.917
		c0.864,0,1.647-0.35,2.213-0.917c0.567-0.566,0.917-1.349,0.917-2.213C15.097,16.284,14.764,15.523,14.225,14.961z"/>
</g>
<path fill="#FF8C00" d="M34.5,35.865h2V-9.5H-1.833H-4.5c-1.293,0.167-3.992,3.3-3.992,3.751c0,0.187,0.059,43.882,0.059,43.882
	c0,1.307,1.06,2.367,2.368,2.367H31.5v-0.729L34.5,35.865z"/>
<path fill="#E5E5E5" d="M-2.718-7.5c-1.105,0-1.58,0.185-2.507,1c-2.275,2,0.39,2,1.495,2H31.5v44.271l3-3.906V-7.5H-2.718z"/>
<polygon opacity="0.5" fill="#A0A1A2" enable-background="new    " points="31.5,39.771 34.5,35.865 34.5,-7.5 31.5,-4.5 "/>
<g>
	<path fill="#FFFFFF" d="M7.048,17.125c0-1.332,0.533-2.542,1.396-3.428L6.548,11.8c-1.349,1.373-2.183,3.253-2.183,5.325
		c0,2.096,0.853,3.996,2.229,5.373l1.896-1.896C7.6,19.71,7.048,18.481,7.048,17.125z"/>
	<path fill="#FFFFFF" d="M16.886,17.125c0,1.356-0.552,2.586-1.442,3.477l1.896,1.896c1.377-1.377,2.229-3.277,2.229-5.373
		c0-2.072-0.834-3.952-2.183-5.325l-1.896,1.896C16.353,14.583,16.886,15.792,16.886,17.125z"/>
	<path fill="#FFFFFF" d="M21.134,17.125c0,2.527-1.028,4.819-2.688,6.479l1.896,1.896c2.146-2.146,3.475-5.108,3.475-8.375
		c0-3.243-1.311-6.185-3.429-8.327l-1.896,1.896C20.125,12.35,21.134,14.621,21.134,17.125z"/>
	<path fill="#FFFFFF" d="M2.8,17.125c0-2.503,1.01-4.775,2.642-6.431L3.546,8.797c-2.118,2.142-3.429,5.084-3.429,8.327
		c0,3.267,1.329,6.23,3.475,8.375l1.896-1.896C3.828,21.944,2.8,19.652,2.8,17.125z"/>
	<path fill="#FFFFFF" d="M14.225,14.961c-0.57-0.594-1.37-0.966-2.258-0.966c-0.888,0-1.688,0.372-2.258,0.966
		c-0.539,0.562-0.872,1.324-0.872,2.164c0,0.864,0.35,1.647,0.917,2.213c0.566,0.567,1.349,0.917,2.213,0.917
		c0.864,0,1.647-0.35,2.213-0.917c0.567-0.566,0.917-1.349,0.917-2.213C15.097,16.284,14.764,15.523,14.225,14.961z"/>
</g>
</svg>
