<?xml version="1.0" encoding="utf-8"?>
<!-- Generator: Adobe Illustrator 19.1.0, SVG Export Plug-In . SVG Version: 6.00 Build 0)  -->
<svg version="1.1" id="Layer_1" xmlns="http://www.w3.org/2000/svg" xmlns:xlink="http://www.w3.org/1999/xlink" x="0px" y="0px"
	 width="50px" height="50px" viewBox="0 0 50 50" enable-background="new 0 0 50 50" xml:space="preserve">
<path fill="#59B4D9" d="M47.285,0H2.997C1.332,0,0,1.333,0,3v43.667C0,48.667,1.332,50,2.997,50h43.955c1.665,0,2.997-1.333,2.997-3
	V3C50.282,1.333,48.95,0,47.285,0z M46.619,46.667H3.33V13.333h43.289V46.667z"/>
<rect x="16.65" y="16.667" fill="#A0A1A2" width="6.66" height="6.667"/>
<rect x="26.639" y="16.667" fill="#A0A1A2" width="6.66" height="6.667"/>
<rect x="6.66" y="26.667" fill="#A0A1A2" width="6.66" height="6.667"/>
<rect x="16.65" y="26.667" fill="#A0A1A2" width="6.66" height="6.667"/>
<rect x="26.639" y="26.667" fill="#BA141A" width="6.66" height="6.667"/>
<rect x="36.629" y="26.667" fill="#A0A1A2" width="6.66" height="6.667"/>
<rect x="6.66" y="36.667" fill="#A0A1A2" width="6.66" height="6.667"/>
<rect x="16.65" y="36.667" fill="#A0A1A2" width="6.66" height="6.667"/>
<rect x="26.639" y="36.667" fill="#A0A1A2" width="6.66" height="6.667"/>
<rect x="36.629" y="16.667" fill="#A0A1A2" width="6.66" height="6.667"/>
</svg>
