<?xml version="1.0" encoding="utf-8"?>
<!-- Generator: Adobe Illustrator 17.1.0, SVG Export Plug-In . SVG Version: 6.00 Build 0)  -->
<!DOCTYPE svg PUBLIC "-//W3C//DTD SVG 1.1//EN" "http://www.w3.org/Graphics/SVG/1.1/DTD/svg11.dtd">
<svg version="1.1" id="Layer_1" xmlns="http://www.w3.org/2000/svg" xmlns:xlink="http://www.w3.org/1999/xlink" x="0px" y="0px"
	 height="50px" width="50px" viewBox="0 0 50 50" enable-background="new 0 0 50 50" xml:space="preserve">
<path fill="#3999C6" d="M42.3,0L28.6,0.5L0,29.1l20.3,20.3l28.6-28.6L50,7.7L42.3,0z M43.4,10.6c-1.1,1.1-2.9,1.1-4,0
	c-1.1-1.1-1.1-2.9,0-4c1.1-1.1,2.9-1.1,4,0C44.5,7.7,44.5,9.5,43.4,10.6z"/>
<polygon fill="#FFFFFF" points="26.5,14.4 25.4,13.3 24.4,14.4 23,13 25.4,10.5 27.9,13 "/>
<polygon fill="#FFFFFF" points="13.3,25.4 11.9,24 15,20.9 15.7,21.6 15,20.9 16.4,22.3 "/>
<rect x="18.7" y="15.5" transform="matrix(0.7071 0.7071 -0.7071 0.7071 18.2542 -8.7416)" fill="#FFFFFF" width="2" height="4.3"/>
<polygon fill="#FFFFFF" points="9.5,31.4 7,28.9 9.5,26.5 10.9,27.9 9.8,28.9 10.9,30 "/>
<rect x="12.1" y="34" transform="matrix(0.7071 0.7071 -0.7071 0.7071 28.9741 1.596034e-002)" fill="#FFFFFF" width="4.7" height="2"/>
<polygon fill="#FFFFFF" points="20.5,42.5 18,40 19.5,38.6 20.5,39.6 21.6,38.6 23,40 "/>
<rect x="25.3" y="33.1" transform="matrix(0.7071 0.7071 -0.7071 0.7071 32.6459 -8.2421)" fill="#FFFFFF" width="2" height="4.3"/>
<polygon fill="#FFFFFF" points="31,32 29.5,30.6 32.6,27.5 34,28.9 31,32 30.3,31.3 "/>
<polygon fill="#FFFFFF" points="36.5,26.5 35.1,25.1 35.1,25.1 "/>
<polygon fill="#FFFFFF" points="36.5,26.5 35.1,25.1 36.1,24 35.1,23 36.5,21.5 39,24 "/>
<rect x="29.2" y="17" transform="matrix(0.7071 0.7071 -0.7071 0.7071 21.926 -16.9997)" fill="#FFFFFF" width="4.7" height="2"/>
<polygon opacity="0.1" fill="#FFFFFF" points="0,29.1 20.3,49.5 24.9,44.9 24.9,4.3 "/>
<path opacity="0.3" fill="#1E1E1E" d="M45.1,4.9c-2-2-5.3-2-7.3,0c-2,2-2,5.3,0,7.3c2,2,5.3,2,7.3,0C47.1,10.2,47.1,7,45.1,4.9z
	 M43.4,10.6c-1.1,1.1-2.9,1.1-4,0c-1.1-1.1-1.1-2.9,0-4c1.1-1.1,2.9-1.1,4,0C44.5,7.7,44.5,9.5,43.4,10.6z"/>
</svg>
