<?xml version="1.0" encoding="utf-8"?>
<!-- Generator: Adobe Illustrator 17.1.0, SVG Export Plug-In . SVG Version: 6.00 Build 0)  -->
<!DOCTYPE svg PUBLIC "-//W3C//DTD SVG 1.1//EN" "http://www.w3.org/Graphics/SVG/1.1/DTD/svg11.dtd">
<svg version="1.1" id="Layer_1" xmlns="http://www.w3.org/2000/svg" xmlns:xlink="http://www.w3.org/1999/xlink" x="0px" y="0px"
	 width="50px" height="50px" viewBox="0 0 50 50" enable-background="new 0 0 50 50" xml:space="preserve">
<path fill="#A0A1A2" d="M48.1,31.8H17.3c-1.3,0-2.4-1.1-2.4-2.1c0-1,1.1-1.9,2.4-1.9h30.8c1.4,0,2.4,0.8,2.4,1.9
	C50.5,30.7,49.4,31.8,48.1,31.8z"/>
<path fill="#A0A1A2" d="M48.1,47.4H17.3c-1.3,0-2.4-1.1-2.4-2.1c0-1,1.1-1.9,2.4-1.9h30.8c1.3,0,2.4,0.8,2.4,1.9
	C50.5,46.3,49.4,47.4,48.1,47.4z"/>
<polygon fill="#B8D432" points="0.5,29.2 0.5,29.2 2.2,27.4 2.2,27.4 2.2,27.4 5.7,30.9 12.8,23.9 12.8,23.9 12.8,23.9 14.5,25.7 
	14.5,25.7 14.5,25.7 5.7,34.4 "/>
<polygon fill="#B8D432" points="0.5,44.7 0.5,44.7 2.2,43 2.2,43 2.2,43 5.7,46.5 12.8,39.5 12.8,39.5 12.8,39.5 14.5,41.2 
	14.5,41.2 14.5,41.2 5.7,50 "/>
<polygon fill="#0072C6" points="23.5,5.8 16.6,12.4 16.6,8.8 24.9,0 33.2,8.8 33.2,12.3 26.4,5.8 26.4,19.4 23.5,19.4 "/>
</svg>
