<?xml version="1.0" encoding="utf-8"?>
<!-- Generator: Adobe Illustrator 17.1.0, SVG Export Plug-In . SVG Version: 6.00 Build 0)  -->
<!DOCTYPE svg PUBLIC "-//W3C//DTD SVG 1.1//EN" "http://www.w3.org/Graphics/SVG/1.1/DTD/svg11.dtd">
<svg version="1.1" id="Layer_1" xmlns="http://www.w3.org/2000/svg" xmlns:xlink="http://www.w3.org/1999/xlink" x="0px" y="0px"
	 height="50px" width="50px" viewBox="0 0 50 50" enable-background="new 0 0 50 50" xml:space="preserve">
<path fill="#7A7A7A" d="M32.4,38.4h-1.2H19.4h-0.6c1.6,5.7-0.6,6.6-10.2,6.6v3h12.2h8.9h11.5v-3C31.7,45,30.8,44.2,32.4,38.4"/>
<path fill="#A0A1A2" d="M47,2H2.7C1.2,2,0,3.3,0,4.8v30.8c0,1.5,1.2,2.8,2.7,2.8H47c1.5,0,3-1.3,3-2.8V4.8C50,3.3,48.5,2,47,2
	 M46.2,5.8v28.7H3.8V5.8l42.4-0.1L46.2,5.8z"/>
<polygon fill="#59B4D9" points="46.1,5.8 46.1,34.6 3.8,34.6 3.8,5.8 46.2,5.8 "/>
<path opacity="0.2" fill="#FFFFFF" d="M3.8,34.6L3.8,34.6L3.8,5.8l38.7-0.1L47,2c0,0,0,0,0,0H2.7C1.2,2,0,3.3,0,4.8v30.8
	c0,1.5,1.2,2.8,2.7,2.8h1.1l4.6-3.8H3.8z"/>
<polygon fill="#59B4D9" points="3.8,34.6 3.8,34.6 3.8,5.8 42.5,5.8 42.5,5.8 3.8,5.8 "/>
<rect x="8.7" y="45" fill="#A0A1A2" width="32.7" height="3"/>
<path fill="#B8D432" d="M25.5,4.1c0,0.4-0.3,0.7-0.7,0.7c-0.4,0-0.7-0.3-0.7-0.7c0-0.4,0.3-0.7,0.7-0.7C25.2,3.4,25.5,3.7,25.5,4.1"
	/>
<polygon fill="#0072C6" points="3.8,20.7 12.5,18.8 16.2,24.9 21.5,18.8 25.1,22.2 31.3,10.6 35,27.1 38.6,18.9 46.2,21.9 
	46.2,34.6 3.8,34.6 "/>
<g>
	<path fill="#B8D432" d="M38.1,17.4l-2.8,6.3L31.7,7.5l-6.8,12.8l-3.5-3.2L16.3,23L13,17.4l-9.2,2v2c0.1,0,0.1,0,0.2,0l8-1.8l4,6.7
		l5.6-6.4l3.8,3.6l5.5-10.4l3.7,16.8L39.1,20l6.7,2.6c0.1,0,0.2,0,0.3,0v-2.1L38.1,17.4z"/>
</g>
</svg>
