<?xml version="1.0" encoding="utf-8"?>
<!-- Generator: Adobe Illustrator 17.1.0, SVG Export Plug-In . SVG Version: 6.00 Build 0)  -->
<!DOCTYPE svg PUBLIC "-//W3C//DTD SVG 1.1//EN" "http://www.w3.org/Graphics/SVG/1.1/DTD/svg11.dtd">
<svg version="1.1" id="Layer_1" xmlns="http://www.w3.org/2000/svg" xmlns:xlink="http://www.w3.org/1999/xlink" x="0px" y="0px"
	 height="50px" width="50px" viewBox="0 0 50 50" enable-background="new 0 0 50 50" xml:space="preserve">
<path fill-rule="evenodd" clip-rule="evenodd" fill="#194F7A" d="M8.8,33.6c-2.6,0.2-4.8,2.4-4.8,5.2v6c0,2.9,2.4,5.2,5.2,5.2h6
	c2.9,0,5.2-2.4,5.2-5.2v-6c0-2.6-2.1-5-4.8-5.2V16.4c2.6-0.2,4.8-2.4,4.8-5.2v-6c0-2.9-2.4-5.2-5.2-5.2l-6,0C6.4,0,4.1,2.4,4.1,5.2
	v6c0,2.6,2.1,5,4.8,5.2V17h0v16.1h0V33.6 M16,11.2c0,0.2-0.2,0.5-0.5,0.5h-6c-0.2,0-0.5-0.2-0.5-0.5v-6c0-0.2,0.2-0.5,0.5-0.5h6
	C15.7,4.8,16,5,16,5.2V11.2 M8.8,39.3c0-0.2,0.2-0.5,0.5-0.5h6c0.2,0,0.5,0.2,0.5,0.5v6c0,0.2-0.2,0.5-0.5,0.5h-6
	c-0.2,0-0.5-0.2-0.5-0.5V39.3z"/>
<path fill="#59B4D9" d="M40.7,33.6h-0.1V23.3c0-1-0.5-1.9-1-2.6l-4-3.9l4.4-4.4H25.5v14.5l5.1-5.1l2.8,2.8v9.1
	C31,34,29,36.1,29,38.8v6c0,2.9,2.4,5.2,5.2,5.2h6c2.9,0,5.2-2.4,5.2-5.2v-6C45.4,36.2,43.3,33.8,40.7,33.6z M40.7,45.2
	c0,0.2-0.2,0.5-0.5,0.5h-6c-0.2,0-0.5-0.2-0.5-0.5v-6c0-0.2,0.2-0.5,0.5-0.5h6c0.2,0,0.5,0.2,0.5,0.5V45.2z"/>
</svg>
