<?xml version="1.0" encoding="utf-8"?>
<!-- Generator: Adobe Illustrator 17.0.1, SVG Export Plug-In . SVG Version: 6.00 Build 0)  -->
<!DOCTYPE svg PUBLIC "-//W3C//DTD SVG 1.1//EN" "http://www.w3.org/Graphics/SVG/1.1/DTD/svg11.dtd">
<svg version="1.1" id="Layer_1" xmlns="http://www.w3.org/2000/svg" xmlns:xlink="http://www.w3.org/1999/xlink" x="0px" y="0px"
	 width="50px" height="50px" viewBox="0 0 50 50" enable-background="new 0 0 50 50" xml:space="preserve">
<path fill="#3999C6" d="M25.047,22.647c-0.078,0-0.15-0.023-0.22-0.064l-14.711-8.49c-0.14-0.08-0.223-0.228-0.223-0.389
	c0-0.156,0.083-0.304,0.223-0.382l14.616-8.435c0.139-0.077,0.309-0.077,0.442,0l14.714,8.495c0.133,0.078,0.221,0.224,0.221,0.382
	c0,0.163-0.088,0.308-0.221,0.387l-14.619,8.433C25.2,22.624,25.126,22.647,25.047,22.647"/>
<path fill="#59B4D9" d="M22.932,43.284c-0.08,0-0.158-0.019-0.226-0.059L8.042,34.761c-0.142-0.079-0.226-0.224-0.226-0.386V17.39
	c0-0.159,0.084-0.305,0.226-0.389c0.134-0.077,0.306-0.077,0.448,0l14.662,8.464c0.136,0.082,0.218,0.228,0.218,0.387v16.987
	c0,0.163-0.083,0.305-0.218,0.386C23.079,43.266,23.006,43.284,22.932,43.284"/>
<path fill="#59B4D9" d="M27.081,43.284c-0.075,0-0.152-0.019-0.226-0.059c-0.136-0.081-0.22-0.223-0.22-0.386V25.962
	c0-0.159,0.084-0.305,0.22-0.387l14.66-8.461c0.142-0.078,0.308-0.078,0.448,0c0.134,0.08,0.22,0.227,0.22,0.385v16.877
	c0,0.162-0.085,0.306-0.22,0.386l-14.665,8.464C27.237,43.266,27.158,43.284,27.081,43.284"/>
<path opacity="0.5" fill="#FFFFFF" d="M27.081,43.284c-0.075,0-0.152-0.019-0.226-0.059c-0.136-0.081-0.22-0.223-0.22-0.386V25.962
	c0-0.159,0.084-0.305,0.22-0.387l14.66-8.461c0.142-0.078,0.308-0.078,0.448,0c0.134,0.08,0.22,0.227,0.22,0.385v16.877
	c0,0.162-0.085,0.306-0.22,0.386l-14.665,8.464C27.237,43.266,27.158,43.284,27.081,43.284"/>
<path fill="#7A7A7A" d="M9.558,45.171c-0.247,0-0.497-0.063-0.726-0.195l-6.845-3.952C0.835,40.358,0,38.911,0,37.582V12.418
	c0-1.329,0.835-2.777,1.987-3.441l6.845-3.952c0.697-0.401,1.586-0.163,1.987,0.532c0.402,0.696,0.163,1.585-0.532,1.987
	l-6.845,3.952c-0.243,0.141-0.532,0.641-0.532,0.922v25.164c0,0.281,0.289,0.782,0.532,0.922l6.845,3.952
	c0.696,0.402,0.934,1.291,0.532,1.987C10.55,44.91,10.061,45.171,9.558,45.171z"/>
<path fill="#7A7A7A" d="M40.442,4.829c0.247,0,0.497,0.063,0.726,0.195l6.845,3.952C49.165,9.642,50,11.089,50,12.418v25.164
	c0,1.329-0.835,2.777-1.987,3.441l-6.845,3.952c-0.697,0.401-1.586,0.163-1.987-0.532c-0.402-0.696-0.163-1.585,0.532-1.987
	l6.845-3.952c0.243-0.141,0.532-0.641,0.532-0.922V12.418c0-0.281-0.289-0.782-0.532-0.922l-6.845-3.952
	c-0.696-0.402-0.934-1.291-0.532-1.987C39.45,5.09,39.939,4.829,40.442,4.829z"/>
</svg>
