<?xml version="1.0" encoding="utf-8"?>
<!-- Generator: Adobe Illustrator 17.1.0, SVG Export Plug-In . SVG Version: 6.00 Build 0)  -->
<!DOCTYPE svg PUBLIC "-//W3C//DTD SVG 1.1//EN" "http://www.w3.org/Graphics/SVG/1.1/DTD/svg11.dtd">
<svg version="1.1" id="Layer_1" xmlns="http://www.w3.org/2000/svg" xmlns:xlink="http://www.w3.org/1999/xlink" x="0px" y="0px"
	 height="50px" width="50px" viewBox="0 0 50 50" enable-background="new 0 0 50 50" xml:space="preserve">
<path fill="#B8D432" d="M28.4,10.4c0,5.6-4.6,10.2-10.2,10.2C12.6,20.6,8,16.1,8,10.4C8,4.8,12.6,0.2,18.2,0.2
	C23.9,0.2,28.4,4.8,28.4,10.4"/>
<polygon fill="#B8D432" points="25.7,24.1 18.2,34.6 10.8,24.1 0,24.1 0,49.9 36.5,49.9 36.5,24.1 "/>
<path opacity="0.2" fill="#FFFFFF" d="M8,10.4c0,5.6,4.4,10.1,10,10.2l2.6-20.1c-0.7-0.2-1.5-0.3-2.3-0.3C12.6,0.2,8,4.8,8,10.4"/>
<polygon opacity="0.2" fill="#FFFFFF" points="10.8,24.1 0,24.1 0,49.9 14.3,49.9 16.6,32.3 "/>
<path fill="#3999C6" d="M37.7,37.3c0,0-0.1,0-0.1,0l-9-5.2c-0.1,0-0.1-0.1-0.1-0.2c0-0.1,0.1-0.2,0.1-0.2l9-5.2c0.1,0,0.2,0,0.3,0
	l9,5.2c0.1,0,0.1,0.1,0.1,0.2c0,0.1-0.1,0.2-0.1,0.2l-9,5.2C37.8,37.2,37.7,37.3,37.7,37.3"/>
<path fill="#59B4D9" d="M36.4,49.9c0,0-0.1,0-0.1,0l-9-5.2c-0.1,0-0.1-0.1-0.1-0.2V34c0-0.1,0.1-0.2,0.1-0.2c0.1,0,0.2,0,0.3,0
	l9,5.2c0.1,0.1,0.1,0.1,0.1,0.2v10.4c0,0.1-0.1,0.2-0.1,0.2C36.5,49.9,36.4,49.9,36.4,49.9"/>
<path fill="#59B4D9" d="M38.9,49.9c0,0-0.1,0-0.1,0c-0.1,0-0.1-0.1-0.1-0.2V39.3c0-0.1,0.1-0.2,0.1-0.2l9-5.2c0.1,0,0.2,0,0.3,0
	c0.1,0,0.1,0.1,0.1,0.2v10.4c0,0.1-0.1,0.2-0.1,0.2l-9,5.2C39,49.9,39,49.9,38.9,49.9"/>
<path opacity="0.5" fill="#FFFFFF" d="M38.9,49.9c0,0-0.1,0-0.1,0c-0.1,0-0.1-0.1-0.1-0.2V39.3c0-0.1,0.1-0.2,0.1-0.2l9-5.2
	c0.1,0,0.2,0,0.3,0c0.1,0,0.1,0.1,0.1,0.2v10.4c0,0.1-0.1,0.2-0.1,0.2l-9,5.2C39,49.9,39,49.9,38.9,49.9"/>
</svg>
