<?xml version="1.0" encoding="utf-8"?>
<!-- Generator: Adobe Illustrator 17.1.0, SVG Export Plug-In . SVG Version: 6.00 Build 0)  -->
<!DOCTYPE svg PUBLIC "-//W3C//DTD SVG 1.1//EN" "http://www.w3.org/Graphics/SVG/1.1/DTD/svg11.dtd">
<svg version="1.1" id="Layer_1" xmlns="http://www.w3.org/2000/svg" xmlns:xlink="http://www.w3.org/1999/xlink" x="0px" y="0px"
	 width="50px" height="50px" viewBox="0 0 50 50" enable-background="new 0 0 50 50" xml:space="preserve">
<path fill="#FFFFFF" d="M27.4,9.8c-3.4,0.4-6.3,2-8.3,4.5c-2,2.5-3,5.7-2.7,9c0.4,3.4,2,6.3,4.5,8.3c2.5,2,5.7,3,9,2.7
	c3.4-0.4,6.3-2.1,8.3-4.5c2-2.5,3-5.7,2.7-9c-0.4-3.4-2.1-6.3-4.6-8.4c-2.1-1.7-4.8-2.7-7.6-2.7C28.3,9.7,27.9,9.7,27.4,9.8"/>
<path fill="#3999C6" d="M42.8,20.5c-0.4-4-2.5-7.5-5.4-9.8c-0.6-0.5-1.2-0.9-1.8-1.2l-1.1,2.2c0.5,0.3,0.9,0.6,1.4,0.9
	c2.4,2,4.1,4.8,4.5,8.1c0.3,3.3-0.7,6.4-2.6,8.8c-1.9,2.4-4.8,4-8.1,4.4c-2.2,0.2-4.3-0.2-6.2-1l-1.1,2.2c2.3,1.1,4.9,1.6,7.6,1.3
	c4-0.4,7.4-2.4,9.7-5.3C42,28.3,43.2,24.5,42.8,20.5"/>
<path fill="#A0A1A2" d="M20.9,31.4c-2.4-1.9-4-4.8-4.4-8.1c-0.3-3.3,0.7-6.4,2.6-8.8c1.9-2.4,4.8-4,8.1-4.4c2.7-0.3,5.2,0.3,7.3,1.6
	l1.1-2.2c-2.6-1.5-5.6-2.2-8.7-1.9c-4,0.4-7.4,2.4-9.7,5.3l0,0c-2.3,2.9-3.6,6.6-3.1,10.6c0.4,4,2.4,7.4,5.3,9.7
	c0.9,0.7,1.9,1.4,3,1.9l1.1-2.2C22.5,32.5,21.7,32,20.9,31.4"/>
<path fill="#59B4D9" d="M20.9,31.4c-2.4-1.9-4-4.8-4.4-8.1c-0.3-3.3,0.7-6.4,2.6-8.8c1.9-2.4,4.8-4,8.1-4.4c2.7-0.3,5.2,0.3,7.3,1.6
	l1.1-2.2c-2.6-1.5-5.6-2.2-8.7-1.9c-4,0.4-7.4,2.4-9.7,5.3l0,0c-2.3,2.9-3.6,6.6-3.1,10.6c0.4,4,2.4,7.4,5.3,9.7
	c0.9,0.7,1.9,1.4,3,1.9l1.1-2.2C22.5,32.5,21.7,32,20.9,31.4"/>
<path fill="#7A7A7A" d="M34.5,25.8l-5.6-2c-0.6-0.2-0.9-0.9-0.7-1.5c0.2-0.6,0.9-0.9,1.5-0.7l5.6,2c0.6,0.2,0.9,0.9,0.7,1.5
	C35.8,25.7,35.1,26.1,34.5,25.8z"/>
<path fill="#7A7A7A" d="M28.3,23.6c-0.6,0-1.2-0.5-1.2-1.2v-9.8c0-0.6,0.5-1.2,1.2-1.2c0.6,0,1.2,0.5,1.2,1.2v9.8
	C29.5,23.1,29,23.6,28.3,23.6z"/>
<circle fill="#1E1E1E" cx="28.3" cy="22.5" r="1.7"/>
<g>
	<path fill="#BAD80A" d="M28.4,37.6"/>
	<path fill="#BAD80A" d="M28.7,42.3"/>
	<path fill="#BAD80A" d="M32.5,41.6"/>
	<path fill="#BAD80A" d="M31.6,41.8"/>
	<path fill="#BAD80A" d="M39.8,10.2"/>
	<path fill="#BAD80A" d="M30.5,38.3"/>
	<path fill="#BAD80A" d="M27.1,38.4"/>
	<path fill="#B8D432" d="M26.9,35l5.9,5.5l-5.2,6l0.1-3.9c-0.4,0-1,0-1.4,0c-10.5,0-19.1-8.5-19.1-19.1S15.6,4.5,26.2,4.5
		c5.3,0,10.1,2.2,13.6,5.7c-3-2.9-7.1-4.7-11.6-4.8c-9.1,0-16.5,7.4-16.5,16.5c0,8.8,7.1,15.9,15.7,16.5L26.9,35z"/>
</g>
<path opacity="0.2" fill="#1E1E1E" d="M28,40.9C17.5,40.5,9.4,31.7,9.8,21.3c0.3-6.5,3.8-12.1,8.9-15.3C11.9,8.9,7.1,15.7,7.1,23.6
	c0,10.5,8.5,19.1,19.1,19.1c0.4,0,1,0,1.4,0l-0.1,3.9l5.2-6C31.2,40.9,29.6,41,28,40.9z"/>
<path fill="#7A7A7A" d="M9.6,43.9c-0.2,0-0.5-0.1-0.7-0.2l-6.8-4c-1.2-0.7-2-2.1-2-3.4V11.1c0-1.3,0.8-2.8,2-3.4l6.8-4
	c0.7-0.4,1.6-0.2,2,0.5c0.4,0.7,0.2,1.6-0.5,2l-6.8,4c-0.2,0.1-0.5,0.6-0.5,0.9v25.2c0,0.3,0.3,0.8,0.5,0.9l6.8,4
	c0.7,0.4,0.9,1.3,0.5,2C10.6,43.6,10.1,43.9,9.6,43.9z"/>
<path fill="#7A7A7A" d="M40.4,3.5c0.2,0,0.5,0.1,0.7,0.2l6.8,4c1.2,0.7,2,2.1,2,3.4v25.2c0,1.3-0.8,2.8-2,3.4l-6.8,4
	c-0.7,0.4-1.6,0.2-2-0.5c-0.4-0.7-0.2-1.6,0.5-2l6.8-4c0.2-0.1,0.5-0.6,0.5-0.9V11.1c0-0.3-0.3-0.8-0.5-0.9l-6.8-4
	c-0.7-0.4-0.9-1.3-0.5-2C39.5,3.8,39.9,3.5,40.4,3.5z"/>
</svg>
