<?xml version="1.0" encoding="utf-8"?>
<!-- Generator: Adobe Illustrator 17.1.0, SVG Export Plug-In . SVG Version: 6.00 Build 0)  -->
<!DOCTYPE svg PUBLIC "-//W3C//DTD SVG 1.1//EN" "http://www.w3.org/Graphics/SVG/1.1/DTD/svg11.dtd">
<svg version="1.1" id="Layer_1" xmlns="http://www.w3.org/2000/svg" xmlns:xlink="http://www.w3.org/1999/xlink" x="0px" y="0px"
	 width="50px" height="50px" viewBox="0 0 50 50" enable-background="new 0 0 50 50" xml:space="preserve">
<path fill="#FFFFFF" d="M27.9,6.2c-4,0.4-7.5,2.4-9.9,5.4c-2.4,2.9-3.6,6.7-3.2,10.8c0.4,4,2.4,7.5,5.4,9.9
	c2.9,2.4,6.7,3.6,10.8,3.2c4-0.4,7.5-2.4,9.9-5.4c2.4-2.9,3.6-6.7,3.2-10.8c-0.4-4.1-2.5-7.6-5.5-10c-2.5-2-5.7-3.2-9.1-3.2
	C28.9,6.2,28.4,6.2,27.9,6.2"/>
<path fill="#3999C6" d="M46.2,19.1c-0.5-4.8-2.9-8.9-6.4-11.7c-0.7-0.5-1.4-1-2.1-1.4l-1.4,2.6c0.6,0.3,1.1,0.7,1.6,1.1
	c2.9,2.3,4.9,5.7,5.3,9.7c0.4,3.9-0.8,7.6-3.1,10.5c-2.3,2.8-5.7,4.8-9.6,5.2c-2.6,0.3-5.2-0.2-7.4-1.2l-1.4,2.6
	c2.7,1.3,5.8,1.9,9.1,1.5c4.7-0.5,8.8-2.9,11.6-6.3C45.2,28.3,46.7,23.8,46.2,19.1"/>
<path fill="#A0A1A2" d="M20.1,32c-2.8-2.3-4.8-5.7-5.2-9.6c-0.4-3.9,0.8-7.6,3.1-10.5c2.3-2.8,5.7-4.8,9.6-5.2
	c3.2-0.3,6.2,0.4,8.7,1.9L37.7,6c-3-1.8-6.7-2.6-10.4-2.2c-4.7,0.5-8.8,2.9-11.6,6.3l0,0c-2.8,3.4-4.2,7.9-3.7,12.6
	c0.5,4.7,2.9,8.8,6.3,11.6c1.1,0.9,2.3,1.6,3.6,2.2l1.4-2.6C22.1,33.4,21,32.7,20.1,32"/>
<path fill="#59B4D9" d="M20.1,32c-2.8-2.3-4.8-5.7-5.2-9.6c-0.4-3.9,0.8-7.6,3.1-10.5c2.3-2.8,5.7-4.8,9.6-5.2
	c3.2-0.3,6.2,0.4,8.7,1.9L37.7,6c-3-1.8-6.7-2.6-10.4-2.2c-4.7,0.5-8.8,2.9-11.6,6.3l0,0c-2.8,3.4-4.2,7.9-3.7,12.6
	c0.5,4.7,2.9,8.8,6.3,11.6c1.1,0.9,2.3,1.6,3.6,2.2l1.4-2.6C22.1,33.4,21,32.7,20.1,32"/>
<path fill="#7A7A7A" d="M36.3,25.4L29.7,23c-0.7-0.3-1.1-1-0.8-1.8c0.3-0.7,1-1.1,1.8-0.8l6.6,2.4c0.7,0.3,1.1,1,0.8,1.8
	C37.8,25.3,37,25.6,36.3,25.4z"/>
<path fill="#7A7A7A" d="M28.9,22.8c-0.8,0-1.4-0.6-1.4-1.4V9.7c0-0.8,0.6-1.4,1.4-1.4c0.8,0,1.4,0.6,1.4,1.4v11.7
	C30.3,22.2,29.7,22.8,28.9,22.8z"/>
<circle fill="#1E1E1E" cx="28.9" cy="21.4" r="2"/>
<g>
	<path fill="#BAD80A" d="M29.1,39.4"/>
	<path fill="#BAD80A" d="M29.4,45"/>
	<path fill="#BAD80A" d="M33.9,44.1"/>
	<path fill="#BAD80A" d="M32.9,44.4"/>
	<path fill="#BAD80A" d="M42.6,6.8"/>
	<path fill="#BAD80A" d="M31.5,40.3"/>
	<path fill="#BAD80A" d="M27.5,40.4"/>
	<path fill="#B8D432" d="M27.3,36.3l7,6.5L28,50l0.1-4.7c-0.5,0-1.2,0-1.7,0c-12.5,0-22.7-10.2-22.7-22.7S13.9,0,26.4,0
		c6.3,0,12.1,2.6,16.2,6.8C39,3.3,34.2,1.2,28.8,1.2C17.9,1.1,9.2,9.9,9.1,20.8c0,10.4,8.5,18.9,18.7,19.6L27.3,36.3z"/>
</g>
<path opacity="0.2" fill="#1E1E1E" d="M28.5,43.4C16.1,42.9,6.4,32.4,6.9,20c0.3-7.7,4.5-14.4,10.6-18.2C9.4,5.3,3.7,13.3,3.7,22.7
	c0,12.5,10.2,22.7,22.7,22.7c0.5,0,1.2,0,1.7,0L28,50l6.2-7.1C32.4,43.3,30.5,43.4,28.5,43.4z"/>
</svg>
