<?xml version="1.0" encoding="utf-8"?>
<!-- Generator: Adobe Illustrator 17.1.0, SVG Export Plug-In . SVG Version: 6.00 Build 0)  -->
<!DOCTYPE svg PUBLIC "-//W3C//DTD SVG 1.1//EN" "http://www.w3.org/Graphics/SVG/1.1/DTD/svg11.dtd">
<svg version="1.1" id="Layer_1" xmlns="http://www.w3.org/2000/svg" xmlns:xlink="http://www.w3.org/1999/xlink" x="0px" y="0px"
	 height="50px" width="50px" viewBox="0 0 50 50" enable-background="new 0 0 50 50" xml:space="preserve">
<g>
	<path fill="#3E3E3E" d="M36.4,47.5c0,1.4-1.1,2.5-2.5,2.5H9.5C8.1,50,7,48.9,7,47.5V2.5C7,1.1,8.1,0,9.5,0h24.3
		c1.4,0,2.5,1.1,2.5,2.5V47.5z"/>
	<path fill="#1E1E1E" d="M11.3,27c0-1.8,1.4-3.2,3.2-3.2h14.6c1.8,0,3.2,1.4,3.2,3.2l0,0c0,1.8-1.4,3.2-3.2,3.2H14.5
		C12.7,30.2,11.3,28.8,11.3,27L11.3,27z"/>
	<circle fill="#B8D432" cx="14.6" cy="27" r="2.1"/>
	<path fill="#1E1E1E" d="M11.3,17.5c0-1.8,1.4-3.2,3.2-3.2h14.6c1.8,0,3.2,1.4,3.2,3.2l0,0c0,1.8-1.4,3.2-3.2,3.2H14.5
		C12.7,20.7,11.3,19.3,11.3,17.5L11.3,17.5z"/>
	<circle fill="#B8D432" cx="14.6" cy="17.5" r="2.1"/>
	<path fill="#1E1E1E" d="M11.3,8.1c0-1.8,1.4-3.2,3.2-3.2h14.6c1.8,0,3.2,1.4,3.2,3.2l0,0c0,1.8-1.4,3.2-3.2,3.2H14.5
		C12.7,11.3,11.3,9.8,11.3,8.1L11.3,8.1z"/>
	<circle fill="#B8D432" cx="14.6" cy="8.1" r="2.1"/>
</g>
<polygon fill="#59B4D9" points="42,32.1 37.7,27.5 41.2,27.5 47,33.5 41.2,39.4 37.7,39.4 42,34.8 26.4,34.8 26.4,32.1 "/>
<polygon fill="#59B4D9" points="31.3,45.4 35.7,50 32.2,50 26.4,44.1 32.1,38.1 35.6,38.1 31.3,42.7 47,42.7 47,45.4 "/>
</svg>
