<?xml version="1.0" encoding="utf-8"?>
<!-- Generator: Adobe Illustrator 17.1.0, SVG Export Plug-In . SVG Version: 6.00 Build 0)  -->
<!DOCTYPE svg PUBLIC "-//W3C//DTD SVG 1.1//EN" "http://www.w3.org/Graphics/SVG/1.1/DTD/svg11.dtd">
<svg version="1.1" id="Layer_1" xmlns="http://www.w3.org/2000/svg" xmlns:xlink="http://www.w3.org/1999/xlink" x="0px" y="0px"
	 height="50px" width="50px" viewBox="0 0 50 50" enable-background="new 0 0 50 50" xml:space="preserve">
<g>
	<path fill="#3E3E3E" d="M39.7,47.5c0,1.4-1.1,2.5-2.5,2.5H12.9c-1.4,0-2.5-1.1-2.5-2.5V2.5c0-1.4,1.1-2.5,2.5-2.5h24.3
		c1.4,0,2.5,1.1,2.5,2.5V47.5z"/>
	<path fill="#1E1E1E" d="M14.6,27c0-1.8,1.4-3.2,3.2-3.2h14.6c1.8,0,3.2,1.4,3.2,3.2l0,0c0,1.8-1.4,3.2-3.2,3.2H17.8
		C16.1,30.2,14.6,28.8,14.6,27L14.6,27z"/>
	<circle fill="#B8D432" cx="18" cy="27" r="2.1"/>
	<path fill="#1E1E1E" d="M14.6,17.5c0-1.8,1.4-3.2,3.2-3.2h14.6c1.8,0,3.2,1.4,3.2,3.2l0,0c0,1.8-1.4,3.2-3.2,3.2H17.8
		C16.1,20.7,14.6,19.3,14.6,17.5L14.6,17.5z"/>
	<circle fill="#B8D432" cx="18" cy="17.5" r="2.1"/>
	<path fill="#1E1E1E" d="M14.6,8.1c0-1.8,1.4-3.2,3.2-3.2h14.6c1.8,0,3.2,1.4,3.2,3.2l0,0c0,1.8-1.4,3.2-3.2,3.2H17.8
		C16.1,11.3,14.6,9.8,14.6,8.1L14.6,8.1z"/>
	<circle fill="#B8D432" cx="18" cy="8.1" r="2.1"/>
</g>
</svg>
