<?xml version="1.0" encoding="utf-8"?>
<!-- Generator: Adobe Illustrator 18.1.0, SVG Export Plug-In . SVG Version: 6.00 Build 0)  -->
<!DOCTYPE svg PUBLIC "-//W3C//DTD SVG 1.1//EN" "http://www.w3.org/Graphics/SVG/1.1/DTD/svg11.dtd">
<svg version="1.1" id="Layer_1" xmlns="http://www.w3.org/2000/svg" xmlns:xlink="http://www.w3.org/1999/xlink" x="0px" y="0px"
	 height="50px" width="50px" viewBox="275 1149 50 50" enable-background="new 275 1149 50 50" xml:space="preserve">
<g>
	<path fill="#3E3E3E" d="M306.2,1196c0,1.4-1.1,2.4-2.4,2.4H280c-1.4,0-2.5-1.1-2.5-2.4v-44c0-1.4,1.1-2.4,2.5-2.4h23.8
		c1.4,0,2.4,1.1,2.4,2.4V1196L306.2,1196z"/>
	<path fill="#1E1E1E" d="M281.6,1175.9c0-1.8,1.4-3.1,3.1-3.1h14.3c1.8,0,3.1,1.4,3.1,3.1l0,0c0,1.8-1.4,3.1-3.1,3.1h-14.3
		C283,1179,281.6,1177.6,281.6,1175.9L281.6,1175.9z"/>
	<circle fill="#B8D432" cx="284.9" cy="1175.9" r="2.1"/>
	<path fill="#1E1E1E" d="M281.6,1166.6c0-1.8,1.4-3.1,3.1-3.1h14.3c1.8,0,3.1,1.4,3.1,3.1l0,0c0,1.8-1.4,3.1-3.1,3.1h-14.3
		C283,1169.7,281.6,1168.3,281.6,1166.6L281.6,1166.6z"/>
	<circle fill="#B8D432" cx="284.9" cy="1166.6" r="2.1"/>
	<path fill="#1E1E1E" d="M281.6,1157.3c0-1.8,1.4-3.1,3.1-3.1h14.3c1.8,0,3.1,1.4,3.1,3.1l0,0c0,1.8-1.4,3.1-3.1,3.1h-14.3
		C283,1160.5,281.6,1159,281.6,1157.3L281.6,1157.3z"/>
	<circle fill="#B8D432" cx="284.9" cy="1157.3" r="2.1"/>
</g>
<g id="Phone">
	<path fill="#FFFFFF" d="M318.5,1162.4c1.2,0,2.1,0.9,2.1,2.1v30c0,1.2-0.9,2.1-2.1,2.1H301c-1.2,0-2.1-0.9-2.1-2.1v-30.1
		c0-1.2,0.9-2.1,2.1-2.1L318.5,1162.4 M318.5,1160.5H301c-2.3,0-4,1.8-4,4v30c0,2.3,1.8,4,4,4h17.4c2.3,0,4-1.8,4-4v-30.1
		C322.5,1162.2,320.7,1160.5,318.5,1160.5L318.5,1160.5z"/>
	<path fill="#3E3E3E" d="M320.5,1194.5c0,1.2-0.9,2.1-2.1,2.1H301c-1.2,0-2.1-0.9-2.1-2.1v-30.1c0-1.2,0.9-2.1,2.1-2.1h17.4
		c1.2,0,2.1,0.9,2.1,2.1V1194.5L320.5,1194.5z"/>
	<rect x="300.5" y="1165.8" fill="#59B4D9" width="18.5" height="24"/>
	<path fill="#FFFFFF" d="M312.7,1193.2c0,1.1-0.9,2-2,2s-2-0.9-2-2c0-1.1,0.9-2,2-2S312.7,1192.1,312.7,1193.2"/>
	<path fill="#B8D432" d="M312,1193.2c0,0.7-0.6,1.3-1.3,1.3c-0.7,0-1.3-0.6-1.3-1.3s0.6-1.3,1.3-1.3
		C311.4,1191.9,312,1192.5,312,1193.2"/>
	<path opacity="0.15" fill="#FFFFFF" enable-background="new    " d="M300.5,1189.9v-24h15.6l1.4-3.4h-16.4c-1.2,0-2.1,0.9-2.1,2.1
		v30c0,1.2,0.9,2.1,2.1,2.1h2.5l2.7-6.7L300.5,1189.9L300.5,1189.9z"/>
	<path fill="#1E1E1E" d="M314.3,1164.3c0,0.3-0.2,0.5-0.5,0.5h-6c-0.3,0-0.5-0.2-0.5-0.5s0.2-0.5,0.5-0.5h6
		C314,1163.8,314.3,1164,314.3,1164.3"/>
	<path fill="#FFFFFF" d="M314.3,1164.3c0,0.3-0.2,0.5-0.5,0.5h-6c-0.3,0-0.5-0.2-0.5-0.5s0.2-0.5,0.5-0.5h6
		C314,1163.8,314.3,1164,314.3,1164.3"/>
	<path fill="#FFFFFF" d="M309.8,1176.9L309.8,1176.9l-6.1-3.5c-0.1,0-0.1-0.1-0.1-0.2c0-0.1,0-0.1,0.1-0.2l6-3.4c0.1,0,0.1,0,0.2,0
		l6,3.4c0.1,0,0.1,0.1,0.1,0.2c0,0.1,0,0.1-0.1,0.2L309.8,1176.9C309.8,1176.9,309.8,1176.9,309.8,1176.9"/>
	<path opacity="0.7" fill="#FFFFFF" enable-background="new    " d="M308.9,1185.4L308.9,1185.4l-6.1-3.5c-0.1,0-0.1-0.1-0.1-0.2v-7
		c0-0.1,0-0.1,0.1-0.2c0.1,0,0.1,0,0.2,0l6,3.4c0.1,0,0.1,0.1,0.1,0.2v7C309.1,1185.3,309.1,1185.4,308.9,1185.4
		C309,1185.4,309,1185.4,308.9,1185.4"/>
	<path opacity="0.4" fill="#FFFFFF" enable-background="new    " d="M310.6,1185.4C310.5,1185.4,310.5,1185.4,310.6,1185.4
		c-0.2-0.1-0.2-0.1-0.2-0.2v-6.9c0-0.1,0-0.1,0.1-0.2l6-3.4c0.1,0,0.1,0,0.2,0c0.1,0,0.1,0.1,0.1,0.2v6.9c0,0.1,0,0.1-0.1,0.2
		L310.6,1185.4L310.6,1185.4"/>
</g>
</svg>
