<?xml version="1.0" encoding="utf-8"?>
<!-- Generator: Adobe Illustrator 17.1.0, SVG Export Plug-In . SVG Version: 6.00 Build 0)  -->
<!DOCTYPE svg PUBLIC "-//W3C//DTD SVG 1.1//EN" "http://www.w3.org/Graphics/SVG/1.1/DTD/svg11.dtd">
<svg version="1.1" id="Layer_1" xmlns="http://www.w3.org/2000/svg" xmlns:xlink="http://www.w3.org/1999/xlink" x="0px" y="0px"
	 width="50px" height="50px" viewBox="0 0 50 50" enable-background="new 0 0 50 50" xml:space="preserve">
<path fill="#3999C6" d="M38.2,6L38.2,6c-11-1.2-12.9-6-12.9-6S22.8,6.2,7,6.2v25.6c0,3.1,1.7,6,4.1,8.5l0,0
	c5.4,5.7,14.2,9.6,14.2,9.6s18.3-8,18.3-18.1V6.2C41.6,6.2,39.8,6.1,38.2,6z"/>
<path opacity="0.4" fill="#59B4D9" d="M29.9,16.5L38.2,6c-11-1.2-12.9-6-12.9-6S22.8,6.2,7,6.2v25.6c0,3.1,1.7,6,4.1,8.5l6.2-7.8
	L29.9,16.5z"/>
<g>
	<path opacity="0.3" fill="#FFFFFF" d="M10.8,24.4v6.1c0,2.5,1.4,4.8,3.3,6.8c4.3,4.6,11.3,7.6,11.3,7.6V24.4H10.8z"/>
	<path opacity="0.7" fill="#FFFFFF" d="M25.3,44.9c0,0,14.6-6.4,14.6-14.4v-6.1H25.3V44.9z"/>
	<path opacity="0.7" fill="#FFFFFF" d="M25.3,5.1C25.3,5.1,25.3,5.1,25.3,5.1c0,0-2,5-14.6,5v14.3h14.6V5.1z"/>
	<path opacity="0.3" fill="#FFFFFF" d="M35.5,9.9c-8.7-1-10.2-4.7-10.2-4.7v19.2h14.6V10.1C38.3,10.1,36.8,10,35.5,9.9z"/>
</g>
</svg>
