<?xml version="1.0" encoding="utf-8"?>
<!-- Generator: Adobe Illustrator 17.1.0, SVG Export Plug-In . SVG Version: 6.00 Build 0)  -->
<!DOCTYPE svg PUBLIC "-//W3C//DTD SVG 1.1//EN" "http://www.w3.org/Graphics/SVG/1.1/DTD/svg11.dtd">
<svg version="1.1" id="Layer_1" xmlns="http://www.w3.org/2000/svg" xmlns:xlink="http://www.w3.org/1999/xlink" x="0px" y="0px"
	 width="50px" height="50px" viewBox="0 0 50 50" enable-background="new 0 0 50 50" xml:space="preserve">
<path fill="#A0A1A2" d="M50,42.6v-8.3H0v8.3h0.1c-0.3,1.3,0.9,2.6,2.7,2.6h44.6C49.1,45.2,50.3,43.9,50,42.6L50,42.6z"/>
<path fill="#A0A1A2" d="M49.9,34c0.3,1.3-0.9,2.6-2.7,2.6H2.7c-1.8,0-3-1.3-2.7-2.6L6.9,6.3C7,5.7,8.2,5,9.4,5h31.1
	c1.3,0,2.4,0.6,2.6,1.3L49.9,34z"/>
<path opacity="0.4" fill="#FFFFFF" enable-background="new    " d="M49.9,34L43.1,6.3C42.9,5.6,41.8,5,40.5,5H9.4
	C8.2,5,7,5.7,6.9,6.3L0.1,34c-0.3,1.3,0.9,2.6,2.7,2.6h44.6C49.1,36.6,50.3,35.3,49.9,34z M43.3,33.3H6.7c-1.5,0-2.4-1-2.2-2.1
	l5.6-22c0.1-0.5,1.1-1,2.1-1h25.5c1,0,2,0.5,2.1,1l5.6,22C45.7,32.3,44.8,33.3,43.3,33.3z"/>
<polygon opacity="0.75" fill="#1E1E1E" enable-background="new    " points="38.1,39.8 38.1,41.4 34,41.4 34,39.8 32.6,39.8 
	32.6,41.4 28.5,41.4 28.5,39.8 27,39.8 27,41.4 23,41.4 23,39.8 21.5,39.8 21.5,41.4 17.4,41.4 17.4,39.8 16,39.8 16,41.4 
	11.9,41.4 11.9,39.8 10.4,39.8 10.4,41.4 10.4,42.5 11.9,42.5 16,42.5 17.4,42.5 21.5,42.5 23,42.5 27,42.5 28.5,42.5 32.6,42.5 
	34,42.5 38.1,42.5 38.4,42.5 39.6,42.5 39.6,39.8 "/>
<path fill="#FCD116" d="M29.9,10.6h-8.2l-3.5,11c-0.1,0.3,0,0.5,0.3,0.5h3.8c0.1,0,0.2,0,0.3,0.1c0.1,0.1,0.1,0.2,0.1,0.4l-4,9.6
	c-0.1,0.3,0,0.3,0.1,0.1L31.5,18c0.2-0.2,0.1-0.4-0.2-0.4l-4.1,0h-0.8c-0.3,0-0.4-0.2-0.3-0.4L29.9,10.6z"/>
<path opacity="0.3" fill="#FF8C00" d="M31.3,17.6l-2.5,0l-9.4,14.1L31.5,18C31.7,17.8,31.6,17.6,31.3,17.6z"/>
<g opacity="0.3">
	<path fill="#FF8C00" d="M29.9,10.6h-2.4l-3.4,7h2.3c-0.2,0-0.3-0.2-0.2-0.4L29.9,10.6z"/>
</g>
</svg>
