<?xml version="1.0" encoding="utf-8"?>
<!-- Generator: Adobe Illustrator 17.1.0, SVG Export Plug-In . SVG Version: 6.00 Build 0)  -->
<!DOCTYPE svg PUBLIC "-//W3C//DTD SVG 1.1//EN" "http://www.w3.org/Graphics/SVG/1.1/DTD/svg11.dtd">
<svg version="1.1" id="Layer_1" xmlns="http://www.w3.org/2000/svg" xmlns:xlink="http://www.w3.org/1999/xlink" x="0px" y="0px"
	 height="50px" width="50px" viewBox="0 0 50 50" enable-background="new 0 0 50 50" xml:space="preserve">
<rect x="11.5" y="39.1" fill="#7A7A7A" width="20.1" height="4.5"/>
<polygon fill="#7A7A7A" points="34.7,28.3 34.7,45.9 9,45.9 9,28.3 4.9,28.3 4.9,50 4.9,50 8.9,50 34.8,50 38.1,50 38.7,50 
	38.7,28.3 "/>
<rect x="11.9" y="32.9" transform="matrix(0.9973 7.275449e-002 -7.275449e-002 0.9973 2.6117 -1.5033)" fill="#7A7A7A" width="20.1" height="4.5"/>
<rect x="11.9" y="32.9" transform="matrix(0.9973 7.275449e-002 -7.275449e-002 0.9973 2.6117 -1.5033)" opacity="0.1" fill="#FF8C00" width="20.1" height="4.5"/>
<rect x="13.2" y="25.7" transform="matrix(0.9675 0.253 -0.253 0.9675 7.8182 -4.9641)" fill="#7A7A7A" width="20.1" height="4.5"/>
<rect x="13.2" y="25.7" transform="matrix(0.9675 0.253 -0.253 0.9675 7.8182 -4.9641)" opacity="0.35" fill="#FF8C00" width="20.1" height="4.5"/>
<rect x="16.2" y="18.1" transform="matrix(0.8625 0.5061 -0.5061 0.8625 13.9059 -10.4579)" fill="#7A7A7A" width="20.1" height="4.5"/>
<rect x="16.2" y="18.1" transform="matrix(0.8625 0.5061 -0.5061 0.8625 13.9059 -10.4579)" opacity="0.75" fill="#FF8C00" width="20.1" height="4.5"/>
<rect x="22.7" y="11.4" transform="matrix(0.5617 0.8273 -0.8273 0.5617 25.6371 -21.0869)" fill="#FF8C00" width="20.1" height="4.5"/>
<rect x="31.2" y="8" transform="matrix(0.1622 0.9868 -0.9868 0.1622 44.7019 -32.1242)" fill="#FF8C00" width="20.1" height="4.5"/>
<rect x="31.2" y="8" transform="matrix(0.1622 0.9868 -0.9868 0.1622 44.7019 -32.1242)" opacity="0.4" fill="#DD5900" width="20.1" height="4.5"/>
</svg>
