<?xml version="1.0" encoding="utf-8"?>
<!-- Generator: Adobe Illustrator 17.1.0, SVG Export Plug-In . SVG Version: 6.00 Build 0)  -->
<!DOCTYPE svg PUBLIC "-//W3C//DTD SVG 1.1//EN" "http://www.w3.org/Graphics/SVG/1.1/DTD/svg11.dtd">
<svg version="1.1" id="Layer_1" xmlns="http://www.w3.org/2000/svg" xmlns:xlink="http://www.w3.org/1999/xlink" x="0px" y="0px"
	 height="50px" width="50px" viewBox="0 0 50 50" enable-background="new 0 0 50 50" xml:space="preserve">
<path fill="#A0A1A2" d="M0,44.4c0,1,0.8,1.9,1.8,1.9h46.3c1,0,1.9-0.8,1.9-1.9l0-33.1H0V44.4z"/>
<path fill="#7A7A7A" d="M48.1,3.7H1.8C0.8,3.7,0,4.5,0,5.6v5.7h50l0-5.7C50,4.5,49.2,3.7,48.1,3.7"/>
<path opacity="0.8" fill="#FFFFFF" d="M38,20.9v-2.4H22.8l-3.6-3.6H9.7v26.3c0,0.8,0.6,1.4,1.4,1.4l0,0h27.2c0.8,0,1.4-0.6,1.4-1.4
	V20.9H38z"/>
<path fill="#0072C6" d="M12.5,20.9v20.3c0,0.8-0.6,1.4-1.4,1.4c-0.8,0-1.4-0.6-1.4-1.4V14.9h9.6l3.6,3.6H38v2.4H12.5z"/>
<path opacity="0.2" fill="#FFFFFF" d="M2,3.7c-1.1,0-2,0.9-2,2V13v3.3v28c0,1.1,0.9,2,2,2h2.2L43.6,3.7H2z"/>
</svg>
