<?xml version="1.0" encoding="utf-8"?>
<!-- Generator: Adobe Illustrator 17.1.0, SVG Export Plug-In . SVG Version: 6.00 Build 0)  -->
<!DOCTYPE svg PUBLIC "-//W3C//DTD SVG 1.1//EN" "http://www.w3.org/Graphics/SVG/1.1/DTD/svg11.dtd">
<svg version="1.1" id="Layer_1" xmlns="http://www.w3.org/2000/svg" xmlns:xlink="http://www.w3.org/1999/xlink" x="0px" y="0px"
	 height="50px" width="50px" viewBox="0 0 50 50" enable-background="new 0 0 50 50" xml:space="preserve">
<g>
	<path fill="#7A7A7A" d="M32.4,38.5h-1.2H19.4h-0.6c1.6,5.8-0.6,6.6-10.2,6.6v3h12.2h8.9h11.5v-3C31.7,45.1,30.8,44.3,32.4,38.5"/>
	<path fill="#A0A1A2" d="M47,2H2.7C1.2,2,0,3.3,0,4.8v30.9c0,1.5,1.2,2.8,2.7,2.8H47c1.5,0,3-1.3,3-2.8V4.8C50,3.3,48.5,2,47,2
		 M46.2,5.8v28.8H3.8V5.8l42.4-0.1L46.2,5.8z"/>
	<polygon fill="#59B4D9" points="46.1,5.8 46.1,34.7 3.8,34.7 3.8,5.8 46.2,5.8 	"/>
	<path opacity="0.2" fill="#FFFFFF" d="M3.8,34.7L3.8,34.7L3.8,5.8l38.7-0.1L47,2c0,0,0,0,0,0H2.7C1.2,2,0,3.3,0,4.8v30.9
		c0,1.5,1.2,2.8,2.7,2.8h1.1l4.6-3.8H3.8z"/>
	<polygon fill="#59B4D9" points="3.8,34.7 3.8,34.7 3.8,5.8 42.5,5.8 42.5,5.8 3.8,5.8 	"/>
	<path fill="#B8D432" d="M25.5,4.1c0,0.4-0.3,0.7-0.7,0.7c-0.4,0-0.7-0.3-0.7-0.7c0-0.4,0.3-0.7,0.7-0.7C25.2,3.4,25.5,3.7,25.5,4.1
		"/>
</g>
<g>
	<polygon fill-rule="evenodd" clip-rule="evenodd" fill="#FFFFFF" points="14.2,34.7 15,32.7 18,27.8 19.7,25.1 18.8,21.2 
		18.2,18.4 19.6,15.5 26.3,13.8 28.5,15.4 30.3,18.7 29.3,25.6 32.6,34.1 32.9,34.7 	"/>
	<g>
		<path fill-rule="evenodd" clip-rule="evenodd" fill="#FCD116" d="M28.8,24.9c0,0,2.7-0.5,2.4-2.8c-0.3-2-2.5-0.6-3.6-0.8
			c-1.1-0.2-1.6-0.5-1.6-0.5s-0.8-0.1-1.2-0.4c-0.4-0.3-0.5-0.4-0.7-0.4c-0.2,0-0.7,0.1-0.9,0.1c-0.2,0.1-1.1,0.7-1.4,0.9
			c-0.3,0.2-1.4,0.8-1.6,0.9c-0.1,0.1-1.4,1.1-0.9,1.6c0.5,0.5,1.1,2.6,1.7,2.9c0.7,0.4,1.6,0.7,2.2,0.6c2.1-0.1,3.3-0.6,3.3-0.6
			S28.3,25.9,28.8,24.9z"/>
		<g>
			<path fill-rule="evenodd" clip-rule="evenodd" fill="#1E1E1E" d="M13,34.7c0.7-1.6,1.5-3.1,2.5-4.4c1.4-1.9,3.3-3.6,2.9-7.5
				c-0.1-1.5-0.8-2.9-0.9-4.3c0-2.2,1-4.7,2.4-5.8c3.1-2.6,8.6-1.7,10.6,1.2c0.7,1,1.2,2.8,1.4,4.1c0.4,3.9,0.4,7.6,2.4,10.8
				c1.2,1.9,2.9,3.6,3.9,6l-7,0c-0.4-0.8-0.8-1.6-1.1-2.5c-0.4-1-0.8-2.2-1.2-3.3c-0.5-1.2-0.7-2.6-1.2-3.3c-0.2-0.3,2.7-1,2.7-2.8
				c-0.3-2-2.3-1.3-3.1-1.5c0.8-0.7,2-1.8,1.8-3.1c-0.2-1-1.8-2.3-3.4-1.6c-1.2,0.5-1.1,2.5-1.3,3.7c-0.7-0.1-1.5,0.1-1.5-0.2
				c-0.1-1.5-0.3-3.1-1.7-3.2c-2.4-0.2-3.9,2.6-0.9,4.9c-0.3,0.5-1,0.5-0.9,1.4c2.2,2.7,6.1,0.3,8.9-0.3c-2,1.3-5.1,2.5-8.3,1.6
				c-0.2,1.8,1.9,2.7,2.8,2.6c1.5,0,3.6-0.3,4.6-1.2c-1.8,1.5-4.6,2-7.3,0.7c-1.1,3.2-3.5,5.2-5,8L13,34.7z"/>
			<path fill-rule="evenodd" clip-rule="evenodd" fill="#1E1E1E" d="M27.2,19.3c0.2,1.1-0.5,1.4-0.8,1.9c-0.4-0.1-0.7-0.3-1.1-0.4
				C25.2,19.6,26.3,18.2,27.2,19.3z"/>
			<path fill-rule="evenodd" clip-rule="evenodd" fill="#1E1E1E" d="M22.2,20.8c-0.3,0.2-0.6,0.4-0.9,0.5c-0.5-0.4-1-0.8-0.9-1.4
				C20.7,18.7,22.3,19.3,22.2,20.8z"/>
		</g>
	</g>
</g>
</svg>
