<?xml version="1.0" encoding="utf-8"?>
<!-- Generator: Adobe Illustrator 17.0.1, SVG Export Plug-In . SVG Version: 6.00 Build 0)  -->
<!DOCTYPE svg PUBLIC "-//W3C//DTD SVG 1.1//EN" "http://www.w3.org/Graphics/SVG/1.1/DTD/svg11.dtd">
<svg version="1.1" id="Layer_1" xmlns="http://www.w3.org/2000/svg" xmlns:xlink="http://www.w3.org/1999/xlink" x="0px" y="0px"
	 width="50px" height="50px" viewBox="0 0 50 50" enable-background="new 0 0 50 50" xml:space="preserve">
<polygon fill="#B8D432" points="50,43.012 0,43.012 6,32.012 44,32.012 "/>
<path fill="#59B4D9" d="M35.387,34.763c-3.069,2.347-6.684,3.489-10.274,3.489c-5.094,0-10.131-2.287-13.46-6.64
	C5.966,24.186,7.37,13.566,14.809,7.876c3.067-2.361,6.687-3.487,10.273-3.487c5.094,0,10.132,2.287,13.46,6.645
	C44.23,18.457,42.812,29.079,35.387,34.763"/>
<path fill="#FFFFFF" d="M32.276,24.289c1.23,1.604,3.513,1.894,5.108,0.68c0.083-0.063,0.148-0.141,0.224-0.209
	c1.632,1.149,2.901,2.001,3.54,2.436c0.189-0.49,0.315-0.954,0.449-1.445c-0.675-0.502-1.718-1.303-3.037-2.372
	c0.433-1.138,0.296-2.465-0.494-3.503c-1.13-1.463-3.133-1.835-4.698-0.933c-1.725-1.547-3.619-3.32-5.617-5.306
	c6.208-3.339,10.619-2.85,10.619-2.85c-0.736-0.939-1.562-1.761-2.443-2.504c-2.618-0.404-6.685-0.359-11.332,2.113l-0.002-0.002
	l-0.001,0c-1.549-1.621-3.125-3.358-4.73-5.224c-0.768,0.246-1.519,0.55-2.244,0.912c1.185,1.939,2.779,3.894,4.575,5.802h0
	c0.007,0.007,0.014,0.014,0.021,0.021c-1.491,1.046-3.188,2.452-4.713,4.065c-0.196,0.209-0.385,0.42-0.571,0.631
	c-0.919-0.192-1.886-0.136-2.789,0.191c-1.534-3.309-1.411-5.967-1.168-7.337c-0.666,0.698-1.288,1.431-1.824,2.213
	c-0.4,1.637-0.514,3.996,0.667,6.839c-1.368,1.79-1.432,4.328-0.004,6.2c0.119,0.155,0.246,0.299,0.379,0.437
	c-0.624,2.125-0.903,4.175-0.989,5.935c0.161,0.218,0.161,0.394,0.32,0.607c0.812,1.042,1.839,2.027,2.824,2.822
	c-0.122-1.862,0.003-4.717,1.155-7.81c0.795,0.06,1.603-0.065,2.359-0.383c0.434,0.382,0.887,0.767,1.372,1.159
	c1.661,1.315,3.319,2.339,4.935,3.145c-0.084,0.822,0.122,1.676,0.656,2.383c1.141,1.474,3.255,1.749,4.73,0.622
	c0.307-0.235,0.549-0.519,0.75-0.824c2.635,0.587,4.936,0.69,6.643,0.69c0.261,0,1.475-1.65,2.17-2.673
	c-1.039,0.218-4.121,0.641-8.332-0.569c-0.102-0.472-0.296-0.932-0.608-1.341c-1.07-1.402-3.026-1.705-4.483-0.767
	c-1.464-0.794-2.997-1.789-4.578-3.041c-0.319-0.252-0.625-0.505-0.92-0.757c0.966-1.522,1.069-3.473,0.216-5.114
	c0.194-0.194,0.384-0.388,0.59-0.581c1.565-1.462,3.038-2.633,4.416-3.573c-0.042-0.038-0.078-0.114-0.118-0.153
	c0.041,0.038,0.079,0.08,0.12,0.08h-0.001c2.114,2,4.356,3.843,6.479,5.498C31.334,21.688,31.422,23.173,32.276,24.289z"/>
<rect y="43" fill="#7A7A7A" width="50" height="3"/>
<rect y="43" opacity="0.5" fill="#DD5900" width="50" height="3"/>
</svg>
