<?xml version="1.0" encoding="utf-8"?>
<!-- Generator: Adobe Illustrator 17.1.0, SVG Export Plug-In . SVG Version: 6.00 Build 0)  -->
<!DOCTYPE svg PUBLIC "-//W3C//DTD SVG 1.1//EN" "http://www.w3.org/Graphics/SVG/1.1/DTD/svg11.dtd">
<svg version="1.1" id="Layer_1" xmlns="http://www.w3.org/2000/svg" xmlns:xlink="http://www.w3.org/1999/xlink" x="0px" y="0px"
	 height="50px" width="50px" viewBox="0 0 50 50" enable-background="new 0 0 50 50" xml:space="preserve">
<path fill="#59B4D9" d="M33.1,39c-3.7,2.9-8.1,4.2-12.5,4.2c-6.2,0-12.3-2.8-16.4-8.1c-6.9-9-5.2-22,3.8-28.9
	C11.8,3.4,16.2,2,20.6,2c6.2,0,12.3,2.8,16.4,8.1C43.9,19.1,42.2,32.1,33.1,39"/>
<path fill="#FFFFFF" d="M29.4,26.2c1.5,2,4.3,2.3,6.2,0.8c0.1-0.1,0.2-0.2,0.3-0.3c2,1.4,3.5,2.4,4.3,3c0.2-0.6,0.4-1.2,0.5-1.8
	c-0.8-0.6-2.1-1.6-3.7-2.9c0.5-1.4,0.4-3-0.6-4.3c-1.4-1.8-3.8-2.2-5.7-1.1c-2.1-1.9-4.4-4-6.8-6.5C31.5,9,36.8,9.6,36.8,9.6
	c-0.9-1.1-1.9-2.1-3-3C30.6,6.2,25.7,6.3,20,9.3l0,0l0,0c-1.9-2-3.8-4.1-5.8-6.4c-0.9,0.3-1.8,0.7-2.7,1.1c1.4,2.3,3.4,4.7,5.5,7
	c-1.8,1.3-3.8,3-5.7,5c-0.2,0.3-0.5,0.5-0.7,0.8c-1.1-0.2-2.3-0.2-3.4,0.2c-1.9-4-1.7-7.3-1.4-8.9C5,9,4.3,9.9,3.6,10.9
	c-0.5,2-0.6,4.9,0.8,8.3c-1.7,2.2-1.7,5.3,0,7.5c0.1,0.2,0.3,0.4,0.5,0.5c-0.8,2.6-1.1,5.1-1.2,7.2c0.2,0.3,0.2,0.5,0.4,0.7
	c1,1.3,2.2,2.5,3.4,3.4c-0.1-2.3,0-5.7,1.4-9.5c1,0.1,2-0.1,2.9-0.5c0.5,0.5,1.1,0.9,1.7,1.4c2,1.6,4,2.8,6,3.8
	c-0.1,1,0.1,2,0.8,2.9c1.4,1.8,4,2.1,5.8,0.8c0.4-0.3,0.7-0.6,0.9-1c3.2,0.7,6,0.8,8.1,0.8c0.3,0,1.8-2,2.6-3.3
	c-1.3,0.3-5,0.8-10.1-0.7c-0.1-0.6-0.4-1.1-0.7-1.6c-1.3-1.7-3.7-2.1-5.5-0.9c-1.8-1-3.6-2.2-5.6-3.7c-0.4-0.3-0.8-0.6-1.1-0.9
	c1.2-1.9,1.3-4.2,0.3-6.2c0.2-0.2,0.5-0.5,0.7-0.7c1.9-1.8,3.7-3.2,5.4-4.3c-0.1-0.1-0.1-0.1-0.2-0.2c0.1,0.1,0.1,0.1,0.2,0.2l0,0
	c2.6,2.4,5.3,4.6,7.9,6.7C28.2,23.1,28.3,24.9,29.4,26.2z"/>
<path fill="#804998" d="M45,45v-3.1c0-1.5-1.3-2.8-2.8-2.8h-3.7L35,35.6v-5.4h-3.8v6c0,0.5,0.3,1,0.5,1.4l4.5,4.4v2.9
	c0,1.5,1.3,2.8,2.8,2.8h3.2C43.7,47.8,45,46.5,45,45 M38.9,45.3c-0.1,0-0.3-0.1-0.3-0.3v-3.1c0-0.1,0.1-0.3,0.3-0.3h3.2
	c0.1,0,0.3,0.1,0.3,0.3V45c0,0.1-0.1,0.3-0.3,0.3H38.9z"/>
<path fill="#68217A" d="M28.7,30.2H29l0,0h12l0,0h0.3c0.1,1.4,1.4,2.5,2.8,2.5h3.2c1.5,0,2.8-1.3,2.8-2.8v-3.1
	c0-1.5-1.3-2.8-2.8-2.8h-3.2c-1.5,0-2.6,1.1-2.8,2.5H28.7c-0.1-1.4-1.4-2.5-2.8-2.5h-3.2c-1.5,0-2.8,1.3-2.8,2.8v3.1
	c0,1.5,1.3,2.8,2.8,2.8h3.2C27.4,32.7,28.6,31.6,28.7,30.2 M44.1,26.4h3.2c0.1,0,0.3,0.1,0.3,0.3v3.1c0,0.1-0.1,0.3-0.3,0.3h-3.2
	c-0.1,0-0.3-0.1-0.3-0.3v-3.1C43.8,26.5,44,26.4,44.1,26.4 M22.5,30.2c-0.1,0-0.3-0.1-0.3-0.3v-3.1c0-0.1,0.1-0.3,0.3-0.3h3.2
	c0.1,0,0.3,0.1,0.3,0.3v3.1c0,0.1-0.1,0.3-0.3,0.3H22.5z"/>
</svg>
