<?xml version="1.0" encoding="utf-8"?>
<!-- Generator: Adobe Illustrator 17.0.1, SVG Export Plug-In . SVG Version: 6.00 Build 0)  -->
<!DOCTYPE svg PUBLIC "-//W3C//DTD SVG 1.1//EN" "http://www.w3.org/Graphics/SVG/1.1/DTD/svg11.dtd">
<svg version="1.1" id="Layer_1" xmlns="http://www.w3.org/2000/svg" xmlns:xlink="http://www.w3.org/1999/xlink" x="0px" y="0px"
	 width="50px" height="50px" viewBox="0 0 50 50" enable-background="new 0 0 50 50" xml:space="preserve">
<path fill="#3E3E3E" d="M40.771,43.034c0,0.687-0.557,1.243-1.243,1.243H11.475c-0.686,0-1.243-0.557-1.243-1.243
	c0-0.687,0.557-1.243,1.243-1.243h28.053C40.214,41.791,40.771,42.348,40.771,43.034"/>
<path fill="#3E3E3E" d="M28.683,48.758c0,0.687-0.557,1.242-1.243,1.242H11.474c-0.686,0-1.242-0.555-1.242-1.242
	c0-0.687,0.557-1.243,1.242-1.243H27.44C28.126,47.515,28.683,48.071,28.683,48.758"/>
<path fill="#3E3E3E" d="M40.612,31.237c0,0.687-0.557,1.243-1.243,1.243H11.474c-0.686,0-1.242-0.557-1.242-1.243
	c0-0.685,0.557-1.243,1.242-1.243h27.895C40.055,29.994,40.612,30.552,40.612,31.237"/>
<path fill="#3E3E3E" d="M35.349,36.961c0,0.687-0.557,1.243-1.243,1.243H11.474c-0.686,0-1.242-0.557-1.242-1.243
	c0-0.687,0.557-1.243,1.242-1.243h22.631C34.792,35.718,35.349,36.275,35.349,36.961"/>
<path fill="#59B4D9" d="M46.4,22.105c0-2.799-2.247-5.067-5.022-5.067c-0.209,0-0.415,0.016-0.613,0.043
	c0.306-1.138,0.476-2.335,0.476-3.572C41.24,6.048,35.243,0,27.846,0c-5.91,0-10.921,3.859-12.7,9.217
	c-0.938-0.33-1.941-0.516-2.99-0.516C7.095,8.701,3,12.836,3,17.936c0,5.103,4.095,9.238,9.155,9.238c0,0,0.009-0.004,0.013-0.004
	v0.004h29.617l-0.005-0.025C44.364,26.945,46.4,24.768,46.4,22.105"/>
<path opacity="0.2" fill="#FFFFFF" d="M17.019,27.174c-1.204-1.196-2.101-2.734-2.508-4.517c-1.135-4.972,1.937-9.915,6.87-11.041
	c1.023-0.234,2.042-0.276,3.03-0.163c0.448-4.645,3.281-8.776,7.502-10.815C30.629,0.226,29.264,0,27.846,0
	c-5.91,0-10.921,3.859-12.7,9.217c-0.938-0.33-1.941-0.516-2.99-0.516C7.095,8.701,3,12.836,3,17.936
	c0,5.103,4.095,9.238,9.155,9.238c0,0,0.009-0.004,0.013-0.004v0.004H17.019z"/>
</svg>
