<?xml version="1.0" encoding="utf-8"?>
<!-- Generator: Adobe Illustrator 17.0.1, SVG Export Plug-In . SVG Version: 6.00 Build 0)  -->
<!DOCTYPE svg PUBLIC "-//W3C//DTD SVG 1.1//EN" "http://www.w3.org/Graphics/SVG/1.1/DTD/svg11.dtd">
<svg version="1.1" id="Layer_1" xmlns="http://www.w3.org/2000/svg" xmlns:xlink="http://www.w3.org/1999/xlink" x="0px" y="0px"
	 width="50px" height="50px" viewBox="0 0 50 50" enable-background="new 0 0 50 50" xml:space="preserve">
<path fill="#A0A1A2" d="M42.744,50H7.256c-3.27,0-5.93-2.66-5.93-5.93v-9.863c0-0.864,0.699-1.563,1.563-1.563
	s1.563,0.699,1.563,1.563v9.863c0,1.546,1.259,2.805,2.805,2.805h35.489c1.546,0,2.805-1.259,2.805-2.805v-9.863
	c0-0.864,0.699-1.563,1.563-1.563s1.563,0.699,1.563,1.563v9.863C48.674,47.34,46.014,50,42.744,50z"/>
<rect x="7.006" y="16.691" fill="#59B4D9" width="9.87" height="27.614"/>
<rect x="20.065" y="16.691" fill="#59B4D9" width="9.87" height="27.614"/>
<rect x="33.125" y="16.691" fill="#B8D432" width="9.869" height="27.614"/>
<g>
	<path fill="#B8D432" d="M16.908,11.426C16.908,5.125,22.035,0,28.336,0S39.89,4.784,39.89,11.084c0,0.864-0.699,1.563-1.563,1.563
		s-1.563-0.699-1.563-1.563c0-4.578-3.852-7.959-8.429-7.959s-8.302,3.723-8.302,8.301H16.908z"/>
</g>
<polygon fill="#B8D432" points="44.365,8.782 38.199,14.948 32.033,8.782 "/>
</svg>
