<?xml version="1.0" encoding="utf-8"?>
<!-- Generator: Adobe Illustrator 17.0.1, SVG Export Plug-In . SVG Version: 6.00 Build 0)  -->
<!DOCTYPE svg PUBLIC "-//W3C//DTD SVG 1.1//EN" "http://www.w3.org/Graphics/SVG/1.1/DTD/svg11.dtd">
<svg version="1.1" id="Layer_1" xmlns="http://www.w3.org/2000/svg" xmlns:xlink="http://www.w3.org/1999/xlink" x="0px" y="0px"
	 width="50px" height="50px" viewBox="0 0 50 50" enable-background="new 0 0 50 50" xml:space="preserve">
<path fill="#59B4D9" d="M33.143,38.974c-3.735,2.856-8.137,4.248-12.507,4.248c-6.201,0-12.333-2.784-16.385-8.084
	c-6.923-9.039-5.214-21.967,3.842-28.893C11.827,3.371,16.233,2,20.598,2c6.201,0,12.334,2.784,16.385,8.089
	C43.907,19.125,42.182,32.055,33.143,38.974"/>
<path fill="#59B4D9" d="M33.143,38.974c-3.735,2.856-8.137,4.248-12.507,4.248c-6.201,0-12.333-2.784-16.385-8.084
	c-6.923-9.039-5.214-21.967,3.842-28.893C11.827,3.371,16.233,2,20.598,2c6.201,0,12.334,2.784,16.385,8.089
	C43.907,19.125,42.182,32.055,33.143,38.974"/>
<path fill="#FFFFFF" d="M29.356,26.225c1.497,1.953,4.276,2.305,6.218,0.828c0.101-0.077,0.18-0.171,0.272-0.255
	c1.986,1.399,3.532,2.436,4.309,2.965c0.23-0.596,0.383-1.161,0.547-1.759c-0.821-0.611-2.092-1.586-3.698-2.887
	c0.527-1.385,0.361-3.001-0.602-4.264c-1.376-1.781-3.814-2.234-5.719-1.136c-2.1-1.884-4.406-4.042-6.838-6.459
	c7.557-4.064,12.927-3.469,12.927-3.469c-0.896-1.143-1.901-2.144-2.973-3.049c-3.187-0.492-8.138-0.437-13.795,2.572l-0.002-0.003
	l-0.001,0c-1.885-1.973-3.804-4.088-5.758-6.359c-0.935,0.299-1.849,0.67-2.731,1.111c1.442,2.36,3.383,4.741,5.57,7.063h0
	c0,0,0,0,0,0c-1.822,1.275-3.841,2.994-5.713,4.974c-0.239,0.255-0.469,0.511-0.695,0.768C9.556,16.632,8.38,16.7,7.281,17.098
	C5.413,13.07,5.563,9.835,5.858,8.166c-0.811,0.849-1.568,1.742-2.22,2.694c-0.487,1.992-0.626,4.864,0.812,8.325
	c-1.665,2.179-1.743,5.269-0.004,7.548c0.145,0.189,0.3,0.364,0.461,0.532c-0.76,2.587-1.099,5.082-1.204,7.225
	c0.195,0.266,0.195,0.48,0.389,0.739c0.989,1.268,2.238,2.467,3.438,3.435c-0.149-2.267,0.003-5.742,1.406-9.507
	c0.967,0.073,1.951-0.079,2.872-0.467c0.528,0.465,1.08,0.934,1.67,1.411c2.022,1.601,4.041,2.847,6.007,3.829
	c-0.102,1.001,0.149,2.04,0.798,2.901c1.39,1.794,3.962,2.129,5.758,0.758c0.374-0.286,0.669-0.632,0.913-1.003
	c3.207,0.714,6.009,0.84,8.086,0.84c0.318,0,1.795-2.009,2.641-3.254c-1.265,0.265-5.016,0.78-10.143-0.693
	c-0.124-0.575-0.36-1.134-0.741-1.633c-1.302-1.707-3.683-2.076-5.457-0.934c-1.782-0.967-3.648-2.178-5.572-3.702
	c-0.388-0.307-0.761-0.615-1.12-0.922c1.176-1.853,1.301-4.228,0.262-6.225c0.236-0.236,0.468-0.473,0.719-0.707
	c1.906-1.78,3.698-3.205,5.376-4.349c-0.066-0.062-0.126-0.127-0.192-0.189c0.066,0.061,0.128,0.123,0.194,0.184
	c0,0-0.001,0.001-0.002,0.001c2.573,2.38,5.302,4.635,7.887,6.65C28.209,23.101,28.316,24.866,29.356,26.225z"/>
<path fill="#A0A1A2" d="M49.625,45.229l-8.023-13.897v-5.625h0.145c0.96,0,1.738-0.778,1.738-1.738s-0.778-1.738-1.738-1.738h-8.754
	c-0.96,0-1.738,0.778-1.738,1.738s0.778,1.738,1.738,1.738h0.145v5.625l-8.023,13.897c-0.88,1.524-0.16,2.771,1.6,2.771h21.311
	C49.785,48,50.504,46.753,49.625,45.229z"/>
<path fill="#B8D432" d="M43.016,39.247h-3.767c0.104,0.214,0.165,0.454,0.165,0.708c0,0.894-0.725,1.619-1.619,1.619
	s-1.619-0.725-1.619-1.619c0-0.254,0.06-0.494,0.165-0.708h-4.619l-3.31,5.734h17.915L43.016,39.247z"/>
<path fill="#7FBA00" d="M37.795,41.574c0.894,0,1.619-0.725,1.619-1.619c0-0.254-0.06-0.494-0.165-0.708h-2.908
	c-0.104,0.214-0.165,0.454-0.165,0.708C36.176,40.85,36.901,41.574,37.795,41.574z"/>
<circle fill="#7FBA00" cx="39.804" cy="42.824" r="0.794"/>
<path opacity="0.25" fill="#FFFFFF" d="M25.114,45.229l8.023-13.897v-5.625h-0.145c-0.96,0-1.738-0.778-1.738-1.738
	s0.778-1.738,1.738-1.738h3.772v9.056L32.536,48h-5.822C24.954,48,24.234,46.753,25.114,45.229z"/>
</svg>
