<?xml version="1.0" encoding="utf-8"?>
<!-- Generator: Adobe Illustrator 17.1.0, SVG Export Plug-In . SVG Version: 6.00 Build 0)  -->
<!DOCTYPE svg PUBLIC "-//W3C//DTD SVG 1.1//EN" "http://www.w3.org/Graphics/SVG/1.1/DTD/svg11.dtd">
<svg version="1.1" id="Layer_1" xmlns="http://www.w3.org/2000/svg" xmlns:xlink="http://www.w3.org/1999/xlink" x="0px" y="0px"
	 width="50px" height="50px" viewBox="0 0 50 50" enable-background="new 0 0 50 50" xml:space="preserve">
<path fill="#3E3E3E" d="M36,7.6c0,0-0.5,0-0.8,0.3s-2,1.7-3.3,2.3c-0.7,0.3-1.2,0.7-1.5,0.7C29.7,11,28,11.2,25,11.2
	s-4.7-0.2-5.3-0.3c-0.3-0.2-0.8-0.3-1.5-0.7c-1.2-0.7-3-2.2-3.3-2.3c-0.3-0.3-0.8-0.3-0.8-0.3c-1.3,0.2-2.5,0.3-3.7,0.7
	c-2,0.7-3.5,1.7-3.5,1.7s-4,9.1-5,13.3c-1.3,6-2.7,11.8-1.5,16c0.3,1.5,1.2,3.3,3.8,3.3l0,0c2.3,0,7.6-5.2,10.3-7.5
	c2.3-2,4.7-2.3,10.5-2.3S33.2,33,35.5,35c2.5,2.3,8,7.3,10.1,7.5h0.2c2.8,0,3.5-1.8,3.8-3.2c1-4.2-0.2-10-1.5-16
	c-1-4.2-5-13.3-5-13.3s-1.5-1-3.5-1.7C38.5,7.9,37.3,7.7,36,7.6z"/>
<path fill="#A0A1A2" d="M14.1,16.3c-2.8,0-5,2.2-5,5s2.2,5,5,5s5-2.2,5-5S16.8,16.3,14.1,16.3z M14.1,24.2c-1.6,0-2.9-1.3-2.9-2.9
	c0-1.6,1.3-2.9,2.9-2.9s2.9,1.3,2.9,2.9C17,22.8,15.6,24.2,14.1,24.2z"/>
<circle fill="#0072C6" cx="32.1" cy="20.8" r="2.1"/>
<circle fill="#BA141A" cx="40.8" cy="20.8" r="2.1"/>
<circle fill="#FCD116" cx="36.4" cy="16.4" r="2.1"/>
<circle fill="#7FBA00" cx="36.4" cy="25.2" r="2.1"/>
<path fill="#3E3E3E" d="M14.1,24.9c-2,0-3.7-1.7-3.7-3.7s1.7-3.7,3.7-3.7s3.7,1.7,3.7,3.7S16.1,24.9,14.1,24.9z"/>
</svg>
