<?xml version="1.0" encoding="utf-8"?>
<!-- Generator: Adobe Illustrator 18.1.0, SVG Export Plug-In . SVG Version: 6.00 Build 0)  -->
<!DOCTYPE svg PUBLIC "-//W3C//DTD SVG 1.0//EN" "http://www.w3.org/TR/2001/REC-SVG-20010904/DTD/svg10.dtd">
<svg version="1.0" id="Layer_1" xmlns="http://www.w3.org/2000/svg" xmlns:xlink="http://www.w3.org/1999/xlink" x="0px" y="0px"
	 viewBox="0 0 156.5 120.9" enable-background="new 0 0 156.5 120.9" xml:space="preserve">
<g>
	<path fill="#B92025" d="M86.2,46.6c-4.1,0-10.9,0.9-11.1,4.2c0,0.1,0,0.1,0,0.2v20.9c0,0.1,0,0.1,0,0.2c0.2,3.3,7.1,4.2,11.1,4.2
		c4,0,10.8-0.9,11.1-4.1c0-0.1,0-0.2,0-0.3V51c0-0.1,0-0.2,0-0.3C97,47.5,90.3,46.6,86.2,46.6z M86.2,47.7c5.4,0,9.8,1.4,9.8,3.1
		c0,1.7-4.4,3.1-9.8,3.1s-9.8-1.4-9.8-3.1C76.4,49.1,80.8,47.7,86.2,47.7z M96,72.2c0,1.5-4.4,2.8-9.8,2.8s-9.8-1.2-9.8-2.8v-5.6
		c0,1.5,4.4,2.8,9.8,2.8c4.8,0,8.7-1,9.6-2.2c0.1-0.1,0.2-0.1,0.2,0V72.2z M96,65.2c0,1.5-4.4,2.8-9.8,2.8s-9.8-1.2-9.8-2.8v-5.7
		c0,1.5,4.4,2.8,9.8,2.8c4.8,0,8.7-1,9.6-2.2c0.1-0.1,0.2-0.1,0.2,0.1V65.2z M96,58.3c0,1.5-4.4,2.8-9.8,2.8s-9.8-1.2-9.8-2.8v-5.7
		c0,1.5,4.4,2.8,9.8,2.8c4.8,0,8.7-1,9.6-2.2c0.1-0.1,0.2-0.1,0.2,0.1V58.3z"/>
	<path fill="#B92025" d="M69.4,56.7c0-0.1-0.1-0.2-0.1-0.3c-0.1-0.1-0.1-0.2-0.1-0.3c-0.1-0.1-0.1-0.3-0.1-0.4h-0.1
		c-0.1,0.1-0.1,0.2-0.1,0.3c0,0.1-0.1,0.2-0.1,0.3s-0.1,0.2-0.1,0.3c0,0.1-0.1,0.2-0.1,0.3l-1.2,4.8l2.9,0.1L69.5,57
		C69.5,56.9,69.4,56.8,69.4,56.7z"/>
	<path fill="#B92025" d="M58.9,45.4v30.5l22.5,3.9V41.4L58.9,45.4z M72.2,67.6l-0.8-3.3l-4-0.2l-0.8,3.1L64,67.1l3.9-13.8l3-0.2
		l4.3,14.7L72.2,67.6z"/>
</g>
</svg>
