<?xml version="1.0" encoding="utf-8"?>
<!-- Generator: Adobe Illustrator 19.1.0, SVG Export Plug-In . SVG Version: 6.00 Build 0)  -->
<svg version="1.1" id="Layer_1" xmlns="http://www.w3.org/2000/svg" xmlns:xlink="http://www.w3.org/1999/xlink" x="0px" y="0px"
	 viewBox="192 267.3 71 63" style="enable-background:new 192 267.3 71 63;" xml:space="preserve">
<g>
	<path d="M218.9,315.6c0,1.8-1.4,3.2-3.2,3.2s-3.2-1.4-3.2-3.2v-13.9c0-1.8,1.4-3.2,3.2-3.2s3.2,1.4,3.2,3.2V315.6z"/>
	<path d="M228.3,319.4c0,1.8-1.4,3.2-3.2,3.2s-3.2-1.4-3.2-3.2v-21.3c0-1.8,1.4-3.2,3.2-3.2s3.2,1.4,3.2,3.2V319.4z"/>
	<path d="M209.6,312.5c0,1.8-1.4,3.2-3.2,3.2s-3.2-1.4-3.2-3.2V305c0-1.8,1.4-3.2,3.2-3.2s3.2,1.4,3.2,3.2V312.5z"/>
	<path d="M237.7,322.7c0,1.8-1.4,3.2-3.2,3.2s-3.2-1.4-3.2-3.2v-28.2c0-1.8,1.4-3.2,3.2-3.2s3.2,1.4,3.2,3.2V322.7z"/>
	<path d="M247.9,321.3c-0.5,0-1.1-0.1-1.6-0.3l-4-1.3c-0.7-0.2-1-0.9-0.8-1.6c0.2-0.7,0.9-1,1.6-0.8l4,1.3c0.8,0.3,1.7,0.1,2.4-0.4
		c0.7-0.5,1.1-1.3,1.1-2.2v-25.9c0-1.2-0.8-2.3-1.9-2.6L210.8,276c-0.8-0.3-1.7-0.1-2.4,0.4s-1.1,1.3-1.1,2.2v17.8
		c0,0.7-0.6,1.3-1.3,1.3s-1.3-0.6-1.3-1.3v-17.8c0-1.7,0.8-3.2,2.1-4.3c1.4-1,3.1-1.3,4.7-0.8l37.9,11.5c2.2,0.7,3.8,2.7,3.8,5.1
		V316c0,1.7-0.8,3.3-2.2,4.3C250,321,249,321.3,247.9,321.3"/>
</g>
</svg>
