<?xml version="1.0" encoding="utf-8"?>
<!-- Generator: Adobe Illustrator 19.1.0, SVG Export Plug-In . SVG Version: 6.00 Build 0)  -->
<svg version="1.1" id="Layer_1" xmlns="http://www.w3.org/2000/svg" xmlns:xlink="http://www.w3.org/1999/xlink" x="0px" y="0px"
	 viewBox="-179 373.1 54.3 49" style="enable-background:new -179 373.1 54.3 49;" xml:space="preserve">
<style type="text/css">
	.st0{fill:#2372BA;}
</style>
<g>
	<path class="st0" d="M-133.6,384.8h-16v-7l-22,3.8v29.8l22,3.8v-6.5h16c0.5,0,1-0.4,1-1v-22C-132.6,385.3-133.1,384.8-133.6,384.8z
		 M-157.9,403.3l-5.9-0.5v-12.6l5.5-0.4v2.5l-3.4,0.1v2.9h3.4v2.4h-3.4v2.9l3.8,0.2V403.3z M-133.9,407.5h-15.7v-1.7h1.4
		c0.4,0,0.7-0.3,1.3-1c1-1.2,2.4-3.1,3.3-4.6c0.4-0.6,0.7-1.4,0.8-1.5c0,0,0-0.1-0.1-0.2l-0.2-0.1h-0.2c0,0-4.3,4.4-4.8,4.9
		c-0.1,0.1-0.4,0.1-0.5,0.1h-0.9V397c0.5,0.3,1.2,0.8,1.6,1c0.6,0.4,1.4,0.7,1.5,0.8c0,0,0.1,0,0.2-0.1l0.2-0.2v-0.2
		c0,0-2-2-3.5-3.4v-4.4h1.7c0.1,0,0.2,0,0.3,0.1l1,1c0.1,0,0.1,0,0.2,0l0.8-1.2c0-0.1,0-0.2,0-0.3c0,0-1.8-1.6-1.9-1.8
		c-0.1-0.1-0.2-0.2-0.6-0.2h-1.5v-1.8h15.7v21.2H-133.9z"/>
	<path class="st0" d="M-136.7,399c-1.2-1-3.1-2.4-4.6-3.3c-0.6-0.4-1.4-0.7-1.5-0.8c0,0-0.1,0-0.2,0.1l-0.2,0.2v0.2
		c0,0,4.4,4.3,4.9,4.8c0.1,0.1,0.1,0.4,0.1,0.5v2.2c0,0.1-0.1,0.2-0.2,0.2h-3c-0.1,0-0.2,0-0.3-0.1l-1-1c-0.1,0-0.1,0-0.2,0
		l-0.8,1.2c0,0.1,0,0.2,0,0.3c0,0,1.8,1.6,1.9,1.8c0.1,0.2,0.2,0.2,0.6,0.2h5c0.4,0,0.6-0.2,0.6-0.6v-4.8
		C-135.7,400-136,399.6-136.7,399z"/>
	<path class="st0" d="M-146.5,395c0,0,0,0.1,0.1,0.2l0.2,0.2h0.2c0,0,4.3-4.4,4.8-4.9c0.1-0.1,0.4-0.1,0.5-0.1h2.2
		c0.1,0,0.2,0.1,0.2,0.2v3c0,0.1,0,0.2-0.1,0.3l-1,1c0,0.1,0,0.1,0,0.2l1.2,0.8c0.1,0,0.2,0,0.3,0c0,0,1.6-1.8,1.8-1.9
		s0.2-0.2,0.2-0.6v-5c0-0.4-0.2-0.6-0.6-0.6h-4.7c-0.4,0-0.7,0.3-1.3,1c-1,1.2-2.4,3.1-3.3,4.6C-146.1,394.2-146.5,394.9-146.5,395z
		"/>
</g>
</svg>
