<?xml version="1.0" encoding="utf-8"?>
<!-- Generator: Adobe Illustrator 19.1.0, SVG Export Plug-In . SVG Version: 6.00 Build 0)  -->
<svg version="1.1" id="Layer_1" xmlns="http://www.w3.org/2000/svg" xmlns:xlink="http://www.w3.org/1999/xlink" x="0px" y="0px"
	 viewBox="-179 370.1 53 52" style="enable-background:new -179 370.1 53 52;" xml:space="preserve">
<style type="text/css">
	.st0{fill:#0A72BA;}
	.st1{fill:#2372BA;}
</style>
<g>
	<path class="st0" d="M-129.1,396.5c0-5-4-9.1-8.9-9.1h-1.6l-1.8-2.2c-0.7-1-1.6-1.5-2.6-1.5c-1.7,0-3.1,1.4-3.1,3.1
		c0,0.6,0.2,1.1,0.5,1.6l0.1,0.2c-2.8,1.6-4.7,4.7-4.7,8c0,5,4,9,8.9,9h1.6l1.8,2.3c0.6,1,1.6,1.5,2.7,1.5c1.7,0,3.1-1.4,3.1-3.1
		c0-0.6-0.2-1.1-0.5-1.6l-0.2-0.2C-130.9,402.9-129.1,399.9-129.1,396.5z M-142.3,404.2c-4.3,0-7.8-3.4-7.8-7.8
		c0-3.4,2.2-6.4,5.4-7.4l-1-1.4c-0.2-0.3-0.3-0.6-0.3-1c0-1,0.8-1.8,1.8-1.8c0.7,0,1.2,0.4,1.6,0.9l2.2,2.8l2.8,3.5c0,0-0.3,0-0.6,0
		h-4.1c-2.4,0-4.3,1.9-4.3,4.2c0,1.1,0.5,2.2,1,2.9l4,4.9h-0.7V404.2z M-135.3,396.5c0,1.6-1.3,2.9-2.9,2.9h-3.9
		c-1.6,0-2.9-1.3-2.9-2.9c0-1.6,1.3-2.9,2.9-2.9h3.9C-136.6,393.5-135.3,394.9-135.3,396.5z M-135.8,403.9l1,1.4
		c0.2,0.3,0.3,0.6,0.3,1c0,1-0.8,1.8-1.8,1.8c-0.7,0-1.2-0.4-1.6-0.9l-2.2-2.8l-2.8-3.5c0,0,0.3,0,0.6,0h4.1c2.4,0,4.3-1.9,4.3-4.2
		c0-1.1-0.5-2.2-1-2.9l-4-4.9h0.8c4.3,0,7.8,3.4,7.8,7.8C-130.4,399.9-132.6,402.9-135.8,403.9z"/>
	<path class="st1" d="M-168.5,381.4v30.2l22.3,3.9v-38L-168.5,381.4z M-153.1,403.9l-7.1-0.5v-13.6l2.6-0.2v11.5l4.5,0.1V403.9z"/>
</g>
</svg>
