<?xml version="1.0" encoding="utf-8"?>
<!-- Generator: Adobe Illustrator 19.1.0, SVG Export Plug-In . SVG Version: 6.00 Build 0)  -->
<svg version="1.1" id="Layer_1" xmlns="http://www.w3.org/2000/svg" xmlns:xlink="http://www.w3.org/1999/xlink" x="0px" y="0px"
	 viewBox="-172 375.1 55 46" style="enable-background:new -172 375.1 55 46;" xml:space="preserve">
<style type="text/css">
	.st0{fill:#2372BA;}
</style>
<g>
	<path class="st0" d="M-128.2,386.7h-14.7v-9.1l-22.2,3.9v30.2l22.2,3.8v-8.6h14.7c0.6,0,1-0.5,1-1v-18.2
		C-127.2,387.1-127.6,386.7-128.2,386.7z M-154.7,403.4c-7.3-0.5-7-13.8,0.2-14.2C-146.6,388.8-146.8,403.9-154.7,403.4z
		 M-128.4,405.6h-14.5v-11.4l4.5,4.3c0.2,0.2,0.4,0.3,0.7,0.3c0.3,0,0.5-0.1,0.7-0.3l8.6-8C-128.4,390.5-128.4,405.6-128.4,405.6z
		 M-128.4,388.8l-9.3,8.6l-5.2-4.9v-4.6h14.4v0.9H-128.4z"/>
	<path class="st0" d="M-154.5,391.9c-3.9,0.2-4,8.7-0.1,8.8C-150.5,400.9-150.5,391.7-154.5,391.9z"/>
</g>
</svg>
