<?xml version="1.0" encoding="utf-8"?>
<!-- Generator: Adobe Illustrator 19.1.0, SVG Export Plug-In . SVG Version: 6.00 Build 0)  -->
<!DOCTYPE svg PUBLIC "-//W3C//DTD SVG 1.1//EN" "http://www.w3.org/Graphics/SVG/1.1/DTD/svg11.dtd">
<svg version="1.1" id="Layer_1" xmlns="http://www.w3.org/2000/svg" xmlns:xlink="http://www.w3.org/1999/xlink" x="0px" y="0px"
	 width="32px" height="32px" viewBox="0 0 32 32" enable-background="new 0 0 32 32" xml:space="preserve">
<path fill="#992065" d="M31.3,2.2H19.6v0.9h11.6v25.3H19.6v0.9h11.7c0.4,0,0.7-0.3,0.7-0.9V3C32,2.5,31.7,2.2,31.3,2.2z"/>
<rect id="XMLID_1_" x="22.3" y="25.4" fill="#992065" width="1.8" height="1.8"/>
<g>
	<g>
		<path fill="#992065" d="M10.5,12.3c-0.2-0.2-0.4-0.3-0.6-0.3c-0.2-0.1-0.5-0.1-0.8-0.1L8.2,12v3.6l0.2,0.1l0.7,0.1
			c0.3,0,0.6,0,0.8-0.1c0.2-0.1,0.4-0.2,0.6-0.4c0.2-0.2,0.3-0.4,0.4-0.6c0.1-0.3,0.1-0.5,0.1-0.9c0-0.3,0-0.6-0.1-0.9
			C10.8,12.7,10.6,12.5,10.5,12.3z"/>
		<path fill="#992065" d="M0,3.5v25L18.9,32V0L0,3.5z M13.5,14.5c0,0.3-0.1,0.6-0.2,0.8c-0.1,0.3-0.2,0.5-0.4,0.7
			c-0.1,0.2-0.3,0.4-0.5,0.6c-0.2,0.2-0.4,0.4-0.6,0.5c-0.2,0.2-0.5,0.3-0.7,0.4c-0.3,0.1-0.5,0.2-0.8,0.2c-0.3,0-0.6,0.1-0.9,0.1
			l-1.1-0.1v4.3L6,21.9v-12l3.4-0.2c0.7,0,1.2,0,1.8,0.1c0.5,0.1,0.9,0.4,1.3,0.7c0.3,0.3,0.6,0.7,0.8,1.2c0.2,0.5,0.3,1.1,0.3,1.8
			C13.6,13.9,13.5,14.2,13.5,14.5z"/>
	</g>
</g>
<g>
	<g>
		<path fill="#992065" d="M19.5,5.2v2.3H28v1.8h-8.4v2.5h2.7v4.4h-2.7v1.2h2.7v4.4h-2.7v2h10.4V5.2H19.5z M27.7,16.1h-4.4v-4.4h4.4
			V16.1z"/>
	</g>
</g>
</svg>
