<?xml version="1.0" encoding="utf-8"?>
<!-- Generator: Adobe Illustrator 19.1.0, SVG Export Plug-In . SVG Version: 6.00 Build 0)  -->
<svg version="1.1" id="Layer_1" xmlns="http://www.w3.org/2000/svg" xmlns:xlink="http://www.w3.org/1999/xlink" x="0px" y="0px"
	 viewBox="-183 366.1 56.3 54" style="enable-background:new -183 366.1 56.3 54;" xml:space="preserve">
<style type="text/css">
	.st0{fill:#4C69B1;}
</style>
<path class="st0" d="M-135.6,381.5h-14.8v-4.1l-22.4,3.9v30.4l22.4,3.9v-4.5h14.8c0.6,0,1-0.5,1-1v-27.6
	C-134.5,382-135,381.5-135.6,381.5z M-161,403.9l-2.9-0.1l-3.8-14.2l2.7,0.1l2.4,9.9c0.2,0.6,0.2,1,0.3,1.4h0.1
	c0.1-0.5,0.1-0.9,0.3-1.4l2.4-9.8l2.6-0.1L-161,403.9z M-150.4,390.4h2.4l4.6,4.6v7.1h-3.3V399c0-0.4-0.3-0.7-0.7-0.7h-3V390.4z
	 M-146.7,390l0.8-0.8l3-3l3.8,3.8l-3.1,3l-0.8,0.8l-0.8-0.8l-2.2-2.4L-146.7,390z M-150.4,399.6h2.4v6.6h-2.3L-150.4,399.6
	L-150.4,399.6z M-135.8,409.8h-14.6v-2.3h3c0.4,0,0.7-0.3,0.7-0.7v-3.4h3.9c0.4,0,0.7-0.3,0.7-0.7V395l4.6-4.3
	c0.1-0.1,0.2-0.4,0.2-0.7s-0.1-0.5-0.2-0.7l-4.7-4.6c-0.2-0.2-0.3-0.2-0.5-0.2c-0.2,0-0.4,0.1-0.5,0.2l-4.8,4.5h-2.3v-6.4h14.6
	L-135.8,409.8L-135.8,409.8z"/>
</svg>
