<?xml version="1.0" encoding="utf-8"?>
<!-- Generator: Adobe Illustrator 17.1.0, SVG Export Plug-In . SVG Version: 6.00 Build 0)  -->
<!DOCTYPE svg PUBLIC "-//W3C//DTD SVG 1.1//EN" "http://www.w3.org/Graphics/SVG/1.1/DTD/svg11.dtd">
<svg version="1.1" id="Layer_1" xmlns="http://www.w3.org/2000/svg" xmlns:xlink="http://www.w3.org/1999/xlink" x="0px" y="0px"
	 width="30px" height="30px" viewBox="0 0 30 30" enable-background="new 0 0 30 30" xml:space="preserve">
<rect fill="#F69B06" width="30" height="30"/>
<path id="Amazon_3_" fill="#FFFFFF" d="M17,10.3c-0.5,0-1.1,0.1-1.7,0.2c-0.9,0.1-1.8,0.3-2.6,0.6c-1.5,0.6-2.5,1.9-2.5,3.8
	c0,2.4,1.5,3.6,3.4,3.6c0.6,0,1.2-0.1,1.6-0.2c0.8-0.2,1.4-0.7,2.2-1.5c0.4,0.6,0.6,0.9,1.3,1.5c0.2,0.1,0.4,0.1,0.6,0
	c0.5-0.4,1.3-1.1,1.8-1.5c0.2-0.2,0.2-0.4,0-0.6c-0.4-0.6-0.9-1-0.9-2.1v-3.6c0-1.5,0.1-2.9-1-4c-0.9-0.8-2.4-1.2-3.5-1.2
	c-0.2,0-0.3,0-0.5,0c-2,0.1-4.2,1-4.7,3.5c-0.1,0.3,0.2,0.4,0.3,0.5l2.2,0.3c0.2,0,0.4-0.2,0.4-0.4c0.2-0.9,0.9-1.3,1.7-1.4
	c0,0,0.1,0,0.2,0c0.5,0,1,0.2,1.3,0.6C17,8.7,17,9.4,17,9.9V10.3z M17,12.6c0,0.9,0,1.6-0.4,2.4c-0.3,0.6-0.8,0.9-1.3,1
	c-0.1,0-0.2,0-0.3,0c-0.9,0-1.4-0.7-1.4-1.7c0-1.3,0.8-1.9,1.7-2.2c0.5-0.1,1.1-0.2,1.7-0.2V12.6z M24.3,23.8c1-0.8,1.4-2.3,1.4-3.1
	v-0.1c0-0.2,0-0.3-0.1-0.4c-0.2-0.2-1.6-0.5-2.9-0.1c-0.3,0.1-0.7,0.3-0.9,0.5c-0.2,0.2-0.2,0.3,0,0.3c0.2,0,0.5-0.1,0.9-0.1
	c0.8-0.1,1.7-0.1,1.9,0.2c0.3,0.4-0.3,2-0.6,2.7C23.9,23.9,24.1,24,24.3,23.8z M4.4,20.7c2.8,2.5,6.5,4.1,10.6,4.1
	c2.6,0,5.5-0.7,7.8-2.1c0.3-0.2,0.6-0.4,0.9-0.6c0.4-0.3,0-0.7-0.3-0.5c-0.2,0.1-0.4,0.2-0.5,0.2c-2.5,1-5.1,1.4-7.6,1.4
	c-3.9,0-7.6-1.1-10.6-2.8C4.3,20.2,4.1,20.5,4.4,20.7z"/>
</svg>
