<?xml version="1.0" encoding="utf-8"?>
<!-- Generator: Adobe Illustrator 17.1.0, SVG Export Plug-In . SVG Version: 6.00 Build 0)  -->
<!DOCTYPE svg PUBLIC "-//W3C//DTD SVG 1.1//EN" "http://www.w3.org/Graphics/SVG/1.1/DTD/svg11.dtd">
<svg version="1.1" id="Layer_1" xmlns="http://www.w3.org/2000/svg" xmlns:xlink="http://www.w3.org/1999/xlink" x="0px" y="0px"
	 width="30px" height="30px" viewBox="0 0 30 30" enable-background="new 0 0 30 30" xml:space="preserve">
<path fill="#221F1F" d="M23.5,16.7c-0.6-0.8-1.3-1.4-1.3-2.9v-5c0-2.1,0.1-4.1-1.4-5.6C19.6,2,17.5,1.4,16,1.4c-0.3,0-0.4,0-0.7,0
	c-2.8,0.1-5.9,1.4-6.6,4.9C8.6,6.7,9,6.9,9.1,7l3.1,0.4c0.3,0,0.6-0.3,0.6-0.6c0.3-1.3,1.3-1.8,2.4-2c0,0,0.1,0,0.3,0
	c0.7,0,1.4,0.3,1.8,0.8c0.6,0.4,0.6,1.4,0.6,2.1v0.6c-0.7,0-1.5,0.1-2.4,0.3c-1.3,0.1-2.5,0.4-3.6,0.8c-2.1,0.8-3.5,2.7-3.5,5.3
	c0,3.4,2.1,5,4.8,5c0.8,0,1.7-0.1,2.2-0.3c1.1-0.3,2-1,3.1-2.1c0.6,0.8,0.8,1.3,1.8,2.1c0.3,0.1,0.6,0.1,0.8,0
	c0.7-0.6,1.8-1.5,2.5-2.1C23.8,17.2,23.8,16.9,23.5,16.7z M17.8,11.6c0,1.3,0,2.2-0.6,3.4c-0.4,0.8-1.1,1.3-1.8,1.4
	c-0.1,0-0.3,0-0.4,0c-1.3,0-2-1-2-2.4c0-1.8,1.1-2.7,2.4-3.1c0.7-0.1,1.5-0.3,2.4-0.3V11.6z"/>
<path fill="#FF9900" d="M28,27.3c1.4-1.1,2-3.2,2-4.3v-0.1c0-0.3,0-0.4-0.1-0.6c-0.3-0.3-2.2-0.7-4.1-0.1c-0.4,0.1-1,0.4-1.3,0.7
	c-0.3,0.3-0.3,0.4,0,0.4c0.3,0,0.7-0.1,1.3-0.1c1.1-0.1,2.4-0.1,2.7,0.3c0.4,0.6-0.4,2.8-0.8,3.8C27.5,27.4,27.7,27.6,28,27.3z"/>
<path fill="#FF9900" d="M0.2,23c3.9,3.5,9.1,5.7,14.8,5.7c3.6,0,7.7-1,10.9-2.9c0.4-0.3,0.8-0.6,1.3-0.8c0.6-0.4,0-1-0.4-0.7
	c-0.3,0.1-0.6,0.3-0.7,0.3c-3.5,1.4-7.1,2-10.6,2c-5.5,0-10.6-1.5-14.8-3.9C0,22.3-0.2,22.7,0.2,23z"/>
</svg>
