<?xml version="1.0" encoding="utf-8"?>
<!-- Generator: Adobe Illustrator 17.1.0, SVG Export Plug-In . SVG Version: 6.00 Build 0)  -->
<!DOCTYPE svg PUBLIC "-//W3C//DTD SVG 1.1//EN" "http://www.w3.org/Graphics/SVG/1.1/DTD/svg11.dtd">
<svg version="1.1" id="Layer_1" xmlns="http://www.w3.org/2000/svg" xmlns:xlink="http://www.w3.org/1999/xlink" x="0px" y="0px"
	 viewBox="0 0 30 30" enable-background="new 0 0 30 30" xml:space="preserve">
<rect fill="#A4C639" width="30" height="30"/>
<path fill-rule="evenodd" clip-rule="evenodd" fill="#FFFFFF" d="M13.8,22.3v2.9c0,0.8-0.4,1.4-1.2,1.4l0,0c-0.8,0-1.2-0.6-1.2-1.4
	v-2.9H9.9C9.3,22.3,9,21.6,9,21v-9.9h12V21c0,0.6-0.2,1.3-0.9,1.3h-1.5v2.9c0,0.8-0.4,1.4-1.2,1.4l0,0c-0.8,0-1.2-0.6-1.2-1.4v-2.9
	H13.8L13.8,22.3z"/>
<path fill-rule="evenodd" clip-rule="evenodd" fill="#FFFFFF" d="M6.6,10.8L6.6,10.8c0.8,0,1.6,0.6,1.6,1.4v5.6
	c0,0.8-0.8,1.4-1.6,1.4l0,0c-0.8,0-1.6-0.6-1.6-1.4v-5.6C5,11.4,5.8,10.8,6.6,10.8L6.6,10.8z"/>
<path fill-rule="evenodd" clip-rule="evenodd" fill="#FFFFFF" d="M23.4,10.8L23.4,10.8c0.8,0,1.6,0.6,1.6,1.4v5.6
	c0,0.8-0.8,1.4-1.6,1.4l0,0c-0.8,0-1.6-0.6-1.6-1.4v-5.6C21.8,11.4,22.6,10.8,23.4,10.8L23.4,10.8z"/>
<path fill-rule="evenodd" clip-rule="evenodd" fill="#FFFFFF" d="M17.9,5.8L19,4.3c0.1-0.1,0-0.2-0.1-0.3c-0.1-0.1-0.2,0-0.3,0.1
	l-1.1,1.6c-0.8-0.3-1.6-0.5-2.5-0.5c-0.9,0-1.8,0.2-2.5,0.5L11.3,4c-0.1-0.1-0.2-0.1-0.3-0.1C11,4,10.9,4.1,11,4.2l1.1,1.6
	C10.3,6.6,9,8.3,9,9.9h12C21,8.3,19.7,6.6,17.9,5.8z M12.4,8.5c-0.4,0-0.7-0.3-0.7-0.7c0-0.4,0.3-0.7,0.7-0.7c0.4,0,0.7,0.3,0.7,0.7
	C13.1,8.2,12.8,8.5,12.4,8.5z M17.6,8.5c-0.4,0-0.7-0.3-0.7-0.7c0-0.4,0.3-0.7,0.7-0.7s0.7,0.3,0.7,0.7C18.3,8.2,18,8.5,17.6,8.5z"
	/>
</svg>
