<?xml version="1.0" encoding="utf-8"?>
<!-- Generator: Adobe Illustrator 17.1.0, SVG Export Plug-In . SVG Version: 6.00 Build 0)  -->
<!DOCTYPE svg PUBLIC "-//W3C//DTD SVG 1.1//EN" "http://www.w3.org/Graphics/SVG/1.1/DTD/svg11.dtd">
<svg version="1.1" id="Layer_1" xmlns="http://www.w3.org/2000/svg" xmlns:xlink="http://www.w3.org/1999/xlink" x="0px" y="0px"
	 height="30px" width="30px" viewBox="0 0 30 30" enable-background="new 0 0 30 30" xml:space="preserve">
<rect fill="#8C8C8C" width="30" height="30"/>
<g>
	<g>
		<path fill-rule="evenodd" clip-rule="evenodd" fill="#FFFFFF" d="M23.7,18.7c-0.5,1-0.7,1.5-1.3,2.4c-0.8,1.3-2,2.9-3.5,2.9
			c-1.3,0-1.7-0.9-3.4-0.8c-1.8,0-2.2,0.9-3.5,0.9c-1.5,0-2.6-1.5-3.5-2.8C6,17.7,5.8,13.4,7.3,11.2c1-1.6,2.7-2.5,4.2-2.5
			c1.6,0,2.6,0.9,3.9,0.9c1.3,0,2-0.9,3.8-0.9c1.4,0,2.8,0.7,3.9,2C19.7,12.6,20.2,17.4,23.7,18.7L23.7,18.7z"/>
	</g>
	<g>
		<path fill-rule="evenodd" clip-rule="evenodd" fill="#FFFFFF" d="M17.8,7.2c0.7-0.8,1.2-2,1-3.3c-1.1,0.1-2.3,0.8-3.1,1.7
			c-0.7,0.8-1.2,2-1,3.2C15.9,8.8,17.1,8.1,17.8,7.2L17.8,7.2z"/>
	</g>
</g>
</svg>
