<?xml version="1.0" encoding="utf-8"?>
<!-- Generator: Adobe Illustrator 17.1.0, SVG Export Plug-In . SVG Version: 6.00 Build 0)  -->
<!DOCTYPE svg PUBLIC "-//W3C//DTD SVG 1.1//EN" "http://www.w3.org/Graphics/SVG/1.1/DTD/svg11.dtd">
<svg version="1.1" id="Layer_1" xmlns="http://www.w3.org/2000/svg" xmlns:xlink="http://www.w3.org/1999/xlink" x="0px" y="0px"
	 width="30px" height="30px" viewBox="0 0 30 30" enable-background="new 0 0 30 30" xml:space="preserve">
<path fill="#8C8C8C" d="M27.9,22c-0.7,1.5-1,2.2-1.9,3.6c-1.2,1.9-3,4.3-5.2,4.3c-1.9,0-2.5-1.3-5-1.2c-2.7,0-3.3,1.3-5.2,1.3
	c-2.2,0-3.9-2.2-5.2-4.2c-3.7-5.3-4-11.7-1.8-15c1.5-2.4,4-3.7,6.2-3.7c2.4,0,3.9,1.3,5.8,1.3s3-1.3,5.6-1.3c2.1,0,4.2,1,5.8,3
	C21.9,12.9,22.7,20,27.9,22L27.9,22z"/>
<path fill="#8C8C8C" d="M19.1,4.9c1-1.2,1.8-3,1.5-4.9C19,0.1,17.2,1.2,16,2.5c-1,1.2-1.8,3-1.5,4.8C16.3,7.3,18.1,6.2,19.1,4.9
	L19.1,4.9z"/>
</svg>
