<?xml version="1.0" encoding="utf-8"?>
<!-- Generator: Adobe Illustrator 17.1.0, SVG Export Plug-In . SVG Version: 6.00 Build 0)  -->
<!DOCTYPE svg PUBLIC "-//W3C//DTD SVG 1.1//EN" "http://www.w3.org/Graphics/SVG/1.1/DTD/svg11.dtd">
<svg version="1.1" id="Layer_1" xmlns="http://www.w3.org/2000/svg" xmlns:xlink="http://www.w3.org/1999/xlink" x="0px" y="0px"
	 width="30px" height="30px" viewBox="0 0 30 30" enable-background="new 0 0 30 30" xml:space="preserve">
<path fill="#2319DC" d="M8,11.3C8.2,13.8,6.8,16,5,16c-1.9,0.2-3.6-1.9-3.7-4.3C1,9.2,2.4,7,4.3,7C6.1,6.6,7.8,8.7,8,11.3z"/>
<path fill="#2319DC" d="M21,0.7c-1.9-0.5-3.8,1.2-4.4,3.6c-0.7,2.4,0.3,4.8,2.2,5.3c1.9,0.5,3.8-1.2,4.4-3.6
	C23.9,2.7,21.3,0.9,21,0.7z"/>
<path fill="#2319DC" d="M25.2,9c-1.9,0-3.4,1.9-3.4,4.6c0,2.9,1.7,4.1,3.6,4.1c1.9,0,3.4-1.4,3.4-4.3C28.6,9.9,25.7,9,25.2,9z"/>
<path fill="#2319DC" d="M11.4,0C9.6,0,8.2,2,8.2,4.6s1.5,4.6,3.2,4.6s3.2-2,3.2-4.6S13.1,0,11.4,0z"/>
<path fill="#2319DC" d="M10.9,14.3c-1,1.5-2.2,3.1-4.6,4.9c-2.2,1.9-3.2,3.2-3.2,5.1c0,2,1.2,5.3,4.3,5.3c3.2,0,4.8-0.7,7.3-0.7
	c2.6,0,4.3,1,7.3,1c3.2,0,4.6-3.1,4.6-4.9c0-2-0.5-3.1-3.1-5.3c-1.7-1.4-3.1-2.6-5.3-5.6c-1-1.5-2.4-1.7-3.6-1.7
	C13.3,12.3,11.9,12.8,10.9,14.3z"/>
</svg>
