<?xml version="1.0" encoding="utf-8"?>
<!-- Generator: Adobe Illustrator 17.1.0, SVG Export Plug-In . SVG Version: 6.00 Build 0)  -->
<!DOCTYPE svg PUBLIC "-//W3C//DTD SVG 1.1//EN" "http://www.w3.org/Graphics/SVG/1.1/DTD/svg11.dtd">
<svg version="1.1" id="Layer_1" xmlns="http://www.w3.org/2000/svg" xmlns:xlink="http://www.w3.org/1999/xlink" x="0px" y="0px"
	 width="30px" height="30px" viewBox="0 0 30 30" enable-background="new 0 0 30 30" xml:space="preserve">
<rect fill="#2319DC" width="30" height="30"/>
<path id="Baidu" fill="#F9F9F9" d="M10.9,12.8c0.1,1.5-0.7,2.8-1.8,2.8C8,15.7,7,14.5,6.9,13.1c-0.1-1.5,0.7-2.8,1.8-2.8
	C9.8,10.1,10.8,11.3,10.9,12.8z M18.5,6.6c-1.1-0.3-2.2,0.7-2.6,2.1c-0.4,1.4,0.2,2.8,1.3,3.1c1.1,0.3,2.2-0.7,2.6-2.1
	C20.2,7.8,18.7,6.7,18.5,6.6z M21,11.5c-1.1,0-2,1.1-2,2.7c0,1.7,1,2.4,2.1,2.4c1.1,0,2-0.8,2-2.5C23,12,21.3,11.5,21,11.5z
	 M12.9,6.2c-1.1,0-1.9,1.2-1.9,2.7s0.9,2.7,1.9,2.7s1.9-1.2,1.9-2.7S13.9,6.2,12.9,6.2z M12.6,14.6c-0.6,0.9-1.3,1.8-2.7,2.9
	C8.6,18.6,8,19.4,8,20.5c0,1.2,0.7,3.1,2.5,3.1c1.9,0,2.8-0.4,4.3-0.4c1.5,0,2.5,0.6,4.3,0.6c1.9,0,2.7-1.8,2.7-2.9
	c0-1.2-0.3-1.8-1.8-3.1c-1-0.8-1.8-1.5-3.1-3.3c-0.6-0.9-1.4-1-2.1-1C14,13.4,13.2,13.7,12.6,14.6z"/>
</svg>
