<?xml version="1.0" encoding="utf-8"?>
<!-- Generator: Adobe Illustrator 17.0.1, SVG Export Plug-In . SVG Version: 6.00 Build 0)  -->
<!DOCTYPE svg PUBLIC "-//W3C//DTD SVG 1.1//EN" "http://www.w3.org/Graphics/SVG/1.1/DTD/svg11.dtd">
<svg version="1.1" id="Layer_1" xmlns="http://www.w3.org/2000/svg" xmlns:xlink="http://www.w3.org/1999/xlink" x="0px" y="0px"
	 width="30px" height="30px" viewBox="-0.5 0.5 30 30" enable-background="new -0.5 0.5 30 30" xml:space="preserve">
<rect x="-0.5" y="0.5" fill="#0072C6" width="30" height="30"/>
<rect x="-0.5" y="0.5" opacity="0.5" fill="#1E1E1E" width="30" height="30"/>
<ellipse fill="#FFFFFF" cx="14.9" cy="15.263" rx="1.373" ry="1.373"/>
<path fill="#FFFFFF" d="M14.887,5.65c-4.762,0-8.624,1.262-8.624,2.823l1.431,8.432c0,1.67,3.216,3.016,7.193,3.016
	c3.97,0,7.193-1.346,7.193-3.016l1.431-8.432C23.503,6.911,19.649,5.65,14.887,5.65z M14.902,18.005
	c-1.523,0-2.747-1.231-2.747-2.747s1.223-2.739,2.747-2.739c1.516,0,2.739,1.223,2.739,2.739S16.418,18.005,14.902,18.005z
	 M14.887,9.427c-3.047,0-5.508-0.531-5.508-1.185c0-0.654,2.462-1.185,5.508-1.185c3.039,0,5.501,0.531,5.501,1.185
	C20.387,8.896,17.925,9.427,14.887,9.427z"/>
<path fill="#FFFFFF" d="M9.097,19.886c-0.108-0.085-0.2-0.169-0.292-0.254c-0.023-0.008-0.054-0.008-0.085-0.008
	c-0.185,0-0.339,0.131-0.385,0.3l0.069,0.339l0.585,2.893c0,1.185,2.639,2.37,5.893,2.37c3.262,0,5.901-1.185,5.901-2.37
	l0.585-2.893l0.069-0.339c-0.046-0.169-0.2-0.3-0.392-0.3c-0.023,0-0.054,0-0.085,0.008c-0.085,0.085-0.177,0.169-0.285,0.254
	c-1.1,0.846-3.277,1.423-5.793,1.423C12.374,21.31,10.197,20.733,9.097,19.886z"/>
</svg>
