<?xml version="1.0" encoding="utf-8"?>
<!-- Generator: Adobe Illustrator 17.0.1, SVG Export Plug-In . SVG Version: 6.00 Build 0)  -->
<!DOCTYPE svg PUBLIC "-//W3C//DTD SVG 1.1//EN" "http://www.w3.org/Graphics/SVG/1.1/DTD/svg11.dtd">
<svg version="1.1" id="Layer_1" xmlns="http://www.w3.org/2000/svg" xmlns:xlink="http://www.w3.org/1999/xlink" x="0px" y="0px"
	 width="30px" height="30px" viewBox="-0.5 0.5 30 30" enable-background="new -0.5 0.5 30 30" xml:space="preserve">
<ellipse fill="#0072C6" cx="14.52" cy="15.01" rx="2.072" ry="2.072"/>
<path fill="#0072C6" d="M14.5,0.5C7.312,0.5,1.483,2.404,1.483,4.761l2.16,12.727c0,2.52,4.854,4.552,10.857,4.552
	c5.992,0,10.857-2.032,10.857-4.552l2.16-12.727C27.505,2.404,21.688,0.5,14.5,0.5z M14.523,19.149
	c-2.299,0-4.145-1.858-4.145-4.145s1.846-4.134,4.145-4.134c2.288,0,4.134,1.846,4.134,4.134S16.811,19.149,14.523,19.149z
	 M14.5,6.201c-4.598,0-8.314-0.801-8.314-1.788c0-0.987,3.716-1.788,8.314-1.788c4.587,0,8.303,0.801,8.303,1.788
	C22.803,5.4,19.087,6.201,14.5,6.201z"/>
<path fill="#0072C6" d="M5.761,21.988c-0.163-0.128-0.302-0.255-0.441-0.383c-0.035-0.012-0.081-0.012-0.128-0.012
	c-0.279,0-0.511,0.198-0.581,0.453l0.105,0.511l0.883,4.366c0,1.788,3.983,3.576,8.895,3.576c4.923,0,8.906-1.788,8.906-3.576
	l0.883-4.366l0.105-0.511c-0.07-0.255-0.302-0.453-0.592-0.453c-0.035,0-0.081,0-0.128,0.012c-0.128,0.128-0.267,0.255-0.43,0.383
	c-1.661,1.277-4.947,2.148-8.744,2.148C10.708,24.137,7.421,23.266,5.761,21.988z"/>
<ellipse opacity="0.5" fill="#1E1E1E" cx="14.52" cy="15.01" rx="2.072" ry="2.072"/>
<path opacity="0.5" fill="#1E1E1E" d="M14.5,0.5C7.312,0.5,1.483,2.404,1.483,4.761l2.16,12.727c0,2.52,4.854,4.552,10.857,4.552
	c5.992,0,10.857-2.032,10.857-4.552l2.16-12.727C27.505,2.404,21.688,0.5,14.5,0.5z M14.523,19.149
	c-2.299,0-4.145-1.858-4.145-4.145s1.846-4.134,4.145-4.134c2.288,0,4.134,1.846,4.134,4.134S16.811,19.149,14.523,19.149z
	 M14.5,6.201c-4.598,0-8.314-0.801-8.314-1.788c0-0.987,3.716-1.788,8.314-1.788c4.587,0,8.303,0.801,8.303,1.788
	C22.803,5.4,19.087,6.201,14.5,6.201z"/>
<path opacity="0.5" fill="#1E1E1E" d="M5.761,21.988c-0.163-0.128-0.302-0.255-0.441-0.383c-0.035-0.012-0.081-0.012-0.128-0.012
	c-0.279,0-0.511,0.198-0.581,0.453l0.105,0.511l0.883,4.366c0,1.788,3.983,3.576,8.895,3.576c4.923,0,8.906-1.788,8.906-3.576
	l0.883-4.366l0.105-0.511c-0.07-0.255-0.302-0.453-0.592-0.453c-0.035,0-0.081,0-0.128,0.012c-0.128,0.128-0.267,0.255-0.43,0.383
	c-1.661,1.277-4.947,2.148-8.744,2.148C10.708,24.137,7.421,23.266,5.761,21.988z"/>
</svg>
