<?xml version="1.0" encoding="utf-8"?>
<!-- Generator: Adobe Illustrator 17.1.0, SVG Export Plug-In . SVG Version: 6.00 Build 0)  -->
<!DOCTYPE svg PUBLIC "-//W3C//DTD SVG 1.1//EN" "http://www.w3.org/Graphics/SVG/1.1/DTD/svg11.dtd">
<svg version="1.1" id="Layer_1" xmlns="http://www.w3.org/2000/svg" xmlns:xlink="http://www.w3.org/1999/xlink" x="0px" y="0px"
	 height="30px" width="30px" viewBox="0 0 30 30" enable-background="new 0 0 30 30" xml:space="preserve">
<rect fill="#0075C9" width="30" height="30"/>
<g>
	<path fill="#FFFFFF" d="M16.5,12.4c-1.6,0-3,0.9-3.7,2.2c-0.7-1.3-2.1-2.2-3.7-2.2c-0.9,0-1.8,0.3-2.5,0.8V9.7h0
		c0-0.4-0.4-0.8-0.8-0.8C5.4,8.9,5,9.3,5,9.7h0v6.9h0c0,2.3,1.9,4.1,4.1,4.1c1.6,0,3-0.9,3.7-2.2c0.7,1.3,2.1,2.2,3.7,2.2
		c2.3,0,4.1-1.9,4.1-4.1C20.6,14.2,18.7,12.4,16.5,12.4z M9.1,19c-1.4,0-2.5-1.1-2.5-2.5c0-1.4,1.1-2.5,2.5-2.5
		c1.4,0,2.5,1.1,2.5,2.5C11.6,17.9,10.5,19,9.1,19z M16.5,19c-1.4,0-2.5-1.1-2.5-2.5c0-1.4,1.1-2.5,2.5-2.5c1.4,0,2.5,1.1,2.5,2.5
		C18.9,17.9,17.8,19,16.5,19z"/>
	<path fill="#FFFFFF" d="M26.2,19.4L24,16.5l2.1-2.8l0,0c0.3-0.4,0.2-0.9-0.2-1.1c-0.4-0.3-0.9-0.2-1.1,0.2l0,0L23,15.2l-1.8-2.4
		l0,0c-0.3-0.4-0.8-0.4-1.1-0.2c-0.4,0.3-0.4,0.8-0.2,1.1l0,0l2.1,2.8l-2.1,2.8l0,0c-0.3,0.4-0.2,0.9,0.2,1.1
		c0.4,0.3,0.9,0.2,1.1-0.2l0,0l1.8-2.4l1.8,2.4l0,0c0.3,0.4,0.8,0.4,1.1,0.2C26.3,20.2,26.4,19.7,26.2,19.4L26.2,19.4z"/>
</g>
</svg>
