<?xml version="1.0" encoding="utf-8"?>
<!-- Generator: Adobe Illustrator 17.1.0, SVG Export Plug-In . SVG Version: 6.00 Build 0)  -->
<!DOCTYPE svg PUBLIC "-//W3C//DTD SVG 1.1//EN" "http://www.w3.org/Graphics/SVG/1.1/DTD/svg11.dtd">
<svg version="1.1" id="Layer_1" xmlns="http://www.w3.org/2000/svg" xmlns:xlink="http://www.w3.org/1999/xlink" x="0px" y="0px"
	 height="50px" width="50px" viewBox="0 0 50 50" enable-background="new 0 0 50 50" xml:space="preserve">
<path fill="#FCD116" d="M48.4,27.6c0.1,11.3-7.9,20.4-19.3,22.2c-6.3,1-11.9-0.8-17-4.7c-0.9-0.7-1.1-1.8-0.5-2.6
	c0.6-0.9,1.8-1.1,2.7-0.4c2.1,1.5,4.3,2.8,6.8,3.4c6.4,1.6,12.1,0.4,17.1-3.9c7.6-6.5,8.6-17.9,2.4-25.7C37.8,12.3,34,10,29.4,9.2
	c-1.2-0.2-1.7-0.7-1.8-1.9c-0.2-1.7-0.5-3.3-0.8-5c-0.2-0.8,0.1-1.2,0.9-1.4c1.2-0.2,2.4-0.4,3.6-0.6c0.8-0.2,1.3,0,1.4,1
	c0.2,1.3,0.5,2.6,0.7,3.9c0.1,0.8,0.5,1.2,1.2,1.5c8.1,3.6,12.7,9.8,13.8,18.6C48.5,26.1,48.4,26.8,48.4,27.6z"/>
<path fill="#FCD116" d="M1.6,30.3c0-1.6,0.2-3,1.6-4c0.5-0.3,0.5-0.9,0.5-1.4c0.7-5.6,3.2-10.3,7.4-14.2c0.5-0.5,0.7-0.9,0.6-1.6
	c-0.3-1.4-0.5-2.8-0.7-4.2c-0.1-0.7,0-1,0.7-1.1c1.4-0.2,2.7-0.4,4.1-0.7c0.6-0.1,0.9,0.1,1,0.7c0.3,2.1,0.7,4.1,1.1,6.2
	c0.1,0.7-0.3,0.9-0.7,1.1c-3.8,2.1-6.7,5.1-8.3,9.1c-1.8,4.4-2.3,8.9-0.2,13.4c0.2,0.5,0.3,0.8-0.4,0.8c-1.6,0.2-2.6,1.1-2.9,2.8
	c0,0.2,0,0.6-0.2,0.7c-0.3,0.1-0.5-0.2-0.7-0.4C2.3,35.5,1.7,33,1.6,30.3z"/>
<path fill="#FCD116" d="M27.2,13.5c0,0.4-0.1,0.7-0.5,0.7c-1.9,0.3-3.9,0.7-5.8,1c-0.8,0.1-0.7-0.6-0.8-1.1c-0.6-3.5-1.2-7-1.8-10.5
	c-0.4-2.5-0.4-2.5,2.2-3c1.2-0.2,2.4-0.4,3.6-0.6c0.5-0.1,0.9,0,1,0.6C25.8,4.9,26.5,9.2,27.2,13.5z"/>
<path fill="#FCD116" d="M23.8,39.9c-1.8,0-3.5-0.2-5.2-0.8c-0.7-0.3-1.3-0.6-1.9-1.1c-0.6-0.6-0.7-1.2-0.2-1.9
	c0.4-0.6,1.1-0.8,1.8-0.4c5,2.6,9.9,1.3,14.7-0.6c1.1-0.4,2-1.2,2.8-2.1c0.6-0.7,1.3-1,2.1-0.4c0.8,0.6,0.7,1.4,0.2,2.2
	c-1,1.5-2.5,2.4-4.1,3.1C30.7,39.2,27.3,39.8,23.8,39.9z"/>
<path fill="#FCD116" d="M6.4,38.6c0-1.7,1.4-3.2,3.1-3.2c1.7,0,3.1,1.4,3.1,3.1c0,1.8-1.4,3.2-3.2,3.2C7.8,41.8,6.4,40.4,6.4,38.6z"
	/>
<path fill="#FCD116" d="M17.6,30.9c-2.2,0-3.7-2.1-3-4.1c0.2-0.5,0.3-0.7,0.9-0.5c0.8,0.3,1.5,0.2,1.7-0.8c0.2-1.1,0.8-0.9,1.5-0.7
	c1.4,0.4,2.2,2,2,3.4C20.5,29.7,19.1,30.9,17.6,30.9z"/>
<path fill="#FCD116" d="M33.9,21.8c1.8,0,3.2,1.4,3.3,3.1c0,1.7-1.4,3.1-3.1,3.2c-1.6,0.1-3.2-1.4-3.2-3c0-0.6,0.1-1,0.9-1
	c1,0.1,1.6-0.5,1.3-1.4C32.8,21.8,33.4,21.9,33.9,21.8z"/>
<path opacity="0.5" fill="#FF8C00" d="M48.4,27.6c0.1,11.3-7.9,20.4-19.3,22.2c-6.3,1-11.9-0.8-17-4.7c-0.9-0.7-1.1-1.8-0.5-2.6
	c0.6-0.9,1.8-1.1,2.7-0.4c2.1,1.5,4.3,2.8,6.8,3.4c6.4,1.6,12.1,0.4,17.1-3.9c7.6-6.5,8.6-17.9,2.4-25.7C37.8,12.3,34,10,29.4,9.2
	c-1.2-0.2-1.7-0.7-1.8-1.9c-0.2-1.7-0.5-3.3-0.8-5c-0.2-0.8,0.1-1.2,0.9-1.4c1.2-0.2,2.4-0.4,3.6-0.6c0.8-0.2,1.3,0,1.4,1
	c0.2,1.3,0.5,2.6,0.7,3.9c0.1,0.8,0.5,1.2,1.2,1.5c8.1,3.6,12.7,9.8,13.8,18.6C48.5,26.1,48.4,26.8,48.4,27.6z"/>
<path opacity="0.5" fill="#FF8C00" d="M1.6,30.3c0-1.6,0.2-3,1.6-4c0.5-0.3,0.5-0.9,0.5-1.4c0.7-5.6,3.2-10.3,7.4-14.2
	c0.5-0.5,0.7-0.9,0.6-1.6c-0.3-1.4-0.5-2.8-0.7-4.2c-0.1-0.7,0-1,0.7-1.1c1.4-0.2,2.7-0.4,4.1-0.7c0.6-0.1,0.9,0.1,1,0.7
	c0.3,2.1,0.7,4.1,1.1,6.2c0.1,0.7-0.3,0.9-0.7,1.1c-3.8,2.1-6.7,5.1-8.3,9.1c-1.8,4.4-2.3,8.9-0.2,13.4c0.2,0.5,0.3,0.8-0.4,0.8
	c-1.6,0.2-2.6,1.1-2.9,2.8c0,0.2,0,0.6-0.2,0.7c-0.3,0.1-0.5-0.2-0.7-0.4C2.3,35.5,1.7,33,1.6,30.3z"/>
<path opacity="0.5" fill="#FF8C00" d="M27.2,13.5c0,0.4-0.1,0.7-0.5,0.7c-1.9,0.3-3.9,0.7-5.8,1c-0.8,0.1-0.7-0.6-0.8-1.1
	c-0.6-3.5-1.2-7-1.8-10.5c-0.4-2.5-0.4-2.5,2.2-3c1.2-0.2,2.4-0.4,3.6-0.6c0.5-0.1,0.9,0,1,0.6C25.8,4.9,26.5,9.2,27.2,13.5z"/>
<path opacity="0.5" fill="#FF8C00" d="M23.8,39.9c-1.8,0-3.5-0.2-5.2-0.8c-0.7-0.3-1.3-0.6-1.9-1.1c-0.6-0.6-0.7-1.2-0.2-1.9
	c0.4-0.6,1.1-0.8,1.8-0.4c5,2.6,9.9,1.3,14.7-0.6c1.1-0.4,2-1.2,2.8-2.1c0.6-0.7,1.3-1,2.1-0.4c0.8,0.6,0.7,1.4,0.2,2.2
	c-1,1.5-2.5,2.4-4.1,3.1C30.7,39.2,27.3,39.8,23.8,39.9z"/>
<path opacity="0.5" fill="#FF8C00" d="M6.4,38.6c0-1.7,1.4-3.2,3.1-3.2c1.7,0,3.1,1.4,3.1,3.1c0,1.8-1.4,3.2-3.2,3.2
	C7.8,41.8,6.4,40.4,6.4,38.6z"/>
<path opacity="0.5" fill="#FF8C00" d="M17.6,30.9c-2.2,0-3.7-2.1-3-4.1c0.2-0.5,0.3-0.7,0.9-0.5c0.8,0.3,1.5,0.2,1.7-0.8
	c0.2-1.1,0.8-0.9,1.5-0.7c1.4,0.4,2.2,2,2,3.4C20.5,29.7,19.1,30.9,17.6,30.9z"/>
<path opacity="0.5" fill="#FF8C00" d="M33.9,21.8c1.8,0,3.2,1.4,3.3,3.1c0,1.7-1.4,3.1-3.1,3.2c-1.6,0.1-3.2-1.4-3.2-3
	c0-0.6,0.1-1,0.9-1c1,0.1,1.6-0.5,1.3-1.4C32.8,21.8,33.4,21.9,33.9,21.8z"/>
</svg>
