<?xml version="1.0" encoding="utf-8"?>
<!-- Generator: Adobe Illustrator 17.0.1, SVG Export Plug-In . SVG Version: 6.00 Build 0)  -->
<!DOCTYPE svg PUBLIC "-//W3C//DTD SVG 1.1//EN" "http://www.w3.org/Graphics/SVG/1.1/DTD/svg11.dtd">
<svg version="1.1" id="Layer_1" xmlns="http://www.w3.org/2000/svg" xmlns:xlink="http://www.w3.org/1999/xlink" x="0px" y="0px"
	 width="30px" height="30px" viewBox="-0.5 0.5 30 30" enable-background="new -0.5 0.5 30 30" xml:space="preserve">
<rect x="-0.5" y="0.5" fill="#0072C6" width="30" height="30"/>
<path fill="#FFFFFF" d="M14.514,8.961l-6.672,4.07L3.327,9.406l6.586-4.297L14.514,8.961z"/>
<path fill="#FFFFFF" d="M14.514,17.102l-6.672-4.07l-4.516,3.625l6.586,4.297L14.514,17.102z"/>
<path fill="#FFFFFF" d="M14.486,8.961l6.664,4.07l4.523-3.625l-6.586-4.297L14.486,8.961z"/>
<path fill="#FFFFFF" d="M14.486,17.102l6.664-4.07l4.523,3.625l-6.586,4.297L14.486,17.102z"/>
<path fill="#FFFFFF" d="M19.087,21.735l-4.601-3.789l-4.601,3.789l-1.953-1.281v1.508l6.555,3.93l6.555-3.93v-1.508L19.087,21.735z"
	/>
</svg>
