<?xml version="1.0" encoding="utf-8"?>
<!-- Generator: Adobe Illustrator 17.0.1, SVG Export Plug-In . SVG Version: 6.00 Build 0)  -->
<!DOCTYPE svg PUBLIC "-//W3C//DTD SVG 1.1//EN" "http://www.w3.org/Graphics/SVG/1.1/DTD/svg11.dtd">
<svg version="1.1" id="Layer_1" xmlns="http://www.w3.org/2000/svg" xmlns:xlink="http://www.w3.org/1999/xlink" x="0px" y="0px"
	 width="30px" height="30px" viewBox="-0.5 0.5 30 30" enable-background="new -0.5 0.5 30 30" xml:space="preserve">
<path fill="#0072C6" d="M14.519,6.721l-8.957,5.465L-0.5,7.319L8.342,1.55L14.519,6.721z"/>
<path fill="#0072C6" d="M14.519,17.65l-8.957-5.464L-0.5,17.053l8.842,5.768L14.519,17.65z"/>
<path fill="#0072C6" d="M14.481,6.721l8.946,5.465L29.5,7.319L20.658,1.55L14.481,6.721z"/>
<path fill="#0072C6" d="M14.481,17.65l8.946-5.464l6.073,4.867l-8.842,5.768L14.481,17.65z"/>
<path fill="#0072C6" d="M20.658,23.87l-6.178-5.087L8.302,23.87L5.68,22.15v2.024l8.8,5.276l8.8-5.276V22.15L20.658,23.87z"/>
</svg>
