<?xml version="1.0" encoding="utf-8"?>
<!-- Generator: Adobe Illustrator 17.1.0, SVG Export Plug-In . SVG Version: 6.00 Build 0)  -->
<!DOCTYPE svg PUBLIC "-//W3C//DTD SVG 1.1//EN" "http://www.w3.org/Graphics/SVG/1.1/DTD/svg11.dtd">
<svg version="1.1" id="Layer_1" xmlns="http://www.w3.org/2000/svg" xmlns:xlink="http://www.w3.org/1999/xlink" x="0px" y="0px"
	 height="30px" width="30px" viewBox="0 0 500 500" enable-background="new 0 0 500 500" xml:space="preserve">
<rect fill="#7FBA00" width="500" height="500"/>
<path fill="#FFFFFF" d="M414.7,0h-29.5C349.5,121.8,194,216.8,0,233.2v28.6C210.7,244.6,379.5,137.1,414.7,0z"/>
<path fill="#FFFFFF" d="M393,46c25.4,0,46-20.6,46-46h-92C347.1,25.4,367.6,46,393,46z"/>
<polygon fill="#FFFFFF" points="339,373.3 260.9,446.6 236.6,342.3 "/>
<path fill="#FFFFFF" d="M288.2,370.8c-1.4,0-2.8-0.2-4.1-0.6c-7.5-2.3-11.8-10.3-9.5-17.8l6.2-20.5c2.3-7.5,10.3-11.8,17.8-9.5
	c7.5,2.3,11.8,10.3,9.5,17.8l-6.2,20.5C300,366.8,294.3,370.8,288.2,370.8z"/>
<path fill="#FFFFFF" d="M314.5,283.9c-1.4,0-2.8-0.2-4.1-0.6c-7.5-2.3-11.8-10.3-9.5-17.8l12.1-39.8c2.3-7.5,10.3-11.8,17.8-9.5
	c7.6,2.3,11.8,10.3,9.5,17.8l-12.1,39.8C326.3,279.9,320.7,283.9,314.5,283.9z"/>
<path fill="#FFFFFF" d="M346.7,177.7c-1.4,0-2.8-0.2-4.1-0.6c-7.6-2.3-11.8-10.3-9.5-17.8l12.1-39.8c2.3-7.6,10.2-11.8,17.8-9.5
	c7.6,2.3,11.8,10.3,9.5,17.8l-12.1,39.8C358.5,173.7,352.8,177.7,346.7,177.7z"/>
<path fill="#FFFFFF" d="M378.9,71.5c-1.4,0-2.8-0.2-4.1-0.6c-7.6-2.3-11.8-10.3-9.5-17.8l12.1-39.8c2.3-7.5,10.2-11.8,17.8-9.5
	c7.6,2.3,11.8,10.3,9.5,17.8l-12.1,39.8C390.7,67.5,385,71.5,378.9,71.5z"/>
</svg>
