<?xml version="1.0" encoding="utf-8"?>
<!-- Generator: Adobe Illustrator 18.1.1, SVG Export Plug-In . SVG Version: 6.00 Build 0)  -->
<!DOCTYPE svg PUBLIC "-//W3C//DTD SVG 1.1//EN" "http://www.w3.org/Graphics/SVG/1.1/DTD/svg11.dtd">
<svg version="1.1" id="Layer_1" xmlns="http://www.w3.org/2000/svg" xmlns:xlink="http://www.w3.org/1999/xlink" x="0px" y="0px"
	 width="23px" height="23px" viewBox="0 0 23 23" enable-background="new 0 0 23 23" xml:space="preserve">
<g>
	<rect fill="#305CAF" width="23" height="23"/>
	<path fill="#FFFFFF" d="M14.2983227,7.5658846c-0.4291992-0.0007324-0.8586426,0.0010376-1.2878418-0.0007324
		c-0.2719727-0.0169678-0.5515137,0.18927-0.6010742,0.4590454c-0.0063477,0.46875-0.0021973,0.9377441-0.0019531,1.4064941
		c0.6293945,0.0025635,1.2587891-0.0007935,1.8881836,0.0015869c-0.0461426,0.6781006-0.130127,1.3530884-0.2290039,2.0254517
		c-0.5559082,0.005188-1.1120605-0.0005493-1.6679688,0.0028687c-0.0048828,1.999939,0.0024414,3.999939-0.0039062,5.9998789
		c-0.8259277,0.0033569-1.6520996-0.0015869-2.4780273,0.0023193c-0.015625-2.0002451,0.0014648-4.0014658-0.0085449-6.001893
		c-0.402832-0.0042114-0.8059082,0.0028687-1.2087402-0.003418c0.0014648-0.6723633,0.0004883-1.3447266,0.0007324-2.0168457
		C9.102766,9.4356966,9.5055981,9.441678,9.908186,9.4377718c0.0124512-0.6536255-0.012207-1.3080444,0.0129395-1.9611816
		c0.0402832-0.5172119,0.2373047-1.038269,0.6240234-1.3955688c0.4680176-0.4455566,1.1335449-0.5960693,1.7614746-0.6148071
		c0.6640625-0.0059814,1.3278809-0.0023804,1.9919434-0.0020752C14.3010082,6.1646395,14.3014965,6.8653841,14.2983227,7.5658846z"
		/>
</g>
</svg>
