<?xml version="1.0" encoding="utf-8"?>
<!-- Generator: Adobe Illustrator 17.1.0, SVG Export Plug-In . SVG Version: 6.00 Build 0)  -->
<!DOCTYPE svg PUBLIC "-//W3C//DTD SVG 1.1//EN" "http://www.w3.org/Graphics/SVG/1.1/DTD/svg11.dtd">
<svg version="1.1" id="Layer_1" xmlns="http://www.w3.org/2000/svg" xmlns:xlink="http://www.w3.org/1999/xlink" x="0px" y="0px"
	 height="30px" width="30px" viewBox="0 0 30 30" enable-background="new 0 0 30 30" xml:space="preserve">
<rect fill="#DD5900" width="30" height="30"/>
<path fill="#FFFFFF" d="M25.6,14L16,4.4c-0.5-0.5-1.4-0.5-1.9,0L12,6.5L14.5,9c0.2-0.1,0.4-0.1,0.6-0.1c0.9,0,1.7,0.7,1.7,1.7
	c0,0.2,0,0.4-0.1,0.6l2.4,2.4c0.2-0.1,0.4-0.1,0.6-0.1c0.9,0,1.7,0.8,1.7,1.7c0,0.9-0.7,1.7-1.7,1.7c-0.9,0-1.7-0.7-1.7-1.7
	c0-0.2,0-0.4,0.1-0.6l-2.3-2.3v6c0.6,0.3,0.9,0.8,0.9,1.5c0,0.9-0.7,1.7-1.7,1.7c-0.9,0-1.7-0.7-1.7-1.7c0-0.7,0.4-1.3,1.1-1.6v-6.1
	c-0.6-0.2-1.1-0.8-1.1-1.6c0-0.2,0-0.4,0.1-0.6L11,7.4L4.4,14c-0.5,0.5-0.5,1.4,0,1.9l9.6,9.6c0.5,0.5,1.4,0.5,1.9,0l9.6-9.6
	C26.1,15.4,26.1,14.6,25.6,14z"/>
</svg>
