<?xml version="1.0" encoding="utf-8"?>
<!-- Generator: Adobe Illustrator 17.0.1, SVG Export Plug-In . SVG Version: 6.00 Build 0)  -->
<!DOCTYPE svg PUBLIC "-//W3C//DTD SVG 1.1//EN" "http://www.w3.org/Graphics/SVG/1.1/DTD/svg11.dtd">
<svg version="1.1" id="Layer_1" xmlns="http://www.w3.org/2000/svg" xmlns:xlink="http://www.w3.org/1999/xlink" x="0px" y="0px"
	 width="30px" height="30px" viewBox="-0.5 0.5 30 30" enable-background="new -0.5 0.5 30 30" xml:space="preserve">
<rect x="-0.5" y="0.5" fill="#1E1E1E" width="30" height="30"/>
<path fill="#FFFFFF" d="M14.5,4.5c-6.073,0-11,4.927-11,11c0,6.081,4.927,11,11,11s11-4.919,11-11C25.5,9.427,20.573,4.5,14.5,4.5z
	 M17.409,25.05v-1.879c0-0.725-0.396-1.368-1.005-1.772c0.041-0.008,0.091-0.016,0.14-0.016c1.046-0.132,1.994-0.461,1.994-0.461
	s1.36-0.42,2.093-1.277c0.775-0.906,0.972-2.249,0.972-2.249s0.255-1.467,0-2.604c-0.255-1.112-1.071-1.887-1.071-1.887
	s0.28-0.725,0.255-1.483c-0.025-0.725-0.363-1.483-0.363-1.483s-0.643-0.058-1.327,0.206c-0.832,0.321-1.739,0.972-1.739,0.972
	s-0.634-0.206-1.376-0.305c-0.684-0.099-1.483-0.107-1.483-0.107s-0.799,0.008-1.483,0.107c-0.742,0.099-1.376,0.305-1.376,0.305
	s-0.898-0.651-1.739-0.972C9.227,9.88,8.576,9.938,8.576,9.938s-0.33,0.758-0.354,1.483c-0.025,0.758,0.255,1.483,0.255,1.483
	s-0.824,0.774-1.071,1.887c-0.264,1.137,0,2.604,0,2.604s0.198,1.343,0.964,2.249c0.733,0.857,2.101,1.277,2.101,1.277
	s0.939,0.33,1.986,0.461c0.049,0,0.099,0.008,0.148,0.016c-0.61,0.404-1.013,1.046-1.013,1.772v1.879
	c-4.095-1.244-7.07-5.051-7.07-9.55c0-5.512,4.466-9.978,9.978-9.978s9.987,4.466,9.987,9.978
	C24.487,19.999,21.504,23.806,17.409,25.05z"/>
</svg>
