<?xml version="1.0" encoding="utf-8"?>
<!-- Generator: Adobe Illustrator 19.1.0, SVG Export Plug-In . SVG Version: 6.00 Build 0)  -->
<svg version="1.1" id="Layer_1" xmlns="http://www.w3.org/2000/svg" xmlns:xlink="http://www.w3.org/1999/xlink" x="0px" y="0px"
	 width="23px" height="23px" viewBox="-788 989 23 23" style="enable-background:new -788 989 23 23;" xml:space="preserve">
<style type="text/css">
	.st0{fill:#FFFFFF;}
	.st1{fill:#E94435;}
	.st2{fill:#F8BB15;}
	.st3{fill:#547DBE;}
	.st4{fill:#34A751;}
</style>
<g>
	<path class="st0" d="M-780.029,989.63c-2.804,0.96-5.191,3.057-6.515,5.707c-0.461,0.913-0.797,1.888-0.999,2.89
		c-0.508,2.498-0.154,5.161,0.998,7.436c0.749,1.485,1.822,2.805,3.124,3.84c1.228,0.98,2.66,1.703,4.179,2.107
		c1.916,0.514,3.955,0.502,5.883,0.063c1.743-0.401,3.392-1.234,4.708-2.449c1.392-1.279,2.384-2.964,2.91-4.774
		c0.573-1.975,0.652-4.083,0.293-6.105c-3.607-0.002-7.215-0.001-10.822,0c0,1.496-0.002,2.992,0.001,4.488
		c2.089,0,4.178-0.001,6.267,0c-0.242,1.434-1.094,2.745-2.302,3.552c-0.76,0.511-1.632,0.842-2.532,1
		c-0.906,0.154-1.841,0.174-2.744-0.009c-0.919-0.183-1.795-0.566-2.56-1.105c-1.223-0.859-2.156-2.117-2.636-3.531
		c-0.49-1.439-0.494-3.04,0.002-4.478c0.344-1.013,0.917-1.949,1.669-2.711c0.928-0.95,2.134-1.629,3.434-1.908
		c1.113-0.238,2.287-0.192,3.376,0.137c0.926,0.281,1.78,0.789,2.479,1.457c0.707-0.703,1.41-1.41,2.116-2.114
		c0.37-0.379,0.759-0.742,1.118-1.131c-1.072-0.992-2.328-1.789-3.701-2.293C-774.754,988.789-777.541,988.769-780.029,989.63z"/>
	<g>
		<path class="st1" d="M-780.029,989.63c2.488-0.861,5.275-0.842,7.746,0.068c1.373,0.504,2.629,1.301,3.701,2.293
			c-0.358,0.389-0.747,0.752-1.118,1.131c-0.706,0.704-1.409,1.411-2.116,2.114c-0.699-0.668-1.553-1.175-2.479-1.457
			c-1.09-0.33-2.263-0.375-3.376-0.137c-1.3,0.279-2.506,0.958-3.434,1.908c-0.752,0.762-1.325,1.698-1.669,2.711
			c-1.256-0.975-2.512-1.95-3.769-2.924C-785.22,992.687-782.833,990.59-780.029,989.63z"/>
	</g>
	<g>
		<path class="st2" d="M-787.543,998.228c0.202-1.003,0.539-1.977,0.999-2.89c1.257,0.974,2.513,1.949,3.769,2.924
			c-0.496,1.438-0.492,3.039-0.002,4.478c-1.256,0.975-2.511,1.951-3.768,2.924C-787.697,1003.389-788.052,1000.726-787.543,998.228
			z"/>
	</g>
	<g>
		<path class="st3" d="M-776.27,998.345c3.607,0,7.215-0.001,10.822,0c0.359,2.022,0.28,4.13-0.293,6.105
			c-0.526,1.811-1.518,3.495-2.91,4.774c-1.216-0.948-2.438-1.891-3.654-2.84c1.208-0.807,2.06-2.118,2.302-3.552
			c-2.089-0.001-4.178,0-6.267,0C-776.271,1001.337-776.269,999.841-776.27,998.345z"/>
	</g>
	<g>
		<path class="st4" d="M-786.545,1005.664c1.257-0.973,2.512-1.949,3.768-2.924c0.479,1.415,1.413,2.672,2.636,3.531
			c0.765,0.539,1.642,0.922,2.56,1.105c0.903,0.183,1.839,0.163,2.744,0.009c0.9-0.158,1.772-0.489,2.532-1
			c1.216,0.949,2.438,1.891,3.654,2.84c-1.317,1.215-2.965,2.048-4.708,2.449c-1.928,0.439-3.968,0.451-5.883-0.063
			c-1.518-0.404-2.95-1.127-4.179-2.107C-784.723,1008.469-785.796,1007.149-786.545,1005.664z"/>
	</g>
</g>
</svg>
