<?xml version="1.0" encoding="utf-8"?>
<!-- Generator: Adobe Illustrator 18.1.1, SVG Export Plug-In . SVG Version: 6.00 Build 0)  -->
<!DOCTYPE svg PUBLIC "-//W3C//DTD SVG 1.1//EN" "http://www.w3.org/Graphics/SVG/1.1/DTD/svg11.dtd">
<svg version="1.1" id="Layer_1" xmlns="http://www.w3.org/2000/svg" xmlns:xlink="http://www.w3.org/1999/xlink" x="0px" y="0px"
	 width="23px" height="23px" viewBox="0 0 23 23" enable-background="new 0 0 23 23" xml:space="preserve">
<rect x="0.000001" fill="#DE3737" width="23" height="23"/>
<g>
	<path fill="#FFFFFF" d="M11.8196459,12.3507862l-0.5627165-0.4369774c-0.1713724-0.142127-0.405755-0.3297462-0.405755-0.6731968
		c0-0.3448639,0.2343817-0.5641298,0.4378252-0.767148c0.6555367-0.5159531,1.3105087-1.0651064,1.3105087-2.2223272
		c0-1.1899972-0.7487822-1.8160067-1.1076307-2.1129766h0.9676228l1.0156593-0.6381593h-3.0769272
		c-0.844286,0-2.0609856,0.199769-2.9517522,0.9351292c-0.67136,0.579246-0.9988461,1.3778992-0.9988461,2.0968704
		c0,1.2205143,0.9371066,2.4576988,2.5919137,2.4576988c0.1562557,0,0.3272038-0.0153999,0.4992819-0.0313644
		c-0.07728,0.1880436-0.155407,0.3445816-0.155407,0.6103277c0,0.4847298,0.2490759,0.7819815,0.4686241,1.0635519
		c-0.7031479,0.0483179-2.0157762,0.1261625-2.9833994,0.7209492c-0.921566,0.5480232-1.2020063,1.3456879-1.2020063,1.9086866
		C5.6666412,16.4206238,6.7588735,17.5,9.0237246,17.5c2.6857243,0,4.1075611-1.4861183,4.1075611-2.957262
		C13.1314268,13.4618082,12.5069714,12.9297495,11.8196459,12.3507862z M9.7740602,10.5511675
		c-1.3435688,0-1.9522009-1.7368898-1.9522009-2.7849021c0-0.4080153,0.07728-0.8293104,0.3430271-1.1583509
		C8.4153748,6.2945566,8.8516464,6.0912552,9.258955,6.0912552c1.2952509,0,1.9670343,1.7524314,1.9670343,2.8795595
		c0,0.2819939-0.0310812,0.7817001-0.390214,1.142951C10.5845804,10.3643961,10.1642742,10.5511675,9.7740602,10.5511675z
		 M9.7894592,16.8441811c-1.6707716,0-2.7481685-0.7992172-2.7481685-1.9105225c0-1.111022,0.9989867-1.4868259,1.3427205-1.6112928
		c0.6555367-0.2205372,1.4991169-0.2513361,1.6398315-0.2513361c0.1561136,0,0.2342415,0,0.3585682,0.0156813
		c1.1877365,0.8452759,1.7032652,1.266571,1.7032652,2.0667782C12.0856752,16.1225262,11.2890005,16.8441811,9.7894592,16.8441811z"
		/>
	<polygon fill="#FFFFFF" points="15.7633228,10.5272913 15.7633228,8.9626207 14.9905233,8.9626207 14.9905233,10.5272913 
		13.4283953,10.5272913 13.4283953,11.3087091 14.9905233,11.3087091 14.9905233,12.8829861 15.7633228,12.8829861 
		15.7633228,11.3087091 17.3333607,11.3087091 17.3333607,10.5272913 	"/>
</g>
</svg>
