<?xml version="1.0" encoding="utf-8"?>
<!-- Generator: Adobe Illustrator 19.1.0, SVG Export Plug-In . SVG Version: 6.00 Build 0)  -->
<svg version="1.1" id="Layer_1" xmlns="http://www.w3.org/2000/svg" xmlns:xlink="http://www.w3.org/1999/xlink" x="0px" y="0px"
	 width="23px" height="23px" viewBox="-788 989 23 23" style="enable-background:new -788 989 23 23;" xml:space="preserve">
<style type="text/css">
	.st0{fill:#4585F1;}
	.st1{fill:#FFFFFF;}
</style>
<rect x="-788" y="989" class="st0" width="23" height="23"/>
<path class="st1" d="M-769.308,999.098c-2.347-0.001-4.695-0.001-7.042,0c0,0.974-0.001,1.947,0.001,2.921
	c1.359,0,2.719-0.001,4.078,0c-0.158,0.933-0.712,1.786-1.498,2.311c-0.494,0.332-1.062,0.548-1.648,0.651
	c-0.589,0.101-1.198,0.113-1.786-0.006c-0.598-0.119-1.168-0.368-1.666-0.719c-0.796-0.559-1.403-1.377-1.715-2.298
	c-0.319-0.937-0.321-1.979,0.001-2.914c0.224-0.659,0.597-1.269,1.086-1.764c0.604-0.618,1.389-1.06,2.235-1.241
	c0.724-0.155,1.488-0.125,2.197,0.089c0.603,0.183,1.158,0.513,1.613,0.948c0.46-0.457,0.918-0.918,1.377-1.376
	c0.241-0.247,0.494-0.483,0.727-0.736c-0.697-0.645-1.515-1.164-2.408-1.492c-1.608-0.592-3.422-0.604-5.041-0.044
	c-1.824,0.625-3.378,1.989-4.239,3.714c-0.3,0.594-0.519,1.229-0.65,1.881c-0.331,1.625-0.1,3.358,0.649,4.839
	c0.487,0.966,1.186,1.825,2.033,2.499c0.799,0.638,1.731,1.108,2.719,1.371c1.247,0.334,2.574,0.327,3.828,0.041
	c1.134-0.261,2.207-0.803,3.064-1.594c0.906-0.832,1.551-1.929,1.893-3.107C-769.126,1001.786-769.074,1000.414-769.308,999.098z"/>
</svg>
