<?xml version="1.0" encoding="utf-8"?>
<!-- Generator: Adobe Illustrator 19.1.0, SVG Export Plug-In . SVG Version: 6.00 Build 0)  -->
<svg version="1.1" id="Layer_1" xmlns="http://www.w3.org/2000/svg" xmlns:xlink="http://www.w3.org/1999/xlink" x="0px" y="0px"
	 width="23px" height="23px" viewBox="-788 989 23 23" style="enable-background:new -788 989 23 23;" xml:space="preserve">
<style type="text/css">
	.st0{fill:#DE3737;}
	.st1{fill-rule:evenodd;clip-rule:evenodd;fill:#FFFFFF;}
</style>
<rect x="-788" y="989" class="st0" width="23" height="23"/>
<path class="st1" d="M-779.538,1005.776c-2.914,0-5.276-2.362-5.276-5.276s2.362-5.276,5.276-5.276c1.372,0,2.621,0.524,3.559,1.382
	l-1.555,1.522c-0.541-0.458-1.24-0.735-2.004-0.735c-1.715,0-3.105,1.39-3.105,3.105s1.39,3.105,3.105,3.105
	c1.327,0,2.459-0.832,2.903-2.003h-2.97v-2.204h2.97h2.239h0.018c0.076,0.355,0.116,0.724,0.116,1.102
	C-774.263,1003.414-776.625,1005.776-779.538,1005.776z"/>
<polygon class="st1" points="-768.186,1000.901 -770.022,1000.901 -770.022,1002.737 -771.358,1002.737 -771.358,1000.901 
	-773.194,1000.901 -773.194,999.565 -771.358,999.565 -771.358,997.729 -770.022,997.729 -770.022,999.565 -768.186,999.565 "/>
</svg>
