<?xml version="1.0" encoding="utf-8"?>
<!-- Generator: Adobe Illustrator 17.1.0, SVG Export Plug-In . SVG Version: 6.00 Build 0)  -->
<!DOCTYPE svg PUBLIC "-//W3C//DTD SVG 1.1//EN" "http://www.w3.org/Graphics/SVG/1.1/DTD/svg11.dtd">
<svg version="1.1" id="Layer_1" xmlns="http://www.w3.org/2000/svg" xmlns:xlink="http://www.w3.org/1999/xlink" x="0px" y="0px"
	 viewBox="0 0 23 23" enable-background="new 0 0 23 23" xml:space="preserve">
<rect fill="#4585F1" width="23" height="23"/>
<g>
	<path fill="#FFFFFF" d="M13.7,12.4l-0.6-0.4c-0.2-0.1-0.4-0.3-0.4-0.7c0-0.3,0.2-0.6,0.4-0.8c0.7-0.5,1.3-1.1,1.3-2.2
		c0-1.2-0.7-1.8-1.1-2.1h1l1-0.6h-3.1c-0.8,0-2.1,0.2-3,0.9c-0.7,0.6-1,1.4-1,2.1C8.4,9.8,9.3,11,11,11c0.2,0,0.3,0,0.5,0
		c-0.1,0.2-0.2,0.3-0.2,0.6c0,0.5,0.2,0.8,0.5,1.1c-0.7,0-2,0.1-3,0.7c-0.9,0.5-1.2,1.3-1.2,1.9c0,1.2,1.1,2.2,3.4,2.2
		c2.7,0,4.1-1.5,4.1-3C15.1,13.5,14.4,12.9,13.7,12.4z M11.7,10.6c-1.3,0-2-1.7-2-2.8c0-0.4,0.1-0.8,0.3-1.2
		c0.3-0.3,0.7-0.5,1.1-0.5c1.3,0,2,1.8,2,2.9c0,0.3,0,0.8-0.4,1.1C12.5,10.4,12.1,10.6,11.7,10.6z M11.7,16.8C10,16.8,9,16,9,14.9
		c0-1.1,1-1.5,1.3-1.6c0.7-0.2,1.5-0.3,1.6-0.3c0.2,0,0.2,0,0.4,0c1.2,0.8,1.7,1.3,1.7,2.1C14,16.1,13.2,16.8,11.7,16.8z"/>
</g>
</svg>
