<?xml version="1.0" encoding="utf-8"?>
<!-- Generator: Adobe Illustrator 17.1.0, SVG Export Plug-In . SVG Version: 6.00 Build 0)  -->
<!DOCTYPE svg PUBLIC "-//W3C//DTD SVG 1.1//EN" "http://www.w3.org/Graphics/SVG/1.1/DTD/svg11.dtd">
<svg version="1.1" id="Layer_1" xmlns="http://www.w3.org/2000/svg" xmlns:xlink="http://www.w3.org/1999/xlink" x="0px" y="0px"
	 width="50px" height="50px" viewBox="0 0 50 50" enable-background="new 0 0 50 50" xml:space="preserve">
<rect fill="#1E1E1E" width="50" height="50"/>
<g id="layer1" transform="translate(-270,-432.48586)" inkscape:groupmode="layer" inkscape:label="Ebene 1">
	<g id="g1364" transform="translate(802.22414,182.8333)">
		
			<path id="path7508" sodipodi:nodetypes="cssscccsc" inkscape:connector-curvature="0" fill="#FFFFFF" stroke="#FFFFFF" stroke-linecap="round" stroke-linejoin="round" stroke-miterlimit="10" d="
			M-506.3,282.2c4.5,1.8,10.2-2.6,10.2-9.7c0-8.5-5.3-13.2-10.2-13.2c-7.9,0-15.4,6.5-15.4,15.4c0,9.9,8.6,15.4,15.4,15.4
			c-1.5-0.2-10-1.3-10-13.1c0-8,5.9-11.2,10-9.8c0.1,0,4.5,1.8,4.5,7.5C-501.7,280.4-506.3,282.2-506.3,282.2L-506.3,282.2z"/>
		
			<path id="path7510" sodipodi:nodetypes="cssscccsc" inkscape:connector-curvature="0" fill="none" stroke="#FFFFFF" stroke-linecap="round" stroke-linejoin="round" stroke-miterlimit="10" d="
			M-506.3,267.2c-4.5-1.6-10,2.2-10,9.6c0,12.1,9,13.3,10.1,13.3c7.9,0,15.4-6.5,15.4-15.4c0-9.9-8.6-15.4-15.4-15.4
			c1.9-0.3,10.1,2,10.1,13.3c0,7.4-6.2,11.4-10.2,9.6c-0.1,0-4.5-1.8-4.5-7.5C-510.8,269-506.3,267.2-506.3,267.2L-506.3,267.2z"/>
	</g>
</g>
</svg>
