<?xml version="1.0" encoding="utf-8"?>
<!-- Generator: Adobe Illustrator 18.1.1, SVG Export Plug-In . SVG Version: 6.00 Build 0)  -->
<!DOCTYPE svg PUBLIC "-//W3C//DTD SVG 1.1//EN" "http://www.w3.org/Graphics/SVG/1.1/DTD/svg11.dtd">
<svg version="1.1" id="Layer_1" xmlns="http://www.w3.org/2000/svg" xmlns:xlink="http://www.w3.org/1999/xlink" x="0px" y="0px"
	 width="23px" height="23px" viewBox="0 0 23 23" enable-background="new 0 0 23 23" xml:space="preserve">
<rect fill="#0080B5" width="23" height="23"/>
<g>
	<rect x="5.6520386" y="9.2667236" fill="#FFFFFF" width="2.5723877" height="7.7391968"/>
	<path fill="#FFFFFF" d="M6.9552612,5.5358887C6.0753174,5.5358887,5.5,6.1136475,5.5,6.8730469
		c0,0.7426758,0.5582275,1.3369751,1.4215088,1.3369751h0.0166626h0.000061c0.8970337,0,1.4553833-0.5942993,1.4553833-1.3369751
		C8.3768921,6.1136475,7.8352661,5.5358887,6.9552612,5.5358887z"/>
	<path fill="#FFFFFF" d="M14.5385132,9.085083c-1.3665161,0-1.9766235,0.7510986-2.3182373,1.2785645V9.2667236H9.6478882
		c0.0337524,0.7261963,0,7.7391968,0,7.7391968h2.5722656V12.684021c0-0.2313232,0.0167236-0.4624023,0.0846558-0.6277466
		c0.1859741-0.4620972,0.6092529-0.9407349,1.3198853-0.9407349c0.9307861,0,1.3031616,0.7097168,1.3031616,1.750061v4.1403198H17.5
		v-4.437561C17.5,10.1912231,16.230896,9.085083,14.5385132,9.085083z"/>
</g>
</svg>
