<?xml version="1.0" encoding="utf-8"?>
<!-- Generator: Adobe Illustrator 17.1.0, SVG Export Plug-In . SVG Version: 6.00 Build 0)  -->
<!DOCTYPE svg PUBLIC "-//W3C//DTD SVG 1.1//EN" "http://www.w3.org/Graphics/SVG/1.1/DTD/svg11.dtd">
<svg version="1.1" id="Layer_1" xmlns="http://www.w3.org/2000/svg" xmlns:xlink="http://www.w3.org/1999/xlink" x="0px" y="0px"
	 height="30px" width="30px" viewBox="0 0 30 30" enable-background="new 0 0 30 30" xml:space="preserve">
<rect fill="#8D70C9" width="30" height="30"/>
<path fill="#FFFFFF" d="M26.2,6.6h-2.5c-0.6,0-1.2,0.5-1.4,1.1L19,21.6c1.7,0.5,3.2,1.1,4.4,1.7l3.7-15.6
	C27.2,7.1,26.8,6.6,26.2,6.6z M19.3,11h-2.5c-0.6,0-1.2,0.5-1.4,1.1l-1.9,8.3c1.7,0.3,3.2,0.6,4.5,1l2.2-9.3
	C20.3,11.4,19.9,11,19.3,11z M6.4,16.3H3.9c-0.6,0-1.2,0.5-1.4,1.1L2,19.7c0.4,0,0.8-0.1,1.2-0.1c1.2,0,2.4,0,3.5,0l0.5-2.3
	C7.4,16.8,7.1,16.3,6.4,16.3z M13,13.4h-2.5c-0.6,0-1.2,0.5-1.4,1.1l-1.2,5.2c1.7,0.1,3.2,0.2,4.7,0.4l1.3-5.7
	C14.1,13.9,13.7,13.4,13,13.4z"/>
</svg>
