<?xml version="1.0" encoding="utf-8"?>
<!-- Generator: Adobe Illustrator 17.0.1, SVG Export Plug-In . SVG Version: 6.00 Build 0)  -->
<!DOCTYPE svg PUBLIC "-//W3C//DTD SVG 1.1//EN" "http://www.w3.org/Graphics/SVG/1.1/DTD/svg11.dtd">
<svg version="1.1" id="Layer_1" xmlns="http://www.w3.org/2000/svg" xmlns:xlink="http://www.w3.org/1999/xlink" x="0px" y="0px"
	 width="101px" height="37px" viewBox="0 0 101 37" enable-background="new 0 0 101 37" xml:space="preserve">
<path fill="#FFFFFF" d="M39.032,19.815l-0.476,1.332h-0.027c-0.085-0.312-0.228-0.755-0.451-1.317l-2.547-6.39h-2.49v10.159h1.642
	v-6.245c0-0.385-0.008-0.851-0.025-1.384c-0.008-0.27-0.039-0.486-0.047-0.65h0.036c0.083,0.383,0.17,0.674,0.233,0.869l3.054,7.41
	h1.149l3.031-7.477c0.069-0.17,0.142-0.503,0.209-0.802h0.036c-0.04,0.74-0.073,1.416-0.078,1.824v6.455h1.752V13.44h-2.392
	L39.032,19.815z"/>
<rect x="45.684" y="16.319" fill="#FFFFFF" width="1.713" height="7.28"/>
<path fill="#FFFFFF" d="M46.558,13.225c-0.282,0-0.528,0.096-0.73,0.286c-0.203,0.191-0.306,0.431-0.306,0.714
	c0,0.279,0.102,0.514,0.302,0.7c0.2,0.185,0.446,0.279,0.733,0.279c0.287,0,0.534-0.094,0.736-0.279
	c0.203-0.186,0.306-0.421,0.306-0.7c0-0.273-0.1-0.511-0.298-0.706C47.105,13.324,46.855,13.225,46.558,13.225z"/>
<path fill="#FFFFFF" d="M53.46,16.246c-0.329-0.068-0.651-0.103-0.957-0.103c-0.786,0-1.487,0.168-2.083,0.501
	c-0.597,0.333-1.059,0.808-1.373,1.412c-0.313,0.603-0.472,1.307-0.472,2.092c0,0.688,0.154,1.319,0.458,1.875
	c0.305,0.558,0.736,0.993,1.282,1.296c0.545,0.302,1.175,0.455,1.872,0.455c0.814,0,1.509-0.163,2.066-0.483l0.023-0.013v-1.569
	l-0.072,0.053c-0.253,0.184-0.535,0.331-0.838,0.436c-0.303,0.106-0.579,0.159-0.821,0.159c-0.672,0-1.211-0.21-1.603-0.625
	c-0.393-0.415-0.591-0.997-0.591-1.731c0-0.738,0.207-1.336,0.616-1.777c0.408-0.44,0.948-0.663,1.606-0.663
	c0.563,0,1.112,0.191,1.63,0.567l0.072,0.052v-1.653l-0.023-0.013C54.057,16.405,53.79,16.314,53.46,16.246z"/>
<path fill="#FFFFFF" d="M59.102,16.192c-0.43,0-0.815,0.138-1.145,0.411c-0.29,0.239-0.499,0.567-0.659,0.976H57.28v-1.261h-1.712
	v7.28h1.712v-3.724c0-0.633,0.144-1.153,0.427-1.546c0.28-0.388,0.652-0.585,1.108-0.585c0.154,0,0.328,0.025,0.515,0.076
	c0.185,0.05,0.32,0.104,0.399,0.161l0.072,0.052v-1.726l-0.028-0.012C59.613,16.226,59.388,16.192,59.102,16.192z"/>
<path fill="#FFFFFF" d="M63.753,16.143c-1.201,0-2.154,0.352-2.834,1.046c-0.68,0.694-1.024,1.654-1.024,2.854
	c0,1.14,0.336,2.056,0.999,2.724c0.663,0.668,1.566,1.007,2.683,1.007c1.163,0,2.098-0.357,2.778-1.06
	c0.679-0.703,1.024-1.654,1.024-2.826c0-1.158-0.323-2.082-0.961-2.745C65.781,16.48,64.884,16.143,63.753,16.143z M65.115,21.749
	c-0.322,0.404-0.806,0.608-1.439,0.608c-0.629,0-1.125-0.208-1.475-0.619c-0.352-0.413-0.53-1.002-0.53-1.751
	c0-0.772,0.178-1.376,0.53-1.796c0.35-0.418,0.841-0.63,1.461-0.63c0.601,0,1.08,0.202,1.422,0.602
	c0.345,0.401,0.519,1.001,0.519,1.782C65.603,20.735,65.439,21.342,65.115,21.749z"/>
<path fill="#FFFFFF" d="M71.177,19.327c-0.54-0.217-0.886-0.397-1.028-0.535c-0.138-0.133-0.207-0.322-0.207-0.561
	c0-0.212,0.086-0.382,0.263-0.519c0.178-0.138,0.426-0.208,0.737-0.208c0.289,0,0.585,0.045,0.878,0.135
	c0.293,0.089,0.551,0.209,0.767,0.356l0.071,0.048V16.46l-0.028-0.012c-0.198-0.085-0.46-0.158-0.778-0.217
	c-0.317-0.059-0.605-0.088-0.854-0.088c-0.817,0-1.492,0.209-2.008,0.621c-0.519,0.414-0.782,0.958-0.782,1.615
	c0,0.342,0.057,0.645,0.169,0.902c0.112,0.258,0.287,0.486,0.518,0.677c0.229,0.189,0.584,0.387,1.054,0.589
	c0.395,0.162,0.689,0.3,0.876,0.408c0.183,0.106,0.313,0.213,0.386,0.317c0.071,0.102,0.108,0.241,0.108,0.413
	c0,0.489-0.366,0.727-1.12,0.727c-0.28,0-0.598-0.058-0.948-0.173c-0.35-0.115-0.676-0.281-0.971-0.492l-0.072-0.052v1.669
	l0.026,0.012c0.245,0.113,0.555,0.209,0.919,0.284c0.364,0.075,0.695,0.113,0.981,0.113c0.886,0,1.6-0.21,2.12-0.624
	c0.524-0.417,0.789-0.973,0.789-1.654c0-0.491-0.143-0.911-0.425-1.251C72.34,19.909,71.855,19.6,71.177,19.327z"/>
<path fill="#FFFFFF" d="M77.649,16.143c-1.201,0-2.154,0.352-2.834,1.046c-0.679,0.694-1.024,1.654-1.024,2.854
	c0,1.14,0.336,2.056,1,2.724c0.663,0.668,1.566,1.007,2.683,1.007c1.163,0,2.098-0.357,2.778-1.06
	c0.679-0.703,1.024-1.654,1.024-2.826c0-1.158-0.323-2.082-0.961-2.745C79.677,16.48,78.78,16.143,77.649,16.143z M79.011,21.749
	c-0.322,0.404-0.806,0.608-1.439,0.608c-0.629,0-1.125-0.208-1.475-0.619c-0.352-0.413-0.53-1.002-0.53-1.751
	c0-0.772,0.178-1.376,0.53-1.796c0.35-0.418,0.841-0.63,1.461-0.63c0.601,0,1.08,0.202,1.422,0.602
	c0.345,0.401,0.519,1.001,0.519,1.782C79.5,20.735,79.335,21.342,79.011,21.749z"/>
<path fill="#FFFFFF" d="M90.406,17.715v-1.397h-1.734v-2.171l-0.058,0.018l-1.629,0.499l-0.032,0.01v1.645h-2.57v-0.916
	c0-0.427,0.095-0.753,0.284-0.971c0.187-0.216,0.454-0.325,0.794-0.325c0.245,0,0.499,0.058,0.754,0.172l0.064,0.028v-1.471
	l-0.03-0.011c-0.238-0.086-0.562-0.129-0.963-0.129c-0.506,0-0.966,0.111-1.366,0.328c-0.401,0.219-0.717,0.531-0.938,0.927
	c-0.22,0.396-0.332,0.853-0.332,1.36v1.008h-1.208v1.397h1.208v5.883h1.733v-5.883h2.57v3.739c0,1.54,0.726,2.32,2.159,2.32
	c0.235,0,0.483-0.028,0.736-0.082c0.258-0.056,0.433-0.111,0.536-0.17l0.023-0.013v-1.41l-0.07,0.047
	c-0.094,0.063-0.211,0.114-0.349,0.152c-0.138,0.039-0.253,0.058-0.342,0.058c-0.336,0-0.584-0.09-0.738-0.269
	c-0.156-0.18-0.235-0.495-0.235-0.936v-3.437H90.406z"/>
<rect x="11.006" y="10" fill="#FFFFFF" width="7.99" height="8"/>
<rect x="20" y="10" fill="#FFFFFF" width="8" height="8"/>
<rect x="11.006" y="19" fill="#FFFFFF" width="7.99" height="8"/>
<rect x="20" y="19" fill="#FFFFFF" width="8" height="8"/>
</svg>
