<?xml version="1.0" encoding="utf-8"?>
<!-- Generator: Adobe Illustrator 17.1.0, SVG Export Plug-In . SVG Version: 6.00 Build 0)  -->
<!DOCTYPE svg PUBLIC "-//W3C//DTD SVG 1.1//EN" "http://www.w3.org/Graphics/SVG/1.1/DTD/svg11.dtd">
<svg version="1.1" id="Layer_1" xmlns="http://www.w3.org/2000/svg" xmlns:xlink="http://www.w3.org/1999/xlink" x="0px" y="0px"
	 height="30px" width="30px" viewBox="0 0 30 30" enable-background="new 0 0 30 30" xml:space="preserve">
<rect fill="#2CA01C" width="30" height="30"/>
<g>
	<g>
		<path fill="#FFFFFF" d="M14.2,23.8h-2.1V11.1h-1.7c-2.1,0-3.8,1.7-3.8,3.8s1.7,3.8,3.8,3.8h0.4v2.1h-0.4c-3.3,0-5.9-2.7-5.9-5.9
			c0-3.3,2.7-5.9,5.9-5.9h3.8V23.8z"/>
	</g>
	<g>
		<path fill="#FFFFFF" d="M19.7,20.9h-4.1V6.2h2.1v12.6h2c2.1,0,3.8-1.7,3.8-3.8s-1.7-3.8-3.8-3.8H19V9h0.6c3.3,0,5.9,2.7,5.9,5.9
			C25.6,18.3,22.9,20.9,19.7,20.9z"/>
	</g>
</g>
</svg>
