<?xml version="1.0" encoding="utf-8"?>
<!-- Generator: Adobe Illustrator 17.1.0, SVG Export Plug-In . SVG Version: 6.00 Build 0)  -->
<!DOCTYPE svg PUBLIC "-//W3C//DTD SVG 1.1//EN" "http://www.w3.org/Graphics/SVG/1.1/DTD/svg11.dtd">
<svg version="1.1" id="Layer_1" xmlns="http://www.w3.org/2000/svg" xmlns:xlink="http://www.w3.org/1999/xlink" x="0px" y="0px"
	 width="50px" height="50px" viewBox="0 0 50 50" enable-background="new 0 0 50 50" xml:space="preserve">
<path fill="#BA141A" d="M0,35.7c-0.1,0.5,0.4,1.1,1.4,1.5l20.3,8.3c1.8,0.7,4.8,0.7,6.6,0l20.3-8.3c1-0.4,1.4-1,1.4-1.5l0-4.8
	c0.1,0.5-0.4,1.1-1.4,1.5l-20.3,8.3c-1.8,0.7-4.8,0.7-6.6,0L1.4,32.4c-1.1-0.4-1.5-1-1.3-1.6L0,35.7z"/>
<path fill="#BA141A" d="M48.6,29.7c1.8,0.7,1.8,2,0,2.7l-20.3,8.3c-1.8,0.7-4.8,0.7-6.6,0L1.4,32.4c-1.8-0.7-1.8-2,0-2.7l20.3-8.3
	c1.8-0.7,4.8-0.7,6.6,0L48.6,29.7z"/>
<path fill="#BA141A" d="M0,27.3c-0.1,0.5,0.4,1.1,1.4,1.5l20.3,8.3c1.8,0.7,4.8,0.7,6.6,0l20.3-8.3c1-0.4,1.4-1,1.4-1.5l0-4.8
	c0.1,0.5-0.4,1.1-1.4,1.5l-20.3,8.3c-1.8,0.7-4.8,0.7-6.6,0L1.4,24c-1.1-0.4-1.5-1-1.3-1.6L0,27.3z"/>
<path fill="#BA141A" d="M48.6,21.2c1.8,0.7,1.8,2,0,2.7l-20.3,8.3c-1.8,0.7-4.8,0.7-6.6,0L1.4,24c-1.8-0.7-1.8-2,0-2.7l20.3-8.3
	c1.8-0.7,4.8-0.7,6.6,0L48.6,21.2z"/>
<path fill="#BA141A" d="M0,18.8c-0.1,0.5,0.4,1.1,1.4,1.5l20.3,8.3c1.8,0.7,4.8,0.7,6.6,0l20.3-8.3c1-0.4,1.4-1,1.4-1.5l0-4.8
	c0.1,0.5-0.4,1.1-1.4,1.5l-20.3,8.3c-1.8,0.7-4.8,0.7-6.6,0L1.4,15.5c-1.1-0.4-1.5-1-1.3-1.6L0,18.8z"/>
<path opacity="0.25" fill="#1E1E1E" d="M0,35.7c-0.1,0.5,0.4,1.1,1.4,1.5l20.3,8.3c1.8,0.7,4.8,0.7,6.6,0l20.3-8.3
	c1-0.4,1.4-1,1.4-1.5l0-4.8c0.1,0.5-0.4,1.1-1.4,1.5l-20.3,8.3c-1.8,0.7-4.8,0.7-6.6,0L1.4,32.4c-1.1-0.4-1.5-1-1.3-1.6L0,35.7z"/>
<path opacity="0.25" fill="#1E1E1E" d="M0,27.3c-0.1,0.5,0.4,1.1,1.4,1.5l20.3,8.3c1.8,0.7,4.8,0.7,6.6,0l20.3-8.3
	c1-0.4,1.4-1,1.4-1.5l0-4.8c0.1,0.5-0.4,1.1-1.4,1.5l-20.3,8.3c-1.8,0.7-4.8,0.7-6.6,0L1.4,24c-1.1-0.4-1.5-1-1.3-1.6L0,27.3z"/>
<path opacity="0.25" fill="#1E1E1E" d="M0,18.8c-0.1,0.5,0.4,1.1,1.4,1.5l20.3,8.3c1.8,0.7,4.8,0.7,6.6,0l20.3-8.3
	c1-0.4,1.4-1,1.4-1.5l0-4.8c0.1,0.5-0.4,1.1-1.4,1.5l-20.3,8.3c-1.8,0.7-4.8,0.7-6.6,0L1.4,15.5c-1.1-0.4-1.5-1-1.3-1.6L0,18.8z"/>
<path fill="#BA141A" d="M48.6,12.8c1.8,0.7,1.8,2,0,2.7l-20.3,8.3c-1.8,0.7-4.8,0.7-6.6,0L1.4,15.5c-1.8-0.7-1.8-2,0-2.7l20.3-8.3
	c1.8-0.7,4.8-0.7,6.6,0L48.6,12.8z"/>
<path fill="#FFFFFF" d="M18.7,15.7c-2.3,1-6.1,1-8.4,0S8,13,10.3,12s6.1-1,8.4,0S21.1,14.7,18.7,15.7z"/>
<polygon fill="#FFFFFF" points="17.2,18.4 29.1,17 25.9,22.3 "/>
<polygon opacity="0.25" fill="#1E1E1E" points="35.8,17.1 28.7,13.9 35.8,10.7 42.9,13.9 "/>
<polygon opacity="0.25" fill="#1E1E1E" points="35.8,17.1 28.7,13.9 35.8,10.7 "/>
<polygon fill="#FFFFFF" points="22.7,10 18.1,9.6 22.2,8.6 21.7,6.5 25.2,7.9 29.5,7 27.5,9 30.7,10.5 26,10.3 23.7,12.1 "/>
</svg>
