<?xml version="1.0" encoding="utf-8"?>
<!-- Generator: Adobe Illustrator 17.1.0, SVG Export Plug-In . SVG Version: 6.00 Build 0)  -->
<!DOCTYPE svg PUBLIC "-//W3C//DTD SVG 1.1//EN" "http://www.w3.org/Graphics/SVG/1.1/DTD/svg11.dtd">
<svg version="1.1" id="Layer_1" xmlns="http://www.w3.org/2000/svg" xmlns:xlink="http://www.w3.org/1999/xlink" x="0px" y="0px"
	 height="30px" width="30px" viewBox="0 0 30 30" enable-background="new 0 0 30 30" xml:space="preserve">
<rect fill="#009CDB" width="30" height="30"/>
<path fill="#FFFFFF" d="M21.9,8.7c-0.7,0-1.4,0.1-2,0.4C19.1,7.8,17.7,7,16.1,7c-1.2,0-2.3,0.5-3.1,1.2c-0.9-1.1-2.2-1.8-3.7-1.8
	c-2.6,0-4.7,2.1-4.7,4.7c0,0.6,0.1,1.3,0.4,1.8c-1.2,0.7-2.1,2.1-2.1,3.6c0,2.3,1.9,4.2,4.2,4.2c0.3,0,0.5,0,0.8-0.1
	c0.6,1.7,2.2,2.9,4.1,2.9c1.8,0,3.4-1.1,4.1-2.7c0.5,0.2,1.1,0.4,1.7,0.4c1.5,0,2.7-0.8,3.4-2c0.3,0.1,0.6,0.1,1,0.1
	c2.9,0,5.3-2.4,5.3-5.3C27.2,11.1,24.9,8.7,21.9,8.7z"/>
</svg>
