<?xml version="1.0" encoding="utf-8"?>
<!-- Generator: Adobe Illustrator 17.1.0, SVG Export Plug-In . SVG Version: 6.00 Build 0)  -->
<!DOCTYPE svg PUBLIC "-//W3C//DTD SVG 1.1//EN" "http://www.w3.org/Graphics/SVG/1.1/DTD/svg11.dtd">
<svg version="1.1" id="Layer_1" xmlns="http://www.w3.org/2000/svg" xmlns:xlink="http://www.w3.org/1999/xlink" x="0px" y="0px"
	 height="30px" width="30px" viewBox="0 0 30 30" enable-background="new 0 0 30 30" xml:space="preserve">
<rect fill="#0072C6" width="30" height="30"/>
<g>
	<path fill="#FFFFFF" d="M16.8,25.1L5,23.1V6.9l11.9-2.1V25.1z M10.5,10.8c-0.1,0-0.3,0.1-0.5,0.1C9.9,11,9.7,11,9.6,11
		c-0.1,0.1-0.3,0.1-0.3,0.2c-0.1,0.1-0.2,0.2-0.3,0.3c-0.1,0.1-0.2,0.2-0.3,0.3c-0.1,0.1-0.1,0.3-0.1,0.4c-0.1,0.1-0.1,0.3-0.1,0.4
		c0,0.1-0.1,0.3-0.1,0.5c0,0.2,0,0.5,0.1,0.7c0.1,0.2,0.1,0.4,0.3,0.7c0.1,0.2,0.3,0.3,0.4,0.6c0.1,0.1,0.3,0.3,0.7,0.5
		c0.1,0.1,0.2,0.1,0.3,0.2c0.1,0.1,0.1,0.1,0.2,0.1c0.1,0.1,0.1,0.1,0.2,0.1c0.1,0.1,0.1,0.1,0.1,0.2c0.1,0.1,0.1,0.2,0.1,0.2
		c0.1,0.1,0.1,0.1,0.1,0.2c0,0.1,0.1,0.1,0.1,0.2s0,0.1,0,0.2s0,0.1,0,0.1c0,0.1,0,0.1-0.1,0.1c0,0.1-0.1,0.1-0.1,0.1
		s-0.1,0.1-0.1,0.1c-0.1,0.1-0.1,0.1-0.1,0.1c-0.1,0-0.1,0.1-0.1,0.1s-0.1,0-0.2,0.1c-0.1,0-0.1,0-0.2,0c-0.1,0-0.3,0-0.4-0.1
		c-0.1-0.1-0.3-0.1-0.4-0.1s-0.3-0.1-0.4-0.3c-0.1-0.1-0.2-0.2-0.3-0.3V19c0.1,0.1,0.2,0.1,0.3,0.2c0.1,0.1,0.2,0.1,0.3,0.1
		c0.1,0.1,0.3,0.1,0.4,0.1c0.1,0,0.3,0.1,0.5,0.1c0.2,0,0.4,0,0.7,0c0.2,0,0.3-0.1,0.6-0.1c0.1-0.1,0.3-0.1,0.4-0.2
		c0.1-0.1,0.3-0.2,0.3-0.3c0.1-0.1,0.1-0.2,0.2-0.3s0.1-0.3,0.1-0.4s0-0.3,0-0.5c0-0.1,0.1-0.3,0.1-0.5c0-0.2,0-0.3,0-0.4
		s-0.1-0.3-0.1-0.4c-0.1-0.1-0.1-0.2-0.1-0.3c-0.1-0.1-0.1-0.2-0.2-0.3c-0.1-0.1-0.1-0.1-0.2-0.3c-0.1-0.1-0.2-0.1-0.3-0.3
		c-0.1-0.1-0.2-0.1-0.3-0.3c-0.1-0.1-0.3-0.1-0.4-0.3c-0.2-0.2-0.3-0.3-0.4-0.3c-0.1-0.1-0.1-0.1-0.2-0.1c-0.1-0.1-0.1-0.1-0.1-0.1
		C10,14,10,14,9.9,13.9c0-0.1-0.1-0.1-0.1-0.1s-0.1-0.1-0.1-0.1c0-0.1,0-0.1-0.1-0.1c0-0.1,0-0.1,0-0.2s0-0.1,0-0.1
		c0-0.1,0-0.1,0.1-0.1c0-0.1,0.1-0.1,0.1-0.1c0-0.1,0.1-0.1,0.1-0.1c0.1-0.1,0.1-0.1,0.1-0.1s0.1-0.1,0.1-0.1c0.1,0,0.1-0.1,0.1-0.1
		c0.1,0,0.1,0,0.2,0c0.1,0,0.3,0,0.4,0s0.3,0.1,0.3,0.1c0.1,0.1,0.3,0.1,0.3,0.1c0.1,0.1,0.2,0.1,0.3,0.2v-1.8
		c0-0.2-0.1-0.2-0.3-0.3c-0.1,0-0.2-0.1-0.3-0.1c-0.1,0-0.3,0-0.4,0C10.9,10.8,10.7,10.8,10.5,10.8"/>
	<path fill="#FFFFFF" d="M24.6,13c-0.1,0-0.3,0-0.3,0.1c-0.5-1.3-1.6-2.5-3-3c0-0.1,0.1-0.2,0.1-0.3c0-1.1-0.9-2-1.9-2
		c-0.6,0-1,0.2-1.3,0.6v2.8c0.3,0.3,0.9,0.7,1.3,0.7c0.6,0,1.1-0.3,1.5-0.7c1.1,0.4,2,1.3,2.5,2.6c-0.3,0.3-0.7,0.9-0.7,1.5
		c0,0.6,0.2,1.1,0.7,1.5c-0.4,1.1-1.3,2.1-2.5,2.6c-0.3-0.4-0.9-0.7-1.5-0.7s-1,0.2-1.3,0.7V22c0.3,0.3,0.9,0.6,1.3,0.6
		c1.1,0,1.9-0.9,1.9-2c0-0.1,0-0.3-0.1-0.3c1.3-0.6,2.4-1.7,2.9-3c0.1,0,0.2,0.1,0.3,0.1c1.1,0,1.9-0.9,1.9-2
		C26.5,13.9,25.7,13,24.6,13z"/>
</g>
</svg>
