<?xml version="1.0" encoding="utf-8"?>
<!-- Generator: Adobe Illustrator 17.1.0, SVG Export Plug-In . SVG Version: 6.00 Build 0)  -->
<!DOCTYPE svg PUBLIC "-//W3C//DTD SVG 1.1//EN" "http://www.w3.org/Graphics/SVG/1.1/DTD/svg11.dtd">
<svg version="1.1" id="Layer_1" xmlns="http://www.w3.org/2000/svg" xmlns:xlink="http://www.w3.org/1999/xlink" x="0px" y="0px"
	 height="30px" width="30px" viewBox="0 0 30 30" enable-background="new 0 0 30 30" xml:space="preserve">
<rect fill="#7C7C7C" width="30" height="30"/>
<g>
	<g>
		<path fill="#D01D18" d="M15.8,11.7c-0.4,0.2-1.1,0.2-1.6,0L6.5,8.7C6.1,8.5,6.1,8.2,6.5,8L14.2,5c0.4-0.2,1.1-0.2,1.6,0L23.5,8
			c0.4,0.2,0.4,0.4,0,0.6L15.8,11.7z"/>
		<path fill="#343432" d="M14.4,24.6c0,0.5-0.4,0.7-0.8,0.5L5.9,22c-0.4-0.2-0.8-0.7-0.8-1.1V10.2c0-0.5,0.3-0.7,0.8-0.5l7.7,3.1
			c0.4,0.2,0.8,0.7,0.8,1.1V24.6z"/>
		<path fill="#CDCCCA" d="M15.6,24.6c0,0.5,0.4,0.7,0.8,0.5l7.7-3.1c0.4-0.2,0.8-0.7,0.8-1.1V10.2c0-0.5-0.4-0.7-0.8-0.5l-7.7,3.1
			c-0.4,0.2-0.8,0.7-0.8,1.1V24.6z"/>
	</g>
</g>
</svg>
