<?xml version="1.0" encoding="utf-8"?>
<!-- Generator: Adobe Illustrator 17.1.0, SVG Export Plug-In . SVG Version: 6.00 Build 0)  -->
<!DOCTYPE svg PUBLIC "-//W3C//DTD SVG 1.1//EN" "http://www.w3.org/Graphics/SVG/1.1/DTD/svg11.dtd">
<svg version="1.1" id="Layer_1" xmlns="http://www.w3.org/2000/svg" xmlns:xlink="http://www.w3.org/1999/xlink" x="0px" y="0px"
	 viewBox="0 0 30 30" enable-background="new 0 0 30 30" xml:space="preserve">
<path fill="#1275B8" d="M6.3,26.7L0.5,16.7c-0.6-1-0.6-2.3,0-3.4L6.3,3.3c0.6-1,1.7-1.7,2.9-1.7h11.6c1.2,0,2.3,0.6,2.9,1.7
	l5.8,10.1c0.6,1,0.6,2.3,0,3.4l-5.8,10.1c-0.6,1-1.7,1.7-2.9,1.7H9.2C8,28.4,6.9,27.8,6.3,26.7z"/>
<polygon fill="#FEFEFE" points="10.8,7.3 7.8,7.3 11.9,15 7.8,22.7 10.8,22.7 15,15 "/>
<polygon fill="#FEFEFE" points="19.2,7.3 22.2,7.3 18.1,15 22.2,22.7 19.2,22.7 15,15 "/>
</svg>
