<?xml version="1.0" encoding="utf-8"?>
<!-- Generator: Adobe Illustrator 18.1.1, SVG Export Plug-In . SVG Version: 6.00 Build 0)  -->
<!DOCTYPE svg PUBLIC "-//W3C//DTD SVG 1.1//EN" "http://www.w3.org/Graphics/SVG/1.1/DTD/svg11.dtd">
<svg version="1.1" id="Layer_1" xmlns="http://www.w3.org/2000/svg" xmlns:xlink="http://www.w3.org/1999/xlink" x="0px" y="0px"
	 width="23px" height="23px" viewBox="0 0 23 23" enable-background="new 0 0 23 23" xml:space="preserve">
<rect fill="#0072C6" width="23" height="23"/>
<g>
	<path fill="#FFFFFF" d="M15.8988028,6.4169488c0.2047129-0.1229248,0.2867441-0.4098511,0.1639414-0.6556396
		c-0.1230478-0.2458496-0.4096689-0.3277588-0.6555185-0.2047729c-0.2050781,0.1228638-2.3354492,1.5979004-2.2125244,1.843689
		C13.3585196,7.6460137,15.6530752,6.5397515,15.8988028,6.4169488z"/>
	<path fill="#FFFFFF" d="M12.3774405,7.7843194c-0.3278809-0.0819702-0.6556396,0.1173706-0.7375488,0.4041133l-2.0075684,5.274353
		H9.5913076L7.5428462,8.1518726C7.3789053,7.8651299,7.0510244,7.6345391,6.7232656,7.757525
		C6.3955069,7.8803887,6.2316885,8.2577686,6.3544912,8.5445728l2.6223145,6.3677368
		c-0.3688965,1.024231-0.6965332,1.5504761-1.4752197,1.5504761c-0.081665,0-0.3275146,0-0.3685303,0
		c-0.2458496,0-0.4918213,0.1293335-0.5324707,0.3751831c-0.0820312,0.2868652,0.081665,0.5390015,0.3684082,0.6210327
		c0.2050781,0.0410156,0.4099121,0.0410156,0.614624,0.0410156c1.4342041,0,1.9256592-0.819458,2.3763428-2.048645
		l2.7858887-6.9651489C12.8278799,8.1585865,12.6641836,7.8662286,12.3774405,7.7843194z"/>
	<path fill="#FFFFFF" d="M15.8988028,10.8827076c-0.2457275-0.1229858-2.5810547-1.229126-2.7041016-0.9833374
		c-0.1229248,0.2458496,1.9664307,1.7208252,2.2125244,1.843811c0.2458496,0.1228027,0.5324707,0.0408936,0.6555185-0.204895
		C16.2263184,11.2924366,16.1445312,11.0056324,15.8988028,10.8827076z"/>
	<path fill="#FFFFFF" d="M16.7183838,8.1786671c-0.2459717,0-2.8270273,0.2458496-2.8270273,0.4916382
		s2.5810556,0.4506226,2.8270273,0.4506226c0.2867432,0,0.4915771-0.2458496,0.4915771-0.4916382
		C17.2099609,8.38344,17.0048828,8.1376514,16.7183838,8.1786671z"/>
</g>
</svg>
