<?xml version="1.0" encoding="utf-8"?>
<!-- Generator: Adobe Illustrator 19.1.0, SVG Export Plug-In . SVG Version: 6.00 Build 0)  -->
<svg version="1.1" id="Layer_1" xmlns="http://www.w3.org/2000/svg" xmlns:xlink="http://www.w3.org/1999/xlink" x="0px" y="0px"
	 width="16px" height="16px" viewBox="0 0 16 16" enable-background="new 0 0 16 16" xml:space="preserve">
<path fill="#8F9090" d="M7.55,14.5c-0.643,0-1.269-0.084-1.859-0.251c-0.595-0.167-1.159-0.405-1.677-0.706
	c-0.515-0.3-0.991-0.667-1.416-1.092c-0.424-0.424-0.791-0.9-1.09-1.416c-0.303-0.518-0.54-1.082-0.706-1.675
	C0.635,8.766,0.55,8.14,0.55,7.5s0.085-1.266,0.252-1.86c0.166-0.594,0.403-1.158,0.705-1.675c0.3-0.516,0.667-0.993,1.091-1.417
	c0.425-0.424,0.901-0.792,1.417-1.091S5.094,0.919,5.69,0.751C6.283,0.584,6.909,0.5,7.55,0.5s1.267,0.084,1.861,0.251
	c0.594,0.167,1.158,0.405,1.676,0.706c0.515,0.3,0.991,0.667,1.415,1.091s0.791,0.9,1.091,1.417c0.303,0.518,0.54,1.082,0.706,1.675
	c0.167,0.592,0.251,1.218,0.251,1.86s-0.084,1.268-0.251,1.86c-0.166,0.594-0.403,1.158-0.705,1.675
	c-0.301,0.517-0.668,0.993-1.092,1.417s-0.9,0.791-1.416,1.091c-0.519,0.301-1.083,0.539-1.676,0.706
	C8.818,14.416,8.192,14.5,7.55,14.5z"/>
<path fill="#FFFFFF" d="M7.55,1c0.595,0,1.176,0.078,1.724,0.232c0.555,0.156,1.08,0.377,1.56,0.657
	c0.479,0.279,0.921,0.619,1.314,1.013c0.393,0.393,0.734,0.835,1.013,1.314c0.28,0.481,0.501,1.006,0.656,1.559
	C13.972,6.324,14.05,6.904,14.05,7.5s-0.078,1.176-0.232,1.725c-0.155,0.553-0.376,1.078-0.656,1.559
	c-0.279,0.479-0.619,0.921-1.013,1.314c-0.393,0.393-0.835,0.734-1.314,1.013c-0.481,0.28-1.006,0.501-1.56,0.657
	C8.727,13.922,8.147,14,7.55,14c-0.597,0-1.177-0.078-1.725-0.232c-0.553-0.155-1.078-0.376-1.559-0.656
	c-0.479-0.279-0.921-0.619-1.314-1.013c-0.393-0.393-0.734-0.835-1.013-1.314c-0.28-0.481-0.501-1.006-0.656-1.559
	C1.128,8.676,1.05,8.095,1.05,7.5s0.078-1.176,0.232-1.725c0.155-0.553,0.376-1.078,0.656-1.559
	c0.279-0.479,0.619-0.921,1.013-1.314c0.393-0.393,0.835-0.734,1.314-1.013c0.48-0.279,1.005-0.5,1.559-0.656
	C6.374,1.078,6.955,1,7.55,1 M7.55,0C6.858,0,6.194,0.09,5.555,0.27C4.916,0.45,4.319,0.701,3.763,1.025
	c-0.556,0.324-1.062,0.714-1.518,1.17c-0.456,0.456-0.846,0.962-1.17,1.518C0.751,4.269,0.499,4.866,0.32,5.505
	C0.14,6.144,0.05,6.809,0.05,7.5c0,0.692,0.09,1.356,0.27,1.995c0.179,0.639,0.431,1.236,0.755,1.792
	c0.324,0.556,0.713,1.062,1.17,1.518c0.456,0.456,0.962,0.846,1.518,1.17c0.556,0.324,1.153,0.576,1.792,0.755
	C6.194,14.91,6.858,15,7.55,15c0.692,0,1.356-0.09,1.995-0.27c0.639-0.179,1.236-0.431,1.792-0.755
	c0.556-0.324,1.062-0.714,1.518-1.17c0.456-0.456,0.846-0.962,1.17-1.518c0.324-0.556,0.576-1.153,0.755-1.792
	c0.179-0.639,0.27-1.304,0.27-1.995c0-0.691-0.09-1.356-0.27-1.995c-0.179-0.639-0.431-1.236-0.755-1.792
	c-0.324-0.556-0.713-1.062-1.17-1.518c-0.456-0.456-0.962-0.846-1.518-1.17C10.782,0.701,10.184,0.45,9.546,0.27
	C8.907,0.09,8.242,0,7.55,0L7.55,0z"/>
<path fill="#FFFFFF" d="M9.373,5c0.091,0,0.178,0.017,0.26,0.052c0.082,0.035,0.155,0.084,0.218,0.146
	c0.063,0.063,0.111,0.136,0.146,0.218c0.035,0.083,0.052,0.169,0.052,0.26v3.646c0,0.091-0.017,0.178-0.052,0.26
	C9.963,9.666,9.914,9.739,9.852,9.801C9.789,9.865,9.716,9.913,9.634,9.948C9.551,9.983,9.464,10,9.373,10H5.727
	c-0.091,0-0.178-0.017-0.26-0.052C5.385,9.913,5.311,9.865,5.249,9.801C5.186,9.739,5.137,9.666,5.102,9.583
	C5.067,9.501,5.05,9.414,5.05,9.323V5.677c0-0.091,0.017-0.178,0.052-0.26c0.035-0.082,0.084-0.155,0.146-0.218
	c0.063-0.063,0.136-0.111,0.218-0.146C5.549,5.017,5.636,5,5.727,5H9.373z"/>
</svg>
