<?xml version="1.0" encoding="utf-8"?>
<!-- Generator: Adobe Illustrator 19.1.0, SVG Export Plug-In . SVG Version: 6.00 Build 0)  -->
<svg version="1.1" id="Layer_1" xmlns="http://www.w3.org/2000/svg" xmlns:xlink="http://www.w3.org/1999/xlink" x="0px" y="0px"
	 width="16px" height="16px" viewBox="0 0 16 16" enable-background="new 0 0 16 16" xml:space="preserve">
<path fill="#EE3601" d="M7.5,14.5c-0.644,0-1.27-0.084-1.861-0.25c-0.595-0.166-1.157-0.403-1.674-0.707
	c-0.515-0.303-0.991-0.672-1.414-1.094s-0.791-0.898-1.095-1.415c-0.303-0.516-0.541-1.079-0.707-1.672
	C0.584,8.771,0.5,8.145,0.5,7.5s0.084-1.271,0.249-1.862c0.166-0.593,0.404-1.156,0.707-1.672C1.76,3.449,2.128,2.973,2.551,2.551
	S3.45,1.76,3.966,1.456C4.481,1.153,5.044,0.915,5.638,0.75C6.23,0.584,6.856,0.5,7.5,0.5s1.27,0.084,1.861,0.25
	c0.595,0.166,1.157,0.403,1.674,0.707c0.515,0.303,0.991,0.672,1.414,1.094s0.791,0.898,1.095,1.415
	c0.303,0.516,0.541,1.079,0.707,1.672C14.416,6.229,14.5,6.855,14.5,7.5s-0.084,1.271-0.249,1.862
	c-0.166,0.593-0.404,1.156-0.707,1.672c-0.304,0.517-0.672,0.993-1.095,1.415s-0.899,0.791-1.415,1.095
	c-0.516,0.303-1.078,0.541-1.672,0.707C8.77,14.416,8.144,14.5,7.5,14.5z"/>
<path fill="#FFFFFF" d="M7.5,1c0.598,0,1.179,0.078,1.727,0.231c0.553,0.154,1.075,0.375,1.554,0.656
	c0.48,0.282,0.922,0.624,1.315,1.017c0.393,0.393,0.735,0.835,1.017,1.315c0.281,0.478,0.502,1.001,0.656,1.554
	C13.922,6.321,14,6.902,14,7.5s-0.078,1.179-0.231,1.727c-0.154,0.553-0.375,1.075-0.656,1.554c-0.282,0.48-0.624,0.922-1.017,1.315
	c-0.393,0.393-0.835,0.735-1.315,1.017c-0.478,0.281-1.001,0.502-1.554,0.656C8.679,13.922,8.098,14,7.5,14
	s-1.179-0.078-1.727-0.231c-0.553-0.154-1.075-0.375-1.554-0.656c-0.48-0.282-0.922-0.624-1.315-1.017
	c-0.393-0.393-0.735-0.835-1.017-1.315C1.606,10.303,1.385,9.78,1.231,9.227C1.078,8.679,1,8.098,1,7.5s0.078-1.179,0.231-1.727
	C1.385,5.22,1.606,4.697,1.887,4.219c0.282-0.48,0.624-0.922,1.017-1.315C3.297,2.512,3.74,2.169,4.219,1.887
	C4.697,1.606,5.22,1.385,5.773,1.231C6.321,1.078,6.902,1,7.5,1 M7.5,0C6.808,0,6.143,0.089,5.504,0.268
	C4.865,0.446,4.268,0.699,3.712,1.025c-0.555,0.326-1.06,0.717-1.515,1.172c-0.455,0.455-0.845,0.96-1.172,1.515
	C0.699,4.268,0.446,4.865,0.268,5.504C0.089,6.143,0,6.808,0,7.5s0.089,1.357,0.268,1.996c0.179,0.639,0.431,1.236,0.758,1.791
	c0.326,0.555,0.717,1.06,1.172,1.515c0.455,0.455,0.96,0.845,1.515,1.172c0.555,0.326,1.152,0.579,1.791,0.758
	C6.143,14.911,6.808,15,7.5,15s1.357-0.089,1.996-0.268c0.639-0.179,1.236-0.431,1.791-0.758c0.555-0.326,1.06-0.717,1.515-1.172
	s0.845-0.96,1.172-1.515c0.326-0.555,0.579-1.152,0.758-1.791C14.911,8.857,15,8.192,15,7.5s-0.089-1.357-0.268-1.996
	c-0.179-0.639-0.431-1.236-0.758-1.791c-0.326-0.555-0.717-1.06-1.172-1.515s-0.96-0.845-1.515-1.172
	c-0.555-0.326-1.152-0.579-1.791-0.758C8.857,0.089,8.192,0,7.5,0L7.5,0z"/>
<rect x="4.286" y="6.964" fill="#FFFFFF" width="6.429" height="1.071"/>
</svg>
