<?xml version="1.0" encoding="utf-8"?>
<!-- Generator: Adobe Illustrator 19.1.0, SVG Export Plug-In . SVG Version: 6.00 Build 0)  -->
<svg version="1.1" id="Layer_1" xmlns="http://www.w3.org/2000/svg" xmlns:xlink="http://www.w3.org/1999/xlink" x="0px" y="0px"
	 width="16px" height="16px" viewBox="0 0 16 16" enable-background="new 0 0 16 16" xml:space="preserve">
<path fill="#8F9090" d="M7.5,14.5c-0.643,0-1.268-0.083-1.859-0.248c-0.593-0.166-1.156-0.403-1.673-0.707
	C3.45,13.242,2.974,12.874,2.55,12.45c-0.422-0.422-0.791-0.899-1.095-1.418c-0.304-0.516-0.541-1.078-0.707-1.673
	C0.583,8.771,0.5,8.146,0.5,7.5c0-0.645,0.083-1.27,0.248-1.858c0.166-0.596,0.403-1.159,0.706-1.674
	C1.759,3.45,2.128,2.973,2.55,2.55c0.423-0.422,0.899-0.791,1.418-1.095c0.517-0.303,1.08-0.541,1.674-0.707
	C6.233,0.583,6.859,0.5,7.5,0.5c0.64,0,1.266,0.083,1.859,0.249c0.594,0.166,1.157,0.404,1.673,0.707
	c0.519,0.304,0.995,0.673,1.418,1.095c0.42,0.42,0.789,0.897,1.096,1.418c0.302,0.514,0.539,1.078,0.706,1.673
	C14.416,6.233,14.5,6.858,14.5,7.5c0,0.642-0.084,1.268-0.248,1.858c-0.167,0.595-0.404,1.158-0.707,1.674
	c-0.306,0.52-0.675,0.997-1.095,1.417c-0.424,0.424-0.9,0.792-1.418,1.095c-0.516,0.304-1.079,0.542-1.674,0.708
	C8.767,14.417,8.142,14.5,7.5,14.5z"/>
<path fill="#FFFFFF" d="M7.5,1c0.595,0,1.175,0.077,1.724,0.23c0.552,0.154,1.076,0.375,1.555,0.656
	c0.482,0.283,0.925,0.625,1.317,1.018c0.391,0.391,0.734,0.835,1.017,1.317c0.281,0.479,0.502,1.003,0.656,1.555
	C13.923,6.325,14,6.905,14,7.5c0,0.596-0.077,1.176-0.23,1.723c-0.155,0.553-0.376,1.077-0.656,1.555
	c-0.284,0.483-0.627,0.926-1.018,1.318c-0.394,0.394-0.837,0.736-1.317,1.018c-0.48,0.282-1.003,0.502-1.555,0.656
	C8.677,13.923,8.097,14,7.5,14c-0.597,0-1.177-0.077-1.725-0.23c-0.551-0.153-1.074-0.374-1.555-0.656
	c-0.48-0.282-0.923-0.624-1.317-1.017c-0.393-0.393-0.736-0.836-1.018-1.318C1.604,10.3,1.384,9.777,1.23,9.223
	C1.077,8.678,1,8.099,1,7.5c0-0.598,0.077-1.178,0.23-1.725C1.384,5.223,1.605,4.7,1.886,4.22C2.168,3.74,2.51,3.297,2.904,2.904
	C3.296,2.511,3.739,2.169,4.22,1.886C4.701,1.605,5.225,1.384,5.776,1.23C6.324,1.077,6.904,1,7.5,1 M7.5,0
	C6.81,0,6.145,0.089,5.507,0.267C4.869,0.445,4.272,0.697,3.715,1.024C3.158,1.351,2.652,1.742,2.197,2.197
	C1.742,2.652,1.35,3.158,1.024,3.715c-0.328,0.557-0.58,1.155-0.757,1.793C0.088,6.146,0,6.81,0,7.5s0.088,1.355,0.267,1.993
	c0.177,0.638,0.43,1.236,0.757,1.793c0.327,0.557,0.718,1.063,1.173,1.518c0.455,0.455,0.961,0.846,1.518,1.173
	c0.557,0.327,1.154,0.58,1.793,0.757C6.145,14.911,6.81,15,7.5,15s1.354-0.089,1.993-0.267c0.637-0.177,1.236-0.43,1.793-0.757
	c0.557-0.327,1.063-0.718,1.518-1.173c0.455-0.455,0.845-0.961,1.173-1.518c0.327-0.557,0.579-1.154,0.757-1.793
	C14.911,8.855,15,8.19,15,7.5s-0.089-1.354-0.267-1.993c-0.178-0.638-0.43-1.236-0.757-1.793c-0.328-0.557-0.718-1.063-1.173-1.518
	c-0.455-0.455-0.961-0.846-1.518-1.173c-0.557-0.327-1.155-0.579-1.793-0.757C8.854,0.089,8.19,0,7.5,0L7.5,0z"/>
<path fill="#FFFFFF" d="M7.5,3.483c0.345,0,0.669,0.067,0.973,0.2c0.303,0.133,0.569,0.314,0.796,0.541
	C9.497,4.452,9.677,4.718,9.81,5.021c0.133,0.304,0.2,0.628,0.2,0.973c0,0.314-0.05,0.587-0.149,0.82
	c-0.1,0.233-0.224,0.443-0.373,0.632s-0.31,0.36-0.482,0.514C8.834,8.113,8.673,8.268,8.524,8.422
	C8.375,8.576,8.25,8.741,8.151,8.916c-0.1,0.176-0.149,0.373-0.149,0.592v0.502H6.998V9.508c0-0.314,0.049-0.587,0.149-0.82
	C7.246,8.456,7.371,8.245,7.52,8.057c0.149-0.188,0.31-0.359,0.482-0.514C8.175,7.389,8.336,7.235,8.485,7.08
	c0.149-0.154,0.273-0.318,0.373-0.49c0.099-0.173,0.149-0.371,0.149-0.596c0-0.209-0.039-0.405-0.118-0.588
	C8.81,5.222,8.702,5.063,8.567,4.927C8.431,4.791,8.271,4.684,8.088,4.605C7.905,4.527,7.709,4.487,7.5,4.487
	c-0.21,0-0.406,0.039-0.588,0.118C6.728,4.684,6.568,4.791,6.433,4.927C6.297,5.063,6.19,5.222,6.111,5.405
	c-0.078,0.183-0.118,0.38-0.118,0.588H4.99c0-0.345,0.065-0.669,0.196-0.973c0.13-0.303,0.31-0.569,0.537-0.796
	c0.228-0.228,0.494-0.408,0.8-0.541C6.829,3.55,7.155,3.483,7.5,3.483z"/>
<rect x="6.998" y="11.015" fill="#FFFFFF" width="1.004" height="1.004"/>
</svg>
