<?xml version="1.0" encoding="utf-8"?>
<!-- Generator: Adobe Illustrator 19.1.0, SVG Export Plug-In . SVG Version: 6.00 Build 0)  -->
<svg version="1.1" id="Layer_1" xmlns="http://www.w3.org/2000/svg" xmlns:xlink="http://www.w3.org/1999/xlink" x="0px" y="0px"
	 width="16px" height="16px" viewBox="0 0 16 16" enable-background="new 0 0 16 16" xml:space="preserve">
<rect x="7" y="12" fill="#FFFFFF" width="1" height="1"/>
<path fill="#BA131A" d="M7.5,14.5c-0.641,0-1.266-0.084-1.857-0.249c-0.595-0.166-1.157-0.404-1.672-0.707
	c-0.516-0.305-0.993-0.674-1.416-1.098c-0.425-0.425-0.795-0.902-1.099-1.417c-0.304-0.515-0.542-1.077-0.707-1.67
	C0.584,8.765,0.5,8.139,0.5,7.5s0.084-1.265,0.249-1.858c0.166-0.594,0.403-1.156,0.707-1.671C1.76,3.456,2.13,2.979,2.555,2.555
	c0.423-0.424,0.9-0.794,1.417-1.099c0.514-0.303,1.076-0.541,1.671-0.707C6.234,0.584,6.859,0.5,7.5,0.5s1.266,0.084,1.857,0.249
	c0.595,0.166,1.157,0.404,1.672,0.707c0.516,0.305,0.993,0.674,1.416,1.098c0.425,0.425,0.795,0.902,1.099,1.417
	c0.304,0.515,0.542,1.077,0.707,1.67C14.416,6.235,14.5,6.861,14.5,7.5s-0.084,1.265-0.249,1.858
	c-0.166,0.594-0.403,1.156-0.707,1.671c-0.304,0.515-0.674,0.992-1.099,1.417c-0.423,0.424-0.9,0.794-1.417,1.099
	c-0.514,0.303-1.076,0.541-1.671,0.707C8.766,14.416,8.141,14.5,7.5,14.5z"/>
<path fill="#FFFFFF" d="M7.5,1c0.595,0,1.175,0.078,1.724,0.231c0.553,0.154,1.074,0.375,1.551,0.656
	c0.479,0.283,0.922,0.627,1.317,1.021c0.395,0.395,0.739,0.838,1.021,1.317c0.281,0.476,0.502,0.998,0.656,1.551
	C13.922,6.325,14,6.905,14,7.5s-0.078,1.175-0.231,1.724c-0.154,0.553-0.375,1.074-0.656,1.551
	c-0.283,0.479-0.627,0.922-1.021,1.317c-0.395,0.395-0.838,0.739-1.317,1.021c-0.476,0.281-0.998,0.502-1.551,0.656
	C8.675,13.922,8.095,14,7.5,14s-1.175-0.078-1.724-0.231c-0.553-0.154-1.074-0.375-1.551-0.656
	c-0.479-0.283-0.922-0.627-1.317-1.021c-0.395-0.395-0.739-0.838-1.021-1.317c-0.281-0.476-0.502-0.998-0.656-1.551
	C1.078,8.675,1,8.095,1,7.5s0.078-1.175,0.231-1.724c0.154-0.553,0.375-1.074,0.656-1.551c0.283-0.479,0.627-0.922,1.021-1.317
	c0.395-0.395,0.838-0.739,1.317-1.021c0.476-0.281,0.998-0.502,1.551-0.656C6.325,1.078,6.905,1,7.5,1 M7.5,0
	C6.812,0,6.147,0.089,5.508,0.267c-0.64,0.178-1.237,0.431-1.791,0.758c-0.554,0.327-1.06,0.719-1.516,1.176
	C1.744,2.657,1.353,3.163,1.025,3.717s-0.58,1.151-0.758,1.791C0.089,6.147,0,6.812,0,7.5s0.089,1.353,0.267,1.992
	c0.178,0.64,0.431,1.237,0.758,1.791s0.719,1.06,1.176,1.516c0.457,0.457,0.962,0.848,1.516,1.176
	c0.554,0.327,1.151,0.58,1.791,0.758C6.147,14.911,6.812,15,7.5,15s1.353-0.089,1.992-0.267c0.64-0.178,1.237-0.431,1.791-0.758
	c0.554-0.327,1.06-0.719,1.516-1.176c0.457-0.457,0.848-0.962,1.176-1.516s0.58-1.151,0.758-1.791C14.911,8.853,15,8.188,15,7.5
	s-0.089-1.353-0.267-1.992c-0.178-0.64-0.431-1.237-0.758-1.791s-0.719-1.06-1.176-1.516c-0.457-0.457-0.962-0.848-1.516-1.176
	c-0.554-0.327-1.151-0.58-1.791-0.758C8.853,0.089,8.188,0,7.5,0L7.5,0z"/>
<polygon fill="#FFFFFF" points="10.745,4.915 8.167,7.5 10.745,10.085 10.085,10.745 7.5,8.167 4.915,10.745 4.255,10.085 
	6.833,7.5 4.255,4.915 4.915,4.255 7.5,6.833 10.085,4.255 "/>
</svg>
