<?xml version="1.0" encoding="utf-8"?>
<!-- Generator: Adobe Illustrator 19.1.0, SVG Export Plug-In . SVG Version: 6.00 Build 0)  -->
<svg version="1.1" id="Layer_1" xmlns="http://www.w3.org/2000/svg" xmlns:xlink="http://www.w3.org/1999/xlink" x="0px" y="0px"
	 width="16px" height="16px" viewBox="0 0 16 16" enable-background="new 0 0 16 16" xml:space="preserve">
<path fill="#EE3601" d="M7.5,14.5c-0.645,0-1.271-0.083-1.862-0.248c-0.595-0.165-1.158-0.402-1.674-0.704
	c-0.519-0.303-0.996-0.671-1.418-1.094s-0.791-0.9-1.094-1.418c-0.302-0.516-0.539-1.08-0.704-1.674C0.583,8.771,0.5,8.145,0.5,7.5
	s0.083-1.271,0.248-1.862c0.165-0.595,0.402-1.158,0.704-1.674c0.303-0.519,0.671-0.996,1.094-1.418s0.9-0.791,1.418-1.094
	c0.516-0.302,1.08-0.539,1.674-0.704C6.229,0.583,6.855,0.5,7.5,0.5s1.271,0.083,1.862,0.248c0.595,0.165,1.158,0.402,1.674,0.704
	c0.519,0.303,0.996,0.671,1.418,1.094s0.791,0.9,1.094,1.418c0.302,0.516,0.539,1.08,0.704,1.674C14.417,6.229,14.5,6.855,14.5,7.5
	s-0.083,1.271-0.248,1.862c-0.165,0.595-0.402,1.158-0.704,1.674c-0.303,0.519-0.671,0.996-1.094,1.418s-0.9,0.791-1.418,1.094
	c-0.516,0.302-1.08,0.539-1.674,0.704C8.771,14.417,8.145,14.5,7.5,14.5z"/>
<path fill="#FFFFFF" d="M7.5,1c0.599,0,1.181,0.077,1.729,0.229c0.552,0.153,1.076,0.373,1.556,0.654
	c0.481,0.281,0.924,0.622,1.317,1.016c0.393,0.393,0.735,0.836,1.016,1.317c0.281,0.48,0.501,1.004,0.654,1.556
	C13.923,6.319,14,6.901,14,7.5s-0.077,1.181-0.229,1.729c-0.153,0.552-0.373,1.076-0.654,1.556
	c-0.281,0.481-0.622,0.924-1.016,1.317c-0.393,0.393-0.836,0.735-1.317,1.016c-0.48,0.281-1.004,0.501-1.556,0.654
	C8.681,13.923,8.099,14,7.5,14s-1.181-0.077-1.729-0.229c-0.552-0.153-1.076-0.373-1.556-0.654
	c-0.481-0.281-0.924-0.622-1.317-1.016c-0.393-0.393-0.735-0.836-1.016-1.317c-0.281-0.48-0.501-1.004-0.654-1.556
	C1.077,8.681,1,8.099,1,7.5s0.077-1.181,0.229-1.729c0.153-0.552,0.373-1.076,0.654-1.556c0.281-0.481,0.622-0.924,1.016-1.317
	c0.393-0.393,0.836-0.735,1.317-1.016c0.48-0.281,1.004-0.501,1.556-0.654C6.319,1.077,6.901,1,7.5,1 M7.5,0
	C6.807,0,6.142,0.089,5.504,0.266C4.866,0.443,4.268,0.694,3.711,1.02c-0.557,0.326-1.064,0.716-1.52,1.172S1.345,3.154,1.02,3.711
	C0.694,4.268,0.443,4.866,0.266,5.504C0.089,6.142,0,6.807,0,7.5s0.089,1.358,0.266,1.996c0.177,0.638,0.428,1.236,0.754,1.793
	c0.326,0.557,0.716,1.064,1.172,1.52s0.962,0.846,1.52,1.172c0.557,0.326,1.155,0.577,1.793,0.754C6.142,14.911,6.807,15,7.5,15
	s1.358-0.089,1.996-0.266c0.638-0.177,1.236-0.428,1.793-0.754c0.557-0.326,1.064-0.716,1.52-1.172s0.846-0.962,1.172-1.52
	c0.326-0.557,0.577-1.155,0.754-1.793C14.911,8.858,15,8.193,15,7.5s-0.089-1.358-0.266-1.996c-0.177-0.638-0.428-1.236-0.754-1.793
	c-0.326-0.557-0.716-1.064-1.172-1.52s-0.962-0.846-1.52-1.172c-0.557-0.326-1.155-0.577-1.793-0.754C8.858,0.089,8.193,0,7.5,0
	L7.5,0z"/>
<rect x="7" y="4" fill="#FFFFFF" width="1" height="5"/>
<rect x="7" y="10" fill="#FFFFFF" width="1" height="1"/>
</svg>
