<?xml version="1.0" encoding="utf-8"?>
<!-- Generator: Adobe Illustrator 19.1.0, SVG Export Plug-In . SVG Version: 6.00 Build 0)  -->
<svg version="1.1" id="Layer_1" xmlns="http://www.w3.org/2000/svg" xmlns:xlink="http://www.w3.org/1999/xlink" x="0px" y="0px" width="100px"
	 height="100px"
	 viewBox="0 0 100 100" enable-background="new 0 0 100 100" xml:space="preserve">
<g>
	<path fill="#9D5025" d="M75.3,47c1.1,0,2-0.9,2-2v-7.3c0-1.1-0.9-2-2-2H68c-0.5,0-0.9,0.2-1.2,0.4l-4.5-3.4v-6.3c0-1.1-0.9-2-2-2
		H53c-1.1,0-2,0.9-2,2v7.3c0,0.3,0.1,0.6,0.2,0.9L40.1,47.8v-1.2c0,1.1-3.9,2-8.7,2c-4.8,0-8.7-0.9-8.7-2h0v13.7h0
		c0,1.1,3.9,2,8.7,2c4.8,0,8.7-0.9,8.7-2v-3.4L51,68.2c0,0.1,0,0.3,0,0.4v7.3c0,1.1,0.9,2,2,2h7.3c1.1,0,2-0.9,2-2v-6.3l4.5-3.4
		c0.3,0.3,0.8,0.4,1.2,0.4h7.3c1.1,0,2-0.9,2-2v-7.3c0-1.1-0.9-2-2-2h-2.4V47H75.3z M66.8,48.3l-1.7-3.5l0.8-0.3V45
		c0,0.9,0.7,1.7,1.5,1.9L66.8,48.3z M61.5,67.1c-0.2-0.2-0.5-0.3-0.8-0.4l3.1-6.4l2.2,0.5v2.8L61.5,67.1z M53.5,35.8H58l3.7,7.5
		L41.5,50L53.5,35.8z M66,38.7v3.2L64,42.5l-3.3-6.8c0.3-0.1,0.5-0.2,0.8-0.4L66,38.7z M58,66.6h-5c0,0,0,0,0,0L41.6,54.8l19.7,4.9
		L58,66.6z M67.5,55.4c-0.9,0.2-1.5,1-1.5,1.9v1L64.9,58l1.9-4L67.5,55.4z M62.4,57.4l-20.2-5l20.5-6.8l2.7,5.6L62.4,57.4z
		 M70.4,55.3h-0.1l-2-4.2l2-4.2h0.1V55.3z"/>
	<path fill="#9D5025" d="M31.4,43.8c4.8,0,8.7-0.9,8.7-2c0-0.6,0-2.5,0-2.5s-6.3,0.5-8.7,0.5c-1.8,0-8.7-0.5-8.7-0.5v2.5
		C22.7,42.9,26.6,43.8,31.4,43.8z"/>
</g>
<g>
	<path fill="#F58536" d="M75.3,44.5c1.1,0,2-0.9,2-2v-7.3c0-1.1-0.9-2-2-2H68c-0.5,0-0.9,0.2-1.2,0.4l-4.5-3.4V24c0-1.1-0.9-2-2-2
		H53c-1.1,0-2,0.9-2,2v7.3c0,0.3,0.1,0.6,0.2,0.9L40.1,45.3v-1.2c0,1.1-3.9,2-8.7,2c-4.8,0-8.7-0.9-8.7-2h0v13.7h0
		c0,1.1,3.9,2,8.7,2c4.8,0,8.7-0.9,8.7-2v-3.4L51,65.8c0,0.1,0,0.3,0,0.4v7.3c0,1.1,0.9,2,2,2h7.3c1.1,0,2-0.9,2-2v-6.3l4.5-3.4
		c0.3,0.3,0.8,0.4,1.2,0.4h7.3c1.1,0,2-0.9,2-2v-7.3c0-1.1-0.9-2-2-2h-2.4v-8.3H75.3z M66.8,45.9l-1.7-3.5l0.8-0.3v0.5
		c0,0.9,0.7,1.7,1.5,1.9L66.8,45.9z M61.5,64.6c-0.2-0.2-0.5-0.3-0.8-0.4l3.1-6.4l2.2,0.5v2.8L61.5,64.6z M53.5,33.3H58l3.7,7.5
		l-20.1,6.6L53.5,33.3z M66,36.2v3.2L64,40.1l-3.3-6.8c0.3-0.1,0.5-0.2,0.8-0.4L66,36.2z M58,64.2h-5c0,0,0,0,0,0L41.6,52.3
		l19.7,4.9L58,64.2z M67.5,52.9c-0.9,0.2-1.5,1-1.5,1.9v1l-1.1-0.3l1.9-4L67.5,52.9z M62.4,54.9l-20.2-5l20.5-6.8l2.7,5.6L62.4,54.9
		z M70.4,52.9h-0.1l-2-4.2l2-4.2h0.1V52.9z"/>
	<ellipse fill="#F58536" cx="31.4" cy="39.4" rx="8.7" ry="2"/>
</g>
</svg>
