<?xml version="1.0" encoding="utf-8"?>
<!-- Generator: Adobe Illustrator 19.1.0, SVG Export Plug-In . SVG Version: 6.00 Build 0)  -->
<svg version="1.1" id="Layer_1" xmlns="http://www.w3.org/2000/svg" xmlns:xlink="http://www.w3.org/1999/xlink" x="0px" y="0px" width="100px"
	 height="100px"
	 viewBox="0 0 100 100" enable-background="new 0 0 100 100" xml:space="preserve">
<polygon fill="#9D5025" points="65.2,46.9 78.2,46.8 80,46.8 80,68 78.2,69 65.2,66.1 "/>
<polygon fill="#9D5025" points="50,66.4 71.6,72.3 75,70.5 75,37.4 71.6,36.7 50,39 "/>
<polygon fill="#9D5025" points="31.3,65.8 62.7,76.7 67.7,74.2 67.7,19.5 62.7,16.9 31.3,28 "/>
<polygon fill="#9D5025" points="20,68.1 50,83.1 56.8,79.6 56.8,46.8 20,46.8 "/>
<polygon fill="#F58435" points="56.8,79.6 50,83.1 50,46.8 56.8,46.8 "/>
<polygon fill="#F58435" points="67.7,19.5 62.7,16.9 62.7,76.7 67.7,74.2 "/>
<polygon fill="#F58435" points="75,70.5 71.6,72.3 71.6,36.7 75,37.4 "/>
<polygon fill="#F58435" points="80,68 78.2,69 78.2,46.8 80,46.8 "/>
</svg>
