<?xml version="1.0" encoding="utf-8"?>
<!-- Generator: Adobe Illustrator 19.1.0, SVG Export Plug-In . SVG Version: 6.00 Build 0)  -->
<svg version="1.1" id="Layer_1" xmlns="http://www.w3.org/2000/svg" xmlns:xlink="http://www.w3.org/1999/xlink" x="0px" y="0px" width="100px"
	 height="100px"
	 viewBox="0 0 100 100" enable-background="new 0 0 100 100" xml:space="preserve">
<path fill="#9D5025" d="M83.1,41h-2.7c-2,0-3.7,1.1-3.9,3h-4.5c-0.5-3.8-2-7-3.7-7h-1.2H61v-1.2c0-2.1-0.9-3.8-3.1-3.8H53v-2h6
	c0.7,0,2-1,2-1.7v-0.2c0-0.7,0-2.5,0-2.5H36c0,0,0,1.8,0,2.5v0.2c0,0.7,0.8,1.7,1.5,1.7H44v2h-5.4c-2.1,0-4.6,1.6-4.6,3.8V37h-8.2
	C23.7,37,22,39,22,41.2V53h-5V39.8c0-0.7-1-1.4-2-1.4s-2,0.6-2,1.4v31c0,0.7,1,1.4,2,1.4s2-0.6,2-1.4V58h5v11.1
	c0,2.1,1.7,3.9,3.8,3.9H43c0.7,3,1.9,5,3.4,5h22.1c1.9,0,3.5-4,3.8-8H77v0.6c0,2.1,1.3,3.4,3.4,3.4h2.7c2.1,0,3.9-1.2,3.9-3.4v-26
	C87,42.5,85.3,41,83.1,41z"/>
<path fill="#F58536" d="M83.1,38.5h-2.7c-2,0-3.7,1.1-3.9,3h-4.5c-0.5-3.8-2-7-3.7-7h-1.2H61v-1.2c0-2.1-0.9-3.8-3.1-3.8H53v-2h6
	c0.7,0,2-1,2-1.7v-0.2c0-0.7-1.3-1.1-2-1.1H37.5c-0.7,0-1.5,0.4-1.5,1.1v0.2c0,0.7,0.8,1.7,1.5,1.7H44v2h-5.4
	c-2.1,0-4.6,1.6-4.6,3.8v1.2h-8.2c-2.1,0-3.8,2.1-3.8,4.2v11.8h-5V37.3c0-0.7-1-1.4-2-1.4s-2,0.6-2,1.4v31c0,0.7,1,1.4,2,1.4
	s2-0.6,2-1.4V55.5h5v11.1c0,2.1,1.7,3.9,3.8,3.9H43c0.7,3,1.9,5,3.4,5h22.1c1.9,0,3.5-4,3.8-8H77v0.6c0,2.1,1.3,3.4,3.4,3.4h2.7
	c2.1,0,3.9-1.2,3.9-3.4v-26C87,40,85.3,38.5,83.1,38.5z"/>
</svg>
