<?xml version="1.0" encoding="utf-8"?>
<!-- Generator: Adobe Illustrator 19.1.0, SVG Export Plug-In . SVG Version: 6.00 Build 0)  -->
<svg version="1.1" id="Layer_1" xmlns="http://www.w3.org/2000/svg" xmlns:xlink="http://www.w3.org/1999/xlink" x="0px" y="0px" width="100px"
	 height="100px"
	 viewBox="0 0 100 100" enable-background="new 0 0 100 100" xml:space="preserve">
<polygon fill="#9D5025" points="35.6,50 32.2,70.5 23.2,72.6 20.2,71.1 20.2,50 "/>
<polygon fill="#6B3A19" points="79.8,42.7 50,44.9 20.2,42.7 50,14 "/>
<polygon fill="#F58536" points="55.9,50 23.2,50 23.2,72.6 55.9,65.1 "/>
<polygon fill="#9D5025" points="39.6,50 40.6,73.1 30.2,76.1 26.5,74.3 26.5,50 "/>
<polygon fill="#F58536" points="65.7,50 30.2,50 30.2,76.1 65.7,66 "/>
<polygon fill="#9D5025" points="47,50 47,77.4 38.8,80.4 34.2,78.1 34.2,50 "/>
<polygon fill="#F58536" points="73.5,50 38.8,50 38.8,80.4 73.5,67.8 "/>
<polygon fill="#9D5025" points="44.1,83 44.1,50 66.6,50 77.4,72.3 50,86 "/>
<polygon fill="#F58536" points="50,86 50,50 79.8,50 79.8,71.1 "/>
<polygon fill="#F58536" points="79.8,42.7 50,37.6 50,14 79.8,28.9 "/>
<polygon fill="#9D5025" points="20.2,42.7 50,37.6 50,14 20.2,28.9 "/>
</svg>
