<?xml version="1.0" encoding="utf-8"?>
<!-- Generator: Adobe Illustrator 19.1.0, SVG Export Plug-In . SVG Version: 6.00 Build 0)  -->
<svg version="1.1" id="Layer_1" xmlns="http://www.w3.org/2000/svg" xmlns:xlink="http://www.w3.org/1999/xlink" x="0px" y="0px" width="100px"
	 height="100px"
	 viewBox="0 0 100 100" enable-background="new 0 0 100 100" xml:space="preserve">
<polygon fill="#9D5025" points="63.2,58 70.5,58.7 80.4,57 80.4,46.4 70.5,45.6 63.2,46 "/>
<polygon fill="#6B3A19" points="80.4,39.5 50.6,42.6 20.7,39.5 50.6,14 "/>
<polygon fill="#FBBF93" points="65.5,60.5 75.4,73.5 80.4,60.5 71,59.5 "/>
<polygon fill="#9D5025" points="65.5,60.5 75.5,61.8 75.5,73.5 65.5,71.1 "/>
<polygon fill="#FBBF93" points="54.7,62.4 65.6,78.5 72.5,62.4 62.1,61.1 "/>
<polygon fill="#9D5025" points="54.7,62.4 65.5,64.2 65.5,78.5 54.7,75 "/>
<polygon fill="#F58536" points="80.4,39.5 50.6,32.1 50.6,14 80.4,28.9 "/>
<polygon fill="#FBBF93" points="35.6,60.5 25.8,73.5 20.7,60.5 30.1,59.5 "/>
<polygon fill="#F58536" points="35.6,60.5 25.6,61.8 25.6,73.5 35.6,71.1 "/>
<polygon fill="#FBBF93" points="46.4,62.4 35.5,78.5 28.6,62.4 39,61.1 "/>
<polygon fill="#F58536" points="46.4,62.4 35.6,64.2 35.6,78.5 46.4,75 "/>
<polygon fill="#FBBF93" points="61.4,65.2 50.6,63.2 39.7,65.2 50.6,86 "/>
<polygon fill="#F58536" points="61.4,65.2 50.6,67.9 50.6,86 61.4,80.6 "/>
<polygon fill="#9D5025" points="25.6,61.7 20.7,60.5 20.7,71.1 25.6,73.5 "/>
<polygon fill="#9D5025" points="28.6,62.4 35.6,64.2 35.6,78.5 28.6,75 "/>
<polygon fill="#F58536" points="75.5,61.7 80.4,60.5 80.4,71.1 75.5,73.5 "/>
<polygon fill="#F58536" points="72.5,62.4 65.5,64.2 65.5,78.5 72.5,75 "/>
<polygon fill="#9D5025" points="20.7,39.5 50.6,32.1 50.6,14 20.7,28.9 "/>
<polygon fill="#9D5025" points="39.7,65.2 50.6,67.9 50.6,86 39.7,80.6 "/>
<polygon fill="#F58536" points="80.4,46.4 70.5,45.6 70.5,58.7 80.4,57 "/>
<polygon fill="#9D5025" points="20.7,46.4 30.6,45.6 37.9,46 37.9,58 30.6,58.7 20.7,57 "/>
<polygon fill="#F58536" points="37.9,58 30.6,58.7 30.6,45.6 37.9,46 "/>
<polygon fill="#9D5025" points="35.6,45.2 50.6,44 65.5,45.2 65.5,59.6 50.6,62.1 35.6,59.6 "/>
<polygon fill="#F58536" points="65.5,45.2 50.6,44 50.6,62.1 65.5,59.6 "/>
</svg>
