<?xml version="1.0" encoding="utf-8"?>
<!-- Generator: Adobe Illustrator 19.1.0, SVG Export Plug-In . SVG Version: 6.00 Build 0)  -->
<svg version="1.1" id="Layer_1" xmlns="http://www.w3.org/2000/svg" xmlns:xlink="http://www.w3.org/1999/xlink" x="0px" y="0px" width="100px"
	 height="100px"
	 viewBox="0 0 100 100" enable-background="new 0 0 100 100" xml:space="preserve">
<polygon fill="#9D5025" points="20.2,71.1 24,73.1 25.6,72.7 25.8,45.5 24,45.4 20.2,45.8 "/>
<polygon fill="#F58435" points="30.9,71.4 24,73.1 24,45.4 30.9,45.7 "/>
<polygon fill="#9D5025" points="27.6,74.8 34.1,78.1 38.4,76.8 38.4,34 34.1,33.2 27.6,35.1 "/>
<polygon fill="#F58435" points="45.4,74.5 34.1,78.1 34.1,33.2 45.4,35.3 "/>
<polygon fill="#9D5025" points="70.1,34.5 70.1,65.6 77.6,66.8 77.6,33.2 "/>
<polygon fill="#6B3B19" points="52.7,32.7 54.3,23.3 76,31.2 76,36.3 70.2,37.1 "/>
<polygon fill="#FBBF92" points="50.7,67.9 57,75.4 76,68.9 76,63.8 70.2,63 "/>
<polygon fill="#9D5025" points="39.4,80.7 50,86 56.3,82.8 58.4,18.2 50,14 39.4,19.3 "/>
<path fill="#F58435" d="M50,14v72L79.8,71V28.9L50,14z M76,63.8l-17.1,5.1V31.2L76,36.3V63.8z"/>
</svg>
