<?xml version="1.0" encoding="utf-8"?>
<!-- Generator: Adobe Illustrator 19.1.0, SVG Export Plug-In . SVG Version: 6.00 Build 0)  -->
<svg version="1.1" id="Layer_1" xmlns="http://www.w3.org/2000/svg" xmlns:xlink="http://www.w3.org/1999/xlink" x="0px" y="0px" width="100px"
	 height="100px"
	 viewBox="0 0 100 100" enable-background="new 0 0 100 100" xml:space="preserve">
<path fill="#9D5025" d="M83.1,41h-2.7c-2,0-3.7,1.1-3.9,3h-4.5c-0.5-3.8-2-7-3.7-7h-1.2H61v-1.2c0-2.1-0.9-3.8-3.1-3.8H53v-2h6
	c0.7,0,2-1,2-1.7v-0.2c0-0.7,0-2.5,0-2.5H36c0,0,0,1.8,0,2.5v0.2c0,0.7,0.8,1.7,1.5,1.7H44v2h-5.4c-2.1,0-4.6,1.6-4.6,3.8V37h-8.2
	C23.7,37,22,39,22,41.2V53h-5V39.8c0-0.7-1-1.4-2-1.4s-2,0.6-2,1.4v31c0,0.7,1,1.4,2,1.4s2-0.6,2-1.4V58h5v11.1
	c0,2.1,1.7,3.9,3.8,3.9H43c0.7,3,1.9,5,3.4,5h22.1c1.9,0,3.5-4,3.8-8H77v0.6c0,2.1,1.3,3.4,3.4,3.4h2.7c2.1,0,3.9-1.2,3.9-3.4v-26
	C87,42.5,85.3,41,83.1,41z"/>
<path fill="#F58536" d="M83.1,38.5h-2.7c-2,0-3.7,1.1-3.9,3h-4.5c-0.5-3.8-2-7-3.7-7h-1.2H61v-1.2c0-2.1-0.9-3.8-3.1-3.8H53v-2h6
	c0.7,0,2-1,2-1.7v-0.2c0-0.7-1.3-1.1-2-1.1H37.5c-0.7,0-1.5,0.4-1.5,1.1v0.2c0,0.7,0.8,1.7,1.5,1.7H44v2h-5.4
	c-2.1,0-4.6,1.6-4.6,3.8v1.2h-8.2c-2.1,0-3.8,2.1-3.8,4.2v11.8h-5V37.3c0-0.7-1-1.4-2-1.4s-2,0.6-2,1.4v31c0,0.7,1,1.4,2,1.4
	s2-0.6,2-1.4V55.5h5v11.1c0,2.1,1.7,3.9,3.8,3.9H43c0.7,3,1.9,5,3.4,5h22.1c1.9,0,3.5-4,3.8-8H77v0.6c0,2.1,1.3,3.4,3.4,3.4h2.7
	c2.1,0,3.9-1.2,3.9-3.4v-26C87,40,85.3,38.5,83.1,38.5z"/>
<g>
	<g enable-background="new    ">
		<path fill="#FFFFFF" d="M28.1,47.9h1.6l2.8,7.5l2.8-7.5h1.6v8.9h-1.1v-7.4h0L33,56.8h-1l-2.8-7.4h0v7.4h-1.1V47.9z"/>
		<path fill="#FFFFFF" d="M44.4,56.7c-0.2,0.1-0.4,0.2-0.8,0.2c-0.5,0-0.9-0.3-0.9-1c-0.6,0.7-1.4,1-2.3,1c-1.2,0-2.1-0.5-2.1-1.8
			c0-1.5,1.1-1.8,2.2-2c1.2-0.2,2.2-0.1,2.2-0.9c0-0.9-0.8-1.1-1.4-1.1c-0.9,0-1.6,0.3-1.6,1.2h-1.1c0.1-1.6,1.3-2.1,2.7-2.1
			c1.2,0,2.4,0.3,2.4,1.8v3.3c0,0.5,0,0.7,0.3,0.7c0.1,0,0.2,0,0.3-0.1V56.7z M42.7,53.5c-0.4,0.3-1.2,0.3-1.9,0.4
			c-0.7,0.1-1.3,0.4-1.3,1.2c0,0.7,0.6,0.9,1.2,0.9c1.4,0,2-0.9,2-1.5V53.5z"/>
		<path fill="#FFFFFF" d="M45.4,50.3h1.1v0.9h0c0.3-0.7,1.2-1,2-1c2,0,3,1.6,3,3.4s-1,3.3-2.9,3.3c-0.7,0-1.6-0.2-2.1-1h0v3.3h-1.1
			V50.3z M48.4,51.1c-1.4,0-2,1.2-2,2.4c0,1.3,0.6,2.4,2,2.4c1.4,0,1.9-1.2,1.9-2.5C50.4,52.3,49.8,51.1,48.4,51.1z"/>
		<path fill="#FFFFFF" d="M53,47.9h4.2c1.7,0,2.7,0.9,2.7,2.3c0,1.1-0.5,2-1.5,2.2v0c1,0.2,1.2,1,1.3,1.8c0.1,0.9,0,1.8,0.5,2.4
			h-1.3c-0.3-0.4-0.1-1.3-0.3-2.2C58.4,53.7,58.2,53,57,53h-2.9v3.8H53V47.9z M56.6,52c1.1,0,2-0.3,2-1.6c0-0.9-0.5-1.5-1.6-1.5
			h-2.9V52H56.6z"/>
		<path fill="#FFFFFF" d="M64.9,47.9h1.6l2.8,7.5l2.8-7.5h1.6v8.9h-1.1v-7.4h0l-2.8,7.4h-1l-2.8-7.4h0v7.4h-1.1V47.9z"/>
		<path fill="#FFFFFF" d="M80.6,49h-3.6l-0.5,2.5l0,0c0.4-0.4,1-0.6,1.6-0.6c1.6,0,2.8,1,2.8,3c0,1.5-1,2.9-3.1,2.9
			c-1.5,0-2.8-0.9-2.8-2.5h1.1c0.1,0.9,0.8,1.6,1.9,1.6c1,0,1.9-0.7,1.9-2.1c0-1.2-0.8-2-2-2c-0.7,0-1.2,0.3-1.6,0.8l-0.9,0l0.8-4.6
			h4.3V49z"/>
	</g>
</g>
</svg>
