<?xml version="1.0" encoding="utf-8"?>
<!-- Generator: Adobe Illustrator 19.1.0, SVG Export Plug-In . SVG Version: 6.00 Build 0)  -->
<svg version="1.1" id="Layer_1" xmlns="http://www.w3.org/2000/svg" xmlns:xlink="http://www.w3.org/1999/xlink" x="0px" y="0px" width="100px"
	 height="100px"
	 viewBox="0 0 100 100" enable-background="new 0 0 100 100" xml:space="preserve">
<path fill="#9D5025" d="M67.4,77.1H32.6c-5,0-9.1-4.1-9.1-9.1V33.2c0-5,4.1-9.1,9.1-9.1h34.8c5,0,9.1,4.1,9.1,9.1V68
	C76.5,73,72.4,77.1,67.4,77.1z"/>
<path fill="#F58435" d="M67.4,74.6H32.6c-5,0-9.1-4.1-9.1-9.1V30.7c0-5,4.1-9.1,9.1-9.1h34.8c5,0,9.1,4.1,9.1,9.1v34.8
	C76.5,70.5,72.4,74.6,67.4,74.6z"/>
<polygon fill="#FFFFFF" points="32.4,56.6 32.4,66.6 46.2,66.6 46.2,56.6 46.2,52.6 32.4,52.6 "/>
<polygon fill="#FFFFFF" points="58.7,47 69.7,36 66.7,33 58.7,25 58.7,29 46.2,29 46.2,33 46.2,43 58.7,43 "/>
<polygon fill="#FFFFFF" points="42.3,33 42.3,29 28.5,29 28.5,33 28.5,43 42.3,43 "/>
<polygon fill="#FFFFFF" points="62.5,48.6 62.5,52.6 50,52.6 50,56.6 50,66.6 62.5,66.6 62.5,70.7 73.5,59.6 70.5,56.6 "/>
</svg>
