<?xml version="1.0" encoding="utf-8"?>
<!-- Generator: Adobe Illustrator 19.1.0, SVG Export Plug-In . SVG Version: 6.00 Build 0)  -->
<svg version="1.1" id="Layer_1" xmlns="http://www.w3.org/2000/svg" xmlns:xlink="http://www.w3.org/1999/xlink" x="0px" y="0px" width="100px"
	 height="100px"
	 viewBox="0 0 100 100" enable-background="new 0 0 100 100" xml:space="preserve">
<path fill="#9D5025" d="M67.4,23.8H32.6c-5,0-9.1,4.1-9.1,9.1v2.2v14.3c5.6-0.2,11,3,13.5,8.4c1.1,2.3,1.5,4.8,1.2,7.2
	c-0.1,0.6-1.3,2.7-1.3,2.7v2.2c4.6-1.6,9.8,0.5,11.8,5c0.3,0.6,0.5,1.2,0.6,1.8h18c5,0,9.1-4.1,9.1-9.1V35.1v-2.2
	C76.5,27.9,72.4,23.8,67.4,23.8z"/>
<path fill="#F58435" d="M67.4,21.6H32.6c-5,0-9.1,4.1-9.1,9.1v2.2v14.3c5.6-0.2,11,3,13.5,8.4c1.8,4,1.7,8.4-0.1,12.1
	c4.6-1.6,9.8,0.5,11.8,5c0.3,0.6,0.5,1.2,0.6,1.8h18c5,0,9.1-4.1,9.1-9.1V32.9v-2.2C76.5,25.7,72.4,21.6,67.4,21.6z"/>
<path fill="#9D5025" d="M35.2,61.9l0-2.5l-3.9-0.6c-0.8-1-1.7-1.9-2.8-2.6l0.8-4.6l-4.1,1l-0.8,2.1c-1.2-0.2-2.5-0.2-3.8,0.1
	l-4.9-2.7l0,2.5l0.9,2.1c-1,0.8-1.9,1.7-2.6,2.8l-3.7,0.8l0,2.5l2.1,0.8c-0.1,0.5-0.1,1-0.1,1.6c0,0.7-1.8,0.7-1.8,0.7l0,2.5l1.8,4
	l2-0.9c0.6,0.8,1.3,1.5,2.1,2.1l0,0.1l0,2.5l4.1,1.5l0.8-2.1c1.3,0.2,2.6,0.2,3.8-0.1l0.9,2l4-1.8l0-2.5L30,72.9
	c0.7-0.6,1.3-1.4,1.8-2.1l2.1,0.8l1.5-4.1l0-2.5l-2.1,1.7c0.2-1.3,0.2-2.5-0.1-3.8L35.2,61.9z"/>
<path fill="#9D5025" d="M45.6,80.1l1.9-0.6l0-2.5l-3-0.4c-0.6-0.9-1.3-1.6-2.2-2l0.4-2l0-2.5l-4.1,3.7c-0.8,0.1-1.5,0.2-2.3,0.6
	c-0.2,0.1-0.4,0.2-0.6,0.3l-4-1.1l0,2.5l1.5,1.4c-0.1,0.3-0.3,0.8-0.3,0.8l-2.3,0.2l0,2.5l1.1,3.5l1.9-0.6c0.5,0.7,1.1,1.3,1.8,1.8
	l0,2.2l3.6,0.8l0.4-2c0.8-0.1,1.5-0.2,2.3-0.6c0.2-0.1,0.4-0.2,0.6-0.3l1.5,1.4l2.5-2.7l0-2.5l-0.9-0.6
	C45.5,80.9,45.6,80.5,45.6,80.1z"/>
<path fill="#F58536" d="M35.2,59.4l-1.8-4l-2,0.9c-0.8-1-1.7-1.9-2.8-2.6l0.8-2.1l-4.1-1.5l-0.8,2.1c-1.2-0.2-2.5-0.2-3.8,0.1
	l-0.9-2.1l-4,1.8l0.9,2.1c-1,0.8-1.9,1.7-2.6,2.8l-2.1-0.8l-1.5,4.1l2.1,0.8c-0.2,1.3-0.2,2.5,0.1,3.8l-2,0.9l1.8,4l2-0.9
	c0.8,1.1,1.7,1.9,2.8,2.6l-0.8,2.1l4.1,1.5l0.8-2.1c1.3,0.2,2.6,0.2,3.8-0.1l0.9,2l4-1.8l-0.9-2c1.1-0.8,1.9-1.7,2.6-2.8l2.1,0.8
	l1.5-4.1l-2.1-0.8c0.2-1.3,0.2-2.5-0.1-3.8L35.2,59.4z"/>
<path fill="#F58536" d="M45.6,77.6l1.9-0.6l-1.1-3.5l-1.9,0.6c-0.6-0.9-1.3-1.6-2.2-2l0.4-2l-3.6-0.8l-0.4,2
	c-0.8,0.1-1.5,0.2-2.3,0.6c-0.2,0.1-0.4,0.2-0.6,0.3l-1.5-1.4l-2.5,2.7l1.5,1.4c-0.4,0.9-0.7,1.9-0.7,3l-1.9,0.6l1.1,3.5l1.9-0.6
	c0.6,0.9,1.3,1.6,2.2,2l-0.4,2l3.6,0.8l0.4-2c0.8-0.1,1.5-0.2,2.3-0.6c0.2-0.1,0.4-0.2,0.6-0.3l1.5,1.4l2.5-2.7l-1.5-1.4
	C45.3,79.7,45.6,78.6,45.6,77.6z"/>
<circle fill="#FFFFFF" cx="22.9" cy="62.6" r="2.8"/>
<circle fill="#FFFFFF" cx="39.1" cy="77.7" r="1.8"/>
<polygon fill="#FFFFFF" points="58.7,47 69.7,36 66.7,33 58.7,25 58.7,29 46.2,29 46.2,33 46.2,43 58.7,43 "/>
<polygon fill="#FFFFFF" points="42.3,33 42.3,29 28.5,29 28.5,33 28.5,43 42.3,43 "/>
<polygon fill="#FFFFFF" points="73.5,59.6 70.5,56.6 62.5,48.6 62.5,52.6 50,52.6 50,56.6 50,66.6 62.5,66.6 62.5,70.7 "/>
<path fill="#FFFFFF" d="M37,55.6c0.1,0.3,0.3,0.7,0.4,1c1.2,3.3,1.1,6.9,0,10h8.8v-10v-4H35.1C35.8,53.5,36.5,54.5,37,55.6z"/>
</svg>
