<?xml version="1.0" encoding="utf-8"?>
<!-- Generator: Adobe Illustrator 19.1.0, SVG Export Plug-In . SVG Version: 6.00 Build 0)  -->
<svg version="1.1" id="Layer_1" xmlns="http://www.w3.org/2000/svg" xmlns:xlink="http://www.w3.org/1999/xlink" x="0px" y="0px" width="100px"
	 height="100px"
	 viewBox="0 0 100 100" enable-background="new 0 0 100 100" xml:space="preserve">
<path fill="#9D5025" d="M32.6,23.8h34.8c5,0,9.1,4.1,9.1,9.1v2.2v13.1c-1.8-0.9-5.7-1.9-11.6-1.9c-2.6,0-4.8,0.2-6.7,0.5
	c-3.9,0.7-6,1.8-6,2.5v26c0,0.4,0.6,1,1.7,1.6h-1.7H32.6c-5,0-9.1-4.1-9.1-9.1V35.1v-2.2C23.5,27.9,27.6,23.8,32.6,23.8z"/>
<path fill="#F58435" d="M32.6,21.6h34.8c5,0,9.1,4.1,9.1,9.1v2.2V46c-1.8-0.9-5.7-1.9-11.6-1.9c-2.6,0-4.8,0.2-6.7,0.5
	c-3.9,0.7-6,1.8-6,2.5v26c0,0.4,0.6,1,1.7,1.6h-1.7H32.6c-5,0-9.1-4.1-9.1-9.1V32.9v-2.2C23.5,25.7,27.6,21.6,32.6,21.6z"/>
<path fill="#9D5025" d="M65.8,51.1c-2.2,0-4.1,0.2-5.6,0.4c-1.9,0.3-5-0.4-5-0.4s0,2.3,0,2.5c0,0.6,1.7,1.5,5,2.1
	c1.5,0.3,3.4,0.4,5.6,0.4c6.9,0,10.7-1.6,10.7-2.5c0-0.3,0-2.5,0-2.5S70.7,51.1,65.8,51.1z"/>
<path fill="#9D5025" d="M55,58.4l0,17.1c0,0.9,3,2.5,10.1,2.5c3.9,0,6.9-0.5,8.8-1c1.4-0.5,2.4-1,2.5-1.4v-17c-2.1,1.3-6.4,2-10.6,2
	h-0.3c-0.4,0-0.9,0-1.3,0l-0.2,0c-0.4,0-0.7,0-1.1-0.1c-0.2,0-0.4,0-0.5,0c-0.3,0-0.6,0-0.8-0.1c-0.2,0-0.3,0-0.5-0.1
	c-0.3,0-0.6-0.1-0.9-0.1C57.9,59.8,56.1,59.1,55,58.4z"/>
<path fill="#F58536" d="M65.8,48.6c-2.2,0-4.1,0.2-5.6,0.4c-3.3,0.5-5,1.5-5,2.1c0,0.6,1.7,1.5,5,2.1c1.5,0.3,3.4,0.4,5.6,0.4
	c6.9,0,10.7-1.6,10.7-2.5C76.5,50.2,72.7,48.6,65.8,48.6z"/>
<path fill="#F58536" d="M55,55.9L55,73c0,0.9,3,2.5,10.1,2.5c3.9,0,6.9-0.5,8.8-1c1.4-0.5,2.4-1,2.5-1.4v-17c-2.1,1.3-6.4,2-10.6,2
	h-0.3c-0.4,0-0.9,0-1.3,0l-0.2,0c-0.4,0-0.7,0-1.1-0.1c-0.2,0-0.4,0-0.5,0c-0.3,0-0.6,0-0.8-0.1c-0.2,0-0.3,0-0.5-0.1
	c-0.3,0-0.6-0.1-0.9-0.1C57.9,57.3,56.1,56.6,55,55.9z"/>
<path fill="#9D5025" d="M32.6,74.6h21.3l0,2.2H32.6c-5,0-9.1-4.1-9.1-9.1v-2.2C23.5,70.5,27.6,74.6,32.6,74.6z"/>
<path fill="#FFFFFF" d="M66.7,33l-8-8v4H46.2v4v10h12.5v1.5c0.9-0.1,1.8-0.2,2.8-0.3l8.2-8.2L66.7,33z"/>
<polygon fill="#FFFFFF" points="28.5,33 28.5,43 42.3,43 42.3,33 42.3,29 28.5,29 "/>
<polygon fill="#FFFFFF" points="32.4,56.6 32.4,66.6 46.2,66.6 46.2,56.6 46.2,52.6 32.4,52.6 "/>
</svg>
