<?xml version="1.0" encoding="utf-8"?>
<!-- Generator: Adobe Illustrator 19.1.0, SVG Export Plug-In . SVG Version: 6.00 Build 0)  -->
<svg version="1.1" id="Layer_1" xmlns="http://www.w3.org/2000/svg" xmlns:xlink="http://www.w3.org/1999/xlink" x="0px" y="0px" width="100px"
	 height="100px"
	 viewBox="0 0 100 100" enable-background="new 0 0 100 100" xml:space="preserve">
<polygon fill="#FBBF93" points="65.9,69.4 50,65.9 34.1,69.4 50,86 "/>
<polygon fill="#6B3A19" points="20.2,37.6 50,14 79.8,37.6 50,41.2 "/>
<polygon fill="#F58536" points="50,28.8 79.8,37.6 79.8,28.9 50,14 "/>
<polygon fill="#F58536" points="73.8,47.6 50,46.5 50,60.9 73.8,57.3 "/>
<polygon fill="#9D5025" points="26.2,47.6 50,46.5 50,60.9 26.2,57.3 "/>
<polygon fill="#9D5025" points="50,28.8 20.2,37.6 20.2,28.9 50,14 "/>
<polygon fill="#F58536" points="65.9,69.4 50,74.9 50,86 65.9,78.1 "/>
<polygon fill="#9D5025" points="34.1,69.4 50,74.9 50,86 34.1,78.1 "/>
</svg>
