<?xml version="1.0" encoding="utf-8"?>
<!-- Generator: Adobe Illustrator 19.1.0, SVG Export Plug-In . SVG Version: 6.00 Build 0)  -->
<svg version="1.1" id="Layer_1" xmlns="http://www.w3.org/2000/svg" xmlns:xlink="http://www.w3.org/1999/xlink" x="0px" y="0px" width="100px"
	 height="100px"
	 viewBox="0 0 100 100" enable-background="new 0 0 100 100" xml:space="preserve">
<path fill="#9D5025" d="M80.9,66c0,9.6-5.5,14.2-12.2,14.2c-6.7,0-12.2-4.3-12.2-13.4c0-6.7,5.5-9.9,12.2-9.9
	C75.5,56.9,80.9,59.3,80.9,66z"/>
<circle fill="#F58536" cx="68.7" cy="66" r="12.2"/>
<g enable-background="new    ">
	<path fill="#FFFFFF" d="M64.9,60h1.7v6.4l6.5-6.4h2.2l-5.4,5.2l5.6,7.7h-2.2l-4.6-6.5l-2.1,2v4.5h-1.7V60z"/>
</g>
<path fill="#9D5025" d="M68.2,22.6l-40.1-2.8c-2.8,0-5.1,2.3-5.1,5.1v46.7c0,0.4,0.1,0.8,0.2,1.2c0.4,2,1.9,3.5,3.9,3.8
	c0.3,0.1,0.5,0.1,0.8,0.1l0,0h29.2c-0.8-1-1.6-2.1-2.1-3.3l-18.3-0.3c7.3-3.2,16.7-7.8,16.7-9.9c0-3.5,8.4-16.5,22.7-9.5V24.6
	C76.1,21.9,71,22.6,68.2,22.6z"/>
<path fill="#F58536" d="M53.2,66c0-9.2,7.3-16.6,16.4-16.6c2.4,0,4.5,0.5,6.5,1.4V24.6c0-2.6-1.8-4.8-4.5-4.8H27.9
	c-2.6,0-4.9,2.2-4.9,4.8V69c0,2.6,2.2,4.8,4.9,4.8h27.2C53.9,71.8,53.2,68.8,53.2,66z"/>
</svg>
