<?xml version="1.0" encoding="UTF-8" standalone="no"?>
<svg
   xmlns:dc="http://purl.org/dc/elements/1.1/"
   xmlns:cc="http://creativecommons.org/ns#"
   xmlns:rdf="http://www.w3.org/1999/02/22-rdf-syntax-ns#"
   xmlns:svg="http://www.w3.org/2000/svg"
   xmlns="http://www.w3.org/2000/svg"
   viewBox="0 0 580 217.5"
   height="217.5"
   width="580"
   xml:space="preserve"
   version="1.1"
   id="svg2"><metadata
     id="metadata8"><rdf:RDF><cc:Work
         rdf:about=""><dc:format>image/svg+xml</dc:format><dc:type
           rdf:resource="http://purl.org/dc/dcmitype/StillImage" /></cc:Work></rdf:RDF></metadata><defs
     id="defs6" /><g
     transform="matrix(1.25,0,0,-1.25,0,217.5)"
     id="g10"><g
       transform="scale(0.1,0.1)"
       id="g12"><path
         id="path14"
         style="fill:#f68d11;fill-opacity:1;fill-rule:nonzero;stroke:none"
         d="m 1289.67,1140 -269.67,90 0,390 270,-80 -0.33,-400" /><path
         id="path16"
         style="fill:#f68d11;fill-opacity:1;fill-rule:nonzero;stroke:none"
         d="m 1360,1540 270,80 -0.94,-389.73 L 1360,1140 l 0,400" /><path
         id="path18"
         style="fill:#f68d11;fill-opacity:1;fill-rule:nonzero;stroke:none"
         d="M 1575,1662.23 1323.36,1740 1075,1662.23 l 248.72,-66.67 251.28,66.67" /><path
         id="path20"
         style="fill:#f68d11;fill-opacity:1;fill-rule:nonzero;stroke:none"
         d="m 1969.67,1140 -269.67,90 0,390 270,-80 -0.33,-400" /><path
         id="path22"
         style="fill:#f68d11;fill-opacity:1;fill-rule:nonzero;stroke:none"
         d="m 2040,1540 270,80 -0.94,-389.73 L 2040,1140 l 0,400" /><path
         id="path24"
         style="fill:#f68d11;fill-opacity:1;fill-rule:nonzero;stroke:none"
         d="M 2255,1662.23 2003.36,1740 1755,1662.23 l 248.72,-66.67 251.28,66.67" /><path
         id="path26"
         style="fill:#f68d11;fill-opacity:1;fill-rule:nonzero;stroke:none"
         d="M 270,970 0,1050 0,660 269.672,570 270,970" /><path
         id="path28"
         style="fill:#f68d11;fill-opacity:1;fill-rule:nonzero;stroke:none"
         d="M 340,970 610,1050 609.063,660.262 340,570 l 0,400" /><path
         id="path30"
         style="fill:#f68d11;fill-opacity:1;fill-rule:nonzero;stroke:none"
         d="M 555,1092.23 303.359,1170 55,1092.23 303.723,1025.56 555,1092.23" /><path
         id="path32"
         style="fill:#f68d11;fill-opacity:1;fill-rule:nonzero;stroke:none"
         d="M 949.672,570 680,660 l 0,390 270,-80 -0.328,-400" /><path
         id="path34"
         style="fill:#f68d11;fill-opacity:1;fill-rule:nonzero;stroke:none"
         d="m 1020,970 270,80 -0.94,-389.738 L 1020,570 l 0,400" /><path
         id="path36"
         style="fill:#f68d11;fill-opacity:1;fill-rule:nonzero;stroke:none"
         d="M 1235,1092.23 983.359,1170 735,1092.23 983.723,1025.56 1235,1092.23" /><path
         id="path38"
         style="fill:#f68d11;fill-opacity:1;fill-rule:nonzero;stroke:none"
         d="M 609.672,0 340,90 340,480 610,400 609.672,0" /><path
         id="path40"
         style="fill:#f68d11;fill-opacity:1;fill-rule:nonzero;stroke:none"
         d="M 680,400 950,480 949.063,90.2617 680,0 l 0,400" /><path
         id="path42"
         style="fill:#f68d11;fill-opacity:1;fill-rule:nonzero;stroke:none"
         d="M 895,522.23 643.359,600 395,522.23 643.723,455.559 895,522.23" /><path
         id="path44"
         style="fill:#100f0d;fill-opacity:1;fill-rule:nonzero;stroke:none"
         d="m 1803.9,344.75 -19.84,-0.07 c -7.28,0 -16.56,-4.918 -18.84,-12.891 l -60.19,-212.051 -59.53,211.59 c -1.79,6.633 -8.04,13.352 -16.54,13.352 l -23.49,0 c -8.46,0 -14.63,-6.809 -16.34,-13.489 l -55.38,-209.39 -57.22,210.039 c -2.26,7.68 -11.77,12.84 -19.23,12.84 l -28.55,0.05 c -6.1,0 -11.77,-2.621 -14.81,-6.839 -2.06,-2.86 -2.63,-6.102 -1.68,-8.922 l 88.4,-312.9573 c 1.95,-6.58201 7.65,-13.21092 15.99,-13.21092 l 28.39,0 c 7.67,0 14.39,5.58985 16.33,13.51952 l 54.41,208.4687 59.21,-208.707 c 1.78,-6.39059 7.51,-13.28122 15.89,-13.28122 l 27.93,0 c 7.77,0 14.31,5.39844 16.23,13.30862 l 85.09,312.7306 c 1,3.012 0.42,6.359 -1.61,9.18 -2.99,4.152 -8.59,6.73 -14.62,6.73" /><path
         id="path46"
         style="fill:#100f0d;fill-opacity:1;fill-rule:nonzero;stroke:none"
         d="m 2049.38,211.879 -149.98,0 c 3.45,42.09 30.78,85.73 77.08,87.41 49.27,-1.609 71.81,-44.25 72.9,-87.41 z m -73.01,135.109 c -101.31,0 -147.45,-89.566 -147.45,-172.777 0,-103.8516 57.36,-170.94928 146.13,-170.94928 63.53,0 111.96,32.09768 132.88,88.17968 1.12,3.207 0.77,6.6875 -0.98,9.8086 -2.13,3.789 -6.17,6.648 -10.95,7.699 l -28.12,5.379 c -7.55,1.184 -16.2,-3.289 -19.06,-9.777 -13.66,-31.1604 -38.56,-48.8401 -69.81,-49.7619 -30.07,0.9297 -57.68,18.7929 -70.33,45.4809 -10.28,21.8 -11.8,43.289 -11.97,65.14 l 203.61,0.07 c 4.27,0 8.69,1.879 11.81,5.04 2.61,2.621 4.03,5.878 4,9.14 -0.5,80.899 -37.47,167.328 -139.76,167.328" /><path
         id="path48"
         style="fill:#100f0d;fill-opacity:1;fill-rule:nonzero;stroke:none"
         d="m 2366.62,173.711 c 0,-19.16 -3.47,-114.8321 -71.44,-117.2813 -22.78,0.8711 -45.8,14.2617 -58.66,34.0586 -9.47,14.9727 -15,35.6717 -16.42,61.2817 l 0,56.289 c 1.11,43.121 31.46,90.441 74.86,92.273 68.2,-2.691 71.66,-105.941 71.66,-126.621 z m -60.78,176.18 -5.39,0 c -33.63,0 -60.06,-13.969 -80.35,-42.602 l -0.03,131.93 c 0,7.41 -7.65,14.16 -16.1,14.16 l -29.28,0 c -7.65,0 -16.21,-6.059 -16.23,-14.16 l 0,-411.8401 c 0.03,-7.4805 7.68,-14.2773 16.12,-14.2773 l 8.6,0.0468 c 8.12,0 13.9,6.543 15.85,12.6211 l 9.16,29.0703 c 21.28,-30.2187 53.33,-47.96871 87.63,-47.96871 l 5.25,0 c 90.35,0 130.79,87.87891 130.79,174.96891 0,43.351 -10.69,84.801 -29.32,113.719 -21.53,33.511 -58.59,54.332 -96.7,54.332" /><path
         id="path50"
         style="fill:#100f0d;fill-opacity:1;fill-rule:nonzero;stroke:none"
         d="m 2752.47,182.98 c -19.04,13.68 -41.93,18.25 -64.86,22.829 l -43.97,8.152 c -31.55,5.187 -49.81,13.648 -49.81,41.488 0,29.43 30.5,40.68 56.36,41.379 31.58,-0.797 55.33,-14.887 66.86,-39.668 2.74,-5.84 8.81,-9.769 15.12,-9.769 1.08,0 2.18,0.121 3.22,0.347 l 27.44,6.063 c 4.48,0.988 8.66,4.058 10.9,8.051 1.79,3.168 2.18,6.628 1.11,9.718 -16.79,48.91 -59.42,74.758 -123.91,74.758 -58.27,-0.129 -120.54,-26.039 -120.54,-98.406 0,-49.461 31.08,-80.871 92.44,-93.371 l 49.22,-9.379 c 27.02,-5.172 54.65,-14.371 54.65,-43.383 0,-42.9492 -49.98,-47.3281 -65.09,-47.6406 -33.9,0.7305 -72.28,15.8516 -81.6,47.8716 -1.87,7.039 -10.73,12.019 -18.5,10.402 l -28.7,-5.922 c -4.32,-0.91 -8.27,-3.719 -10.57,-7.5117 -1.93,-3.1602 -2.48,-6.6992 -1.59,-9.9297 14.81,-53.1289 66.1,-85.16797 137.2,-85.70704 l 1.58,-0.01172 c 63.5,0 131.35,27.19146 131.35,103.46916 0,31.05 -13.97,58.812 -38.31,76.171" /><path
         id="path52"
         style="fill:#100f0d;fill-opacity:1;fill-rule:nonzero;stroke:none"
         d="m 3042.75,211.57 -150.02,0 c 3.43,42.129 30.76,85.789 77.06,87.391 49.25,-1.563 71.82,-44.199 72.96,-87.391 z m -73.04,135.129 c -101.33,0 -147.48,-89.57 -147.48,-172.777 0,-103.8439 57.37,-170.93372 146.15,-170.93372 63.54,0 111.97,32.10152 132.91,88.17192 1.11,3.2109 0.76,6.6992 -1,9.8278 -2.13,3.793 -6.18,6.653 -10.95,7.684 l -28.16,5.379 c -6.59,1.07 -15.78,-2.34 -19.02,-9.789 -13.67,-31.1409 -38.58,-48.8206 -69.8,-49.7815 -30.1,0.9609 -57.7,18.8203 -70.3,45.5 -10.3,21.7495 -11.83,43.2575 -11.98,65.1605 l 203.59,0.05 c 4.24,0 8.63,1.868 11.75,5.008 2.62,2.633 4.04,5.891 4.01,9.172 -0.47,80.891 -37.41,167.328 -139.72,167.328" /><path
         id="path54"
         style="fill:#100f0d;fill-opacity:1;fill-rule:nonzero;stroke:none"
         d="m 3301.69,342.891 c -3.97,0.437 -7.79,0.648 -11.5,0.648 -34.17,0 -61.92,-18.578 -81.18,-54.07 l 0.07,31.082 c -0.03,7.527 -7.54,14.14 -16.07,14.14 l -25.43,0 c -8.34,0 -15.7,-6.64 -15.76,-14.261 L 3151.78,18.5 c 0,-7.5781 7.36,-14.23047 15.76,-14.23047 l 29.67,0.01172 c 7.72,0 16.41,6.05855 16.48,14.21875 l 0.02,152.219 c 0,25.101 2.34,44.011 14.33,66.383 17.13,31.867 41.05,47.5 73.13,47.75 8.04,0.058 15.1,7.078 15.1,15.027 l 0,28.242 c 0,7.391 -6.41,13.879 -14.58,14.77" /><path
         id="path56"
         style="fill:#100f0d;fill-opacity:1;fill-rule:nonzero;stroke:none"
         d="m 3613.2,348.82 -23.43,-0.011 c -7.34,0 -16.75,-5.27 -19.03,-13 L 3494.79,97.1016 3417.23,335.57 c -2.29,7.918 -11.72,13.239 -19.1,13.239 l -33.46,0.031 c -6.14,0 -12.08,-2.738 -15.12,-6.969 -2.04,-2.832 -2.6,-6.043 -1.59,-9.039 L 3454.11,17.9414 c 2.04,-6.2305 7.45,-13.51171 16.01,-13.51171 l 40.49,0 c 7.43,0 13.52,5.05859 16.31,13.53911 L 3629.88,332.73 c 1.03,2.989 0.48,6.211 -1.55,9.051 -3.06,4.27 -8.99,7.039 -15.13,7.039" /><path
         id="path58"
         style="fill:#100f0d;fill-opacity:1;fill-rule:nonzero;stroke:none"
         d="m 3690.18,469.859 c -21.58,0 -39.13,-17.597 -39.13,-39.25 0,-21.648 17.55,-39.238 39.13,-39.238 21.59,0 39.16,17.59 39.16,39.238 0,21.653 -17.57,39.25 -39.16,39.25" /><path
         id="path60"
         style="fill:#100f0d;fill-opacity:1;fill-rule:nonzero;stroke:none"
         d="m 3706.29,350.738 -32.13,0.032 c -8.74,0 -16.7,-7.071 -16.7,-14.821 L 3657.3,15.3594 c 0,-3.8789 2,-7.73049 5.46,-10.58987 3.17,-2.59765 7.22,-4.097655 11.29,-4.097655 l 32.36,-0.050781 0.02,0 c 8.87,0.078125 16.66,6.957036 16.66,14.718706 l 0,320.6092 c 0,7.879 -7.86,14.789 -16.8,14.789" /><path
         id="path62"
         style="fill:#100f0d;fill-opacity:1;fill-rule:nonzero;stroke:none"
         d="m 4006.56,133.34 -26.83,-0.102 c -7.49,0 -13.77,-4.5 -16.56,-12.316 -9.8,-42.2814 -32,-64.1915 -65.66,-65.1603 -65.56,1.9492 -70.65,93.3283 -70.65,121.2893 0,55.758 19.31,115.929 73.22,117.519 32.54,-1 56.21,-24.332 63.31,-62.351 1.34,-7.758 7.3,-13.629 15.44,-14.649 l 28.71,-0.281 c 8.58,0.93 15.31,7.422 15.25,15.473 -10.16,68.707 -57.77,113.117 -121.4,113.117 l -2.2,-0.059 -2.49,0.059 c -92.54,0 -133.97,-86.367 -133.97,-171.957 0,-78.4728 34.93,-170.10169 133.45,-170.10169 l 4.72,0 c 62.04,0 108.87,43.48829 122.28,113.99969 0.3,3.36 -0.86,6.719 -3.24,9.45 -3.08,3.539 -7.99,5.808 -13.38,6.07" /><path
         id="path64"
         style="fill:#100f0d;fill-opacity:1;fill-rule:nonzero;stroke:none"
         d="m 4271.54,211.57 -150.04,0 c 3.43,42.141 30.77,85.789 77.1,87.391 49.26,-1.563 71.82,-44.199 72.94,-87.391 z m -73.04,135.129 c -101.32,0 -147.46,-89.57 -147.46,-172.777 0,-103.8439 57.37,-170.93372 146.15,-170.93372 63.51,0 111.92,32.08202 132.88,88.16012 1.09,3.2305 0.73,6.7305 -1.02,9.8396 -2.16,3.821 -6.09,6.614 -10.94,7.684 l -28.12,5.379 c -6.62,1.07 -15.78,-2.34 -19.02,-9.789 -13.71,-31.1409 -38.63,-48.8206 -69.84,-49.7932 -30.09,0.9726 -57.68,18.832 -70.28,45.5117 -10.31,21.7815 -11.84,43.2895 -12,65.1605 l 203.61,0.031 c 4.28,0 8.7,1.887 11.83,5.058 2.6,2.649 4,5.911 3.95,9.141 -0.47,80.891 -37.42,167.328 -139.74,167.328" /><path
         id="path66"
         style="fill:#100f0d;fill-opacity:1;fill-rule:nonzero;stroke:none"
         d="m 4593.31,182.98 c -19.07,13.692 -41.99,18.258 -64.88,22.829 l -43.97,8.152 c -31.52,5.187 -49.77,13.648 -49.77,41.488 0,37.961 47.11,41.133 56.3,41.379 31.61,-0.797 55.36,-14.887 66.87,-39.68 2.76,-5.839 8.85,-9.757 15.17,-9.757 1.09,0 2.18,0.121 3.24,0.347 l 27.42,6.063 c 4.48,0.988 8.65,4.07 10.89,8.058 1.78,3.172 2.17,6.621 1.1,9.711 -16.77,48.91 -59.41,74.758 -123.93,74.758 -58.25,-0.129 -120.5,-26.039 -120.5,-98.406 0,-49.473 31.07,-80.883 92.42,-93.371 l 49.24,-9.379 c 27.02,-5.172 54.65,-14.371 54.65,-43.383 0,-42.9492 -49.98,-47.3281 -65.09,-47.6406 -31.43,0.6719 -71.66,13.6524 -81.59,47.8316 -1.82,7.079 -10.67,12.051 -18.58,10.442 l -28.65,-5.922 c -4.34,-0.922 -8.3,-3.75 -10.6,-7.5508 -1.91,-3.1679 -2.46,-6.6797 -1.56,-9.8906 14.77,-53.1289 66.05,-85.16797 137.16,-85.70704 l 1.58,-0.01172 c 63.51,0 131.37,27.19146 131.37,103.46916 0,31.07 -13.96,58.839 -38.29,76.171" /><path
         id="path68"
         style="fill:#100f0d;fill-opacity:1;fill-rule:evenodd;stroke:none"
         d="m 3287.15,967.98 0,72.8 c 0.04,11.04 8.42,18.45 18.48,18.44 l 326.15,0.01 c 10.41,0 18.81,-7.59 18.81,-18.37 l 0,-62.43 c -0.1,-10.45 -8.93,-24.114 -24.57,-45.813 L 3457.09,691.41 c 62.68,1.488 129.04,-7.898 186,-39.922 12.87,-7.218 16.29,-17.929 17.34,-28.386 l 0,-77.68 c 0,-10.711 -11.72,-23.09 -24.02,-16.641 -100.39,52.598 -233.62,58.34 -344.65,-0.609 -11.33,-6.051 -23.21,6.137 -23.21,16.848 l 0,73.812 c 0,11.777 0.24,32.008 12.13,50.027 l 195.75,280.782 -170.41,0.039 c -10.43,0 -18.77,7.422 -18.87,18.3" /><path
         id="path70"
         style="fill:#100f0d;fill-opacity:1;fill-rule:evenodd;stroke:none"
         d="m 2097.45,513.461 -99.25,0 c -9.43,0.617 -16.98,7.73 -17.73,16.801 l 0.07,509.278 c 0,10.19 8.58,18.33 19.14,18.33 l 92.41,0.05 c 9.68,-0.54 17.42,-7.84 18.08,-17.1 l 0,-66.543 1.84,0 c 24.06,64.333 69.45,94.293 130.57,94.293 62.05,0 100.96,-29.96 128.75,-94.293 24.1,64.333 78.73,94.293 137.13,94.293 41.68,0 87.01,-17.12 114.8,-55.68 31.49,-42.89 25,-105.007 25,-159.687 l -0.06,-321.394 c 0,-10.161 -8.57,-18.348 -19.12,-18.348 l -99.1,0 c -9.98,0.617 -17.83,8.578 -17.83,18.301 l 0,270.008 c 0,21.421 1.83,75.027 -2.79,95.371 -7.43,34.324 -29.67,43.914 -58.34,43.914 -24.11,0 -49.13,-16.075 -59.32,-41.739 -10.18,-25.761 -9.24,-68.625 -9.24,-97.546 l 0,-269.961 c 0,-10.161 -8.57,-18.348 -19.14,-18.348 l -99.12,0 c -9.93,0.617 -17.8,8.578 -17.8,18.301 l -0.13,270.008 c 0,56.804 9.29,140.359 -61.09,140.359 -71.32,0 -68.54,-81.426 -68.54,-140.359 l -0.06,-269.961 c 0.04,-10.161 -8.54,-18.348 -19.13,-18.348" /><path
         id="path72"
         style="fill:#100f0d;fill-opacity:1;fill-rule:evenodd;stroke:none"
         d="m 3932.29,964.656 c -73.21,0 -77.82,-99.656 -77.82,-161.836 0,-62.144 -0.92,-195.019 76.92,-195.019 76.89,0 80.58,107.168 80.58,172.531 0,42.859 -1.83,94.285 -14.8,135.012 -11.15,35.379 -33.36,49.312 -64.88,49.312 z m -0.9,103.914 c 147.26,0 226.93,-126.441 226.93,-287.132 0,-155.426 -88.03,-278.676 -226.93,-278.676 -144.51,0 -223.26,126.476 -223.26,284.008 0,158.601 79.64,281.8 223.26,281.8" /><path
         id="path74"
         style="fill:#100f0d;fill-opacity:1;fill-rule:evenodd;stroke:none"
         d="m 4349.32,513.461 -98.87,0 c -9.96,0.617 -17.81,8.578 -17.81,18.301 l -0.14,509.508 c 0.82,9.28 9.06,16.6 19.02,16.6 l 92.07,0.05 c 8.68,-0.48 15.8,-6.38 17.62,-14.27 l 0,-77.927 1.88,0 c 27.75,69.667 66.68,102.847 135.19,102.847 44.47,0 88.03,-16.03 115.8,-59.98 C 4640,967.883 4640,899.316 4640,850.012 l 0,-320.492 c -1.11,-9.032 -9.16,-16.059 -18.96,-16.059 l -99.52,0 c -9.18,0.598 -16.56,7.379 -17.67,16.059 l 0,276.535 c 0,55.722 6.5,137.187 -62.07,137.187 -24.07,0 -46.27,-16.113 -57.4,-40.73 -13.91,-31.067 -15.75,-62.141 -15.75,-96.457 l 0,-274.246 c -0.17,-10.161 -8.75,-18.348 -19.31,-18.348" /><path
         id="path76"
         style="fill:#100f0d;fill-opacity:1;fill-rule:evenodd;stroke:none"
         d="m 3127.19,514.75 c -6.58,-5.871 -16,-6.262 -23.42,-2.309 -32.95,27.391 -38.87,40.09 -56.88,66.141 -54.47,-55.48 -93.04,-72.121 -163.57,-72.121 -83.57,0 -148.53,51.559 -148.53,154.66 0,80.527 43.61,135.305 105.8,162.172 53.84,23.633 129.04,27.937 186.58,34.402 l 0,12.871 c 0,23.614 1.85,51.551 -12.09,71.946 -12.03,18.258 -35.24,25.758 -55.69,25.758 -37.85,0 -71.48,-19.403 -79.76,-59.598 -1.68,-8.926 -8.24,-17.793 -17.23,-18.223 l -96.15,10.418 c -8.14,1.828 -17.15,8.321 -14.8,20.715 22.1,116.698 127.46,151.958 221.89,151.958 48.24,0 111.39,-12.88 149.45,-49.39 48.25,-45.127 43.6,-105.263 43.6,-170.783 l 0,-154.586 c 0,-46.5 19.33,-66.91 37.5,-91.972 6.29,-9.039 7.71,-19.75 -0.37,-26.379 -20.26,-16.981 -56.27,-48.231 -76.06,-65.899 l -0.27,0.219 z m -100.02,241.961 c 0,-38.672 0.92,-70.922 -18.58,-105.262 -15.78,-27.949 -40.86,-45.117 -68.71,-45.117 -38.02,0 -60.29,28.988 -60.29,71.969 0,84.492 75.82,99.875 147.58,99.875 l 0,-21.465" /><path
         id="path78"
         style="fill:#100f0d;fill-opacity:1;fill-rule:evenodd;stroke:none"
         d="m 1826.45,514.75 c -6.56,-5.871 -16.05,-6.262 -23.47,-2.309 -32.95,27.391 -38.85,40.09 -56.88,66.141 -54.44,-55.48 -93.03,-72.121 -163.6,-72.121 -83.54,0 -148.52,51.559 -148.52,154.66 0,80.527 43.65,135.305 105.84,162.172 53.85,23.633 129.04,27.937 186.58,34.402 l 0,12.871 c 0,23.614 1.87,51.551 -12.07,71.946 -12.06,18.258 -35.29,25.758 -55.68,25.758 -37.85,0 -71.52,-19.403 -79.77,-59.598 -1.72,-8.926 -8.25,-17.793 -17.23,-18.223 l -96.19,10.418 c -8.12,1.828 -17.14,8.321 -14.81,20.715 22.1,116.698 127.47,151.958 221.89,151.958 48.3,0 111.4,-12.88 149.47,-49.39 48.27,-45.127 43.61,-105.263 43.61,-170.783 l 0,-154.586 c 0,-46.5 19.34,-66.91 37.46,-91.972 6.32,-9.039 7.75,-19.75 -0.31,-26.379 -20.28,-16.981 -56.31,-48.231 -76.09,-65.899 l -0.23,0.219 z M 1726.4,756.711 c 0,-38.672 0.91,-70.922 -18.55,-105.262 -15.77,-27.949 -40.87,-45.117 -68.68,-45.117 -38.1,0 -60.36,28.988 -60.36,71.969 0,84.492 75.8,99.875 147.59,99.875 l 0,-21.465" /></g></g></svg>