<?xml version="1.0" encoding="utf-8"?>
<!-- Generator: Adobe Illustrator 17.0.1, SVG Export Plug-In . SVG Version: 6.00 Build 0)  -->
<!DOCTYPE svg PUBLIC "-//W3C//DTD SVG 1.1//EN" "http://www.w3.org/Graphics/SVG/1.1/DTD/svg11.dtd">
<svg version="1.1" id="Layer_1" xmlns="http://www.w3.org/2000/svg" xmlns:xlink="http://www.w3.org/1999/xlink" x="0px" y="0px"
	 width="50px" height="50px" viewBox="0 0 50 50" enable-background="new 0 0 50 50" xml:space="preserve">
<path fill="#A0A1A2" d="M48.083,28.179H17.287c-1.325,0-2.417-1.12-2.417-2.14c0-1.02,1.091-1.86,2.417-1.86h30.796
	c1.351,0,2.417,0.84,2.417,1.86C50.5,27.059,49.435,28.179,48.083,28.179z"/>
<path fill="#A0A1A2" d="M48.083,12.587H17.287c-1.325,0-2.417-1.12-2.417-2.14s1.091-1.86,2.417-1.86h30.796
	c1.351,0,2.417,0.84,2.417,1.86S49.435,12.587,48.083,12.587z"/>
<path fill="#A0A1A2" d="M48.109,43.772H17.287c-1.325,0-2.417-1.12-2.417-2.14c0-1.04,1.091-1.86,2.417-1.86h30.822
	c1.325,0,2.391,0.82,2.391,1.86C50.5,42.652,49.435,43.772,48.109,43.772z"/>
<polygon fill="#B8D432" points="0.5,9.907 0.5,9.907 2.248,8.157 2.248,8.157 2.248,8.157 5.749,11.658 12.752,4.655 12.752,4.655 
	12.752,4.655 14.5,6.406 14.5,6.406 14.5,6.406 5.749,15.16 "/>
<polygon fill="#B8D432" points="0.5,25.5 0.5,25.5 2.248,23.75 2.248,23.75 2.248,23.75 5.749,27.25 12.752,20.248 12.752,20.248 
	12.752,20.248 14.5,21.999 14.5,21.999 14.5,21.999 5.749,30.752 "/>
<polygon fill="#B8D432" points="0.5,41.092 0.5,41.092 2.248,39.342 2.248,39.342 2.248,39.342 5.749,42.843 12.752,35.84 
	12.752,35.84 12.752,35.84 14.5,37.591 14.5,37.591 14.5,37.591 5.749,46.345 "/>
</svg>
