<?xml version="1.0" encoding="utf-8"?>
<!-- Generator: Adobe Illustrator 17.0.1, SVG Export Plug-In . SVG Version: 6.00 Build 0)  -->
<!DOCTYPE svg PUBLIC "-//W3C//DTD SVG 1.1//EN" "http://www.w3.org/Graphics/SVG/1.1/DTD/svg11.dtd">
<svg version="1.1" id="Layer_1" xmlns="http://www.w3.org/2000/svg" xmlns:xlink="http://www.w3.org/1999/xlink" x="0px" y="0px"
	 width="50px" height="50px" viewBox="0 0 50 50" enable-background="new 0 0 50 50" xml:space="preserve">
<path fill="#0072C6" d="M6,6.831v36.338C6,46.941,14.507,50,25,50V6.831H6z"/>
<path fill="#0072C6" d="M24.74,49.999H25c10.493,0,19-3.057,19-6.831V6.831H24.74V49.999z"/>
<path opacity="0.15" fill="#FFFFFF" enable-background="new    " d="M24.74,49.999H25c10.493,0,19-3.057,19-6.831V6.831H24.74
	V49.999z"/>
<path fill="#FFFFFF" d="M44,6.831c0,3.773-8.507,6.831-19,6.831S6,10.603,6,6.831C6,3.058,14.507,0,25,0S44,3.058,44,6.831"/>
<path fill="#DD5900" d="M40.115,6.438c0,2.491-6.768,4.507-15.115,4.507S9.884,8.928,9.884,6.438S16.652,1.931,25,1.931
	S40.115,3.948,40.115,6.438"/>
<path fill="#FF8C00" d="M36.949,9.191c1.979-0.762,3.168-1.716,3.168-2.752c0-2.491-6.768-4.508-15.116-4.508
	S9.886,3.949,9.886,6.439c0,1.036,1.189,1.99,3.168,2.752C15.816,8.126,20.134,7.439,25,7.439
	C29.867,7.439,34.183,8.126,36.949,9.191"/>
<path fill="#FFFFFF" d="M9.947,33.582h2.403v-9.49l3.72,8.273c0.439,1.001,1.04,1.356,2.218,1.356c1.178,0,1.756-0.354,2.195-1.356
	l3.72-8.273v9.49h2.403v-9.474c0-0.924-0.37-1.371-1.132-1.602c-1.825-0.57-3.05-0.077-3.605,1.155l-3.651,8.165l-3.535-8.165
	c-0.531-1.232-1.779-1.725-3.605-1.155c-0.763,0.231-1.132,0.678-1.132,1.602V33.582L9.947,33.582z"/>
<path fill="#FFFFFF" d="M28.605,25.858h2.402v5.228c-0.022,0.284,0.091,0.951,1.407,0.971c0.672,0.011,5.184,0,5.226,0v-6.225h2.408
	c0.011,0-0.002,8.489-0.002,8.525c0.013,2.094-2.598,2.548-3.801,2.584h-7.588v-1.617c0.013,0,7.582,0.002,7.601,0
	c1.547-0.163,1.364-0.932,1.364-1.191v-0.63h-5.108c-2.376-0.022-3.89-1.059-3.908-2.252C28.605,31.14,28.658,25.91,28.605,25.858
	L28.605,25.858z"/>
</svg>
