<?xml version="1.0" encoding="utf-8"?>
<!-- Generator: Adobe Illustrator 17.1.0, SVG Export Plug-In . SVG Version: 6.00 Build 0)  -->
<!DOCTYPE svg PUBLIC "-//W3C//DTD SVG 1.1//EN" "http://www.w3.org/Graphics/SVG/1.1/DTD/svg11.dtd">
<svg version="1.1" id="Layer_1" xmlns="http://www.w3.org/2000/svg" xmlns:xlink="http://www.w3.org/1999/xlink" x="0px" y="0px"
	 viewBox="0 0 50 50" enable-background="new 0 0 50 50" xml:space="preserve">
<path fill="#3999C6" d="M-0.5,45.1c0,1.1,0.9,2,2,2h46c1.1,0,2-0.9,2-2v-32h-50V45.1z"/>
<path fill="#A0A1A2" d="M47.5,4.5h-46c-1.1,0-2,0.9-2,2v7.3h50V6.5C49.5,5.4,48.6,4.5,47.5,4.5z"/>
<rect x="-0.5" y="13.8" opacity="0.15" fill="#FFFFFF" enable-background="new    " width="50" height="3.3"/>
<path opacity="0.1" fill="#FFFFFF" enable-background="new    " d="M1.5,4.5c-1.1,0-2,0.9-2,2v7.3v3.3v28c0,1.1,0.9,2,2,2h19.2
	L43.1,4.5H1.5z"/>
<polygon fill="#FFFFFF" points="30.6,22.2 23.1,40 20.4,40 27.8,22.2 "/>
<polygon fill="#FFFFFF" points="9.8,31.1 17.7,26.9 17.7,24.2 6.5,30.1 6.5,32.2 17.7,38.1 17.7,35.4 "/>
<polygon fill="#FFFFFF" points="40.4,31.1 32.4,26.9 32.4,24.2 43.6,30.1 43.6,32.2 32.4,38.1 32.4,35.4 "/>
</svg>
