<?xml version="1.0" encoding="utf-8"?>
<!-- Generator: Adobe Illustrator 17.0.1, SVG Export Plug-In . SVG Version: 6.00 Build 0)  -->
<!DOCTYPE svg PUBLIC "-//W3C//DTD SVG 1.1//EN" "http://www.w3.org/Graphics/SVG/1.1/DTD/svg11.dtd">
<svg version="1.1" id="Layer_1" xmlns="http://www.w3.org/2000/svg" xmlns:xlink="http://www.w3.org/1999/xlink" x="0px" y="0px"
	 width="50px" height="50px" viewBox="0 0 50 50" enable-background="new 0 0 50 50" xml:space="preserve">
<rect x="0.001" y="35.998" fill="#E5E5E5" width="50" height="10.003"/>
<rect x="2.001" y="38.061" fill="#7FBA00" width="46" height="5.941"/>
<rect x="20.001" y="37.998" opacity="0.6" fill="#FFFFFF" enable-background="new    " width="28" height="6.003"/>
<rect x="18.001" y="36.002" fill="#7A7A7A" width="4" height="9.999"/>
<rect x="18.001" y="36" opacity="0.7" fill="#FFFFFF" enable-background="new    " width="2" height="10"/>
<rect x="0.001" y="19.999" fill="#E5E5E5" width="50" height="10.003"/>
<rect x="2.001" y="22.06" fill="#7FBA00" width="46" height="5.941"/>
<rect x="36.001" y="21.993" opacity="0.6" fill="#FFFFFF" enable-background="new    " width="12" height="6.003"/>
<rect x="34.001" y="20.002" fill="#7A7A7A" width="4" height="9.999"/>
<rect x="34.001" y="20" opacity="0.7" fill="#FFFFFF" enable-background="new    " width="2" height="10"/>
<rect x="0.001" y="3.999" fill="#E5E5E5" width="50" height="10.003"/>
<rect x="2.001" y="6.06" fill="#7FBA00" width="46" height="5.941"/>
<rect x="20.001" y="5.999" opacity="0.6" fill="#FFFFFF" enable-background="new    " width="28" height="6.003"/>
<rect x="18.001" y="4.002" fill="#7A7A7A" width="4" height="9.999"/>
<rect x="18.001" y="4" opacity="0.7" fill="#FFFFFF" enable-background="new    " width="2" height="10"/>
<rect x="22.001" y="36" opacity="0.2" fill="#1E1E1E" enable-background="new    " width="2" height="10"/>
<rect x="22.001" y="4.031" opacity="0.2" fill="#1E1E1E" enable-background="new    " width="2" height="10"/>
<rect x="38.001" y="19.994" opacity="0.2" fill="#1E1E1E" enable-background="new    " width="2" height="10"/>
</svg>
