<?xml version="1.0" encoding="utf-8"?>
<!-- Generator: Adobe Illustrator 17.1.0, SVG Export Plug-In . SVG Version: 6.00 Build 0)  -->
<!DOCTYPE svg PUBLIC "-//W3C//DTD SVG 1.1//EN" "http://www.w3.org/Graphics/SVG/1.1/DTD/svg11.dtd">
<svg version="1.1" id="Layer_1" xmlns="http://www.w3.org/2000/svg" xmlns:xlink="http://www.w3.org/1999/xlink" x="0px" y="0px"
	 height="50px" width="50px" viewBox="0 0 50 50" enable-background="new 0 0 50 50" xml:space="preserve">
<polygon fill="#59B4D9" points="47.4,17.5 43.5,13.6 41.8,12 41.6,12 13,12 13,50 49,50 49,19.4 49,19.2 "/>
<polygon opacity="0.8" fill="#FFFFFF" points="41,14 15,14 15,48 47,48 47,20 41,20 "/>
<path fill="#59B4D9" d="M20,39.1c0-0.5,0.4-0.9,0.9-0.9h12.4c0.5,0,0.9,0.4,0.9,0.9c0,0.5-0.4,0.9-0.9,0.9H20.9
	C20.4,40,20,39.6,20,39.1"/>
<path fill="#59B4D9" d="M20,32.9c0-0.5,0.4-0.9,0.9-0.9h20.5c0.5,0,0.9,0.4,0.9,0.9c0,0.5-0.4,0.9-0.9,0.9H20.9
	C20.4,33.8,20,33.4,20,32.9"/>
<path fill="#59B4D9" d="M20,27.1c0-0.5,0.4-0.9,0.9-0.9h20.5c0.5,0,0.9,0.4,0.9,0.9c0,0.5-0.4,0.9-0.9,0.9H20.9
	C20.4,28,20,27.6,20,27.1"/>
<rect x="3" fill="#59B4D9" width="29" height="6"/>
<rect x="1" fill="#59B4D9" width="6" height="40"/>
<polygon opacity="0.8" fill="#FFFFFF" points="5,2 3,2 3,38 7,38 7,6 30,6 30,2 "/>
<rect x="9" y="6" fill="#59B4D9" width="29" height="6"/>
<rect x="7" y="6" fill="#59B4D9" width="6" height="38"/>
<polygon opacity="0.8" fill="#FFFFFF" points="11,8 9,8 9,42 13,42 13,12 36,12 36,8 "/>
</svg>
