<?xml version="1.0" encoding="utf-8"?>
<!-- Generator: Adobe Illustrator 17.1.0, SVG Export Plug-In . SVG Version: 6.00 Build 0)  -->
<!DOCTYPE svg PUBLIC "-//W3C//DTD SVG 1.1//EN" "http://www.w3.org/Graphics/SVG/1.1/DTD/svg11.dtd">
<svg version="1.1" id="Layer_1" xmlns="http://www.w3.org/2000/svg" xmlns:xlink="http://www.w3.org/1999/xlink" x="0px" y="0px"
	 height="50px" width="50px" viewBox="0 0 50 50" enable-background="new 0 0 50 50" xml:space="preserve">
<polygon fill="#59B4D9" points="45,6.8 40.2,2 38.2,0 38,0 3,0 3,50 47,50 47,9 47,8.8 "/>
<polygon opacity="0.8" fill="#FFFFFF" points="38,2 5,2 5,48 45,48 45,9 38,9 "/>
<path fill="#59B4D9" d="M28.8,39.2c0,0.6-0.5,1.1-1.1,1.1H12.6c-0.6,0-1.1-0.5-1.1-1.1c0-0.6,0.5-1.1,1.1-1.1h15.1
	C28.3,38.1,28.8,38.6,28.8,39.2"/>
<path fill="#59B4D9" d="M38.9,24.2c0,0.6-0.5,1.1-1.1,1.1H12.6c-0.6,0-1.1-0.5-1.1-1.1c0-0.6,0.5-1.1,1.1-1.1h25.1
	C38.4,23.1,38.9,23.6,38.9,24.2"/>
<path fill="#59B4D9" d="M38.9,31.7c0,0.6-0.5,1.1-1.1,1.1H12.6c-0.6,0-1.1-0.5-1.1-1.1c0-0.6,0.5-1.1,1.1-1.1h25.1
	C38.4,30.6,38.9,31.1,38.9,31.7"/>
<path fill="#59B4D9" d="M38.9,16.7c0,0.6-0.5,1.1-1.1,1.1H12.6c-0.6,0-1.1-0.5-1.1-1.1c0-0.6,0.5-1.1,1.1-1.1h25.1
	C38.4,15.6,38.9,16.1,38.9,16.7"/>
</svg>
