<?xml version="1.0" encoding="utf-8"?>
<!-- Generator: Adobe Illustrator 17.0.1, SVG Export Plug-In . SVG Version: 6.00 Build 0)  -->
<!DOCTYPE svg PUBLIC "-//W3C//DTD SVG 1.1//EN" "http://www.w3.org/Graphics/SVG/1.1/DTD/svg11.dtd">
<svg version="1.1" id="Layer_1" xmlns="http://www.w3.org/2000/svg" xmlns:xlink="http://www.w3.org/1999/xlink" x="0px" y="0px"
	 width="50px" height="50px" viewBox="0 0 50 50" enable-background="new 0 0 50 50" xml:space="preserve">
<path fill="#FEE087" d="M48.065,11.912V7.935H21.897L15.963,2H0v43.708c0,1.31,1.06,2.371,2.37,2.372l0,0h45.258
	c1.309,0,2.371-1.062,2.371-2.372V11.912H48.065z"/>
<path fill="#DD5900" d="M26.176,27.945c-0.052,0-0.105-0.016-0.155-0.044l-10.175-5.873c-0.093-0.055-0.152-0.158-0.152-0.267
	c0-0.11,0.059-0.212,0.152-0.266l10.112-5.835c0.097-0.053,0.213-0.053,0.306,0l10.178,5.876c0.094,0.054,0.152,0.155,0.152,0.265
	c0,0.112-0.058,0.212-0.152,0.267l-10.111,5.833C26.283,27.929,26.232,27.945,26.176,27.945"/>
<path fill="#FF8C00" d="M24.714,42.221c-0.056,0-0.11-0.013-0.155-0.041l-10.144-5.855c-0.099-0.056-0.156-0.155-0.156-0.267V24.309
	c0-0.11,0.057-0.211,0.156-0.269c0.093-0.053,0.208-0.053,0.31,0l10.143,5.855c0.09,0.057,0.15,0.158,0.15,0.268v11.75
	c0,0.113-0.06,0.211-0.15,0.267C24.817,42.208,24.765,42.221,24.714,42.221"/>
<path opacity="0.5" fill="#FF8C00" enable-background="new    " d="M27.585,42.221c-0.055,0-0.107-0.013-0.157-0.041
	c-0.093-0.056-0.152-0.154-0.152-0.267V30.239c0-0.11,0.059-0.211,0.152-0.268l10.141-5.853c0.097-0.054,0.212-0.054,0.306,0
	c0.097,0.055,0.156,0.157,0.156,0.266v11.674c0,0.112-0.059,0.211-0.156,0.267l-10.14,5.855
	C27.693,42.208,27.638,42.221,27.585,42.221"/>
<path opacity="0.2" fill="#1E1E1E" enable-background="new    " d="M4.742,11.912v33.796c0,1.31-1.062,2.372-2.371,2.372
	C1.06,48.08,0,47.018,0,45.708V2h15.963l5.934,5.935h26.168v3.977H4.742z"/>
</svg>
