<?xml version="1.0" encoding="utf-8"?>
<!-- Generator: Adobe Illustrator 17.1.0, SVG Export Plug-In . SVG Version: 6.00 Build 0)  -->
<!DOCTYPE svg PUBLIC "-//W3C//DTD SVG 1.1//EN" "http://www.w3.org/Graphics/SVG/1.1/DTD/svg11.dtd">
<svg version="1.1" id="Layer_1" xmlns="http://www.w3.org/2000/svg" xmlns:xlink="http://www.w3.org/1999/xlink" x="0px" y="0px"
	 viewBox="0 0 50 50" enable-background="new 0 0 50 50" xml:space="preserve">
<path fill="#1E1E1E" d="M11.6,44.1c0,1.1-0.8,2-1.7,2H6.3c-0.9,0-1.7-0.9-1.7-2v-9.3c0-1.1,0.8-2,1.7-2h3.5c0.9,0,1.7,0.9,1.7,2
	V44.1z"/>
<path fill="#1E1E1E" d="M45.9,44.1c0,1.1-0.8,2-1.7,2h-3.5c-0.9,0-1.7-0.9-1.7-2v-9.3c0-1.1,0.8-2,1.7-2h3.5c0.9,0,1.7,0.9,1.7,2
	V44.1z"/>
<path fill="#1E1E1E" d="M46.6,35.6c0,0.4-0.3,0.7-0.6,0.7H4.8c-0.3,0-0.6-0.3-0.6-0.7l0.7-4.2c0-0.4,0.3-0.7,0.6-0.7h39.9
	c0.3,0,0.6,0.3,0.6,0.7L46.6,35.6z"/>
<path fill="#A0A1A2" d="M45.9,30.1c0,0.4-0.3,0.7-0.6,0.7H5.4c-0.3,0-0.6-0.3-0.6-0.7l2.9-4.5c0-0.4,0.3-0.7,0.6-0.7h34.1
	c0.3,0,0.6,0.3,0.6,0.7L45.9,30.1z"/>
<path fill="#A0A1A2" d="M42.6,24.5c0,0.4-0.3,0.7-0.6,0.7H8.7c-0.3,0-0.6-0.3-0.6-0.7l4.9-5c0-0.4,0.3-0.7,0.6-0.7h23.4
	c0.3,0,0.6,0.3,0.6,0.7L42.6,24.5z"/>
<path fill="#59B4D9" d="M42.2,24.3c0,0.4-0.3,0.6-0.6,0.6H9.2c-0.3,0-0.6-0.3-0.6-0.6l4.9-4.5c0-0.4,0.3-0.6,0.6-0.6h22.7
	c0.3,0,0.6,0.3,0.6,0.6L42.2,24.3z"/>
<path fill="#7A7A7A" d="M45.7,39c0,0.2-0.3,0.4-0.6,0.4H5.7c-0.3,0-0.6-0.2-0.6-0.4l-0.9-2.5c0-0.2,0.3-0.4,0.6-0.4H46
	c0.3,0,0.6,0.2,0.6,0.4L45.7,39z"/>
<path fill="#1E1E1E" d="M45.7,40c0,0.2-0.3,0.4-0.6,0.4H5.7c-0.3,0-0.6-0.2-0.6-0.4l-0.9-2.5c0-0.2,0.3-0.4,0.6-0.4H46
	c0.3,0,0.6,0.2,0.6,0.4L45.7,40z"/>
<path fill="#7A7A7A" d="M45.3,41.2c0,0.1-0.3,0.3-0.6,0.3H6.1c-0.3,0-0.6-0.1-0.6-0.3l-0.2-1.6c0-0.1,0.3-0.3,0.6-0.3h38.9
	c0.3,0,0.6,0.1,0.6,0.3L45.3,41.2z"/>
<path fill="#E5E5E5" d="M11.3,34.6c0,0.4-0.3,0.7-0.6,0.7H6.4c-0.3,0-0.6-0.3-0.6-0.7v-2.2c0-0.4,0.3-0.7,0.6-0.7h4.3
	c0.3,0,0.6,0.3,0.6,0.7V34.6z"/>
<path fill="#E5E5E5" d="M18.4,34.6c0,0.4-0.3,0.7-0.6,0.7h-4.3c-0.3,0-0.6-0.3-0.6-0.7v-2.2c0-0.4,0.3-0.7,0.6-0.7h4.3
	c0.3,0,0.6,0.3,0.6,0.7V34.6z"/>
<path fill="#E5E5E5" d="M28.2,34.1c0,0.1-0.3,0.3-0.6,0.3h-4.3c-0.3,0-0.6-0.1-0.6-0.3v-0.9c0-0.1,0.3-0.2,0.6-0.2h4.3
	c0.3,0,0.6,0.1,0.6,0.2V34.1z"/>
<path fill="#FF8C00" d="M14.1,38.4c0,0.1-0.2,0.1-0.6,0.1H9.2c-0.3,0-0.7,0-0.7-0.1v-0.7c0-0.1,0.3-0.1,0.7-0.1h4.3
	c0.3,0,0.6,0,0.6,0.1V38.4z"/>
<path fill="#FF8C00" d="M42.6,38.4c0,0.1-0.3,0.1-0.6,0.1h-4.3c-0.3,0-0.6,0-0.6-0.1v-0.7c0-0.1,0.3-0.1,0.6-0.1H42
	c0.3,0,0.6,0,0.6,0.1V38.4z"/>
<path fill="#E5E5E5" d="M38,34.6c0,0.4-0.3,0.7-0.6,0.7h-4.3c-0.3,0-0.6-0.3-0.6-0.7v-2.2c0-0.4,0.3-0.7,0.6-0.7h4.3
	c0.3,0,0.6,0.3,0.6,0.7V34.6z"/>
<path fill="#E5E5E5" d="M44.9,34.6c0,0.4-0.3,0.7-0.6,0.7H40c-0.3,0-0.6-0.3-0.6-0.7v-2.2c0-0.4,0.3-0.7,0.6-0.7h4.3
	c0.3,0,0.6,0.3,0.6,0.7V34.6z"/>
<g>
	<g>
		<path fill="#1E1E1E" d="M22,17.8l-1-4.7c-0.4-0.6-3.5-5.3-9.6-6c-6.8-0.7-10.5,3.9-10.5,4L0,10.5c0.2-0.2,4.1-5.2,11.5-4.4
			c7.1,0.8,10.4,6.3,10.5,6.6l0.1,0.2l1,4.7L22,17.8z"/>
	</g>
</g>
<path fill-rule="evenodd" clip-rule="evenodd" fill="#A0A1A2" d="M21.5,12.9c0,0-2.3-4-7.2-5.7c0.2-0.3,0.2-0.7,0.1-1.1L13.6,3
	c-0.2-0.7-0.9-1.1-1.5-0.9l-0.7,0.3c-0.6,0.2-1,1-0.8,1.7l0.4,2.5C4,6.1,1,10.2,1,10.2l1,2.8L11.8,9c0,0,2.2,0.3,4.2,1.6
	c1.8,1.1,3.5,3.1,3.5,3.1l1,3.9h2.1L21.5,12.9z"/>
<path fill-rule="evenodd" clip-rule="evenodd" fill="#1E1E1E" d="M7.5,9.4c0,0.4-3.8,2-4.1,2s-0.6-0.3-0.6-0.7c0-0.4,3.8-2,4.1-2
	C7.3,8.7,7.5,9,7.5,9.4z"/>
<g>
	<g>
		<path fill="#1E1E1E" d="M28,17.8l-1.1-0.2l1.1-4.9c0.1-0.2,3.4-5.8,10.5-6.6c7.5-0.8,11.3,4.2,11.5,4.4l-0.9,0.7
			c0,0-3.7-4.7-10.5-4c-6.1,0.7-9.2,5.4-9.6,6L28,17.8z"/>
	</g>
</g>
<path fill-rule="evenodd" clip-rule="evenodd" fill="#A0A1A2" d="M28.5,12.9c0,0,2.3-4,7.2-5.7c-0.2-0.3-0.2-0.7-0.1-1.1L36.4,3
	c0.2-0.7,0.9-1.1,1.5-0.9l0.7,0.3c0.6,0.2,1,1,0.8,1.7l-0.4,2.5C46,6.1,49,10.2,49,10.2l-1,2.8L38.2,9c0,0-2.2,0.3-4.2,1.6
	c-1.8,1.1-3.5,3.1-3.5,3.1l-1,3.9h-2.1L28.5,12.9z"/>
<path fill-rule="evenodd" clip-rule="evenodd" fill="#1E1E1E" d="M42.7,9.4c0,0.4,3.6,1.9,3.9,1.9c0.3,0,0.6-0.3,0.6-0.7
	c0-0.4-3.6-1.9-3.9-1.9C43,8.8,42.7,9.1,42.7,9.4z"/>
<path fill="#1E1E1E" d="M24.1,25.1c0,0.1-0.1,0.1-0.2,0.1L14,24.1c-0.1,0-0.1,0-0.1-0.1l0-0.1c0-0.1,0.1-0.2,0.2-0.2l9.9,1.1
	C24,24.8,24.1,24.9,24.1,25.1L24.1,25.1z"/>
<path fill="#1E1E1E" d="M35.4,25.1c0,0.1-0.1,0.1-0.2,0.1l-9.9-1.1c-0.1,0-0.1,0-0.1-0.1l0-0.1c0-0.1,0.1-0.2,0.2-0.2l9.9,1.1
	C35.4,24.8,35.5,24.9,35.4,25.1L35.4,25.1z"/>
<path fill="#A0A1A2" d="M37.6,18.8c0,0.1-0.2,0.1-0.5,0.1H13.6c-0.3,0-0.5,0-0.5-0.1l2.5-1c0-0.1,0.2-0.1,0.5-0.1h18.5
	c0.3,0,0.5,0,0.5,0.1L37.6,18.8z"/>
</svg>
