<?xml version="1.0" encoding="utf-8"?>
<!-- Generator: Adobe Illustrator 17.0.1, SVG Export Plug-In . SVG Version: 6.00 Build 0)  -->
<!DOCTYPE svg PUBLIC "-//W3C//DTD SVG 1.1//EN" "http://www.w3.org/Graphics/SVG/1.1/DTD/svg11.dtd">
<svg version="1.1" id="Layer_1" xmlns="http://www.w3.org/2000/svg" xmlns:xlink="http://www.w3.org/1999/xlink" x="0px" y="0px"
	 width="50px" height="50px" viewBox="0 0 50 50" enable-background="new 0 0 50 50" xml:space="preserve">
<path fill="#BA141A" d="M43.701,8.79c-0.8-0.872-1.755-1.513-2.807-1.95c-4.855-2.022-11.869,0.495-16.261,6.731
	C17.876,5.42,9.798,3.89,5.302,8.79c-8.986,9.784,2.267,22.64,11.143,29.938c3.498,2.877,6.627,4.891,8.003,5.514v0.064
	c0.012-0.002,0.038-0.023,0.047-0.025c0,0,0.049,0.023,0.066,0.025v-0.064C29.417,42.04,56.222,22.432,43.701,8.79"/>
<path opacity="0.2" fill="#FFFFFF" enable-background="new    " d="M24.632,13.572C17.876,5.421,9.8,3.889,5.302,8.792
	C-3.684,18.575,7.57,31.43,16.445,38.729L40.894,6.841C36.038,4.819,29.025,7.336,24.632,13.572"/>
</svg>
