<?xml version="1.0" encoding="utf-8"?>
<!-- Generator: Adobe Illustrator 17.1.0, SVG Export Plug-In . SVG Version: 6.00 Build 0)  -->
<!DOCTYPE svg PUBLIC "-//W3C//DTD SVG 1.1//EN" "http://www.w3.org/Graphics/SVG/1.1/DTD/svg11.dtd">
<svg version="1.1" id="Layer_1" xmlns="http://www.w3.org/2000/svg" xmlns:xlink="http://www.w3.org/1999/xlink" x="0px" y="0px"
	 width="50px" height="50px" viewBox="0 0 50 50" enable-background="new 0 0 50 50" xml:space="preserve">
<path fill="#59B4D9" d="M37,22h10.3c1.5,0,2.7,1.2,2.7,2.7c0,1.5-1.2,2.7-2.7,2.7H37c-1.5,0-2.7-1.2-2.7-2.7
	C34.2,23.2,35.5,22,37,22z"/>
<path fill="#59B4D9" d="M2.7,22h7.7c1.5,0,2.7,1.2,2.7,2.7c0,1.5-1.2,2.7-2.7,2.7H2.7c-1.5,0-2.7-1.2-2.7-2.7C0,23.2,1.2,22,2.7,22z
	"/>
<path fill="#0072C6" d="M23,8.5c4.4,0,8.5,1.7,11.7,4.8c6.4,6.4,6.4,16.9,0,23.3c-3.1,3.1-7.3,4.8-11.7,4.8c-4.4,0-8.5-1.7-11.7-4.8
	c-1.1-1.1-1.1-2.8,0-3.9c1.1-1.1,2.8-1.1,3.9,0C17.3,34.8,20,36,23,36s5.7-1.1,7.8-3.2c4.3-4.3,4.3-11.3,0-15.5
	C28.7,15.2,25.9,14,23,14s-5.7,1.1-7.8,3.2c-1.1,1.1-2.8,1.1-3.9,0c-1.1-1.1-1.1-2.8,0-3.9C14.4,10.2,18.6,8.5,23,8.5z"/>
<circle fill="#7FBA00" cx="22.8" cy="25" r="6"/>
</svg>
