<?xml version="1.0" encoding="utf-8"?>
<!-- Generator: Adobe Illustrator 17.1.0, SVG Export Plug-In . SVG Version: 6.00 Build 0)  -->
<!DOCTYPE svg PUBLIC "-//W3C//DTD SVG 1.1//EN" "http://www.w3.org/Graphics/SVG/1.1/DTD/svg11.dtd">
<svg version="1.1" id="Layer_1" xmlns="http://www.w3.org/2000/svg" xmlns:xlink="http://www.w3.org/1999/xlink" x="0px" y="0px"
	 height="50px" width="50px" viewBox="0 0 50 50" enable-background="new 0 0 50 50" xml:space="preserve">
<rect y="5" fill="#7A7A7A" width="50" height="39"/>
<rect x="2.2" y="7.2" fill="#59B4D9" width="45.7" height="34.8"/>
<rect x="2.2" y="7.2" fill="#59B4D9" width="45.7" height="34.8"/>
<path fill="#B8D432" d="M47.8,27.3L44.5,24c-1.3-1.3-3.4-1.3-4.8,0L21.9,42h26V27.3z"/>
<path opacity="0.25" fill="#FFFFFF" d="M47.8,27.3L44.5,24c-1.3-1.3-3.4-1.3-4.8,0L21.9,42h26V27.3z"/>
<path fill="#7FBA00" d="M43.1,42l-14-14c-1-1-2.7-1-3.7,0l-14,14H43.1z"/>
<path opacity="0.25" fill="#FFFFFF" d="M43.1,42l-14-14c-1-1-2.7-1-3.7,0l-14,14H43.1z"/>
<path opacity="0.63" fill="#FFFFFF" d="M27.6,22.3c0-1.4-1.1-2.5-2.4-2.5c-0.1,0-0.2,0-0.3,0c0.1-0.6,0.2-1.1,0.2-1.7
	c0-3.6-2.9-6.6-6.5-6.6c-2.9,0-5.3,1.9-6.2,4.5c-0.5-0.2-0.9-0.3-1.5-0.3c-2.5,0-4.4,2-4.4,4.5c0,2.5,2,4.5,4.4,4.5c0,0,0,0,0,0v0
	h14.4l0,0C26.6,24.6,27.6,23.6,27.6,22.3"/>
</svg>
