<?xml version="1.0" encoding="utf-8"?>
<!-- Generator: Adobe Illustrator 17.0.1, SVG Export Plug-In . SVG Version: 6.00 Build 0)  -->
<!DOCTYPE svg PUBLIC "-//W3C//DTD SVG 1.1//EN" "http://www.w3.org/Graphics/SVG/1.1/DTD/svg11.dtd">
<svg version="1.1" id="Layer_1" xmlns="http://www.w3.org/2000/svg" xmlns:xlink="http://www.w3.org/1999/xlink" x="0px" y="0px"
	 width="50px" height="50px" viewBox="0 0 50 50" enable-background="new 0 0 50 50" xml:space="preserve">
<path fill="#3999C6" d="M47.247,25c0,12.287-9.96,22.246-22.247,22.246S2.753,37.287,2.753,25S12.713,2.753,25,2.753
	C37.286,2.753,47.247,12.714,47.247,25"/>
<path fill="#59B4D9" d="M25,2.753C12.713,2.753,2.753,12.714,2.753,25c0,5.266,1.84,10.096,4.897,13.906L40.42,8.986
	C36.42,5.135,30.992,2.753,25,2.753"/>
<path fill="#FFFFFF" d="M28.867,19.518v16.098c0,1.434,0.166,2.35,0.499,2.749c0.333,0.398,0.985,0.626,1.956,0.684v0.782H20.35
	v-0.782c0.898-0.029,1.564-0.29,1.999-0.782c0.289-0.333,0.434-1.217,0.434-2.651V23.754c0-1.433-0.166-2.349-0.498-2.748
	c-0.334-0.398-0.979-0.627-1.935-0.684v-0.804H28.867z"/>
<path fill="#FFFFFF" d="M25.826,9.677c0.94,0,1.737,0.33,2.39,0.989c0.651,0.659,0.976,1.451,0.976,2.378s-0.329,1.717-0.987,2.369
	c-0.659,0.651-1.453,0.977-2.379,0.977c-0.928,0-1.717-0.326-2.369-0.977c-0.652-0.652-0.978-1.442-0.978-2.369
	s0.326-1.719,0.978-2.378S24.898,9.677,25.826,9.677"/>
</svg>
