<?xml version="1.0" encoding="utf-8"?>
<!-- Generator: Adobe Illustrator 17.1.0, SVG Export Plug-In . SVG Version: 6.00 Build 0)  -->
<!DOCTYPE svg PUBLIC "-//W3C//DTD SVG 1.1//EN" "http://www.w3.org/Graphics/SVG/1.1/DTD/svg11.dtd">
<svg version="1.1" id="Layer_1" xmlns="http://www.w3.org/2000/svg" xmlns:xlink="http://www.w3.org/1999/xlink" x="0px" y="0px"
	 viewBox="0 0 50 50" enable-background="new 0 0 50 50" xml:space="preserve">
<polygon fill="#7A7A7A" points="50,34.6 6.2,34.6 6.2,11.9 26.7,11.9 50,11.9 "/>
<rect x="10.3" y="15.7" opacity="0.6" fill="#E5E5E5" width="35.7" height="3.8"/>
<rect x="41.3" y="21.6" opacity="0.6" fill="#E5E5E5" width="4.5" height="3.8"/>
<rect x="16.8" y="21.6" opacity="0.6" fill="#E5E5E5" width="22.3" height="3.8"/>
<rect x="19.8" y="27.7" opacity="0.6" fill="#E5E5E5" width="16.5" height="3.8"/>
<rect x="38.7" y="27.7" opacity="0.6" fill="#E5E5E5" width="7.3" height="3.8"/>
<rect x="10.3" y="27.7" opacity="0.6" fill="#E5E5E5" width="7.3" height="3.8"/>
<rect x="10.3" y="21.6" opacity="0.6" fill="#E5E5E5" width="4.3" height="3.8"/>
<polygon opacity="0.25" fill="#FFFFFF" enable-background="new    " points="6.2,34.6 6.2,11.9 26.7,11.9 50,11.9 "/>
<g>
	<rect x="0.8" y="26.2" fill="#7FBA00" width="15.2" height="15.2"/>
	<path fill="#FFFFFF" d="M15.2,27.1v13.5H1.7V27.1H15.2 M16.8,25.4H0v16.8h16.8V25.4L16.8,25.4z"/>
</g>
<polygon fill="#FFFFFF" points="5.8,29.6 12.5,29.6 12.5,36.4 "/>
</svg>
