<?xml version="1.0" encoding="utf-8"?>
<!-- Generator: Adobe Illustrator 17.0.1, SVG Export Plug-In . SVG Version: 6.00 Build 0)  -->
<!DOCTYPE svg PUBLIC "-//W3C//DTD SVG 1.1//EN" "http://www.w3.org/Graphics/SVG/1.1/DTD/svg11.dtd">
<svg version="1.1" id="Layer_1" xmlns="http://www.w3.org/2000/svg" xmlns:xlink="http://www.w3.org/1999/xlink" x="0px" y="0px"
	 width="50px" height="50px" viewBox="0 0 50 50" enable-background="new 0 0 50 50" xml:space="preserve">
<path opacity="0.8" fill="#3E3E3E" d="M21.666,38.421c0,2.161,1.752,3.914,3.913,3.914c2.162,0,3.914-1.753,3.914-3.914
	c0-1.43-0.775-2.666-1.92-3.35c-0.662,1.107-1.106,1.822-1.193,1.96l-0.801,1.286l-0.801-1.286c-0.086-0.138-0.531-0.853-1.193-1.96
	C22.439,35.755,21.666,36.991,21.666,38.421"/>
<path opacity="0.5" fill="#3E3E3E" d="M17.668,38.421c0,4.363,3.549,7.911,7.909,7.911c4.363,0,7.912-3.548,7.912-7.911
	c0-2.896-1.569-5.426-3.895-6.804c-0.238,0.416-0.471,0.82-0.693,1.2c1.913,1.138,3.203,3.221,3.203,5.604
	c0,3.599-2.928,6.525-6.527,6.525c-3.598,0-6.524-2.926-6.524-6.525c0-2.383,1.289-4.466,3.201-5.604
	c-0.221-0.38-0.453-0.784-0.69-1.2C19.236,32.995,17.668,35.525,17.668,38.421"/>
<path opacity="0.2" fill="#3E3E3E" d="M31.381,28.417c-0.227,0.413-0.448,0.816-0.668,1.214c3.02,1.77,5.058,5.044,5.058,8.79
	c0,5.62-4.574,10.192-10.193,10.192c-5.621,0-10.192-4.572-10.192-10.192c0-3.747,2.038-7.02,5.057-8.79
	c-0.219-0.398-0.443-0.801-0.667-1.214C16.328,30.424,14,34.151,14,38.421c0,6.385,5.193,11.58,11.578,11.58
	c6.385,0,11.578-5.195,11.578-11.58C37.156,34.151,34.828,30.425,31.381,28.417"/>
<path fill="#B8D432" d="M29.492,10.553c0,2.161-1.752,3.914-3.914,3.914c-2.161,0-3.914-1.753-3.914-3.914s1.753-3.914,3.914-3.914
	C27.74,6.639,29.492,8.392,29.492,10.553 M25.579,0c-6.393,0-11.573,5.183-11.573,11.574c0,6.393,11.573,24.958,11.573,24.958
	s11.574-18.565,11.574-24.958C37.152,5.183,31.97,0,25.579,0"/>
<path opacity="0.2" fill="#FFFFFF" d="M25.579,14.466c-2.161,0-3.913-1.752-3.913-3.913c0-2.162,1.752-3.914,3.913-3.914
	c1.484,0,2.761,0.837,3.425,2.056l2.358-7.135c-1.701-0.987-3.674-1.559-5.783-1.559c-6.393,0-11.574,5.181-11.574,11.572
	c0,3.98,4.484,12.673,7.87,18.672l5.342-16.148C26.716,14.328,26.166,14.466,25.579,14.466"/>
</svg>
