<?xml version="1.0" encoding="utf-8"?>
<!-- Generator: Adobe Illustrator 17.0.1, SVG Export Plug-In . SVG Version: 6.00 Build 0)  -->
<!DOCTYPE svg PUBLIC "-//W3C//DTD SVG 1.1//EN" "http://www.w3.org/Graphics/SVG/1.1/DTD/svg11.dtd">
<svg version="1.1" id="Layer_1" xmlns="http://www.w3.org/2000/svg" xmlns:xlink="http://www.w3.org/1999/xlink" x="0px" y="0px"
	 width="50px" height="50px" viewBox="0 0 50 50" enable-background="new 0 0 50 50" xml:space="preserve">
<path fill="#FFFFFF" d="M22.83,4.37c-5.706,0.602-10.609,3.448-13.953,7.579c-3.345,4.134-5.106,9.52-4.508,15.227
	c0.604,5.703,3.449,10.604,7.581,13.949c4.134,3.346,9.52,5.109,15.222,4.509c5.705-0.601,10.606-3.451,13.955-7.581
	c3.34-4.132,5.106-9.519,4.505-15.225c-0.608-5.751-3.528-10.669-7.724-14.064c-3.531-2.859-8.032-4.51-12.856-4.51
	C24.319,4.254,23.578,4.292,22.83,4.37"/>
<path opacity="0.4" fill="#7FBA00" enable-background="new    " d="M16.456,19.472l-5.048-4.086
	c-2.158,3.088-3.137,6.688-2.991,10.232l6.454-0.679C14.871,23.049,15.392,21.151,16.456,19.472"/>
<path opacity="0.8" fill="#7FBA00" enable-background="new    " d="M30.575,16.279l4.087-5.049c-3.09-2.156-6.693-3.13-10.238-2.982
	l0.679,6.453C26.994,14.699,28.894,15.217,30.575,16.279"/>
<path opacity="0.6" fill="#7FBA00" enable-background="new    " d="M22.853,14.956l-0.68-6.46c-3.49,0.623-6.795,2.35-9.348,5.123
	l5.044,4.084C19.274,16.294,21.012,15.371,22.853,14.956"/>
<path opacity="0.25" fill="#7FBA00" enable-background="new    " d="M15.121,27.189l-6.46,0.682c0.62,3.492,2.345,6.801,5.121,9.357
	l4.083-5.044C16.455,30.775,15.534,29.034,15.121,27.189"/>
<path fill="#A0A1A2" d="M49.859,22.383C49.131,15.446,45.588,9.5,40.586,5.455c-0.971-0.786-2.018-1.472-3.1-2.1l-1.963,3.777
	c0.83,0.493,1.636,1.024,2.385,1.632c4.196,3.395,7.116,8.312,7.723,14.063c0.602,5.706-1.165,11.093-4.504,15.226
	c-3.349,4.131-8.25,6.98-13.955,7.581c-3.82,0.4-7.489-0.277-10.744-1.761l-1.961,3.774c3.976,1.851,8.479,2.708,13.151,2.214
	c6.862-0.719,12.796-4.164,16.814-9.133C48.453,35.765,50.587,29.241,49.859,22.383"/>
<path fill="#A0A1A2" d="M11.951,41.125C7.818,37.78,4.973,32.879,4.37,27.177c-0.599-5.708,1.162-11.094,4.508-15.228
	c3.343-4.13,8.246-6.977,13.951-7.578c4.613-0.484,9.016,0.574,12.694,2.76l1.963-3.776c-4.416-2.564-9.661-3.787-15.105-3.214
	C15.522,0.863,9.588,4.307,5.569,9.272L5.562,9.281c-4.018,4.965-6.144,11.484-5.423,18.338c0.723,6.859,4.164,12.796,9.135,16.815
	c1.582,1.282,3.335,2.346,5.194,3.212l1.961-3.774C14.826,43.142,13.315,42.229,11.951,41.125"/>
<path opacity="0.2" fill="#FFFFFF" enable-background="new    " d="M11.951,41.125C7.818,37.78,4.973,32.879,4.37,27.177
	c-0.599-5.708,1.162-11.094,4.508-15.228c3.343-4.13,8.246-6.977,13.951-7.578c4.613-0.484,9.016,0.574,12.694,2.76l1.963-3.776
	c-4.416-2.564-9.661-3.787-15.105-3.214C15.522,0.863,9.588,4.307,5.569,9.272L5.562,9.281c-4.018,4.965-6.144,11.484-5.423,18.338
	c0.723,6.859,4.164,12.796,9.135,16.815c1.582,1.282,3.335,2.346,5.194,3.212l1.961-3.774
	C14.826,43.142,13.315,42.229,11.951,41.125"/>
<path fill="#7FBA00" d="M36.43,12.647l-4.084,5.045c1.008,1.002,1.759,2.178,2.264,3.437h6.775
	C40.643,17.958,38.977,14.985,36.43,12.647z"/>
<path fill="#DD5900" d="M23.082,27.041c-1.147-1.136-1.154-2.986-0.018-4.131c0.573-0.578,1.327-0.866,2.079-0.866
	c0.743,0,1.487,0.248,2.057,0.813c0.007,0.007,0.01-0.008,0.019,0h7.601h6.685l0.621-0.005l0.004,0.005
	c1.173,0,2.125,0.943,2.133,2.113c0.003,1.178-0.944,2.133-2.121,2.137H27.057c-0.55,0.481-1.235,0.779-1.923,0.779
	C24.394,27.886,23.652,27.606,23.082,27.041"/>
<path fill="#FF8C00" d="M42.13,22.875l-0.004-0.005l-0.621,0.005H34.82h-7.601c-0.009-0.008-0.012,0.007-0.019,0
	c-0.57-0.565-1.314-0.813-2.057-0.813c-0.752,0-1.506,0.288-2.079,0.866c-0.564,0.569-0.845,1.312-0.846,2.055h22.044
	C44.251,23.815,43.301,22.875,42.13,22.875z"/>
</svg>
