<?xml version="1.0" encoding="utf-8"?>
<!-- Generator: Adobe Illustrator 17.0.1, SVG Export Plug-In . SVG Version: 6.00 Build 0)  -->
<!DOCTYPE svg PUBLIC "-//W3C//DTD SVG 1.1//EN" "http://www.w3.org/Graphics/SVG/1.1/DTD/svg11.dtd">
<svg version="1.1" id="Layer_1" xmlns="http://www.w3.org/2000/svg" xmlns:xlink="http://www.w3.org/1999/xlink" x="0px" y="0px"
	 width="50px" height="50px" viewBox="0 0 50 50" enable-background="new 0 0 50 50" xml:space="preserve">
<path fill="#3999C6" d="M0,44.627c0,1.108,0.898,2.007,2.007,2.007h45.986c1.109,0,2.007-0.899,2.007-2.007V12.634H0V44.627z"/>
<path fill="#A0A1A2" d="M47.993,4H2.007C0.898,4,0,4.898,0,6.007v7.291h50V6.007C50,4.898,49.101,4,47.993,4z"/>
<rect y="13.298" opacity="0.15" fill="#FFFFFF" width="50" height="3.336"/>
<path opacity="0.1" fill="#FFFFFF" d="M2.014,4C0.906,4,0.007,4.898,0.007,6.007v7.291v3.336v27.993
	c0,1.108,0.899,2.007,2.007,2.007h19.188L43.62,4H2.014z"/>
<polygon fill="#FFFFFF" points="7.363,37.334 7.363,36.062 16.343,31.637 16.343,31.584 7.363,26.563 7.363,25.317 18.397,31.505 
	18.397,31.743 "/>
<rect x="17.621" y="41.785" fill="#FFFFFF" width="11.262" height="1.576"/>
</svg>
