<?xml version="1.0" encoding="utf-8"?>
<!-- Generator: Adobe Illustrator 17.0.1, SVG Export Plug-In . SVG Version: 6.00 Build 0)  -->
<!DOCTYPE svg PUBLIC "-//W3C//DTD SVG 1.1//EN" "http://www.w3.org/Graphics/SVG/1.1/DTD/svg11.dtd">
<svg version="1.1" id="Layer_1" xmlns="http://www.w3.org/2000/svg" xmlns:xlink="http://www.w3.org/1999/xlink" x="0px" y="0px"
	 width="50px" height="50px" viewBox="0 0 50 50" enable-background="new 0 0 50 50" xml:space="preserve">
<path fill="#3999C6" d="M6.139,6.831v36.338C6.139,46.941,14.584,50,25,50V6.831H6.139z"/>
<path fill="#59B4D9" d="M24.742,49.999H25c10.416,0,18.861-3.057,18.861-6.831V6.831H24.742V49.999z"/>
<path fill="#FFFFFF" d="M43.861,6.831c0,3.773-8.445,6.831-18.861,6.831S6.139,10.603,6.139,6.831C6.139,3.058,14.584,0,25,0
	S43.861,3.058,43.861,6.831"/>
<path fill="#7FBA00" d="M40.005,6.438c0,2.491-6.718,4.507-15.005,4.507S9.994,8.928,9.994,6.438c0-2.49,6.719-4.507,15.006-4.507
	S40.005,3.948,40.005,6.438"/>
<path fill="#B8D432" d="M36.861,9.191c1.964-0.762,3.145-1.716,3.145-2.752c0-2.491-6.718-4.508-15.006-4.508
	c-8.287,0-15.005,2.018-15.005,4.508c0,1.036,1.18,1.99,3.145,2.752C15.883,8.126,20.17,7.439,25,7.439
	C29.831,7.439,34.116,8.126,36.861,9.191"/>
<polygon fill="#FFFFFF" points="14.435,29.376 14.435,29.376 17.325,26.483 17.325,26.483 17.325,26.483 23.112,32.271 
	34.689,20.694 34.689,20.694 34.689,20.694 37.579,23.589 37.579,23.589 37.579,23.589 23.112,38.06 "/>
</svg>
