<?xml version="1.0" encoding="utf-8"?>
<!-- Generator: Adobe Illustrator 17.1.0, SVG Export Plug-In . SVG Version: 6.00 Build 0)  -->
<!DOCTYPE svg PUBLIC "-//W3C//DTD SVG 1.1//EN" "http://www.w3.org/Graphics/SVG/1.1/DTD/svg11.dtd">
<svg version="1.1" id="Layer_1" xmlns="http://www.w3.org/2000/svg" xmlns:xlink="http://www.w3.org/1999/xlink" x="0px" y="0px"
	 height="50px" width="50px" viewBox="0 0 50 50" enable-background="new 0 0 50 50" xml:space="preserve">
<rect x="15.9" y="0" fill="#FCD116" width="3.9" height="4.3"/>
<rect x="24.4" y="0" fill="#FCD116" width="3.9" height="4.3"/>
<rect x="33" y="0" fill="#FCD116" width="3.9" height="4.3"/>
<rect x="41.5" y="0" fill="#FCD116" width="3.9" height="4.3"/>
<rect x="33" y="18" fill="#FCD116" width="3.9" height="4.3"/>
<rect x="41.5" y="18" fill="#FCD116" width="3.9" height="4.3"/>
<rect x="3.6" y="26.5" fill="#FCD116" width="3.9" height="4.3"/>
<rect x="12.1" y="26.5" fill="#FCD116" width="3.9" height="4.3"/>
<rect x="3.6" y="44.5" fill="#FCD116" width="3.9" height="4.3"/>
<rect x="12.1" y="44.5" fill="#FCD116" width="3.9" height="4.3"/>
<rect x="20.6" y="44.5" fill="#FCD116" width="3.9" height="4.3"/>
<rect x="29.1" y="44.5" fill="#FCD116" width="3.9" height="4.3"/>
<g>
	<g>
		<polygon fill="#7FBA00" points="16.4,14.3 17.2,13.4 22.4,8.2 24.4,6.2 26.5,8.2 31.7,13.4 32.5,14.3 32.5,15.5 32.5,18 50,18 
			50,4.3 12.4,4.3 12.4,18 16.4,18 16.4,15.5 		"/>
		<polygon fill="#7FBA00" points="32.5,33.9 31.7,34.8 26.5,39.9 24.4,42 22.4,39.9 17.2,34.8 16.4,33.9 16.4,32.7 16.4,30.8 
			0,30.8 0,44.5 37.6,44.5 37.6,30.8 32.5,30.8 32.5,32.7 		"/>
	</g>
</g>
<polygon fill="#0072C6" points="19.3,15.5 19.3,20.6 22.7,17.2 22.7,31 19.3,27.5 19.3,32.7 24.4,37.9 29.6,32.7 29.6,27.5 26.2,31 
	26.2,17.2 29.6,20.6 29.6,15.5 24.4,10.3 "/>
</svg>
