<?xml version="1.0" encoding="utf-8"?>
<!-- Generator: Adobe Illustrator 17.0.1, SVG Export Plug-In . SVG Version: 6.00 Build 0)  -->
<!DOCTYPE svg PUBLIC "-//W3C//DTD SVG 1.1//EN" "http://www.w3.org/Graphics/SVG/1.1/DTD/svg11.dtd">
<svg version="1.1" id="Layer_1" xmlns="http://www.w3.org/2000/svg" xmlns:xlink="http://www.w3.org/1999/xlink" x="0px" y="0px"
	 width="50px" height="50px" viewBox="0 0 50 50" enable-background="new 0 0 50 50" xml:space="preserve">
<rect x="16.261" y="1" fill="#B8D432" width="9.802" height="9.695"/>
<rect x="27.702" y="1" fill="#B8D432" width="9.831" height="9.695"/>
<rect x="39.199" y="1" fill="#B8D432" width="9.801" height="9.695"/>
<rect x="39.199" y="12.469" fill="#B8D432" width="9.801" height="9.695"/>
<rect x="39.199" y="23.938" fill="#B8D432" width="9.801" height="9.831"/>
<path fill="#3E3E3E" d="M4.121,48.367c-0.961,0-1.865-0.373-2.546-1.048c-0.686-0.679-1.068-1.587-1.072-2.553
	c-0.005-0.968,0.367-1.877,1.048-2.564l8.747-8.83c-1.479-2.758-1.888-5.921-1.145-8.952c1.399-5.652,6.431-9.599,12.236-9.599
	c1.01,0,2.026,0.124,3.022,0.368c3.269,0.805,6.029,2.836,7.771,5.718c1.742,2.882,2.258,6.272,1.45,9.541
	c-1.389,5.646-6.421,9.589-12.235,9.589c-1.017,0-2.031-0.124-3.018-0.367c-1.032-0.254-2.033-0.643-2.984-1.16l-8.701,8.784
	C6.007,47.987,5.094,48.367,4.121,48.367 M21.389,19.598c-3.604,0-6.728,2.452-7.598,5.965c-0.525,2.141-0.105,4.429,1.151,6.27
	c0.545,0.802,1.223,1.488,2.017,2.037c0.793,0.547,1.655,0.94,2.563,1.163c0.612,0.152,1.244,0.227,1.875,0.227
	c3.609,0,6.734-2.448,7.597-5.956c0.502-2.028,0.182-4.133-0.901-5.926c-1.081-1.79-2.795-3.051-4.823-3.551
	C22.651,19.674,22.018,19.598,21.389,19.598"/>
<path fill="#B8D432" d="M24.792,14.08c0.432,0.106,0.854,0.234,1.271,0.379v-1.991h-9.802v2.284c1.631-0.686,3.412-1.068,5.27-1.068
	C22.623,13.684,23.72,13.816,24.792,14.08"/>
<path fill="#B8D432" d="M33.175,20.249c0.372,0.617,0.679,1.26,0.946,1.915h3.41v-9.696h-9.83v2.704
	C29.946,16.309,31.84,18.041,33.175,20.249"/>
<path fill="#B8D432" d="M34.741,30.541c-0.282,1.146-0.704,2.227-1.243,3.227h4.034v-9.831h-2.807
	C35.271,26.079,35.286,28.335,34.741,30.541"/>
<path fill="#B8D432" d="M28.208,27.414c0,3.703-3.003,6.704-6.705,6.704c-3.703,0-6.705-3.001-6.705-6.704
	c0-3.703,3.002-6.704,6.705-6.704C25.204,20.71,28.208,23.711,28.208,27.414"/>
</svg>
