<?xml version="1.0" encoding="utf-8"?>
<!-- Generator: Adobe Illustrator 17.0.1, SVG Export Plug-In . SVG Version: 6.00 Build 0)  -->
<!DOCTYPE svg PUBLIC "-//W3C//DTD SVG 1.1//EN" "http://www.w3.org/Graphics/SVG/1.1/DTD/svg11.dtd">
<svg version="1.1" id="Layer_1" xmlns="http://www.w3.org/2000/svg" xmlns:xlink="http://www.w3.org/1999/xlink" x="0px" y="0px"
	 width="50px" height="50px" viewBox="-0.5 0.5 50 50" enable-background="new -0.5 0.5 50 50" xml:space="preserve">
<path fill="#0072C6" d="M-0.5,7.288v36.111c0,3.749,8.392,6.789,18.743,6.789v-42.9C18.243,7.288-0.5,7.288-0.5,7.288z"/>
<path fill="#0072C6" d="M17.986,50.187h0.257c10.351,0,18.743-3.038,18.743-6.788V7.288h-19V50.187z"/>
<path opacity="0.15" fill="#FFFFFF" d="M17.986,50.187h0.257c10.351,0,18.743-3.038,18.743-6.788V7.288h-19V50.187z"/>
<path fill="#FFFFFF" d="M36.986,7.288c0,3.749-8.392,6.788-18.743,6.788S-0.5,11.037-0.5,7.288S7.892,0.5,18.243,0.5
	S36.986,3.539,36.986,7.288"/>
<path fill="#7FBA00" d="M33.154,6.897c0,2.475-6.676,4.479-14.911,4.479S3.331,9.372,3.331,6.897c0-2.474,6.677-4.479,14.912-4.479
	S33.154,4.423,33.154,6.897"/>
<path fill="#B8D432" d="M30.03,9.634c1.952-0.757,3.125-1.705,3.125-2.735c0-2.475-6.676-4.48-14.912-4.48
	c-8.235,0-14.911,2.005-14.911,4.48c0,1.03,1.173,1.978,3.125,2.735c2.726-1.058,6.986-1.741,11.786-1.741
	C23.044,7.893,27.302,8.576,30.03,9.634"/>
<path fill="#FFFFFF" d="M12.29,31.354c0,1.122-0.407,1.991-1.221,2.607c-0.814,0.616-1.938,0.924-3.373,0.924
	c-1.221,0-2.241-0.22-3.061-0.66v-2.64c0.946,0.803,1.988,1.205,3.126,1.205c0.55,0,0.975-0.11,1.275-0.33s0.45-0.511,0.45-0.875
	c0-0.357-0.144-0.668-0.433-0.932s-0.876-0.605-1.761-1.023c-1.804-0.846-2.706-2.002-2.706-3.464c0-1.061,0.393-1.912,1.18-2.553
	c0.786-0.64,1.831-0.961,3.134-0.961c1.155,0,2.111,0.152,2.871,0.454v2.466c-0.797-0.55-1.705-0.825-2.722-0.825
	c-0.511,0-0.915,0.108-1.212,0.325c-0.297,0.218-0.445,0.508-0.445,0.87c0,0.374,0.119,0.681,0.359,0.92
	c0.239,0.239,0.73,0.535,1.472,0.887c1.106,0.523,1.893,1.053,2.364,1.592C12.055,29.881,12.29,30.552,12.29,31.354z"/>
<path fill="#FFFFFF" d="M25.017,28.682c0,1.391-0.317,2.599-0.949,3.621c-0.633,1.023-1.523,1.74-2.672,2.153l3.431,3.176h-3.464
	l-2.45-2.747c-1.05-0.038-1.998-0.316-2.842-0.833c-0.844-0.516-1.496-1.225-1.955-2.124s-0.689-1.902-0.689-3.007
	c0-1.226,0.249-2.319,0.746-3.279c0.498-0.96,1.197-1.698,2.099-2.215c0.902-0.516,1.935-0.775,3.102-0.775
	c1.088,0,2.063,0.25,2.924,0.751c0.86,0.5,1.528,1.212,2.004,2.136C24.779,26.463,25.017,27.511,25.017,28.682z M22.213,28.831
	c0-1.199-0.261-2.146-0.784-2.842s-1.237-1.044-2.145-1.044c-0.924,0-1.663,0.349-2.219,1.047c-0.555,0.699-0.833,1.628-0.833,2.788
	c0,1.155,0.272,2.077,0.816,2.767c0.545,0.69,1.267,1.035,2.169,1.035c0.919,0,1.647-0.334,2.186-1.002
	C21.943,30.913,22.213,29.996,22.213,28.831z"/>
<polygon fill="#FFFFFF" points="34.016,34.679 26.972,34.679 26.972,22.851 29.636,22.851 29.636,32.518 34.016,32.518 "/>
<path fill="#A0A1A2" d="M34.755,49.584l2.123,0.916l0.224-0.265l1.7-1.999l1.719,0.01l1.973,2.254l2.135-0.887l-0.023-0.347
	l-0.185-2.643l1.225-1.234l2.957,0.168L49.5,43.39l-0.258-0.229l-1.96-1.738l0.012-1.756l2.205-2.016l-0.866-2.179l-0.342,0.025
	l-2.588,0.186l-1.206-1.249l0.164-3.02L42.537,30.5l-0.224,0.265l-1.702,2l-1.72-0.011l-1.975-2.251l-2.134,0.884l0.026,0.35
	l0.181,2.64l-1.224,1.234l-2.955-0.168l-0.896,2.167l0.259,0.229l1.959,1.736l-0.012,1.756l-2.207,2.016l0.867,2.179l0.343-0.025
	l2.587-0.186l1.208,1.251L34.755,49.584z M35.363,38.628c1.012-2.452,3.778-3.6,6.177-2.565c2.402,1.036,3.525,3.858,2.513,6.308
	c-1.013,2.451-3.78,3.598-6.179,2.565C35.474,43.902,34.35,41.079,35.363,38.628"/>
</svg>
