<?xml version="1.0" encoding="utf-8"?>
<!-- Generator: Adobe Illustrator 17.1.0, SVG Export Plug-In . SVG Version: 6.00 Build 0)  -->
<!DOCTYPE svg PUBLIC "-//W3C//DTD SVG 1.1//EN" "http://www.w3.org/Graphics/SVG/1.1/DTD/svg11.dtd">
<svg version="1.1" id="Layer_1" xmlns="http://www.w3.org/2000/svg" xmlns:xlink="http://www.w3.org/1999/xlink" x="0px" y="0px"
	 height="50px" width="50px" viewBox="0 0 50 50" enable-background="new 0 0 50 50" xml:space="preserve">
<path fill="#A0A1A2" d="M50,41.1v-8.3H0v8.3h0.1c-0.3,1.3,0.9,2.6,2.7,2.6h44.6C49.1,43.7,50.3,42.4,50,41.1L50,41.1z"/>
<path fill="#A0A1A2" d="M49.9,32.5c0.3,1.3-0.9,2.6-2.7,2.6H2.7c-1.8,0-3-1.3-2.7-2.6L6.9,4.8C7,4.2,8.2,3.5,9.4,3.5h31.1
	c1.3,0,2.4,0.6,2.6,1.3L49.9,32.5z"/>
<path opacity="0.4" fill="#FFFFFF" d="M49.9,32.5L43.1,4.8c-0.2-0.7-1.3-1.3-2.6-1.3H9.4C8.2,3.5,7,4.2,6.9,4.8L0.1,32.5
	c-0.3,1.3,0.9,2.6,2.7,2.6h44.6C49.1,35.1,50.3,33.8,49.9,32.5z M43.3,31.8H6.7c-1.5,0-2.4-1-2.2-2.1l5.6-22c0.1-0.5,1.1-1,2.1-1
	h25.5c1,0,2,0.5,2.1,1l5.6,22C45.7,30.8,44.8,31.8,43.3,31.8z"/>
<polygon opacity="0.75" fill="#1E1E1E" points="38.1,38.3 38.1,39.9 34,39.9 34,38.3 32.6,38.3 32.6,39.9 28.5,39.9 28.5,38.3 
	27,38.3 27,39.9 23,39.9 23,38.3 21.5,38.3 21.5,39.9 17.4,39.9 17.4,38.3 16,38.3 16,39.9 11.9,39.9 11.9,38.3 10.4,38.3 
	10.4,39.9 10.4,41 11.9,41 16,41 17.4,41 21.5,41 23,41 27,41 28.5,41 32.6,41 34,41 38.1,41 38.4,41 39.6,41 39.6,38.3 "/>
<path fill="#FCD116" d="M30.5,17.2l-3.5,0l-0.7,0c-0.2,0-0.3-0.2-0.2-0.4l3.4-6l0.2-0.4h-7.2l-3.2,10.2c-0.1,0.2,0,0.4,0.3,0.4h3.3
	c0.1,0,0.2,0,0.2,0.1c0.1,0.1,0.1,0.2,0,0.3l-3.4,8.3c-0.1,0.2,0,0.3,0.1,0.1l10.8-12.3C30.8,17.3,30.8,17.2,30.5,17.2z"/>
<path opacity="0.3" fill="#FF8C00" d="M30.5,17.2l-2.2,0l-8.1,12.1l10.4-11.8C30.8,17.3,30.8,17.2,30.5,17.2z"/>
<path opacity="0.3" fill="#FF8C00" d="M29.5,10.8l0.2-0.4h-2.1l-3.3,6.8h2c-0.2,0-0.2-0.2-0.1-0.4L29.5,10.8z"/>
</svg>
