<?xml version="1.0" encoding="utf-8"?>
<!-- Generator: Adobe Illustrator 17.0.1, SVG Export Plug-In . SVG Version: 6.00 Build 0)  -->
<!DOCTYPE svg PUBLIC "-//W3C//DTD SVG 1.1//EN" "http://www.w3.org/Graphics/SVG/1.1/DTD/svg11.dtd">
<svg version="1.1" id="Layer_1" xmlns="http://www.w3.org/2000/svg" xmlns:xlink="http://www.w3.org/1999/xlink" x="0px" y="0px"
	 width="50px" height="50px" viewBox="0 0 50 50" enable-background="new 0 0 50 50" xml:space="preserve">
<path fill="#7FBA00" d="M38.185,5.96L38.185,5.96C27.169,4.745,25.326,0,25.326,0S22.847,6.242,7,6.242v25.611
	c0,3.097,1.721,5.997,4.104,8.532l0,0c5.402,5.748,14.223,9.616,14.223,9.616s18.327-8.029,18.327-18.149V6.242
	C41.616,6.242,39.803,6.139,38.185,5.96z"/>
<path opacity="0.4" fill="#B8D432" d="M29.86,16.543L38.185,5.96C27.169,4.745,25.326,0,25.326,0S22.847,6.242,7,6.242v25.611
	c0,3.097,1.721,5.997,4.104,8.532l6.154-7.822L29.86,16.543z"/>
<path fill="#FFFFFF" d="M32.595,24.46h-1.066v-3.552c0-1.709-0.629-3.276-1.669-4.45l0,0c-0.039-0.043-0.074-0.09-0.112-0.133
	c-1.107-1.186-2.683-1.948-4.422-1.947c-1.736-0.001-3.312,0.761-4.419,1.947c-1.11,1.187-1.783,2.811-1.783,4.582v3.553h-1.065
	c-0.443,0-0.801,0.359-0.801,0.801v7.217l0,0.001v2.174c0,0.442,0.359,0.801,0.801,0.801h14.536c0.442,0,0.801-0.359,0.801-0.801
	v-9.391C33.396,24.818,33.037,24.46,32.595,24.46z M28.584,24.461h-5.02l0.001-0.001H22.07v-3.552c0-1.022,0.386-1.927,0.988-2.57
	c0.605-0.643,1.395-1.013,2.268-1.013c0.874,0,1.665,0.37,2.27,1.013c0.143,0.153,0.271,0.323,0.389,0.504l-0.001,0.001
	c0.373,0.579,0.6,1.288,0.6,2.064V24.461z"/>
</svg>
