<?xml version="1.0" encoding="utf-8"?>
<!-- Generator: Adobe Illustrator 17.0.1, SVG Export Plug-In . SVG Version: 6.00 Build 0)  -->
<!DOCTYPE svg PUBLIC "-//W3C//DTD SVG 1.1//EN" "http://www.w3.org/Graphics/SVG/1.1/DTD/svg11.dtd">
<svg version="1.1" id="Layer_1" xmlns="http://www.w3.org/2000/svg" xmlns:xlink="http://www.w3.org/1999/xlink" x="0px" y="0px"
	 width="50px" height="50px" viewBox="0 0 50 50" enable-background="new 0 0 50 50" xml:space="preserve">
<polygon fill="#3999C6" points="46.334,44.864 46.332,44.863 45.222,12.364 42.699,12.364 42.699,12.364 39.667,12.364 
	39.667,12.364 4.111,12.364 3,47.105 39.667,50 39.667,50 42.699,47.664 "/>
<polygon opacity="0.3" fill="#FFFFFF" points="42.699,12.364 39.667,12.364 39.667,50 42.699,44.345 "/>
<polygon opacity="0.2" fill="#1E1E1E" points="42.722,44.302 42.699,44.345 39.667,50 42.699,47.664 46.334,44.864 "/>
<path fill="#FFFFFF" d="M33.037,34.209c0-1.552-1.246-2.81-2.785-2.81c-0.116,0-0.23,0.009-0.34,0.024
	c0.17-0.631,0.264-1.295,0.264-1.981c0-4.137-3.326-7.491-7.428-7.491c-3.277,0-6.056,2.14-7.043,5.111
	c-0.52-0.183-1.076-0.286-1.658-0.286c-2.806,0-5.077,2.293-5.077,5.121c0,2.83,2.271,5.123,5.077,5.123
	c0,0,0.005-0.002,0.007-0.002v0.002h16.424l-0.003-0.014C31.908,36.893,33.037,35.686,33.037,34.209"/>
<path fill="#A0A1A2" d="M23.406,6.76c0-2.451,2.144-4.446,4.779-4.446c2.635,0,4.777,1.995,4.777,4.446v5.604h2.296V6.76
	c0-3.728-3.173-6.76-7.073-6.76c-3.901,0-7.073,3.032-7.073,6.76v5.604h2.294V6.76z"/>
<path fill="#7A7A7A" d="M16.369,6.76c0-2.451,2.144-4.446,4.779-4.446c2.635,0,4.779,1.995,4.779,4.446v5.604h2.294V6.76
	c0-3.728-3.173-6.76-7.073-6.76c-3.9,0-7.073,3.032-7.073,6.76v5.604h2.294V6.76z"/>
</svg>
