<?xml version="1.0" encoding="utf-8"?>
<!-- Generator: Adobe Illustrator 17.0.1, SVG Export Plug-In . SVG Version: 6.00 Build 0)  -->
<!DOCTYPE svg PUBLIC "-//W3C//DTD SVG 1.1//EN" "http://www.w3.org/Graphics/SVG/1.1/DTD/svg11.dtd">
<svg version="1.1" id="Layer_1" xmlns="http://www.w3.org/2000/svg" xmlns:xlink="http://www.w3.org/1999/xlink" x="0px" y="0px"
	 width="50px" height="50px" viewBox="0 0 50 50" enable-background="new 0 0 50 50" xml:space="preserve">
<path fill="#59B4D9" d="M34.256,14.928c0,5.006-4.059,9.065-9.066,9.065c-5.007,0-9.065-4.059-9.065-9.065
	c0-5.006,4.058-9.065,9.065-9.065C30.197,5.863,34.256,9.922,34.256,14.928"/>
<polygon fill="#59B4D9" points="31.818,27.1 25.19,36.387 18.562,27.1 9.001,27.1 9.001,50 41.38,50 41.38,27.1 "/>
<path opacity="0.2" fill="#FFFFFF" d="M16.126,14.928c0,4.931,3.939,8.935,8.843,9.054l2.277-17.875
	c-0.661-0.154-1.346-0.243-2.055-0.243C20.183,5.863,16.126,9.922,16.126,14.928"/>
<polygon opacity="0.2" fill="#FFFFFF" points="18.564,27.1 9,27.1 9,50 21.696,50 23.698,34.297 "/>
<path fill="#3E3E3E" d="M39.966,24.14h-6.881v-3.33h3.552v-5.827c0-6.426-5.228-11.654-11.654-11.654S13.329,8.557,13.329,14.983
	v1.665h-3.33v-1.665C9.999,6.722,16.721,0,24.982,0s14.983,6.722,14.983,14.983V24.14z"/>
<path opacity="0.2" fill="#FFFFFF" d="M24.982,0C16.721,0,9.999,6.722,9.999,14.983v1.665h3.33v-1.665
	c0-6.426,5.228-11.654,11.654-11.654c0.964,0,1.896,0.131,2.793,0.352l0.416-3.327C27.156,0.128,26.085,0,24.982,0z"/>
</svg>
