<?xml version="1.0" encoding="utf-8"?>
<!-- Generator: Adobe Illustrator 17.1.0, SVG Export Plug-In . SVG Version: 6.00 Build 0)  -->
<!DOCTYPE svg PUBLIC "-//W3C//DTD SVG 1.1//EN" "http://www.w3.org/Graphics/SVG/1.1/DTD/svg11.dtd">
<svg version="1.1" id="Layer_1" xmlns="http://www.w3.org/2000/svg" xmlns:xlink="http://www.w3.org/1999/xlink" x="0px" y="0px"
	 height="50px" width="50px" viewBox="0 0 50 50" enable-background="new 0 0 50 50" xml:space="preserve">
<path fill="#804998" d="M42.3,0.3L28.6,0.8L0,29.4l20.3,20.3l28.6-28.6L50,8L42.3,0.3z M43.4,10.9c-1.1,1.1-2.9,1.1-4,0
	c-1.1-1.1-1.1-2.9,0-4c1.1-1.1,2.9-1.1,4,0C44.5,8,44.5,9.8,43.4,10.9z"/>
<polygon opacity="0.1" fill="#FFFFFF" points="0,29.4 20.3,49.7 24.9,45.2 24.9,4.5 "/>
<path opacity="0.3" fill="#1E1E1E" d="M45.1,5.2c-2-2-5.3-2-7.3,0c-2,2-2,5.3,0,7.3c2,2,5.3,2,7.3,0C47.1,10.5,47.1,7.2,45.1,5.2z
	 M43.4,10.9c-1.1,1.1-2.9,1.1-4,0c-1.1-1.1-1.1-2.9,0-4c1.1-1.1,2.9-1.1,4,0C44.5,8,44.5,9.8,43.4,10.9z"/>
</svg>
