<?xml version="1.0" encoding="utf-8"?>
<!-- Generator: Adobe Illustrator 17.1.0, SVG Export Plug-In . SVG Version: 6.00 Build 0)  -->
<!DOCTYPE svg PUBLIC "-//W3C//DTD SVG 1.1//EN" "http://www.w3.org/Graphics/SVG/1.1/DTD/svg11.dtd">
<svg version="1.1" id="Layer_1" xmlns="http://www.w3.org/2000/svg" xmlns:xlink="http://www.w3.org/1999/xlink" x="0px" y="0px"
	 height="50px" width="50px" viewBox="0 0 50 50" enable-background="new 0 0 50 50" xml:space="preserve">
<path fill="#7A7A7A" d="M32.4,38.4h-1.2H19.4h-0.6c1.6,5.8-0.6,6.6-10.2,6.6v3h12.2h8.9h11.5v-3C31.7,45,30.8,44.2,32.4,38.4"/>
<path fill="#A0A1A2" d="M47,0.7H2.7C1.2,0.7,0,2.1,0,3.6v32c0,1.5,1.2,2.8,2.7,2.8H47c1.5,0,3-1.3,3-2.8v-32C50,2.1,48.5,0.7,47,0.7
	 M46.2,4.6v29.9H3.8V4.6l42.4-0.1L46.2,4.6z"/>
<polygon fill="#59B4D9" points="46.2,34.5 3.8,34.5 3.8,4.6 46.2,4.5 "/>
<path opacity="0.2" fill="#FFFFFF" d="M3.8,34.5L3.8,34.5L3.8,4.6l38.7-0.1L47,0.7c0,0,0,0,0,0H2.7C1.2,0.7,0,2.1,0,3.6v32
	c0,1.5,1.2,2.8,2.7,2.8h1.1l4.6-3.8H3.8z"/>
<polygon fill="#59B4D9" points="3.8,34.5 3.8,34.5 3.8,4.6 42.5,4.5 42.5,4.5 3.8,4.6 "/>
<rect x="8.7" y="45" fill="#A0A1A2" width="32.7" height="3"/>
<path fill="#FFFFFF" d="M8.6,13.3l-0.5-0.5c-0.1-0.1-0.1-0.3,0-0.5l1.4-1.2C9.5,11,9.6,11,9.7,11c0.1,0,0.2,0,0.2,0.1l3.7,4l6.4-8.1
	c0.1-0.1,0.2-0.1,0.3-0.1c0.1,0,0.1,0,0.2,0.1L22,8c0.1,0.1,0.1,0.1,0.1,0.2c0,0.1,0,0.2-0.1,0.2l-8.3,10.5L8.6,13.3z"/>
<rect x="22" y="13.3" opacity="0.6" fill="#FFFFFF" width="20" height="3.3"/>
<path fill="#FFFFFF" d="M8.6,26.4l-0.5-0.5c-0.1-0.1-0.1-0.3,0-0.5l1.4-1.2c0.1-0.1,0.1-0.1,0.2-0.1c0.1,0,0.2,0,0.2,0.1l3.7,4
	l6.4-8.1c0.1-0.1,0.2-0.1,0.3-0.1c0.1,0,0.1,0,0.2,0.1l1.5,1.1c0.1,0.1,0.1,0.1,0.1,0.2c0,0.1,0,0.2-0.1,0.2L13.8,32L8.6,26.4z"/>
<rect x="22" y="26.4" opacity="0.6" fill="#FFFFFF" width="20" height="3.3"/>
</svg>
