<?xml version="1.0" encoding="utf-8"?>
<!-- Generator: Adobe Illustrator 17.1.0, SVG Export Plug-In . SVG Version: 6.00 Build 0)  -->
<!DOCTYPE svg PUBLIC "-//W3C//DTD SVG 1.1//EN" "http://www.w3.org/Graphics/SVG/1.1/DTD/svg11.dtd">
<svg version="1.1" id="Layer_1" xmlns="http://www.w3.org/2000/svg" xmlns:xlink="http://www.w3.org/1999/xlink" x="0px" y="0px"
	 width="50px" height="50px" viewBox="0 0 50 50" enable-background="new 0 0 50 50" xml:space="preserve">
<path fill="#BA141A" d="M2,45.6V17.8c0-1.6,1.3-2.9,2.9-2.9h39.1c1.6,0,2.9,1.3,2.9,2.9v27.8H2z"/>
<path fill="#804998" d="M44.3,31.6c-2.9,0-5.2,2.3-5.2,5.2c0,2.9,2.3,5.2,5.2,5.2c1,0,1.9-0.3,2.7-0.8v-8.8
	C46.2,31.9,45.3,31.6,44.3,31.6z"/>
<path fill="#0F0F0F" d="M37.1,14.9h-3.4V10c0-0.9-0.7-1.6-1.6-1.6H16.9c-0.9,0-1.6,0.7-1.6,1.6v4.9h-3.4V10c0-2.8,2.2-5,5-5h15.2
	c2.8,0,5,2.2,5,5L37.1,14.9z"/>
<polygon opacity="0.6" fill="#FEE087" enable-background="new    " points="19.1,35.8 2,31.7 2,38.3 17.6,42.1 "/>
<path opacity="0.8" fill="#FF8C00" enable-background="new    " d="M16.8,19.3c0.3,1.7-2.4,3.4-6,4c-3.6,0.6-6.7-0.3-7-2
	c-0.3-1.7,2.4-3.4,6-4C13.5,16.8,16.6,17.7,16.8,19.3"/>
<path opacity="0.2" fill="#FFFFFF" enable-background="new    " d="M44.3,33.3c-2,0-3.5,1.6-3.5,3.5s1.6,3.5,3.5,3.5
	c1.1,0,2.1-0.5,2.7-1.3v-4.4C46.4,33.8,45.4,33.3,44.3,33.3z"/>
<rect x="2" y="27.1" opacity="0.3" fill="#1E1E1E" enable-background="new    " width="45" height="2.1"/>
<path opacity="0.3" fill="#1E1E1E" enable-background="new    " d="M28.2,26c0.7,0,1.3,0.6,1.3,1.3v4c0,0.7-0.6,1.3-1.3,1.3h-7.4
	c-0.7,0-1.3-0.6-1.3-1.3v-4c0-0.7,0.6-1.3,1.3-1.3L28.2,26z"/>
<rect x="2" y="26" fill="#E5E5E5" width="45" height="2.1"/>
</svg>
