<?xml version="1.0" encoding="utf-8"?>
<!-- Generator: Adobe Illustrator 17.0.1, SVG Export Plug-In . SVG Version: 6.00 Build 0)  -->
<!DOCTYPE svg PUBLIC "-//W3C//DTD SVG 1.1//EN" "http://www.w3.org/Graphics/SVG/1.1/DTD/svg11.dtd">
<svg version="1.1" id="Layer_1" xmlns="http://www.w3.org/2000/svg" xmlns:xlink="http://www.w3.org/1999/xlink" x="0px" y="0px"
	 width="50px" height="50px" viewBox="0 0 50 50" enable-background="new 0 0 50 50" xml:space="preserve">
<polygon fill="#804998" points="50,35.5 50,14.588 35.368,0 14.662,0 0,15.029 0,35.426 14.632,50 35.368,50 "/>
<path opacity="0.8" fill="#FFFFFF" enable-background="new    " d="M34.538,2h-19.05L2,15.827v18.765L15.462,48h19.077L48,34.66
	V15.421L34.538,2z M33.403,45.24h-0.152l-11.28-11.446l2.382-2.662h-8.177v8.382l2.677-2.882l8.868,8.608H16.602L4.76,33.446V16.95
	l3.322-3.406l8.829,7.955l-5.029,5.221h16.059V10.765L22.691,16l-8.885-8.323l2.846-2.917h16.745L45.24,16.567v14.745l-5.622-5.298
	l4.118-3.706H32.353v10.75l3.72-3.691l6.368,6.915L33.403,45.24z"/>
<polygon opacity="0.2" fill="#FFFFFF" enable-background="new    " points="42.896,7.506 35.368,0 14.662,0 0,15.029 0,35.427 
	7.503,42.899 "/>
<circle fill="#7FBA00" cx="8" cy="42" r="8"/>
<path fill="#FFFFFF" d="M3.989,42.469L3.7,42.156c-0.075-0.083-0.075-0.214,0.012-0.293l0.835-0.772
	c0.04-0.036,0.087-0.055,0.139-0.055c0.059,0,0.111,0.024,0.15,0.067l2.296,2.462l3.951-5.06c0.04-0.051,0.099-0.079,0.162-0.079
	c0.048,0,0.091,0.016,0.127,0.044l0.903,0.697c0.044,0.032,0.071,0.079,0.079,0.135c0.004,0.055-0.008,0.111-0.044,0.15
	l-5.075,6.497L3.989,42.469z"/>
</svg>
