<?xml version="1.0" encoding="utf-8"?>
<!-- Generator: Adobe Illustrator 17.0.1, SVG Export Plug-In . SVG Version: 6.00 Build 0)  -->
<!DOCTYPE svg PUBLIC "-//W3C//DTD SVG 1.1//EN" "http://www.w3.org/Graphics/SVG/1.1/DTD/svg11.dtd">
<svg version="1.1" id="Layer_1" xmlns="http://www.w3.org/2000/svg" xmlns:xlink="http://www.w3.org/1999/xlink" x="0px" y="0px"
	 width="50px" height="50px" viewBox="0 0 50 50" enable-background="new 0 0 50 50" xml:space="preserve">
<path fill="#59B4D9" d="M0,33.847c0,0.853,0.691,1.545,1.545,1.545h35.41c0.854,0,1.545-0.692,1.545-1.545V9.724H0V33.847z"/>
<path fill="#A0A1A2" d="M36.955,2.564H1.545C0.691,2.564,0,3.255,0,4.109v5.873h38.501V4.109
	C38.501,3.255,37.808,2.564,36.955,2.564"/>
<path opacity="0.2" fill="#FFFFFF" d="M1.551,2.564c-0.853,0-1.545,0.691-1.545,1.545v5.614v2.569v21.555
	c0,0.853,0.692,1.545,1.545,1.545h1.685L33.588,2.564H1.551z"/>
<path fill="#0072C6" d="M11.499,45.52c0,0.853,0.691,1.545,1.545,1.545h35.41c0.854,0,1.545-0.692,1.545-1.545V21.396H11.499V45.52z
	"/>
<path fill="#3E3E3E" d="M48.455,14.237h-35.41c-0.854,0-1.545,0.691-1.545,1.545v5.873H50v-5.873
	C50,14.928,49.308,14.237,48.455,14.237"/>
<path opacity="0.2" fill="#FFFFFF" d="M13.05,14.237c-0.853,0-1.545,0.691-1.545,1.545v5.614v2.569V45.52
	c0,0.853,0.692,1.545,1.545,1.545h1.685l30.352-32.829H13.05z"/>
</svg>
