<?xml version="1.0" encoding="utf-8"?>
<!-- Generator: Adobe Illustrator 18.1.1, SVG Export Plug-In . SVG Version: 6.00 Build 0)  -->
<svg version="1.1" xmlns="http://www.w3.org/2000/svg" xmlns:xlink="http://www.w3.org/1999/xlink" x="0px" y="0px" width="128px"
	 height="128px" viewBox="0 0 128 128" style="enable-background:new 0 0 128 128;" xml:space="preserve">
<g id="BASE">
	<linearGradient id="SVGID_1_" gradientUnits="userSpaceOnUse" x1="63.9997" y1="7.0336" x2="63.9997" y2="120.7894">
		<stop  offset="0" style="stop-color:#4387FD"/>
		<stop  offset="1" style="stop-color:#4683EA"/>
	</linearGradient>
	<path style="fill:url(#SVGID_1_);" d="M27.7906,115.2166L1.54,69.7493c-2.0541-3.5578-2.0541-7.9412,0-11.499l26.2506-45.4672
		c2.0541-3.5578,5.8503-5.7495,9.9585-5.7495h52.5012c4.1082,0,7.9044,2.1917,9.9585,5.7495l26.2506,45.4672
		c2.0541,3.5578,2.0541,7.9412,0,11.499l-26.2506,45.4672c-2.0541,3.5578-5.8503,5.7495-9.9585,5.7495H37.7491
		C33.6409,120.9661,29.8448,118.7744,27.7906,115.2166z"/>
</g>
<g id="shadow">
	<g>
		<defs>
			<path id="SVGID_5_" d="M27.7908,115.2166L1.5403,69.7493c-2.0541-3.5578-2.0541-7.9412,0-11.499l26.2505-45.4672
				c2.0541-3.5578,5.8502-5.7495,9.9585-5.7495h52.501c4.1082,0,7.9044,2.1917,9.9585,5.7495l26.2505,45.4672
				c2.0541,3.5578,2.0541,7.9412,0,11.499l-26.2505,45.4672c-2.0541,3.5578-5.8502,5.7495-9.9585,5.7495h-52.501
				C33.641,120.9661,29.8449,118.7744,27.7908,115.2166z"/>
		</defs>
		<clipPath id="SVGID_2_">
			<use xlink:href="#SVGID_5_"  style="overflow:visible;"/>
		</clipPath>
		<polygon style="opacity:0.07;clip-path:url(#SVGID_2_);" points="119.156,85.5937 96.7185,63.1561 84.4997,69.4374 
			79.0306,63.9682 57.5711,63.3685 47.5711,53.3685 35.1247,63.9999 43.5761,77.2013 88.3956,122.0207 97.5622,121.2811 		"/>
	</g>
</g>
<g id="art">
	<g>
		<polygon style="fill:#FFFFFF;" points="79.0415,63.9866 76.183,61.127 51.8234,61.127 48.9626,63.9866 51.8234,66.8474 
			51.8234,66.8426 76.183,66.8426 76.183,66.8474 		"/>
		<path style="fill:#FFFFFF;" d="M47.5789,73.0981l-9.1006-9.1007l9.0929-9.0935c0.4222-0.4198,0.4222-1.1131,0-1.5354
			l-2.5142-2.5142c-0.4228-0.4216-1.1149-0.4216-1.5366,0l-12.3759,12.379c-0.4229,0.4209-0.4229,1.1131,0,1.5354l2.5124,2.513
			c0.0036,0.0036,0.0084,0.0048,0.0119,0.0084l9.8588,9.8576c0.4234,0.4234,1.1149,0.4222,1.5389,0l2.5124-2.513
			C48.0006,74.2124,48.0006,73.5204,47.5789,73.0981"/>
		<path style="fill:#FFFFFF;" d="M80.4215,54.9039l9.0995,9.1013l-9.0935,9.0929c-0.4204,0.4204-0.4217,1.1132,0,1.5366
			l2.5159,2.513c0.4229,0.4234,1.1144,0.4234,1.5378,0l12.3741-12.3766c0.4223-0.4222,0.4223-1.1137,0-1.5366l-2.5117-2.5124
			c-0.0048-0.0036-0.0096-0.0048-0.0133-0.0084l-9.8575-9.8582c-0.4246-0.4228-1.1151-0.4228-1.5378,0l-2.5136,2.513
			C80,53.7908,80,54.4828,80.4215,54.9039"/>
	</g>
</g>
<g id="Guides">
</g>
</svg>
