<svg id="BASE" xmlns="http://www.w3.org/2000/svg" xmlns:xlink="http://www.w3.org/1999/xlink" width="128" height="128" viewBox="0 0 128 128">
  <defs>
    <linearGradient id="linear-gradient" x1="63.95" y1="-307" x2="63.95" y2="-420.76" gradientTransform="matrix(1, 0, 0, -1, 0, -300)" gradientUnits="userSpaceOnUse">
      <stop offset="0" stop-color="#4387fd"/>
      <stop offset="1" stop-color="#4683ea"/>
    </linearGradient>
  </defs>
  <title>Artboard 1</title>
  <path d="M27.8,115.2,1.5,69.8a11.28,11.28,0,0,1,0-11.5L27.7,12.8A11.35,11.35,0,0,1,37.7,7H90.2a11.59,11.59,0,0,1,10,5.8l26.2,45.5a11.28,11.28,0,0,1,0,11.5l-26.2,45.5a11.59,11.59,0,0,1-10,5.8H37.8A12,12,0,0,1,27.8,115.2Z" style="fill: url(#linear-gradient)"/>
  <path d="M87.4,40.6,75.8,43.4l-8-8L61.2,48.8l-8-8L40.6,53.5,51.1,64,48,68.2,61.4,81.6l-.3,7.6L47,75.1,40.5,87.9l33.2,33.2H90.2a11.59,11.59,0,0,0,10-5.8l22.6-39.2Z" style="opacity: 0.07000000029802322;isolation: isolate"/>
  <g>
    <polygon id="Fill-7" points="40.5 53.3 47 53.3 47 47.2 53.1 47.2 53.1 40.7 40.5 40.7 40.5 53.3" style="fill: #fff"/>
    <polygon id="Fill-8" points="60.2 59.9 79.6 59.9 60.2 92.8 60.2 59.9" style="fill: #fff"/>
    <polygon id="Fill-9" points="67.7 68.2 48 68.2 67.7 35.3 67.7 68.2" style="fill: #fff"/>
    <polygon id="Fill-10" points="87.4 40.7 74.8 40.7 74.8 47.2 80.9 47.2 80.9 53.3 87.4 53.3 87.4 40.7" style="fill: #fff"/>
    <polygon id="Fill-11" points="40.5 87.7 53.1 87.7 53.1 81.1 47 81.1 47 75.1 40.5 75.1 40.5 87.7" style="fill: #fff"/>
    <polygon id="Fill-12" points="87.4 75.1 80.9 75.1 80.9 81.1 74.8 81.1 74.8 87.7 87.4 87.7 87.4 75.1" style="fill: #fff"/>
  </g>
</svg>
