<svg xmlns="http://www.w3.org/2000/svg" xmlns:xlink="http://www.w3.org/1999/xlink" width="128" height="128" viewBox="0 0 128 128"><defs><linearGradient id="a" x1="64" y1="7" x2="64" y2="120.7558" gradientUnits="userSpaceOnUse"><stop offset="0" stop-color="#4387fd"/><stop offset="1" stop-color="#4683ea"/></linearGradient><clipPath id="b"><path d="M27.7911,115.2167L1.5406,69.75a11.499,11.499,0,0,1,0-11.499l26.25-45.4672a11.499,11.499,0,0,1,9.9585-5.75H90.25a11.499,11.499,0,0,1,9.9585,5.75l26.25,45.4672a11.499,11.499,0,0,1,0,11.499l-26.25,45.4672a11.499,11.499,0,0,1-9.9585,5.75H37.75A11.499,11.499,0,0,1,27.7911,115.2167Z" fill="none"/></clipPath></defs><title>stackdriver</title><path d="M27.7911,115.183L1.5406,69.7158a11.499,11.499,0,0,1,0-11.499L27.7911,12.75A11.499,11.499,0,0,1,37.75,7H90.25a11.499,11.499,0,0,1,9.9585,5.75l26.25,45.4672a11.499,11.499,0,0,1,0,11.499l-26.25,45.4672a11.499,11.499,0,0,1-9.9585,5.75H37.75A11.499,11.499,0,0,1,27.7911,115.183Z" fill="url(#a)"/><g clip-path="url(#b)"><polygon points="80.147 39.913 128.193 88.16 95.049 133.53 47.852 90.906 34.814 66.7 40.045 67.458 34.003 61.322 50.5 41.75 75.53 37.239 79.688 41.396 80.147 39.913" opacity="0.07"/></g><polygon points="94 64 80.147 39.913 66.294 64 80.147 88.087 94 64" fill="#dae7fc"/><polygon points="34 66.001 47.803 90 75.481 90 61.678 66.001 34 66.001" fill="#b6cff8"/><polygon points="61.5 62 75.525 38 47.846 38 34 62 61.5 62" fill="#fff"/></svg>