<?xml version="1.0" encoding="utf-8"?>
<!-- Generator: Adobe Illustrator 18.1.1, SVG Export Plug-In . SVG Version: 6.00 Build 0)  -->
<svg version="1.1" xmlns="http://www.w3.org/2000/svg" xmlns:xlink="http://www.w3.org/1999/xlink" x="0px" y="0px" width="128px"
	 height="128px" viewBox="0 0 128 128" style="enable-background:new 0 0 128 128;" xml:space="preserve">
<g id="BASE">
	<linearGradient id="SVGID_1_" gradientUnits="userSpaceOnUse" x1="63.9997" y1="7.0336" x2="63.9997" y2="120.7894">
		<stop  offset="0" style="stop-color:#4387FD"/>
		<stop  offset="1" style="stop-color:#4683EA"/>
	</linearGradient>
	<path style="fill:url(#SVGID_1_);" d="M27.7906,115.2166L1.54,69.7493c-2.0541-3.5578-2.0541-7.9412,0-11.499l26.2506-45.4672
		c2.0541-3.5578,5.8503-5.7495,9.9585-5.7495h52.5012c4.1082,0,7.9044,2.1917,9.9585,5.7495l26.2506,45.4672
		c2.0541,3.5578,2.0541,7.9412,0,11.499l-26.2506,45.4672c-2.0541,3.5578-5.8503,5.7495-9.9585,5.7495H37.7491
		C33.6409,120.9661,29.8448,118.7744,27.7906,115.2166z"/>
</g>
<g id="shadow">
	<g>
		<defs>
			<path id="SVGID_5_" d="M27.7911,115.2166L1.5406,69.7493c-2.0541-3.5578-2.0541-7.9412,0-11.499l26.2505-45.4672
				c2.0541-3.5578,5.8502-5.7495,9.9585-5.7495h52.501c4.1082,0,7.9044,2.1917,9.9585,5.7495l26.2505,45.4672
				c2.0541,3.5578,2.0541,7.9412,0,11.499l-26.2505,45.4672c-2.0541,3.5578-5.8502,5.7495-9.9585,5.7495h-52.501
				C33.6413,120.9661,29.8452,118.7744,27.7911,115.2166z"/>
		</defs>
		<clipPath id="SVGID_2_">
			<use xlink:href="#SVGID_5_"  style="overflow:visible;"/>
		</clipPath>
		<polygon style="opacity:0.07;clip-path:url(#SVGID_2_);" points="118.9375,83.9999 85.488,50.5503 49.3125,53.8749 
			42.3021,60.8645 48.2604,66.8228 42.362,77.2994 86.9974,121.9348 97.8125,121.9374 		"/>
	</g>
</g>
<g id="art">
	<g>
		<path style="fill:#FFFFFF;" d="M84.6999,50.2691l-41.436,0.0012c-0.6672,0-1.2129,0.5457-1.2129,1.2129l0.0012,8.5663
			c0,0.6658,0.5457,1.2117,1.2117,1.2117h41.4349c0.6671,0,1.2128-0.5458,1.2128-1.2117V51.482
			C85.9115,50.816,85.3669,50.2691,84.6999,50.2691 M78.2839,58.2442c-1.3669,0-2.4754-1.114-2.4779-2.4797
			c0.0025-1.3718,1.1073-2.4772,2.4779-2.4772c1.3694,0,2.4791,1.1031,2.4791,2.4772
			C80.763,57.1327,79.6533,58.2442,78.2839,58.2442"/>
		<path style="fill:#FFFFFF;" d="M84.6999,66.7361l-41.436,0.0012c-0.6672,0-1.2129,0.5463-1.2129,1.2146l0.0012,8.5646
			c0,0.6658,0.5457,1.2129,1.2117,1.2129h41.4349c0.6671,0,1.2128-0.5471,1.2128-1.2129v-8.5665
			C85.9115,67.2837,85.3669,66.7361,84.6999,66.7361 M78.2839,74.7113c-1.3669,0-2.4754-1.1134-2.4779-2.4797
			c0.0025-1.3717,1.1073-2.4766,2.4779-2.4766c1.3694,0,2.4791,1.1042,2.4791,2.4766
			C80.763,73.6014,79.6533,74.7113,78.2839,74.7113"/>
	</g>
</g>
<g id="Guides">
</g>
</svg>
