<?xml version="1.0" encoding="utf-8"?>
<!-- Generator: Adobe Illustrator 19.1.0, SVG Export Plug-In . SVG Version: 6.00 Build 0)  -->
<svg version="1.1" xmlns="http://www.w3.org/2000/svg" xmlns:xlink="http://www.w3.org/1999/xlink" x="0px" y="0px" width="128px"
	 height="128px" viewBox="0 0 128 128" style="enable-background:new 0 0 128 128;" xml:space="preserve">
<style type="text/css">
	.st0{fill:url(#SVGID_1_);}
	.st1{fill:url(#SVGID_2_);}
	.st2{opacity:0.07;clip-path:url(#SVGID_4_);}
	.st3{opacity:0.07;clip-path:url(#SVGID_6_);}
	.st4{fill:#FFFFFF;}
	.st5{fill:#242424;}
</style>
<g id="BASE">
	<linearGradient id="SVGID_1_" gradientUnits="userSpaceOnUse" x1="63.9997" y1="7.0336" x2="63.9997" y2="120.7894">
		<stop  offset="0" style="stop-color:#4387FD"/>
		<stop  offset="1" style="stop-color:#4683EA"/>
	</linearGradient>
	<path class="st0" d="M27.7906,115.2166L1.54,69.7493c-2.0541-3.5578-2.0541-7.9412,0-11.499l26.2506-45.4672
		c2.0541-3.5578,5.8503-5.7495,9.9585-5.7495h52.5012c4.1082,0,7.9044,2.1917,9.9585,5.7495l26.2506,45.4672
		c2.0541,3.5578,2.0541,7.9412,0,11.499l-26.2506,45.4672c-2.0541,3.5578-5.8503,5.7495-9.9585,5.7495H37.7491
		C33.6409,120.9661,29.8448,118.7744,27.7906,115.2166z"/>
</g>
<g id="shadow">
	<g>
		<defs>
			<path id="SVGID_5_" d="M27.7911,115.2166L1.5406,69.7493c-2.0541-3.5578-2.0541-7.9412,0-11.499l26.2505-45.4672
				c2.0541-3.5578,5.8502-5.7495,9.9585-5.7495h52.501c4.1082,0,7.9044,2.1917,9.9585,5.7495l26.2505,45.4672
				c2.0541,3.5578,2.0541,7.9412,0,11.499l-26.2505,45.4672c-2.0541,3.5578-5.8502,5.7495-9.9585,5.7495h-52.501
				C33.6413,120.9661,29.8452,118.7744,27.7911,115.2166z"/>
		</defs>
		<clipPath id="SVGID_2_">
			<use xlink:href="#SVGID_5_"  style="overflow:visible;"/>
		</clipPath>
		<polygon style="opacity:0.07;clip-path:url(#SVGID_2_);" points="120.1666,82.0832 83.9583,45.8749 64.6667,39.2499 
			44.2083,54.7082 57,67.4999 44.1667,68.7499 56.1458,80.7291 44.0195,82.2486 84.5417,122.7707 97.5625,121.2811 		"/>
	</g>
</g>
<g id="art">
	<g>
		<path class="st4" d="M64,34.2303L44.0003,45.7771v8.9299L64,66.2539L83.9997,54.707v-8.9299L64,34.2303z M75.9461,50.1103
			l-0.0084-0.0049L64,56.9977l-11.9378-6.8923l-0.0084,0.0049v-0.0097l0.0084,0.0048L64,43.2132l11.9377,6.8922l0.0084-0.0048
			V50.1103z"/>
		<polygon class="st4" points="44,59.7521 44,68.6821 64,80.2288 84,68.6821 84,59.7521 64,71.299 		"/>
		<polygon class="st4" points="44,73.2928 44,82.2227 64,93.7695 84,82.2227 84,73.2928 64,84.8397 		"/>
	</g>
</g>
<g id="Guides">
</g>
</svg>
