<svg xmlns="http://www.w3.org/2000/svg" xmlns:xlink="http://www.w3.org/1999/xlink" width="128" height="128" viewBox="0 0 128 128"><defs><linearGradient id="a" x1="63.9997" y1="7.0336" x2="63.9997" y2="120.7894" gradientUnits="userSpaceOnUse"><stop offset="0" stop-color="#4387fd"/><stop offset="1" stop-color="#4683ea"/></linearGradient><clipPath id="b"><path d="M27.7911,115.2166L1.5406,69.7494a11.499,11.499,0,0,1,0-11.499l26.25-45.4672a11.499,11.499,0,0,1,9.9585-5.75H90.25a11.499,11.499,0,0,1,9.9584,5.75L126.4594,58.25a11.499,11.499,0,0,1,0,11.499l-26.2505,45.4672a11.499,11.499,0,0,1-9.9584,5.75H37.75A11.499,11.499,0,0,1,27.7911,115.2166Z" fill="none"/></clipPath></defs><title>Block-Storage</title><path d="M27.7906,115.2166L1.54,69.7493a11.4989,11.4989,0,0,1,0-11.499L27.7906,12.7831a11.4992,11.4992,0,0,1,9.9585-5.7495H90.25a11.4991,11.4991,0,0,1,9.9585,5.7495L126.4594,58.25a11.499,11.499,0,0,1,0,11.499l-26.2506,45.4673a11.4991,11.4991,0,0,1-9.9585,5.7495H37.7491A11.4992,11.4992,0,0,1,27.7906,115.2166Z" fill="url(#a)"/><g clip-path="url(#b)"><polygon points="124 81 83 40 51 44 45 60 50 65 45 74 50 79 45 88 80 123 98 123 124 81" opacity="0.07"/></g><polygon points="74 68 74 79 45 79 45 88 83 88 83 68 74 68" fill="#fff"/><polygon points="54 60 54 49 83 49 83 40 45 40 45 60 54 60" fill="#fff"/><polygon points="59 54 59 65 45 65 45 74 69 74 69 63 83 63 83 54 59 54" fill="#fff"/></svg>