<?xml version="1.0" encoding="utf-8"?>
<!-- Generator: Adobe Illustrator 17.0.1, SVG Export Plug-In . SVG Version: 6.00 Build 0)  -->
<!DOCTYPE svg PUBLIC "-//W3C//DTD SVG 1.1//EN" "http://www.w3.org/Graphics/SVG/1.1/DTD/svg11.dtd">
<svg version="1.1" id="Layer_1" xmlns="http://www.w3.org/2000/svg" xmlns:xlink="http://www.w3.org/1999/xlink" x="0px" y="0px"
	 width="50px" height="50px" viewBox="0 0 50 50" enable-background="new 0 0 50 50" xml:space="preserve">
<path fill="#59B4D9" d="M42.959,15.338c0,4.947-4.011,8.959-8.96,8.959c-4.948,0-8.958-4.011-8.958-8.959
	c0-4.947,4.01-8.958,8.958-8.958C38.948,6.38,42.959,10.391,42.959,15.338"/>
<polygon fill="#59B4D9" points="40.55,27.368 34,36.546 27.449,27.368 18,27.368 18,50 50,50 50,27.368 "/>
<polygon fill="#59B4D9" points="8.211,23.289 8.211,18.5 4.789,18.5 4.789,23.289 0,23.289 0,26.711 4.789,26.711 4.789,31.5 
	8.211,31.5 8.211,31.411 8.211,26.711 12.911,26.711 13,26.711 13,23.289 "/>
</svg>
