<?xml version="1.0" encoding="utf-8"?>
<!-- Generator: Adobe Illustrator 17.0.1, SVG Export Plug-In . SVG Version: 6.00 Build 0)  -->
<!DOCTYPE svg PUBLIC "-//W3C//DTD SVG 1.1//EN" "http://www.w3.org/Graphics/SVG/1.1/DTD/svg11.dtd">
<svg version="1.1" id="Layer_1" xmlns="http://www.w3.org/2000/svg" xmlns:xlink="http://www.w3.org/1999/xlink" x="0px" y="0px"
	 width="50px" height="50px" viewBox="0 0 50 50" enable-background="new 0 0 50 50" xml:space="preserve">
<path fill="#59B4D9" d="M36.194,30.337c2.303,0,4.003,0.407,5.126,0.801c0.562,0.197,0.969,0.393,1.236,0.534l0.256,0.148v-3.206
	c-1.418-0.555-3.619-1.156-6.619-1.156c-2.991,0-5.15,0.597-6.545,1.154v3.214C29.831,31.713,31.966,30.337,36.194,30.337z"/>
<path fill="#59B4D9" d="M36.194,24.101c2.303,0,4.003,0.421,5.126,0.815c0.562,0.197,0.969,0.379,1.236,0.52l0.256,0.148v-3.206
	c-1.418-0.555-3.619-1.156-6.619-1.156c-2.991,0-5.15,0.602-6.545,1.159v3.223C29.747,25.548,31.882,24.115,36.194,24.101z"/>
<path fill="#59B4D9" d="M29.649,19.382c0.098-0.07,2.233-1.503,6.545-1.503c2.303,0,4.003,0.407,5.126,0.801
	c0.562,0.197,0.969,0.393,1.236,0.52l0.256,0.162v-3.205C41.394,15.601,39.194,15,36.194,15c-2.991,0-5.15,0.597-6.545,1.154v3.214
	V19.382z"/>
<path fill="#59B4D9" d="M13.806,30.337c-2.303,0-4.003,0.407-5.126,0.801c-0.562,0.197-0.969,0.393-1.236,0.534L7.188,31.82v-3.206
	c1.418-0.555,3.619-1.156,6.619-1.156c2.991,0,5.15,0.597,6.545,1.154v3.214C20.169,31.713,18.034,30.337,13.806,30.337z"/>
<path fill="#59B4D9" d="M13.806,24.101c-2.303,0-4.003,0.421-5.126,0.815c-0.562,0.197-0.969,0.379-1.236,0.52l-0.256,0.148v-3.206
	c1.418-0.555,3.619-1.156,6.619-1.156c2.991,0,5.15,0.602,6.545,1.159v3.223C20.253,25.548,18.118,24.115,13.806,24.101z"/>
<path fill="#59B4D9" d="M20.351,19.382c-0.098-0.07-2.233-1.503-6.545-1.503c-2.303,0-4.003,0.407-5.126,0.801
	c-0.562,0.197-0.969,0.393-1.236,0.52l-0.256,0.162v-3.205C8.606,15.601,10.806,15,13.806,15c2.991,0,5.15,0.597,6.545,1.154v3.214
	V19.382z"/>
<path fill="#59B4D9" d="M49.761,13.834c-0.07-0.098-1.32-1.98-3.483-3.905c-2.163-1.924-5.506-3.918-9.902-3.918
	c-4.41-0.014-7.711,2.008-9.832,3.932c-0.598,0.546-1.113,1.088-1.545,1.589c-0.431-0.502-0.947-1.043-1.545-1.589
	c-2.121-1.924-5.421-3.947-9.832-3.932c-4.396,0-7.739,1.994-9.902,3.918s-3.413,3.806-3.483,3.905L0,14.747V43.09l3.399,0.899
	h0.169v-0.014l0.014-0.028l0.112-0.169c0.112-0.155,0.267-0.393,0.492-0.674c0.435-0.576,1.095-1.362,1.952-2.121
	c1.756-1.545,4.228-3.006,7.486-3.006c3.16,0,5.534,1.362,7.219,2.837c0.71,0.626,0.979,1.286,1.067,1.844H25h3.09
	c0.089-0.558,0.357-1.218,1.067-1.844c1.685-1.475,4.059-2.837,7.219-2.837c3.258,0,5.73,1.461,7.486,3.006
	c0.857,0.758,1.517,1.545,1.952,2.121c0.225,0.281,0.379,0.52,0.492,0.674l0.112,0.169l0.014,0.028v0.014h0.169L50,43.09V14.747
	L49.761,13.834z M23.75,38.118c-2.121-1.868-5.421-3.778-9.691-3.764c-4.354,0-8.146,1.952-10.309,3.848V15.267l0.379-0.52
	c0.435-0.562,1.152-1.348,2.008-2.107c1.756-1.545,4.228-3.006,7.486-3.006c3.16,0,6.011,1.362,7.697,2.837
	c1.236,1.081,2.065,2.219,2.43,2.781V38.118z M46.25,38.202c-2.163-1.896-5.955-3.848-10.309-3.848
	c-4.27-0.014-7.57,1.896-9.691,3.764V15.253c0.365-0.562,1.194-1.699,2.43-2.781c1.685-1.475,4.536-2.837,7.697-2.837
	c3.258,0,5.73,1.461,7.486,3.006c0.857,0.758,1.573,1.545,2.008,2.107l0.379,0.52C46.25,15.268,46.25,38.202,46.25,38.202z"/>
</svg>
