<?xml version="1.0" encoding="utf-8"?>
<!-- Generator: Adobe Illustrator 17.1.0, SVG Export Plug-In . SVG Version: 6.00 Build 0)  -->
<!DOCTYPE svg PUBLIC "-//W3C//DTD SVG 1.1//EN" "http://www.w3.org/Graphics/SVG/1.1/DTD/svg11.dtd">
<svg version="1.1" id="Layer_1" xmlns="http://www.w3.org/2000/svg" xmlns:xlink="http://www.w3.org/1999/xlink" x="0px" y="0px"
	 width="50px" height="50px" viewBox="0 0 50 50" enable-background="new 0 0 50 50" xml:space="preserve">
<g id="XMLID_238_" opacity="0.8">
	<g>
		<g>
			<path fill="#3A3A3A" d="M7.3,17.7l5.8,5.8l-5.8,5.8L5.2,27l2-2H0V0h25v12.5h-3.1V3.1H3.1v18.8h4l-2-2L7.3,17.7z M34.4,25
				c0,1.3-0.2,2.5-0.7,3.7c-0.5,1.1-1.2,2.1-2,3c-0.9,0.9-1.9,1.5-3,2s-2.4,0.7-3.6,0.7c-1.3,0-2.5-0.2-3.6-0.7
				c-1.1-0.5-2.1-1.2-3-2c-0.9-0.9-1.5-1.8-2-3c-0.5-1.1-0.7-2.3-0.7-3.7c0-1.3,0.2-2.5,0.7-3.6c0.5-1.1,1.2-2.1,2-3
				c0.9-0.9,1.8-1.5,3-2c1.1-0.5,2.3-0.7,3.6-0.7c1.3,0,2.5,0.2,3.6,0.7s2.1,1.2,3,2c0.9,0.9,1.5,1.9,2,3
				C34.1,22.5,34.4,23.7,34.4,25z M18.8,25c0,0.9,0.2,1.7,0.5,2.4c0.3,0.8,0.8,1.4,1.3,2c0.6,0.6,1.2,1,2,1.3
				c0.8,0.3,1.6,0.5,2.4,0.5c0.9,0,1.7-0.2,2.4-0.5c0.8-0.3,1.4-0.8,2-1.3c0.6-0.6,1-1.2,1.3-2c0.3-0.8,0.5-1.6,0.5-2.4
				c0-0.9-0.2-1.7-0.5-2.4c-0.3-0.8-0.8-1.4-1.3-2c-0.6-0.6-1.2-1-2-1.3c-0.8-0.3-1.6-0.5-2.4-0.5c-0.9,0-1.7,0.2-2.4,0.5
				c-0.8,0.3-1.4,0.8-2,1.3c-0.6,0.6-1,1.2-1.3,2C18.9,23.3,18.8,24.1,18.8,25z M50,25v25H25V37.5h3.1v9.4h18.8V28.1h-4l2,2
				l-2.2,2.2l-5.8-5.8l5.8-5.8l2.2,2.2l-2,2H50z"/>
		</g>
	</g>
</g>
</svg>
