<?xml version="1.0" encoding="utf-8"?>
<!-- Generator: Adobe Illustrator 19.1.0, SVG Export Plug-In . SVG Version: 6.00 Build 0)  -->
<svg version="1.1" id="Layer_1" xmlns="http://www.w3.org/2000/svg" xmlns:xlink="http://www.w3.org/1999/xlink" x="0px" y="0px"
	 width="16px" height="16px" viewBox="0 0 16 16" style="enable-background:new 0 0 16 16;" xml:space="preserve">
<g>
	<path d="M7,10V9c0.395,0,0.774-0.045,1.137-0.137c0.362-0.091,0.681-0.237,0.957-0.438c0.276-0.2,0.496-0.458,0.66-0.773
		C9.917,7.337,9.999,6.953,9.999,6.5c0-0.344-0.066-0.667-0.199-0.969C9.667,5.229,9.488,4.965,9.261,4.738
		C9.035,4.512,8.77,4.332,8.468,4.199C8.166,4.066,7.843,4,7.5,4h-4C3.156,4,2.833,4.066,2.531,4.199
		C2.229,4.332,1.965,4.512,1.738,4.738S1.332,5.229,1.199,5.531C1.066,5.833,1,6.156,1,6.5c0,0.453,0.082,0.837,0.246,1.152
		C1.41,7.968,1.63,8.226,1.906,8.426c0.276,0.201,0.595,0.347,0.957,0.438C3.225,8.955,3.604,9,4,9v1H3.5
		c-0.484,0-0.939-0.093-1.363-0.277c-0.425-0.185-0.794-0.435-1.109-0.75c-0.315-0.315-0.565-0.685-0.75-1.109
		C0.092,7.439,0,6.984,0,6.5s0.092-0.938,0.277-1.363c0.185-0.424,0.435-0.794,0.75-1.109c0.315-0.315,0.685-0.565,1.109-0.75
		C2.561,3.093,3.015,3,3.5,3h4c0.484,0,0.938,0.093,1.363,0.277c0.425,0.185,0.794,0.435,1.109,0.75
		c0.315,0.315,0.565,0.685,0.75,1.109c0.185,0.425,0.277,0.879,0.277,1.363s-0.093,0.939-0.277,1.363
		c-0.185,0.425-0.435,0.794-0.75,1.109c-0.315,0.316-0.685,0.566-1.109,0.75S7.984,10,7.5,10H7z M12,6v1
		c0.395,0,0.774,0.046,1.136,0.137c0.362,0.091,0.681,0.237,0.958,0.438c0.275,0.201,0.496,0.458,0.66,0.773
		C14.918,8.663,15,9.047,15,9.5c0,0.344-0.066,0.667-0.199,0.969c-0.133,0.302-0.312,0.566-0.539,0.793
		c-0.227,0.227-0.492,0.406-0.794,0.539S12.843,12,12.499,12h-4c-0.344,0-0.667-0.066-0.969-0.199
		c-0.302-0.133-0.566-0.313-0.793-0.539s-0.406-0.491-0.539-0.793S6,9.844,6,9.5c0-0.454,0.082-0.837,0.246-1.153
		c0.164-0.315,0.384-0.573,0.66-0.773c0.276-0.2,0.595-0.346,0.957-0.438C8.225,7.046,8.603,7,8.999,7V6h-0.5
		C8.015,6,7.561,6.093,7.136,6.277c-0.425,0.185-0.794,0.435-1.109,0.75c-0.315,0.315-0.565,0.685-0.75,1.109
		C5.092,8.562,5,9.016,5,9.5c0,0.484,0.092,0.938,0.277,1.363c0.185,0.425,0.435,0.794,0.75,1.109
		c0.315,0.315,0.685,0.565,1.109,0.75C7.561,12.908,8.015,13,8.499,13h4c0.484,0,0.938-0.093,1.363-0.277s0.794-0.435,1.11-0.75
		c0.314-0.315,0.564-0.685,0.75-1.109C15.906,10.439,16,9.985,16,9.5c0-0.485-0.094-0.939-0.277-1.364
		c-0.186-0.424-0.436-0.794-0.75-1.109c-0.316-0.315-0.686-0.565-1.11-0.75C13.438,6.093,12.984,6,12.499,6H12z"/>
</g>
</svg>
