<?xml version="1.0" encoding="utf-8"?>
<!-- Generator: Adobe Illustrator 17.1.0, SVG Export Plug-In . SVG Version: 6.00 Build 0)  -->
<!DOCTYPE svg PUBLIC "-//W3C//DTD SVG 1.1//EN" "http://www.w3.org/Graphics/SVG/1.1/DTD/svg11.dtd">
<svg version="1.1" id="Layer_1" xmlns="http://www.w3.org/2000/svg" xmlns:xlink="http://www.w3.org/1999/xlink" x="0px" y="0px"
	 height="24" width="24" viewBox="0 0 24 24" enable-background="new 0 0 24 24" xml:space="preserve">
<path fill-rule="evenodd" clip-rule="evenodd" d="M4,18.9h3v1H4V18.9z M8,18.9h3v1H8V18.9z M12,18.9h3v1h-3V18.9z M16,18.9h3v1h-3
	V18.9z"/>
<path fill-rule="evenodd" clip-rule="evenodd" d="M20.2,16.2c0,0-0.1-0.1-0.3-0.3H16v-2H5.1c-0.9,0.9-2.3,2.3-2.3,2.3S2,16.9,2,17.5
	c0,0.5,0,3.7,0,3.7c0,0.4,0.3,0.7,0.7,0.7h17.6c0.4,0,0.7-0.3,0.7-0.7c0,0,0-3.2,0-3.7C21,16.9,20.2,16.2,20.2,16.2z M20.1,20.9H3
	v-3h17.1V20.9z"/>
<g>
	<g>
		<polygon fill-rule="evenodd" clip-rule="evenodd" points="22,9.9 19,9.9 19,6.9 17,6.9 17,9.9 14,9.9 14,11.9 17,11.9 17,14.9 
			19,14.9 19,11.9 22,11.9 		"/>
	</g>
</g>
<path fill-rule="evenodd" clip-rule="evenodd" d="M3.4,13.5l1.2-1.1c-0.5-0.5-0.8-1.2-0.8-1.9c0-1.5,1.2-2.7,2.7-2.7
	c0.3,0,0.6,0.1,1,0.2L9,8.5l0.5-1.7c0.6-1.9,2.3-3.2,4.3-3.2c1.7,0,3.1,0.9,3.9,2.3h1.8C18.6,3.6,16.4,2,13.8,2C11,2,8.7,3.8,8,6.4
	C7.5,6.2,7,6.1,6.4,6.1C4,6.1,2.1,8,2.1,10.4C2.1,11.7,2.6,12.8,3.4,13.5z"/>
</svg>
