<?xml version="1.0" encoding="utf-8"?>
<!-- Generator: Adobe Illustrator 17.1.0, SVG Export Plug-In . SVG Version: 6.00 Build 0)  -->
<!DOCTYPE svg PUBLIC "-//W3C//DTD SVG 1.1//EN" "http://www.w3.org/Graphics/SVG/1.1/DTD/svg11.dtd">
<svg version="1.1" id="Layer_1" xmlns="http://www.w3.org/2000/svg" xmlns:xlink="http://www.w3.org/1999/xlink" x="0px" y="0px"
	 height="20px" width="20px" viewBox="0 0 20 20" enable-background="new 0 0 20 20" xml:space="preserve">
<path opacity="0.5" fill="#FFFFFF" d="M17,4h-1h-2h-1h-2h-1H8H7H5H4v1v2v1v2v1v2v1v2v1h1h2h1h2h1h2h1h2h1V4z M16,5v2h-2V5H16z
	 M10,10H8V8h2V10z M11,8h2v2h-2V8z M10,11v2H8v-2H10z M11,11h2v2h-2V11z M14,11h2v2h-2V11z M14,10V8h2v2H14z M13,5v2h-2V5H13z M10,5
	v2H8V5H10z M5,5h2v2H5V5z M5,8h2v2H5V8z M5,11h2v2H5V11z M5,16v-2h2v2H5z M8,16v-2h2v2H8z M11,16v-2h2v2H11z M14,16v-2h2v2H14z"/>
<rect x="4" y="4" fill="#FFFFFF" width="7" height="7"/>
<rect x="10.9" y="13.7" transform="matrix(0.7071 0.7071 -0.7071 0.7071 14.2249 -5.8921)" fill="#FFFFFF" width="6.7" height="1"/>
<polygon fill="#FFFFFF" points="17,13 17,17 13,17 "/>
</svg>
