<?xml version="1.0" encoding="utf-8"?>
<!-- Generator: Adobe Illustrator 17.1.0, SVG Export Plug-In . SVG Version: 6.00 Build 0)  -->
<!DOCTYPE svg PUBLIC "-//W3C//DTD SVG 1.1//EN" "http://www.w3.org/Graphics/SVG/1.1/DTD/svg11.dtd">
<svg version="1.1" id="Layer_1" xmlns="http://www.w3.org/2000/svg" xmlns:xlink="http://www.w3.org/1999/xlink" x="0px" y="0px"
	 width="50px" height="50px" viewBox="0 0 50 50" enable-background="new 0 0 50 50" xml:space="preserve">
<g id="XMLID_238_" opacity="0.8">
	<g>
		<g>
			<path fill="#3A3A3A" d="M31.3,50l3.4-6.9L29,37.5l-0.9,0.4V50h-9.4v-9.6l-9.4,9.4L2.6,43l6.8-6.8c0-0.3,0-0.7,0-1.3
				c0-0.6,0-1.3,0-2.1c0-0.8,0-1.6,0-2.4c0-0.8,0-1.6,0-2.4c0-0.7,0.1-1.4,0.1-1.9c0.1-0.5,0.1-0.9,0.3-1H3.1V13.2l1.3-0.3l-3.9-4
				l2.2-2.2L7.9,12l11.7-2.9c-0.1-1.1-0.1-2.1,0.2-3.1c0.3-1,0.7-1.9,1.3-2.6c0.6-0.8,1.4-1.4,2.3-1.8c0.9-0.5,1.9-0.7,3.1-0.7
				c1,0,1.9,0.2,2.7,0.6c0.9,0.4,1.6,0.9,2.2,1.5s1.1,1.4,1.5,2.2c0.4,0.9,0.6,1.8,0.6,2.7c0,1.3-0.3,2.5-1,3.7s-1.6,2-2.8,2.6
				l5.1,20.4l-3,1.5l4.2,4.2l4.5-8.9L50,50H31.3z M15.6,17.2L15,19l6.9,6.9l2.3-7.2l3.2,12.7l2.2,2.2l1.7-0.8l-4.5-18
				c-1.2,0-2.3-0.2-3.3-0.7c-1-0.5-1.9-1.2-2.6-2.2L6.3,15.6v6.3h3.1v-3.1L15.6,17.2z M25,34.4c0-0.3-0.3-0.8-0.8-1.5
				c-0.5-0.6-1.1-1.4-1.8-2.1c-0.7-0.8-1.5-1.6-2.4-2.5c-0.9-0.9-1.7-1.7-2.5-2.5s-1.5-1.5-2.2-2.1s-1.1-1.1-1.4-1.4
				c0,0.1-0.1,0.4-0.3,0.8c-0.1,0.4-0.3,0.9-0.5,1.4c-0.2,0.5-0.3,0.9-0.5,1.4c-0.1,0.4-0.2,0.6-0.2,0.7c-0.1,0.9-0.1,1.8-0.1,2.7
				c0,0.9,0,1.8,0,2.8c0,0.9,0,1.9,0.1,2.8c0,0.9,0,1.8,0,2.7L7,43l2.3,2.3l6.3-6.3v-7.8h3.1l3.1,6.3v9.4H25V34.4z M26.6,3.9
				c-0.5,0-1,0.1-1.5,0.3c-0.5,0.2-0.9,0.5-1.2,0.8c-0.4,0.4-0.6,0.8-0.8,1.2c-0.2,0.5-0.3,1-0.3,1.5s0.1,1,0.3,1.5
				c0.2,0.5,0.5,0.9,0.8,1.2c0.4,0.4,0.8,0.6,1.2,0.8c0.5,0.2,1,0.3,1.5,0.3s1-0.1,1.5-0.3c0.5-0.2,0.9-0.5,1.2-0.8
				c0.4-0.4,0.6-0.8,0.8-1.2c0.2-0.5,0.3-1,0.3-1.5s-0.1-1-0.3-1.5c-0.2-0.5-0.5-0.9-0.8-1.2c-0.4-0.4-0.8-0.6-1.2-0.8
				C27.6,4,27.1,3.9,26.6,3.9z M40.6,38.2l-4.3,8.6h8.6L40.6,38.2z"/>
		</g>
	</g>
</g>
</svg>
