<?xml version="1.0" encoding="utf-8"?>
<!-- Generator: Adobe Illustrator 17.1.0, SVG Export Plug-In . SVG Version: 6.00 Build 0)  -->
<!DOCTYPE svg PUBLIC "-//W3C//DTD SVG 1.1//EN" "http://www.w3.org/Graphics/SVG/1.1/DTD/svg11.dtd">
<svg version="1.1" id="Layer_1" xmlns="http://www.w3.org/2000/svg" xmlns:xlink="http://www.w3.org/1999/xlink" x="0px" y="0px"
	 height="16px" width="16px" viewBox="0 0 16 16" enable-background="new 0 0 16 16" xml:space="preserve">
<path d="M12.5,11.3L4.7,3.5C5.7,2.8,6.8,2.5,8,2.5c1.5,0,2.9,0.6,3.9,1.6c1,1,1.6,2.4,1.6,3.9C13.5,9.2,13.2,10.3,12.5,11.3z
	 M4.1,11.9C2.2,10,2,7.1,3.4,5l7.7,7.7c-0.9,0.6-1.9,0.9-3,0.9C6.5,13.5,5.1,13,4.1,11.9z M13.3,2.7C11.9,1.3,10,0.5,8,0.5
	S4.1,1.3,2.7,2.7c-2.9,2.9-2.9,7.7,0,10.6C4.1,14.7,6,15.5,8,15.5s3.9-0.8,5.3-2.2C16.2,10.4,16.2,5.6,13.3,2.7z"/>
</svg>
