<?xml version="1.0" encoding="utf-8"?>
<!-- Generator: Adobe Illustrator 17.1.0, SVG Export Plug-In . SVG Version: 6.00 Build 0)  -->
<!DOCTYPE svg PUBLIC "-//W3C//DTD SVG 1.1//EN" "http://www.w3.org/Graphics/SVG/1.1/DTD/svg11.dtd">
<svg version="1.1" id="Layer_1" xmlns="http://www.w3.org/2000/svg" xmlns:xlink="http://www.w3.org/1999/xlink" x="0px" y="0px"
	 height="16px" width="16px" viewBox="0 0 16 16" enable-background="new 0 0 16 16" xml:space="preserve">
<g>
	<path d="M4.7,14.3C5,14.3,5,14,4.8,13.8l-2.7-2.7C1.9,11,1.7,11,1.6,11.3L0,15.6c-0.1,0.3,0.1,0.5,0.4,0.4L4.7,14.3z M15,1
		c-2-2-2.8-0.3-2.8-0.3c-0.2,0.2-0.6,0.5-0.8,0.7c-0.2,0.2-0.2,0.5,0,0.8l2.5,2.5c0.2,0.2,0.6,0.2,0.8,0c0.2-0.2,0.5-0.6,0.7-0.8
		C15.4,3.8,17,2.9,15,1z M6.6,12.8c-0.2,0.2-0.6,0.2-0.8,0l-2.6-2.6C3,10,3,9.7,3.2,9.5l6.6-6.5c0.2-0.2,0.6-0.2,0.8,0l2.5,2.5
		c0.2,0.2,0.2,0.6,0,0.8L6.6,12.8z"/>
</g>
</svg>
