<svg class="msportalfx-svg-placeholder" viewBox="0 0 20 20">
  <path d="M8.69 5.97L8.66 5.96 8.69 5.97z"/>
  <path d="M18.57 15.08H5.43c-0.19 0-0.34-0.15-0.34-0.33V8.58C5.09 4.9 8.19 1.91 12 1.91c3.81 0 6.91 3 6.91 6.68v6.17C18.91 14.93 18.76 15.08 18.57 15.08zM5.77 14.42h12.45V8.58c0-3.31-2.79-6.01-6.23-6.01S5.77 5.27 5.77 8.58V14.42z"/>
  <path d="M24 18.27c0 0-1.14-2.62-6.01-4.05H6.01C1.15 15.65 0 18.27 0 18.27l0.05 0.04h23.9L24 18.27z"/>
  <path d="M22.77 18.97H1.23C1.67 19.63 5.36 22.14 12 22.14S22.33 19.63 22.77 18.97z"/>
  <path d="M10.95 14.55c-0.13-0.03-3.23-0.62-3.91-3.16 -0.03-0.11 0.01-0.22 0.12-0.27 0.1-0.07 0.23-0.05 0.31 0.03 0.02 0.01 1.61 1.49 2.93 1.51 0.11 0 0.2 0.06 0.24 0.15l0.6 1.41c0.04 0.08 0.02 0.17-0.04 0.25C11.14 14.53 11.05 14.57 10.95 14.55z"/>
  <path d="M12.63 14.55c0.14-0.03 3.24-0.62 3.92-3.16 0.03-0.11-0.02-0.22-0.12-0.27 -0.1-0.07-0.23-0.05-0.31 0.03 -0.01 0.01-1.61 1.49-2.93 1.51 -0.1 0-0.2 0.06-0.24 0.15l-0.6 1.41c-0.04 0.08-0.03 0.17 0.03 0.25C12.44 14.53 12.54 14.57 12.63 14.55z"/>
  <path d="M11.9 11.01C10.66 10.99 9.59 9.78 9.6 9.58c0.01-0.19 4.51-0.1 4.51 0.1C14.1 9.87 13.15 11.03 11.9 11.01zM10.8 7.13c0.27 0.01 0.47 0.38 0.47 0.82 -0.01 0.46-0.23 0.82-0.5 0.82 -0.27-0.01-0.47-0.38-0.46-0.83C10.31 7.48 10.54 7.12 10.8 7.13zM13.19 7.25c0.26 0 0.47 0.38 0.46 0.83 -0.01 0.45-0.23 0.82-0.5 0.81 -0.27-0.01-0.47-0.37-0.45-0.83C12.71 7.61 12.93 7.24 13.19 7.25zM11.93 4.55C9.41 4.5 7.45 7 8.67 9.56c1.26 2.63 2.29 3.61 3 6.32 0.82-2.67 1.9-3.61 3.28-6.18C16.29 7.19 14.45 4.6 11.93 4.55z"/>
</svg>