<?xml version="1.0" encoding="utf-8"?>
<!-- Generator: Adobe Illustrator 19.1.0, SVG Export Plug-In . SVG Version: 6.00 Build 0)  -->
<svg version="1.1" id="Layer_1" xmlns="http://www.w3.org/2000/svg" xmlns:xlink="http://www.w3.org/1999/xlink" x="0px" y="0px"
	 width="48px" height="48px" viewBox="-454 256 48 48" style="enable-background:new -454 256 48 48;" xml:space="preserve">
<style type="text/css">
	.st0{fill:#59B4D9;}
</style>
<g>
	<path class="st0" d="M-431.6,295H-454v-33h22.9l-2.3,3H-451v27h19.6L-431.6,295z"/>
</g>
<g>
	<path class="st0" d="M-406,271c0,1.6-0.3,3.2-0.8,4.7c-0.5,1.5-1.3,3-2.2,4.3v24l-12-6l-12,6v-24c-1-1.3-1.7-2.7-2.2-4.3
		c-0.5-1.5-0.8-3.1-0.8-4.7c0-2.1,0.4-4,1.2-5.8c0.8-1.8,1.9-3.4,3.2-4.8s2.9-2.4,4.8-3.2c1.8-0.8,3.8-1.2,5.8-1.2
		c2.1,0,4,0.4,5.8,1.2c1.8,0.8,3.4,1.9,4.8,3.2s2.4,3,3.2,4.8C-406.4,267-406,268.9-406,271z M-421,259c-1.7,0-3.2,0.3-4.7,0.9
		s-2.7,1.5-3.8,2.6c-1.1,1.1-1.9,2.4-2.6,3.8s-0.9,3-0.9,4.7c0,1.7,0.3,3.2,0.9,4.7s1.5,2.7,2.6,3.8c1.1,1.1,2.4,1.9,3.8,2.6
		s3,0.9,4.7,0.9c1.7,0,3.2-0.3,4.7-0.9s2.7-1.5,3.8-2.6c1.1-1.1,1.9-2.4,2.6-3.8s0.9-3,0.9-4.7c0-1.7-0.3-3.2-0.9-4.7
		s-1.5-2.7-2.6-3.8c-1.1-1.1-2.4-1.9-3.8-2.6S-419.3,259-421,259z M-421,280c-1.3,0-2.4-0.2-3.5-0.7c-1.1-0.5-2-1.1-2.9-1.9
		s-1.5-1.8-1.9-2.9c-0.5-1.1-0.7-2.3-0.7-3.5c0-1.2,0.2-2.4,0.7-3.5c0.5-1.1,1.1-2.1,1.9-2.9s1.8-1.5,2.9-1.9
		c1.1-0.5,2.3-0.7,3.5-0.7c1.2,0,2.4,0.2,3.5,0.7c1.1,0.5,2.1,1.1,2.9,1.9s1.5,1.8,1.9,2.9c0.5,1.1,0.7,2.3,0.7,3.5
		c0,1.3-0.2,2.4-0.7,3.5c-0.5,1.1-1.1,2-1.9,2.9s-1.8,1.5-2.9,1.9C-418.6,279.8-419.8,280-421,280z M-412,299.5V283
		c-1.3,1-2.7,1.7-4.3,2.2c-1.5,0.5-3.1,0.8-4.7,0.8c-1.6,0-3.2-0.3-4.7-0.8c-1.5-0.5-3-1.3-4.3-2.2v16.5l9-4.5L-412,299.5z
		 M-421,265c-0.8,0-1.6,0.2-2.3,0.5c-0.7,0.3-1.4,0.7-1.9,1.3c-0.5,0.5-1,1.2-1.3,1.9c-0.3,0.7-0.5,1.5-0.5,2.3
		c0,0.8,0.2,1.6,0.5,2.3c0.3,0.7,0.7,1.4,1.3,1.9c0.5,0.5,1.2,1,1.9,1.3c0.7,0.3,1.5,0.5,2.3,0.5c0.8,0,1.6-0.2,2.3-0.5
		c0.7-0.3,1.4-0.7,1.9-1.3c0.5-0.5,1-1.2,1.3-1.9c0.3-0.7,0.5-1.5,0.5-2.3c0-0.8-0.2-1.6-0.5-2.3c-0.3-0.7-0.7-1.4-1.3-1.9
		c-0.5-0.5-1.2-1-1.9-1.3C-419.4,265.2-420.2,265-421,265z"/>
</g>
<rect x="-448" y="268" class="st0" width="15" height="3"/>
<rect x="-448" y="274" class="st0" width="15" height="3"/>
<rect x="-448" y="286" class="st0" width="9" height="3"/>
</svg>
