<?xml version="1.0" encoding="utf-8"?>
<!-- Generator: Adobe Illustrator 19.1.0, SVG Export Plug-In . SVG Version: 6.00 Build 0)  -->
<svg version="1.1" id="Layer_1" xmlns="http://www.w3.org/2000/svg" xmlns:xlink="http://www.w3.org/1999/xlink" x="0px" y="0px"
	 width="16px" height="16px" viewBox="0 0 16 16" enable-background="new 0 0 16 16" xml:space="preserve">
<path d="M8,9C7.86,9,7.729,8.974,7.61,8.922C7.489,8.87,7.383,8.798,7.293,8.707C7.202,8.616,7.129,8.511,7.079,8.391
	C7.026,8.271,7,8.141,7,8s0.025-0.271,0.078-0.391c0.051-0.12,0.123-0.225,0.215-0.316C7.383,7.202,7.489,7.13,7.61,7.078
	C7.729,7.026,7.86,7,8,7s0.27,0.026,0.391,0.078C8.51,7.13,8.616,7.202,8.708,7.293C8.797,7.384,8.87,7.49,8.922,7.609
	C8.973,7.729,9,7.859,9,8S8.973,8.271,8.922,8.391C8.87,8.511,8.797,8.616,8.708,8.707C8.616,8.798,8.51,8.87,8.391,8.922
	C8.27,8.974,8.141,9,8,9z"/>
<path d="M8,4c0.781,0,1.541,0.102,2.281,0.305c0.738,0.203,1.449,0.483,2.129,0.84c0.68,0.357,1.32,0.78,1.922,1.27
	C14.934,6.904,15.488,7.433,16,8c-0.512,0.573-1.066,1.104-1.668,1.59c-0.602,0.487-1.242,0.909-1.922,1.266
	c-0.68,0.357-1.391,0.637-2.129,0.84C9.541,11.898,8.782,12,8,12s-1.543-0.102-2.281-0.305c-0.74-0.203-1.45-0.482-2.129-0.84
	c-0.68-0.356-1.322-0.778-1.926-1.266C1.06,9.104,0.505,8.573,0,8c0.505-0.567,1.06-1.096,1.664-1.586
	C2.268,5.925,2.91,5.501,3.59,5.145c0.68-0.356,1.389-0.637,2.129-0.84C6.458,4.102,7.219,4,8,4z M1.383,8
	c0.489,0.474,1.01,0.908,1.563,1.301c0.552,0.394,1.143,0.723,1.773,0.988c-0.234-0.333-0.413-0.696-0.535-1.09
	C4.061,8.806,4,8.406,4,8s0.061-0.806,0.184-1.199c0.122-0.393,0.301-0.756,0.535-1.09c-0.63,0.266-1.222,0.595-1.773,0.988
	C2.393,7.093,1.872,7.526,1.383,8z M11,8c0-0.411-0.08-0.799-0.238-1.164c-0.16-0.364-0.375-0.682-0.645-0.953
	c-0.271-0.271-0.59-0.485-0.953-0.645C8.799,5.08,8.411,5,8,5C7.588,5,7.2,5.08,6.836,5.238C6.471,5.397,6.153,5.612,5.883,5.883
	C5.612,6.154,5.397,6.472,5.238,6.836C5.079,7.201,5,7.589,5,8c0,0.412,0.079,0.8,0.238,1.164c0.159,0.365,0.374,0.683,0.645,0.953
	c0.27,0.271,0.588,0.486,0.953,0.645C7.2,10.921,7.588,11,8,11c0.41,0,0.799-0.079,1.164-0.238c0.363-0.158,0.682-0.373,0.953-0.645
	c0.27-0.271,0.484-0.588,0.645-0.953C10.92,8.8,11,8.412,11,8z M11.281,10.289c0.629-0.266,1.221-0.595,1.773-0.988
	C13.605,8.908,14.127,8.474,14.617,8c-0.49-0.474-1.012-0.907-1.563-1.301c-0.553-0.393-1.145-0.723-1.773-0.988
	c0.234,0.333,0.412,0.697,0.535,1.09C11.938,7.194,12,7.594,12,8s-0.063,0.806-0.184,1.199C11.693,9.593,11.516,9.956,11.281,10.289
	z"/>
<rect x="-0.397" y="7.503" transform="matrix(0.7071 0.7071 -0.7071 0.7071 8 -3.3137)" width="16.794" height="0.994"/>
</svg>
