<?xml version="1.0" encoding="utf-8"?>
<!-- Generator: Adobe Illustrator 17.0.1, SVG Export Plug-In . SVG Version: 6.00 Build 0)  -->
<!DOCTYPE svg PUBLIC "-//W3C//DTD SVG 1.1//EN" "http://www.w3.org/Graphics/SVG/1.1/DTD/svg11.dtd">
<svg version="1.1" id="Layer_1" xmlns="http://www.w3.org/2000/svg" xmlns:xlink="http://www.w3.org/1999/xlink" x="0px" y="0px"
	 width="50px" height="50px" viewBox="0 0 50 50" enable-background="new 0 0 50 50" xml:space="preserve">
<path fill="#59B4D9" d="M25,2.753C12.713,2.753,2.753,12.713,2.753,25S12.713,47.246,25,47.246S47.247,37.287,47.247,25
	C47.247,12.714,37.286,2.753,25,2.753z M23.457,10.666c0.652-0.659,1.441-0.989,2.369-0.989c0.94,0,1.737,0.33,2.39,0.989
	c0.651,0.659,0.976,1.451,0.976,2.378s-0.329,1.717-0.987,2.369c-0.659,0.651-1.453,0.977-2.379,0.977
	c-0.928,0-1.717-0.326-2.369-0.977c-0.652-0.652-0.978-1.442-0.978-2.369S22.805,11.325,23.457,10.666z M31.322,39.831H20.35v-0.782
	c0.898-0.029,1.564-0.29,1.999-0.782c0.289-0.333,0.434-1.217,0.434-2.651V23.754c0-1.433-0.166-2.349-0.498-2.748
	c-0.334-0.398-0.979-0.627-1.935-0.684v-0.804h8.517v16.098c0,1.434,0.166,2.35,0.499,2.749c0.333,0.398,0.985,0.626,1.956,0.684
	V39.831z"/>
</svg>
