<svg viewBox="0 0 50 50">
    <path d="M0,44.3c0,1.1,0.9,2,2,2h46c1.1,0,2-0.9,2-2V10H0V44.3z" class="msportalfx-svg-c06"></path>
    <path opacity="0.25" d="M0,44.3c0,1.1,0.9,2,2,2h46c1.1,0,2-0.9,2-2V9.7H0V44.3z" class="msportalfx-svg-c19"></path>
    <path d="M48,3.7H2c-1.1,0-2,0.9-2,2v6h50v-6C50,4.6,49.1,3.7,48,3.7" class="msportalfx-svg-c03"></path>
    <rect x="12" y="15.7" width="38" height="26" class="msportalfx-svg-c02"></rect>
    <rect x="0" y="15.7" width="12" height="26" class="msportalfx-svg-c15"></rect>
    <g opacity="0.2">
        <path d="M2,3.7c-1.1,0-2,0.9-2,2V13v3.3v28c0,1.1,0.9,2,2,2h2.2L43.6,3.7H2z" class="msportalfx-svg-c01"></path>
    </g>
</svg>