<?xml version="1.0" encoding="UTF-8" standalone="no"?>
<svg width="80px" height="80px" viewBox="0 0 80 80" version="1.1" xmlns="http://www.w3.org/2000/svg" xmlns:xlink="http://www.w3.org/1999/xlink">
    <defs></defs>
    <g stroke="none" stroke-width="1" fill="none" fill-rule="evenodd">
        <g>
            <path d="M80,0 L76.5,0 L0,76.6 L0,80 L80,0" fill="#C7C7C7"></path>
            <path d="M55.9,0 L52.4,0 L0,52.5 L0,76.6 L76.5,0 L55.9,0" fill="#B8D432"></path>
            <path d="M31,34.5 L29.4,32.9 L29.9,32.3 C30.214,31.986 30.527,31.837 30.827,31.837 C31.1,31.837 31.361,31.961 31.6,32.2 C31.9,32.5 32,32.8 32,33.1 C32,33.4 31.8,33.7 31.5,34 L31,34.5 M30.9,30.7 C30.4,30.7 29.9,31 29.4,31.5 L28,32.9 L32.5,37.4 L33.2,36.7 L31.6,35.1 L32.1,34.4 C32.6,33.9 32.9,33.4 32.9,32.8 C32.9,32.2 32.7,31.7 32.3,31.3 C31.9,30.9 31.4,30.7 30.9,30.7" fill="#7A8B2A"></path>
            <path d="M34.5,30.5 L33.1,29.1 L33.6,28.4 C33.9,28.1 34.1,28 34.4,28 C34.7,28 34.9,28.1 35.1,28.3 C35.3,28.4 35.3,28.6 35.4,28.7 C35.5,28.8 35.5,29 35.5,29.1 C35.5,29.2 35.5,29.4 35.4,29.5 C35.3,29.7 35.2,29.8 35.1,29.9 L34.5,30.5 M34.6,27 C34.4,27 34.2,27.1 33.9,27.2 C33.6,27.3 33.4,27.5 33.2,27.7 L31.7,29.2 L36.2,33.7 L36.9,33 L35.1,31.2 L35.4,30.9 C35.5,30.8 35.6,30.8 35.7,30.7 C35.8,30.6 35.9,30.6 36,30.6 L36.4,30.6 C36.6,30.6 36.7,30.7 36.9,30.7 L38.8,31.2 L39.7,30.3 L37.8,29.7 C37.7,29.6 37.5,29.6 37.4,29.6 L37,29.6 L36.7,29.6 C36.5,29.6 36.4,29.7 36.3,29.7 C36.4,29.5 36.5,29.3 36.5,29.1 L36.5,28.5 C36.4,28.4 36.4,28.2 36.3,28 C36.2,27.8 36.1,27.7 35.9,27.5 C35.7,27.3 35.5,27.2 35.3,27.1 C35.1,27 34.8,27 34.6,27" fill="#7A8B2A"></path>
            <path d="M38.1,22.9 L35.7,25.3 L40.2,29.8 L42.7,27.3 L42,26.6 L40.2,28.4 L38.9,27.1 L40.4,25.6 L39.8,25 L38.3,26.5 L37,25.2 L38.7,23.5 L38.1,22.9" fill="#7A8B2A"></path>
            <path d="M42.5,18.5 L41.9,19.3 L44.1,23.8 C44.2,24 44.3,24.2 44.4,24.3 C44.2,24.2 44,24.1 43.9,24 L39.4,21.7 L38.6,22.5 L44.6,25.4 L45.4,24.6 L42.5,18.5" fill="#7A8B2A"></path>
            <path d="M43.8,17.1 L43,17.9 L47.5,22.4 L48.3,21.6 L43.8,17.1" fill="#7A8B2A"></path>
            <path d="M47.3,13.6 L44.9,16 L49.4,20.5 L51.9,18 L51.2,17.3 L49.4,19.1 L48.1,17.8 L49.6,16.3 L49,15.7 L47.5,17.2 L46.2,15.9 L47.9,14.2 L47.3,13.6" fill="#7A8B2A"></path>
            <path d="M53.9,7.2 L53.3,7.9 L55.8,12 C55.9,12.2 56,12.4 56.1,12.5 C55.9,12.4 55.7,12.3 55.6,12.2 L51.5,9.8 L50.7,10.6 L53,14.8 C53.1,15 53.2,15.2 53.3,15.3 C53.1,15.1 53,15 52.8,14.9 L48.7,12.4 L47.9,13.2 L53.6,16.4 L54.5,15.5 L52.2,11.5 C52.1,11.3 51.9,11.2 51.8,11 C52,11.2 52.1,11.3 52.3,11.4 L56.3,13.7 L57.1,12.9 L53.9,7.2" fill="#7A8B2A"></path>
        </g>
    </g>
</svg>