<svg viewBox="0.5 0.5 50 50">
<path d="M45.636,25.068c0-0.326-0.007-0.65-0.021-0.973h-4.288c0.017,0.322,0.029,0.646,0.029,0.973
	c0,0.458-0.021,0.912-0.054,1.362c-0.283,3.821-1.744,7.319-4.023,10.131c-1.325-0.697-2.826-1.296-4.46-1.78
	c0.739-2.513,1.203-5.342,1.311-8.351c0.016-0.451,0.027-0.904,0.027-1.362c0-0.326-0.005-0.65-0.013-0.973
	c-0.077-3.011-0.507-5.85-1.217-8.381c1.682-0.504,3.22-1.132,4.57-1.863c1.364-0.739,2.534-1.582,3.471-2.505
	c-0.477-0.621-0.987-1.215-1.524-1.783C35.328,5.219,29.511,2.5,23.068,2.5S10.808,5.219,6.692,9.563
	c-0.538,0.568-1.047,1.162-1.524,1.783C2.244,15.152,0.5,19.909,0.5,25.068c0,5.261,1.814,10.103,4.843,13.945
	c0.483,0.612,0.995,1.199,1.537,1.758c4.104,4.23,9.842,6.866,16.187,6.866S35.151,45,39.255,40.77
	c0.542-0.559,1.055-1.145,1.537-1.758c2.766-3.508,4.514-7.85,4.798-12.583C45.618,25.979,45.636,25.526,45.636,25.068z
	 M10.507,38.341c1.094-0.53,2.29-0.983,3.563-1.355c0.838,2.143,1.893,3.98,3.11,5.389C14.665,41.517,12.396,40.13,10.507,38.341z
	 M4.834,26.43h7.172c0.108,3.01,0.571,5.838,1.311,8.351c-1.633,0.483-3.134,1.082-4.46,1.78C6.578,33.749,5.117,30.251,4.834,26.43
	z M8.639,13.852c1.35,0.731,2.888,1.359,4.57,1.863c-0.71,2.531-1.14,5.37-1.217,8.381H4.809
	C5.012,20.247,6.411,16.712,8.639,13.852z M17.182,7.758c-1.284,1.485-2.39,3.444-3.25,5.74c-1.326-0.396-2.567-0.879-3.694-1.447
	C12.18,10.137,14.548,8.657,17.182,7.758z M21.706,14.728c-1.91-0.072-3.76-0.293-5.5-0.656c0.32-0.824,0.676-1.607,1.072-2.335
	c1.278-2.354,2.839-3.923,4.428-4.506V14.728z M21.706,24.095h-7.38c0.074-2.77,0.466-5.417,1.14-7.801
	c1.95,0.425,4.048,0.69,6.24,0.769V24.095z M21.706,33.461c-2.153,0.077-4.214,0.335-6.133,0.747
	c-0.705-2.367-1.127-5.008-1.231-7.778h7.364V33.461z M21.706,42.905c-1.589-0.583-3.15-2.151-4.428-4.506
	c-0.338-0.622-0.648-1.283-0.93-1.976c1.698-0.346,3.5-0.556,5.358-0.627V42.905z M24.041,35.782
	c1.997,0.053,3.931,0.271,5.747,0.641c-0.283,0.693-0.593,1.354-0.93,1.976c-1.382,2.546-3.095,4.174-4.817,4.628V35.782z
	 M28.858,11.737c0.395,0.728,0.752,1.511,1.072,2.335c-1.858,0.388-3.84,0.616-5.889,0.671V7.109
	C25.762,7.563,27.475,9.191,28.858,11.737z M32.203,13.498c-0.859-2.296-1.965-4.254-3.25-5.74c2.634,0.899,5.002,2.379,6.944,4.293
	C34.77,12.619,33.529,13.102,32.203,13.498z M31.81,24.095h-7.769v-7.017c2.334-0.06,4.564-0.334,6.629-0.784
	C31.343,18.678,31.736,21.326,31.81,24.095z M31.794,26.43c-0.104,2.771-0.526,5.412-1.231,7.778
	c-2.035-0.437-4.228-0.703-6.522-0.761V26.43H31.794z M35.629,38.341c-1.891,1.79-4.162,3.181-6.677,4.039
	c1.219-1.41,2.275-3.249,3.114-5.395C33.34,37.357,34.536,37.81,35.629,38.341z"/>
<polygon points="50.5,26.43 43.642,14.552 36.785,26.43 "/>
</svg>
