<?xml version="1.0" encoding="utf-8"?>
<!-- Generator: Adobe Illustrator 17.1.0, SVG Export Plug-In . SVG Version: 6.00 Build 0)  -->
<!DOCTYPE svg PUBLIC "-//W3C//DTD SVG 1.1//EN" "http://www.w3.org/Graphics/SVG/1.1/DTD/svg11.dtd">
<svg version="1.1" id="Layer_1" xmlns="http://www.w3.org/2000/svg" xmlns:xlink="http://www.w3.org/1999/xlink" x="0px" y="0px"
	 height="50px" width="50px" viewBox="0 0 50 50" enable-background="new 0 0 50 50" xml:space="preserve">
<path fill="#59B4D9" d="M30.4,39c0,0.8-0.6,1.4-1.4,1.4H13.2c-0.8,0-1.4-0.6-1.4-1.4c0-0.8,0.6-1.4,1.4-1.4H29
	C29.8,37.6,30.4,38.2,30.4,39"/>
<path fill="#59B4D9" d="M38.1,22.9c0,0.8-0.6,1.4-1.4,1.4H13.2c-0.8,0-1.4-0.6-1.4-1.4c0-0.8,0.6-1.4,1.4-1.4h23.6
	C37.5,21.6,38.1,22.2,38.1,22.9"/>
<path fill="#59B4D9" d="M38.1,31c0,0.8-0.6,1.4-1.4,1.4H13.2c-0.8,0-1.4-0.6-1.4-1.4c0-0.7,0.6-1.4,1.4-1.4h23.6
	C37.5,29.6,38.1,30.2,38.1,31"/>
<path fill="#59B4D9" d="M6.2,46.4l0-42.9h28.7l-3.5-3.5H5.1c-1.1,0-2.3,1.2-2.3,2.4v45c0,1.2,1.2,2.4,2.3,2.4h39.7
	c1.2,0,2.3-1.2,2.3-2.4V15.8l-3.4-3.4v34L6.2,46.4z"/>
<path fill="#59B4D9" d="M31.5,0.1v13.3c0,1.2,1.2,2.4,2.3,2.4h13.4L31.5,0.1z"/>
</svg>
