<?xml version="1.0" encoding="utf-8"?>
<!-- Generator: Adobe Illustrator 17.1.0, SVG Export Plug-In . SVG Version: 6.00 Build 0)  -->
<!DOCTYPE svg PUBLIC "-//W3C//DTD SVG 1.1//EN" "http://www.w3.org/Graphics/SVG/1.1/DTD/svg11.dtd">
<svg version="1.1" id="Layer_1" xmlns="http://www.w3.org/2000/svg" xmlns:xlink="http://www.w3.org/1999/xlink" x="0px" y="0px"
	 height="16px" width="16px" viewBox="0 0 16 16" enable-background="new 0 0 16 16" xml:space="preserve">
<path d="M15,10.9c0.6,0,1-0.5,1-1.1V1.1c0-0.6-0.3-1.1-1-1.1H5C4.3,0,4,0.5,4,1.1v8.7c0,0.6,0.3,1.1,1,1.1H15z M5.5,9.4V3h8.9v6.4
	H5.5z"/>
<path d="M11,14.9c0.6,0,1-0.5,1-1.1V5.1c0-0.6-0.3-1.1-1-1.1H1C0.3,4,0,4.5,0,5.1v8.7c0,0.6,0.3,1.1,1,1.1H11z M1.5,13.4V7h8.9v6.4
	H1.5z"/>
</svg>
