<?xml version="1.0" encoding="utf-8"?>
<!-- Generator: Adobe Illustrator 17.0.1, SVG Export Plug-In . SVG Version: 6.00 Build 0)  -->
<!DOCTYPE svg PUBLIC "-//W3C//DTD SVG 1.1//EN" "http://www.w3.org/Graphics/SVG/1.1/DTD/svg11.dtd">
<svg version="1.1" id="Layer_1" xmlns="http://www.w3.org/2000/svg" xmlns:xlink="http://www.w3.org/1999/xlink" x="0px" y="0px"
	 width="50px" height="50px" viewBox="-0.5 0.5 50 50" enable-background="new -0.5 0.5 50 50" xml:space="preserve">
<path fill="#59B4D9" d="M42.63,22.172c0.249-0.976,0.386-1.985,0.386-3.006c0-4.03-1.973-7.582-5.021-9.731l-4.781,8.054
	c-0.196,0.303-0.045,0.555,0.32,0.555l6.134-0.039c0.353-0.012,0.442,0.208,0.205,0.472L24.041,36.535
	c-0.234,0.27-0.329,0.226-0.187-0.104l4.997-12.202c0.116-0.323-0.05-0.591-0.41-0.591h-4.864c-0.347,0-0.537-0.252-0.401-0.599
	l5.825-15.541c-3.935,0.742-7.17,3.448-8.677,7.054c-1.525-1.804-3.81-2.959-6.359-2.959c-4.597,0-8.342,3.76-8.342,8.404
	c0,0.813,0.116,1.57,0.32,2.297C2.189,23.689-0.5,27.33-0.5,31.594c0,5.463,4.398,9.906,9.831,9.906h30.334
	c5.448,0,9.834-4.436,9.834-9.906C49.512,27.17,46.624,23.431,42.63,22.172z"/>
</svg>
