<?xml version="1.0" encoding="utf-8"?>
<!-- Generator: Adobe Illustrator 17.1.0, SVG Export Plug-In . SVG Version: 6.00 Build 0)  -->
<!DOCTYPE svg PUBLIC "-//W3C//DTD SVG 1.1//EN" "http://www.w3.org/Graphics/SVG/1.1/DTD/svg11.dtd">
<svg version="1.1" id="Layer_1" xmlns="http://www.w3.org/2000/svg" xmlns:xlink="http://www.w3.org/1999/xlink" x="0px" y="0px"
	 height="16px" width="16px" viewBox="0 0 16 16" enable-background="new 0 0 16 16" xml:space="preserve">
<g>
	<g>
		<polygon points="0,0 7,0 7,7 		"/>
		<path d="M7.7,16C3.5,15.9,0,12.4,0,8.2c0-2.5,1.2-4.7,3-6.1l1.7,1.7C3.2,4.7,2.3,6.3,2.3,8.2c0,3,2.4,5.4,5.4,5.5
			c3,0,5.4-2.3,5.4-5.3c0-1.9-1-3.6-2.4-4.6l1.6-1.6c1.9,1.4,3,3.8,3,6.3C15.2,12.7,11.9,16.1,7.7,16z"/>
	</g>
</g>
</svg>
