<?xml version="1.0" encoding="utf-8"?>
<!-- Generator: Adobe Illustrator 17.1.0, SVG Export Plug-In . SVG Version: 6.00 Build 0)  -->
<!DOCTYPE svg PUBLIC "-//W3C//DTD SVG 1.1//EN" "http://www.w3.org/Graphics/SVG/1.1/DTD/svg11.dtd">
<svg version="1.1" id="Layer_1" xmlns="http://www.w3.org/2000/svg" xmlns:xlink="http://www.w3.org/1999/xlink" x="0px" y="0px"
	 width="24px" height="24px" viewBox="0 0 24 24" enable-background="new 0 0 24 24" xml:space="preserve">
<path d="M20.6,10.3h-5.2V8.9h1.7V3.8l-1.7,0.4V2.7L18.9,2v6.9h1.7V10.3z"/>
<path d="M18.6,13c-0.2,3.5-3,6.2-6.5,6.1C8.5,19,5.5,16,5.5,12.4c0-2.1,1-4,2.6-5.2l3.3,3.1v-8H3l3,3C4,7,2.7,9.6,2.7,12.4
	c0,5.2,4.2,9.5,9.4,9.6c5.1,0.1,9.1-3.9,9.2-9H18.6z"/>
</svg>
