<svg version="1.1" id="Layer_1" xmlns="http://www.w3.org/2000/svg" xmlns:xlink="http://www.w3.org/1999/xlink" x="0px" y="0px"
	 viewBox="0 0 16 16" enable-background="new 0 0 16 16" xml:space="preserve">
<g>
	<path d="M11.6,5.4L11.6,5.4l-3.3,0l2.4-2.3L8.6,3.1L5,6.3l3.4,3.1l2.4,0L8.3,7.2l3.3,0v0l0,0c1.4,0,2.6,1.1,2.6,2.5s-1,2.5-2.4,2.5
		h0l0,2c0,0-0.1-0.1-0.1-0.1c2.4,0,4.3-2,4.3-4.4C16,7.4,14,5.4,11.6,5.4z"/>
	<path fill-rule="evenodd" clip-rule="evenodd" d="M5.1,4.2L5,3.7H1.8v5.7H5V8.9l1.6,1.2l0.1,0.5c0,0.4-0.2,0.5-0.5,0.5H1.4
		C1,11.1,0,10.1,0,9.7V3.5C0,3.1,1.1,2,1.5,2h4.7c0.4,0,0.5,0.1,0.5,0.5L6.8,3L5.1,4.2L5.1,4.2z"/>
</g>
</svg>
