<svg version="1.1" id="Layer_1" xmlns="http://www.w3.org/2000/svg" xmlns:xlink="http://www.w3.org/1999/xlink" x="0px" y="0px"
	 height="16px" width="16px" viewBox="0 0 16 16" enable-background="new 0 0 16 16" xml:space="preserve">
<path d="M8.2,14.8c0.2,0,0.2-0.2,0.1-0.3l-1.9-1.9c-0.1-0.1-0.3-0.1-0.3,0.1l-1.1,3c-0.1,0.2,0.1,0.3,0.3,0.3L8.2,14.8z"/>
<path d="M15.3,5.7c-1.4-1.4-1.9-0.2-1.9-0.2C13.2,5.6,13,5.8,12.8,6c-0.1,0.1-0.1,0.3,0,0.6l1.7,1.7c0.1,0.1,0.4,0.1,0.6,0
	c0.1-0.1,0.3-0.4,0.5-0.6C15.6,7.6,16.7,7,15.3,5.7z"/>
<path d="M10,13.3c-0.1,0.1-0.4,0.1-0.6,0l-1.8-1.8c-0.1-0.1-0.1-0.3,0-0.5l3.7-3.6c0.1-0.1,0.4-0.1,0.6,0l1.7,1.7
	c0.1,0.1,0.1,0.4,0,0.6L10,13.3z"/>
<path d="M8.4,7.7L12,4.1V1.2C12,0.5,11.7,0,11,0H1C0.3,0,0,0.5,0,1.2v9.6C0,11.5,0.3,12,1,12h0.6V8.5c0-0.4,0.3-0.8,0.8-0.8H8.4z
	 M1.6,4.6V2.3c0-0.4,0.3-0.8,0.8-0.8h7.2c0.4,0,0.8,0.4,0.8,0.9v2.3c0,0.4-0.3,0.7-0.8,0.7H2.4C2,5.4,1.6,5.1,1.6,4.6z"/>
<polygon points="6,10.1 6,10 3,10 3,12 4.1,12 "/>
</svg>
