<?xml version="1.0" encoding="utf-8"?>
<!-- Generator: Adobe Illustrator 17.1.0, SVG Export Plug-In . SVG Version: 6.00 Build 0)  -->
<!DOCTYPE svg PUBLIC "-//W3C//DTD SVG 1.1//EN" "http://www.w3.org/Graphics/SVG/1.1/DTD/svg11.dtd">
<svg version="1.1" id="Layer_1" xmlns="http://www.w3.org/2000/svg" xmlns:xlink="http://www.w3.org/1999/xlink" x="0px" y="0px"
	 height="16px" width="16px" viewBox="0 0 16 16" enable-background="new 0 0 16 16" xml:space="preserve">
<path d="M15,4H5C4.3,4,4,4.5,4,5.2v9.6C4,15.5,4.3,16,5,16h0.6v-3.5c0-0.4,0.3-0.8,0.8-0.8h7.2c0.4,0,0.8,0.3,0.8,0.8V16H15
	c0.7,0,1-0.5,1-1.2V5.2C16,4.5,15.7,4,15,4z M14.4,8.7c0,0.4-0.3,0.7-0.8,0.7H6.4C6,9.4,5.6,9.1,5.6,8.6V6.3c0-0.4,0.3-0.8,0.8-0.8
	h7.2c0.4,0,0.8,0.4,0.8,0.9V8.7L14.4,8.7z"/>
<path d="M12,0.8C12,0.3,11.8,0,11.3,0H1C0.6,0,0,0.5,0,1v10.2C0,11.7,0.2,12,0.7,12h0.4V1.5C1.1,1.3,1.3,1,1.6,1h8.8H12V0.8z"/>
<path d="M14,2.8C14,2.3,13.8,2,13.3,2H3C2.5,2,2,2.5,2,3v10.2C2,13.7,2.2,14,2.7,14h0.4V3.5C3.1,3.3,3.3,3,3.6,3h8.8H14V2.8z"/>
<rect x="7.6" y="14.4" width="2.4" height="1.6"/>
</svg>
