<?xml version="1.0" encoding="utf-8"?>
<!-- Generator: Adobe Illustrator 17.1.0, SVG Export Plug-In . SVG Version: 6.00 Build 0)  -->
<!DOCTYPE svg PUBLIC "-//W3C//DTD SVG 1.1//EN" "http://www.w3.org/Graphics/SVG/1.1/DTD/svg11.dtd">
<svg version="1.1" id="Layer_1" xmlns="http://www.w3.org/2000/svg" xmlns:xlink="http://www.w3.org/1999/xlink" x="0px" y="0px"
	 height="16px" width="16px" viewBox="0 0 16 16" enable-background="new 0 0 16 16" xml:space="preserve">
<g>
	<path d="M14.4,0H1.6C0.7,0,0,0.7,0,1.6v12.8C0,15.3,0.7,16,1.6,16L3,16v-5c0-0.6,0.5-1.1,1.1-1.1l7.9,0c0.6,0,1.1,0.5,1.1,1.1v5
		h1.3c0.9,0,1.6-0.7,1.6-1.6V1.6C16,0.7,15.3,0,14.4,0z M13.1,6.2c0,0.6-0.5,1-1.1,1l-7.9,0C3.5,7.2,3,6.7,3,6.1L2.9,2.9
		c0-0.6,0.5-1.1,1.1-1.1l7.9,0C12.5,1.8,13,2.4,13,3L13.1,6.2L13.1,6.2z"/>
	<polygon points="5,13 8,13 8,16 5,16 	"/>
</g>
</svg>
