<?xml version="1.0" encoding="utf-8"?>
<!-- Generator: Adobe Illustrator 17.1.0, SVG Export Plug-In . SVG Version: 6.00 Build 0)  -->
<!DOCTYPE svg PUBLIC "-//W3C//DTD SVG 1.1//EN" "http://www.w3.org/Graphics/SVG/1.1/DTD/svg11.dtd">
<svg version="1.1" id="Layer_1" xmlns="http://www.w3.org/2000/svg" xmlns:xlink="http://www.w3.org/1999/xlink" x="0px" y="0px"
	 viewBox="0 0 16 16" enable-background="new 0 0 16 16" xml:space="preserve">
<path d="M12.9,3.2c-0.4-0.4-1.1-0.4-1.5,0c-0.4,0.4-0.4,1.1,0,1.5l0,0c1,1,1.4,2.2,1.4,3.4c0,1.2-0.5,2.5-1.4,3.4
	c-1,1-2.2,1.4-3.4,1.4c-1.2,0-2.5-0.5-3.4-1.4c-1-1-1.4-2.2-1.4-3.4c0-1.2,0.5-2.5,1.4-3.4C5,4.3,5,3.7,4.6,3.2
	c-0.4-0.4-1.1-0.4-1.5,0C1.7,4.6,1,6.4,1,8.2c0,1.8,0.7,3.6,2,4.9c1.4,1.4,3.2,2,4.9,2h0c1.8,0,3.6-0.7,4.9-2c1.4-1.4,2-3.2,2-4.9
	C15,6.4,14.3,4.6,12.9,3.2z M8,9.2c0.6,0,1.1-0.5,1.1-1.1V1.8c0-0.6-0.5-1.1-1.1-1.1c-0.6,0-1.1,0.5-1.1,1.1v6.4
	C6.9,8.8,7.4,9.2,8,9.2z"/>
</svg>
