<svg viewBox="0 0 24 24">
<path d="M20.6,10.6h-5.5V9.2l2.4-2.3c0.5-0.5,0.9-0.9,1-1.2c0.2-0.3,0.3-0.6,0.3-1c0-0.8-0.4-1.2-1.2-1.2c-0.7,0-1.4,0.3-2.1,0.9
	V2.8C16.2,2.3,17,2.1,18,2.1c0.9,0,1.6,0.2,2.1,0.7c0.4,0.4,0.7,1,0.7,1.7c0,1-0.6,2-1.8,3l-1.7,1.5v0h3.4V10.6z"/>
<path d="M4.8,11.8c0-2.1,1-3.9,2.5-5.1l3.3,3.1V2H2.2l3,2.8C3.3,6.5,2,9,2,11.8c0,4.9,3.8,9,8.6,9.4v-2.8C7.3,18,4.8,15.2,4.8,11.8z
	"/>
<path d="M19.2,12.2c0,2.1-1,3.9-2.5,5.1l-3.3-3.1V22h8.3l-3-2.8c2-1.7,3.2-4.1,3.2-7L19.2,12.2z"/>
</svg>
