<?xml version="1.0" encoding="utf-8"?>
<!-- Generator: Adobe Illustrator 17.0.1, SVG Export Plug-In . SVG Version: 6.00 Build 0)  -->
<!DOCTYPE svg PUBLIC "-//W3C//DTD SVG 1.1//EN" "http://www.w3.org/Graphics/SVG/1.1/DTD/svg11.dtd">
<svg version="1.1" id="Layer_1" xmlns="http://www.w3.org/2000/svg" xmlns:xlink="http://www.w3.org/1999/xlink" x="0px" y="0px"
	 width="50px" height="50px" viewBox="0 0 50 50" enable-background="new 0 0 50 50" xml:space="preserve">
<path fill="#59B4D9" d="M47.794,10.559H13.919c-1.218,0-2.206,0.988-2.206,2.206s0.988,2.206,2.206,2.206h33.875
	c1.218,0,2.206-0.988,2.206-2.206S49.012,10.559,47.794,10.559z"/>
<path fill="#59B4D9" d="M47.794,23.735H13.919c-1.218,0-2.206,0.988-2.206,2.206s0.988,2.206,2.206,2.206h33.875
	c1.218,0,2.206-0.988,2.206-2.206S49.012,23.735,47.794,23.735z"/>
<path fill="#59B4D9" d="M47.794,36.912H13.919c-1.218,0-2.206,0.988-2.206,2.206c0,1.218,0.988,2.206,2.206,2.206h33.875
	c1.218,0,2.206-0.988,2.206-2.206C50,37.899,49.012,36.912,47.794,36.912z"/>
<path fill="#59B4D9" d="M2.153,17.176v-7.055c-0.319,0.187-0.649,0.329-0.991,0.427S0.433,10.719,0,10.764V8.577
	c0.615-0.105,1.188-0.27,1.719-0.496C2.25,7.855,2.794,7.547,3.35,7.155h1.716v10.021H2.153z"/>
<path fill="#59B4D9" d="M0.068,31.176V30.39c0-0.556,0.068-1.039,0.205-1.449s0.352-0.795,0.646-1.155
	c0.293-0.36,0.805-0.822,1.534-1.388c0.52-0.41,0.864-0.705,1.036-0.885c0.17-0.18,0.298-0.354,0.383-0.523
	c0.084-0.168,0.126-0.351,0.126-0.547c0-0.652-0.392-0.978-1.176-0.978c-0.798,0-1.552,0.29-2.263,0.868v-2.386
	c0.542-0.273,1.049-0.462,1.521-0.567c0.471-0.105,0.955-0.157,1.452-0.157c1.066,0,1.892,0.253,2.475,0.759s0.875,1.219,0.875,2.14
	c0,0.707-0.152,1.306-0.458,1.797c-0.306,0.492-0.873,1.005-1.702,1.538c-0.634,0.41-1.054,0.71-1.261,0.898
	c-0.208,0.189-0.313,0.351-0.318,0.482h3.828v2.338H0.068z"/>
<path fill="#59B4D9" d="M6.836,42.373c0,0.943-0.342,1.675-1.025,2.194s-1.661,0.779-2.933,0.779c-0.474,0-0.943-0.04-1.408-0.12
	c-0.465-0.079-0.863-0.186-1.196-0.317v-2.283c0.306,0.183,0.654,0.326,1.046,0.431s0.788,0.157,1.189,0.157
	c0.465,0,0.821-0.083,1.069-0.249c0.249-0.167,0.373-0.405,0.373-0.715c0-0.314-0.152-0.561-0.458-0.738s-0.731-0.267-1.278-0.267
	H1.271v-2.146h0.834c0.552,0,0.958-0.085,1.221-0.257c0.262-0.17,0.393-0.393,0.393-0.666c0-0.26-0.1-0.465-0.297-0.615
	c-0.199-0.15-0.503-0.226-0.913-0.226c-0.634,0-1.267,0.183-1.9,0.547v-2.181c0.793-0.328,1.627-0.492,2.502-0.492
	c1.085,0,1.935,0.221,2.55,0.663s0.923,1.055,0.923,1.839c0,0.61-0.165,1.123-0.495,1.538c-0.331,0.415-0.795,0.686-1.392,0.813
	v0.034c0.661,0.091,1.183,0.343,1.565,0.755C6.645,41.265,6.836,41.771,6.836,42.373z"/>
</svg>
