<?xml version="1.0" encoding="utf-8"?>
<!-- Generator: Adobe Illustrator 17.0.1, SVG Export Plug-In . SVG Version: 6.00 Build 0)  -->
<!DOCTYPE svg PUBLIC "-//W3C//DTD SVG 1.1//EN" "http://www.w3.org/Graphics/SVG/1.1/DTD/svg11.dtd">
<svg version="1.1" id="Layer_1" xmlns="http://www.w3.org/2000/svg" xmlns:xlink="http://www.w3.org/1999/xlink" x="0px" y="0px"
	 width="21px" height="21px" viewBox="0 0 21 21" enable-background="new 0 0 21 21" xml:space="preserve">
<path fill="#1E1E1E" d="M2.832,9.563C2.654,9.661,2.42,9.71,2.129,9.71c-0.823,0-1.234-0.459-1.234-1.377V5.552H0.087V4.909h0.808
	V3.762l0.752-0.243v1.391h1.184v0.643H1.647V8.2c0,0.315,0.054,0.54,0.161,0.675s0.285,0.202,0.533,0.202
	c0.189,0,0.353-0.052,0.491-0.156V9.563z"/>
<path fill="#1E1E1E" d="M7.738,9.609H6.986V6.901c0-0.979-0.364-1.469-1.092-1.469c-0.367,0-0.676,0.142-0.927,0.425
	S4.59,6.504,4.59,6.947v2.662H3.837V2.651H4.59v3.038h0.019C4.969,5.096,5.483,4.799,6.15,4.799c1.059,0,1.588,0.639,1.588,1.914
	V9.609z"/>
<path fill="#1E1E1E" d="M9.542,3.716c-0.135,0-0.25-0.046-0.344-0.138S9.056,3.37,9.056,3.229s0.047-0.258,0.142-0.352
	c0.095-0.093,0.209-0.14,0.344-0.14c0.138,0,0.255,0.047,0.351,0.14c0.096,0.094,0.145,0.211,0.145,0.352
	c0,0.135-0.048,0.249-0.145,0.345C9.797,3.669,9.68,3.716,9.542,3.716z M9.909,9.609H9.156v-4.7h0.753V9.609z"/>
<path fill="#1E1E1E" d="M11.149,9.439V8.632c0.41,0.303,0.861,0.454,1.354,0.454c0.661,0,0.991-0.22,0.991-0.661
	c0-0.125-0.028-0.231-0.085-0.318c-0.057-0.088-0.133-0.165-0.229-0.232c-0.096-0.066-0.209-0.127-0.339-0.181
	c-0.13-0.054-0.271-0.109-0.42-0.168c-0.208-0.082-0.391-0.166-0.548-0.25s-0.289-0.179-0.395-0.284s-0.186-0.226-0.239-0.36
	c-0.054-0.135-0.081-0.292-0.081-0.473c0-0.221,0.051-0.416,0.152-0.586c0.101-0.17,0.235-0.312,0.404-0.427
	c0.168-0.114,0.36-0.201,0.576-0.259c0.216-0.059,0.438-0.088,0.668-0.088c0.407,0,0.771,0.071,1.092,0.212v0.762
	c-0.346-0.227-0.743-0.34-1.193-0.34c-0.141,0-0.268,0.016-0.381,0.048s-0.21,0.078-0.292,0.136
	c-0.081,0.059-0.144,0.128-0.188,0.209s-0.066,0.171-0.066,0.269c0,0.122,0.022,0.225,0.066,0.308
	c0.044,0.082,0.109,0.156,0.195,0.22c0.086,0.064,0.19,0.123,0.313,0.175c0.122,0.052,0.261,0.108,0.417,0.17
	c0.208,0.079,0.395,0.161,0.56,0.245c0.165,0.084,0.306,0.18,0.422,0.285c0.116,0.105,0.206,0.227,0.268,0.364
	c0.063,0.138,0.094,0.302,0.094,0.491c0,0.232-0.051,0.435-0.154,0.606c-0.103,0.171-0.239,0.313-0.411,0.427
	s-0.369,0.197-0.592,0.252c-0.223,0.056-0.458,0.083-0.702,0.083C11.923,9.72,11.503,9.626,11.149,9.439z"/>
<path fill="#1E1E1E" d="M6.572,16.189l-1.409,4.7h-0.78l-0.969-3.364c-0.037-0.129-0.061-0.273-0.073-0.437H3.323
	c-0.009,0.11-0.041,0.253-0.096,0.428L2.175,20.89H1.423L0,16.189h0.789l0.973,3.534c0.031,0.107,0.052,0.248,0.064,0.423h0.037
	c0.009-0.135,0.037-0.278,0.083-0.432l1.083-3.525h0.688l0.973,3.544c0.031,0.113,0.054,0.254,0.069,0.422h0.037
	c0.006-0.119,0.032-0.26,0.078-0.422l0.955-3.544H6.572z"/>
<path fill="#1E1E1E" d="M11.176,18.728H7.857c0.012,0.523,0.153,0.928,0.422,1.212c0.27,0.284,0.64,0.427,1.111,0.427
	c0.529,0,1.016-0.174,1.459-0.523v0.707C10.437,20.85,9.891,21,9.211,21c-0.664,0-1.186-0.214-1.565-0.641s-0.569-1.027-0.569-1.802
	c0-0.73,0.208-1.327,0.622-1.787c0.415-0.461,0.93-0.691,1.544-0.691c0.615,0,1.091,0.199,1.428,0.597
	c0.336,0.398,0.505,0.95,0.505,1.657V18.728z M10.405,18.09c-0.003-0.435-0.108-0.772-0.314-1.015
	c-0.207-0.241-0.493-0.362-0.86-0.362c-0.355,0-0.656,0.127-0.904,0.381c-0.248,0.254-0.401,0.586-0.459,0.996H10.405z"/>
<path fill="#1E1E1E" d="M16.092,18.728h-3.319c0.012,0.523,0.153,0.928,0.422,1.212c0.27,0.284,0.64,0.427,1.111,0.427
	c0.529,0,1.016-0.174,1.459-0.523v0.707c-0.413,0.3-0.959,0.45-1.639,0.45c-0.664,0-1.186-0.214-1.565-0.641
	s-0.569-1.027-0.569-1.802c0-0.73,0.208-1.327,0.622-1.787c0.415-0.461,0.93-0.691,1.544-0.691c0.615,0,1.091,0.199,1.428,0.597
	c0.336,0.398,0.505,0.95,0.505,1.657V18.728z M15.32,18.09c-0.003-0.435-0.108-0.772-0.314-1.015
	c-0.207-0.241-0.493-0.362-0.86-0.362c-0.355,0-0.656,0.127-0.904,0.381c-0.248,0.254-0.401,0.586-0.459,0.996H15.32z"/>
<path fill="#1E1E1E" d="M21.131,20.89h-1.056l-2.074-2.258h-0.019v2.258H17.23v-6.958h0.753v4.411h0.019l1.974-2.153h0.987
	l-2.18,2.268L21.131,20.89z"/>
</svg>
