<?xml version="1.0" encoding="utf-8"?>
<!-- Generator: Adobe Illustrator 17.1.0, SVG Export Plug-In . SVG Version: 6.00 Build 0)  -->
<!DOCTYPE svg PUBLIC "-//W3C//DTD SVG 1.1//EN" "http://www.w3.org/Graphics/SVG/1.1/DTD/svg11.dtd">
<svg version="1.1" id="Layer_1" xmlns="http://www.w3.org/2000/svg" xmlns:xlink="http://www.w3.org/1999/xlink" x="0px" y="0px"
	 height="16px" width="16px" viewBox="0 0 16 16" enable-background="new 0 0 16 16" xml:space="preserve">
<g id="_x31_9_black_2_">
	<path d="M13.8,8c-0.2-1-1.5-2.1-3.5-3.3C8.8,3.9,7.8,2.1,7.5,1.2C7-0.4,5.7-0.3,5.6,0.9C5.5,2.1,5.7,3.3,6.2,4c0.5,0.7,1.3,2,1.3,2
		S3.3,6.4,1.8,6.6C1.2,6.7,0.9,7.7,1.3,8.3c0.1,0.2,0.5,1,0.6,1.2c0.1,0.3,0.2,1.3,0.3,1.6c0.2,0.7,0.7,1.1,1,1.6
		c0.3,0.6,0.3,1,0.6,1.5C4.4,15.1,4.9,16,5.9,16c1.8,0,7.1,0,7.9-0.4c0,0,1.5-0.5,1.9-0.5H16V8H13.8z"/>
</g>
</svg>
