<?xml version="1.0" encoding="utf-8"?>
<!-- Generator: Adobe Illustrator 17.1.0, SVG Export Plug-In . SVG Version: 6.00 Build 0)  -->
<!DOCTYPE svg PUBLIC "-//W3C//DTD SVG 1.1//EN" "http://www.w3.org/Graphics/SVG/1.1/DTD/svg11.dtd">
<svg version="1.1" id="Layer_1" xmlns="http://www.w3.org/2000/svg" xmlns:xlink="http://www.w3.org/1999/xlink" x="0px" y="0px"
	 height="16px" width="16px" viewBox="0 0 16 16" enable-background="new 0 0 16 16" xml:space="preserve">
<g id="_x31_9_black_2_">
	<path d="M2.2,8c0.2,1,1.5,2.1,3.5,3.3c1.5,0.9,2.5,2.6,2.8,3.5c0.5,1.7,1.8,1.5,1.9,0.3c0.1-1.2-0.2-2.4-0.7-3.1
		c-0.5-0.7-1.3-2-1.3-2s4.3-0.4,5.8-0.6c0.5-0.1,0.8-1.1,0.4-1.7c-0.1-0.2-0.5-1-0.6-1.2c-0.1-0.3-0.2-1.3-0.3-1.6
		c-0.2-0.7-0.7-1.1-1-1.6c-0.3-0.6-0.3-1-0.6-1.5C11.6,0.9,11.1,0,10.1,0C8.4,0,3,0,2.2,0.4c0,0-1.5,0.5-1.9,0.5H0V8H2.2z"/>
</g>
</svg>
