<?xml version="1.0" encoding="utf-8"?>
<!-- Generator: Adobe Illustrator 17.1.0, SVG Export Plug-In . SVG Version: 6.00 Build 0)  -->
<!DOCTYPE svg PUBLIC "-//W3C//DTD SVG 1.1//EN" "http://www.w3.org/Graphics/SVG/1.1/DTD/svg11.dtd">
<svg version="1.1" id="Layer_1" xmlns="http://www.w3.org/2000/svg" xmlns:xlink="http://www.w3.org/1999/xlink" x="0px" y="0px"
	 width="50px" height="50px" viewBox="0 0 50 50" enable-background="new 0 0 50 50" xml:space="preserve">
<path fill="#59B4D9" d="M41.2,11.2l0.5,0.5l2.5-2.1l4.2-6.9l-1.1-1.1L40.7,6l-2,2.6l0.5,0.5L26.1,22.6l-2.7-2.8l-3,3.1
	c0.2,1.5-0.3,3.1-1.4,4.3s-2.7,1.7-4.1,1.5L1.6,42.3L9,50l13.2-13.7c-0.2-1.5,0.3-3.1,1.5-4.3c1.1-1.2,2.7-1.7,4.1-1.5l3-3.1
	l-2.7-2.8L41.2,11.2z"/>
<path fill="#59B4D9" d="M40,46c1.9,2,5,2,6.9,0c1-1,1.4-2.3,1.4-3.6c0-1.3-0.5-2.6-1.4-3.6L32.1,23.6l-1.4,1.5l2.7,2.8L32.2,29
	l-3,3.1l-0.4,0.4l-0.6-0.1c-0.4,0-0.9,0-1.3,0.1L40,46z"/>
<path fill="#59B4D9" d="M20.3,3.1c-2.7-2.8-6.6-3.7-10-2.8l5.9,6l-1.5,5.9l-5.8,1.6l-5.8-6c-0.9,3.6,0,7.5,2.7,10.3
	c2.7,2.8,6.6,3.7,10.1,2.7l0.2,0.2l2.7,2.8c0.1-0.3,0.1-0.6,0.1-0.9c0-0.2,0-0.3,0-0.5L18.7,22l4.5-4.7l0.8,0.9l1.8,1.9l1.4-1.5
	L22.9,14l0,0C24,10.3,23.2,6.1,20.3,3.1z"/>
</svg>
