<?xml version="1.0" encoding="utf-8"?>
<!-- Generator: Adobe Illustrator 17.1.0, SVG Export Plug-In . SVG Version: 6.00 Build 0)  -->
<!DOCTYPE svg PUBLIC "-//W3C//DTD SVG 1.1//EN" "http://www.w3.org/Graphics/SVG/1.1/DTD/svg11.dtd">
<svg version="1.1" id="Layer_1" xmlns="http://www.w3.org/2000/svg" xmlns:xlink="http://www.w3.org/1999/xlink" x="0px" y="0px"
	 height="16px" width="16px" viewBox="0 0 16 16" enable-background="new 0 0 16 16" xml:space="preserve">
<path d="M15.1,6.6c0,1.7-0.8,3.3-2.1,4.4l-5.7,5l-1.5-1.8l5.7-5c0.8-0.6,1.3-1.6,1.3-2.6c0-1.9-1.5-3.4-3.4-3.4
	c-0.8,0-1.6,0.3-2.2,0.8L4.7,6H9L7.4,7.9H1V1.6L3,0v4.3l2.6-2.2c1-0.9,2.4-1.4,3.8-1.4C12.4,0.8,15.1,3.4,15.1,6.6z"/>
</svg>
