<?xml version="1.0" encoding="utf-8"?>
<!-- Generator: Adobe Illustrator 17.1.0, SVG Export Plug-In . SVG Version: 6.00 Build 0)  -->
<!DOCTYPE svg PUBLIC "-//W3C//DTD SVG 1.1//EN" "http://www.w3.org/Graphics/SVG/1.1/DTD/svg11.dtd">
<svg version="1.1" id="Layer_1" xmlns="http://www.w3.org/2000/svg" xmlns:xlink="http://www.w3.org/1999/xlink" x="0px" y="0px"
	 height="16px" width="16px" viewBox="0 0 16 16" enable-background="new 0 0 16 16" xml:space="preserve">
<g>
	<path d="M10.8,8H5.2V5.1c0-0.8,0.3-1.8,0.7-2.3C6.4,2.4,7.4,2.1,8,2.1c0.6,0,1.6,0.3,2.1,0.8s0.7,1.2,0.7,2V6h2.4V5
		c0-1.3-0.5-2.6-1.3-3.5C11.1,0.6,9.3,0,8,0S4.9,0.6,4.1,1.5C3.3,2.4,2.8,3.6,2.8,5v3h0C1.6,8,1.2,8.7,1.2,9.6v4.8
		c0,0.8,0.5,1.6,1.4,1.6h10.8c1,0,1.4-0.8,1.4-1.6V9.6c0-0.8-0.3-1.6-1.6-1.6h0H10.8z"/>
</g>
</svg>
