<?xml version="1.0" encoding="utf-8"?>
<!-- Generator: Adobe Illustrator 17.1.0, SVG Export Plug-In . SVG Version: 6.00 Build 0)  -->
<!DOCTYPE svg PUBLIC "-//W3C//DTD SVG 1.1//EN" "http://www.w3.org/Graphics/SVG/1.1/DTD/svg11.dtd">
<svg version="1.1" id="Layer_1" xmlns="http://www.w3.org/2000/svg" xmlns:xlink="http://www.w3.org/1999/xlink" x="0px" y="0px"
	 viewBox="0 0 16 16" enable-background="new 0 0 16 16" xml:space="preserve">
<path fill="#FFFFFF" d="M14.8,9.2c-1.6-1.6-4.1-1.6-5.7,0c-1.6,1.6-1.6,4.1,0,5.7c1.6,1.6,4.1,1.6,5.7,0S16.4,10.7,14.8,9.2z M10,14
	c-1-1-1.1-2.5-0.4-3.6l4,4C12.5,15.1,11,15,10,14z M14.4,13.6l-4-4C11.5,8.9,13,9,14,10C15,11,15.1,12.5,14.4,13.6z"/>
<path fill="#FFFFFF" d="M12.9,6.5l0.7-0.7c0.8,0.1,1.6,0.1,2.4-0.2L10.3,0c-0.2,0.8-0.3,1.6-0.2,2.4L5.9,6.6C4.6,6.1,3.1,6,1.8,6.4
	l3,2.9L0,16l0,0l0,0l6.3-4.5C6.5,10.2,7,9,7.9,8.1C9.3,6.7,11.2,6.2,12.9,6.5z"/>
</svg>
