<?xml version="1.0" encoding="utf-8"?>
<!-- Generator: Adobe Illustrator 19.1.0, SVG Export Plug-In . SVG Version: 6.00 Build 0)  -->
<svg version="1.1" id="Layer_1" xmlns="http://www.w3.org/2000/svg" xmlns:xlink="http://www.w3.org/1999/xlink" x="0px" y="0px"
	 width="16px" height="16px" viewBox="0 0 16 16" style="enable-background:new 0 0 16 16;" xml:space="preserve">
<g>
	<path d="M4.75,16H0V1c0-0.141,0.026-0.271,0.078-0.391C0.13,0.49,0.202,0.384,0.293,0.293C0.384,0.202,0.489,0.13,0.609,0.078
		C0.729,0.026,0.859,0,1,0h6c0.141,0,0.271,0.026,0.391,0.078c0.12,0.052,0.226,0.124,0.316,0.215
		C7.798,0.384,7.87,0.49,7.922,0.609C7.974,0.729,8,0.859,8,1v6.854L7,8.333V1H1v14h2.083L4.75,16z M11.999,15.001h1.002
		c0.277,0,0.536-0.052,0.779-0.157c0.243-0.104,0.454-0.248,0.634-0.431c0.18-0.182,0.322-0.395,0.427-0.638
		s0.157-0.502,0.157-0.779c0-0.287-0.054-0.553-0.16-0.799c-0.107-0.245-0.254-0.457-0.442-0.634
		c-0.188-0.177-0.406-0.316-0.654-0.415c-0.248-0.099-0.513-0.149-0.795-0.149c-0.063-0.428-0.196-0.826-0.399-1.194
		s-0.458-0.685-0.763-0.951c-0.305-0.266-0.654-0.475-1.045-0.626c-0.391-0.151-0.803-0.227-1.237-0.227
		c-0.396,0-0.778,0.064-1.143,0.192c-0.365,0.128-0.697,0.308-0.994,0.54c-0.297,0.232-0.553,0.509-0.767,0.83
		c-0.214,0.321-0.371,0.672-0.47,1.053c-0.23-0.198-0.482-0.351-0.759-0.458c-0.277-0.107-0.567-0.16-0.869-0.16
		c-0.344,0-0.668,0.066-0.971,0.196c-0.302,0.131-0.568,0.309-0.795,0.536s-0.406,0.492-0.536,0.795
		c-0.13,0.303-0.196,0.626-0.196,0.971c0,0.344,0.066,0.669,0.196,0.975c0.13,0.305,0.309,0.572,0.536,0.799
		c0.227,0.227,0.492,0.406,0.795,0.536c0.302,0.131,0.626,0.196,0.971,0.196h0.501H11.999z M4.061,9.028
		C4.134,9.017,4.207,9.01,4.28,9.004c0.073-0.005,0.146-0.008,0.219-0.008c0.387,0,0.767,0.068,1.143,0.204
		c0.324-0.537,0.739-0.989,1.245-1.354C7.393,7.48,7.952,7.23,8.563,7.094c0,0,0.375-0.061,0.557-0.077C9.313,7,9.643,7,9.643,7
		c0.47,0.016,0.92,0.102,1.35,0.258s0.827,0.371,1.19,0.642c0.363,0.272,0.68,0.594,0.951,0.967c0.271,0.373,0.48,0.782,0.626,1.225
		c0.329,0.089,0.63,0.226,0.904,0.411c0.274,0.185,0.51,0.407,0.709,0.665s0.352,0.543,0.462,0.853
		C15.945,12.333,16,12.658,16,12.997c0,0.412-0.078,0.801-0.235,1.166c-0.157,0.366-0.371,0.684-0.642,0.955
		c-0.271,0.272-0.59,0.487-0.955,0.646C13.803,15.924,13.414,16,13.002,16h-1.002H5.001H4.499c-0.485,0-0.939-0.089-1.362-0.275
		c-0.423-0.185-0.794-0.435-1.112-0.752c-0.318-0.315-0.569-0.686-0.752-1.112C1.091,13.437,1,12.981,1,12.496
		c0-0.344,0.05-0.68,0.149-1.006c0.099-0.326,0.24-0.629,0.423-0.908c0.183-0.279,0.402-0.528,0.658-0.748s0.543-0.399,0.861-0.54
		c0,0,0.321-0.135,0.488-0.18C3.764,9.063,4.061,9.028,4.061,9.028z M2,2h4v1H2V2z M2,4h4v1H2V4z M2,6h4v1H2V6z"/>
</g>
</svg>
