<?xml version="1.0" encoding="utf-8"?>
<!-- Generator: Adobe Illustrator 18.1.1, SVG Export Plug-In . SVG Version: 6.00 Build 0)  -->
<svg version="1.1" xmlns="http://www.w3.org/2000/svg" xmlns:xlink="http://www.w3.org/1999/xlink" x="0px" y="0px" width="128px"
	 height="128px" viewBox="0 0 128 128" style="enable-background:new 0 0 128 128;" xml:space="preserve">
<g id="BASE">
	<linearGradient id="SVGID_1_" gradientUnits="userSpaceOnUse" x1="63.9997" y1="7.0336" x2="63.9997" y2="120.7894">
		<stop  offset="0" style="stop-color:#4387FD"/>
		<stop  offset="1" style="stop-color:#4683EA"/>
	</linearGradient>
	<path style="fill:url(#SVGID_1_);" d="M27.7906,115.2166L1.54,69.7493c-2.0541-3.5578-2.0541-7.9412,0-11.499l26.2506-45.4672
		c2.0541-3.5578,5.8503-5.7495,9.9585-5.7495h52.5012c4.1082,0,7.9044,2.1917,9.9585,5.7495l26.2506,45.4672
		c2.0541,3.5578,2.0541,7.9412,0,11.499l-26.2506,45.4672c-2.0541,3.5578-5.8503,5.7495-9.9585,5.7495H37.7491
		C33.6409,120.9661,29.8448,118.7744,27.7906,115.2166z"/>
</g>
<g id="shadow">
	<g>
		<defs>
			<path id="SVGID_5_" d="M27.7911,115.2166L1.5406,69.7493c-2.0541-3.5578-2.0541-7.9412,0-11.499l26.2505-45.4672
				c2.0541-3.5578,5.8502-5.7495,9.9585-5.7495h52.501c4.1082,0,7.9044,2.1917,9.9585,5.7495l26.2505,45.4672
				c2.0541,3.5578,2.0541,7.9412,0,11.499l-26.2505,45.4672c-2.0541,3.5578-5.8502,5.7495-9.9585,5.7495h-52.501
				C33.6413,120.9661,29.8452,118.7744,27.7911,115.2166z"/>
		</defs>
		<clipPath id="SVGID_2_">
			<use xlink:href="#SVGID_5_"  style="overflow:visible;"/>
		</clipPath>
		<polygon style="opacity:0.07;clip-path:url(#SVGID_2_);" points="121.2031,81.9218 101.2656,61.9843 100.5729,61.7707 
			65.6823,26.8801 58.5202,37.3534 64.5208,43.354 49.25,48.9165 43.2832,64.0956 37.4271,58.2395 26.8775,67.5051 
			81.2681,121.8957 97.6671,122.0415 		"/>
	</g>
</g>
<g id="art">
	<g>
		<path style="fill:#FFFFFF;" d="M63.9988,40.9577c-12.7278,0-23.0452,10.3167-23.0452,23.0464
			c0,12.726,10.3174,23.0463,23.0452,23.0463c12.7273,0,23.0446-10.3203,23.0446-23.0463
			C87.0434,51.2744,76.7261,40.9577,63.9988,40.9577 M63.9988,81.4887c-9.6584,0-17.4876-7.8286-17.4876-17.4846
			c0-9.6584,7.8291-17.4877,17.4876-17.4877c9.6578,0,17.4858,7.8292,17.4858,17.4877
			C81.4846,73.6601,73.6566,81.4887,63.9988,81.4887"/>
		<path style="fill:#FFFFFF;" d="M100.1431,61.274l-9.6079-3.0195c0.3997,1.8539,0.615,3.7759,0.615,5.7478
			c0,1.3791-0.1047,2.7337-0.3021,4.0569h9.295c0.8587-0.2515,1.4327-0.7846,1.4327-1.5765v-3.6345
			C101.5759,62.0575,101.0018,61.5094,100.1431,61.274"/>
		<path style="fill:#FFFFFF;" d="M63.9923,36.8497c1.9303,0,3.8119,0.2046,5.6285,0.5884l-3.4443-9.5729
			c-0.2515-0.8606-0.7852-1.434-1.5765-1.434h-1.4392c-0.7913,0-1.3407,0.5734-1.5761,1.434l-2.9924,9.5236
			C60.3372,37.0368,62.1425,36.8497,63.9923,36.8497"/>
		<path style="fill:#FFFFFF;" d="M36.8468,64.0023c0-1.9719,0.2154-3.8932,0.6145-5.7478l-9.6073,3.0195
			c-0.8587,0.2354-1.4322,0.7835-1.4322,1.5754v3.6344c0,0.7907,0.5735,1.3238,1.4322,1.5753h9.2955
			C36.9515,66.7366,36.8468,65.3814,36.8468,64.0023"/>
		<path style="fill:#FFFFFF;" d="M72.2276,56.4819l-2.1802,2.1794v-0.0048c-1.5651-1.5639-3.6549-2.4274-5.8687-2.4274
			c-2.2192,0-4.303,0.8659-5.8704,2.4322c-3.2362,3.2355-3.2362,8.5037,0,11.7399l-2.1802,2.1783
			c2.0627,2.0609,4.9096,3.3383,8.0483,3.3383c6.2803,0,11.3896-5.1081,11.3896-11.3895
			C75.566,61.3883,74.289,58.5421,72.2276,56.4819 M67.7284,67.7342c-1.0278,1.0302-2.3799,1.5459-3.7284,1.5459
			c-1.3526,0-2.7012-0.5156-3.7313-1.5459c-2.0616-2.0615-2.0616-5.4018,0-7.4639c1.0301-1.0314,2.3787-1.544,3.7313-1.544
			c1.3485,0,2.7006,0.5127,3.7284,1.544C69.79,62.3312,69.79,65.6727,67.7284,67.7342"/>
	</g>
</g>
<g id="Guides" style="display:none;">
</g>
</svg>
