<svg xmlns="http://www.w3.org/2000/svg" xmlns:xlink="http://www.w3.org/1999/xlink" width="128" height="128" viewBox="0 0 128 128"><defs><linearGradient id="a" x1="63.9997" y1="7.0336" x2="63.9997" y2="120.7894" gradientUnits="userSpaceOnUse"><stop offset="0" stop-color="#4387fd"/><stop offset="1" stop-color="#4683ea"/></linearGradient></defs><title>Cloud Function_</title><path d="M27.7906,115.2166L1.54,69.7493a11.499,11.499,0,0,1,0-11.499L27.7906,12.7831a11.4991,11.4991,0,0,1,9.9585-5.75H90.25a11.4991,11.4991,0,0,1,9.9585,5.75L126.4594,58.25a11.499,11.499,0,0,1,0,11.499l-26.2506,45.4672a11.4991,11.4991,0,0,1-9.9585,5.75H37.7491A11.4991,11.4991,0,0,1,27.7906,115.2166Z" fill="url(#a)"/><path d="M94.0561,49.2756l-3.7436,3.7436,0.82,23.5918-3.4529,5.0084L85.6758,79.616h1.8379V71.4078L78.6858,62.58l-6.3477,3.1721L72.52,66.46,50.0412,43.9813,39.2176,49.4408,37.902,60.4979l3.7436,20.2372L47.07,86.05,44.7469,89.813l31.1537,31.1537H90.2517a11.4991,11.4991,0,0,0,9.9585-5.75l21.8837-37.9037Z" opacity="0.07"/><polygon points="44.589 89.563 49.883 84.269 41.95 76.336 41.95 51.664 49.883 43.731 44.589 38.437 34 49.026 34 78.974 44.589 89.563" fill="#fff"/><circle cx="52.7787" cy="64" r="3.7521" fill="#fff"/><circle cx="64.001" cy="64" r="3.7521" fill="#fff"/><circle cx="75.2234" cy="64" r="3.7521" fill="#fff"/><polygon points="83.361 38.437 78.067 43.731 86 51.664 86 76.336 78.067 84.269 83.361 89.563 93.95 78.974 93.95 49.026 83.361 38.437" fill="#fff"/></svg>