<?xml version="1.0" encoding="utf-8"?>
<!-- Generator: Adobe Illustrator 18.1.1, SVG Export Plug-In . SVG Version: 6.00 Build 0)  -->
<svg version="1.1" xmlns="http://www.w3.org/2000/svg" xmlns:xlink="http://www.w3.org/1999/xlink" x="0px" y="0px" width="128px"
	 height="128px" viewBox="0 0 128 128" style="enable-background:new 0 0 128 128;" xml:space="preserve">
<g id="BASE">
	<linearGradient id="SVGID_1_" gradientUnits="userSpaceOnUse" x1="63.9997" y1="7.0336" x2="63.9997" y2="120.7894">
		<stop  offset="0" style="stop-color:#4387FD"/>
		<stop  offset="1" style="stop-color:#4683EA"/>
	</linearGradient>
	<path style="fill:url(#SVGID_1_);" d="M27.7906,115.2166L1.54,69.7493c-2.0541-3.5578-2.0541-7.9412,0-11.499l26.2506-45.4672
		c2.0541-3.5578,5.8503-5.7495,9.9585-5.7495h52.5012c4.1082,0,7.9044,2.1917,9.9585,5.7495l26.2506,45.4672
		c2.0541,3.5578,2.0541,7.9412,0,11.499l-26.2506,45.4672c-2.0541,3.5578-5.8503,5.7495-9.9585,5.7495H37.7491
		C33.6409,120.9661,29.8448,118.7744,27.7906,115.2166z"/>
</g>
<g id="shadow">
	<g>
		<defs>
			<path id="SVGID_5_" d="M27.7911,115.2166L1.5406,69.7493c-2.0541-3.5578-2.0541-7.9412,0-11.499l26.2505-45.4672
				c2.0541-3.5578,5.8502-5.7495,9.9585-5.7495h52.501c4.1082,0,7.9044,2.1917,9.9585,5.7495l26.2505,45.4672
				c2.0541,3.5578,2.0541,7.9412,0,11.499l-26.2505,45.4672c-2.0541,3.5578-5.8503,5.7495-9.9585,5.7495h-52.501
				C33.6413,120.9661,29.8452,118.7744,27.7911,115.2166z"/>
		</defs>
		<clipPath id="SVGID_2_">
			<use xlink:href="#SVGID_5_"  style="overflow:visible;"/>
		</clipPath>
		<polygon style="opacity:0.07;clip-path:url(#SVGID_2_);" points="119.2187,83.1145 75.6354,39.5311 72.5312,46.2499 
			65.7812,39.4999 62.6562,46.1874 55.9847,39.5158 54.3438,47.6037 48.4062,48.6249 47.1743,53.9061 39.4913,55.7412 
			46.375,62.6249 39.5645,65.6581 46.375,72.4686 39.5208,75.3957 86.2031,122.078 97.6671,122.0415 		"/>
	</g>
</g>
<g id="art">
	<g>
		<path style="fill:#FFFFFF;" d="M69.8304,57.0953l-11.4085,0.0011c-0.668,0-1.2152,0.5466-1.2152,1.2133l0.0012,11.4068
			c0,0.6667,0.5472,1.2152,1.2139,1.2152h11.4068c0.668,0,1.215-0.5485,1.215-1.2152V58.3098
			C71.0437,57.643,70.4979,57.0953,69.8304,57.0953"/>
		<path style="fill:#FFFFFF;" d="M87.8891,56.1759c0.5994,0,1.0895-0.4919,1.0895-1.0895v-1.7768
			c0-0.5975-0.49-1.0894-1.0895-1.0894H82.34v-5.1871c0-0.6662-0.5483-1.2139-1.2138-1.2139h-5.2085l0.0011-5.5704
			c0-0.5957-0.49-1.0882-1.0894-1.0882l-1.7774,0.0011c-0.5994,0-1.0894,0.4914-1.0894,1.0888l0.0012,5.5686h-5.8601v-5.5704
			c0-0.5957-0.49-1.0882-1.0882-1.0882l-1.7786,0.0011c-0.5994,0-1.0894,0.4914-1.0894,1.0888l0.0012,5.5686l-5.86,0.0006v-5.571
			c0-0.5957-0.4901-1.0882-1.0882-1.0882l-1.7781,0.0011c-0.5982,0-1.0894,0.4914-1.0894,1.0888l0.0012,5.5693h-5.2072
			c-0.668,0-1.2152,0.5471-1.2152,1.2133v5.1871h-5.5491c-0.597,0-1.0882,0.4914-1.0882,1.0888l0.0012,1.7787
			c0,0.5982,0.49,1.0882,1.0882,1.0882h5.5479l0.0012,5.8606l-5.5503-0.0012c-0.597,0-1.0882,0.4907-1.0882,1.0888l0.0012,1.7768
			c0,0.6001,0.49,1.0894,1.0882,1.0894h5.5491v5.8606l-5.5503-0.0012c-0.597,0-1.0882,0.4914-1.0882,1.0888l0.0012,1.7768
			c0,0.6001,0.49,1.0895,1.0882,1.0895h5.5491v5.1891c0,0.6661,0.5471,1.2139,1.2139,1.2139h5.2072v5.5673
			c0,0.5999,0.4912,1.0895,1.0893,1.0895h1.7757c0.5981,0,1.0882-0.4895,1.0882-1.0895l0.0012-5.5673h5.8588l0.0012,5.5673
			c0,0.5999,0.49,1.0895,1.0893,1.0895h1.7764c0.598,0,1.0882-0.4895,1.0882-1.0895l0.0011-5.5673h5.8589l0.0012,5.5673
			c0,0.5999,0.49,1.0895,1.0893,1.0895h1.7751c0.5993,0,1.0895-0.4895,1.0895-1.0895l0.0011-5.5673h5.2061
			c0.6668,0,1.2138-0.5478,1.2138-1.2139l0.0013-5.1891l5.5491-0.0012c0.5994,0,1.0895-0.4888,1.0895-1.0882v-1.775
			c0-0.5993-0.49-1.0894-1.0895-1.0894H82.34v-5.8606l5.5491-0.0012c0.5994,0,1.0895-0.4888,1.0895-1.0882v-1.775
			c0-0.5993-0.49-1.0895-1.0895-1.0895H82.34v-5.8606H87.8891z M78.2422,78.1307H50.0084v-28.235l28.2362-0.0012L78.2422,78.1307z"
			/>
	</g>
</g>
<g id="Guides">
</g>
</svg>
