<svg xmlns="http://www.w3.org/2000/svg" xmlns:xlink="http://www.w3.org/1999/xlink" width="128" height="128" viewBox="0 0 128 128"><defs><linearGradient id="a" x1="63.9997" y1="7.0336" x2="63.9997" y2="120.7894" gradientUnits="userSpaceOnUse"><stop offset="0" stop-color="#4387fd"/><stop offset="1" stop-color="#4683ea"/></linearGradient><clipPath id="b"><path d="M27.7911,115.2167L1.5406,69.75a11.499,11.499,0,0,1,0-11.499l26.25-45.4672a11.499,11.499,0,0,1,9.9585-5.75H90.25a11.499,11.499,0,0,1,9.9585,5.75l26.25,45.4672a11.499,11.499,0,0,1,0,11.499l-26.25,45.4672a11.499,11.499,0,0,1-9.9585,5.75H37.75A11.499,11.499,0,0,1,27.7911,115.2167Z" fill="none"/></clipPath></defs><title>CDN</title><path d="M27.7906,115.2166L1.54,69.7493a11.499,11.499,0,0,1,0-11.499L27.7906,12.7831a11.4991,11.4991,0,0,1,9.9585-5.75H90.25a11.4991,11.4991,0,0,1,9.9585,5.75L126.4594,58.25a11.499,11.499,0,0,1,0,11.499l-26.2506,45.4672a11.4991,11.4991,0,0,1-9.9585,5.75H37.7491A11.4991,11.4991,0,0,1,27.7906,115.2166Z" fill="url(#a)"/><g clip-path="url(#b)"><polygon points="122.5 88.542 74.854 40.896 63.25 36.75 52.999 49.29 59.979 56.271 56.179 60.012 49.179 53.012 36.5 63.25 40.901 74.901 88.021 122.021 98 122 122.5 88.542" opacity="0.07"/></g><polygon points="64 30 53 41 53 49.311 64 38.311 75 49.311 75 41 64 30" fill="#fff"/><polygon points="64 98 53 87 53 78.689 64 89.689 75 78.689 75 87 64 98" fill="#fff"/><polygon points="30 64 41 75 49.311 75 38.311 64 49.311 53 41 53 30 64" fill="#fff"/><polygon points="98 64 87 75 78.689 75 89.689 64 78.689 53 87 53 98 64" fill="#fff"/><rect x="53" y="53" width="22" height="22" rx="1" ry="1" transform="translate(0 128) rotate(-90)" fill="#fff"/></svg>