<svg xmlns="http://www.w3.org/2000/svg" xmlns:xlink="http://www.w3.org/1999/xlink" width="128" height="128" viewBox="0 0 128 128"><defs><linearGradient id="a" x1="63.9997" y1="7.0336" x2="63.9997" y2="120.7894" gradientUnits="userSpaceOnUse"><stop offset="0" stop-color="#4387fd"/><stop offset="1" stop-color="#4683ea"/></linearGradient><clipPath id="b"><path d="M27.7911,115.2167L1.5406,69.75a11.499,11.499,0,0,1,0-11.499l26.25-45.4672a11.499,11.499,0,0,1,9.9585-5.75H90.25a11.499,11.499,0,0,1,9.9585,5.75l26.25,45.4672a11.499,11.499,0,0,1,0,11.499l-26.25,45.4672a11.499,11.499,0,0,1-9.9585,5.75H37.75A11.499,11.499,0,0,1,27.7911,115.2167Z" fill="none"/></clipPath></defs><title>Virtual-Network</title><path d="M27.7906,115.2166L1.54,69.7493a11.499,11.499,0,0,1,0-11.499L27.7906,12.7831a11.4991,11.4991,0,0,1,9.9585-5.75H90.25a11.4991,11.4991,0,0,1,9.9585,5.75L126.4594,58.25a11.499,11.499,0,0,1,0,11.499l-26.2506,45.4672a11.4991,11.4991,0,0,1-9.9585,5.75H37.7491A11.4991,11.4991,0,0,1,27.7906,115.2166Z" fill="url(#a)"/><g clip-path="url(#b)"><polygon points="124.854 77.521 87.635 40.302 66.729 50.354 56.729 40.354 40.392 56.767 51.271 67.646 40.375 87.625 73.516 120.766 98 122 124.854 77.521" opacity="0.07"/></g><rect x="47" y="54.5" width="5" height="19.5" fill="#fff"/><rect x="76" y="52.125" width="5" height="21.825" fill="#fff"/><rect x="54.375" y="47" width="19.25" height="5" fill="#fff"/><rect x="54.375" y="76" width="19.25" height="5" fill="#fff"/><rect x="40" y="40" width="17" height="17" rx="1" ry="1" fill="#fff"/><rect x="71" y="40" width="17" height="17" rx="1" ry="1" fill="#fff"/><rect x="40" y="71" width="17" height="17" rx="1" ry="1" fill="#fff"/><rect x="71" y="71" width="17" height="17" rx="1" ry="1" fill="#fff"/></svg>