<svg xmlns="http://www.w3.org/2000/svg" xmlns:xlink="http://www.w3.org/1999/xlink" width="128" height="128" viewBox="0 0 128 128"><defs><linearGradient id="a" x1="63.9997" y1="7.0336" x2="63.9997" y2="120.7894" gradientUnits="userSpaceOnUse"><stop offset="0" stop-color="#4387fd"/><stop offset="1" stop-color="#4683ea"/></linearGradient><clipPath id="b"><path d="M27.7911,115.2167L1.5406,69.75a11.499,11.499,0,0,1,0-11.499l26.25-45.4672a11.499,11.499,0,0,1,9.9585-5.75H90.25a11.499,11.499,0,0,1,9.9585,5.75l26.25,45.4672a11.499,11.499,0,0,1,0,11.499l-26.25,45.4672a11.499,11.499,0,0,1-9.9585,5.75H37.75A11.499,11.499,0,0,1,27.7911,115.2167Z" fill="none"/></clipPath></defs><title>Load-Balancing</title><path d="M27.7906,115.2166L1.54,69.7493a11.499,11.499,0,0,1,0-11.499L27.7906,12.7831a11.4991,11.4991,0,0,1,9.9585-5.75H90.25a11.4991,11.4991,0,0,1,9.9585,5.75L126.4594,58.25a11.499,11.499,0,0,1,0,11.499l-26.2506,45.4672a11.4991,11.4991,0,0,1-9.9585,5.75H37.7491A11.4991,11.4991,0,0,1,27.7906,115.2166Z" fill="url(#a)"/><g clip-path="url(#b)"><polygon points="121.417 84.25 79.635 42.469 54.417 50.333 48.583 53.667 57 62.083 45.5 62.75 45.75 73.58 39.365 81.677 78.896 121.208 98 122 121.417 84.25" opacity="0.07"/></g><rect x="62" y="53" width="4" height="21.75" fill="#fff"/><path d="M44.9309,63H48a0,0,0,0,1,0,0V76a0,0,0,0,1,0,0H44a0,0,0,0,1,0,0V63.9309A0.9309,0.9309,0,0,1,44.9309,63Z" fill="#fff"/><path d="M80,63h3.0691A0.9309,0.9309,0,0,1,84,63.9309V76a0,0,0,0,1,0,0H80a0,0,0,0,1,0,0V63A0,0,0,0,1,80,63Z" fill="#fff"/><path d="M44.9938,61H83.0062A0.9938,0.9938,0,0,1,84,61.9938V65a0,0,0,0,1,0,0H44a0,0,0,0,1,0,0V61.9938A0.9938,0.9938,0,0,1,44.9938,61Z" fill="#fff"/><rect x="48" y="42" width="32" height="12" rx="0.9684" ry="0.9684" fill="#fff"/><rect x="39" y="72" width="13" height="10" rx="0.9759" ry="0.9759" fill="#fff"/><rect x="76" y="72" width="13" height="10" rx="0.9759" ry="0.9759" fill="#fff"/><rect x="57" y="72" width="14" height="10" rx="1.0127" ry="1.0127" fill="#fff"/></svg>