<svg xmlns="http://www.w3.org/2000/svg" xmlns:xlink="http://www.w3.org/1999/xlink" width="128" height="128" viewBox="0 0 128 128"><defs><linearGradient id="a" x1="63.9997" y1="7.0336" x2="63.9997" y2="120.7894" gradientUnits="userSpaceOnUse"><stop offset="0" stop-color="#4387fd"/><stop offset="1" stop-color="#4683ea"/></linearGradient><clipPath id="b"><path d="M27.7911,115.2167L1.5406,69.75a11.499,11.499,0,0,1,0-11.499l26.25-45.4672a11.499,11.499,0,0,1,9.9585-5.75H90.25a11.499,11.499,0,0,1,9.9585,5.75l26.25,45.4672a11.499,11.499,0,0,1,0,11.499l-26.25,45.4672a11.499,11.499,0,0,1-9.9585,5.75H37.75A11.499,11.499,0,0,1,27.7911,115.2167Z" fill="none"/></clipPath></defs><title>DNS</title><path d="M27.7906,115.2166L1.54,69.7493a11.499,11.499,0,0,1,0-11.499L27.7906,12.7831a11.4991,11.4991,0,0,1,9.9585-5.75H90.25a11.4991,11.4991,0,0,1,9.9585,5.75L126.4594,58.25a11.499,11.499,0,0,1,0,11.499l-26.2506,45.4672a11.4991,11.4991,0,0,1-9.9585,5.75H37.7491A11.4991,11.4991,0,0,1,27.7906,115.2166Z" fill="url(#a)"/><g clip-path="url(#b)"><polygon points="124.156 78.719 85.708 40.271 43.75 41.875 42.281 52.656 49.375 59.75 43.188 60.875 42.309 71.746 53.438 82.875 42 84.938 78.156 121.094 98 122 124.156 78.719" opacity="0.07"/></g><rect x="62" y="51" width="4" height="32" fill="#fff"/><rect x="42" y="81" width="44" height="4" fill="#fff"/><rect x="60" y="79" width="8" height="8" rx="0.8889" ry="0.8889" fill="#fff"/><path d="M42,59.963V71.037a0.97,0.97,0,0,0,.9778.963H85.0222A0.97,0.97,0,0,0,86,71.037V59.963A0.97,0.97,0,0,0,85.0222,59H42.9778A0.97,0.97,0,0,0,42,59.963ZM50,67H46V63h4v4Z" fill="#fff"/><path d="M42,40.963V52.037a0.97,0.97,0,0,0,.9778.963H85.0222A0.97,0.97,0,0,0,86,52.037V40.963A0.97,0.97,0,0,0,85.0222,40H42.9778A0.97,0.97,0,0,0,42,40.963ZM50,48H46V44h4v4Z" fill="#fff"/></svg>