<svg id="BASE" xmlns="http://www.w3.org/2000/svg" xmlns:xlink="http://www.w3.org/1999/xlink" width="128" height="128" viewBox="0 0 128 128">
  <defs>
    <style>
      .cls-1 {
        fill: none;
      }

      .cls-2 {
        fill: url(#linear-gradient);
      }

      .cls-3 {
        clip-path: url(#clip-path);
      }

      .cls-4 {
        opacity: 0.07;
      }

      .cls-5 {
        fill: #fff;
      }
    </style>
    <linearGradient id="linear-gradient" x1="64" y1="7.03" x2="64" y2="120.79" gradientUnits="userSpaceOnUse">
      <stop offset="0" stop-color="#4387fd"/>
      <stop offset="1" stop-color="#4683ea"/>
    </linearGradient>
    <clipPath id="clip-path">
      <path class="cls-1" d="M27.79,115.22L1.54,69.75a11.5,11.5,0,0,1,0-11.5L27.79,12.78A11.5,11.5,0,0,1,37.75,7h52.5a11.5,11.5,0,0,1,10,5.75l26.25,45.47a11.5,11.5,0,0,1,0,11.5l-26.25,45.47a11.5,11.5,0,0,1-10,5.75H37.75A11.5,11.5,0,0,1,27.79,115.22Z"/>
    </clipPath>
  </defs>
  <title>Cloud-No-Logo</title>
  <path class="cls-2" d="M27.79,115.22L1.54,69.75a11.5,11.5,0,0,1,0-11.5L27.79,12.78A11.5,11.5,0,0,1,37.75,7h52.5a11.5,11.5,0,0,1,10,5.75l26.25,45.47a11.5,11.5,0,0,1,0,11.5l-26.25,45.47a11.5,11.5,0,0,1-10,5.75H37.75A11.5,11.5,0,0,1,27.79,115.22Z"/>
  <g class="cls-3">
    <polygon class="cls-4" points="124.05 82.86 80.75 39.25 53 43 47.77 59.43 39.68 52.43 48.75 88.25 91.29 130.79 97.67 122.04 124.05 82.86"/>
  </g>
  <g>
    <path class="cls-5" d="M71.78,64.05a7.93,7.93,0,1,1-7.93-7.93,7.93,7.93,0,0,1,7.93,7.93"/>
    <path class="cls-5" d="M93.22,62L87.28,51.66H75.16L82.26,64l-1.91,3.33L73.13,79.87,70.9,83.74,67,90.44h9.84a4,4,0,0,0,3.44-2L93.22,66a4,4,0,0,0,0-3.95"/>
    <path class="cls-5" d="M54.87,79.87L45.74,64,39.68,53.48,34.78,62a4,4,0,0,0,0,3.95L47.67,88.45a4,4,0,0,0,3.44,2H62.95l6.11-10.58H54.87Z"/>
    <path class="cls-5" d="M85.26,48.13l-4.92-8.58a4,4,0,0,0-3.44-2H51.11a4,4,0,0,0-3.44,2L41.69,50l6.07,10.51,7.1-12.34H85.26Z"/>
  </g>
</svg>
