<?xml version="1.0" encoding="utf-8"?>
<!-- Generator: Adobe Illustrator 18.1.1, SVG Export Plug-In . SVG Version: 6.00 Build 0)  -->
<svg version="1.1" xmlns="http://www.w3.org/2000/svg" xmlns:xlink="http://www.w3.org/1999/xlink" x="0px" y="0px" width="128px"
	 height="128px" viewBox="0 0 128 128" style="enable-background:new 0 0 128 128;" xml:space="preserve">
<g id="BASE">
	<linearGradient id="SVGID_1_" gradientUnits="userSpaceOnUse" x1="63.9997" y1="7.0336" x2="63.9997" y2="120.7894">
		<stop  offset="0" style="stop-color:#4387FD"/>
		<stop  offset="1" style="stop-color:#4683EA"/>
	</linearGradient>
	<path style="fill:url(#SVGID_1_);" d="M27.7906,115.2166L1.54,69.7493c-2.0541-3.5578-2.0541-7.9412,0-11.499l26.2506-45.4672
		c2.0541-3.5578,5.8503-5.7495,9.9585-5.7495h52.5012c4.1082,0,7.9044,2.1917,9.9585,5.7495l26.2506,45.4672
		c2.0541,3.5578,2.0541,7.9412,0,11.499l-26.2506,45.4672c-2.0541,3.5578-5.8503,5.7495-9.9585,5.7495H37.7491
		C33.6409,120.9661,29.8448,118.7744,27.7906,115.2166z"/>
</g>
<g id="shadow">
	<g>
		<defs>
			<path id="SVGID_5_" d="M27.7908,115.2166L1.5403,69.7493c-2.0541-3.5578-2.0541-7.9412,0-11.499l26.2505-45.4672
				c2.0541-3.5578,5.8502-5.7495,9.9585-5.7495h52.501c4.1082,0,7.9044,2.1917,9.9585,5.7495l26.2505,45.4672
				c2.0541,3.5578,2.0541,7.9412,0,11.499l-26.2505,45.4672c-2.0541,3.5578-5.8502,5.7495-9.9585,5.7495h-52.501
				C33.641,120.9661,29.8449,118.7744,27.7908,115.2166z"/>
		</defs>
		<clipPath id="SVGID_2_">
			<use xlink:href="#SVGID_5_"  style="overflow:visible;"/>
		</clipPath>
		<polygon style="opacity:0.07;clip-path:url(#SVGID_2_);" points="127.9997,68.716 94.6118,35.328 69.5574,77.8749 
			56.1274,53.8436 37.4451,81.5676 79.3761,123.4985 97.6247,123.6249 		"/>
	</g>
</g>
<g id="art">
	<g>
		<g>
			<g>
				<g>
					<polygon style="fill:#FFFFFF;" points="43.6452,78.3529 39.9657,76.1458 56.09,49.2697 71.5674,75.4041 67.8764,77.5905 
						56.0658,57.6502 					"/>
				</g>
				<g>
					<g>
						<circle style="fill:#FFFFFF;" cx="69.5576" cy="76.2195" r="6.4529"/>
					</g>
				</g>
				<g>
					<g>
						<circle style="fill:#FFFFFF;" cx="41.9716" cy="76.9727" r="6.4528"/>
					</g>
				</g>
			</g>
			<g>
				<g>
					<path style="fill:#FFFFFF;" d="M77.4757,68.716l-3.6971-2.1767l2.8618-4.8622l3.6976,2.1768L77.4757,68.716z M82.6797,59.8754
						l-3.6983-2.1756l2.8618-4.8622l3.6977,2.1756L82.6797,59.8754z M87.8819,51.0359l-3.697-2.1768l2.8622-4.8622l3.6971,2.1768
						L87.8819,51.0359z"/>
				</g>
				<g>
					<g>
						<polygon style="fill:#FFFFFF;" points="94.564,48.5299 94.6745,35.2673 83.1321,41.8013 						"/>
					</g>
				</g>
			</g>
		</g>
	</g>
</g>
<g id="Guides">
</g>
</svg>
