<svg id="coligo-app-icon" xmlns="http://www.w3.org/2000/svg" xmlns:xlink="http://www.w3.org/1999/xlink" viewBox="0 0 32 32"><defs><linearGradient id="a" y1="21" x2="8" y2="21" gradientUnits="userSpaceOnUse"><stop offset="0.15"/><stop offset="1" stop-opacity="0"/></linearGradient><linearGradient id="b" x1="16.5" y1="21.5" x2="25.5" y2="21.5" gradientUnits="userSpaceOnUse"><stop offset="0.1"/><stop offset="0.8" stop-opacity="0"/></linearGradient><linearGradient id="c" x1="0" y1="9" x2="11" y2="9" xlink:href="#a"/><mask id="mask" x="0" y="0" width="32" height="32" maskUnits="userSpaceOnUse"><path fill="#fff" d="M20,18v8H10V16h4V14H9.08A1.08,1.08,0,0,0,8,15.08V20H1v2H8v4.92A1.08,1.08,0,0,0,9.08,28H20.92A1.08,1.08,0,0,0,22,26.92V18Z"/><rect x="1" y="8" width="13" height="2" fill="#fff"/><rect y="19" width="8" height="4" fill="url(#a)"/><rect x="16.5" y="19.5" width="9" height="4" fill="url(#b)" transform="translate(42.5 0.5) rotate(90)"/><rect y="7" width="11" height="4" fill="url(#c)"/></mask><linearGradient id="d" y1="32" x2="32" gradientUnits="userSpaceOnUse"><stop offset="0.1" stop-color="#08bdba"/><stop offset="0.9" stop-color="#0f62fe"/></linearGradient></defs><rect id="background-shape" mask="url(#mask)" fill="url(#d)" width="32" height="32"/><path id="foreground-container" fill="#001d6c" d="M29,18H17a1,1,0,0,1-1-1V5a1,1,0,0,1,1-1H29a1,1,0,0,1,1,1V17a1,1,0,0,1-1,1M18,16H28V6H18Z"/></svg>
