<?xml version="1.0" encoding="utf-8"?>
<!-- Generator: Adobe Illustrator 21.0.2, SVG Export Plug-In . SVG Version: 6.00 Build 0)  -->
<svg version="1.1" id="Layer_1" xmlns="http://www.w3.org/2000/svg" xmlns:xlink="http://www.w3.org/1999/xlink" x="0px" y="0px"
	 viewBox="0 0 18 18" style="enable-background:new 0 0 18 18;" xml:space="preserve">
<style type="text/css">
	.st0{fill:#0BCFD8;}
	.st1{fill:#0F3659;}
</style>
<g>
	<polygon class="st0" points="11.6,9.1 12.1,8.7 11.6,9.1 	"/>
	<polygon class="st0" points="16.8,5.8 16.8,5.8 12.1,8.7 	"/>
	<path class="st1" d="M16.8,5.7L16.8,5.7l-4.7,3l-0.5,0.3h0l-2.2,1.5c-0.1,0.1-0.3,0.1-0.5,0.1c-0.2,0-0.3,0-0.5-0.1L6.2,9.1h0
		L5.6,8.7l-4.7-3l0,0c0,0.1,0,0.3,0,0.4l0,3.1l0,2.9c0,0.6,0.3,1.1,0.8,1.4l6.3,4.2C8.2,17.9,8.6,18,8.9,18v0c0,0,0,0,0,0
		c0,0,0,0,0,0v0c0.3,0,0.6-0.1,0.9-0.3l6.3-4.2c0.5-0.3,0.8-0.8,0.8-1.4l0-2.9l0-3.1C16.9,6,16.9,5.9,16.8,5.7z"/>
	<path class="st0" d="M16.1,4.6L9.9,0.3C9.6,0.1,9.2,0,8.9,0v0c0,0,0,0,0,0c0,0,0,0,0,0v0c-0.3,0-0.7,0.1-1,0.3L1.7,4.6
		C1.2,4.8,1,5.3,0.9,5.8l4.7,3l0.5,0.3l0,0l2.2-1.6c0.2-0.1,0.3-0.2,0.5-0.2c0.2,0,0.4,0.1,0.5,0.2l2.2,1.6l0,0l0.5-0.3l4.7-3
		C16.8,5.3,16.5,4.8,16.1,4.6z"/>
	<polygon class="st0" points="6.2,9.1 5.6,8.7 6.2,9.1 	"/>
	<polygon class="st0" points="0.9,5.8 0.9,5.8 5.6,8.7 	"/>
</g>
</svg>
