<?xml version="1.0" encoding="UTF-8"?>
<svg width="50px" height="50px" viewBox="0 0 50 50" version="1.1" xmlns="http://www.w3.org/2000/svg" xmlns:xlink="http://www.w3.org/1999/xlink">
    <!-- Generator: Sketch 50 (54983) - http://www.bohemiancoding.com/sketch -->
    <title>50x50</title>
    <desc>Created with Sketch.</desc>
    <defs></defs>
    <g id="50x50" stroke="none" stroke-width="1" fill="none" fill-rule="evenodd">
        <g id="CIS_32x32" transform="translate(2.000000, 7.000000)">
            <path d="M39.3296,11.9633333 C38.6528,5.67333333 33.1804333,0.770833333 26.5299333,0.770833333 C20.1473333,0.770833333 14.8645333,5.28945833 13.8477667,11.211 C13.2900333,11.12775 12.7244667,11.07225 12.1416667,11.07225 C5.8703,11.07225 0.783333333,16.0132917 0.783333333,22.1090417 C0.783333333,28.2047917 5.8703,33.1458333 12.1416667,33.1458333 L34.8583333,33.1458333 C41.1312667,33.1458333 46.2166667,28.2047917 46.2166667,22.1090417 C46.2166667,17.5565 43.3778667,13.6499167 39.3296,11.9633333" id="Fill-1" fill="#4178BE" fill-rule="nonzero"></path>
            <path d="M39.3296,11.9633333 C38.6528,5.67333333 33.1804333,0.770833333 26.5299333,0.770833333 C20.1473333,0.770833333 14.8645333,5.28945833 13.8477667,11.211 C13.2900333,11.12775 12.7244667,11.07225 12.1416667,11.07225 C5.8703,11.07225 0.783333333,16.0132917 0.783333333,22.1090417 C0.783333333,28.2047917 5.8703,33.1458333 12.1416667,33.1458333 L34.8583333,33.1458333 C41.1312667,33.1458333 46.2166667,28.2047917 46.2166667,22.1090417 C46.2166667,17.5565 43.3778667,13.6499167 39.3296,11.9633333 Z" id="Stroke-3" stroke="#7CC7FF" stroke-width="1.56"></path>
            <path d="M29.7666667,20.0416667 C29.7666667,22.5962083 27.6626333,24.6666667 25.0666667,24.6666667 C22.4707,24.6666667 20.3666667,22.5962083 20.3666667,20.0416667 C20.3666667,17.487125 22.4707,15.4166667 25.0666667,15.4166667 C27.6626333,15.4166667 29.7666667,17.487125 29.7666667,20.0416667" id="Fill-5" fill="#FFFFFF" fill-rule="nonzero"></path>
            <path d="M45.4333333,9.25 C45.4333333,12.2300417 43.3293,14.6458333 40.7333333,14.6458333 C38.1373667,14.6458333 36.0333333,12.2300417 36.0333333,9.25 C36.0333333,6.26995833 38.1373667,3.85416667 40.7333333,3.85416667 C43.3293,3.85416667 45.4333333,6.26995833 45.4333333,9.25" id="Fill-7" fill="#FFFFFF" fill-rule="nonzero"></path>
            <path d="M45.4333333,30.834875 C45.4333333,33.8118333 43.3293,36.2291667 40.7333333,36.2291667 C38.1373667,36.2291667 36.0333333,33.8118333 36.0333333,30.834875 C36.0333333,27.8548333 38.1373667,25.4375 40.7333333,25.4375 C43.3293,25.4375 45.4333333,27.8548333 45.4333333,30.834875" id="Fill-9" fill="#FFFFFF" fill-rule="nonzero"></path>
            <path d="M40.3902333,34.525625 C38.0950667,34.525625 36.2291667,32.6155 36.2291667,30.266 C36.2291667,27.9180417 38.0950667,26.006375 40.3902333,26.006375 C42.6854,26.006375 44.5513,27.9180417 44.5513,30.266 C44.5513,32.6155 42.6854,34.525625 40.3902333,34.525625 M25.4082,24.3012917 C23.1146,24.3012917 21.2471333,22.3911667 21.2471333,20.0416667 C21.2471333,17.6937083 23.1146,15.7820417 25.4082,15.7820417 C27.7033667,15.7820417 29.5708333,17.6937083 29.5708333,20.0416667 C29.5708333,22.3911667 27.7033667,24.3012917 25.4082,24.3012917 M40.3902333,5.55925 C42.6854,5.55925 44.5513,7.469375 44.5513,9.818875 C44.5513,12.168375 42.6854,14.0785 40.3902333,14.0785 C38.0950667,14.0785 36.2291667,12.168375 36.2291667,9.818875 C36.2291667,7.469375 38.0950667,5.55925 40.3902333,5.55925 M40.3902333,24.3012917 C38.6653333,24.3012917 37.13,25.0890833 36.0615333,26.3131667 L30.5609667,22.7673333 C30.9761333,21.9471667 31.2346333,21.0283333 31.2346333,20.0416667 C31.2346333,19.3032083 31.0873667,18.6032917 30.8445333,17.949625 L36.4015,14.14325 C37.4464667,15.1530417 38.8455,15.7820417 40.3902333,15.7820417 C43.6019,15.7820417 46.2166667,13.10725 46.2166667,9.818875 C46.2166667,6.5305 43.6019,3.85416667 40.3902333,3.85416667 C37.177,3.85416667 34.5638,6.5305 34.5638,9.818875 C34.5638,10.771625 34.8050667,11.6611667 35.1951667,12.4612917 L29.7948667,16.1612917 C28.7264,14.897125 27.1675667,14.0785 25.4082,14.0785 C22.1965333,14.0785 19.5833333,16.7548333 19.5833333,20.0416667 C19.5833333,23.3300417 22.1965333,26.006375 25.4082,26.006375 C26.9184667,26.006375 28.2830333,25.3989583 29.3217333,24.4307917 L34.9821,28.078375 C34.7204667,28.75825 34.5638,29.4920833 34.5638,30.266 C34.5638,33.554375 37.177,36.2291667 40.3902333,36.2291667 C43.6019,36.2291667 46.2166667,33.554375 46.2166667,30.266 C46.2166667,26.977625 43.6019,24.3012917 40.3902333,24.3012917" id="Fill-11" fill="#6EEDD8" fill-rule="nonzero"></path>
        </g>
    </g>
</svg>