<?xml version="1.0" encoding="utf-8"?>
<!-- Generator: Adobe Illustrator 21.1.0, SVG Export Plug-In . SVG Version: 6.00 Build 0)  -->
<svg version="1.1" id="Layer_1" xmlns:serif="http://www.serif.com/"
	 xmlns="http://www.w3.org/2000/svg" xmlns:xlink="http://www.w3.org/1999/xlink" x="0px" y="0px" viewBox="0 0 404.4 454.7"
	 style="enable-background:new 0 0 404.4 454.7;" xml:space="preserve">
<style type="text/css">
	.st0{fill:#DB0A5B;}
</style>
<g id="Visible" transform="matrix(1,0,0,1,-742.561,-185.851)">
	<g id="Logo" transform="matrix(0.533362,0,0,0.533362,875.88,235.933)">
		<path class="st0" d="M276.2-13.7L467.9,97c20.8,12,33.6,34.2,33.6,58.2c0,81.7,0,270.8,0,352.5c0,24-12.8,46.2-33.6,58.2
			c-70.8,40.9-234.5,135.4-305.3,176.2c-20.8,12-46.4,12-67.2,0C24.7,701.3-139,606.7-209.8,565.9c-20.8-12-33.6-34.2-33.6-58.2
			c0-81.7,0-270.8,0-352.5c0-24,12.8-46.2,33.6-58.2C-139,56.1,24.7-38.4,95.4-79.3c20.8-12,46.4-12,67.2,0l109.2,63.1l1.2,0.3
			C274.3-15.1,275.3-14.4,276.2-13.7z M19.4,617.5l76.1,43.9c20.8,12,46.4,12,67.2,0l73.6-42.5c-0.8-7.3-1.8-14.5-2.8-21.8L21,590.7
			C20.3,599.6,19.8,608.6,19.4,617.5z M280.4,593.5l117.7-67.9c20.8-12,33.6-34.2,33.6-58.2c0-67.2,0-204.6,0-271.9
			c0-24-12.8-46.2-33.6-58.2L283.4,71.1c-0.2,1.8-0.3,3.6-0.5,5.5l-0.1,1.1c-2,20-4.6,39.9-8,59.6c-0.2,1.3-0.5,2.5-0.7,3.8
			c-1.1,5.7-2.3,11.4-3.5,17.1c-0.4,2-0.9,4-1.3,5.9c-0.1,0.6-0.8,3.3-0.8,3.4c-0.5,1.8-0.7,2.7-1.2,4.5c-1.2,4.3-2.4,8.7-3.6,13
			l-0.2,0.7c-1.9,5.7-3.8,11.4-5.9,17.1c-0.2,0.7-0.5,1.3-0.8,2c-0.7,1.8-0.8,1.9-1.5,3.7c-1.4,3.4-2.8,6.9-4.3,10.3
			c-0.3,0.7-0.6,1.3-0.9,2c-0.3,0.6-0.5,1.1-0.8,1.7c-1,2.2-2.1,4.3-3.2,6.4c-2,4-4.1,8.1-6.3,12c-1,1.9-2.1,3.7-3.1,5.6l-0.3,0.5
			c-3.2,5.3-6.6,10.4-10.1,15.5c-1.3,1.8-2.6,3.6-3.9,5.4c-0.5,0.7-1.1,1.4-1.6,2.1c-4.9,6.2-10.1,12.2-15.7,17.8
			c-0.3,0.3-0.6,0.5-0.8,0.8c-0.7,0.7-1.5,1.3-2.2,2c-2.3,2-4.7,3.9-7.1,5.8c-0.3,0.3-0.3,0.3-0.7,0.5c-4.6,3.3-9.4,6.3-14.4,9
			c-1.2,0.7-2.5,1.3-3.8,1.8c-2.1,0.9-4.2,1.8-6.3,2.5c-2.5,0.9-5,1.6-7.5,2.2c-1,0.2-2.1,0.4-3.2,0.6c0.9,0.5,1.9,1,2.8,1.5
			c2.1,1.2,4.1,2.4,6.1,3.7c15.6,10.1,28.5,24.1,39.1,39.2c1.8,2.5,3.5,5.1,5.1,7.7c2.2,3.4,4.3,6.9,6.3,10.4
			c2.7,4.7,5.2,9.5,7.6,14.3c3,6.1,5.9,12.3,8.5,18.5c3.6,8.5,6.9,17.1,10,25.9c4.2,12,8,24.1,11.4,36.4c4.4,15.9,8.3,31.9,11.7,48
			c4.2,20,7.8,40.2,10.7,60.5C279.1,583.7,279.8,588.6,280.4,593.5z M-25.5,591.7c0.4-4.5,0.8-8.9,1.2-13.4c0.1-1.1,0.2-2.2,0.4-3.4
			c0.1-1,0.2-2.1,0.3-3.1c0.4-4,0.9-8.1,1.4-12.1c1.2-9.5,2.5-19.1,4-28.6c0.6-3.6,1.1-7.2,1.7-10.7l0.3-1.7c1.7-9,3.5-18,5.5-26.9
			c0.3-1.2,0.6-2.4,0.9-3.6c1-3.8,2-7.5,3-11.3c0.4-1.5,0.8-2.9,1.2-4.3c0.2-0.8,0.4-1.6,0.7-2.3c1.7-5.4,3.5-10.7,5.4-16.1l0.4-1.1
			c2-5.2,4.1-10.4,6.2-15.5l0.2-0.5c2.7-5.8,5.5-11.6,8.5-17.4c1.8-3.4,3.6-6.8,5.4-10.1l0.4-0.8c3.2-5.3,6.5-10.4,9.9-15.5
			c1.3-1.9,2.6-3.7,3.9-5.5c0.5-0.7,1.1-1.5,1.6-2.2c4.8-6.3,10-12.3,15.6-18c0.3-0.3,0.5-0.5,0.8-0.7c0.2-0.2,0.5-0.4,0.7-0.7
			c1.2-1.1,2.4-2.1,3.6-3.2c1.8-1.5,3.5-2.9,5.4-4.3c0.5-0.4,1-0.7,1.6-1.1c0.7-0.5,1.3-0.9,2-1.4c2.3-1.5,4.6-3,6.9-4.3
			c1.5-0.9,3.1-1.7,4.6-2.5c1.9-0.9,3.8-1.8,5.8-2.5c2.7-1.1,5.4-2,8.3-2.6c1.9-0.5,3.9-0.8,5.9-1c1.2-0.1,2.5-0.2,3.7-0.1l0.1,0
			l0.3,0.3l-0.3,0.3c-0.2,0-0.4,0-0.6,0c-0.1,0-0.3,0-0.2,0c-0.3,0-0.6,0.1-0.8,0.1c-3.9,0.6-7.7,2-11.2,3.8c-3,1.6-5.8,3.6-8.4,5.8
			c-1.1,0.9-2.1,1.8-3.1,2.8c-2,1.9-3.8,3.9-5.5,6c-0.6,0.8-1.2,1.6-1.8,2.4c-0.2,0.3-0.4,0.5-0.6,0.8c-0.7,1-1.5,2-2.2,3.1
			c-1.6,2.4-3.1,4.9-4.5,7.4c-0.1,0.3-0.3,0.5-0.5,0.8c-0.2,0.3-0.3,0.5-0.5,0.8c-1.5,2.6-2.9,5.1-4.2,7.8c-1.6,3.2-3,6.6-4.3,9.9
			c-0.3,0.8-0.6,1.5-0.9,2.3c-0.7,1.9-1.5,3.8-2.1,5.7c-0.7,1.9-1.3,3.8-1.9,5.7l131.4-5.7c-3.3-6.2-6.9-12.2-10.9-18
			c-3.8-5.5-7.9-10.8-12.5-15.6c-6.3-6.6-13.5-12.6-21.9-16.4c-2.4-1.1-4.9-2-7.4-2.7c-1.6-0.5-3.3-0.8-4.9-1.1
			c-0.9-0.2-0.9-0.2-1.8-0.4c-2.1-0.5-4.2-1.1-6.2-1.7c-3.8-1.2-7.5-2.6-11.1-4.2c-3.6-1.6-7.1-3.4-10.5-5.3
			c-2.6-1.5-5.1-3.1-7.6-4.8c-15.7-10.8-28.6-25.1-39.4-40.7c-1.6-2.3-3.1-4.6-4.6-6.9c-2.2-3.4-4.2-6.9-6.2-10.4
			c-2.6-4.7-5.1-9.4-7.5-14.2c-3-6-5.7-12.1-8.3-18.3c-3.5-8.4-6.7-16.9-9.7-25.4c-3.8-11.1-7.3-22.3-10.4-33.6
			c-4.1-14.8-7.6-29.7-10.7-44.7c-3.9-18.8-7.1-37.8-9.8-56.8c-0.6-4-1.1-8.1-1.6-12.1L-140,137.3c-20.8,12-33.6,34.2-33.6,58.2
			c0,67.2,0,204.6,0,271.9c0,24,12.8,46.2,33.6,58.2L-25.5,591.7z M22.4,571.1l206.1-6.3c-2.5-14.7-5.3-29.4-8.5-43.9
			c-0.2-1.1-0.5-2.2-0.7-3.3l-190.2-6.8c-0.7,4.9-1.3,9.7-1.9,14.6c-0.2,1.4-0.4,2.7-0.5,4.1C24.9,543.3,23.5,557.2,22.4,571.1z
			 M32,491.4l179.2-6.4c-1.8-6.6-3.8-13.3-5.8-19.8c-3.2-10.2-6.7-20.3-10.6-30.2l-151.3-6.6c-0.3,1.1-0.5,2.2-0.8,3.3
			c-1.2,5.2-2.2,10.5-3.2,15.8c-0.3,1.3-0.5,2.6-0.8,3.9c-0.7,3.9-1.4,7.8-2.1,11.7c-0.2,1-0.4,1.9-0.5,2.9c-0.3,1.9-0.7,3.8-1,5.8
			c-0.4,2.6-0.8,5.2-1.2,7.8c-0.3,1.4-0.5,2.8-0.7,4.2C32.8,486.2,32.4,488.8,32,491.4z M157.7,312c0.1,0,0.2,0,0.3-0.1
			c3.9-0.9,7.6-2.5,11.1-4.5c2.8-1.6,5.4-3.6,7.9-5.7c2.9-2.5,5.6-5.3,8-8.2c0.6-0.8,1.2-1.6,1.8-2.4c0.4-0.5,0.7-1,1.1-1.5
			c0.6-0.8,1.1-1.5,1.7-2.3c1.8-2.6,3.5-5.3,5.1-8.1c0.1-0.3,0.3-0.5,0.5-0.8c0.2-0.3,0.3-0.5,0.5-0.8c2-3.4,3.9-7,5.6-10.6
			c1.1-2.3,2.1-4.7,3.1-7c0.5-1.1,0.9-2.2,1.4-3.3c0.8-1.9,1.5-3.8,2.1-5.7c1-2.9,2-5.8,2.9-8.7l-136.9,5.1
			c2.1,3.9,4.3,7.7,6.6,11.5c4.3,6.9,9,13.6,14.4,19.7c7.4,8.4,16.1,16,26.3,20.8c2.9,1.4,5.9,2.5,8.9,3.4c1,0.3,1.9,0.5,2.9,0.7
			c0.9,0.2,1.9,0.4,2.8,0.6c0.9,0.2,0.9,0.2,1.8,0.4c1.8,0.4,3.5,0.9,5.3,1.5c3.5,1.1,6.9,2.3,10.2,3.8
			C154.5,310.5,156.1,311.2,157.7,312z M59.6,216.6l156.4,5.9c1.1-4.6,2-9.2,2.9-13.9c0.1-0.8,0.2-0.8,0.3-1.7
			c0.2-1.1,0.5-2.3,0.7-3.4c0.7-3.5,1.3-7.1,1.9-10.6c0.1-0.6,0.2-1.2,0.3-1.8c0.1-0.6,0.2-1.2,0.3-1.9c0.4-2.5,0.9-5.1,1.3-7.6
			c0.3-1.7,0.5-3.5,0.8-5.2c0.3-1.6,0.6-3.1,0.8-4.7c0.4-2.5,0.8-4.9,1.2-7.4l-182.3,5.9c1.8,6.6,3.7,13.1,5.8,19.5
			C53,198.8,56.1,207.8,59.6,216.6z M36.4,137.9l193.2,6.3c0.1-1,0.3-2,0.4-2.9l0,0.1l0.3-2.4c0.2-1.6,0.4-3.1,0.6-4.7
			c0.1-1.2,0.3-2.4,0.4-3.6c0.2-1.2,0.3-2.4,0.5-3.7c0.2-1.7,0.4-3.3,0.6-5c0,0,0,0.1,0,0.1c0.2-1.7,0.4-3.4,0.6-5.1
			c0,0,0,0.1,0,0.1c0.6-5.3,1.2-10.5,1.7-15.8c0.5-5.5,1-11,1.4-16.6L27.5,90.3C30,106.2,32.9,122,36.4,137.9L36.4,137.9z
			 M21.4,44.1c0.5,4.8,1.1,9.5,1.6,14.2l214.5,5.9c0.1-1.2,0.2-2.3,0.2-3.5l0,0.1c0.1-2.1,0.3-4.1,0.4-6.2c0.1-2.1,0.2-4.2,0.3-6.3
			c0.1-1,0.1-2.1,0.2-3.1l-76-43.9c-20.8-12-46.4-12-67.2,0L21.4,44.1z"/>
	</g>
</g>
</svg>
