<?xml version="1.0" encoding="utf-8"?>
<!-- Generator: Adobe Illustrator 21.1.0, SVG Export Plug-In . SVG Version: 6.00 Build 0)  -->
<svg version="1.1" id="Layer_1" xmlns="http://www.w3.org/2000/svg" xmlns:xlink="http://www.w3.org/1999/xlink" x="0px" y="0px"
	 viewBox="0 0 500 500" style="enable-background:new 0 0 500 500;" xml:space="preserve">
<style type="text/css">
	.st0{clip-path:url(#SVGID_2_);}
	.st1{clip-path:url(#SVGID_4_);fill:#F5F7FA;}
	.st2{fill:#FFFFFF;}
	.st3{fill:#0E1027;}
	.st4{fill:#CEF3F7;}
	.st5{fill:#3BCEDE;}
	.st6{fill:#0A1429;}
</style>
<g>
	<g>
		<defs>
			<circle id="SVGID_1_" cx="249.6" cy="249.6" r="248.6"/>
		</defs>
		<clipPath id="SVGID_2_">
			<use xlink:href="#SVGID_1_"  style="overflow:visible;"/>
		</clipPath>
		<g class="st0">
			<g>
				<defs>
					<rect id="SVGID_3_" x="-2014" y="-1477.1" width="9544.9" height="5342.5"/>
				</defs>
				<clipPath id="SVGID_4_">
					<use xlink:href="#SVGID_3_"  style="overflow:visible;"/>
				</clipPath>
				<rect x="-32.1" y="-32.1" class="st1" width="563.4" height="563.4"/>
			</g>
		</g>
	</g>
</g>
<g>
	
		<rect x="281.4" y="263.8" transform="matrix(0.7071 -0.7071 0.7071 0.7071 -125.5283 303.0557)" class="st2" width="43.4" height="78.5"/>
	<path class="st3" d="M315.5,350.8l-60.1-60.1l35.3-35.3l60.1,60.1L315.5,350.8z M264.6,290.6l50.8,50.8l26-26l-50.8-50.9
		L264.6,290.6z"/>
	<g>
		<path class="st2" d="M286,264.6L262.5,241l30.2-30.2l-37.8-37.8c-37.1-37.1-97.3-15.4-97.3-15.4s-21.6,60.2,15.4,97.3l37.8,37.8
			l30.2-30.2l23.5,23.5L286,264.6z"/>
		<path class="st4" d="M210.8,294.6l-38.7-38.7c-37.2-37.2-16-98.1-15.8-98.7l0.2-0.6l0.6-0.2c0.6-0.2,61.5-21.5,98.7,15.8
			l38.7,38.7L264.4,241l23.5,23.5l-23.3,23.3L241,264.4L210.8,294.6z M158.7,158.7c-2.1,6.3-18.8,61.2,15.3,95.3l36.8,36.8
			l30.2-30.2l23.5,23.5l19.6-19.6L260.6,241l30.2-30.2L254,174C219.9,139.9,165,156.6,158.7,158.7z"/>
	</g>
	<path class="st2" d="M181,181c-2.5,15-3.2,38.7,12.1,54l17.8,17.8"/>
	<path class="st5" d="M330.8,330.8l-15.3,15.3L260,290.6l4.6-4.6L241,262.5l-30.2,30.2l-37.8-37.8c-37.1-37.1-15.4-97.3-15.4-97.3
		L330.8,330.8z"/>
	<path class="st6" d="M210.8,298.9L170,258c-38.6-38.6-17.4-99.3-16.5-101.9l0.7-2l2-0.7c2.6-0.9,63.3-22.1,101.9,16.5l40.9,40.9
		L268.7,241l23.5,23.5l-27.7,27.7L241,268.7L210.8,298.9z M161.1,161.1c-3.2,10.5-15.9,59.8,15.1,90.7l34.7,34.7l30.2-30.2
		l23.5,23.5l15.2-15.2L256.3,241l30.2-30.2l-34.7-34.7C220.9,145.2,171.6,157.9,161.1,161.1z M207.7,255.8l-17.8-17.8
		c-16.3-16.3-16.2-40.4-13.3-57.8l8.7,1.4c-2.6,15.4-2.8,36.5,10.9,50.2l17.8,17.8L207.7,255.8z"/>
	<path class="st6" d="M315.5,352.4l-61.7-61.7l36.9-36.9l61.7,61.7L315.5,352.4z M266.2,290.6l49.3,49.3l24.5-24.5l-49.3-49.3
		L266.2,290.6z"/>
</g>
</svg>
