<svg id="Layer_1" xmlns="http://www.w3.org/2000/svg" viewBox="0 0 32 22"><style>.st0{fill:#fff}</style><path class="st0" d="M2 21v-1.3l4.5-5.4 2.6 2.6c.2.2.5.2.7 0l.1-.1 4.6-6.4 2.6 3.4c.1.1.3.2.4.2.2 0 .3-.1.4-.2l4.8-6.7 4.3.8V21H2z"/><circle class="st0" cx="25" cy="5" r="4"/><path d="M24.5 7.5c-.2 0-.3-.1-.4-.2l-1.5-2c-.2-.2-.1-.6.1-.8.2-.2.6-.1.8.1l1 1.4 2.1-3.3c.2-.3.5-.3.7-.2s.3.5.2.7l-2.5 4c-.2.2-.3.3-.5.3zM2 5h18c0 1 .3 2 .9 2.9l-3.4 4.8-2.6-3.4c-.1-.2-.3-.3-.4-.3-.2 0-.3.1-.4.2l-4.7 6.5-2.6-2.6c0-.1-.2-.1-.3-.1-.1 0-.3.1-.4.2L2 18.1V5z" fill="#ba8ff7"/><path d="M3 18.5V21h2v-4.9zm4-3.8V21h2v-4.3zm4 .5V21h2v-8.5zm4-4.2v10h2v-7.3zm4 1.3V21h2V9.5zm4.2-2.7H23V21h2V10c-.6 0-1.3-.1-1.8-.4z" fill="#dfe3e6"/><path d="M31.9 13.2l-3.6-4.5c2.1-1.8 2.3-5 .4-7.1s-5-2.3-7.1-.4c-.8.7-1.4 1.7-1.6 2.8H2c-.6 0-1 .4-1 1v16H.5c-.3 0-.5.2-.5.5s.2.5.5.5h28c.3 0 .5-.2.5-.5s-.2-.5-.5-.5H28V9.9l3.1 3.9c.2.2.5.2.7 0 .2-.1.2-.4.1-.6zM25 1c2.2 0 4 1.8 4 4s-1.8 4-4 4-4-1.8-4-4 1.8-4 4-4zM2 5h18c0 1 .3 2 .9 2.9l-3.4 4.8-2.6-3.4c-.1-.2-.3-.3-.4-.3-.2 0-.3.1-.4.2l-4.7 6.5-2.6-2.6c0-.1-.2-.1-.3-.1-.1 0-.3.1-.4.2L2 18.1V5zm0 16v-1.3l4.5-5.4 2.6 2.6c.2.2.5.2.7 0l.1-.1 4.6-6.4 2.6 3.4c.1.1.3.2.4.2.2 0 .3-.1.4-.2l3.7-5.2c1.4 1.4 3.6 1.8 5.4 1V21H2z" fill="#152934"/></svg>