<?xml version="1.0" encoding="utf-8"?>
<!-- Generator: Adobe Illustrator 21.0.0, SVG Export Plug-In . SVG Version: 6.00 Build 0)  -->
<svg version="1.1" id="Layer_1" xmlns="http://www.w3.org/2000/svg" xmlns:xlink="http://www.w3.org/1999/xlink" x="0px" y="0px"
	 width="64px" height="64px" viewBox="0 0 64 64" style="enable-background:new 0 0 64 64;" xml:space="preserve">
<style type="text/css">
	.st0{fill:#9E7BFF;}
	.st1{fill:#0F3659;}
</style>
<g>
	<path class="st0" d="M15.8,55.6L4.2,47.6C5,48.1,6,48.2,7.1,47.8l26.7-10.1c2.3-0.9,4.1-3.6,4.1-6l0-28.5c0-1.2-0.5-2.1-1.2-2.7
		c0,0,11.5,7.9,11.5,7.9c0.7,0.5,1.2,1.4,1.2,2.7l0,28.5c0,2.4-1.9,5.1-4.1,6L18.7,55.8C17.5,56.2,16.5,56.1,15.8,55.6z"/>
	<path class="st0" d="M59.8,16.4l-6.5-4.5c0.7,0.5,1.2,1.4,1.2,2.7l0,28.5c0,2.4-1.9,5.1-4.1,6L23.7,59.2c-1.1,0.4-2.2,0.3-2.9-0.2
		l6.5,4.5c0.7,0.5,1.8,0.6,2.9,0.2l26.7-10.1c2.3-0.9,4.1-3.6,4.1-6L61,19C61,17.8,60.5,16.9,59.8,16.4z"/>
	<path class="st1" d="M48.2,8.4c-0.7-0.5-1.8-0.6-2.9-0.2L18.7,18.4c-2.3,0.9-4.1,3.6-4.1,6l0,28.5c0,1.2,0.5,2.1,1.2,2.7
		c0,0-11.5-7.9-11.5-7.9C3.5,47.1,3,46.2,3,45l0-28.5c0-2.4,1.9-5.1,4.1-6L33.8,0.3C34.9-0.1,36,0,36.7,0.5L48.2,8.4z"/>
	<path class="st1" d="M20.8,59c-0.7-0.5-1.2-1.4-1.2-2.7l0-28.5c0-2.4,1.9-5.1,4.1-6l26.7-10.1c1.1-0.4,2.2-0.3,2.9,0.2
		c0,0,6.5,4.5,6.5,4.5c-0.7-0.5-1.8-0.6-2.9-0.2L30.2,26.3c-2.3,0.9-4.1,3.6-4.1,6l0,28.5c0,1.2,0.5,2.1,1.2,2.7L20.8,59z"/>
</g>
</svg>
