<?xml version="1.0" encoding="utf-8"?>
<!-- Generator: Adobe Illustrator 18.1.1, SVG Export Plug-In . SVG Version: 6.00 Build 0)  -->
<svg version="1.1" xmlns="http://www.w3.org/2000/svg" xmlns:xlink="http://www.w3.org/1999/xlink" x="0px" y="0px" width="128px"
	 height="128px" viewBox="0 0 128 128" style="enable-background:new 0 0 128 128;" xml:space="preserve">
<g id="BASE">
	<linearGradient id="SVGID_1_" gradientUnits="userSpaceOnUse" x1="63.9997" y1="7.0336" x2="63.9997" y2="120.7894">
		<stop  offset="0" style="stop-color:#4387FD"/>
		<stop  offset="1" style="stop-color:#4683EA"/>
	</linearGradient>
	<path style="fill:url(#SVGID_1_);" d="M27.7906,115.2166L1.54,69.7493c-2.0541-3.5578-2.0541-7.9412,0-11.499l26.2506-45.4672
		c2.0541-3.5578,5.8503-5.7495,9.9585-5.7495h52.5012c4.1082,0,7.9044,2.1917,9.9585,5.7495l26.2506,45.4672
		c2.0541,3.5578,2.0541,7.9412,0,11.499l-26.2506,45.4672c-2.0541,3.5578-5.8503,5.7495-9.9585,5.7495H37.7491
		C33.6409,120.9661,29.8448,118.7744,27.7906,115.2166z"/>
</g>
<g id="shadow">
	<g>
		<defs>
			<path id="SVGID_5_" d="M126.4743,58.3011l-26.3044-45.5995c-2.1084-3.6542-5.9312-5.6978-9.8641-5.7017H37.6976
				c-4.2153,0-7.8957,2.2923-9.8656,5.6983L1.528,58.2981c-2.1079,3.6538-1.965,7.9897-0.002,11.4001l26.3044,45.5999
				c2.1079,3.6538,5.9312,5.6979,9.8637,5.7018l29.5939-0.0039l0,0l23.0149,0.0039c4.2152,0,7.8957-2.2923,9.8646-5.6988
				l26.3049-45.5994C128.5797,66.0479,128.4368,61.7115,126.4743,58.3011z"/>
		</defs>
		<clipPath id="SVGID_2_">
			<use xlink:href="#SVGID_5_"  style="overflow:visible;"/>
		</clipPath>
		<polygon style="opacity:0.07;clip-path:url(#SVGID_2_);" points="74.0234,47.6171 54.625,47.9999 48.4193,59.138 40.6276,51.3463 
			32.2917,64.4583 35.2057,76.8307 79.8609,121.4859 97.3731,121.4357 121.4399,79.7992 92.8685,51.2278 95.0314,63.9999 
			93.5527,67.1463 		"/>
	</g>
</g>
<g id="art">
	<g>
		<path style="fill:#FFFFFF;" d="M82.9855,62.9999l-8.6267-14.9419c-0.3573-0.6188-1.0175-1-1.7321-1H55.3733
			c-0.7145,0-1.3748,0.3812-1.732,1l-8.6267,14.9419c-0.3573,0.6188-0.3573,1.3812,0,2l8.6267,14.9419
			c0.3573,0.6188,1.0175,1,1.732,1h17.2534c0.7145,0,1.3748-0.3812,1.7321-1l8.6267-14.9419
			C83.3427,64.3811,83.3427,63.6187,82.9855,62.9999z M64,71.3445c-4.0563,0-7.3446-3.2883-7.3446-7.3445
			c0-4.0563,3.2883-7.3446,7.3446-7.3446s7.3446,3.2883,7.3446,7.3446C71.3446,68.0562,68.0563,71.3445,64,71.3445z"/>
		<path style="fill:#FFFFFF;" d="M93.4041,64.6147l-6.1496,10.6516c-0.4731,0.8194,0.1183,1.8436,1.0644,1.8436h3.6839
			c0.4391,0,0.8448-0.2342,1.0644-0.6145l6.8596-11.8806c0.2196-0.3803,0.2196-0.8488,0-1.2291l-6.8598-11.881
			c-0.2196-0.3803-0.6253-0.6145-1.0644-0.6145h-3.6838c-0.9461,0-1.5374,1.0242-1.0644,1.8436l6.1497,10.652
			C93.6237,63.7659,93.6237,64.2344,93.4041,64.6147z"/>
		<path style="fill:#FFFFFF;" d="M35.9972,77.1098h3.6839c0.9461,0,1.5374-1.0242,1.0644-1.8436l-6.1496-10.6516
			c-0.2195-0.3803-0.2195-0.8488,0-1.229l6.1498-10.6519c0.4731-0.8194-0.1183-1.8436-1.0644-1.8436h-3.6839
			c-0.4391,0-0.8448,0.2342-1.0644,0.6145l-6.8598,11.881c-0.2196,0.3803-0.2196,0.8488,0,1.2291l6.8596,11.8806
			C35.1523,76.8755,35.5581,77.1098,35.9972,77.1098z"/>
	</g>
</g>
<g id="Guides">
</g>
</svg>
