<?xml version="1.0" encoding="utf-8"?>
<!-- Generator: Adobe Illustrator 19.1.0, SVG Export Plug-In . SVG Version: 6.00 Build 0)  -->
<svg version="1.1" id="Layer_1" xmlns="http://www.w3.org/2000/svg" xmlns:xlink="http://www.w3.org/1999/xlink" x="0px" y="0px" width="100px"
	 height="100px" 
	 viewBox="0 0 100 100" style="enable-background:new 0 0 100 100;" xml:space="preserve">
<style type="text/css">
	.st0{fill:#9D5125;}
	.st1{fill:#F58535;}
	.st2{fill:#4F4F4F;}
	.st3{fill:#7D7C7C;}
	.st4{clip-path:url(#SVGID_2_);fill:#4F4F4F;}
	.st5{fill:#FFFFFF;}
	.st6{fill:none;}
	.st7{fill:#D2D3D3;}
	.st8{clip-path:url(#SVGID_4_);fill:#4F4F4F;}
	.st9{fill:none;stroke:#FFFFFF;stroke-miterlimit:10;}
</style>
<path class="st3" d="M85.2,58v3.2C85.2,67,78.8,73,71,73H29c-7.9,0-14.2-5.9-14.2-11.8V58H85.2z"/>
<path class="st7" d="M41.9,26.9c7.3,0,13.6,4.3,16.4,10.6c1.5-1,3.2-1.6,5.2-1.6c5,0,9,3.9,9.1,8.8c7.1,0.6,12.6,7.4,12.6,12.9v1.2
	c0,5.9-6.4,11.8-14.3,11.8H29c-7.9,0-14.2-5.9-14.2-11.8v-1.2c0-4.5,3.8-10.7,9.1-12.2c0-0.2,0-0.3,0-0.5
	C23.9,34.9,31.9,26.9,41.9,26.9z"/>
</svg>
