<?xml version="1.0" encoding="utf-8"?>
<!-- Generator: Adobe Illustrator 19.1.0, SVG Export Plug-In . SVG Version: 6.00 Build 0)  -->
<svg version="1.1" id="Layer_1" xmlns="http://www.w3.org/2000/svg" xmlns:xlink="http://www.w3.org/1999/xlink" x="0px" y="0px" width="100px"
	 height="100px" 
	 viewBox="0 0 100 100" style="enable-background:new 0 0 100 100;" xml:space="preserve">
<style type="text/css">
	.st0{fill:#9D5125;}
	.st1{fill:#F58535;}
	.st2{fill:#4F4F4F;}
	.st3{fill:#7D7C7C;}
	.st4{clip-path:url(#SVGID_2_);fill:#4F4F4F;}
	.st5{fill:#FFFFFF;}
	.st6{fill:none;}
	.st7{fill:#D2D3D3;}
	.st8{clip-path:url(#SVGID_4_);fill:#4F4F4F;}
	.st9{fill:none;stroke:#FFFFFF;stroke-miterlimit:10;}
</style>
<polygon class="st0" points="11.8,29.4 88.2,29.4 88.2,26.9 50,16.9 11.8,26.9 "/>
<rect x="11.8" y="13.2" class="st1" width="76.5" height="13.6"/>
<polygon class="st0" points="11.8,48.5 88.2,48.5 88.2,46 50,36 11.8,46 "/>
<rect x="11.8" y="32.4" class="st1" width="76.5" height="13.6"/>
<polygon class="st0" points="11.8,67.6 88.2,67.6 88.2,65.1 50,55.1 11.8,65.1 "/>
<rect x="11.8" y="51.5" class="st1" width="76.5" height="13.6"/>
<polygon class="st0" points="11.8,86.8 88.2,86.8 88.2,84.3 50,74.3 11.8,84.3 "/>
<rect x="11.8" y="70.6" class="st1" width="76.5" height="13.6"/>
<rect x="26.5" y="16.1" class="st5" width="58.9" height="7.9"/>
<rect x="14.7" y="35.2" class="st5" width="58.9" height="7.9"/>
<rect x="26.5" y="54.4" class="st5" width="58.9" height="7.9"/>
<rect x="14.7" y="73.5" class="st5" width="58.9" height="7.9"/>
</svg>
