<?xml version="1.0" encoding="utf-8"?>
<!-- Generator: Adobe Illustrator 19.1.0, SVG Export Plug-In . SVG Version: 6.00 Build 0)  -->
<svg version="1.1" id="Layer_1" xmlns="http://www.w3.org/2000/svg" xmlns:xlink="http://www.w3.org/1999/xlink" x="0px" y="0px" width="100px"
	 height="100px" 
	 viewBox="0 0 100 100" style="enable-background:new 0 0 100 100;" xml:space="preserve">
<style type="text/css">
	.st0{fill:#9D5125;}
	.st1{fill:#F58535;}
	.st2{fill:#4F4F4F;}
	.st3{fill:#7D7C7C;}
	.st4{clip-path:url(#SVGID_2_);fill:#4F4F4F;}
	.st5{fill:#FFFFFF;}
	.st6{fill:none;}
	.st7{fill:#D2D3D3;}
	.st8{clip-path:url(#SVGID_4_);fill:#4F4F4F;}
	.st9{fill:none;stroke:#FFFFFF;stroke-miterlimit:10;}
</style>
<g>
	<path class="st3" d="M58,24.3c1.7,0,3.1,1.4,3.1,3.1L68.3,75c0,1.7-1.4,3.1-3.1,3.1H34.9c-1.7,0-3.1-1.4-3.1-3.1l8.9-47.5
		c0-1.7,1.4-3.1,3.1-3.1H58z"/>
</g>
<g>
	<path class="st7" d="M65.1,21.9c1.7,0,3.1,1.4,3.1,3.1v47.5c0,1.7-1.4,3.1-3.1,3.1H34.9c-1.7,0-3.1-1.4-3.1-3.1V25
		c0-1.7,1.4-3.1,3.1-3.1H65.1z"/>
</g>
<path class="st5" d="M40.9,25.3h18.2c1.1,0,2,0.9,2,2c0,1.1-0.9,2-2,2H40.9c-1.1,0-2-0.9-2-2C38.8,26.2,39.7,25.3,40.9,25.3z
	 M50,74.2c-2,0-3.6-1.6-3.6-3.5c0-2,1.6-3.5,3.6-3.5c2,0,3.6,1.6,3.6,3.5C53.5,72.6,51.9,74.2,50,74.2z M64.7,62.9
	c0,1-0.9,1.9-2.1,1.9H37.3c-1.2,0-2.1-0.8-2.1-1.9V34.6c0-1,0.9-1.9,2.1-1.9h25.3c1.2,0,2.1,0.8,2.1,1.9V62.9z"/>
</svg>
