<?xml version="1.0" encoding="utf-8"?>
<!-- Generator: Adobe Illustrator 19.1.0, SVG Export Plug-In . SVG Version: 6.00 Build 0)  -->
<svg version="1.1" id="Layer_1" xmlns="http://www.w3.org/2000/svg" xmlns:xlink="http://www.w3.org/1999/xlink" x="0px" y="0px" width="100px"
	 height="100px" 
	 viewBox="0 0 100 100" style="enable-background:new 0 0 100 100;" xml:space="preserve">
<style type="text/css">
	.st0{fill:#9D5125;}
	.st1{fill:#F58535;}
	.st2{fill:#4F4F4F;}
	.st3{fill:#7D7C7C;}
	.st4{clip-path:url(#SVGID_2_);fill:#4F4F4F;}
	.st5{fill:#FFFFFF;}
	.st6{fill:none;}
	.st7{fill:#D2D3D3;}
	.st8{clip-path:url(#SVGID_4_);fill:#4F4F4F;}
	.st9{fill:none;stroke:#FFFFFF;stroke-miterlimit:10;}
</style>
<g>
	<path class="st3" d="M75.2,24.3c2.2,0,3.9,1.8,3.9,3.9v45.9c0,2.2-1.8,3.9-3.9,3.9H24.7c-2.2,0-3.9-1.7-3.9-3.9V28.3
		c0-2.2,1.8-3.9,3.9-3.9H75.2z"/>
</g>
<g>
	<path class="st7" d="M75.2,21.9c2.2,0,3.9,1.8,3.9,3.9v45.9c0,2.2-1.8,3.9-3.9,3.9H24.7c-2.2,0-3.9-1.7-3.9-3.9V25.8
		c0-2.2,1.8-3.9,3.9-3.9H75.2z"/>
</g>
<g>
	<path class="st5" d="M66.5,26.4c0-0.9,0.7-1.6,1.6-1.6h6.3c0.9,0,1.6,0.7,1.6,1.6V29c0,0.9-0.7,1.6-1.6,1.6h-6.3
		c-0.9,0-1.6-0.7-1.6-1.6V26.4z M52.4,26.4c0-0.9,0.7-1.6,1.6-1.6h6.3c0.9,0,1.6,0.7,1.6,1.6V29c0,0.9-0.7,1.6-1.6,1.6H54
		c-0.9,0-1.6-0.7-1.6-1.6V26.4z M38.3,26.4c0-0.9,0.7-1.6,1.6-1.6h6.3c0.9,0,1.6,0.7,1.6,1.6V29c0,0.9-0.7,1.6-1.6,1.6h-6.3
		c-0.9,0-1.6-0.7-1.6-1.6V26.4z M24.2,26.4c0-0.9,0.7-1.6,1.6-1.6h6.3c0.9,0,1.6,0.7,1.6,1.6V29c0,0.9-0.7,1.6-1.6,1.6h-6.3
		c-0.9,0-1.6-0.7-1.6-1.6V26.4z M33.7,71.1c0,0.9-0.7,1.6-1.6,1.6h-6.3c-0.9,0-1.6-0.7-1.6-1.6v-2.6c0-0.9,0.7-1.6,1.6-1.6h6.3
		c0.9,0,1.6,0.7,1.6,1.6V71.1z M47.8,71.1c0,0.9-0.7,1.6-1.6,1.6h-6.3c-0.9,0-1.6-0.7-1.6-1.6v-2.6c0-0.9,0.7-1.6,1.6-1.6h6.3
		c0.9,0,1.6,0.7,1.6,1.6V71.1z M61.9,71.1c0,0.9-0.7,1.6-1.6,1.6H54c-0.9,0-1.6-0.7-1.6-1.6v-2.6c0-0.9,0.7-1.6,1.6-1.6h6.3
		c0.9,0,1.6,0.7,1.6,1.6V71.1z M76,71.1c0,0.9-0.7,1.6-1.6,1.6h-6.3c-0.9,0-1.6-0.7-1.6-1.6v-2.6c0-0.9,0.7-1.6,1.6-1.6h6.3
		c0.9,0,1.6,0.7,1.6,1.6V71.1z M75.2,64.2H24.8c-0.5,0-0.9-0.4-0.9-0.9c0-0.5,0.4-0.9,0.9-0.9h50.4c0.5,0,0.9,0.4,0.9,0.9
		C76.1,63.8,75.7,64.2,75.2,64.2z M42.2,47.9c0.4-3.7,3.3-6.5,7-6.9v6.9H42.2z M49.2,49.6v7c-3.7-0.4-6.6-3.3-7-7H49.2z M40.4,47.9
		h-1.5c0.4-5.5,4.8-9.8,10.3-10.2v1.5C44.5,39.5,40.8,43.2,40.4,47.9z M40.4,49.6c0.4,4.6,4.1,8.3,8.8,8.7v1.5
		c-5.5-0.4-9.9-4.8-10.3-10.2H40.4z M58,47.9h-7v-6.9C54.6,41.3,57.6,44.2,58,47.9z M51,39.1v-1.5c5.5,0.4,9.9,4.8,10.3,10.2h-1.5
		C59.3,43.2,55.6,39.5,51,39.1z M58,49.6c-0.4,3.7-3.3,6.5-7,7v-7H58z M59.8,49.6h1.5c-0.4,5.5-4.8,9.8-10.3,10.2v-1.5
		C55.6,57.9,59.3,54.2,59.8,49.6z M75.2,34.7H24.8c-0.5,0-0.9-0.4-0.9-0.9c0-0.5,0.4-0.9,0.9-0.9h50.4c0.5,0,0.9,0.4,0.9,0.9
		C76.1,34.3,75.7,34.7,75.2,34.7z"/>
</g>
</svg>
