<?xml version="1.0" encoding="utf-8"?>
<!-- Generator: Adobe Illustrator 19.1.0, SVG Export Plug-In . SVG Version: 6.00 Build 0)  -->
<svg version="1.1" id="Layer_1" xmlns="http://www.w3.org/2000/svg" xmlns:xlink="http://www.w3.org/1999/xlink" x="0px" y="0px" width="100px"
	 height="100px" 
	 viewBox="0 0 100 100" style="enable-background:new 0 0 100 100;" xml:space="preserve">
<style type="text/css">
	.st0{fill:#9D5125;}
	.st1{fill:#F58535;}
	.st2{fill:#4F4F4F;}
	.st3{fill:#7D7C7C;}
	.st4{clip-path:url(#SVGID_2_);fill:#4F4F4F;}
	.st5{fill:#FFFFFF;}
	.st6{fill:none;}
	.st7{fill:#D2D3D3;}
	.st8{clip-path:url(#SVGID_4_);fill:#4F4F4F;}
	.st9{fill:none;stroke:#FFFFFF;stroke-miterlimit:10;}
</style>
<rect x="16.8" y="46.6" class="st2" width="31" height="3.1"/>
<rect x="52.2" y="47.2" class="st2" width="31" height="3.6"/>
<path class="st2" d="M74.3,36.8c-7.7-3.7-17-0.4-20.6,7.4c-2.5,5.2-1.8,11.2,1.4,15.6c-3.6,0.9-7.2,1-11.4,1c0.7-0.7,0.9-1,1.5-1.8
	c1.7-2.5,2.7-5.5,2.7-8.8c0-8.6-6.9-15.5-15.5-15.5c-8.6,0-15.5,6.9-15.5,15.5c0,8.6,6.9,15.5,15.5,15.5c2.8,0,5.3-0.7,7.6-2
	c0.9,0.1,1.8,0.2,2.8,0.2c0,0,7.3,0.9,15.2-1c1,0.8,2,1.5,3.2,2c7.7,3.7,17,0.4,20.6-7.4C85.3,49.7,82,40.5,74.3,36.8z"/>
<path class="st3" d="M74.3,34.8c-7.7-3.7-17-0.4-20.6,7.4c-2.5,5.2-1.8,11.2,1.4,15.6c-3.6,0.9-7.6,1.5-11.9,1.5
	c2.9-2.8,4.7-6.7,4.7-11.1c0-8.6-6.9-15.5-15.5-15.5c-8.6,0-15.5,6.9-15.5,15.5c0,8.6,6.9,15.5,15.5,15.5c2.8,0,5.3-0.7,7.6-2
	c0.9,0.1,1.8,0.2,2.8,0.2c0,0,7.3,0.9,15.2-1c1,0.8,2,1.5,3.2,2c7.7,3.7,17,0.4,20.6-7.4C85.3,47.7,82,38.5,74.3,34.8z"/>
<path class="st5" d="M28.9,51.9c-1-1.2-2.8-1.4-4-0.4l-2.2,1.8c-1.2,1-1.4,2.8-0.4,4l0.2,0.2c1,1.2,2.8,1.4,4,0.4l2.2-1.8
	c1.2-1,1.4-2.8,0.4-4L28.9,51.9z"/>
<path class="st5" d="M46,48.9c0-1.6-1.2-2.8-2.8-2.9l-2.8,0c-1.6,0-2.8,1.2-2.9,2.8l0,0.3c0,1.6,1.2,2.8,2.8,2.9l2.8,0
	c1.6,0,2.8-1.2,2.9-2.8L46,48.9z"/>
<path class="st5" d="M30.9,42.7c1.5-0.5,2.3-2.1,1.8-3.6l-0.9-2.7c-0.5-1.5-2.1-2.3-3.6-1.8l-0.3,0.1c-1.5,0.5-2.3,2.1-1.8,3.6
	l0.9,2.7c0.5,1.5,2.1,2.3,3.6,1.8L30.9,42.7z"/>
<circle class="st5" cx="32.3" cy="48.2" r="2.2"/>
<path class="st5" d="M69.5,53.6c-1.5,0.4-2.4,1.9-2.1,3.4l0.7,2.7c0.4,1.5,1.9,2.4,3.4,2.1l0.3-0.1c1.5-0.4,2.4-1.9,2.1-3.4
	l-0.7-2.7c-0.4-1.5-1.9-2.4-3.4-2.1L69.5,53.6z"/>
<path class="st5" d="M74.2,36.8c-1.4-0.7-3.1-0.1-3.8,1.3l-1.2,2.5c-0.7,1.4-0.1,3.1,1.3,3.8l0.3,0.1c1.4,0.7,3.1,0.1,3.8-1.3
	l1.2-2.5c0.7-1.4,0.1-3.1-1.3-3.8L74.2,36.8z"/>
<path class="st5" d="M62.1,47.8c0.2-1.5-0.9-3-2.5-3.1l-2.8-0.3c-1.5-0.2-2.9,0.9-3.1,2.5l0,0.3c-0.2,1.5,0.9,2.9,2.5,3.1l2.8,0.3
	c1.5,0.2,2.9-0.9,3.1-2.5L62.1,47.8z"/>
<circle class="st5" cx="67.7" cy="48.8" r="2.2"/>
</svg>
