<?xml version="1.0" encoding="utf-8"?>
<!-- Generator: Adobe Illustrator 19.1.0, SVG Export Plug-In . SVG Version: 6.00 Build 0)  -->
<svg version="1.1" id="Layer_1" xmlns="http://www.w3.org/2000/svg" xmlns:xlink="http://www.w3.org/1999/xlink" x="0px" y="0px" width="100px"
	 height="100px" 
	 viewBox="0 0 100 100" style="enable-background:new 0 0 100 100;" xml:space="preserve">
<style type="text/css">
	.st0{fill:#9D5125;}
	.st1{fill:#F58535;}
	.st2{fill:#4F4F4F;}
	.st3{fill:#7D7C7C;}
	.st4{clip-path:url(#SVGID_2_);fill:#4F4F4F;}
	.st5{fill:#FFFFFF;}
	.st6{fill:none;}
	.st7{fill:#D2D3D3;}
	.st8{clip-path:url(#SVGID_4_);fill:#4F4F4F;}
	.st9{fill:none;stroke:#FFFFFF;stroke-miterlimit:10;}
</style>
<path class="st3" d="M70.2,45c5.4,0,9.2,3.4,9.2,8.3v10.6h-4.8v-7.2h-1.3v7.2H66c-0.5-5.4-4.8-9-10.9-9h-4.2v-2.9
	c4.7-0.4,8.4-2.2,8.8-6.9c0.2,0,0.3,0,0.4,0H70.2z"/>
<path class="st3" d="M39.9,45c0.2,0,0.3,0,0.4,0c0.4,4.7,4.1,6.5,8.8,6.9v2.9H45c-6.1,0-10.4,3.7-10.9,9h-7.1v-7.2h-1.3v7.2h-5V53.3
	c0-4.9,3.8-8.3,9.2-8.3H39.9z"/>
<path class="st3" d="M55.1,59.3c5.4,0,9.2,3.4,9.2,8.3v10.6h-4.8V71h-1.3v7.2H42V71h-1.3v7.2h-5V67.6c0-4.9,3.8-8.3,9.2-8.3H55.1z"
	/>
<path class="st3" d="M34.9,24.4l8,5.7v2.5c0,4.5-3.6,8.2-8,8.2c-4.4,0-8-3.7-8-8.5V30L34.9,24.4z"/>
<path class="st3" d="M65.1,24.4l8,5.7v2.5c0,4.5-3.6,8.2-8,8.2c-4.4,0-8-3.7-8-8.5V30L65.1,24.4z"/>
<path class="st3" d="M50,35.5l7.1,5v2.2c0,4-3.2,7.2-7.1,7.2c-3.9,0-7.1-3.2-7.1-7.6v-1.9L50,35.5z"/>
<path class="st7" d="M65.2,21.9c4.4,0,8,3.7,8,8.1c0,4.5-3.6,8.2-8,8.2c-4.4,0-8-3.7-8-8.2C57.2,25.5,60.8,21.9,65.2,21.9z"/>
<path class="st7" d="M50,33c3.9,0,7.1,3.2,7.1,7.2c0,4-3.2,7.2-7.1,7.2c-3.9,0-7.1-3.2-7.1-7.2C42.9,36.3,46.1,33,50,33z"/>
<path class="st7" d="M70.2,42.5c5.4,0,9.2,3.4,9.2,8.3v10.6h-4.8v-7.2h-1.3v7.2H66c-0.5-5.4-4.8-9-10.9-9h-4.2v-0.9
	c4.7-0.4,8.4-4.2,8.8-8.9c0.2,0,0.3,0,0.4,0H70.2z"/>
<path class="st7" d="M39.9,42.5c0.2,0,0.3,0,0.4,0c0.4,4.7,4.1,8.5,8.8,8.9v0.9H45c-6.1,0-10.4,3.7-10.9,9h-7.1v-7.2h-1.3v7.2h-5
	V50.8c0-4.9,3.8-8.3,9.2-8.3H39.9z"/>
<path class="st7" d="M55.1,56.8c5.4,0,9.2,3.4,9.2,8.3v10.6h-4.8v-7.2h-1.3v7.2H42v-7.2h-1.3v7.2h-5V65.1c0-4.9,3.8-8.3,9.2-8.3
	H55.1z"/>
<path class="st7" d="M34.9,21.9c4.4,0,8,3.7,8,8.1c0,4.5-3.6,8.2-8,8.2c-4.4,0-8-3.7-8-8.2C26.9,25.6,30.5,21.9,34.9,21.9z"/>
</svg>
