<?xml version="1.0" encoding="utf-8"?>
<!-- Generator: Adobe Illustrator 19.1.0, SVG Export Plug-In . SVG Version: 6.00 Build 0)  -->
<svg version="1.1" id="Layer_1" xmlns="http://www.w3.org/2000/svg" xmlns:xlink="http://www.w3.org/1999/xlink" x="0px" y="0px" width="100px"
	 height="100px" 
	 viewBox="0 0 100 100" style="enable-background:new 0 0 100 100;" xml:space="preserve">
<style type="text/css">
	.st0{fill:#9D5125;}
	.st1{fill:#F58535;}
	.st2{fill:#4F4F4F;}
	.st3{fill:#7D7C7C;}
	.st4{clip-path:url(#SVGID_2_);fill:#4F4F4F;}
	.st5{fill:#FFFFFF;}
	.st6{fill:none;}
	.st7{fill:#D2D3D3;}
	.st8{clip-path:url(#SVGID_4_);fill:#4F4F4F;}
	.st9{fill:none;stroke:#FFFFFF;stroke-miterlimit:10;}
</style>
<g>
	<defs>
		<path id="SVGID_1_" d="M77.5,48.8v2.5c0,15.1-12.3,27.3-27.5,27.3c-15.2,0-27.5-12.2-27.5-27.3v-2.5H77.5z"/>
	</defs>
	<use xlink:href="#SVGID_1_"  style="overflow:visible;fill:#4F4F4F;"/>
	<clipPath id="SVGID_2_">
		<use xlink:href="#SVGID_1_"  style="overflow:visible;"/>
	</clipPath>
	<path class="st4" d="M77.5,48.8v2.5c0,1.4-0.1,2.7-0.3,4.1v-2.5C77.4,51.5,77.5,50.2,77.5,48.8"/>
	<path class="st4" d="M77.2,52.9v2.5c-0.2,1.6-0.6,3.1-1.1,4.5v-2.5C76.6,55.9,77,54.4,77.2,52.9"/>
	<path class="st4" d="M76.1,57.4v2.5c-0.6,1.7-1.3,3.3-2.2,4.9v-2.5C74.8,60.7,75.5,59.1,76.1,57.4"/>
	<path class="st4" d="M73.9,62.3v2.5C69.2,73,60.2,78.5,50,78.5c-15.2,0-27.5-12.2-27.5-27.3v-2.5c0,15.1,12.3,27.3,27.5,27.3
		C60.2,76.1,69.2,70.5,73.9,62.3"/>
</g>
<path class="st3" d="M50,21.5c15.2,0,27.5,12.2,27.5,27.3c0,15.1-12.3,27.3-27.5,27.3c-15.2,0-27.5-12.2-27.5-27.3
	C22.5,33.7,34.8,21.5,50,21.5z"/>
<circle class="st9" cx="50" cy="48.8" r="8.5"/>
<circle class="st5" cx="50" cy="48.8" r="5.2"/>
</svg>
