<?xml version="1.0" encoding="utf-8"?>
<!-- Generator: Adobe Illustrator 19.1.0, SVG Export Plug-In . SVG Version: 6.00 Build 0)  -->
<svg version="1.1" id="Layer_1" xmlns="http://www.w3.org/2000/svg" xmlns:xlink="http://www.w3.org/1999/xlink" x="0px" y="0px" width="100px"
	 height="100px" 
	 viewBox="0 0 100 100" style="enable-background:new 0 0 100 100;" xml:space="preserve">
<style type="text/css">
	.st0{fill:#9D5125;}
	.st1{fill:#F58535;}
	.st2{fill:#4F4F4F;}
	.st3{fill:#7D7C7C;}
	.st4{clip-path:url(#SVGID_2_);fill:#4F4F4F;}
	.st5{fill:#FFFFFF;}
	.st6{fill:none;}
	.st7{fill:#D2D3D3;}
	.st8{clip-path:url(#SVGID_4_);fill:#4F4F4F;}
	.st9{fill:none;stroke:#FFFFFF;stroke-miterlimit:10;}
</style>
<g>
	<path class="st2" d="M55.8,24.3c1.7,0,3,1.3,3,3l11.8,45v2.8c0,1.7-1.4,3-3,3h-35c-1.7,0-3-1.3-3-3v-2.5l13.3-45.3c0-1.7,1.3-3,3-3
		H55.8z"/>
</g>
<g>
	<path class="st3" d="M67.5,21.9c1.7,0,3,1.3,3,3v47.7c0,1.7-1.4,3-3,3h-35c-1.7,0-3-1.3-3-3V24.9c0-1.7,1.3-3,3-3H67.5z"/>
</g>
<path class="st5" d="M64.1,44.6H35.9v-3.3h28.2V44.6z M64.1,39H35.9v-3.3h28.2V39z M64.1,33.1H35.9v-3.3h28.2V33.1z"/>
</svg>
