<?xml version="1.0" encoding="utf-8"?>
<!-- Generator: Adobe Illustrator 19.1.0, SVG Export Plug-In . SVG Version: 6.00 Build 0)  -->
<svg version="1.1" id="Layer_1" xmlns="http://www.w3.org/2000/svg" xmlns:xlink="http://www.w3.org/1999/xlink" x="0px" y="0px" width="100px"
	 height="100px" 
	 viewBox="0 0 100 100" style="enable-background:new 0 0 100 100;" xml:space="preserve">
<style type="text/css">
	.st0{fill:#9D5125;}
	.st1{fill:#F58535;}
	.st2{fill:#4F4F4F;}
	.st3{fill:#7D7C7C;}
	.st4{clip-path:url(#SVGID_2_);fill:#4F4F4F;}
	.st5{fill:#FFFFFF;}
	.st6{fill:none;}
	.st7{fill:#D2D3D3;}
	.st8{clip-path:url(#SVGID_4_);fill:#4F4F4F;}
	.st9{fill:none;stroke:#FFFFFF;stroke-miterlimit:10;}
</style>
<path class="st6" d="M71.7,70.3H54.1c-0.9,0-1.7,0.8-1.7,1.7c0,0,0,0,0,0h21c0,0,0,0,0,0C73.4,71.1,72.6,70.3,71.7,70.3z"/>
<path class="st6" d="M54.1,73.7h17.6c0.9,0,1.7-0.8,1.7-1.7h-21C52.4,72.9,53.1,73.7,54.1,73.7z"/>
<path class="st3" d="M73.4,72c0,0.9-0.8,1.7-1.7,1.7H54.1c-0.9,0-1.7-0.8-1.7-1.7H22.2v1.7c0,2.3,1.9,4.2,4.2,4.2h47.1
	c2.3,0,4.2-1.9,4.2-4.2V72H73.4z"/>
<path class="st3" d="M75.9,51.9l-2.7,3c0,1.1-0.9,1.9-1.9,1.9H28.7c-1.1,0-1.9-0.9-1.9-1.9l-2.3-3h-2.2v3c0,3.5,2.9,6.4,6.4,6.4
	h42.6c3.5,0,6.4-2.9,6.4-6.4v-3H75.9z"/>
<path class="st7" d="M73.5,63.6c2.3,0,4.2,1.9,4.2,4.2v3.4c0,2.3-1.9,4.2-4.2,4.2H26.4c-2.3,0-4.2-1.9-4.2-4.2v-3.4
	c0-2.3,1.9-4.2,4.2-4.2H73.5z M71.7,71.2c0.9,0,1.7-0.8,1.7-1.7c0-0.9-0.8-1.7-1.7-1.7H54.1c-0.9,0-1.7,0.8-1.7,1.7
	c0,0.9,0.8,1.7,1.7,1.7H71.7"/>
<path class="st7" d="M71.3,22.2c3.5,0,6.4,2.9,6.4,6.4v23.9c0,3.5-2.9,6.4-6.4,6.4H28.7c-3.5,0-6.4-2.9-6.4-6.4V28.5
	c0-3.5,2.9-6.4,6.4-6.4H71.3z M73.2,52.4V28.5c0-1.1-0.9-1.9-1.9-1.9H28.7c-1.1,0-1.9,0.9-1.9,1.9v23.9c0,1.1,0.9,1.9,1.9,1.9h42.6
	C72.3,54.3,73.2,53.5,73.2,52.4"/>
</svg>
