<?xml version="1.0" encoding="utf-8"?>
<!-- Generator: Adobe Illustrator 19.1.0, SVG Export Plug-In . SVG Version: 6.00 Build 0)  -->
<svg version="1.1" id="Layer_1" xmlns="http://www.w3.org/2000/svg" xmlns:xlink="http://www.w3.org/1999/xlink" x="0px" y="0px" width="100px"
	 height="100px" 
	 viewBox="0 0 100 100" style="enable-background:new 0 0 100 100;" xml:space="preserve">
<style type="text/css">
	.st0{fill:#9D5125;}
	.st1{fill:#F58535;}
	.st2{fill:#4F4F4F;}
	.st3{fill:#7D7C7C;}
	.st4{clip-path:url(#SVGID_2_);fill:#4F4F4F;}
	.st5{fill:#FFFFFF;}
	.st6{fill:none;}
	.st7{fill:#D2D3D3;}
	.st8{clip-path:url(#SVGID_4_);fill:#4F4F4F;}
	.st9{fill:none;stroke:#FFFFFF;stroke-miterlimit:10;}
</style>
<path class="st3" d="M50,24.5l11.8,9.2l0,2.5c0,6.5-5.3,11.7-11.8,11.7c-6.5,0-11.8-5.2-11.8-11.7l0-2.5L50,24.5z"/>
<path class="st3" d="M56.7,51.2c7.4,0,13.5,4.5,13.5,11.9v14.8h-7.7V67.5h-1.3v10.4H39.2V67.5h-1.3v10.4h-8V63.1
	c0-7.4,6-11.9,13.5-11.9H56.7z"/>
<path class="st7" d="M50,22c6.5,0,11.8,5.2,11.8,11.7c0,6.5-5.3,11.7-11.8,11.7c-6.5,0-11.8-5.2-11.8-11.7C38.2,27.3,43.5,22,50,22z
	"/>
<path class="st7" d="M56.7,48.7c7.4,0,13.5,4.5,13.5,11.9v14.8h-7.7V65h-1.3v10.4H39.2V65h-1.3v10.4h-8V60.6c0-7.4,6-11.9,13.5-11.9
	H56.7z"/>
</svg>
