<?xml version="1.0" encoding="utf-8"?>
<!-- Generator: Adobe Illustrator 19.1.0, SVG Export Plug-In . SVG Version: 6.00 Build 0)  -->
<svg version="1.1" id="Layer_1" xmlns="http://www.w3.org/2000/svg" xmlns:xlink="http://www.w3.org/1999/xlink" x="0px" y="0px" width="100px"
	 height="100px" 
	 viewBox="0 0 100 100" style="enable-background:new 0 0 100 100;" xml:space="preserve">
<style type="text/css">
	.st0{fill:#9D5125;}
	.st1{fill:#F58535;}
	.st2{fill:#4F4F4F;}
	.st3{fill:#7D7C7C;}
	.st4{clip-path:url(#SVGID_2_);fill:#4F4F4F;}
	.st5{fill:#FFFFFF;}
	.st6{fill:none;}
	.st7{fill:#D2D3D3;}
	.st8{clip-path:url(#SVGID_4_);fill:#4F4F4F;}
	.st9{fill:none;stroke:#FFFFFF;stroke-miterlimit:10;}
</style>
<g>
	<defs>
		<path id="SVGID_3_" d="M71.9,26.7v2.8c0,1.3-3.6,3.4-10.4,4.6c-3.2,0.6-7,0.9-11.5,0.9c-14.2,0-22-3.7-22-5.5v-2.8
			c0,1.9,7.8,5.5,22,5.5c4.5,0,8.4-0.4,11.5-0.9C68.3,30,71.9,27.9,71.9,26.7z"/>
	</defs>
	<use xlink:href="#SVGID_3_"  style="overflow:visible;fill:#4F4F4F;"/>
	<clipPath id="SVGID_2_">
		<use xlink:href="#SVGID_3_"  style="overflow:visible;"/>
	</clipPath>
	<path class="st4" d="M71.9,26.7v2.8c0,0,0,0.1,0,0.1v-2.8C71.9,26.7,71.9,26.7,71.9,26.7"/>
	<path class="st4" d="M71.9,26.8v2.8c0,0.1,0,0.1,0,0.2v-2.8C71.9,26.9,71.9,26.8,71.9,26.8"/>
	<path class="st4" d="M71.9,26.9v2.8c0,0.1-0.1,0.2-0.1,0.2v-2.8C71.8,27.1,71.8,27,71.9,26.9"/>
	<path class="st4" d="M71.8,27.2V30c-0.8,1.3-4.3,3-10.3,4.1c-3.2,0.6-7,0.9-11.5,0.9c-14.2,0-22-3.7-22-5.5v-2.8
		c0,1.9,7.8,5.5,22,5.5c4.5,0,8.4-0.4,11.5-0.9C67.5,30.2,71,28.4,71.8,27.2"/>
</g>
<path class="st2" d="M71.9,68.6c0-0.1,0.1-0.3,0.1-0.4v4.5c0,0.1,0,0.1,0,0.2c0,0.1,0,0.1-0.1,0.2c0,0,0,0,0,0c0,0,0,0,0,0
	c0,0.1-0.1,0.2-0.1,0.3c0,0,0,0,0,0.1c0,0.1-0.1,0.1-0.1,0.2c-0.1,0.1-0.1,0.2-0.2,0.2c-0.1,0.1-0.1,0.1-0.2,0.2
	c-0.1,0.1-0.2,0.2-0.3,0.2c-0.1,0.1-0.2,0.1-0.3,0.2c-0.1,0.1-0.2,0.2-0.4,0.2c-0.1,0.1-0.2,0.1-0.3,0.2c-0.1,0.1-0.3,0.2-0.5,0.2
	c-0.1,0.1-0.2,0.1-0.4,0.2c-0.2,0.1-0.4,0.2-0.6,0.3c-0.1,0.1-0.2,0.1-0.4,0.2c-0.3,0.1-0.7,0.3-1.1,0.4c-0.1,0-0.3,0.1-0.4,0.1
	c-0.3,0.1-0.6,0.2-0.9,0.3c-0.2,0.1-0.4,0.1-0.6,0.1c-0.3,0.1-0.6,0.1-0.9,0.2c-0.2,0-0.4,0.1-0.7,0.1c-0.3,0.1-0.6,0.1-0.9,0.2
	c-0.2,0-0.5,0.1-0.7,0.1c-0.3,0.1-0.7,0.1-1,0.2c-0.3,0-0.5,0.1-0.8,0.1c-0.4,0-0.8,0.1-1.1,0.1c-0.3,0-0.6,0.1-0.9,0.1
	C57.9,78,57.4,78,57,78c-0.3,0-0.6,0-0.9,0.1c-0.5,0-1,0.1-1.5,0.1c-0.3,0-0.5,0-0.8,0c-0.8,0-1.6,0-2.5,0c-8,0-14-1-18-2.3
	c-2.9-1-5-2.2-5.2-3v-4.5c0.2,0.8,2.1,1.9,4.7,2.8L32.6,71c3.9,1.3,10.6,2.8,18.6,2.8c0.9,0,1.7,0,2.5,0c0.3,0,0.5,0,0.8,0
	c0.5,0,1.1,0,1.6-0.1c0.3,0,0.6,0,0.8-0.1c0.4,0,0.9-0.1,1.3-0.1c0.3,0,0.5-0.1,0.8-0.1c0.4,0,0.8-0.1,1.2-0.1
	c0.3,0,0.5-0.1,0.8-0.1c0.4-0.1,0.7-0.1,1.1-0.2l5-1.2c0.4-0.1,0.8-0.3,1.1-0.4l1-0.4c0.1,0,0.2-0.1,0.2-0.1
	c0.2-0.1,0.4-0.2,0.6-0.3c0.1,0,0.2-0.1,0.2-0.1c0.2-0.1,0.3-0.2,0.4-0.3c0.1,0,0.1-0.1,0.2-0.2c0.1-0.1,0.2-0.2,0.3-0.3
	c0.1-0.1,0.1-0.1,0.2-0.2c0.1-0.1,0.2-0.2,0.2-0.3c0,0,0.1-0.1,0.1-0.1L71.9,68.6z"/>
<path class="st3" d="M50,21.5c4.5,0,8.4,0.4,11.5,0.9c6.8,1.2,10.4,3.3,10.4,4.6c0,1.3-3.6,3.4-10.4,4.6c-3.2,0.6-7,0.9-11.5,0.9
	c-14.2,0-22-3.7-22-5.5C28,25.1,35.8,21.5,50,21.5z"/>
<path class="st3" d="M61.2,36c-0.6,0.1-1.2,0.2-1.8,0.3c-0.3,0-0.6,0.1-0.9,0.1c-0.6,0.1-1.1,0.1-1.7,0.2c-0.4,0-0.7,0.1-1.1,0.1
	c-0.7,0.1-1.5,0.1-2.2,0.1l-0.4,0c-0.9,0-1.8,0.1-2.7,0.1c-0.2,0-0.4,0-0.6,0c-8.7,0-17.5-1.5-21.8-4.4v37.8c0.2,0.9,2.3,2,5.2,3
	c3.9,1.3,10,2.3,18,2.3c14.6,0,20.7-3.6,20.7-5.5l0-38C69.7,33.8,66,35.2,61.2,36z"/>
</svg>
