<?xml version="1.0" encoding="utf-8"?>
<!-- Generator: Adobe Illustrator 19.1.0, SVG Export Plug-In . SVG Version: 6.00 Build 0)  -->
<svg version="1.1" id="Layer_1" xmlns="http://www.w3.org/2000/svg" xmlns:xlink="http://www.w3.org/1999/xlink" x="0px" y="0px" width="100px"
	 height="100px" 
	 viewBox="0 0 100 100" style="enable-background:new 0 0 100 100;" xml:space="preserve">
<style type="text/css">
	.st0{fill:#9D5125;}
	.st1{fill:#F58535;}
	.st2{fill:#4F4F4F;}
	.st3{fill:#7D7C7C;}
	.st4{clip-path:url(#SVGID_2_);fill:#4F4F4F;}
	.st5{fill:#FFFFFF;}
	.st6{fill:none;}
	.st7{fill:#D2D3D3;}
	.st8{clip-path:url(#SVGID_4_);fill:#4F4F4F;}
	.st9{fill:none;stroke:#FFFFFF;stroke-miterlimit:10;}
</style>
<path class="st0" d="M85.2,58v3.2C85.2,67,78.8,73,71,73H29c-7.9,0-14.2-5.9-14.2-11.8V58H85.2z"/>
<path class="st1" d="M41.9,26.9c7.3,0,13.6,4.3,16.4,10.6c1.5-1,3.2-1.6,5.2-1.6c5,0,9,3.9,9.1,8.8c7.1,0.6,12.6,7.4,12.6,12.9v1.2
	c0,5.9-6.4,11.8-14.3,11.8H29c-7.9,0-14.2-5.9-14.2-11.8v-1.2c0-4.5,3.8-10.7,9.1-12.2c0-0.2,0-0.3,0-0.5
	C23.9,34.9,31.9,26.9,41.9,26.9z"/>
<path class="st5" d="M31.8,47.8h2.8L37.4,61h0l3-13.2h2.8l-4.2,16.5h-3.3L31.8,47.8z"/>
<path class="st5" d="M44.9,47.8h5.2c3.2,0,4.5,2,4.5,4.8c0,3-1.7,4.9-4.8,4.9h-2.3v6.8h-2.6V47.8z M47.5,55.5h1.9
	c1.4,0,2.6-0.8,2.6-2.8c0-1.8-0.7-2.9-2.8-2.9h-1.7V55.5z"/>
<path class="st5" d="M67,58.4v0.3c0,3-1.2,5.9-5.1,5.9c-4.2,0-5.4-2.7-5.4-8.6c0-5.9,1.3-8.6,5.5-8.6c4.7,0,5,3.5,5,5.2V53h-2.6
	v-0.3c0-1.5-0.5-3.3-2.4-3.2c-1.9,0-2.8,1.2-2.8,6.5s0.9,6.6,2.8,6.6c2.2,0,2.4-2.4,2.4-4v-0.3H67z"/>
</svg>
