<?xml version="1.0" encoding="utf-8"?>
<!-- Generator: Adobe Illustrator 19.1.0, SVG Export Plug-In . SVG Version: 6.00 Build 0)  -->
<svg version="1.1" id="Layer_1" xmlns="http://www.w3.org/2000/svg" xmlns:xlink="http://www.w3.org/1999/xlink" x="0px" y="0px"
	 width="32px" height="32px" viewBox="-783 985 32 32" style="enable-background:new -783 985 32 32;" xml:space="preserve">
<style type="text/css">
	.st0{fill:#B8D432;}
	.st1{fill:#0072C6;}
	.st2{fill:#006DD6;}
</style>
<g>
	<g>
		
			<rect x="-772.3" y="994" transform="matrix(-0.5751 -0.8181 0.8181 -0.5751 -2020.6294 940.0969)" class="st0" width="12.3" height="1.6"/>
	</g>
</g>
<g>
	<g>
		
			<rect x="-765.7" y="1004.4" transform="matrix(-0.4968 -0.8679 0.8679 -0.4968 -2009.1495 845.5198)" class="st0" width="12.6" height="1.6"/>
	</g>
</g>
<g>
	<g>
		
			<rect x="-771.1" y="992.8" transform="matrix(-8.274528e-002 -0.9966 0.9966 -8.274528e-002 -1831.0651 315.607)" class="st0" width="1.6" height="15.3"/>
	</g>
</g>
<g>
	<g>
		
			<rect x="-766.1" y="999.1" transform="matrix(-0.8565 -0.5161 0.5161 -0.8565 -1939.1095 1469.5415)" class="st0" width="1.6" height="10.4"/>
	</g>
</g>
<g>
	<g>
		<path class="st1" d="M-751.5,985h-8.1c-0.3,0-0.5,0.2-0.5,0.6v2.9c0,0.3,0.2,0.5,0.5,0.5h4.6v4.5c0,0.3,0.2,0.5,0.6,0.5h2.9
			c0.3,0,0.5-0.2,0.5-0.5v-8C-751,985.2-751.2,985-751.5,985z"/>
	</g>
</g>
<g>
	<g>
		<path class="st1" d="M-782.5,1016.9h8.1c0.3,0,0.5-0.2,0.5-0.6v-2.9c0-0.3-0.2-0.5-0.5-0.5h-4.6v-4.5c0-0.3-0.2-0.5-0.6-0.5h-2.9
			c-0.3,0-0.5,0.2-0.5,0.5v8C-783,1016.7-782.8,1016.9-782.5,1016.9z"/>
	</g>
</g>
<g>
	<g>
		<circle class="st2" cx="-769.6" cy="989.9" r="3.1"/>
	</g>
</g>
<g>
	<g>
		<circle class="st2" cx="-762.5" cy="999.9" r="3.7"/>
	</g>
</g>
<g>
	<g>
		<circle class="st2" cx="-756.3" cy="1010.9" r="2.9"/>
	</g>
</g>
<g>
	<g>
		<circle class="st2" cx="-767.8" cy="1008.9" r="2.5"/>
	</g>
</g>
<g>
	<g>
		<circle class="st2" cx="-777.9" cy="1001.3" r="2.5"/>
	</g>
</g>
</svg>
